<?xml version="1.0" encoding="utf-8" standalone="no"?>
<!DOCTYPE svg PUBLIC "-//W3C//DTD SVG 1.1//EN"
  "http://www.w3.org/Graphics/SVG/1.1/DTD/svg11.dtd">
<!-- Created with matplotlib (https://matplotlib.org/) -->
<svg height="576pt" version="1.1" viewBox="0 0 1152 576" width="1152pt" xmlns="http://www.w3.org/2000/svg" xmlns:xlink="http://www.w3.org/1999/xlink">
 <metadata>
  <rdf:RDF xmlns:cc="http://creativecommons.org/ns#" xmlns:dc="http://purl.org/dc/elements/1.1/" xmlns:rdf="http://www.w3.org/1999/02/22-rdf-syntax-ns#">
   <cc:Work>
    <dc:type rdf:resource="http://purl.org/dc/dcmitype/StillImage"/>
    <dc:date>2020-09-03T17:17:17.865876</dc:date>
    <dc:format>image/svg+xml</dc:format>
    <dc:creator>
     <cc:Agent>
      <dc:title>Matplotlib v3.3.1, https://matplotlib.org/</dc:title>
     </cc:Agent>
    </dc:creator>
   </cc:Work>
  </rdf:RDF>
 </metadata>
 <defs>
  <style type="text/css">*{stroke-linecap:butt;stroke-linejoin:round;}</style>
 </defs>
 <g id="figure_1">
  <g id="patch_1">
   <path d="M 0 576 
L 1152 576 
L 1152 0 
L 0 0 
z
" style="fill:#ffffff;"/>
  </g>
  <g id="axes_1">
   <g id="patch_2">
    <path d="M 51.842 541.28 
L 1104.165989 541.28 
L 1104.165989 39.16 
L 51.842 39.16 
z
" style="fill:#ffffff;"/>
   </g>
   <g id="PolyCollection_1">
    <path clip-path="url(#p876d619e10)" d="M 51.842 -555.28529 
L 51.842 439.236258 
L 57.624 413.320387 
L 63.406 387.404516 
L 69.188 359.868903 
L 74.97 329.093806 
L 80.752 308.037161 
L 86.534 291.839742 
L 92.316 277.262065 
L 98.098 267.543613 
L 103.879999 259.444903 
L 109.661999 254.585677 
L 115.443999 249.726452 
L 121.225999 244.867226 
L 127.007999 244.867226 
L 132.789999 249.726452 
L 138.571999 257.825161 
L 144.353999 267.543613 
L 150.135999 275.642323 
L 155.917999 282.12129 
L 161.699999 286.980516 
L 167.481999 293.459484 
L 173.263999 308.037161 
L 179.045999 329.093806 
L 184.827999 356.629419 
L 190.609999 382.54529 
L 196.391998 403.601935 
L 202.173998 413.320387 
L 207.955998 416.559871 
L 213.737998 416.559871 
L 219.519998 414.940129 
L 225.301998 414.940129 
L 231.083998 413.320387 
L 236.865998 408.461161 
L 242.647998 400.362452 
L 248.429998 390.644 
L 254.211998 385.784774 
L 259.993998 390.644 
L 265.775998 405.221677 
L 271.557998 423.038839 
L 277.339998 437.616516 
L 283.121998 442.475742 
L 288.903998 439.236258 
L 294.685997 431.137548 
L 300.467997 427.898065 
L 306.249997 432.75729 
L 312.031997 444.095484 
L 317.813997 460.292903 
L 323.595997 471.631097 
L 329.377997 479.729806 
L 335.159997 486.208774 
L 340.941997 492.687742 
L 346.723997 500.786452 
L 352.505997 510.504903 
L 358.287997 516.983871 
L 364.069997 518.603613 
L 369.851997 512.124645 
L 375.633997 505.645677 
L 381.415997 500.786452 
L 387.197996 497.546968 
L 392.979996 499.16671 
L 398.761996 497.546968 
L 404.543996 494.307484 
L 410.325996 489.448258 
L 416.107996 484.589032 
L 421.889996 484.589032 
L 427.671996 491.068 
L 433.453996 499.16671 
L 439.235996 505.645677 
L 445.017996 508.885161 
L 450.799996 508.885161 
L 456.581996 507.265419 
L 462.363996 508.885161 
L 468.145996 510.504903 
L 473.927996 508.885161 
L 479.709996 502.406194 
L 485.491995 489.448258 
L 491.273995 474.870581 
L 497.055995 460.292903 
L 502.837995 453.813935 
L 508.619995 452.194194 
L 514.401995 455.433677 
L 520.183995 458.673161 
L 525.965995 463.532387 
L 531.747995 468.391613 
L 537.529995 473.250839 
L 543.311995 479.729806 
L 549.093995 486.208774 
L 554.875995 491.068 
L 560.657995 487.828516 
L 566.439995 478.110065 
L 572.221995 461.912645 
L 578.003995 440.856 
L 583.785994 426.278323 
L 589.567994 416.559871 
L 595.349994 418.179613 
L 601.131994 424.658581 
L 606.913994 434.377032 
L 612.695994 442.475742 
L 618.477994 450.574452 
L 624.259994 458.673161 
L 630.041994 466.771871 
L 635.823994 478.110065 
L 641.605994 489.448258 
L 647.387994 500.786452 
L 653.169994 510.504903 
L 658.951994 516.983871 
L 664.733994 521.843097 
L 670.515994 525.082581 
L 676.297993 525.082581 
L 682.079993 523.462839 
L 687.861993 521.843097 
L 693.643993 518.603613 
L 699.425993 516.983871 
L 705.207993 515.364129 
L 710.989993 515.364129 
L 716.771993 516.983871 
L 722.553993 518.603613 
L 728.335993 518.603613 
L 734.117993 516.983871 
L 739.899993 515.364129 
L 745.681993 515.364129 
L 751.463993 516.983871 
L 757.245993 520.223355 
L 763.027993 521.843097 
L 768.809993 520.223355 
L 774.591992 513.744387 
L 780.373992 502.406194 
L 786.155992 487.828516 
L 791.937992 471.631097 
L 797.719992 455.433677 
L 803.501992 440.856 
L 809.283992 426.278323 
L 815.065992 413.320387 
L 820.847992 400.362452 
L 826.629992 385.784774 
L 832.411992 376.066323 
L 838.193992 369.587355 
L 843.975992 369.587355 
L 849.757992 374.446581 
L 855.539992 380.925548 
L 861.321992 389.024258 
L 867.103991 392.263742 
L 872.885991 390.644 
L 878.667991 384.165032 
L 884.449991 371.207097 
L 890.231991 358.249161 
L 896.013991 345.291226 
L 901.795991 337.192516 
L 907.577991 332.33329 
L 913.359991 333.953032 
L 919.141991 338.812258 
L 924.923991 343.671484 
L 930.705991 350.150452 
L 936.487991 353.389935 
L 942.269991 356.629419 
L 948.051991 359.868903 
L 953.833991 361.488645 
L 959.615991 364.728129 
L 965.39799 371.207097 
L 971.17999 380.925548 
L 976.96199 395.503226 
L 982.74399 413.320387 
L 988.52599 431.137548 
L 994.30799 445.715226 
L 1000.08999 455.433677 
L 1005.87199 460.292903 
L 1011.65399 457.053419 
L 1017.43599 452.194194 
L 1023.21799 447.334968 
L 1028.99999 442.475742 
L 1034.78199 439.236258 
L 1040.56399 437.616516 
L 1046.34599 435.996774 
L 1052.12799 434.377032 
L 1057.909989 431.137548 
L 1063.691989 427.898065 
L 1069.473989 424.658581 
L 1075.255989 419.799355 
L 1081.037989 414.940129 
L 1086.819989 406.841419 
L 1092.601989 401.982194 
L 1098.383989 397.122968 
L 1104.165989 392.263742 
L 1104.165989 274.022581 
L 1104.165989 274.022581 
L 1098.383989 277.262065 
L 1092.601989 282.12129 
L 1086.819989 286.980516 
L 1081.037989 293.459484 
L 1075.255989 298.31871 
L 1069.473989 303.177935 
L 1063.691989 306.417419 
L 1057.909989 308.037161 
L 1052.12799 311.276645 
L 1046.34599 312.896387 
L 1040.56399 314.516129 
L 1034.78199 317.755613 
L 1028.99999 320.995097 
L 1023.21799 325.854323 
L 1017.43599 330.713548 
L 1011.65399 337.192516 
L 1005.87199 340.432 
L 1000.08999 338.812258 
L 994.30799 329.093806 
L 988.52599 316.135871 
L 982.74399 298.31871 
L 976.96199 282.12129 
L 971.17999 265.923871 
L 965.39799 254.585677 
L 959.615991 246.486968 
L 953.833991 241.627742 
L 948.051991 236.768516 
L 942.269991 231.90929 
L 936.487991 227.050065 
L 930.705991 220.571097 
L 924.923991 212.472387 
L 919.141991 204.373677 
L 913.359991 194.655226 
L 907.577991 189.796 
L 901.795991 188.176258 
L 896.013991 193.035484 
L 890.231991 201.134194 
L 884.449991 210.852645 
L 878.667991 218.951355 
L 872.885991 223.810581 
L 867.103991 223.810581 
L 861.321992 217.331613 
L 855.539992 207.613161 
L 849.757992 196.274968 
L 843.975992 186.556516 
L 838.193992 181.69729 
L 832.411992 181.69729 
L 826.629992 186.556516 
L 820.847992 194.655226 
L 815.065992 202.753935 
L 809.283992 210.852645 
L 803.501992 220.571097 
L 797.719992 230.289548 
L 791.937992 246.486968 
L 786.155992 264.304129 
L 780.373992 283.741032 
L 774.591992 301.558194 
L 768.809993 312.896387 
L 763.027993 316.135871 
L 757.245993 314.516129 
L 751.463993 309.656903 
L 745.681993 308.037161 
L 739.899993 308.037161 
L 734.117993 312.896387 
L 728.335993 316.135871 
L 722.553993 317.755613 
L 716.771993 317.755613 
L 710.989993 316.135871 
L 705.207993 317.755613 
L 699.425993 322.614839 
L 693.643993 332.33329 
L 687.861993 345.291226 
L 682.079993 355.009677 
L 676.297993 363.108387 
L 670.515994 364.728129 
L 664.733994 361.488645 
L 658.951994 355.009677 
L 653.169994 343.671484 
L 647.387994 332.33329 
L 641.605994 319.375355 
L 635.823994 309.656903 
L 630.041994 299.938452 
L 624.259994 291.839742 
L 618.477994 285.360774 
L 612.695994 278.881806 
L 606.913994 269.163355 
L 601.131994 259.444903 
L 595.349994 249.726452 
L 589.567994 246.486968 
L 583.785994 252.965935 
L 578.003995 267.543613 
L 572.221995 285.360774 
L 566.439995 303.177935 
L 560.657995 314.516129 
L 554.875995 317.755613 
L 549.093995 316.135871 
L 543.311995 309.656903 
L 537.529995 304.797677 
L 531.747995 299.938452 
L 525.965995 296.698968 
L 520.183995 293.459484 
L 514.401995 288.600258 
L 508.619995 285.360774 
L 502.837995 285.360774 
L 497.055995 293.459484 
L 491.273995 306.417419 
L 485.491995 324.234581 
L 479.709996 340.432 
L 473.927996 348.53071 
L 468.145996 351.770194 
L 462.363996 351.770194 
L 456.581996 353.389935 
L 450.799996 356.629419 
L 445.017996 359.868903 
L 439.235996 359.868903 
L 433.453996 355.009677 
L 427.671996 346.910968 
L 421.889996 342.051742 
L 416.107996 343.671484 
L 410.325996 350.150452 
L 404.543996 356.629419 
L 398.761996 361.488645 
L 392.979996 364.728129 
L 387.197996 366.347871 
L 381.415997 374.446581 
L 375.633997 387.404516 
L 369.851997 403.601935 
L 364.069997 416.559871 
L 358.287997 419.799355 
L 352.505997 413.320387 
L 346.723997 400.362452 
L 340.941997 389.024258 
L 335.159997 379.305806 
L 329.377997 374.446581 
L 323.595997 367.967613 
L 317.813997 358.249161 
L 312.031997 345.291226 
L 306.249997 333.953032 
L 300.467997 329.093806 
L 294.685997 332.33329 
L 288.903998 340.432 
L 283.121998 345.291226 
L 277.339998 340.432 
L 271.557998 327.474065 
L 265.775998 309.656903 
L 259.993998 295.079226 
L 254.211998 290.22 
L 248.429998 293.459484 
L 242.647998 301.558194 
L 236.865998 309.656903 
L 231.083998 314.516129 
L 225.301998 316.135871 
L 219.519998 316.135871 
L 213.737998 317.755613 
L 207.955998 317.755613 
L 202.173998 316.135871 
L 196.391998 304.797677 
L 190.609999 285.360774 
L 184.827999 257.825161 
L 179.045999 230.289548 
L 173.263999 205.993419 
L 167.481999 188.176258 
L 161.699999 178.457806 
L 155.917999 168.739355 
L 150.135999 159.020903 
L 144.353999 144.443226 
L 138.571999 129.865548 
L 132.789999 113.668129 
L 127.007999 102.329935 
L 121.225999 94.231226 
L 115.443999 87.752258 
L 109.661999 81.27329 
L 103.879999 74.794323 
L 98.098 66.695613 
L 92.316 58.596903 
L 86.534 47.25871 
L 80.752 29.441548 
L 74.97 -1.333548 
L 69.188 -122.814194 
L 63.406 -242.675097 
L 57.624 -390.071613 
L 51.842 -555.28529 
z
" style="fill:#e6e6e6;stroke:#e6e6e6;"/>
   </g>
   <g id="PolyCollection_2">
    <path clip-path="url(#p876d619e10)" d="M 51.842 -265.351484 
L 51.842 346.910968 
L 57.624 314.516129 
L 63.406 285.360774 
L 69.188 262.684387 
L 74.97 240.008 
L 80.752 231.90929 
L 86.534 227.050065 
L 92.316 220.571097 
L 98.098 215.711871 
L 103.879999 212.472387 
L 109.661999 210.852645 
L 115.443999 207.613161 
L 121.225999 207.613161 
L 127.007999 210.852645 
L 132.789999 217.331613 
L 138.571999 228.669806 
L 144.353999 238.388258 
L 150.135999 248.10671 
L 155.917999 254.585677 
L 161.699999 259.444903 
L 167.481999 267.543613 
L 173.263999 283.741032 
L 179.045999 304.797677 
L 184.827999 332.33329 
L 190.609999 358.249161 
L 196.391998 377.686065 
L 202.173998 389.024258 
L 207.955998 390.644 
L 213.737998 389.024258 
L 219.519998 387.404516 
L 225.301998 387.404516 
L 231.083998 385.784774 
L 236.865998 382.54529 
L 242.647998 374.446581 
L 248.429998 364.728129 
L 254.211998 361.488645 
L 259.993998 366.347871 
L 265.775998 380.925548 
L 271.557998 400.362452 
L 277.339998 414.940129 
L 283.121998 419.799355 
L 288.903998 414.940129 
L 294.685997 406.841419 
L 300.467997 403.601935 
L 306.249997 408.461161 
L 312.031997 419.799355 
L 317.813997 434.377032 
L 323.595997 445.715226 
L 329.377997 453.813935 
L 335.159997 460.292903 
L 340.941997 470.011355 
L 346.723997 481.349548 
L 352.505997 495.927226 
L 358.287997 504.025935 
L 364.069997 504.025935 
L 369.851997 492.687742 
L 375.633997 479.729806 
L 381.415997 470.011355 
L 387.197996 465.152129 
L 392.979996 465.152129 
L 398.761996 463.532387 
L 404.543996 460.292903 
L 410.325996 453.813935 
L 416.107996 448.95471 
L 421.889996 448.95471 
L 427.671996 455.433677 
L 433.453996 463.532387 
L 439.235996 470.011355 
L 445.017996 471.631097 
L 450.799996 471.631097 
L 456.581996 470.011355 
L 462.363996 470.011355 
L 468.145996 471.631097 
L 473.927996 470.011355 
L 479.709996 461.912645 
L 485.491995 448.95471 
L 491.273995 432.75729 
L 497.055995 419.799355 
L 502.837995 411.700645 
L 508.619995 410.080903 
L 514.401995 413.320387 
L 520.183995 416.559871 
L 525.965995 421.419097 
L 531.747995 424.658581 
L 537.529995 429.517806 
L 543.311995 435.996774 
L 549.093995 442.475742 
L 554.875995 445.715226 
L 560.657995 442.475742 
L 566.439995 432.75729 
L 572.221995 414.940129 
L 578.003995 395.503226 
L 583.785994 380.925548 
L 589.567994 374.446581 
L 595.349994 376.066323 
L 601.131994 385.784774 
L 606.913994 395.503226 
L 612.695994 403.601935 
L 618.477994 410.080903 
L 624.259994 416.559871 
L 630.041994 423.038839 
L 635.823994 434.377032 
L 641.605994 445.715226 
L 647.387994 458.673161 
L 653.169994 471.631097 
L 658.951994 484.589032 
L 664.733994 494.307484 
L 670.515994 499.16671 
L 676.297993 500.786452 
L 682.079993 497.546968 
L 687.861993 489.448258 
L 693.643993 479.729806 
L 699.425993 471.631097 
L 705.207993 466.771871 
L 710.989993 465.152129 
L 716.771993 466.771871 
L 722.553993 466.771871 
L 728.335993 466.771871 
L 734.117993 465.152129 
L 739.899993 463.532387 
L 745.681993 463.532387 
L 751.463993 466.771871 
L 757.245993 471.631097 
L 763.027993 474.870581 
L 768.809993 474.870581 
L 774.591992 466.771871 
L 780.373992 452.194194 
L 786.155992 434.377032 
L 791.937992 416.559871 
L 797.719992 398.74271 
L 803.501992 385.784774 
L 809.283992 372.826839 
L 815.065992 359.868903 
L 820.847992 346.910968 
L 826.629992 335.572774 
L 832.411992 325.854323 
L 838.193992 320.995097 
L 843.975992 320.995097 
L 849.757992 327.474065 
L 855.539992 337.192516 
L 861.321992 345.291226 
L 867.103991 350.150452 
L 872.885991 350.150452 
L 878.667991 343.671484 
L 884.449991 332.33329 
L 890.231991 317.755613 
L 896.013991 306.417419 
L 901.795991 299.938452 
L 907.577991 296.698968 
L 913.359991 299.938452 
L 919.141991 306.417419 
L 924.923991 311.276645 
L 930.705991 317.755613 
L 936.487991 322.614839 
L 942.269991 325.854323 
L 948.051991 329.093806 
L 953.833991 332.33329 
L 959.615991 337.192516 
L 965.39799 343.671484 
L 971.17999 353.389935 
L 976.96199 367.967613 
L 982.74399 385.784774 
L 988.52599 401.982194 
L 994.30799 416.559871 
L 1000.08999 424.658581 
L 1005.87199 427.898065 
L 1011.65399 426.278323 
L 1017.43599 421.419097 
L 1023.21799 416.559871 
L 1028.99999 411.700645 
L 1034.78199 408.461161 
L 1040.56399 405.221677 
L 1046.34599 401.982194 
L 1052.12799 400.362452 
L 1057.909989 398.74271 
L 1063.691989 395.503226 
L 1069.473989 393.883484 
L 1075.255989 390.644 
L 1081.037989 384.165032 
L 1086.819989 377.686065 
L 1092.601989 372.826839 
L 1098.383989 367.967613 
L 1104.165989 364.728129 
L 1104.165989 306.417419 
L 1104.165989 306.417419 
L 1098.383989 309.656903 
L 1092.601989 314.516129 
L 1086.819989 319.375355 
L 1081.037989 325.854323 
L 1075.255989 332.33329 
L 1069.473989 335.572774 
L 1063.691989 337.192516 
L 1057.909989 340.432 
L 1052.12799 342.051742 
L 1046.34599 343.671484 
L 1040.56399 346.910968 
L 1034.78199 350.150452 
L 1028.99999 353.389935 
L 1023.21799 358.249161 
L 1017.43599 363.108387 
L 1011.65399 367.967613 
L 1005.87199 371.207097 
L 1000.08999 369.587355 
L 994.30799 361.488645 
L 988.52599 346.910968 
L 982.74399 330.713548 
L 976.96199 312.896387 
L 971.17999 298.31871 
L 965.39799 286.980516 
L 959.615991 280.501548 
L 953.833991 275.642323 
L 948.051991 270.783097 
L 942.269991 267.543613 
L 936.487991 262.684387 
L 930.705991 256.205419 
L 924.923991 248.10671 
L 919.141991 241.627742 
L 913.359991 233.529032 
L 907.577991 228.669806 
L 901.795991 228.669806 
L 896.013991 233.529032 
L 890.231991 243.247484 
L 884.449991 254.585677 
L 878.667991 264.304129 
L 872.885991 270.783097 
L 867.103991 269.163355 
L 861.321992 262.684387 
L 855.539992 252.965935 
L 849.757992 243.247484 
L 843.975992 235.148774 
L 838.193992 230.289548 
L 832.411992 233.529032 
L 826.629992 240.008 
L 820.847992 249.726452 
L 815.065992 259.444903 
L 809.283992 269.163355 
L 803.501992 280.501548 
L 797.719992 291.839742 
L 791.937992 306.417419 
L 786.155992 324.234581 
L 780.373992 342.051742 
L 774.591992 358.249161 
L 768.809993 366.347871 
L 763.027993 369.587355 
L 757.245993 366.347871 
L 751.463993 361.488645 
L 745.681993 358.249161 
L 739.899993 358.249161 
L 734.117993 361.488645 
L 728.335993 364.728129 
L 722.553993 366.347871 
L 716.771993 364.728129 
L 710.989993 364.728129 
L 705.207993 367.967613 
L 699.425993 374.446581 
L 693.643993 384.165032 
L 687.861993 397.122968 
L 682.079993 408.461161 
L 676.297993 414.940129 
L 670.515994 414.940129 
L 664.733994 408.461161 
L 658.951994 400.362452 
L 653.169994 389.024258 
L 647.387994 376.066323 
L 641.605994 364.728129 
L 635.823994 353.389935 
L 630.041994 343.671484 
L 624.259994 337.192516 
L 618.477994 330.713548 
L 612.695994 324.234581 
L 606.913994 316.135871 
L 601.131994 304.797677 
L 595.349994 296.698968 
L 589.567994 293.459484 
L 583.785994 298.31871 
L 578.003995 311.276645 
L 572.221995 330.713548 
L 566.439995 348.53071 
L 560.657995 359.868903 
L 554.875995 363.108387 
L 549.093995 359.868903 
L 543.311995 355.009677 
L 537.529995 348.53071 
L 531.747995 345.291226 
L 525.965995 342.051742 
L 520.183995 337.192516 
L 514.401995 332.33329 
L 508.619995 330.713548 
L 502.837995 330.713548 
L 497.055995 338.812258 
L 491.273995 351.770194 
L 485.491995 367.967613 
L 479.709996 382.54529 
L 473.927996 390.644 
L 468.145996 393.883484 
L 462.363996 393.883484 
L 456.581996 393.883484 
L 450.799996 395.503226 
L 445.017996 398.74271 
L 439.235996 398.74271 
L 433.453996 392.263742 
L 427.671996 385.784774 
L 421.889996 379.305806 
L 416.107996 380.925548 
L 410.325996 385.784774 
L 404.543996 393.883484 
L 398.761996 397.122968 
L 392.979996 398.74271 
L 387.197996 401.982194 
L 381.415997 408.461161 
L 375.633997 423.038839 
L 369.851997 439.236258 
L 364.069997 452.194194 
L 358.287997 455.433677 
L 352.505997 447.334968 
L 346.723997 432.75729 
L 340.941997 418.179613 
L 335.159997 408.461161 
L 329.377997 403.601935 
L 323.595997 395.503226 
L 317.813997 385.784774 
L 312.031997 372.826839 
L 306.249997 359.868903 
L 300.467997 355.009677 
L 294.685997 359.868903 
L 288.903998 367.967613 
L 283.121998 371.207097 
L 277.339998 367.967613 
L 271.557998 353.389935 
L 265.775998 335.572774 
L 259.993998 320.995097 
L 254.211998 314.516129 
L 248.429998 319.375355 
L 242.647998 327.474065 
L 236.865998 335.572774 
L 231.083998 338.812258 
L 225.301998 340.432 
L 219.519998 340.432 
L 213.737998 342.051742 
L 207.955998 343.671484 
L 202.173998 342.051742 
L 196.391998 330.713548 
L 190.609999 311.276645 
L 184.827999 285.360774 
L 179.045999 257.825161 
L 173.263999 233.529032 
L 167.481999 217.331613 
L 161.699999 207.613161 
L 155.917999 199.514452 
L 150.135999 191.415742 
L 144.353999 180.077548 
L 138.571999 165.499871 
L 132.789999 152.541935 
L 127.007999 142.823484 
L 121.225999 134.724774 
L 115.443999 131.48529 
L 109.661999 128.245806 
L 103.879999 125.006323 
L 98.098 120.147097 
L 92.316 115.287871 
L 86.534 110.428645 
L 80.752 100.710194 
L 74.97 81.27329 
L 69.188 5.145419 
L 63.406 -69.36271 
L 57.624 -161.688 
L 51.842 -265.351484 
z
" style="fill:#c8c8c8;stroke:#c8c8c8;"/>
   </g>
   <g id="matplotlib.axis_1">
    <g id="xtick_1">
     <g id="line2d_1">
      <defs>
       <path d="M 0 0 
L 0 3.5 
" id="md3f4d4a748" style="stroke:#555555;stroke-width:0.8;"/>
      </defs>
      <g>
       <use style="fill:#555555;stroke:#555555;stroke-width:0.8;" x="207.955998" xlink:href="#md3f4d4a748" y="541.28"/>
      </g>
     </g>
     <g id="text_1">
      <!-- April -->
      <g style="fill:#555555;" transform="translate(189.276936 558.917812)scale(0.14 -0.14)">
       <defs>
        <path d="M 53.421875 13.28125 
L 24.03125 13.28125 
L 19.390625 0 
L 0.484375 0 
L 27.484375 72.90625 
L 49.90625 72.90625 
L 76.90625 0 
L 58.015625 0 
z
M 28.71875 26.8125 
L 48.6875 26.8125 
L 38.71875 55.8125 
z
" id="DejaVuSans-Bold-65"/>
        <path d="M 25.875 7.90625 
L 25.875 -20.796875 
L 8.40625 -20.796875 
L 8.40625 54.6875 
L 25.875 54.6875 
L 25.875 46.6875 
Q 29.5 51.46875 33.890625 53.734375 
Q 38.28125 56 44 56 
Q 54.109375 56 60.59375 47.96875 
Q 67.09375 39.9375 67.09375 27.296875 
Q 67.09375 14.65625 60.59375 6.609375 
Q 54.109375 -1.421875 44 -1.421875 
Q 38.28125 -1.421875 33.890625 0.84375 
Q 29.5 3.125 25.875 7.90625 
z
M 37.5 43.3125 
Q 31.890625 43.3125 28.875 39.1875 
Q 25.875 35.0625 25.875 27.296875 
Q 25.875 19.53125 28.875 15.40625 
Q 31.890625 11.28125 37.5 11.28125 
Q 43.109375 11.28125 46.0625 15.375 
Q 49.03125 19.484375 49.03125 27.296875 
Q 49.03125 35.109375 46.0625 39.203125 
Q 43.109375 43.3125 37.5 43.3125 
z
" id="DejaVuSans-Bold-112"/>
        <path d="M 49.03125 39.796875 
Q 46.734375 40.875 44.453125 41.375 
Q 42.1875 41.890625 39.890625 41.890625 
Q 33.15625 41.890625 29.515625 37.5625 
Q 25.875 33.25 25.875 25.203125 
L 25.875 0 
L 8.40625 0 
L 8.40625 54.6875 
L 25.875 54.6875 
L 25.875 45.703125 
Q 29.25 51.078125 33.609375 53.53125 
Q 37.984375 56 44.09375 56 
Q 44.96875 56 45.984375 55.921875 
Q 47.015625 55.859375 48.96875 55.609375 
z
" id="DejaVuSans-Bold-114"/>
        <path d="M 8.40625 54.6875 
L 25.875 54.6875 
L 25.875 0 
L 8.40625 0 
z
M 8.40625 75.984375 
L 25.875 75.984375 
L 25.875 61.71875 
L 8.40625 61.71875 
z
" id="DejaVuSans-Bold-105"/>
        <path d="M 8.40625 75.984375 
L 25.875 75.984375 
L 25.875 0 
L 8.40625 0 
z
" id="DejaVuSans-Bold-108"/>
       </defs>
       <use xlink:href="#DejaVuSans-Bold-65"/>
       <use x="77.392578" xlink:href="#DejaVuSans-Bold-112"/>
       <use x="148.974609" xlink:href="#DejaVuSans-Bold-114"/>
       <use x="198.291016" xlink:href="#DejaVuSans-Bold-105"/>
       <use x="232.568359" xlink:href="#DejaVuSans-Bold-108"/>
      </g>
     </g>
    </g>
    <g id="xtick_2">
     <g id="line2d_2">
      <g>
       <use style="fill:#555555;stroke:#555555;stroke-width:0.8;" x="381.415997" xlink:href="#md3f4d4a748" y="541.28"/>
      </g>
     </g>
     <g id="text_2">
      <!-- May -->
      <g style="fill:#555555;" transform="translate(365.381622 558.808437)scale(0.14 -0.14)">
       <defs>
        <path d="M 9.1875 72.90625 
L 33.109375 72.90625 
L 49.703125 33.890625 
L 66.40625 72.90625 
L 90.28125 72.90625 
L 90.28125 0 
L 72.515625 0 
L 72.515625 53.328125 
L 55.71875 14.015625 
L 43.796875 14.015625 
L 27 53.328125 
L 27 0 
L 9.1875 0 
z
" id="DejaVuSans-Bold-77"/>
        <path d="M 32.90625 24.609375 
Q 27.4375 24.609375 24.671875 22.75 
Q 21.921875 20.90625 21.921875 17.28125 
Q 21.921875 13.96875 24.140625 12.078125 
Q 26.375 10.203125 30.328125 10.203125 
Q 35.25 10.203125 38.625 13.734375 
Q 42 17.28125 42 22.609375 
L 42 24.609375 
z
M 59.625 31.203125 
L 59.625 0 
L 42 0 
L 42 8.109375 
Q 38.484375 3.125 34.078125 0.84375 
Q 29.6875 -1.421875 23.390625 -1.421875 
Q 14.890625 -1.421875 9.59375 3.53125 
Q 4.296875 8.5 4.296875 16.40625 
Q 4.296875 26.03125 10.90625 30.515625 
Q 17.53125 35.015625 31.6875 35.015625 
L 42 35.015625 
L 42 36.375 
Q 42 40.53125 38.71875 42.453125 
Q 35.453125 44.390625 28.515625 44.390625 
Q 22.90625 44.390625 18.0625 43.265625 
Q 13.234375 42.140625 9.078125 39.890625 
L 9.078125 53.21875 
Q 14.703125 54.59375 20.359375 55.296875 
Q 26.03125 56 31.6875 56 
Q 46.484375 56 53.046875 50.171875 
Q 59.625 44.34375 59.625 31.203125 
z
" id="DejaVuSans-Bold-97"/>
        <path d="M 1.21875 54.6875 
L 18.703125 54.6875 
L 33.40625 17.578125 
L 45.90625 54.6875 
L 63.375 54.6875 
L 40.375 -5.171875 
Q 36.921875 -14.3125 32.296875 -17.9375 
Q 27.6875 -21.578125 20.125 -21.578125 
L 10.015625 -21.578125 
L 10.015625 -10.109375 
L 15.484375 -10.109375 
Q 19.921875 -10.109375 21.9375 -8.6875 
Q 23.96875 -7.28125 25.09375 -3.609375 
L 25.59375 -2.09375 
z
" id="DejaVuSans-Bold-121"/>
       </defs>
       <use xlink:href="#DejaVuSans-Bold-77"/>
       <use x="99.511719" xlink:href="#DejaVuSans-Bold-97"/>
       <use x="163.867188" xlink:href="#DejaVuSans-Bold-121"/>
      </g>
     </g>
    </g>
    <g id="xtick_3">
     <g id="line2d_3">
      <g>
       <use style="fill:#555555;stroke:#555555;stroke-width:0.8;" x="560.657995" xlink:href="#md3f4d4a748" y="541.28"/>
      </g>
     </g>
     <g id="text_3">
      <!-- June -->
      <g style="fill:#555555;" transform="translate(543.339557 558.917812)scale(0.14 -0.14)">
       <defs>
        <path d="M 9.1875 72.90625 
L 27.984375 72.90625 
L 27.984375 7.078125 
Q 27.984375 -6.546875 20.578125 -13.28125 
Q 13.1875 -20.015625 -1.8125 -20.015625 
L -5.609375 -20.015625 
L -5.609375 -5.8125 
L -2.6875 -5.8125 
Q 3.171875 -5.8125 6.171875 -2.53125 
Q 9.1875 0.734375 9.1875 7.078125 
z
" id="DejaVuSans-Bold-74"/>
        <path d="M 7.8125 21.296875 
L 7.8125 54.6875 
L 25.390625 54.6875 
L 25.390625 49.21875 
Q 25.390625 44.78125 25.34375 38.0625 
Q 25.296875 31.34375 25.296875 29.109375 
Q 25.296875 22.515625 25.640625 19.609375 
Q 25.984375 16.703125 26.8125 15.375 
Q 27.875 13.671875 29.609375 12.734375 
Q 31.34375 11.8125 33.59375 11.8125 
Q 39.0625 11.8125 42.1875 16.015625 
Q 45.3125 20.21875 45.3125 27.6875 
L 45.3125 54.6875 
L 62.796875 54.6875 
L 62.796875 0 
L 45.3125 0 
L 45.3125 7.90625 
Q 41.359375 3.125 36.9375 0.84375 
Q 32.515625 -1.421875 27.203125 -1.421875 
Q 17.71875 -1.421875 12.765625 4.390625 
Q 7.8125 10.203125 7.8125 21.296875 
z
" id="DejaVuSans-Bold-117"/>
        <path d="M 63.375 33.296875 
L 63.375 0 
L 45.796875 0 
L 45.796875 5.421875 
L 45.796875 25.484375 
Q 45.796875 32.5625 45.484375 35.25 
Q 45.171875 37.9375 44.390625 39.203125 
Q 43.359375 40.921875 41.59375 41.875 
Q 39.84375 42.828125 37.59375 42.828125 
Q 32.125 42.828125 29 38.59375 
Q 25.875 34.375 25.875 26.90625 
L 25.875 0 
L 8.40625 0 
L 8.40625 54.6875 
L 25.875 54.6875 
L 25.875 46.6875 
Q 29.828125 51.46875 34.265625 53.734375 
Q 38.71875 56 44.09375 56 
Q 53.5625 56 58.46875 50.1875 
Q 63.375 44.390625 63.375 33.296875 
z
" id="DejaVuSans-Bold-110"/>
        <path d="M 62.984375 27.484375 
L 62.984375 22.515625 
L 22.125 22.515625 
Q 22.75 16.359375 26.5625 13.28125 
Q 30.375 10.203125 37.203125 10.203125 
Q 42.71875 10.203125 48.5 11.84375 
Q 54.296875 13.484375 60.40625 16.796875 
L 60.40625 3.328125 
Q 54.203125 0.984375 48 -0.21875 
Q 41.796875 -1.421875 35.59375 -1.421875 
Q 20.75 -1.421875 12.515625 6.125 
Q 4.296875 13.671875 4.296875 27.296875 
Q 4.296875 40.671875 12.375 48.328125 
Q 20.453125 56 34.625 56 
Q 47.515625 56 55.25 48.234375 
Q 62.984375 40.484375 62.984375 27.484375 
z
M 45.015625 33.296875 
Q 45.015625 38.28125 42.109375 41.328125 
Q 39.203125 44.390625 34.515625 44.390625 
Q 29.4375 44.390625 26.265625 41.53125 
Q 23.09375 38.671875 22.3125 33.296875 
z
" id="DejaVuSans-Bold-101"/>
       </defs>
       <use xlink:href="#DejaVuSans-Bold-74"/>
       <use x="37.207031" xlink:href="#DejaVuSans-Bold-117"/>
       <use x="108.398438" xlink:href="#DejaVuSans-Bold-110"/>
       <use x="179.589844" xlink:href="#DejaVuSans-Bold-101"/>
      </g>
     </g>
    </g>
    <g id="xtick_4">
     <g id="line2d_4">
      <g>
       <use style="fill:#555555;stroke:#555555;stroke-width:0.8;" x="734.117993" xlink:href="#md3f4d4a748" y="541.28"/>
      </g>
     </g>
     <g id="text_4">
      <!-- July -->
      <g style="fill:#555555;" transform="translate(719.567837 558.917812)scale(0.14 -0.14)">
       <use xlink:href="#DejaVuSans-Bold-74"/>
       <use x="37.207031" xlink:href="#DejaVuSans-Bold-117"/>
       <use x="108.398438" xlink:href="#DejaVuSans-Bold-108"/>
       <use x="142.675781" xlink:href="#DejaVuSans-Bold-121"/>
      </g>
     </g>
    </g>
    <g id="xtick_5">
     <g id="line2d_5">
      <g>
       <use style="fill:#555555;stroke:#555555;stroke-width:0.8;" x="913.359991" xlink:href="#md3f4d4a748" y="541.28"/>
      </g>
     </g>
     <g id="text_5">
      <!-- August -->
      <g style="fill:#555555;" transform="translate(885.454054 558.808437)scale(0.14 -0.14)">
       <defs>
        <path d="M 45.609375 9.28125 
Q 42 4.5 37.640625 2.25 
Q 33.296875 0 27.59375 0 
Q 17.578125 0 11.03125 7.875 
Q 4.5 15.765625 4.5 27.984375 
Q 4.5 40.234375 11.03125 48.0625 
Q 17.578125 55.90625 27.59375 55.90625 
Q 33.296875 55.90625 37.640625 53.65625 
Q 42 51.421875 45.609375 46.578125 
L 45.609375 54.6875 
L 63.1875 54.6875 
L 63.1875 5.515625 
Q 63.1875 -7.671875 54.859375 -14.625 
Q 46.53125 -21.578125 30.71875 -21.578125 
Q 25.59375 -21.578125 20.796875 -20.796875 
Q 16.015625 -20.015625 11.1875 -18.40625 
L 11.1875 -4.78125 
Q 15.765625 -7.421875 20.15625 -8.71875 
Q 24.5625 -10.015625 29 -10.015625 
Q 37.59375 -10.015625 41.59375 -6.25 
Q 45.609375 -2.484375 45.609375 5.515625 
z
M 34.078125 43.3125 
Q 28.65625 43.3125 25.625 39.296875 
Q 22.609375 35.296875 22.609375 27.984375 
Q 22.609375 20.453125 25.53125 16.578125 
Q 28.46875 12.703125 34.078125 12.703125 
Q 39.546875 12.703125 42.578125 16.703125 
Q 45.609375 20.703125 45.609375 27.984375 
Q 45.609375 35.296875 42.578125 39.296875 
Q 39.546875 43.3125 34.078125 43.3125 
z
" id="DejaVuSans-Bold-103"/>
        <path d="M 51.125 52.984375 
L 51.125 39.703125 
Q 45.515625 42.046875 40.28125 43.21875 
Q 35.0625 44.390625 30.421875 44.390625 
Q 25.4375 44.390625 23.015625 43.140625 
Q 20.609375 41.890625 20.609375 39.3125 
Q 20.609375 37.203125 22.4375 36.078125 
Q 24.265625 34.96875 29 34.421875 
L 32.078125 33.984375 
Q 45.515625 32.28125 50.140625 28.375 
Q 54.78125 24.46875 54.78125 16.109375 
Q 54.78125 7.375 48.328125 2.96875 
Q 41.890625 -1.421875 29.109375 -1.421875 
Q 23.6875 -1.421875 17.890625 -0.5625 
Q 12.109375 0.296875 6 2 
L 6 15.28125 
Q 11.234375 12.75 16.71875 11.46875 
Q 22.21875 10.203125 27.875 10.203125 
Q 33.015625 10.203125 35.59375 11.609375 
Q 38.1875 13.03125 38.1875 15.828125 
Q 38.1875 18.171875 36.40625 19.3125 
Q 34.625 20.453125 29.296875 21.09375 
L 26.21875 21.484375 
Q 14.546875 22.953125 9.859375 26.90625 
Q 5.171875 30.859375 5.171875 38.921875 
Q 5.171875 47.609375 11.125 51.796875 
Q 17.09375 56 29.390625 56 
Q 34.234375 56 39.546875 55.265625 
Q 44.875 54.546875 51.125 52.984375 
z
" id="DejaVuSans-Bold-115"/>
        <path d="M 27.484375 70.21875 
L 27.484375 54.6875 
L 45.515625 54.6875 
L 45.515625 42.1875 
L 27.484375 42.1875 
L 27.484375 19 
Q 27.484375 15.1875 29 13.84375 
Q 30.515625 12.5 35.015625 12.5 
L 44 12.5 
L 44 0 
L 29 0 
Q 18.65625 0 14.328125 4.3125 
Q 10.015625 8.640625 10.015625 19 
L 10.015625 42.1875 
L 1.3125 42.1875 
L 1.3125 54.6875 
L 10.015625 54.6875 
L 10.015625 70.21875 
z
" id="DejaVuSans-Bold-116"/>
       </defs>
       <use xlink:href="#DejaVuSans-Bold-65"/>
       <use x="77.392578" xlink:href="#DejaVuSans-Bold-117"/>
       <use x="148.583984" xlink:href="#DejaVuSans-Bold-103"/>
       <use x="220.166016" xlink:href="#DejaVuSans-Bold-117"/>
       <use x="291.357422" xlink:href="#DejaVuSans-Bold-115"/>
       <use x="350.878906" xlink:href="#DejaVuSans-Bold-116"/>
      </g>
     </g>
    </g>
    <g id="xtick_6">
     <g id="line2d_6">
      <g>
       <use style="fill:#555555;stroke:#555555;stroke-width:0.8;" x="1092.601989" xlink:href="#md3f4d4a748" y="541.28"/>
      </g>
     </g>
     <g id="text_6">
      <!-- September -->
      <g style="fill:#555555;" transform="translate(1049.204177 558.917812)scale(0.14 -0.14)">
       <defs>
        <path d="M 59.90625 70.609375 
L 59.90625 55.171875 
Q 53.90625 57.859375 48.1875 59.21875 
Q 42.484375 60.59375 37.40625 60.59375 
Q 30.671875 60.59375 27.4375 58.734375 
Q 24.21875 56.890625 24.21875 52.984375 
Q 24.21875 50.046875 26.390625 48.40625 
Q 28.5625 46.78125 34.28125 45.609375 
L 42.28125 44 
Q 54.4375 41.546875 59.5625 36.5625 
Q 64.703125 31.59375 64.703125 22.40625 
Q 64.703125 10.359375 57.546875 4.46875 
Q 50.390625 -1.421875 35.6875 -1.421875 
Q 28.765625 -1.421875 21.78125 -0.09375 
Q 14.796875 1.21875 7.8125 3.8125 
L 7.8125 19.671875 
Q 14.796875 15.96875 21.3125 14.078125 
Q 27.828125 12.203125 33.890625 12.203125 
Q 40.046875 12.203125 43.3125 14.25 
Q 46.578125 16.3125 46.578125 20.125 
Q 46.578125 23.53125 44.359375 25.390625 
Q 42.140625 27.25 35.5 28.71875 
L 28.21875 30.328125 
Q 17.28125 32.671875 12.21875 37.796875 
Q 7.171875 42.921875 7.171875 51.609375 
Q 7.171875 62.5 14.203125 68.359375 
Q 21.234375 74.21875 34.421875 74.21875 
Q 40.4375 74.21875 46.78125 73.3125 
Q 53.125 72.40625 59.90625 70.609375 
z
" id="DejaVuSans-Bold-83"/>
        <path d="M 59.078125 45.609375 
Q 62.40625 50.6875 66.96875 53.34375 
Q 71.53125 56 77 56 
Q 86.421875 56 91.359375 50.1875 
Q 96.296875 44.390625 96.296875 33.296875 
L 96.296875 0 
L 78.71875 0 
L 78.71875 28.515625 
Q 78.765625 29.15625 78.78125 29.828125 
Q 78.8125 30.515625 78.8125 31.78125 
Q 78.8125 37.59375 77.09375 40.203125 
Q 75.390625 42.828125 71.578125 42.828125 
Q 66.609375 42.828125 63.890625 38.71875 
Q 61.1875 34.625 61.078125 26.859375 
L 61.078125 0 
L 43.5 0 
L 43.5 28.515625 
Q 43.5 37.59375 41.9375 40.203125 
Q 40.375 42.828125 36.375 42.828125 
Q 31.34375 42.828125 28.609375 38.703125 
Q 25.875 34.578125 25.875 26.90625 
L 25.875 0 
L 8.296875 0 
L 8.296875 54.6875 
L 25.875 54.6875 
L 25.875 46.6875 
Q 29.109375 51.3125 33.28125 53.65625 
Q 37.453125 56 42.484375 56 
Q 48.140625 56 52.484375 53.265625 
Q 56.84375 50.53125 59.078125 45.609375 
z
" id="DejaVuSans-Bold-109"/>
        <path d="M 37.5 11.28125 
Q 43.109375 11.28125 46.0625 15.375 
Q 49.03125 19.484375 49.03125 27.296875 
Q 49.03125 35.109375 46.0625 39.203125 
Q 43.109375 43.3125 37.5 43.3125 
Q 31.890625 43.3125 28.875 39.1875 
Q 25.875 35.0625 25.875 27.296875 
Q 25.875 19.53125 28.875 15.40625 
Q 31.890625 11.28125 37.5 11.28125 
z
M 25.875 46.6875 
Q 29.5 51.46875 33.890625 53.734375 
Q 38.28125 56 44 56 
Q 54.109375 56 60.59375 47.96875 
Q 67.09375 39.9375 67.09375 27.296875 
Q 67.09375 14.65625 60.59375 6.609375 
Q 54.109375 -1.421875 44 -1.421875 
Q 38.28125 -1.421875 33.890625 0.84375 
Q 29.5 3.125 25.875 7.90625 
L 25.875 0 
L 8.40625 0 
L 8.40625 75.984375 
L 25.875 75.984375 
z
" id="DejaVuSans-Bold-98"/>
       </defs>
       <use xlink:href="#DejaVuSans-Bold-83"/>
       <use x="72.021484" xlink:href="#DejaVuSans-Bold-101"/>
       <use x="139.84375" xlink:href="#DejaVuSans-Bold-112"/>
       <use x="211.425781" xlink:href="#DejaVuSans-Bold-116"/>
       <use x="259.228516" xlink:href="#DejaVuSans-Bold-101"/>
       <use x="327.050781" xlink:href="#DejaVuSans-Bold-109"/>
       <use x="431.25" xlink:href="#DejaVuSans-Bold-98"/>
       <use x="502.832031" xlink:href="#DejaVuSans-Bold-101"/>
       <use x="570.654297" xlink:href="#DejaVuSans-Bold-114"/>
      </g>
     </g>
    </g>
   </g>
   <g id="matplotlib.axis_2">
    <g id="ytick_1">
     <g id="line2d_7">
      <defs>
       <path d="M 0 0 
L -3.5 0 
" id="ma6c6fd3972" style="stroke:#555555;stroke-width:0.8;"/>
      </defs>
      <g>
       <use style="fill:#555555;stroke:#555555;stroke-width:0.8;" x="51.842" xlink:href="#ma6c6fd3972" y="525.082581"/>
      </g>
     </g>
     <g id="text_7">
      <!-- 0 -->
      <g style="fill:#555555;" transform="translate(35.101062 530.401487)scale(0.14 -0.14)">
       <defs>
        <path d="M 46 36.53125 
Q 46 50.203125 43.4375 55.78125 
Q 40.875 61.375 34.8125 61.375 
Q 28.765625 61.375 26.171875 55.78125 
Q 23.578125 50.203125 23.578125 36.53125 
Q 23.578125 22.703125 26.171875 17.03125 
Q 28.765625 11.375 34.8125 11.375 
Q 40.828125 11.375 43.40625 17.03125 
Q 46 22.703125 46 36.53125 
z
M 64.796875 36.375 
Q 64.796875 18.265625 56.984375 8.421875 
Q 49.171875 -1.421875 34.8125 -1.421875 
Q 20.40625 -1.421875 12.59375 8.421875 
Q 4.78125 18.265625 4.78125 36.375 
Q 4.78125 54.546875 12.59375 64.375 
Q 20.40625 74.21875 34.8125 74.21875 
Q 49.171875 74.21875 56.984375 64.375 
Q 64.796875 54.546875 64.796875 36.375 
z
" id="DejaVuSans-Bold-48"/>
       </defs>
       <use xlink:href="#DejaVuSans-Bold-48"/>
      </g>
     </g>
    </g>
    <g id="ytick_2">
     <g id="line2d_8">
      <g>
       <use style="fill:#555555;stroke:#555555;stroke-width:0.8;" x="51.842" xlink:href="#ma6c6fd3972" y="363.108387"/>
      </g>
     </g>
     <g id="text_8">
      <!-- 1 -->
      <g style="fill:#555555;" transform="translate(35.101062 368.427293)scale(0.14 -0.14)">
       <defs>
        <path d="M 11.71875 12.984375 
L 28.328125 12.984375 
L 28.328125 60.109375 
L 11.28125 56.59375 
L 11.28125 69.390625 
L 28.21875 72.90625 
L 46.09375 72.90625 
L 46.09375 12.984375 
L 62.703125 12.984375 
L 62.703125 0 
L 11.71875 0 
z
" id="DejaVuSans-Bold-49"/>
       </defs>
       <use xlink:href="#DejaVuSans-Bold-49"/>
      </g>
     </g>
    </g>
    <g id="ytick_3">
     <g id="line2d_9">
      <g>
       <use style="fill:#555555;stroke:#555555;stroke-width:0.8;" x="51.842" xlink:href="#ma6c6fd3972" y="201.134194"/>
      </g>
     </g>
     <g id="text_9">
      <!-- 2 -->
      <g style="fill:#555555;" transform="translate(35.101062 206.4531)scale(0.14 -0.14)">
       <defs>
        <path d="M 28.8125 13.8125 
L 60.890625 13.8125 
L 60.890625 0 
L 7.90625 0 
L 7.90625 13.8125 
L 34.515625 37.3125 
Q 38.09375 40.53125 39.796875 43.609375 
Q 41.5 46.6875 41.5 50 
Q 41.5 55.125 38.0625 58.25 
Q 34.625 61.375 28.90625 61.375 
Q 24.515625 61.375 19.28125 59.5 
Q 14.0625 57.625 8.109375 53.90625 
L 8.109375 69.921875 
Q 14.453125 72.015625 20.65625 73.109375 
Q 26.859375 74.21875 32.8125 74.21875 
Q 45.90625 74.21875 53.15625 68.453125 
Q 60.40625 62.703125 60.40625 52.390625 
Q 60.40625 46.4375 57.328125 41.28125 
Q 54.25 36.140625 44.390625 27.484375 
z
" id="DejaVuSans-Bold-50"/>
       </defs>
       <use xlink:href="#DejaVuSans-Bold-50"/>
      </g>
     </g>
    </g>
    <g id="ytick_4">
     <g id="line2d_10">
      <g>
       <use style="fill:#555555;stroke:#555555;stroke-width:0.8;" x="51.842" xlink:href="#ma6c6fd3972" y="39.16"/>
      </g>
     </g>
     <g id="text_10">
      <!-- 3 -->
      <g style="fill:#555555;" transform="translate(35.101062 44.478906)scale(0.14 -0.14)">
       <defs>
        <path d="M 46.578125 39.3125 
Q 53.953125 37.40625 57.78125 32.6875 
Q 61.625 27.984375 61.625 20.703125 
Q 61.625 9.859375 53.3125 4.21875 
Q 45.015625 -1.421875 29.109375 -1.421875 
Q 23.484375 -1.421875 17.84375 -0.515625 
Q 12.203125 0.390625 6.6875 2.203125 
L 6.6875 16.703125 
Q 11.96875 14.0625 17.15625 12.71875 
Q 22.359375 11.375 27.390625 11.375 
Q 34.859375 11.375 38.84375 13.953125 
Q 42.828125 16.546875 42.828125 21.390625 
Q 42.828125 26.375 38.75 28.9375 
Q 34.671875 31.5 26.703125 31.5 
L 19.1875 31.5 
L 19.1875 43.609375 
L 27.09375 43.609375 
Q 34.1875 43.609375 37.640625 45.828125 
Q 41.109375 48.046875 41.109375 52.59375 
Q 41.109375 56.78125 37.734375 59.078125 
Q 34.375 61.375 28.21875 61.375 
Q 23.6875 61.375 19.046875 60.34375 
Q 14.40625 59.328125 9.8125 57.328125 
L 9.8125 71.09375 
Q 15.375 72.65625 20.84375 73.4375 
Q 26.3125 74.21875 31.59375 74.21875 
Q 45.796875 74.21875 52.84375 69.546875 
Q 59.90625 64.890625 59.90625 55.515625 
Q 59.90625 49.125 56.53125 45.046875 
Q 53.171875 40.96875 46.578125 39.3125 
z
" id="DejaVuSans-Bold-51"/>
       </defs>
       <use xlink:href="#DejaVuSans-Bold-51"/>
      </g>
     </g>
    </g>
    <g id="text_11">
     <!-- $R_{t}$ -->
     <g style="fill:#555555;" transform="translate(27.773562 299.34)rotate(-90)scale(0.16 -0.16)">
      <defs>
       <path d="M 36.71875 40.578125 
Q 43.109375 40.578125 46.40625 43.546875 
Q 49.703125 46.53125 49.703125 52.296875 
Q 49.703125 55.90625 47.4375 57.59375 
Q 45.171875 59.28125 40.28125 59.28125 
L 32.515625 59.28125 
L 28.8125 40.578125 
z
M 26.3125 27.59375 
L 20.90625 0 
L 2.09375 0 
L 16.3125 72.90625 
L 44.09375 72.90625 
Q 56.109375 72.90625 62.296875 68.40625 
Q 68.5 63.921875 68.5 55.171875 
Q 68.5 46.34375 63.609375 40.625 
Q 58.734375 34.90625 50.390625 34.078125 
Q 54.203125 33.296875 56.734375 30.1875 
Q 59.28125 27.09375 61.1875 20.703125 
L 67.390625 0 
L 48.6875 0 
L 43.21875 18.109375 
Q 41.546875 23.53125 39.171875 25.5625 
Q 36.8125 27.59375 32.328125 27.59375 
z
" id="DejaVuSans-BoldOblique-82"/>
       <path d="M 35.984375 70.21875 
L 33.015625 54.6875 
L 50.875 54.6875 
L 48.390625 42.1875 
L 30.515625 42.1875 
L 26.03125 19.046875 
Q 25.828125 18.265625 25.75 17.71875 
Q 25.6875 17.1875 25.6875 16.703125 
Q 25.6875 14.453125 27.171875 13.46875 
Q 28.65625 12.5 32.171875 12.5 
L 41.21875 12.5 
L 38.71875 0 
L 24.03125 0 
Q 16.109375 0 11.953125 3.3125 
Q 7.8125 6.640625 7.8125 12.890625 
Q 7.8125 14.265625 7.953125 15.828125 
Q 8.109375 17.390625 8.40625 19 
L 12.890625 42.1875 
L 4.296875 42.1875 
L 6.6875 54.6875 
L 15.375 54.6875 
L 18.40625 70.21875 
z
" id="DejaVuSans-BoldOblique-116"/>
      </defs>
      <use transform="translate(0 0.09375)" xlink:href="#DejaVuSans-BoldOblique-82"/>
      <use transform="translate(77.001953 -16.3125)scale(0.7)" xlink:href="#DejaVuSans-BoldOblique-116"/>
     </g>
    </g>
   </g>
   <g id="line2d_11">
    <path clip-path="url(#p876d619e10)" d="M 51.842 363.108387 
L 1104.165989 363.108387 
" style="fill:none;stroke:#ff0000;stroke-dasharray:2,3.3;stroke-dashoffset:0;stroke-width:2;"/>
   </g>
   <g id="line2d_12">
    <path clip-path="url(#p876d619e10)" d="M 51.842 257.825161 
L 57.624 218.951355 
L 63.406 189.796 
L 69.188 171.978839 
L 74.97 152.541935 
L 80.752 160.640645 
L 86.534 162.260387 
L 92.316 162.260387 
L 98.098 160.640645 
L 103.879999 162.260387 
L 109.661999 162.260387 
L 121.225999 165.499871 
L 127.007999 170.359097 
L 132.789999 178.457806 
L 138.571999 189.796 
L 144.353999 202.753935 
L 150.135999 214.092129 
L 155.917999 222.190839 
L 161.699999 228.669806 
L 167.481999 238.388258 
L 173.263999 252.965935 
L 179.045999 275.642323 
L 190.609999 330.713548 
L 196.391998 350.150452 
L 202.173998 361.488645 
L 207.955998 364.728129 
L 219.519998 361.488645 
L 225.301998 361.488645 
L 231.083998 359.868903 
L 236.865998 355.009677 
L 242.647998 348.53071 
L 248.429998 338.812258 
L 254.211998 335.572774 
L 259.993998 340.432 
L 265.775998 355.009677 
L 271.557998 372.826839 
L 277.339998 385.784774 
L 283.121998 390.644 
L 288.903998 385.784774 
L 294.685997 379.305806 
L 300.467997 374.446581 
L 306.249997 379.305806 
L 317.813997 405.221677 
L 323.595997 416.559871 
L 335.159997 429.517806 
L 340.941997 439.236258 
L 352.505997 468.391613 
L 358.287997 476.490323 
L 364.069997 474.870581 
L 369.851997 463.532387 
L 375.633997 447.334968 
L 381.415997 434.377032 
L 387.197996 427.898065 
L 398.761996 424.658581 
L 404.543996 421.419097 
L 410.325996 414.940129 
L 416.107996 410.080903 
L 421.889996 410.080903 
L 427.671996 414.940129 
L 433.453996 423.038839 
L 439.235996 427.898065 
L 445.017996 429.517806 
L 450.799996 426.278323 
L 456.581996 424.658581 
L 462.363996 424.658581 
L 468.145996 426.278323 
L 473.927996 424.658581 
L 479.709996 414.940129 
L 485.491995 401.982194 
L 491.273995 385.784774 
L 497.055995 371.207097 
L 502.837995 364.728129 
L 508.619995 363.108387 
L 514.401995 366.347871 
L 525.965995 376.066323 
L 531.747995 379.305806 
L 537.529995 384.165032 
L 549.093995 397.122968 
L 554.875995 400.362452 
L 560.657995 397.122968 
L 566.439995 385.784774 
L 578.003995 350.150452 
L 583.785994 335.572774 
L 589.567994 329.093806 
L 595.349994 330.713548 
L 601.131994 338.812258 
L 606.913994 348.53071 
L 618.477994 364.728129 
L 624.259994 371.207097 
L 630.041994 379.305806 
L 635.823994 389.024258 
L 647.387994 411.700645 
L 653.169994 424.658581 
L 658.951994 435.996774 
L 664.733994 445.715226 
L 670.515994 450.574452 
L 676.297993 450.574452 
L 682.079993 445.715226 
L 687.861993 435.996774 
L 693.643993 424.658581 
L 699.425993 414.940129 
L 705.207993 410.080903 
L 710.989993 408.461161 
L 716.771993 408.461161 
L 722.553993 410.080903 
L 734.117993 406.841419 
L 739.899993 403.601935 
L 745.681993 403.601935 
L 763.027993 413.320387 
L 768.809993 411.700645 
L 774.591992 401.982194 
L 780.373992 387.404516 
L 786.155992 369.587355 
L 797.719992 337.192516 
L 803.501992 325.854323 
L 809.283992 316.135871 
L 826.629992 282.12129 
L 832.411992 274.022581 
L 838.193992 270.783097 
L 843.975992 272.402839 
L 855.539992 288.600258 
L 861.321992 298.31871 
L 867.103991 303.177935 
L 872.885991 303.177935 
L 878.667991 296.698968 
L 884.449991 286.980516 
L 890.231991 274.022581 
L 896.013991 264.304129 
L 901.795991 257.825161 
L 907.577991 256.205419 
L 913.359991 261.064645 
L 924.923991 274.022581 
L 930.705991 282.12129 
L 942.269991 291.839742 
L 953.833991 298.31871 
L 959.615991 303.177935 
L 965.39799 309.656903 
L 971.17999 320.995097 
L 976.96199 335.572774 
L 982.74399 353.389935 
L 988.52599 369.587355 
L 994.30799 384.165032 
L 1000.08999 392.263742 
L 1005.87199 395.503226 
L 1011.65399 393.883484 
L 1017.43599 387.404516 
L 1028.99999 377.686065 
L 1034.78199 374.446581 
L 1040.56399 372.826839 
L 1046.34599 369.587355 
L 1057.909989 366.347871 
L 1063.691989 363.108387 
L 1069.473989 361.488645 
L 1081.037989 351.770194 
L 1086.819989 343.671484 
L 1104.165989 329.093806 
L 1104.165989 329.093806 
" style="fill:none;stroke:#000000;stroke-linecap:square;"/>
    <defs>
     <path d="M 0 2.5 
C 0.663008 2.5 1.29895 2.236584 1.767767 1.767767 
C 2.236584 1.29895 2.5 0.663008 2.5 0 
C 2.5 -0.663008 2.236584 -1.29895 1.767767 -1.767767 
C 1.29895 -2.236584 0.663008 -2.5 0 -2.5 
C -0.663008 -2.5 -1.29895 -2.236584 -1.767767 -1.767767 
C -2.236584 -1.29895 -2.5 -0.663008 -2.5 0 
C -2.5 0.663008 -2.236584 1.29895 -1.767767 1.767767 
C -1.29895 2.236584 -0.663008 2.5 0 2.5 
z
" id="mdaab0bd058" style="stroke:#000000;"/>
    </defs>
    <g clip-path="url(#p876d619e10)">
     <use style="fill:#ffffff;stroke:#000000;" x="51.842" xlink:href="#mdaab0bd058" y="257.825161"/>
     <use style="fill:#ffffff;stroke:#000000;" x="63.406" xlink:href="#mdaab0bd058" y="189.796"/>
     <use style="fill:#ffffff;stroke:#000000;" x="74.97" xlink:href="#mdaab0bd058" y="152.541935"/>
     <use style="fill:#ffffff;stroke:#000000;" x="86.534" xlink:href="#mdaab0bd058" y="162.260387"/>
     <use style="fill:#ffffff;stroke:#000000;" x="98.098" xlink:href="#mdaab0bd058" y="160.640645"/>
     <use style="fill:#ffffff;stroke:#000000;" x="109.661999" xlink:href="#mdaab0bd058" y="162.260387"/>
     <use style="fill:#ffffff;stroke:#000000;" x="121.225999" xlink:href="#mdaab0bd058" y="165.499871"/>
     <use style="fill:#ffffff;stroke:#000000;" x="132.789999" xlink:href="#mdaab0bd058" y="178.457806"/>
     <use style="fill:#ffffff;stroke:#000000;" x="144.353999" xlink:href="#mdaab0bd058" y="202.753935"/>
     <use style="fill:#ffffff;stroke:#000000;" x="155.917999" xlink:href="#mdaab0bd058" y="222.190839"/>
     <use style="fill:#ffffff;stroke:#000000;" x="167.481999" xlink:href="#mdaab0bd058" y="238.388258"/>
     <use style="fill:#ffffff;stroke:#000000;" x="179.045999" xlink:href="#mdaab0bd058" y="275.642323"/>
     <use style="fill:#ffffff;stroke:#000000;" x="190.609999" xlink:href="#mdaab0bd058" y="330.713548"/>
     <use style="fill:#ffffff;stroke:#000000;" x="202.173998" xlink:href="#mdaab0bd058" y="361.488645"/>
     <use style="fill:#ffffff;stroke:#000000;" x="213.737998" xlink:href="#mdaab0bd058" y="363.108387"/>
     <use style="fill:#ffffff;stroke:#000000;" x="225.301998" xlink:href="#mdaab0bd058" y="361.488645"/>
     <use style="fill:#ffffff;stroke:#000000;" x="236.865998" xlink:href="#mdaab0bd058" y="355.009677"/>
     <use style="fill:#ffffff;stroke:#000000;" x="248.429998" xlink:href="#mdaab0bd058" y="338.812258"/>
     <use style="fill:#ffffff;stroke:#000000;" x="259.993998" xlink:href="#mdaab0bd058" y="340.432"/>
     <use style="fill:#ffffff;stroke:#000000;" x="271.557998" xlink:href="#mdaab0bd058" y="372.826839"/>
     <use style="fill:#ffffff;stroke:#000000;" x="283.121998" xlink:href="#mdaab0bd058" y="390.644"/>
     <use style="fill:#ffffff;stroke:#000000;" x="294.685997" xlink:href="#mdaab0bd058" y="379.305806"/>
     <use style="fill:#ffffff;stroke:#000000;" x="306.249997" xlink:href="#mdaab0bd058" y="379.305806"/>
     <use style="fill:#ffffff;stroke:#000000;" x="317.813997" xlink:href="#mdaab0bd058" y="405.221677"/>
     <use style="fill:#ffffff;stroke:#000000;" x="329.377997" xlink:href="#mdaab0bd058" y="423.038839"/>
     <use style="fill:#ffffff;stroke:#000000;" x="340.941997" xlink:href="#mdaab0bd058" y="439.236258"/>
     <use style="fill:#ffffff;stroke:#000000;" x="352.505997" xlink:href="#mdaab0bd058" y="468.391613"/>
     <use style="fill:#ffffff;stroke:#000000;" x="364.069997" xlink:href="#mdaab0bd058" y="474.870581"/>
     <use style="fill:#ffffff;stroke:#000000;" x="375.633997" xlink:href="#mdaab0bd058" y="447.334968"/>
     <use style="fill:#ffffff;stroke:#000000;" x="387.197996" xlink:href="#mdaab0bd058" y="427.898065"/>
     <use style="fill:#ffffff;stroke:#000000;" x="398.761996" xlink:href="#mdaab0bd058" y="424.658581"/>
     <use style="fill:#ffffff;stroke:#000000;" x="410.325996" xlink:href="#mdaab0bd058" y="414.940129"/>
     <use style="fill:#ffffff;stroke:#000000;" x="421.889996" xlink:href="#mdaab0bd058" y="410.080903"/>
     <use style="fill:#ffffff;stroke:#000000;" x="433.453996" xlink:href="#mdaab0bd058" y="423.038839"/>
     <use style="fill:#ffffff;stroke:#000000;" x="445.017996" xlink:href="#mdaab0bd058" y="429.517806"/>
     <use style="fill:#ffffff;stroke:#000000;" x="456.581996" xlink:href="#mdaab0bd058" y="424.658581"/>
     <use style="fill:#ffffff;stroke:#000000;" x="468.145996" xlink:href="#mdaab0bd058" y="426.278323"/>
     <use style="fill:#ffffff;stroke:#000000;" x="479.709996" xlink:href="#mdaab0bd058" y="414.940129"/>
     <use style="fill:#ffffff;stroke:#000000;" x="491.273995" xlink:href="#mdaab0bd058" y="385.784774"/>
     <use style="fill:#ffffff;stroke:#000000;" x="502.837995" xlink:href="#mdaab0bd058" y="364.728129"/>
     <use style="fill:#ffffff;stroke:#000000;" x="514.401995" xlink:href="#mdaab0bd058" y="366.347871"/>
     <use style="fill:#ffffff;stroke:#000000;" x="525.965995" xlink:href="#mdaab0bd058" y="376.066323"/>
     <use style="fill:#ffffff;stroke:#000000;" x="537.529995" xlink:href="#mdaab0bd058" y="384.165032"/>
     <use style="fill:#ffffff;stroke:#000000;" x="549.093995" xlink:href="#mdaab0bd058" y="397.122968"/>
     <use style="fill:#ffffff;stroke:#000000;" x="560.657995" xlink:href="#mdaab0bd058" y="397.122968"/>
     <use style="fill:#ffffff;stroke:#000000;" x="572.221995" xlink:href="#mdaab0bd058" y="367.967613"/>
     <use style="fill:#ffffff;stroke:#000000;" x="583.785994" xlink:href="#mdaab0bd058" y="335.572774"/>
     <use style="fill:#ffffff;stroke:#000000;" x="595.349994" xlink:href="#mdaab0bd058" y="330.713548"/>
     <use style="fill:#ffffff;stroke:#000000;" x="606.913994" xlink:href="#mdaab0bd058" y="348.53071"/>
     <use style="fill:#ffffff;stroke:#000000;" x="618.477994" xlink:href="#mdaab0bd058" y="364.728129"/>
     <use style="fill:#ffffff;stroke:#000000;" x="630.041994" xlink:href="#mdaab0bd058" y="379.305806"/>
     <use style="fill:#ffffff;stroke:#000000;" x="641.605994" xlink:href="#mdaab0bd058" y="400.362452"/>
     <use style="fill:#ffffff;stroke:#000000;" x="653.169994" xlink:href="#mdaab0bd058" y="424.658581"/>
     <use style="fill:#ffffff;stroke:#000000;" x="664.733994" xlink:href="#mdaab0bd058" y="445.715226"/>
     <use style="fill:#ffffff;stroke:#000000;" x="676.297993" xlink:href="#mdaab0bd058" y="450.574452"/>
     <use style="fill:#ffffff;stroke:#000000;" x="687.861993" xlink:href="#mdaab0bd058" y="435.996774"/>
     <use style="fill:#ffffff;stroke:#000000;" x="699.425993" xlink:href="#mdaab0bd058" y="414.940129"/>
     <use style="fill:#ffffff;stroke:#000000;" x="710.989993" xlink:href="#mdaab0bd058" y="408.461161"/>
     <use style="fill:#ffffff;stroke:#000000;" x="722.553993" xlink:href="#mdaab0bd058" y="410.080903"/>
     <use style="fill:#ffffff;stroke:#000000;" x="734.117993" xlink:href="#mdaab0bd058" y="406.841419"/>
     <use style="fill:#ffffff;stroke:#000000;" x="745.681993" xlink:href="#mdaab0bd058" y="403.601935"/>
     <use style="fill:#ffffff;stroke:#000000;" x="757.245993" xlink:href="#mdaab0bd058" y="410.080903"/>
     <use style="fill:#ffffff;stroke:#000000;" x="768.809993" xlink:href="#mdaab0bd058" y="411.700645"/>
     <use style="fill:#ffffff;stroke:#000000;" x="780.373992" xlink:href="#mdaab0bd058" y="387.404516"/>
     <use style="fill:#ffffff;stroke:#000000;" x="791.937992" xlink:href="#mdaab0bd058" y="353.389935"/>
     <use style="fill:#ffffff;stroke:#000000;" x="803.501992" xlink:href="#mdaab0bd058" y="325.854323"/>
     <use style="fill:#ffffff;stroke:#000000;" x="815.065992" xlink:href="#mdaab0bd058" y="304.797677"/>
     <use style="fill:#ffffff;stroke:#000000;" x="826.629992" xlink:href="#mdaab0bd058" y="282.12129"/>
     <use style="fill:#ffffff;stroke:#000000;" x="838.193992" xlink:href="#mdaab0bd058" y="270.783097"/>
     <use style="fill:#ffffff;stroke:#000000;" x="849.757992" xlink:href="#mdaab0bd058" y="280.501548"/>
     <use style="fill:#ffffff;stroke:#000000;" x="861.321992" xlink:href="#mdaab0bd058" y="298.31871"/>
     <use style="fill:#ffffff;stroke:#000000;" x="872.885991" xlink:href="#mdaab0bd058" y="303.177935"/>
     <use style="fill:#ffffff;stroke:#000000;" x="884.449991" xlink:href="#mdaab0bd058" y="286.980516"/>
     <use style="fill:#ffffff;stroke:#000000;" x="896.013991" xlink:href="#mdaab0bd058" y="264.304129"/>
     <use style="fill:#ffffff;stroke:#000000;" x="907.577991" xlink:href="#mdaab0bd058" y="256.205419"/>
     <use style="fill:#ffffff;stroke:#000000;" x="919.141991" xlink:href="#mdaab0bd058" y="267.543613"/>
     <use style="fill:#ffffff;stroke:#000000;" x="930.705991" xlink:href="#mdaab0bd058" y="282.12129"/>
     <use style="fill:#ffffff;stroke:#000000;" x="942.269991" xlink:href="#mdaab0bd058" y="291.839742"/>
     <use style="fill:#ffffff;stroke:#000000;" x="953.833991" xlink:href="#mdaab0bd058" y="298.31871"/>
     <use style="fill:#ffffff;stroke:#000000;" x="965.39799" xlink:href="#mdaab0bd058" y="309.656903"/>
     <use style="fill:#ffffff;stroke:#000000;" x="976.96199" xlink:href="#mdaab0bd058" y="335.572774"/>
     <use style="fill:#ffffff;stroke:#000000;" x="988.52599" xlink:href="#mdaab0bd058" y="369.587355"/>
     <use style="fill:#ffffff;stroke:#000000;" x="1000.08999" xlink:href="#mdaab0bd058" y="392.263742"/>
     <use style="fill:#ffffff;stroke:#000000;" x="1011.65399" xlink:href="#mdaab0bd058" y="393.883484"/>
     <use style="fill:#ffffff;stroke:#000000;" x="1023.21799" xlink:href="#mdaab0bd058" y="382.54529"/>
     <use style="fill:#ffffff;stroke:#000000;" x="1034.78199" xlink:href="#mdaab0bd058" y="374.446581"/>
     <use style="fill:#ffffff;stroke:#000000;" x="1046.34599" xlink:href="#mdaab0bd058" y="369.587355"/>
     <use style="fill:#ffffff;stroke:#000000;" x="1057.909989" xlink:href="#mdaab0bd058" y="366.347871"/>
     <use style="fill:#ffffff;stroke:#000000;" x="1069.473989" xlink:href="#mdaab0bd058" y="361.488645"/>
     <use style="fill:#ffffff;stroke:#000000;" x="1081.037989" xlink:href="#mdaab0bd058" y="351.770194"/>
     <use style="fill:#ffffff;stroke:#000000;" x="1092.601989" xlink:href="#mdaab0bd058" y="338.812258"/>
     <use style="fill:#ffffff;stroke:#000000;" x="1104.165989" xlink:href="#mdaab0bd058" y="329.093806"/>
    </g>
   </g>
   <g id="patch_3">
    <path d="M 51.842 541.28 
L 51.842 39.16 
" style="fill:none;stroke:#555555;stroke-linecap:square;stroke-linejoin:miter;"/>
   </g>
   <g id="patch_4">
    <path d="M 51.842 541.28 
L 1104.165989 541.28 
" style="fill:none;stroke:#555555;stroke-linecap:square;stroke-linejoin:miter;"/>
   </g>
   <g id="text_12">
    <!-- Last updated on 03 September 2020 with $R_t = 1.21$ and 95% confidence in range $0.82 - 1.55$ -->
    <g style="fill:#555555;" transform="translate(150.773995 29.16)scale(0.18 -0.18)">
     <defs>
      <path d="M 9.8125 72.90625 
L 19.671875 72.90625 
L 19.671875 8.296875 
L 55.171875 8.296875 
L 55.171875 0 
L 9.8125 0 
z
" id="DejaVuSans-76"/>
      <path d="M 34.28125 27.484375 
Q 23.390625 27.484375 19.1875 25 
Q 14.984375 22.515625 14.984375 16.5 
Q 14.984375 11.71875 18.140625 8.90625 
Q 21.296875 6.109375 26.703125 6.109375 
Q 34.1875 6.109375 38.703125 11.40625 
Q 43.21875 16.703125 43.21875 25.484375 
L 43.21875 27.484375 
z
M 52.203125 31.203125 
L 52.203125 0 
L 43.21875 0 
L 43.21875 8.296875 
Q 40.140625 3.328125 35.546875 0.953125 
Q 30.953125 -1.421875 24.3125 -1.421875 
Q 15.921875 -1.421875 10.953125 3.296875 
Q 6 8.015625 6 15.921875 
Q 6 25.140625 12.171875 29.828125 
Q 18.359375 34.515625 30.609375 34.515625 
L 43.21875 34.515625 
L 43.21875 35.40625 
Q 43.21875 41.609375 39.140625 45 
Q 35.0625 48.390625 27.6875 48.390625 
Q 23 48.390625 18.546875 47.265625 
Q 14.109375 46.140625 10.015625 43.890625 
L 10.015625 52.203125 
Q 14.9375 54.109375 19.578125 55.046875 
Q 24.21875 56 28.609375 56 
Q 40.484375 56 46.34375 49.84375 
Q 52.203125 43.703125 52.203125 31.203125 
z
" id="DejaVuSans-97"/>
      <path d="M 44.28125 53.078125 
L 44.28125 44.578125 
Q 40.484375 46.53125 36.375 47.5 
Q 32.28125 48.484375 27.875 48.484375 
Q 21.1875 48.484375 17.84375 46.4375 
Q 14.5 44.390625 14.5 40.28125 
Q 14.5 37.15625 16.890625 35.375 
Q 19.28125 33.59375 26.515625 31.984375 
L 29.59375 31.296875 
Q 39.15625 29.25 43.1875 25.515625 
Q 47.21875 21.78125 47.21875 15.09375 
Q 47.21875 7.46875 41.1875 3.015625 
Q 35.15625 -1.421875 24.609375 -1.421875 
Q 20.21875 -1.421875 15.453125 -0.5625 
Q 10.6875 0.296875 5.421875 2 
L 5.421875 11.28125 
Q 10.40625 8.6875 15.234375 7.390625 
Q 20.0625 6.109375 24.8125 6.109375 
Q 31.15625 6.109375 34.5625 8.28125 
Q 37.984375 10.453125 37.984375 14.40625 
Q 37.984375 18.0625 35.515625 20.015625 
Q 33.0625 21.96875 24.703125 23.78125 
L 21.578125 24.515625 
Q 13.234375 26.265625 9.515625 29.90625 
Q 5.8125 33.546875 5.8125 39.890625 
Q 5.8125 47.609375 11.28125 51.796875 
Q 16.75 56 26.8125 56 
Q 31.78125 56 36.171875 55.265625 
Q 40.578125 54.546875 44.28125 53.078125 
z
" id="DejaVuSans-115"/>
      <path d="M 18.3125 70.21875 
L 18.3125 54.6875 
L 36.8125 54.6875 
L 36.8125 47.703125 
L 18.3125 47.703125 
L 18.3125 18.015625 
Q 18.3125 11.328125 20.140625 9.421875 
Q 21.96875 7.515625 27.59375 7.515625 
L 36.8125 7.515625 
L 36.8125 0 
L 27.59375 0 
Q 17.1875 0 13.234375 3.875 
Q 9.28125 7.765625 9.28125 18.015625 
L 9.28125 47.703125 
L 2.6875 47.703125 
L 2.6875 54.6875 
L 9.28125 54.6875 
L 9.28125 70.21875 
z
" id="DejaVuSans-116"/>
      <path id="DejaVuSans-32"/>
      <path d="M 8.5 21.578125 
L 8.5 54.6875 
L 17.484375 54.6875 
L 17.484375 21.921875 
Q 17.484375 14.15625 20.5 10.265625 
Q 23.53125 6.390625 29.59375 6.390625 
Q 36.859375 6.390625 41.078125 11.03125 
Q 45.3125 15.671875 45.3125 23.6875 
L 45.3125 54.6875 
L 54.296875 54.6875 
L 54.296875 0 
L 45.3125 0 
L 45.3125 8.40625 
Q 42.046875 3.421875 37.71875 1 
Q 33.40625 -1.421875 27.6875 -1.421875 
Q 18.265625 -1.421875 13.375 4.4375 
Q 8.5 10.296875 8.5 21.578125 
z
M 31.109375 56 
z
" id="DejaVuSans-117"/>
      <path d="M 18.109375 8.203125 
L 18.109375 -20.796875 
L 9.078125 -20.796875 
L 9.078125 54.6875 
L 18.109375 54.6875 
L 18.109375 46.390625 
Q 20.953125 51.265625 25.265625 53.625 
Q 29.59375 56 35.59375 56 
Q 45.5625 56 51.78125 48.09375 
Q 58.015625 40.1875 58.015625 27.296875 
Q 58.015625 14.40625 51.78125 6.484375 
Q 45.5625 -1.421875 35.59375 -1.421875 
Q 29.59375 -1.421875 25.265625 0.953125 
Q 20.953125 3.328125 18.109375 8.203125 
z
M 48.6875 27.296875 
Q 48.6875 37.203125 44.609375 42.84375 
Q 40.53125 48.484375 33.40625 48.484375 
Q 26.265625 48.484375 22.1875 42.84375 
Q 18.109375 37.203125 18.109375 27.296875 
Q 18.109375 17.390625 22.1875 11.75 
Q 26.265625 6.109375 33.40625 6.109375 
Q 40.53125 6.109375 44.609375 11.75 
Q 48.6875 17.390625 48.6875 27.296875 
z
" id="DejaVuSans-112"/>
      <path d="M 45.40625 46.390625 
L 45.40625 75.984375 
L 54.390625 75.984375 
L 54.390625 0 
L 45.40625 0 
L 45.40625 8.203125 
Q 42.578125 3.328125 38.25 0.953125 
Q 33.9375 -1.421875 27.875 -1.421875 
Q 17.96875 -1.421875 11.734375 6.484375 
Q 5.515625 14.40625 5.515625 27.296875 
Q 5.515625 40.1875 11.734375 48.09375 
Q 17.96875 56 27.875 56 
Q 33.9375 56 38.25 53.625 
Q 42.578125 51.265625 45.40625 46.390625 
z
M 14.796875 27.296875 
Q 14.796875 17.390625 18.875 11.75 
Q 22.953125 6.109375 30.078125 6.109375 
Q 37.203125 6.109375 41.296875 11.75 
Q 45.40625 17.390625 45.40625 27.296875 
Q 45.40625 37.203125 41.296875 42.84375 
Q 37.203125 48.484375 30.078125 48.484375 
Q 22.953125 48.484375 18.875 42.84375 
Q 14.796875 37.203125 14.796875 27.296875 
z
" id="DejaVuSans-100"/>
      <path d="M 56.203125 29.59375 
L 56.203125 25.203125 
L 14.890625 25.203125 
Q 15.484375 15.921875 20.484375 11.0625 
Q 25.484375 6.203125 34.421875 6.203125 
Q 39.59375 6.203125 44.453125 7.46875 
Q 49.3125 8.734375 54.109375 11.28125 
L 54.109375 2.78125 
Q 49.265625 0.734375 44.1875 -0.34375 
Q 39.109375 -1.421875 33.890625 -1.421875 
Q 20.796875 -1.421875 13.15625 6.1875 
Q 5.515625 13.8125 5.515625 26.8125 
Q 5.515625 40.234375 12.765625 48.109375 
Q 20.015625 56 32.328125 56 
Q 43.359375 56 49.78125 48.890625 
Q 56.203125 41.796875 56.203125 29.59375 
z
M 47.21875 32.234375 
Q 47.125 39.59375 43.09375 43.984375 
Q 39.0625 48.390625 32.421875 48.390625 
Q 24.90625 48.390625 20.390625 44.140625 
Q 15.875 39.890625 15.1875 32.171875 
z
" id="DejaVuSans-101"/>
      <path d="M 30.609375 48.390625 
Q 23.390625 48.390625 19.1875 42.75 
Q 14.984375 37.109375 14.984375 27.296875 
Q 14.984375 17.484375 19.15625 11.84375 
Q 23.34375 6.203125 30.609375 6.203125 
Q 37.796875 6.203125 41.984375 11.859375 
Q 46.1875 17.53125 46.1875 27.296875 
Q 46.1875 37.015625 41.984375 42.703125 
Q 37.796875 48.390625 30.609375 48.390625 
z
M 30.609375 56 
Q 42.328125 56 49.015625 48.375 
Q 55.71875 40.765625 55.71875 27.296875 
Q 55.71875 13.875 49.015625 6.21875 
Q 42.328125 -1.421875 30.609375 -1.421875 
Q 18.84375 -1.421875 12.171875 6.21875 
Q 5.515625 13.875 5.515625 27.296875 
Q 5.515625 40.765625 12.171875 48.375 
Q 18.84375 56 30.609375 56 
z
" id="DejaVuSans-111"/>
      <path d="M 54.890625 33.015625 
L 54.890625 0 
L 45.90625 0 
L 45.90625 32.71875 
Q 45.90625 40.484375 42.875 44.328125 
Q 39.84375 48.1875 33.796875 48.1875 
Q 26.515625 48.1875 22.3125 43.546875 
Q 18.109375 38.921875 18.109375 30.90625 
L 18.109375 0 
L 9.078125 0 
L 9.078125 54.6875 
L 18.109375 54.6875 
L 18.109375 46.1875 
Q 21.34375 51.125 25.703125 53.5625 
Q 30.078125 56 35.796875 56 
Q 45.21875 56 50.046875 50.171875 
Q 54.890625 44.34375 54.890625 33.015625 
z
" id="DejaVuSans-110"/>
      <path d="M 31.78125 66.40625 
Q 24.171875 66.40625 20.328125 58.90625 
Q 16.5 51.421875 16.5 36.375 
Q 16.5 21.390625 20.328125 13.890625 
Q 24.171875 6.390625 31.78125 6.390625 
Q 39.453125 6.390625 43.28125 13.890625 
Q 47.125 21.390625 47.125 36.375 
Q 47.125 51.421875 43.28125 58.90625 
Q 39.453125 66.40625 31.78125 66.40625 
z
M 31.78125 74.21875 
Q 44.046875 74.21875 50.515625 64.515625 
Q 56.984375 54.828125 56.984375 36.375 
Q 56.984375 17.96875 50.515625 8.265625 
Q 44.046875 -1.421875 31.78125 -1.421875 
Q 19.53125 -1.421875 13.0625 8.265625 
Q 6.59375 17.96875 6.59375 36.375 
Q 6.59375 54.828125 13.0625 64.515625 
Q 19.53125 74.21875 31.78125 74.21875 
z
" id="DejaVuSans-48"/>
      <path d="M 40.578125 39.3125 
Q 47.65625 37.796875 51.625 33 
Q 55.609375 28.21875 55.609375 21.1875 
Q 55.609375 10.40625 48.1875 4.484375 
Q 40.765625 -1.421875 27.09375 -1.421875 
Q 22.515625 -1.421875 17.65625 -0.515625 
Q 12.796875 0.390625 7.625 2.203125 
L 7.625 11.71875 
Q 11.71875 9.328125 16.59375 8.109375 
Q 21.484375 6.890625 26.8125 6.890625 
Q 36.078125 6.890625 40.9375 10.546875 
Q 45.796875 14.203125 45.796875 21.1875 
Q 45.796875 27.640625 41.28125 31.265625 
Q 36.765625 34.90625 28.71875 34.90625 
L 20.21875 34.90625 
L 20.21875 43.015625 
L 29.109375 43.015625 
Q 36.375 43.015625 40.234375 45.921875 
Q 44.09375 48.828125 44.09375 54.296875 
Q 44.09375 59.90625 40.109375 62.90625 
Q 36.140625 65.921875 28.71875 65.921875 
Q 24.65625 65.921875 20.015625 65.03125 
Q 15.375 64.15625 9.8125 62.3125 
L 9.8125 71.09375 
Q 15.4375 72.65625 20.34375 73.4375 
Q 25.25 74.21875 29.59375 74.21875 
Q 40.828125 74.21875 47.359375 69.109375 
Q 53.90625 64.015625 53.90625 55.328125 
Q 53.90625 49.265625 50.4375 45.09375 
Q 46.96875 40.921875 40.578125 39.3125 
z
" id="DejaVuSans-51"/>
      <path d="M 53.515625 70.515625 
L 53.515625 60.890625 
Q 47.90625 63.578125 42.921875 64.890625 
Q 37.9375 66.21875 33.296875 66.21875 
Q 25.25 66.21875 20.875 63.09375 
Q 16.5 59.96875 16.5 54.203125 
Q 16.5 49.359375 19.40625 46.890625 
Q 22.3125 44.4375 30.421875 42.921875 
L 36.375 41.703125 
Q 47.40625 39.59375 52.65625 34.296875 
Q 57.90625 29 57.90625 20.125 
Q 57.90625 9.515625 50.796875 4.046875 
Q 43.703125 -1.421875 29.984375 -1.421875 
Q 24.8125 -1.421875 18.96875 -0.25 
Q 13.140625 0.921875 6.890625 3.21875 
L 6.890625 13.375 
Q 12.890625 10.015625 18.65625 8.296875 
Q 24.421875 6.59375 29.984375 6.59375 
Q 38.421875 6.59375 43.015625 9.90625 
Q 47.609375 13.234375 47.609375 19.390625 
Q 47.609375 24.75 44.3125 27.78125 
Q 41.015625 30.8125 33.5 32.328125 
L 27.484375 33.5 
Q 16.453125 35.6875 11.515625 40.375 
Q 6.59375 45.0625 6.59375 53.421875 
Q 6.59375 63.09375 13.40625 68.65625 
Q 20.21875 74.21875 32.171875 74.21875 
Q 37.3125 74.21875 42.625 73.28125 
Q 47.953125 72.359375 53.515625 70.515625 
z
" id="DejaVuSans-83"/>
      <path d="M 52 44.1875 
Q 55.375 50.25 60.0625 53.125 
Q 64.75 56 71.09375 56 
Q 79.640625 56 84.28125 50.015625 
Q 88.921875 44.046875 88.921875 33.015625 
L 88.921875 0 
L 79.890625 0 
L 79.890625 32.71875 
Q 79.890625 40.578125 77.09375 44.375 
Q 74.3125 48.1875 68.609375 48.1875 
Q 61.625 48.1875 57.5625 43.546875 
Q 53.515625 38.921875 53.515625 30.90625 
L 53.515625 0 
L 44.484375 0 
L 44.484375 32.71875 
Q 44.484375 40.625 41.703125 44.40625 
Q 38.921875 48.1875 33.109375 48.1875 
Q 26.21875 48.1875 22.15625 43.53125 
Q 18.109375 38.875 18.109375 30.90625 
L 18.109375 0 
L 9.078125 0 
L 9.078125 54.6875 
L 18.109375 54.6875 
L 18.109375 46.1875 
Q 21.1875 51.21875 25.484375 53.609375 
Q 29.78125 56 35.6875 56 
Q 41.65625 56 45.828125 52.96875 
Q 50 49.953125 52 44.1875 
z
" id="DejaVuSans-109"/>
      <path d="M 48.6875 27.296875 
Q 48.6875 37.203125 44.609375 42.84375 
Q 40.53125 48.484375 33.40625 48.484375 
Q 26.265625 48.484375 22.1875 42.84375 
Q 18.109375 37.203125 18.109375 27.296875 
Q 18.109375 17.390625 22.1875 11.75 
Q 26.265625 6.109375 33.40625 6.109375 
Q 40.53125 6.109375 44.609375 11.75 
Q 48.6875 17.390625 48.6875 27.296875 
z
M 18.109375 46.390625 
Q 20.953125 51.265625 25.265625 53.625 
Q 29.59375 56 35.59375 56 
Q 45.5625 56 51.78125 48.09375 
Q 58.015625 40.1875 58.015625 27.296875 
Q 58.015625 14.40625 51.78125 6.484375 
Q 45.5625 -1.421875 35.59375 -1.421875 
Q 29.59375 -1.421875 25.265625 0.953125 
Q 20.953125 3.328125 18.109375 8.203125 
L 18.109375 0 
L 9.078125 0 
L 9.078125 75.984375 
L 18.109375 75.984375 
z
" id="DejaVuSans-98"/>
      <path d="M 41.109375 46.296875 
Q 39.59375 47.171875 37.8125 47.578125 
Q 36.03125 48 33.890625 48 
Q 26.265625 48 22.1875 43.046875 
Q 18.109375 38.09375 18.109375 28.8125 
L 18.109375 0 
L 9.078125 0 
L 9.078125 54.6875 
L 18.109375 54.6875 
L 18.109375 46.1875 
Q 20.953125 51.171875 25.484375 53.578125 
Q 30.03125 56 36.53125 56 
Q 37.453125 56 38.578125 55.875 
Q 39.703125 55.765625 41.0625 55.515625 
z
" id="DejaVuSans-114"/>
      <path d="M 19.1875 8.296875 
L 53.609375 8.296875 
L 53.609375 0 
L 7.328125 0 
L 7.328125 8.296875 
Q 12.9375 14.109375 22.625 23.890625 
Q 32.328125 33.6875 34.8125 36.53125 
Q 39.546875 41.84375 41.421875 45.53125 
Q 43.3125 49.21875 43.3125 52.78125 
Q 43.3125 58.59375 39.234375 62.25 
Q 35.15625 65.921875 28.609375 65.921875 
Q 23.96875 65.921875 18.8125 64.3125 
Q 13.671875 62.703125 7.8125 59.421875 
L 7.8125 69.390625 
Q 13.765625 71.78125 18.9375 73 
Q 24.125 74.21875 28.421875 74.21875 
Q 39.75 74.21875 46.484375 68.546875 
Q 53.21875 62.890625 53.21875 53.421875 
Q 53.21875 48.921875 51.53125 44.890625 
Q 49.859375 40.875 45.40625 35.40625 
Q 44.1875 33.984375 37.640625 27.21875 
Q 31.109375 20.453125 19.1875 8.296875 
z
" id="DejaVuSans-50"/>
      <path d="M 4.203125 54.6875 
L 13.1875 54.6875 
L 24.421875 12.015625 
L 35.59375 54.6875 
L 46.1875 54.6875 
L 57.421875 12.015625 
L 68.609375 54.6875 
L 77.59375 54.6875 
L 63.28125 0 
L 52.6875 0 
L 40.921875 44.828125 
L 29.109375 0 
L 18.5 0 
z
" id="DejaVuSans-119"/>
      <path d="M 9.421875 54.6875 
L 18.40625 54.6875 
L 18.40625 0 
L 9.421875 0 
z
M 9.421875 75.984375 
L 18.40625 75.984375 
L 18.40625 64.59375 
L 9.421875 64.59375 
z
" id="DejaVuSans-105"/>
      <path d="M 54.890625 33.015625 
L 54.890625 0 
L 45.90625 0 
L 45.90625 32.71875 
Q 45.90625 40.484375 42.875 44.328125 
Q 39.84375 48.1875 33.796875 48.1875 
Q 26.515625 48.1875 22.3125 43.546875 
Q 18.109375 38.921875 18.109375 30.90625 
L 18.109375 0 
L 9.078125 0 
L 9.078125 75.984375 
L 18.109375 75.984375 
L 18.109375 46.1875 
Q 21.34375 51.125 25.703125 53.5625 
Q 30.078125 56 35.796875 56 
Q 45.21875 56 50.046875 50.171875 
Q 54.890625 44.34375 54.890625 33.015625 
z
" id="DejaVuSans-104"/>
      <path d="M 10.59375 48.1875 
L 73.1875 48.1875 
L 73.1875 36.71875 
L 10.59375 36.71875 
z
M 10.59375 25.984375 
L 73.1875 25.984375 
L 73.1875 14.40625 
L 10.59375 14.40625 
z
" id="DejaVuSans-Bold-61"/>
      <path d="M 10.203125 18.890625 
L 27.78125 18.890625 
L 27.78125 0 
L 10.203125 0 
z
" id="DejaVuSans-Bold-46"/>
      <path d="M 10.984375 1.515625 
L 10.984375 10.5 
Q 14.703125 8.734375 18.5 7.8125 
Q 22.3125 6.890625 25.984375 6.890625 
Q 35.75 6.890625 40.890625 13.453125 
Q 46.046875 20.015625 46.78125 33.40625 
Q 43.953125 29.203125 39.59375 26.953125 
Q 35.25 24.703125 29.984375 24.703125 
Q 19.046875 24.703125 12.671875 31.3125 
Q 6.296875 37.9375 6.296875 49.421875 
Q 6.296875 60.640625 12.9375 67.421875 
Q 19.578125 74.21875 30.609375 74.21875 
Q 43.265625 74.21875 49.921875 64.515625 
Q 56.59375 54.828125 56.59375 36.375 
Q 56.59375 19.140625 48.40625 8.859375 
Q 40.234375 -1.421875 26.421875 -1.421875 
Q 22.703125 -1.421875 18.890625 -0.6875 
Q 15.09375 0.046875 10.984375 1.515625 
z
M 30.609375 32.421875 
Q 37.25 32.421875 41.125 36.953125 
Q 45.015625 41.5 45.015625 49.421875 
Q 45.015625 57.28125 41.125 61.84375 
Q 37.25 66.40625 30.609375 66.40625 
Q 23.96875 66.40625 20.09375 61.84375 
Q 16.21875 57.28125 16.21875 49.421875 
Q 16.21875 41.5 20.09375 36.953125 
Q 23.96875 32.421875 30.609375 32.421875 
z
" id="DejaVuSans-57"/>
      <path d="M 10.796875 72.90625 
L 49.515625 72.90625 
L 49.515625 64.59375 
L 19.828125 64.59375 
L 19.828125 46.734375 
Q 21.96875 47.46875 24.109375 47.828125 
Q 26.265625 48.1875 28.421875 48.1875 
Q 40.625 48.1875 47.75 41.5 
Q 54.890625 34.8125 54.890625 23.390625 
Q 54.890625 11.625 47.5625 5.09375 
Q 40.234375 -1.421875 26.90625 -1.421875 
Q 22.3125 -1.421875 17.546875 -0.640625 
Q 12.796875 0.140625 7.71875 1.703125 
L 7.71875 11.625 
Q 12.109375 9.234375 16.796875 8.0625 
Q 21.484375 6.890625 26.703125 6.890625 
Q 35.15625 6.890625 40.078125 11.328125 
Q 45.015625 15.765625 45.015625 23.390625 
Q 45.015625 31 40.078125 35.4375 
Q 35.15625 39.890625 26.703125 39.890625 
Q 22.75 39.890625 18.8125 39.015625 
Q 14.890625 38.140625 10.796875 36.28125 
z
" id="DejaVuSans-53"/>
      <path d="M 72.703125 32.078125 
Q 68.453125 32.078125 66.03125 28.46875 
Q 63.625 24.859375 63.625 18.40625 
Q 63.625 12.0625 66.03125 8.421875 
Q 68.453125 4.78125 72.703125 4.78125 
Q 76.859375 4.78125 79.265625 8.421875 
Q 81.6875 12.0625 81.6875 18.40625 
Q 81.6875 24.8125 79.265625 28.4375 
Q 76.859375 32.078125 72.703125 32.078125 
z
M 72.703125 38.28125 
Q 80.421875 38.28125 84.953125 32.90625 
Q 89.5 27.546875 89.5 18.40625 
Q 89.5 9.28125 84.9375 3.921875 
Q 80.375 -1.421875 72.703125 -1.421875 
Q 64.890625 -1.421875 60.34375 3.921875 
Q 55.8125 9.28125 55.8125 18.40625 
Q 55.8125 27.59375 60.375 32.9375 
Q 64.9375 38.28125 72.703125 38.28125 
z
M 22.3125 68.015625 
Q 18.109375 68.015625 15.6875 64.375 
Q 13.28125 60.75 13.28125 54.390625 
Q 13.28125 47.953125 15.671875 44.328125 
Q 18.0625 40.71875 22.3125 40.71875 
Q 26.5625 40.71875 28.96875 44.328125 
Q 31.390625 47.953125 31.390625 54.390625 
Q 31.390625 60.6875 28.953125 64.34375 
Q 26.515625 68.015625 22.3125 68.015625 
z
M 66.40625 74.21875 
L 74.21875 74.21875 
L 28.609375 -1.421875 
L 20.796875 -1.421875 
z
M 22.3125 74.21875 
Q 30.03125 74.21875 34.609375 68.875 
Q 39.203125 63.53125 39.203125 54.390625 
Q 39.203125 45.171875 34.640625 39.84375 
Q 30.078125 34.515625 22.3125 34.515625 
Q 14.546875 34.515625 10.03125 39.859375 
Q 5.515625 45.21875 5.515625 54.390625 
Q 5.515625 63.484375 10.046875 68.84375 
Q 14.59375 74.21875 22.3125 74.21875 
z
" id="DejaVuSans-37"/>
      <path d="M 48.78125 52.59375 
L 48.78125 44.1875 
Q 44.96875 46.296875 41.140625 47.34375 
Q 37.3125 48.390625 33.40625 48.390625 
Q 24.65625 48.390625 19.8125 42.84375 
Q 14.984375 37.3125 14.984375 27.296875 
Q 14.984375 17.28125 19.8125 11.734375 
Q 24.65625 6.203125 33.40625 6.203125 
Q 37.3125 6.203125 41.140625 7.25 
Q 44.96875 8.296875 48.78125 10.40625 
L 48.78125 2.09375 
Q 45.015625 0.34375 40.984375 -0.53125 
Q 36.96875 -1.421875 32.421875 -1.421875 
Q 20.0625 -1.421875 12.78125 6.34375 
Q 5.515625 14.109375 5.515625 27.296875 
Q 5.515625 40.671875 12.859375 48.328125 
Q 20.21875 56 33.015625 56 
Q 37.15625 56 41.109375 55.140625 
Q 45.0625 54.296875 48.78125 52.59375 
z
" id="DejaVuSans-99"/>
      <path d="M 37.109375 75.984375 
L 37.109375 68.5 
L 28.515625 68.5 
Q 23.6875 68.5 21.796875 66.546875 
Q 19.921875 64.59375 19.921875 59.515625 
L 19.921875 54.6875 
L 34.71875 54.6875 
L 34.71875 47.703125 
L 19.921875 47.703125 
L 19.921875 0 
L 10.890625 0 
L 10.890625 47.703125 
L 2.296875 47.703125 
L 2.296875 54.6875 
L 10.890625 54.6875 
L 10.890625 58.5 
Q 10.890625 67.625 15.140625 71.796875 
Q 19.390625 75.984375 28.609375 75.984375 
z
" id="DejaVuSans-102"/>
      <path d="M 45.40625 27.984375 
Q 45.40625 37.75 41.375 43.109375 
Q 37.359375 48.484375 30.078125 48.484375 
Q 22.859375 48.484375 18.828125 43.109375 
Q 14.796875 37.75 14.796875 27.984375 
Q 14.796875 18.265625 18.828125 12.890625 
Q 22.859375 7.515625 30.078125 7.515625 
Q 37.359375 7.515625 41.375 12.890625 
Q 45.40625 18.265625 45.40625 27.984375 
z
M 54.390625 6.78125 
Q 54.390625 -7.171875 48.1875 -13.984375 
Q 42 -20.796875 29.203125 -20.796875 
Q 24.46875 -20.796875 20.265625 -20.09375 
Q 16.0625 -19.390625 12.109375 -17.921875 
L 12.109375 -9.1875 
Q 16.0625 -11.328125 19.921875 -12.34375 
Q 23.78125 -13.375 27.78125 -13.375 
Q 36.625 -13.375 41.015625 -8.765625 
Q 45.40625 -4.15625 45.40625 5.171875 
L 45.40625 9.625 
Q 42.625 4.78125 38.28125 2.390625 
Q 33.9375 0 27.875 0 
Q 17.828125 0 11.671875 7.65625 
Q 5.515625 15.328125 5.515625 27.984375 
Q 5.515625 40.671875 11.671875 48.328125 
Q 17.828125 56 27.875 56 
Q 33.9375 56 38.28125 53.609375 
Q 42.625 51.21875 45.40625 46.390625 
L 45.40625 54.6875 
L 54.390625 54.6875 
z
" id="DejaVuSans-103"/>
      <path d="M 34.8125 32.625 
Q 29.546875 32.625 26.703125 29.734375 
Q 23.875 26.859375 23.875 21.484375 
Q 23.875 16.109375 26.703125 13.25 
Q 29.546875 10.40625 34.8125 10.40625 
Q 40.046875 10.40625 42.828125 13.25 
Q 45.609375 16.109375 45.609375 21.484375 
Q 45.609375 26.90625 42.828125 29.765625 
Q 40.046875 32.625 34.8125 32.625 
z
M 21.09375 38.8125 
Q 14.453125 40.828125 11.078125 44.96875 
Q 7.71875 49.125 7.71875 55.328125 
Q 7.71875 64.546875 14.59375 69.375 
Q 21.484375 74.21875 34.8125 74.21875 
Q 48.046875 74.21875 54.921875 69.40625 
Q 61.8125 64.59375 61.8125 55.328125 
Q 61.8125 49.125 58.421875 44.96875 
Q 55.03125 40.828125 48.390625 38.8125 
Q 55.8125 36.765625 59.59375 32.15625 
Q 63.375 27.546875 63.375 20.515625 
Q 63.375 9.671875 56.171875 4.125 
Q 48.96875 -1.421875 34.8125 -1.421875 
Q 20.609375 -1.421875 13.359375 4.125 
Q 6.109375 9.671875 6.109375 20.515625 
Q 6.109375 27.546875 9.890625 32.15625 
Q 13.671875 36.765625 21.09375 38.8125 
z
M 25.484375 53.421875 
Q 25.484375 49.078125 27.90625 46.734375 
Q 30.328125 44.390625 34.8125 44.390625 
Q 39.203125 44.390625 41.59375 46.734375 
Q 44 49.078125 44 53.421875 
Q 44 57.765625 41.59375 60.078125 
Q 39.203125 62.40625 34.8125 62.40625 
Q 30.328125 62.40625 27.90625 60.0625 
Q 25.484375 57.71875 25.484375 53.421875 
z
" id="DejaVuSans-Bold-56"/>
      <path d="M 10.59375 37.109375 
L 73.1875 37.109375 
L 73.1875 25.59375 
L 10.59375 25.59375 
z
" id="DejaVuSans-Bold-8722"/>
      <path d="M 10.59375 72.90625 
L 57.328125 72.90625 
L 57.328125 59.078125 
L 25.59375 59.078125 
L 25.59375 47.796875 
Q 27.734375 48.390625 29.90625 48.703125 
Q 32.078125 49.03125 34.421875 49.03125 
Q 47.75 49.03125 55.171875 42.359375 
Q 62.59375 35.6875 62.59375 23.78125 
Q 62.59375 11.96875 54.515625 5.265625 
Q 46.4375 -1.421875 32.078125 -1.421875 
Q 25.875 -1.421875 19.796875 -0.21875 
Q 13.71875 0.984375 7.71875 3.421875 
L 7.71875 18.21875 
Q 13.671875 14.796875 19.015625 13.078125 
Q 24.359375 11.375 29.109375 11.375 
Q 35.9375 11.375 39.859375 14.71875 
Q 43.796875 18.0625 43.796875 23.78125 
Q 43.796875 29.546875 39.859375 32.859375 
Q 35.9375 36.1875 29.109375 36.1875 
Q 25.046875 36.1875 20.453125 35.125 
Q 15.875 34.078125 10.59375 31.890625 
z
" id="DejaVuSans-Bold-53"/>
     </defs>
     <use transform="translate(0 0.015625)" xlink:href="#DejaVuSans-76"/>
     <use transform="translate(55.712891 0.015625)" xlink:href="#DejaVuSans-97"/>
     <use transform="translate(116.992188 0.015625)" xlink:href="#DejaVuSans-115"/>
     <use transform="translate(169.091797 0.015625)" xlink:href="#DejaVuSans-116"/>
     <use transform="translate(208.300781 0.015625)" xlink:href="#DejaVuSans-32"/>
     <use transform="translate(240.087891 0.015625)" xlink:href="#DejaVuSans-117"/>
     <use transform="translate(303.466797 0.015625)" xlink:href="#DejaVuSans-112"/>
     <use transform="translate(366.943359 0.015625)" xlink:href="#DejaVuSans-100"/>
     <use transform="translate(430.419922 0.015625)" xlink:href="#DejaVuSans-97"/>
     <use transform="translate(491.699219 0.015625)" xlink:href="#DejaVuSans-116"/>
     <use transform="translate(530.908203 0.015625)" xlink:href="#DejaVuSans-101"/>
     <use transform="translate(592.431641 0.015625)" xlink:href="#DejaVuSans-100"/>
     <use transform="translate(655.908203 0.015625)" xlink:href="#DejaVuSans-32"/>
     <use transform="translate(687.695312 0.015625)" xlink:href="#DejaVuSans-111"/>
     <use transform="translate(748.876953 0.015625)" xlink:href="#DejaVuSans-110"/>
     <use transform="translate(812.255859 0.015625)" xlink:href="#DejaVuSans-32"/>
     <use transform="translate(844.042969 0.015625)" xlink:href="#DejaVuSans-48"/>
     <use transform="translate(907.666016 0.015625)" xlink:href="#DejaVuSans-51"/>
     <use transform="translate(971.289062 0.015625)" xlink:href="#DejaVuSans-32"/>
     <use transform="translate(1003.076172 0.015625)" xlink:href="#DejaVuSans-83"/>
     <use transform="translate(1066.552734 0.015625)" xlink:href="#DejaVuSans-101"/>
     <use transform="translate(1128.076172 0.015625)" xlink:href="#DejaVuSans-112"/>
     <use transform="translate(1191.552734 0.015625)" xlink:href="#DejaVuSans-116"/>
     <use transform="translate(1230.761719 0.015625)" xlink:href="#DejaVuSans-101"/>
     <use transform="translate(1292.285156 0.015625)" xlink:href="#DejaVuSans-109"/>
     <use transform="translate(1389.697266 0.015625)" xlink:href="#DejaVuSans-98"/>
     <use transform="translate(1453.173828 0.015625)" xlink:href="#DejaVuSans-101"/>
     <use transform="translate(1514.697266 0.015625)" xlink:href="#DejaVuSans-114"/>
     <use transform="translate(1555.810547 0.015625)" xlink:href="#DejaVuSans-32"/>
     <use transform="translate(1587.597656 0.015625)" xlink:href="#DejaVuSans-50"/>
     <use transform="translate(1651.220703 0.015625)" xlink:href="#DejaVuSans-48"/>
     <use transform="translate(1714.84375 0.015625)" xlink:href="#DejaVuSans-50"/>
     <use transform="translate(1778.466797 0.015625)" xlink:href="#DejaVuSans-48"/>
     <use transform="translate(1842.089844 0.015625)" xlink:href="#DejaVuSans-32"/>
     <use transform="translate(1873.876953 0.015625)" xlink:href="#DejaVuSans-119"/>
     <use transform="translate(1955.664062 0.015625)" xlink:href="#DejaVuSans-105"/>
     <use transform="translate(1983.447266 0.015625)" xlink:href="#DejaVuSans-116"/>
     <use transform="translate(2022.65625 0.015625)" xlink:href="#DejaVuSans-104"/>
     <use transform="translate(2086.035156 0.015625)" xlink:href="#DejaVuSans-32"/>
     <use transform="translate(2117.822266 0.015625)" xlink:href="#DejaVuSans-BoldOblique-82"/>
     <use transform="translate(2194.824219 -16.390625)scale(0.7)" xlink:href="#DejaVuSans-BoldOblique-116"/>
     <use transform="translate(2251.860352 0.015625)" xlink:href="#DejaVuSans-Bold-61"/>
     <use transform="translate(2356.489258 0.015625)" xlink:href="#DejaVuSans-Bold-49"/>
     <use transform="translate(2426.069336 0.015625)" xlink:href="#DejaVuSans-Bold-46"/>
     <use transform="translate(2459.557617 0.015625)" xlink:href="#DejaVuSans-Bold-50"/>
     <use transform="translate(2529.137695 0.015625)" xlink:href="#DejaVuSans-Bold-49"/>
     <use transform="translate(2598.717773 0.015625)" xlink:href="#DejaVuSans-32"/>
     <use transform="translate(2630.504883 0.015625)" xlink:href="#DejaVuSans-97"/>
     <use transform="translate(2691.78418 0.015625)" xlink:href="#DejaVuSans-110"/>
     <use transform="translate(2755.163086 0.015625)" xlink:href="#DejaVuSans-100"/>
     <use transform="translate(2818.639648 0.015625)" xlink:href="#DejaVuSans-32"/>
     <use transform="translate(2850.426758 0.015625)" xlink:href="#DejaVuSans-57"/>
     <use transform="translate(2914.049805 0.015625)" xlink:href="#DejaVuSans-53"/>
     <use transform="translate(2977.672852 0.015625)" xlink:href="#DejaVuSans-37"/>
     <use transform="translate(3072.692383 0.015625)" xlink:href="#DejaVuSans-32"/>
     <use transform="translate(3104.479492 0.015625)" xlink:href="#DejaVuSans-99"/>
     <use transform="translate(3159.459961 0.015625)" xlink:href="#DejaVuSans-111"/>
     <use transform="translate(3220.641602 0.015625)" xlink:href="#DejaVuSans-110"/>
     <use transform="translate(3284.020508 0.015625)" xlink:href="#DejaVuSans-102"/>
     <use transform="translate(3319.225586 0.015625)" xlink:href="#DejaVuSans-105"/>
     <use transform="translate(3347.008789 0.015625)" xlink:href="#DejaVuSans-100"/>
     <use transform="translate(3410.485352 0.015625)" xlink:href="#DejaVuSans-101"/>
     <use transform="translate(3472.008789 0.015625)" xlink:href="#DejaVuSans-110"/>
     <use transform="translate(3535.387695 0.015625)" xlink:href="#DejaVuSans-99"/>
     <use transform="translate(3590.368164 0.015625)" xlink:href="#DejaVuSans-101"/>
     <use transform="translate(3651.891602 0.015625)" xlink:href="#DejaVuSans-32"/>
     <use transform="translate(3683.678711 0.015625)" xlink:href="#DejaVuSans-105"/>
     <use transform="translate(3711.461914 0.015625)" xlink:href="#DejaVuSans-110"/>
     <use transform="translate(3774.84082 0.015625)" xlink:href="#DejaVuSans-32"/>
     <use transform="translate(3806.62793 0.015625)" xlink:href="#DejaVuSans-114"/>
     <use transform="translate(3847.741211 0.015625)" xlink:href="#DejaVuSans-97"/>
     <use transform="translate(3909.020508 0.015625)" xlink:href="#DejaVuSans-110"/>
     <use transform="translate(3972.399414 0.015625)" xlink:href="#DejaVuSans-103"/>
     <use transform="translate(4035.875977 0.015625)" xlink:href="#DejaVuSans-101"/>
     <use transform="translate(4097.399414 0.015625)" xlink:href="#DejaVuSans-32"/>
     <use transform="translate(4129.186523 0.015625)" xlink:href="#DejaVuSans-Bold-48"/>
     <use transform="translate(4198.766602 0.015625)" xlink:href="#DejaVuSans-Bold-46"/>
     <use transform="translate(4235.004883 0.015625)" xlink:href="#DejaVuSans-Bold-56"/>
     <use transform="translate(4304.584961 0.015625)" xlink:href="#DejaVuSans-Bold-50"/>
     <use transform="translate(4395.004883 0.015625)" xlink:href="#DejaVuSans-Bold-8722"/>
     <use transform="translate(4499.633789 0.015625)" xlink:href="#DejaVuSans-Bold-49"/>
     <use transform="translate(4569.213867 0.015625)" xlink:href="#DejaVuSans-Bold-46"/>
     <use transform="translate(4607.202148 0.015625)" xlink:href="#DejaVuSans-Bold-53"/>
     <use transform="translate(4676.782227 0.015625)" xlink:href="#DejaVuSans-Bold-53"/>
    </g>
   </g>
   <g id="legend_1">
    <g id="line2d_13">
     <path d="M 918.405989 60.12 
L 950.405989 60.12 
" style="fill:none;stroke:#000000;stroke-linecap:square;"/>
    </g>
    <g id="line2d_14">
     <g>
      <use style="fill:#ffffff;stroke:#000000;" x="934.405989" xlink:href="#mdaab0bd058" y="60.12"/>
     </g>
    </g>
    <g id="text_13">
     <!-- Most Likely $R_t$ -->
     <g style="fill:#555555;" transform="translate(963.205989 65.72)scale(0.16 -0.16)">
      <defs>
       <path d="M 34.421875 43.5 
Q 28.609375 43.5 25.5625 39.328125 
Q 22.515625 35.15625 22.515625 27.296875 
Q 22.515625 19.4375 25.5625 15.25 
Q 28.609375 11.078125 34.421875 11.078125 
Q 40.140625 11.078125 43.15625 15.25 
Q 46.1875 19.4375 46.1875 27.296875 
Q 46.1875 35.15625 43.15625 39.328125 
Q 40.140625 43.5 34.421875 43.5 
z
M 34.421875 56 
Q 48.53125 56 56.46875 48.375 
Q 64.40625 40.765625 64.40625 27.296875 
Q 64.40625 13.8125 56.46875 6.1875 
Q 48.53125 -1.421875 34.421875 -1.421875 
Q 20.265625 -1.421875 12.28125 6.1875 
Q 4.296875 13.8125 4.296875 27.296875 
Q 4.296875 40.765625 12.28125 48.375 
Q 20.265625 56 34.421875 56 
z
" id="DejaVuSans-Bold-111"/>
       <path id="DejaVuSans-Bold-32"/>
       <path d="M 9.1875 72.90625 
L 27.984375 72.90625 
L 27.984375 14.203125 
L 60.984375 14.203125 
L 60.984375 0 
L 9.1875 0 
z
" id="DejaVuSans-Bold-76"/>
       <path d="M 8.40625 75.984375 
L 25.875 75.984375 
L 25.875 34.625 
L 46 54.6875 
L 66.3125 54.6875 
L 39.59375 29.59375 
L 68.40625 0 
L 47.21875 0 
L 25.875 22.796875 
L 25.875 0 
L 8.40625 0 
z
" id="DejaVuSans-Bold-107"/>
      </defs>
      <use transform="translate(0 0.015625)" xlink:href="#DejaVuSans-Bold-77"/>
      <use transform="translate(99.511719 0.015625)" xlink:href="#DejaVuSans-Bold-111"/>
      <use transform="translate(168.212891 0.015625)" xlink:href="#DejaVuSans-Bold-115"/>
      <use transform="translate(227.734375 0.015625)" xlink:href="#DejaVuSans-Bold-116"/>
      <use transform="translate(275.537109 0.015625)" xlink:href="#DejaVuSans-Bold-32"/>
      <use transform="translate(310.351562 0.015625)" xlink:href="#DejaVuSans-Bold-76"/>
      <use transform="translate(374.072266 0.015625)" xlink:href="#DejaVuSans-Bold-105"/>
      <use transform="translate(408.349609 0.015625)" xlink:href="#DejaVuSans-Bold-107"/>
      <use transform="translate(474.853516 0.015625)" xlink:href="#DejaVuSans-Bold-101"/>
      <use transform="translate(542.675781 0.015625)" xlink:href="#DejaVuSans-Bold-108"/>
      <use transform="translate(576.953125 0.015625)" xlink:href="#DejaVuSans-Bold-121"/>
      <use transform="translate(642.138672 0.015625)" xlink:href="#DejaVuSans-Bold-32"/>
      <use transform="translate(676.953125 0.015625)" xlink:href="#DejaVuSans-BoldOblique-82"/>
      <use transform="translate(753.955078 -16.390625)scale(0.7)" xlink:href="#DejaVuSans-BoldOblique-116"/>
     </g>
    </g>
    <g id="patch_5">
     <path d="M 918.405989 89.3975 
L 950.405989 89.3975 
L 950.405989 78.1975 
L 918.405989 78.1975 
z
" style="fill:#e6e6e6;stroke:#e6e6e6;stroke-linejoin:miter;"/>
    </g>
    <g id="text_14">
     <!-- 95% CI -->
     <g style="fill:#555555;" transform="translate(963.205989 89.3975)scale(0.16 -0.16)">
      <defs>
       <path d="M 10.015625 1.609375 
L 10.015625 15.09375 
Q 14.5 12.984375 18.59375 11.9375 
Q 22.703125 10.890625 26.703125 10.890625 
Q 35.109375 10.890625 39.796875 15.546875 
Q 44.484375 20.21875 45.3125 29.390625 
Q 42 26.953125 38.234375 25.734375 
Q 34.46875 24.515625 30.078125 24.515625 
Q 18.890625 24.515625 12.03125 31.03125 
Q 5.171875 37.546875 5.171875 48.1875 
Q 5.171875 59.96875 12.8125 67.046875 
Q 20.453125 74.125 33.296875 74.125 
Q 47.5625 74.125 55.375 64.5 
Q 63.1875 54.890625 63.1875 37.3125 
Q 63.1875 19.234375 54.046875 8.90625 
Q 44.921875 -1.421875 29 -1.421875 
Q 23.875 -1.421875 19.1875 -0.65625 
Q 14.5 0.09375 10.015625 1.609375 
z
M 33.203125 36.71875 
Q 38.140625 36.71875 40.625 39.90625 
Q 43.109375 43.109375 43.109375 49.515625 
Q 43.109375 55.859375 40.625 59.078125 
Q 38.140625 62.3125 33.203125 62.3125 
Q 28.265625 62.3125 25.78125 59.078125 
Q 23.296875 55.859375 23.296875 49.515625 
Q 23.296875 43.109375 25.78125 39.90625 
Q 28.265625 36.71875 33.203125 36.71875 
z
" id="DejaVuSans-Bold-57"/>
       <path d="M 77.484375 30.078125 
Q 74.03125 30.078125 72.125 27.078125 
Q 70.21875 24.078125 70.21875 18.5 
Q 70.21875 12.890625 72.09375 9.890625 
Q 73.96875 6.890625 77.484375 6.890625 
Q 81 6.890625 82.859375 9.890625 
Q 84.71875 12.890625 84.71875 18.5 
Q 84.71875 24.078125 82.828125 27.078125 
Q 80.953125 30.078125 77.484375 30.078125 
z
M 77.484375 38.28125 
Q 86.578125 38.28125 91.796875 33 
Q 97.015625 27.734375 97.015625 18.5 
Q 97.015625 9.28125 91.796875 3.921875 
Q 86.578125 -1.421875 77.484375 -1.421875 
Q 68.40625 -1.421875 63.15625 3.921875 
Q 57.90625 9.28125 57.90625 18.5 
Q 57.90625 27.6875 63.15625 32.984375 
Q 68.40625 38.28125 77.484375 38.28125 
z
M 32.71875 -1.421875 
L 21.921875 -1.421875 
L 67.484375 74.21875 
L 78.328125 74.21875 
z
M 22.703125 74.21875 
Q 31.78125 74.21875 36.984375 68.921875 
Q 42.1875 63.625 42.1875 54.390625 
Q 42.1875 45.171875 36.984375 39.84375 
Q 31.78125 34.515625 22.703125 34.515625 
Q 13.625 34.515625 8.421875 39.84375 
Q 3.21875 45.171875 3.21875 54.390625 
Q 3.21875 63.625 8.421875 68.921875 
Q 13.625 74.21875 22.703125 74.21875 
z
M 22.703125 66.015625 
Q 19.1875 66.015625 17.28125 62.984375 
Q 15.375 59.96875 15.375 54.390625 
Q 15.375 48.78125 17.28125 45.71875 
Q 19.1875 42.671875 22.703125 42.671875 
Q 26.21875 42.671875 28.09375 45.71875 
Q 29.984375 48.78125 29.984375 54.390625 
Q 29.984375 59.96875 28.078125 62.984375 
Q 26.171875 66.015625 22.703125 66.015625 
z
" id="DejaVuSans-Bold-37"/>
       <path d="M 67 4 
Q 61.8125 1.3125 56.203125 -0.046875 
Q 50.59375 -1.421875 44.484375 -1.421875 
Q 26.265625 -1.421875 15.625 8.765625 
Q 4.984375 18.953125 4.984375 36.375 
Q 4.984375 53.859375 15.625 64.03125 
Q 26.265625 74.21875 44.484375 74.21875 
Q 50.59375 74.21875 56.203125 72.84375 
Q 61.8125 71.484375 67 68.796875 
L 67 53.71875 
Q 61.765625 57.28125 56.6875 58.9375 
Q 51.609375 60.59375 46 60.59375 
Q 35.9375 60.59375 30.171875 54.140625 
Q 24.421875 47.703125 24.421875 36.375 
Q 24.421875 25.09375 30.171875 18.640625 
Q 35.9375 12.203125 46 12.203125 
Q 51.609375 12.203125 56.6875 13.859375 
Q 61.765625 15.53125 67 19.09375 
z
" id="DejaVuSans-Bold-67"/>
       <path d="M 9.1875 72.90625 
L 27.984375 72.90625 
L 27.984375 0 
L 9.1875 0 
z
" id="DejaVuSans-Bold-73"/>
      </defs>
      <use xlink:href="#DejaVuSans-Bold-57"/>
      <use x="69.580078" xlink:href="#DejaVuSans-Bold-53"/>
      <use x="139.160156" xlink:href="#DejaVuSans-Bold-37"/>
      <use x="239.355469" xlink:href="#DejaVuSans-Bold-32"/>
      <use x="274.169922" xlink:href="#DejaVuSans-Bold-67"/>
      <use x="347.558594" xlink:href="#DejaVuSans-Bold-73"/>
     </g>
    </g>
    <g id="patch_6">
     <path d="M 918.405989 112.8825 
L 950.405989 112.8825 
L 950.405989 101.6825 
L 918.405989 101.6825 
z
" style="fill:#c8c8c8;stroke:#c8c8c8;stroke-linejoin:miter;"/>
    </g>
    <g id="text_15">
     <!-- 65% CI -->
     <g style="fill:#555555;" transform="translate(963.205989 112.8825)scale(0.16 -0.16)">
      <defs>
       <path d="M 36.1875 35.984375 
Q 31.25 35.984375 28.78125 32.78125 
Q 26.3125 29.59375 26.3125 23.1875 
Q 26.3125 16.796875 28.78125 13.59375 
Q 31.25 10.40625 36.1875 10.40625 
Q 41.15625 10.40625 43.625 13.59375 
Q 46.09375 16.796875 46.09375 23.1875 
Q 46.09375 29.59375 43.625 32.78125 
Q 41.15625 35.984375 36.1875 35.984375 
z
M 59.421875 71 
L 59.421875 57.515625 
Q 54.78125 59.71875 50.671875 60.765625 
Q 46.578125 61.8125 42.671875 61.8125 
Q 34.28125 61.8125 29.59375 57.140625 
Q 24.90625 52.484375 24.125 43.3125 
Q 27.34375 45.703125 31.09375 46.890625 
Q 34.859375 48.09375 39.3125 48.09375 
Q 50.484375 48.09375 57.34375 41.546875 
Q 64.203125 35.015625 64.203125 24.421875 
Q 64.203125 12.703125 56.53125 5.640625 
Q 48.875 -1.421875 35.984375 -1.421875 
Q 21.78125 -1.421875 13.984375 8.171875 
Q 6.203125 17.78125 6.203125 35.40625 
Q 6.203125 53.46875 15.3125 63.796875 
Q 24.421875 74.125 40.28125 74.125 
Q 45.3125 74.125 50.046875 73.34375 
Q 54.78125 72.5625 59.421875 71 
z
" id="DejaVuSans-Bold-54"/>
      </defs>
      <use xlink:href="#DejaVuSans-Bold-54"/>
      <use x="69.580078" xlink:href="#DejaVuSans-Bold-53"/>
      <use x="139.160156" xlink:href="#DejaVuSans-Bold-37"/>
      <use x="239.355469" xlink:href="#DejaVuSans-Bold-32"/>
      <use x="274.169922" xlink:href="#DejaVuSans-Bold-67"/>
      <use x="347.558594" xlink:href="#DejaVuSans-Bold-73"/>
     </g>
    </g>
   </g>
  </g>
 </g>
 <defs>
  <clipPath id="p876d619e10">
   <rect height="502.12" width="1052.323989" x="51.842" y="39.16"/>
  </clipPath>
 </defs>
</svg>
