<?xml version="1.0" encoding="utf-8" standalone="no"?>
<!DOCTYPE svg PUBLIC "-//W3C//DTD SVG 1.1//EN"
  "http://www.w3.org/Graphics/SVG/1.1/DTD/svg11.dtd">
<!-- Created with matplotlib (https://matplotlib.org/) -->
<svg height="576pt" version="1.1" viewBox="0 0 1152 576" width="1152pt" xmlns="http://www.w3.org/2000/svg" xmlns:xlink="http://www.w3.org/1999/xlink">
 <metadata>
  <rdf:RDF xmlns:cc="http://creativecommons.org/ns#" xmlns:dc="http://purl.org/dc/elements/1.1/" xmlns:rdf="http://www.w3.org/1999/02/22-rdf-syntax-ns#">
   <cc:Work>
    <dc:type rdf:resource="http://purl.org/dc/dcmitype/StillImage"/>
    <dc:date>2020-10-10T17:18:56.293171</dc:date>
    <dc:format>image/svg+xml</dc:format>
    <dc:creator>
     <cc:Agent>
      <dc:title>Matplotlib v3.3.2, https://matplotlib.org/</dc:title>
     </cc:Agent>
    </dc:creator>
   </cc:Work>
  </rdf:RDF>
 </metadata>
 <defs>
  <style type="text/css">*{stroke-linecap:butt;stroke-linejoin:round;}</style>
 </defs>
 <g id="figure_1">
  <g id="patch_1">
   <path d="M 0 576 
L 1152 576 
L 1152 0 
L 0 0 
z
" style="fill:#ffffff;"/>
  </g>
  <g id="axes_1">
   <g id="patch_2">
    <path d="M 51.842 541.28 
L 1137.96 541.28 
L 1137.96 39.16 
L 51.842 39.16 
z
" style="fill:#ffffff;"/>
   </g>
   <g id="PolyCollection_1">
    <path clip-path="url(#p6045c29ad7)" d="M 51.842 -555.28529 
L 51.842 439.236258 
L 56.801443 413.320387 
L 61.760886 384.165032 
L 66.720329 356.629419 
L 71.679772 324.234581 
L 76.639215 301.558194 
L 81.598658 285.360774 
L 86.5581 270.783097 
L 91.517543 259.444903 
L 96.476986 251.346194 
L 101.436429 244.867226 
L 106.395872 240.008 
L 111.355315 235.148774 
L 116.314758 233.529032 
L 121.274201 236.768516 
L 126.233644 243.247484 
L 131.193087 252.965935 
L 136.15253 261.064645 
L 141.111973 267.543613 
L 146.071416 274.022581 
L 151.030858 280.501548 
L 155.990301 293.459484 
L 160.949744 312.896387 
L 165.909187 337.192516 
L 170.86863 361.488645 
L 175.828073 382.54529 
L 180.787516 395.503226 
L 185.746959 401.982194 
L 190.706402 403.601935 
L 195.665845 405.221677 
L 200.625288 405.221677 
L 205.584731 405.221677 
L 210.544174 401.982194 
L 215.503616 395.503226 
L 220.463059 387.404516 
L 225.422502 382.54529 
L 230.381945 384.165032 
L 235.341388 395.503226 
L 240.300831 410.080903 
L 245.260274 423.038839 
L 250.219717 429.517806 
L 255.17916 429.517806 
L 260.138603 424.658581 
L 265.098046 421.419097 
L 270.057489 424.658581 
L 275.016932 432.75729 
L 279.976374 445.715226 
L 284.935817 455.433677 
L 289.89526 465.152129 
L 294.854703 471.631097 
L 299.814146 481.349548 
L 304.773589 491.068 
L 309.733032 504.025935 
L 314.692475 512.124645 
L 319.651918 515.364129 
L 324.611361 512.124645 
L 329.570804 504.025935 
L 334.530247 497.546968 
L 339.489689 494.307484 
L 344.449132 492.687742 
L 349.408575 492.687742 
L 354.368018 489.448258 
L 359.327461 484.589032 
L 364.286904 479.729806 
L 369.246347 479.729806 
L 374.20579 482.96929 
L 379.165233 487.828516 
L 384.124676 492.687742 
L 389.084119 494.307484 
L 394.043562 494.307484 
L 399.003005 494.307484 
L 403.962447 495.927226 
L 408.92189 497.546968 
L 413.881333 495.927226 
L 418.840776 491.068 
L 423.800219 481.349548 
L 428.759662 470.011355 
L 433.719105 458.673161 
L 438.678548 450.574452 
L 443.637991 447.334968 
L 448.597434 447.334968 
L 453.556877 448.95471 
L 458.51632 452.194194 
L 463.475763 453.813935 
L 468.435205 457.053419 
L 473.394648 460.292903 
L 478.354091 466.771871 
L 483.313534 470.011355 
L 488.272977 470.011355 
L 493.23242 463.532387 
L 498.191863 450.574452 
L 503.151306 437.616516 
L 508.110749 424.658581 
L 513.070192 416.559871 
L 518.029635 416.559871 
L 522.989078 419.799355 
L 527.948521 424.658581 
L 532.907963 431.137548 
L 537.867406 435.996774 
L 542.826849 440.856 
L 547.786292 447.334968 
L 552.745735 455.433677 
L 557.705178 463.532387 
L 562.664621 474.870581 
L 567.624064 484.589032 
L 572.583507 494.307484 
L 577.54295 504.025935 
L 582.502393 510.504903 
L 587.461836 512.124645 
L 592.421279 512.124645 
L 597.380721 508.885161 
L 602.340164 504.025935 
L 607.299607 500.786452 
L 612.25905 499.16671 
L 617.218493 499.16671 
L 622.177936 499.16671 
L 627.137379 500.786452 
L 632.096822 500.786452 
L 637.056265 500.786452 
L 642.015708 499.16671 
L 646.975151 499.16671 
L 651.934594 502.406194 
L 656.894037 504.025935 
L 661.853479 507.265419 
L 666.812922 505.645677 
L 671.772365 502.406194 
L 676.731808 492.687742 
L 681.691251 479.729806 
L 686.650694 466.771871 
L 691.610137 453.813935 
L 696.56958 442.475742 
L 701.529023 431.137548 
L 706.488466 418.179613 
L 711.447909 405.221677 
L 716.407352 390.644 
L 721.366795 379.305806 
L 726.326237 371.207097 
L 731.28568 367.967613 
L 736.245123 367.967613 
L 741.204566 372.826839 
L 746.164009 376.066323 
L 751.123452 379.305806 
L 756.082895 379.305806 
L 761.042338 372.826839 
L 766.001781 363.108387 
L 770.961224 351.770194 
L 775.920667 340.432 
L 780.88011 332.33329 
L 785.839553 327.474065 
L 790.798995 327.474065 
L 795.758438 330.713548 
L 800.717881 333.953032 
L 805.677324 338.812258 
L 810.636767 342.051742 
L 815.59621 345.291226 
L 820.555653 346.910968 
L 825.515096 348.53071 
L 830.474539 351.770194 
L 835.433982 358.249161 
L 840.393425 366.347871 
L 845.352868 379.305806 
L 850.312311 395.503226 
L 855.271753 411.700645 
L 860.231196 424.658581 
L 865.190639 435.996774 
L 870.150082 440.856 
L 875.109525 442.475742 
L 880.068968 440.856 
L 885.028411 437.616516 
L 889.987854 434.377032 
L 894.947297 431.137548 
L 899.90674 429.517806 
L 904.866183 426.278323 
L 909.825626 424.658581 
L 914.785068 421.419097 
L 919.744511 419.799355 
L 924.703954 418.179613 
L 929.663397 413.320387 
L 934.62284 406.841419 
L 939.582283 397.122968 
L 944.541726 387.404516 
L 949.501169 374.446581 
L 954.460612 363.108387 
L 959.420055 353.389935 
L 964.379498 345.291226 
L 969.338941 338.812258 
L 974.298384 335.572774 
L 979.257826 335.572774 
L 984.217269 335.572774 
L 989.176712 338.812258 
L 994.136155 340.432 
L 999.095598 340.432 
L 1004.055041 338.812258 
L 1009.014484 333.953032 
L 1013.973927 329.093806 
L 1018.93337 324.234581 
L 1023.892813 320.995097 
L 1028.852256 322.614839 
L 1033.811699 325.854323 
L 1038.771142 329.093806 
L 1043.730584 332.33329 
L 1048.690027 333.953032 
L 1053.64947 333.953032 
L 1058.608913 335.572774 
L 1063.568356 338.812258 
L 1068.527799 342.051742 
L 1073.487242 345.291226 
L 1078.446685 346.910968 
L 1083.406128 345.291226 
L 1088.365571 342.051742 
L 1093.325014 337.192516 
L 1098.284457 330.713548 
L 1103.2439 325.854323 
L 1108.203342 322.614839 
L 1113.162785 317.755613 
L 1118.122228 316.135871 
L 1123.081671 317.755613 
L 1128.041114 319.375355 
L 1133.000557 322.614839 
L 1137.96 325.854323 
L 1137.96 277.262065 
L 1137.96 277.262065 
L 1133.000557 274.022581 
L 1128.041114 269.163355 
L 1123.081671 267.543613 
L 1118.122228 264.304129 
L 1113.162785 265.923871 
L 1108.203342 267.543613 
L 1103.2439 270.783097 
L 1098.284457 275.642323 
L 1093.325014 278.881806 
L 1088.365571 283.741032 
L 1083.406128 286.980516 
L 1078.446685 286.980516 
L 1073.487242 285.360774 
L 1068.527799 280.501548 
L 1063.568356 275.642323 
L 1058.608913 272.402839 
L 1053.64947 269.163355 
L 1048.690027 267.543613 
L 1043.730584 264.304129 
L 1038.771142 261.064645 
L 1033.811699 254.585677 
L 1028.852256 251.346194 
L 1023.892813 248.10671 
L 1018.93337 248.10671 
L 1013.973927 251.346194 
L 1009.014484 254.585677 
L 1004.055041 257.825161 
L 999.095598 259.444903 
L 994.136155 256.205419 
L 989.176712 252.965935 
L 984.217269 249.726452 
L 979.257826 246.486968 
L 974.298384 246.486968 
L 969.338941 246.486968 
L 964.379498 251.346194 
L 959.420055 256.205419 
L 954.460612 264.304129 
L 949.501169 274.022581 
L 944.541726 285.360774 
L 939.582283 295.079226 
L 934.62284 303.177935 
L 929.663397 309.656903 
L 924.703954 314.516129 
L 919.744511 316.135871 
L 914.785068 317.755613 
L 909.825626 320.995097 
L 904.866183 322.614839 
L 899.90674 325.854323 
L 894.947297 327.474065 
L 889.987854 330.713548 
L 885.028411 333.953032 
L 880.068968 337.192516 
L 875.109525 340.432 
L 870.150082 340.432 
L 865.190639 335.572774 
L 860.231196 325.854323 
L 855.271753 312.896387 
L 850.312311 296.698968 
L 845.352868 282.12129 
L 840.393425 267.543613 
L 835.433982 257.825161 
L 830.474539 251.346194 
L 825.515096 246.486968 
L 820.555653 241.627742 
L 815.59621 238.388258 
L 810.636767 233.529032 
L 805.677324 227.050065 
L 800.717881 220.571097 
L 795.758438 214.092129 
L 790.798995 207.613161 
L 785.839553 205.993419 
L 780.88011 205.993419 
L 775.920667 210.852645 
L 770.961224 217.331613 
L 766.001781 227.050065 
L 761.042338 233.529032 
L 756.082895 236.768516 
L 751.123452 235.148774 
L 746.164009 230.289548 
L 741.204566 223.810581 
L 736.245123 215.711871 
L 731.28568 210.852645 
L 726.326237 210.852645 
L 721.366795 214.092129 
L 716.407352 222.190839 
L 711.447909 230.289548 
L 706.488466 240.008 
L 701.529023 249.726452 
L 696.56958 257.825161 
L 691.610137 267.543613 
L 686.650694 278.881806 
L 681.691251 291.839742 
L 676.731808 306.417419 
L 671.772365 316.135871 
L 666.812922 324.234581 
L 661.853479 325.854323 
L 656.894037 324.234581 
L 651.934594 322.614839 
L 646.975151 320.995097 
L 642.015708 322.614839 
L 637.056265 324.234581 
L 632.096822 327.474065 
L 627.137379 327.474065 
L 622.177936 327.474065 
L 617.218493 327.474065 
L 612.25905 329.093806 
L 607.299607 333.953032 
L 602.340164 340.432 
L 597.380721 348.53071 
L 592.421279 355.009677 
L 587.461836 359.868903 
L 582.502393 358.249161 
L 577.54295 355.009677 
L 572.583507 348.53071 
L 567.624064 340.432 
L 562.664621 330.713548 
L 557.705178 322.614839 
L 552.745735 314.516129 
L 547.786292 308.037161 
L 542.826849 301.558194 
L 537.867406 296.698968 
L 532.907963 291.839742 
L 527.948521 285.360774 
L 522.989078 278.881806 
L 518.029635 274.022581 
L 513.070192 274.022581 
L 508.110749 280.501548 
L 503.151306 291.839742 
L 498.191863 304.797677 
L 493.23242 317.755613 
L 488.272977 324.234581 
L 483.313534 327.474065 
L 478.354091 324.234581 
L 473.394648 320.995097 
L 468.435205 316.135871 
L 463.475763 314.516129 
L 458.51632 312.896387 
L 453.556877 311.276645 
L 448.597434 309.656903 
L 443.637991 308.037161 
L 438.678548 311.276645 
L 433.719105 317.755613 
L 428.759662 329.093806 
L 423.800219 342.051742 
L 418.840776 353.389935 
L 413.881333 359.868903 
L 408.92189 363.108387 
L 403.962447 363.108387 
L 399.003005 363.108387 
L 394.043562 364.728129 
L 389.084119 367.967613 
L 384.124676 367.967613 
L 379.165233 364.728129 
L 374.20579 359.868903 
L 369.246347 358.249161 
L 364.286904 359.868903 
L 359.327461 366.347871 
L 354.368018 371.207097 
L 349.408575 376.066323 
L 344.449132 379.305806 
L 339.489689 382.54529 
L 334.530247 389.024258 
L 329.570804 400.362452 
L 324.611361 413.320387 
L 319.651918 421.419097 
L 314.692475 419.799355 
L 309.733032 411.700645 
L 304.773589 400.362452 
L 299.814146 389.024258 
L 294.854703 380.925548 
L 289.89526 374.446581 
L 284.935817 367.967613 
L 279.976374 358.249161 
L 275.016932 346.910968 
L 270.057489 338.812258 
L 265.098046 335.572774 
L 260.138603 338.812258 
L 255.17916 343.671484 
L 250.219717 345.291226 
L 245.260274 340.432 
L 240.300831 327.474065 
L 235.341388 312.896387 
L 230.381945 303.177935 
L 225.422502 299.938452 
L 220.463059 303.177935 
L 215.503616 311.276645 
L 210.544174 316.135871 
L 205.584731 319.375355 
L 200.625288 319.375355 
L 195.665845 319.375355 
L 190.706402 319.375355 
L 185.746959 317.755613 
L 180.787516 311.276645 
L 175.828073 296.698968 
L 170.86863 277.262065 
L 165.909187 251.346194 
L 160.949744 225.430323 
L 155.990301 204.373677 
L 151.030858 189.796 
L 146.071416 178.457806 
L 141.111973 168.739355 
L 136.15253 159.020903 
L 131.193087 146.062968 
L 126.233644 131.48529 
L 121.274201 118.527355 
L 116.314758 108.808903 
L 111.355315 100.710194 
L 106.395872 94.231226 
L 101.436429 89.372 
L 96.476986 81.27329 
L 91.517543 73.174581 
L 86.5581 63.456129 
L 81.598658 52.117935 
L 76.639215 32.681032 
L 71.679772 0.286194 
L 66.720329 -122.814194 
L 61.760886 -242.675097 
L 56.801443 -391.691355 
L 51.842 -555.28529 
z
" style="fill:#e6e6e6;stroke:#e6e6e6;"/>
   </g>
   <g id="PolyCollection_2">
    <path clip-path="url(#p6045c29ad7)" d="M 51.842 -263.731742 
L 51.842 348.53071 
L 56.801443 316.135871 
L 61.760886 286.980516 
L 66.720329 264.304129 
L 71.679772 240.008 
L 76.639215 231.90929 
L 81.598658 225.430323 
L 86.5581 217.331613 
L 91.517543 210.852645 
L 96.476986 207.613161 
L 101.436429 204.373677 
L 106.395872 202.753935 
L 111.355315 202.753935 
L 116.314758 204.373677 
L 121.274201 209.232903 
L 126.233644 217.331613 
L 131.193087 225.430323 
L 136.15253 235.148774 
L 141.111973 243.247484 
L 146.071416 249.726452 
L 151.030858 257.825161 
L 155.990301 270.783097 
L 160.949744 290.22 
L 165.909187 314.516129 
L 170.86863 340.432 
L 175.828073 359.868903 
L 180.787516 372.826839 
L 185.746959 379.305806 
L 190.706402 380.925548 
L 195.665845 380.925548 
L 200.625288 382.54529 
L 205.584731 382.54529 
L 210.544174 379.305806 
L 215.503616 372.826839 
L 220.463059 366.347871 
L 225.422502 361.488645 
L 230.381945 364.728129 
L 235.341388 374.446581 
L 240.300831 389.024258 
L 245.260274 400.362452 
L 250.219717 406.841419 
L 255.17916 405.221677 
L 260.138603 401.982194 
L 265.098046 398.74271 
L 270.057489 403.601935 
L 275.016932 413.320387 
L 279.976374 424.658581 
L 284.935817 435.996774 
L 289.89526 444.095484 
L 294.854703 450.574452 
L 299.814146 460.292903 
L 304.773589 471.631097 
L 309.733032 484.589032 
L 314.692475 494.307484 
L 319.651918 497.546968 
L 324.611361 491.068 
L 329.570804 481.349548 
L 334.530247 471.631097 
L 339.489689 466.771871 
L 344.449132 463.532387 
L 349.408575 461.912645 
L 354.368018 458.673161 
L 359.327461 453.813935 
L 364.286904 448.95471 
L 369.246347 447.334968 
L 374.20579 450.574452 
L 379.165233 455.433677 
L 384.124676 460.292903 
L 389.084119 461.912645 
L 394.043562 460.292903 
L 399.003005 460.292903 
L 403.962447 461.912645 
L 408.92189 461.912645 
L 413.881333 461.912645 
L 418.840776 457.053419 
L 423.800219 447.334968 
L 428.759662 434.377032 
L 433.719105 423.038839 
L 438.678548 416.559871 
L 443.637991 411.700645 
L 448.597434 411.700645 
L 453.556877 413.320387 
L 458.51632 414.940129 
L 463.475763 418.179613 
L 468.435205 421.419097 
L 473.394648 426.278323 
L 478.354091 431.137548 
L 483.313534 435.996774 
L 488.272977 434.377032 
L 493.23242 427.898065 
L 498.191863 414.940129 
L 503.151306 401.982194 
L 508.110749 389.024258 
L 513.070192 380.925548 
L 518.029635 379.305806 
L 522.989078 382.54529 
L 527.948521 389.024258 
L 532.907963 393.883484 
L 537.867406 398.74271 
L 542.826849 405.221677 
L 547.786292 411.700645 
L 552.745735 419.799355 
L 557.705178 427.898065 
L 562.664621 439.236258 
L 567.624064 448.95471 
L 572.583507 458.673161 
L 577.54295 466.771871 
L 582.502393 473.250839 
L 587.461836 474.870581 
L 592.421279 474.870581 
L 597.380721 470.011355 
L 602.340164 463.532387 
L 607.299607 458.673161 
L 612.25905 455.433677 
L 617.218493 455.433677 
L 622.177936 455.433677 
L 627.137379 455.433677 
L 632.096822 455.433677 
L 637.056265 453.813935 
L 642.015708 452.194194 
L 646.975151 452.194194 
L 651.934594 453.813935 
L 656.894037 457.053419 
L 661.853479 458.673161 
L 666.812922 457.053419 
L 671.772365 452.194194 
L 676.731808 442.475742 
L 681.691251 429.517806 
L 686.650694 418.179613 
L 691.610137 405.221677 
L 696.56958 395.503226 
L 701.529023 385.784774 
L 706.488466 374.446581 
L 711.447909 361.488645 
L 716.407352 348.53071 
L 721.366795 337.192516 
L 726.326237 330.713548 
L 731.28568 327.474065 
L 736.245123 330.713548 
L 741.204566 335.572774 
L 746.164009 340.432 
L 751.123452 343.671484 
L 756.082895 343.671484 
L 761.042338 338.812258 
L 766.001781 330.713548 
L 770.961224 319.375355 
L 775.920667 309.656903 
L 780.88011 301.558194 
L 785.839553 296.698968 
L 790.798995 296.698968 
L 795.758438 299.938452 
L 800.717881 304.797677 
L 805.677324 309.656903 
L 810.636767 314.516129 
L 815.59621 319.375355 
L 820.555653 322.614839 
L 825.515096 325.854323 
L 830.474539 329.093806 
L 835.433982 335.572774 
L 840.393425 343.671484 
L 845.352868 355.009677 
L 850.312311 371.207097 
L 855.271753 385.784774 
L 860.231196 400.362452 
L 865.190639 410.080903 
L 870.150082 416.559871 
L 875.109525 416.559871 
L 880.068968 414.940129 
L 885.028411 413.320387 
L 889.987854 410.080903 
L 894.947297 406.841419 
L 899.90674 405.221677 
L 904.866183 401.982194 
L 909.825626 400.362452 
L 914.785068 398.74271 
L 919.744511 395.503226 
L 924.703954 393.883484 
L 929.663397 389.024258 
L 934.62284 382.54529 
L 939.582283 372.826839 
L 944.541726 361.488645 
L 949.501169 350.150452 
L 954.460612 337.192516 
L 959.420055 329.093806 
L 964.379498 320.995097 
L 969.338941 316.135871 
L 974.298384 314.516129 
L 979.257826 314.516129 
L 984.217269 316.135871 
L 989.176712 317.755613 
L 994.136155 320.995097 
L 999.095598 320.995097 
L 1004.055041 319.375355 
L 1009.014484 314.516129 
L 1013.973927 308.037161 
L 1018.93337 304.797677 
L 1023.892813 303.177935 
L 1028.852256 304.797677 
L 1033.811699 309.656903 
L 1038.771142 312.896387 
L 1043.730584 316.135871 
L 1048.690027 317.755613 
L 1053.64947 319.375355 
L 1058.608913 320.995097 
L 1063.568356 324.234581 
L 1068.527799 327.474065 
L 1073.487242 330.713548 
L 1078.446685 332.33329 
L 1083.406128 330.713548 
L 1088.365571 327.474065 
L 1093.325014 322.614839 
L 1098.284457 317.755613 
L 1103.2439 312.896387 
L 1108.203342 308.037161 
L 1113.162785 304.797677 
L 1118.122228 303.177935 
L 1123.081671 304.797677 
L 1128.041114 306.417419 
L 1133.000557 309.656903 
L 1137.96 314.516129 
L 1137.96 290.22 
L 1137.96 290.22 
L 1133.000557 286.980516 
L 1128.041114 283.741032 
L 1123.081671 280.501548 
L 1118.122228 278.881806 
L 1113.162785 280.501548 
L 1108.203342 282.12129 
L 1103.2439 285.360774 
L 1098.284457 290.22 
L 1093.325014 295.079226 
L 1088.365571 299.938452 
L 1083.406128 303.177935 
L 1078.446685 303.177935 
L 1073.487242 301.558194 
L 1068.527799 296.698968 
L 1063.568356 293.459484 
L 1058.608913 290.22 
L 1053.64947 286.980516 
L 1048.690027 285.360774 
L 1043.730584 283.741032 
L 1038.771142 280.501548 
L 1033.811699 275.642323 
L 1028.852256 270.783097 
L 1023.892813 267.543613 
L 1018.93337 267.543613 
L 1013.973927 270.783097 
L 1009.014484 275.642323 
L 1004.055041 280.501548 
L 999.095598 282.12129 
L 994.136155 280.501548 
L 989.176712 277.262065 
L 984.217269 274.022581 
L 979.257826 270.783097 
L 974.298384 270.783097 
L 969.338941 272.402839 
L 964.379498 275.642323 
L 959.420055 282.12129 
L 954.460612 290.22 
L 949.501169 301.558194 
L 944.541726 312.896387 
L 939.582283 324.234581 
L 934.62284 332.33329 
L 929.663397 338.812258 
L 924.703954 343.671484 
L 919.744511 345.291226 
L 914.785068 348.53071 
L 909.825626 350.150452 
L 904.866183 351.770194 
L 899.90674 355.009677 
L 894.947297 356.629419 
L 889.987854 359.868903 
L 885.028411 363.108387 
L 880.068968 366.347871 
L 875.109525 367.967613 
L 870.150082 367.967613 
L 865.190639 361.488645 
L 860.231196 351.770194 
L 855.271753 338.812258 
L 850.312311 322.614839 
L 845.352868 308.037161 
L 840.393425 295.079226 
L 835.433982 286.980516 
L 830.474539 280.501548 
L 825.515096 275.642323 
L 820.555653 272.402839 
L 815.59621 267.543613 
L 810.636767 262.684387 
L 805.677324 256.205419 
L 800.717881 249.726452 
L 795.758438 244.867226 
L 790.798995 240.008 
L 785.839553 238.388258 
L 780.88011 240.008 
L 775.920667 246.486968 
L 770.961224 254.585677 
L 766.001781 264.304129 
L 761.042338 272.402839 
L 756.082895 275.642323 
L 751.123452 275.642323 
L 746.164009 270.783097 
L 741.204566 264.304129 
L 736.245123 257.825161 
L 731.28568 252.965935 
L 726.326237 252.965935 
L 721.366795 257.825161 
L 716.407352 267.543613 
L 711.447909 277.262065 
L 706.488466 288.600258 
L 701.529023 298.31871 
L 696.56958 308.037161 
L 691.610137 316.135871 
L 686.650694 327.474065 
L 681.691251 340.432 
L 676.731808 351.770194 
L 671.772365 363.108387 
L 666.812922 367.967613 
L 661.853479 371.207097 
L 656.894037 369.587355 
L 651.934594 367.967613 
L 646.975151 366.347871 
L 642.015708 366.347871 
L 637.056265 367.967613 
L 632.096822 371.207097 
L 627.137379 372.826839 
L 622.177936 372.826839 
L 617.218493 372.826839 
L 612.25905 374.446581 
L 607.299607 377.686065 
L 602.340164 384.165032 
L 597.380721 390.644 
L 592.421279 397.122968 
L 587.461836 398.74271 
L 582.502393 398.74271 
L 577.54295 393.883484 
L 572.583507 387.404516 
L 567.624064 379.305806 
L 562.664621 369.587355 
L 557.705178 359.868903 
L 552.745735 351.770194 
L 547.786292 343.671484 
L 542.826849 337.192516 
L 537.867406 332.33329 
L 532.907963 327.474065 
L 527.948521 320.995097 
L 522.989078 316.135871 
L 518.029635 311.276645 
L 513.070192 312.896387 
L 508.110749 319.375355 
L 503.151306 330.713548 
L 498.191863 345.291226 
L 493.23242 358.249161 
L 488.272977 364.728129 
L 483.313534 366.347871 
L 478.354091 363.108387 
L 473.394648 358.249161 
L 468.435205 353.389935 
L 463.475763 351.770194 
L 458.51632 348.53071 
L 453.556877 346.910968 
L 448.597434 345.291226 
L 443.637991 345.291226 
L 438.678548 348.53071 
L 433.719105 356.629419 
L 428.759662 367.967613 
L 423.800219 379.305806 
L 418.840776 390.644 
L 413.881333 395.503226 
L 408.92189 397.122968 
L 403.962447 397.122968 
L 399.003005 398.74271 
L 394.043562 398.74271 
L 389.084119 400.362452 
L 384.124676 400.362452 
L 379.165233 397.122968 
L 374.20579 392.263742 
L 369.246347 389.024258 
L 364.286904 390.644 
L 359.327461 397.122968 
L 354.368018 401.982194 
L 349.408575 406.841419 
L 344.449132 408.461161 
L 339.489689 411.700645 
L 334.530247 418.179613 
L 329.570804 429.517806 
L 324.611361 440.856 
L 319.651918 448.95471 
L 314.692475 447.334968 
L 309.733032 439.236258 
L 304.773589 426.278323 
L 299.814146 414.940129 
L 294.854703 406.841419 
L 289.89526 400.362452 
L 284.935817 392.263742 
L 279.976374 382.54529 
L 275.016932 371.207097 
L 270.057489 361.488645 
L 265.098046 358.249161 
L 260.138603 361.488645 
L 255.17916 366.347871 
L 250.219717 366.347871 
L 245.260274 361.488645 
L 240.300831 348.53071 
L 235.341388 335.572774 
L 230.381945 324.234581 
L 225.422502 322.614839 
L 220.463059 325.854323 
L 215.503616 333.953032 
L 210.544174 338.812258 
L 205.584731 342.051742 
L 200.625288 342.051742 
L 195.665845 340.432 
L 190.706402 340.432 
L 185.746959 338.812258 
L 180.787516 332.33329 
L 175.828073 319.375355 
L 170.86863 299.938452 
L 165.909187 274.022581 
L 160.949744 249.726452 
L 155.990301 228.669806 
L 151.030858 214.092129 
L 146.071416 204.373677 
L 141.111973 196.274968 
L 136.15253 186.556516 
L 131.193087 175.218323 
L 126.233644 162.260387 
L 121.274201 152.541935 
L 116.314758 142.823484 
L 111.355315 137.964258 
L 106.395872 133.105032 
L 101.436429 129.865548 
L 96.476986 126.626065 
L 91.517543 121.766839 
L 86.5581 118.527355 
L 81.598658 113.668129 
L 76.639215 103.949677 
L 71.679772 84.512774 
L 66.720329 8.384903 
L 61.760886 -67.742968 
L 56.801443 -160.068258 
L 51.842 -263.731742 
z
" style="fill:#c8c8c8;stroke:#c8c8c8;"/>
   </g>
   <g id="matplotlib.axis_1">
    <g id="xtick_1">
     <g id="line2d_1">
      <defs>
       <path d="M 0 0 
L 0 3.5 
" id="mfeb0c25ff3" style="stroke:#555555;stroke-width:0.8;"/>
      </defs>
      <g>
       <use style="fill:#555555;stroke:#555555;stroke-width:0.8;" x="185.746959" xlink:href="#mfeb0c25ff3" y="541.28"/>
      </g>
     </g>
     <g id="text_1">
      <!-- April -->
      <g style="fill:#555555;" transform="translate(167.067896 558.917812)scale(0.14 -0.14)">
       <defs>
        <path d="M 53.421875 13.28125 
L 24.03125 13.28125 
L 19.390625 0 
L 0.484375 0 
L 27.484375 72.90625 
L 49.90625 72.90625 
L 76.90625 0 
L 58.015625 0 
z
M 28.71875 26.8125 
L 48.6875 26.8125 
L 38.71875 55.8125 
z
" id="DejaVuSans-Bold-65"/>
        <path d="M 25.875 7.90625 
L 25.875 -20.796875 
L 8.40625 -20.796875 
L 8.40625 54.6875 
L 25.875 54.6875 
L 25.875 46.6875 
Q 29.5 51.46875 33.890625 53.734375 
Q 38.28125 56 44 56 
Q 54.109375 56 60.59375 47.96875 
Q 67.09375 39.9375 67.09375 27.296875 
Q 67.09375 14.65625 60.59375 6.609375 
Q 54.109375 -1.421875 44 -1.421875 
Q 38.28125 -1.421875 33.890625 0.84375 
Q 29.5 3.125 25.875 7.90625 
z
M 37.5 43.3125 
Q 31.890625 43.3125 28.875 39.1875 
Q 25.875 35.0625 25.875 27.296875 
Q 25.875 19.53125 28.875 15.40625 
Q 31.890625 11.28125 37.5 11.28125 
Q 43.109375 11.28125 46.0625 15.375 
Q 49.03125 19.484375 49.03125 27.296875 
Q 49.03125 35.109375 46.0625 39.203125 
Q 43.109375 43.3125 37.5 43.3125 
z
" id="DejaVuSans-Bold-112"/>
        <path d="M 49.03125 39.796875 
Q 46.734375 40.875 44.453125 41.375 
Q 42.1875 41.890625 39.890625 41.890625 
Q 33.15625 41.890625 29.515625 37.5625 
Q 25.875 33.25 25.875 25.203125 
L 25.875 0 
L 8.40625 0 
L 8.40625 54.6875 
L 25.875 54.6875 
L 25.875 45.703125 
Q 29.25 51.078125 33.609375 53.53125 
Q 37.984375 56 44.09375 56 
Q 44.96875 56 45.984375 55.921875 
Q 47.015625 55.859375 48.96875 55.609375 
z
" id="DejaVuSans-Bold-114"/>
        <path d="M 8.40625 54.6875 
L 25.875 54.6875 
L 25.875 0 
L 8.40625 0 
z
M 8.40625 75.984375 
L 25.875 75.984375 
L 25.875 61.71875 
L 8.40625 61.71875 
z
" id="DejaVuSans-Bold-105"/>
        <path d="M 8.40625 75.984375 
L 25.875 75.984375 
L 25.875 0 
L 8.40625 0 
z
" id="DejaVuSans-Bold-108"/>
       </defs>
       <use xlink:href="#DejaVuSans-Bold-65"/>
       <use x="77.392578" xlink:href="#DejaVuSans-Bold-112"/>
       <use x="148.974609" xlink:href="#DejaVuSans-Bold-114"/>
       <use x="198.291016" xlink:href="#DejaVuSans-Bold-105"/>
       <use x="232.568359" xlink:href="#DejaVuSans-Bold-108"/>
      </g>
     </g>
    </g>
    <g id="xtick_2">
     <g id="line2d_2">
      <g>
       <use style="fill:#555555;stroke:#555555;stroke-width:0.8;" x="334.530247" xlink:href="#mfeb0c25ff3" y="541.28"/>
      </g>
     </g>
     <g id="text_2">
      <!-- May -->
      <g style="fill:#555555;" transform="translate(318.495872 558.808437)scale(0.14 -0.14)">
       <defs>
        <path d="M 9.1875 72.90625 
L 33.109375 72.90625 
L 49.703125 33.890625 
L 66.40625 72.90625 
L 90.28125 72.90625 
L 90.28125 0 
L 72.515625 0 
L 72.515625 53.328125 
L 55.71875 14.015625 
L 43.796875 14.015625 
L 27 53.328125 
L 27 0 
L 9.1875 0 
z
" id="DejaVuSans-Bold-77"/>
        <path d="M 32.90625 24.609375 
Q 27.4375 24.609375 24.671875 22.75 
Q 21.921875 20.90625 21.921875 17.28125 
Q 21.921875 13.96875 24.140625 12.078125 
Q 26.375 10.203125 30.328125 10.203125 
Q 35.25 10.203125 38.625 13.734375 
Q 42 17.28125 42 22.609375 
L 42 24.609375 
z
M 59.625 31.203125 
L 59.625 0 
L 42 0 
L 42 8.109375 
Q 38.484375 3.125 34.078125 0.84375 
Q 29.6875 -1.421875 23.390625 -1.421875 
Q 14.890625 -1.421875 9.59375 3.53125 
Q 4.296875 8.5 4.296875 16.40625 
Q 4.296875 26.03125 10.90625 30.515625 
Q 17.53125 35.015625 31.6875 35.015625 
L 42 35.015625 
L 42 36.375 
Q 42 40.53125 38.71875 42.453125 
Q 35.453125 44.390625 28.515625 44.390625 
Q 22.90625 44.390625 18.0625 43.265625 
Q 13.234375 42.140625 9.078125 39.890625 
L 9.078125 53.21875 
Q 14.703125 54.59375 20.359375 55.296875 
Q 26.03125 56 31.6875 56 
Q 46.484375 56 53.046875 50.171875 
Q 59.625 44.34375 59.625 31.203125 
z
" id="DejaVuSans-Bold-97"/>
        <path d="M 1.21875 54.6875 
L 18.703125 54.6875 
L 33.40625 17.578125 
L 45.90625 54.6875 
L 63.375 54.6875 
L 40.375 -5.171875 
Q 36.921875 -14.3125 32.296875 -17.9375 
Q 27.6875 -21.578125 20.125 -21.578125 
L 10.015625 -21.578125 
L 10.015625 -10.109375 
L 15.484375 -10.109375 
Q 19.921875 -10.109375 21.9375 -8.6875 
Q 23.96875 -7.28125 25.09375 -3.609375 
L 25.59375 -2.09375 
z
" id="DejaVuSans-Bold-121"/>
       </defs>
       <use xlink:href="#DejaVuSans-Bold-77"/>
       <use x="99.511719" xlink:href="#DejaVuSans-Bold-97"/>
       <use x="163.867188" xlink:href="#DejaVuSans-Bold-121"/>
      </g>
     </g>
    </g>
    <g id="xtick_3">
     <g id="line2d_3">
      <g>
       <use style="fill:#555555;stroke:#555555;stroke-width:0.8;" x="488.272977" xlink:href="#mfeb0c25ff3" y="541.28"/>
      </g>
     </g>
     <g id="text_3">
      <!-- June -->
      <g style="fill:#555555;" transform="translate(470.95454 558.917812)scale(0.14 -0.14)">
       <defs>
        <path d="M 9.1875 72.90625 
L 27.984375 72.90625 
L 27.984375 7.078125 
Q 27.984375 -6.546875 20.578125 -13.28125 
Q 13.1875 -20.015625 -1.8125 -20.015625 
L -5.609375 -20.015625 
L -5.609375 -5.8125 
L -2.6875 -5.8125 
Q 3.171875 -5.8125 6.171875 -2.53125 
Q 9.1875 0.734375 9.1875 7.078125 
z
" id="DejaVuSans-Bold-74"/>
        <path d="M 7.8125 21.296875 
L 7.8125 54.6875 
L 25.390625 54.6875 
L 25.390625 49.21875 
Q 25.390625 44.78125 25.34375 38.0625 
Q 25.296875 31.34375 25.296875 29.109375 
Q 25.296875 22.515625 25.640625 19.609375 
Q 25.984375 16.703125 26.8125 15.375 
Q 27.875 13.671875 29.609375 12.734375 
Q 31.34375 11.8125 33.59375 11.8125 
Q 39.0625 11.8125 42.1875 16.015625 
Q 45.3125 20.21875 45.3125 27.6875 
L 45.3125 54.6875 
L 62.796875 54.6875 
L 62.796875 0 
L 45.3125 0 
L 45.3125 7.90625 
Q 41.359375 3.125 36.9375 0.84375 
Q 32.515625 -1.421875 27.203125 -1.421875 
Q 17.71875 -1.421875 12.765625 4.390625 
Q 7.8125 10.203125 7.8125 21.296875 
z
" id="DejaVuSans-Bold-117"/>
        <path d="M 63.375 33.296875 
L 63.375 0 
L 45.796875 0 
L 45.796875 5.421875 
L 45.796875 25.484375 
Q 45.796875 32.5625 45.484375 35.25 
Q 45.171875 37.9375 44.390625 39.203125 
Q 43.359375 40.921875 41.59375 41.875 
Q 39.84375 42.828125 37.59375 42.828125 
Q 32.125 42.828125 29 38.59375 
Q 25.875 34.375 25.875 26.90625 
L 25.875 0 
L 8.40625 0 
L 8.40625 54.6875 
L 25.875 54.6875 
L 25.875 46.6875 
Q 29.828125 51.46875 34.265625 53.734375 
Q 38.71875 56 44.09375 56 
Q 53.5625 56 58.46875 50.1875 
Q 63.375 44.390625 63.375 33.296875 
z
" id="DejaVuSans-Bold-110"/>
        <path d="M 62.984375 27.484375 
L 62.984375 22.515625 
L 22.125 22.515625 
Q 22.75 16.359375 26.5625 13.28125 
Q 30.375 10.203125 37.203125 10.203125 
Q 42.71875 10.203125 48.5 11.84375 
Q 54.296875 13.484375 60.40625 16.796875 
L 60.40625 3.328125 
Q 54.203125 0.984375 48 -0.21875 
Q 41.796875 -1.421875 35.59375 -1.421875 
Q 20.75 -1.421875 12.515625 6.125 
Q 4.296875 13.671875 4.296875 27.296875 
Q 4.296875 40.671875 12.375 48.328125 
Q 20.453125 56 34.625 56 
Q 47.515625 56 55.25 48.234375 
Q 62.984375 40.484375 62.984375 27.484375 
z
M 45.015625 33.296875 
Q 45.015625 38.28125 42.109375 41.328125 
Q 39.203125 44.390625 34.515625 44.390625 
Q 29.4375 44.390625 26.265625 41.53125 
Q 23.09375 38.671875 22.3125 33.296875 
z
" id="DejaVuSans-Bold-101"/>
       </defs>
       <use xlink:href="#DejaVuSans-Bold-74"/>
       <use x="37.207031" xlink:href="#DejaVuSans-Bold-117"/>
       <use x="108.398438" xlink:href="#DejaVuSans-Bold-110"/>
       <use x="179.589844" xlink:href="#DejaVuSans-Bold-101"/>
      </g>
     </g>
    </g>
    <g id="xtick_4">
     <g id="line2d_4">
      <g>
       <use style="fill:#555555;stroke:#555555;stroke-width:0.8;" x="637.056265" xlink:href="#mfeb0c25ff3" y="541.28"/>
      </g>
     </g>
     <g id="text_4">
      <!-- July -->
      <g style="fill:#555555;" transform="translate(622.506109 558.917812)scale(0.14 -0.14)">
       <use xlink:href="#DejaVuSans-Bold-74"/>
       <use x="37.207031" xlink:href="#DejaVuSans-Bold-117"/>
       <use x="108.398438" xlink:href="#DejaVuSans-Bold-108"/>
       <use x="142.675781" xlink:href="#DejaVuSans-Bold-121"/>
      </g>
     </g>
    </g>
    <g id="xtick_5">
     <g id="line2d_5">
      <g>
       <use style="fill:#555555;stroke:#555555;stroke-width:0.8;" x="790.798995" xlink:href="#mfeb0c25ff3" y="541.28"/>
      </g>
     </g>
     <g id="text_5">
      <!-- August -->
      <g style="fill:#555555;" transform="translate(762.893058 558.808437)scale(0.14 -0.14)">
       <defs>
        <path d="M 45.609375 9.28125 
Q 42 4.5 37.640625 2.25 
Q 33.296875 0 27.59375 0 
Q 17.578125 0 11.03125 7.875 
Q 4.5 15.765625 4.5 27.984375 
Q 4.5 40.234375 11.03125 48.0625 
Q 17.578125 55.90625 27.59375 55.90625 
Q 33.296875 55.90625 37.640625 53.65625 
Q 42 51.421875 45.609375 46.578125 
L 45.609375 54.6875 
L 63.1875 54.6875 
L 63.1875 5.515625 
Q 63.1875 -7.671875 54.859375 -14.625 
Q 46.53125 -21.578125 30.71875 -21.578125 
Q 25.59375 -21.578125 20.796875 -20.796875 
Q 16.015625 -20.015625 11.1875 -18.40625 
L 11.1875 -4.78125 
Q 15.765625 -7.421875 20.15625 -8.71875 
Q 24.5625 -10.015625 29 -10.015625 
Q 37.59375 -10.015625 41.59375 -6.25 
Q 45.609375 -2.484375 45.609375 5.515625 
z
M 34.078125 43.3125 
Q 28.65625 43.3125 25.625 39.296875 
Q 22.609375 35.296875 22.609375 27.984375 
Q 22.609375 20.453125 25.53125 16.578125 
Q 28.46875 12.703125 34.078125 12.703125 
Q 39.546875 12.703125 42.578125 16.703125 
Q 45.609375 20.703125 45.609375 27.984375 
Q 45.609375 35.296875 42.578125 39.296875 
Q 39.546875 43.3125 34.078125 43.3125 
z
" id="DejaVuSans-Bold-103"/>
        <path d="M 51.125 52.984375 
L 51.125 39.703125 
Q 45.515625 42.046875 40.28125 43.21875 
Q 35.0625 44.390625 30.421875 44.390625 
Q 25.4375 44.390625 23.015625 43.140625 
Q 20.609375 41.890625 20.609375 39.3125 
Q 20.609375 37.203125 22.4375 36.078125 
Q 24.265625 34.96875 29 34.421875 
L 32.078125 33.984375 
Q 45.515625 32.28125 50.140625 28.375 
Q 54.78125 24.46875 54.78125 16.109375 
Q 54.78125 7.375 48.328125 2.96875 
Q 41.890625 -1.421875 29.109375 -1.421875 
Q 23.6875 -1.421875 17.890625 -0.5625 
Q 12.109375 0.296875 6 2 
L 6 15.28125 
Q 11.234375 12.75 16.71875 11.46875 
Q 22.21875 10.203125 27.875 10.203125 
Q 33.015625 10.203125 35.59375 11.609375 
Q 38.1875 13.03125 38.1875 15.828125 
Q 38.1875 18.171875 36.40625 19.3125 
Q 34.625 20.453125 29.296875 21.09375 
L 26.21875 21.484375 
Q 14.546875 22.953125 9.859375 26.90625 
Q 5.171875 30.859375 5.171875 38.921875 
Q 5.171875 47.609375 11.125 51.796875 
Q 17.09375 56 29.390625 56 
Q 34.234375 56 39.546875 55.265625 
Q 44.875 54.546875 51.125 52.984375 
z
" id="DejaVuSans-Bold-115"/>
        <path d="M 27.484375 70.21875 
L 27.484375 54.6875 
L 45.515625 54.6875 
L 45.515625 42.1875 
L 27.484375 42.1875 
L 27.484375 19 
Q 27.484375 15.1875 29 13.84375 
Q 30.515625 12.5 35.015625 12.5 
L 44 12.5 
L 44 0 
L 29 0 
Q 18.65625 0 14.328125 4.3125 
Q 10.015625 8.640625 10.015625 19 
L 10.015625 42.1875 
L 1.3125 42.1875 
L 1.3125 54.6875 
L 10.015625 54.6875 
L 10.015625 70.21875 
z
" id="DejaVuSans-Bold-116"/>
       </defs>
       <use xlink:href="#DejaVuSans-Bold-65"/>
       <use x="77.392578" xlink:href="#DejaVuSans-Bold-117"/>
       <use x="148.583984" xlink:href="#DejaVuSans-Bold-103"/>
       <use x="220.166016" xlink:href="#DejaVuSans-Bold-117"/>
       <use x="291.357422" xlink:href="#DejaVuSans-Bold-115"/>
       <use x="350.878906" xlink:href="#DejaVuSans-Bold-116"/>
      </g>
     </g>
    </g>
    <g id="xtick_6">
     <g id="line2d_6">
      <g>
       <use style="fill:#555555;stroke:#555555;stroke-width:0.8;" x="944.541726" xlink:href="#mfeb0c25ff3" y="541.28"/>
      </g>
     </g>
     <g id="text_6">
      <!-- September -->
      <g style="fill:#555555;" transform="translate(901.143914 558.917812)scale(0.14 -0.14)">
       <defs>
        <path d="M 59.90625 70.609375 
L 59.90625 55.171875 
Q 53.90625 57.859375 48.1875 59.21875 
Q 42.484375 60.59375 37.40625 60.59375 
Q 30.671875 60.59375 27.4375 58.734375 
Q 24.21875 56.890625 24.21875 52.984375 
Q 24.21875 50.046875 26.390625 48.40625 
Q 28.5625 46.78125 34.28125 45.609375 
L 42.28125 44 
Q 54.4375 41.546875 59.5625 36.5625 
Q 64.703125 31.59375 64.703125 22.40625 
Q 64.703125 10.359375 57.546875 4.46875 
Q 50.390625 -1.421875 35.6875 -1.421875 
Q 28.765625 -1.421875 21.78125 -0.09375 
Q 14.796875 1.21875 7.8125 3.8125 
L 7.8125 19.671875 
Q 14.796875 15.96875 21.3125 14.078125 
Q 27.828125 12.203125 33.890625 12.203125 
Q 40.046875 12.203125 43.3125 14.25 
Q 46.578125 16.3125 46.578125 20.125 
Q 46.578125 23.53125 44.359375 25.390625 
Q 42.140625 27.25 35.5 28.71875 
L 28.21875 30.328125 
Q 17.28125 32.671875 12.21875 37.796875 
Q 7.171875 42.921875 7.171875 51.609375 
Q 7.171875 62.5 14.203125 68.359375 
Q 21.234375 74.21875 34.421875 74.21875 
Q 40.4375 74.21875 46.78125 73.3125 
Q 53.125 72.40625 59.90625 70.609375 
z
" id="DejaVuSans-Bold-83"/>
        <path d="M 59.078125 45.609375 
Q 62.40625 50.6875 66.96875 53.34375 
Q 71.53125 56 77 56 
Q 86.421875 56 91.359375 50.1875 
Q 96.296875 44.390625 96.296875 33.296875 
L 96.296875 0 
L 78.71875 0 
L 78.71875 28.515625 
Q 78.765625 29.15625 78.78125 29.828125 
Q 78.8125 30.515625 78.8125 31.78125 
Q 78.8125 37.59375 77.09375 40.203125 
Q 75.390625 42.828125 71.578125 42.828125 
Q 66.609375 42.828125 63.890625 38.71875 
Q 61.1875 34.625 61.078125 26.859375 
L 61.078125 0 
L 43.5 0 
L 43.5 28.515625 
Q 43.5 37.59375 41.9375 40.203125 
Q 40.375 42.828125 36.375 42.828125 
Q 31.34375 42.828125 28.609375 38.703125 
Q 25.875 34.578125 25.875 26.90625 
L 25.875 0 
L 8.296875 0 
L 8.296875 54.6875 
L 25.875 54.6875 
L 25.875 46.6875 
Q 29.109375 51.3125 33.28125 53.65625 
Q 37.453125 56 42.484375 56 
Q 48.140625 56 52.484375 53.265625 
Q 56.84375 50.53125 59.078125 45.609375 
z
" id="DejaVuSans-Bold-109"/>
        <path d="M 37.5 11.28125 
Q 43.109375 11.28125 46.0625 15.375 
Q 49.03125 19.484375 49.03125 27.296875 
Q 49.03125 35.109375 46.0625 39.203125 
Q 43.109375 43.3125 37.5 43.3125 
Q 31.890625 43.3125 28.875 39.1875 
Q 25.875 35.0625 25.875 27.296875 
Q 25.875 19.53125 28.875 15.40625 
Q 31.890625 11.28125 37.5 11.28125 
z
M 25.875 46.6875 
Q 29.5 51.46875 33.890625 53.734375 
Q 38.28125 56 44 56 
Q 54.109375 56 60.59375 47.96875 
Q 67.09375 39.9375 67.09375 27.296875 
Q 67.09375 14.65625 60.59375 6.609375 
Q 54.109375 -1.421875 44 -1.421875 
Q 38.28125 -1.421875 33.890625 0.84375 
Q 29.5 3.125 25.875 7.90625 
L 25.875 0 
L 8.40625 0 
L 8.40625 75.984375 
L 25.875 75.984375 
z
" id="DejaVuSans-Bold-98"/>
       </defs>
       <use xlink:href="#DejaVuSans-Bold-83"/>
       <use x="72.021484" xlink:href="#DejaVuSans-Bold-101"/>
       <use x="139.84375" xlink:href="#DejaVuSans-Bold-112"/>
       <use x="211.425781" xlink:href="#DejaVuSans-Bold-116"/>
       <use x="259.228516" xlink:href="#DejaVuSans-Bold-101"/>
       <use x="327.050781" xlink:href="#DejaVuSans-Bold-109"/>
       <use x="431.25" xlink:href="#DejaVuSans-Bold-98"/>
       <use x="502.832031" xlink:href="#DejaVuSans-Bold-101"/>
       <use x="570.654297" xlink:href="#DejaVuSans-Bold-114"/>
      </g>
     </g>
    </g>
    <g id="xtick_7">
     <g id="line2d_7">
      <g>
       <use style="fill:#555555;stroke:#555555;stroke-width:0.8;" x="1093.325014" xlink:href="#mfeb0c25ff3" y="541.28"/>
      </g>
     </g>
     <g id="text_7">
      <!-- October -->
      <g style="fill:#555555;" transform="translate(1061.85892 558.917812)scale(0.14 -0.14)">
       <defs>
        <path d="M 42.484375 60.59375 
Q 33.890625 60.59375 29.15625 54.25 
Q 24.421875 47.90625 24.421875 36.375 
Q 24.421875 24.90625 29.15625 18.546875 
Q 33.890625 12.203125 42.484375 12.203125 
Q 51.125 12.203125 55.859375 18.546875 
Q 60.59375 24.90625 60.59375 36.375 
Q 60.59375 47.90625 55.859375 54.25 
Q 51.125 60.59375 42.484375 60.59375 
z
M 42.484375 74.21875 
Q 60.0625 74.21875 70.015625 64.15625 
Q 79.984375 54.109375 79.984375 36.375 
Q 79.984375 18.703125 70.015625 8.640625 
Q 60.0625 -1.421875 42.484375 -1.421875 
Q 24.953125 -1.421875 14.96875 8.640625 
Q 4.984375 18.703125 4.984375 36.375 
Q 4.984375 54.109375 14.96875 64.15625 
Q 24.953125 74.21875 42.484375 74.21875 
z
" id="DejaVuSans-Bold-79"/>
        <path d="M 52.59375 52.984375 
L 52.59375 38.71875 
Q 49.03125 41.15625 45.4375 42.328125 
Q 41.84375 43.5 37.984375 43.5 
Q 30.671875 43.5 26.59375 39.234375 
Q 22.515625 34.96875 22.515625 27.296875 
Q 22.515625 19.625 26.59375 15.34375 
Q 30.671875 11.078125 37.984375 11.078125 
Q 42.09375 11.078125 45.78125 12.296875 
Q 49.46875 13.53125 52.59375 15.921875 
L 52.59375 1.609375 
Q 48.484375 0.09375 44.265625 -0.65625 
Q 40.046875 -1.421875 35.796875 -1.421875 
Q 21 -1.421875 12.640625 6.171875 
Q 4.296875 13.765625 4.296875 27.296875 
Q 4.296875 40.828125 12.640625 48.40625 
Q 21 56 35.796875 56 
Q 40.09375 56 44.265625 55.25 
Q 48.4375 54.5 52.59375 52.984375 
z
" id="DejaVuSans-Bold-99"/>
        <path d="M 34.421875 43.5 
Q 28.609375 43.5 25.5625 39.328125 
Q 22.515625 35.15625 22.515625 27.296875 
Q 22.515625 19.4375 25.5625 15.25 
Q 28.609375 11.078125 34.421875 11.078125 
Q 40.140625 11.078125 43.15625 15.25 
Q 46.1875 19.4375 46.1875 27.296875 
Q 46.1875 35.15625 43.15625 39.328125 
Q 40.140625 43.5 34.421875 43.5 
z
M 34.421875 56 
Q 48.53125 56 56.46875 48.375 
Q 64.40625 40.765625 64.40625 27.296875 
Q 64.40625 13.8125 56.46875 6.1875 
Q 48.53125 -1.421875 34.421875 -1.421875 
Q 20.265625 -1.421875 12.28125 6.1875 
Q 4.296875 13.8125 4.296875 27.296875 
Q 4.296875 40.765625 12.28125 48.375 
Q 20.265625 56 34.421875 56 
z
" id="DejaVuSans-Bold-111"/>
       </defs>
       <use xlink:href="#DejaVuSans-Bold-79"/>
       <use x="85.009766" xlink:href="#DejaVuSans-Bold-99"/>
       <use x="144.287109" xlink:href="#DejaVuSans-Bold-116"/>
       <use x="192.089844" xlink:href="#DejaVuSans-Bold-111"/>
       <use x="260.791016" xlink:href="#DejaVuSans-Bold-98"/>
       <use x="332.373047" xlink:href="#DejaVuSans-Bold-101"/>
       <use x="400.195312" xlink:href="#DejaVuSans-Bold-114"/>
      </g>
     </g>
    </g>
   </g>
   <g id="matplotlib.axis_2">
    <g id="ytick_1">
     <g id="line2d_8">
      <defs>
       <path d="M 0 0 
L -3.5 0 
" id="md61ea229e7" style="stroke:#555555;stroke-width:0.8;"/>
      </defs>
      <g>
       <use style="fill:#555555;stroke:#555555;stroke-width:0.8;" x="51.842" xlink:href="#md61ea229e7" y="525.082581"/>
      </g>
     </g>
     <g id="text_8">
      <!-- 0 -->
      <g style="fill:#555555;" transform="translate(35.101062 530.401487)scale(0.14 -0.14)">
       <defs>
        <path d="M 46 36.53125 
Q 46 50.203125 43.4375 55.78125 
Q 40.875 61.375 34.8125 61.375 
Q 28.765625 61.375 26.171875 55.78125 
Q 23.578125 50.203125 23.578125 36.53125 
Q 23.578125 22.703125 26.171875 17.03125 
Q 28.765625 11.375 34.8125 11.375 
Q 40.828125 11.375 43.40625 17.03125 
Q 46 22.703125 46 36.53125 
z
M 64.796875 36.375 
Q 64.796875 18.265625 56.984375 8.421875 
Q 49.171875 -1.421875 34.8125 -1.421875 
Q 20.40625 -1.421875 12.59375 8.421875 
Q 4.78125 18.265625 4.78125 36.375 
Q 4.78125 54.546875 12.59375 64.375 
Q 20.40625 74.21875 34.8125 74.21875 
Q 49.171875 74.21875 56.984375 64.375 
Q 64.796875 54.546875 64.796875 36.375 
z
" id="DejaVuSans-Bold-48"/>
       </defs>
       <use xlink:href="#DejaVuSans-Bold-48"/>
      </g>
     </g>
    </g>
    <g id="ytick_2">
     <g id="line2d_9">
      <g>
       <use style="fill:#555555;stroke:#555555;stroke-width:0.8;" x="51.842" xlink:href="#md61ea229e7" y="363.108387"/>
      </g>
     </g>
     <g id="text_9">
      <!-- 1 -->
      <g style="fill:#555555;" transform="translate(35.101062 368.427293)scale(0.14 -0.14)">
       <defs>
        <path d="M 11.71875 12.984375 
L 28.328125 12.984375 
L 28.328125 60.109375 
L 11.28125 56.59375 
L 11.28125 69.390625 
L 28.21875 72.90625 
L 46.09375 72.90625 
L 46.09375 12.984375 
L 62.703125 12.984375 
L 62.703125 0 
L 11.71875 0 
z
" id="DejaVuSans-Bold-49"/>
       </defs>
       <use xlink:href="#DejaVuSans-Bold-49"/>
      </g>
     </g>
    </g>
    <g id="ytick_3">
     <g id="line2d_10">
      <g>
       <use style="fill:#555555;stroke:#555555;stroke-width:0.8;" x="51.842" xlink:href="#md61ea229e7" y="201.134194"/>
      </g>
     </g>
     <g id="text_10">
      <!-- 2 -->
      <g style="fill:#555555;" transform="translate(35.101062 206.4531)scale(0.14 -0.14)">
       <defs>
        <path d="M 28.8125 13.8125 
L 60.890625 13.8125 
L 60.890625 0 
L 7.90625 0 
L 7.90625 13.8125 
L 34.515625 37.3125 
Q 38.09375 40.53125 39.796875 43.609375 
Q 41.5 46.6875 41.5 50 
Q 41.5 55.125 38.0625 58.25 
Q 34.625 61.375 28.90625 61.375 
Q 24.515625 61.375 19.28125 59.5 
Q 14.0625 57.625 8.109375 53.90625 
L 8.109375 69.921875 
Q 14.453125 72.015625 20.65625 73.109375 
Q 26.859375 74.21875 32.8125 74.21875 
Q 45.90625 74.21875 53.15625 68.453125 
Q 60.40625 62.703125 60.40625 52.390625 
Q 60.40625 46.4375 57.328125 41.28125 
Q 54.25 36.140625 44.390625 27.484375 
z
" id="DejaVuSans-Bold-50"/>
       </defs>
       <use xlink:href="#DejaVuSans-Bold-50"/>
      </g>
     </g>
    </g>
    <g id="ytick_4">
     <g id="line2d_11">
      <g>
       <use style="fill:#555555;stroke:#555555;stroke-width:0.8;" x="51.842" xlink:href="#md61ea229e7" y="39.16"/>
      </g>
     </g>
     <g id="text_11">
      <!-- 3 -->
      <g style="fill:#555555;" transform="translate(35.101062 44.478906)scale(0.14 -0.14)">
       <defs>
        <path d="M 46.578125 39.3125 
Q 53.953125 37.40625 57.78125 32.6875 
Q 61.625 27.984375 61.625 20.703125 
Q 61.625 9.859375 53.3125 4.21875 
Q 45.015625 -1.421875 29.109375 -1.421875 
Q 23.484375 -1.421875 17.84375 -0.515625 
Q 12.203125 0.390625 6.6875 2.203125 
L 6.6875 16.703125 
Q 11.96875 14.0625 17.15625 12.71875 
Q 22.359375 11.375 27.390625 11.375 
Q 34.859375 11.375 38.84375 13.953125 
Q 42.828125 16.546875 42.828125 21.390625 
Q 42.828125 26.375 38.75 28.9375 
Q 34.671875 31.5 26.703125 31.5 
L 19.1875 31.5 
L 19.1875 43.609375 
L 27.09375 43.609375 
Q 34.1875 43.609375 37.640625 45.828125 
Q 41.109375 48.046875 41.109375 52.59375 
Q 41.109375 56.78125 37.734375 59.078125 
Q 34.375 61.375 28.21875 61.375 
Q 23.6875 61.375 19.046875 60.34375 
Q 14.40625 59.328125 9.8125 57.328125 
L 9.8125 71.09375 
Q 15.375 72.65625 20.84375 73.4375 
Q 26.3125 74.21875 31.59375 74.21875 
Q 45.796875 74.21875 52.84375 69.546875 
Q 59.90625 64.890625 59.90625 55.515625 
Q 59.90625 49.125 56.53125 45.046875 
Q 53.171875 40.96875 46.578125 39.3125 
z
" id="DejaVuSans-Bold-51"/>
       </defs>
       <use xlink:href="#DejaVuSans-Bold-51"/>
      </g>
     </g>
    </g>
    <g id="text_12">
     <!-- $R_{t}$ -->
     <g style="fill:#555555;" transform="translate(27.773562 299.34)rotate(-90)scale(0.16 -0.16)">
      <defs>
       <path d="M 36.71875 40.578125 
Q 43.109375 40.578125 46.40625 43.546875 
Q 49.703125 46.53125 49.703125 52.296875 
Q 49.703125 55.90625 47.4375 57.59375 
Q 45.171875 59.28125 40.28125 59.28125 
L 32.515625 59.28125 
L 28.8125 40.578125 
z
M 26.3125 27.59375 
L 20.90625 0 
L 2.09375 0 
L 16.3125 72.90625 
L 44.09375 72.90625 
Q 56.109375 72.90625 62.296875 68.40625 
Q 68.5 63.921875 68.5 55.171875 
Q 68.5 46.34375 63.609375 40.625 
Q 58.734375 34.90625 50.390625 34.078125 
Q 54.203125 33.296875 56.734375 30.1875 
Q 59.28125 27.09375 61.1875 20.703125 
L 67.390625 0 
L 48.6875 0 
L 43.21875 18.109375 
Q 41.546875 23.53125 39.171875 25.5625 
Q 36.8125 27.59375 32.328125 27.59375 
z
" id="DejaVuSans-BoldOblique-82"/>
       <path d="M 35.984375 70.21875 
L 33.015625 54.6875 
L 50.875 54.6875 
L 48.390625 42.1875 
L 30.515625 42.1875 
L 26.03125 19.046875 
Q 25.828125 18.265625 25.75 17.71875 
Q 25.6875 17.1875 25.6875 16.703125 
Q 25.6875 14.453125 27.171875 13.46875 
Q 28.65625 12.5 32.171875 12.5 
L 41.21875 12.5 
L 38.71875 0 
L 24.03125 0 
Q 16.109375 0 11.953125 3.3125 
Q 7.8125 6.640625 7.8125 12.890625 
Q 7.8125 14.265625 7.953125 15.828125 
Q 8.109375 17.390625 8.40625 19 
L 12.890625 42.1875 
L 4.296875 42.1875 
L 6.6875 54.6875 
L 15.375 54.6875 
L 18.40625 70.21875 
z
" id="DejaVuSans-BoldOblique-116"/>
      </defs>
      <use transform="translate(0 0.09375)" xlink:href="#DejaVuSans-BoldOblique-82"/>
      <use transform="translate(77.001953 -16.3125)scale(0.7)" xlink:href="#DejaVuSans-BoldOblique-116"/>
     </g>
    </g>
   </g>
   <g id="line2d_12">
    <path clip-path="url(#p6045c29ad7)" d="M 51.842 363.108387 
L 1137.96 363.108387 
" style="fill:none;stroke:#ff0000;stroke-dasharray:2,3.3;stroke-dashoffset:0;stroke-width:2;"/>
   </g>
   <g id="line2d_13">
    <path clip-path="url(#p6045c29ad7)" d="M 51.842 257.825161 
L 56.801443 218.951355 
L 61.760886 188.176258 
L 71.679772 152.541935 
L 76.639215 159.020903 
L 81.598658 162.260387 
L 86.5581 162.260387 
L 91.517543 160.640645 
L 96.476986 162.260387 
L 101.436429 162.260387 
L 111.355315 165.499871 
L 116.314758 168.739355 
L 121.274201 175.218323 
L 126.233644 184.936774 
L 136.15253 207.613161 
L 141.111973 215.711871 
L 146.071416 222.190839 
L 151.030858 231.90929 
L 155.990301 246.486968 
L 160.949744 265.923871 
L 170.86863 314.516129 
L 175.828073 335.572774 
L 180.787516 350.150452 
L 185.746959 356.629419 
L 195.665845 359.868903 
L 205.584731 359.868903 
L 210.544174 356.629419 
L 215.503616 350.150452 
L 220.463059 342.051742 
L 225.422502 338.812258 
L 230.381945 340.432 
L 235.341388 350.150452 
L 240.300831 364.728129 
L 245.260274 377.686065 
L 250.219717 384.165032 
L 255.17916 382.54529 
L 265.098046 376.066323 
L 270.057489 379.305806 
L 275.016932 387.404516 
L 284.935817 410.080903 
L 289.89526 416.559871 
L 299.814146 432.75729 
L 309.733032 458.673161 
L 314.692475 466.771871 
L 319.651918 468.391613 
L 324.611361 461.912645 
L 329.570804 450.574452 
L 334.530247 440.856 
L 339.489689 434.377032 
L 344.449132 432.75729 
L 354.368018 426.278323 
L 364.286904 416.559871 
L 369.246347 414.940129 
L 374.20579 416.559871 
L 379.165233 421.419097 
L 384.124676 424.658581 
L 389.084119 426.278323 
L 394.043562 424.658581 
L 408.92189 424.658581 
L 413.881333 423.038839 
L 418.840776 418.179613 
L 423.800219 408.461161 
L 428.759662 395.503226 
L 433.719105 384.165032 
L 438.678548 377.686065 
L 443.637991 374.446581 
L 448.597434 374.446581 
L 458.51632 377.686065 
L 473.394648 387.404516 
L 478.354091 392.263742 
L 483.313534 395.503226 
L 488.272977 393.883484 
L 493.23242 385.784774 
L 498.191863 374.446581 
L 503.151306 359.868903 
L 508.110749 348.53071 
L 513.070192 340.432 
L 518.029635 340.432 
L 522.989078 343.671484 
L 532.907963 356.629419 
L 542.826849 366.347871 
L 547.786292 372.826839 
L 557.705178 389.024258 
L 572.583507 418.179613 
L 577.54295 424.658581 
L 582.502393 429.517806 
L 587.461836 431.137548 
L 592.421279 427.898065 
L 597.380721 423.038839 
L 602.340164 416.559871 
L 607.299607 411.700645 
L 612.25905 408.461161 
L 617.218493 406.841419 
L 622.177936 408.461161 
L 632.096822 408.461161 
L 646.975151 403.601935 
L 651.934594 405.221677 
L 656.894037 408.461161 
L 661.853479 410.080903 
L 666.812922 408.461161 
L 671.772365 401.982194 
L 676.731808 392.263742 
L 681.691251 380.925548 
L 691.610137 355.009677 
L 701.529023 335.572774 
L 711.447909 312.896387 
L 721.366795 293.459484 
L 726.326237 286.980516 
L 731.28568 285.360774 
L 736.245123 288.600258 
L 741.204566 293.459484 
L 746.164009 299.938452 
L 751.123452 303.177935 
L 756.082895 303.177935 
L 761.042338 298.31871 
L 766.001781 290.22 
L 775.920667 270.783097 
L 780.88011 264.304129 
L 785.839553 262.684387 
L 790.798995 264.304129 
L 795.758438 267.543613 
L 800.717881 272.402839 
L 805.677324 278.881806 
L 810.636767 283.741032 
L 815.59621 286.980516 
L 820.555653 291.839742 
L 825.515096 295.079226 
L 835.433982 304.797677 
L 840.393425 314.516129 
L 845.352868 327.474065 
L 850.312311 342.051742 
L 855.271753 358.249161 
L 860.231196 372.826839 
L 865.190639 382.54529 
L 870.150082 387.404516 
L 875.109525 387.404516 
L 880.068968 385.784774 
L 894.947297 376.066323 
L 899.90674 374.446581 
L 904.866183 371.207097 
L 914.785068 367.967613 
L 919.744511 364.728129 
L 924.703954 363.108387 
L 934.62284 353.389935 
L 939.582283 343.671484 
L 949.501169 320.995097 
L 959.420055 301.558194 
L 964.379498 295.079226 
L 969.338941 290.22 
L 974.298384 288.600258 
L 979.257826 288.600258 
L 984.217269 290.22 
L 989.176712 293.459484 
L 999.095598 296.698968 
L 1004.055041 295.079226 
L 1009.014484 291.839742 
L 1013.973927 286.980516 
L 1018.93337 283.741032 
L 1023.892813 282.12129 
L 1028.852256 283.741032 
L 1033.811699 288.600258 
L 1048.690027 298.31871 
L 1058.608913 301.558194 
L 1068.527799 308.037161 
L 1073.487242 312.896387 
L 1078.446685 314.516129 
L 1083.406128 312.896387 
L 1093.325014 306.417419 
L 1108.203342 291.839742 
L 1113.162785 288.600258 
L 1118.122228 288.600258 
L 1128.041114 291.839742 
L 1133.000557 295.079226 
L 1137.96 299.938452 
L 1137.96 299.938452 
" style="fill:none;stroke:#000000;stroke-linecap:square;"/>
    <defs>
     <path d="M 0 2.5 
C 0.663008 2.5 1.29895 2.236584 1.767767 1.767767 
C 2.236584 1.29895 2.5 0.663008 2.5 0 
C 2.5 -0.663008 2.236584 -1.29895 1.767767 -1.767767 
C 1.29895 -2.236584 0.663008 -2.5 0 -2.5 
C -0.663008 -2.5 -1.29895 -2.236584 -1.767767 -1.767767 
C -2.236584 -1.29895 -2.5 -0.663008 -2.5 0 
C -2.5 0.663008 -2.236584 1.29895 -1.767767 1.767767 
C -1.29895 2.236584 -0.663008 2.5 0 2.5 
z
" id="mdeebd4f274" style="stroke:#000000;"/>
    </defs>
    <g clip-path="url(#p6045c29ad7)">
     <use style="fill:#ffffff;stroke:#000000;" x="51.842" xlink:href="#mdeebd4f274" y="257.825161"/>
     <use style="fill:#ffffff;stroke:#000000;" x="61.760886" xlink:href="#mdeebd4f274" y="188.176258"/>
     <use style="fill:#ffffff;stroke:#000000;" x="71.679772" xlink:href="#mdeebd4f274" y="152.541935"/>
     <use style="fill:#ffffff;stroke:#000000;" x="81.598658" xlink:href="#mdeebd4f274" y="162.260387"/>
     <use style="fill:#ffffff;stroke:#000000;" x="91.517543" xlink:href="#mdeebd4f274" y="160.640645"/>
     <use style="fill:#ffffff;stroke:#000000;" x="101.436429" xlink:href="#mdeebd4f274" y="162.260387"/>
     <use style="fill:#ffffff;stroke:#000000;" x="111.355315" xlink:href="#mdeebd4f274" y="165.499871"/>
     <use style="fill:#ffffff;stroke:#000000;" x="121.274201" xlink:href="#mdeebd4f274" y="175.218323"/>
     <use style="fill:#ffffff;stroke:#000000;" x="131.193087" xlink:href="#mdeebd4f274" y="196.274968"/>
     <use style="fill:#ffffff;stroke:#000000;" x="141.111973" xlink:href="#mdeebd4f274" y="215.711871"/>
     <use style="fill:#ffffff;stroke:#000000;" x="151.030858" xlink:href="#mdeebd4f274" y="231.90929"/>
     <use style="fill:#ffffff;stroke:#000000;" x="160.949744" xlink:href="#mdeebd4f274" y="265.923871"/>
     <use style="fill:#ffffff;stroke:#000000;" x="170.86863" xlink:href="#mdeebd4f274" y="314.516129"/>
     <use style="fill:#ffffff;stroke:#000000;" x="180.787516" xlink:href="#mdeebd4f274" y="350.150452"/>
     <use style="fill:#ffffff;stroke:#000000;" x="190.706402" xlink:href="#mdeebd4f274" y="358.249161"/>
     <use style="fill:#ffffff;stroke:#000000;" x="200.625288" xlink:href="#mdeebd4f274" y="359.868903"/>
     <use style="fill:#ffffff;stroke:#000000;" x="210.544174" xlink:href="#mdeebd4f274" y="356.629419"/>
     <use style="fill:#ffffff;stroke:#000000;" x="220.463059" xlink:href="#mdeebd4f274" y="342.051742"/>
     <use style="fill:#ffffff;stroke:#000000;" x="230.381945" xlink:href="#mdeebd4f274" y="340.432"/>
     <use style="fill:#ffffff;stroke:#000000;" x="240.300831" xlink:href="#mdeebd4f274" y="364.728129"/>
     <use style="fill:#ffffff;stroke:#000000;" x="250.219717" xlink:href="#mdeebd4f274" y="384.165032"/>
     <use style="fill:#ffffff;stroke:#000000;" x="260.138603" xlink:href="#mdeebd4f274" y="379.305806"/>
     <use style="fill:#ffffff;stroke:#000000;" x="270.057489" xlink:href="#mdeebd4f274" y="379.305806"/>
     <use style="fill:#ffffff;stroke:#000000;" x="279.976374" xlink:href="#mdeebd4f274" y="398.74271"/>
     <use style="fill:#ffffff;stroke:#000000;" x="289.89526" xlink:href="#mdeebd4f274" y="416.559871"/>
     <use style="fill:#ffffff;stroke:#000000;" x="299.814146" xlink:href="#mdeebd4f274" y="432.75729"/>
     <use style="fill:#ffffff;stroke:#000000;" x="309.733032" xlink:href="#mdeebd4f274" y="458.673161"/>
     <use style="fill:#ffffff;stroke:#000000;" x="319.651918" xlink:href="#mdeebd4f274" y="468.391613"/>
     <use style="fill:#ffffff;stroke:#000000;" x="329.570804" xlink:href="#mdeebd4f274" y="450.574452"/>
     <use style="fill:#ffffff;stroke:#000000;" x="339.489689" xlink:href="#mdeebd4f274" y="434.377032"/>
     <use style="fill:#ffffff;stroke:#000000;" x="349.408575" xlink:href="#mdeebd4f274" y="429.517806"/>
     <use style="fill:#ffffff;stroke:#000000;" x="359.327461" xlink:href="#mdeebd4f274" y="421.419097"/>
     <use style="fill:#ffffff;stroke:#000000;" x="369.246347" xlink:href="#mdeebd4f274" y="414.940129"/>
     <use style="fill:#ffffff;stroke:#000000;" x="379.165233" xlink:href="#mdeebd4f274" y="421.419097"/>
     <use style="fill:#ffffff;stroke:#000000;" x="389.084119" xlink:href="#mdeebd4f274" y="426.278323"/>
     <use style="fill:#ffffff;stroke:#000000;" x="399.003005" xlink:href="#mdeebd4f274" y="424.658581"/>
     <use style="fill:#ffffff;stroke:#000000;" x="408.92189" xlink:href="#mdeebd4f274" y="424.658581"/>
     <use style="fill:#ffffff;stroke:#000000;" x="418.840776" xlink:href="#mdeebd4f274" y="418.179613"/>
     <use style="fill:#ffffff;stroke:#000000;" x="428.759662" xlink:href="#mdeebd4f274" y="395.503226"/>
     <use style="fill:#ffffff;stroke:#000000;" x="438.678548" xlink:href="#mdeebd4f274" y="377.686065"/>
     <use style="fill:#ffffff;stroke:#000000;" x="448.597434" xlink:href="#mdeebd4f274" y="374.446581"/>
     <use style="fill:#ffffff;stroke:#000000;" x="458.51632" xlink:href="#mdeebd4f274" y="377.686065"/>
     <use style="fill:#ffffff;stroke:#000000;" x="468.435205" xlink:href="#mdeebd4f274" y="384.165032"/>
     <use style="fill:#ffffff;stroke:#000000;" x="478.354091" xlink:href="#mdeebd4f274" y="392.263742"/>
     <use style="fill:#ffffff;stroke:#000000;" x="488.272977" xlink:href="#mdeebd4f274" y="393.883484"/>
     <use style="fill:#ffffff;stroke:#000000;" x="498.191863" xlink:href="#mdeebd4f274" y="374.446581"/>
     <use style="fill:#ffffff;stroke:#000000;" x="508.110749" xlink:href="#mdeebd4f274" y="348.53071"/>
     <use style="fill:#ffffff;stroke:#000000;" x="518.029635" xlink:href="#mdeebd4f274" y="340.432"/>
     <use style="fill:#ffffff;stroke:#000000;" x="527.948521" xlink:href="#mdeebd4f274" y="350.150452"/>
     <use style="fill:#ffffff;stroke:#000000;" x="537.867406" xlink:href="#mdeebd4f274" y="361.488645"/>
     <use style="fill:#ffffff;stroke:#000000;" x="547.786292" xlink:href="#mdeebd4f274" y="372.826839"/>
     <use style="fill:#ffffff;stroke:#000000;" x="557.705178" xlink:href="#mdeebd4f274" y="389.024258"/>
     <use style="fill:#ffffff;stroke:#000000;" x="567.624064" xlink:href="#mdeebd4f274" y="408.461161"/>
     <use style="fill:#ffffff;stroke:#000000;" x="577.54295" xlink:href="#mdeebd4f274" y="424.658581"/>
     <use style="fill:#ffffff;stroke:#000000;" x="587.461836" xlink:href="#mdeebd4f274" y="431.137548"/>
     <use style="fill:#ffffff;stroke:#000000;" x="597.380721" xlink:href="#mdeebd4f274" y="423.038839"/>
     <use style="fill:#ffffff;stroke:#000000;" x="607.299607" xlink:href="#mdeebd4f274" y="411.700645"/>
     <use style="fill:#ffffff;stroke:#000000;" x="617.218493" xlink:href="#mdeebd4f274" y="406.841419"/>
     <use style="fill:#ffffff;stroke:#000000;" x="627.137379" xlink:href="#mdeebd4f274" y="408.461161"/>
     <use style="fill:#ffffff;stroke:#000000;" x="637.056265" xlink:href="#mdeebd4f274" y="406.841419"/>
     <use style="fill:#ffffff;stroke:#000000;" x="646.975151" xlink:href="#mdeebd4f274" y="403.601935"/>
     <use style="fill:#ffffff;stroke:#000000;" x="656.894037" xlink:href="#mdeebd4f274" y="408.461161"/>
     <use style="fill:#ffffff;stroke:#000000;" x="666.812922" xlink:href="#mdeebd4f274" y="408.461161"/>
     <use style="fill:#ffffff;stroke:#000000;" x="676.731808" xlink:href="#mdeebd4f274" y="392.263742"/>
     <use style="fill:#ffffff;stroke:#000000;" x="686.650694" xlink:href="#mdeebd4f274" y="367.967613"/>
     <use style="fill:#ffffff;stroke:#000000;" x="696.56958" xlink:href="#mdeebd4f274" y="345.291226"/>
     <use style="fill:#ffffff;stroke:#000000;" x="706.488466" xlink:href="#mdeebd4f274" y="324.234581"/>
     <use style="fill:#ffffff;stroke:#000000;" x="716.407352" xlink:href="#mdeebd4f274" y="303.177935"/>
     <use style="fill:#ffffff;stroke:#000000;" x="726.326237" xlink:href="#mdeebd4f274" y="286.980516"/>
     <use style="fill:#ffffff;stroke:#000000;" x="736.245123" xlink:href="#mdeebd4f274" y="288.600258"/>
     <use style="fill:#ffffff;stroke:#000000;" x="746.164009" xlink:href="#mdeebd4f274" y="299.938452"/>
     <use style="fill:#ffffff;stroke:#000000;" x="756.082895" xlink:href="#mdeebd4f274" y="303.177935"/>
     <use style="fill:#ffffff;stroke:#000000;" x="766.001781" xlink:href="#mdeebd4f274" y="290.22"/>
     <use style="fill:#ffffff;stroke:#000000;" x="775.920667" xlink:href="#mdeebd4f274" y="270.783097"/>
     <use style="fill:#ffffff;stroke:#000000;" x="785.839553" xlink:href="#mdeebd4f274" y="262.684387"/>
     <use style="fill:#ffffff;stroke:#000000;" x="795.758438" xlink:href="#mdeebd4f274" y="267.543613"/>
     <use style="fill:#ffffff;stroke:#000000;" x="805.677324" xlink:href="#mdeebd4f274" y="278.881806"/>
     <use style="fill:#ffffff;stroke:#000000;" x="815.59621" xlink:href="#mdeebd4f274" y="286.980516"/>
     <use style="fill:#ffffff;stroke:#000000;" x="825.515096" xlink:href="#mdeebd4f274" y="295.079226"/>
     <use style="fill:#ffffff;stroke:#000000;" x="835.433982" xlink:href="#mdeebd4f274" y="304.797677"/>
     <use style="fill:#ffffff;stroke:#000000;" x="845.352868" xlink:href="#mdeebd4f274" y="327.474065"/>
     <use style="fill:#ffffff;stroke:#000000;" x="855.271753" xlink:href="#mdeebd4f274" y="358.249161"/>
     <use style="fill:#ffffff;stroke:#000000;" x="865.190639" xlink:href="#mdeebd4f274" y="382.54529"/>
     <use style="fill:#ffffff;stroke:#000000;" x="875.109525" xlink:href="#mdeebd4f274" y="387.404516"/>
     <use style="fill:#ffffff;stroke:#000000;" x="885.028411" xlink:href="#mdeebd4f274" y="382.54529"/>
     <use style="fill:#ffffff;stroke:#000000;" x="894.947297" xlink:href="#mdeebd4f274" y="376.066323"/>
     <use style="fill:#ffffff;stroke:#000000;" x="904.866183" xlink:href="#mdeebd4f274" y="371.207097"/>
     <use style="fill:#ffffff;stroke:#000000;" x="914.785068" xlink:href="#mdeebd4f274" y="367.967613"/>
     <use style="fill:#ffffff;stroke:#000000;" x="924.703954" xlink:href="#mdeebd4f274" y="363.108387"/>
     <use style="fill:#ffffff;stroke:#000000;" x="934.62284" xlink:href="#mdeebd4f274" y="353.389935"/>
     <use style="fill:#ffffff;stroke:#000000;" x="944.541726" xlink:href="#mdeebd4f274" y="332.33329"/>
     <use style="fill:#ffffff;stroke:#000000;" x="954.460612" xlink:href="#mdeebd4f274" y="311.276645"/>
     <use style="fill:#ffffff;stroke:#000000;" x="964.379498" xlink:href="#mdeebd4f274" y="295.079226"/>
     <use style="fill:#ffffff;stroke:#000000;" x="974.298384" xlink:href="#mdeebd4f274" y="288.600258"/>
     <use style="fill:#ffffff;stroke:#000000;" x="984.217269" xlink:href="#mdeebd4f274" y="290.22"/>
     <use style="fill:#ffffff;stroke:#000000;" x="994.136155" xlink:href="#mdeebd4f274" y="295.079226"/>
     <use style="fill:#ffffff;stroke:#000000;" x="1004.055041" xlink:href="#mdeebd4f274" y="295.079226"/>
     <use style="fill:#ffffff;stroke:#000000;" x="1013.973927" xlink:href="#mdeebd4f274" y="286.980516"/>
     <use style="fill:#ffffff;stroke:#000000;" x="1023.892813" xlink:href="#mdeebd4f274" y="282.12129"/>
     <use style="fill:#ffffff;stroke:#000000;" x="1033.811699" xlink:href="#mdeebd4f274" y="288.600258"/>
     <use style="fill:#ffffff;stroke:#000000;" x="1043.730584" xlink:href="#mdeebd4f274" y="295.079226"/>
     <use style="fill:#ffffff;stroke:#000000;" x="1053.64947" xlink:href="#mdeebd4f274" y="299.938452"/>
     <use style="fill:#ffffff;stroke:#000000;" x="1063.568356" xlink:href="#mdeebd4f274" y="304.797677"/>
     <use style="fill:#ffffff;stroke:#000000;" x="1073.487242" xlink:href="#mdeebd4f274" y="312.896387"/>
     <use style="fill:#ffffff;stroke:#000000;" x="1083.406128" xlink:href="#mdeebd4f274" y="312.896387"/>
     <use style="fill:#ffffff;stroke:#000000;" x="1093.325014" xlink:href="#mdeebd4f274" y="306.417419"/>
     <use style="fill:#ffffff;stroke:#000000;" x="1103.2439" xlink:href="#mdeebd4f274" y="296.698968"/>
     <use style="fill:#ffffff;stroke:#000000;" x="1113.162785" xlink:href="#mdeebd4f274" y="288.600258"/>
     <use style="fill:#ffffff;stroke:#000000;" x="1123.081671" xlink:href="#mdeebd4f274" y="290.22"/>
     <use style="fill:#ffffff;stroke:#000000;" x="1133.000557" xlink:href="#mdeebd4f274" y="295.079226"/>
    </g>
   </g>
   <g id="patch_3">
    <path d="M 51.842 541.28 
L 51.842 39.16 
" style="fill:none;stroke:#555555;stroke-linecap:square;stroke-linejoin:miter;"/>
   </g>
   <g id="patch_4">
    <path d="M 51.842 541.28 
L 1137.96 541.28 
" style="fill:none;stroke:#555555;stroke-linecap:square;stroke-linejoin:miter;"/>
   </g>
   <g id="text_13">
    <!-- Last updated on 10 October 2020 with $R_t = 1.39$ and 95% confidence in range $1.23 - 1.53$ -->
    <g style="fill:#555555;" transform="translate(181.261 29.16)scale(0.18 -0.18)">
     <defs>
      <path d="M 9.8125 72.90625 
L 19.671875 72.90625 
L 19.671875 8.296875 
L 55.171875 8.296875 
L 55.171875 0 
L 9.8125 0 
z
" id="DejaVuSans-76"/>
      <path d="M 34.28125 27.484375 
Q 23.390625 27.484375 19.1875 25 
Q 14.984375 22.515625 14.984375 16.5 
Q 14.984375 11.71875 18.140625 8.90625 
Q 21.296875 6.109375 26.703125 6.109375 
Q 34.1875 6.109375 38.703125 11.40625 
Q 43.21875 16.703125 43.21875 25.484375 
L 43.21875 27.484375 
z
M 52.203125 31.203125 
L 52.203125 0 
L 43.21875 0 
L 43.21875 8.296875 
Q 40.140625 3.328125 35.546875 0.953125 
Q 30.953125 -1.421875 24.3125 -1.421875 
Q 15.921875 -1.421875 10.953125 3.296875 
Q 6 8.015625 6 15.921875 
Q 6 25.140625 12.171875 29.828125 
Q 18.359375 34.515625 30.609375 34.515625 
L 43.21875 34.515625 
L 43.21875 35.40625 
Q 43.21875 41.609375 39.140625 45 
Q 35.0625 48.390625 27.6875 48.390625 
Q 23 48.390625 18.546875 47.265625 
Q 14.109375 46.140625 10.015625 43.890625 
L 10.015625 52.203125 
Q 14.9375 54.109375 19.578125 55.046875 
Q 24.21875 56 28.609375 56 
Q 40.484375 56 46.34375 49.84375 
Q 52.203125 43.703125 52.203125 31.203125 
z
" id="DejaVuSans-97"/>
      <path d="M 44.28125 53.078125 
L 44.28125 44.578125 
Q 40.484375 46.53125 36.375 47.5 
Q 32.28125 48.484375 27.875 48.484375 
Q 21.1875 48.484375 17.84375 46.4375 
Q 14.5 44.390625 14.5 40.28125 
Q 14.5 37.15625 16.890625 35.375 
Q 19.28125 33.59375 26.515625 31.984375 
L 29.59375 31.296875 
Q 39.15625 29.25 43.1875 25.515625 
Q 47.21875 21.78125 47.21875 15.09375 
Q 47.21875 7.46875 41.1875 3.015625 
Q 35.15625 -1.421875 24.609375 -1.421875 
Q 20.21875 -1.421875 15.453125 -0.5625 
Q 10.6875 0.296875 5.421875 2 
L 5.421875 11.28125 
Q 10.40625 8.6875 15.234375 7.390625 
Q 20.0625 6.109375 24.8125 6.109375 
Q 31.15625 6.109375 34.5625 8.28125 
Q 37.984375 10.453125 37.984375 14.40625 
Q 37.984375 18.0625 35.515625 20.015625 
Q 33.0625 21.96875 24.703125 23.78125 
L 21.578125 24.515625 
Q 13.234375 26.265625 9.515625 29.90625 
Q 5.8125 33.546875 5.8125 39.890625 
Q 5.8125 47.609375 11.28125 51.796875 
Q 16.75 56 26.8125 56 
Q 31.78125 56 36.171875 55.265625 
Q 40.578125 54.546875 44.28125 53.078125 
z
" id="DejaVuSans-115"/>
      <path d="M 18.3125 70.21875 
L 18.3125 54.6875 
L 36.8125 54.6875 
L 36.8125 47.703125 
L 18.3125 47.703125 
L 18.3125 18.015625 
Q 18.3125 11.328125 20.140625 9.421875 
Q 21.96875 7.515625 27.59375 7.515625 
L 36.8125 7.515625 
L 36.8125 0 
L 27.59375 0 
Q 17.1875 0 13.234375 3.875 
Q 9.28125 7.765625 9.28125 18.015625 
L 9.28125 47.703125 
L 2.6875 47.703125 
L 2.6875 54.6875 
L 9.28125 54.6875 
L 9.28125 70.21875 
z
" id="DejaVuSans-116"/>
      <path id="DejaVuSans-32"/>
      <path d="M 8.5 21.578125 
L 8.5 54.6875 
L 17.484375 54.6875 
L 17.484375 21.921875 
Q 17.484375 14.15625 20.5 10.265625 
Q 23.53125 6.390625 29.59375 6.390625 
Q 36.859375 6.390625 41.078125 11.03125 
Q 45.3125 15.671875 45.3125 23.6875 
L 45.3125 54.6875 
L 54.296875 54.6875 
L 54.296875 0 
L 45.3125 0 
L 45.3125 8.40625 
Q 42.046875 3.421875 37.71875 1 
Q 33.40625 -1.421875 27.6875 -1.421875 
Q 18.265625 -1.421875 13.375 4.4375 
Q 8.5 10.296875 8.5 21.578125 
z
M 31.109375 56 
z
" id="DejaVuSans-117"/>
      <path d="M 18.109375 8.203125 
L 18.109375 -20.796875 
L 9.078125 -20.796875 
L 9.078125 54.6875 
L 18.109375 54.6875 
L 18.109375 46.390625 
Q 20.953125 51.265625 25.265625 53.625 
Q 29.59375 56 35.59375 56 
Q 45.5625 56 51.78125 48.09375 
Q 58.015625 40.1875 58.015625 27.296875 
Q 58.015625 14.40625 51.78125 6.484375 
Q 45.5625 -1.421875 35.59375 -1.421875 
Q 29.59375 -1.421875 25.265625 0.953125 
Q 20.953125 3.328125 18.109375 8.203125 
z
M 48.6875 27.296875 
Q 48.6875 37.203125 44.609375 42.84375 
Q 40.53125 48.484375 33.40625 48.484375 
Q 26.265625 48.484375 22.1875 42.84375 
Q 18.109375 37.203125 18.109375 27.296875 
Q 18.109375 17.390625 22.1875 11.75 
Q 26.265625 6.109375 33.40625 6.109375 
Q 40.53125 6.109375 44.609375 11.75 
Q 48.6875 17.390625 48.6875 27.296875 
z
" id="DejaVuSans-112"/>
      <path d="M 45.40625 46.390625 
L 45.40625 75.984375 
L 54.390625 75.984375 
L 54.390625 0 
L 45.40625 0 
L 45.40625 8.203125 
Q 42.578125 3.328125 38.25 0.953125 
Q 33.9375 -1.421875 27.875 -1.421875 
Q 17.96875 -1.421875 11.734375 6.484375 
Q 5.515625 14.40625 5.515625 27.296875 
Q 5.515625 40.1875 11.734375 48.09375 
Q 17.96875 56 27.875 56 
Q 33.9375 56 38.25 53.625 
Q 42.578125 51.265625 45.40625 46.390625 
z
M 14.796875 27.296875 
Q 14.796875 17.390625 18.875 11.75 
Q 22.953125 6.109375 30.078125 6.109375 
Q 37.203125 6.109375 41.296875 11.75 
Q 45.40625 17.390625 45.40625 27.296875 
Q 45.40625 37.203125 41.296875 42.84375 
Q 37.203125 48.484375 30.078125 48.484375 
Q 22.953125 48.484375 18.875 42.84375 
Q 14.796875 37.203125 14.796875 27.296875 
z
" id="DejaVuSans-100"/>
      <path d="M 56.203125 29.59375 
L 56.203125 25.203125 
L 14.890625 25.203125 
Q 15.484375 15.921875 20.484375 11.0625 
Q 25.484375 6.203125 34.421875 6.203125 
Q 39.59375 6.203125 44.453125 7.46875 
Q 49.3125 8.734375 54.109375 11.28125 
L 54.109375 2.78125 
Q 49.265625 0.734375 44.1875 -0.34375 
Q 39.109375 -1.421875 33.890625 -1.421875 
Q 20.796875 -1.421875 13.15625 6.1875 
Q 5.515625 13.8125 5.515625 26.8125 
Q 5.515625 40.234375 12.765625 48.109375 
Q 20.015625 56 32.328125 56 
Q 43.359375 56 49.78125 48.890625 
Q 56.203125 41.796875 56.203125 29.59375 
z
M 47.21875 32.234375 
Q 47.125 39.59375 43.09375 43.984375 
Q 39.0625 48.390625 32.421875 48.390625 
Q 24.90625 48.390625 20.390625 44.140625 
Q 15.875 39.890625 15.1875 32.171875 
z
" id="DejaVuSans-101"/>
      <path d="M 30.609375 48.390625 
Q 23.390625 48.390625 19.1875 42.75 
Q 14.984375 37.109375 14.984375 27.296875 
Q 14.984375 17.484375 19.15625 11.84375 
Q 23.34375 6.203125 30.609375 6.203125 
Q 37.796875 6.203125 41.984375 11.859375 
Q 46.1875 17.53125 46.1875 27.296875 
Q 46.1875 37.015625 41.984375 42.703125 
Q 37.796875 48.390625 30.609375 48.390625 
z
M 30.609375 56 
Q 42.328125 56 49.015625 48.375 
Q 55.71875 40.765625 55.71875 27.296875 
Q 55.71875 13.875 49.015625 6.21875 
Q 42.328125 -1.421875 30.609375 -1.421875 
Q 18.84375 -1.421875 12.171875 6.21875 
Q 5.515625 13.875 5.515625 27.296875 
Q 5.515625 40.765625 12.171875 48.375 
Q 18.84375 56 30.609375 56 
z
" id="DejaVuSans-111"/>
      <path d="M 54.890625 33.015625 
L 54.890625 0 
L 45.90625 0 
L 45.90625 32.71875 
Q 45.90625 40.484375 42.875 44.328125 
Q 39.84375 48.1875 33.796875 48.1875 
Q 26.515625 48.1875 22.3125 43.546875 
Q 18.109375 38.921875 18.109375 30.90625 
L 18.109375 0 
L 9.078125 0 
L 9.078125 54.6875 
L 18.109375 54.6875 
L 18.109375 46.1875 
Q 21.34375 51.125 25.703125 53.5625 
Q 30.078125 56 35.796875 56 
Q 45.21875 56 50.046875 50.171875 
Q 54.890625 44.34375 54.890625 33.015625 
z
" id="DejaVuSans-110"/>
      <path d="M 12.40625 8.296875 
L 28.515625 8.296875 
L 28.515625 63.921875 
L 10.984375 60.40625 
L 10.984375 69.390625 
L 28.421875 72.90625 
L 38.28125 72.90625 
L 38.28125 8.296875 
L 54.390625 8.296875 
L 54.390625 0 
L 12.40625 0 
z
" id="DejaVuSans-49"/>
      <path d="M 31.78125 66.40625 
Q 24.171875 66.40625 20.328125 58.90625 
Q 16.5 51.421875 16.5 36.375 
Q 16.5 21.390625 20.328125 13.890625 
Q 24.171875 6.390625 31.78125 6.390625 
Q 39.453125 6.390625 43.28125 13.890625 
Q 47.125 21.390625 47.125 36.375 
Q 47.125 51.421875 43.28125 58.90625 
Q 39.453125 66.40625 31.78125 66.40625 
z
M 31.78125 74.21875 
Q 44.046875 74.21875 50.515625 64.515625 
Q 56.984375 54.828125 56.984375 36.375 
Q 56.984375 17.96875 50.515625 8.265625 
Q 44.046875 -1.421875 31.78125 -1.421875 
Q 19.53125 -1.421875 13.0625 8.265625 
Q 6.59375 17.96875 6.59375 36.375 
Q 6.59375 54.828125 13.0625 64.515625 
Q 19.53125 74.21875 31.78125 74.21875 
z
" id="DejaVuSans-48"/>
      <path d="M 39.40625 66.21875 
Q 28.65625 66.21875 22.328125 58.203125 
Q 16.015625 50.203125 16.015625 36.375 
Q 16.015625 22.609375 22.328125 14.59375 
Q 28.65625 6.59375 39.40625 6.59375 
Q 50.140625 6.59375 56.421875 14.59375 
Q 62.703125 22.609375 62.703125 36.375 
Q 62.703125 50.203125 56.421875 58.203125 
Q 50.140625 66.21875 39.40625 66.21875 
z
M 39.40625 74.21875 
Q 54.734375 74.21875 63.90625 63.9375 
Q 73.09375 53.65625 73.09375 36.375 
Q 73.09375 19.140625 63.90625 8.859375 
Q 54.734375 -1.421875 39.40625 -1.421875 
Q 24.03125 -1.421875 14.8125 8.828125 
Q 5.609375 19.09375 5.609375 36.375 
Q 5.609375 53.65625 14.8125 63.9375 
Q 24.03125 74.21875 39.40625 74.21875 
z
" id="DejaVuSans-79"/>
      <path d="M 48.78125 52.59375 
L 48.78125 44.1875 
Q 44.96875 46.296875 41.140625 47.34375 
Q 37.3125 48.390625 33.40625 48.390625 
Q 24.65625 48.390625 19.8125 42.84375 
Q 14.984375 37.3125 14.984375 27.296875 
Q 14.984375 17.28125 19.8125 11.734375 
Q 24.65625 6.203125 33.40625 6.203125 
Q 37.3125 6.203125 41.140625 7.25 
Q 44.96875 8.296875 48.78125 10.40625 
L 48.78125 2.09375 
Q 45.015625 0.34375 40.984375 -0.53125 
Q 36.96875 -1.421875 32.421875 -1.421875 
Q 20.0625 -1.421875 12.78125 6.34375 
Q 5.515625 14.109375 5.515625 27.296875 
Q 5.515625 40.671875 12.859375 48.328125 
Q 20.21875 56 33.015625 56 
Q 37.15625 56 41.109375 55.140625 
Q 45.0625 54.296875 48.78125 52.59375 
z
" id="DejaVuSans-99"/>
      <path d="M 48.6875 27.296875 
Q 48.6875 37.203125 44.609375 42.84375 
Q 40.53125 48.484375 33.40625 48.484375 
Q 26.265625 48.484375 22.1875 42.84375 
Q 18.109375 37.203125 18.109375 27.296875 
Q 18.109375 17.390625 22.1875 11.75 
Q 26.265625 6.109375 33.40625 6.109375 
Q 40.53125 6.109375 44.609375 11.75 
Q 48.6875 17.390625 48.6875 27.296875 
z
M 18.109375 46.390625 
Q 20.953125 51.265625 25.265625 53.625 
Q 29.59375 56 35.59375 56 
Q 45.5625 56 51.78125 48.09375 
Q 58.015625 40.1875 58.015625 27.296875 
Q 58.015625 14.40625 51.78125 6.484375 
Q 45.5625 -1.421875 35.59375 -1.421875 
Q 29.59375 -1.421875 25.265625 0.953125 
Q 20.953125 3.328125 18.109375 8.203125 
L 18.109375 0 
L 9.078125 0 
L 9.078125 75.984375 
L 18.109375 75.984375 
z
" id="DejaVuSans-98"/>
      <path d="M 41.109375 46.296875 
Q 39.59375 47.171875 37.8125 47.578125 
Q 36.03125 48 33.890625 48 
Q 26.265625 48 22.1875 43.046875 
Q 18.109375 38.09375 18.109375 28.8125 
L 18.109375 0 
L 9.078125 0 
L 9.078125 54.6875 
L 18.109375 54.6875 
L 18.109375 46.1875 
Q 20.953125 51.171875 25.484375 53.578125 
Q 30.03125 56 36.53125 56 
Q 37.453125 56 38.578125 55.875 
Q 39.703125 55.765625 41.0625 55.515625 
z
" id="DejaVuSans-114"/>
      <path d="M 19.1875 8.296875 
L 53.609375 8.296875 
L 53.609375 0 
L 7.328125 0 
L 7.328125 8.296875 
Q 12.9375 14.109375 22.625 23.890625 
Q 32.328125 33.6875 34.8125 36.53125 
Q 39.546875 41.84375 41.421875 45.53125 
Q 43.3125 49.21875 43.3125 52.78125 
Q 43.3125 58.59375 39.234375 62.25 
Q 35.15625 65.921875 28.609375 65.921875 
Q 23.96875 65.921875 18.8125 64.3125 
Q 13.671875 62.703125 7.8125 59.421875 
L 7.8125 69.390625 
Q 13.765625 71.78125 18.9375 73 
Q 24.125 74.21875 28.421875 74.21875 
Q 39.75 74.21875 46.484375 68.546875 
Q 53.21875 62.890625 53.21875 53.421875 
Q 53.21875 48.921875 51.53125 44.890625 
Q 49.859375 40.875 45.40625 35.40625 
Q 44.1875 33.984375 37.640625 27.21875 
Q 31.109375 20.453125 19.1875 8.296875 
z
" id="DejaVuSans-50"/>
      <path d="M 4.203125 54.6875 
L 13.1875 54.6875 
L 24.421875 12.015625 
L 35.59375 54.6875 
L 46.1875 54.6875 
L 57.421875 12.015625 
L 68.609375 54.6875 
L 77.59375 54.6875 
L 63.28125 0 
L 52.6875 0 
L 40.921875 44.828125 
L 29.109375 0 
L 18.5 0 
z
" id="DejaVuSans-119"/>
      <path d="M 9.421875 54.6875 
L 18.40625 54.6875 
L 18.40625 0 
L 9.421875 0 
z
M 9.421875 75.984375 
L 18.40625 75.984375 
L 18.40625 64.59375 
L 9.421875 64.59375 
z
" id="DejaVuSans-105"/>
      <path d="M 54.890625 33.015625 
L 54.890625 0 
L 45.90625 0 
L 45.90625 32.71875 
Q 45.90625 40.484375 42.875 44.328125 
Q 39.84375 48.1875 33.796875 48.1875 
Q 26.515625 48.1875 22.3125 43.546875 
Q 18.109375 38.921875 18.109375 30.90625 
L 18.109375 0 
L 9.078125 0 
L 9.078125 75.984375 
L 18.109375 75.984375 
L 18.109375 46.1875 
Q 21.34375 51.125 25.703125 53.5625 
Q 30.078125 56 35.796875 56 
Q 45.21875 56 50.046875 50.171875 
Q 54.890625 44.34375 54.890625 33.015625 
z
" id="DejaVuSans-104"/>
      <path d="M 10.59375 48.1875 
L 73.1875 48.1875 
L 73.1875 36.71875 
L 10.59375 36.71875 
z
M 10.59375 25.984375 
L 73.1875 25.984375 
L 73.1875 14.40625 
L 10.59375 14.40625 
z
" id="DejaVuSans-Bold-61"/>
      <path d="M 10.203125 18.890625 
L 27.78125 18.890625 
L 27.78125 0 
L 10.203125 0 
z
" id="DejaVuSans-Bold-46"/>
      <path d="M 10.015625 1.609375 
L 10.015625 15.09375 
Q 14.5 12.984375 18.59375 11.9375 
Q 22.703125 10.890625 26.703125 10.890625 
Q 35.109375 10.890625 39.796875 15.546875 
Q 44.484375 20.21875 45.3125 29.390625 
Q 42 26.953125 38.234375 25.734375 
Q 34.46875 24.515625 30.078125 24.515625 
Q 18.890625 24.515625 12.03125 31.03125 
Q 5.171875 37.546875 5.171875 48.1875 
Q 5.171875 59.96875 12.8125 67.046875 
Q 20.453125 74.125 33.296875 74.125 
Q 47.5625 74.125 55.375 64.5 
Q 63.1875 54.890625 63.1875 37.3125 
Q 63.1875 19.234375 54.046875 8.90625 
Q 44.921875 -1.421875 29 -1.421875 
Q 23.875 -1.421875 19.1875 -0.65625 
Q 14.5 0.09375 10.015625 1.609375 
z
M 33.203125 36.71875 
Q 38.140625 36.71875 40.625 39.90625 
Q 43.109375 43.109375 43.109375 49.515625 
Q 43.109375 55.859375 40.625 59.078125 
Q 38.140625 62.3125 33.203125 62.3125 
Q 28.265625 62.3125 25.78125 59.078125 
Q 23.296875 55.859375 23.296875 49.515625 
Q 23.296875 43.109375 25.78125 39.90625 
Q 28.265625 36.71875 33.203125 36.71875 
z
" id="DejaVuSans-Bold-57"/>
      <path d="M 10.984375 1.515625 
L 10.984375 10.5 
Q 14.703125 8.734375 18.5 7.8125 
Q 22.3125 6.890625 25.984375 6.890625 
Q 35.75 6.890625 40.890625 13.453125 
Q 46.046875 20.015625 46.78125 33.40625 
Q 43.953125 29.203125 39.59375 26.953125 
Q 35.25 24.703125 29.984375 24.703125 
Q 19.046875 24.703125 12.671875 31.3125 
Q 6.296875 37.9375 6.296875 49.421875 
Q 6.296875 60.640625 12.9375 67.421875 
Q 19.578125 74.21875 30.609375 74.21875 
Q 43.265625 74.21875 49.921875 64.515625 
Q 56.59375 54.828125 56.59375 36.375 
Q 56.59375 19.140625 48.40625 8.859375 
Q 40.234375 -1.421875 26.421875 -1.421875 
Q 22.703125 -1.421875 18.890625 -0.6875 
Q 15.09375 0.046875 10.984375 1.515625 
z
M 30.609375 32.421875 
Q 37.25 32.421875 41.125 36.953125 
Q 45.015625 41.5 45.015625 49.421875 
Q 45.015625 57.28125 41.125 61.84375 
Q 37.25 66.40625 30.609375 66.40625 
Q 23.96875 66.40625 20.09375 61.84375 
Q 16.21875 57.28125 16.21875 49.421875 
Q 16.21875 41.5 20.09375 36.953125 
Q 23.96875 32.421875 30.609375 32.421875 
z
" id="DejaVuSans-57"/>
      <path d="M 10.796875 72.90625 
L 49.515625 72.90625 
L 49.515625 64.59375 
L 19.828125 64.59375 
L 19.828125 46.734375 
Q 21.96875 47.46875 24.109375 47.828125 
Q 26.265625 48.1875 28.421875 48.1875 
Q 40.625 48.1875 47.75 41.5 
Q 54.890625 34.8125 54.890625 23.390625 
Q 54.890625 11.625 47.5625 5.09375 
Q 40.234375 -1.421875 26.90625 -1.421875 
Q 22.3125 -1.421875 17.546875 -0.640625 
Q 12.796875 0.140625 7.71875 1.703125 
L 7.71875 11.625 
Q 12.109375 9.234375 16.796875 8.0625 
Q 21.484375 6.890625 26.703125 6.890625 
Q 35.15625 6.890625 40.078125 11.328125 
Q 45.015625 15.765625 45.015625 23.390625 
Q 45.015625 31 40.078125 35.4375 
Q 35.15625 39.890625 26.703125 39.890625 
Q 22.75 39.890625 18.8125 39.015625 
Q 14.890625 38.140625 10.796875 36.28125 
z
" id="DejaVuSans-53"/>
      <path d="M 72.703125 32.078125 
Q 68.453125 32.078125 66.03125 28.46875 
Q 63.625 24.859375 63.625 18.40625 
Q 63.625 12.0625 66.03125 8.421875 
Q 68.453125 4.78125 72.703125 4.78125 
Q 76.859375 4.78125 79.265625 8.421875 
Q 81.6875 12.0625 81.6875 18.40625 
Q 81.6875 24.8125 79.265625 28.4375 
Q 76.859375 32.078125 72.703125 32.078125 
z
M 72.703125 38.28125 
Q 80.421875 38.28125 84.953125 32.90625 
Q 89.5 27.546875 89.5 18.40625 
Q 89.5 9.28125 84.9375 3.921875 
Q 80.375 -1.421875 72.703125 -1.421875 
Q 64.890625 -1.421875 60.34375 3.921875 
Q 55.8125 9.28125 55.8125 18.40625 
Q 55.8125 27.59375 60.375 32.9375 
Q 64.9375 38.28125 72.703125 38.28125 
z
M 22.3125 68.015625 
Q 18.109375 68.015625 15.6875 64.375 
Q 13.28125 60.75 13.28125 54.390625 
Q 13.28125 47.953125 15.671875 44.328125 
Q 18.0625 40.71875 22.3125 40.71875 
Q 26.5625 40.71875 28.96875 44.328125 
Q 31.390625 47.953125 31.390625 54.390625 
Q 31.390625 60.6875 28.953125 64.34375 
Q 26.515625 68.015625 22.3125 68.015625 
z
M 66.40625 74.21875 
L 74.21875 74.21875 
L 28.609375 -1.421875 
L 20.796875 -1.421875 
z
M 22.3125 74.21875 
Q 30.03125 74.21875 34.609375 68.875 
Q 39.203125 63.53125 39.203125 54.390625 
Q 39.203125 45.171875 34.640625 39.84375 
Q 30.078125 34.515625 22.3125 34.515625 
Q 14.546875 34.515625 10.03125 39.859375 
Q 5.515625 45.21875 5.515625 54.390625 
Q 5.515625 63.484375 10.046875 68.84375 
Q 14.59375 74.21875 22.3125 74.21875 
z
" id="DejaVuSans-37"/>
      <path d="M 37.109375 75.984375 
L 37.109375 68.5 
L 28.515625 68.5 
Q 23.6875 68.5 21.796875 66.546875 
Q 19.921875 64.59375 19.921875 59.515625 
L 19.921875 54.6875 
L 34.71875 54.6875 
L 34.71875 47.703125 
L 19.921875 47.703125 
L 19.921875 0 
L 10.890625 0 
L 10.890625 47.703125 
L 2.296875 47.703125 
L 2.296875 54.6875 
L 10.890625 54.6875 
L 10.890625 58.5 
Q 10.890625 67.625 15.140625 71.796875 
Q 19.390625 75.984375 28.609375 75.984375 
z
" id="DejaVuSans-102"/>
      <path d="M 45.40625 27.984375 
Q 45.40625 37.75 41.375 43.109375 
Q 37.359375 48.484375 30.078125 48.484375 
Q 22.859375 48.484375 18.828125 43.109375 
Q 14.796875 37.75 14.796875 27.984375 
Q 14.796875 18.265625 18.828125 12.890625 
Q 22.859375 7.515625 30.078125 7.515625 
Q 37.359375 7.515625 41.375 12.890625 
Q 45.40625 18.265625 45.40625 27.984375 
z
M 54.390625 6.78125 
Q 54.390625 -7.171875 48.1875 -13.984375 
Q 42 -20.796875 29.203125 -20.796875 
Q 24.46875 -20.796875 20.265625 -20.09375 
Q 16.0625 -19.390625 12.109375 -17.921875 
L 12.109375 -9.1875 
Q 16.0625 -11.328125 19.921875 -12.34375 
Q 23.78125 -13.375 27.78125 -13.375 
Q 36.625 -13.375 41.015625 -8.765625 
Q 45.40625 -4.15625 45.40625 5.171875 
L 45.40625 9.625 
Q 42.625 4.78125 38.28125 2.390625 
Q 33.9375 0 27.875 0 
Q 17.828125 0 11.671875 7.65625 
Q 5.515625 15.328125 5.515625 27.984375 
Q 5.515625 40.671875 11.671875 48.328125 
Q 17.828125 56 27.875 56 
Q 33.9375 56 38.28125 53.609375 
Q 42.625 51.21875 45.40625 46.390625 
L 45.40625 54.6875 
L 54.390625 54.6875 
z
" id="DejaVuSans-103"/>
      <path d="M 10.59375 37.109375 
L 73.1875 37.109375 
L 73.1875 25.59375 
L 10.59375 25.59375 
z
" id="DejaVuSans-Bold-8722"/>
      <path d="M 10.59375 72.90625 
L 57.328125 72.90625 
L 57.328125 59.078125 
L 25.59375 59.078125 
L 25.59375 47.796875 
Q 27.734375 48.390625 29.90625 48.703125 
Q 32.078125 49.03125 34.421875 49.03125 
Q 47.75 49.03125 55.171875 42.359375 
Q 62.59375 35.6875 62.59375 23.78125 
Q 62.59375 11.96875 54.515625 5.265625 
Q 46.4375 -1.421875 32.078125 -1.421875 
Q 25.875 -1.421875 19.796875 -0.21875 
Q 13.71875 0.984375 7.71875 3.421875 
L 7.71875 18.21875 
Q 13.671875 14.796875 19.015625 13.078125 
Q 24.359375 11.375 29.109375 11.375 
Q 35.9375 11.375 39.859375 14.71875 
Q 43.796875 18.0625 43.796875 23.78125 
Q 43.796875 29.546875 39.859375 32.859375 
Q 35.9375 36.1875 29.109375 36.1875 
Q 25.046875 36.1875 20.453125 35.125 
Q 15.875 34.078125 10.59375 31.890625 
z
" id="DejaVuSans-Bold-53"/>
     </defs>
     <use transform="translate(0 0.015625)" xlink:href="#DejaVuSans-76"/>
     <use transform="translate(55.712891 0.015625)" xlink:href="#DejaVuSans-97"/>
     <use transform="translate(116.992188 0.015625)" xlink:href="#DejaVuSans-115"/>
     <use transform="translate(169.091797 0.015625)" xlink:href="#DejaVuSans-116"/>
     <use transform="translate(208.300781 0.015625)" xlink:href="#DejaVuSans-32"/>
     <use transform="translate(240.087891 0.015625)" xlink:href="#DejaVuSans-117"/>
     <use transform="translate(303.466797 0.015625)" xlink:href="#DejaVuSans-112"/>
     <use transform="translate(366.943359 0.015625)" xlink:href="#DejaVuSans-100"/>
     <use transform="translate(430.419922 0.015625)" xlink:href="#DejaVuSans-97"/>
     <use transform="translate(491.699219 0.015625)" xlink:href="#DejaVuSans-116"/>
     <use transform="translate(530.908203 0.015625)" xlink:href="#DejaVuSans-101"/>
     <use transform="translate(592.431641 0.015625)" xlink:href="#DejaVuSans-100"/>
     <use transform="translate(655.908203 0.015625)" xlink:href="#DejaVuSans-32"/>
     <use transform="translate(687.695312 0.015625)" xlink:href="#DejaVuSans-111"/>
     <use transform="translate(748.876953 0.015625)" xlink:href="#DejaVuSans-110"/>
     <use transform="translate(812.255859 0.015625)" xlink:href="#DejaVuSans-32"/>
     <use transform="translate(844.042969 0.015625)" xlink:href="#DejaVuSans-49"/>
     <use transform="translate(907.666016 0.015625)" xlink:href="#DejaVuSans-48"/>
     <use transform="translate(971.289062 0.015625)" xlink:href="#DejaVuSans-32"/>
     <use transform="translate(1003.076172 0.015625)" xlink:href="#DejaVuSans-79"/>
     <use transform="translate(1081.787109 0.015625)" xlink:href="#DejaVuSans-99"/>
     <use transform="translate(1136.767578 0.015625)" xlink:href="#DejaVuSans-116"/>
     <use transform="translate(1175.976562 0.015625)" xlink:href="#DejaVuSans-111"/>
     <use transform="translate(1237.158203 0.015625)" xlink:href="#DejaVuSans-98"/>
     <use transform="translate(1300.634766 0.015625)" xlink:href="#DejaVuSans-101"/>
     <use transform="translate(1362.158203 0.015625)" xlink:href="#DejaVuSans-114"/>
     <use transform="translate(1403.271484 0.015625)" xlink:href="#DejaVuSans-32"/>
     <use transform="translate(1435.058594 0.015625)" xlink:href="#DejaVuSans-50"/>
     <use transform="translate(1498.681641 0.015625)" xlink:href="#DejaVuSans-48"/>
     <use transform="translate(1562.304688 0.015625)" xlink:href="#DejaVuSans-50"/>
     <use transform="translate(1625.927734 0.015625)" xlink:href="#DejaVuSans-48"/>
     <use transform="translate(1689.550781 0.015625)" xlink:href="#DejaVuSans-32"/>
     <use transform="translate(1721.337891 0.015625)" xlink:href="#DejaVuSans-119"/>
     <use transform="translate(1803.125 0.015625)" xlink:href="#DejaVuSans-105"/>
     <use transform="translate(1830.908203 0.015625)" xlink:href="#DejaVuSans-116"/>
     <use transform="translate(1870.117188 0.015625)" xlink:href="#DejaVuSans-104"/>
     <use transform="translate(1933.496094 0.015625)" xlink:href="#DejaVuSans-32"/>
     <use transform="translate(1965.283203 0.015625)" xlink:href="#DejaVuSans-BoldOblique-82"/>
     <use transform="translate(2042.285156 -16.390625)scale(0.7)" xlink:href="#DejaVuSans-BoldOblique-116"/>
     <use transform="translate(2099.321289 0.015625)" xlink:href="#DejaVuSans-Bold-61"/>
     <use transform="translate(2203.950195 0.015625)" xlink:href="#DejaVuSans-Bold-49"/>
     <use transform="translate(2273.530273 0.015625)" xlink:href="#DejaVuSans-Bold-46"/>
     <use transform="translate(2311.518555 0.015625)" xlink:href="#DejaVuSans-Bold-51"/>
     <use transform="translate(2381.098633 0.015625)" xlink:href="#DejaVuSans-Bold-57"/>
     <use transform="translate(2450.678711 0.015625)" xlink:href="#DejaVuSans-32"/>
     <use transform="translate(2482.46582 0.015625)" xlink:href="#DejaVuSans-97"/>
     <use transform="translate(2543.745117 0.015625)" xlink:href="#DejaVuSans-110"/>
     <use transform="translate(2607.124023 0.015625)" xlink:href="#DejaVuSans-100"/>
     <use transform="translate(2670.600586 0.015625)" xlink:href="#DejaVuSans-32"/>
     <use transform="translate(2702.387695 0.015625)" xlink:href="#DejaVuSans-57"/>
     <use transform="translate(2766.010742 0.015625)" xlink:href="#DejaVuSans-53"/>
     <use transform="translate(2829.633789 0.015625)" xlink:href="#DejaVuSans-37"/>
     <use transform="translate(2924.65332 0.015625)" xlink:href="#DejaVuSans-32"/>
     <use transform="translate(2956.44043 0.015625)" xlink:href="#DejaVuSans-99"/>
     <use transform="translate(3011.420898 0.015625)" xlink:href="#DejaVuSans-111"/>
     <use transform="translate(3072.602539 0.015625)" xlink:href="#DejaVuSans-110"/>
     <use transform="translate(3135.981445 0.015625)" xlink:href="#DejaVuSans-102"/>
     <use transform="translate(3171.186523 0.015625)" xlink:href="#DejaVuSans-105"/>
     <use transform="translate(3198.969727 0.015625)" xlink:href="#DejaVuSans-100"/>
     <use transform="translate(3262.446289 0.015625)" xlink:href="#DejaVuSans-101"/>
     <use transform="translate(3323.969727 0.015625)" xlink:href="#DejaVuSans-110"/>
     <use transform="translate(3387.348633 0.015625)" xlink:href="#DejaVuSans-99"/>
     <use transform="translate(3442.329102 0.015625)" xlink:href="#DejaVuSans-101"/>
     <use transform="translate(3503.852539 0.015625)" xlink:href="#DejaVuSans-32"/>
     <use transform="translate(3535.639648 0.015625)" xlink:href="#DejaVuSans-105"/>
     <use transform="translate(3563.422852 0.015625)" xlink:href="#DejaVuSans-110"/>
     <use transform="translate(3626.801758 0.015625)" xlink:href="#DejaVuSans-32"/>
     <use transform="translate(3658.588867 0.015625)" xlink:href="#DejaVuSans-114"/>
     <use transform="translate(3699.702148 0.015625)" xlink:href="#DejaVuSans-97"/>
     <use transform="translate(3760.981445 0.015625)" xlink:href="#DejaVuSans-110"/>
     <use transform="translate(3824.360352 0.015625)" xlink:href="#DejaVuSans-103"/>
     <use transform="translate(3887.836914 0.015625)" xlink:href="#DejaVuSans-101"/>
     <use transform="translate(3949.360352 0.015625)" xlink:href="#DejaVuSans-32"/>
     <use transform="translate(3981.147461 0.015625)" xlink:href="#DejaVuSans-Bold-49"/>
     <use transform="translate(4050.727539 0.015625)" xlink:href="#DejaVuSans-Bold-46"/>
     <use transform="translate(4084.21582 0.015625)" xlink:href="#DejaVuSans-Bold-50"/>
     <use transform="translate(4153.795898 0.015625)" xlink:href="#DejaVuSans-Bold-51"/>
     <use transform="translate(4244.21582 0.015625)" xlink:href="#DejaVuSans-Bold-8722"/>
     <use transform="translate(4348.844727 0.015625)" xlink:href="#DejaVuSans-Bold-49"/>
     <use transform="translate(4418.424805 0.015625)" xlink:href="#DejaVuSans-Bold-46"/>
     <use transform="translate(4456.413086 0.015625)" xlink:href="#DejaVuSans-Bold-53"/>
     <use transform="translate(4525.993164 0.015625)" xlink:href="#DejaVuSans-Bold-51"/>
    </g>
   </g>
   <g id="legend_1">
    <g id="line2d_14">
     <path d="M 952.2 60.12 
L 984.2 60.12 
" style="fill:none;stroke:#000000;stroke-linecap:square;"/>
    </g>
    <g id="line2d_15">
     <g>
      <use style="fill:#ffffff;stroke:#000000;" x="968.2" xlink:href="#mdeebd4f274" y="60.12"/>
     </g>
    </g>
    <g id="text_14">
     <!-- Most Likely $R_t$ -->
     <g style="fill:#555555;" transform="translate(997 65.72)scale(0.16 -0.16)">
      <defs>
       <path id="DejaVuSans-Bold-32"/>
       <path d="M 9.1875 72.90625 
L 27.984375 72.90625 
L 27.984375 14.203125 
L 60.984375 14.203125 
L 60.984375 0 
L 9.1875 0 
z
" id="DejaVuSans-Bold-76"/>
       <path d="M 8.40625 75.984375 
L 25.875 75.984375 
L 25.875 34.625 
L 46 54.6875 
L 66.3125 54.6875 
L 39.59375 29.59375 
L 68.40625 0 
L 47.21875 0 
L 25.875 22.796875 
L 25.875 0 
L 8.40625 0 
z
" id="DejaVuSans-Bold-107"/>
      </defs>
      <use transform="translate(0 0.015625)" xlink:href="#DejaVuSans-Bold-77"/>
      <use transform="translate(99.511719 0.015625)" xlink:href="#DejaVuSans-Bold-111"/>
      <use transform="translate(168.212891 0.015625)" xlink:href="#DejaVuSans-Bold-115"/>
      <use transform="translate(227.734375 0.015625)" xlink:href="#DejaVuSans-Bold-116"/>
      <use transform="translate(275.537109 0.015625)" xlink:href="#DejaVuSans-Bold-32"/>
      <use transform="translate(310.351562 0.015625)" xlink:href="#DejaVuSans-Bold-76"/>
      <use transform="translate(374.072266 0.015625)" xlink:href="#DejaVuSans-Bold-105"/>
      <use transform="translate(408.349609 0.015625)" xlink:href="#DejaVuSans-Bold-107"/>
      <use transform="translate(474.853516 0.015625)" xlink:href="#DejaVuSans-Bold-101"/>
      <use transform="translate(542.675781 0.015625)" xlink:href="#DejaVuSans-Bold-108"/>
      <use transform="translate(576.953125 0.015625)" xlink:href="#DejaVuSans-Bold-121"/>
      <use transform="translate(642.138672 0.015625)" xlink:href="#DejaVuSans-Bold-32"/>
      <use transform="translate(676.953125 0.015625)" xlink:href="#DejaVuSans-BoldOblique-82"/>
      <use transform="translate(753.955078 -16.390625)scale(0.7)" xlink:href="#DejaVuSans-BoldOblique-116"/>
     </g>
    </g>
    <g id="patch_5">
     <path d="M 952.2 89.3975 
L 984.2 89.3975 
L 984.2 78.1975 
L 952.2 78.1975 
z
" style="fill:#e6e6e6;stroke:#e6e6e6;stroke-linejoin:miter;"/>
    </g>
    <g id="text_15">
     <!-- 95% CI -->
     <g style="fill:#555555;" transform="translate(997 89.3975)scale(0.16 -0.16)">
      <defs>
       <path d="M 77.484375 30.078125 
Q 74.03125 30.078125 72.125 27.078125 
Q 70.21875 24.078125 70.21875 18.5 
Q 70.21875 12.890625 72.09375 9.890625 
Q 73.96875 6.890625 77.484375 6.890625 
Q 81 6.890625 82.859375 9.890625 
Q 84.71875 12.890625 84.71875 18.5 
Q 84.71875 24.078125 82.828125 27.078125 
Q 80.953125 30.078125 77.484375 30.078125 
z
M 77.484375 38.28125 
Q 86.578125 38.28125 91.796875 33 
Q 97.015625 27.734375 97.015625 18.5 
Q 97.015625 9.28125 91.796875 3.921875 
Q 86.578125 -1.421875 77.484375 -1.421875 
Q 68.40625 -1.421875 63.15625 3.921875 
Q 57.90625 9.28125 57.90625 18.5 
Q 57.90625 27.6875 63.15625 32.984375 
Q 68.40625 38.28125 77.484375 38.28125 
z
M 32.71875 -1.421875 
L 21.921875 -1.421875 
L 67.484375 74.21875 
L 78.328125 74.21875 
z
M 22.703125 74.21875 
Q 31.78125 74.21875 36.984375 68.921875 
Q 42.1875 63.625 42.1875 54.390625 
Q 42.1875 45.171875 36.984375 39.84375 
Q 31.78125 34.515625 22.703125 34.515625 
Q 13.625 34.515625 8.421875 39.84375 
Q 3.21875 45.171875 3.21875 54.390625 
Q 3.21875 63.625 8.421875 68.921875 
Q 13.625 74.21875 22.703125 74.21875 
z
M 22.703125 66.015625 
Q 19.1875 66.015625 17.28125 62.984375 
Q 15.375 59.96875 15.375 54.390625 
Q 15.375 48.78125 17.28125 45.71875 
Q 19.1875 42.671875 22.703125 42.671875 
Q 26.21875 42.671875 28.09375 45.71875 
Q 29.984375 48.78125 29.984375 54.390625 
Q 29.984375 59.96875 28.078125 62.984375 
Q 26.171875 66.015625 22.703125 66.015625 
z
" id="DejaVuSans-Bold-37"/>
       <path d="M 67 4 
Q 61.8125 1.3125 56.203125 -0.046875 
Q 50.59375 -1.421875 44.484375 -1.421875 
Q 26.265625 -1.421875 15.625 8.765625 
Q 4.984375 18.953125 4.984375 36.375 
Q 4.984375 53.859375 15.625 64.03125 
Q 26.265625 74.21875 44.484375 74.21875 
Q 50.59375 74.21875 56.203125 72.84375 
Q 61.8125 71.484375 67 68.796875 
L 67 53.71875 
Q 61.765625 57.28125 56.6875 58.9375 
Q 51.609375 60.59375 46 60.59375 
Q 35.9375 60.59375 30.171875 54.140625 
Q 24.421875 47.703125 24.421875 36.375 
Q 24.421875 25.09375 30.171875 18.640625 
Q 35.9375 12.203125 46 12.203125 
Q 51.609375 12.203125 56.6875 13.859375 
Q 61.765625 15.53125 67 19.09375 
z
" id="DejaVuSans-Bold-67"/>
       <path d="M 9.1875 72.90625 
L 27.984375 72.90625 
L 27.984375 0 
L 9.1875 0 
z
" id="DejaVuSans-Bold-73"/>
      </defs>
      <use xlink:href="#DejaVuSans-Bold-57"/>
      <use x="69.580078" xlink:href="#DejaVuSans-Bold-53"/>
      <use x="139.160156" xlink:href="#DejaVuSans-Bold-37"/>
      <use x="239.355469" xlink:href="#DejaVuSans-Bold-32"/>
      <use x="274.169922" xlink:href="#DejaVuSans-Bold-67"/>
      <use x="347.558594" xlink:href="#DejaVuSans-Bold-73"/>
     </g>
    </g>
    <g id="patch_6">
     <path d="M 952.2 112.8825 
L 984.2 112.8825 
L 984.2 101.6825 
L 952.2 101.6825 
z
" style="fill:#c8c8c8;stroke:#c8c8c8;stroke-linejoin:miter;"/>
    </g>
    <g id="text_16">
     <!-- 65% CI -->
     <g style="fill:#555555;" transform="translate(997 112.8825)scale(0.16 -0.16)">
      <defs>
       <path d="M 36.1875 35.984375 
Q 31.25 35.984375 28.78125 32.78125 
Q 26.3125 29.59375 26.3125 23.1875 
Q 26.3125 16.796875 28.78125 13.59375 
Q 31.25 10.40625 36.1875 10.40625 
Q 41.15625 10.40625 43.625 13.59375 
Q 46.09375 16.796875 46.09375 23.1875 
Q 46.09375 29.59375 43.625 32.78125 
Q 41.15625 35.984375 36.1875 35.984375 
z
M 59.421875 71 
L 59.421875 57.515625 
Q 54.78125 59.71875 50.671875 60.765625 
Q 46.578125 61.8125 42.671875 61.8125 
Q 34.28125 61.8125 29.59375 57.140625 
Q 24.90625 52.484375 24.125 43.3125 
Q 27.34375 45.703125 31.09375 46.890625 
Q 34.859375 48.09375 39.3125 48.09375 
Q 50.484375 48.09375 57.34375 41.546875 
Q 64.203125 35.015625 64.203125 24.421875 
Q 64.203125 12.703125 56.53125 5.640625 
Q 48.875 -1.421875 35.984375 -1.421875 
Q 21.78125 -1.421875 13.984375 8.171875 
Q 6.203125 17.78125 6.203125 35.40625 
Q 6.203125 53.46875 15.3125 63.796875 
Q 24.421875 74.125 40.28125 74.125 
Q 45.3125 74.125 50.046875 73.34375 
Q 54.78125 72.5625 59.421875 71 
z
" id="DejaVuSans-Bold-54"/>
      </defs>
      <use xlink:href="#DejaVuSans-Bold-54"/>
      <use x="69.580078" xlink:href="#DejaVuSans-Bold-53"/>
      <use x="139.160156" xlink:href="#DejaVuSans-Bold-37"/>
      <use x="239.355469" xlink:href="#DejaVuSans-Bold-32"/>
      <use x="274.169922" xlink:href="#DejaVuSans-Bold-67"/>
      <use x="347.558594" xlink:href="#DejaVuSans-Bold-73"/>
     </g>
    </g>
   </g>
  </g>
 </g>
 <defs>
  <clipPath id="p6045c29ad7">
   <rect height="502.12" width="1086.118" x="51.842" y="39.16"/>
  </clipPath>
 </defs>
</svg>
