<?xml version="1.0" encoding="utf-8" standalone="no"?>
<!DOCTYPE svg PUBLIC "-//W3C//DTD SVG 1.1//EN"
  "http://www.w3.org/Graphics/SVG/1.1/DTD/svg11.dtd">
<!-- Created with matplotlib (https://matplotlib.org/) -->
<svg height="576pt" version="1.1" viewBox="0 0 1152 576" width="1152pt" xmlns="http://www.w3.org/2000/svg" xmlns:xlink="http://www.w3.org/1999/xlink">
 <metadata>
  <rdf:RDF xmlns:cc="http://creativecommons.org/ns#" xmlns:dc="http://purl.org/dc/elements/1.1/" xmlns:rdf="http://www.w3.org/1999/02/22-rdf-syntax-ns#">
   <cc:Work>
    <dc:type rdf:resource="http://purl.org/dc/dcmitype/StillImage"/>
    <dc:date>2020-10-01T17:18:54.690730</dc:date>
    <dc:format>image/svg+xml</dc:format>
    <dc:creator>
     <cc:Agent>
      <dc:title>Matplotlib v3.3.2, https://matplotlib.org/</dc:title>
     </cc:Agent>
    </dc:creator>
   </cc:Work>
  </rdf:RDF>
 </metadata>
 <defs>
  <style type="text/css">*{stroke-linecap:butt;stroke-linejoin:round;}</style>
 </defs>
 <g id="figure_1">
  <g id="patch_1">
   <path d="M 0 576 
L 1152 576 
L 1152 0 
L 0 0 
z
" style="fill:#ffffff;"/>
  </g>
  <g id="axes_1">
   <g id="patch_2">
    <path d="M 51.842 541.28 
L 1106.28 541.28 
L 1106.28 39.16 
L 51.842 39.16 
z
" style="fill:#ffffff;"/>
   </g>
   <g id="PolyCollection_1">
    <path clip-path="url(#p9faa8b9e65)" d="M 51.842 -555.28529 
L 51.842 439.236258 
L 56.863133 413.320387 
L 61.884267 384.165032 
L 66.9054 356.629419 
L 71.926533 324.234581 
L 76.947667 301.558194 
L 81.9688 285.360774 
L 86.989933 270.783097 
L 92.011067 259.444903 
L 97.0322 251.346194 
L 102.053333 244.867226 
L 107.074467 240.008 
L 112.0956 235.148774 
L 117.116733 233.529032 
L 122.137867 236.768516 
L 127.159 243.247484 
L 132.180133 252.965935 
L 137.201267 261.064645 
L 142.2224 267.543613 
L 147.243533 274.022581 
L 152.264667 280.501548 
L 157.2858 293.459484 
L 162.306933 312.896387 
L 167.328067 337.192516 
L 172.3492 361.488645 
L 177.370333 382.54529 
L 182.391467 395.503226 
L 187.4126 401.982194 
L 192.433733 403.601935 
L 197.454867 405.221677 
L 202.476 405.221677 
L 207.497133 405.221677 
L 212.518267 401.982194 
L 217.5394 395.503226 
L 222.560533 387.404516 
L 227.581667 382.54529 
L 232.6028 384.165032 
L 237.623933 395.503226 
L 242.645067 410.080903 
L 247.6662 423.038839 
L 252.687333 429.517806 
L 257.708467 429.517806 
L 262.7296 424.658581 
L 267.750733 421.419097 
L 272.771867 424.658581 
L 277.793 432.75729 
L 282.814133 445.715226 
L 287.835267 455.433677 
L 292.8564 465.152129 
L 297.877533 471.631097 
L 302.898667 481.349548 
L 307.9198 491.068 
L 312.940933 504.025935 
L 317.962067 512.124645 
L 322.9832 515.364129 
L 328.004333 512.124645 
L 333.025467 504.025935 
L 338.0466 497.546968 
L 343.067733 494.307484 
L 348.088867 492.687742 
L 353.11 492.687742 
L 358.131133 489.448258 
L 363.152267 484.589032 
L 368.1734 479.729806 
L 373.194533 479.729806 
L 378.215667 482.96929 
L 383.2368 487.828516 
L 388.257933 492.687742 
L 393.279067 494.307484 
L 398.3002 494.307484 
L 403.321333 494.307484 
L 408.342467 495.927226 
L 413.3636 497.546968 
L 418.384733 495.927226 
L 423.405867 491.068 
L 428.427 481.349548 
L 433.448133 470.011355 
L 438.469267 458.673161 
L 443.4904 450.574452 
L 448.511533 447.334968 
L 453.532667 447.334968 
L 458.5538 448.95471 
L 463.574933 452.194194 
L 468.596067 453.813935 
L 473.6172 457.053419 
L 478.638333 460.292903 
L 483.659467 466.771871 
L 488.6806 470.011355 
L 493.701733 470.011355 
L 498.722867 463.532387 
L 503.744 450.574452 
L 508.765133 437.616516 
L 513.786267 424.658581 
L 518.8074 416.559871 
L 523.828533 416.559871 
L 528.849667 419.799355 
L 533.8708 424.658581 
L 538.891933 431.137548 
L 543.913067 435.996774 
L 548.9342 440.856 
L 553.955333 447.334968 
L 558.976467 455.433677 
L 563.9976 463.532387 
L 569.018733 474.870581 
L 574.039867 484.589032 
L 579.061 494.307484 
L 584.082133 504.025935 
L 589.103267 510.504903 
L 594.1244 512.124645 
L 599.145533 512.124645 
L 604.166667 508.885161 
L 609.1878 504.025935 
L 614.208933 500.786452 
L 619.230067 499.16671 
L 624.2512 499.16671 
L 629.272333 499.16671 
L 634.293467 500.786452 
L 639.3146 500.786452 
L 644.335733 500.786452 
L 649.356867 499.16671 
L 654.378 499.16671 
L 659.399133 502.406194 
L 664.420267 504.025935 
L 669.4414 507.265419 
L 674.462533 505.645677 
L 679.483667 502.406194 
L 684.5048 492.687742 
L 689.525933 479.729806 
L 694.547067 466.771871 
L 699.5682 453.813935 
L 704.589333 442.475742 
L 709.610467 431.137548 
L 714.6316 418.179613 
L 719.652733 405.221677 
L 724.673867 390.644 
L 729.695 379.305806 
L 734.716133 371.207097 
L 739.737267 367.967613 
L 744.7584 367.967613 
L 749.779533 372.826839 
L 754.800667 376.066323 
L 759.8218 379.305806 
L 764.842933 379.305806 
L 769.864067 372.826839 
L 774.8852 363.108387 
L 779.906333 351.770194 
L 784.927467 340.432 
L 789.9486 332.33329 
L 794.969733 327.474065 
L 799.990867 327.474065 
L 805.012 330.713548 
L 810.033133 333.953032 
L 815.054267 338.812258 
L 820.0754 342.051742 
L 825.096533 345.291226 
L 830.117667 346.910968 
L 835.1388 348.53071 
L 840.159933 351.770194 
L 845.181067 358.249161 
L 850.2022 366.347871 
L 855.223333 379.305806 
L 860.244467 395.503226 
L 865.2656 411.700645 
L 870.286733 424.658581 
L 875.307867 435.996774 
L 880.329 440.856 
L 885.350133 442.475742 
L 890.371267 440.856 
L 895.3924 437.616516 
L 900.413533 434.377032 
L 905.434667 431.137548 
L 910.4558 429.517806 
L 915.476933 426.278323 
L 920.498067 424.658581 
L 925.5192 421.419097 
L 930.540333 419.799355 
L 935.561467 418.179613 
L 940.5826 413.320387 
L 945.603733 406.841419 
L 950.624867 397.122968 
L 955.646 387.404516 
L 960.667133 374.446581 
L 965.688267 363.108387 
L 970.7094 353.389935 
L 975.730533 345.291226 
L 980.751667 338.812258 
L 985.7728 335.572774 
L 990.793933 335.572774 
L 995.815067 335.572774 
L 1000.8362 338.812258 
L 1005.857333 340.432 
L 1010.878467 340.432 
L 1015.8996 338.812258 
L 1020.920733 333.953032 
L 1025.941867 329.093806 
L 1030.963 324.234581 
L 1035.984133 320.995097 
L 1041.005267 322.614839 
L 1046.0264 325.854323 
L 1051.047533 329.093806 
L 1056.068667 332.33329 
L 1061.0898 333.953032 
L 1066.110933 333.953032 
L 1071.132067 335.572774 
L 1076.1532 338.812258 
L 1081.174333 343.671484 
L 1086.195467 348.53071 
L 1091.2166 355.009677 
L 1096.237733 358.249161 
L 1101.258867 363.108387 
L 1106.28 364.728129 
L 1106.28 306.417419 
L 1106.28 306.417419 
L 1101.258867 303.177935 
L 1096.237733 298.31871 
L 1091.2166 293.459484 
L 1086.195467 286.980516 
L 1081.174333 282.12129 
L 1076.1532 275.642323 
L 1071.132067 272.402839 
L 1066.110933 269.163355 
L 1061.0898 267.543613 
L 1056.068667 264.304129 
L 1051.047533 261.064645 
L 1046.0264 254.585677 
L 1041.005267 251.346194 
L 1035.984133 248.10671 
L 1030.963 248.10671 
L 1025.941867 251.346194 
L 1020.920733 254.585677 
L 1015.8996 257.825161 
L 1010.878467 259.444903 
L 1005.857333 256.205419 
L 1000.8362 252.965935 
L 995.815067 249.726452 
L 990.793933 246.486968 
L 985.7728 246.486968 
L 980.751667 246.486968 
L 975.730533 251.346194 
L 970.7094 256.205419 
L 965.688267 264.304129 
L 960.667133 274.022581 
L 955.646 285.360774 
L 950.624867 295.079226 
L 945.603733 303.177935 
L 940.5826 309.656903 
L 935.561467 314.516129 
L 930.540333 316.135871 
L 925.5192 317.755613 
L 920.498067 320.995097 
L 915.476933 322.614839 
L 910.4558 325.854323 
L 905.434667 327.474065 
L 900.413533 330.713548 
L 895.3924 333.953032 
L 890.371267 337.192516 
L 885.350133 340.432 
L 880.329 340.432 
L 875.307867 335.572774 
L 870.286733 325.854323 
L 865.2656 312.896387 
L 860.244467 296.698968 
L 855.223333 282.12129 
L 850.2022 267.543613 
L 845.181067 257.825161 
L 840.159933 251.346194 
L 835.1388 246.486968 
L 830.117667 241.627742 
L 825.096533 238.388258 
L 820.0754 233.529032 
L 815.054267 227.050065 
L 810.033133 220.571097 
L 805.012 214.092129 
L 799.990867 207.613161 
L 794.969733 205.993419 
L 789.9486 205.993419 
L 784.927467 210.852645 
L 779.906333 217.331613 
L 774.8852 227.050065 
L 769.864067 233.529032 
L 764.842933 236.768516 
L 759.8218 235.148774 
L 754.800667 230.289548 
L 749.779533 223.810581 
L 744.7584 215.711871 
L 739.737267 210.852645 
L 734.716133 210.852645 
L 729.695 214.092129 
L 724.673867 222.190839 
L 719.652733 230.289548 
L 714.6316 240.008 
L 709.610467 249.726452 
L 704.589333 257.825161 
L 699.5682 267.543613 
L 694.547067 278.881806 
L 689.525933 291.839742 
L 684.5048 306.417419 
L 679.483667 316.135871 
L 674.462533 324.234581 
L 669.4414 325.854323 
L 664.420267 324.234581 
L 659.399133 322.614839 
L 654.378 320.995097 
L 649.356867 322.614839 
L 644.335733 324.234581 
L 639.3146 327.474065 
L 634.293467 327.474065 
L 629.272333 327.474065 
L 624.2512 327.474065 
L 619.230067 329.093806 
L 614.208933 333.953032 
L 609.1878 340.432 
L 604.166667 348.53071 
L 599.145533 355.009677 
L 594.1244 359.868903 
L 589.103267 358.249161 
L 584.082133 355.009677 
L 579.061 348.53071 
L 574.039867 340.432 
L 569.018733 330.713548 
L 563.9976 322.614839 
L 558.976467 314.516129 
L 553.955333 308.037161 
L 548.9342 301.558194 
L 543.913067 296.698968 
L 538.891933 291.839742 
L 533.8708 285.360774 
L 528.849667 278.881806 
L 523.828533 274.022581 
L 518.8074 274.022581 
L 513.786267 280.501548 
L 508.765133 291.839742 
L 503.744 304.797677 
L 498.722867 317.755613 
L 493.701733 324.234581 
L 488.6806 327.474065 
L 483.659467 324.234581 
L 478.638333 320.995097 
L 473.6172 316.135871 
L 468.596067 314.516129 
L 463.574933 312.896387 
L 458.5538 311.276645 
L 453.532667 309.656903 
L 448.511533 308.037161 
L 443.4904 311.276645 
L 438.469267 317.755613 
L 433.448133 329.093806 
L 428.427 342.051742 
L 423.405867 353.389935 
L 418.384733 359.868903 
L 413.3636 363.108387 
L 408.342467 363.108387 
L 403.321333 363.108387 
L 398.3002 364.728129 
L 393.279067 367.967613 
L 388.257933 367.967613 
L 383.2368 364.728129 
L 378.215667 359.868903 
L 373.194533 358.249161 
L 368.1734 359.868903 
L 363.152267 366.347871 
L 358.131133 371.207097 
L 353.11 376.066323 
L 348.088867 379.305806 
L 343.067733 382.54529 
L 338.0466 389.024258 
L 333.025467 400.362452 
L 328.004333 413.320387 
L 322.9832 421.419097 
L 317.962067 419.799355 
L 312.940933 411.700645 
L 307.9198 400.362452 
L 302.898667 389.024258 
L 297.877533 380.925548 
L 292.8564 374.446581 
L 287.835267 367.967613 
L 282.814133 358.249161 
L 277.793 346.910968 
L 272.771867 338.812258 
L 267.750733 335.572774 
L 262.7296 338.812258 
L 257.708467 343.671484 
L 252.687333 345.291226 
L 247.6662 340.432 
L 242.645067 327.474065 
L 237.623933 312.896387 
L 232.6028 303.177935 
L 227.581667 299.938452 
L 222.560533 303.177935 
L 217.5394 311.276645 
L 212.518267 316.135871 
L 207.497133 319.375355 
L 202.476 319.375355 
L 197.454867 319.375355 
L 192.433733 319.375355 
L 187.4126 317.755613 
L 182.391467 311.276645 
L 177.370333 296.698968 
L 172.3492 277.262065 
L 167.328067 251.346194 
L 162.306933 225.430323 
L 157.2858 204.373677 
L 152.264667 189.796 
L 147.243533 178.457806 
L 142.2224 168.739355 
L 137.201267 159.020903 
L 132.180133 146.062968 
L 127.159 131.48529 
L 122.137867 118.527355 
L 117.116733 108.808903 
L 112.0956 100.710194 
L 107.074467 94.231226 
L 102.053333 89.372 
L 97.0322 81.27329 
L 92.011067 73.174581 
L 86.989933 63.456129 
L 81.9688 52.117935 
L 76.947667 32.681032 
L 71.926533 0.286194 
L 66.9054 -122.814194 
L 61.884267 -242.675097 
L 56.863133 -391.691355 
L 51.842 -555.28529 
z
" style="fill:#e6e6e6;stroke:#e6e6e6;"/>
   </g>
   <g id="PolyCollection_2">
    <path clip-path="url(#p9faa8b9e65)" d="M 51.842 -263.731742 
L 51.842 348.53071 
L 56.863133 316.135871 
L 61.884267 286.980516 
L 66.9054 264.304129 
L 71.926533 240.008 
L 76.947667 231.90929 
L 81.9688 225.430323 
L 86.989933 217.331613 
L 92.011067 210.852645 
L 97.0322 207.613161 
L 102.053333 204.373677 
L 107.074467 202.753935 
L 112.0956 202.753935 
L 117.116733 204.373677 
L 122.137867 209.232903 
L 127.159 217.331613 
L 132.180133 225.430323 
L 137.201267 235.148774 
L 142.2224 243.247484 
L 147.243533 249.726452 
L 152.264667 257.825161 
L 157.2858 270.783097 
L 162.306933 290.22 
L 167.328067 314.516129 
L 172.3492 340.432 
L 177.370333 359.868903 
L 182.391467 372.826839 
L 187.4126 379.305806 
L 192.433733 380.925548 
L 197.454867 380.925548 
L 202.476 382.54529 
L 207.497133 382.54529 
L 212.518267 379.305806 
L 217.5394 372.826839 
L 222.560533 366.347871 
L 227.581667 361.488645 
L 232.6028 364.728129 
L 237.623933 374.446581 
L 242.645067 389.024258 
L 247.6662 400.362452 
L 252.687333 406.841419 
L 257.708467 405.221677 
L 262.7296 401.982194 
L 267.750733 398.74271 
L 272.771867 403.601935 
L 277.793 413.320387 
L 282.814133 424.658581 
L 287.835267 435.996774 
L 292.8564 444.095484 
L 297.877533 450.574452 
L 302.898667 460.292903 
L 307.9198 471.631097 
L 312.940933 484.589032 
L 317.962067 494.307484 
L 322.9832 497.546968 
L 328.004333 491.068 
L 333.025467 481.349548 
L 338.0466 471.631097 
L 343.067733 466.771871 
L 348.088867 463.532387 
L 353.11 461.912645 
L 358.131133 458.673161 
L 363.152267 453.813935 
L 368.1734 448.95471 
L 373.194533 447.334968 
L 378.215667 450.574452 
L 383.2368 455.433677 
L 388.257933 460.292903 
L 393.279067 461.912645 
L 398.3002 460.292903 
L 403.321333 460.292903 
L 408.342467 461.912645 
L 413.3636 461.912645 
L 418.384733 461.912645 
L 423.405867 457.053419 
L 428.427 447.334968 
L 433.448133 434.377032 
L 438.469267 423.038839 
L 443.4904 416.559871 
L 448.511533 411.700645 
L 453.532667 411.700645 
L 458.5538 413.320387 
L 463.574933 414.940129 
L 468.596067 418.179613 
L 473.6172 421.419097 
L 478.638333 426.278323 
L 483.659467 431.137548 
L 488.6806 435.996774 
L 493.701733 434.377032 
L 498.722867 427.898065 
L 503.744 414.940129 
L 508.765133 401.982194 
L 513.786267 389.024258 
L 518.8074 380.925548 
L 523.828533 379.305806 
L 528.849667 382.54529 
L 533.8708 389.024258 
L 538.891933 393.883484 
L 543.913067 398.74271 
L 548.9342 405.221677 
L 553.955333 411.700645 
L 558.976467 419.799355 
L 563.9976 427.898065 
L 569.018733 439.236258 
L 574.039867 448.95471 
L 579.061 458.673161 
L 584.082133 466.771871 
L 589.103267 473.250839 
L 594.1244 474.870581 
L 599.145533 474.870581 
L 604.166667 470.011355 
L 609.1878 463.532387 
L 614.208933 458.673161 
L 619.230067 455.433677 
L 624.2512 455.433677 
L 629.272333 455.433677 
L 634.293467 455.433677 
L 639.3146 455.433677 
L 644.335733 453.813935 
L 649.356867 452.194194 
L 654.378 452.194194 
L 659.399133 453.813935 
L 664.420267 457.053419 
L 669.4414 458.673161 
L 674.462533 457.053419 
L 679.483667 452.194194 
L 684.5048 442.475742 
L 689.525933 429.517806 
L 694.547067 418.179613 
L 699.5682 405.221677 
L 704.589333 395.503226 
L 709.610467 385.784774 
L 714.6316 374.446581 
L 719.652733 361.488645 
L 724.673867 348.53071 
L 729.695 337.192516 
L 734.716133 330.713548 
L 739.737267 327.474065 
L 744.7584 330.713548 
L 749.779533 335.572774 
L 754.800667 340.432 
L 759.8218 343.671484 
L 764.842933 343.671484 
L 769.864067 338.812258 
L 774.8852 330.713548 
L 779.906333 319.375355 
L 784.927467 309.656903 
L 789.9486 301.558194 
L 794.969733 296.698968 
L 799.990867 296.698968 
L 805.012 299.938452 
L 810.033133 304.797677 
L 815.054267 309.656903 
L 820.0754 314.516129 
L 825.096533 319.375355 
L 830.117667 322.614839 
L 835.1388 325.854323 
L 840.159933 329.093806 
L 845.181067 335.572774 
L 850.2022 343.671484 
L 855.223333 355.009677 
L 860.244467 371.207097 
L 865.2656 385.784774 
L 870.286733 400.362452 
L 875.307867 410.080903 
L 880.329 416.559871 
L 885.350133 416.559871 
L 890.371267 414.940129 
L 895.3924 413.320387 
L 900.413533 410.080903 
L 905.434667 406.841419 
L 910.4558 405.221677 
L 915.476933 401.982194 
L 920.498067 400.362452 
L 925.5192 398.74271 
L 930.540333 395.503226 
L 935.561467 393.883484 
L 940.5826 389.024258 
L 945.603733 382.54529 
L 950.624867 372.826839 
L 955.646 361.488645 
L 960.667133 350.150452 
L 965.688267 337.192516 
L 970.7094 329.093806 
L 975.730533 320.995097 
L 980.751667 316.135871 
L 985.7728 314.516129 
L 990.793933 314.516129 
L 995.815067 316.135871 
L 1000.8362 317.755613 
L 1005.857333 320.995097 
L 1010.878467 320.995097 
L 1015.8996 319.375355 
L 1020.920733 314.516129 
L 1025.941867 308.037161 
L 1030.963 304.797677 
L 1035.984133 303.177935 
L 1041.005267 304.797677 
L 1046.0264 309.656903 
L 1051.047533 312.896387 
L 1056.068667 316.135871 
L 1061.0898 317.755613 
L 1066.110933 319.375355 
L 1071.132067 320.995097 
L 1076.1532 324.234581 
L 1081.174333 327.474065 
L 1086.195467 333.953032 
L 1091.2166 340.432 
L 1096.237733 345.291226 
L 1101.258867 350.150452 
L 1106.28 353.389935 
L 1106.28 324.234581 
L 1106.28 324.234581 
L 1101.258867 320.995097 
L 1096.237733 316.135871 
L 1091.2166 311.276645 
L 1086.195467 304.797677 
L 1081.174333 298.31871 
L 1076.1532 293.459484 
L 1071.132067 290.22 
L 1066.110933 286.980516 
L 1061.0898 285.360774 
L 1056.068667 283.741032 
L 1051.047533 280.501548 
L 1046.0264 275.642323 
L 1041.005267 270.783097 
L 1035.984133 267.543613 
L 1030.963 267.543613 
L 1025.941867 270.783097 
L 1020.920733 275.642323 
L 1015.8996 280.501548 
L 1010.878467 282.12129 
L 1005.857333 280.501548 
L 1000.8362 277.262065 
L 995.815067 274.022581 
L 990.793933 270.783097 
L 985.7728 270.783097 
L 980.751667 272.402839 
L 975.730533 275.642323 
L 970.7094 282.12129 
L 965.688267 290.22 
L 960.667133 301.558194 
L 955.646 312.896387 
L 950.624867 324.234581 
L 945.603733 332.33329 
L 940.5826 338.812258 
L 935.561467 343.671484 
L 930.540333 345.291226 
L 925.5192 348.53071 
L 920.498067 350.150452 
L 915.476933 351.770194 
L 910.4558 355.009677 
L 905.434667 356.629419 
L 900.413533 359.868903 
L 895.3924 363.108387 
L 890.371267 366.347871 
L 885.350133 367.967613 
L 880.329 367.967613 
L 875.307867 361.488645 
L 870.286733 351.770194 
L 865.2656 338.812258 
L 860.244467 322.614839 
L 855.223333 308.037161 
L 850.2022 295.079226 
L 845.181067 286.980516 
L 840.159933 280.501548 
L 835.1388 275.642323 
L 830.117667 272.402839 
L 825.096533 267.543613 
L 820.0754 262.684387 
L 815.054267 256.205419 
L 810.033133 249.726452 
L 805.012 244.867226 
L 799.990867 240.008 
L 794.969733 238.388258 
L 789.9486 240.008 
L 784.927467 246.486968 
L 779.906333 254.585677 
L 774.8852 264.304129 
L 769.864067 272.402839 
L 764.842933 275.642323 
L 759.8218 275.642323 
L 754.800667 270.783097 
L 749.779533 264.304129 
L 744.7584 257.825161 
L 739.737267 252.965935 
L 734.716133 252.965935 
L 729.695 257.825161 
L 724.673867 267.543613 
L 719.652733 277.262065 
L 714.6316 288.600258 
L 709.610467 298.31871 
L 704.589333 308.037161 
L 699.5682 316.135871 
L 694.547067 327.474065 
L 689.525933 340.432 
L 684.5048 351.770194 
L 679.483667 363.108387 
L 674.462533 367.967613 
L 669.4414 371.207097 
L 664.420267 369.587355 
L 659.399133 367.967613 
L 654.378 366.347871 
L 649.356867 366.347871 
L 644.335733 367.967613 
L 639.3146 371.207097 
L 634.293467 372.826839 
L 629.272333 372.826839 
L 624.2512 372.826839 
L 619.230067 374.446581 
L 614.208933 377.686065 
L 609.1878 384.165032 
L 604.166667 390.644 
L 599.145533 397.122968 
L 594.1244 398.74271 
L 589.103267 398.74271 
L 584.082133 393.883484 
L 579.061 387.404516 
L 574.039867 379.305806 
L 569.018733 369.587355 
L 563.9976 359.868903 
L 558.976467 351.770194 
L 553.955333 343.671484 
L 548.9342 337.192516 
L 543.913067 332.33329 
L 538.891933 327.474065 
L 533.8708 320.995097 
L 528.849667 316.135871 
L 523.828533 311.276645 
L 518.8074 312.896387 
L 513.786267 319.375355 
L 508.765133 330.713548 
L 503.744 345.291226 
L 498.722867 358.249161 
L 493.701733 364.728129 
L 488.6806 366.347871 
L 483.659467 363.108387 
L 478.638333 358.249161 
L 473.6172 353.389935 
L 468.596067 351.770194 
L 463.574933 348.53071 
L 458.5538 346.910968 
L 453.532667 345.291226 
L 448.511533 345.291226 
L 443.4904 348.53071 
L 438.469267 356.629419 
L 433.448133 367.967613 
L 428.427 379.305806 
L 423.405867 390.644 
L 418.384733 395.503226 
L 413.3636 397.122968 
L 408.342467 397.122968 
L 403.321333 398.74271 
L 398.3002 398.74271 
L 393.279067 400.362452 
L 388.257933 400.362452 
L 383.2368 397.122968 
L 378.215667 392.263742 
L 373.194533 389.024258 
L 368.1734 390.644 
L 363.152267 397.122968 
L 358.131133 401.982194 
L 353.11 406.841419 
L 348.088867 408.461161 
L 343.067733 411.700645 
L 338.0466 418.179613 
L 333.025467 429.517806 
L 328.004333 440.856 
L 322.9832 448.95471 
L 317.962067 447.334968 
L 312.940933 439.236258 
L 307.9198 426.278323 
L 302.898667 414.940129 
L 297.877533 406.841419 
L 292.8564 400.362452 
L 287.835267 392.263742 
L 282.814133 382.54529 
L 277.793 371.207097 
L 272.771867 361.488645 
L 267.750733 358.249161 
L 262.7296 361.488645 
L 257.708467 366.347871 
L 252.687333 366.347871 
L 247.6662 361.488645 
L 242.645067 348.53071 
L 237.623933 335.572774 
L 232.6028 324.234581 
L 227.581667 322.614839 
L 222.560533 325.854323 
L 217.5394 333.953032 
L 212.518267 338.812258 
L 207.497133 342.051742 
L 202.476 342.051742 
L 197.454867 340.432 
L 192.433733 340.432 
L 187.4126 338.812258 
L 182.391467 332.33329 
L 177.370333 319.375355 
L 172.3492 299.938452 
L 167.328067 274.022581 
L 162.306933 249.726452 
L 157.2858 228.669806 
L 152.264667 214.092129 
L 147.243533 204.373677 
L 142.2224 196.274968 
L 137.201267 186.556516 
L 132.180133 175.218323 
L 127.159 162.260387 
L 122.137867 152.541935 
L 117.116733 142.823484 
L 112.0956 137.964258 
L 107.074467 133.105032 
L 102.053333 129.865548 
L 97.0322 126.626065 
L 92.011067 121.766839 
L 86.989933 118.527355 
L 81.9688 113.668129 
L 76.947667 103.949677 
L 71.926533 84.512774 
L 66.9054 8.384903 
L 61.884267 -67.742968 
L 56.863133 -160.068258 
L 51.842 -263.731742 
z
" style="fill:#c8c8c8;stroke:#c8c8c8;"/>
   </g>
   <g id="matplotlib.axis_1">
    <g id="xtick_1">
     <g id="line2d_1">
      <defs>
       <path d="M 0 0 
L 0 3.5 
" id="m8d4e880c08" style="stroke:#555555;stroke-width:0.8;"/>
      </defs>
      <g>
       <use style="fill:#555555;stroke:#555555;stroke-width:0.8;" x="187.4126" xlink:href="#m8d4e880c08" y="541.28"/>
      </g>
     </g>
     <g id="text_1">
      <!-- April -->
      <g style="fill:#555555;" transform="translate(168.733537 558.917812)scale(0.14 -0.14)">
       <defs>
        <path d="M 53.421875 13.28125 
L 24.03125 13.28125 
L 19.390625 0 
L 0.484375 0 
L 27.484375 72.90625 
L 49.90625 72.90625 
L 76.90625 0 
L 58.015625 0 
z
M 28.71875 26.8125 
L 48.6875 26.8125 
L 38.71875 55.8125 
z
" id="DejaVuSans-Bold-65"/>
        <path d="M 25.875 7.90625 
L 25.875 -20.796875 
L 8.40625 -20.796875 
L 8.40625 54.6875 
L 25.875 54.6875 
L 25.875 46.6875 
Q 29.5 51.46875 33.890625 53.734375 
Q 38.28125 56 44 56 
Q 54.109375 56 60.59375 47.96875 
Q 67.09375 39.9375 67.09375 27.296875 
Q 67.09375 14.65625 60.59375 6.609375 
Q 54.109375 -1.421875 44 -1.421875 
Q 38.28125 -1.421875 33.890625 0.84375 
Q 29.5 3.125 25.875 7.90625 
z
M 37.5 43.3125 
Q 31.890625 43.3125 28.875 39.1875 
Q 25.875 35.0625 25.875 27.296875 
Q 25.875 19.53125 28.875 15.40625 
Q 31.890625 11.28125 37.5 11.28125 
Q 43.109375 11.28125 46.0625 15.375 
Q 49.03125 19.484375 49.03125 27.296875 
Q 49.03125 35.109375 46.0625 39.203125 
Q 43.109375 43.3125 37.5 43.3125 
z
" id="DejaVuSans-Bold-112"/>
        <path d="M 49.03125 39.796875 
Q 46.734375 40.875 44.453125 41.375 
Q 42.1875 41.890625 39.890625 41.890625 
Q 33.15625 41.890625 29.515625 37.5625 
Q 25.875 33.25 25.875 25.203125 
L 25.875 0 
L 8.40625 0 
L 8.40625 54.6875 
L 25.875 54.6875 
L 25.875 45.703125 
Q 29.25 51.078125 33.609375 53.53125 
Q 37.984375 56 44.09375 56 
Q 44.96875 56 45.984375 55.921875 
Q 47.015625 55.859375 48.96875 55.609375 
z
" id="DejaVuSans-Bold-114"/>
        <path d="M 8.40625 54.6875 
L 25.875 54.6875 
L 25.875 0 
L 8.40625 0 
z
M 8.40625 75.984375 
L 25.875 75.984375 
L 25.875 61.71875 
L 8.40625 61.71875 
z
" id="DejaVuSans-Bold-105"/>
        <path d="M 8.40625 75.984375 
L 25.875 75.984375 
L 25.875 0 
L 8.40625 0 
z
" id="DejaVuSans-Bold-108"/>
       </defs>
       <use xlink:href="#DejaVuSans-Bold-65"/>
       <use x="77.392578" xlink:href="#DejaVuSans-Bold-112"/>
       <use x="148.974609" xlink:href="#DejaVuSans-Bold-114"/>
       <use x="198.291016" xlink:href="#DejaVuSans-Bold-105"/>
       <use x="232.568359" xlink:href="#DejaVuSans-Bold-108"/>
      </g>
     </g>
    </g>
    <g id="xtick_2">
     <g id="line2d_2">
      <g>
       <use style="fill:#555555;stroke:#555555;stroke-width:0.8;" x="338.0466" xlink:href="#m8d4e880c08" y="541.28"/>
      </g>
     </g>
     <g id="text_2">
      <!-- May -->
      <g style="fill:#555555;" transform="translate(322.012225 558.808437)scale(0.14 -0.14)">
       <defs>
        <path d="M 9.1875 72.90625 
L 33.109375 72.90625 
L 49.703125 33.890625 
L 66.40625 72.90625 
L 90.28125 72.90625 
L 90.28125 0 
L 72.515625 0 
L 72.515625 53.328125 
L 55.71875 14.015625 
L 43.796875 14.015625 
L 27 53.328125 
L 27 0 
L 9.1875 0 
z
" id="DejaVuSans-Bold-77"/>
        <path d="M 32.90625 24.609375 
Q 27.4375 24.609375 24.671875 22.75 
Q 21.921875 20.90625 21.921875 17.28125 
Q 21.921875 13.96875 24.140625 12.078125 
Q 26.375 10.203125 30.328125 10.203125 
Q 35.25 10.203125 38.625 13.734375 
Q 42 17.28125 42 22.609375 
L 42 24.609375 
z
M 59.625 31.203125 
L 59.625 0 
L 42 0 
L 42 8.109375 
Q 38.484375 3.125 34.078125 0.84375 
Q 29.6875 -1.421875 23.390625 -1.421875 
Q 14.890625 -1.421875 9.59375 3.53125 
Q 4.296875 8.5 4.296875 16.40625 
Q 4.296875 26.03125 10.90625 30.515625 
Q 17.53125 35.015625 31.6875 35.015625 
L 42 35.015625 
L 42 36.375 
Q 42 40.53125 38.71875 42.453125 
Q 35.453125 44.390625 28.515625 44.390625 
Q 22.90625 44.390625 18.0625 43.265625 
Q 13.234375 42.140625 9.078125 39.890625 
L 9.078125 53.21875 
Q 14.703125 54.59375 20.359375 55.296875 
Q 26.03125 56 31.6875 56 
Q 46.484375 56 53.046875 50.171875 
Q 59.625 44.34375 59.625 31.203125 
z
" id="DejaVuSans-Bold-97"/>
        <path d="M 1.21875 54.6875 
L 18.703125 54.6875 
L 33.40625 17.578125 
L 45.90625 54.6875 
L 63.375 54.6875 
L 40.375 -5.171875 
Q 36.921875 -14.3125 32.296875 -17.9375 
Q 27.6875 -21.578125 20.125 -21.578125 
L 10.015625 -21.578125 
L 10.015625 -10.109375 
L 15.484375 -10.109375 
Q 19.921875 -10.109375 21.9375 -8.6875 
Q 23.96875 -7.28125 25.09375 -3.609375 
L 25.59375 -2.09375 
z
" id="DejaVuSans-Bold-121"/>
       </defs>
       <use xlink:href="#DejaVuSans-Bold-77"/>
       <use x="99.511719" xlink:href="#DejaVuSans-Bold-97"/>
       <use x="163.867188" xlink:href="#DejaVuSans-Bold-121"/>
      </g>
     </g>
    </g>
    <g id="xtick_3">
     <g id="line2d_3">
      <g>
       <use style="fill:#555555;stroke:#555555;stroke-width:0.8;" x="493.701733" xlink:href="#m8d4e880c08" y="541.28"/>
      </g>
     </g>
     <g id="text_3">
      <!-- June -->
      <g style="fill:#555555;" transform="translate(476.383296 558.917812)scale(0.14 -0.14)">
       <defs>
        <path d="M 9.1875 72.90625 
L 27.984375 72.90625 
L 27.984375 7.078125 
Q 27.984375 -6.546875 20.578125 -13.28125 
Q 13.1875 -20.015625 -1.8125 -20.015625 
L -5.609375 -20.015625 
L -5.609375 -5.8125 
L -2.6875 -5.8125 
Q 3.171875 -5.8125 6.171875 -2.53125 
Q 9.1875 0.734375 9.1875 7.078125 
z
" id="DejaVuSans-Bold-74"/>
        <path d="M 7.8125 21.296875 
L 7.8125 54.6875 
L 25.390625 54.6875 
L 25.390625 49.21875 
Q 25.390625 44.78125 25.34375 38.0625 
Q 25.296875 31.34375 25.296875 29.109375 
Q 25.296875 22.515625 25.640625 19.609375 
Q 25.984375 16.703125 26.8125 15.375 
Q 27.875 13.671875 29.609375 12.734375 
Q 31.34375 11.8125 33.59375 11.8125 
Q 39.0625 11.8125 42.1875 16.015625 
Q 45.3125 20.21875 45.3125 27.6875 
L 45.3125 54.6875 
L 62.796875 54.6875 
L 62.796875 0 
L 45.3125 0 
L 45.3125 7.90625 
Q 41.359375 3.125 36.9375 0.84375 
Q 32.515625 -1.421875 27.203125 -1.421875 
Q 17.71875 -1.421875 12.765625 4.390625 
Q 7.8125 10.203125 7.8125 21.296875 
z
" id="DejaVuSans-Bold-117"/>
        <path d="M 63.375 33.296875 
L 63.375 0 
L 45.796875 0 
L 45.796875 5.421875 
L 45.796875 25.484375 
Q 45.796875 32.5625 45.484375 35.25 
Q 45.171875 37.9375 44.390625 39.203125 
Q 43.359375 40.921875 41.59375 41.875 
Q 39.84375 42.828125 37.59375 42.828125 
Q 32.125 42.828125 29 38.59375 
Q 25.875 34.375 25.875 26.90625 
L 25.875 0 
L 8.40625 0 
L 8.40625 54.6875 
L 25.875 54.6875 
L 25.875 46.6875 
Q 29.828125 51.46875 34.265625 53.734375 
Q 38.71875 56 44.09375 56 
Q 53.5625 56 58.46875 50.1875 
Q 63.375 44.390625 63.375 33.296875 
z
" id="DejaVuSans-Bold-110"/>
        <path d="M 62.984375 27.484375 
L 62.984375 22.515625 
L 22.125 22.515625 
Q 22.75 16.359375 26.5625 13.28125 
Q 30.375 10.203125 37.203125 10.203125 
Q 42.71875 10.203125 48.5 11.84375 
Q 54.296875 13.484375 60.40625 16.796875 
L 60.40625 3.328125 
Q 54.203125 0.984375 48 -0.21875 
Q 41.796875 -1.421875 35.59375 -1.421875 
Q 20.75 -1.421875 12.515625 6.125 
Q 4.296875 13.671875 4.296875 27.296875 
Q 4.296875 40.671875 12.375 48.328125 
Q 20.453125 56 34.625 56 
Q 47.515625 56 55.25 48.234375 
Q 62.984375 40.484375 62.984375 27.484375 
z
M 45.015625 33.296875 
Q 45.015625 38.28125 42.109375 41.328125 
Q 39.203125 44.390625 34.515625 44.390625 
Q 29.4375 44.390625 26.265625 41.53125 
Q 23.09375 38.671875 22.3125 33.296875 
z
" id="DejaVuSans-Bold-101"/>
       </defs>
       <use xlink:href="#DejaVuSans-Bold-74"/>
       <use x="37.207031" xlink:href="#DejaVuSans-Bold-117"/>
       <use x="108.398438" xlink:href="#DejaVuSans-Bold-110"/>
       <use x="179.589844" xlink:href="#DejaVuSans-Bold-101"/>
      </g>
     </g>
    </g>
    <g id="xtick_4">
     <g id="line2d_4">
      <g>
       <use style="fill:#555555;stroke:#555555;stroke-width:0.8;" x="644.335733" xlink:href="#m8d4e880c08" y="541.28"/>
      </g>
     </g>
     <g id="text_4">
      <!-- July -->
      <g style="fill:#555555;" transform="translate(629.785577 558.917812)scale(0.14 -0.14)">
       <use xlink:href="#DejaVuSans-Bold-74"/>
       <use x="37.207031" xlink:href="#DejaVuSans-Bold-117"/>
       <use x="108.398438" xlink:href="#DejaVuSans-Bold-108"/>
       <use x="142.675781" xlink:href="#DejaVuSans-Bold-121"/>
      </g>
     </g>
    </g>
    <g id="xtick_5">
     <g id="line2d_5">
      <g>
       <use style="fill:#555555;stroke:#555555;stroke-width:0.8;" x="799.990867" xlink:href="#m8d4e880c08" y="541.28"/>
      </g>
     </g>
     <g id="text_5">
      <!-- August -->
      <g style="fill:#555555;" transform="translate(772.084929 558.808437)scale(0.14 -0.14)">
       <defs>
        <path d="M 45.609375 9.28125 
Q 42 4.5 37.640625 2.25 
Q 33.296875 0 27.59375 0 
Q 17.578125 0 11.03125 7.875 
Q 4.5 15.765625 4.5 27.984375 
Q 4.5 40.234375 11.03125 48.0625 
Q 17.578125 55.90625 27.59375 55.90625 
Q 33.296875 55.90625 37.640625 53.65625 
Q 42 51.421875 45.609375 46.578125 
L 45.609375 54.6875 
L 63.1875 54.6875 
L 63.1875 5.515625 
Q 63.1875 -7.671875 54.859375 -14.625 
Q 46.53125 -21.578125 30.71875 -21.578125 
Q 25.59375 -21.578125 20.796875 -20.796875 
Q 16.015625 -20.015625 11.1875 -18.40625 
L 11.1875 -4.78125 
Q 15.765625 -7.421875 20.15625 -8.71875 
Q 24.5625 -10.015625 29 -10.015625 
Q 37.59375 -10.015625 41.59375 -6.25 
Q 45.609375 -2.484375 45.609375 5.515625 
z
M 34.078125 43.3125 
Q 28.65625 43.3125 25.625 39.296875 
Q 22.609375 35.296875 22.609375 27.984375 
Q 22.609375 20.453125 25.53125 16.578125 
Q 28.46875 12.703125 34.078125 12.703125 
Q 39.546875 12.703125 42.578125 16.703125 
Q 45.609375 20.703125 45.609375 27.984375 
Q 45.609375 35.296875 42.578125 39.296875 
Q 39.546875 43.3125 34.078125 43.3125 
z
" id="DejaVuSans-Bold-103"/>
        <path d="M 51.125 52.984375 
L 51.125 39.703125 
Q 45.515625 42.046875 40.28125 43.21875 
Q 35.0625 44.390625 30.421875 44.390625 
Q 25.4375 44.390625 23.015625 43.140625 
Q 20.609375 41.890625 20.609375 39.3125 
Q 20.609375 37.203125 22.4375 36.078125 
Q 24.265625 34.96875 29 34.421875 
L 32.078125 33.984375 
Q 45.515625 32.28125 50.140625 28.375 
Q 54.78125 24.46875 54.78125 16.109375 
Q 54.78125 7.375 48.328125 2.96875 
Q 41.890625 -1.421875 29.109375 -1.421875 
Q 23.6875 -1.421875 17.890625 -0.5625 
Q 12.109375 0.296875 6 2 
L 6 15.28125 
Q 11.234375 12.75 16.71875 11.46875 
Q 22.21875 10.203125 27.875 10.203125 
Q 33.015625 10.203125 35.59375 11.609375 
Q 38.1875 13.03125 38.1875 15.828125 
Q 38.1875 18.171875 36.40625 19.3125 
Q 34.625 20.453125 29.296875 21.09375 
L 26.21875 21.484375 
Q 14.546875 22.953125 9.859375 26.90625 
Q 5.171875 30.859375 5.171875 38.921875 
Q 5.171875 47.609375 11.125 51.796875 
Q 17.09375 56 29.390625 56 
Q 34.234375 56 39.546875 55.265625 
Q 44.875 54.546875 51.125 52.984375 
z
" id="DejaVuSans-Bold-115"/>
        <path d="M 27.484375 70.21875 
L 27.484375 54.6875 
L 45.515625 54.6875 
L 45.515625 42.1875 
L 27.484375 42.1875 
L 27.484375 19 
Q 27.484375 15.1875 29 13.84375 
Q 30.515625 12.5 35.015625 12.5 
L 44 12.5 
L 44 0 
L 29 0 
Q 18.65625 0 14.328125 4.3125 
Q 10.015625 8.640625 10.015625 19 
L 10.015625 42.1875 
L 1.3125 42.1875 
L 1.3125 54.6875 
L 10.015625 54.6875 
L 10.015625 70.21875 
z
" id="DejaVuSans-Bold-116"/>
       </defs>
       <use xlink:href="#DejaVuSans-Bold-65"/>
       <use x="77.392578" xlink:href="#DejaVuSans-Bold-117"/>
       <use x="148.583984" xlink:href="#DejaVuSans-Bold-103"/>
       <use x="220.166016" xlink:href="#DejaVuSans-Bold-117"/>
       <use x="291.357422" xlink:href="#DejaVuSans-Bold-115"/>
       <use x="350.878906" xlink:href="#DejaVuSans-Bold-116"/>
      </g>
     </g>
    </g>
    <g id="xtick_6">
     <g id="line2d_6">
      <g>
       <use style="fill:#555555;stroke:#555555;stroke-width:0.8;" x="955.646" xlink:href="#m8d4e880c08" y="541.28"/>
      </g>
     </g>
     <g id="text_6">
      <!-- September -->
      <g style="fill:#555555;" transform="translate(912.248188 558.917812)scale(0.14 -0.14)">
       <defs>
        <path d="M 59.90625 70.609375 
L 59.90625 55.171875 
Q 53.90625 57.859375 48.1875 59.21875 
Q 42.484375 60.59375 37.40625 60.59375 
Q 30.671875 60.59375 27.4375 58.734375 
Q 24.21875 56.890625 24.21875 52.984375 
Q 24.21875 50.046875 26.390625 48.40625 
Q 28.5625 46.78125 34.28125 45.609375 
L 42.28125 44 
Q 54.4375 41.546875 59.5625 36.5625 
Q 64.703125 31.59375 64.703125 22.40625 
Q 64.703125 10.359375 57.546875 4.46875 
Q 50.390625 -1.421875 35.6875 -1.421875 
Q 28.765625 -1.421875 21.78125 -0.09375 
Q 14.796875 1.21875 7.8125 3.8125 
L 7.8125 19.671875 
Q 14.796875 15.96875 21.3125 14.078125 
Q 27.828125 12.203125 33.890625 12.203125 
Q 40.046875 12.203125 43.3125 14.25 
Q 46.578125 16.3125 46.578125 20.125 
Q 46.578125 23.53125 44.359375 25.390625 
Q 42.140625 27.25 35.5 28.71875 
L 28.21875 30.328125 
Q 17.28125 32.671875 12.21875 37.796875 
Q 7.171875 42.921875 7.171875 51.609375 
Q 7.171875 62.5 14.203125 68.359375 
Q 21.234375 74.21875 34.421875 74.21875 
Q 40.4375 74.21875 46.78125 73.3125 
Q 53.125 72.40625 59.90625 70.609375 
z
" id="DejaVuSans-Bold-83"/>
        <path d="M 59.078125 45.609375 
Q 62.40625 50.6875 66.96875 53.34375 
Q 71.53125 56 77 56 
Q 86.421875 56 91.359375 50.1875 
Q 96.296875 44.390625 96.296875 33.296875 
L 96.296875 0 
L 78.71875 0 
L 78.71875 28.515625 
Q 78.765625 29.15625 78.78125 29.828125 
Q 78.8125 30.515625 78.8125 31.78125 
Q 78.8125 37.59375 77.09375 40.203125 
Q 75.390625 42.828125 71.578125 42.828125 
Q 66.609375 42.828125 63.890625 38.71875 
Q 61.1875 34.625 61.078125 26.859375 
L 61.078125 0 
L 43.5 0 
L 43.5 28.515625 
Q 43.5 37.59375 41.9375 40.203125 
Q 40.375 42.828125 36.375 42.828125 
Q 31.34375 42.828125 28.609375 38.703125 
Q 25.875 34.578125 25.875 26.90625 
L 25.875 0 
L 8.296875 0 
L 8.296875 54.6875 
L 25.875 54.6875 
L 25.875 46.6875 
Q 29.109375 51.3125 33.28125 53.65625 
Q 37.453125 56 42.484375 56 
Q 48.140625 56 52.484375 53.265625 
Q 56.84375 50.53125 59.078125 45.609375 
z
" id="DejaVuSans-Bold-109"/>
        <path d="M 37.5 11.28125 
Q 43.109375 11.28125 46.0625 15.375 
Q 49.03125 19.484375 49.03125 27.296875 
Q 49.03125 35.109375 46.0625 39.203125 
Q 43.109375 43.3125 37.5 43.3125 
Q 31.890625 43.3125 28.875 39.1875 
Q 25.875 35.0625 25.875 27.296875 
Q 25.875 19.53125 28.875 15.40625 
Q 31.890625 11.28125 37.5 11.28125 
z
M 25.875 46.6875 
Q 29.5 51.46875 33.890625 53.734375 
Q 38.28125 56 44 56 
Q 54.109375 56 60.59375 47.96875 
Q 67.09375 39.9375 67.09375 27.296875 
Q 67.09375 14.65625 60.59375 6.609375 
Q 54.109375 -1.421875 44 -1.421875 
Q 38.28125 -1.421875 33.890625 0.84375 
Q 29.5 3.125 25.875 7.90625 
L 25.875 0 
L 8.40625 0 
L 8.40625 75.984375 
L 25.875 75.984375 
z
" id="DejaVuSans-Bold-98"/>
       </defs>
       <use xlink:href="#DejaVuSans-Bold-83"/>
       <use x="72.021484" xlink:href="#DejaVuSans-Bold-101"/>
       <use x="139.84375" xlink:href="#DejaVuSans-Bold-112"/>
       <use x="211.425781" xlink:href="#DejaVuSans-Bold-116"/>
       <use x="259.228516" xlink:href="#DejaVuSans-Bold-101"/>
       <use x="327.050781" xlink:href="#DejaVuSans-Bold-109"/>
       <use x="431.25" xlink:href="#DejaVuSans-Bold-98"/>
       <use x="502.832031" xlink:href="#DejaVuSans-Bold-101"/>
       <use x="570.654297" xlink:href="#DejaVuSans-Bold-114"/>
      </g>
     </g>
    </g>
    <g id="xtick_7">
     <g id="line2d_7">
      <g>
       <use style="fill:#555555;stroke:#555555;stroke-width:0.8;" x="1106.28" xlink:href="#m8d4e880c08" y="541.28"/>
      </g>
     </g>
     <g id="text_7">
      <!-- October -->
      <g style="fill:#555555;" transform="translate(1074.813906 558.917812)scale(0.14 -0.14)">
       <defs>
        <path d="M 42.484375 60.59375 
Q 33.890625 60.59375 29.15625 54.25 
Q 24.421875 47.90625 24.421875 36.375 
Q 24.421875 24.90625 29.15625 18.546875 
Q 33.890625 12.203125 42.484375 12.203125 
Q 51.125 12.203125 55.859375 18.546875 
Q 60.59375 24.90625 60.59375 36.375 
Q 60.59375 47.90625 55.859375 54.25 
Q 51.125 60.59375 42.484375 60.59375 
z
M 42.484375 74.21875 
Q 60.0625 74.21875 70.015625 64.15625 
Q 79.984375 54.109375 79.984375 36.375 
Q 79.984375 18.703125 70.015625 8.640625 
Q 60.0625 -1.421875 42.484375 -1.421875 
Q 24.953125 -1.421875 14.96875 8.640625 
Q 4.984375 18.703125 4.984375 36.375 
Q 4.984375 54.109375 14.96875 64.15625 
Q 24.953125 74.21875 42.484375 74.21875 
z
" id="DejaVuSans-Bold-79"/>
        <path d="M 52.59375 52.984375 
L 52.59375 38.71875 
Q 49.03125 41.15625 45.4375 42.328125 
Q 41.84375 43.5 37.984375 43.5 
Q 30.671875 43.5 26.59375 39.234375 
Q 22.515625 34.96875 22.515625 27.296875 
Q 22.515625 19.625 26.59375 15.34375 
Q 30.671875 11.078125 37.984375 11.078125 
Q 42.09375 11.078125 45.78125 12.296875 
Q 49.46875 13.53125 52.59375 15.921875 
L 52.59375 1.609375 
Q 48.484375 0.09375 44.265625 -0.65625 
Q 40.046875 -1.421875 35.796875 -1.421875 
Q 21 -1.421875 12.640625 6.171875 
Q 4.296875 13.765625 4.296875 27.296875 
Q 4.296875 40.828125 12.640625 48.40625 
Q 21 56 35.796875 56 
Q 40.09375 56 44.265625 55.25 
Q 48.4375 54.5 52.59375 52.984375 
z
" id="DejaVuSans-Bold-99"/>
        <path d="M 34.421875 43.5 
Q 28.609375 43.5 25.5625 39.328125 
Q 22.515625 35.15625 22.515625 27.296875 
Q 22.515625 19.4375 25.5625 15.25 
Q 28.609375 11.078125 34.421875 11.078125 
Q 40.140625 11.078125 43.15625 15.25 
Q 46.1875 19.4375 46.1875 27.296875 
Q 46.1875 35.15625 43.15625 39.328125 
Q 40.140625 43.5 34.421875 43.5 
z
M 34.421875 56 
Q 48.53125 56 56.46875 48.375 
Q 64.40625 40.765625 64.40625 27.296875 
Q 64.40625 13.8125 56.46875 6.1875 
Q 48.53125 -1.421875 34.421875 -1.421875 
Q 20.265625 -1.421875 12.28125 6.1875 
Q 4.296875 13.8125 4.296875 27.296875 
Q 4.296875 40.765625 12.28125 48.375 
Q 20.265625 56 34.421875 56 
z
" id="DejaVuSans-Bold-111"/>
       </defs>
       <use xlink:href="#DejaVuSans-Bold-79"/>
       <use x="85.009766" xlink:href="#DejaVuSans-Bold-99"/>
       <use x="144.287109" xlink:href="#DejaVuSans-Bold-116"/>
       <use x="192.089844" xlink:href="#DejaVuSans-Bold-111"/>
       <use x="260.791016" xlink:href="#DejaVuSans-Bold-98"/>
       <use x="332.373047" xlink:href="#DejaVuSans-Bold-101"/>
       <use x="400.195312" xlink:href="#DejaVuSans-Bold-114"/>
      </g>
     </g>
    </g>
   </g>
   <g id="matplotlib.axis_2">
    <g id="ytick_1">
     <g id="line2d_8">
      <defs>
       <path d="M 0 0 
L -3.5 0 
" id="m3c2aa04b7f" style="stroke:#555555;stroke-width:0.8;"/>
      </defs>
      <g>
       <use style="fill:#555555;stroke:#555555;stroke-width:0.8;" x="51.842" xlink:href="#m3c2aa04b7f" y="525.082581"/>
      </g>
     </g>
     <g id="text_8">
      <!-- 0 -->
      <g style="fill:#555555;" transform="translate(35.101062 530.401487)scale(0.14 -0.14)">
       <defs>
        <path d="M 46 36.53125 
Q 46 50.203125 43.4375 55.78125 
Q 40.875 61.375 34.8125 61.375 
Q 28.765625 61.375 26.171875 55.78125 
Q 23.578125 50.203125 23.578125 36.53125 
Q 23.578125 22.703125 26.171875 17.03125 
Q 28.765625 11.375 34.8125 11.375 
Q 40.828125 11.375 43.40625 17.03125 
Q 46 22.703125 46 36.53125 
z
M 64.796875 36.375 
Q 64.796875 18.265625 56.984375 8.421875 
Q 49.171875 -1.421875 34.8125 -1.421875 
Q 20.40625 -1.421875 12.59375 8.421875 
Q 4.78125 18.265625 4.78125 36.375 
Q 4.78125 54.546875 12.59375 64.375 
Q 20.40625 74.21875 34.8125 74.21875 
Q 49.171875 74.21875 56.984375 64.375 
Q 64.796875 54.546875 64.796875 36.375 
z
" id="DejaVuSans-Bold-48"/>
       </defs>
       <use xlink:href="#DejaVuSans-Bold-48"/>
      </g>
     </g>
    </g>
    <g id="ytick_2">
     <g id="line2d_9">
      <g>
       <use style="fill:#555555;stroke:#555555;stroke-width:0.8;" x="51.842" xlink:href="#m3c2aa04b7f" y="363.108387"/>
      </g>
     </g>
     <g id="text_9">
      <!-- 1 -->
      <g style="fill:#555555;" transform="translate(35.101062 368.427293)scale(0.14 -0.14)">
       <defs>
        <path d="M 11.71875 12.984375 
L 28.328125 12.984375 
L 28.328125 60.109375 
L 11.28125 56.59375 
L 11.28125 69.390625 
L 28.21875 72.90625 
L 46.09375 72.90625 
L 46.09375 12.984375 
L 62.703125 12.984375 
L 62.703125 0 
L 11.71875 0 
z
" id="DejaVuSans-Bold-49"/>
       </defs>
       <use xlink:href="#DejaVuSans-Bold-49"/>
      </g>
     </g>
    </g>
    <g id="ytick_3">
     <g id="line2d_10">
      <g>
       <use style="fill:#555555;stroke:#555555;stroke-width:0.8;" x="51.842" xlink:href="#m3c2aa04b7f" y="201.134194"/>
      </g>
     </g>
     <g id="text_10">
      <!-- 2 -->
      <g style="fill:#555555;" transform="translate(35.101062 206.4531)scale(0.14 -0.14)">
       <defs>
        <path d="M 28.8125 13.8125 
L 60.890625 13.8125 
L 60.890625 0 
L 7.90625 0 
L 7.90625 13.8125 
L 34.515625 37.3125 
Q 38.09375 40.53125 39.796875 43.609375 
Q 41.5 46.6875 41.5 50 
Q 41.5 55.125 38.0625 58.25 
Q 34.625 61.375 28.90625 61.375 
Q 24.515625 61.375 19.28125 59.5 
Q 14.0625 57.625 8.109375 53.90625 
L 8.109375 69.921875 
Q 14.453125 72.015625 20.65625 73.109375 
Q 26.859375 74.21875 32.8125 74.21875 
Q 45.90625 74.21875 53.15625 68.453125 
Q 60.40625 62.703125 60.40625 52.390625 
Q 60.40625 46.4375 57.328125 41.28125 
Q 54.25 36.140625 44.390625 27.484375 
z
" id="DejaVuSans-Bold-50"/>
       </defs>
       <use xlink:href="#DejaVuSans-Bold-50"/>
      </g>
     </g>
    </g>
    <g id="ytick_4">
     <g id="line2d_11">
      <g>
       <use style="fill:#555555;stroke:#555555;stroke-width:0.8;" x="51.842" xlink:href="#m3c2aa04b7f" y="39.16"/>
      </g>
     </g>
     <g id="text_11">
      <!-- 3 -->
      <g style="fill:#555555;" transform="translate(35.101062 44.478906)scale(0.14 -0.14)">
       <defs>
        <path d="M 46.578125 39.3125 
Q 53.953125 37.40625 57.78125 32.6875 
Q 61.625 27.984375 61.625 20.703125 
Q 61.625 9.859375 53.3125 4.21875 
Q 45.015625 -1.421875 29.109375 -1.421875 
Q 23.484375 -1.421875 17.84375 -0.515625 
Q 12.203125 0.390625 6.6875 2.203125 
L 6.6875 16.703125 
Q 11.96875 14.0625 17.15625 12.71875 
Q 22.359375 11.375 27.390625 11.375 
Q 34.859375 11.375 38.84375 13.953125 
Q 42.828125 16.546875 42.828125 21.390625 
Q 42.828125 26.375 38.75 28.9375 
Q 34.671875 31.5 26.703125 31.5 
L 19.1875 31.5 
L 19.1875 43.609375 
L 27.09375 43.609375 
Q 34.1875 43.609375 37.640625 45.828125 
Q 41.109375 48.046875 41.109375 52.59375 
Q 41.109375 56.78125 37.734375 59.078125 
Q 34.375 61.375 28.21875 61.375 
Q 23.6875 61.375 19.046875 60.34375 
Q 14.40625 59.328125 9.8125 57.328125 
L 9.8125 71.09375 
Q 15.375 72.65625 20.84375 73.4375 
Q 26.3125 74.21875 31.59375 74.21875 
Q 45.796875 74.21875 52.84375 69.546875 
Q 59.90625 64.890625 59.90625 55.515625 
Q 59.90625 49.125 56.53125 45.046875 
Q 53.171875 40.96875 46.578125 39.3125 
z
" id="DejaVuSans-Bold-51"/>
       </defs>
       <use xlink:href="#DejaVuSans-Bold-51"/>
      </g>
     </g>
    </g>
    <g id="text_12">
     <!-- $R_{t}$ -->
     <g style="fill:#555555;" transform="translate(27.773562 299.34)rotate(-90)scale(0.16 -0.16)">
      <defs>
       <path d="M 36.71875 40.578125 
Q 43.109375 40.578125 46.40625 43.546875 
Q 49.703125 46.53125 49.703125 52.296875 
Q 49.703125 55.90625 47.4375 57.59375 
Q 45.171875 59.28125 40.28125 59.28125 
L 32.515625 59.28125 
L 28.8125 40.578125 
z
M 26.3125 27.59375 
L 20.90625 0 
L 2.09375 0 
L 16.3125 72.90625 
L 44.09375 72.90625 
Q 56.109375 72.90625 62.296875 68.40625 
Q 68.5 63.921875 68.5 55.171875 
Q 68.5 46.34375 63.609375 40.625 
Q 58.734375 34.90625 50.390625 34.078125 
Q 54.203125 33.296875 56.734375 30.1875 
Q 59.28125 27.09375 61.1875 20.703125 
L 67.390625 0 
L 48.6875 0 
L 43.21875 18.109375 
Q 41.546875 23.53125 39.171875 25.5625 
Q 36.8125 27.59375 32.328125 27.59375 
z
" id="DejaVuSans-BoldOblique-82"/>
       <path d="M 35.984375 70.21875 
L 33.015625 54.6875 
L 50.875 54.6875 
L 48.390625 42.1875 
L 30.515625 42.1875 
L 26.03125 19.046875 
Q 25.828125 18.265625 25.75 17.71875 
Q 25.6875 17.1875 25.6875 16.703125 
Q 25.6875 14.453125 27.171875 13.46875 
Q 28.65625 12.5 32.171875 12.5 
L 41.21875 12.5 
L 38.71875 0 
L 24.03125 0 
Q 16.109375 0 11.953125 3.3125 
Q 7.8125 6.640625 7.8125 12.890625 
Q 7.8125 14.265625 7.953125 15.828125 
Q 8.109375 17.390625 8.40625 19 
L 12.890625 42.1875 
L 4.296875 42.1875 
L 6.6875 54.6875 
L 15.375 54.6875 
L 18.40625 70.21875 
z
" id="DejaVuSans-BoldOblique-116"/>
      </defs>
      <use transform="translate(0 0.09375)" xlink:href="#DejaVuSans-BoldOblique-82"/>
      <use transform="translate(77.001953 -16.3125)scale(0.7)" xlink:href="#DejaVuSans-BoldOblique-116"/>
     </g>
    </g>
   </g>
   <g id="line2d_12">
    <path clip-path="url(#p9faa8b9e65)" d="M 51.842 363.108387 
L 1106.28 363.108387 
" style="fill:none;stroke:#ff0000;stroke-dasharray:2,3.3;stroke-dashoffset:0;stroke-width:2;"/>
   </g>
   <g id="line2d_13">
    <path clip-path="url(#p9faa8b9e65)" d="M 51.842 257.825161 
L 56.863133 218.951355 
L 61.884267 188.176258 
L 71.926533 152.541935 
L 76.947667 159.020903 
L 81.9688 162.260387 
L 86.989933 162.260387 
L 92.011067 160.640645 
L 97.0322 162.260387 
L 102.053333 162.260387 
L 112.0956 165.499871 
L 117.116733 168.739355 
L 122.137867 175.218323 
L 127.159 184.936774 
L 137.201267 207.613161 
L 142.2224 215.711871 
L 147.243533 222.190839 
L 152.264667 231.90929 
L 157.2858 246.486968 
L 162.306933 265.923871 
L 172.3492 314.516129 
L 177.370333 335.572774 
L 182.391467 350.150452 
L 187.4126 356.629419 
L 197.454867 359.868903 
L 207.497133 359.868903 
L 212.518267 356.629419 
L 217.5394 350.150452 
L 222.560533 342.051742 
L 227.581667 338.812258 
L 232.6028 340.432 
L 237.623933 350.150452 
L 242.645067 364.728129 
L 247.6662 377.686065 
L 252.687333 384.165032 
L 257.708467 382.54529 
L 267.750733 376.066323 
L 272.771867 379.305806 
L 277.793 387.404516 
L 287.835267 410.080903 
L 292.8564 416.559871 
L 302.898667 432.75729 
L 312.940933 458.673161 
L 317.962067 466.771871 
L 322.9832 468.391613 
L 328.004333 461.912645 
L 333.025467 450.574452 
L 338.0466 440.856 
L 343.067733 434.377032 
L 348.088867 432.75729 
L 358.131133 426.278323 
L 368.1734 416.559871 
L 373.194533 414.940129 
L 378.215667 416.559871 
L 383.2368 421.419097 
L 388.257933 424.658581 
L 393.279067 426.278323 
L 398.3002 424.658581 
L 413.3636 424.658581 
L 418.384733 423.038839 
L 423.405867 418.179613 
L 428.427 408.461161 
L 433.448133 395.503226 
L 438.469267 384.165032 
L 443.4904 377.686065 
L 448.511533 374.446581 
L 453.532667 374.446581 
L 463.574933 377.686065 
L 478.638333 387.404516 
L 483.659467 392.263742 
L 488.6806 395.503226 
L 493.701733 393.883484 
L 498.722867 385.784774 
L 503.744 374.446581 
L 508.765133 359.868903 
L 513.786267 348.53071 
L 518.8074 340.432 
L 523.828533 340.432 
L 528.849667 343.671484 
L 538.891933 356.629419 
L 548.9342 366.347871 
L 553.955333 372.826839 
L 563.9976 389.024258 
L 579.061 418.179613 
L 584.082133 424.658581 
L 589.103267 429.517806 
L 594.1244 431.137548 
L 599.145533 427.898065 
L 604.166667 423.038839 
L 609.1878 416.559871 
L 614.208933 411.700645 
L 619.230067 408.461161 
L 624.2512 406.841419 
L 629.272333 408.461161 
L 639.3146 408.461161 
L 654.378 403.601935 
L 659.399133 405.221677 
L 664.420267 408.461161 
L 669.4414 410.080903 
L 674.462533 408.461161 
L 679.483667 401.982194 
L 684.5048 392.263742 
L 689.525933 380.925548 
L 699.5682 355.009677 
L 709.610467 335.572774 
L 719.652733 312.896387 
L 729.695 293.459484 
L 734.716133 286.980516 
L 739.737267 285.360774 
L 744.7584 288.600258 
L 749.779533 293.459484 
L 754.800667 299.938452 
L 759.8218 303.177935 
L 764.842933 303.177935 
L 769.864067 298.31871 
L 774.8852 290.22 
L 784.927467 270.783097 
L 789.9486 264.304129 
L 794.969733 262.684387 
L 799.990867 264.304129 
L 805.012 267.543613 
L 810.033133 272.402839 
L 815.054267 278.881806 
L 820.0754 283.741032 
L 825.096533 286.980516 
L 830.117667 291.839742 
L 835.1388 295.079226 
L 845.181067 304.797677 
L 850.2022 314.516129 
L 855.223333 327.474065 
L 860.244467 342.051742 
L 865.2656 358.249161 
L 870.286733 372.826839 
L 875.307867 382.54529 
L 880.329 387.404516 
L 885.350133 387.404516 
L 890.371267 385.784774 
L 905.434667 376.066323 
L 910.4558 374.446581 
L 915.476933 371.207097 
L 925.5192 367.967613 
L 930.540333 364.728129 
L 935.561467 363.108387 
L 945.603733 353.389935 
L 950.624867 343.671484 
L 960.667133 320.995097 
L 970.7094 301.558194 
L 975.730533 295.079226 
L 980.751667 290.22 
L 985.7728 288.600258 
L 990.793933 288.600258 
L 995.815067 290.22 
L 1000.8362 293.459484 
L 1010.878467 296.698968 
L 1015.8996 295.079226 
L 1020.920733 291.839742 
L 1025.941867 286.980516 
L 1030.963 283.741032 
L 1035.984133 282.12129 
L 1041.005267 283.741032 
L 1046.0264 288.600258 
L 1061.0898 298.31871 
L 1071.132067 301.558194 
L 1076.1532 304.797677 
L 1081.174333 309.656903 
L 1086.195467 316.135871 
L 1101.258867 330.713548 
L 1106.28 333.953032 
L 1106.28 333.953032 
" style="fill:none;stroke:#000000;stroke-linecap:square;"/>
    <defs>
     <path d="M 0 2.5 
C 0.663008 2.5 1.29895 2.236584 1.767767 1.767767 
C 2.236584 1.29895 2.5 0.663008 2.5 0 
C 2.5 -0.663008 2.236584 -1.29895 1.767767 -1.767767 
C 1.29895 -2.236584 0.663008 -2.5 0 -2.5 
C -0.663008 -2.5 -1.29895 -2.236584 -1.767767 -1.767767 
C -2.236584 -1.29895 -2.5 -0.663008 -2.5 0 
C -2.5 0.663008 -2.236584 1.29895 -1.767767 1.767767 
C -1.29895 2.236584 -0.663008 2.5 0 2.5 
z
" id="mfbc508b6be" style="stroke:#000000;"/>
    </defs>
    <g clip-path="url(#p9faa8b9e65)">
     <use style="fill:#ffffff;stroke:#000000;" x="51.842" xlink:href="#mfbc508b6be" y="257.825161"/>
     <use style="fill:#ffffff;stroke:#000000;" x="61.884267" xlink:href="#mfbc508b6be" y="188.176258"/>
     <use style="fill:#ffffff;stroke:#000000;" x="71.926533" xlink:href="#mfbc508b6be" y="152.541935"/>
     <use style="fill:#ffffff;stroke:#000000;" x="81.9688" xlink:href="#mfbc508b6be" y="162.260387"/>
     <use style="fill:#ffffff;stroke:#000000;" x="92.011067" xlink:href="#mfbc508b6be" y="160.640645"/>
     <use style="fill:#ffffff;stroke:#000000;" x="102.053333" xlink:href="#mfbc508b6be" y="162.260387"/>
     <use style="fill:#ffffff;stroke:#000000;" x="112.0956" xlink:href="#mfbc508b6be" y="165.499871"/>
     <use style="fill:#ffffff;stroke:#000000;" x="122.137867" xlink:href="#mfbc508b6be" y="175.218323"/>
     <use style="fill:#ffffff;stroke:#000000;" x="132.180133" xlink:href="#mfbc508b6be" y="196.274968"/>
     <use style="fill:#ffffff;stroke:#000000;" x="142.2224" xlink:href="#mfbc508b6be" y="215.711871"/>
     <use style="fill:#ffffff;stroke:#000000;" x="152.264667" xlink:href="#mfbc508b6be" y="231.90929"/>
     <use style="fill:#ffffff;stroke:#000000;" x="162.306933" xlink:href="#mfbc508b6be" y="265.923871"/>
     <use style="fill:#ffffff;stroke:#000000;" x="172.3492" xlink:href="#mfbc508b6be" y="314.516129"/>
     <use style="fill:#ffffff;stroke:#000000;" x="182.391467" xlink:href="#mfbc508b6be" y="350.150452"/>
     <use style="fill:#ffffff;stroke:#000000;" x="192.433733" xlink:href="#mfbc508b6be" y="358.249161"/>
     <use style="fill:#ffffff;stroke:#000000;" x="202.476" xlink:href="#mfbc508b6be" y="359.868903"/>
     <use style="fill:#ffffff;stroke:#000000;" x="212.518267" xlink:href="#mfbc508b6be" y="356.629419"/>
     <use style="fill:#ffffff;stroke:#000000;" x="222.560533" xlink:href="#mfbc508b6be" y="342.051742"/>
     <use style="fill:#ffffff;stroke:#000000;" x="232.6028" xlink:href="#mfbc508b6be" y="340.432"/>
     <use style="fill:#ffffff;stroke:#000000;" x="242.645067" xlink:href="#mfbc508b6be" y="364.728129"/>
     <use style="fill:#ffffff;stroke:#000000;" x="252.687333" xlink:href="#mfbc508b6be" y="384.165032"/>
     <use style="fill:#ffffff;stroke:#000000;" x="262.7296" xlink:href="#mfbc508b6be" y="379.305806"/>
     <use style="fill:#ffffff;stroke:#000000;" x="272.771867" xlink:href="#mfbc508b6be" y="379.305806"/>
     <use style="fill:#ffffff;stroke:#000000;" x="282.814133" xlink:href="#mfbc508b6be" y="398.74271"/>
     <use style="fill:#ffffff;stroke:#000000;" x="292.8564" xlink:href="#mfbc508b6be" y="416.559871"/>
     <use style="fill:#ffffff;stroke:#000000;" x="302.898667" xlink:href="#mfbc508b6be" y="432.75729"/>
     <use style="fill:#ffffff;stroke:#000000;" x="312.940933" xlink:href="#mfbc508b6be" y="458.673161"/>
     <use style="fill:#ffffff;stroke:#000000;" x="322.9832" xlink:href="#mfbc508b6be" y="468.391613"/>
     <use style="fill:#ffffff;stroke:#000000;" x="333.025467" xlink:href="#mfbc508b6be" y="450.574452"/>
     <use style="fill:#ffffff;stroke:#000000;" x="343.067733" xlink:href="#mfbc508b6be" y="434.377032"/>
     <use style="fill:#ffffff;stroke:#000000;" x="353.11" xlink:href="#mfbc508b6be" y="429.517806"/>
     <use style="fill:#ffffff;stroke:#000000;" x="363.152267" xlink:href="#mfbc508b6be" y="421.419097"/>
     <use style="fill:#ffffff;stroke:#000000;" x="373.194533" xlink:href="#mfbc508b6be" y="414.940129"/>
     <use style="fill:#ffffff;stroke:#000000;" x="383.2368" xlink:href="#mfbc508b6be" y="421.419097"/>
     <use style="fill:#ffffff;stroke:#000000;" x="393.279067" xlink:href="#mfbc508b6be" y="426.278323"/>
     <use style="fill:#ffffff;stroke:#000000;" x="403.321333" xlink:href="#mfbc508b6be" y="424.658581"/>
     <use style="fill:#ffffff;stroke:#000000;" x="413.3636" xlink:href="#mfbc508b6be" y="424.658581"/>
     <use style="fill:#ffffff;stroke:#000000;" x="423.405867" xlink:href="#mfbc508b6be" y="418.179613"/>
     <use style="fill:#ffffff;stroke:#000000;" x="433.448133" xlink:href="#mfbc508b6be" y="395.503226"/>
     <use style="fill:#ffffff;stroke:#000000;" x="443.4904" xlink:href="#mfbc508b6be" y="377.686065"/>
     <use style="fill:#ffffff;stroke:#000000;" x="453.532667" xlink:href="#mfbc508b6be" y="374.446581"/>
     <use style="fill:#ffffff;stroke:#000000;" x="463.574933" xlink:href="#mfbc508b6be" y="377.686065"/>
     <use style="fill:#ffffff;stroke:#000000;" x="473.6172" xlink:href="#mfbc508b6be" y="384.165032"/>
     <use style="fill:#ffffff;stroke:#000000;" x="483.659467" xlink:href="#mfbc508b6be" y="392.263742"/>
     <use style="fill:#ffffff;stroke:#000000;" x="493.701733" xlink:href="#mfbc508b6be" y="393.883484"/>
     <use style="fill:#ffffff;stroke:#000000;" x="503.744" xlink:href="#mfbc508b6be" y="374.446581"/>
     <use style="fill:#ffffff;stroke:#000000;" x="513.786267" xlink:href="#mfbc508b6be" y="348.53071"/>
     <use style="fill:#ffffff;stroke:#000000;" x="523.828533" xlink:href="#mfbc508b6be" y="340.432"/>
     <use style="fill:#ffffff;stroke:#000000;" x="533.8708" xlink:href="#mfbc508b6be" y="350.150452"/>
     <use style="fill:#ffffff;stroke:#000000;" x="543.913067" xlink:href="#mfbc508b6be" y="361.488645"/>
     <use style="fill:#ffffff;stroke:#000000;" x="553.955333" xlink:href="#mfbc508b6be" y="372.826839"/>
     <use style="fill:#ffffff;stroke:#000000;" x="563.9976" xlink:href="#mfbc508b6be" y="389.024258"/>
     <use style="fill:#ffffff;stroke:#000000;" x="574.039867" xlink:href="#mfbc508b6be" y="408.461161"/>
     <use style="fill:#ffffff;stroke:#000000;" x="584.082133" xlink:href="#mfbc508b6be" y="424.658581"/>
     <use style="fill:#ffffff;stroke:#000000;" x="594.1244" xlink:href="#mfbc508b6be" y="431.137548"/>
     <use style="fill:#ffffff;stroke:#000000;" x="604.166667" xlink:href="#mfbc508b6be" y="423.038839"/>
     <use style="fill:#ffffff;stroke:#000000;" x="614.208933" xlink:href="#mfbc508b6be" y="411.700645"/>
     <use style="fill:#ffffff;stroke:#000000;" x="624.2512" xlink:href="#mfbc508b6be" y="406.841419"/>
     <use style="fill:#ffffff;stroke:#000000;" x="634.293467" xlink:href="#mfbc508b6be" y="408.461161"/>
     <use style="fill:#ffffff;stroke:#000000;" x="644.335733" xlink:href="#mfbc508b6be" y="406.841419"/>
     <use style="fill:#ffffff;stroke:#000000;" x="654.378" xlink:href="#mfbc508b6be" y="403.601935"/>
     <use style="fill:#ffffff;stroke:#000000;" x="664.420267" xlink:href="#mfbc508b6be" y="408.461161"/>
     <use style="fill:#ffffff;stroke:#000000;" x="674.462533" xlink:href="#mfbc508b6be" y="408.461161"/>
     <use style="fill:#ffffff;stroke:#000000;" x="684.5048" xlink:href="#mfbc508b6be" y="392.263742"/>
     <use style="fill:#ffffff;stroke:#000000;" x="694.547067" xlink:href="#mfbc508b6be" y="367.967613"/>
     <use style="fill:#ffffff;stroke:#000000;" x="704.589333" xlink:href="#mfbc508b6be" y="345.291226"/>
     <use style="fill:#ffffff;stroke:#000000;" x="714.6316" xlink:href="#mfbc508b6be" y="324.234581"/>
     <use style="fill:#ffffff;stroke:#000000;" x="724.673867" xlink:href="#mfbc508b6be" y="303.177935"/>
     <use style="fill:#ffffff;stroke:#000000;" x="734.716133" xlink:href="#mfbc508b6be" y="286.980516"/>
     <use style="fill:#ffffff;stroke:#000000;" x="744.7584" xlink:href="#mfbc508b6be" y="288.600258"/>
     <use style="fill:#ffffff;stroke:#000000;" x="754.800667" xlink:href="#mfbc508b6be" y="299.938452"/>
     <use style="fill:#ffffff;stroke:#000000;" x="764.842933" xlink:href="#mfbc508b6be" y="303.177935"/>
     <use style="fill:#ffffff;stroke:#000000;" x="774.8852" xlink:href="#mfbc508b6be" y="290.22"/>
     <use style="fill:#ffffff;stroke:#000000;" x="784.927467" xlink:href="#mfbc508b6be" y="270.783097"/>
     <use style="fill:#ffffff;stroke:#000000;" x="794.969733" xlink:href="#mfbc508b6be" y="262.684387"/>
     <use style="fill:#ffffff;stroke:#000000;" x="805.012" xlink:href="#mfbc508b6be" y="267.543613"/>
     <use style="fill:#ffffff;stroke:#000000;" x="815.054267" xlink:href="#mfbc508b6be" y="278.881806"/>
     <use style="fill:#ffffff;stroke:#000000;" x="825.096533" xlink:href="#mfbc508b6be" y="286.980516"/>
     <use style="fill:#ffffff;stroke:#000000;" x="835.1388" xlink:href="#mfbc508b6be" y="295.079226"/>
     <use style="fill:#ffffff;stroke:#000000;" x="845.181067" xlink:href="#mfbc508b6be" y="304.797677"/>
     <use style="fill:#ffffff;stroke:#000000;" x="855.223333" xlink:href="#mfbc508b6be" y="327.474065"/>
     <use style="fill:#ffffff;stroke:#000000;" x="865.2656" xlink:href="#mfbc508b6be" y="358.249161"/>
     <use style="fill:#ffffff;stroke:#000000;" x="875.307867" xlink:href="#mfbc508b6be" y="382.54529"/>
     <use style="fill:#ffffff;stroke:#000000;" x="885.350133" xlink:href="#mfbc508b6be" y="387.404516"/>
     <use style="fill:#ffffff;stroke:#000000;" x="895.3924" xlink:href="#mfbc508b6be" y="382.54529"/>
     <use style="fill:#ffffff;stroke:#000000;" x="905.434667" xlink:href="#mfbc508b6be" y="376.066323"/>
     <use style="fill:#ffffff;stroke:#000000;" x="915.476933" xlink:href="#mfbc508b6be" y="371.207097"/>
     <use style="fill:#ffffff;stroke:#000000;" x="925.5192" xlink:href="#mfbc508b6be" y="367.967613"/>
     <use style="fill:#ffffff;stroke:#000000;" x="935.561467" xlink:href="#mfbc508b6be" y="363.108387"/>
     <use style="fill:#ffffff;stroke:#000000;" x="945.603733" xlink:href="#mfbc508b6be" y="353.389935"/>
     <use style="fill:#ffffff;stroke:#000000;" x="955.646" xlink:href="#mfbc508b6be" y="332.33329"/>
     <use style="fill:#ffffff;stroke:#000000;" x="965.688267" xlink:href="#mfbc508b6be" y="311.276645"/>
     <use style="fill:#ffffff;stroke:#000000;" x="975.730533" xlink:href="#mfbc508b6be" y="295.079226"/>
     <use style="fill:#ffffff;stroke:#000000;" x="985.7728" xlink:href="#mfbc508b6be" y="288.600258"/>
     <use style="fill:#ffffff;stroke:#000000;" x="995.815067" xlink:href="#mfbc508b6be" y="290.22"/>
     <use style="fill:#ffffff;stroke:#000000;" x="1005.857333" xlink:href="#mfbc508b6be" y="295.079226"/>
     <use style="fill:#ffffff;stroke:#000000;" x="1015.8996" xlink:href="#mfbc508b6be" y="295.079226"/>
     <use style="fill:#ffffff;stroke:#000000;" x="1025.941867" xlink:href="#mfbc508b6be" y="286.980516"/>
     <use style="fill:#ffffff;stroke:#000000;" x="1035.984133" xlink:href="#mfbc508b6be" y="282.12129"/>
     <use style="fill:#ffffff;stroke:#000000;" x="1046.0264" xlink:href="#mfbc508b6be" y="288.600258"/>
     <use style="fill:#ffffff;stroke:#000000;" x="1056.068667" xlink:href="#mfbc508b6be" y="295.079226"/>
     <use style="fill:#ffffff;stroke:#000000;" x="1066.110933" xlink:href="#mfbc508b6be" y="299.938452"/>
     <use style="fill:#ffffff;stroke:#000000;" x="1076.1532" xlink:href="#mfbc508b6be" y="304.797677"/>
     <use style="fill:#ffffff;stroke:#000000;" x="1086.195467" xlink:href="#mfbc508b6be" y="316.135871"/>
     <use style="fill:#ffffff;stroke:#000000;" x="1096.237733" xlink:href="#mfbc508b6be" y="325.854323"/>
     <use style="fill:#ffffff;stroke:#000000;" x="1106.28" xlink:href="#mfbc508b6be" y="333.953032"/>
    </g>
   </g>
   <g id="patch_3">
    <path d="M 51.842 541.28 
L 51.842 39.16 
" style="fill:none;stroke:#555555;stroke-linecap:square;stroke-linejoin:miter;"/>
   </g>
   <g id="patch_4">
    <path d="M 51.842 541.28 
L 1106.28 541.28 
" style="fill:none;stroke:#555555;stroke-linecap:square;stroke-linejoin:miter;"/>
   </g>
   <g id="text_13">
    <!-- Last updated on 01 October 2020 with $R_t = 1.18$ and 95% confidence in range $0.99 - 1.35$ -->
    <g style="fill:#555555;" transform="translate(164.971 29.16)scale(0.18 -0.18)">
     <defs>
      <path d="M 9.8125 72.90625 
L 19.671875 72.90625 
L 19.671875 8.296875 
L 55.171875 8.296875 
L 55.171875 0 
L 9.8125 0 
z
" id="DejaVuSans-76"/>
      <path d="M 34.28125 27.484375 
Q 23.390625 27.484375 19.1875 25 
Q 14.984375 22.515625 14.984375 16.5 
Q 14.984375 11.71875 18.140625 8.90625 
Q 21.296875 6.109375 26.703125 6.109375 
Q 34.1875 6.109375 38.703125 11.40625 
Q 43.21875 16.703125 43.21875 25.484375 
L 43.21875 27.484375 
z
M 52.203125 31.203125 
L 52.203125 0 
L 43.21875 0 
L 43.21875 8.296875 
Q 40.140625 3.328125 35.546875 0.953125 
Q 30.953125 -1.421875 24.3125 -1.421875 
Q 15.921875 -1.421875 10.953125 3.296875 
Q 6 8.015625 6 15.921875 
Q 6 25.140625 12.171875 29.828125 
Q 18.359375 34.515625 30.609375 34.515625 
L 43.21875 34.515625 
L 43.21875 35.40625 
Q 43.21875 41.609375 39.140625 45 
Q 35.0625 48.390625 27.6875 48.390625 
Q 23 48.390625 18.546875 47.265625 
Q 14.109375 46.140625 10.015625 43.890625 
L 10.015625 52.203125 
Q 14.9375 54.109375 19.578125 55.046875 
Q 24.21875 56 28.609375 56 
Q 40.484375 56 46.34375 49.84375 
Q 52.203125 43.703125 52.203125 31.203125 
z
" id="DejaVuSans-97"/>
      <path d="M 44.28125 53.078125 
L 44.28125 44.578125 
Q 40.484375 46.53125 36.375 47.5 
Q 32.28125 48.484375 27.875 48.484375 
Q 21.1875 48.484375 17.84375 46.4375 
Q 14.5 44.390625 14.5 40.28125 
Q 14.5 37.15625 16.890625 35.375 
Q 19.28125 33.59375 26.515625 31.984375 
L 29.59375 31.296875 
Q 39.15625 29.25 43.1875 25.515625 
Q 47.21875 21.78125 47.21875 15.09375 
Q 47.21875 7.46875 41.1875 3.015625 
Q 35.15625 -1.421875 24.609375 -1.421875 
Q 20.21875 -1.421875 15.453125 -0.5625 
Q 10.6875 0.296875 5.421875 2 
L 5.421875 11.28125 
Q 10.40625 8.6875 15.234375 7.390625 
Q 20.0625 6.109375 24.8125 6.109375 
Q 31.15625 6.109375 34.5625 8.28125 
Q 37.984375 10.453125 37.984375 14.40625 
Q 37.984375 18.0625 35.515625 20.015625 
Q 33.0625 21.96875 24.703125 23.78125 
L 21.578125 24.515625 
Q 13.234375 26.265625 9.515625 29.90625 
Q 5.8125 33.546875 5.8125 39.890625 
Q 5.8125 47.609375 11.28125 51.796875 
Q 16.75 56 26.8125 56 
Q 31.78125 56 36.171875 55.265625 
Q 40.578125 54.546875 44.28125 53.078125 
z
" id="DejaVuSans-115"/>
      <path d="M 18.3125 70.21875 
L 18.3125 54.6875 
L 36.8125 54.6875 
L 36.8125 47.703125 
L 18.3125 47.703125 
L 18.3125 18.015625 
Q 18.3125 11.328125 20.140625 9.421875 
Q 21.96875 7.515625 27.59375 7.515625 
L 36.8125 7.515625 
L 36.8125 0 
L 27.59375 0 
Q 17.1875 0 13.234375 3.875 
Q 9.28125 7.765625 9.28125 18.015625 
L 9.28125 47.703125 
L 2.6875 47.703125 
L 2.6875 54.6875 
L 9.28125 54.6875 
L 9.28125 70.21875 
z
" id="DejaVuSans-116"/>
      <path id="DejaVuSans-32"/>
      <path d="M 8.5 21.578125 
L 8.5 54.6875 
L 17.484375 54.6875 
L 17.484375 21.921875 
Q 17.484375 14.15625 20.5 10.265625 
Q 23.53125 6.390625 29.59375 6.390625 
Q 36.859375 6.390625 41.078125 11.03125 
Q 45.3125 15.671875 45.3125 23.6875 
L 45.3125 54.6875 
L 54.296875 54.6875 
L 54.296875 0 
L 45.3125 0 
L 45.3125 8.40625 
Q 42.046875 3.421875 37.71875 1 
Q 33.40625 -1.421875 27.6875 -1.421875 
Q 18.265625 -1.421875 13.375 4.4375 
Q 8.5 10.296875 8.5 21.578125 
z
M 31.109375 56 
z
" id="DejaVuSans-117"/>
      <path d="M 18.109375 8.203125 
L 18.109375 -20.796875 
L 9.078125 -20.796875 
L 9.078125 54.6875 
L 18.109375 54.6875 
L 18.109375 46.390625 
Q 20.953125 51.265625 25.265625 53.625 
Q 29.59375 56 35.59375 56 
Q 45.5625 56 51.78125 48.09375 
Q 58.015625 40.1875 58.015625 27.296875 
Q 58.015625 14.40625 51.78125 6.484375 
Q 45.5625 -1.421875 35.59375 -1.421875 
Q 29.59375 -1.421875 25.265625 0.953125 
Q 20.953125 3.328125 18.109375 8.203125 
z
M 48.6875 27.296875 
Q 48.6875 37.203125 44.609375 42.84375 
Q 40.53125 48.484375 33.40625 48.484375 
Q 26.265625 48.484375 22.1875 42.84375 
Q 18.109375 37.203125 18.109375 27.296875 
Q 18.109375 17.390625 22.1875 11.75 
Q 26.265625 6.109375 33.40625 6.109375 
Q 40.53125 6.109375 44.609375 11.75 
Q 48.6875 17.390625 48.6875 27.296875 
z
" id="DejaVuSans-112"/>
      <path d="M 45.40625 46.390625 
L 45.40625 75.984375 
L 54.390625 75.984375 
L 54.390625 0 
L 45.40625 0 
L 45.40625 8.203125 
Q 42.578125 3.328125 38.25 0.953125 
Q 33.9375 -1.421875 27.875 -1.421875 
Q 17.96875 -1.421875 11.734375 6.484375 
Q 5.515625 14.40625 5.515625 27.296875 
Q 5.515625 40.1875 11.734375 48.09375 
Q 17.96875 56 27.875 56 
Q 33.9375 56 38.25 53.625 
Q 42.578125 51.265625 45.40625 46.390625 
z
M 14.796875 27.296875 
Q 14.796875 17.390625 18.875 11.75 
Q 22.953125 6.109375 30.078125 6.109375 
Q 37.203125 6.109375 41.296875 11.75 
Q 45.40625 17.390625 45.40625 27.296875 
Q 45.40625 37.203125 41.296875 42.84375 
Q 37.203125 48.484375 30.078125 48.484375 
Q 22.953125 48.484375 18.875 42.84375 
Q 14.796875 37.203125 14.796875 27.296875 
z
" id="DejaVuSans-100"/>
      <path d="M 56.203125 29.59375 
L 56.203125 25.203125 
L 14.890625 25.203125 
Q 15.484375 15.921875 20.484375 11.0625 
Q 25.484375 6.203125 34.421875 6.203125 
Q 39.59375 6.203125 44.453125 7.46875 
Q 49.3125 8.734375 54.109375 11.28125 
L 54.109375 2.78125 
Q 49.265625 0.734375 44.1875 -0.34375 
Q 39.109375 -1.421875 33.890625 -1.421875 
Q 20.796875 -1.421875 13.15625 6.1875 
Q 5.515625 13.8125 5.515625 26.8125 
Q 5.515625 40.234375 12.765625 48.109375 
Q 20.015625 56 32.328125 56 
Q 43.359375 56 49.78125 48.890625 
Q 56.203125 41.796875 56.203125 29.59375 
z
M 47.21875 32.234375 
Q 47.125 39.59375 43.09375 43.984375 
Q 39.0625 48.390625 32.421875 48.390625 
Q 24.90625 48.390625 20.390625 44.140625 
Q 15.875 39.890625 15.1875 32.171875 
z
" id="DejaVuSans-101"/>
      <path d="M 30.609375 48.390625 
Q 23.390625 48.390625 19.1875 42.75 
Q 14.984375 37.109375 14.984375 27.296875 
Q 14.984375 17.484375 19.15625 11.84375 
Q 23.34375 6.203125 30.609375 6.203125 
Q 37.796875 6.203125 41.984375 11.859375 
Q 46.1875 17.53125 46.1875 27.296875 
Q 46.1875 37.015625 41.984375 42.703125 
Q 37.796875 48.390625 30.609375 48.390625 
z
M 30.609375 56 
Q 42.328125 56 49.015625 48.375 
Q 55.71875 40.765625 55.71875 27.296875 
Q 55.71875 13.875 49.015625 6.21875 
Q 42.328125 -1.421875 30.609375 -1.421875 
Q 18.84375 -1.421875 12.171875 6.21875 
Q 5.515625 13.875 5.515625 27.296875 
Q 5.515625 40.765625 12.171875 48.375 
Q 18.84375 56 30.609375 56 
z
" id="DejaVuSans-111"/>
      <path d="M 54.890625 33.015625 
L 54.890625 0 
L 45.90625 0 
L 45.90625 32.71875 
Q 45.90625 40.484375 42.875 44.328125 
Q 39.84375 48.1875 33.796875 48.1875 
Q 26.515625 48.1875 22.3125 43.546875 
Q 18.109375 38.921875 18.109375 30.90625 
L 18.109375 0 
L 9.078125 0 
L 9.078125 54.6875 
L 18.109375 54.6875 
L 18.109375 46.1875 
Q 21.34375 51.125 25.703125 53.5625 
Q 30.078125 56 35.796875 56 
Q 45.21875 56 50.046875 50.171875 
Q 54.890625 44.34375 54.890625 33.015625 
z
" id="DejaVuSans-110"/>
      <path d="M 31.78125 66.40625 
Q 24.171875 66.40625 20.328125 58.90625 
Q 16.5 51.421875 16.5 36.375 
Q 16.5 21.390625 20.328125 13.890625 
Q 24.171875 6.390625 31.78125 6.390625 
Q 39.453125 6.390625 43.28125 13.890625 
Q 47.125 21.390625 47.125 36.375 
Q 47.125 51.421875 43.28125 58.90625 
Q 39.453125 66.40625 31.78125 66.40625 
z
M 31.78125 74.21875 
Q 44.046875 74.21875 50.515625 64.515625 
Q 56.984375 54.828125 56.984375 36.375 
Q 56.984375 17.96875 50.515625 8.265625 
Q 44.046875 -1.421875 31.78125 -1.421875 
Q 19.53125 -1.421875 13.0625 8.265625 
Q 6.59375 17.96875 6.59375 36.375 
Q 6.59375 54.828125 13.0625 64.515625 
Q 19.53125 74.21875 31.78125 74.21875 
z
" id="DejaVuSans-48"/>
      <path d="M 12.40625 8.296875 
L 28.515625 8.296875 
L 28.515625 63.921875 
L 10.984375 60.40625 
L 10.984375 69.390625 
L 28.421875 72.90625 
L 38.28125 72.90625 
L 38.28125 8.296875 
L 54.390625 8.296875 
L 54.390625 0 
L 12.40625 0 
z
" id="DejaVuSans-49"/>
      <path d="M 39.40625 66.21875 
Q 28.65625 66.21875 22.328125 58.203125 
Q 16.015625 50.203125 16.015625 36.375 
Q 16.015625 22.609375 22.328125 14.59375 
Q 28.65625 6.59375 39.40625 6.59375 
Q 50.140625 6.59375 56.421875 14.59375 
Q 62.703125 22.609375 62.703125 36.375 
Q 62.703125 50.203125 56.421875 58.203125 
Q 50.140625 66.21875 39.40625 66.21875 
z
M 39.40625 74.21875 
Q 54.734375 74.21875 63.90625 63.9375 
Q 73.09375 53.65625 73.09375 36.375 
Q 73.09375 19.140625 63.90625 8.859375 
Q 54.734375 -1.421875 39.40625 -1.421875 
Q 24.03125 -1.421875 14.8125 8.828125 
Q 5.609375 19.09375 5.609375 36.375 
Q 5.609375 53.65625 14.8125 63.9375 
Q 24.03125 74.21875 39.40625 74.21875 
z
" id="DejaVuSans-79"/>
      <path d="M 48.78125 52.59375 
L 48.78125 44.1875 
Q 44.96875 46.296875 41.140625 47.34375 
Q 37.3125 48.390625 33.40625 48.390625 
Q 24.65625 48.390625 19.8125 42.84375 
Q 14.984375 37.3125 14.984375 27.296875 
Q 14.984375 17.28125 19.8125 11.734375 
Q 24.65625 6.203125 33.40625 6.203125 
Q 37.3125 6.203125 41.140625 7.25 
Q 44.96875 8.296875 48.78125 10.40625 
L 48.78125 2.09375 
Q 45.015625 0.34375 40.984375 -0.53125 
Q 36.96875 -1.421875 32.421875 -1.421875 
Q 20.0625 -1.421875 12.78125 6.34375 
Q 5.515625 14.109375 5.515625 27.296875 
Q 5.515625 40.671875 12.859375 48.328125 
Q 20.21875 56 33.015625 56 
Q 37.15625 56 41.109375 55.140625 
Q 45.0625 54.296875 48.78125 52.59375 
z
" id="DejaVuSans-99"/>
      <path d="M 48.6875 27.296875 
Q 48.6875 37.203125 44.609375 42.84375 
Q 40.53125 48.484375 33.40625 48.484375 
Q 26.265625 48.484375 22.1875 42.84375 
Q 18.109375 37.203125 18.109375 27.296875 
Q 18.109375 17.390625 22.1875 11.75 
Q 26.265625 6.109375 33.40625 6.109375 
Q 40.53125 6.109375 44.609375 11.75 
Q 48.6875 17.390625 48.6875 27.296875 
z
M 18.109375 46.390625 
Q 20.953125 51.265625 25.265625 53.625 
Q 29.59375 56 35.59375 56 
Q 45.5625 56 51.78125 48.09375 
Q 58.015625 40.1875 58.015625 27.296875 
Q 58.015625 14.40625 51.78125 6.484375 
Q 45.5625 -1.421875 35.59375 -1.421875 
Q 29.59375 -1.421875 25.265625 0.953125 
Q 20.953125 3.328125 18.109375 8.203125 
L 18.109375 0 
L 9.078125 0 
L 9.078125 75.984375 
L 18.109375 75.984375 
z
" id="DejaVuSans-98"/>
      <path d="M 41.109375 46.296875 
Q 39.59375 47.171875 37.8125 47.578125 
Q 36.03125 48 33.890625 48 
Q 26.265625 48 22.1875 43.046875 
Q 18.109375 38.09375 18.109375 28.8125 
L 18.109375 0 
L 9.078125 0 
L 9.078125 54.6875 
L 18.109375 54.6875 
L 18.109375 46.1875 
Q 20.953125 51.171875 25.484375 53.578125 
Q 30.03125 56 36.53125 56 
Q 37.453125 56 38.578125 55.875 
Q 39.703125 55.765625 41.0625 55.515625 
z
" id="DejaVuSans-114"/>
      <path d="M 19.1875 8.296875 
L 53.609375 8.296875 
L 53.609375 0 
L 7.328125 0 
L 7.328125 8.296875 
Q 12.9375 14.109375 22.625 23.890625 
Q 32.328125 33.6875 34.8125 36.53125 
Q 39.546875 41.84375 41.421875 45.53125 
Q 43.3125 49.21875 43.3125 52.78125 
Q 43.3125 58.59375 39.234375 62.25 
Q 35.15625 65.921875 28.609375 65.921875 
Q 23.96875 65.921875 18.8125 64.3125 
Q 13.671875 62.703125 7.8125 59.421875 
L 7.8125 69.390625 
Q 13.765625 71.78125 18.9375 73 
Q 24.125 74.21875 28.421875 74.21875 
Q 39.75 74.21875 46.484375 68.546875 
Q 53.21875 62.890625 53.21875 53.421875 
Q 53.21875 48.921875 51.53125 44.890625 
Q 49.859375 40.875 45.40625 35.40625 
Q 44.1875 33.984375 37.640625 27.21875 
Q 31.109375 20.453125 19.1875 8.296875 
z
" id="DejaVuSans-50"/>
      <path d="M 4.203125 54.6875 
L 13.1875 54.6875 
L 24.421875 12.015625 
L 35.59375 54.6875 
L 46.1875 54.6875 
L 57.421875 12.015625 
L 68.609375 54.6875 
L 77.59375 54.6875 
L 63.28125 0 
L 52.6875 0 
L 40.921875 44.828125 
L 29.109375 0 
L 18.5 0 
z
" id="DejaVuSans-119"/>
      <path d="M 9.421875 54.6875 
L 18.40625 54.6875 
L 18.40625 0 
L 9.421875 0 
z
M 9.421875 75.984375 
L 18.40625 75.984375 
L 18.40625 64.59375 
L 9.421875 64.59375 
z
" id="DejaVuSans-105"/>
      <path d="M 54.890625 33.015625 
L 54.890625 0 
L 45.90625 0 
L 45.90625 32.71875 
Q 45.90625 40.484375 42.875 44.328125 
Q 39.84375 48.1875 33.796875 48.1875 
Q 26.515625 48.1875 22.3125 43.546875 
Q 18.109375 38.921875 18.109375 30.90625 
L 18.109375 0 
L 9.078125 0 
L 9.078125 75.984375 
L 18.109375 75.984375 
L 18.109375 46.1875 
Q 21.34375 51.125 25.703125 53.5625 
Q 30.078125 56 35.796875 56 
Q 45.21875 56 50.046875 50.171875 
Q 54.890625 44.34375 54.890625 33.015625 
z
" id="DejaVuSans-104"/>
      <path d="M 10.59375 48.1875 
L 73.1875 48.1875 
L 73.1875 36.71875 
L 10.59375 36.71875 
z
M 10.59375 25.984375 
L 73.1875 25.984375 
L 73.1875 14.40625 
L 10.59375 14.40625 
z
" id="DejaVuSans-Bold-61"/>
      <path d="M 10.203125 18.890625 
L 27.78125 18.890625 
L 27.78125 0 
L 10.203125 0 
z
" id="DejaVuSans-Bold-46"/>
      <path d="M 34.8125 32.625 
Q 29.546875 32.625 26.703125 29.734375 
Q 23.875 26.859375 23.875 21.484375 
Q 23.875 16.109375 26.703125 13.25 
Q 29.546875 10.40625 34.8125 10.40625 
Q 40.046875 10.40625 42.828125 13.25 
Q 45.609375 16.109375 45.609375 21.484375 
Q 45.609375 26.90625 42.828125 29.765625 
Q 40.046875 32.625 34.8125 32.625 
z
M 21.09375 38.8125 
Q 14.453125 40.828125 11.078125 44.96875 
Q 7.71875 49.125 7.71875 55.328125 
Q 7.71875 64.546875 14.59375 69.375 
Q 21.484375 74.21875 34.8125 74.21875 
Q 48.046875 74.21875 54.921875 69.40625 
Q 61.8125 64.59375 61.8125 55.328125 
Q 61.8125 49.125 58.421875 44.96875 
Q 55.03125 40.828125 48.390625 38.8125 
Q 55.8125 36.765625 59.59375 32.15625 
Q 63.375 27.546875 63.375 20.515625 
Q 63.375 9.671875 56.171875 4.125 
Q 48.96875 -1.421875 34.8125 -1.421875 
Q 20.609375 -1.421875 13.359375 4.125 
Q 6.109375 9.671875 6.109375 20.515625 
Q 6.109375 27.546875 9.890625 32.15625 
Q 13.671875 36.765625 21.09375 38.8125 
z
M 25.484375 53.421875 
Q 25.484375 49.078125 27.90625 46.734375 
Q 30.328125 44.390625 34.8125 44.390625 
Q 39.203125 44.390625 41.59375 46.734375 
Q 44 49.078125 44 53.421875 
Q 44 57.765625 41.59375 60.078125 
Q 39.203125 62.40625 34.8125 62.40625 
Q 30.328125 62.40625 27.90625 60.0625 
Q 25.484375 57.71875 25.484375 53.421875 
z
" id="DejaVuSans-Bold-56"/>
      <path d="M 10.984375 1.515625 
L 10.984375 10.5 
Q 14.703125 8.734375 18.5 7.8125 
Q 22.3125 6.890625 25.984375 6.890625 
Q 35.75 6.890625 40.890625 13.453125 
Q 46.046875 20.015625 46.78125 33.40625 
Q 43.953125 29.203125 39.59375 26.953125 
Q 35.25 24.703125 29.984375 24.703125 
Q 19.046875 24.703125 12.671875 31.3125 
Q 6.296875 37.9375 6.296875 49.421875 
Q 6.296875 60.640625 12.9375 67.421875 
Q 19.578125 74.21875 30.609375 74.21875 
Q 43.265625 74.21875 49.921875 64.515625 
Q 56.59375 54.828125 56.59375 36.375 
Q 56.59375 19.140625 48.40625 8.859375 
Q 40.234375 -1.421875 26.421875 -1.421875 
Q 22.703125 -1.421875 18.890625 -0.6875 
Q 15.09375 0.046875 10.984375 1.515625 
z
M 30.609375 32.421875 
Q 37.25 32.421875 41.125 36.953125 
Q 45.015625 41.5 45.015625 49.421875 
Q 45.015625 57.28125 41.125 61.84375 
Q 37.25 66.40625 30.609375 66.40625 
Q 23.96875 66.40625 20.09375 61.84375 
Q 16.21875 57.28125 16.21875 49.421875 
Q 16.21875 41.5 20.09375 36.953125 
Q 23.96875 32.421875 30.609375 32.421875 
z
" id="DejaVuSans-57"/>
      <path d="M 10.796875 72.90625 
L 49.515625 72.90625 
L 49.515625 64.59375 
L 19.828125 64.59375 
L 19.828125 46.734375 
Q 21.96875 47.46875 24.109375 47.828125 
Q 26.265625 48.1875 28.421875 48.1875 
Q 40.625 48.1875 47.75 41.5 
Q 54.890625 34.8125 54.890625 23.390625 
Q 54.890625 11.625 47.5625 5.09375 
Q 40.234375 -1.421875 26.90625 -1.421875 
Q 22.3125 -1.421875 17.546875 -0.640625 
Q 12.796875 0.140625 7.71875 1.703125 
L 7.71875 11.625 
Q 12.109375 9.234375 16.796875 8.0625 
Q 21.484375 6.890625 26.703125 6.890625 
Q 35.15625 6.890625 40.078125 11.328125 
Q 45.015625 15.765625 45.015625 23.390625 
Q 45.015625 31 40.078125 35.4375 
Q 35.15625 39.890625 26.703125 39.890625 
Q 22.75 39.890625 18.8125 39.015625 
Q 14.890625 38.140625 10.796875 36.28125 
z
" id="DejaVuSans-53"/>
      <path d="M 72.703125 32.078125 
Q 68.453125 32.078125 66.03125 28.46875 
Q 63.625 24.859375 63.625 18.40625 
Q 63.625 12.0625 66.03125 8.421875 
Q 68.453125 4.78125 72.703125 4.78125 
Q 76.859375 4.78125 79.265625 8.421875 
Q 81.6875 12.0625 81.6875 18.40625 
Q 81.6875 24.8125 79.265625 28.4375 
Q 76.859375 32.078125 72.703125 32.078125 
z
M 72.703125 38.28125 
Q 80.421875 38.28125 84.953125 32.90625 
Q 89.5 27.546875 89.5 18.40625 
Q 89.5 9.28125 84.9375 3.921875 
Q 80.375 -1.421875 72.703125 -1.421875 
Q 64.890625 -1.421875 60.34375 3.921875 
Q 55.8125 9.28125 55.8125 18.40625 
Q 55.8125 27.59375 60.375 32.9375 
Q 64.9375 38.28125 72.703125 38.28125 
z
M 22.3125 68.015625 
Q 18.109375 68.015625 15.6875 64.375 
Q 13.28125 60.75 13.28125 54.390625 
Q 13.28125 47.953125 15.671875 44.328125 
Q 18.0625 40.71875 22.3125 40.71875 
Q 26.5625 40.71875 28.96875 44.328125 
Q 31.390625 47.953125 31.390625 54.390625 
Q 31.390625 60.6875 28.953125 64.34375 
Q 26.515625 68.015625 22.3125 68.015625 
z
M 66.40625 74.21875 
L 74.21875 74.21875 
L 28.609375 -1.421875 
L 20.796875 -1.421875 
z
M 22.3125 74.21875 
Q 30.03125 74.21875 34.609375 68.875 
Q 39.203125 63.53125 39.203125 54.390625 
Q 39.203125 45.171875 34.640625 39.84375 
Q 30.078125 34.515625 22.3125 34.515625 
Q 14.546875 34.515625 10.03125 39.859375 
Q 5.515625 45.21875 5.515625 54.390625 
Q 5.515625 63.484375 10.046875 68.84375 
Q 14.59375 74.21875 22.3125 74.21875 
z
" id="DejaVuSans-37"/>
      <path d="M 37.109375 75.984375 
L 37.109375 68.5 
L 28.515625 68.5 
Q 23.6875 68.5 21.796875 66.546875 
Q 19.921875 64.59375 19.921875 59.515625 
L 19.921875 54.6875 
L 34.71875 54.6875 
L 34.71875 47.703125 
L 19.921875 47.703125 
L 19.921875 0 
L 10.890625 0 
L 10.890625 47.703125 
L 2.296875 47.703125 
L 2.296875 54.6875 
L 10.890625 54.6875 
L 10.890625 58.5 
Q 10.890625 67.625 15.140625 71.796875 
Q 19.390625 75.984375 28.609375 75.984375 
z
" id="DejaVuSans-102"/>
      <path d="M 45.40625 27.984375 
Q 45.40625 37.75 41.375 43.109375 
Q 37.359375 48.484375 30.078125 48.484375 
Q 22.859375 48.484375 18.828125 43.109375 
Q 14.796875 37.75 14.796875 27.984375 
Q 14.796875 18.265625 18.828125 12.890625 
Q 22.859375 7.515625 30.078125 7.515625 
Q 37.359375 7.515625 41.375 12.890625 
Q 45.40625 18.265625 45.40625 27.984375 
z
M 54.390625 6.78125 
Q 54.390625 -7.171875 48.1875 -13.984375 
Q 42 -20.796875 29.203125 -20.796875 
Q 24.46875 -20.796875 20.265625 -20.09375 
Q 16.0625 -19.390625 12.109375 -17.921875 
L 12.109375 -9.1875 
Q 16.0625 -11.328125 19.921875 -12.34375 
Q 23.78125 -13.375 27.78125 -13.375 
Q 36.625 -13.375 41.015625 -8.765625 
Q 45.40625 -4.15625 45.40625 5.171875 
L 45.40625 9.625 
Q 42.625 4.78125 38.28125 2.390625 
Q 33.9375 0 27.875 0 
Q 17.828125 0 11.671875 7.65625 
Q 5.515625 15.328125 5.515625 27.984375 
Q 5.515625 40.671875 11.671875 48.328125 
Q 17.828125 56 27.875 56 
Q 33.9375 56 38.28125 53.609375 
Q 42.625 51.21875 45.40625 46.390625 
L 45.40625 54.6875 
L 54.390625 54.6875 
z
" id="DejaVuSans-103"/>
      <path d="M 10.015625 1.609375 
L 10.015625 15.09375 
Q 14.5 12.984375 18.59375 11.9375 
Q 22.703125 10.890625 26.703125 10.890625 
Q 35.109375 10.890625 39.796875 15.546875 
Q 44.484375 20.21875 45.3125 29.390625 
Q 42 26.953125 38.234375 25.734375 
Q 34.46875 24.515625 30.078125 24.515625 
Q 18.890625 24.515625 12.03125 31.03125 
Q 5.171875 37.546875 5.171875 48.1875 
Q 5.171875 59.96875 12.8125 67.046875 
Q 20.453125 74.125 33.296875 74.125 
Q 47.5625 74.125 55.375 64.5 
Q 63.1875 54.890625 63.1875 37.3125 
Q 63.1875 19.234375 54.046875 8.90625 
Q 44.921875 -1.421875 29 -1.421875 
Q 23.875 -1.421875 19.1875 -0.65625 
Q 14.5 0.09375 10.015625 1.609375 
z
M 33.203125 36.71875 
Q 38.140625 36.71875 40.625 39.90625 
Q 43.109375 43.109375 43.109375 49.515625 
Q 43.109375 55.859375 40.625 59.078125 
Q 38.140625 62.3125 33.203125 62.3125 
Q 28.265625 62.3125 25.78125 59.078125 
Q 23.296875 55.859375 23.296875 49.515625 
Q 23.296875 43.109375 25.78125 39.90625 
Q 28.265625 36.71875 33.203125 36.71875 
z
" id="DejaVuSans-Bold-57"/>
      <path d="M 10.59375 37.109375 
L 73.1875 37.109375 
L 73.1875 25.59375 
L 10.59375 25.59375 
z
" id="DejaVuSans-Bold-8722"/>
      <path d="M 10.59375 72.90625 
L 57.328125 72.90625 
L 57.328125 59.078125 
L 25.59375 59.078125 
L 25.59375 47.796875 
Q 27.734375 48.390625 29.90625 48.703125 
Q 32.078125 49.03125 34.421875 49.03125 
Q 47.75 49.03125 55.171875 42.359375 
Q 62.59375 35.6875 62.59375 23.78125 
Q 62.59375 11.96875 54.515625 5.265625 
Q 46.4375 -1.421875 32.078125 -1.421875 
Q 25.875 -1.421875 19.796875 -0.21875 
Q 13.71875 0.984375 7.71875 3.421875 
L 7.71875 18.21875 
Q 13.671875 14.796875 19.015625 13.078125 
Q 24.359375 11.375 29.109375 11.375 
Q 35.9375 11.375 39.859375 14.71875 
Q 43.796875 18.0625 43.796875 23.78125 
Q 43.796875 29.546875 39.859375 32.859375 
Q 35.9375 36.1875 29.109375 36.1875 
Q 25.046875 36.1875 20.453125 35.125 
Q 15.875 34.078125 10.59375 31.890625 
z
" id="DejaVuSans-Bold-53"/>
     </defs>
     <use transform="translate(0 0.015625)" xlink:href="#DejaVuSans-76"/>
     <use transform="translate(55.712891 0.015625)" xlink:href="#DejaVuSans-97"/>
     <use transform="translate(116.992188 0.015625)" xlink:href="#DejaVuSans-115"/>
     <use transform="translate(169.091797 0.015625)" xlink:href="#DejaVuSans-116"/>
     <use transform="translate(208.300781 0.015625)" xlink:href="#DejaVuSans-32"/>
     <use transform="translate(240.087891 0.015625)" xlink:href="#DejaVuSans-117"/>
     <use transform="translate(303.466797 0.015625)" xlink:href="#DejaVuSans-112"/>
     <use transform="translate(366.943359 0.015625)" xlink:href="#DejaVuSans-100"/>
     <use transform="translate(430.419922 0.015625)" xlink:href="#DejaVuSans-97"/>
     <use transform="translate(491.699219 0.015625)" xlink:href="#DejaVuSans-116"/>
     <use transform="translate(530.908203 0.015625)" xlink:href="#DejaVuSans-101"/>
     <use transform="translate(592.431641 0.015625)" xlink:href="#DejaVuSans-100"/>
     <use transform="translate(655.908203 0.015625)" xlink:href="#DejaVuSans-32"/>
     <use transform="translate(687.695312 0.015625)" xlink:href="#DejaVuSans-111"/>
     <use transform="translate(748.876953 0.015625)" xlink:href="#DejaVuSans-110"/>
     <use transform="translate(812.255859 0.015625)" xlink:href="#DejaVuSans-32"/>
     <use transform="translate(844.042969 0.015625)" xlink:href="#DejaVuSans-48"/>
     <use transform="translate(907.666016 0.015625)" xlink:href="#DejaVuSans-49"/>
     <use transform="translate(971.289062 0.015625)" xlink:href="#DejaVuSans-32"/>
     <use transform="translate(1003.076172 0.015625)" xlink:href="#DejaVuSans-79"/>
     <use transform="translate(1081.787109 0.015625)" xlink:href="#DejaVuSans-99"/>
     <use transform="translate(1136.767578 0.015625)" xlink:href="#DejaVuSans-116"/>
     <use transform="translate(1175.976562 0.015625)" xlink:href="#DejaVuSans-111"/>
     <use transform="translate(1237.158203 0.015625)" xlink:href="#DejaVuSans-98"/>
     <use transform="translate(1300.634766 0.015625)" xlink:href="#DejaVuSans-101"/>
     <use transform="translate(1362.158203 0.015625)" xlink:href="#DejaVuSans-114"/>
     <use transform="translate(1403.271484 0.015625)" xlink:href="#DejaVuSans-32"/>
     <use transform="translate(1435.058594 0.015625)" xlink:href="#DejaVuSans-50"/>
     <use transform="translate(1498.681641 0.015625)" xlink:href="#DejaVuSans-48"/>
     <use transform="translate(1562.304688 0.015625)" xlink:href="#DejaVuSans-50"/>
     <use transform="translate(1625.927734 0.015625)" xlink:href="#DejaVuSans-48"/>
     <use transform="translate(1689.550781 0.015625)" xlink:href="#DejaVuSans-32"/>
     <use transform="translate(1721.337891 0.015625)" xlink:href="#DejaVuSans-119"/>
     <use transform="translate(1803.125 0.015625)" xlink:href="#DejaVuSans-105"/>
     <use transform="translate(1830.908203 0.015625)" xlink:href="#DejaVuSans-116"/>
     <use transform="translate(1870.117188 0.015625)" xlink:href="#DejaVuSans-104"/>
     <use transform="translate(1933.496094 0.015625)" xlink:href="#DejaVuSans-32"/>
     <use transform="translate(1965.283203 0.015625)" xlink:href="#DejaVuSans-BoldOblique-82"/>
     <use transform="translate(2042.285156 -16.390625)scale(0.7)" xlink:href="#DejaVuSans-BoldOblique-116"/>
     <use transform="translate(2099.321289 0.015625)" xlink:href="#DejaVuSans-Bold-61"/>
     <use transform="translate(2203.950195 0.015625)" xlink:href="#DejaVuSans-Bold-49"/>
     <use transform="translate(2273.530273 0.015625)" xlink:href="#DejaVuSans-Bold-46"/>
     <use transform="translate(2311.518555 0.015625)" xlink:href="#DejaVuSans-Bold-49"/>
     <use transform="translate(2381.098633 0.015625)" xlink:href="#DejaVuSans-Bold-56"/>
     <use transform="translate(2450.678711 0.015625)" xlink:href="#DejaVuSans-32"/>
     <use transform="translate(2482.46582 0.015625)" xlink:href="#DejaVuSans-97"/>
     <use transform="translate(2543.745117 0.015625)" xlink:href="#DejaVuSans-110"/>
     <use transform="translate(2607.124023 0.015625)" xlink:href="#DejaVuSans-100"/>
     <use transform="translate(2670.600586 0.015625)" xlink:href="#DejaVuSans-32"/>
     <use transform="translate(2702.387695 0.015625)" xlink:href="#DejaVuSans-57"/>
     <use transform="translate(2766.010742 0.015625)" xlink:href="#DejaVuSans-53"/>
     <use transform="translate(2829.633789 0.015625)" xlink:href="#DejaVuSans-37"/>
     <use transform="translate(2924.65332 0.015625)" xlink:href="#DejaVuSans-32"/>
     <use transform="translate(2956.44043 0.015625)" xlink:href="#DejaVuSans-99"/>
     <use transform="translate(3011.420898 0.015625)" xlink:href="#DejaVuSans-111"/>
     <use transform="translate(3072.602539 0.015625)" xlink:href="#DejaVuSans-110"/>
     <use transform="translate(3135.981445 0.015625)" xlink:href="#DejaVuSans-102"/>
     <use transform="translate(3171.186523 0.015625)" xlink:href="#DejaVuSans-105"/>
     <use transform="translate(3198.969727 0.015625)" xlink:href="#DejaVuSans-100"/>
     <use transform="translate(3262.446289 0.015625)" xlink:href="#DejaVuSans-101"/>
     <use transform="translate(3323.969727 0.015625)" xlink:href="#DejaVuSans-110"/>
     <use transform="translate(3387.348633 0.015625)" xlink:href="#DejaVuSans-99"/>
     <use transform="translate(3442.329102 0.015625)" xlink:href="#DejaVuSans-101"/>
     <use transform="translate(3503.852539 0.015625)" xlink:href="#DejaVuSans-32"/>
     <use transform="translate(3535.639648 0.015625)" xlink:href="#DejaVuSans-105"/>
     <use transform="translate(3563.422852 0.015625)" xlink:href="#DejaVuSans-110"/>
     <use transform="translate(3626.801758 0.015625)" xlink:href="#DejaVuSans-32"/>
     <use transform="translate(3658.588867 0.015625)" xlink:href="#DejaVuSans-114"/>
     <use transform="translate(3699.702148 0.015625)" xlink:href="#DejaVuSans-97"/>
     <use transform="translate(3760.981445 0.015625)" xlink:href="#DejaVuSans-110"/>
     <use transform="translate(3824.360352 0.015625)" xlink:href="#DejaVuSans-103"/>
     <use transform="translate(3887.836914 0.015625)" xlink:href="#DejaVuSans-101"/>
     <use transform="translate(3949.360352 0.015625)" xlink:href="#DejaVuSans-32"/>
     <use transform="translate(3981.147461 0.015625)" xlink:href="#DejaVuSans-Bold-48"/>
     <use transform="translate(4050.727539 0.015625)" xlink:href="#DejaVuSans-Bold-46"/>
     <use transform="translate(4088.71582 0.015625)" xlink:href="#DejaVuSans-Bold-57"/>
     <use transform="translate(4158.295898 0.015625)" xlink:href="#DejaVuSans-Bold-57"/>
     <use transform="translate(4248.71582 0.015625)" xlink:href="#DejaVuSans-Bold-8722"/>
     <use transform="translate(4353.344727 0.015625)" xlink:href="#DejaVuSans-Bold-49"/>
     <use transform="translate(4422.924805 0.015625)" xlink:href="#DejaVuSans-Bold-46"/>
     <use transform="translate(4460.913086 0.015625)" xlink:href="#DejaVuSans-Bold-51"/>
     <use transform="translate(4530.493164 0.015625)" xlink:href="#DejaVuSans-Bold-53"/>
    </g>
   </g>
   <g id="legend_1">
    <g id="line2d_14">
     <path d="M 920.52 60.12 
L 952.52 60.12 
" style="fill:none;stroke:#000000;stroke-linecap:square;"/>
    </g>
    <g id="line2d_15">
     <g>
      <use style="fill:#ffffff;stroke:#000000;" x="936.52" xlink:href="#mfbc508b6be" y="60.12"/>
     </g>
    </g>
    <g id="text_14">
     <!-- Most Likely $R_t$ -->
     <g style="fill:#555555;" transform="translate(965.32 65.72)scale(0.16 -0.16)">
      <defs>
       <path id="DejaVuSans-Bold-32"/>
       <path d="M 9.1875 72.90625 
L 27.984375 72.90625 
L 27.984375 14.203125 
L 60.984375 14.203125 
L 60.984375 0 
L 9.1875 0 
z
" id="DejaVuSans-Bold-76"/>
       <path d="M 8.40625 75.984375 
L 25.875 75.984375 
L 25.875 34.625 
L 46 54.6875 
L 66.3125 54.6875 
L 39.59375 29.59375 
L 68.40625 0 
L 47.21875 0 
L 25.875 22.796875 
L 25.875 0 
L 8.40625 0 
z
" id="DejaVuSans-Bold-107"/>
      </defs>
      <use transform="translate(0 0.015625)" xlink:href="#DejaVuSans-Bold-77"/>
      <use transform="translate(99.511719 0.015625)" xlink:href="#DejaVuSans-Bold-111"/>
      <use transform="translate(168.212891 0.015625)" xlink:href="#DejaVuSans-Bold-115"/>
      <use transform="translate(227.734375 0.015625)" xlink:href="#DejaVuSans-Bold-116"/>
      <use transform="translate(275.537109 0.015625)" xlink:href="#DejaVuSans-Bold-32"/>
      <use transform="translate(310.351562 0.015625)" xlink:href="#DejaVuSans-Bold-76"/>
      <use transform="translate(374.072266 0.015625)" xlink:href="#DejaVuSans-Bold-105"/>
      <use transform="translate(408.349609 0.015625)" xlink:href="#DejaVuSans-Bold-107"/>
      <use transform="translate(474.853516 0.015625)" xlink:href="#DejaVuSans-Bold-101"/>
      <use transform="translate(542.675781 0.015625)" xlink:href="#DejaVuSans-Bold-108"/>
      <use transform="translate(576.953125 0.015625)" xlink:href="#DejaVuSans-Bold-121"/>
      <use transform="translate(642.138672 0.015625)" xlink:href="#DejaVuSans-Bold-32"/>
      <use transform="translate(676.953125 0.015625)" xlink:href="#DejaVuSans-BoldOblique-82"/>
      <use transform="translate(753.955078 -16.390625)scale(0.7)" xlink:href="#DejaVuSans-BoldOblique-116"/>
     </g>
    </g>
    <g id="patch_5">
     <path d="M 920.52 89.3975 
L 952.52 89.3975 
L 952.52 78.1975 
L 920.52 78.1975 
z
" style="fill:#e6e6e6;stroke:#e6e6e6;stroke-linejoin:miter;"/>
    </g>
    <g id="text_15">
     <!-- 95% CI -->
     <g style="fill:#555555;" transform="translate(965.32 89.3975)scale(0.16 -0.16)">
      <defs>
       <path d="M 77.484375 30.078125 
Q 74.03125 30.078125 72.125 27.078125 
Q 70.21875 24.078125 70.21875 18.5 
Q 70.21875 12.890625 72.09375 9.890625 
Q 73.96875 6.890625 77.484375 6.890625 
Q 81 6.890625 82.859375 9.890625 
Q 84.71875 12.890625 84.71875 18.5 
Q 84.71875 24.078125 82.828125 27.078125 
Q 80.953125 30.078125 77.484375 30.078125 
z
M 77.484375 38.28125 
Q 86.578125 38.28125 91.796875 33 
Q 97.015625 27.734375 97.015625 18.5 
Q 97.015625 9.28125 91.796875 3.921875 
Q 86.578125 -1.421875 77.484375 -1.421875 
Q 68.40625 -1.421875 63.15625 3.921875 
Q 57.90625 9.28125 57.90625 18.5 
Q 57.90625 27.6875 63.15625 32.984375 
Q 68.40625 38.28125 77.484375 38.28125 
z
M 32.71875 -1.421875 
L 21.921875 -1.421875 
L 67.484375 74.21875 
L 78.328125 74.21875 
z
M 22.703125 74.21875 
Q 31.78125 74.21875 36.984375 68.921875 
Q 42.1875 63.625 42.1875 54.390625 
Q 42.1875 45.171875 36.984375 39.84375 
Q 31.78125 34.515625 22.703125 34.515625 
Q 13.625 34.515625 8.421875 39.84375 
Q 3.21875 45.171875 3.21875 54.390625 
Q 3.21875 63.625 8.421875 68.921875 
Q 13.625 74.21875 22.703125 74.21875 
z
M 22.703125 66.015625 
Q 19.1875 66.015625 17.28125 62.984375 
Q 15.375 59.96875 15.375 54.390625 
Q 15.375 48.78125 17.28125 45.71875 
Q 19.1875 42.671875 22.703125 42.671875 
Q 26.21875 42.671875 28.09375 45.71875 
Q 29.984375 48.78125 29.984375 54.390625 
Q 29.984375 59.96875 28.078125 62.984375 
Q 26.171875 66.015625 22.703125 66.015625 
z
" id="DejaVuSans-Bold-37"/>
       <path d="M 67 4 
Q 61.8125 1.3125 56.203125 -0.046875 
Q 50.59375 -1.421875 44.484375 -1.421875 
Q 26.265625 -1.421875 15.625 8.765625 
Q 4.984375 18.953125 4.984375 36.375 
Q 4.984375 53.859375 15.625 64.03125 
Q 26.265625 74.21875 44.484375 74.21875 
Q 50.59375 74.21875 56.203125 72.84375 
Q 61.8125 71.484375 67 68.796875 
L 67 53.71875 
Q 61.765625 57.28125 56.6875 58.9375 
Q 51.609375 60.59375 46 60.59375 
Q 35.9375 60.59375 30.171875 54.140625 
Q 24.421875 47.703125 24.421875 36.375 
Q 24.421875 25.09375 30.171875 18.640625 
Q 35.9375 12.203125 46 12.203125 
Q 51.609375 12.203125 56.6875 13.859375 
Q 61.765625 15.53125 67 19.09375 
z
" id="DejaVuSans-Bold-67"/>
       <path d="M 9.1875 72.90625 
L 27.984375 72.90625 
L 27.984375 0 
L 9.1875 0 
z
" id="DejaVuSans-Bold-73"/>
      </defs>
      <use xlink:href="#DejaVuSans-Bold-57"/>
      <use x="69.580078" xlink:href="#DejaVuSans-Bold-53"/>
      <use x="139.160156" xlink:href="#DejaVuSans-Bold-37"/>
      <use x="239.355469" xlink:href="#DejaVuSans-Bold-32"/>
      <use x="274.169922" xlink:href="#DejaVuSans-Bold-67"/>
      <use x="347.558594" xlink:href="#DejaVuSans-Bold-73"/>
     </g>
    </g>
    <g id="patch_6">
     <path d="M 920.52 112.8825 
L 952.52 112.8825 
L 952.52 101.6825 
L 920.52 101.6825 
z
" style="fill:#c8c8c8;stroke:#c8c8c8;stroke-linejoin:miter;"/>
    </g>
    <g id="text_16">
     <!-- 65% CI -->
     <g style="fill:#555555;" transform="translate(965.32 112.8825)scale(0.16 -0.16)">
      <defs>
       <path d="M 36.1875 35.984375 
Q 31.25 35.984375 28.78125 32.78125 
Q 26.3125 29.59375 26.3125 23.1875 
Q 26.3125 16.796875 28.78125 13.59375 
Q 31.25 10.40625 36.1875 10.40625 
Q 41.15625 10.40625 43.625 13.59375 
Q 46.09375 16.796875 46.09375 23.1875 
Q 46.09375 29.59375 43.625 32.78125 
Q 41.15625 35.984375 36.1875 35.984375 
z
M 59.421875 71 
L 59.421875 57.515625 
Q 54.78125 59.71875 50.671875 60.765625 
Q 46.578125 61.8125 42.671875 61.8125 
Q 34.28125 61.8125 29.59375 57.140625 
Q 24.90625 52.484375 24.125 43.3125 
Q 27.34375 45.703125 31.09375 46.890625 
Q 34.859375 48.09375 39.3125 48.09375 
Q 50.484375 48.09375 57.34375 41.546875 
Q 64.203125 35.015625 64.203125 24.421875 
Q 64.203125 12.703125 56.53125 5.640625 
Q 48.875 -1.421875 35.984375 -1.421875 
Q 21.78125 -1.421875 13.984375 8.171875 
Q 6.203125 17.78125 6.203125 35.40625 
Q 6.203125 53.46875 15.3125 63.796875 
Q 24.421875 74.125 40.28125 74.125 
Q 45.3125 74.125 50.046875 73.34375 
Q 54.78125 72.5625 59.421875 71 
z
" id="DejaVuSans-Bold-54"/>
      </defs>
      <use xlink:href="#DejaVuSans-Bold-54"/>
      <use x="69.580078" xlink:href="#DejaVuSans-Bold-53"/>
      <use x="139.160156" xlink:href="#DejaVuSans-Bold-37"/>
      <use x="239.355469" xlink:href="#DejaVuSans-Bold-32"/>
      <use x="274.169922" xlink:href="#DejaVuSans-Bold-67"/>
      <use x="347.558594" xlink:href="#DejaVuSans-Bold-73"/>
     </g>
    </g>
   </g>
  </g>
 </g>
 <defs>
  <clipPath id="p9faa8b9e65">
   <rect height="502.12" width="1054.438" x="51.842" y="39.16"/>
  </clipPath>
 </defs>
</svg>
