<?xml version="1.0" encoding="utf-8" standalone="no"?>
<!DOCTYPE svg PUBLIC "-//W3C//DTD SVG 1.1//EN"
  "http://www.w3.org/Graphics/SVG/1.1/DTD/svg11.dtd">
<!-- Created with matplotlib (https://matplotlib.org/) -->
<svg height="576pt" version="1.1" viewBox="0 0 1152 576" width="1152pt" xmlns="http://www.w3.org/2000/svg" xmlns:xlink="http://www.w3.org/1999/xlink">
 <metadata>
  <rdf:RDF xmlns:cc="http://creativecommons.org/ns#" xmlns:dc="http://purl.org/dc/elements/1.1/" xmlns:rdf="http://www.w3.org/1999/02/22-rdf-syntax-ns#">
   <cc:Work>
    <dc:type rdf:resource="http://purl.org/dc/dcmitype/StillImage"/>
    <dc:date>2020-09-10T17:17:26.863536</dc:date>
    <dc:format>image/svg+xml</dc:format>
    <dc:creator>
     <cc:Agent>
      <dc:title>Matplotlib v3.3.1, https://matplotlib.org/</dc:title>
     </cc:Agent>
    </dc:creator>
   </cc:Work>
  </rdf:RDF>
 </metadata>
 <defs>
  <style type="text/css">*{stroke-linecap:butt;stroke-linejoin:round;}</style>
 </defs>
 <g id="figure_1">
  <g id="patch_1">
   <path d="M 0 576 
L 1152 576 
L 1152 0 
L 0 0 
z
" style="fill:#ffffff;"/>
  </g>
  <g id="axes_1">
   <g id="patch_2">
    <path d="M 51.842 541.28 
L 1136.869286 541.28 
L 1136.869286 39.16 
L 51.842 39.16 
z
" style="fill:#ffffff;"/>
   </g>
   <g id="PolyCollection_1">
    <path clip-path="url(#p8b8bde6b69)" d="M 51.842 -555.28529 
L 51.842 439.236258 
L 57.582885 413.320387 
L 63.32377 387.404516 
L 69.064655 359.868903 
L 74.80554 329.093806 
L 80.546426 308.037161 
L 86.287311 291.839742 
L 92.028196 277.262065 
L 97.769081 267.543613 
L 103.509966 259.444903 
L 109.250851 254.585677 
L 114.991736 249.726452 
L 120.732621 244.867226 
L 126.473506 244.867226 
L 132.214392 249.726452 
L 137.955277 257.825161 
L 143.696162 267.543613 
L 149.437047 275.642323 
L 155.177932 282.12129 
L 160.918817 286.980516 
L 166.659702 293.459484 
L 172.400587 308.037161 
L 178.141472 329.093806 
L 183.882358 356.629419 
L 189.623243 382.54529 
L 195.364128 403.601935 
L 201.105013 413.320387 
L 206.845898 416.559871 
L 212.586783 416.559871 
L 218.327668 414.940129 
L 224.068553 414.940129 
L 229.809438 413.320387 
L 235.550324 408.461161 
L 241.291209 400.362452 
L 247.032094 390.644 
L 252.772979 385.784774 
L 258.513864 390.644 
L 264.254749 405.221677 
L 269.995634 423.038839 
L 275.736519 437.616516 
L 281.477404 442.475742 
L 287.218289 439.236258 
L 292.959175 431.137548 
L 298.70006 427.898065 
L 304.440945 432.75729 
L 310.18183 444.095484 
L 315.922715 460.292903 
L 321.6636 471.631097 
L 327.404485 479.729806 
L 333.14537 486.208774 
L 338.886255 492.687742 
L 344.627141 500.786452 
L 350.368026 510.504903 
L 356.108911 516.983871 
L 361.849796 518.603613 
L 367.590681 512.124645 
L 373.331566 505.645677 
L 379.072451 500.786452 
L 384.813336 497.546968 
L 390.554221 499.16671 
L 396.295107 497.546968 
L 402.035992 494.307484 
L 407.776877 489.448258 
L 413.517762 484.589032 
L 419.258647 484.589032 
L 424.999532 491.068 
L 430.740417 499.16671 
L 436.481302 505.645677 
L 442.222187 508.885161 
L 447.963073 508.885161 
L 453.703958 507.265419 
L 459.444843 508.885161 
L 465.185728 510.504903 
L 470.926613 508.885161 
L 476.667498 502.406194 
L 482.408383 489.448258 
L 488.149268 474.870581 
L 493.890153 460.292903 
L 499.631039 453.813935 
L 505.371924 452.194194 
L 511.112809 455.433677 
L 516.853694 458.673161 
L 522.594579 463.532387 
L 528.335464 468.391613 
L 534.076349 473.250839 
L 539.817234 479.729806 
L 545.558119 486.208774 
L 551.299005 491.068 
L 557.03989 487.828516 
L 562.780775 478.110065 
L 568.52166 461.912645 
L 574.262545 440.856 
L 580.00343 426.278323 
L 585.744315 416.559871 
L 591.4852 418.179613 
L 597.226085 424.658581 
L 602.966971 434.377032 
L 608.707856 442.475742 
L 614.448741 450.574452 
L 620.189626 458.673161 
L 625.930511 466.771871 
L 631.671396 478.110065 
L 637.412281 489.448258 
L 643.153166 500.786452 
L 648.894051 510.504903 
L 654.634937 516.983871 
L 660.375822 521.843097 
L 666.116707 525.082581 
L 671.857592 525.082581 
L 677.598477 523.462839 
L 683.339362 521.843097 
L 689.080247 518.603613 
L 694.821132 516.983871 
L 700.562017 515.364129 
L 706.302902 515.364129 
L 712.043788 516.983871 
L 717.784673 518.603613 
L 723.525558 518.603613 
L 729.266443 516.983871 
L 735.007328 515.364129 
L 740.748213 515.364129 
L 746.489098 516.983871 
L 752.229983 520.223355 
L 757.970868 521.843097 
L 763.711754 520.223355 
L 769.452639 513.744387 
L 775.193524 502.406194 
L 780.934409 487.828516 
L 786.675294 471.631097 
L 792.416179 455.433677 
L 798.157064 440.856 
L 803.897949 426.278323 
L 809.638834 413.320387 
L 815.37972 400.362452 
L 821.120605 385.784774 
L 826.86149 376.066323 
L 832.602375 369.587355 
L 838.34326 369.587355 
L 844.084145 374.446581 
L 849.82503 380.925548 
L 855.565915 389.024258 
L 861.3068 392.263742 
L 867.047686 390.644 
L 872.788571 384.165032 
L 878.529456 371.207097 
L 884.270341 358.249161 
L 890.011226 345.291226 
L 895.752111 337.192516 
L 901.492996 332.33329 
L 907.233881 333.953032 
L 912.974766 338.812258 
L 918.715652 343.671484 
L 924.456537 350.150452 
L 930.197422 353.389935 
L 935.938307 356.629419 
L 941.679192 359.868903 
L 947.420077 361.488645 
L 953.160962 364.728129 
L 958.901847 371.207097 
L 964.642732 380.925548 
L 970.383618 395.503226 
L 976.124503 413.320387 
L 981.865388 431.137548 
L 987.606273 445.715226 
L 993.347158 455.433677 
L 999.088043 460.292903 
L 1004.828928 457.053419 
L 1010.569813 452.194194 
L 1016.310698 447.334968 
L 1022.051584 442.475742 
L 1027.792469 439.236258 
L 1033.533354 437.616516 
L 1039.274239 435.996774 
L 1045.015124 434.377032 
L 1050.756009 431.137548 
L 1056.496894 427.898065 
L 1062.237779 424.658581 
L 1067.978664 419.799355 
L 1073.71955 411.700645 
L 1079.460435 400.362452 
L 1085.20132 387.404516 
L 1090.942205 374.446581 
L 1096.68309 361.488645 
L 1102.423975 351.770194 
L 1108.16486 346.910968 
L 1113.905745 345.291226 
L 1119.64663 350.150452 
L 1125.387515 355.009677 
L 1131.128401 361.488645 
L 1136.869286 367.967613 
L 1136.869286 267.543613 
L 1136.869286 267.543613 
L 1131.128401 259.444903 
L 1125.387515 251.346194 
L 1119.64663 244.867226 
L 1113.905745 238.388258 
L 1108.16486 238.388258 
L 1102.423975 240.008 
L 1096.68309 248.10671 
L 1090.942205 257.825161 
L 1085.20132 269.163355 
L 1079.460435 280.501548 
L 1073.71955 290.22 
L 1067.978664 298.31871 
L 1062.237779 303.177935 
L 1056.496894 306.417419 
L 1050.756009 308.037161 
L 1045.015124 311.276645 
L 1039.274239 312.896387 
L 1033.533354 314.516129 
L 1027.792469 317.755613 
L 1022.051584 320.995097 
L 1016.310698 325.854323 
L 1010.569813 330.713548 
L 1004.828928 337.192516 
L 999.088043 340.432 
L 993.347158 338.812258 
L 987.606273 329.093806 
L 981.865388 316.135871 
L 976.124503 298.31871 
L 970.383618 282.12129 
L 964.642732 265.923871 
L 958.901847 254.585677 
L 953.160962 246.486968 
L 947.420077 241.627742 
L 941.679192 236.768516 
L 935.938307 231.90929 
L 930.197422 227.050065 
L 924.456537 220.571097 
L 918.715652 212.472387 
L 912.974766 204.373677 
L 907.233881 194.655226 
L 901.492996 189.796 
L 895.752111 188.176258 
L 890.011226 193.035484 
L 884.270341 201.134194 
L 878.529456 210.852645 
L 872.788571 218.951355 
L 867.047686 223.810581 
L 861.3068 223.810581 
L 855.565915 217.331613 
L 849.82503 207.613161 
L 844.084145 196.274968 
L 838.34326 186.556516 
L 832.602375 181.69729 
L 826.86149 181.69729 
L 821.120605 186.556516 
L 815.37972 194.655226 
L 809.638834 202.753935 
L 803.897949 210.852645 
L 798.157064 220.571097 
L 792.416179 230.289548 
L 786.675294 246.486968 
L 780.934409 264.304129 
L 775.193524 283.741032 
L 769.452639 301.558194 
L 763.711754 312.896387 
L 757.970868 316.135871 
L 752.229983 314.516129 
L 746.489098 309.656903 
L 740.748213 308.037161 
L 735.007328 308.037161 
L 729.266443 312.896387 
L 723.525558 316.135871 
L 717.784673 317.755613 
L 712.043788 317.755613 
L 706.302902 316.135871 
L 700.562017 317.755613 
L 694.821132 322.614839 
L 689.080247 332.33329 
L 683.339362 345.291226 
L 677.598477 355.009677 
L 671.857592 363.108387 
L 666.116707 364.728129 
L 660.375822 361.488645 
L 654.634937 355.009677 
L 648.894051 343.671484 
L 643.153166 332.33329 
L 637.412281 319.375355 
L 631.671396 309.656903 
L 625.930511 299.938452 
L 620.189626 291.839742 
L 614.448741 285.360774 
L 608.707856 278.881806 
L 602.966971 269.163355 
L 597.226085 259.444903 
L 591.4852 249.726452 
L 585.744315 246.486968 
L 580.00343 252.965935 
L 574.262545 267.543613 
L 568.52166 285.360774 
L 562.780775 303.177935 
L 557.03989 314.516129 
L 551.299005 317.755613 
L 545.558119 316.135871 
L 539.817234 309.656903 
L 534.076349 304.797677 
L 528.335464 299.938452 
L 522.594579 296.698968 
L 516.853694 293.459484 
L 511.112809 288.600258 
L 505.371924 285.360774 
L 499.631039 285.360774 
L 493.890153 293.459484 
L 488.149268 306.417419 
L 482.408383 324.234581 
L 476.667498 340.432 
L 470.926613 348.53071 
L 465.185728 351.770194 
L 459.444843 351.770194 
L 453.703958 353.389935 
L 447.963073 356.629419 
L 442.222187 359.868903 
L 436.481302 359.868903 
L 430.740417 355.009677 
L 424.999532 346.910968 
L 419.258647 342.051742 
L 413.517762 343.671484 
L 407.776877 350.150452 
L 402.035992 356.629419 
L 396.295107 361.488645 
L 390.554221 364.728129 
L 384.813336 366.347871 
L 379.072451 374.446581 
L 373.331566 387.404516 
L 367.590681 403.601935 
L 361.849796 416.559871 
L 356.108911 419.799355 
L 350.368026 413.320387 
L 344.627141 400.362452 
L 338.886255 389.024258 
L 333.14537 379.305806 
L 327.404485 374.446581 
L 321.6636 367.967613 
L 315.922715 358.249161 
L 310.18183 345.291226 
L 304.440945 333.953032 
L 298.70006 329.093806 
L 292.959175 332.33329 
L 287.218289 340.432 
L 281.477404 345.291226 
L 275.736519 340.432 
L 269.995634 327.474065 
L 264.254749 309.656903 
L 258.513864 295.079226 
L 252.772979 290.22 
L 247.032094 293.459484 
L 241.291209 301.558194 
L 235.550324 309.656903 
L 229.809438 314.516129 
L 224.068553 316.135871 
L 218.327668 316.135871 
L 212.586783 317.755613 
L 206.845898 317.755613 
L 201.105013 316.135871 
L 195.364128 304.797677 
L 189.623243 285.360774 
L 183.882358 257.825161 
L 178.141472 230.289548 
L 172.400587 205.993419 
L 166.659702 188.176258 
L 160.918817 178.457806 
L 155.177932 168.739355 
L 149.437047 159.020903 
L 143.696162 144.443226 
L 137.955277 129.865548 
L 132.214392 113.668129 
L 126.473506 102.329935 
L 120.732621 94.231226 
L 114.991736 87.752258 
L 109.250851 81.27329 
L 103.509966 74.794323 
L 97.769081 66.695613 
L 92.028196 58.596903 
L 86.287311 47.25871 
L 80.546426 29.441548 
L 74.80554 -1.333548 
L 69.064655 -122.814194 
L 63.32377 -242.675097 
L 57.582885 -390.071613 
L 51.842 -555.28529 
z
" style="fill:#e6e6e6;stroke:#e6e6e6;"/>
   </g>
   <g id="PolyCollection_2">
    <path clip-path="url(#p8b8bde6b69)" d="M 51.842 -265.351484 
L 51.842 346.910968 
L 57.582885 314.516129 
L 63.32377 285.360774 
L 69.064655 262.684387 
L 74.80554 240.008 
L 80.546426 231.90929 
L 86.287311 227.050065 
L 92.028196 220.571097 
L 97.769081 215.711871 
L 103.509966 212.472387 
L 109.250851 210.852645 
L 114.991736 207.613161 
L 120.732621 207.613161 
L 126.473506 210.852645 
L 132.214392 217.331613 
L 137.955277 228.669806 
L 143.696162 238.388258 
L 149.437047 248.10671 
L 155.177932 254.585677 
L 160.918817 259.444903 
L 166.659702 267.543613 
L 172.400587 283.741032 
L 178.141472 304.797677 
L 183.882358 332.33329 
L 189.623243 358.249161 
L 195.364128 377.686065 
L 201.105013 389.024258 
L 206.845898 390.644 
L 212.586783 389.024258 
L 218.327668 387.404516 
L 224.068553 387.404516 
L 229.809438 385.784774 
L 235.550324 382.54529 
L 241.291209 374.446581 
L 247.032094 364.728129 
L 252.772979 361.488645 
L 258.513864 366.347871 
L 264.254749 380.925548 
L 269.995634 400.362452 
L 275.736519 414.940129 
L 281.477404 419.799355 
L 287.218289 414.940129 
L 292.959175 406.841419 
L 298.70006 403.601935 
L 304.440945 408.461161 
L 310.18183 419.799355 
L 315.922715 434.377032 
L 321.6636 445.715226 
L 327.404485 453.813935 
L 333.14537 460.292903 
L 338.886255 470.011355 
L 344.627141 481.349548 
L 350.368026 495.927226 
L 356.108911 504.025935 
L 361.849796 504.025935 
L 367.590681 492.687742 
L 373.331566 479.729806 
L 379.072451 470.011355 
L 384.813336 465.152129 
L 390.554221 465.152129 
L 396.295107 463.532387 
L 402.035992 460.292903 
L 407.776877 453.813935 
L 413.517762 448.95471 
L 419.258647 448.95471 
L 424.999532 455.433677 
L 430.740417 463.532387 
L 436.481302 470.011355 
L 442.222187 471.631097 
L 447.963073 471.631097 
L 453.703958 470.011355 
L 459.444843 470.011355 
L 465.185728 471.631097 
L 470.926613 470.011355 
L 476.667498 461.912645 
L 482.408383 448.95471 
L 488.149268 432.75729 
L 493.890153 419.799355 
L 499.631039 411.700645 
L 505.371924 410.080903 
L 511.112809 413.320387 
L 516.853694 416.559871 
L 522.594579 421.419097 
L 528.335464 424.658581 
L 534.076349 429.517806 
L 539.817234 435.996774 
L 545.558119 442.475742 
L 551.299005 445.715226 
L 557.03989 442.475742 
L 562.780775 432.75729 
L 568.52166 414.940129 
L 574.262545 395.503226 
L 580.00343 380.925548 
L 585.744315 374.446581 
L 591.4852 376.066323 
L 597.226085 385.784774 
L 602.966971 395.503226 
L 608.707856 403.601935 
L 614.448741 410.080903 
L 620.189626 416.559871 
L 625.930511 423.038839 
L 631.671396 434.377032 
L 637.412281 445.715226 
L 643.153166 458.673161 
L 648.894051 471.631097 
L 654.634937 484.589032 
L 660.375822 494.307484 
L 666.116707 499.16671 
L 671.857592 500.786452 
L 677.598477 497.546968 
L 683.339362 489.448258 
L 689.080247 479.729806 
L 694.821132 471.631097 
L 700.562017 466.771871 
L 706.302902 465.152129 
L 712.043788 466.771871 
L 717.784673 466.771871 
L 723.525558 466.771871 
L 729.266443 465.152129 
L 735.007328 463.532387 
L 740.748213 463.532387 
L 746.489098 466.771871 
L 752.229983 471.631097 
L 757.970868 474.870581 
L 763.711754 474.870581 
L 769.452639 466.771871 
L 775.193524 452.194194 
L 780.934409 434.377032 
L 786.675294 416.559871 
L 792.416179 398.74271 
L 798.157064 385.784774 
L 803.897949 372.826839 
L 809.638834 359.868903 
L 815.37972 346.910968 
L 821.120605 335.572774 
L 826.86149 325.854323 
L 832.602375 320.995097 
L 838.34326 320.995097 
L 844.084145 327.474065 
L 849.82503 337.192516 
L 855.565915 345.291226 
L 861.3068 350.150452 
L 867.047686 350.150452 
L 872.788571 343.671484 
L 878.529456 332.33329 
L 884.270341 317.755613 
L 890.011226 306.417419 
L 895.752111 299.938452 
L 901.492996 296.698968 
L 907.233881 299.938452 
L 912.974766 306.417419 
L 918.715652 311.276645 
L 924.456537 317.755613 
L 930.197422 322.614839 
L 935.938307 325.854323 
L 941.679192 329.093806 
L 947.420077 332.33329 
L 953.160962 337.192516 
L 958.901847 343.671484 
L 964.642732 353.389935 
L 970.383618 367.967613 
L 976.124503 385.784774 
L 981.865388 401.982194 
L 987.606273 416.559871 
L 993.347158 424.658581 
L 999.088043 427.898065 
L 1004.828928 426.278323 
L 1010.569813 421.419097 
L 1016.310698 416.559871 
L 1022.051584 411.700645 
L 1027.792469 408.461161 
L 1033.533354 405.221677 
L 1039.274239 401.982194 
L 1045.015124 400.362452 
L 1050.756009 398.74271 
L 1056.496894 395.503226 
L 1062.237779 393.883484 
L 1067.978664 389.024258 
L 1073.71955 380.925548 
L 1079.460435 371.207097 
L 1085.20132 358.249161 
L 1090.942205 345.291226 
L 1096.68309 332.33329 
L 1102.423975 324.234581 
L 1108.16486 319.375355 
L 1113.905745 319.375355 
L 1119.64663 324.234581 
L 1125.387515 329.093806 
L 1131.128401 337.192516 
L 1136.869286 343.671484 
L 1136.869286 295.079226 
L 1136.869286 295.079226 
L 1131.128401 286.980516 
L 1125.387515 280.501548 
L 1119.64663 274.022581 
L 1113.905745 267.543613 
L 1108.16486 267.543613 
L 1102.423975 270.783097 
L 1096.68309 278.881806 
L 1090.942205 288.600258 
L 1085.20132 301.558194 
L 1079.460435 312.896387 
L 1073.71955 322.614839 
L 1067.978664 330.713548 
L 1062.237779 335.572774 
L 1056.496894 337.192516 
L 1050.756009 340.432 
L 1045.015124 342.051742 
L 1039.274239 343.671484 
L 1033.533354 346.910968 
L 1027.792469 350.150452 
L 1022.051584 353.389935 
L 1016.310698 358.249161 
L 1010.569813 363.108387 
L 1004.828928 367.967613 
L 999.088043 371.207097 
L 993.347158 369.587355 
L 987.606273 361.488645 
L 981.865388 346.910968 
L 976.124503 330.713548 
L 970.383618 312.896387 
L 964.642732 298.31871 
L 958.901847 286.980516 
L 953.160962 280.501548 
L 947.420077 275.642323 
L 941.679192 270.783097 
L 935.938307 267.543613 
L 930.197422 262.684387 
L 924.456537 256.205419 
L 918.715652 248.10671 
L 912.974766 241.627742 
L 907.233881 233.529032 
L 901.492996 228.669806 
L 895.752111 228.669806 
L 890.011226 233.529032 
L 884.270341 243.247484 
L 878.529456 254.585677 
L 872.788571 264.304129 
L 867.047686 270.783097 
L 861.3068 269.163355 
L 855.565915 262.684387 
L 849.82503 252.965935 
L 844.084145 243.247484 
L 838.34326 235.148774 
L 832.602375 230.289548 
L 826.86149 233.529032 
L 821.120605 240.008 
L 815.37972 249.726452 
L 809.638834 259.444903 
L 803.897949 269.163355 
L 798.157064 280.501548 
L 792.416179 291.839742 
L 786.675294 306.417419 
L 780.934409 324.234581 
L 775.193524 342.051742 
L 769.452639 358.249161 
L 763.711754 366.347871 
L 757.970868 369.587355 
L 752.229983 366.347871 
L 746.489098 361.488645 
L 740.748213 358.249161 
L 735.007328 358.249161 
L 729.266443 361.488645 
L 723.525558 364.728129 
L 717.784673 366.347871 
L 712.043788 364.728129 
L 706.302902 364.728129 
L 700.562017 367.967613 
L 694.821132 374.446581 
L 689.080247 384.165032 
L 683.339362 397.122968 
L 677.598477 408.461161 
L 671.857592 414.940129 
L 666.116707 414.940129 
L 660.375822 408.461161 
L 654.634937 400.362452 
L 648.894051 389.024258 
L 643.153166 376.066323 
L 637.412281 364.728129 
L 631.671396 353.389935 
L 625.930511 343.671484 
L 620.189626 337.192516 
L 614.448741 330.713548 
L 608.707856 324.234581 
L 602.966971 316.135871 
L 597.226085 304.797677 
L 591.4852 296.698968 
L 585.744315 293.459484 
L 580.00343 298.31871 
L 574.262545 311.276645 
L 568.52166 330.713548 
L 562.780775 348.53071 
L 557.03989 359.868903 
L 551.299005 363.108387 
L 545.558119 359.868903 
L 539.817234 355.009677 
L 534.076349 348.53071 
L 528.335464 345.291226 
L 522.594579 342.051742 
L 516.853694 337.192516 
L 511.112809 332.33329 
L 505.371924 330.713548 
L 499.631039 330.713548 
L 493.890153 338.812258 
L 488.149268 351.770194 
L 482.408383 367.967613 
L 476.667498 382.54529 
L 470.926613 390.644 
L 465.185728 393.883484 
L 459.444843 393.883484 
L 453.703958 393.883484 
L 447.963073 395.503226 
L 442.222187 398.74271 
L 436.481302 398.74271 
L 430.740417 392.263742 
L 424.999532 385.784774 
L 419.258647 379.305806 
L 413.517762 380.925548 
L 407.776877 385.784774 
L 402.035992 393.883484 
L 396.295107 397.122968 
L 390.554221 398.74271 
L 384.813336 401.982194 
L 379.072451 408.461161 
L 373.331566 423.038839 
L 367.590681 439.236258 
L 361.849796 452.194194 
L 356.108911 455.433677 
L 350.368026 447.334968 
L 344.627141 432.75729 
L 338.886255 418.179613 
L 333.14537 408.461161 
L 327.404485 403.601935 
L 321.6636 395.503226 
L 315.922715 385.784774 
L 310.18183 372.826839 
L 304.440945 359.868903 
L 298.70006 355.009677 
L 292.959175 359.868903 
L 287.218289 367.967613 
L 281.477404 371.207097 
L 275.736519 367.967613 
L 269.995634 353.389935 
L 264.254749 335.572774 
L 258.513864 320.995097 
L 252.772979 314.516129 
L 247.032094 319.375355 
L 241.291209 327.474065 
L 235.550324 335.572774 
L 229.809438 338.812258 
L 224.068553 340.432 
L 218.327668 340.432 
L 212.586783 342.051742 
L 206.845898 343.671484 
L 201.105013 342.051742 
L 195.364128 330.713548 
L 189.623243 311.276645 
L 183.882358 285.360774 
L 178.141472 257.825161 
L 172.400587 233.529032 
L 166.659702 217.331613 
L 160.918817 207.613161 
L 155.177932 199.514452 
L 149.437047 191.415742 
L 143.696162 180.077548 
L 137.955277 165.499871 
L 132.214392 152.541935 
L 126.473506 142.823484 
L 120.732621 134.724774 
L 114.991736 131.48529 
L 109.250851 128.245806 
L 103.509966 125.006323 
L 97.769081 120.147097 
L 92.028196 115.287871 
L 86.287311 110.428645 
L 80.546426 100.710194 
L 74.80554 81.27329 
L 69.064655 5.145419 
L 63.32377 -69.36271 
L 57.582885 -161.688 
L 51.842 -265.351484 
z
" style="fill:#c8c8c8;stroke:#c8c8c8;"/>
   </g>
   <g id="matplotlib.axis_1">
    <g id="xtick_1">
     <g id="line2d_1">
      <defs>
       <path d="M 0 0 
L 0 3.5 
" id="m1d844caacf" style="stroke:#555555;stroke-width:0.8;"/>
      </defs>
      <g>
       <use style="fill:#555555;stroke:#555555;stroke-width:0.8;" x="206.845898" xlink:href="#m1d844caacf" y="541.28"/>
      </g>
     </g>
     <g id="text_1">
      <!-- April -->
      <g style="fill:#555555;" transform="translate(188.166835 558.917812)scale(0.14 -0.14)">
       <defs>
        <path d="M 53.421875 13.28125 
L 24.03125 13.28125 
L 19.390625 0 
L 0.484375 0 
L 27.484375 72.90625 
L 49.90625 72.90625 
L 76.90625 0 
L 58.015625 0 
z
M 28.71875 26.8125 
L 48.6875 26.8125 
L 38.71875 55.8125 
z
" id="DejaVuSans-Bold-65"/>
        <path d="M 25.875 7.90625 
L 25.875 -20.796875 
L 8.40625 -20.796875 
L 8.40625 54.6875 
L 25.875 54.6875 
L 25.875 46.6875 
Q 29.5 51.46875 33.890625 53.734375 
Q 38.28125 56 44 56 
Q 54.109375 56 60.59375 47.96875 
Q 67.09375 39.9375 67.09375 27.296875 
Q 67.09375 14.65625 60.59375 6.609375 
Q 54.109375 -1.421875 44 -1.421875 
Q 38.28125 -1.421875 33.890625 0.84375 
Q 29.5 3.125 25.875 7.90625 
z
M 37.5 43.3125 
Q 31.890625 43.3125 28.875 39.1875 
Q 25.875 35.0625 25.875 27.296875 
Q 25.875 19.53125 28.875 15.40625 
Q 31.890625 11.28125 37.5 11.28125 
Q 43.109375 11.28125 46.0625 15.375 
Q 49.03125 19.484375 49.03125 27.296875 
Q 49.03125 35.109375 46.0625 39.203125 
Q 43.109375 43.3125 37.5 43.3125 
z
" id="DejaVuSans-Bold-112"/>
        <path d="M 49.03125 39.796875 
Q 46.734375 40.875 44.453125 41.375 
Q 42.1875 41.890625 39.890625 41.890625 
Q 33.15625 41.890625 29.515625 37.5625 
Q 25.875 33.25 25.875 25.203125 
L 25.875 0 
L 8.40625 0 
L 8.40625 54.6875 
L 25.875 54.6875 
L 25.875 45.703125 
Q 29.25 51.078125 33.609375 53.53125 
Q 37.984375 56 44.09375 56 
Q 44.96875 56 45.984375 55.921875 
Q 47.015625 55.859375 48.96875 55.609375 
z
" id="DejaVuSans-Bold-114"/>
        <path d="M 8.40625 54.6875 
L 25.875 54.6875 
L 25.875 0 
L 8.40625 0 
z
M 8.40625 75.984375 
L 25.875 75.984375 
L 25.875 61.71875 
L 8.40625 61.71875 
z
" id="DejaVuSans-Bold-105"/>
        <path d="M 8.40625 75.984375 
L 25.875 75.984375 
L 25.875 0 
L 8.40625 0 
z
" id="DejaVuSans-Bold-108"/>
       </defs>
       <use xlink:href="#DejaVuSans-Bold-65"/>
       <use x="77.392578" xlink:href="#DejaVuSans-Bold-112"/>
       <use x="148.974609" xlink:href="#DejaVuSans-Bold-114"/>
       <use x="198.291016" xlink:href="#DejaVuSans-Bold-105"/>
       <use x="232.568359" xlink:href="#DejaVuSans-Bold-108"/>
      </g>
     </g>
    </g>
    <g id="xtick_2">
     <g id="line2d_2">
      <g>
       <use style="fill:#555555;stroke:#555555;stroke-width:0.8;" x="379.072451" xlink:href="#m1d844caacf" y="541.28"/>
      </g>
     </g>
     <g id="text_2">
      <!-- May -->
      <g style="fill:#555555;" transform="translate(363.038076 558.808437)scale(0.14 -0.14)">
       <defs>
        <path d="M 9.1875 72.90625 
L 33.109375 72.90625 
L 49.703125 33.890625 
L 66.40625 72.90625 
L 90.28125 72.90625 
L 90.28125 0 
L 72.515625 0 
L 72.515625 53.328125 
L 55.71875 14.015625 
L 43.796875 14.015625 
L 27 53.328125 
L 27 0 
L 9.1875 0 
z
" id="DejaVuSans-Bold-77"/>
        <path d="M 32.90625 24.609375 
Q 27.4375 24.609375 24.671875 22.75 
Q 21.921875 20.90625 21.921875 17.28125 
Q 21.921875 13.96875 24.140625 12.078125 
Q 26.375 10.203125 30.328125 10.203125 
Q 35.25 10.203125 38.625 13.734375 
Q 42 17.28125 42 22.609375 
L 42 24.609375 
z
M 59.625 31.203125 
L 59.625 0 
L 42 0 
L 42 8.109375 
Q 38.484375 3.125 34.078125 0.84375 
Q 29.6875 -1.421875 23.390625 -1.421875 
Q 14.890625 -1.421875 9.59375 3.53125 
Q 4.296875 8.5 4.296875 16.40625 
Q 4.296875 26.03125 10.90625 30.515625 
Q 17.53125 35.015625 31.6875 35.015625 
L 42 35.015625 
L 42 36.375 
Q 42 40.53125 38.71875 42.453125 
Q 35.453125 44.390625 28.515625 44.390625 
Q 22.90625 44.390625 18.0625 43.265625 
Q 13.234375 42.140625 9.078125 39.890625 
L 9.078125 53.21875 
Q 14.703125 54.59375 20.359375 55.296875 
Q 26.03125 56 31.6875 56 
Q 46.484375 56 53.046875 50.171875 
Q 59.625 44.34375 59.625 31.203125 
z
" id="DejaVuSans-Bold-97"/>
        <path d="M 1.21875 54.6875 
L 18.703125 54.6875 
L 33.40625 17.578125 
L 45.90625 54.6875 
L 63.375 54.6875 
L 40.375 -5.171875 
Q 36.921875 -14.3125 32.296875 -17.9375 
Q 27.6875 -21.578125 20.125 -21.578125 
L 10.015625 -21.578125 
L 10.015625 -10.109375 
L 15.484375 -10.109375 
Q 19.921875 -10.109375 21.9375 -8.6875 
Q 23.96875 -7.28125 25.09375 -3.609375 
L 25.59375 -2.09375 
z
" id="DejaVuSans-Bold-121"/>
       </defs>
       <use xlink:href="#DejaVuSans-Bold-77"/>
       <use x="99.511719" xlink:href="#DejaVuSans-Bold-97"/>
       <use x="163.867188" xlink:href="#DejaVuSans-Bold-121"/>
      </g>
     </g>
    </g>
    <g id="xtick_3">
     <g id="line2d_3">
      <g>
       <use style="fill:#555555;stroke:#555555;stroke-width:0.8;" x="557.03989" xlink:href="#m1d844caacf" y="541.28"/>
      </g>
     </g>
     <g id="text_3">
      <!-- June -->
      <g style="fill:#555555;" transform="translate(539.721452 558.917812)scale(0.14 -0.14)">
       <defs>
        <path d="M 9.1875 72.90625 
L 27.984375 72.90625 
L 27.984375 7.078125 
Q 27.984375 -6.546875 20.578125 -13.28125 
Q 13.1875 -20.015625 -1.8125 -20.015625 
L -5.609375 -20.015625 
L -5.609375 -5.8125 
L -2.6875 -5.8125 
Q 3.171875 -5.8125 6.171875 -2.53125 
Q 9.1875 0.734375 9.1875 7.078125 
z
" id="DejaVuSans-Bold-74"/>
        <path d="M 7.8125 21.296875 
L 7.8125 54.6875 
L 25.390625 54.6875 
L 25.390625 49.21875 
Q 25.390625 44.78125 25.34375 38.0625 
Q 25.296875 31.34375 25.296875 29.109375 
Q 25.296875 22.515625 25.640625 19.609375 
Q 25.984375 16.703125 26.8125 15.375 
Q 27.875 13.671875 29.609375 12.734375 
Q 31.34375 11.8125 33.59375 11.8125 
Q 39.0625 11.8125 42.1875 16.015625 
Q 45.3125 20.21875 45.3125 27.6875 
L 45.3125 54.6875 
L 62.796875 54.6875 
L 62.796875 0 
L 45.3125 0 
L 45.3125 7.90625 
Q 41.359375 3.125 36.9375 0.84375 
Q 32.515625 -1.421875 27.203125 -1.421875 
Q 17.71875 -1.421875 12.765625 4.390625 
Q 7.8125 10.203125 7.8125 21.296875 
z
" id="DejaVuSans-Bold-117"/>
        <path d="M 63.375 33.296875 
L 63.375 0 
L 45.796875 0 
L 45.796875 5.421875 
L 45.796875 25.484375 
Q 45.796875 32.5625 45.484375 35.25 
Q 45.171875 37.9375 44.390625 39.203125 
Q 43.359375 40.921875 41.59375 41.875 
Q 39.84375 42.828125 37.59375 42.828125 
Q 32.125 42.828125 29 38.59375 
Q 25.875 34.375 25.875 26.90625 
L 25.875 0 
L 8.40625 0 
L 8.40625 54.6875 
L 25.875 54.6875 
L 25.875 46.6875 
Q 29.828125 51.46875 34.265625 53.734375 
Q 38.71875 56 44.09375 56 
Q 53.5625 56 58.46875 50.1875 
Q 63.375 44.390625 63.375 33.296875 
z
" id="DejaVuSans-Bold-110"/>
        <path d="M 62.984375 27.484375 
L 62.984375 22.515625 
L 22.125 22.515625 
Q 22.75 16.359375 26.5625 13.28125 
Q 30.375 10.203125 37.203125 10.203125 
Q 42.71875 10.203125 48.5 11.84375 
Q 54.296875 13.484375 60.40625 16.796875 
L 60.40625 3.328125 
Q 54.203125 0.984375 48 -0.21875 
Q 41.796875 -1.421875 35.59375 -1.421875 
Q 20.75 -1.421875 12.515625 6.125 
Q 4.296875 13.671875 4.296875 27.296875 
Q 4.296875 40.671875 12.375 48.328125 
Q 20.453125 56 34.625 56 
Q 47.515625 56 55.25 48.234375 
Q 62.984375 40.484375 62.984375 27.484375 
z
M 45.015625 33.296875 
Q 45.015625 38.28125 42.109375 41.328125 
Q 39.203125 44.390625 34.515625 44.390625 
Q 29.4375 44.390625 26.265625 41.53125 
Q 23.09375 38.671875 22.3125 33.296875 
z
" id="DejaVuSans-Bold-101"/>
       </defs>
       <use xlink:href="#DejaVuSans-Bold-74"/>
       <use x="37.207031" xlink:href="#DejaVuSans-Bold-117"/>
       <use x="108.398438" xlink:href="#DejaVuSans-Bold-110"/>
       <use x="179.589844" xlink:href="#DejaVuSans-Bold-101"/>
      </g>
     </g>
    </g>
    <g id="xtick_4">
     <g id="line2d_4">
      <g>
       <use style="fill:#555555;stroke:#555555;stroke-width:0.8;" x="729.266443" xlink:href="#m1d844caacf" y="541.28"/>
      </g>
     </g>
     <g id="text_4">
      <!-- July -->
      <g style="fill:#555555;" transform="translate(714.716287 558.917812)scale(0.14 -0.14)">
       <use xlink:href="#DejaVuSans-Bold-74"/>
       <use x="37.207031" xlink:href="#DejaVuSans-Bold-117"/>
       <use x="108.398438" xlink:href="#DejaVuSans-Bold-108"/>
       <use x="142.675781" xlink:href="#DejaVuSans-Bold-121"/>
      </g>
     </g>
    </g>
    <g id="xtick_5">
     <g id="line2d_5">
      <g>
       <use style="fill:#555555;stroke:#555555;stroke-width:0.8;" x="907.233881" xlink:href="#m1d844caacf" y="541.28"/>
      </g>
     </g>
     <g id="text_5">
      <!-- August -->
      <g style="fill:#555555;" transform="translate(879.327944 558.808437)scale(0.14 -0.14)">
       <defs>
        <path d="M 45.609375 9.28125 
Q 42 4.5 37.640625 2.25 
Q 33.296875 0 27.59375 0 
Q 17.578125 0 11.03125 7.875 
Q 4.5 15.765625 4.5 27.984375 
Q 4.5 40.234375 11.03125 48.0625 
Q 17.578125 55.90625 27.59375 55.90625 
Q 33.296875 55.90625 37.640625 53.65625 
Q 42 51.421875 45.609375 46.578125 
L 45.609375 54.6875 
L 63.1875 54.6875 
L 63.1875 5.515625 
Q 63.1875 -7.671875 54.859375 -14.625 
Q 46.53125 -21.578125 30.71875 -21.578125 
Q 25.59375 -21.578125 20.796875 -20.796875 
Q 16.015625 -20.015625 11.1875 -18.40625 
L 11.1875 -4.78125 
Q 15.765625 -7.421875 20.15625 -8.71875 
Q 24.5625 -10.015625 29 -10.015625 
Q 37.59375 -10.015625 41.59375 -6.25 
Q 45.609375 -2.484375 45.609375 5.515625 
z
M 34.078125 43.3125 
Q 28.65625 43.3125 25.625 39.296875 
Q 22.609375 35.296875 22.609375 27.984375 
Q 22.609375 20.453125 25.53125 16.578125 
Q 28.46875 12.703125 34.078125 12.703125 
Q 39.546875 12.703125 42.578125 16.703125 
Q 45.609375 20.703125 45.609375 27.984375 
Q 45.609375 35.296875 42.578125 39.296875 
Q 39.546875 43.3125 34.078125 43.3125 
z
" id="DejaVuSans-Bold-103"/>
        <path d="M 51.125 52.984375 
L 51.125 39.703125 
Q 45.515625 42.046875 40.28125 43.21875 
Q 35.0625 44.390625 30.421875 44.390625 
Q 25.4375 44.390625 23.015625 43.140625 
Q 20.609375 41.890625 20.609375 39.3125 
Q 20.609375 37.203125 22.4375 36.078125 
Q 24.265625 34.96875 29 34.421875 
L 32.078125 33.984375 
Q 45.515625 32.28125 50.140625 28.375 
Q 54.78125 24.46875 54.78125 16.109375 
Q 54.78125 7.375 48.328125 2.96875 
Q 41.890625 -1.421875 29.109375 -1.421875 
Q 23.6875 -1.421875 17.890625 -0.5625 
Q 12.109375 0.296875 6 2 
L 6 15.28125 
Q 11.234375 12.75 16.71875 11.46875 
Q 22.21875 10.203125 27.875 10.203125 
Q 33.015625 10.203125 35.59375 11.609375 
Q 38.1875 13.03125 38.1875 15.828125 
Q 38.1875 18.171875 36.40625 19.3125 
Q 34.625 20.453125 29.296875 21.09375 
L 26.21875 21.484375 
Q 14.546875 22.953125 9.859375 26.90625 
Q 5.171875 30.859375 5.171875 38.921875 
Q 5.171875 47.609375 11.125 51.796875 
Q 17.09375 56 29.390625 56 
Q 34.234375 56 39.546875 55.265625 
Q 44.875 54.546875 51.125 52.984375 
z
" id="DejaVuSans-Bold-115"/>
        <path d="M 27.484375 70.21875 
L 27.484375 54.6875 
L 45.515625 54.6875 
L 45.515625 42.1875 
L 27.484375 42.1875 
L 27.484375 19 
Q 27.484375 15.1875 29 13.84375 
Q 30.515625 12.5 35.015625 12.5 
L 44 12.5 
L 44 0 
L 29 0 
Q 18.65625 0 14.328125 4.3125 
Q 10.015625 8.640625 10.015625 19 
L 10.015625 42.1875 
L 1.3125 42.1875 
L 1.3125 54.6875 
L 10.015625 54.6875 
L 10.015625 70.21875 
z
" id="DejaVuSans-Bold-116"/>
       </defs>
       <use xlink:href="#DejaVuSans-Bold-65"/>
       <use x="77.392578" xlink:href="#DejaVuSans-Bold-117"/>
       <use x="148.583984" xlink:href="#DejaVuSans-Bold-103"/>
       <use x="220.166016" xlink:href="#DejaVuSans-Bold-117"/>
       <use x="291.357422" xlink:href="#DejaVuSans-Bold-115"/>
       <use x="350.878906" xlink:href="#DejaVuSans-Bold-116"/>
      </g>
     </g>
    </g>
    <g id="xtick_6">
     <g id="line2d_6">
      <g>
       <use style="fill:#555555;stroke:#555555;stroke-width:0.8;" x="1085.20132" xlink:href="#m1d844caacf" y="541.28"/>
      </g>
     </g>
     <g id="text_6">
      <!-- September -->
      <g style="fill:#555555;" transform="translate(1041.803507 558.917812)scale(0.14 -0.14)">
       <defs>
        <path d="M 59.90625 70.609375 
L 59.90625 55.171875 
Q 53.90625 57.859375 48.1875 59.21875 
Q 42.484375 60.59375 37.40625 60.59375 
Q 30.671875 60.59375 27.4375 58.734375 
Q 24.21875 56.890625 24.21875 52.984375 
Q 24.21875 50.046875 26.390625 48.40625 
Q 28.5625 46.78125 34.28125 45.609375 
L 42.28125 44 
Q 54.4375 41.546875 59.5625 36.5625 
Q 64.703125 31.59375 64.703125 22.40625 
Q 64.703125 10.359375 57.546875 4.46875 
Q 50.390625 -1.421875 35.6875 -1.421875 
Q 28.765625 -1.421875 21.78125 -0.09375 
Q 14.796875 1.21875 7.8125 3.8125 
L 7.8125 19.671875 
Q 14.796875 15.96875 21.3125 14.078125 
Q 27.828125 12.203125 33.890625 12.203125 
Q 40.046875 12.203125 43.3125 14.25 
Q 46.578125 16.3125 46.578125 20.125 
Q 46.578125 23.53125 44.359375 25.390625 
Q 42.140625 27.25 35.5 28.71875 
L 28.21875 30.328125 
Q 17.28125 32.671875 12.21875 37.796875 
Q 7.171875 42.921875 7.171875 51.609375 
Q 7.171875 62.5 14.203125 68.359375 
Q 21.234375 74.21875 34.421875 74.21875 
Q 40.4375 74.21875 46.78125 73.3125 
Q 53.125 72.40625 59.90625 70.609375 
z
" id="DejaVuSans-Bold-83"/>
        <path d="M 59.078125 45.609375 
Q 62.40625 50.6875 66.96875 53.34375 
Q 71.53125 56 77 56 
Q 86.421875 56 91.359375 50.1875 
Q 96.296875 44.390625 96.296875 33.296875 
L 96.296875 0 
L 78.71875 0 
L 78.71875 28.515625 
Q 78.765625 29.15625 78.78125 29.828125 
Q 78.8125 30.515625 78.8125 31.78125 
Q 78.8125 37.59375 77.09375 40.203125 
Q 75.390625 42.828125 71.578125 42.828125 
Q 66.609375 42.828125 63.890625 38.71875 
Q 61.1875 34.625 61.078125 26.859375 
L 61.078125 0 
L 43.5 0 
L 43.5 28.515625 
Q 43.5 37.59375 41.9375 40.203125 
Q 40.375 42.828125 36.375 42.828125 
Q 31.34375 42.828125 28.609375 38.703125 
Q 25.875 34.578125 25.875 26.90625 
L 25.875 0 
L 8.296875 0 
L 8.296875 54.6875 
L 25.875 54.6875 
L 25.875 46.6875 
Q 29.109375 51.3125 33.28125 53.65625 
Q 37.453125 56 42.484375 56 
Q 48.140625 56 52.484375 53.265625 
Q 56.84375 50.53125 59.078125 45.609375 
z
" id="DejaVuSans-Bold-109"/>
        <path d="M 37.5 11.28125 
Q 43.109375 11.28125 46.0625 15.375 
Q 49.03125 19.484375 49.03125 27.296875 
Q 49.03125 35.109375 46.0625 39.203125 
Q 43.109375 43.3125 37.5 43.3125 
Q 31.890625 43.3125 28.875 39.1875 
Q 25.875 35.0625 25.875 27.296875 
Q 25.875 19.53125 28.875 15.40625 
Q 31.890625 11.28125 37.5 11.28125 
z
M 25.875 46.6875 
Q 29.5 51.46875 33.890625 53.734375 
Q 38.28125 56 44 56 
Q 54.109375 56 60.59375 47.96875 
Q 67.09375 39.9375 67.09375 27.296875 
Q 67.09375 14.65625 60.59375 6.609375 
Q 54.109375 -1.421875 44 -1.421875 
Q 38.28125 -1.421875 33.890625 0.84375 
Q 29.5 3.125 25.875 7.90625 
L 25.875 0 
L 8.40625 0 
L 8.40625 75.984375 
L 25.875 75.984375 
z
" id="DejaVuSans-Bold-98"/>
       </defs>
       <use xlink:href="#DejaVuSans-Bold-83"/>
       <use x="72.021484" xlink:href="#DejaVuSans-Bold-101"/>
       <use x="139.84375" xlink:href="#DejaVuSans-Bold-112"/>
       <use x="211.425781" xlink:href="#DejaVuSans-Bold-116"/>
       <use x="259.228516" xlink:href="#DejaVuSans-Bold-101"/>
       <use x="327.050781" xlink:href="#DejaVuSans-Bold-109"/>
       <use x="431.25" xlink:href="#DejaVuSans-Bold-98"/>
       <use x="502.832031" xlink:href="#DejaVuSans-Bold-101"/>
       <use x="570.654297" xlink:href="#DejaVuSans-Bold-114"/>
      </g>
     </g>
    </g>
   </g>
   <g id="matplotlib.axis_2">
    <g id="ytick_1">
     <g id="line2d_7">
      <defs>
       <path d="M 0 0 
L -3.5 0 
" id="mc29e47f151" style="stroke:#555555;stroke-width:0.8;"/>
      </defs>
      <g>
       <use style="fill:#555555;stroke:#555555;stroke-width:0.8;" x="51.842" xlink:href="#mc29e47f151" y="525.082581"/>
      </g>
     </g>
     <g id="text_7">
      <!-- 0 -->
      <g style="fill:#555555;" transform="translate(35.101062 530.401487)scale(0.14 -0.14)">
       <defs>
        <path d="M 46 36.53125 
Q 46 50.203125 43.4375 55.78125 
Q 40.875 61.375 34.8125 61.375 
Q 28.765625 61.375 26.171875 55.78125 
Q 23.578125 50.203125 23.578125 36.53125 
Q 23.578125 22.703125 26.171875 17.03125 
Q 28.765625 11.375 34.8125 11.375 
Q 40.828125 11.375 43.40625 17.03125 
Q 46 22.703125 46 36.53125 
z
M 64.796875 36.375 
Q 64.796875 18.265625 56.984375 8.421875 
Q 49.171875 -1.421875 34.8125 -1.421875 
Q 20.40625 -1.421875 12.59375 8.421875 
Q 4.78125 18.265625 4.78125 36.375 
Q 4.78125 54.546875 12.59375 64.375 
Q 20.40625 74.21875 34.8125 74.21875 
Q 49.171875 74.21875 56.984375 64.375 
Q 64.796875 54.546875 64.796875 36.375 
z
" id="DejaVuSans-Bold-48"/>
       </defs>
       <use xlink:href="#DejaVuSans-Bold-48"/>
      </g>
     </g>
    </g>
    <g id="ytick_2">
     <g id="line2d_8">
      <g>
       <use style="fill:#555555;stroke:#555555;stroke-width:0.8;" x="51.842" xlink:href="#mc29e47f151" y="363.108387"/>
      </g>
     </g>
     <g id="text_8">
      <!-- 1 -->
      <g style="fill:#555555;" transform="translate(35.101062 368.427293)scale(0.14 -0.14)">
       <defs>
        <path d="M 11.71875 12.984375 
L 28.328125 12.984375 
L 28.328125 60.109375 
L 11.28125 56.59375 
L 11.28125 69.390625 
L 28.21875 72.90625 
L 46.09375 72.90625 
L 46.09375 12.984375 
L 62.703125 12.984375 
L 62.703125 0 
L 11.71875 0 
z
" id="DejaVuSans-Bold-49"/>
       </defs>
       <use xlink:href="#DejaVuSans-Bold-49"/>
      </g>
     </g>
    </g>
    <g id="ytick_3">
     <g id="line2d_9">
      <g>
       <use style="fill:#555555;stroke:#555555;stroke-width:0.8;" x="51.842" xlink:href="#mc29e47f151" y="201.134194"/>
      </g>
     </g>
     <g id="text_9">
      <!-- 2 -->
      <g style="fill:#555555;" transform="translate(35.101062 206.4531)scale(0.14 -0.14)">
       <defs>
        <path d="M 28.8125 13.8125 
L 60.890625 13.8125 
L 60.890625 0 
L 7.90625 0 
L 7.90625 13.8125 
L 34.515625 37.3125 
Q 38.09375 40.53125 39.796875 43.609375 
Q 41.5 46.6875 41.5 50 
Q 41.5 55.125 38.0625 58.25 
Q 34.625 61.375 28.90625 61.375 
Q 24.515625 61.375 19.28125 59.5 
Q 14.0625 57.625 8.109375 53.90625 
L 8.109375 69.921875 
Q 14.453125 72.015625 20.65625 73.109375 
Q 26.859375 74.21875 32.8125 74.21875 
Q 45.90625 74.21875 53.15625 68.453125 
Q 60.40625 62.703125 60.40625 52.390625 
Q 60.40625 46.4375 57.328125 41.28125 
Q 54.25 36.140625 44.390625 27.484375 
z
" id="DejaVuSans-Bold-50"/>
       </defs>
       <use xlink:href="#DejaVuSans-Bold-50"/>
      </g>
     </g>
    </g>
    <g id="ytick_4">
     <g id="line2d_10">
      <g>
       <use style="fill:#555555;stroke:#555555;stroke-width:0.8;" x="51.842" xlink:href="#mc29e47f151" y="39.16"/>
      </g>
     </g>
     <g id="text_10">
      <!-- 3 -->
      <g style="fill:#555555;" transform="translate(35.101062 44.478906)scale(0.14 -0.14)">
       <defs>
        <path d="M 46.578125 39.3125 
Q 53.953125 37.40625 57.78125 32.6875 
Q 61.625 27.984375 61.625 20.703125 
Q 61.625 9.859375 53.3125 4.21875 
Q 45.015625 -1.421875 29.109375 -1.421875 
Q 23.484375 -1.421875 17.84375 -0.515625 
Q 12.203125 0.390625 6.6875 2.203125 
L 6.6875 16.703125 
Q 11.96875 14.0625 17.15625 12.71875 
Q 22.359375 11.375 27.390625 11.375 
Q 34.859375 11.375 38.84375 13.953125 
Q 42.828125 16.546875 42.828125 21.390625 
Q 42.828125 26.375 38.75 28.9375 
Q 34.671875 31.5 26.703125 31.5 
L 19.1875 31.5 
L 19.1875 43.609375 
L 27.09375 43.609375 
Q 34.1875 43.609375 37.640625 45.828125 
Q 41.109375 48.046875 41.109375 52.59375 
Q 41.109375 56.78125 37.734375 59.078125 
Q 34.375 61.375 28.21875 61.375 
Q 23.6875 61.375 19.046875 60.34375 
Q 14.40625 59.328125 9.8125 57.328125 
L 9.8125 71.09375 
Q 15.375 72.65625 20.84375 73.4375 
Q 26.3125 74.21875 31.59375 74.21875 
Q 45.796875 74.21875 52.84375 69.546875 
Q 59.90625 64.890625 59.90625 55.515625 
Q 59.90625 49.125 56.53125 45.046875 
Q 53.171875 40.96875 46.578125 39.3125 
z
" id="DejaVuSans-Bold-51"/>
       </defs>
       <use xlink:href="#DejaVuSans-Bold-51"/>
      </g>
     </g>
    </g>
    <g id="text_11">
     <!-- $R_{t}$ -->
     <g style="fill:#555555;" transform="translate(27.773562 299.34)rotate(-90)scale(0.16 -0.16)">
      <defs>
       <path d="M 36.71875 40.578125 
Q 43.109375 40.578125 46.40625 43.546875 
Q 49.703125 46.53125 49.703125 52.296875 
Q 49.703125 55.90625 47.4375 57.59375 
Q 45.171875 59.28125 40.28125 59.28125 
L 32.515625 59.28125 
L 28.8125 40.578125 
z
M 26.3125 27.59375 
L 20.90625 0 
L 2.09375 0 
L 16.3125 72.90625 
L 44.09375 72.90625 
Q 56.109375 72.90625 62.296875 68.40625 
Q 68.5 63.921875 68.5 55.171875 
Q 68.5 46.34375 63.609375 40.625 
Q 58.734375 34.90625 50.390625 34.078125 
Q 54.203125 33.296875 56.734375 30.1875 
Q 59.28125 27.09375 61.1875 20.703125 
L 67.390625 0 
L 48.6875 0 
L 43.21875 18.109375 
Q 41.546875 23.53125 39.171875 25.5625 
Q 36.8125 27.59375 32.328125 27.59375 
z
" id="DejaVuSans-BoldOblique-82"/>
       <path d="M 35.984375 70.21875 
L 33.015625 54.6875 
L 50.875 54.6875 
L 48.390625 42.1875 
L 30.515625 42.1875 
L 26.03125 19.046875 
Q 25.828125 18.265625 25.75 17.71875 
Q 25.6875 17.1875 25.6875 16.703125 
Q 25.6875 14.453125 27.171875 13.46875 
Q 28.65625 12.5 32.171875 12.5 
L 41.21875 12.5 
L 38.71875 0 
L 24.03125 0 
Q 16.109375 0 11.953125 3.3125 
Q 7.8125 6.640625 7.8125 12.890625 
Q 7.8125 14.265625 7.953125 15.828125 
Q 8.109375 17.390625 8.40625 19 
L 12.890625 42.1875 
L 4.296875 42.1875 
L 6.6875 54.6875 
L 15.375 54.6875 
L 18.40625 70.21875 
z
" id="DejaVuSans-BoldOblique-116"/>
      </defs>
      <use transform="translate(0 0.09375)" xlink:href="#DejaVuSans-BoldOblique-82"/>
      <use transform="translate(77.001953 -16.3125)scale(0.7)" xlink:href="#DejaVuSans-BoldOblique-116"/>
     </g>
    </g>
   </g>
   <g id="line2d_11">
    <path clip-path="url(#p8b8bde6b69)" d="M 51.842 363.108387 
L 1136.869286 363.108387 
" style="fill:none;stroke:#ff0000;stroke-dasharray:2,3.3;stroke-dashoffset:0;stroke-width:2;"/>
   </g>
   <g id="line2d_12">
    <path clip-path="url(#p8b8bde6b69)" d="M 51.842 257.825161 
L 57.582885 218.951355 
L 63.32377 189.796 
L 69.064655 171.978839 
L 74.80554 152.541935 
L 80.546426 160.640645 
L 86.287311 162.260387 
L 92.028196 162.260387 
L 97.769081 160.640645 
L 103.509966 162.260387 
L 109.250851 162.260387 
L 120.732621 165.499871 
L 126.473506 170.359097 
L 132.214392 178.457806 
L 137.955277 189.796 
L 143.696162 202.753935 
L 149.437047 214.092129 
L 155.177932 222.190839 
L 160.918817 228.669806 
L 166.659702 238.388258 
L 172.400587 252.965935 
L 178.141472 275.642323 
L 189.623243 330.713548 
L 195.364128 350.150452 
L 201.105013 361.488645 
L 206.845898 364.728129 
L 218.327668 361.488645 
L 224.068553 361.488645 
L 229.809438 359.868903 
L 235.550324 355.009677 
L 241.291209 348.53071 
L 247.032094 338.812258 
L 252.772979 335.572774 
L 258.513864 340.432 
L 264.254749 355.009677 
L 269.995634 372.826839 
L 275.736519 385.784774 
L 281.477404 390.644 
L 287.218289 385.784774 
L 292.959175 379.305806 
L 298.70006 374.446581 
L 304.440945 379.305806 
L 315.922715 405.221677 
L 321.6636 416.559871 
L 333.14537 429.517806 
L 338.886255 439.236258 
L 350.368026 468.391613 
L 356.108911 476.490323 
L 361.849796 474.870581 
L 367.590681 463.532387 
L 373.331566 447.334968 
L 379.072451 434.377032 
L 384.813336 427.898065 
L 396.295107 424.658581 
L 402.035992 421.419097 
L 407.776877 414.940129 
L 413.517762 410.080903 
L 419.258647 410.080903 
L 424.999532 414.940129 
L 430.740417 423.038839 
L 436.481302 427.898065 
L 442.222187 429.517806 
L 447.963073 426.278323 
L 453.703958 424.658581 
L 459.444843 424.658581 
L 465.185728 426.278323 
L 470.926613 424.658581 
L 476.667498 414.940129 
L 482.408383 401.982194 
L 488.149268 385.784774 
L 493.890153 371.207097 
L 499.631039 364.728129 
L 505.371924 363.108387 
L 511.112809 366.347871 
L 522.594579 376.066323 
L 528.335464 379.305806 
L 534.076349 384.165032 
L 545.558119 397.122968 
L 551.299005 400.362452 
L 557.03989 397.122968 
L 562.780775 385.784774 
L 574.262545 350.150452 
L 580.00343 335.572774 
L 585.744315 329.093806 
L 591.4852 330.713548 
L 597.226085 338.812258 
L 602.966971 348.53071 
L 614.448741 364.728129 
L 620.189626 371.207097 
L 625.930511 379.305806 
L 631.671396 389.024258 
L 643.153166 411.700645 
L 648.894051 424.658581 
L 654.634937 435.996774 
L 660.375822 445.715226 
L 666.116707 450.574452 
L 671.857592 450.574452 
L 677.598477 445.715226 
L 683.339362 435.996774 
L 689.080247 424.658581 
L 694.821132 414.940129 
L 700.562017 410.080903 
L 706.302902 408.461161 
L 712.043788 408.461161 
L 717.784673 410.080903 
L 729.266443 406.841419 
L 735.007328 403.601935 
L 740.748213 403.601935 
L 757.970868 413.320387 
L 763.711754 411.700645 
L 769.452639 401.982194 
L 775.193524 387.404516 
L 780.934409 369.587355 
L 792.416179 337.192516 
L 798.157064 325.854323 
L 803.897949 316.135871 
L 821.120605 282.12129 
L 826.86149 274.022581 
L 832.602375 270.783097 
L 838.34326 272.402839 
L 849.82503 288.600258 
L 855.565915 298.31871 
L 861.3068 303.177935 
L 867.047686 303.177935 
L 872.788571 296.698968 
L 878.529456 286.980516 
L 884.270341 274.022581 
L 890.011226 264.304129 
L 895.752111 257.825161 
L 901.492996 256.205419 
L 907.233881 261.064645 
L 918.715652 274.022581 
L 924.456537 282.12129 
L 935.938307 291.839742 
L 947.420077 298.31871 
L 953.160962 303.177935 
L 958.901847 309.656903 
L 964.642732 320.995097 
L 970.383618 335.572774 
L 976.124503 353.389935 
L 981.865388 369.587355 
L 987.606273 384.165032 
L 993.347158 392.263742 
L 999.088043 395.503226 
L 1004.828928 393.883484 
L 1010.569813 387.404516 
L 1022.051584 377.686065 
L 1027.792469 374.446581 
L 1033.533354 372.826839 
L 1039.274239 369.587355 
L 1050.756009 366.347871 
L 1056.496894 363.108387 
L 1062.237779 361.488645 
L 1067.978664 356.629419 
L 1073.71955 348.53071 
L 1085.20132 325.854323 
L 1090.942205 312.896387 
L 1096.68309 301.558194 
L 1102.423975 293.459484 
L 1108.16486 288.600258 
L 1113.905745 288.600258 
L 1119.64663 293.459484 
L 1125.387515 299.938452 
L 1131.128401 308.037161 
L 1136.869286 314.516129 
L 1136.869286 314.516129 
" style="fill:none;stroke:#000000;stroke-linecap:square;"/>
    <defs>
     <path d="M 0 2.5 
C 0.663008 2.5 1.29895 2.236584 1.767767 1.767767 
C 2.236584 1.29895 2.5 0.663008 2.5 0 
C 2.5 -0.663008 2.236584 -1.29895 1.767767 -1.767767 
C 1.29895 -2.236584 0.663008 -2.5 0 -2.5 
C -0.663008 -2.5 -1.29895 -2.236584 -1.767767 -1.767767 
C -2.236584 -1.29895 -2.5 -0.663008 -2.5 0 
C -2.5 0.663008 -2.236584 1.29895 -1.767767 1.767767 
C -1.29895 2.236584 -0.663008 2.5 0 2.5 
z
" id="me2ade8fb70" style="stroke:#000000;"/>
    </defs>
    <g clip-path="url(#p8b8bde6b69)">
     <use style="fill:#ffffff;stroke:#000000;" x="51.842" xlink:href="#me2ade8fb70" y="257.825161"/>
     <use style="fill:#ffffff;stroke:#000000;" x="63.32377" xlink:href="#me2ade8fb70" y="189.796"/>
     <use style="fill:#ffffff;stroke:#000000;" x="74.80554" xlink:href="#me2ade8fb70" y="152.541935"/>
     <use style="fill:#ffffff;stroke:#000000;" x="86.287311" xlink:href="#me2ade8fb70" y="162.260387"/>
     <use style="fill:#ffffff;stroke:#000000;" x="97.769081" xlink:href="#me2ade8fb70" y="160.640645"/>
     <use style="fill:#ffffff;stroke:#000000;" x="109.250851" xlink:href="#me2ade8fb70" y="162.260387"/>
     <use style="fill:#ffffff;stroke:#000000;" x="120.732621" xlink:href="#me2ade8fb70" y="165.499871"/>
     <use style="fill:#ffffff;stroke:#000000;" x="132.214392" xlink:href="#me2ade8fb70" y="178.457806"/>
     <use style="fill:#ffffff;stroke:#000000;" x="143.696162" xlink:href="#me2ade8fb70" y="202.753935"/>
     <use style="fill:#ffffff;stroke:#000000;" x="155.177932" xlink:href="#me2ade8fb70" y="222.190839"/>
     <use style="fill:#ffffff;stroke:#000000;" x="166.659702" xlink:href="#me2ade8fb70" y="238.388258"/>
     <use style="fill:#ffffff;stroke:#000000;" x="178.141472" xlink:href="#me2ade8fb70" y="275.642323"/>
     <use style="fill:#ffffff;stroke:#000000;" x="189.623243" xlink:href="#me2ade8fb70" y="330.713548"/>
     <use style="fill:#ffffff;stroke:#000000;" x="201.105013" xlink:href="#me2ade8fb70" y="361.488645"/>
     <use style="fill:#ffffff;stroke:#000000;" x="212.586783" xlink:href="#me2ade8fb70" y="363.108387"/>
     <use style="fill:#ffffff;stroke:#000000;" x="224.068553" xlink:href="#me2ade8fb70" y="361.488645"/>
     <use style="fill:#ffffff;stroke:#000000;" x="235.550324" xlink:href="#me2ade8fb70" y="355.009677"/>
     <use style="fill:#ffffff;stroke:#000000;" x="247.032094" xlink:href="#me2ade8fb70" y="338.812258"/>
     <use style="fill:#ffffff;stroke:#000000;" x="258.513864" xlink:href="#me2ade8fb70" y="340.432"/>
     <use style="fill:#ffffff;stroke:#000000;" x="269.995634" xlink:href="#me2ade8fb70" y="372.826839"/>
     <use style="fill:#ffffff;stroke:#000000;" x="281.477404" xlink:href="#me2ade8fb70" y="390.644"/>
     <use style="fill:#ffffff;stroke:#000000;" x="292.959175" xlink:href="#me2ade8fb70" y="379.305806"/>
     <use style="fill:#ffffff;stroke:#000000;" x="304.440945" xlink:href="#me2ade8fb70" y="379.305806"/>
     <use style="fill:#ffffff;stroke:#000000;" x="315.922715" xlink:href="#me2ade8fb70" y="405.221677"/>
     <use style="fill:#ffffff;stroke:#000000;" x="327.404485" xlink:href="#me2ade8fb70" y="423.038839"/>
     <use style="fill:#ffffff;stroke:#000000;" x="338.886255" xlink:href="#me2ade8fb70" y="439.236258"/>
     <use style="fill:#ffffff;stroke:#000000;" x="350.368026" xlink:href="#me2ade8fb70" y="468.391613"/>
     <use style="fill:#ffffff;stroke:#000000;" x="361.849796" xlink:href="#me2ade8fb70" y="474.870581"/>
     <use style="fill:#ffffff;stroke:#000000;" x="373.331566" xlink:href="#me2ade8fb70" y="447.334968"/>
     <use style="fill:#ffffff;stroke:#000000;" x="384.813336" xlink:href="#me2ade8fb70" y="427.898065"/>
     <use style="fill:#ffffff;stroke:#000000;" x="396.295107" xlink:href="#me2ade8fb70" y="424.658581"/>
     <use style="fill:#ffffff;stroke:#000000;" x="407.776877" xlink:href="#me2ade8fb70" y="414.940129"/>
     <use style="fill:#ffffff;stroke:#000000;" x="419.258647" xlink:href="#me2ade8fb70" y="410.080903"/>
     <use style="fill:#ffffff;stroke:#000000;" x="430.740417" xlink:href="#me2ade8fb70" y="423.038839"/>
     <use style="fill:#ffffff;stroke:#000000;" x="442.222187" xlink:href="#me2ade8fb70" y="429.517806"/>
     <use style="fill:#ffffff;stroke:#000000;" x="453.703958" xlink:href="#me2ade8fb70" y="424.658581"/>
     <use style="fill:#ffffff;stroke:#000000;" x="465.185728" xlink:href="#me2ade8fb70" y="426.278323"/>
     <use style="fill:#ffffff;stroke:#000000;" x="476.667498" xlink:href="#me2ade8fb70" y="414.940129"/>
     <use style="fill:#ffffff;stroke:#000000;" x="488.149268" xlink:href="#me2ade8fb70" y="385.784774"/>
     <use style="fill:#ffffff;stroke:#000000;" x="499.631039" xlink:href="#me2ade8fb70" y="364.728129"/>
     <use style="fill:#ffffff;stroke:#000000;" x="511.112809" xlink:href="#me2ade8fb70" y="366.347871"/>
     <use style="fill:#ffffff;stroke:#000000;" x="522.594579" xlink:href="#me2ade8fb70" y="376.066323"/>
     <use style="fill:#ffffff;stroke:#000000;" x="534.076349" xlink:href="#me2ade8fb70" y="384.165032"/>
     <use style="fill:#ffffff;stroke:#000000;" x="545.558119" xlink:href="#me2ade8fb70" y="397.122968"/>
     <use style="fill:#ffffff;stroke:#000000;" x="557.03989" xlink:href="#me2ade8fb70" y="397.122968"/>
     <use style="fill:#ffffff;stroke:#000000;" x="568.52166" xlink:href="#me2ade8fb70" y="367.967613"/>
     <use style="fill:#ffffff;stroke:#000000;" x="580.00343" xlink:href="#me2ade8fb70" y="335.572774"/>
     <use style="fill:#ffffff;stroke:#000000;" x="591.4852" xlink:href="#me2ade8fb70" y="330.713548"/>
     <use style="fill:#ffffff;stroke:#000000;" x="602.966971" xlink:href="#me2ade8fb70" y="348.53071"/>
     <use style="fill:#ffffff;stroke:#000000;" x="614.448741" xlink:href="#me2ade8fb70" y="364.728129"/>
     <use style="fill:#ffffff;stroke:#000000;" x="625.930511" xlink:href="#me2ade8fb70" y="379.305806"/>
     <use style="fill:#ffffff;stroke:#000000;" x="637.412281" xlink:href="#me2ade8fb70" y="400.362452"/>
     <use style="fill:#ffffff;stroke:#000000;" x="648.894051" xlink:href="#me2ade8fb70" y="424.658581"/>
     <use style="fill:#ffffff;stroke:#000000;" x="660.375822" xlink:href="#me2ade8fb70" y="445.715226"/>
     <use style="fill:#ffffff;stroke:#000000;" x="671.857592" xlink:href="#me2ade8fb70" y="450.574452"/>
     <use style="fill:#ffffff;stroke:#000000;" x="683.339362" xlink:href="#me2ade8fb70" y="435.996774"/>
     <use style="fill:#ffffff;stroke:#000000;" x="694.821132" xlink:href="#me2ade8fb70" y="414.940129"/>
     <use style="fill:#ffffff;stroke:#000000;" x="706.302902" xlink:href="#me2ade8fb70" y="408.461161"/>
     <use style="fill:#ffffff;stroke:#000000;" x="717.784673" xlink:href="#me2ade8fb70" y="410.080903"/>
     <use style="fill:#ffffff;stroke:#000000;" x="729.266443" xlink:href="#me2ade8fb70" y="406.841419"/>
     <use style="fill:#ffffff;stroke:#000000;" x="740.748213" xlink:href="#me2ade8fb70" y="403.601935"/>
     <use style="fill:#ffffff;stroke:#000000;" x="752.229983" xlink:href="#me2ade8fb70" y="410.080903"/>
     <use style="fill:#ffffff;stroke:#000000;" x="763.711754" xlink:href="#me2ade8fb70" y="411.700645"/>
     <use style="fill:#ffffff;stroke:#000000;" x="775.193524" xlink:href="#me2ade8fb70" y="387.404516"/>
     <use style="fill:#ffffff;stroke:#000000;" x="786.675294" xlink:href="#me2ade8fb70" y="353.389935"/>
     <use style="fill:#ffffff;stroke:#000000;" x="798.157064" xlink:href="#me2ade8fb70" y="325.854323"/>
     <use style="fill:#ffffff;stroke:#000000;" x="809.638834" xlink:href="#me2ade8fb70" y="304.797677"/>
     <use style="fill:#ffffff;stroke:#000000;" x="821.120605" xlink:href="#me2ade8fb70" y="282.12129"/>
     <use style="fill:#ffffff;stroke:#000000;" x="832.602375" xlink:href="#me2ade8fb70" y="270.783097"/>
     <use style="fill:#ffffff;stroke:#000000;" x="844.084145" xlink:href="#me2ade8fb70" y="280.501548"/>
     <use style="fill:#ffffff;stroke:#000000;" x="855.565915" xlink:href="#me2ade8fb70" y="298.31871"/>
     <use style="fill:#ffffff;stroke:#000000;" x="867.047686" xlink:href="#me2ade8fb70" y="303.177935"/>
     <use style="fill:#ffffff;stroke:#000000;" x="878.529456" xlink:href="#me2ade8fb70" y="286.980516"/>
     <use style="fill:#ffffff;stroke:#000000;" x="890.011226" xlink:href="#me2ade8fb70" y="264.304129"/>
     <use style="fill:#ffffff;stroke:#000000;" x="901.492996" xlink:href="#me2ade8fb70" y="256.205419"/>
     <use style="fill:#ffffff;stroke:#000000;" x="912.974766" xlink:href="#me2ade8fb70" y="267.543613"/>
     <use style="fill:#ffffff;stroke:#000000;" x="924.456537" xlink:href="#me2ade8fb70" y="282.12129"/>
     <use style="fill:#ffffff;stroke:#000000;" x="935.938307" xlink:href="#me2ade8fb70" y="291.839742"/>
     <use style="fill:#ffffff;stroke:#000000;" x="947.420077" xlink:href="#me2ade8fb70" y="298.31871"/>
     <use style="fill:#ffffff;stroke:#000000;" x="958.901847" xlink:href="#me2ade8fb70" y="309.656903"/>
     <use style="fill:#ffffff;stroke:#000000;" x="970.383618" xlink:href="#me2ade8fb70" y="335.572774"/>
     <use style="fill:#ffffff;stroke:#000000;" x="981.865388" xlink:href="#me2ade8fb70" y="369.587355"/>
     <use style="fill:#ffffff;stroke:#000000;" x="993.347158" xlink:href="#me2ade8fb70" y="392.263742"/>
     <use style="fill:#ffffff;stroke:#000000;" x="1004.828928" xlink:href="#me2ade8fb70" y="393.883484"/>
     <use style="fill:#ffffff;stroke:#000000;" x="1016.310698" xlink:href="#me2ade8fb70" y="382.54529"/>
     <use style="fill:#ffffff;stroke:#000000;" x="1027.792469" xlink:href="#me2ade8fb70" y="374.446581"/>
     <use style="fill:#ffffff;stroke:#000000;" x="1039.274239" xlink:href="#me2ade8fb70" y="369.587355"/>
     <use style="fill:#ffffff;stroke:#000000;" x="1050.756009" xlink:href="#me2ade8fb70" y="366.347871"/>
     <use style="fill:#ffffff;stroke:#000000;" x="1062.237779" xlink:href="#me2ade8fb70" y="361.488645"/>
     <use style="fill:#ffffff;stroke:#000000;" x="1073.71955" xlink:href="#me2ade8fb70" y="348.53071"/>
     <use style="fill:#ffffff;stroke:#000000;" x="1085.20132" xlink:href="#me2ade8fb70" y="325.854323"/>
     <use style="fill:#ffffff;stroke:#000000;" x="1096.68309" xlink:href="#me2ade8fb70" y="301.558194"/>
     <use style="fill:#ffffff;stroke:#000000;" x="1108.16486" xlink:href="#me2ade8fb70" y="288.600258"/>
     <use style="fill:#ffffff;stroke:#000000;" x="1119.64663" xlink:href="#me2ade8fb70" y="293.459484"/>
     <use style="fill:#ffffff;stroke:#000000;" x="1131.128401" xlink:href="#me2ade8fb70" y="308.037161"/>
    </g>
   </g>
   <g id="patch_3">
    <path d="M 51.842 541.28 
L 51.842 39.16 
" style="fill:none;stroke:#555555;stroke-linecap:square;stroke-linejoin:miter;"/>
   </g>
   <g id="patch_4">
    <path d="M 51.842 541.28 
L 1136.869286 541.28 
" style="fill:none;stroke:#555555;stroke-linecap:square;stroke-linejoin:miter;"/>
   </g>
   <g id="text_12">
    <!-- Last updated on 10 September 2020 with $R_t = 1.3$ and 95% confidence in range $0.97 - 1.59$ -->
    <g style="fill:#555555;" transform="translate(172.795643 29.16)scale(0.18 -0.18)">
     <defs>
      <path d="M 9.8125 72.90625 
L 19.671875 72.90625 
L 19.671875 8.296875 
L 55.171875 8.296875 
L 55.171875 0 
L 9.8125 0 
z
" id="DejaVuSans-76"/>
      <path d="M 34.28125 27.484375 
Q 23.390625 27.484375 19.1875 25 
Q 14.984375 22.515625 14.984375 16.5 
Q 14.984375 11.71875 18.140625 8.90625 
Q 21.296875 6.109375 26.703125 6.109375 
Q 34.1875 6.109375 38.703125 11.40625 
Q 43.21875 16.703125 43.21875 25.484375 
L 43.21875 27.484375 
z
M 52.203125 31.203125 
L 52.203125 0 
L 43.21875 0 
L 43.21875 8.296875 
Q 40.140625 3.328125 35.546875 0.953125 
Q 30.953125 -1.421875 24.3125 -1.421875 
Q 15.921875 -1.421875 10.953125 3.296875 
Q 6 8.015625 6 15.921875 
Q 6 25.140625 12.171875 29.828125 
Q 18.359375 34.515625 30.609375 34.515625 
L 43.21875 34.515625 
L 43.21875 35.40625 
Q 43.21875 41.609375 39.140625 45 
Q 35.0625 48.390625 27.6875 48.390625 
Q 23 48.390625 18.546875 47.265625 
Q 14.109375 46.140625 10.015625 43.890625 
L 10.015625 52.203125 
Q 14.9375 54.109375 19.578125 55.046875 
Q 24.21875 56 28.609375 56 
Q 40.484375 56 46.34375 49.84375 
Q 52.203125 43.703125 52.203125 31.203125 
z
" id="DejaVuSans-97"/>
      <path d="M 44.28125 53.078125 
L 44.28125 44.578125 
Q 40.484375 46.53125 36.375 47.5 
Q 32.28125 48.484375 27.875 48.484375 
Q 21.1875 48.484375 17.84375 46.4375 
Q 14.5 44.390625 14.5 40.28125 
Q 14.5 37.15625 16.890625 35.375 
Q 19.28125 33.59375 26.515625 31.984375 
L 29.59375 31.296875 
Q 39.15625 29.25 43.1875 25.515625 
Q 47.21875 21.78125 47.21875 15.09375 
Q 47.21875 7.46875 41.1875 3.015625 
Q 35.15625 -1.421875 24.609375 -1.421875 
Q 20.21875 -1.421875 15.453125 -0.5625 
Q 10.6875 0.296875 5.421875 2 
L 5.421875 11.28125 
Q 10.40625 8.6875 15.234375 7.390625 
Q 20.0625 6.109375 24.8125 6.109375 
Q 31.15625 6.109375 34.5625 8.28125 
Q 37.984375 10.453125 37.984375 14.40625 
Q 37.984375 18.0625 35.515625 20.015625 
Q 33.0625 21.96875 24.703125 23.78125 
L 21.578125 24.515625 
Q 13.234375 26.265625 9.515625 29.90625 
Q 5.8125 33.546875 5.8125 39.890625 
Q 5.8125 47.609375 11.28125 51.796875 
Q 16.75 56 26.8125 56 
Q 31.78125 56 36.171875 55.265625 
Q 40.578125 54.546875 44.28125 53.078125 
z
" id="DejaVuSans-115"/>
      <path d="M 18.3125 70.21875 
L 18.3125 54.6875 
L 36.8125 54.6875 
L 36.8125 47.703125 
L 18.3125 47.703125 
L 18.3125 18.015625 
Q 18.3125 11.328125 20.140625 9.421875 
Q 21.96875 7.515625 27.59375 7.515625 
L 36.8125 7.515625 
L 36.8125 0 
L 27.59375 0 
Q 17.1875 0 13.234375 3.875 
Q 9.28125 7.765625 9.28125 18.015625 
L 9.28125 47.703125 
L 2.6875 47.703125 
L 2.6875 54.6875 
L 9.28125 54.6875 
L 9.28125 70.21875 
z
" id="DejaVuSans-116"/>
      <path id="DejaVuSans-32"/>
      <path d="M 8.5 21.578125 
L 8.5 54.6875 
L 17.484375 54.6875 
L 17.484375 21.921875 
Q 17.484375 14.15625 20.5 10.265625 
Q 23.53125 6.390625 29.59375 6.390625 
Q 36.859375 6.390625 41.078125 11.03125 
Q 45.3125 15.671875 45.3125 23.6875 
L 45.3125 54.6875 
L 54.296875 54.6875 
L 54.296875 0 
L 45.3125 0 
L 45.3125 8.40625 
Q 42.046875 3.421875 37.71875 1 
Q 33.40625 -1.421875 27.6875 -1.421875 
Q 18.265625 -1.421875 13.375 4.4375 
Q 8.5 10.296875 8.5 21.578125 
z
M 31.109375 56 
z
" id="DejaVuSans-117"/>
      <path d="M 18.109375 8.203125 
L 18.109375 -20.796875 
L 9.078125 -20.796875 
L 9.078125 54.6875 
L 18.109375 54.6875 
L 18.109375 46.390625 
Q 20.953125 51.265625 25.265625 53.625 
Q 29.59375 56 35.59375 56 
Q 45.5625 56 51.78125 48.09375 
Q 58.015625 40.1875 58.015625 27.296875 
Q 58.015625 14.40625 51.78125 6.484375 
Q 45.5625 -1.421875 35.59375 -1.421875 
Q 29.59375 -1.421875 25.265625 0.953125 
Q 20.953125 3.328125 18.109375 8.203125 
z
M 48.6875 27.296875 
Q 48.6875 37.203125 44.609375 42.84375 
Q 40.53125 48.484375 33.40625 48.484375 
Q 26.265625 48.484375 22.1875 42.84375 
Q 18.109375 37.203125 18.109375 27.296875 
Q 18.109375 17.390625 22.1875 11.75 
Q 26.265625 6.109375 33.40625 6.109375 
Q 40.53125 6.109375 44.609375 11.75 
Q 48.6875 17.390625 48.6875 27.296875 
z
" id="DejaVuSans-112"/>
      <path d="M 45.40625 46.390625 
L 45.40625 75.984375 
L 54.390625 75.984375 
L 54.390625 0 
L 45.40625 0 
L 45.40625 8.203125 
Q 42.578125 3.328125 38.25 0.953125 
Q 33.9375 -1.421875 27.875 -1.421875 
Q 17.96875 -1.421875 11.734375 6.484375 
Q 5.515625 14.40625 5.515625 27.296875 
Q 5.515625 40.1875 11.734375 48.09375 
Q 17.96875 56 27.875 56 
Q 33.9375 56 38.25 53.625 
Q 42.578125 51.265625 45.40625 46.390625 
z
M 14.796875 27.296875 
Q 14.796875 17.390625 18.875 11.75 
Q 22.953125 6.109375 30.078125 6.109375 
Q 37.203125 6.109375 41.296875 11.75 
Q 45.40625 17.390625 45.40625 27.296875 
Q 45.40625 37.203125 41.296875 42.84375 
Q 37.203125 48.484375 30.078125 48.484375 
Q 22.953125 48.484375 18.875 42.84375 
Q 14.796875 37.203125 14.796875 27.296875 
z
" id="DejaVuSans-100"/>
      <path d="M 56.203125 29.59375 
L 56.203125 25.203125 
L 14.890625 25.203125 
Q 15.484375 15.921875 20.484375 11.0625 
Q 25.484375 6.203125 34.421875 6.203125 
Q 39.59375 6.203125 44.453125 7.46875 
Q 49.3125 8.734375 54.109375 11.28125 
L 54.109375 2.78125 
Q 49.265625 0.734375 44.1875 -0.34375 
Q 39.109375 -1.421875 33.890625 -1.421875 
Q 20.796875 -1.421875 13.15625 6.1875 
Q 5.515625 13.8125 5.515625 26.8125 
Q 5.515625 40.234375 12.765625 48.109375 
Q 20.015625 56 32.328125 56 
Q 43.359375 56 49.78125 48.890625 
Q 56.203125 41.796875 56.203125 29.59375 
z
M 47.21875 32.234375 
Q 47.125 39.59375 43.09375 43.984375 
Q 39.0625 48.390625 32.421875 48.390625 
Q 24.90625 48.390625 20.390625 44.140625 
Q 15.875 39.890625 15.1875 32.171875 
z
" id="DejaVuSans-101"/>
      <path d="M 30.609375 48.390625 
Q 23.390625 48.390625 19.1875 42.75 
Q 14.984375 37.109375 14.984375 27.296875 
Q 14.984375 17.484375 19.15625 11.84375 
Q 23.34375 6.203125 30.609375 6.203125 
Q 37.796875 6.203125 41.984375 11.859375 
Q 46.1875 17.53125 46.1875 27.296875 
Q 46.1875 37.015625 41.984375 42.703125 
Q 37.796875 48.390625 30.609375 48.390625 
z
M 30.609375 56 
Q 42.328125 56 49.015625 48.375 
Q 55.71875 40.765625 55.71875 27.296875 
Q 55.71875 13.875 49.015625 6.21875 
Q 42.328125 -1.421875 30.609375 -1.421875 
Q 18.84375 -1.421875 12.171875 6.21875 
Q 5.515625 13.875 5.515625 27.296875 
Q 5.515625 40.765625 12.171875 48.375 
Q 18.84375 56 30.609375 56 
z
" id="DejaVuSans-111"/>
      <path d="M 54.890625 33.015625 
L 54.890625 0 
L 45.90625 0 
L 45.90625 32.71875 
Q 45.90625 40.484375 42.875 44.328125 
Q 39.84375 48.1875 33.796875 48.1875 
Q 26.515625 48.1875 22.3125 43.546875 
Q 18.109375 38.921875 18.109375 30.90625 
L 18.109375 0 
L 9.078125 0 
L 9.078125 54.6875 
L 18.109375 54.6875 
L 18.109375 46.1875 
Q 21.34375 51.125 25.703125 53.5625 
Q 30.078125 56 35.796875 56 
Q 45.21875 56 50.046875 50.171875 
Q 54.890625 44.34375 54.890625 33.015625 
z
" id="DejaVuSans-110"/>
      <path d="M 12.40625 8.296875 
L 28.515625 8.296875 
L 28.515625 63.921875 
L 10.984375 60.40625 
L 10.984375 69.390625 
L 28.421875 72.90625 
L 38.28125 72.90625 
L 38.28125 8.296875 
L 54.390625 8.296875 
L 54.390625 0 
L 12.40625 0 
z
" id="DejaVuSans-49"/>
      <path d="M 31.78125 66.40625 
Q 24.171875 66.40625 20.328125 58.90625 
Q 16.5 51.421875 16.5 36.375 
Q 16.5 21.390625 20.328125 13.890625 
Q 24.171875 6.390625 31.78125 6.390625 
Q 39.453125 6.390625 43.28125 13.890625 
Q 47.125 21.390625 47.125 36.375 
Q 47.125 51.421875 43.28125 58.90625 
Q 39.453125 66.40625 31.78125 66.40625 
z
M 31.78125 74.21875 
Q 44.046875 74.21875 50.515625 64.515625 
Q 56.984375 54.828125 56.984375 36.375 
Q 56.984375 17.96875 50.515625 8.265625 
Q 44.046875 -1.421875 31.78125 -1.421875 
Q 19.53125 -1.421875 13.0625 8.265625 
Q 6.59375 17.96875 6.59375 36.375 
Q 6.59375 54.828125 13.0625 64.515625 
Q 19.53125 74.21875 31.78125 74.21875 
z
" id="DejaVuSans-48"/>
      <path d="M 53.515625 70.515625 
L 53.515625 60.890625 
Q 47.90625 63.578125 42.921875 64.890625 
Q 37.9375 66.21875 33.296875 66.21875 
Q 25.25 66.21875 20.875 63.09375 
Q 16.5 59.96875 16.5 54.203125 
Q 16.5 49.359375 19.40625 46.890625 
Q 22.3125 44.4375 30.421875 42.921875 
L 36.375 41.703125 
Q 47.40625 39.59375 52.65625 34.296875 
Q 57.90625 29 57.90625 20.125 
Q 57.90625 9.515625 50.796875 4.046875 
Q 43.703125 -1.421875 29.984375 -1.421875 
Q 24.8125 -1.421875 18.96875 -0.25 
Q 13.140625 0.921875 6.890625 3.21875 
L 6.890625 13.375 
Q 12.890625 10.015625 18.65625 8.296875 
Q 24.421875 6.59375 29.984375 6.59375 
Q 38.421875 6.59375 43.015625 9.90625 
Q 47.609375 13.234375 47.609375 19.390625 
Q 47.609375 24.75 44.3125 27.78125 
Q 41.015625 30.8125 33.5 32.328125 
L 27.484375 33.5 
Q 16.453125 35.6875 11.515625 40.375 
Q 6.59375 45.0625 6.59375 53.421875 
Q 6.59375 63.09375 13.40625 68.65625 
Q 20.21875 74.21875 32.171875 74.21875 
Q 37.3125 74.21875 42.625 73.28125 
Q 47.953125 72.359375 53.515625 70.515625 
z
" id="DejaVuSans-83"/>
      <path d="M 52 44.1875 
Q 55.375 50.25 60.0625 53.125 
Q 64.75 56 71.09375 56 
Q 79.640625 56 84.28125 50.015625 
Q 88.921875 44.046875 88.921875 33.015625 
L 88.921875 0 
L 79.890625 0 
L 79.890625 32.71875 
Q 79.890625 40.578125 77.09375 44.375 
Q 74.3125 48.1875 68.609375 48.1875 
Q 61.625 48.1875 57.5625 43.546875 
Q 53.515625 38.921875 53.515625 30.90625 
L 53.515625 0 
L 44.484375 0 
L 44.484375 32.71875 
Q 44.484375 40.625 41.703125 44.40625 
Q 38.921875 48.1875 33.109375 48.1875 
Q 26.21875 48.1875 22.15625 43.53125 
Q 18.109375 38.875 18.109375 30.90625 
L 18.109375 0 
L 9.078125 0 
L 9.078125 54.6875 
L 18.109375 54.6875 
L 18.109375 46.1875 
Q 21.1875 51.21875 25.484375 53.609375 
Q 29.78125 56 35.6875 56 
Q 41.65625 56 45.828125 52.96875 
Q 50 49.953125 52 44.1875 
z
" id="DejaVuSans-109"/>
      <path d="M 48.6875 27.296875 
Q 48.6875 37.203125 44.609375 42.84375 
Q 40.53125 48.484375 33.40625 48.484375 
Q 26.265625 48.484375 22.1875 42.84375 
Q 18.109375 37.203125 18.109375 27.296875 
Q 18.109375 17.390625 22.1875 11.75 
Q 26.265625 6.109375 33.40625 6.109375 
Q 40.53125 6.109375 44.609375 11.75 
Q 48.6875 17.390625 48.6875 27.296875 
z
M 18.109375 46.390625 
Q 20.953125 51.265625 25.265625 53.625 
Q 29.59375 56 35.59375 56 
Q 45.5625 56 51.78125 48.09375 
Q 58.015625 40.1875 58.015625 27.296875 
Q 58.015625 14.40625 51.78125 6.484375 
Q 45.5625 -1.421875 35.59375 -1.421875 
Q 29.59375 -1.421875 25.265625 0.953125 
Q 20.953125 3.328125 18.109375 8.203125 
L 18.109375 0 
L 9.078125 0 
L 9.078125 75.984375 
L 18.109375 75.984375 
z
" id="DejaVuSans-98"/>
      <path d="M 41.109375 46.296875 
Q 39.59375 47.171875 37.8125 47.578125 
Q 36.03125 48 33.890625 48 
Q 26.265625 48 22.1875 43.046875 
Q 18.109375 38.09375 18.109375 28.8125 
L 18.109375 0 
L 9.078125 0 
L 9.078125 54.6875 
L 18.109375 54.6875 
L 18.109375 46.1875 
Q 20.953125 51.171875 25.484375 53.578125 
Q 30.03125 56 36.53125 56 
Q 37.453125 56 38.578125 55.875 
Q 39.703125 55.765625 41.0625 55.515625 
z
" id="DejaVuSans-114"/>
      <path d="M 19.1875 8.296875 
L 53.609375 8.296875 
L 53.609375 0 
L 7.328125 0 
L 7.328125 8.296875 
Q 12.9375 14.109375 22.625 23.890625 
Q 32.328125 33.6875 34.8125 36.53125 
Q 39.546875 41.84375 41.421875 45.53125 
Q 43.3125 49.21875 43.3125 52.78125 
Q 43.3125 58.59375 39.234375 62.25 
Q 35.15625 65.921875 28.609375 65.921875 
Q 23.96875 65.921875 18.8125 64.3125 
Q 13.671875 62.703125 7.8125 59.421875 
L 7.8125 69.390625 
Q 13.765625 71.78125 18.9375 73 
Q 24.125 74.21875 28.421875 74.21875 
Q 39.75 74.21875 46.484375 68.546875 
Q 53.21875 62.890625 53.21875 53.421875 
Q 53.21875 48.921875 51.53125 44.890625 
Q 49.859375 40.875 45.40625 35.40625 
Q 44.1875 33.984375 37.640625 27.21875 
Q 31.109375 20.453125 19.1875 8.296875 
z
" id="DejaVuSans-50"/>
      <path d="M 4.203125 54.6875 
L 13.1875 54.6875 
L 24.421875 12.015625 
L 35.59375 54.6875 
L 46.1875 54.6875 
L 57.421875 12.015625 
L 68.609375 54.6875 
L 77.59375 54.6875 
L 63.28125 0 
L 52.6875 0 
L 40.921875 44.828125 
L 29.109375 0 
L 18.5 0 
z
" id="DejaVuSans-119"/>
      <path d="M 9.421875 54.6875 
L 18.40625 54.6875 
L 18.40625 0 
L 9.421875 0 
z
M 9.421875 75.984375 
L 18.40625 75.984375 
L 18.40625 64.59375 
L 9.421875 64.59375 
z
" id="DejaVuSans-105"/>
      <path d="M 54.890625 33.015625 
L 54.890625 0 
L 45.90625 0 
L 45.90625 32.71875 
Q 45.90625 40.484375 42.875 44.328125 
Q 39.84375 48.1875 33.796875 48.1875 
Q 26.515625 48.1875 22.3125 43.546875 
Q 18.109375 38.921875 18.109375 30.90625 
L 18.109375 0 
L 9.078125 0 
L 9.078125 75.984375 
L 18.109375 75.984375 
L 18.109375 46.1875 
Q 21.34375 51.125 25.703125 53.5625 
Q 30.078125 56 35.796875 56 
Q 45.21875 56 50.046875 50.171875 
Q 54.890625 44.34375 54.890625 33.015625 
z
" id="DejaVuSans-104"/>
      <path d="M 10.59375 48.1875 
L 73.1875 48.1875 
L 73.1875 36.71875 
L 10.59375 36.71875 
z
M 10.59375 25.984375 
L 73.1875 25.984375 
L 73.1875 14.40625 
L 10.59375 14.40625 
z
" id="DejaVuSans-Bold-61"/>
      <path d="M 10.203125 18.890625 
L 27.78125 18.890625 
L 27.78125 0 
L 10.203125 0 
z
" id="DejaVuSans-Bold-46"/>
      <path d="M 10.984375 1.515625 
L 10.984375 10.5 
Q 14.703125 8.734375 18.5 7.8125 
Q 22.3125 6.890625 25.984375 6.890625 
Q 35.75 6.890625 40.890625 13.453125 
Q 46.046875 20.015625 46.78125 33.40625 
Q 43.953125 29.203125 39.59375 26.953125 
Q 35.25 24.703125 29.984375 24.703125 
Q 19.046875 24.703125 12.671875 31.3125 
Q 6.296875 37.9375 6.296875 49.421875 
Q 6.296875 60.640625 12.9375 67.421875 
Q 19.578125 74.21875 30.609375 74.21875 
Q 43.265625 74.21875 49.921875 64.515625 
Q 56.59375 54.828125 56.59375 36.375 
Q 56.59375 19.140625 48.40625 8.859375 
Q 40.234375 -1.421875 26.421875 -1.421875 
Q 22.703125 -1.421875 18.890625 -0.6875 
Q 15.09375 0.046875 10.984375 1.515625 
z
M 30.609375 32.421875 
Q 37.25 32.421875 41.125 36.953125 
Q 45.015625 41.5 45.015625 49.421875 
Q 45.015625 57.28125 41.125 61.84375 
Q 37.25 66.40625 30.609375 66.40625 
Q 23.96875 66.40625 20.09375 61.84375 
Q 16.21875 57.28125 16.21875 49.421875 
Q 16.21875 41.5 20.09375 36.953125 
Q 23.96875 32.421875 30.609375 32.421875 
z
" id="DejaVuSans-57"/>
      <path d="M 10.796875 72.90625 
L 49.515625 72.90625 
L 49.515625 64.59375 
L 19.828125 64.59375 
L 19.828125 46.734375 
Q 21.96875 47.46875 24.109375 47.828125 
Q 26.265625 48.1875 28.421875 48.1875 
Q 40.625 48.1875 47.75 41.5 
Q 54.890625 34.8125 54.890625 23.390625 
Q 54.890625 11.625 47.5625 5.09375 
Q 40.234375 -1.421875 26.90625 -1.421875 
Q 22.3125 -1.421875 17.546875 -0.640625 
Q 12.796875 0.140625 7.71875 1.703125 
L 7.71875 11.625 
Q 12.109375 9.234375 16.796875 8.0625 
Q 21.484375 6.890625 26.703125 6.890625 
Q 35.15625 6.890625 40.078125 11.328125 
Q 45.015625 15.765625 45.015625 23.390625 
Q 45.015625 31 40.078125 35.4375 
Q 35.15625 39.890625 26.703125 39.890625 
Q 22.75 39.890625 18.8125 39.015625 
Q 14.890625 38.140625 10.796875 36.28125 
z
" id="DejaVuSans-53"/>
      <path d="M 72.703125 32.078125 
Q 68.453125 32.078125 66.03125 28.46875 
Q 63.625 24.859375 63.625 18.40625 
Q 63.625 12.0625 66.03125 8.421875 
Q 68.453125 4.78125 72.703125 4.78125 
Q 76.859375 4.78125 79.265625 8.421875 
Q 81.6875 12.0625 81.6875 18.40625 
Q 81.6875 24.8125 79.265625 28.4375 
Q 76.859375 32.078125 72.703125 32.078125 
z
M 72.703125 38.28125 
Q 80.421875 38.28125 84.953125 32.90625 
Q 89.5 27.546875 89.5 18.40625 
Q 89.5 9.28125 84.9375 3.921875 
Q 80.375 -1.421875 72.703125 -1.421875 
Q 64.890625 -1.421875 60.34375 3.921875 
Q 55.8125 9.28125 55.8125 18.40625 
Q 55.8125 27.59375 60.375 32.9375 
Q 64.9375 38.28125 72.703125 38.28125 
z
M 22.3125 68.015625 
Q 18.109375 68.015625 15.6875 64.375 
Q 13.28125 60.75 13.28125 54.390625 
Q 13.28125 47.953125 15.671875 44.328125 
Q 18.0625 40.71875 22.3125 40.71875 
Q 26.5625 40.71875 28.96875 44.328125 
Q 31.390625 47.953125 31.390625 54.390625 
Q 31.390625 60.6875 28.953125 64.34375 
Q 26.515625 68.015625 22.3125 68.015625 
z
M 66.40625 74.21875 
L 74.21875 74.21875 
L 28.609375 -1.421875 
L 20.796875 -1.421875 
z
M 22.3125 74.21875 
Q 30.03125 74.21875 34.609375 68.875 
Q 39.203125 63.53125 39.203125 54.390625 
Q 39.203125 45.171875 34.640625 39.84375 
Q 30.078125 34.515625 22.3125 34.515625 
Q 14.546875 34.515625 10.03125 39.859375 
Q 5.515625 45.21875 5.515625 54.390625 
Q 5.515625 63.484375 10.046875 68.84375 
Q 14.59375 74.21875 22.3125 74.21875 
z
" id="DejaVuSans-37"/>
      <path d="M 48.78125 52.59375 
L 48.78125 44.1875 
Q 44.96875 46.296875 41.140625 47.34375 
Q 37.3125 48.390625 33.40625 48.390625 
Q 24.65625 48.390625 19.8125 42.84375 
Q 14.984375 37.3125 14.984375 27.296875 
Q 14.984375 17.28125 19.8125 11.734375 
Q 24.65625 6.203125 33.40625 6.203125 
Q 37.3125 6.203125 41.140625 7.25 
Q 44.96875 8.296875 48.78125 10.40625 
L 48.78125 2.09375 
Q 45.015625 0.34375 40.984375 -0.53125 
Q 36.96875 -1.421875 32.421875 -1.421875 
Q 20.0625 -1.421875 12.78125 6.34375 
Q 5.515625 14.109375 5.515625 27.296875 
Q 5.515625 40.671875 12.859375 48.328125 
Q 20.21875 56 33.015625 56 
Q 37.15625 56 41.109375 55.140625 
Q 45.0625 54.296875 48.78125 52.59375 
z
" id="DejaVuSans-99"/>
      <path d="M 37.109375 75.984375 
L 37.109375 68.5 
L 28.515625 68.5 
Q 23.6875 68.5 21.796875 66.546875 
Q 19.921875 64.59375 19.921875 59.515625 
L 19.921875 54.6875 
L 34.71875 54.6875 
L 34.71875 47.703125 
L 19.921875 47.703125 
L 19.921875 0 
L 10.890625 0 
L 10.890625 47.703125 
L 2.296875 47.703125 
L 2.296875 54.6875 
L 10.890625 54.6875 
L 10.890625 58.5 
Q 10.890625 67.625 15.140625 71.796875 
Q 19.390625 75.984375 28.609375 75.984375 
z
" id="DejaVuSans-102"/>
      <path d="M 45.40625 27.984375 
Q 45.40625 37.75 41.375 43.109375 
Q 37.359375 48.484375 30.078125 48.484375 
Q 22.859375 48.484375 18.828125 43.109375 
Q 14.796875 37.75 14.796875 27.984375 
Q 14.796875 18.265625 18.828125 12.890625 
Q 22.859375 7.515625 30.078125 7.515625 
Q 37.359375 7.515625 41.375 12.890625 
Q 45.40625 18.265625 45.40625 27.984375 
z
M 54.390625 6.78125 
Q 54.390625 -7.171875 48.1875 -13.984375 
Q 42 -20.796875 29.203125 -20.796875 
Q 24.46875 -20.796875 20.265625 -20.09375 
Q 16.0625 -19.390625 12.109375 -17.921875 
L 12.109375 -9.1875 
Q 16.0625 -11.328125 19.921875 -12.34375 
Q 23.78125 -13.375 27.78125 -13.375 
Q 36.625 -13.375 41.015625 -8.765625 
Q 45.40625 -4.15625 45.40625 5.171875 
L 45.40625 9.625 
Q 42.625 4.78125 38.28125 2.390625 
Q 33.9375 0 27.875 0 
Q 17.828125 0 11.671875 7.65625 
Q 5.515625 15.328125 5.515625 27.984375 
Q 5.515625 40.671875 11.671875 48.328125 
Q 17.828125 56 27.875 56 
Q 33.9375 56 38.28125 53.609375 
Q 42.625 51.21875 45.40625 46.390625 
L 45.40625 54.6875 
L 54.390625 54.6875 
z
" id="DejaVuSans-103"/>
      <path d="M 10.015625 1.609375 
L 10.015625 15.09375 
Q 14.5 12.984375 18.59375 11.9375 
Q 22.703125 10.890625 26.703125 10.890625 
Q 35.109375 10.890625 39.796875 15.546875 
Q 44.484375 20.21875 45.3125 29.390625 
Q 42 26.953125 38.234375 25.734375 
Q 34.46875 24.515625 30.078125 24.515625 
Q 18.890625 24.515625 12.03125 31.03125 
Q 5.171875 37.546875 5.171875 48.1875 
Q 5.171875 59.96875 12.8125 67.046875 
Q 20.453125 74.125 33.296875 74.125 
Q 47.5625 74.125 55.375 64.5 
Q 63.1875 54.890625 63.1875 37.3125 
Q 63.1875 19.234375 54.046875 8.90625 
Q 44.921875 -1.421875 29 -1.421875 
Q 23.875 -1.421875 19.1875 -0.65625 
Q 14.5 0.09375 10.015625 1.609375 
z
M 33.203125 36.71875 
Q 38.140625 36.71875 40.625 39.90625 
Q 43.109375 43.109375 43.109375 49.515625 
Q 43.109375 55.859375 40.625 59.078125 
Q 38.140625 62.3125 33.203125 62.3125 
Q 28.265625 62.3125 25.78125 59.078125 
Q 23.296875 55.859375 23.296875 49.515625 
Q 23.296875 43.109375 25.78125 39.90625 
Q 28.265625 36.71875 33.203125 36.71875 
z
" id="DejaVuSans-Bold-57"/>
      <path d="M 6.6875 72.90625 
L 61.625 72.90625 
L 61.625 62.3125 
L 33.203125 0 
L 14.890625 0 
L 41.796875 59.078125 
L 6.6875 59.078125 
z
" id="DejaVuSans-Bold-55"/>
      <path d="M 10.59375 37.109375 
L 73.1875 37.109375 
L 73.1875 25.59375 
L 10.59375 25.59375 
z
" id="DejaVuSans-Bold-8722"/>
      <path d="M 10.59375 72.90625 
L 57.328125 72.90625 
L 57.328125 59.078125 
L 25.59375 59.078125 
L 25.59375 47.796875 
Q 27.734375 48.390625 29.90625 48.703125 
Q 32.078125 49.03125 34.421875 49.03125 
Q 47.75 49.03125 55.171875 42.359375 
Q 62.59375 35.6875 62.59375 23.78125 
Q 62.59375 11.96875 54.515625 5.265625 
Q 46.4375 -1.421875 32.078125 -1.421875 
Q 25.875 -1.421875 19.796875 -0.21875 
Q 13.71875 0.984375 7.71875 3.421875 
L 7.71875 18.21875 
Q 13.671875 14.796875 19.015625 13.078125 
Q 24.359375 11.375 29.109375 11.375 
Q 35.9375 11.375 39.859375 14.71875 
Q 43.796875 18.0625 43.796875 23.78125 
Q 43.796875 29.546875 39.859375 32.859375 
Q 35.9375 36.1875 29.109375 36.1875 
Q 25.046875 36.1875 20.453125 35.125 
Q 15.875 34.078125 10.59375 31.890625 
z
" id="DejaVuSans-Bold-53"/>
     </defs>
     <use transform="translate(0 0.015625)" xlink:href="#DejaVuSans-76"/>
     <use transform="translate(55.712891 0.015625)" xlink:href="#DejaVuSans-97"/>
     <use transform="translate(116.992188 0.015625)" xlink:href="#DejaVuSans-115"/>
     <use transform="translate(169.091797 0.015625)" xlink:href="#DejaVuSans-116"/>
     <use transform="translate(208.300781 0.015625)" xlink:href="#DejaVuSans-32"/>
     <use transform="translate(240.087891 0.015625)" xlink:href="#DejaVuSans-117"/>
     <use transform="translate(303.466797 0.015625)" xlink:href="#DejaVuSans-112"/>
     <use transform="translate(366.943359 0.015625)" xlink:href="#DejaVuSans-100"/>
     <use transform="translate(430.419922 0.015625)" xlink:href="#DejaVuSans-97"/>
     <use transform="translate(491.699219 0.015625)" xlink:href="#DejaVuSans-116"/>
     <use transform="translate(530.908203 0.015625)" xlink:href="#DejaVuSans-101"/>
     <use transform="translate(592.431641 0.015625)" xlink:href="#DejaVuSans-100"/>
     <use transform="translate(655.908203 0.015625)" xlink:href="#DejaVuSans-32"/>
     <use transform="translate(687.695312 0.015625)" xlink:href="#DejaVuSans-111"/>
     <use transform="translate(748.876953 0.015625)" xlink:href="#DejaVuSans-110"/>
     <use transform="translate(812.255859 0.015625)" xlink:href="#DejaVuSans-32"/>
     <use transform="translate(844.042969 0.015625)" xlink:href="#DejaVuSans-49"/>
     <use transform="translate(907.666016 0.015625)" xlink:href="#DejaVuSans-48"/>
     <use transform="translate(971.289062 0.015625)" xlink:href="#DejaVuSans-32"/>
     <use transform="translate(1003.076172 0.015625)" xlink:href="#DejaVuSans-83"/>
     <use transform="translate(1066.552734 0.015625)" xlink:href="#DejaVuSans-101"/>
     <use transform="translate(1128.076172 0.015625)" xlink:href="#DejaVuSans-112"/>
     <use transform="translate(1191.552734 0.015625)" xlink:href="#DejaVuSans-116"/>
     <use transform="translate(1230.761719 0.015625)" xlink:href="#DejaVuSans-101"/>
     <use transform="translate(1292.285156 0.015625)" xlink:href="#DejaVuSans-109"/>
     <use transform="translate(1389.697266 0.015625)" xlink:href="#DejaVuSans-98"/>
     <use transform="translate(1453.173828 0.015625)" xlink:href="#DejaVuSans-101"/>
     <use transform="translate(1514.697266 0.015625)" xlink:href="#DejaVuSans-114"/>
     <use transform="translate(1555.810547 0.015625)" xlink:href="#DejaVuSans-32"/>
     <use transform="translate(1587.597656 0.015625)" xlink:href="#DejaVuSans-50"/>
     <use transform="translate(1651.220703 0.015625)" xlink:href="#DejaVuSans-48"/>
     <use transform="translate(1714.84375 0.015625)" xlink:href="#DejaVuSans-50"/>
     <use transform="translate(1778.466797 0.015625)" xlink:href="#DejaVuSans-48"/>
     <use transform="translate(1842.089844 0.015625)" xlink:href="#DejaVuSans-32"/>
     <use transform="translate(1873.876953 0.015625)" xlink:href="#DejaVuSans-119"/>
     <use transform="translate(1955.664062 0.015625)" xlink:href="#DejaVuSans-105"/>
     <use transform="translate(1983.447266 0.015625)" xlink:href="#DejaVuSans-116"/>
     <use transform="translate(2022.65625 0.015625)" xlink:href="#DejaVuSans-104"/>
     <use transform="translate(2086.035156 0.015625)" xlink:href="#DejaVuSans-32"/>
     <use transform="translate(2117.822266 0.015625)" xlink:href="#DejaVuSans-BoldOblique-82"/>
     <use transform="translate(2194.824219 -16.390625)scale(0.7)" xlink:href="#DejaVuSans-BoldOblique-116"/>
     <use transform="translate(2251.860352 0.015625)" xlink:href="#DejaVuSans-Bold-61"/>
     <use transform="translate(2356.489258 0.015625)" xlink:href="#DejaVuSans-Bold-49"/>
     <use transform="translate(2426.069336 0.015625)" xlink:href="#DejaVuSans-Bold-46"/>
     <use transform="translate(2464.057617 0.015625)" xlink:href="#DejaVuSans-Bold-51"/>
     <use transform="translate(2533.637695 0.015625)" xlink:href="#DejaVuSans-32"/>
     <use transform="translate(2565.424805 0.015625)" xlink:href="#DejaVuSans-97"/>
     <use transform="translate(2626.704102 0.015625)" xlink:href="#DejaVuSans-110"/>
     <use transform="translate(2690.083008 0.015625)" xlink:href="#DejaVuSans-100"/>
     <use transform="translate(2753.55957 0.015625)" xlink:href="#DejaVuSans-32"/>
     <use transform="translate(2785.34668 0.015625)" xlink:href="#DejaVuSans-57"/>
     <use transform="translate(2848.969727 0.015625)" xlink:href="#DejaVuSans-53"/>
     <use transform="translate(2912.592773 0.015625)" xlink:href="#DejaVuSans-37"/>
     <use transform="translate(3007.612305 0.015625)" xlink:href="#DejaVuSans-32"/>
     <use transform="translate(3039.399414 0.015625)" xlink:href="#DejaVuSans-99"/>
     <use transform="translate(3094.379883 0.015625)" xlink:href="#DejaVuSans-111"/>
     <use transform="translate(3155.561523 0.015625)" xlink:href="#DejaVuSans-110"/>
     <use transform="translate(3218.94043 0.015625)" xlink:href="#DejaVuSans-102"/>
     <use transform="translate(3254.145508 0.015625)" xlink:href="#DejaVuSans-105"/>
     <use transform="translate(3281.928711 0.015625)" xlink:href="#DejaVuSans-100"/>
     <use transform="translate(3345.405273 0.015625)" xlink:href="#DejaVuSans-101"/>
     <use transform="translate(3406.928711 0.015625)" xlink:href="#DejaVuSans-110"/>
     <use transform="translate(3470.307617 0.015625)" xlink:href="#DejaVuSans-99"/>
     <use transform="translate(3525.288086 0.015625)" xlink:href="#DejaVuSans-101"/>
     <use transform="translate(3586.811523 0.015625)" xlink:href="#DejaVuSans-32"/>
     <use transform="translate(3618.598633 0.015625)" xlink:href="#DejaVuSans-105"/>
     <use transform="translate(3646.381836 0.015625)" xlink:href="#DejaVuSans-110"/>
     <use transform="translate(3709.760742 0.015625)" xlink:href="#DejaVuSans-32"/>
     <use transform="translate(3741.547852 0.015625)" xlink:href="#DejaVuSans-114"/>
     <use transform="translate(3782.661133 0.015625)" xlink:href="#DejaVuSans-97"/>
     <use transform="translate(3843.94043 0.015625)" xlink:href="#DejaVuSans-110"/>
     <use transform="translate(3907.319336 0.015625)" xlink:href="#DejaVuSans-103"/>
     <use transform="translate(3970.795898 0.015625)" xlink:href="#DejaVuSans-101"/>
     <use transform="translate(4032.319336 0.015625)" xlink:href="#DejaVuSans-32"/>
     <use transform="translate(4064.106445 0.015625)" xlink:href="#DejaVuSans-Bold-48"/>
     <use transform="translate(4133.686523 0.015625)" xlink:href="#DejaVuSans-Bold-46"/>
     <use transform="translate(4171.674805 0.015625)" xlink:href="#DejaVuSans-Bold-57"/>
     <use transform="translate(4241.254883 0.015625)" xlink:href="#DejaVuSans-Bold-55"/>
     <use transform="translate(4331.674805 0.015625)" xlink:href="#DejaVuSans-Bold-8722"/>
     <use transform="translate(4436.303711 0.015625)" xlink:href="#DejaVuSans-Bold-49"/>
     <use transform="translate(4505.883789 0.015625)" xlink:href="#DejaVuSans-Bold-46"/>
     <use transform="translate(4543.87207 0.015625)" xlink:href="#DejaVuSans-Bold-53"/>
     <use transform="translate(4613.452148 0.015625)" xlink:href="#DejaVuSans-Bold-57"/>
    </g>
   </g>
   <g id="legend_1">
    <g id="line2d_13">
     <path d="M 951.109286 60.12 
L 983.109286 60.12 
" style="fill:none;stroke:#000000;stroke-linecap:square;"/>
    </g>
    <g id="line2d_14">
     <g>
      <use style="fill:#ffffff;stroke:#000000;" x="967.109286" xlink:href="#me2ade8fb70" y="60.12"/>
     </g>
    </g>
    <g id="text_13">
     <!-- Most Likely $R_t$ -->
     <g style="fill:#555555;" transform="translate(995.909286 65.72)scale(0.16 -0.16)">
      <defs>
       <path d="M 34.421875 43.5 
Q 28.609375 43.5 25.5625 39.328125 
Q 22.515625 35.15625 22.515625 27.296875 
Q 22.515625 19.4375 25.5625 15.25 
Q 28.609375 11.078125 34.421875 11.078125 
Q 40.140625 11.078125 43.15625 15.25 
Q 46.1875 19.4375 46.1875 27.296875 
Q 46.1875 35.15625 43.15625 39.328125 
Q 40.140625 43.5 34.421875 43.5 
z
M 34.421875 56 
Q 48.53125 56 56.46875 48.375 
Q 64.40625 40.765625 64.40625 27.296875 
Q 64.40625 13.8125 56.46875 6.1875 
Q 48.53125 -1.421875 34.421875 -1.421875 
Q 20.265625 -1.421875 12.28125 6.1875 
Q 4.296875 13.8125 4.296875 27.296875 
Q 4.296875 40.765625 12.28125 48.375 
Q 20.265625 56 34.421875 56 
z
" id="DejaVuSans-Bold-111"/>
       <path id="DejaVuSans-Bold-32"/>
       <path d="M 9.1875 72.90625 
L 27.984375 72.90625 
L 27.984375 14.203125 
L 60.984375 14.203125 
L 60.984375 0 
L 9.1875 0 
z
" id="DejaVuSans-Bold-76"/>
       <path d="M 8.40625 75.984375 
L 25.875 75.984375 
L 25.875 34.625 
L 46 54.6875 
L 66.3125 54.6875 
L 39.59375 29.59375 
L 68.40625 0 
L 47.21875 0 
L 25.875 22.796875 
L 25.875 0 
L 8.40625 0 
z
" id="DejaVuSans-Bold-107"/>
      </defs>
      <use transform="translate(0 0.015625)" xlink:href="#DejaVuSans-Bold-77"/>
      <use transform="translate(99.511719 0.015625)" xlink:href="#DejaVuSans-Bold-111"/>
      <use transform="translate(168.212891 0.015625)" xlink:href="#DejaVuSans-Bold-115"/>
      <use transform="translate(227.734375 0.015625)" xlink:href="#DejaVuSans-Bold-116"/>
      <use transform="translate(275.537109 0.015625)" xlink:href="#DejaVuSans-Bold-32"/>
      <use transform="translate(310.351562 0.015625)" xlink:href="#DejaVuSans-Bold-76"/>
      <use transform="translate(374.072266 0.015625)" xlink:href="#DejaVuSans-Bold-105"/>
      <use transform="translate(408.349609 0.015625)" xlink:href="#DejaVuSans-Bold-107"/>
      <use transform="translate(474.853516 0.015625)" xlink:href="#DejaVuSans-Bold-101"/>
      <use transform="translate(542.675781 0.015625)" xlink:href="#DejaVuSans-Bold-108"/>
      <use transform="translate(576.953125 0.015625)" xlink:href="#DejaVuSans-Bold-121"/>
      <use transform="translate(642.138672 0.015625)" xlink:href="#DejaVuSans-Bold-32"/>
      <use transform="translate(676.953125 0.015625)" xlink:href="#DejaVuSans-BoldOblique-82"/>
      <use transform="translate(753.955078 -16.390625)scale(0.7)" xlink:href="#DejaVuSans-BoldOblique-116"/>
     </g>
    </g>
    <g id="patch_5">
     <path d="M 951.109286 89.3975 
L 983.109286 89.3975 
L 983.109286 78.1975 
L 951.109286 78.1975 
z
" style="fill:#e6e6e6;stroke:#e6e6e6;stroke-linejoin:miter;"/>
    </g>
    <g id="text_14">
     <!-- 95% CI -->
     <g style="fill:#555555;" transform="translate(995.909286 89.3975)scale(0.16 -0.16)">
      <defs>
       <path d="M 77.484375 30.078125 
Q 74.03125 30.078125 72.125 27.078125 
Q 70.21875 24.078125 70.21875 18.5 
Q 70.21875 12.890625 72.09375 9.890625 
Q 73.96875 6.890625 77.484375 6.890625 
Q 81 6.890625 82.859375 9.890625 
Q 84.71875 12.890625 84.71875 18.5 
Q 84.71875 24.078125 82.828125 27.078125 
Q 80.953125 30.078125 77.484375 30.078125 
z
M 77.484375 38.28125 
Q 86.578125 38.28125 91.796875 33 
Q 97.015625 27.734375 97.015625 18.5 
Q 97.015625 9.28125 91.796875 3.921875 
Q 86.578125 -1.421875 77.484375 -1.421875 
Q 68.40625 -1.421875 63.15625 3.921875 
Q 57.90625 9.28125 57.90625 18.5 
Q 57.90625 27.6875 63.15625 32.984375 
Q 68.40625 38.28125 77.484375 38.28125 
z
M 32.71875 -1.421875 
L 21.921875 -1.421875 
L 67.484375 74.21875 
L 78.328125 74.21875 
z
M 22.703125 74.21875 
Q 31.78125 74.21875 36.984375 68.921875 
Q 42.1875 63.625 42.1875 54.390625 
Q 42.1875 45.171875 36.984375 39.84375 
Q 31.78125 34.515625 22.703125 34.515625 
Q 13.625 34.515625 8.421875 39.84375 
Q 3.21875 45.171875 3.21875 54.390625 
Q 3.21875 63.625 8.421875 68.921875 
Q 13.625 74.21875 22.703125 74.21875 
z
M 22.703125 66.015625 
Q 19.1875 66.015625 17.28125 62.984375 
Q 15.375 59.96875 15.375 54.390625 
Q 15.375 48.78125 17.28125 45.71875 
Q 19.1875 42.671875 22.703125 42.671875 
Q 26.21875 42.671875 28.09375 45.71875 
Q 29.984375 48.78125 29.984375 54.390625 
Q 29.984375 59.96875 28.078125 62.984375 
Q 26.171875 66.015625 22.703125 66.015625 
z
" id="DejaVuSans-Bold-37"/>
       <path d="M 67 4 
Q 61.8125 1.3125 56.203125 -0.046875 
Q 50.59375 -1.421875 44.484375 -1.421875 
Q 26.265625 -1.421875 15.625 8.765625 
Q 4.984375 18.953125 4.984375 36.375 
Q 4.984375 53.859375 15.625 64.03125 
Q 26.265625 74.21875 44.484375 74.21875 
Q 50.59375 74.21875 56.203125 72.84375 
Q 61.8125 71.484375 67 68.796875 
L 67 53.71875 
Q 61.765625 57.28125 56.6875 58.9375 
Q 51.609375 60.59375 46 60.59375 
Q 35.9375 60.59375 30.171875 54.140625 
Q 24.421875 47.703125 24.421875 36.375 
Q 24.421875 25.09375 30.171875 18.640625 
Q 35.9375 12.203125 46 12.203125 
Q 51.609375 12.203125 56.6875 13.859375 
Q 61.765625 15.53125 67 19.09375 
z
" id="DejaVuSans-Bold-67"/>
       <path d="M 9.1875 72.90625 
L 27.984375 72.90625 
L 27.984375 0 
L 9.1875 0 
z
" id="DejaVuSans-Bold-73"/>
      </defs>
      <use xlink:href="#DejaVuSans-Bold-57"/>
      <use x="69.580078" xlink:href="#DejaVuSans-Bold-53"/>
      <use x="139.160156" xlink:href="#DejaVuSans-Bold-37"/>
      <use x="239.355469" xlink:href="#DejaVuSans-Bold-32"/>
      <use x="274.169922" xlink:href="#DejaVuSans-Bold-67"/>
      <use x="347.558594" xlink:href="#DejaVuSans-Bold-73"/>
     </g>
    </g>
    <g id="patch_6">
     <path d="M 951.109286 112.8825 
L 983.109286 112.8825 
L 983.109286 101.6825 
L 951.109286 101.6825 
z
" style="fill:#c8c8c8;stroke:#c8c8c8;stroke-linejoin:miter;"/>
    </g>
    <g id="text_15">
     <!-- 65% CI -->
     <g style="fill:#555555;" transform="translate(995.909286 112.8825)scale(0.16 -0.16)">
      <defs>
       <path d="M 36.1875 35.984375 
Q 31.25 35.984375 28.78125 32.78125 
Q 26.3125 29.59375 26.3125 23.1875 
Q 26.3125 16.796875 28.78125 13.59375 
Q 31.25 10.40625 36.1875 10.40625 
Q 41.15625 10.40625 43.625 13.59375 
Q 46.09375 16.796875 46.09375 23.1875 
Q 46.09375 29.59375 43.625 32.78125 
Q 41.15625 35.984375 36.1875 35.984375 
z
M 59.421875 71 
L 59.421875 57.515625 
Q 54.78125 59.71875 50.671875 60.765625 
Q 46.578125 61.8125 42.671875 61.8125 
Q 34.28125 61.8125 29.59375 57.140625 
Q 24.90625 52.484375 24.125 43.3125 
Q 27.34375 45.703125 31.09375 46.890625 
Q 34.859375 48.09375 39.3125 48.09375 
Q 50.484375 48.09375 57.34375 41.546875 
Q 64.203125 35.015625 64.203125 24.421875 
Q 64.203125 12.703125 56.53125 5.640625 
Q 48.875 -1.421875 35.984375 -1.421875 
Q 21.78125 -1.421875 13.984375 8.171875 
Q 6.203125 17.78125 6.203125 35.40625 
Q 6.203125 53.46875 15.3125 63.796875 
Q 24.421875 74.125 40.28125 74.125 
Q 45.3125 74.125 50.046875 73.34375 
Q 54.78125 72.5625 59.421875 71 
z
" id="DejaVuSans-Bold-54"/>
      </defs>
      <use xlink:href="#DejaVuSans-Bold-54"/>
      <use x="69.580078" xlink:href="#DejaVuSans-Bold-53"/>
      <use x="139.160156" xlink:href="#DejaVuSans-Bold-37"/>
      <use x="239.355469" xlink:href="#DejaVuSans-Bold-32"/>
      <use x="274.169922" xlink:href="#DejaVuSans-Bold-67"/>
      <use x="347.558594" xlink:href="#DejaVuSans-Bold-73"/>
     </g>
    </g>
   </g>
  </g>
 </g>
 <defs>
  <clipPath id="p8b8bde6b69">
   <rect height="502.12" width="1085.027286" x="51.842" y="39.16"/>
  </clipPath>
 </defs>
</svg>
