<?xml version="1.0" encoding="utf-8" standalone="no"?>
<!DOCTYPE svg PUBLIC "-//W3C//DTD SVG 1.1//EN"
  "http://www.w3.org/Graphics/SVG/1.1/DTD/svg11.dtd">
<!-- Created with matplotlib (https://matplotlib.org/) -->
<svg height="576pt" version="1.1" viewBox="0 0 1152 576" width="1152pt" xmlns="http://www.w3.org/2000/svg" xmlns:xlink="http://www.w3.org/1999/xlink">
 <metadata>
  <rdf:RDF xmlns:cc="http://creativecommons.org/ns#" xmlns:dc="http://purl.org/dc/elements/1.1/" xmlns:rdf="http://www.w3.org/1999/02/22-rdf-syntax-ns#">
   <cc:Work>
    <dc:type rdf:resource="http://purl.org/dc/dcmitype/StillImage"/>
    <dc:date>2020-09-29T17:18:08.594150</dc:date>
    <dc:format>image/svg+xml</dc:format>
    <dc:creator>
     <cc:Agent>
      <dc:title>Matplotlib v3.3.2, https://matplotlib.org/</dc:title>
     </cc:Agent>
    </dc:creator>
   </cc:Work>
  </rdf:RDF>
 </metadata>
 <defs>
  <style type="text/css">*{stroke-linecap:butt;stroke-linejoin:round;}</style>
 </defs>
 <g id="figure_1">
  <g id="patch_1">
   <path d="M 0 576 
L 1152 576 
L 1152 0 
L 0 0 
z
" style="fill:#ffffff;"/>
  </g>
  <g id="axes_1">
   <g id="patch_2">
    <path d="M 51.842 541.28 
L 1137.96 541.28 
L 1137.96 39.16 
L 51.842 39.16 
z
" style="fill:#ffffff;"/>
   </g>
   <g id="PolyCollection_1">
    <path clip-path="url(#p0a41a44bd3)" d="M 51.842 -555.28529 
L 51.842 439.236258 
L 57.063721 413.320387 
L 62.285442 384.165032 
L 67.507163 356.629419 
L 72.728885 324.234581 
L 77.950606 301.558194 
L 83.172327 285.360774 
L 88.394048 270.783097 
L 93.615769 259.444903 
L 98.83749 251.346194 
L 104.059212 244.867226 
L 109.280933 240.008 
L 114.502654 235.148774 
L 119.724375 233.529032 
L 124.946096 236.768516 
L 130.167817 243.247484 
L 135.389538 252.965935 
L 140.61126 261.064645 
L 145.832981 267.543613 
L 151.054702 274.022581 
L 156.276423 280.501548 
L 161.498144 293.459484 
L 166.719865 312.896387 
L 171.941587 337.192516 
L 177.163308 361.488645 
L 182.385029 382.54529 
L 187.60675 395.503226 
L 192.828471 401.982194 
L 198.050192 403.601935 
L 203.271913 405.221677 
L 208.493635 405.221677 
L 213.715356 405.221677 
L 218.937077 401.982194 
L 224.158798 395.503226 
L 229.380519 387.404516 
L 234.60224 382.54529 
L 239.823962 384.165032 
L 245.045683 395.503226 
L 250.267404 410.080903 
L 255.489125 423.038839 
L 260.710846 429.517806 
L 265.932567 429.517806 
L 271.154288 424.658581 
L 276.37601 421.419097 
L 281.597731 424.658581 
L 286.819452 432.75729 
L 292.041173 445.715226 
L 297.262894 455.433677 
L 302.484615 465.152129 
L 307.706337 471.631097 
L 312.928058 481.349548 
L 318.149779 491.068 
L 323.3715 504.025935 
L 328.593221 512.124645 
L 333.814942 515.364129 
L 339.036663 512.124645 
L 344.258385 504.025935 
L 349.480106 497.546968 
L 354.701827 494.307484 
L 359.923548 492.687742 
L 365.145269 492.687742 
L 370.36699 489.448258 
L 375.588712 484.589032 
L 380.810433 479.729806 
L 386.032154 479.729806 
L 391.253875 482.96929 
L 396.475596 487.828516 
L 401.697317 492.687742 
L 406.919038 494.307484 
L 412.14076 494.307484 
L 417.362481 494.307484 
L 422.584202 495.927226 
L 427.805923 497.546968 
L 433.027644 495.927226 
L 438.249365 491.068 
L 443.471087 481.349548 
L 448.692808 470.011355 
L 453.914529 458.673161 
L 459.13625 450.574452 
L 464.357971 447.334968 
L 469.579692 447.334968 
L 474.801413 448.95471 
L 480.023135 452.194194 
L 485.244856 453.813935 
L 490.466577 457.053419 
L 495.688298 460.292903 
L 500.910019 466.771871 
L 506.13174 470.011355 
L 511.353462 470.011355 
L 516.575183 463.532387 
L 521.796904 450.574452 
L 527.018625 437.616516 
L 532.240346 424.658581 
L 537.462067 416.559871 
L 542.683788 416.559871 
L 547.90551 419.799355 
L 553.127231 424.658581 
L 558.348952 431.137548 
L 563.570673 435.996774 
L 568.792394 440.856 
L 574.014115 447.334968 
L 579.235837 455.433677 
L 584.457558 463.532387 
L 589.679279 474.870581 
L 594.901 484.589032 
L 600.122721 494.307484 
L 605.344442 504.025935 
L 610.566163 510.504903 
L 615.787885 512.124645 
L 621.009606 512.124645 
L 626.231327 508.885161 
L 631.453048 504.025935 
L 636.674769 500.786452 
L 641.89649 499.16671 
L 647.118212 499.16671 
L 652.339933 499.16671 
L 657.561654 500.786452 
L 662.783375 500.786452 
L 668.005096 500.786452 
L 673.226817 499.16671 
L 678.448538 499.16671 
L 683.67026 502.406194 
L 688.891981 504.025935 
L 694.113702 507.265419 
L 699.335423 505.645677 
L 704.557144 502.406194 
L 709.778865 492.687742 
L 715.000587 479.729806 
L 720.222308 466.771871 
L 725.444029 453.813935 
L 730.66575 442.475742 
L 735.887471 431.137548 
L 741.109192 418.179613 
L 746.330913 405.221677 
L 751.552635 390.644 
L 756.774356 379.305806 
L 761.996077 371.207097 
L 767.217798 367.967613 
L 772.439519 367.967613 
L 777.66124 372.826839 
L 782.882962 376.066323 
L 788.104683 379.305806 
L 793.326404 379.305806 
L 798.548125 372.826839 
L 803.769846 363.108387 
L 808.991567 351.770194 
L 814.213288 340.432 
L 819.43501 332.33329 
L 824.656731 327.474065 
L 829.878452 327.474065 
L 835.100173 330.713548 
L 840.321894 333.953032 
L 845.543615 338.812258 
L 850.765337 342.051742 
L 855.987058 345.291226 
L 861.208779 346.910968 
L 866.4305 348.53071 
L 871.652221 351.770194 
L 876.873942 358.249161 
L 882.095663 366.347871 
L 887.317385 379.305806 
L 892.539106 395.503226 
L 897.760827 411.700645 
L 902.982548 424.658581 
L 908.204269 435.996774 
L 913.42599 440.856 
L 918.647712 442.475742 
L 923.869433 440.856 
L 929.091154 437.616516 
L 934.312875 434.377032 
L 939.534596 431.137548 
L 944.756317 429.517806 
L 949.978038 426.278323 
L 955.19976 424.658581 
L 960.421481 421.419097 
L 965.643202 419.799355 
L 970.864923 418.179613 
L 976.086644 413.320387 
L 981.308365 406.841419 
L 986.530087 397.122968 
L 991.751808 387.404516 
L 996.973529 374.446581 
L 1002.19525 363.108387 
L 1007.416971 353.389935 
L 1012.638692 345.291226 
L 1017.860413 338.812258 
L 1023.082135 335.572774 
L 1028.303856 335.572774 
L 1033.525577 335.572774 
L 1038.747298 338.812258 
L 1043.969019 340.432 
L 1049.19074 340.432 
L 1054.412462 338.812258 
L 1059.634183 333.953032 
L 1064.855904 329.093806 
L 1070.077625 324.234581 
L 1075.299346 320.995097 
L 1080.521067 322.614839 
L 1085.742788 325.854323 
L 1090.96451 329.093806 
L 1096.186231 332.33329 
L 1101.407952 333.953032 
L 1106.629673 333.953032 
L 1111.851394 337.192516 
L 1117.073115 340.432 
L 1122.294837 346.910968 
L 1127.516558 353.389935 
L 1132.738279 358.249161 
L 1137.96 363.108387 
L 1137.96 303.177935 
L 1137.96 303.177935 
L 1132.738279 298.31871 
L 1127.516558 291.839742 
L 1122.294837 285.360774 
L 1117.073115 277.262065 
L 1111.851394 272.402839 
L 1106.629673 269.163355 
L 1101.407952 267.543613 
L 1096.186231 264.304129 
L 1090.96451 261.064645 
L 1085.742788 254.585677 
L 1080.521067 251.346194 
L 1075.299346 248.10671 
L 1070.077625 248.10671 
L 1064.855904 251.346194 
L 1059.634183 254.585677 
L 1054.412462 257.825161 
L 1049.19074 259.444903 
L 1043.969019 256.205419 
L 1038.747298 252.965935 
L 1033.525577 249.726452 
L 1028.303856 246.486968 
L 1023.082135 246.486968 
L 1017.860413 246.486968 
L 1012.638692 251.346194 
L 1007.416971 256.205419 
L 1002.19525 264.304129 
L 996.973529 274.022581 
L 991.751808 285.360774 
L 986.530087 295.079226 
L 981.308365 303.177935 
L 976.086644 309.656903 
L 970.864923 314.516129 
L 965.643202 316.135871 
L 960.421481 317.755613 
L 955.19976 320.995097 
L 949.978038 322.614839 
L 944.756317 325.854323 
L 939.534596 327.474065 
L 934.312875 330.713548 
L 929.091154 333.953032 
L 923.869433 337.192516 
L 918.647712 340.432 
L 913.42599 340.432 
L 908.204269 335.572774 
L 902.982548 325.854323 
L 897.760827 312.896387 
L 892.539106 296.698968 
L 887.317385 282.12129 
L 882.095663 267.543613 
L 876.873942 257.825161 
L 871.652221 251.346194 
L 866.4305 246.486968 
L 861.208779 241.627742 
L 855.987058 238.388258 
L 850.765337 233.529032 
L 845.543615 227.050065 
L 840.321894 220.571097 
L 835.100173 214.092129 
L 829.878452 207.613161 
L 824.656731 205.993419 
L 819.43501 205.993419 
L 814.213288 210.852645 
L 808.991567 217.331613 
L 803.769846 227.050065 
L 798.548125 233.529032 
L 793.326404 236.768516 
L 788.104683 235.148774 
L 782.882962 230.289548 
L 777.66124 223.810581 
L 772.439519 215.711871 
L 767.217798 210.852645 
L 761.996077 210.852645 
L 756.774356 214.092129 
L 751.552635 222.190839 
L 746.330913 230.289548 
L 741.109192 240.008 
L 735.887471 249.726452 
L 730.66575 257.825161 
L 725.444029 267.543613 
L 720.222308 278.881806 
L 715.000587 291.839742 
L 709.778865 306.417419 
L 704.557144 316.135871 
L 699.335423 324.234581 
L 694.113702 325.854323 
L 688.891981 324.234581 
L 683.67026 322.614839 
L 678.448538 320.995097 
L 673.226817 322.614839 
L 668.005096 324.234581 
L 662.783375 327.474065 
L 657.561654 327.474065 
L 652.339933 327.474065 
L 647.118212 327.474065 
L 641.89649 329.093806 
L 636.674769 333.953032 
L 631.453048 340.432 
L 626.231327 348.53071 
L 621.009606 355.009677 
L 615.787885 359.868903 
L 610.566163 358.249161 
L 605.344442 355.009677 
L 600.122721 348.53071 
L 594.901 340.432 
L 589.679279 330.713548 
L 584.457558 322.614839 
L 579.235837 314.516129 
L 574.014115 308.037161 
L 568.792394 301.558194 
L 563.570673 296.698968 
L 558.348952 291.839742 
L 553.127231 285.360774 
L 547.90551 278.881806 
L 542.683788 274.022581 
L 537.462067 274.022581 
L 532.240346 280.501548 
L 527.018625 291.839742 
L 521.796904 304.797677 
L 516.575183 317.755613 
L 511.353462 324.234581 
L 506.13174 327.474065 
L 500.910019 324.234581 
L 495.688298 320.995097 
L 490.466577 316.135871 
L 485.244856 314.516129 
L 480.023135 312.896387 
L 474.801413 311.276645 
L 469.579692 309.656903 
L 464.357971 308.037161 
L 459.13625 311.276645 
L 453.914529 317.755613 
L 448.692808 329.093806 
L 443.471087 342.051742 
L 438.249365 353.389935 
L 433.027644 359.868903 
L 427.805923 363.108387 
L 422.584202 363.108387 
L 417.362481 363.108387 
L 412.14076 364.728129 
L 406.919038 367.967613 
L 401.697317 367.967613 
L 396.475596 364.728129 
L 391.253875 359.868903 
L 386.032154 358.249161 
L 380.810433 359.868903 
L 375.588712 366.347871 
L 370.36699 371.207097 
L 365.145269 376.066323 
L 359.923548 379.305806 
L 354.701827 382.54529 
L 349.480106 389.024258 
L 344.258385 400.362452 
L 339.036663 413.320387 
L 333.814942 421.419097 
L 328.593221 419.799355 
L 323.3715 411.700645 
L 318.149779 400.362452 
L 312.928058 389.024258 
L 307.706337 380.925548 
L 302.484615 374.446581 
L 297.262894 367.967613 
L 292.041173 358.249161 
L 286.819452 346.910968 
L 281.597731 338.812258 
L 276.37601 335.572774 
L 271.154288 338.812258 
L 265.932567 343.671484 
L 260.710846 345.291226 
L 255.489125 340.432 
L 250.267404 327.474065 
L 245.045683 312.896387 
L 239.823962 303.177935 
L 234.60224 299.938452 
L 229.380519 303.177935 
L 224.158798 311.276645 
L 218.937077 316.135871 
L 213.715356 319.375355 
L 208.493635 319.375355 
L 203.271913 319.375355 
L 198.050192 319.375355 
L 192.828471 317.755613 
L 187.60675 311.276645 
L 182.385029 296.698968 
L 177.163308 277.262065 
L 171.941587 251.346194 
L 166.719865 225.430323 
L 161.498144 204.373677 
L 156.276423 189.796 
L 151.054702 178.457806 
L 145.832981 168.739355 
L 140.61126 159.020903 
L 135.389538 146.062968 
L 130.167817 131.48529 
L 124.946096 118.527355 
L 119.724375 108.808903 
L 114.502654 100.710194 
L 109.280933 94.231226 
L 104.059212 89.372 
L 98.83749 81.27329 
L 93.615769 73.174581 
L 88.394048 63.456129 
L 83.172327 52.117935 
L 77.950606 32.681032 
L 72.728885 0.286194 
L 67.507163 -122.814194 
L 62.285442 -242.675097 
L 57.063721 -391.691355 
L 51.842 -555.28529 
z
" style="fill:#e6e6e6;stroke:#e6e6e6;"/>
   </g>
   <g id="PolyCollection_2">
    <path clip-path="url(#p0a41a44bd3)" d="M 51.842 -263.731742 
L 51.842 348.53071 
L 57.063721 316.135871 
L 62.285442 286.980516 
L 67.507163 264.304129 
L 72.728885 240.008 
L 77.950606 231.90929 
L 83.172327 225.430323 
L 88.394048 217.331613 
L 93.615769 210.852645 
L 98.83749 207.613161 
L 104.059212 204.373677 
L 109.280933 202.753935 
L 114.502654 202.753935 
L 119.724375 204.373677 
L 124.946096 209.232903 
L 130.167817 217.331613 
L 135.389538 225.430323 
L 140.61126 235.148774 
L 145.832981 243.247484 
L 151.054702 249.726452 
L 156.276423 257.825161 
L 161.498144 270.783097 
L 166.719865 290.22 
L 171.941587 314.516129 
L 177.163308 340.432 
L 182.385029 359.868903 
L 187.60675 372.826839 
L 192.828471 379.305806 
L 198.050192 380.925548 
L 203.271913 380.925548 
L 208.493635 382.54529 
L 213.715356 382.54529 
L 218.937077 379.305806 
L 224.158798 372.826839 
L 229.380519 366.347871 
L 234.60224 361.488645 
L 239.823962 364.728129 
L 245.045683 374.446581 
L 250.267404 389.024258 
L 255.489125 400.362452 
L 260.710846 406.841419 
L 265.932567 405.221677 
L 271.154288 401.982194 
L 276.37601 398.74271 
L 281.597731 403.601935 
L 286.819452 413.320387 
L 292.041173 424.658581 
L 297.262894 435.996774 
L 302.484615 444.095484 
L 307.706337 450.574452 
L 312.928058 460.292903 
L 318.149779 471.631097 
L 323.3715 484.589032 
L 328.593221 494.307484 
L 333.814942 497.546968 
L 339.036663 491.068 
L 344.258385 481.349548 
L 349.480106 471.631097 
L 354.701827 466.771871 
L 359.923548 463.532387 
L 365.145269 461.912645 
L 370.36699 458.673161 
L 375.588712 453.813935 
L 380.810433 448.95471 
L 386.032154 447.334968 
L 391.253875 450.574452 
L 396.475596 455.433677 
L 401.697317 460.292903 
L 406.919038 461.912645 
L 412.14076 460.292903 
L 417.362481 460.292903 
L 422.584202 461.912645 
L 427.805923 461.912645 
L 433.027644 461.912645 
L 438.249365 457.053419 
L 443.471087 447.334968 
L 448.692808 434.377032 
L 453.914529 423.038839 
L 459.13625 416.559871 
L 464.357971 411.700645 
L 469.579692 411.700645 
L 474.801413 413.320387 
L 480.023135 414.940129 
L 485.244856 418.179613 
L 490.466577 421.419097 
L 495.688298 426.278323 
L 500.910019 431.137548 
L 506.13174 435.996774 
L 511.353462 434.377032 
L 516.575183 427.898065 
L 521.796904 414.940129 
L 527.018625 401.982194 
L 532.240346 389.024258 
L 537.462067 380.925548 
L 542.683788 379.305806 
L 547.90551 382.54529 
L 553.127231 389.024258 
L 558.348952 393.883484 
L 563.570673 398.74271 
L 568.792394 405.221677 
L 574.014115 411.700645 
L 579.235837 419.799355 
L 584.457558 427.898065 
L 589.679279 439.236258 
L 594.901 448.95471 
L 600.122721 458.673161 
L 605.344442 466.771871 
L 610.566163 473.250839 
L 615.787885 474.870581 
L 621.009606 474.870581 
L 626.231327 470.011355 
L 631.453048 463.532387 
L 636.674769 458.673161 
L 641.89649 455.433677 
L 647.118212 455.433677 
L 652.339933 455.433677 
L 657.561654 455.433677 
L 662.783375 455.433677 
L 668.005096 453.813935 
L 673.226817 452.194194 
L 678.448538 452.194194 
L 683.67026 453.813935 
L 688.891981 457.053419 
L 694.113702 458.673161 
L 699.335423 457.053419 
L 704.557144 452.194194 
L 709.778865 442.475742 
L 715.000587 429.517806 
L 720.222308 418.179613 
L 725.444029 405.221677 
L 730.66575 395.503226 
L 735.887471 385.784774 
L 741.109192 374.446581 
L 746.330913 361.488645 
L 751.552635 348.53071 
L 756.774356 337.192516 
L 761.996077 330.713548 
L 767.217798 327.474065 
L 772.439519 330.713548 
L 777.66124 335.572774 
L 782.882962 340.432 
L 788.104683 343.671484 
L 793.326404 343.671484 
L 798.548125 338.812258 
L 803.769846 330.713548 
L 808.991567 319.375355 
L 814.213288 309.656903 
L 819.43501 301.558194 
L 824.656731 296.698968 
L 829.878452 296.698968 
L 835.100173 299.938452 
L 840.321894 304.797677 
L 845.543615 309.656903 
L 850.765337 314.516129 
L 855.987058 319.375355 
L 861.208779 322.614839 
L 866.4305 325.854323 
L 871.652221 329.093806 
L 876.873942 335.572774 
L 882.095663 343.671484 
L 887.317385 355.009677 
L 892.539106 371.207097 
L 897.760827 385.784774 
L 902.982548 400.362452 
L 908.204269 410.080903 
L 913.42599 416.559871 
L 918.647712 416.559871 
L 923.869433 414.940129 
L 929.091154 413.320387 
L 934.312875 410.080903 
L 939.534596 406.841419 
L 944.756317 405.221677 
L 949.978038 401.982194 
L 955.19976 400.362452 
L 960.421481 398.74271 
L 965.643202 395.503226 
L 970.864923 393.883484 
L 976.086644 389.024258 
L 981.308365 382.54529 
L 986.530087 372.826839 
L 991.751808 361.488645 
L 996.973529 350.150452 
L 1002.19525 337.192516 
L 1007.416971 329.093806 
L 1012.638692 320.995097 
L 1017.860413 316.135871 
L 1023.082135 314.516129 
L 1028.303856 314.516129 
L 1033.525577 316.135871 
L 1038.747298 317.755613 
L 1043.969019 320.995097 
L 1049.19074 320.995097 
L 1054.412462 319.375355 
L 1059.634183 314.516129 
L 1064.855904 308.037161 
L 1070.077625 304.797677 
L 1075.299346 303.177935 
L 1080.521067 304.797677 
L 1085.742788 309.656903 
L 1090.96451 312.896387 
L 1096.186231 316.135871 
L 1101.407952 317.755613 
L 1106.629673 319.375355 
L 1111.851394 320.995097 
L 1117.073115 325.854323 
L 1122.294837 330.713548 
L 1127.516558 337.192516 
L 1132.738279 343.671484 
L 1137.96 348.53071 
L 1137.96 319.375355 
L 1137.96 319.375355 
L 1132.738279 314.516129 
L 1127.516558 308.037161 
L 1122.294837 301.558194 
L 1117.073115 295.079226 
L 1111.851394 290.22 
L 1106.629673 286.980516 
L 1101.407952 285.360774 
L 1096.186231 283.741032 
L 1090.96451 280.501548 
L 1085.742788 275.642323 
L 1080.521067 270.783097 
L 1075.299346 267.543613 
L 1070.077625 267.543613 
L 1064.855904 270.783097 
L 1059.634183 275.642323 
L 1054.412462 280.501548 
L 1049.19074 282.12129 
L 1043.969019 280.501548 
L 1038.747298 277.262065 
L 1033.525577 274.022581 
L 1028.303856 270.783097 
L 1023.082135 270.783097 
L 1017.860413 272.402839 
L 1012.638692 275.642323 
L 1007.416971 282.12129 
L 1002.19525 290.22 
L 996.973529 301.558194 
L 991.751808 312.896387 
L 986.530087 324.234581 
L 981.308365 332.33329 
L 976.086644 338.812258 
L 970.864923 343.671484 
L 965.643202 345.291226 
L 960.421481 348.53071 
L 955.19976 350.150452 
L 949.978038 351.770194 
L 944.756317 355.009677 
L 939.534596 356.629419 
L 934.312875 359.868903 
L 929.091154 363.108387 
L 923.869433 366.347871 
L 918.647712 367.967613 
L 913.42599 367.967613 
L 908.204269 361.488645 
L 902.982548 351.770194 
L 897.760827 338.812258 
L 892.539106 322.614839 
L 887.317385 308.037161 
L 882.095663 295.079226 
L 876.873942 286.980516 
L 871.652221 280.501548 
L 866.4305 275.642323 
L 861.208779 272.402839 
L 855.987058 267.543613 
L 850.765337 262.684387 
L 845.543615 256.205419 
L 840.321894 249.726452 
L 835.100173 244.867226 
L 829.878452 240.008 
L 824.656731 238.388258 
L 819.43501 240.008 
L 814.213288 246.486968 
L 808.991567 254.585677 
L 803.769846 264.304129 
L 798.548125 272.402839 
L 793.326404 275.642323 
L 788.104683 275.642323 
L 782.882962 270.783097 
L 777.66124 264.304129 
L 772.439519 257.825161 
L 767.217798 252.965935 
L 761.996077 252.965935 
L 756.774356 257.825161 
L 751.552635 267.543613 
L 746.330913 277.262065 
L 741.109192 288.600258 
L 735.887471 298.31871 
L 730.66575 308.037161 
L 725.444029 316.135871 
L 720.222308 327.474065 
L 715.000587 340.432 
L 709.778865 351.770194 
L 704.557144 363.108387 
L 699.335423 367.967613 
L 694.113702 371.207097 
L 688.891981 369.587355 
L 683.67026 367.967613 
L 678.448538 366.347871 
L 673.226817 366.347871 
L 668.005096 367.967613 
L 662.783375 371.207097 
L 657.561654 372.826839 
L 652.339933 372.826839 
L 647.118212 372.826839 
L 641.89649 374.446581 
L 636.674769 377.686065 
L 631.453048 384.165032 
L 626.231327 390.644 
L 621.009606 397.122968 
L 615.787885 398.74271 
L 610.566163 398.74271 
L 605.344442 393.883484 
L 600.122721 387.404516 
L 594.901 379.305806 
L 589.679279 369.587355 
L 584.457558 359.868903 
L 579.235837 351.770194 
L 574.014115 343.671484 
L 568.792394 337.192516 
L 563.570673 332.33329 
L 558.348952 327.474065 
L 553.127231 320.995097 
L 547.90551 316.135871 
L 542.683788 311.276645 
L 537.462067 312.896387 
L 532.240346 319.375355 
L 527.018625 330.713548 
L 521.796904 345.291226 
L 516.575183 358.249161 
L 511.353462 364.728129 
L 506.13174 366.347871 
L 500.910019 363.108387 
L 495.688298 358.249161 
L 490.466577 353.389935 
L 485.244856 351.770194 
L 480.023135 348.53071 
L 474.801413 346.910968 
L 469.579692 345.291226 
L 464.357971 345.291226 
L 459.13625 348.53071 
L 453.914529 356.629419 
L 448.692808 367.967613 
L 443.471087 379.305806 
L 438.249365 390.644 
L 433.027644 395.503226 
L 427.805923 397.122968 
L 422.584202 397.122968 
L 417.362481 398.74271 
L 412.14076 398.74271 
L 406.919038 400.362452 
L 401.697317 400.362452 
L 396.475596 397.122968 
L 391.253875 392.263742 
L 386.032154 389.024258 
L 380.810433 390.644 
L 375.588712 397.122968 
L 370.36699 401.982194 
L 365.145269 406.841419 
L 359.923548 408.461161 
L 354.701827 411.700645 
L 349.480106 418.179613 
L 344.258385 429.517806 
L 339.036663 440.856 
L 333.814942 448.95471 
L 328.593221 447.334968 
L 323.3715 439.236258 
L 318.149779 426.278323 
L 312.928058 414.940129 
L 307.706337 406.841419 
L 302.484615 400.362452 
L 297.262894 392.263742 
L 292.041173 382.54529 
L 286.819452 371.207097 
L 281.597731 361.488645 
L 276.37601 358.249161 
L 271.154288 361.488645 
L 265.932567 366.347871 
L 260.710846 366.347871 
L 255.489125 361.488645 
L 250.267404 348.53071 
L 245.045683 335.572774 
L 239.823962 324.234581 
L 234.60224 322.614839 
L 229.380519 325.854323 
L 224.158798 333.953032 
L 218.937077 338.812258 
L 213.715356 342.051742 
L 208.493635 342.051742 
L 203.271913 340.432 
L 198.050192 340.432 
L 192.828471 338.812258 
L 187.60675 332.33329 
L 182.385029 319.375355 
L 177.163308 299.938452 
L 171.941587 274.022581 
L 166.719865 249.726452 
L 161.498144 228.669806 
L 156.276423 214.092129 
L 151.054702 204.373677 
L 145.832981 196.274968 
L 140.61126 186.556516 
L 135.389538 175.218323 
L 130.167817 162.260387 
L 124.946096 152.541935 
L 119.724375 142.823484 
L 114.502654 137.964258 
L 109.280933 133.105032 
L 104.059212 129.865548 
L 98.83749 126.626065 
L 93.615769 121.766839 
L 88.394048 118.527355 
L 83.172327 113.668129 
L 77.950606 103.949677 
L 72.728885 84.512774 
L 67.507163 8.384903 
L 62.285442 -67.742968 
L 57.063721 -160.068258 
L 51.842 -263.731742 
z
" style="fill:#c8c8c8;stroke:#c8c8c8;"/>
   </g>
   <g id="matplotlib.axis_1">
    <g id="xtick_1">
     <g id="line2d_1">
      <defs>
       <path d="M 0 0 
L 0 3.5 
" id="mf762bf32a2" style="stroke:#555555;stroke-width:0.8;"/>
      </defs>
      <g>
       <use style="fill:#555555;stroke:#555555;stroke-width:0.8;" x="192.828471" xlink:href="#mf762bf32a2" y="541.28"/>
      </g>
     </g>
     <g id="text_1">
      <!-- April -->
      <g style="fill:#555555;" transform="translate(174.149409 558.917812)scale(0.14 -0.14)">
       <defs>
        <path d="M 53.421875 13.28125 
L 24.03125 13.28125 
L 19.390625 0 
L 0.484375 0 
L 27.484375 72.90625 
L 49.90625 72.90625 
L 76.90625 0 
L 58.015625 0 
z
M 28.71875 26.8125 
L 48.6875 26.8125 
L 38.71875 55.8125 
z
" id="DejaVuSans-Bold-65"/>
        <path d="M 25.875 7.90625 
L 25.875 -20.796875 
L 8.40625 -20.796875 
L 8.40625 54.6875 
L 25.875 54.6875 
L 25.875 46.6875 
Q 29.5 51.46875 33.890625 53.734375 
Q 38.28125 56 44 56 
Q 54.109375 56 60.59375 47.96875 
Q 67.09375 39.9375 67.09375 27.296875 
Q 67.09375 14.65625 60.59375 6.609375 
Q 54.109375 -1.421875 44 -1.421875 
Q 38.28125 -1.421875 33.890625 0.84375 
Q 29.5 3.125 25.875 7.90625 
z
M 37.5 43.3125 
Q 31.890625 43.3125 28.875 39.1875 
Q 25.875 35.0625 25.875 27.296875 
Q 25.875 19.53125 28.875 15.40625 
Q 31.890625 11.28125 37.5 11.28125 
Q 43.109375 11.28125 46.0625 15.375 
Q 49.03125 19.484375 49.03125 27.296875 
Q 49.03125 35.109375 46.0625 39.203125 
Q 43.109375 43.3125 37.5 43.3125 
z
" id="DejaVuSans-Bold-112"/>
        <path d="M 49.03125 39.796875 
Q 46.734375 40.875 44.453125 41.375 
Q 42.1875 41.890625 39.890625 41.890625 
Q 33.15625 41.890625 29.515625 37.5625 
Q 25.875 33.25 25.875 25.203125 
L 25.875 0 
L 8.40625 0 
L 8.40625 54.6875 
L 25.875 54.6875 
L 25.875 45.703125 
Q 29.25 51.078125 33.609375 53.53125 
Q 37.984375 56 44.09375 56 
Q 44.96875 56 45.984375 55.921875 
Q 47.015625 55.859375 48.96875 55.609375 
z
" id="DejaVuSans-Bold-114"/>
        <path d="M 8.40625 54.6875 
L 25.875 54.6875 
L 25.875 0 
L 8.40625 0 
z
M 8.40625 75.984375 
L 25.875 75.984375 
L 25.875 61.71875 
L 8.40625 61.71875 
z
" id="DejaVuSans-Bold-105"/>
        <path d="M 8.40625 75.984375 
L 25.875 75.984375 
L 25.875 0 
L 8.40625 0 
z
" id="DejaVuSans-Bold-108"/>
       </defs>
       <use xlink:href="#DejaVuSans-Bold-65"/>
       <use x="77.392578" xlink:href="#DejaVuSans-Bold-112"/>
       <use x="148.974609" xlink:href="#DejaVuSans-Bold-114"/>
       <use x="198.291016" xlink:href="#DejaVuSans-Bold-105"/>
       <use x="232.568359" xlink:href="#DejaVuSans-Bold-108"/>
      </g>
     </g>
    </g>
    <g id="xtick_2">
     <g id="line2d_2">
      <g>
       <use style="fill:#555555;stroke:#555555;stroke-width:0.8;" x="349.480106" xlink:href="#mf762bf32a2" y="541.28"/>
      </g>
     </g>
     <g id="text_2">
      <!-- May -->
      <g style="fill:#555555;" transform="translate(333.445731 558.808437)scale(0.14 -0.14)">
       <defs>
        <path d="M 9.1875 72.90625 
L 33.109375 72.90625 
L 49.703125 33.890625 
L 66.40625 72.90625 
L 90.28125 72.90625 
L 90.28125 0 
L 72.515625 0 
L 72.515625 53.328125 
L 55.71875 14.015625 
L 43.796875 14.015625 
L 27 53.328125 
L 27 0 
L 9.1875 0 
z
" id="DejaVuSans-Bold-77"/>
        <path d="M 32.90625 24.609375 
Q 27.4375 24.609375 24.671875 22.75 
Q 21.921875 20.90625 21.921875 17.28125 
Q 21.921875 13.96875 24.140625 12.078125 
Q 26.375 10.203125 30.328125 10.203125 
Q 35.25 10.203125 38.625 13.734375 
Q 42 17.28125 42 22.609375 
L 42 24.609375 
z
M 59.625 31.203125 
L 59.625 0 
L 42 0 
L 42 8.109375 
Q 38.484375 3.125 34.078125 0.84375 
Q 29.6875 -1.421875 23.390625 -1.421875 
Q 14.890625 -1.421875 9.59375 3.53125 
Q 4.296875 8.5 4.296875 16.40625 
Q 4.296875 26.03125 10.90625 30.515625 
Q 17.53125 35.015625 31.6875 35.015625 
L 42 35.015625 
L 42 36.375 
Q 42 40.53125 38.71875 42.453125 
Q 35.453125 44.390625 28.515625 44.390625 
Q 22.90625 44.390625 18.0625 43.265625 
Q 13.234375 42.140625 9.078125 39.890625 
L 9.078125 53.21875 
Q 14.703125 54.59375 20.359375 55.296875 
Q 26.03125 56 31.6875 56 
Q 46.484375 56 53.046875 50.171875 
Q 59.625 44.34375 59.625 31.203125 
z
" id="DejaVuSans-Bold-97"/>
        <path d="M 1.21875 54.6875 
L 18.703125 54.6875 
L 33.40625 17.578125 
L 45.90625 54.6875 
L 63.375 54.6875 
L 40.375 -5.171875 
Q 36.921875 -14.3125 32.296875 -17.9375 
Q 27.6875 -21.578125 20.125 -21.578125 
L 10.015625 -21.578125 
L 10.015625 -10.109375 
L 15.484375 -10.109375 
Q 19.921875 -10.109375 21.9375 -8.6875 
Q 23.96875 -7.28125 25.09375 -3.609375 
L 25.59375 -2.09375 
z
" id="DejaVuSans-Bold-121"/>
       </defs>
       <use xlink:href="#DejaVuSans-Bold-77"/>
       <use x="99.511719" xlink:href="#DejaVuSans-Bold-97"/>
       <use x="163.867188" xlink:href="#DejaVuSans-Bold-121"/>
      </g>
     </g>
    </g>
    <g id="xtick_3">
     <g id="line2d_3">
      <g>
       <use style="fill:#555555;stroke:#555555;stroke-width:0.8;" x="511.353462" xlink:href="#mf762bf32a2" y="541.28"/>
      </g>
     </g>
     <g id="text_3">
      <!-- June -->
      <g style="fill:#555555;" transform="translate(494.035024 558.917812)scale(0.14 -0.14)">
       <defs>
        <path d="M 9.1875 72.90625 
L 27.984375 72.90625 
L 27.984375 7.078125 
Q 27.984375 -6.546875 20.578125 -13.28125 
Q 13.1875 -20.015625 -1.8125 -20.015625 
L -5.609375 -20.015625 
L -5.609375 -5.8125 
L -2.6875 -5.8125 
Q 3.171875 -5.8125 6.171875 -2.53125 
Q 9.1875 0.734375 9.1875 7.078125 
z
" id="DejaVuSans-Bold-74"/>
        <path d="M 7.8125 21.296875 
L 7.8125 54.6875 
L 25.390625 54.6875 
L 25.390625 49.21875 
Q 25.390625 44.78125 25.34375 38.0625 
Q 25.296875 31.34375 25.296875 29.109375 
Q 25.296875 22.515625 25.640625 19.609375 
Q 25.984375 16.703125 26.8125 15.375 
Q 27.875 13.671875 29.609375 12.734375 
Q 31.34375 11.8125 33.59375 11.8125 
Q 39.0625 11.8125 42.1875 16.015625 
Q 45.3125 20.21875 45.3125 27.6875 
L 45.3125 54.6875 
L 62.796875 54.6875 
L 62.796875 0 
L 45.3125 0 
L 45.3125 7.90625 
Q 41.359375 3.125 36.9375 0.84375 
Q 32.515625 -1.421875 27.203125 -1.421875 
Q 17.71875 -1.421875 12.765625 4.390625 
Q 7.8125 10.203125 7.8125 21.296875 
z
" id="DejaVuSans-Bold-117"/>
        <path d="M 63.375 33.296875 
L 63.375 0 
L 45.796875 0 
L 45.796875 5.421875 
L 45.796875 25.484375 
Q 45.796875 32.5625 45.484375 35.25 
Q 45.171875 37.9375 44.390625 39.203125 
Q 43.359375 40.921875 41.59375 41.875 
Q 39.84375 42.828125 37.59375 42.828125 
Q 32.125 42.828125 29 38.59375 
Q 25.875 34.375 25.875 26.90625 
L 25.875 0 
L 8.40625 0 
L 8.40625 54.6875 
L 25.875 54.6875 
L 25.875 46.6875 
Q 29.828125 51.46875 34.265625 53.734375 
Q 38.71875 56 44.09375 56 
Q 53.5625 56 58.46875 50.1875 
Q 63.375 44.390625 63.375 33.296875 
z
" id="DejaVuSans-Bold-110"/>
        <path d="M 62.984375 27.484375 
L 62.984375 22.515625 
L 22.125 22.515625 
Q 22.75 16.359375 26.5625 13.28125 
Q 30.375 10.203125 37.203125 10.203125 
Q 42.71875 10.203125 48.5 11.84375 
Q 54.296875 13.484375 60.40625 16.796875 
L 60.40625 3.328125 
Q 54.203125 0.984375 48 -0.21875 
Q 41.796875 -1.421875 35.59375 -1.421875 
Q 20.75 -1.421875 12.515625 6.125 
Q 4.296875 13.671875 4.296875 27.296875 
Q 4.296875 40.671875 12.375 48.328125 
Q 20.453125 56 34.625 56 
Q 47.515625 56 55.25 48.234375 
Q 62.984375 40.484375 62.984375 27.484375 
z
M 45.015625 33.296875 
Q 45.015625 38.28125 42.109375 41.328125 
Q 39.203125 44.390625 34.515625 44.390625 
Q 29.4375 44.390625 26.265625 41.53125 
Q 23.09375 38.671875 22.3125 33.296875 
z
" id="DejaVuSans-Bold-101"/>
       </defs>
       <use xlink:href="#DejaVuSans-Bold-74"/>
       <use x="37.207031" xlink:href="#DejaVuSans-Bold-117"/>
       <use x="108.398438" xlink:href="#DejaVuSans-Bold-110"/>
       <use x="179.589844" xlink:href="#DejaVuSans-Bold-101"/>
      </g>
     </g>
    </g>
    <g id="xtick_4">
     <g id="line2d_4">
      <g>
       <use style="fill:#555555;stroke:#555555;stroke-width:0.8;" x="668.005096" xlink:href="#mf762bf32a2" y="541.28"/>
      </g>
     </g>
     <g id="text_4">
      <!-- July -->
      <g style="fill:#555555;" transform="translate(653.45494 558.917812)scale(0.14 -0.14)">
       <use xlink:href="#DejaVuSans-Bold-74"/>
       <use x="37.207031" xlink:href="#DejaVuSans-Bold-117"/>
       <use x="108.398438" xlink:href="#DejaVuSans-Bold-108"/>
       <use x="142.675781" xlink:href="#DejaVuSans-Bold-121"/>
      </g>
     </g>
    </g>
    <g id="xtick_5">
     <g id="line2d_5">
      <g>
       <use style="fill:#555555;stroke:#555555;stroke-width:0.8;" x="829.878452" xlink:href="#mf762bf32a2" y="541.28"/>
      </g>
     </g>
     <g id="text_5">
      <!-- August -->
      <g style="fill:#555555;" transform="translate(801.972514 558.808437)scale(0.14 -0.14)">
       <defs>
        <path d="M 45.609375 9.28125 
Q 42 4.5 37.640625 2.25 
Q 33.296875 0 27.59375 0 
Q 17.578125 0 11.03125 7.875 
Q 4.5 15.765625 4.5 27.984375 
Q 4.5 40.234375 11.03125 48.0625 
Q 17.578125 55.90625 27.59375 55.90625 
Q 33.296875 55.90625 37.640625 53.65625 
Q 42 51.421875 45.609375 46.578125 
L 45.609375 54.6875 
L 63.1875 54.6875 
L 63.1875 5.515625 
Q 63.1875 -7.671875 54.859375 -14.625 
Q 46.53125 -21.578125 30.71875 -21.578125 
Q 25.59375 -21.578125 20.796875 -20.796875 
Q 16.015625 -20.015625 11.1875 -18.40625 
L 11.1875 -4.78125 
Q 15.765625 -7.421875 20.15625 -8.71875 
Q 24.5625 -10.015625 29 -10.015625 
Q 37.59375 -10.015625 41.59375 -6.25 
Q 45.609375 -2.484375 45.609375 5.515625 
z
M 34.078125 43.3125 
Q 28.65625 43.3125 25.625 39.296875 
Q 22.609375 35.296875 22.609375 27.984375 
Q 22.609375 20.453125 25.53125 16.578125 
Q 28.46875 12.703125 34.078125 12.703125 
Q 39.546875 12.703125 42.578125 16.703125 
Q 45.609375 20.703125 45.609375 27.984375 
Q 45.609375 35.296875 42.578125 39.296875 
Q 39.546875 43.3125 34.078125 43.3125 
z
" id="DejaVuSans-Bold-103"/>
        <path d="M 51.125 52.984375 
L 51.125 39.703125 
Q 45.515625 42.046875 40.28125 43.21875 
Q 35.0625 44.390625 30.421875 44.390625 
Q 25.4375 44.390625 23.015625 43.140625 
Q 20.609375 41.890625 20.609375 39.3125 
Q 20.609375 37.203125 22.4375 36.078125 
Q 24.265625 34.96875 29 34.421875 
L 32.078125 33.984375 
Q 45.515625 32.28125 50.140625 28.375 
Q 54.78125 24.46875 54.78125 16.109375 
Q 54.78125 7.375 48.328125 2.96875 
Q 41.890625 -1.421875 29.109375 -1.421875 
Q 23.6875 -1.421875 17.890625 -0.5625 
Q 12.109375 0.296875 6 2 
L 6 15.28125 
Q 11.234375 12.75 16.71875 11.46875 
Q 22.21875 10.203125 27.875 10.203125 
Q 33.015625 10.203125 35.59375 11.609375 
Q 38.1875 13.03125 38.1875 15.828125 
Q 38.1875 18.171875 36.40625 19.3125 
Q 34.625 20.453125 29.296875 21.09375 
L 26.21875 21.484375 
Q 14.546875 22.953125 9.859375 26.90625 
Q 5.171875 30.859375 5.171875 38.921875 
Q 5.171875 47.609375 11.125 51.796875 
Q 17.09375 56 29.390625 56 
Q 34.234375 56 39.546875 55.265625 
Q 44.875 54.546875 51.125 52.984375 
z
" id="DejaVuSans-Bold-115"/>
        <path d="M 27.484375 70.21875 
L 27.484375 54.6875 
L 45.515625 54.6875 
L 45.515625 42.1875 
L 27.484375 42.1875 
L 27.484375 19 
Q 27.484375 15.1875 29 13.84375 
Q 30.515625 12.5 35.015625 12.5 
L 44 12.5 
L 44 0 
L 29 0 
Q 18.65625 0 14.328125 4.3125 
Q 10.015625 8.640625 10.015625 19 
L 10.015625 42.1875 
L 1.3125 42.1875 
L 1.3125 54.6875 
L 10.015625 54.6875 
L 10.015625 70.21875 
z
" id="DejaVuSans-Bold-116"/>
       </defs>
       <use xlink:href="#DejaVuSans-Bold-65"/>
       <use x="77.392578" xlink:href="#DejaVuSans-Bold-117"/>
       <use x="148.583984" xlink:href="#DejaVuSans-Bold-103"/>
       <use x="220.166016" xlink:href="#DejaVuSans-Bold-117"/>
       <use x="291.357422" xlink:href="#DejaVuSans-Bold-115"/>
       <use x="350.878906" xlink:href="#DejaVuSans-Bold-116"/>
      </g>
     </g>
    </g>
    <g id="xtick_6">
     <g id="line2d_6">
      <g>
       <use style="fill:#555555;stroke:#555555;stroke-width:0.8;" x="991.751808" xlink:href="#mf762bf32a2" y="541.28"/>
      </g>
     </g>
     <g id="text_6">
      <!-- September -->
      <g style="fill:#555555;" transform="translate(948.353995 558.917812)scale(0.14 -0.14)">
       <defs>
        <path d="M 59.90625 70.609375 
L 59.90625 55.171875 
Q 53.90625 57.859375 48.1875 59.21875 
Q 42.484375 60.59375 37.40625 60.59375 
Q 30.671875 60.59375 27.4375 58.734375 
Q 24.21875 56.890625 24.21875 52.984375 
Q 24.21875 50.046875 26.390625 48.40625 
Q 28.5625 46.78125 34.28125 45.609375 
L 42.28125 44 
Q 54.4375 41.546875 59.5625 36.5625 
Q 64.703125 31.59375 64.703125 22.40625 
Q 64.703125 10.359375 57.546875 4.46875 
Q 50.390625 -1.421875 35.6875 -1.421875 
Q 28.765625 -1.421875 21.78125 -0.09375 
Q 14.796875 1.21875 7.8125 3.8125 
L 7.8125 19.671875 
Q 14.796875 15.96875 21.3125 14.078125 
Q 27.828125 12.203125 33.890625 12.203125 
Q 40.046875 12.203125 43.3125 14.25 
Q 46.578125 16.3125 46.578125 20.125 
Q 46.578125 23.53125 44.359375 25.390625 
Q 42.140625 27.25 35.5 28.71875 
L 28.21875 30.328125 
Q 17.28125 32.671875 12.21875 37.796875 
Q 7.171875 42.921875 7.171875 51.609375 
Q 7.171875 62.5 14.203125 68.359375 
Q 21.234375 74.21875 34.421875 74.21875 
Q 40.4375 74.21875 46.78125 73.3125 
Q 53.125 72.40625 59.90625 70.609375 
z
" id="DejaVuSans-Bold-83"/>
        <path d="M 59.078125 45.609375 
Q 62.40625 50.6875 66.96875 53.34375 
Q 71.53125 56 77 56 
Q 86.421875 56 91.359375 50.1875 
Q 96.296875 44.390625 96.296875 33.296875 
L 96.296875 0 
L 78.71875 0 
L 78.71875 28.515625 
Q 78.765625 29.15625 78.78125 29.828125 
Q 78.8125 30.515625 78.8125 31.78125 
Q 78.8125 37.59375 77.09375 40.203125 
Q 75.390625 42.828125 71.578125 42.828125 
Q 66.609375 42.828125 63.890625 38.71875 
Q 61.1875 34.625 61.078125 26.859375 
L 61.078125 0 
L 43.5 0 
L 43.5 28.515625 
Q 43.5 37.59375 41.9375 40.203125 
Q 40.375 42.828125 36.375 42.828125 
Q 31.34375 42.828125 28.609375 38.703125 
Q 25.875 34.578125 25.875 26.90625 
L 25.875 0 
L 8.296875 0 
L 8.296875 54.6875 
L 25.875 54.6875 
L 25.875 46.6875 
Q 29.109375 51.3125 33.28125 53.65625 
Q 37.453125 56 42.484375 56 
Q 48.140625 56 52.484375 53.265625 
Q 56.84375 50.53125 59.078125 45.609375 
z
" id="DejaVuSans-Bold-109"/>
        <path d="M 37.5 11.28125 
Q 43.109375 11.28125 46.0625 15.375 
Q 49.03125 19.484375 49.03125 27.296875 
Q 49.03125 35.109375 46.0625 39.203125 
Q 43.109375 43.3125 37.5 43.3125 
Q 31.890625 43.3125 28.875 39.1875 
Q 25.875 35.0625 25.875 27.296875 
Q 25.875 19.53125 28.875 15.40625 
Q 31.890625 11.28125 37.5 11.28125 
z
M 25.875 46.6875 
Q 29.5 51.46875 33.890625 53.734375 
Q 38.28125 56 44 56 
Q 54.109375 56 60.59375 47.96875 
Q 67.09375 39.9375 67.09375 27.296875 
Q 67.09375 14.65625 60.59375 6.609375 
Q 54.109375 -1.421875 44 -1.421875 
Q 38.28125 -1.421875 33.890625 0.84375 
Q 29.5 3.125 25.875 7.90625 
L 25.875 0 
L 8.40625 0 
L 8.40625 75.984375 
L 25.875 75.984375 
z
" id="DejaVuSans-Bold-98"/>
       </defs>
       <use xlink:href="#DejaVuSans-Bold-83"/>
       <use x="72.021484" xlink:href="#DejaVuSans-Bold-101"/>
       <use x="139.84375" xlink:href="#DejaVuSans-Bold-112"/>
       <use x="211.425781" xlink:href="#DejaVuSans-Bold-116"/>
       <use x="259.228516" xlink:href="#DejaVuSans-Bold-101"/>
       <use x="327.050781" xlink:href="#DejaVuSans-Bold-109"/>
       <use x="431.25" xlink:href="#DejaVuSans-Bold-98"/>
       <use x="502.832031" xlink:href="#DejaVuSans-Bold-101"/>
       <use x="570.654297" xlink:href="#DejaVuSans-Bold-114"/>
      </g>
     </g>
    </g>
   </g>
   <g id="matplotlib.axis_2">
    <g id="ytick_1">
     <g id="line2d_7">
      <defs>
       <path d="M 0 0 
L -3.5 0 
" id="m854c730ae3" style="stroke:#555555;stroke-width:0.8;"/>
      </defs>
      <g>
       <use style="fill:#555555;stroke:#555555;stroke-width:0.8;" x="51.842" xlink:href="#m854c730ae3" y="525.082581"/>
      </g>
     </g>
     <g id="text_7">
      <!-- 0 -->
      <g style="fill:#555555;" transform="translate(35.101062 530.401487)scale(0.14 -0.14)">
       <defs>
        <path d="M 46 36.53125 
Q 46 50.203125 43.4375 55.78125 
Q 40.875 61.375 34.8125 61.375 
Q 28.765625 61.375 26.171875 55.78125 
Q 23.578125 50.203125 23.578125 36.53125 
Q 23.578125 22.703125 26.171875 17.03125 
Q 28.765625 11.375 34.8125 11.375 
Q 40.828125 11.375 43.40625 17.03125 
Q 46 22.703125 46 36.53125 
z
M 64.796875 36.375 
Q 64.796875 18.265625 56.984375 8.421875 
Q 49.171875 -1.421875 34.8125 -1.421875 
Q 20.40625 -1.421875 12.59375 8.421875 
Q 4.78125 18.265625 4.78125 36.375 
Q 4.78125 54.546875 12.59375 64.375 
Q 20.40625 74.21875 34.8125 74.21875 
Q 49.171875 74.21875 56.984375 64.375 
Q 64.796875 54.546875 64.796875 36.375 
z
" id="DejaVuSans-Bold-48"/>
       </defs>
       <use xlink:href="#DejaVuSans-Bold-48"/>
      </g>
     </g>
    </g>
    <g id="ytick_2">
     <g id="line2d_8">
      <g>
       <use style="fill:#555555;stroke:#555555;stroke-width:0.8;" x="51.842" xlink:href="#m854c730ae3" y="363.108387"/>
      </g>
     </g>
     <g id="text_8">
      <!-- 1 -->
      <g style="fill:#555555;" transform="translate(35.101062 368.427293)scale(0.14 -0.14)">
       <defs>
        <path d="M 11.71875 12.984375 
L 28.328125 12.984375 
L 28.328125 60.109375 
L 11.28125 56.59375 
L 11.28125 69.390625 
L 28.21875 72.90625 
L 46.09375 72.90625 
L 46.09375 12.984375 
L 62.703125 12.984375 
L 62.703125 0 
L 11.71875 0 
z
" id="DejaVuSans-Bold-49"/>
       </defs>
       <use xlink:href="#DejaVuSans-Bold-49"/>
      </g>
     </g>
    </g>
    <g id="ytick_3">
     <g id="line2d_9">
      <g>
       <use style="fill:#555555;stroke:#555555;stroke-width:0.8;" x="51.842" xlink:href="#m854c730ae3" y="201.134194"/>
      </g>
     </g>
     <g id="text_9">
      <!-- 2 -->
      <g style="fill:#555555;" transform="translate(35.101062 206.4531)scale(0.14 -0.14)">
       <defs>
        <path d="M 28.8125 13.8125 
L 60.890625 13.8125 
L 60.890625 0 
L 7.90625 0 
L 7.90625 13.8125 
L 34.515625 37.3125 
Q 38.09375 40.53125 39.796875 43.609375 
Q 41.5 46.6875 41.5 50 
Q 41.5 55.125 38.0625 58.25 
Q 34.625 61.375 28.90625 61.375 
Q 24.515625 61.375 19.28125 59.5 
Q 14.0625 57.625 8.109375 53.90625 
L 8.109375 69.921875 
Q 14.453125 72.015625 20.65625 73.109375 
Q 26.859375 74.21875 32.8125 74.21875 
Q 45.90625 74.21875 53.15625 68.453125 
Q 60.40625 62.703125 60.40625 52.390625 
Q 60.40625 46.4375 57.328125 41.28125 
Q 54.25 36.140625 44.390625 27.484375 
z
" id="DejaVuSans-Bold-50"/>
       </defs>
       <use xlink:href="#DejaVuSans-Bold-50"/>
      </g>
     </g>
    </g>
    <g id="ytick_4">
     <g id="line2d_10">
      <g>
       <use style="fill:#555555;stroke:#555555;stroke-width:0.8;" x="51.842" xlink:href="#m854c730ae3" y="39.16"/>
      </g>
     </g>
     <g id="text_10">
      <!-- 3 -->
      <g style="fill:#555555;" transform="translate(35.101062 44.478906)scale(0.14 -0.14)">
       <defs>
        <path d="M 46.578125 39.3125 
Q 53.953125 37.40625 57.78125 32.6875 
Q 61.625 27.984375 61.625 20.703125 
Q 61.625 9.859375 53.3125 4.21875 
Q 45.015625 -1.421875 29.109375 -1.421875 
Q 23.484375 -1.421875 17.84375 -0.515625 
Q 12.203125 0.390625 6.6875 2.203125 
L 6.6875 16.703125 
Q 11.96875 14.0625 17.15625 12.71875 
Q 22.359375 11.375 27.390625 11.375 
Q 34.859375 11.375 38.84375 13.953125 
Q 42.828125 16.546875 42.828125 21.390625 
Q 42.828125 26.375 38.75 28.9375 
Q 34.671875 31.5 26.703125 31.5 
L 19.1875 31.5 
L 19.1875 43.609375 
L 27.09375 43.609375 
Q 34.1875 43.609375 37.640625 45.828125 
Q 41.109375 48.046875 41.109375 52.59375 
Q 41.109375 56.78125 37.734375 59.078125 
Q 34.375 61.375 28.21875 61.375 
Q 23.6875 61.375 19.046875 60.34375 
Q 14.40625 59.328125 9.8125 57.328125 
L 9.8125 71.09375 
Q 15.375 72.65625 20.84375 73.4375 
Q 26.3125 74.21875 31.59375 74.21875 
Q 45.796875 74.21875 52.84375 69.546875 
Q 59.90625 64.890625 59.90625 55.515625 
Q 59.90625 49.125 56.53125 45.046875 
Q 53.171875 40.96875 46.578125 39.3125 
z
" id="DejaVuSans-Bold-51"/>
       </defs>
       <use xlink:href="#DejaVuSans-Bold-51"/>
      </g>
     </g>
    </g>
    <g id="text_11">
     <!-- $R_{t}$ -->
     <g style="fill:#555555;" transform="translate(27.773562 299.34)rotate(-90)scale(0.16 -0.16)">
      <defs>
       <path d="M 36.71875 40.578125 
Q 43.109375 40.578125 46.40625 43.546875 
Q 49.703125 46.53125 49.703125 52.296875 
Q 49.703125 55.90625 47.4375 57.59375 
Q 45.171875 59.28125 40.28125 59.28125 
L 32.515625 59.28125 
L 28.8125 40.578125 
z
M 26.3125 27.59375 
L 20.90625 0 
L 2.09375 0 
L 16.3125 72.90625 
L 44.09375 72.90625 
Q 56.109375 72.90625 62.296875 68.40625 
Q 68.5 63.921875 68.5 55.171875 
Q 68.5 46.34375 63.609375 40.625 
Q 58.734375 34.90625 50.390625 34.078125 
Q 54.203125 33.296875 56.734375 30.1875 
Q 59.28125 27.09375 61.1875 20.703125 
L 67.390625 0 
L 48.6875 0 
L 43.21875 18.109375 
Q 41.546875 23.53125 39.171875 25.5625 
Q 36.8125 27.59375 32.328125 27.59375 
z
" id="DejaVuSans-BoldOblique-82"/>
       <path d="M 35.984375 70.21875 
L 33.015625 54.6875 
L 50.875 54.6875 
L 48.390625 42.1875 
L 30.515625 42.1875 
L 26.03125 19.046875 
Q 25.828125 18.265625 25.75 17.71875 
Q 25.6875 17.1875 25.6875 16.703125 
Q 25.6875 14.453125 27.171875 13.46875 
Q 28.65625 12.5 32.171875 12.5 
L 41.21875 12.5 
L 38.71875 0 
L 24.03125 0 
Q 16.109375 0 11.953125 3.3125 
Q 7.8125 6.640625 7.8125 12.890625 
Q 7.8125 14.265625 7.953125 15.828125 
Q 8.109375 17.390625 8.40625 19 
L 12.890625 42.1875 
L 4.296875 42.1875 
L 6.6875 54.6875 
L 15.375 54.6875 
L 18.40625 70.21875 
z
" id="DejaVuSans-BoldOblique-116"/>
      </defs>
      <use transform="translate(0 0.09375)" xlink:href="#DejaVuSans-BoldOblique-82"/>
      <use transform="translate(77.001953 -16.3125)scale(0.7)" xlink:href="#DejaVuSans-BoldOblique-116"/>
     </g>
    </g>
   </g>
   <g id="line2d_11">
    <path clip-path="url(#p0a41a44bd3)" d="M 51.842 363.108387 
L 1137.96 363.108387 
" style="fill:none;stroke:#ff0000;stroke-dasharray:2,3.3;stroke-dashoffset:0;stroke-width:2;"/>
   </g>
   <g id="line2d_12">
    <path clip-path="url(#p0a41a44bd3)" d="M 51.842 257.825161 
L 57.063721 218.951355 
L 62.285442 188.176258 
L 72.728885 152.541935 
L 77.950606 159.020903 
L 83.172327 162.260387 
L 88.394048 162.260387 
L 93.615769 160.640645 
L 98.83749 162.260387 
L 104.059212 162.260387 
L 114.502654 165.499871 
L 119.724375 168.739355 
L 124.946096 175.218323 
L 130.167817 184.936774 
L 140.61126 207.613161 
L 145.832981 215.711871 
L 151.054702 222.190839 
L 156.276423 231.90929 
L 161.498144 246.486968 
L 166.719865 265.923871 
L 177.163308 314.516129 
L 182.385029 335.572774 
L 187.60675 350.150452 
L 192.828471 356.629419 
L 203.271913 359.868903 
L 213.715356 359.868903 
L 218.937077 356.629419 
L 224.158798 350.150452 
L 229.380519 342.051742 
L 234.60224 338.812258 
L 239.823962 340.432 
L 245.045683 350.150452 
L 250.267404 364.728129 
L 255.489125 377.686065 
L 260.710846 384.165032 
L 265.932567 382.54529 
L 276.37601 376.066323 
L 281.597731 379.305806 
L 286.819452 387.404516 
L 297.262894 410.080903 
L 302.484615 416.559871 
L 312.928058 432.75729 
L 323.3715 458.673161 
L 328.593221 466.771871 
L 333.814942 468.391613 
L 339.036663 461.912645 
L 344.258385 450.574452 
L 349.480106 440.856 
L 354.701827 434.377032 
L 359.923548 432.75729 
L 370.36699 426.278323 
L 380.810433 416.559871 
L 386.032154 414.940129 
L 391.253875 416.559871 
L 396.475596 421.419097 
L 401.697317 424.658581 
L 406.919038 426.278323 
L 412.14076 424.658581 
L 427.805923 424.658581 
L 433.027644 423.038839 
L 438.249365 418.179613 
L 443.471087 408.461161 
L 448.692808 395.503226 
L 453.914529 384.165032 
L 459.13625 377.686065 
L 464.357971 374.446581 
L 469.579692 374.446581 
L 480.023135 377.686065 
L 495.688298 387.404516 
L 500.910019 392.263742 
L 506.13174 395.503226 
L 511.353462 393.883484 
L 516.575183 385.784774 
L 521.796904 374.446581 
L 527.018625 359.868903 
L 532.240346 348.53071 
L 537.462067 340.432 
L 542.683788 340.432 
L 547.90551 343.671484 
L 558.348952 356.629419 
L 568.792394 366.347871 
L 574.014115 372.826839 
L 584.457558 389.024258 
L 600.122721 418.179613 
L 605.344442 424.658581 
L 610.566163 429.517806 
L 615.787885 431.137548 
L 621.009606 427.898065 
L 626.231327 423.038839 
L 631.453048 416.559871 
L 636.674769 411.700645 
L 641.89649 408.461161 
L 647.118212 406.841419 
L 652.339933 408.461161 
L 662.783375 408.461161 
L 678.448538 403.601935 
L 683.67026 405.221677 
L 688.891981 408.461161 
L 694.113702 410.080903 
L 699.335423 408.461161 
L 704.557144 401.982194 
L 709.778865 392.263742 
L 715.000587 380.925548 
L 725.444029 355.009677 
L 735.887471 335.572774 
L 746.330913 312.896387 
L 756.774356 293.459484 
L 761.996077 286.980516 
L 767.217798 285.360774 
L 772.439519 288.600258 
L 777.66124 293.459484 
L 782.882962 299.938452 
L 788.104683 303.177935 
L 793.326404 303.177935 
L 798.548125 298.31871 
L 803.769846 290.22 
L 814.213288 270.783097 
L 819.43501 264.304129 
L 824.656731 262.684387 
L 829.878452 264.304129 
L 835.100173 267.543613 
L 840.321894 272.402839 
L 845.543615 278.881806 
L 850.765337 283.741032 
L 855.987058 286.980516 
L 861.208779 291.839742 
L 866.4305 295.079226 
L 876.873942 304.797677 
L 882.095663 314.516129 
L 887.317385 327.474065 
L 892.539106 342.051742 
L 897.760827 358.249161 
L 902.982548 372.826839 
L 908.204269 382.54529 
L 913.42599 387.404516 
L 918.647712 387.404516 
L 923.869433 385.784774 
L 939.534596 376.066323 
L 944.756317 374.446581 
L 949.978038 371.207097 
L 960.421481 367.967613 
L 965.643202 364.728129 
L 970.864923 363.108387 
L 981.308365 353.389935 
L 986.530087 343.671484 
L 996.973529 320.995097 
L 1007.416971 301.558194 
L 1012.638692 295.079226 
L 1017.860413 290.22 
L 1023.082135 288.600258 
L 1028.303856 288.600258 
L 1033.525577 290.22 
L 1038.747298 293.459484 
L 1049.19074 296.698968 
L 1054.412462 295.079226 
L 1059.634183 291.839742 
L 1064.855904 286.980516 
L 1070.077625 283.741032 
L 1075.299346 282.12129 
L 1080.521067 283.741032 
L 1085.742788 288.600258 
L 1101.407952 298.31871 
L 1111.851394 301.558194 
L 1117.073115 306.417419 
L 1132.738279 325.854323 
L 1137.96 330.713548 
L 1137.96 330.713548 
" style="fill:none;stroke:#000000;stroke-linecap:square;"/>
    <defs>
     <path d="M 0 2.5 
C 0.663008 2.5 1.29895 2.236584 1.767767 1.767767 
C 2.236584 1.29895 2.5 0.663008 2.5 0 
C 2.5 -0.663008 2.236584 -1.29895 1.767767 -1.767767 
C 1.29895 -2.236584 0.663008 -2.5 0 -2.5 
C -0.663008 -2.5 -1.29895 -2.236584 -1.767767 -1.767767 
C -2.236584 -1.29895 -2.5 -0.663008 -2.5 0 
C -2.5 0.663008 -2.236584 1.29895 -1.767767 1.767767 
C -1.29895 2.236584 -0.663008 2.5 0 2.5 
z
" id="mf951022953" style="stroke:#000000;"/>
    </defs>
    <g clip-path="url(#p0a41a44bd3)">
     <use style="fill:#ffffff;stroke:#000000;" x="51.842" xlink:href="#mf951022953" y="257.825161"/>
     <use style="fill:#ffffff;stroke:#000000;" x="62.285442" xlink:href="#mf951022953" y="188.176258"/>
     <use style="fill:#ffffff;stroke:#000000;" x="72.728885" xlink:href="#mf951022953" y="152.541935"/>
     <use style="fill:#ffffff;stroke:#000000;" x="83.172327" xlink:href="#mf951022953" y="162.260387"/>
     <use style="fill:#ffffff;stroke:#000000;" x="93.615769" xlink:href="#mf951022953" y="160.640645"/>
     <use style="fill:#ffffff;stroke:#000000;" x="104.059212" xlink:href="#mf951022953" y="162.260387"/>
     <use style="fill:#ffffff;stroke:#000000;" x="114.502654" xlink:href="#mf951022953" y="165.499871"/>
     <use style="fill:#ffffff;stroke:#000000;" x="124.946096" xlink:href="#mf951022953" y="175.218323"/>
     <use style="fill:#ffffff;stroke:#000000;" x="135.389538" xlink:href="#mf951022953" y="196.274968"/>
     <use style="fill:#ffffff;stroke:#000000;" x="145.832981" xlink:href="#mf951022953" y="215.711871"/>
     <use style="fill:#ffffff;stroke:#000000;" x="156.276423" xlink:href="#mf951022953" y="231.90929"/>
     <use style="fill:#ffffff;stroke:#000000;" x="166.719865" xlink:href="#mf951022953" y="265.923871"/>
     <use style="fill:#ffffff;stroke:#000000;" x="177.163308" xlink:href="#mf951022953" y="314.516129"/>
     <use style="fill:#ffffff;stroke:#000000;" x="187.60675" xlink:href="#mf951022953" y="350.150452"/>
     <use style="fill:#ffffff;stroke:#000000;" x="198.050192" xlink:href="#mf951022953" y="358.249161"/>
     <use style="fill:#ffffff;stroke:#000000;" x="208.493635" xlink:href="#mf951022953" y="359.868903"/>
     <use style="fill:#ffffff;stroke:#000000;" x="218.937077" xlink:href="#mf951022953" y="356.629419"/>
     <use style="fill:#ffffff;stroke:#000000;" x="229.380519" xlink:href="#mf951022953" y="342.051742"/>
     <use style="fill:#ffffff;stroke:#000000;" x="239.823962" xlink:href="#mf951022953" y="340.432"/>
     <use style="fill:#ffffff;stroke:#000000;" x="250.267404" xlink:href="#mf951022953" y="364.728129"/>
     <use style="fill:#ffffff;stroke:#000000;" x="260.710846" xlink:href="#mf951022953" y="384.165032"/>
     <use style="fill:#ffffff;stroke:#000000;" x="271.154288" xlink:href="#mf951022953" y="379.305806"/>
     <use style="fill:#ffffff;stroke:#000000;" x="281.597731" xlink:href="#mf951022953" y="379.305806"/>
     <use style="fill:#ffffff;stroke:#000000;" x="292.041173" xlink:href="#mf951022953" y="398.74271"/>
     <use style="fill:#ffffff;stroke:#000000;" x="302.484615" xlink:href="#mf951022953" y="416.559871"/>
     <use style="fill:#ffffff;stroke:#000000;" x="312.928058" xlink:href="#mf951022953" y="432.75729"/>
     <use style="fill:#ffffff;stroke:#000000;" x="323.3715" xlink:href="#mf951022953" y="458.673161"/>
     <use style="fill:#ffffff;stroke:#000000;" x="333.814942" xlink:href="#mf951022953" y="468.391613"/>
     <use style="fill:#ffffff;stroke:#000000;" x="344.258385" xlink:href="#mf951022953" y="450.574452"/>
     <use style="fill:#ffffff;stroke:#000000;" x="354.701827" xlink:href="#mf951022953" y="434.377032"/>
     <use style="fill:#ffffff;stroke:#000000;" x="365.145269" xlink:href="#mf951022953" y="429.517806"/>
     <use style="fill:#ffffff;stroke:#000000;" x="375.588712" xlink:href="#mf951022953" y="421.419097"/>
     <use style="fill:#ffffff;stroke:#000000;" x="386.032154" xlink:href="#mf951022953" y="414.940129"/>
     <use style="fill:#ffffff;stroke:#000000;" x="396.475596" xlink:href="#mf951022953" y="421.419097"/>
     <use style="fill:#ffffff;stroke:#000000;" x="406.919038" xlink:href="#mf951022953" y="426.278323"/>
     <use style="fill:#ffffff;stroke:#000000;" x="417.362481" xlink:href="#mf951022953" y="424.658581"/>
     <use style="fill:#ffffff;stroke:#000000;" x="427.805923" xlink:href="#mf951022953" y="424.658581"/>
     <use style="fill:#ffffff;stroke:#000000;" x="438.249365" xlink:href="#mf951022953" y="418.179613"/>
     <use style="fill:#ffffff;stroke:#000000;" x="448.692808" xlink:href="#mf951022953" y="395.503226"/>
     <use style="fill:#ffffff;stroke:#000000;" x="459.13625" xlink:href="#mf951022953" y="377.686065"/>
     <use style="fill:#ffffff;stroke:#000000;" x="469.579692" xlink:href="#mf951022953" y="374.446581"/>
     <use style="fill:#ffffff;stroke:#000000;" x="480.023135" xlink:href="#mf951022953" y="377.686065"/>
     <use style="fill:#ffffff;stroke:#000000;" x="490.466577" xlink:href="#mf951022953" y="384.165032"/>
     <use style="fill:#ffffff;stroke:#000000;" x="500.910019" xlink:href="#mf951022953" y="392.263742"/>
     <use style="fill:#ffffff;stroke:#000000;" x="511.353462" xlink:href="#mf951022953" y="393.883484"/>
     <use style="fill:#ffffff;stroke:#000000;" x="521.796904" xlink:href="#mf951022953" y="374.446581"/>
     <use style="fill:#ffffff;stroke:#000000;" x="532.240346" xlink:href="#mf951022953" y="348.53071"/>
     <use style="fill:#ffffff;stroke:#000000;" x="542.683788" xlink:href="#mf951022953" y="340.432"/>
     <use style="fill:#ffffff;stroke:#000000;" x="553.127231" xlink:href="#mf951022953" y="350.150452"/>
     <use style="fill:#ffffff;stroke:#000000;" x="563.570673" xlink:href="#mf951022953" y="361.488645"/>
     <use style="fill:#ffffff;stroke:#000000;" x="574.014115" xlink:href="#mf951022953" y="372.826839"/>
     <use style="fill:#ffffff;stroke:#000000;" x="584.457558" xlink:href="#mf951022953" y="389.024258"/>
     <use style="fill:#ffffff;stroke:#000000;" x="594.901" xlink:href="#mf951022953" y="408.461161"/>
     <use style="fill:#ffffff;stroke:#000000;" x="605.344442" xlink:href="#mf951022953" y="424.658581"/>
     <use style="fill:#ffffff;stroke:#000000;" x="615.787885" xlink:href="#mf951022953" y="431.137548"/>
     <use style="fill:#ffffff;stroke:#000000;" x="626.231327" xlink:href="#mf951022953" y="423.038839"/>
     <use style="fill:#ffffff;stroke:#000000;" x="636.674769" xlink:href="#mf951022953" y="411.700645"/>
     <use style="fill:#ffffff;stroke:#000000;" x="647.118212" xlink:href="#mf951022953" y="406.841419"/>
     <use style="fill:#ffffff;stroke:#000000;" x="657.561654" xlink:href="#mf951022953" y="408.461161"/>
     <use style="fill:#ffffff;stroke:#000000;" x="668.005096" xlink:href="#mf951022953" y="406.841419"/>
     <use style="fill:#ffffff;stroke:#000000;" x="678.448538" xlink:href="#mf951022953" y="403.601935"/>
     <use style="fill:#ffffff;stroke:#000000;" x="688.891981" xlink:href="#mf951022953" y="408.461161"/>
     <use style="fill:#ffffff;stroke:#000000;" x="699.335423" xlink:href="#mf951022953" y="408.461161"/>
     <use style="fill:#ffffff;stroke:#000000;" x="709.778865" xlink:href="#mf951022953" y="392.263742"/>
     <use style="fill:#ffffff;stroke:#000000;" x="720.222308" xlink:href="#mf951022953" y="367.967613"/>
     <use style="fill:#ffffff;stroke:#000000;" x="730.66575" xlink:href="#mf951022953" y="345.291226"/>
     <use style="fill:#ffffff;stroke:#000000;" x="741.109192" xlink:href="#mf951022953" y="324.234581"/>
     <use style="fill:#ffffff;stroke:#000000;" x="751.552635" xlink:href="#mf951022953" y="303.177935"/>
     <use style="fill:#ffffff;stroke:#000000;" x="761.996077" xlink:href="#mf951022953" y="286.980516"/>
     <use style="fill:#ffffff;stroke:#000000;" x="772.439519" xlink:href="#mf951022953" y="288.600258"/>
     <use style="fill:#ffffff;stroke:#000000;" x="782.882962" xlink:href="#mf951022953" y="299.938452"/>
     <use style="fill:#ffffff;stroke:#000000;" x="793.326404" xlink:href="#mf951022953" y="303.177935"/>
     <use style="fill:#ffffff;stroke:#000000;" x="803.769846" xlink:href="#mf951022953" y="290.22"/>
     <use style="fill:#ffffff;stroke:#000000;" x="814.213288" xlink:href="#mf951022953" y="270.783097"/>
     <use style="fill:#ffffff;stroke:#000000;" x="824.656731" xlink:href="#mf951022953" y="262.684387"/>
     <use style="fill:#ffffff;stroke:#000000;" x="835.100173" xlink:href="#mf951022953" y="267.543613"/>
     <use style="fill:#ffffff;stroke:#000000;" x="845.543615" xlink:href="#mf951022953" y="278.881806"/>
     <use style="fill:#ffffff;stroke:#000000;" x="855.987058" xlink:href="#mf951022953" y="286.980516"/>
     <use style="fill:#ffffff;stroke:#000000;" x="866.4305" xlink:href="#mf951022953" y="295.079226"/>
     <use style="fill:#ffffff;stroke:#000000;" x="876.873942" xlink:href="#mf951022953" y="304.797677"/>
     <use style="fill:#ffffff;stroke:#000000;" x="887.317385" xlink:href="#mf951022953" y="327.474065"/>
     <use style="fill:#ffffff;stroke:#000000;" x="897.760827" xlink:href="#mf951022953" y="358.249161"/>
     <use style="fill:#ffffff;stroke:#000000;" x="908.204269" xlink:href="#mf951022953" y="382.54529"/>
     <use style="fill:#ffffff;stroke:#000000;" x="918.647712" xlink:href="#mf951022953" y="387.404516"/>
     <use style="fill:#ffffff;stroke:#000000;" x="929.091154" xlink:href="#mf951022953" y="382.54529"/>
     <use style="fill:#ffffff;stroke:#000000;" x="939.534596" xlink:href="#mf951022953" y="376.066323"/>
     <use style="fill:#ffffff;stroke:#000000;" x="949.978038" xlink:href="#mf951022953" y="371.207097"/>
     <use style="fill:#ffffff;stroke:#000000;" x="960.421481" xlink:href="#mf951022953" y="367.967613"/>
     <use style="fill:#ffffff;stroke:#000000;" x="970.864923" xlink:href="#mf951022953" y="363.108387"/>
     <use style="fill:#ffffff;stroke:#000000;" x="981.308365" xlink:href="#mf951022953" y="353.389935"/>
     <use style="fill:#ffffff;stroke:#000000;" x="991.751808" xlink:href="#mf951022953" y="332.33329"/>
     <use style="fill:#ffffff;stroke:#000000;" x="1002.19525" xlink:href="#mf951022953" y="311.276645"/>
     <use style="fill:#ffffff;stroke:#000000;" x="1012.638692" xlink:href="#mf951022953" y="295.079226"/>
     <use style="fill:#ffffff;stroke:#000000;" x="1023.082135" xlink:href="#mf951022953" y="288.600258"/>
     <use style="fill:#ffffff;stroke:#000000;" x="1033.525577" xlink:href="#mf951022953" y="290.22"/>
     <use style="fill:#ffffff;stroke:#000000;" x="1043.969019" xlink:href="#mf951022953" y="295.079226"/>
     <use style="fill:#ffffff;stroke:#000000;" x="1054.412462" xlink:href="#mf951022953" y="295.079226"/>
     <use style="fill:#ffffff;stroke:#000000;" x="1064.855904" xlink:href="#mf951022953" y="286.980516"/>
     <use style="fill:#ffffff;stroke:#000000;" x="1075.299346" xlink:href="#mf951022953" y="282.12129"/>
     <use style="fill:#ffffff;stroke:#000000;" x="1085.742788" xlink:href="#mf951022953" y="288.600258"/>
     <use style="fill:#ffffff;stroke:#000000;" x="1096.186231" xlink:href="#mf951022953" y="295.079226"/>
     <use style="fill:#ffffff;stroke:#000000;" x="1106.629673" xlink:href="#mf951022953" y="299.938452"/>
     <use style="fill:#ffffff;stroke:#000000;" x="1117.073115" xlink:href="#mf951022953" y="306.417419"/>
     <use style="fill:#ffffff;stroke:#000000;" x="1127.516558" xlink:href="#mf951022953" y="319.375355"/>
     <use style="fill:#ffffff;stroke:#000000;" x="1137.96" xlink:href="#mf951022953" y="330.713548"/>
    </g>
   </g>
   <g id="patch_3">
    <path d="M 51.842 541.28 
L 51.842 39.16 
" style="fill:none;stroke:#555555;stroke-linecap:square;stroke-linejoin:miter;"/>
   </g>
   <g id="patch_4">
    <path d="M 51.842 541.28 
L 1137.96 541.28 
" style="fill:none;stroke:#555555;stroke-linecap:square;stroke-linejoin:miter;"/>
   </g>
   <g id="text_12">
    <!-- Last updated on 29 September 2020 with $R_t = 1.2$ and 95% confidence in range $1.0 - 1.37$ -->
    <g style="fill:#555555;" transform="translate(180.181 29.16)scale(0.18 -0.18)">
     <defs>
      <path d="M 9.8125 72.90625 
L 19.671875 72.90625 
L 19.671875 8.296875 
L 55.171875 8.296875 
L 55.171875 0 
L 9.8125 0 
z
" id="DejaVuSans-76"/>
      <path d="M 34.28125 27.484375 
Q 23.390625 27.484375 19.1875 25 
Q 14.984375 22.515625 14.984375 16.5 
Q 14.984375 11.71875 18.140625 8.90625 
Q 21.296875 6.109375 26.703125 6.109375 
Q 34.1875 6.109375 38.703125 11.40625 
Q 43.21875 16.703125 43.21875 25.484375 
L 43.21875 27.484375 
z
M 52.203125 31.203125 
L 52.203125 0 
L 43.21875 0 
L 43.21875 8.296875 
Q 40.140625 3.328125 35.546875 0.953125 
Q 30.953125 -1.421875 24.3125 -1.421875 
Q 15.921875 -1.421875 10.953125 3.296875 
Q 6 8.015625 6 15.921875 
Q 6 25.140625 12.171875 29.828125 
Q 18.359375 34.515625 30.609375 34.515625 
L 43.21875 34.515625 
L 43.21875 35.40625 
Q 43.21875 41.609375 39.140625 45 
Q 35.0625 48.390625 27.6875 48.390625 
Q 23 48.390625 18.546875 47.265625 
Q 14.109375 46.140625 10.015625 43.890625 
L 10.015625 52.203125 
Q 14.9375 54.109375 19.578125 55.046875 
Q 24.21875 56 28.609375 56 
Q 40.484375 56 46.34375 49.84375 
Q 52.203125 43.703125 52.203125 31.203125 
z
" id="DejaVuSans-97"/>
      <path d="M 44.28125 53.078125 
L 44.28125 44.578125 
Q 40.484375 46.53125 36.375 47.5 
Q 32.28125 48.484375 27.875 48.484375 
Q 21.1875 48.484375 17.84375 46.4375 
Q 14.5 44.390625 14.5 40.28125 
Q 14.5 37.15625 16.890625 35.375 
Q 19.28125 33.59375 26.515625 31.984375 
L 29.59375 31.296875 
Q 39.15625 29.25 43.1875 25.515625 
Q 47.21875 21.78125 47.21875 15.09375 
Q 47.21875 7.46875 41.1875 3.015625 
Q 35.15625 -1.421875 24.609375 -1.421875 
Q 20.21875 -1.421875 15.453125 -0.5625 
Q 10.6875 0.296875 5.421875 2 
L 5.421875 11.28125 
Q 10.40625 8.6875 15.234375 7.390625 
Q 20.0625 6.109375 24.8125 6.109375 
Q 31.15625 6.109375 34.5625 8.28125 
Q 37.984375 10.453125 37.984375 14.40625 
Q 37.984375 18.0625 35.515625 20.015625 
Q 33.0625 21.96875 24.703125 23.78125 
L 21.578125 24.515625 
Q 13.234375 26.265625 9.515625 29.90625 
Q 5.8125 33.546875 5.8125 39.890625 
Q 5.8125 47.609375 11.28125 51.796875 
Q 16.75 56 26.8125 56 
Q 31.78125 56 36.171875 55.265625 
Q 40.578125 54.546875 44.28125 53.078125 
z
" id="DejaVuSans-115"/>
      <path d="M 18.3125 70.21875 
L 18.3125 54.6875 
L 36.8125 54.6875 
L 36.8125 47.703125 
L 18.3125 47.703125 
L 18.3125 18.015625 
Q 18.3125 11.328125 20.140625 9.421875 
Q 21.96875 7.515625 27.59375 7.515625 
L 36.8125 7.515625 
L 36.8125 0 
L 27.59375 0 
Q 17.1875 0 13.234375 3.875 
Q 9.28125 7.765625 9.28125 18.015625 
L 9.28125 47.703125 
L 2.6875 47.703125 
L 2.6875 54.6875 
L 9.28125 54.6875 
L 9.28125 70.21875 
z
" id="DejaVuSans-116"/>
      <path id="DejaVuSans-32"/>
      <path d="M 8.5 21.578125 
L 8.5 54.6875 
L 17.484375 54.6875 
L 17.484375 21.921875 
Q 17.484375 14.15625 20.5 10.265625 
Q 23.53125 6.390625 29.59375 6.390625 
Q 36.859375 6.390625 41.078125 11.03125 
Q 45.3125 15.671875 45.3125 23.6875 
L 45.3125 54.6875 
L 54.296875 54.6875 
L 54.296875 0 
L 45.3125 0 
L 45.3125 8.40625 
Q 42.046875 3.421875 37.71875 1 
Q 33.40625 -1.421875 27.6875 -1.421875 
Q 18.265625 -1.421875 13.375 4.4375 
Q 8.5 10.296875 8.5 21.578125 
z
M 31.109375 56 
z
" id="DejaVuSans-117"/>
      <path d="M 18.109375 8.203125 
L 18.109375 -20.796875 
L 9.078125 -20.796875 
L 9.078125 54.6875 
L 18.109375 54.6875 
L 18.109375 46.390625 
Q 20.953125 51.265625 25.265625 53.625 
Q 29.59375 56 35.59375 56 
Q 45.5625 56 51.78125 48.09375 
Q 58.015625 40.1875 58.015625 27.296875 
Q 58.015625 14.40625 51.78125 6.484375 
Q 45.5625 -1.421875 35.59375 -1.421875 
Q 29.59375 -1.421875 25.265625 0.953125 
Q 20.953125 3.328125 18.109375 8.203125 
z
M 48.6875 27.296875 
Q 48.6875 37.203125 44.609375 42.84375 
Q 40.53125 48.484375 33.40625 48.484375 
Q 26.265625 48.484375 22.1875 42.84375 
Q 18.109375 37.203125 18.109375 27.296875 
Q 18.109375 17.390625 22.1875 11.75 
Q 26.265625 6.109375 33.40625 6.109375 
Q 40.53125 6.109375 44.609375 11.75 
Q 48.6875 17.390625 48.6875 27.296875 
z
" id="DejaVuSans-112"/>
      <path d="M 45.40625 46.390625 
L 45.40625 75.984375 
L 54.390625 75.984375 
L 54.390625 0 
L 45.40625 0 
L 45.40625 8.203125 
Q 42.578125 3.328125 38.25 0.953125 
Q 33.9375 -1.421875 27.875 -1.421875 
Q 17.96875 -1.421875 11.734375 6.484375 
Q 5.515625 14.40625 5.515625 27.296875 
Q 5.515625 40.1875 11.734375 48.09375 
Q 17.96875 56 27.875 56 
Q 33.9375 56 38.25 53.625 
Q 42.578125 51.265625 45.40625 46.390625 
z
M 14.796875 27.296875 
Q 14.796875 17.390625 18.875 11.75 
Q 22.953125 6.109375 30.078125 6.109375 
Q 37.203125 6.109375 41.296875 11.75 
Q 45.40625 17.390625 45.40625 27.296875 
Q 45.40625 37.203125 41.296875 42.84375 
Q 37.203125 48.484375 30.078125 48.484375 
Q 22.953125 48.484375 18.875 42.84375 
Q 14.796875 37.203125 14.796875 27.296875 
z
" id="DejaVuSans-100"/>
      <path d="M 56.203125 29.59375 
L 56.203125 25.203125 
L 14.890625 25.203125 
Q 15.484375 15.921875 20.484375 11.0625 
Q 25.484375 6.203125 34.421875 6.203125 
Q 39.59375 6.203125 44.453125 7.46875 
Q 49.3125 8.734375 54.109375 11.28125 
L 54.109375 2.78125 
Q 49.265625 0.734375 44.1875 -0.34375 
Q 39.109375 -1.421875 33.890625 -1.421875 
Q 20.796875 -1.421875 13.15625 6.1875 
Q 5.515625 13.8125 5.515625 26.8125 
Q 5.515625 40.234375 12.765625 48.109375 
Q 20.015625 56 32.328125 56 
Q 43.359375 56 49.78125 48.890625 
Q 56.203125 41.796875 56.203125 29.59375 
z
M 47.21875 32.234375 
Q 47.125 39.59375 43.09375 43.984375 
Q 39.0625 48.390625 32.421875 48.390625 
Q 24.90625 48.390625 20.390625 44.140625 
Q 15.875 39.890625 15.1875 32.171875 
z
" id="DejaVuSans-101"/>
      <path d="M 30.609375 48.390625 
Q 23.390625 48.390625 19.1875 42.75 
Q 14.984375 37.109375 14.984375 27.296875 
Q 14.984375 17.484375 19.15625 11.84375 
Q 23.34375 6.203125 30.609375 6.203125 
Q 37.796875 6.203125 41.984375 11.859375 
Q 46.1875 17.53125 46.1875 27.296875 
Q 46.1875 37.015625 41.984375 42.703125 
Q 37.796875 48.390625 30.609375 48.390625 
z
M 30.609375 56 
Q 42.328125 56 49.015625 48.375 
Q 55.71875 40.765625 55.71875 27.296875 
Q 55.71875 13.875 49.015625 6.21875 
Q 42.328125 -1.421875 30.609375 -1.421875 
Q 18.84375 -1.421875 12.171875 6.21875 
Q 5.515625 13.875 5.515625 27.296875 
Q 5.515625 40.765625 12.171875 48.375 
Q 18.84375 56 30.609375 56 
z
" id="DejaVuSans-111"/>
      <path d="M 54.890625 33.015625 
L 54.890625 0 
L 45.90625 0 
L 45.90625 32.71875 
Q 45.90625 40.484375 42.875 44.328125 
Q 39.84375 48.1875 33.796875 48.1875 
Q 26.515625 48.1875 22.3125 43.546875 
Q 18.109375 38.921875 18.109375 30.90625 
L 18.109375 0 
L 9.078125 0 
L 9.078125 54.6875 
L 18.109375 54.6875 
L 18.109375 46.1875 
Q 21.34375 51.125 25.703125 53.5625 
Q 30.078125 56 35.796875 56 
Q 45.21875 56 50.046875 50.171875 
Q 54.890625 44.34375 54.890625 33.015625 
z
" id="DejaVuSans-110"/>
      <path d="M 19.1875 8.296875 
L 53.609375 8.296875 
L 53.609375 0 
L 7.328125 0 
L 7.328125 8.296875 
Q 12.9375 14.109375 22.625 23.890625 
Q 32.328125 33.6875 34.8125 36.53125 
Q 39.546875 41.84375 41.421875 45.53125 
Q 43.3125 49.21875 43.3125 52.78125 
Q 43.3125 58.59375 39.234375 62.25 
Q 35.15625 65.921875 28.609375 65.921875 
Q 23.96875 65.921875 18.8125 64.3125 
Q 13.671875 62.703125 7.8125 59.421875 
L 7.8125 69.390625 
Q 13.765625 71.78125 18.9375 73 
Q 24.125 74.21875 28.421875 74.21875 
Q 39.75 74.21875 46.484375 68.546875 
Q 53.21875 62.890625 53.21875 53.421875 
Q 53.21875 48.921875 51.53125 44.890625 
Q 49.859375 40.875 45.40625 35.40625 
Q 44.1875 33.984375 37.640625 27.21875 
Q 31.109375 20.453125 19.1875 8.296875 
z
" id="DejaVuSans-50"/>
      <path d="M 10.984375 1.515625 
L 10.984375 10.5 
Q 14.703125 8.734375 18.5 7.8125 
Q 22.3125 6.890625 25.984375 6.890625 
Q 35.75 6.890625 40.890625 13.453125 
Q 46.046875 20.015625 46.78125 33.40625 
Q 43.953125 29.203125 39.59375 26.953125 
Q 35.25 24.703125 29.984375 24.703125 
Q 19.046875 24.703125 12.671875 31.3125 
Q 6.296875 37.9375 6.296875 49.421875 
Q 6.296875 60.640625 12.9375 67.421875 
Q 19.578125 74.21875 30.609375 74.21875 
Q 43.265625 74.21875 49.921875 64.515625 
Q 56.59375 54.828125 56.59375 36.375 
Q 56.59375 19.140625 48.40625 8.859375 
Q 40.234375 -1.421875 26.421875 -1.421875 
Q 22.703125 -1.421875 18.890625 -0.6875 
Q 15.09375 0.046875 10.984375 1.515625 
z
M 30.609375 32.421875 
Q 37.25 32.421875 41.125 36.953125 
Q 45.015625 41.5 45.015625 49.421875 
Q 45.015625 57.28125 41.125 61.84375 
Q 37.25 66.40625 30.609375 66.40625 
Q 23.96875 66.40625 20.09375 61.84375 
Q 16.21875 57.28125 16.21875 49.421875 
Q 16.21875 41.5 20.09375 36.953125 
Q 23.96875 32.421875 30.609375 32.421875 
z
" id="DejaVuSans-57"/>
      <path d="M 53.515625 70.515625 
L 53.515625 60.890625 
Q 47.90625 63.578125 42.921875 64.890625 
Q 37.9375 66.21875 33.296875 66.21875 
Q 25.25 66.21875 20.875 63.09375 
Q 16.5 59.96875 16.5 54.203125 
Q 16.5 49.359375 19.40625 46.890625 
Q 22.3125 44.4375 30.421875 42.921875 
L 36.375 41.703125 
Q 47.40625 39.59375 52.65625 34.296875 
Q 57.90625 29 57.90625 20.125 
Q 57.90625 9.515625 50.796875 4.046875 
Q 43.703125 -1.421875 29.984375 -1.421875 
Q 24.8125 -1.421875 18.96875 -0.25 
Q 13.140625 0.921875 6.890625 3.21875 
L 6.890625 13.375 
Q 12.890625 10.015625 18.65625 8.296875 
Q 24.421875 6.59375 29.984375 6.59375 
Q 38.421875 6.59375 43.015625 9.90625 
Q 47.609375 13.234375 47.609375 19.390625 
Q 47.609375 24.75 44.3125 27.78125 
Q 41.015625 30.8125 33.5 32.328125 
L 27.484375 33.5 
Q 16.453125 35.6875 11.515625 40.375 
Q 6.59375 45.0625 6.59375 53.421875 
Q 6.59375 63.09375 13.40625 68.65625 
Q 20.21875 74.21875 32.171875 74.21875 
Q 37.3125 74.21875 42.625 73.28125 
Q 47.953125 72.359375 53.515625 70.515625 
z
" id="DejaVuSans-83"/>
      <path d="M 52 44.1875 
Q 55.375 50.25 60.0625 53.125 
Q 64.75 56 71.09375 56 
Q 79.640625 56 84.28125 50.015625 
Q 88.921875 44.046875 88.921875 33.015625 
L 88.921875 0 
L 79.890625 0 
L 79.890625 32.71875 
Q 79.890625 40.578125 77.09375 44.375 
Q 74.3125 48.1875 68.609375 48.1875 
Q 61.625 48.1875 57.5625 43.546875 
Q 53.515625 38.921875 53.515625 30.90625 
L 53.515625 0 
L 44.484375 0 
L 44.484375 32.71875 
Q 44.484375 40.625 41.703125 44.40625 
Q 38.921875 48.1875 33.109375 48.1875 
Q 26.21875 48.1875 22.15625 43.53125 
Q 18.109375 38.875 18.109375 30.90625 
L 18.109375 0 
L 9.078125 0 
L 9.078125 54.6875 
L 18.109375 54.6875 
L 18.109375 46.1875 
Q 21.1875 51.21875 25.484375 53.609375 
Q 29.78125 56 35.6875 56 
Q 41.65625 56 45.828125 52.96875 
Q 50 49.953125 52 44.1875 
z
" id="DejaVuSans-109"/>
      <path d="M 48.6875 27.296875 
Q 48.6875 37.203125 44.609375 42.84375 
Q 40.53125 48.484375 33.40625 48.484375 
Q 26.265625 48.484375 22.1875 42.84375 
Q 18.109375 37.203125 18.109375 27.296875 
Q 18.109375 17.390625 22.1875 11.75 
Q 26.265625 6.109375 33.40625 6.109375 
Q 40.53125 6.109375 44.609375 11.75 
Q 48.6875 17.390625 48.6875 27.296875 
z
M 18.109375 46.390625 
Q 20.953125 51.265625 25.265625 53.625 
Q 29.59375 56 35.59375 56 
Q 45.5625 56 51.78125 48.09375 
Q 58.015625 40.1875 58.015625 27.296875 
Q 58.015625 14.40625 51.78125 6.484375 
Q 45.5625 -1.421875 35.59375 -1.421875 
Q 29.59375 -1.421875 25.265625 0.953125 
Q 20.953125 3.328125 18.109375 8.203125 
L 18.109375 0 
L 9.078125 0 
L 9.078125 75.984375 
L 18.109375 75.984375 
z
" id="DejaVuSans-98"/>
      <path d="M 41.109375 46.296875 
Q 39.59375 47.171875 37.8125 47.578125 
Q 36.03125 48 33.890625 48 
Q 26.265625 48 22.1875 43.046875 
Q 18.109375 38.09375 18.109375 28.8125 
L 18.109375 0 
L 9.078125 0 
L 9.078125 54.6875 
L 18.109375 54.6875 
L 18.109375 46.1875 
Q 20.953125 51.171875 25.484375 53.578125 
Q 30.03125 56 36.53125 56 
Q 37.453125 56 38.578125 55.875 
Q 39.703125 55.765625 41.0625 55.515625 
z
" id="DejaVuSans-114"/>
      <path d="M 31.78125 66.40625 
Q 24.171875 66.40625 20.328125 58.90625 
Q 16.5 51.421875 16.5 36.375 
Q 16.5 21.390625 20.328125 13.890625 
Q 24.171875 6.390625 31.78125 6.390625 
Q 39.453125 6.390625 43.28125 13.890625 
Q 47.125 21.390625 47.125 36.375 
Q 47.125 51.421875 43.28125 58.90625 
Q 39.453125 66.40625 31.78125 66.40625 
z
M 31.78125 74.21875 
Q 44.046875 74.21875 50.515625 64.515625 
Q 56.984375 54.828125 56.984375 36.375 
Q 56.984375 17.96875 50.515625 8.265625 
Q 44.046875 -1.421875 31.78125 -1.421875 
Q 19.53125 -1.421875 13.0625 8.265625 
Q 6.59375 17.96875 6.59375 36.375 
Q 6.59375 54.828125 13.0625 64.515625 
Q 19.53125 74.21875 31.78125 74.21875 
z
" id="DejaVuSans-48"/>
      <path d="M 4.203125 54.6875 
L 13.1875 54.6875 
L 24.421875 12.015625 
L 35.59375 54.6875 
L 46.1875 54.6875 
L 57.421875 12.015625 
L 68.609375 54.6875 
L 77.59375 54.6875 
L 63.28125 0 
L 52.6875 0 
L 40.921875 44.828125 
L 29.109375 0 
L 18.5 0 
z
" id="DejaVuSans-119"/>
      <path d="M 9.421875 54.6875 
L 18.40625 54.6875 
L 18.40625 0 
L 9.421875 0 
z
M 9.421875 75.984375 
L 18.40625 75.984375 
L 18.40625 64.59375 
L 9.421875 64.59375 
z
" id="DejaVuSans-105"/>
      <path d="M 54.890625 33.015625 
L 54.890625 0 
L 45.90625 0 
L 45.90625 32.71875 
Q 45.90625 40.484375 42.875 44.328125 
Q 39.84375 48.1875 33.796875 48.1875 
Q 26.515625 48.1875 22.3125 43.546875 
Q 18.109375 38.921875 18.109375 30.90625 
L 18.109375 0 
L 9.078125 0 
L 9.078125 75.984375 
L 18.109375 75.984375 
L 18.109375 46.1875 
Q 21.34375 51.125 25.703125 53.5625 
Q 30.078125 56 35.796875 56 
Q 45.21875 56 50.046875 50.171875 
Q 54.890625 44.34375 54.890625 33.015625 
z
" id="DejaVuSans-104"/>
      <path d="M 10.59375 48.1875 
L 73.1875 48.1875 
L 73.1875 36.71875 
L 10.59375 36.71875 
z
M 10.59375 25.984375 
L 73.1875 25.984375 
L 73.1875 14.40625 
L 10.59375 14.40625 
z
" id="DejaVuSans-Bold-61"/>
      <path d="M 10.203125 18.890625 
L 27.78125 18.890625 
L 27.78125 0 
L 10.203125 0 
z
" id="DejaVuSans-Bold-46"/>
      <path d="M 10.796875 72.90625 
L 49.515625 72.90625 
L 49.515625 64.59375 
L 19.828125 64.59375 
L 19.828125 46.734375 
Q 21.96875 47.46875 24.109375 47.828125 
Q 26.265625 48.1875 28.421875 48.1875 
Q 40.625 48.1875 47.75 41.5 
Q 54.890625 34.8125 54.890625 23.390625 
Q 54.890625 11.625 47.5625 5.09375 
Q 40.234375 -1.421875 26.90625 -1.421875 
Q 22.3125 -1.421875 17.546875 -0.640625 
Q 12.796875 0.140625 7.71875 1.703125 
L 7.71875 11.625 
Q 12.109375 9.234375 16.796875 8.0625 
Q 21.484375 6.890625 26.703125 6.890625 
Q 35.15625 6.890625 40.078125 11.328125 
Q 45.015625 15.765625 45.015625 23.390625 
Q 45.015625 31 40.078125 35.4375 
Q 35.15625 39.890625 26.703125 39.890625 
Q 22.75 39.890625 18.8125 39.015625 
Q 14.890625 38.140625 10.796875 36.28125 
z
" id="DejaVuSans-53"/>
      <path d="M 72.703125 32.078125 
Q 68.453125 32.078125 66.03125 28.46875 
Q 63.625 24.859375 63.625 18.40625 
Q 63.625 12.0625 66.03125 8.421875 
Q 68.453125 4.78125 72.703125 4.78125 
Q 76.859375 4.78125 79.265625 8.421875 
Q 81.6875 12.0625 81.6875 18.40625 
Q 81.6875 24.8125 79.265625 28.4375 
Q 76.859375 32.078125 72.703125 32.078125 
z
M 72.703125 38.28125 
Q 80.421875 38.28125 84.953125 32.90625 
Q 89.5 27.546875 89.5 18.40625 
Q 89.5 9.28125 84.9375 3.921875 
Q 80.375 -1.421875 72.703125 -1.421875 
Q 64.890625 -1.421875 60.34375 3.921875 
Q 55.8125 9.28125 55.8125 18.40625 
Q 55.8125 27.59375 60.375 32.9375 
Q 64.9375 38.28125 72.703125 38.28125 
z
M 22.3125 68.015625 
Q 18.109375 68.015625 15.6875 64.375 
Q 13.28125 60.75 13.28125 54.390625 
Q 13.28125 47.953125 15.671875 44.328125 
Q 18.0625 40.71875 22.3125 40.71875 
Q 26.5625 40.71875 28.96875 44.328125 
Q 31.390625 47.953125 31.390625 54.390625 
Q 31.390625 60.6875 28.953125 64.34375 
Q 26.515625 68.015625 22.3125 68.015625 
z
M 66.40625 74.21875 
L 74.21875 74.21875 
L 28.609375 -1.421875 
L 20.796875 -1.421875 
z
M 22.3125 74.21875 
Q 30.03125 74.21875 34.609375 68.875 
Q 39.203125 63.53125 39.203125 54.390625 
Q 39.203125 45.171875 34.640625 39.84375 
Q 30.078125 34.515625 22.3125 34.515625 
Q 14.546875 34.515625 10.03125 39.859375 
Q 5.515625 45.21875 5.515625 54.390625 
Q 5.515625 63.484375 10.046875 68.84375 
Q 14.59375 74.21875 22.3125 74.21875 
z
" id="DejaVuSans-37"/>
      <path d="M 48.78125 52.59375 
L 48.78125 44.1875 
Q 44.96875 46.296875 41.140625 47.34375 
Q 37.3125 48.390625 33.40625 48.390625 
Q 24.65625 48.390625 19.8125 42.84375 
Q 14.984375 37.3125 14.984375 27.296875 
Q 14.984375 17.28125 19.8125 11.734375 
Q 24.65625 6.203125 33.40625 6.203125 
Q 37.3125 6.203125 41.140625 7.25 
Q 44.96875 8.296875 48.78125 10.40625 
L 48.78125 2.09375 
Q 45.015625 0.34375 40.984375 -0.53125 
Q 36.96875 -1.421875 32.421875 -1.421875 
Q 20.0625 -1.421875 12.78125 6.34375 
Q 5.515625 14.109375 5.515625 27.296875 
Q 5.515625 40.671875 12.859375 48.328125 
Q 20.21875 56 33.015625 56 
Q 37.15625 56 41.109375 55.140625 
Q 45.0625 54.296875 48.78125 52.59375 
z
" id="DejaVuSans-99"/>
      <path d="M 37.109375 75.984375 
L 37.109375 68.5 
L 28.515625 68.5 
Q 23.6875 68.5 21.796875 66.546875 
Q 19.921875 64.59375 19.921875 59.515625 
L 19.921875 54.6875 
L 34.71875 54.6875 
L 34.71875 47.703125 
L 19.921875 47.703125 
L 19.921875 0 
L 10.890625 0 
L 10.890625 47.703125 
L 2.296875 47.703125 
L 2.296875 54.6875 
L 10.890625 54.6875 
L 10.890625 58.5 
Q 10.890625 67.625 15.140625 71.796875 
Q 19.390625 75.984375 28.609375 75.984375 
z
" id="DejaVuSans-102"/>
      <path d="M 45.40625 27.984375 
Q 45.40625 37.75 41.375 43.109375 
Q 37.359375 48.484375 30.078125 48.484375 
Q 22.859375 48.484375 18.828125 43.109375 
Q 14.796875 37.75 14.796875 27.984375 
Q 14.796875 18.265625 18.828125 12.890625 
Q 22.859375 7.515625 30.078125 7.515625 
Q 37.359375 7.515625 41.375 12.890625 
Q 45.40625 18.265625 45.40625 27.984375 
z
M 54.390625 6.78125 
Q 54.390625 -7.171875 48.1875 -13.984375 
Q 42 -20.796875 29.203125 -20.796875 
Q 24.46875 -20.796875 20.265625 -20.09375 
Q 16.0625 -19.390625 12.109375 -17.921875 
L 12.109375 -9.1875 
Q 16.0625 -11.328125 19.921875 -12.34375 
Q 23.78125 -13.375 27.78125 -13.375 
Q 36.625 -13.375 41.015625 -8.765625 
Q 45.40625 -4.15625 45.40625 5.171875 
L 45.40625 9.625 
Q 42.625 4.78125 38.28125 2.390625 
Q 33.9375 0 27.875 0 
Q 17.828125 0 11.671875 7.65625 
Q 5.515625 15.328125 5.515625 27.984375 
Q 5.515625 40.671875 11.671875 48.328125 
Q 17.828125 56 27.875 56 
Q 33.9375 56 38.28125 53.609375 
Q 42.625 51.21875 45.40625 46.390625 
L 45.40625 54.6875 
L 54.390625 54.6875 
z
" id="DejaVuSans-103"/>
      <path d="M 10.59375 37.109375 
L 73.1875 37.109375 
L 73.1875 25.59375 
L 10.59375 25.59375 
z
" id="DejaVuSans-Bold-8722"/>
      <path d="M 6.6875 72.90625 
L 61.625 72.90625 
L 61.625 62.3125 
L 33.203125 0 
L 14.890625 0 
L 41.796875 59.078125 
L 6.6875 59.078125 
z
" id="DejaVuSans-Bold-55"/>
     </defs>
     <use transform="translate(0 0.015625)" xlink:href="#DejaVuSans-76"/>
     <use transform="translate(55.712891 0.015625)" xlink:href="#DejaVuSans-97"/>
     <use transform="translate(116.992188 0.015625)" xlink:href="#DejaVuSans-115"/>
     <use transform="translate(169.091797 0.015625)" xlink:href="#DejaVuSans-116"/>
     <use transform="translate(208.300781 0.015625)" xlink:href="#DejaVuSans-32"/>
     <use transform="translate(240.087891 0.015625)" xlink:href="#DejaVuSans-117"/>
     <use transform="translate(303.466797 0.015625)" xlink:href="#DejaVuSans-112"/>
     <use transform="translate(366.943359 0.015625)" xlink:href="#DejaVuSans-100"/>
     <use transform="translate(430.419922 0.015625)" xlink:href="#DejaVuSans-97"/>
     <use transform="translate(491.699219 0.015625)" xlink:href="#DejaVuSans-116"/>
     <use transform="translate(530.908203 0.015625)" xlink:href="#DejaVuSans-101"/>
     <use transform="translate(592.431641 0.015625)" xlink:href="#DejaVuSans-100"/>
     <use transform="translate(655.908203 0.015625)" xlink:href="#DejaVuSans-32"/>
     <use transform="translate(687.695312 0.015625)" xlink:href="#DejaVuSans-111"/>
     <use transform="translate(748.876953 0.015625)" xlink:href="#DejaVuSans-110"/>
     <use transform="translate(812.255859 0.015625)" xlink:href="#DejaVuSans-32"/>
     <use transform="translate(844.042969 0.015625)" xlink:href="#DejaVuSans-50"/>
     <use transform="translate(905.916016 0.015625)" xlink:href="#DejaVuSans-57"/>
     <use transform="translate(969.539062 0.015625)" xlink:href="#DejaVuSans-32"/>
     <use transform="translate(1001.326172 0.015625)" xlink:href="#DejaVuSans-83"/>
     <use transform="translate(1064.802734 0.015625)" xlink:href="#DejaVuSans-101"/>
     <use transform="translate(1126.326172 0.015625)" xlink:href="#DejaVuSans-112"/>
     <use transform="translate(1189.802734 0.015625)" xlink:href="#DejaVuSans-116"/>
     <use transform="translate(1229.011719 0.015625)" xlink:href="#DejaVuSans-101"/>
     <use transform="translate(1290.535156 0.015625)" xlink:href="#DejaVuSans-109"/>
     <use transform="translate(1387.947266 0.015625)" xlink:href="#DejaVuSans-98"/>
     <use transform="translate(1451.423828 0.015625)" xlink:href="#DejaVuSans-101"/>
     <use transform="translate(1512.947266 0.015625)" xlink:href="#DejaVuSans-114"/>
     <use transform="translate(1554.060547 0.015625)" xlink:href="#DejaVuSans-32"/>
     <use transform="translate(1585.847656 0.015625)" xlink:href="#DejaVuSans-50"/>
     <use transform="translate(1649.470703 0.015625)" xlink:href="#DejaVuSans-48"/>
     <use transform="translate(1713.09375 0.015625)" xlink:href="#DejaVuSans-50"/>
     <use transform="translate(1776.716797 0.015625)" xlink:href="#DejaVuSans-48"/>
     <use transform="translate(1840.339844 0.015625)" xlink:href="#DejaVuSans-32"/>
     <use transform="translate(1872.126953 0.015625)" xlink:href="#DejaVuSans-119"/>
     <use transform="translate(1953.914062 0.015625)" xlink:href="#DejaVuSans-105"/>
     <use transform="translate(1981.697266 0.015625)" xlink:href="#DejaVuSans-116"/>
     <use transform="translate(2020.90625 0.015625)" xlink:href="#DejaVuSans-104"/>
     <use transform="translate(2084.285156 0.015625)" xlink:href="#DejaVuSans-32"/>
     <use transform="translate(2116.072266 0.015625)" xlink:href="#DejaVuSans-BoldOblique-82"/>
     <use transform="translate(2193.074219 -16.390625)scale(0.7)" xlink:href="#DejaVuSans-BoldOblique-116"/>
     <use transform="translate(2250.110352 0.015625)" xlink:href="#DejaVuSans-Bold-61"/>
     <use transform="translate(2354.739258 0.015625)" xlink:href="#DejaVuSans-Bold-49"/>
     <use transform="translate(2424.319336 0.015625)" xlink:href="#DejaVuSans-Bold-46"/>
     <use transform="translate(2457.807617 0.015625)" xlink:href="#DejaVuSans-Bold-50"/>
     <use transform="translate(2527.387695 0.015625)" xlink:href="#DejaVuSans-32"/>
     <use transform="translate(2559.174805 0.015625)" xlink:href="#DejaVuSans-97"/>
     <use transform="translate(2620.454102 0.015625)" xlink:href="#DejaVuSans-110"/>
     <use transform="translate(2683.833008 0.015625)" xlink:href="#DejaVuSans-100"/>
     <use transform="translate(2747.30957 0.015625)" xlink:href="#DejaVuSans-32"/>
     <use transform="translate(2779.09668 0.015625)" xlink:href="#DejaVuSans-57"/>
     <use transform="translate(2842.719727 0.015625)" xlink:href="#DejaVuSans-53"/>
     <use transform="translate(2906.342773 0.015625)" xlink:href="#DejaVuSans-37"/>
     <use transform="translate(3001.362305 0.015625)" xlink:href="#DejaVuSans-32"/>
     <use transform="translate(3033.149414 0.015625)" xlink:href="#DejaVuSans-99"/>
     <use transform="translate(3088.129883 0.015625)" xlink:href="#DejaVuSans-111"/>
     <use transform="translate(3149.311523 0.015625)" xlink:href="#DejaVuSans-110"/>
     <use transform="translate(3212.69043 0.015625)" xlink:href="#DejaVuSans-102"/>
     <use transform="translate(3247.895508 0.015625)" xlink:href="#DejaVuSans-105"/>
     <use transform="translate(3275.678711 0.015625)" xlink:href="#DejaVuSans-100"/>
     <use transform="translate(3339.155273 0.015625)" xlink:href="#DejaVuSans-101"/>
     <use transform="translate(3400.678711 0.015625)" xlink:href="#DejaVuSans-110"/>
     <use transform="translate(3464.057617 0.015625)" xlink:href="#DejaVuSans-99"/>
     <use transform="translate(3519.038086 0.015625)" xlink:href="#DejaVuSans-101"/>
     <use transform="translate(3580.561523 0.015625)" xlink:href="#DejaVuSans-32"/>
     <use transform="translate(3612.348633 0.015625)" xlink:href="#DejaVuSans-105"/>
     <use transform="translate(3640.131836 0.015625)" xlink:href="#DejaVuSans-110"/>
     <use transform="translate(3703.510742 0.015625)" xlink:href="#DejaVuSans-32"/>
     <use transform="translate(3735.297852 0.015625)" xlink:href="#DejaVuSans-114"/>
     <use transform="translate(3776.411133 0.015625)" xlink:href="#DejaVuSans-97"/>
     <use transform="translate(3837.69043 0.015625)" xlink:href="#DejaVuSans-110"/>
     <use transform="translate(3901.069336 0.015625)" xlink:href="#DejaVuSans-103"/>
     <use transform="translate(3964.545898 0.015625)" xlink:href="#DejaVuSans-101"/>
     <use transform="translate(4026.069336 0.015625)" xlink:href="#DejaVuSans-32"/>
     <use transform="translate(4057.856445 0.015625)" xlink:href="#DejaVuSans-Bold-49"/>
     <use transform="translate(4127.436523 0.015625)" xlink:href="#DejaVuSans-Bold-46"/>
     <use transform="translate(4165.424805 0.015625)" xlink:href="#DejaVuSans-Bold-48"/>
     <use transform="translate(4255.844727 0.015625)" xlink:href="#DejaVuSans-Bold-8722"/>
     <use transform="translate(4360.473633 0.015625)" xlink:href="#DejaVuSans-Bold-49"/>
     <use transform="translate(4430.053711 0.015625)" xlink:href="#DejaVuSans-Bold-46"/>
     <use transform="translate(4468.041992 0.015625)" xlink:href="#DejaVuSans-Bold-51"/>
     <use transform="translate(4537.62207 0.015625)" xlink:href="#DejaVuSans-Bold-55"/>
    </g>
   </g>
   <g id="legend_1">
    <g id="line2d_13">
     <path d="M 952.2 60.12 
L 984.2 60.12 
" style="fill:none;stroke:#000000;stroke-linecap:square;"/>
    </g>
    <g id="line2d_14">
     <g>
      <use style="fill:#ffffff;stroke:#000000;" x="968.2" xlink:href="#mf951022953" y="60.12"/>
     </g>
    </g>
    <g id="text_13">
     <!-- Most Likely $R_t$ -->
     <g style="fill:#555555;" transform="translate(997 65.72)scale(0.16 -0.16)">
      <defs>
       <path d="M 34.421875 43.5 
Q 28.609375 43.5 25.5625 39.328125 
Q 22.515625 35.15625 22.515625 27.296875 
Q 22.515625 19.4375 25.5625 15.25 
Q 28.609375 11.078125 34.421875 11.078125 
Q 40.140625 11.078125 43.15625 15.25 
Q 46.1875 19.4375 46.1875 27.296875 
Q 46.1875 35.15625 43.15625 39.328125 
Q 40.140625 43.5 34.421875 43.5 
z
M 34.421875 56 
Q 48.53125 56 56.46875 48.375 
Q 64.40625 40.765625 64.40625 27.296875 
Q 64.40625 13.8125 56.46875 6.1875 
Q 48.53125 -1.421875 34.421875 -1.421875 
Q 20.265625 -1.421875 12.28125 6.1875 
Q 4.296875 13.8125 4.296875 27.296875 
Q 4.296875 40.765625 12.28125 48.375 
Q 20.265625 56 34.421875 56 
z
" id="DejaVuSans-Bold-111"/>
       <path id="DejaVuSans-Bold-32"/>
       <path d="M 9.1875 72.90625 
L 27.984375 72.90625 
L 27.984375 14.203125 
L 60.984375 14.203125 
L 60.984375 0 
L 9.1875 0 
z
" id="DejaVuSans-Bold-76"/>
       <path d="M 8.40625 75.984375 
L 25.875 75.984375 
L 25.875 34.625 
L 46 54.6875 
L 66.3125 54.6875 
L 39.59375 29.59375 
L 68.40625 0 
L 47.21875 0 
L 25.875 22.796875 
L 25.875 0 
L 8.40625 0 
z
" id="DejaVuSans-Bold-107"/>
      </defs>
      <use transform="translate(0 0.015625)" xlink:href="#DejaVuSans-Bold-77"/>
      <use transform="translate(99.511719 0.015625)" xlink:href="#DejaVuSans-Bold-111"/>
      <use transform="translate(168.212891 0.015625)" xlink:href="#DejaVuSans-Bold-115"/>
      <use transform="translate(227.734375 0.015625)" xlink:href="#DejaVuSans-Bold-116"/>
      <use transform="translate(275.537109 0.015625)" xlink:href="#DejaVuSans-Bold-32"/>
      <use transform="translate(310.351562 0.015625)" xlink:href="#DejaVuSans-Bold-76"/>
      <use transform="translate(374.072266 0.015625)" xlink:href="#DejaVuSans-Bold-105"/>
      <use transform="translate(408.349609 0.015625)" xlink:href="#DejaVuSans-Bold-107"/>
      <use transform="translate(474.853516 0.015625)" xlink:href="#DejaVuSans-Bold-101"/>
      <use transform="translate(542.675781 0.015625)" xlink:href="#DejaVuSans-Bold-108"/>
      <use transform="translate(576.953125 0.015625)" xlink:href="#DejaVuSans-Bold-121"/>
      <use transform="translate(642.138672 0.015625)" xlink:href="#DejaVuSans-Bold-32"/>
      <use transform="translate(676.953125 0.015625)" xlink:href="#DejaVuSans-BoldOblique-82"/>
      <use transform="translate(753.955078 -16.390625)scale(0.7)" xlink:href="#DejaVuSans-BoldOblique-116"/>
     </g>
    </g>
    <g id="patch_5">
     <path d="M 952.2 89.3975 
L 984.2 89.3975 
L 984.2 78.1975 
L 952.2 78.1975 
z
" style="fill:#e6e6e6;stroke:#e6e6e6;stroke-linejoin:miter;"/>
    </g>
    <g id="text_14">
     <!-- 95% CI -->
     <g style="fill:#555555;" transform="translate(997 89.3975)scale(0.16 -0.16)">
      <defs>
       <path d="M 10.015625 1.609375 
L 10.015625 15.09375 
Q 14.5 12.984375 18.59375 11.9375 
Q 22.703125 10.890625 26.703125 10.890625 
Q 35.109375 10.890625 39.796875 15.546875 
Q 44.484375 20.21875 45.3125 29.390625 
Q 42 26.953125 38.234375 25.734375 
Q 34.46875 24.515625 30.078125 24.515625 
Q 18.890625 24.515625 12.03125 31.03125 
Q 5.171875 37.546875 5.171875 48.1875 
Q 5.171875 59.96875 12.8125 67.046875 
Q 20.453125 74.125 33.296875 74.125 
Q 47.5625 74.125 55.375 64.5 
Q 63.1875 54.890625 63.1875 37.3125 
Q 63.1875 19.234375 54.046875 8.90625 
Q 44.921875 -1.421875 29 -1.421875 
Q 23.875 -1.421875 19.1875 -0.65625 
Q 14.5 0.09375 10.015625 1.609375 
z
M 33.203125 36.71875 
Q 38.140625 36.71875 40.625 39.90625 
Q 43.109375 43.109375 43.109375 49.515625 
Q 43.109375 55.859375 40.625 59.078125 
Q 38.140625 62.3125 33.203125 62.3125 
Q 28.265625 62.3125 25.78125 59.078125 
Q 23.296875 55.859375 23.296875 49.515625 
Q 23.296875 43.109375 25.78125 39.90625 
Q 28.265625 36.71875 33.203125 36.71875 
z
" id="DejaVuSans-Bold-57"/>
       <path d="M 10.59375 72.90625 
L 57.328125 72.90625 
L 57.328125 59.078125 
L 25.59375 59.078125 
L 25.59375 47.796875 
Q 27.734375 48.390625 29.90625 48.703125 
Q 32.078125 49.03125 34.421875 49.03125 
Q 47.75 49.03125 55.171875 42.359375 
Q 62.59375 35.6875 62.59375 23.78125 
Q 62.59375 11.96875 54.515625 5.265625 
Q 46.4375 -1.421875 32.078125 -1.421875 
Q 25.875 -1.421875 19.796875 -0.21875 
Q 13.71875 0.984375 7.71875 3.421875 
L 7.71875 18.21875 
Q 13.671875 14.796875 19.015625 13.078125 
Q 24.359375 11.375 29.109375 11.375 
Q 35.9375 11.375 39.859375 14.71875 
Q 43.796875 18.0625 43.796875 23.78125 
Q 43.796875 29.546875 39.859375 32.859375 
Q 35.9375 36.1875 29.109375 36.1875 
Q 25.046875 36.1875 20.453125 35.125 
Q 15.875 34.078125 10.59375 31.890625 
z
" id="DejaVuSans-Bold-53"/>
       <path d="M 77.484375 30.078125 
Q 74.03125 30.078125 72.125 27.078125 
Q 70.21875 24.078125 70.21875 18.5 
Q 70.21875 12.890625 72.09375 9.890625 
Q 73.96875 6.890625 77.484375 6.890625 
Q 81 6.890625 82.859375 9.890625 
Q 84.71875 12.890625 84.71875 18.5 
Q 84.71875 24.078125 82.828125 27.078125 
Q 80.953125 30.078125 77.484375 30.078125 
z
M 77.484375 38.28125 
Q 86.578125 38.28125 91.796875 33 
Q 97.015625 27.734375 97.015625 18.5 
Q 97.015625 9.28125 91.796875 3.921875 
Q 86.578125 -1.421875 77.484375 -1.421875 
Q 68.40625 -1.421875 63.15625 3.921875 
Q 57.90625 9.28125 57.90625 18.5 
Q 57.90625 27.6875 63.15625 32.984375 
Q 68.40625 38.28125 77.484375 38.28125 
z
M 32.71875 -1.421875 
L 21.921875 -1.421875 
L 67.484375 74.21875 
L 78.328125 74.21875 
z
M 22.703125 74.21875 
Q 31.78125 74.21875 36.984375 68.921875 
Q 42.1875 63.625 42.1875 54.390625 
Q 42.1875 45.171875 36.984375 39.84375 
Q 31.78125 34.515625 22.703125 34.515625 
Q 13.625 34.515625 8.421875 39.84375 
Q 3.21875 45.171875 3.21875 54.390625 
Q 3.21875 63.625 8.421875 68.921875 
Q 13.625 74.21875 22.703125 74.21875 
z
M 22.703125 66.015625 
Q 19.1875 66.015625 17.28125 62.984375 
Q 15.375 59.96875 15.375 54.390625 
Q 15.375 48.78125 17.28125 45.71875 
Q 19.1875 42.671875 22.703125 42.671875 
Q 26.21875 42.671875 28.09375 45.71875 
Q 29.984375 48.78125 29.984375 54.390625 
Q 29.984375 59.96875 28.078125 62.984375 
Q 26.171875 66.015625 22.703125 66.015625 
z
" id="DejaVuSans-Bold-37"/>
       <path d="M 67 4 
Q 61.8125 1.3125 56.203125 -0.046875 
Q 50.59375 -1.421875 44.484375 -1.421875 
Q 26.265625 -1.421875 15.625 8.765625 
Q 4.984375 18.953125 4.984375 36.375 
Q 4.984375 53.859375 15.625 64.03125 
Q 26.265625 74.21875 44.484375 74.21875 
Q 50.59375 74.21875 56.203125 72.84375 
Q 61.8125 71.484375 67 68.796875 
L 67 53.71875 
Q 61.765625 57.28125 56.6875 58.9375 
Q 51.609375 60.59375 46 60.59375 
Q 35.9375 60.59375 30.171875 54.140625 
Q 24.421875 47.703125 24.421875 36.375 
Q 24.421875 25.09375 30.171875 18.640625 
Q 35.9375 12.203125 46 12.203125 
Q 51.609375 12.203125 56.6875 13.859375 
Q 61.765625 15.53125 67 19.09375 
z
" id="DejaVuSans-Bold-67"/>
       <path d="M 9.1875 72.90625 
L 27.984375 72.90625 
L 27.984375 0 
L 9.1875 0 
z
" id="DejaVuSans-Bold-73"/>
      </defs>
      <use xlink:href="#DejaVuSans-Bold-57"/>
      <use x="69.580078" xlink:href="#DejaVuSans-Bold-53"/>
      <use x="139.160156" xlink:href="#DejaVuSans-Bold-37"/>
      <use x="239.355469" xlink:href="#DejaVuSans-Bold-32"/>
      <use x="274.169922" xlink:href="#DejaVuSans-Bold-67"/>
      <use x="347.558594" xlink:href="#DejaVuSans-Bold-73"/>
     </g>
    </g>
    <g id="patch_6">
     <path d="M 952.2 112.8825 
L 984.2 112.8825 
L 984.2 101.6825 
L 952.2 101.6825 
z
" style="fill:#c8c8c8;stroke:#c8c8c8;stroke-linejoin:miter;"/>
    </g>
    <g id="text_15">
     <!-- 65% CI -->
     <g style="fill:#555555;" transform="translate(997 112.8825)scale(0.16 -0.16)">
      <defs>
       <path d="M 36.1875 35.984375 
Q 31.25 35.984375 28.78125 32.78125 
Q 26.3125 29.59375 26.3125 23.1875 
Q 26.3125 16.796875 28.78125 13.59375 
Q 31.25 10.40625 36.1875 10.40625 
Q 41.15625 10.40625 43.625 13.59375 
Q 46.09375 16.796875 46.09375 23.1875 
Q 46.09375 29.59375 43.625 32.78125 
Q 41.15625 35.984375 36.1875 35.984375 
z
M 59.421875 71 
L 59.421875 57.515625 
Q 54.78125 59.71875 50.671875 60.765625 
Q 46.578125 61.8125 42.671875 61.8125 
Q 34.28125 61.8125 29.59375 57.140625 
Q 24.90625 52.484375 24.125 43.3125 
Q 27.34375 45.703125 31.09375 46.890625 
Q 34.859375 48.09375 39.3125 48.09375 
Q 50.484375 48.09375 57.34375 41.546875 
Q 64.203125 35.015625 64.203125 24.421875 
Q 64.203125 12.703125 56.53125 5.640625 
Q 48.875 -1.421875 35.984375 -1.421875 
Q 21.78125 -1.421875 13.984375 8.171875 
Q 6.203125 17.78125 6.203125 35.40625 
Q 6.203125 53.46875 15.3125 63.796875 
Q 24.421875 74.125 40.28125 74.125 
Q 45.3125 74.125 50.046875 73.34375 
Q 54.78125 72.5625 59.421875 71 
z
" id="DejaVuSans-Bold-54"/>
      </defs>
      <use xlink:href="#DejaVuSans-Bold-54"/>
      <use x="69.580078" xlink:href="#DejaVuSans-Bold-53"/>
      <use x="139.160156" xlink:href="#DejaVuSans-Bold-37"/>
      <use x="239.355469" xlink:href="#DejaVuSans-Bold-32"/>
      <use x="274.169922" xlink:href="#DejaVuSans-Bold-67"/>
      <use x="347.558594" xlink:href="#DejaVuSans-Bold-73"/>
     </g>
    </g>
   </g>
  </g>
 </g>
 <defs>
  <clipPath id="p0a41a44bd3">
   <rect height="502.12" width="1086.118" x="51.842" y="39.16"/>
  </clipPath>
 </defs>
</svg>
