<?xml version="1.0" encoding="utf-8" standalone="no"?>
<!DOCTYPE svg PUBLIC "-//W3C//DTD SVG 1.1//EN"
  "http://www.w3.org/Graphics/SVG/1.1/DTD/svg11.dtd">
<!-- Created with matplotlib (https://matplotlib.org/) -->
<svg height="576pt" version="1.1" viewBox="0 0 1152 576" width="1152pt" xmlns="http://www.w3.org/2000/svg" xmlns:xlink="http://www.w3.org/1999/xlink">
 <metadata>
  <rdf:RDF xmlns:cc="http://creativecommons.org/ns#" xmlns:dc="http://purl.org/dc/elements/1.1/" xmlns:rdf="http://www.w3.org/1999/02/22-rdf-syntax-ns#">
   <cc:Work>
    <dc:type rdf:resource="http://purl.org/dc/dcmitype/StillImage"/>
    <dc:date>2020-09-27T17:17:36.569567</dc:date>
    <dc:format>image/svg+xml</dc:format>
    <dc:creator>
     <cc:Agent>
      <dc:title>Matplotlib v3.3.2, https://matplotlib.org/</dc:title>
     </cc:Agent>
    </dc:creator>
   </cc:Work>
  </rdf:RDF>
 </metadata>
 <defs>
  <style type="text/css">*{stroke-linecap:butt;stroke-linejoin:round;}</style>
 </defs>
 <g id="figure_1">
  <g id="patch_1">
   <path d="M 0 576 
L 1152 576 
L 1152 0 
L 0 0 
z
" style="fill:#ffffff;"/>
  </g>
  <g id="axes_1">
   <g id="patch_2">
    <path d="M 51.842 541.28 
L 1137.96 541.28 
L 1137.96 39.16 
L 51.842 39.16 
z
" style="fill:#ffffff;"/>
   </g>
   <g id="PolyCollection_1">
    <path clip-path="url(#p7ead228085)" d="M 51.842 -555.28529 
L 51.842 439.236258 
L 57.114417 413.320387 
L 62.386835 384.165032 
L 67.659252 356.629419 
L 72.93167 324.234581 
L 78.204087 301.558194 
L 83.476505 285.360774 
L 88.748922 270.783097 
L 94.02134 259.444903 
L 99.293757 251.346194 
L 104.566175 244.867226 
L 109.838592 240.008 
L 115.11101 235.148774 
L 120.383427 233.529032 
L 125.655845 236.768516 
L 130.928262 243.247484 
L 136.20068 252.965935 
L 141.473097 261.064645 
L 146.745515 267.543613 
L 152.017932 274.022581 
L 157.29035 280.501548 
L 162.562767 293.459484 
L 167.835184 312.896387 
L 173.107602 337.192516 
L 178.380019 361.488645 
L 183.652437 382.54529 
L 188.924854 395.503226 
L 194.197272 401.982194 
L 199.469689 403.601935 
L 204.742107 405.221677 
L 210.014524 405.221677 
L 215.286942 405.221677 
L 220.559359 401.982194 
L 225.831777 395.503226 
L 231.104194 387.404516 
L 236.376612 382.54529 
L 241.649029 384.165032 
L 246.921447 395.503226 
L 252.193864 410.080903 
L 257.466282 423.038839 
L 262.738699 429.517806 
L 268.011117 429.517806 
L 273.283534 424.658581 
L 278.555951 421.419097 
L 283.828369 424.658581 
L 289.100786 432.75729 
L 294.373204 445.715226 
L 299.645621 455.433677 
L 304.918039 465.152129 
L 310.190456 471.631097 
L 315.462874 481.349548 
L 320.735291 491.068 
L 326.007709 504.025935 
L 331.280126 512.124645 
L 336.552544 515.364129 
L 341.824961 512.124645 
L 347.097379 504.025935 
L 352.369796 497.546968 
L 357.642214 494.307484 
L 362.914631 492.687742 
L 368.187049 492.687742 
L 373.459466 489.448258 
L 378.731883 484.589032 
L 384.004301 479.729806 
L 389.276718 479.729806 
L 394.549136 482.96929 
L 399.821553 487.828516 
L 405.093971 492.687742 
L 410.366388 494.307484 
L 415.638806 494.307484 
L 420.911223 494.307484 
L 426.183641 495.927226 
L 431.456058 497.546968 
L 436.728476 495.927226 
L 442.000893 491.068 
L 447.273311 481.349548 
L 452.545728 470.011355 
L 457.818146 458.673161 
L 463.090563 450.574452 
L 468.362981 447.334968 
L 473.635398 447.334968 
L 478.907816 448.95471 
L 484.180233 452.194194 
L 489.45265 453.813935 
L 494.725068 457.053419 
L 499.997485 460.292903 
L 505.269903 466.771871 
L 510.54232 470.011355 
L 515.814738 470.011355 
L 521.087155 463.532387 
L 526.359573 450.574452 
L 531.63199 437.616516 
L 536.904408 424.658581 
L 542.176825 416.559871 
L 547.449243 416.559871 
L 552.72166 419.799355 
L 557.994078 424.658581 
L 563.266495 431.137548 
L 568.538913 435.996774 
L 573.81133 440.856 
L 579.083748 447.334968 
L 584.356165 455.433677 
L 589.628583 463.532387 
L 594.901 474.870581 
L 600.173417 484.589032 
L 605.445835 494.307484 
L 610.718252 504.025935 
L 615.99067 510.504903 
L 621.263087 512.124645 
L 626.535505 512.124645 
L 631.807922 508.885161 
L 637.08034 504.025935 
L 642.352757 500.786452 
L 647.625175 499.16671 
L 652.897592 499.16671 
L 658.17001 499.16671 
L 663.442427 500.786452 
L 668.714845 500.786452 
L 673.987262 500.786452 
L 679.25968 499.16671 
L 684.532097 499.16671 
L 689.804515 502.406194 
L 695.076932 504.025935 
L 700.34935 507.265419 
L 705.621767 505.645677 
L 710.894184 502.406194 
L 716.166602 492.687742 
L 721.439019 479.729806 
L 726.711437 466.771871 
L 731.983854 453.813935 
L 737.256272 442.475742 
L 742.528689 431.137548 
L 747.801107 418.179613 
L 753.073524 405.221677 
L 758.345942 390.644 
L 763.618359 379.305806 
L 768.890777 371.207097 
L 774.163194 367.967613 
L 779.435612 367.967613 
L 784.708029 372.826839 
L 789.980447 376.066323 
L 795.252864 379.305806 
L 800.525282 379.305806 
L 805.797699 372.826839 
L 811.070117 363.108387 
L 816.342534 351.770194 
L 821.614951 340.432 
L 826.887369 332.33329 
L 832.159786 327.474065 
L 837.432204 327.474065 
L 842.704621 330.713548 
L 847.977039 333.953032 
L 853.249456 338.812258 
L 858.521874 342.051742 
L 863.794291 345.291226 
L 869.066709 346.910968 
L 874.339126 348.53071 
L 879.611544 351.770194 
L 884.883961 358.249161 
L 890.156379 366.347871 
L 895.428796 379.305806 
L 900.701214 395.503226 
L 905.973631 411.700645 
L 911.246049 424.658581 
L 916.518466 435.996774 
L 921.790883 440.856 
L 927.063301 442.475742 
L 932.335718 440.856 
L 937.608136 437.616516 
L 942.880553 434.377032 
L 948.152971 431.137548 
L 953.425388 429.517806 
L 958.697806 426.278323 
L 963.970223 424.658581 
L 969.242641 421.419097 
L 974.515058 419.799355 
L 979.787476 418.179613 
L 985.059893 413.320387 
L 990.332311 406.841419 
L 995.604728 397.122968 
L 1000.877146 387.404516 
L 1006.149563 374.446581 
L 1011.421981 363.108387 
L 1016.694398 353.389935 
L 1021.966816 345.291226 
L 1027.239233 338.812258 
L 1032.51165 335.572774 
L 1037.784068 335.572774 
L 1043.056485 335.572774 
L 1048.328903 338.812258 
L 1053.60132 340.432 
L 1058.873738 340.432 
L 1064.146155 338.812258 
L 1069.418573 333.953032 
L 1074.69099 329.093806 
L 1079.963408 324.234581 
L 1085.235825 320.995097 
L 1090.508243 322.614839 
L 1095.78066 325.854323 
L 1101.053078 329.093806 
L 1106.325495 332.33329 
L 1111.597913 333.953032 
L 1116.87033 335.572774 
L 1122.142748 338.812258 
L 1127.415165 342.051742 
L 1132.687583 345.291226 
L 1137.96 348.53071 
L 1137.96 286.980516 
L 1137.96 286.980516 
L 1132.687583 282.12129 
L 1127.415165 278.881806 
L 1122.142748 274.022581 
L 1116.87033 270.783097 
L 1111.597913 267.543613 
L 1106.325495 264.304129 
L 1101.053078 261.064645 
L 1095.78066 254.585677 
L 1090.508243 251.346194 
L 1085.235825 248.10671 
L 1079.963408 248.10671 
L 1074.69099 251.346194 
L 1069.418573 254.585677 
L 1064.146155 257.825161 
L 1058.873738 259.444903 
L 1053.60132 256.205419 
L 1048.328903 252.965935 
L 1043.056485 249.726452 
L 1037.784068 246.486968 
L 1032.51165 246.486968 
L 1027.239233 246.486968 
L 1021.966816 251.346194 
L 1016.694398 256.205419 
L 1011.421981 264.304129 
L 1006.149563 274.022581 
L 1000.877146 285.360774 
L 995.604728 295.079226 
L 990.332311 303.177935 
L 985.059893 309.656903 
L 979.787476 314.516129 
L 974.515058 316.135871 
L 969.242641 317.755613 
L 963.970223 320.995097 
L 958.697806 322.614839 
L 953.425388 325.854323 
L 948.152971 327.474065 
L 942.880553 330.713548 
L 937.608136 333.953032 
L 932.335718 337.192516 
L 927.063301 340.432 
L 921.790883 340.432 
L 916.518466 335.572774 
L 911.246049 325.854323 
L 905.973631 312.896387 
L 900.701214 296.698968 
L 895.428796 282.12129 
L 890.156379 267.543613 
L 884.883961 257.825161 
L 879.611544 251.346194 
L 874.339126 246.486968 
L 869.066709 241.627742 
L 863.794291 238.388258 
L 858.521874 233.529032 
L 853.249456 227.050065 
L 847.977039 220.571097 
L 842.704621 214.092129 
L 837.432204 207.613161 
L 832.159786 205.993419 
L 826.887369 205.993419 
L 821.614951 210.852645 
L 816.342534 217.331613 
L 811.070117 227.050065 
L 805.797699 233.529032 
L 800.525282 236.768516 
L 795.252864 235.148774 
L 789.980447 230.289548 
L 784.708029 223.810581 
L 779.435612 215.711871 
L 774.163194 210.852645 
L 768.890777 210.852645 
L 763.618359 214.092129 
L 758.345942 222.190839 
L 753.073524 230.289548 
L 747.801107 240.008 
L 742.528689 249.726452 
L 737.256272 257.825161 
L 731.983854 267.543613 
L 726.711437 278.881806 
L 721.439019 291.839742 
L 716.166602 306.417419 
L 710.894184 316.135871 
L 705.621767 324.234581 
L 700.34935 325.854323 
L 695.076932 324.234581 
L 689.804515 322.614839 
L 684.532097 320.995097 
L 679.25968 322.614839 
L 673.987262 324.234581 
L 668.714845 327.474065 
L 663.442427 327.474065 
L 658.17001 327.474065 
L 652.897592 327.474065 
L 647.625175 329.093806 
L 642.352757 333.953032 
L 637.08034 340.432 
L 631.807922 348.53071 
L 626.535505 355.009677 
L 621.263087 359.868903 
L 615.99067 358.249161 
L 610.718252 355.009677 
L 605.445835 348.53071 
L 600.173417 340.432 
L 594.901 330.713548 
L 589.628583 322.614839 
L 584.356165 314.516129 
L 579.083748 308.037161 
L 573.81133 301.558194 
L 568.538913 296.698968 
L 563.266495 291.839742 
L 557.994078 285.360774 
L 552.72166 278.881806 
L 547.449243 274.022581 
L 542.176825 274.022581 
L 536.904408 280.501548 
L 531.63199 291.839742 
L 526.359573 304.797677 
L 521.087155 317.755613 
L 515.814738 324.234581 
L 510.54232 327.474065 
L 505.269903 324.234581 
L 499.997485 320.995097 
L 494.725068 316.135871 
L 489.45265 314.516129 
L 484.180233 312.896387 
L 478.907816 311.276645 
L 473.635398 309.656903 
L 468.362981 308.037161 
L 463.090563 311.276645 
L 457.818146 317.755613 
L 452.545728 329.093806 
L 447.273311 342.051742 
L 442.000893 353.389935 
L 436.728476 359.868903 
L 431.456058 363.108387 
L 426.183641 363.108387 
L 420.911223 363.108387 
L 415.638806 364.728129 
L 410.366388 367.967613 
L 405.093971 367.967613 
L 399.821553 364.728129 
L 394.549136 359.868903 
L 389.276718 358.249161 
L 384.004301 359.868903 
L 378.731883 366.347871 
L 373.459466 371.207097 
L 368.187049 376.066323 
L 362.914631 379.305806 
L 357.642214 382.54529 
L 352.369796 389.024258 
L 347.097379 400.362452 
L 341.824961 413.320387 
L 336.552544 421.419097 
L 331.280126 419.799355 
L 326.007709 411.700645 
L 320.735291 400.362452 
L 315.462874 389.024258 
L 310.190456 380.925548 
L 304.918039 374.446581 
L 299.645621 367.967613 
L 294.373204 358.249161 
L 289.100786 346.910968 
L 283.828369 338.812258 
L 278.555951 335.572774 
L 273.283534 338.812258 
L 268.011117 343.671484 
L 262.738699 345.291226 
L 257.466282 340.432 
L 252.193864 327.474065 
L 246.921447 312.896387 
L 241.649029 303.177935 
L 236.376612 299.938452 
L 231.104194 303.177935 
L 225.831777 311.276645 
L 220.559359 316.135871 
L 215.286942 319.375355 
L 210.014524 319.375355 
L 204.742107 319.375355 
L 199.469689 319.375355 
L 194.197272 317.755613 
L 188.924854 311.276645 
L 183.652437 296.698968 
L 178.380019 277.262065 
L 173.107602 251.346194 
L 167.835184 225.430323 
L 162.562767 204.373677 
L 157.29035 189.796 
L 152.017932 178.457806 
L 146.745515 168.739355 
L 141.473097 159.020903 
L 136.20068 146.062968 
L 130.928262 131.48529 
L 125.655845 118.527355 
L 120.383427 108.808903 
L 115.11101 100.710194 
L 109.838592 94.231226 
L 104.566175 89.372 
L 99.293757 81.27329 
L 94.02134 73.174581 
L 88.748922 63.456129 
L 83.476505 52.117935 
L 78.204087 32.681032 
L 72.93167 0.286194 
L 67.659252 -122.814194 
L 62.386835 -242.675097 
L 57.114417 -391.691355 
L 51.842 -555.28529 
z
" style="fill:#e6e6e6;stroke:#e6e6e6;"/>
   </g>
   <g id="PolyCollection_2">
    <path clip-path="url(#p7ead228085)" d="M 51.842 -263.731742 
L 51.842 348.53071 
L 57.114417 316.135871 
L 62.386835 286.980516 
L 67.659252 264.304129 
L 72.93167 240.008 
L 78.204087 231.90929 
L 83.476505 225.430323 
L 88.748922 217.331613 
L 94.02134 210.852645 
L 99.293757 207.613161 
L 104.566175 204.373677 
L 109.838592 202.753935 
L 115.11101 202.753935 
L 120.383427 204.373677 
L 125.655845 209.232903 
L 130.928262 217.331613 
L 136.20068 225.430323 
L 141.473097 235.148774 
L 146.745515 243.247484 
L 152.017932 249.726452 
L 157.29035 257.825161 
L 162.562767 270.783097 
L 167.835184 290.22 
L 173.107602 314.516129 
L 178.380019 340.432 
L 183.652437 359.868903 
L 188.924854 372.826839 
L 194.197272 379.305806 
L 199.469689 380.925548 
L 204.742107 380.925548 
L 210.014524 382.54529 
L 215.286942 382.54529 
L 220.559359 379.305806 
L 225.831777 372.826839 
L 231.104194 366.347871 
L 236.376612 361.488645 
L 241.649029 364.728129 
L 246.921447 374.446581 
L 252.193864 389.024258 
L 257.466282 400.362452 
L 262.738699 406.841419 
L 268.011117 405.221677 
L 273.283534 401.982194 
L 278.555951 398.74271 
L 283.828369 403.601935 
L 289.100786 413.320387 
L 294.373204 424.658581 
L 299.645621 435.996774 
L 304.918039 444.095484 
L 310.190456 450.574452 
L 315.462874 460.292903 
L 320.735291 471.631097 
L 326.007709 484.589032 
L 331.280126 494.307484 
L 336.552544 497.546968 
L 341.824961 491.068 
L 347.097379 481.349548 
L 352.369796 471.631097 
L 357.642214 466.771871 
L 362.914631 463.532387 
L 368.187049 461.912645 
L 373.459466 458.673161 
L 378.731883 453.813935 
L 384.004301 448.95471 
L 389.276718 447.334968 
L 394.549136 450.574452 
L 399.821553 455.433677 
L 405.093971 460.292903 
L 410.366388 461.912645 
L 415.638806 460.292903 
L 420.911223 460.292903 
L 426.183641 461.912645 
L 431.456058 461.912645 
L 436.728476 461.912645 
L 442.000893 457.053419 
L 447.273311 447.334968 
L 452.545728 434.377032 
L 457.818146 423.038839 
L 463.090563 416.559871 
L 468.362981 411.700645 
L 473.635398 411.700645 
L 478.907816 413.320387 
L 484.180233 414.940129 
L 489.45265 418.179613 
L 494.725068 421.419097 
L 499.997485 426.278323 
L 505.269903 431.137548 
L 510.54232 435.996774 
L 515.814738 434.377032 
L 521.087155 427.898065 
L 526.359573 414.940129 
L 531.63199 401.982194 
L 536.904408 389.024258 
L 542.176825 380.925548 
L 547.449243 379.305806 
L 552.72166 382.54529 
L 557.994078 389.024258 
L 563.266495 393.883484 
L 568.538913 398.74271 
L 573.81133 405.221677 
L 579.083748 411.700645 
L 584.356165 419.799355 
L 589.628583 427.898065 
L 594.901 439.236258 
L 600.173417 448.95471 
L 605.445835 458.673161 
L 610.718252 466.771871 
L 615.99067 473.250839 
L 621.263087 474.870581 
L 626.535505 474.870581 
L 631.807922 470.011355 
L 637.08034 463.532387 
L 642.352757 458.673161 
L 647.625175 455.433677 
L 652.897592 455.433677 
L 658.17001 455.433677 
L 663.442427 455.433677 
L 668.714845 455.433677 
L 673.987262 453.813935 
L 679.25968 452.194194 
L 684.532097 452.194194 
L 689.804515 453.813935 
L 695.076932 457.053419 
L 700.34935 458.673161 
L 705.621767 457.053419 
L 710.894184 452.194194 
L 716.166602 442.475742 
L 721.439019 429.517806 
L 726.711437 418.179613 
L 731.983854 405.221677 
L 737.256272 395.503226 
L 742.528689 385.784774 
L 747.801107 374.446581 
L 753.073524 361.488645 
L 758.345942 348.53071 
L 763.618359 337.192516 
L 768.890777 330.713548 
L 774.163194 327.474065 
L 779.435612 330.713548 
L 784.708029 335.572774 
L 789.980447 340.432 
L 795.252864 343.671484 
L 800.525282 343.671484 
L 805.797699 338.812258 
L 811.070117 330.713548 
L 816.342534 319.375355 
L 821.614951 309.656903 
L 826.887369 301.558194 
L 832.159786 296.698968 
L 837.432204 296.698968 
L 842.704621 299.938452 
L 847.977039 304.797677 
L 853.249456 309.656903 
L 858.521874 314.516129 
L 863.794291 319.375355 
L 869.066709 322.614839 
L 874.339126 325.854323 
L 879.611544 329.093806 
L 884.883961 335.572774 
L 890.156379 343.671484 
L 895.428796 355.009677 
L 900.701214 371.207097 
L 905.973631 385.784774 
L 911.246049 400.362452 
L 916.518466 410.080903 
L 921.790883 416.559871 
L 927.063301 416.559871 
L 932.335718 414.940129 
L 937.608136 413.320387 
L 942.880553 410.080903 
L 948.152971 406.841419 
L 953.425388 405.221677 
L 958.697806 401.982194 
L 963.970223 400.362452 
L 969.242641 398.74271 
L 974.515058 395.503226 
L 979.787476 393.883484 
L 985.059893 389.024258 
L 990.332311 382.54529 
L 995.604728 372.826839 
L 1000.877146 361.488645 
L 1006.149563 350.150452 
L 1011.421981 337.192516 
L 1016.694398 329.093806 
L 1021.966816 320.995097 
L 1027.239233 316.135871 
L 1032.51165 314.516129 
L 1037.784068 314.516129 
L 1043.056485 316.135871 
L 1048.328903 317.755613 
L 1053.60132 320.995097 
L 1058.873738 320.995097 
L 1064.146155 319.375355 
L 1069.418573 314.516129 
L 1074.69099 308.037161 
L 1079.963408 304.797677 
L 1085.235825 303.177935 
L 1090.508243 304.797677 
L 1095.78066 309.656903 
L 1101.053078 312.896387 
L 1106.325495 316.135871 
L 1111.597913 317.755613 
L 1116.87033 319.375355 
L 1122.142748 322.614839 
L 1127.415165 327.474065 
L 1132.687583 330.713548 
L 1137.96 333.953032 
L 1137.96 304.797677 
L 1137.96 304.797677 
L 1132.687583 299.938452 
L 1127.415165 296.698968 
L 1122.142748 291.839742 
L 1116.87033 288.600258 
L 1111.597913 285.360774 
L 1106.325495 283.741032 
L 1101.053078 280.501548 
L 1095.78066 275.642323 
L 1090.508243 270.783097 
L 1085.235825 267.543613 
L 1079.963408 267.543613 
L 1074.69099 270.783097 
L 1069.418573 275.642323 
L 1064.146155 280.501548 
L 1058.873738 282.12129 
L 1053.60132 280.501548 
L 1048.328903 277.262065 
L 1043.056485 274.022581 
L 1037.784068 270.783097 
L 1032.51165 270.783097 
L 1027.239233 272.402839 
L 1021.966816 275.642323 
L 1016.694398 282.12129 
L 1011.421981 290.22 
L 1006.149563 301.558194 
L 1000.877146 312.896387 
L 995.604728 324.234581 
L 990.332311 332.33329 
L 985.059893 338.812258 
L 979.787476 343.671484 
L 974.515058 345.291226 
L 969.242641 348.53071 
L 963.970223 350.150452 
L 958.697806 351.770194 
L 953.425388 355.009677 
L 948.152971 356.629419 
L 942.880553 359.868903 
L 937.608136 363.108387 
L 932.335718 366.347871 
L 927.063301 367.967613 
L 921.790883 367.967613 
L 916.518466 361.488645 
L 911.246049 351.770194 
L 905.973631 338.812258 
L 900.701214 322.614839 
L 895.428796 308.037161 
L 890.156379 295.079226 
L 884.883961 286.980516 
L 879.611544 280.501548 
L 874.339126 275.642323 
L 869.066709 272.402839 
L 863.794291 267.543613 
L 858.521874 262.684387 
L 853.249456 256.205419 
L 847.977039 249.726452 
L 842.704621 244.867226 
L 837.432204 240.008 
L 832.159786 238.388258 
L 826.887369 240.008 
L 821.614951 246.486968 
L 816.342534 254.585677 
L 811.070117 264.304129 
L 805.797699 272.402839 
L 800.525282 275.642323 
L 795.252864 275.642323 
L 789.980447 270.783097 
L 784.708029 264.304129 
L 779.435612 257.825161 
L 774.163194 252.965935 
L 768.890777 252.965935 
L 763.618359 257.825161 
L 758.345942 267.543613 
L 753.073524 277.262065 
L 747.801107 288.600258 
L 742.528689 298.31871 
L 737.256272 308.037161 
L 731.983854 316.135871 
L 726.711437 327.474065 
L 721.439019 340.432 
L 716.166602 351.770194 
L 710.894184 363.108387 
L 705.621767 367.967613 
L 700.34935 371.207097 
L 695.076932 369.587355 
L 689.804515 367.967613 
L 684.532097 366.347871 
L 679.25968 366.347871 
L 673.987262 367.967613 
L 668.714845 371.207097 
L 663.442427 372.826839 
L 658.17001 372.826839 
L 652.897592 372.826839 
L 647.625175 374.446581 
L 642.352757 377.686065 
L 637.08034 384.165032 
L 631.807922 390.644 
L 626.535505 397.122968 
L 621.263087 398.74271 
L 615.99067 398.74271 
L 610.718252 393.883484 
L 605.445835 387.404516 
L 600.173417 379.305806 
L 594.901 369.587355 
L 589.628583 359.868903 
L 584.356165 351.770194 
L 579.083748 343.671484 
L 573.81133 337.192516 
L 568.538913 332.33329 
L 563.266495 327.474065 
L 557.994078 320.995097 
L 552.72166 316.135871 
L 547.449243 311.276645 
L 542.176825 312.896387 
L 536.904408 319.375355 
L 531.63199 330.713548 
L 526.359573 345.291226 
L 521.087155 358.249161 
L 515.814738 364.728129 
L 510.54232 366.347871 
L 505.269903 363.108387 
L 499.997485 358.249161 
L 494.725068 353.389935 
L 489.45265 351.770194 
L 484.180233 348.53071 
L 478.907816 346.910968 
L 473.635398 345.291226 
L 468.362981 345.291226 
L 463.090563 348.53071 
L 457.818146 356.629419 
L 452.545728 367.967613 
L 447.273311 379.305806 
L 442.000893 390.644 
L 436.728476 395.503226 
L 431.456058 397.122968 
L 426.183641 397.122968 
L 420.911223 398.74271 
L 415.638806 398.74271 
L 410.366388 400.362452 
L 405.093971 400.362452 
L 399.821553 397.122968 
L 394.549136 392.263742 
L 389.276718 389.024258 
L 384.004301 390.644 
L 378.731883 397.122968 
L 373.459466 401.982194 
L 368.187049 406.841419 
L 362.914631 408.461161 
L 357.642214 411.700645 
L 352.369796 418.179613 
L 347.097379 429.517806 
L 341.824961 440.856 
L 336.552544 448.95471 
L 331.280126 447.334968 
L 326.007709 439.236258 
L 320.735291 426.278323 
L 315.462874 414.940129 
L 310.190456 406.841419 
L 304.918039 400.362452 
L 299.645621 392.263742 
L 294.373204 382.54529 
L 289.100786 371.207097 
L 283.828369 361.488645 
L 278.555951 358.249161 
L 273.283534 361.488645 
L 268.011117 366.347871 
L 262.738699 366.347871 
L 257.466282 361.488645 
L 252.193864 348.53071 
L 246.921447 335.572774 
L 241.649029 324.234581 
L 236.376612 322.614839 
L 231.104194 325.854323 
L 225.831777 333.953032 
L 220.559359 338.812258 
L 215.286942 342.051742 
L 210.014524 342.051742 
L 204.742107 340.432 
L 199.469689 340.432 
L 194.197272 338.812258 
L 188.924854 332.33329 
L 183.652437 319.375355 
L 178.380019 299.938452 
L 173.107602 274.022581 
L 167.835184 249.726452 
L 162.562767 228.669806 
L 157.29035 214.092129 
L 152.017932 204.373677 
L 146.745515 196.274968 
L 141.473097 186.556516 
L 136.20068 175.218323 
L 130.928262 162.260387 
L 125.655845 152.541935 
L 120.383427 142.823484 
L 115.11101 137.964258 
L 109.838592 133.105032 
L 104.566175 129.865548 
L 99.293757 126.626065 
L 94.02134 121.766839 
L 88.748922 118.527355 
L 83.476505 113.668129 
L 78.204087 103.949677 
L 72.93167 84.512774 
L 67.659252 8.384903 
L 62.386835 -67.742968 
L 57.114417 -160.068258 
L 51.842 -263.731742 
z
" style="fill:#c8c8c8;stroke:#c8c8c8;"/>
   </g>
   <g id="matplotlib.axis_1">
    <g id="xtick_1">
     <g id="line2d_1">
      <defs>
       <path d="M 0 0 
L 0 3.5 
" id="ma0d22dbd3d" style="stroke:#555555;stroke-width:0.8;"/>
      </defs>
      <g>
       <use style="fill:#555555;stroke:#555555;stroke-width:0.8;" x="194.197272" xlink:href="#ma0d22dbd3d" y="541.28"/>
      </g>
     </g>
     <g id="text_1">
      <!-- April -->
      <g style="fill:#555555;" transform="translate(175.518209 558.917812)scale(0.14 -0.14)">
       <defs>
        <path d="M 53.421875 13.28125 
L 24.03125 13.28125 
L 19.390625 0 
L 0.484375 0 
L 27.484375 72.90625 
L 49.90625 72.90625 
L 76.90625 0 
L 58.015625 0 
z
M 28.71875 26.8125 
L 48.6875 26.8125 
L 38.71875 55.8125 
z
" id="DejaVuSans-Bold-65"/>
        <path d="M 25.875 7.90625 
L 25.875 -20.796875 
L 8.40625 -20.796875 
L 8.40625 54.6875 
L 25.875 54.6875 
L 25.875 46.6875 
Q 29.5 51.46875 33.890625 53.734375 
Q 38.28125 56 44 56 
Q 54.109375 56 60.59375 47.96875 
Q 67.09375 39.9375 67.09375 27.296875 
Q 67.09375 14.65625 60.59375 6.609375 
Q 54.109375 -1.421875 44 -1.421875 
Q 38.28125 -1.421875 33.890625 0.84375 
Q 29.5 3.125 25.875 7.90625 
z
M 37.5 43.3125 
Q 31.890625 43.3125 28.875 39.1875 
Q 25.875 35.0625 25.875 27.296875 
Q 25.875 19.53125 28.875 15.40625 
Q 31.890625 11.28125 37.5 11.28125 
Q 43.109375 11.28125 46.0625 15.375 
Q 49.03125 19.484375 49.03125 27.296875 
Q 49.03125 35.109375 46.0625 39.203125 
Q 43.109375 43.3125 37.5 43.3125 
z
" id="DejaVuSans-Bold-112"/>
        <path d="M 49.03125 39.796875 
Q 46.734375 40.875 44.453125 41.375 
Q 42.1875 41.890625 39.890625 41.890625 
Q 33.15625 41.890625 29.515625 37.5625 
Q 25.875 33.25 25.875 25.203125 
L 25.875 0 
L 8.40625 0 
L 8.40625 54.6875 
L 25.875 54.6875 
L 25.875 45.703125 
Q 29.25 51.078125 33.609375 53.53125 
Q 37.984375 56 44.09375 56 
Q 44.96875 56 45.984375 55.921875 
Q 47.015625 55.859375 48.96875 55.609375 
z
" id="DejaVuSans-Bold-114"/>
        <path d="M 8.40625 54.6875 
L 25.875 54.6875 
L 25.875 0 
L 8.40625 0 
z
M 8.40625 75.984375 
L 25.875 75.984375 
L 25.875 61.71875 
L 8.40625 61.71875 
z
" id="DejaVuSans-Bold-105"/>
        <path d="M 8.40625 75.984375 
L 25.875 75.984375 
L 25.875 0 
L 8.40625 0 
z
" id="DejaVuSans-Bold-108"/>
       </defs>
       <use xlink:href="#DejaVuSans-Bold-65"/>
       <use x="77.392578" xlink:href="#DejaVuSans-Bold-112"/>
       <use x="148.974609" xlink:href="#DejaVuSans-Bold-114"/>
       <use x="198.291016" xlink:href="#DejaVuSans-Bold-105"/>
       <use x="232.568359" xlink:href="#DejaVuSans-Bold-108"/>
      </g>
     </g>
    </g>
    <g id="xtick_2">
     <g id="line2d_2">
      <g>
       <use style="fill:#555555;stroke:#555555;stroke-width:0.8;" x="352.369796" xlink:href="#ma0d22dbd3d" y="541.28"/>
      </g>
     </g>
     <g id="text_2">
      <!-- May -->
      <g style="fill:#555555;" transform="translate(336.335421 558.808437)scale(0.14 -0.14)">
       <defs>
        <path d="M 9.1875 72.90625 
L 33.109375 72.90625 
L 49.703125 33.890625 
L 66.40625 72.90625 
L 90.28125 72.90625 
L 90.28125 0 
L 72.515625 0 
L 72.515625 53.328125 
L 55.71875 14.015625 
L 43.796875 14.015625 
L 27 53.328125 
L 27 0 
L 9.1875 0 
z
" id="DejaVuSans-Bold-77"/>
        <path d="M 32.90625 24.609375 
Q 27.4375 24.609375 24.671875 22.75 
Q 21.921875 20.90625 21.921875 17.28125 
Q 21.921875 13.96875 24.140625 12.078125 
Q 26.375 10.203125 30.328125 10.203125 
Q 35.25 10.203125 38.625 13.734375 
Q 42 17.28125 42 22.609375 
L 42 24.609375 
z
M 59.625 31.203125 
L 59.625 0 
L 42 0 
L 42 8.109375 
Q 38.484375 3.125 34.078125 0.84375 
Q 29.6875 -1.421875 23.390625 -1.421875 
Q 14.890625 -1.421875 9.59375 3.53125 
Q 4.296875 8.5 4.296875 16.40625 
Q 4.296875 26.03125 10.90625 30.515625 
Q 17.53125 35.015625 31.6875 35.015625 
L 42 35.015625 
L 42 36.375 
Q 42 40.53125 38.71875 42.453125 
Q 35.453125 44.390625 28.515625 44.390625 
Q 22.90625 44.390625 18.0625 43.265625 
Q 13.234375 42.140625 9.078125 39.890625 
L 9.078125 53.21875 
Q 14.703125 54.59375 20.359375 55.296875 
Q 26.03125 56 31.6875 56 
Q 46.484375 56 53.046875 50.171875 
Q 59.625 44.34375 59.625 31.203125 
z
" id="DejaVuSans-Bold-97"/>
        <path d="M 1.21875 54.6875 
L 18.703125 54.6875 
L 33.40625 17.578125 
L 45.90625 54.6875 
L 63.375 54.6875 
L 40.375 -5.171875 
Q 36.921875 -14.3125 32.296875 -17.9375 
Q 27.6875 -21.578125 20.125 -21.578125 
L 10.015625 -21.578125 
L 10.015625 -10.109375 
L 15.484375 -10.109375 
Q 19.921875 -10.109375 21.9375 -8.6875 
Q 23.96875 -7.28125 25.09375 -3.609375 
L 25.59375 -2.09375 
z
" id="DejaVuSans-Bold-121"/>
       </defs>
       <use xlink:href="#DejaVuSans-Bold-77"/>
       <use x="99.511719" xlink:href="#DejaVuSans-Bold-97"/>
       <use x="163.867188" xlink:href="#DejaVuSans-Bold-121"/>
      </g>
     </g>
    </g>
    <g id="xtick_3">
     <g id="line2d_3">
      <g>
       <use style="fill:#555555;stroke:#555555;stroke-width:0.8;" x="515.814738" xlink:href="#ma0d22dbd3d" y="541.28"/>
      </g>
     </g>
     <g id="text_3">
      <!-- June -->
      <g style="fill:#555555;" transform="translate(498.4963 558.917812)scale(0.14 -0.14)">
       <defs>
        <path d="M 9.1875 72.90625 
L 27.984375 72.90625 
L 27.984375 7.078125 
Q 27.984375 -6.546875 20.578125 -13.28125 
Q 13.1875 -20.015625 -1.8125 -20.015625 
L -5.609375 -20.015625 
L -5.609375 -5.8125 
L -2.6875 -5.8125 
Q 3.171875 -5.8125 6.171875 -2.53125 
Q 9.1875 0.734375 9.1875 7.078125 
z
" id="DejaVuSans-Bold-74"/>
        <path d="M 7.8125 21.296875 
L 7.8125 54.6875 
L 25.390625 54.6875 
L 25.390625 49.21875 
Q 25.390625 44.78125 25.34375 38.0625 
Q 25.296875 31.34375 25.296875 29.109375 
Q 25.296875 22.515625 25.640625 19.609375 
Q 25.984375 16.703125 26.8125 15.375 
Q 27.875 13.671875 29.609375 12.734375 
Q 31.34375 11.8125 33.59375 11.8125 
Q 39.0625 11.8125 42.1875 16.015625 
Q 45.3125 20.21875 45.3125 27.6875 
L 45.3125 54.6875 
L 62.796875 54.6875 
L 62.796875 0 
L 45.3125 0 
L 45.3125 7.90625 
Q 41.359375 3.125 36.9375 0.84375 
Q 32.515625 -1.421875 27.203125 -1.421875 
Q 17.71875 -1.421875 12.765625 4.390625 
Q 7.8125 10.203125 7.8125 21.296875 
z
" id="DejaVuSans-Bold-117"/>
        <path d="M 63.375 33.296875 
L 63.375 0 
L 45.796875 0 
L 45.796875 5.421875 
L 45.796875 25.484375 
Q 45.796875 32.5625 45.484375 35.25 
Q 45.171875 37.9375 44.390625 39.203125 
Q 43.359375 40.921875 41.59375 41.875 
Q 39.84375 42.828125 37.59375 42.828125 
Q 32.125 42.828125 29 38.59375 
Q 25.875 34.375 25.875 26.90625 
L 25.875 0 
L 8.40625 0 
L 8.40625 54.6875 
L 25.875 54.6875 
L 25.875 46.6875 
Q 29.828125 51.46875 34.265625 53.734375 
Q 38.71875 56 44.09375 56 
Q 53.5625 56 58.46875 50.1875 
Q 63.375 44.390625 63.375 33.296875 
z
" id="DejaVuSans-Bold-110"/>
        <path d="M 62.984375 27.484375 
L 62.984375 22.515625 
L 22.125 22.515625 
Q 22.75 16.359375 26.5625 13.28125 
Q 30.375 10.203125 37.203125 10.203125 
Q 42.71875 10.203125 48.5 11.84375 
Q 54.296875 13.484375 60.40625 16.796875 
L 60.40625 3.328125 
Q 54.203125 0.984375 48 -0.21875 
Q 41.796875 -1.421875 35.59375 -1.421875 
Q 20.75 -1.421875 12.515625 6.125 
Q 4.296875 13.671875 4.296875 27.296875 
Q 4.296875 40.671875 12.375 48.328125 
Q 20.453125 56 34.625 56 
Q 47.515625 56 55.25 48.234375 
Q 62.984375 40.484375 62.984375 27.484375 
z
M 45.015625 33.296875 
Q 45.015625 38.28125 42.109375 41.328125 
Q 39.203125 44.390625 34.515625 44.390625 
Q 29.4375 44.390625 26.265625 41.53125 
Q 23.09375 38.671875 22.3125 33.296875 
z
" id="DejaVuSans-Bold-101"/>
       </defs>
       <use xlink:href="#DejaVuSans-Bold-74"/>
       <use x="37.207031" xlink:href="#DejaVuSans-Bold-117"/>
       <use x="108.398438" xlink:href="#DejaVuSans-Bold-110"/>
       <use x="179.589844" xlink:href="#DejaVuSans-Bold-101"/>
      </g>
     </g>
    </g>
    <g id="xtick_4">
     <g id="line2d_4">
      <g>
       <use style="fill:#555555;stroke:#555555;stroke-width:0.8;" x="673.987262" xlink:href="#ma0d22dbd3d" y="541.28"/>
      </g>
     </g>
     <g id="text_4">
      <!-- July -->
      <g style="fill:#555555;" transform="translate(659.437106 558.917812)scale(0.14 -0.14)">
       <use xlink:href="#DejaVuSans-Bold-74"/>
       <use x="37.207031" xlink:href="#DejaVuSans-Bold-117"/>
       <use x="108.398438" xlink:href="#DejaVuSans-Bold-108"/>
       <use x="142.675781" xlink:href="#DejaVuSans-Bold-121"/>
      </g>
     </g>
    </g>
    <g id="xtick_5">
     <g id="line2d_5">
      <g>
       <use style="fill:#555555;stroke:#555555;stroke-width:0.8;" x="837.432204" xlink:href="#ma0d22dbd3d" y="541.28"/>
      </g>
     </g>
     <g id="text_5">
      <!-- August -->
      <g style="fill:#555555;" transform="translate(809.526266 558.808437)scale(0.14 -0.14)">
       <defs>
        <path d="M 45.609375 9.28125 
Q 42 4.5 37.640625 2.25 
Q 33.296875 0 27.59375 0 
Q 17.578125 0 11.03125 7.875 
Q 4.5 15.765625 4.5 27.984375 
Q 4.5 40.234375 11.03125 48.0625 
Q 17.578125 55.90625 27.59375 55.90625 
Q 33.296875 55.90625 37.640625 53.65625 
Q 42 51.421875 45.609375 46.578125 
L 45.609375 54.6875 
L 63.1875 54.6875 
L 63.1875 5.515625 
Q 63.1875 -7.671875 54.859375 -14.625 
Q 46.53125 -21.578125 30.71875 -21.578125 
Q 25.59375 -21.578125 20.796875 -20.796875 
Q 16.015625 -20.015625 11.1875 -18.40625 
L 11.1875 -4.78125 
Q 15.765625 -7.421875 20.15625 -8.71875 
Q 24.5625 -10.015625 29 -10.015625 
Q 37.59375 -10.015625 41.59375 -6.25 
Q 45.609375 -2.484375 45.609375 5.515625 
z
M 34.078125 43.3125 
Q 28.65625 43.3125 25.625 39.296875 
Q 22.609375 35.296875 22.609375 27.984375 
Q 22.609375 20.453125 25.53125 16.578125 
Q 28.46875 12.703125 34.078125 12.703125 
Q 39.546875 12.703125 42.578125 16.703125 
Q 45.609375 20.703125 45.609375 27.984375 
Q 45.609375 35.296875 42.578125 39.296875 
Q 39.546875 43.3125 34.078125 43.3125 
z
" id="DejaVuSans-Bold-103"/>
        <path d="M 51.125 52.984375 
L 51.125 39.703125 
Q 45.515625 42.046875 40.28125 43.21875 
Q 35.0625 44.390625 30.421875 44.390625 
Q 25.4375 44.390625 23.015625 43.140625 
Q 20.609375 41.890625 20.609375 39.3125 
Q 20.609375 37.203125 22.4375 36.078125 
Q 24.265625 34.96875 29 34.421875 
L 32.078125 33.984375 
Q 45.515625 32.28125 50.140625 28.375 
Q 54.78125 24.46875 54.78125 16.109375 
Q 54.78125 7.375 48.328125 2.96875 
Q 41.890625 -1.421875 29.109375 -1.421875 
Q 23.6875 -1.421875 17.890625 -0.5625 
Q 12.109375 0.296875 6 2 
L 6 15.28125 
Q 11.234375 12.75 16.71875 11.46875 
Q 22.21875 10.203125 27.875 10.203125 
Q 33.015625 10.203125 35.59375 11.609375 
Q 38.1875 13.03125 38.1875 15.828125 
Q 38.1875 18.171875 36.40625 19.3125 
Q 34.625 20.453125 29.296875 21.09375 
L 26.21875 21.484375 
Q 14.546875 22.953125 9.859375 26.90625 
Q 5.171875 30.859375 5.171875 38.921875 
Q 5.171875 47.609375 11.125 51.796875 
Q 17.09375 56 29.390625 56 
Q 34.234375 56 39.546875 55.265625 
Q 44.875 54.546875 51.125 52.984375 
z
" id="DejaVuSans-Bold-115"/>
        <path d="M 27.484375 70.21875 
L 27.484375 54.6875 
L 45.515625 54.6875 
L 45.515625 42.1875 
L 27.484375 42.1875 
L 27.484375 19 
Q 27.484375 15.1875 29 13.84375 
Q 30.515625 12.5 35.015625 12.5 
L 44 12.5 
L 44 0 
L 29 0 
Q 18.65625 0 14.328125 4.3125 
Q 10.015625 8.640625 10.015625 19 
L 10.015625 42.1875 
L 1.3125 42.1875 
L 1.3125 54.6875 
L 10.015625 54.6875 
L 10.015625 70.21875 
z
" id="DejaVuSans-Bold-116"/>
       </defs>
       <use xlink:href="#DejaVuSans-Bold-65"/>
       <use x="77.392578" xlink:href="#DejaVuSans-Bold-117"/>
       <use x="148.583984" xlink:href="#DejaVuSans-Bold-103"/>
       <use x="220.166016" xlink:href="#DejaVuSans-Bold-117"/>
       <use x="291.357422" xlink:href="#DejaVuSans-Bold-115"/>
       <use x="350.878906" xlink:href="#DejaVuSans-Bold-116"/>
      </g>
     </g>
    </g>
    <g id="xtick_6">
     <g id="line2d_6">
      <g>
       <use style="fill:#555555;stroke:#555555;stroke-width:0.8;" x="1000.877146" xlink:href="#ma0d22dbd3d" y="541.28"/>
      </g>
     </g>
     <g id="text_6">
      <!-- September -->
      <g style="fill:#555555;" transform="translate(957.479333 558.917812)scale(0.14 -0.14)">
       <defs>
        <path d="M 59.90625 70.609375 
L 59.90625 55.171875 
Q 53.90625 57.859375 48.1875 59.21875 
Q 42.484375 60.59375 37.40625 60.59375 
Q 30.671875 60.59375 27.4375 58.734375 
Q 24.21875 56.890625 24.21875 52.984375 
Q 24.21875 50.046875 26.390625 48.40625 
Q 28.5625 46.78125 34.28125 45.609375 
L 42.28125 44 
Q 54.4375 41.546875 59.5625 36.5625 
Q 64.703125 31.59375 64.703125 22.40625 
Q 64.703125 10.359375 57.546875 4.46875 
Q 50.390625 -1.421875 35.6875 -1.421875 
Q 28.765625 -1.421875 21.78125 -0.09375 
Q 14.796875 1.21875 7.8125 3.8125 
L 7.8125 19.671875 
Q 14.796875 15.96875 21.3125 14.078125 
Q 27.828125 12.203125 33.890625 12.203125 
Q 40.046875 12.203125 43.3125 14.25 
Q 46.578125 16.3125 46.578125 20.125 
Q 46.578125 23.53125 44.359375 25.390625 
Q 42.140625 27.25 35.5 28.71875 
L 28.21875 30.328125 
Q 17.28125 32.671875 12.21875 37.796875 
Q 7.171875 42.921875 7.171875 51.609375 
Q 7.171875 62.5 14.203125 68.359375 
Q 21.234375 74.21875 34.421875 74.21875 
Q 40.4375 74.21875 46.78125 73.3125 
Q 53.125 72.40625 59.90625 70.609375 
z
" id="DejaVuSans-Bold-83"/>
        <path d="M 59.078125 45.609375 
Q 62.40625 50.6875 66.96875 53.34375 
Q 71.53125 56 77 56 
Q 86.421875 56 91.359375 50.1875 
Q 96.296875 44.390625 96.296875 33.296875 
L 96.296875 0 
L 78.71875 0 
L 78.71875 28.515625 
Q 78.765625 29.15625 78.78125 29.828125 
Q 78.8125 30.515625 78.8125 31.78125 
Q 78.8125 37.59375 77.09375 40.203125 
Q 75.390625 42.828125 71.578125 42.828125 
Q 66.609375 42.828125 63.890625 38.71875 
Q 61.1875 34.625 61.078125 26.859375 
L 61.078125 0 
L 43.5 0 
L 43.5 28.515625 
Q 43.5 37.59375 41.9375 40.203125 
Q 40.375 42.828125 36.375 42.828125 
Q 31.34375 42.828125 28.609375 38.703125 
Q 25.875 34.578125 25.875 26.90625 
L 25.875 0 
L 8.296875 0 
L 8.296875 54.6875 
L 25.875 54.6875 
L 25.875 46.6875 
Q 29.109375 51.3125 33.28125 53.65625 
Q 37.453125 56 42.484375 56 
Q 48.140625 56 52.484375 53.265625 
Q 56.84375 50.53125 59.078125 45.609375 
z
" id="DejaVuSans-Bold-109"/>
        <path d="M 37.5 11.28125 
Q 43.109375 11.28125 46.0625 15.375 
Q 49.03125 19.484375 49.03125 27.296875 
Q 49.03125 35.109375 46.0625 39.203125 
Q 43.109375 43.3125 37.5 43.3125 
Q 31.890625 43.3125 28.875 39.1875 
Q 25.875 35.0625 25.875 27.296875 
Q 25.875 19.53125 28.875 15.40625 
Q 31.890625 11.28125 37.5 11.28125 
z
M 25.875 46.6875 
Q 29.5 51.46875 33.890625 53.734375 
Q 38.28125 56 44 56 
Q 54.109375 56 60.59375 47.96875 
Q 67.09375 39.9375 67.09375 27.296875 
Q 67.09375 14.65625 60.59375 6.609375 
Q 54.109375 -1.421875 44 -1.421875 
Q 38.28125 -1.421875 33.890625 0.84375 
Q 29.5 3.125 25.875 7.90625 
L 25.875 0 
L 8.40625 0 
L 8.40625 75.984375 
L 25.875 75.984375 
z
" id="DejaVuSans-Bold-98"/>
       </defs>
       <use xlink:href="#DejaVuSans-Bold-83"/>
       <use x="72.021484" xlink:href="#DejaVuSans-Bold-101"/>
       <use x="139.84375" xlink:href="#DejaVuSans-Bold-112"/>
       <use x="211.425781" xlink:href="#DejaVuSans-Bold-116"/>
       <use x="259.228516" xlink:href="#DejaVuSans-Bold-101"/>
       <use x="327.050781" xlink:href="#DejaVuSans-Bold-109"/>
       <use x="431.25" xlink:href="#DejaVuSans-Bold-98"/>
       <use x="502.832031" xlink:href="#DejaVuSans-Bold-101"/>
       <use x="570.654297" xlink:href="#DejaVuSans-Bold-114"/>
      </g>
     </g>
    </g>
   </g>
   <g id="matplotlib.axis_2">
    <g id="ytick_1">
     <g id="line2d_7">
      <defs>
       <path d="M 0 0 
L -3.5 0 
" id="m9996238adf" style="stroke:#555555;stroke-width:0.8;"/>
      </defs>
      <g>
       <use style="fill:#555555;stroke:#555555;stroke-width:0.8;" x="51.842" xlink:href="#m9996238adf" y="525.082581"/>
      </g>
     </g>
     <g id="text_7">
      <!-- 0 -->
      <g style="fill:#555555;" transform="translate(35.101062 530.401487)scale(0.14 -0.14)">
       <defs>
        <path d="M 46 36.53125 
Q 46 50.203125 43.4375 55.78125 
Q 40.875 61.375 34.8125 61.375 
Q 28.765625 61.375 26.171875 55.78125 
Q 23.578125 50.203125 23.578125 36.53125 
Q 23.578125 22.703125 26.171875 17.03125 
Q 28.765625 11.375 34.8125 11.375 
Q 40.828125 11.375 43.40625 17.03125 
Q 46 22.703125 46 36.53125 
z
M 64.796875 36.375 
Q 64.796875 18.265625 56.984375 8.421875 
Q 49.171875 -1.421875 34.8125 -1.421875 
Q 20.40625 -1.421875 12.59375 8.421875 
Q 4.78125 18.265625 4.78125 36.375 
Q 4.78125 54.546875 12.59375 64.375 
Q 20.40625 74.21875 34.8125 74.21875 
Q 49.171875 74.21875 56.984375 64.375 
Q 64.796875 54.546875 64.796875 36.375 
z
" id="DejaVuSans-Bold-48"/>
       </defs>
       <use xlink:href="#DejaVuSans-Bold-48"/>
      </g>
     </g>
    </g>
    <g id="ytick_2">
     <g id="line2d_8">
      <g>
       <use style="fill:#555555;stroke:#555555;stroke-width:0.8;" x="51.842" xlink:href="#m9996238adf" y="363.108387"/>
      </g>
     </g>
     <g id="text_8">
      <!-- 1 -->
      <g style="fill:#555555;" transform="translate(35.101062 368.427293)scale(0.14 -0.14)">
       <defs>
        <path d="M 11.71875 12.984375 
L 28.328125 12.984375 
L 28.328125 60.109375 
L 11.28125 56.59375 
L 11.28125 69.390625 
L 28.21875 72.90625 
L 46.09375 72.90625 
L 46.09375 12.984375 
L 62.703125 12.984375 
L 62.703125 0 
L 11.71875 0 
z
" id="DejaVuSans-Bold-49"/>
       </defs>
       <use xlink:href="#DejaVuSans-Bold-49"/>
      </g>
     </g>
    </g>
    <g id="ytick_3">
     <g id="line2d_9">
      <g>
       <use style="fill:#555555;stroke:#555555;stroke-width:0.8;" x="51.842" xlink:href="#m9996238adf" y="201.134194"/>
      </g>
     </g>
     <g id="text_9">
      <!-- 2 -->
      <g style="fill:#555555;" transform="translate(35.101062 206.4531)scale(0.14 -0.14)">
       <defs>
        <path d="M 28.8125 13.8125 
L 60.890625 13.8125 
L 60.890625 0 
L 7.90625 0 
L 7.90625 13.8125 
L 34.515625 37.3125 
Q 38.09375 40.53125 39.796875 43.609375 
Q 41.5 46.6875 41.5 50 
Q 41.5 55.125 38.0625 58.25 
Q 34.625 61.375 28.90625 61.375 
Q 24.515625 61.375 19.28125 59.5 
Q 14.0625 57.625 8.109375 53.90625 
L 8.109375 69.921875 
Q 14.453125 72.015625 20.65625 73.109375 
Q 26.859375 74.21875 32.8125 74.21875 
Q 45.90625 74.21875 53.15625 68.453125 
Q 60.40625 62.703125 60.40625 52.390625 
Q 60.40625 46.4375 57.328125 41.28125 
Q 54.25 36.140625 44.390625 27.484375 
z
" id="DejaVuSans-Bold-50"/>
       </defs>
       <use xlink:href="#DejaVuSans-Bold-50"/>
      </g>
     </g>
    </g>
    <g id="ytick_4">
     <g id="line2d_10">
      <g>
       <use style="fill:#555555;stroke:#555555;stroke-width:0.8;" x="51.842" xlink:href="#m9996238adf" y="39.16"/>
      </g>
     </g>
     <g id="text_10">
      <!-- 3 -->
      <g style="fill:#555555;" transform="translate(35.101062 44.478906)scale(0.14 -0.14)">
       <defs>
        <path d="M 46.578125 39.3125 
Q 53.953125 37.40625 57.78125 32.6875 
Q 61.625 27.984375 61.625 20.703125 
Q 61.625 9.859375 53.3125 4.21875 
Q 45.015625 -1.421875 29.109375 -1.421875 
Q 23.484375 -1.421875 17.84375 -0.515625 
Q 12.203125 0.390625 6.6875 2.203125 
L 6.6875 16.703125 
Q 11.96875 14.0625 17.15625 12.71875 
Q 22.359375 11.375 27.390625 11.375 
Q 34.859375 11.375 38.84375 13.953125 
Q 42.828125 16.546875 42.828125 21.390625 
Q 42.828125 26.375 38.75 28.9375 
Q 34.671875 31.5 26.703125 31.5 
L 19.1875 31.5 
L 19.1875 43.609375 
L 27.09375 43.609375 
Q 34.1875 43.609375 37.640625 45.828125 
Q 41.109375 48.046875 41.109375 52.59375 
Q 41.109375 56.78125 37.734375 59.078125 
Q 34.375 61.375 28.21875 61.375 
Q 23.6875 61.375 19.046875 60.34375 
Q 14.40625 59.328125 9.8125 57.328125 
L 9.8125 71.09375 
Q 15.375 72.65625 20.84375 73.4375 
Q 26.3125 74.21875 31.59375 74.21875 
Q 45.796875 74.21875 52.84375 69.546875 
Q 59.90625 64.890625 59.90625 55.515625 
Q 59.90625 49.125 56.53125 45.046875 
Q 53.171875 40.96875 46.578125 39.3125 
z
" id="DejaVuSans-Bold-51"/>
       </defs>
       <use xlink:href="#DejaVuSans-Bold-51"/>
      </g>
     </g>
    </g>
    <g id="text_11">
     <!-- $R_{t}$ -->
     <g style="fill:#555555;" transform="translate(27.773562 299.34)rotate(-90)scale(0.16 -0.16)">
      <defs>
       <path d="M 36.71875 40.578125 
Q 43.109375 40.578125 46.40625 43.546875 
Q 49.703125 46.53125 49.703125 52.296875 
Q 49.703125 55.90625 47.4375 57.59375 
Q 45.171875 59.28125 40.28125 59.28125 
L 32.515625 59.28125 
L 28.8125 40.578125 
z
M 26.3125 27.59375 
L 20.90625 0 
L 2.09375 0 
L 16.3125 72.90625 
L 44.09375 72.90625 
Q 56.109375 72.90625 62.296875 68.40625 
Q 68.5 63.921875 68.5 55.171875 
Q 68.5 46.34375 63.609375 40.625 
Q 58.734375 34.90625 50.390625 34.078125 
Q 54.203125 33.296875 56.734375 30.1875 
Q 59.28125 27.09375 61.1875 20.703125 
L 67.390625 0 
L 48.6875 0 
L 43.21875 18.109375 
Q 41.546875 23.53125 39.171875 25.5625 
Q 36.8125 27.59375 32.328125 27.59375 
z
" id="DejaVuSans-BoldOblique-82"/>
       <path d="M 35.984375 70.21875 
L 33.015625 54.6875 
L 50.875 54.6875 
L 48.390625 42.1875 
L 30.515625 42.1875 
L 26.03125 19.046875 
Q 25.828125 18.265625 25.75 17.71875 
Q 25.6875 17.1875 25.6875 16.703125 
Q 25.6875 14.453125 27.171875 13.46875 
Q 28.65625 12.5 32.171875 12.5 
L 41.21875 12.5 
L 38.71875 0 
L 24.03125 0 
Q 16.109375 0 11.953125 3.3125 
Q 7.8125 6.640625 7.8125 12.890625 
Q 7.8125 14.265625 7.953125 15.828125 
Q 8.109375 17.390625 8.40625 19 
L 12.890625 42.1875 
L 4.296875 42.1875 
L 6.6875 54.6875 
L 15.375 54.6875 
L 18.40625 70.21875 
z
" id="DejaVuSans-BoldOblique-116"/>
      </defs>
      <use transform="translate(0 0.09375)" xlink:href="#DejaVuSans-BoldOblique-82"/>
      <use transform="translate(77.001953 -16.3125)scale(0.7)" xlink:href="#DejaVuSans-BoldOblique-116"/>
     </g>
    </g>
   </g>
   <g id="line2d_11">
    <path clip-path="url(#p7ead228085)" d="M 51.842 363.108387 
L 1137.96 363.108387 
" style="fill:none;stroke:#ff0000;stroke-dasharray:2,3.3;stroke-dashoffset:0;stroke-width:2;"/>
   </g>
   <g id="line2d_12">
    <path clip-path="url(#p7ead228085)" d="M 51.842 257.825161 
L 57.114417 218.951355 
L 62.386835 188.176258 
L 72.93167 152.541935 
L 78.204087 159.020903 
L 83.476505 162.260387 
L 88.748922 162.260387 
L 94.02134 160.640645 
L 99.293757 162.260387 
L 104.566175 162.260387 
L 115.11101 165.499871 
L 120.383427 168.739355 
L 125.655845 175.218323 
L 130.928262 184.936774 
L 141.473097 207.613161 
L 146.745515 215.711871 
L 152.017932 222.190839 
L 157.29035 231.90929 
L 162.562767 246.486968 
L 167.835184 265.923871 
L 178.380019 314.516129 
L 183.652437 335.572774 
L 188.924854 350.150452 
L 194.197272 356.629419 
L 204.742107 359.868903 
L 215.286942 359.868903 
L 220.559359 356.629419 
L 225.831777 350.150452 
L 231.104194 342.051742 
L 236.376612 338.812258 
L 241.649029 340.432 
L 246.921447 350.150452 
L 252.193864 364.728129 
L 257.466282 377.686065 
L 262.738699 384.165032 
L 268.011117 382.54529 
L 278.555951 376.066323 
L 283.828369 379.305806 
L 289.100786 387.404516 
L 299.645621 410.080903 
L 304.918039 416.559871 
L 315.462874 432.75729 
L 326.007709 458.673161 
L 331.280126 466.771871 
L 336.552544 468.391613 
L 341.824961 461.912645 
L 347.097379 450.574452 
L 352.369796 440.856 
L 357.642214 434.377032 
L 362.914631 432.75729 
L 373.459466 426.278323 
L 384.004301 416.559871 
L 389.276718 414.940129 
L 394.549136 416.559871 
L 399.821553 421.419097 
L 405.093971 424.658581 
L 410.366388 426.278323 
L 415.638806 424.658581 
L 431.456058 424.658581 
L 436.728476 423.038839 
L 442.000893 418.179613 
L 447.273311 408.461161 
L 452.545728 395.503226 
L 457.818146 384.165032 
L 463.090563 377.686065 
L 468.362981 374.446581 
L 473.635398 374.446581 
L 484.180233 377.686065 
L 499.997485 387.404516 
L 505.269903 392.263742 
L 510.54232 395.503226 
L 515.814738 393.883484 
L 521.087155 385.784774 
L 526.359573 374.446581 
L 531.63199 359.868903 
L 536.904408 348.53071 
L 542.176825 340.432 
L 547.449243 340.432 
L 552.72166 343.671484 
L 563.266495 356.629419 
L 573.81133 366.347871 
L 579.083748 372.826839 
L 589.628583 389.024258 
L 605.445835 418.179613 
L 610.718252 424.658581 
L 615.99067 429.517806 
L 621.263087 431.137548 
L 626.535505 427.898065 
L 631.807922 423.038839 
L 637.08034 416.559871 
L 642.352757 411.700645 
L 647.625175 408.461161 
L 652.897592 406.841419 
L 658.17001 408.461161 
L 668.714845 408.461161 
L 684.532097 403.601935 
L 689.804515 405.221677 
L 695.076932 408.461161 
L 700.34935 410.080903 
L 705.621767 408.461161 
L 710.894184 401.982194 
L 716.166602 392.263742 
L 721.439019 380.925548 
L 731.983854 355.009677 
L 742.528689 335.572774 
L 753.073524 312.896387 
L 763.618359 293.459484 
L 768.890777 286.980516 
L 774.163194 285.360774 
L 779.435612 288.600258 
L 784.708029 293.459484 
L 789.980447 299.938452 
L 795.252864 303.177935 
L 800.525282 303.177935 
L 805.797699 298.31871 
L 811.070117 290.22 
L 821.614951 270.783097 
L 826.887369 264.304129 
L 832.159786 262.684387 
L 837.432204 264.304129 
L 842.704621 267.543613 
L 847.977039 272.402839 
L 853.249456 278.881806 
L 858.521874 283.741032 
L 863.794291 286.980516 
L 869.066709 291.839742 
L 874.339126 295.079226 
L 884.883961 304.797677 
L 890.156379 314.516129 
L 895.428796 327.474065 
L 900.701214 342.051742 
L 905.973631 358.249161 
L 911.246049 372.826839 
L 916.518466 382.54529 
L 921.790883 387.404516 
L 927.063301 387.404516 
L 932.335718 385.784774 
L 948.152971 376.066323 
L 953.425388 374.446581 
L 958.697806 371.207097 
L 969.242641 367.967613 
L 974.515058 364.728129 
L 979.787476 363.108387 
L 990.332311 353.389935 
L 995.604728 343.671484 
L 1006.149563 320.995097 
L 1016.694398 301.558194 
L 1021.966816 295.079226 
L 1027.239233 290.22 
L 1032.51165 288.600258 
L 1037.784068 288.600258 
L 1043.056485 290.22 
L 1048.328903 293.459484 
L 1058.873738 296.698968 
L 1064.146155 295.079226 
L 1069.418573 291.839742 
L 1074.69099 286.980516 
L 1079.963408 283.741032 
L 1085.235825 282.12129 
L 1090.508243 283.741032 
L 1095.78066 288.600258 
L 1111.597913 298.31871 
L 1116.87033 299.938452 
L 1122.142748 303.177935 
L 1127.415165 308.037161 
L 1132.687583 311.276645 
L 1137.96 316.135871 
L 1137.96 316.135871 
" style="fill:none;stroke:#000000;stroke-linecap:square;"/>
    <defs>
     <path d="M 0 2.5 
C 0.663008 2.5 1.29895 2.236584 1.767767 1.767767 
C 2.236584 1.29895 2.5 0.663008 2.5 0 
C 2.5 -0.663008 2.236584 -1.29895 1.767767 -1.767767 
C 1.29895 -2.236584 0.663008 -2.5 0 -2.5 
C -0.663008 -2.5 -1.29895 -2.236584 -1.767767 -1.767767 
C -2.236584 -1.29895 -2.5 -0.663008 -2.5 0 
C -2.5 0.663008 -2.236584 1.29895 -1.767767 1.767767 
C -1.29895 2.236584 -0.663008 2.5 0 2.5 
z
" id="m0c3574665c" style="stroke:#000000;"/>
    </defs>
    <g clip-path="url(#p7ead228085)">
     <use style="fill:#ffffff;stroke:#000000;" x="51.842" xlink:href="#m0c3574665c" y="257.825161"/>
     <use style="fill:#ffffff;stroke:#000000;" x="62.386835" xlink:href="#m0c3574665c" y="188.176258"/>
     <use style="fill:#ffffff;stroke:#000000;" x="72.93167" xlink:href="#m0c3574665c" y="152.541935"/>
     <use style="fill:#ffffff;stroke:#000000;" x="83.476505" xlink:href="#m0c3574665c" y="162.260387"/>
     <use style="fill:#ffffff;stroke:#000000;" x="94.02134" xlink:href="#m0c3574665c" y="160.640645"/>
     <use style="fill:#ffffff;stroke:#000000;" x="104.566175" xlink:href="#m0c3574665c" y="162.260387"/>
     <use style="fill:#ffffff;stroke:#000000;" x="115.11101" xlink:href="#m0c3574665c" y="165.499871"/>
     <use style="fill:#ffffff;stroke:#000000;" x="125.655845" xlink:href="#m0c3574665c" y="175.218323"/>
     <use style="fill:#ffffff;stroke:#000000;" x="136.20068" xlink:href="#m0c3574665c" y="196.274968"/>
     <use style="fill:#ffffff;stroke:#000000;" x="146.745515" xlink:href="#m0c3574665c" y="215.711871"/>
     <use style="fill:#ffffff;stroke:#000000;" x="157.29035" xlink:href="#m0c3574665c" y="231.90929"/>
     <use style="fill:#ffffff;stroke:#000000;" x="167.835184" xlink:href="#m0c3574665c" y="265.923871"/>
     <use style="fill:#ffffff;stroke:#000000;" x="178.380019" xlink:href="#m0c3574665c" y="314.516129"/>
     <use style="fill:#ffffff;stroke:#000000;" x="188.924854" xlink:href="#m0c3574665c" y="350.150452"/>
     <use style="fill:#ffffff;stroke:#000000;" x="199.469689" xlink:href="#m0c3574665c" y="358.249161"/>
     <use style="fill:#ffffff;stroke:#000000;" x="210.014524" xlink:href="#m0c3574665c" y="359.868903"/>
     <use style="fill:#ffffff;stroke:#000000;" x="220.559359" xlink:href="#m0c3574665c" y="356.629419"/>
     <use style="fill:#ffffff;stroke:#000000;" x="231.104194" xlink:href="#m0c3574665c" y="342.051742"/>
     <use style="fill:#ffffff;stroke:#000000;" x="241.649029" xlink:href="#m0c3574665c" y="340.432"/>
     <use style="fill:#ffffff;stroke:#000000;" x="252.193864" xlink:href="#m0c3574665c" y="364.728129"/>
     <use style="fill:#ffffff;stroke:#000000;" x="262.738699" xlink:href="#m0c3574665c" y="384.165032"/>
     <use style="fill:#ffffff;stroke:#000000;" x="273.283534" xlink:href="#m0c3574665c" y="379.305806"/>
     <use style="fill:#ffffff;stroke:#000000;" x="283.828369" xlink:href="#m0c3574665c" y="379.305806"/>
     <use style="fill:#ffffff;stroke:#000000;" x="294.373204" xlink:href="#m0c3574665c" y="398.74271"/>
     <use style="fill:#ffffff;stroke:#000000;" x="304.918039" xlink:href="#m0c3574665c" y="416.559871"/>
     <use style="fill:#ffffff;stroke:#000000;" x="315.462874" xlink:href="#m0c3574665c" y="432.75729"/>
     <use style="fill:#ffffff;stroke:#000000;" x="326.007709" xlink:href="#m0c3574665c" y="458.673161"/>
     <use style="fill:#ffffff;stroke:#000000;" x="336.552544" xlink:href="#m0c3574665c" y="468.391613"/>
     <use style="fill:#ffffff;stroke:#000000;" x="347.097379" xlink:href="#m0c3574665c" y="450.574452"/>
     <use style="fill:#ffffff;stroke:#000000;" x="357.642214" xlink:href="#m0c3574665c" y="434.377032"/>
     <use style="fill:#ffffff;stroke:#000000;" x="368.187049" xlink:href="#m0c3574665c" y="429.517806"/>
     <use style="fill:#ffffff;stroke:#000000;" x="378.731883" xlink:href="#m0c3574665c" y="421.419097"/>
     <use style="fill:#ffffff;stroke:#000000;" x="389.276718" xlink:href="#m0c3574665c" y="414.940129"/>
     <use style="fill:#ffffff;stroke:#000000;" x="399.821553" xlink:href="#m0c3574665c" y="421.419097"/>
     <use style="fill:#ffffff;stroke:#000000;" x="410.366388" xlink:href="#m0c3574665c" y="426.278323"/>
     <use style="fill:#ffffff;stroke:#000000;" x="420.911223" xlink:href="#m0c3574665c" y="424.658581"/>
     <use style="fill:#ffffff;stroke:#000000;" x="431.456058" xlink:href="#m0c3574665c" y="424.658581"/>
     <use style="fill:#ffffff;stroke:#000000;" x="442.000893" xlink:href="#m0c3574665c" y="418.179613"/>
     <use style="fill:#ffffff;stroke:#000000;" x="452.545728" xlink:href="#m0c3574665c" y="395.503226"/>
     <use style="fill:#ffffff;stroke:#000000;" x="463.090563" xlink:href="#m0c3574665c" y="377.686065"/>
     <use style="fill:#ffffff;stroke:#000000;" x="473.635398" xlink:href="#m0c3574665c" y="374.446581"/>
     <use style="fill:#ffffff;stroke:#000000;" x="484.180233" xlink:href="#m0c3574665c" y="377.686065"/>
     <use style="fill:#ffffff;stroke:#000000;" x="494.725068" xlink:href="#m0c3574665c" y="384.165032"/>
     <use style="fill:#ffffff;stroke:#000000;" x="505.269903" xlink:href="#m0c3574665c" y="392.263742"/>
     <use style="fill:#ffffff;stroke:#000000;" x="515.814738" xlink:href="#m0c3574665c" y="393.883484"/>
     <use style="fill:#ffffff;stroke:#000000;" x="526.359573" xlink:href="#m0c3574665c" y="374.446581"/>
     <use style="fill:#ffffff;stroke:#000000;" x="536.904408" xlink:href="#m0c3574665c" y="348.53071"/>
     <use style="fill:#ffffff;stroke:#000000;" x="547.449243" xlink:href="#m0c3574665c" y="340.432"/>
     <use style="fill:#ffffff;stroke:#000000;" x="557.994078" xlink:href="#m0c3574665c" y="350.150452"/>
     <use style="fill:#ffffff;stroke:#000000;" x="568.538913" xlink:href="#m0c3574665c" y="361.488645"/>
     <use style="fill:#ffffff;stroke:#000000;" x="579.083748" xlink:href="#m0c3574665c" y="372.826839"/>
     <use style="fill:#ffffff;stroke:#000000;" x="589.628583" xlink:href="#m0c3574665c" y="389.024258"/>
     <use style="fill:#ffffff;stroke:#000000;" x="600.173417" xlink:href="#m0c3574665c" y="408.461161"/>
     <use style="fill:#ffffff;stroke:#000000;" x="610.718252" xlink:href="#m0c3574665c" y="424.658581"/>
     <use style="fill:#ffffff;stroke:#000000;" x="621.263087" xlink:href="#m0c3574665c" y="431.137548"/>
     <use style="fill:#ffffff;stroke:#000000;" x="631.807922" xlink:href="#m0c3574665c" y="423.038839"/>
     <use style="fill:#ffffff;stroke:#000000;" x="642.352757" xlink:href="#m0c3574665c" y="411.700645"/>
     <use style="fill:#ffffff;stroke:#000000;" x="652.897592" xlink:href="#m0c3574665c" y="406.841419"/>
     <use style="fill:#ffffff;stroke:#000000;" x="663.442427" xlink:href="#m0c3574665c" y="408.461161"/>
     <use style="fill:#ffffff;stroke:#000000;" x="673.987262" xlink:href="#m0c3574665c" y="406.841419"/>
     <use style="fill:#ffffff;stroke:#000000;" x="684.532097" xlink:href="#m0c3574665c" y="403.601935"/>
     <use style="fill:#ffffff;stroke:#000000;" x="695.076932" xlink:href="#m0c3574665c" y="408.461161"/>
     <use style="fill:#ffffff;stroke:#000000;" x="705.621767" xlink:href="#m0c3574665c" y="408.461161"/>
     <use style="fill:#ffffff;stroke:#000000;" x="716.166602" xlink:href="#m0c3574665c" y="392.263742"/>
     <use style="fill:#ffffff;stroke:#000000;" x="726.711437" xlink:href="#m0c3574665c" y="367.967613"/>
     <use style="fill:#ffffff;stroke:#000000;" x="737.256272" xlink:href="#m0c3574665c" y="345.291226"/>
     <use style="fill:#ffffff;stroke:#000000;" x="747.801107" xlink:href="#m0c3574665c" y="324.234581"/>
     <use style="fill:#ffffff;stroke:#000000;" x="758.345942" xlink:href="#m0c3574665c" y="303.177935"/>
     <use style="fill:#ffffff;stroke:#000000;" x="768.890777" xlink:href="#m0c3574665c" y="286.980516"/>
     <use style="fill:#ffffff;stroke:#000000;" x="779.435612" xlink:href="#m0c3574665c" y="288.600258"/>
     <use style="fill:#ffffff;stroke:#000000;" x="789.980447" xlink:href="#m0c3574665c" y="299.938452"/>
     <use style="fill:#ffffff;stroke:#000000;" x="800.525282" xlink:href="#m0c3574665c" y="303.177935"/>
     <use style="fill:#ffffff;stroke:#000000;" x="811.070117" xlink:href="#m0c3574665c" y="290.22"/>
     <use style="fill:#ffffff;stroke:#000000;" x="821.614951" xlink:href="#m0c3574665c" y="270.783097"/>
     <use style="fill:#ffffff;stroke:#000000;" x="832.159786" xlink:href="#m0c3574665c" y="262.684387"/>
     <use style="fill:#ffffff;stroke:#000000;" x="842.704621" xlink:href="#m0c3574665c" y="267.543613"/>
     <use style="fill:#ffffff;stroke:#000000;" x="853.249456" xlink:href="#m0c3574665c" y="278.881806"/>
     <use style="fill:#ffffff;stroke:#000000;" x="863.794291" xlink:href="#m0c3574665c" y="286.980516"/>
     <use style="fill:#ffffff;stroke:#000000;" x="874.339126" xlink:href="#m0c3574665c" y="295.079226"/>
     <use style="fill:#ffffff;stroke:#000000;" x="884.883961" xlink:href="#m0c3574665c" y="304.797677"/>
     <use style="fill:#ffffff;stroke:#000000;" x="895.428796" xlink:href="#m0c3574665c" y="327.474065"/>
     <use style="fill:#ffffff;stroke:#000000;" x="905.973631" xlink:href="#m0c3574665c" y="358.249161"/>
     <use style="fill:#ffffff;stroke:#000000;" x="916.518466" xlink:href="#m0c3574665c" y="382.54529"/>
     <use style="fill:#ffffff;stroke:#000000;" x="927.063301" xlink:href="#m0c3574665c" y="387.404516"/>
     <use style="fill:#ffffff;stroke:#000000;" x="937.608136" xlink:href="#m0c3574665c" y="382.54529"/>
     <use style="fill:#ffffff;stroke:#000000;" x="948.152971" xlink:href="#m0c3574665c" y="376.066323"/>
     <use style="fill:#ffffff;stroke:#000000;" x="958.697806" xlink:href="#m0c3574665c" y="371.207097"/>
     <use style="fill:#ffffff;stroke:#000000;" x="969.242641" xlink:href="#m0c3574665c" y="367.967613"/>
     <use style="fill:#ffffff;stroke:#000000;" x="979.787476" xlink:href="#m0c3574665c" y="363.108387"/>
     <use style="fill:#ffffff;stroke:#000000;" x="990.332311" xlink:href="#m0c3574665c" y="353.389935"/>
     <use style="fill:#ffffff;stroke:#000000;" x="1000.877146" xlink:href="#m0c3574665c" y="332.33329"/>
     <use style="fill:#ffffff;stroke:#000000;" x="1011.421981" xlink:href="#m0c3574665c" y="311.276645"/>
     <use style="fill:#ffffff;stroke:#000000;" x="1021.966816" xlink:href="#m0c3574665c" y="295.079226"/>
     <use style="fill:#ffffff;stroke:#000000;" x="1032.51165" xlink:href="#m0c3574665c" y="288.600258"/>
     <use style="fill:#ffffff;stroke:#000000;" x="1043.056485" xlink:href="#m0c3574665c" y="290.22"/>
     <use style="fill:#ffffff;stroke:#000000;" x="1053.60132" xlink:href="#m0c3574665c" y="295.079226"/>
     <use style="fill:#ffffff;stroke:#000000;" x="1064.146155" xlink:href="#m0c3574665c" y="295.079226"/>
     <use style="fill:#ffffff;stroke:#000000;" x="1074.69099" xlink:href="#m0c3574665c" y="286.980516"/>
     <use style="fill:#ffffff;stroke:#000000;" x="1085.235825" xlink:href="#m0c3574665c" y="282.12129"/>
     <use style="fill:#ffffff;stroke:#000000;" x="1095.78066" xlink:href="#m0c3574665c" y="288.600258"/>
     <use style="fill:#ffffff;stroke:#000000;" x="1106.325495" xlink:href="#m0c3574665c" y="295.079226"/>
     <use style="fill:#ffffff;stroke:#000000;" x="1116.87033" xlink:href="#m0c3574665c" y="299.938452"/>
     <use style="fill:#ffffff;stroke:#000000;" x="1127.415165" xlink:href="#m0c3574665c" y="308.037161"/>
     <use style="fill:#ffffff;stroke:#000000;" x="1137.96" xlink:href="#m0c3574665c" y="316.135871"/>
    </g>
   </g>
   <g id="patch_3">
    <path d="M 51.842 541.28 
L 51.842 39.16 
" style="fill:none;stroke:#555555;stroke-linecap:square;stroke-linejoin:miter;"/>
   </g>
   <g id="patch_4">
    <path d="M 51.842 541.28 
L 1137.96 541.28 
" style="fill:none;stroke:#555555;stroke-linecap:square;stroke-linejoin:miter;"/>
   </g>
   <g id="text_12">
    <!-- Last updated on 27 September 2020 with $R_t = 1.29$ and 95% confidence in range $1.09 - 1.47$ -->
    <g style="fill:#555555;" transform="translate(167.761 29.16)scale(0.18 -0.18)">
     <defs>
      <path d="M 9.8125 72.90625 
L 19.671875 72.90625 
L 19.671875 8.296875 
L 55.171875 8.296875 
L 55.171875 0 
L 9.8125 0 
z
" id="DejaVuSans-76"/>
      <path d="M 34.28125 27.484375 
Q 23.390625 27.484375 19.1875 25 
Q 14.984375 22.515625 14.984375 16.5 
Q 14.984375 11.71875 18.140625 8.90625 
Q 21.296875 6.109375 26.703125 6.109375 
Q 34.1875 6.109375 38.703125 11.40625 
Q 43.21875 16.703125 43.21875 25.484375 
L 43.21875 27.484375 
z
M 52.203125 31.203125 
L 52.203125 0 
L 43.21875 0 
L 43.21875 8.296875 
Q 40.140625 3.328125 35.546875 0.953125 
Q 30.953125 -1.421875 24.3125 -1.421875 
Q 15.921875 -1.421875 10.953125 3.296875 
Q 6 8.015625 6 15.921875 
Q 6 25.140625 12.171875 29.828125 
Q 18.359375 34.515625 30.609375 34.515625 
L 43.21875 34.515625 
L 43.21875 35.40625 
Q 43.21875 41.609375 39.140625 45 
Q 35.0625 48.390625 27.6875 48.390625 
Q 23 48.390625 18.546875 47.265625 
Q 14.109375 46.140625 10.015625 43.890625 
L 10.015625 52.203125 
Q 14.9375 54.109375 19.578125 55.046875 
Q 24.21875 56 28.609375 56 
Q 40.484375 56 46.34375 49.84375 
Q 52.203125 43.703125 52.203125 31.203125 
z
" id="DejaVuSans-97"/>
      <path d="M 44.28125 53.078125 
L 44.28125 44.578125 
Q 40.484375 46.53125 36.375 47.5 
Q 32.28125 48.484375 27.875 48.484375 
Q 21.1875 48.484375 17.84375 46.4375 
Q 14.5 44.390625 14.5 40.28125 
Q 14.5 37.15625 16.890625 35.375 
Q 19.28125 33.59375 26.515625 31.984375 
L 29.59375 31.296875 
Q 39.15625 29.25 43.1875 25.515625 
Q 47.21875 21.78125 47.21875 15.09375 
Q 47.21875 7.46875 41.1875 3.015625 
Q 35.15625 -1.421875 24.609375 -1.421875 
Q 20.21875 -1.421875 15.453125 -0.5625 
Q 10.6875 0.296875 5.421875 2 
L 5.421875 11.28125 
Q 10.40625 8.6875 15.234375 7.390625 
Q 20.0625 6.109375 24.8125 6.109375 
Q 31.15625 6.109375 34.5625 8.28125 
Q 37.984375 10.453125 37.984375 14.40625 
Q 37.984375 18.0625 35.515625 20.015625 
Q 33.0625 21.96875 24.703125 23.78125 
L 21.578125 24.515625 
Q 13.234375 26.265625 9.515625 29.90625 
Q 5.8125 33.546875 5.8125 39.890625 
Q 5.8125 47.609375 11.28125 51.796875 
Q 16.75 56 26.8125 56 
Q 31.78125 56 36.171875 55.265625 
Q 40.578125 54.546875 44.28125 53.078125 
z
" id="DejaVuSans-115"/>
      <path d="M 18.3125 70.21875 
L 18.3125 54.6875 
L 36.8125 54.6875 
L 36.8125 47.703125 
L 18.3125 47.703125 
L 18.3125 18.015625 
Q 18.3125 11.328125 20.140625 9.421875 
Q 21.96875 7.515625 27.59375 7.515625 
L 36.8125 7.515625 
L 36.8125 0 
L 27.59375 0 
Q 17.1875 0 13.234375 3.875 
Q 9.28125 7.765625 9.28125 18.015625 
L 9.28125 47.703125 
L 2.6875 47.703125 
L 2.6875 54.6875 
L 9.28125 54.6875 
L 9.28125 70.21875 
z
" id="DejaVuSans-116"/>
      <path id="DejaVuSans-32"/>
      <path d="M 8.5 21.578125 
L 8.5 54.6875 
L 17.484375 54.6875 
L 17.484375 21.921875 
Q 17.484375 14.15625 20.5 10.265625 
Q 23.53125 6.390625 29.59375 6.390625 
Q 36.859375 6.390625 41.078125 11.03125 
Q 45.3125 15.671875 45.3125 23.6875 
L 45.3125 54.6875 
L 54.296875 54.6875 
L 54.296875 0 
L 45.3125 0 
L 45.3125 8.40625 
Q 42.046875 3.421875 37.71875 1 
Q 33.40625 -1.421875 27.6875 -1.421875 
Q 18.265625 -1.421875 13.375 4.4375 
Q 8.5 10.296875 8.5 21.578125 
z
M 31.109375 56 
z
" id="DejaVuSans-117"/>
      <path d="M 18.109375 8.203125 
L 18.109375 -20.796875 
L 9.078125 -20.796875 
L 9.078125 54.6875 
L 18.109375 54.6875 
L 18.109375 46.390625 
Q 20.953125 51.265625 25.265625 53.625 
Q 29.59375 56 35.59375 56 
Q 45.5625 56 51.78125 48.09375 
Q 58.015625 40.1875 58.015625 27.296875 
Q 58.015625 14.40625 51.78125 6.484375 
Q 45.5625 -1.421875 35.59375 -1.421875 
Q 29.59375 -1.421875 25.265625 0.953125 
Q 20.953125 3.328125 18.109375 8.203125 
z
M 48.6875 27.296875 
Q 48.6875 37.203125 44.609375 42.84375 
Q 40.53125 48.484375 33.40625 48.484375 
Q 26.265625 48.484375 22.1875 42.84375 
Q 18.109375 37.203125 18.109375 27.296875 
Q 18.109375 17.390625 22.1875 11.75 
Q 26.265625 6.109375 33.40625 6.109375 
Q 40.53125 6.109375 44.609375 11.75 
Q 48.6875 17.390625 48.6875 27.296875 
z
" id="DejaVuSans-112"/>
      <path d="M 45.40625 46.390625 
L 45.40625 75.984375 
L 54.390625 75.984375 
L 54.390625 0 
L 45.40625 0 
L 45.40625 8.203125 
Q 42.578125 3.328125 38.25 0.953125 
Q 33.9375 -1.421875 27.875 -1.421875 
Q 17.96875 -1.421875 11.734375 6.484375 
Q 5.515625 14.40625 5.515625 27.296875 
Q 5.515625 40.1875 11.734375 48.09375 
Q 17.96875 56 27.875 56 
Q 33.9375 56 38.25 53.625 
Q 42.578125 51.265625 45.40625 46.390625 
z
M 14.796875 27.296875 
Q 14.796875 17.390625 18.875 11.75 
Q 22.953125 6.109375 30.078125 6.109375 
Q 37.203125 6.109375 41.296875 11.75 
Q 45.40625 17.390625 45.40625 27.296875 
Q 45.40625 37.203125 41.296875 42.84375 
Q 37.203125 48.484375 30.078125 48.484375 
Q 22.953125 48.484375 18.875 42.84375 
Q 14.796875 37.203125 14.796875 27.296875 
z
" id="DejaVuSans-100"/>
      <path d="M 56.203125 29.59375 
L 56.203125 25.203125 
L 14.890625 25.203125 
Q 15.484375 15.921875 20.484375 11.0625 
Q 25.484375 6.203125 34.421875 6.203125 
Q 39.59375 6.203125 44.453125 7.46875 
Q 49.3125 8.734375 54.109375 11.28125 
L 54.109375 2.78125 
Q 49.265625 0.734375 44.1875 -0.34375 
Q 39.109375 -1.421875 33.890625 -1.421875 
Q 20.796875 -1.421875 13.15625 6.1875 
Q 5.515625 13.8125 5.515625 26.8125 
Q 5.515625 40.234375 12.765625 48.109375 
Q 20.015625 56 32.328125 56 
Q 43.359375 56 49.78125 48.890625 
Q 56.203125 41.796875 56.203125 29.59375 
z
M 47.21875 32.234375 
Q 47.125 39.59375 43.09375 43.984375 
Q 39.0625 48.390625 32.421875 48.390625 
Q 24.90625 48.390625 20.390625 44.140625 
Q 15.875 39.890625 15.1875 32.171875 
z
" id="DejaVuSans-101"/>
      <path d="M 30.609375 48.390625 
Q 23.390625 48.390625 19.1875 42.75 
Q 14.984375 37.109375 14.984375 27.296875 
Q 14.984375 17.484375 19.15625 11.84375 
Q 23.34375 6.203125 30.609375 6.203125 
Q 37.796875 6.203125 41.984375 11.859375 
Q 46.1875 17.53125 46.1875 27.296875 
Q 46.1875 37.015625 41.984375 42.703125 
Q 37.796875 48.390625 30.609375 48.390625 
z
M 30.609375 56 
Q 42.328125 56 49.015625 48.375 
Q 55.71875 40.765625 55.71875 27.296875 
Q 55.71875 13.875 49.015625 6.21875 
Q 42.328125 -1.421875 30.609375 -1.421875 
Q 18.84375 -1.421875 12.171875 6.21875 
Q 5.515625 13.875 5.515625 27.296875 
Q 5.515625 40.765625 12.171875 48.375 
Q 18.84375 56 30.609375 56 
z
" id="DejaVuSans-111"/>
      <path d="M 54.890625 33.015625 
L 54.890625 0 
L 45.90625 0 
L 45.90625 32.71875 
Q 45.90625 40.484375 42.875 44.328125 
Q 39.84375 48.1875 33.796875 48.1875 
Q 26.515625 48.1875 22.3125 43.546875 
Q 18.109375 38.921875 18.109375 30.90625 
L 18.109375 0 
L 9.078125 0 
L 9.078125 54.6875 
L 18.109375 54.6875 
L 18.109375 46.1875 
Q 21.34375 51.125 25.703125 53.5625 
Q 30.078125 56 35.796875 56 
Q 45.21875 56 50.046875 50.171875 
Q 54.890625 44.34375 54.890625 33.015625 
z
" id="DejaVuSans-110"/>
      <path d="M 19.1875 8.296875 
L 53.609375 8.296875 
L 53.609375 0 
L 7.328125 0 
L 7.328125 8.296875 
Q 12.9375 14.109375 22.625 23.890625 
Q 32.328125 33.6875 34.8125 36.53125 
Q 39.546875 41.84375 41.421875 45.53125 
Q 43.3125 49.21875 43.3125 52.78125 
Q 43.3125 58.59375 39.234375 62.25 
Q 35.15625 65.921875 28.609375 65.921875 
Q 23.96875 65.921875 18.8125 64.3125 
Q 13.671875 62.703125 7.8125 59.421875 
L 7.8125 69.390625 
Q 13.765625 71.78125 18.9375 73 
Q 24.125 74.21875 28.421875 74.21875 
Q 39.75 74.21875 46.484375 68.546875 
Q 53.21875 62.890625 53.21875 53.421875 
Q 53.21875 48.921875 51.53125 44.890625 
Q 49.859375 40.875 45.40625 35.40625 
Q 44.1875 33.984375 37.640625 27.21875 
Q 31.109375 20.453125 19.1875 8.296875 
z
" id="DejaVuSans-50"/>
      <path d="M 8.203125 72.90625 
L 55.078125 72.90625 
L 55.078125 68.703125 
L 28.609375 0 
L 18.3125 0 
L 43.21875 64.59375 
L 8.203125 64.59375 
z
" id="DejaVuSans-55"/>
      <path d="M 53.515625 70.515625 
L 53.515625 60.890625 
Q 47.90625 63.578125 42.921875 64.890625 
Q 37.9375 66.21875 33.296875 66.21875 
Q 25.25 66.21875 20.875 63.09375 
Q 16.5 59.96875 16.5 54.203125 
Q 16.5 49.359375 19.40625 46.890625 
Q 22.3125 44.4375 30.421875 42.921875 
L 36.375 41.703125 
Q 47.40625 39.59375 52.65625 34.296875 
Q 57.90625 29 57.90625 20.125 
Q 57.90625 9.515625 50.796875 4.046875 
Q 43.703125 -1.421875 29.984375 -1.421875 
Q 24.8125 -1.421875 18.96875 -0.25 
Q 13.140625 0.921875 6.890625 3.21875 
L 6.890625 13.375 
Q 12.890625 10.015625 18.65625 8.296875 
Q 24.421875 6.59375 29.984375 6.59375 
Q 38.421875 6.59375 43.015625 9.90625 
Q 47.609375 13.234375 47.609375 19.390625 
Q 47.609375 24.75 44.3125 27.78125 
Q 41.015625 30.8125 33.5 32.328125 
L 27.484375 33.5 
Q 16.453125 35.6875 11.515625 40.375 
Q 6.59375 45.0625 6.59375 53.421875 
Q 6.59375 63.09375 13.40625 68.65625 
Q 20.21875 74.21875 32.171875 74.21875 
Q 37.3125 74.21875 42.625 73.28125 
Q 47.953125 72.359375 53.515625 70.515625 
z
" id="DejaVuSans-83"/>
      <path d="M 52 44.1875 
Q 55.375 50.25 60.0625 53.125 
Q 64.75 56 71.09375 56 
Q 79.640625 56 84.28125 50.015625 
Q 88.921875 44.046875 88.921875 33.015625 
L 88.921875 0 
L 79.890625 0 
L 79.890625 32.71875 
Q 79.890625 40.578125 77.09375 44.375 
Q 74.3125 48.1875 68.609375 48.1875 
Q 61.625 48.1875 57.5625 43.546875 
Q 53.515625 38.921875 53.515625 30.90625 
L 53.515625 0 
L 44.484375 0 
L 44.484375 32.71875 
Q 44.484375 40.625 41.703125 44.40625 
Q 38.921875 48.1875 33.109375 48.1875 
Q 26.21875 48.1875 22.15625 43.53125 
Q 18.109375 38.875 18.109375 30.90625 
L 18.109375 0 
L 9.078125 0 
L 9.078125 54.6875 
L 18.109375 54.6875 
L 18.109375 46.1875 
Q 21.1875 51.21875 25.484375 53.609375 
Q 29.78125 56 35.6875 56 
Q 41.65625 56 45.828125 52.96875 
Q 50 49.953125 52 44.1875 
z
" id="DejaVuSans-109"/>
      <path d="M 48.6875 27.296875 
Q 48.6875 37.203125 44.609375 42.84375 
Q 40.53125 48.484375 33.40625 48.484375 
Q 26.265625 48.484375 22.1875 42.84375 
Q 18.109375 37.203125 18.109375 27.296875 
Q 18.109375 17.390625 22.1875 11.75 
Q 26.265625 6.109375 33.40625 6.109375 
Q 40.53125 6.109375 44.609375 11.75 
Q 48.6875 17.390625 48.6875 27.296875 
z
M 18.109375 46.390625 
Q 20.953125 51.265625 25.265625 53.625 
Q 29.59375 56 35.59375 56 
Q 45.5625 56 51.78125 48.09375 
Q 58.015625 40.1875 58.015625 27.296875 
Q 58.015625 14.40625 51.78125 6.484375 
Q 45.5625 -1.421875 35.59375 -1.421875 
Q 29.59375 -1.421875 25.265625 0.953125 
Q 20.953125 3.328125 18.109375 8.203125 
L 18.109375 0 
L 9.078125 0 
L 9.078125 75.984375 
L 18.109375 75.984375 
z
" id="DejaVuSans-98"/>
      <path d="M 41.109375 46.296875 
Q 39.59375 47.171875 37.8125 47.578125 
Q 36.03125 48 33.890625 48 
Q 26.265625 48 22.1875 43.046875 
Q 18.109375 38.09375 18.109375 28.8125 
L 18.109375 0 
L 9.078125 0 
L 9.078125 54.6875 
L 18.109375 54.6875 
L 18.109375 46.1875 
Q 20.953125 51.171875 25.484375 53.578125 
Q 30.03125 56 36.53125 56 
Q 37.453125 56 38.578125 55.875 
Q 39.703125 55.765625 41.0625 55.515625 
z
" id="DejaVuSans-114"/>
      <path d="M 31.78125 66.40625 
Q 24.171875 66.40625 20.328125 58.90625 
Q 16.5 51.421875 16.5 36.375 
Q 16.5 21.390625 20.328125 13.890625 
Q 24.171875 6.390625 31.78125 6.390625 
Q 39.453125 6.390625 43.28125 13.890625 
Q 47.125 21.390625 47.125 36.375 
Q 47.125 51.421875 43.28125 58.90625 
Q 39.453125 66.40625 31.78125 66.40625 
z
M 31.78125 74.21875 
Q 44.046875 74.21875 50.515625 64.515625 
Q 56.984375 54.828125 56.984375 36.375 
Q 56.984375 17.96875 50.515625 8.265625 
Q 44.046875 -1.421875 31.78125 -1.421875 
Q 19.53125 -1.421875 13.0625 8.265625 
Q 6.59375 17.96875 6.59375 36.375 
Q 6.59375 54.828125 13.0625 64.515625 
Q 19.53125 74.21875 31.78125 74.21875 
z
" id="DejaVuSans-48"/>
      <path d="M 4.203125 54.6875 
L 13.1875 54.6875 
L 24.421875 12.015625 
L 35.59375 54.6875 
L 46.1875 54.6875 
L 57.421875 12.015625 
L 68.609375 54.6875 
L 77.59375 54.6875 
L 63.28125 0 
L 52.6875 0 
L 40.921875 44.828125 
L 29.109375 0 
L 18.5 0 
z
" id="DejaVuSans-119"/>
      <path d="M 9.421875 54.6875 
L 18.40625 54.6875 
L 18.40625 0 
L 9.421875 0 
z
M 9.421875 75.984375 
L 18.40625 75.984375 
L 18.40625 64.59375 
L 9.421875 64.59375 
z
" id="DejaVuSans-105"/>
      <path d="M 54.890625 33.015625 
L 54.890625 0 
L 45.90625 0 
L 45.90625 32.71875 
Q 45.90625 40.484375 42.875 44.328125 
Q 39.84375 48.1875 33.796875 48.1875 
Q 26.515625 48.1875 22.3125 43.546875 
Q 18.109375 38.921875 18.109375 30.90625 
L 18.109375 0 
L 9.078125 0 
L 9.078125 75.984375 
L 18.109375 75.984375 
L 18.109375 46.1875 
Q 21.34375 51.125 25.703125 53.5625 
Q 30.078125 56 35.796875 56 
Q 45.21875 56 50.046875 50.171875 
Q 54.890625 44.34375 54.890625 33.015625 
z
" id="DejaVuSans-104"/>
      <path d="M 10.59375 48.1875 
L 73.1875 48.1875 
L 73.1875 36.71875 
L 10.59375 36.71875 
z
M 10.59375 25.984375 
L 73.1875 25.984375 
L 73.1875 14.40625 
L 10.59375 14.40625 
z
" id="DejaVuSans-Bold-61"/>
      <path d="M 10.203125 18.890625 
L 27.78125 18.890625 
L 27.78125 0 
L 10.203125 0 
z
" id="DejaVuSans-Bold-46"/>
      <path d="M 10.015625 1.609375 
L 10.015625 15.09375 
Q 14.5 12.984375 18.59375 11.9375 
Q 22.703125 10.890625 26.703125 10.890625 
Q 35.109375 10.890625 39.796875 15.546875 
Q 44.484375 20.21875 45.3125 29.390625 
Q 42 26.953125 38.234375 25.734375 
Q 34.46875 24.515625 30.078125 24.515625 
Q 18.890625 24.515625 12.03125 31.03125 
Q 5.171875 37.546875 5.171875 48.1875 
Q 5.171875 59.96875 12.8125 67.046875 
Q 20.453125 74.125 33.296875 74.125 
Q 47.5625 74.125 55.375 64.5 
Q 63.1875 54.890625 63.1875 37.3125 
Q 63.1875 19.234375 54.046875 8.90625 
Q 44.921875 -1.421875 29 -1.421875 
Q 23.875 -1.421875 19.1875 -0.65625 
Q 14.5 0.09375 10.015625 1.609375 
z
M 33.203125 36.71875 
Q 38.140625 36.71875 40.625 39.90625 
Q 43.109375 43.109375 43.109375 49.515625 
Q 43.109375 55.859375 40.625 59.078125 
Q 38.140625 62.3125 33.203125 62.3125 
Q 28.265625 62.3125 25.78125 59.078125 
Q 23.296875 55.859375 23.296875 49.515625 
Q 23.296875 43.109375 25.78125 39.90625 
Q 28.265625 36.71875 33.203125 36.71875 
z
" id="DejaVuSans-Bold-57"/>
      <path d="M 10.984375 1.515625 
L 10.984375 10.5 
Q 14.703125 8.734375 18.5 7.8125 
Q 22.3125 6.890625 25.984375 6.890625 
Q 35.75 6.890625 40.890625 13.453125 
Q 46.046875 20.015625 46.78125 33.40625 
Q 43.953125 29.203125 39.59375 26.953125 
Q 35.25 24.703125 29.984375 24.703125 
Q 19.046875 24.703125 12.671875 31.3125 
Q 6.296875 37.9375 6.296875 49.421875 
Q 6.296875 60.640625 12.9375 67.421875 
Q 19.578125 74.21875 30.609375 74.21875 
Q 43.265625 74.21875 49.921875 64.515625 
Q 56.59375 54.828125 56.59375 36.375 
Q 56.59375 19.140625 48.40625 8.859375 
Q 40.234375 -1.421875 26.421875 -1.421875 
Q 22.703125 -1.421875 18.890625 -0.6875 
Q 15.09375 0.046875 10.984375 1.515625 
z
M 30.609375 32.421875 
Q 37.25 32.421875 41.125 36.953125 
Q 45.015625 41.5 45.015625 49.421875 
Q 45.015625 57.28125 41.125 61.84375 
Q 37.25 66.40625 30.609375 66.40625 
Q 23.96875 66.40625 20.09375 61.84375 
Q 16.21875 57.28125 16.21875 49.421875 
Q 16.21875 41.5 20.09375 36.953125 
Q 23.96875 32.421875 30.609375 32.421875 
z
" id="DejaVuSans-57"/>
      <path d="M 10.796875 72.90625 
L 49.515625 72.90625 
L 49.515625 64.59375 
L 19.828125 64.59375 
L 19.828125 46.734375 
Q 21.96875 47.46875 24.109375 47.828125 
Q 26.265625 48.1875 28.421875 48.1875 
Q 40.625 48.1875 47.75 41.5 
Q 54.890625 34.8125 54.890625 23.390625 
Q 54.890625 11.625 47.5625 5.09375 
Q 40.234375 -1.421875 26.90625 -1.421875 
Q 22.3125 -1.421875 17.546875 -0.640625 
Q 12.796875 0.140625 7.71875 1.703125 
L 7.71875 11.625 
Q 12.109375 9.234375 16.796875 8.0625 
Q 21.484375 6.890625 26.703125 6.890625 
Q 35.15625 6.890625 40.078125 11.328125 
Q 45.015625 15.765625 45.015625 23.390625 
Q 45.015625 31 40.078125 35.4375 
Q 35.15625 39.890625 26.703125 39.890625 
Q 22.75 39.890625 18.8125 39.015625 
Q 14.890625 38.140625 10.796875 36.28125 
z
" id="DejaVuSans-53"/>
      <path d="M 72.703125 32.078125 
Q 68.453125 32.078125 66.03125 28.46875 
Q 63.625 24.859375 63.625 18.40625 
Q 63.625 12.0625 66.03125 8.421875 
Q 68.453125 4.78125 72.703125 4.78125 
Q 76.859375 4.78125 79.265625 8.421875 
Q 81.6875 12.0625 81.6875 18.40625 
Q 81.6875 24.8125 79.265625 28.4375 
Q 76.859375 32.078125 72.703125 32.078125 
z
M 72.703125 38.28125 
Q 80.421875 38.28125 84.953125 32.90625 
Q 89.5 27.546875 89.5 18.40625 
Q 89.5 9.28125 84.9375 3.921875 
Q 80.375 -1.421875 72.703125 -1.421875 
Q 64.890625 -1.421875 60.34375 3.921875 
Q 55.8125 9.28125 55.8125 18.40625 
Q 55.8125 27.59375 60.375 32.9375 
Q 64.9375 38.28125 72.703125 38.28125 
z
M 22.3125 68.015625 
Q 18.109375 68.015625 15.6875 64.375 
Q 13.28125 60.75 13.28125 54.390625 
Q 13.28125 47.953125 15.671875 44.328125 
Q 18.0625 40.71875 22.3125 40.71875 
Q 26.5625 40.71875 28.96875 44.328125 
Q 31.390625 47.953125 31.390625 54.390625 
Q 31.390625 60.6875 28.953125 64.34375 
Q 26.515625 68.015625 22.3125 68.015625 
z
M 66.40625 74.21875 
L 74.21875 74.21875 
L 28.609375 -1.421875 
L 20.796875 -1.421875 
z
M 22.3125 74.21875 
Q 30.03125 74.21875 34.609375 68.875 
Q 39.203125 63.53125 39.203125 54.390625 
Q 39.203125 45.171875 34.640625 39.84375 
Q 30.078125 34.515625 22.3125 34.515625 
Q 14.546875 34.515625 10.03125 39.859375 
Q 5.515625 45.21875 5.515625 54.390625 
Q 5.515625 63.484375 10.046875 68.84375 
Q 14.59375 74.21875 22.3125 74.21875 
z
" id="DejaVuSans-37"/>
      <path d="M 48.78125 52.59375 
L 48.78125 44.1875 
Q 44.96875 46.296875 41.140625 47.34375 
Q 37.3125 48.390625 33.40625 48.390625 
Q 24.65625 48.390625 19.8125 42.84375 
Q 14.984375 37.3125 14.984375 27.296875 
Q 14.984375 17.28125 19.8125 11.734375 
Q 24.65625 6.203125 33.40625 6.203125 
Q 37.3125 6.203125 41.140625 7.25 
Q 44.96875 8.296875 48.78125 10.40625 
L 48.78125 2.09375 
Q 45.015625 0.34375 40.984375 -0.53125 
Q 36.96875 -1.421875 32.421875 -1.421875 
Q 20.0625 -1.421875 12.78125 6.34375 
Q 5.515625 14.109375 5.515625 27.296875 
Q 5.515625 40.671875 12.859375 48.328125 
Q 20.21875 56 33.015625 56 
Q 37.15625 56 41.109375 55.140625 
Q 45.0625 54.296875 48.78125 52.59375 
z
" id="DejaVuSans-99"/>
      <path d="M 37.109375 75.984375 
L 37.109375 68.5 
L 28.515625 68.5 
Q 23.6875 68.5 21.796875 66.546875 
Q 19.921875 64.59375 19.921875 59.515625 
L 19.921875 54.6875 
L 34.71875 54.6875 
L 34.71875 47.703125 
L 19.921875 47.703125 
L 19.921875 0 
L 10.890625 0 
L 10.890625 47.703125 
L 2.296875 47.703125 
L 2.296875 54.6875 
L 10.890625 54.6875 
L 10.890625 58.5 
Q 10.890625 67.625 15.140625 71.796875 
Q 19.390625 75.984375 28.609375 75.984375 
z
" id="DejaVuSans-102"/>
      <path d="M 45.40625 27.984375 
Q 45.40625 37.75 41.375 43.109375 
Q 37.359375 48.484375 30.078125 48.484375 
Q 22.859375 48.484375 18.828125 43.109375 
Q 14.796875 37.75 14.796875 27.984375 
Q 14.796875 18.265625 18.828125 12.890625 
Q 22.859375 7.515625 30.078125 7.515625 
Q 37.359375 7.515625 41.375 12.890625 
Q 45.40625 18.265625 45.40625 27.984375 
z
M 54.390625 6.78125 
Q 54.390625 -7.171875 48.1875 -13.984375 
Q 42 -20.796875 29.203125 -20.796875 
Q 24.46875 -20.796875 20.265625 -20.09375 
Q 16.0625 -19.390625 12.109375 -17.921875 
L 12.109375 -9.1875 
Q 16.0625 -11.328125 19.921875 -12.34375 
Q 23.78125 -13.375 27.78125 -13.375 
Q 36.625 -13.375 41.015625 -8.765625 
Q 45.40625 -4.15625 45.40625 5.171875 
L 45.40625 9.625 
Q 42.625 4.78125 38.28125 2.390625 
Q 33.9375 0 27.875 0 
Q 17.828125 0 11.671875 7.65625 
Q 5.515625 15.328125 5.515625 27.984375 
Q 5.515625 40.671875 11.671875 48.328125 
Q 17.828125 56 27.875 56 
Q 33.9375 56 38.28125 53.609375 
Q 42.625 51.21875 45.40625 46.390625 
L 45.40625 54.6875 
L 54.390625 54.6875 
z
" id="DejaVuSans-103"/>
      <path d="M 10.59375 37.109375 
L 73.1875 37.109375 
L 73.1875 25.59375 
L 10.59375 25.59375 
z
" id="DejaVuSans-Bold-8722"/>
      <path d="M 36.8125 57.421875 
L 16.21875 26.90625 
L 36.8125 26.90625 
z
M 33.6875 72.90625 
L 54.59375 72.90625 
L 54.59375 26.90625 
L 64.984375 26.90625 
L 64.984375 13.28125 
L 54.59375 13.28125 
L 54.59375 0 
L 36.8125 0 
L 36.8125 13.28125 
L 4.5 13.28125 
L 4.5 29.390625 
z
" id="DejaVuSans-Bold-52"/>
      <path d="M 6.6875 72.90625 
L 61.625 72.90625 
L 61.625 62.3125 
L 33.203125 0 
L 14.890625 0 
L 41.796875 59.078125 
L 6.6875 59.078125 
z
" id="DejaVuSans-Bold-55"/>
     </defs>
     <use transform="translate(0 0.015625)" xlink:href="#DejaVuSans-76"/>
     <use transform="translate(55.712891 0.015625)" xlink:href="#DejaVuSans-97"/>
     <use transform="translate(116.992188 0.015625)" xlink:href="#DejaVuSans-115"/>
     <use transform="translate(169.091797 0.015625)" xlink:href="#DejaVuSans-116"/>
     <use transform="translate(208.300781 0.015625)" xlink:href="#DejaVuSans-32"/>
     <use transform="translate(240.087891 0.015625)" xlink:href="#DejaVuSans-117"/>
     <use transform="translate(303.466797 0.015625)" xlink:href="#DejaVuSans-112"/>
     <use transform="translate(366.943359 0.015625)" xlink:href="#DejaVuSans-100"/>
     <use transform="translate(430.419922 0.015625)" xlink:href="#DejaVuSans-97"/>
     <use transform="translate(491.699219 0.015625)" xlink:href="#DejaVuSans-116"/>
     <use transform="translate(530.908203 0.015625)" xlink:href="#DejaVuSans-101"/>
     <use transform="translate(592.431641 0.015625)" xlink:href="#DejaVuSans-100"/>
     <use transform="translate(655.908203 0.015625)" xlink:href="#DejaVuSans-32"/>
     <use transform="translate(687.695312 0.015625)" xlink:href="#DejaVuSans-111"/>
     <use transform="translate(748.876953 0.015625)" xlink:href="#DejaVuSans-110"/>
     <use transform="translate(812.255859 0.015625)" xlink:href="#DejaVuSans-32"/>
     <use transform="translate(844.042969 0.015625)" xlink:href="#DejaVuSans-50"/>
     <use transform="translate(907.666016 0.015625)" xlink:href="#DejaVuSans-55"/>
     <use transform="translate(971.289062 0.015625)" xlink:href="#DejaVuSans-32"/>
     <use transform="translate(1003.076172 0.015625)" xlink:href="#DejaVuSans-83"/>
     <use transform="translate(1066.552734 0.015625)" xlink:href="#DejaVuSans-101"/>
     <use transform="translate(1128.076172 0.015625)" xlink:href="#DejaVuSans-112"/>
     <use transform="translate(1191.552734 0.015625)" xlink:href="#DejaVuSans-116"/>
     <use transform="translate(1230.761719 0.015625)" xlink:href="#DejaVuSans-101"/>
     <use transform="translate(1292.285156 0.015625)" xlink:href="#DejaVuSans-109"/>
     <use transform="translate(1389.697266 0.015625)" xlink:href="#DejaVuSans-98"/>
     <use transform="translate(1453.173828 0.015625)" xlink:href="#DejaVuSans-101"/>
     <use transform="translate(1514.697266 0.015625)" xlink:href="#DejaVuSans-114"/>
     <use transform="translate(1555.810547 0.015625)" xlink:href="#DejaVuSans-32"/>
     <use transform="translate(1587.597656 0.015625)" xlink:href="#DejaVuSans-50"/>
     <use transform="translate(1651.220703 0.015625)" xlink:href="#DejaVuSans-48"/>
     <use transform="translate(1714.84375 0.015625)" xlink:href="#DejaVuSans-50"/>
     <use transform="translate(1778.466797 0.015625)" xlink:href="#DejaVuSans-48"/>
     <use transform="translate(1842.089844 0.015625)" xlink:href="#DejaVuSans-32"/>
     <use transform="translate(1873.876953 0.015625)" xlink:href="#DejaVuSans-119"/>
     <use transform="translate(1955.664062 0.015625)" xlink:href="#DejaVuSans-105"/>
     <use transform="translate(1983.447266 0.015625)" xlink:href="#DejaVuSans-116"/>
     <use transform="translate(2022.65625 0.015625)" xlink:href="#DejaVuSans-104"/>
     <use transform="translate(2086.035156 0.015625)" xlink:href="#DejaVuSans-32"/>
     <use transform="translate(2117.822266 0.015625)" xlink:href="#DejaVuSans-BoldOblique-82"/>
     <use transform="translate(2194.824219 -16.390625)scale(0.7)" xlink:href="#DejaVuSans-BoldOblique-116"/>
     <use transform="translate(2251.860352 0.015625)" xlink:href="#DejaVuSans-Bold-61"/>
     <use transform="translate(2356.489258 0.015625)" xlink:href="#DejaVuSans-Bold-49"/>
     <use transform="translate(2426.069336 0.015625)" xlink:href="#DejaVuSans-Bold-46"/>
     <use transform="translate(2459.557617 0.015625)" xlink:href="#DejaVuSans-Bold-50"/>
     <use transform="translate(2526.512695 0.015625)" xlink:href="#DejaVuSans-Bold-57"/>
     <use transform="translate(2596.092773 0.015625)" xlink:href="#DejaVuSans-32"/>
     <use transform="translate(2627.879883 0.015625)" xlink:href="#DejaVuSans-97"/>
     <use transform="translate(2689.15918 0.015625)" xlink:href="#DejaVuSans-110"/>
     <use transform="translate(2752.538086 0.015625)" xlink:href="#DejaVuSans-100"/>
     <use transform="translate(2816.014648 0.015625)" xlink:href="#DejaVuSans-32"/>
     <use transform="translate(2847.801758 0.015625)" xlink:href="#DejaVuSans-57"/>
     <use transform="translate(2911.424805 0.015625)" xlink:href="#DejaVuSans-53"/>
     <use transform="translate(2975.047852 0.015625)" xlink:href="#DejaVuSans-37"/>
     <use transform="translate(3070.067383 0.015625)" xlink:href="#DejaVuSans-32"/>
     <use transform="translate(3101.854492 0.015625)" xlink:href="#DejaVuSans-99"/>
     <use transform="translate(3156.834961 0.015625)" xlink:href="#DejaVuSans-111"/>
     <use transform="translate(3218.016602 0.015625)" xlink:href="#DejaVuSans-110"/>
     <use transform="translate(3281.395508 0.015625)" xlink:href="#DejaVuSans-102"/>
     <use transform="translate(3316.600586 0.015625)" xlink:href="#DejaVuSans-105"/>
     <use transform="translate(3344.383789 0.015625)" xlink:href="#DejaVuSans-100"/>
     <use transform="translate(3407.860352 0.015625)" xlink:href="#DejaVuSans-101"/>
     <use transform="translate(3469.383789 0.015625)" xlink:href="#DejaVuSans-110"/>
     <use transform="translate(3532.762695 0.015625)" xlink:href="#DejaVuSans-99"/>
     <use transform="translate(3587.743164 0.015625)" xlink:href="#DejaVuSans-101"/>
     <use transform="translate(3649.266602 0.015625)" xlink:href="#DejaVuSans-32"/>
     <use transform="translate(3681.053711 0.015625)" xlink:href="#DejaVuSans-105"/>
     <use transform="translate(3708.836914 0.015625)" xlink:href="#DejaVuSans-110"/>
     <use transform="translate(3772.21582 0.015625)" xlink:href="#DejaVuSans-32"/>
     <use transform="translate(3804.00293 0.015625)" xlink:href="#DejaVuSans-114"/>
     <use transform="translate(3845.116211 0.015625)" xlink:href="#DejaVuSans-97"/>
     <use transform="translate(3906.395508 0.015625)" xlink:href="#DejaVuSans-110"/>
     <use transform="translate(3969.774414 0.015625)" xlink:href="#DejaVuSans-103"/>
     <use transform="translate(4033.250977 0.015625)" xlink:href="#DejaVuSans-101"/>
     <use transform="translate(4094.774414 0.015625)" xlink:href="#DejaVuSans-32"/>
     <use transform="translate(4126.561523 0.015625)" xlink:href="#DejaVuSans-Bold-49"/>
     <use transform="translate(4196.141602 0.015625)" xlink:href="#DejaVuSans-Bold-46"/>
     <use transform="translate(4234.129883 0.015625)" xlink:href="#DejaVuSans-Bold-48"/>
     <use transform="translate(4303.709961 0.015625)" xlink:href="#DejaVuSans-Bold-57"/>
     <use transform="translate(4394.129883 0.015625)" xlink:href="#DejaVuSans-Bold-8722"/>
     <use transform="translate(4498.758789 0.015625)" xlink:href="#DejaVuSans-Bold-49"/>
     <use transform="translate(4568.338867 0.015625)" xlink:href="#DejaVuSans-Bold-46"/>
     <use transform="translate(4606.327148 0.015625)" xlink:href="#DejaVuSans-Bold-52"/>
     <use transform="translate(4675.907227 0.015625)" xlink:href="#DejaVuSans-Bold-55"/>
    </g>
   </g>
   <g id="legend_1">
    <g id="line2d_13">
     <path d="M 952.2 60.12 
L 984.2 60.12 
" style="fill:none;stroke:#000000;stroke-linecap:square;"/>
    </g>
    <g id="line2d_14">
     <g>
      <use style="fill:#ffffff;stroke:#000000;" x="968.2" xlink:href="#m0c3574665c" y="60.12"/>
     </g>
    </g>
    <g id="text_13">
     <!-- Most Likely $R_t$ -->
     <g style="fill:#555555;" transform="translate(997 65.72)scale(0.16 -0.16)">
      <defs>
       <path d="M 34.421875 43.5 
Q 28.609375 43.5 25.5625 39.328125 
Q 22.515625 35.15625 22.515625 27.296875 
Q 22.515625 19.4375 25.5625 15.25 
Q 28.609375 11.078125 34.421875 11.078125 
Q 40.140625 11.078125 43.15625 15.25 
Q 46.1875 19.4375 46.1875 27.296875 
Q 46.1875 35.15625 43.15625 39.328125 
Q 40.140625 43.5 34.421875 43.5 
z
M 34.421875 56 
Q 48.53125 56 56.46875 48.375 
Q 64.40625 40.765625 64.40625 27.296875 
Q 64.40625 13.8125 56.46875 6.1875 
Q 48.53125 -1.421875 34.421875 -1.421875 
Q 20.265625 -1.421875 12.28125 6.1875 
Q 4.296875 13.8125 4.296875 27.296875 
Q 4.296875 40.765625 12.28125 48.375 
Q 20.265625 56 34.421875 56 
z
" id="DejaVuSans-Bold-111"/>
       <path id="DejaVuSans-Bold-32"/>
       <path d="M 9.1875 72.90625 
L 27.984375 72.90625 
L 27.984375 14.203125 
L 60.984375 14.203125 
L 60.984375 0 
L 9.1875 0 
z
" id="DejaVuSans-Bold-76"/>
       <path d="M 8.40625 75.984375 
L 25.875 75.984375 
L 25.875 34.625 
L 46 54.6875 
L 66.3125 54.6875 
L 39.59375 29.59375 
L 68.40625 0 
L 47.21875 0 
L 25.875 22.796875 
L 25.875 0 
L 8.40625 0 
z
" id="DejaVuSans-Bold-107"/>
      </defs>
      <use transform="translate(0 0.015625)" xlink:href="#DejaVuSans-Bold-77"/>
      <use transform="translate(99.511719 0.015625)" xlink:href="#DejaVuSans-Bold-111"/>
      <use transform="translate(168.212891 0.015625)" xlink:href="#DejaVuSans-Bold-115"/>
      <use transform="translate(227.734375 0.015625)" xlink:href="#DejaVuSans-Bold-116"/>
      <use transform="translate(275.537109 0.015625)" xlink:href="#DejaVuSans-Bold-32"/>
      <use transform="translate(310.351562 0.015625)" xlink:href="#DejaVuSans-Bold-76"/>
      <use transform="translate(374.072266 0.015625)" xlink:href="#DejaVuSans-Bold-105"/>
      <use transform="translate(408.349609 0.015625)" xlink:href="#DejaVuSans-Bold-107"/>
      <use transform="translate(474.853516 0.015625)" xlink:href="#DejaVuSans-Bold-101"/>
      <use transform="translate(542.675781 0.015625)" xlink:href="#DejaVuSans-Bold-108"/>
      <use transform="translate(576.953125 0.015625)" xlink:href="#DejaVuSans-Bold-121"/>
      <use transform="translate(642.138672 0.015625)" xlink:href="#DejaVuSans-Bold-32"/>
      <use transform="translate(676.953125 0.015625)" xlink:href="#DejaVuSans-BoldOblique-82"/>
      <use transform="translate(753.955078 -16.390625)scale(0.7)" xlink:href="#DejaVuSans-BoldOblique-116"/>
     </g>
    </g>
    <g id="patch_5">
     <path d="M 952.2 89.3975 
L 984.2 89.3975 
L 984.2 78.1975 
L 952.2 78.1975 
z
" style="fill:#e6e6e6;stroke:#e6e6e6;stroke-linejoin:miter;"/>
    </g>
    <g id="text_14">
     <!-- 95% CI -->
     <g style="fill:#555555;" transform="translate(997 89.3975)scale(0.16 -0.16)">
      <defs>
       <path d="M 10.59375 72.90625 
L 57.328125 72.90625 
L 57.328125 59.078125 
L 25.59375 59.078125 
L 25.59375 47.796875 
Q 27.734375 48.390625 29.90625 48.703125 
Q 32.078125 49.03125 34.421875 49.03125 
Q 47.75 49.03125 55.171875 42.359375 
Q 62.59375 35.6875 62.59375 23.78125 
Q 62.59375 11.96875 54.515625 5.265625 
Q 46.4375 -1.421875 32.078125 -1.421875 
Q 25.875 -1.421875 19.796875 -0.21875 
Q 13.71875 0.984375 7.71875 3.421875 
L 7.71875 18.21875 
Q 13.671875 14.796875 19.015625 13.078125 
Q 24.359375 11.375 29.109375 11.375 
Q 35.9375 11.375 39.859375 14.71875 
Q 43.796875 18.0625 43.796875 23.78125 
Q 43.796875 29.546875 39.859375 32.859375 
Q 35.9375 36.1875 29.109375 36.1875 
Q 25.046875 36.1875 20.453125 35.125 
Q 15.875 34.078125 10.59375 31.890625 
z
" id="DejaVuSans-Bold-53"/>
       <path d="M 77.484375 30.078125 
Q 74.03125 30.078125 72.125 27.078125 
Q 70.21875 24.078125 70.21875 18.5 
Q 70.21875 12.890625 72.09375 9.890625 
Q 73.96875 6.890625 77.484375 6.890625 
Q 81 6.890625 82.859375 9.890625 
Q 84.71875 12.890625 84.71875 18.5 
Q 84.71875 24.078125 82.828125 27.078125 
Q 80.953125 30.078125 77.484375 30.078125 
z
M 77.484375 38.28125 
Q 86.578125 38.28125 91.796875 33 
Q 97.015625 27.734375 97.015625 18.5 
Q 97.015625 9.28125 91.796875 3.921875 
Q 86.578125 -1.421875 77.484375 -1.421875 
Q 68.40625 -1.421875 63.15625 3.921875 
Q 57.90625 9.28125 57.90625 18.5 
Q 57.90625 27.6875 63.15625 32.984375 
Q 68.40625 38.28125 77.484375 38.28125 
z
M 32.71875 -1.421875 
L 21.921875 -1.421875 
L 67.484375 74.21875 
L 78.328125 74.21875 
z
M 22.703125 74.21875 
Q 31.78125 74.21875 36.984375 68.921875 
Q 42.1875 63.625 42.1875 54.390625 
Q 42.1875 45.171875 36.984375 39.84375 
Q 31.78125 34.515625 22.703125 34.515625 
Q 13.625 34.515625 8.421875 39.84375 
Q 3.21875 45.171875 3.21875 54.390625 
Q 3.21875 63.625 8.421875 68.921875 
Q 13.625 74.21875 22.703125 74.21875 
z
M 22.703125 66.015625 
Q 19.1875 66.015625 17.28125 62.984375 
Q 15.375 59.96875 15.375 54.390625 
Q 15.375 48.78125 17.28125 45.71875 
Q 19.1875 42.671875 22.703125 42.671875 
Q 26.21875 42.671875 28.09375 45.71875 
Q 29.984375 48.78125 29.984375 54.390625 
Q 29.984375 59.96875 28.078125 62.984375 
Q 26.171875 66.015625 22.703125 66.015625 
z
" id="DejaVuSans-Bold-37"/>
       <path d="M 67 4 
Q 61.8125 1.3125 56.203125 -0.046875 
Q 50.59375 -1.421875 44.484375 -1.421875 
Q 26.265625 -1.421875 15.625 8.765625 
Q 4.984375 18.953125 4.984375 36.375 
Q 4.984375 53.859375 15.625 64.03125 
Q 26.265625 74.21875 44.484375 74.21875 
Q 50.59375 74.21875 56.203125 72.84375 
Q 61.8125 71.484375 67 68.796875 
L 67 53.71875 
Q 61.765625 57.28125 56.6875 58.9375 
Q 51.609375 60.59375 46 60.59375 
Q 35.9375 60.59375 30.171875 54.140625 
Q 24.421875 47.703125 24.421875 36.375 
Q 24.421875 25.09375 30.171875 18.640625 
Q 35.9375 12.203125 46 12.203125 
Q 51.609375 12.203125 56.6875 13.859375 
Q 61.765625 15.53125 67 19.09375 
z
" id="DejaVuSans-Bold-67"/>
       <path d="M 9.1875 72.90625 
L 27.984375 72.90625 
L 27.984375 0 
L 9.1875 0 
z
" id="DejaVuSans-Bold-73"/>
      </defs>
      <use xlink:href="#DejaVuSans-Bold-57"/>
      <use x="69.580078" xlink:href="#DejaVuSans-Bold-53"/>
      <use x="139.160156" xlink:href="#DejaVuSans-Bold-37"/>
      <use x="239.355469" xlink:href="#DejaVuSans-Bold-32"/>
      <use x="274.169922" xlink:href="#DejaVuSans-Bold-67"/>
      <use x="347.558594" xlink:href="#DejaVuSans-Bold-73"/>
     </g>
    </g>
    <g id="patch_6">
     <path d="M 952.2 112.8825 
L 984.2 112.8825 
L 984.2 101.6825 
L 952.2 101.6825 
z
" style="fill:#c8c8c8;stroke:#c8c8c8;stroke-linejoin:miter;"/>
    </g>
    <g id="text_15">
     <!-- 65% CI -->
     <g style="fill:#555555;" transform="translate(997 112.8825)scale(0.16 -0.16)">
      <defs>
       <path d="M 36.1875 35.984375 
Q 31.25 35.984375 28.78125 32.78125 
Q 26.3125 29.59375 26.3125 23.1875 
Q 26.3125 16.796875 28.78125 13.59375 
Q 31.25 10.40625 36.1875 10.40625 
Q 41.15625 10.40625 43.625 13.59375 
Q 46.09375 16.796875 46.09375 23.1875 
Q 46.09375 29.59375 43.625 32.78125 
Q 41.15625 35.984375 36.1875 35.984375 
z
M 59.421875 71 
L 59.421875 57.515625 
Q 54.78125 59.71875 50.671875 60.765625 
Q 46.578125 61.8125 42.671875 61.8125 
Q 34.28125 61.8125 29.59375 57.140625 
Q 24.90625 52.484375 24.125 43.3125 
Q 27.34375 45.703125 31.09375 46.890625 
Q 34.859375 48.09375 39.3125 48.09375 
Q 50.484375 48.09375 57.34375 41.546875 
Q 64.203125 35.015625 64.203125 24.421875 
Q 64.203125 12.703125 56.53125 5.640625 
Q 48.875 -1.421875 35.984375 -1.421875 
Q 21.78125 -1.421875 13.984375 8.171875 
Q 6.203125 17.78125 6.203125 35.40625 
Q 6.203125 53.46875 15.3125 63.796875 
Q 24.421875 74.125 40.28125 74.125 
Q 45.3125 74.125 50.046875 73.34375 
Q 54.78125 72.5625 59.421875 71 
z
" id="DejaVuSans-Bold-54"/>
      </defs>
      <use xlink:href="#DejaVuSans-Bold-54"/>
      <use x="69.580078" xlink:href="#DejaVuSans-Bold-53"/>
      <use x="139.160156" xlink:href="#DejaVuSans-Bold-37"/>
      <use x="239.355469" xlink:href="#DejaVuSans-Bold-32"/>
      <use x="274.169922" xlink:href="#DejaVuSans-Bold-67"/>
      <use x="347.558594" xlink:href="#DejaVuSans-Bold-73"/>
     </g>
    </g>
   </g>
  </g>
 </g>
 <defs>
  <clipPath id="p7ead228085">
   <rect height="502.12" width="1086.118" x="51.842" y="39.16"/>
  </clipPath>
 </defs>
</svg>
