<?xml version="1.0" encoding="utf-8" standalone="no"?>
<!DOCTYPE svg PUBLIC "-//W3C//DTD SVG 1.1//EN"
  "http://www.w3.org/Graphics/SVG/1.1/DTD/svg11.dtd">
<!-- Created with matplotlib (https://matplotlib.org/) -->
<svg height="576pt" version="1.1" viewBox="0 0 1152 576" width="1152pt" xmlns="http://www.w3.org/2000/svg" xmlns:xlink="http://www.w3.org/1999/xlink">
 <metadata>
  <rdf:RDF xmlns:cc="http://creativecommons.org/ns#" xmlns:dc="http://purl.org/dc/elements/1.1/" xmlns:rdf="http://www.w3.org/1999/02/22-rdf-syntax-ns#">
   <cc:Work>
    <dc:type rdf:resource="http://purl.org/dc/dcmitype/StillImage"/>
    <dc:date>2020-09-17T17:17:49.670931</dc:date>
    <dc:format>image/svg+xml</dc:format>
    <dc:creator>
     <cc:Agent>
      <dc:title>Matplotlib v3.3.2, https://matplotlib.org/</dc:title>
     </cc:Agent>
    </dc:creator>
   </cc:Work>
  </rdf:RDF>
 </metadata>
 <defs>
  <style type="text/css">*{stroke-linecap:butt;stroke-linejoin:round;}</style>
 </defs>
 <g id="figure_1">
  <g id="patch_1">
   <path d="M 0 576 
L 1152 576 
L 1152 0 
L 0 0 
z
" style="fill:#ffffff;"/>
  </g>
  <g id="axes_1">
   <g id="patch_2">
    <path d="M 51.842 541.28 
L 1137.96 541.28 
L 1137.96 39.16 
L 51.842 39.16 
z
" style="fill:#ffffff;"/>
   </g>
   <g id="PolyCollection_1">
    <path clip-path="url(#pd384fe3e8b)" d="M 51.842 -555.28529 
L 51.842 439.236258 
L 57.383418 413.320387 
L 62.924837 384.165032 
L 68.466255 356.629419 
L 74.007673 324.234581 
L 79.549092 301.558194 
L 85.09051 285.360774 
L 90.631929 270.783097 
L 96.173347 259.444903 
L 101.714765 251.346194 
L 107.256184 244.867226 
L 112.797602 240.008 
L 118.33902 235.148774 
L 123.880439 233.529032 
L 129.421857 236.768516 
L 134.963276 243.247484 
L 140.504694 252.965935 
L 146.046112 261.064645 
L 151.587531 267.543613 
L 157.128949 274.022581 
L 162.670367 280.501548 
L 168.211786 293.459484 
L 173.753204 312.896387 
L 179.294622 337.192516 
L 184.836041 361.488645 
L 190.377459 382.54529 
L 195.918878 395.503226 
L 201.460296 401.982194 
L 207.001714 403.601935 
L 212.543133 405.221677 
L 218.084551 405.221677 
L 223.625969 405.221677 
L 229.167388 401.982194 
L 234.708806 395.503226 
L 240.250224 387.404516 
L 245.791643 382.54529 
L 251.333061 384.165032 
L 256.87448 395.503226 
L 262.415898 410.080903 
L 267.957316 423.038839 
L 273.498735 429.517806 
L 279.040153 429.517806 
L 284.581571 424.658581 
L 290.12299 421.419097 
L 295.664408 424.658581 
L 301.205827 432.75729 
L 306.747245 445.715226 
L 312.288663 455.433677 
L 317.830082 465.152129 
L 323.3715 471.631097 
L 328.912918 481.349548 
L 334.454337 491.068 
L 339.995755 504.025935 
L 345.537173 512.124645 
L 351.078592 515.364129 
L 356.62001 512.124645 
L 362.161429 504.025935 
L 367.702847 497.546968 
L 373.244265 494.307484 
L 378.785684 492.687742 
L 384.327102 492.687742 
L 389.86852 489.448258 
L 395.409939 484.589032 
L 400.951357 479.729806 
L 406.492776 479.729806 
L 412.034194 482.96929 
L 417.575612 487.828516 
L 423.117031 492.687742 
L 428.658449 494.307484 
L 434.199867 494.307484 
L 439.741286 494.307484 
L 445.282704 495.927226 
L 450.824122 497.546968 
L 456.365541 495.927226 
L 461.906959 491.068 
L 467.448378 481.349548 
L 472.989796 470.011355 
L 478.531214 458.673161 
L 484.072633 450.574452 
L 489.614051 447.334968 
L 495.155469 447.334968 
L 500.696888 448.95471 
L 506.238306 452.194194 
L 511.779724 453.813935 
L 517.321143 457.053419 
L 522.862561 460.292903 
L 528.40398 466.771871 
L 533.945398 470.011355 
L 539.486816 470.011355 
L 545.028235 463.532387 
L 550.569653 450.574452 
L 556.111071 437.616516 
L 561.65249 424.658581 
L 567.193908 416.559871 
L 572.735327 416.559871 
L 578.276745 419.799355 
L 583.818163 424.658581 
L 589.359582 431.137548 
L 594.901 435.996774 
L 600.442418 440.856 
L 605.983837 447.334968 
L 611.525255 455.433677 
L 617.066673 463.532387 
L 622.608092 474.870581 
L 628.14951 484.589032 
L 633.690929 494.307484 
L 639.232347 504.025935 
L 644.773765 510.504903 
L 650.315184 512.124645 
L 655.856602 512.124645 
L 661.39802 508.885161 
L 666.939439 504.025935 
L 672.480857 500.786452 
L 678.022276 499.16671 
L 683.563694 499.16671 
L 689.105112 499.16671 
L 694.646531 500.786452 
L 700.187949 500.786452 
L 705.729367 500.786452 
L 711.270786 499.16671 
L 716.812204 499.16671 
L 722.353622 502.406194 
L 727.895041 504.025935 
L 733.436459 507.265419 
L 738.977878 505.645677 
L 744.519296 502.406194 
L 750.060714 492.687742 
L 755.602133 479.729806 
L 761.143551 466.771871 
L 766.684969 453.813935 
L 772.226388 442.475742 
L 777.767806 431.137548 
L 783.309224 418.179613 
L 788.850643 405.221677 
L 794.392061 390.644 
L 799.93348 379.305806 
L 805.474898 371.207097 
L 811.016316 367.967613 
L 816.557735 367.967613 
L 822.099153 372.826839 
L 827.640571 376.066323 
L 833.18199 379.305806 
L 838.723408 379.305806 
L 844.264827 372.826839 
L 849.806245 363.108387 
L 855.347663 351.770194 
L 860.889082 340.432 
L 866.4305 332.33329 
L 871.971918 327.474065 
L 877.513337 327.474065 
L 883.054755 330.713548 
L 888.596173 333.953032 
L 894.137592 338.812258 
L 899.67901 342.051742 
L 905.220429 345.291226 
L 910.761847 346.910968 
L 916.303265 348.53071 
L 921.844684 351.770194 
L 927.386102 358.249161 
L 932.92752 366.347871 
L 938.468939 379.305806 
L 944.010357 395.503226 
L 949.551776 411.700645 
L 955.093194 424.658581 
L 960.634612 435.996774 
L 966.176031 440.856 
L 971.717449 442.475742 
L 977.258867 440.856 
L 982.800286 437.616516 
L 988.341704 434.377032 
L 993.883122 431.137548 
L 999.424541 429.517806 
L 1004.965959 426.278323 
L 1010.507378 424.658581 
L 1016.048796 421.419097 
L 1021.590214 419.799355 
L 1027.131633 418.179613 
L 1032.673051 413.320387 
L 1038.214469 406.841419 
L 1043.755888 397.122968 
L 1049.297306 387.404516 
L 1054.838724 374.446581 
L 1060.380143 363.108387 
L 1065.921561 353.389935 
L 1071.46298 345.291226 
L 1077.004398 338.812258 
L 1082.545816 335.572774 
L 1088.087235 335.572774 
L 1093.628653 335.572774 
L 1099.170071 338.812258 
L 1104.71149 340.432 
L 1110.252908 342.051742 
L 1115.794327 342.051742 
L 1121.335745 342.051742 
L 1126.877163 340.432 
L 1132.418582 340.432 
L 1137.96 340.432 
L 1137.96 264.304129 
L 1137.96 264.304129 
L 1132.418582 262.684387 
L 1126.877163 262.684387 
L 1121.335745 262.684387 
L 1115.794327 261.064645 
L 1110.252908 259.444903 
L 1104.71149 256.205419 
L 1099.170071 252.965935 
L 1093.628653 249.726452 
L 1088.087235 246.486968 
L 1082.545816 246.486968 
L 1077.004398 246.486968 
L 1071.46298 251.346194 
L 1065.921561 256.205419 
L 1060.380143 264.304129 
L 1054.838724 274.022581 
L 1049.297306 285.360774 
L 1043.755888 295.079226 
L 1038.214469 303.177935 
L 1032.673051 309.656903 
L 1027.131633 314.516129 
L 1021.590214 316.135871 
L 1016.048796 317.755613 
L 1010.507378 320.995097 
L 1004.965959 322.614839 
L 999.424541 325.854323 
L 993.883122 327.474065 
L 988.341704 330.713548 
L 982.800286 333.953032 
L 977.258867 337.192516 
L 971.717449 340.432 
L 966.176031 340.432 
L 960.634612 335.572774 
L 955.093194 325.854323 
L 949.551776 312.896387 
L 944.010357 296.698968 
L 938.468939 282.12129 
L 932.92752 267.543613 
L 927.386102 257.825161 
L 921.844684 251.346194 
L 916.303265 246.486968 
L 910.761847 241.627742 
L 905.220429 238.388258 
L 899.67901 233.529032 
L 894.137592 227.050065 
L 888.596173 220.571097 
L 883.054755 214.092129 
L 877.513337 207.613161 
L 871.971918 205.993419 
L 866.4305 205.993419 
L 860.889082 210.852645 
L 855.347663 217.331613 
L 849.806245 227.050065 
L 844.264827 233.529032 
L 838.723408 236.768516 
L 833.18199 235.148774 
L 827.640571 230.289548 
L 822.099153 223.810581 
L 816.557735 215.711871 
L 811.016316 210.852645 
L 805.474898 210.852645 
L 799.93348 214.092129 
L 794.392061 222.190839 
L 788.850643 230.289548 
L 783.309224 240.008 
L 777.767806 249.726452 
L 772.226388 257.825161 
L 766.684969 267.543613 
L 761.143551 278.881806 
L 755.602133 291.839742 
L 750.060714 306.417419 
L 744.519296 316.135871 
L 738.977878 324.234581 
L 733.436459 325.854323 
L 727.895041 324.234581 
L 722.353622 322.614839 
L 716.812204 320.995097 
L 711.270786 322.614839 
L 705.729367 324.234581 
L 700.187949 327.474065 
L 694.646531 327.474065 
L 689.105112 327.474065 
L 683.563694 327.474065 
L 678.022276 329.093806 
L 672.480857 333.953032 
L 666.939439 340.432 
L 661.39802 348.53071 
L 655.856602 355.009677 
L 650.315184 359.868903 
L 644.773765 358.249161 
L 639.232347 355.009677 
L 633.690929 348.53071 
L 628.14951 340.432 
L 622.608092 330.713548 
L 617.066673 322.614839 
L 611.525255 314.516129 
L 605.983837 308.037161 
L 600.442418 301.558194 
L 594.901 296.698968 
L 589.359582 291.839742 
L 583.818163 285.360774 
L 578.276745 278.881806 
L 572.735327 274.022581 
L 567.193908 274.022581 
L 561.65249 280.501548 
L 556.111071 291.839742 
L 550.569653 304.797677 
L 545.028235 317.755613 
L 539.486816 324.234581 
L 533.945398 327.474065 
L 528.40398 324.234581 
L 522.862561 320.995097 
L 517.321143 316.135871 
L 511.779724 314.516129 
L 506.238306 312.896387 
L 500.696888 311.276645 
L 495.155469 309.656903 
L 489.614051 308.037161 
L 484.072633 311.276645 
L 478.531214 317.755613 
L 472.989796 329.093806 
L 467.448378 342.051742 
L 461.906959 353.389935 
L 456.365541 359.868903 
L 450.824122 363.108387 
L 445.282704 363.108387 
L 439.741286 363.108387 
L 434.199867 364.728129 
L 428.658449 367.967613 
L 423.117031 367.967613 
L 417.575612 364.728129 
L 412.034194 359.868903 
L 406.492776 358.249161 
L 400.951357 359.868903 
L 395.409939 366.347871 
L 389.86852 371.207097 
L 384.327102 376.066323 
L 378.785684 379.305806 
L 373.244265 382.54529 
L 367.702847 389.024258 
L 362.161429 400.362452 
L 356.62001 413.320387 
L 351.078592 421.419097 
L 345.537173 419.799355 
L 339.995755 411.700645 
L 334.454337 400.362452 
L 328.912918 389.024258 
L 323.3715 380.925548 
L 317.830082 374.446581 
L 312.288663 367.967613 
L 306.747245 358.249161 
L 301.205827 346.910968 
L 295.664408 338.812258 
L 290.12299 335.572774 
L 284.581571 338.812258 
L 279.040153 343.671484 
L 273.498735 345.291226 
L 267.957316 340.432 
L 262.415898 327.474065 
L 256.87448 312.896387 
L 251.333061 303.177935 
L 245.791643 299.938452 
L 240.250224 303.177935 
L 234.708806 311.276645 
L 229.167388 316.135871 
L 223.625969 319.375355 
L 218.084551 319.375355 
L 212.543133 319.375355 
L 207.001714 319.375355 
L 201.460296 317.755613 
L 195.918878 311.276645 
L 190.377459 296.698968 
L 184.836041 277.262065 
L 179.294622 251.346194 
L 173.753204 225.430323 
L 168.211786 204.373677 
L 162.670367 189.796 
L 157.128949 178.457806 
L 151.587531 168.739355 
L 146.046112 159.020903 
L 140.504694 146.062968 
L 134.963276 131.48529 
L 129.421857 118.527355 
L 123.880439 108.808903 
L 118.33902 100.710194 
L 112.797602 94.231226 
L 107.256184 89.372 
L 101.714765 81.27329 
L 96.173347 73.174581 
L 90.631929 63.456129 
L 85.09051 52.117935 
L 79.549092 32.681032 
L 74.007673 0.286194 
L 68.466255 -122.814194 
L 62.924837 -242.675097 
L 57.383418 -391.691355 
L 51.842 -555.28529 
z
" style="fill:#e6e6e6;stroke:#e6e6e6;"/>
   </g>
   <g id="PolyCollection_2">
    <path clip-path="url(#pd384fe3e8b)" d="M 51.842 -263.731742 
L 51.842 348.53071 
L 57.383418 316.135871 
L 62.924837 286.980516 
L 68.466255 264.304129 
L 74.007673 240.008 
L 79.549092 231.90929 
L 85.09051 225.430323 
L 90.631929 217.331613 
L 96.173347 210.852645 
L 101.714765 207.613161 
L 107.256184 204.373677 
L 112.797602 202.753935 
L 118.33902 202.753935 
L 123.880439 204.373677 
L 129.421857 209.232903 
L 134.963276 217.331613 
L 140.504694 225.430323 
L 146.046112 235.148774 
L 151.587531 243.247484 
L 157.128949 249.726452 
L 162.670367 257.825161 
L 168.211786 270.783097 
L 173.753204 290.22 
L 179.294622 314.516129 
L 184.836041 340.432 
L 190.377459 359.868903 
L 195.918878 372.826839 
L 201.460296 379.305806 
L 207.001714 380.925548 
L 212.543133 380.925548 
L 218.084551 382.54529 
L 223.625969 382.54529 
L 229.167388 379.305806 
L 234.708806 372.826839 
L 240.250224 366.347871 
L 245.791643 361.488645 
L 251.333061 364.728129 
L 256.87448 374.446581 
L 262.415898 389.024258 
L 267.957316 400.362452 
L 273.498735 406.841419 
L 279.040153 405.221677 
L 284.581571 401.982194 
L 290.12299 398.74271 
L 295.664408 403.601935 
L 301.205827 413.320387 
L 306.747245 424.658581 
L 312.288663 435.996774 
L 317.830082 444.095484 
L 323.3715 450.574452 
L 328.912918 460.292903 
L 334.454337 471.631097 
L 339.995755 484.589032 
L 345.537173 494.307484 
L 351.078592 497.546968 
L 356.62001 491.068 
L 362.161429 481.349548 
L 367.702847 471.631097 
L 373.244265 466.771871 
L 378.785684 463.532387 
L 384.327102 461.912645 
L 389.86852 458.673161 
L 395.409939 453.813935 
L 400.951357 448.95471 
L 406.492776 447.334968 
L 412.034194 450.574452 
L 417.575612 455.433677 
L 423.117031 460.292903 
L 428.658449 461.912645 
L 434.199867 460.292903 
L 439.741286 460.292903 
L 445.282704 461.912645 
L 450.824122 461.912645 
L 456.365541 461.912645 
L 461.906959 457.053419 
L 467.448378 447.334968 
L 472.989796 434.377032 
L 478.531214 423.038839 
L 484.072633 416.559871 
L 489.614051 411.700645 
L 495.155469 411.700645 
L 500.696888 413.320387 
L 506.238306 414.940129 
L 511.779724 418.179613 
L 517.321143 421.419097 
L 522.862561 426.278323 
L 528.40398 431.137548 
L 533.945398 435.996774 
L 539.486816 434.377032 
L 545.028235 427.898065 
L 550.569653 414.940129 
L 556.111071 401.982194 
L 561.65249 389.024258 
L 567.193908 380.925548 
L 572.735327 379.305806 
L 578.276745 382.54529 
L 583.818163 389.024258 
L 589.359582 393.883484 
L 594.901 398.74271 
L 600.442418 405.221677 
L 605.983837 411.700645 
L 611.525255 419.799355 
L 617.066673 427.898065 
L 622.608092 439.236258 
L 628.14951 448.95471 
L 633.690929 458.673161 
L 639.232347 466.771871 
L 644.773765 473.250839 
L 650.315184 474.870581 
L 655.856602 474.870581 
L 661.39802 470.011355 
L 666.939439 463.532387 
L 672.480857 458.673161 
L 678.022276 455.433677 
L 683.563694 455.433677 
L 689.105112 455.433677 
L 694.646531 455.433677 
L 700.187949 455.433677 
L 705.729367 453.813935 
L 711.270786 452.194194 
L 716.812204 452.194194 
L 722.353622 453.813935 
L 727.895041 457.053419 
L 733.436459 458.673161 
L 738.977878 457.053419 
L 744.519296 452.194194 
L 750.060714 442.475742 
L 755.602133 429.517806 
L 761.143551 418.179613 
L 766.684969 405.221677 
L 772.226388 395.503226 
L 777.767806 385.784774 
L 783.309224 374.446581 
L 788.850643 361.488645 
L 794.392061 348.53071 
L 799.93348 337.192516 
L 805.474898 330.713548 
L 811.016316 327.474065 
L 816.557735 330.713548 
L 822.099153 335.572774 
L 827.640571 340.432 
L 833.18199 343.671484 
L 838.723408 343.671484 
L 844.264827 338.812258 
L 849.806245 330.713548 
L 855.347663 319.375355 
L 860.889082 309.656903 
L 866.4305 301.558194 
L 871.971918 296.698968 
L 877.513337 296.698968 
L 883.054755 299.938452 
L 888.596173 304.797677 
L 894.137592 309.656903 
L 899.67901 314.516129 
L 905.220429 319.375355 
L 910.761847 322.614839 
L 916.303265 325.854323 
L 921.844684 329.093806 
L 927.386102 335.572774 
L 932.92752 343.671484 
L 938.468939 355.009677 
L 944.010357 371.207097 
L 949.551776 385.784774 
L 955.093194 400.362452 
L 960.634612 410.080903 
L 966.176031 416.559871 
L 971.717449 416.559871 
L 977.258867 414.940129 
L 982.800286 413.320387 
L 988.341704 410.080903 
L 993.883122 406.841419 
L 999.424541 405.221677 
L 1004.965959 401.982194 
L 1010.507378 400.362452 
L 1016.048796 398.74271 
L 1021.590214 395.503226 
L 1027.131633 393.883484 
L 1032.673051 389.024258 
L 1038.214469 382.54529 
L 1043.755888 372.826839 
L 1049.297306 361.488645 
L 1054.838724 350.150452 
L 1060.380143 337.192516 
L 1065.921561 329.093806 
L 1071.46298 320.995097 
L 1077.004398 316.135871 
L 1082.545816 314.516129 
L 1088.087235 314.516129 
L 1093.628653 316.135871 
L 1099.170071 317.755613 
L 1104.71149 320.995097 
L 1110.252908 322.614839 
L 1115.794327 322.614839 
L 1121.335745 322.614839 
L 1126.877163 322.614839 
L 1132.418582 322.614839 
L 1137.96 320.995097 
L 1137.96 285.360774 
L 1137.96 285.360774 
L 1132.418582 285.360774 
L 1126.877163 283.741032 
L 1121.335745 283.741032 
L 1115.794327 283.741032 
L 1110.252908 282.12129 
L 1104.71149 280.501548 
L 1099.170071 277.262065 
L 1093.628653 274.022581 
L 1088.087235 270.783097 
L 1082.545816 270.783097 
L 1077.004398 272.402839 
L 1071.46298 275.642323 
L 1065.921561 282.12129 
L 1060.380143 290.22 
L 1054.838724 301.558194 
L 1049.297306 312.896387 
L 1043.755888 324.234581 
L 1038.214469 332.33329 
L 1032.673051 338.812258 
L 1027.131633 343.671484 
L 1021.590214 345.291226 
L 1016.048796 348.53071 
L 1010.507378 350.150452 
L 1004.965959 351.770194 
L 999.424541 355.009677 
L 993.883122 356.629419 
L 988.341704 359.868903 
L 982.800286 363.108387 
L 977.258867 366.347871 
L 971.717449 367.967613 
L 966.176031 367.967613 
L 960.634612 361.488645 
L 955.093194 351.770194 
L 949.551776 338.812258 
L 944.010357 322.614839 
L 938.468939 308.037161 
L 932.92752 295.079226 
L 927.386102 286.980516 
L 921.844684 280.501548 
L 916.303265 275.642323 
L 910.761847 272.402839 
L 905.220429 267.543613 
L 899.67901 262.684387 
L 894.137592 256.205419 
L 888.596173 249.726452 
L 883.054755 244.867226 
L 877.513337 240.008 
L 871.971918 238.388258 
L 866.4305 240.008 
L 860.889082 246.486968 
L 855.347663 254.585677 
L 849.806245 264.304129 
L 844.264827 272.402839 
L 838.723408 275.642323 
L 833.18199 275.642323 
L 827.640571 270.783097 
L 822.099153 264.304129 
L 816.557735 257.825161 
L 811.016316 252.965935 
L 805.474898 252.965935 
L 799.93348 257.825161 
L 794.392061 267.543613 
L 788.850643 277.262065 
L 783.309224 288.600258 
L 777.767806 298.31871 
L 772.226388 308.037161 
L 766.684969 316.135871 
L 761.143551 327.474065 
L 755.602133 340.432 
L 750.060714 351.770194 
L 744.519296 363.108387 
L 738.977878 367.967613 
L 733.436459 371.207097 
L 727.895041 369.587355 
L 722.353622 367.967613 
L 716.812204 366.347871 
L 711.270786 366.347871 
L 705.729367 367.967613 
L 700.187949 371.207097 
L 694.646531 372.826839 
L 689.105112 372.826839 
L 683.563694 372.826839 
L 678.022276 374.446581 
L 672.480857 377.686065 
L 666.939439 384.165032 
L 661.39802 390.644 
L 655.856602 397.122968 
L 650.315184 398.74271 
L 644.773765 398.74271 
L 639.232347 393.883484 
L 633.690929 387.404516 
L 628.14951 379.305806 
L 622.608092 369.587355 
L 617.066673 359.868903 
L 611.525255 351.770194 
L 605.983837 343.671484 
L 600.442418 337.192516 
L 594.901 332.33329 
L 589.359582 327.474065 
L 583.818163 320.995097 
L 578.276745 316.135871 
L 572.735327 311.276645 
L 567.193908 312.896387 
L 561.65249 319.375355 
L 556.111071 330.713548 
L 550.569653 345.291226 
L 545.028235 358.249161 
L 539.486816 364.728129 
L 533.945398 366.347871 
L 528.40398 363.108387 
L 522.862561 358.249161 
L 517.321143 353.389935 
L 511.779724 351.770194 
L 506.238306 348.53071 
L 500.696888 346.910968 
L 495.155469 345.291226 
L 489.614051 345.291226 
L 484.072633 348.53071 
L 478.531214 356.629419 
L 472.989796 367.967613 
L 467.448378 379.305806 
L 461.906959 390.644 
L 456.365541 395.503226 
L 450.824122 397.122968 
L 445.282704 397.122968 
L 439.741286 398.74271 
L 434.199867 398.74271 
L 428.658449 400.362452 
L 423.117031 400.362452 
L 417.575612 397.122968 
L 412.034194 392.263742 
L 406.492776 389.024258 
L 400.951357 390.644 
L 395.409939 397.122968 
L 389.86852 401.982194 
L 384.327102 406.841419 
L 378.785684 408.461161 
L 373.244265 411.700645 
L 367.702847 418.179613 
L 362.161429 429.517806 
L 356.62001 440.856 
L 351.078592 448.95471 
L 345.537173 447.334968 
L 339.995755 439.236258 
L 334.454337 426.278323 
L 328.912918 414.940129 
L 323.3715 406.841419 
L 317.830082 400.362452 
L 312.288663 392.263742 
L 306.747245 382.54529 
L 301.205827 371.207097 
L 295.664408 361.488645 
L 290.12299 358.249161 
L 284.581571 361.488645 
L 279.040153 366.347871 
L 273.498735 366.347871 
L 267.957316 361.488645 
L 262.415898 348.53071 
L 256.87448 335.572774 
L 251.333061 324.234581 
L 245.791643 322.614839 
L 240.250224 325.854323 
L 234.708806 333.953032 
L 229.167388 338.812258 
L 223.625969 342.051742 
L 218.084551 342.051742 
L 212.543133 340.432 
L 207.001714 340.432 
L 201.460296 338.812258 
L 195.918878 332.33329 
L 190.377459 319.375355 
L 184.836041 299.938452 
L 179.294622 274.022581 
L 173.753204 249.726452 
L 168.211786 228.669806 
L 162.670367 214.092129 
L 157.128949 204.373677 
L 151.587531 196.274968 
L 146.046112 186.556516 
L 140.504694 175.218323 
L 134.963276 162.260387 
L 129.421857 152.541935 
L 123.880439 142.823484 
L 118.33902 137.964258 
L 112.797602 133.105032 
L 107.256184 129.865548 
L 101.714765 126.626065 
L 96.173347 121.766839 
L 90.631929 118.527355 
L 85.09051 113.668129 
L 79.549092 103.949677 
L 74.007673 84.512774 
L 68.466255 8.384903 
L 62.924837 -67.742968 
L 57.383418 -160.068258 
L 51.842 -263.731742 
z
" style="fill:#c8c8c8;stroke:#c8c8c8;"/>
   </g>
   <g id="matplotlib.axis_1">
    <g id="xtick_1">
     <g id="line2d_1">
      <defs>
       <path d="M 0 0 
L 0 3.5 
" id="mbe161a8dad" style="stroke:#555555;stroke-width:0.8;"/>
      </defs>
      <g>
       <use style="fill:#555555;stroke:#555555;stroke-width:0.8;" x="201.460296" xlink:href="#mbe161a8dad" y="541.28"/>
      </g>
     </g>
     <g id="text_1">
      <!-- April -->
      <g style="fill:#555555;" transform="translate(182.781233 558.917812)scale(0.14 -0.14)">
       <defs>
        <path d="M 53.421875 13.28125 
L 24.03125 13.28125 
L 19.390625 0 
L 0.484375 0 
L 27.484375 72.90625 
L 49.90625 72.90625 
L 76.90625 0 
L 58.015625 0 
z
M 28.71875 26.8125 
L 48.6875 26.8125 
L 38.71875 55.8125 
z
" id="DejaVuSans-Bold-65"/>
        <path d="M 25.875 7.90625 
L 25.875 -20.796875 
L 8.40625 -20.796875 
L 8.40625 54.6875 
L 25.875 54.6875 
L 25.875 46.6875 
Q 29.5 51.46875 33.890625 53.734375 
Q 38.28125 56 44 56 
Q 54.109375 56 60.59375 47.96875 
Q 67.09375 39.9375 67.09375 27.296875 
Q 67.09375 14.65625 60.59375 6.609375 
Q 54.109375 -1.421875 44 -1.421875 
Q 38.28125 -1.421875 33.890625 0.84375 
Q 29.5 3.125 25.875 7.90625 
z
M 37.5 43.3125 
Q 31.890625 43.3125 28.875 39.1875 
Q 25.875 35.0625 25.875 27.296875 
Q 25.875 19.53125 28.875 15.40625 
Q 31.890625 11.28125 37.5 11.28125 
Q 43.109375 11.28125 46.0625 15.375 
Q 49.03125 19.484375 49.03125 27.296875 
Q 49.03125 35.109375 46.0625 39.203125 
Q 43.109375 43.3125 37.5 43.3125 
z
" id="DejaVuSans-Bold-112"/>
        <path d="M 49.03125 39.796875 
Q 46.734375 40.875 44.453125 41.375 
Q 42.1875 41.890625 39.890625 41.890625 
Q 33.15625 41.890625 29.515625 37.5625 
Q 25.875 33.25 25.875 25.203125 
L 25.875 0 
L 8.40625 0 
L 8.40625 54.6875 
L 25.875 54.6875 
L 25.875 45.703125 
Q 29.25 51.078125 33.609375 53.53125 
Q 37.984375 56 44.09375 56 
Q 44.96875 56 45.984375 55.921875 
Q 47.015625 55.859375 48.96875 55.609375 
z
" id="DejaVuSans-Bold-114"/>
        <path d="M 8.40625 54.6875 
L 25.875 54.6875 
L 25.875 0 
L 8.40625 0 
z
M 8.40625 75.984375 
L 25.875 75.984375 
L 25.875 61.71875 
L 8.40625 61.71875 
z
" id="DejaVuSans-Bold-105"/>
        <path d="M 8.40625 75.984375 
L 25.875 75.984375 
L 25.875 0 
L 8.40625 0 
z
" id="DejaVuSans-Bold-108"/>
       </defs>
       <use xlink:href="#DejaVuSans-Bold-65"/>
       <use x="77.392578" xlink:href="#DejaVuSans-Bold-112"/>
       <use x="148.974609" xlink:href="#DejaVuSans-Bold-114"/>
       <use x="198.291016" xlink:href="#DejaVuSans-Bold-105"/>
       <use x="232.568359" xlink:href="#DejaVuSans-Bold-108"/>
      </g>
     </g>
    </g>
    <g id="xtick_2">
     <g id="line2d_2">
      <g>
       <use style="fill:#555555;stroke:#555555;stroke-width:0.8;" x="367.702847" xlink:href="#mbe161a8dad" y="541.28"/>
      </g>
     </g>
     <g id="text_2">
      <!-- May -->
      <g style="fill:#555555;" transform="translate(351.668472 558.808437)scale(0.14 -0.14)">
       <defs>
        <path d="M 9.1875 72.90625 
L 33.109375 72.90625 
L 49.703125 33.890625 
L 66.40625 72.90625 
L 90.28125 72.90625 
L 90.28125 0 
L 72.515625 0 
L 72.515625 53.328125 
L 55.71875 14.015625 
L 43.796875 14.015625 
L 27 53.328125 
L 27 0 
L 9.1875 0 
z
" id="DejaVuSans-Bold-77"/>
        <path d="M 32.90625 24.609375 
Q 27.4375 24.609375 24.671875 22.75 
Q 21.921875 20.90625 21.921875 17.28125 
Q 21.921875 13.96875 24.140625 12.078125 
Q 26.375 10.203125 30.328125 10.203125 
Q 35.25 10.203125 38.625 13.734375 
Q 42 17.28125 42 22.609375 
L 42 24.609375 
z
M 59.625 31.203125 
L 59.625 0 
L 42 0 
L 42 8.109375 
Q 38.484375 3.125 34.078125 0.84375 
Q 29.6875 -1.421875 23.390625 -1.421875 
Q 14.890625 -1.421875 9.59375 3.53125 
Q 4.296875 8.5 4.296875 16.40625 
Q 4.296875 26.03125 10.90625 30.515625 
Q 17.53125 35.015625 31.6875 35.015625 
L 42 35.015625 
L 42 36.375 
Q 42 40.53125 38.71875 42.453125 
Q 35.453125 44.390625 28.515625 44.390625 
Q 22.90625 44.390625 18.0625 43.265625 
Q 13.234375 42.140625 9.078125 39.890625 
L 9.078125 53.21875 
Q 14.703125 54.59375 20.359375 55.296875 
Q 26.03125 56 31.6875 56 
Q 46.484375 56 53.046875 50.171875 
Q 59.625 44.34375 59.625 31.203125 
z
" id="DejaVuSans-Bold-97"/>
        <path d="M 1.21875 54.6875 
L 18.703125 54.6875 
L 33.40625 17.578125 
L 45.90625 54.6875 
L 63.375 54.6875 
L 40.375 -5.171875 
Q 36.921875 -14.3125 32.296875 -17.9375 
Q 27.6875 -21.578125 20.125 -21.578125 
L 10.015625 -21.578125 
L 10.015625 -10.109375 
L 15.484375 -10.109375 
Q 19.921875 -10.109375 21.9375 -8.6875 
Q 23.96875 -7.28125 25.09375 -3.609375 
L 25.59375 -2.09375 
z
" id="DejaVuSans-Bold-121"/>
       </defs>
       <use xlink:href="#DejaVuSans-Bold-77"/>
       <use x="99.511719" xlink:href="#DejaVuSans-Bold-97"/>
       <use x="163.867188" xlink:href="#DejaVuSans-Bold-121"/>
      </g>
     </g>
    </g>
    <g id="xtick_3">
     <g id="line2d_3">
      <g>
       <use style="fill:#555555;stroke:#555555;stroke-width:0.8;" x="539.486816" xlink:href="#mbe161a8dad" y="541.28"/>
      </g>
     </g>
     <g id="text_3">
      <!-- June -->
      <g style="fill:#555555;" transform="translate(522.168379 558.917812)scale(0.14 -0.14)">
       <defs>
        <path d="M 9.1875 72.90625 
L 27.984375 72.90625 
L 27.984375 7.078125 
Q 27.984375 -6.546875 20.578125 -13.28125 
Q 13.1875 -20.015625 -1.8125 -20.015625 
L -5.609375 -20.015625 
L -5.609375 -5.8125 
L -2.6875 -5.8125 
Q 3.171875 -5.8125 6.171875 -2.53125 
Q 9.1875 0.734375 9.1875 7.078125 
z
" id="DejaVuSans-Bold-74"/>
        <path d="M 7.8125 21.296875 
L 7.8125 54.6875 
L 25.390625 54.6875 
L 25.390625 49.21875 
Q 25.390625 44.78125 25.34375 38.0625 
Q 25.296875 31.34375 25.296875 29.109375 
Q 25.296875 22.515625 25.640625 19.609375 
Q 25.984375 16.703125 26.8125 15.375 
Q 27.875 13.671875 29.609375 12.734375 
Q 31.34375 11.8125 33.59375 11.8125 
Q 39.0625 11.8125 42.1875 16.015625 
Q 45.3125 20.21875 45.3125 27.6875 
L 45.3125 54.6875 
L 62.796875 54.6875 
L 62.796875 0 
L 45.3125 0 
L 45.3125 7.90625 
Q 41.359375 3.125 36.9375 0.84375 
Q 32.515625 -1.421875 27.203125 -1.421875 
Q 17.71875 -1.421875 12.765625 4.390625 
Q 7.8125 10.203125 7.8125 21.296875 
z
" id="DejaVuSans-Bold-117"/>
        <path d="M 63.375 33.296875 
L 63.375 0 
L 45.796875 0 
L 45.796875 5.421875 
L 45.796875 25.484375 
Q 45.796875 32.5625 45.484375 35.25 
Q 45.171875 37.9375 44.390625 39.203125 
Q 43.359375 40.921875 41.59375 41.875 
Q 39.84375 42.828125 37.59375 42.828125 
Q 32.125 42.828125 29 38.59375 
Q 25.875 34.375 25.875 26.90625 
L 25.875 0 
L 8.40625 0 
L 8.40625 54.6875 
L 25.875 54.6875 
L 25.875 46.6875 
Q 29.828125 51.46875 34.265625 53.734375 
Q 38.71875 56 44.09375 56 
Q 53.5625 56 58.46875 50.1875 
Q 63.375 44.390625 63.375 33.296875 
z
" id="DejaVuSans-Bold-110"/>
        <path d="M 62.984375 27.484375 
L 62.984375 22.515625 
L 22.125 22.515625 
Q 22.75 16.359375 26.5625 13.28125 
Q 30.375 10.203125 37.203125 10.203125 
Q 42.71875 10.203125 48.5 11.84375 
Q 54.296875 13.484375 60.40625 16.796875 
L 60.40625 3.328125 
Q 54.203125 0.984375 48 -0.21875 
Q 41.796875 -1.421875 35.59375 -1.421875 
Q 20.75 -1.421875 12.515625 6.125 
Q 4.296875 13.671875 4.296875 27.296875 
Q 4.296875 40.671875 12.375 48.328125 
Q 20.453125 56 34.625 56 
Q 47.515625 56 55.25 48.234375 
Q 62.984375 40.484375 62.984375 27.484375 
z
M 45.015625 33.296875 
Q 45.015625 38.28125 42.109375 41.328125 
Q 39.203125 44.390625 34.515625 44.390625 
Q 29.4375 44.390625 26.265625 41.53125 
Q 23.09375 38.671875 22.3125 33.296875 
z
" id="DejaVuSans-Bold-101"/>
       </defs>
       <use xlink:href="#DejaVuSans-Bold-74"/>
       <use x="37.207031" xlink:href="#DejaVuSans-Bold-117"/>
       <use x="108.398438" xlink:href="#DejaVuSans-Bold-110"/>
       <use x="179.589844" xlink:href="#DejaVuSans-Bold-101"/>
      </g>
     </g>
    </g>
    <g id="xtick_4">
     <g id="line2d_4">
      <g>
       <use style="fill:#555555;stroke:#555555;stroke-width:0.8;" x="705.729367" xlink:href="#mbe161a8dad" y="541.28"/>
      </g>
     </g>
     <g id="text_4">
      <!-- July -->
      <g style="fill:#555555;" transform="translate(691.179211 558.917812)scale(0.14 -0.14)">
       <use xlink:href="#DejaVuSans-Bold-74"/>
       <use x="37.207031" xlink:href="#DejaVuSans-Bold-117"/>
       <use x="108.398438" xlink:href="#DejaVuSans-Bold-108"/>
       <use x="142.675781" xlink:href="#DejaVuSans-Bold-121"/>
      </g>
     </g>
    </g>
    <g id="xtick_5">
     <g id="line2d_5">
      <g>
       <use style="fill:#555555;stroke:#555555;stroke-width:0.8;" x="877.513337" xlink:href="#mbe161a8dad" y="541.28"/>
      </g>
     </g>
     <g id="text_5">
      <!-- August -->
      <g style="fill:#555555;" transform="translate(849.607399 558.808437)scale(0.14 -0.14)">
       <defs>
        <path d="M 45.609375 9.28125 
Q 42 4.5 37.640625 2.25 
Q 33.296875 0 27.59375 0 
Q 17.578125 0 11.03125 7.875 
Q 4.5 15.765625 4.5 27.984375 
Q 4.5 40.234375 11.03125 48.0625 
Q 17.578125 55.90625 27.59375 55.90625 
Q 33.296875 55.90625 37.640625 53.65625 
Q 42 51.421875 45.609375 46.578125 
L 45.609375 54.6875 
L 63.1875 54.6875 
L 63.1875 5.515625 
Q 63.1875 -7.671875 54.859375 -14.625 
Q 46.53125 -21.578125 30.71875 -21.578125 
Q 25.59375 -21.578125 20.796875 -20.796875 
Q 16.015625 -20.015625 11.1875 -18.40625 
L 11.1875 -4.78125 
Q 15.765625 -7.421875 20.15625 -8.71875 
Q 24.5625 -10.015625 29 -10.015625 
Q 37.59375 -10.015625 41.59375 -6.25 
Q 45.609375 -2.484375 45.609375 5.515625 
z
M 34.078125 43.3125 
Q 28.65625 43.3125 25.625 39.296875 
Q 22.609375 35.296875 22.609375 27.984375 
Q 22.609375 20.453125 25.53125 16.578125 
Q 28.46875 12.703125 34.078125 12.703125 
Q 39.546875 12.703125 42.578125 16.703125 
Q 45.609375 20.703125 45.609375 27.984375 
Q 45.609375 35.296875 42.578125 39.296875 
Q 39.546875 43.3125 34.078125 43.3125 
z
" id="DejaVuSans-Bold-103"/>
        <path d="M 51.125 52.984375 
L 51.125 39.703125 
Q 45.515625 42.046875 40.28125 43.21875 
Q 35.0625 44.390625 30.421875 44.390625 
Q 25.4375 44.390625 23.015625 43.140625 
Q 20.609375 41.890625 20.609375 39.3125 
Q 20.609375 37.203125 22.4375 36.078125 
Q 24.265625 34.96875 29 34.421875 
L 32.078125 33.984375 
Q 45.515625 32.28125 50.140625 28.375 
Q 54.78125 24.46875 54.78125 16.109375 
Q 54.78125 7.375 48.328125 2.96875 
Q 41.890625 -1.421875 29.109375 -1.421875 
Q 23.6875 -1.421875 17.890625 -0.5625 
Q 12.109375 0.296875 6 2 
L 6 15.28125 
Q 11.234375 12.75 16.71875 11.46875 
Q 22.21875 10.203125 27.875 10.203125 
Q 33.015625 10.203125 35.59375 11.609375 
Q 38.1875 13.03125 38.1875 15.828125 
Q 38.1875 18.171875 36.40625 19.3125 
Q 34.625 20.453125 29.296875 21.09375 
L 26.21875 21.484375 
Q 14.546875 22.953125 9.859375 26.90625 
Q 5.171875 30.859375 5.171875 38.921875 
Q 5.171875 47.609375 11.125 51.796875 
Q 17.09375 56 29.390625 56 
Q 34.234375 56 39.546875 55.265625 
Q 44.875 54.546875 51.125 52.984375 
z
" id="DejaVuSans-Bold-115"/>
        <path d="M 27.484375 70.21875 
L 27.484375 54.6875 
L 45.515625 54.6875 
L 45.515625 42.1875 
L 27.484375 42.1875 
L 27.484375 19 
Q 27.484375 15.1875 29 13.84375 
Q 30.515625 12.5 35.015625 12.5 
L 44 12.5 
L 44 0 
L 29 0 
Q 18.65625 0 14.328125 4.3125 
Q 10.015625 8.640625 10.015625 19 
L 10.015625 42.1875 
L 1.3125 42.1875 
L 1.3125 54.6875 
L 10.015625 54.6875 
L 10.015625 70.21875 
z
" id="DejaVuSans-Bold-116"/>
       </defs>
       <use xlink:href="#DejaVuSans-Bold-65"/>
       <use x="77.392578" xlink:href="#DejaVuSans-Bold-117"/>
       <use x="148.583984" xlink:href="#DejaVuSans-Bold-103"/>
       <use x="220.166016" xlink:href="#DejaVuSans-Bold-117"/>
       <use x="291.357422" xlink:href="#DejaVuSans-Bold-115"/>
       <use x="350.878906" xlink:href="#DejaVuSans-Bold-116"/>
      </g>
     </g>
    </g>
    <g id="xtick_6">
     <g id="line2d_6">
      <g>
       <use style="fill:#555555;stroke:#555555;stroke-width:0.8;" x="1049.297306" xlink:href="#mbe161a8dad" y="541.28"/>
      </g>
     </g>
     <g id="text_6">
      <!-- September -->
      <g style="fill:#555555;" transform="translate(1005.899494 558.917812)scale(0.14 -0.14)">
       <defs>
        <path d="M 59.90625 70.609375 
L 59.90625 55.171875 
Q 53.90625 57.859375 48.1875 59.21875 
Q 42.484375 60.59375 37.40625 60.59375 
Q 30.671875 60.59375 27.4375 58.734375 
Q 24.21875 56.890625 24.21875 52.984375 
Q 24.21875 50.046875 26.390625 48.40625 
Q 28.5625 46.78125 34.28125 45.609375 
L 42.28125 44 
Q 54.4375 41.546875 59.5625 36.5625 
Q 64.703125 31.59375 64.703125 22.40625 
Q 64.703125 10.359375 57.546875 4.46875 
Q 50.390625 -1.421875 35.6875 -1.421875 
Q 28.765625 -1.421875 21.78125 -0.09375 
Q 14.796875 1.21875 7.8125 3.8125 
L 7.8125 19.671875 
Q 14.796875 15.96875 21.3125 14.078125 
Q 27.828125 12.203125 33.890625 12.203125 
Q 40.046875 12.203125 43.3125 14.25 
Q 46.578125 16.3125 46.578125 20.125 
Q 46.578125 23.53125 44.359375 25.390625 
Q 42.140625 27.25 35.5 28.71875 
L 28.21875 30.328125 
Q 17.28125 32.671875 12.21875 37.796875 
Q 7.171875 42.921875 7.171875 51.609375 
Q 7.171875 62.5 14.203125 68.359375 
Q 21.234375 74.21875 34.421875 74.21875 
Q 40.4375 74.21875 46.78125 73.3125 
Q 53.125 72.40625 59.90625 70.609375 
z
" id="DejaVuSans-Bold-83"/>
        <path d="M 59.078125 45.609375 
Q 62.40625 50.6875 66.96875 53.34375 
Q 71.53125 56 77 56 
Q 86.421875 56 91.359375 50.1875 
Q 96.296875 44.390625 96.296875 33.296875 
L 96.296875 0 
L 78.71875 0 
L 78.71875 28.515625 
Q 78.765625 29.15625 78.78125 29.828125 
Q 78.8125 30.515625 78.8125 31.78125 
Q 78.8125 37.59375 77.09375 40.203125 
Q 75.390625 42.828125 71.578125 42.828125 
Q 66.609375 42.828125 63.890625 38.71875 
Q 61.1875 34.625 61.078125 26.859375 
L 61.078125 0 
L 43.5 0 
L 43.5 28.515625 
Q 43.5 37.59375 41.9375 40.203125 
Q 40.375 42.828125 36.375 42.828125 
Q 31.34375 42.828125 28.609375 38.703125 
Q 25.875 34.578125 25.875 26.90625 
L 25.875 0 
L 8.296875 0 
L 8.296875 54.6875 
L 25.875 54.6875 
L 25.875 46.6875 
Q 29.109375 51.3125 33.28125 53.65625 
Q 37.453125 56 42.484375 56 
Q 48.140625 56 52.484375 53.265625 
Q 56.84375 50.53125 59.078125 45.609375 
z
" id="DejaVuSans-Bold-109"/>
        <path d="M 37.5 11.28125 
Q 43.109375 11.28125 46.0625 15.375 
Q 49.03125 19.484375 49.03125 27.296875 
Q 49.03125 35.109375 46.0625 39.203125 
Q 43.109375 43.3125 37.5 43.3125 
Q 31.890625 43.3125 28.875 39.1875 
Q 25.875 35.0625 25.875 27.296875 
Q 25.875 19.53125 28.875 15.40625 
Q 31.890625 11.28125 37.5 11.28125 
z
M 25.875 46.6875 
Q 29.5 51.46875 33.890625 53.734375 
Q 38.28125 56 44 56 
Q 54.109375 56 60.59375 47.96875 
Q 67.09375 39.9375 67.09375 27.296875 
Q 67.09375 14.65625 60.59375 6.609375 
Q 54.109375 -1.421875 44 -1.421875 
Q 38.28125 -1.421875 33.890625 0.84375 
Q 29.5 3.125 25.875 7.90625 
L 25.875 0 
L 8.40625 0 
L 8.40625 75.984375 
L 25.875 75.984375 
z
" id="DejaVuSans-Bold-98"/>
       </defs>
       <use xlink:href="#DejaVuSans-Bold-83"/>
       <use x="72.021484" xlink:href="#DejaVuSans-Bold-101"/>
       <use x="139.84375" xlink:href="#DejaVuSans-Bold-112"/>
       <use x="211.425781" xlink:href="#DejaVuSans-Bold-116"/>
       <use x="259.228516" xlink:href="#DejaVuSans-Bold-101"/>
       <use x="327.050781" xlink:href="#DejaVuSans-Bold-109"/>
       <use x="431.25" xlink:href="#DejaVuSans-Bold-98"/>
       <use x="502.832031" xlink:href="#DejaVuSans-Bold-101"/>
       <use x="570.654297" xlink:href="#DejaVuSans-Bold-114"/>
      </g>
     </g>
    </g>
   </g>
   <g id="matplotlib.axis_2">
    <g id="ytick_1">
     <g id="line2d_7">
      <defs>
       <path d="M 0 0 
L -3.5 0 
" id="m206b6b4a79" style="stroke:#555555;stroke-width:0.8;"/>
      </defs>
      <g>
       <use style="fill:#555555;stroke:#555555;stroke-width:0.8;" x="51.842" xlink:href="#m206b6b4a79" y="525.082581"/>
      </g>
     </g>
     <g id="text_7">
      <!-- 0 -->
      <g style="fill:#555555;" transform="translate(35.101062 530.401487)scale(0.14 -0.14)">
       <defs>
        <path d="M 46 36.53125 
Q 46 50.203125 43.4375 55.78125 
Q 40.875 61.375 34.8125 61.375 
Q 28.765625 61.375 26.171875 55.78125 
Q 23.578125 50.203125 23.578125 36.53125 
Q 23.578125 22.703125 26.171875 17.03125 
Q 28.765625 11.375 34.8125 11.375 
Q 40.828125 11.375 43.40625 17.03125 
Q 46 22.703125 46 36.53125 
z
M 64.796875 36.375 
Q 64.796875 18.265625 56.984375 8.421875 
Q 49.171875 -1.421875 34.8125 -1.421875 
Q 20.40625 -1.421875 12.59375 8.421875 
Q 4.78125 18.265625 4.78125 36.375 
Q 4.78125 54.546875 12.59375 64.375 
Q 20.40625 74.21875 34.8125 74.21875 
Q 49.171875 74.21875 56.984375 64.375 
Q 64.796875 54.546875 64.796875 36.375 
z
" id="DejaVuSans-Bold-48"/>
       </defs>
       <use xlink:href="#DejaVuSans-Bold-48"/>
      </g>
     </g>
    </g>
    <g id="ytick_2">
     <g id="line2d_8">
      <g>
       <use style="fill:#555555;stroke:#555555;stroke-width:0.8;" x="51.842" xlink:href="#m206b6b4a79" y="363.108387"/>
      </g>
     </g>
     <g id="text_8">
      <!-- 1 -->
      <g style="fill:#555555;" transform="translate(35.101062 368.427293)scale(0.14 -0.14)">
       <defs>
        <path d="M 11.71875 12.984375 
L 28.328125 12.984375 
L 28.328125 60.109375 
L 11.28125 56.59375 
L 11.28125 69.390625 
L 28.21875 72.90625 
L 46.09375 72.90625 
L 46.09375 12.984375 
L 62.703125 12.984375 
L 62.703125 0 
L 11.71875 0 
z
" id="DejaVuSans-Bold-49"/>
       </defs>
       <use xlink:href="#DejaVuSans-Bold-49"/>
      </g>
     </g>
    </g>
    <g id="ytick_3">
     <g id="line2d_9">
      <g>
       <use style="fill:#555555;stroke:#555555;stroke-width:0.8;" x="51.842" xlink:href="#m206b6b4a79" y="201.134194"/>
      </g>
     </g>
     <g id="text_9">
      <!-- 2 -->
      <g style="fill:#555555;" transform="translate(35.101062 206.4531)scale(0.14 -0.14)">
       <defs>
        <path d="M 28.8125 13.8125 
L 60.890625 13.8125 
L 60.890625 0 
L 7.90625 0 
L 7.90625 13.8125 
L 34.515625 37.3125 
Q 38.09375 40.53125 39.796875 43.609375 
Q 41.5 46.6875 41.5 50 
Q 41.5 55.125 38.0625 58.25 
Q 34.625 61.375 28.90625 61.375 
Q 24.515625 61.375 19.28125 59.5 
Q 14.0625 57.625 8.109375 53.90625 
L 8.109375 69.921875 
Q 14.453125 72.015625 20.65625 73.109375 
Q 26.859375 74.21875 32.8125 74.21875 
Q 45.90625 74.21875 53.15625 68.453125 
Q 60.40625 62.703125 60.40625 52.390625 
Q 60.40625 46.4375 57.328125 41.28125 
Q 54.25 36.140625 44.390625 27.484375 
z
" id="DejaVuSans-Bold-50"/>
       </defs>
       <use xlink:href="#DejaVuSans-Bold-50"/>
      </g>
     </g>
    </g>
    <g id="ytick_4">
     <g id="line2d_10">
      <g>
       <use style="fill:#555555;stroke:#555555;stroke-width:0.8;" x="51.842" xlink:href="#m206b6b4a79" y="39.16"/>
      </g>
     </g>
     <g id="text_10">
      <!-- 3 -->
      <g style="fill:#555555;" transform="translate(35.101062 44.478906)scale(0.14 -0.14)">
       <defs>
        <path d="M 46.578125 39.3125 
Q 53.953125 37.40625 57.78125 32.6875 
Q 61.625 27.984375 61.625 20.703125 
Q 61.625 9.859375 53.3125 4.21875 
Q 45.015625 -1.421875 29.109375 -1.421875 
Q 23.484375 -1.421875 17.84375 -0.515625 
Q 12.203125 0.390625 6.6875 2.203125 
L 6.6875 16.703125 
Q 11.96875 14.0625 17.15625 12.71875 
Q 22.359375 11.375 27.390625 11.375 
Q 34.859375 11.375 38.84375 13.953125 
Q 42.828125 16.546875 42.828125 21.390625 
Q 42.828125 26.375 38.75 28.9375 
Q 34.671875 31.5 26.703125 31.5 
L 19.1875 31.5 
L 19.1875 43.609375 
L 27.09375 43.609375 
Q 34.1875 43.609375 37.640625 45.828125 
Q 41.109375 48.046875 41.109375 52.59375 
Q 41.109375 56.78125 37.734375 59.078125 
Q 34.375 61.375 28.21875 61.375 
Q 23.6875 61.375 19.046875 60.34375 
Q 14.40625 59.328125 9.8125 57.328125 
L 9.8125 71.09375 
Q 15.375 72.65625 20.84375 73.4375 
Q 26.3125 74.21875 31.59375 74.21875 
Q 45.796875 74.21875 52.84375 69.546875 
Q 59.90625 64.890625 59.90625 55.515625 
Q 59.90625 49.125 56.53125 45.046875 
Q 53.171875 40.96875 46.578125 39.3125 
z
" id="DejaVuSans-Bold-51"/>
       </defs>
       <use xlink:href="#DejaVuSans-Bold-51"/>
      </g>
     </g>
    </g>
    <g id="text_11">
     <!-- $R_{t}$ -->
     <g style="fill:#555555;" transform="translate(27.773562 299.34)rotate(-90)scale(0.16 -0.16)">
      <defs>
       <path d="M 36.71875 40.578125 
Q 43.109375 40.578125 46.40625 43.546875 
Q 49.703125 46.53125 49.703125 52.296875 
Q 49.703125 55.90625 47.4375 57.59375 
Q 45.171875 59.28125 40.28125 59.28125 
L 32.515625 59.28125 
L 28.8125 40.578125 
z
M 26.3125 27.59375 
L 20.90625 0 
L 2.09375 0 
L 16.3125 72.90625 
L 44.09375 72.90625 
Q 56.109375 72.90625 62.296875 68.40625 
Q 68.5 63.921875 68.5 55.171875 
Q 68.5 46.34375 63.609375 40.625 
Q 58.734375 34.90625 50.390625 34.078125 
Q 54.203125 33.296875 56.734375 30.1875 
Q 59.28125 27.09375 61.1875 20.703125 
L 67.390625 0 
L 48.6875 0 
L 43.21875 18.109375 
Q 41.546875 23.53125 39.171875 25.5625 
Q 36.8125 27.59375 32.328125 27.59375 
z
" id="DejaVuSans-BoldOblique-82"/>
       <path d="M 35.984375 70.21875 
L 33.015625 54.6875 
L 50.875 54.6875 
L 48.390625 42.1875 
L 30.515625 42.1875 
L 26.03125 19.046875 
Q 25.828125 18.265625 25.75 17.71875 
Q 25.6875 17.1875 25.6875 16.703125 
Q 25.6875 14.453125 27.171875 13.46875 
Q 28.65625 12.5 32.171875 12.5 
L 41.21875 12.5 
L 38.71875 0 
L 24.03125 0 
Q 16.109375 0 11.953125 3.3125 
Q 7.8125 6.640625 7.8125 12.890625 
Q 7.8125 14.265625 7.953125 15.828125 
Q 8.109375 17.390625 8.40625 19 
L 12.890625 42.1875 
L 4.296875 42.1875 
L 6.6875 54.6875 
L 15.375 54.6875 
L 18.40625 70.21875 
z
" id="DejaVuSans-BoldOblique-116"/>
      </defs>
      <use transform="translate(0 0.09375)" xlink:href="#DejaVuSans-BoldOblique-82"/>
      <use transform="translate(77.001953 -16.3125)scale(0.7)" xlink:href="#DejaVuSans-BoldOblique-116"/>
     </g>
    </g>
   </g>
   <g id="line2d_11">
    <path clip-path="url(#pd384fe3e8b)" d="M 51.842 363.108387 
L 1137.96 363.108387 
" style="fill:none;stroke:#ff0000;stroke-dasharray:2,3.3;stroke-dashoffset:0;stroke-width:2;"/>
   </g>
   <g id="line2d_12">
    <path clip-path="url(#pd384fe3e8b)" d="M 51.842 257.825161 
L 57.383418 218.951355 
L 62.924837 188.176258 
L 74.007673 152.541935 
L 79.549092 159.020903 
L 85.09051 162.260387 
L 90.631929 162.260387 
L 96.173347 160.640645 
L 101.714765 162.260387 
L 107.256184 162.260387 
L 118.33902 165.499871 
L 123.880439 168.739355 
L 129.421857 175.218323 
L 134.963276 184.936774 
L 146.046112 207.613161 
L 151.587531 215.711871 
L 157.128949 222.190839 
L 162.670367 231.90929 
L 168.211786 246.486968 
L 173.753204 265.923871 
L 184.836041 314.516129 
L 190.377459 335.572774 
L 195.918878 350.150452 
L 201.460296 356.629419 
L 212.543133 359.868903 
L 223.625969 359.868903 
L 229.167388 356.629419 
L 234.708806 350.150452 
L 240.250224 342.051742 
L 245.791643 338.812258 
L 251.333061 340.432 
L 256.87448 350.150452 
L 262.415898 364.728129 
L 267.957316 377.686065 
L 273.498735 384.165032 
L 279.040153 382.54529 
L 290.12299 376.066323 
L 295.664408 379.305806 
L 301.205827 387.404516 
L 312.288663 410.080903 
L 317.830082 416.559871 
L 328.912918 432.75729 
L 339.995755 458.673161 
L 345.537173 466.771871 
L 351.078592 468.391613 
L 356.62001 461.912645 
L 362.161429 450.574452 
L 367.702847 440.856 
L 373.244265 434.377032 
L 378.785684 432.75729 
L 389.86852 426.278323 
L 400.951357 416.559871 
L 406.492776 414.940129 
L 412.034194 416.559871 
L 417.575612 421.419097 
L 423.117031 424.658581 
L 428.658449 426.278323 
L 434.199867 424.658581 
L 450.824122 424.658581 
L 456.365541 423.038839 
L 461.906959 418.179613 
L 467.448378 408.461161 
L 472.989796 395.503226 
L 478.531214 384.165032 
L 484.072633 377.686065 
L 489.614051 374.446581 
L 495.155469 374.446581 
L 506.238306 377.686065 
L 522.862561 387.404516 
L 528.40398 392.263742 
L 533.945398 395.503226 
L 539.486816 393.883484 
L 545.028235 385.784774 
L 550.569653 374.446581 
L 556.111071 359.868903 
L 561.65249 348.53071 
L 567.193908 340.432 
L 572.735327 340.432 
L 578.276745 343.671484 
L 589.359582 356.629419 
L 600.442418 366.347871 
L 605.983837 372.826839 
L 617.066673 389.024258 
L 633.690929 418.179613 
L 639.232347 424.658581 
L 644.773765 429.517806 
L 650.315184 431.137548 
L 655.856602 427.898065 
L 661.39802 423.038839 
L 666.939439 416.559871 
L 672.480857 411.700645 
L 678.022276 408.461161 
L 683.563694 406.841419 
L 689.105112 408.461161 
L 700.187949 408.461161 
L 716.812204 403.601935 
L 722.353622 405.221677 
L 727.895041 408.461161 
L 733.436459 410.080903 
L 738.977878 408.461161 
L 744.519296 401.982194 
L 750.060714 392.263742 
L 755.602133 380.925548 
L 766.684969 355.009677 
L 777.767806 335.572774 
L 788.850643 312.896387 
L 799.93348 293.459484 
L 805.474898 286.980516 
L 811.016316 285.360774 
L 816.557735 288.600258 
L 822.099153 293.459484 
L 827.640571 299.938452 
L 833.18199 303.177935 
L 838.723408 303.177935 
L 844.264827 298.31871 
L 849.806245 290.22 
L 860.889082 270.783097 
L 866.4305 264.304129 
L 871.971918 262.684387 
L 877.513337 264.304129 
L 883.054755 267.543613 
L 888.596173 272.402839 
L 894.137592 278.881806 
L 899.67901 283.741032 
L 905.220429 286.980516 
L 910.761847 291.839742 
L 916.303265 295.079226 
L 927.386102 304.797677 
L 932.92752 314.516129 
L 938.468939 327.474065 
L 944.010357 342.051742 
L 949.551776 358.249161 
L 955.093194 372.826839 
L 960.634612 382.54529 
L 966.176031 387.404516 
L 971.717449 387.404516 
L 977.258867 385.784774 
L 993.883122 376.066323 
L 999.424541 374.446581 
L 1004.965959 371.207097 
L 1016.048796 367.967613 
L 1021.590214 364.728129 
L 1027.131633 363.108387 
L 1038.214469 353.389935 
L 1043.755888 343.671484 
L 1054.838724 320.995097 
L 1065.921561 301.558194 
L 1071.46298 295.079226 
L 1077.004398 290.22 
L 1082.545816 288.600258 
L 1088.087235 288.600258 
L 1093.628653 290.22 
L 1099.170071 293.459484 
L 1104.71149 295.079226 
L 1110.252908 298.31871 
L 1126.877163 298.31871 
L 1132.418582 299.938452 
L 1137.96 299.938452 
L 1137.96 299.938452 
" style="fill:none;stroke:#000000;stroke-linecap:square;"/>
    <defs>
     <path d="M 0 2.5 
C 0.663008 2.5 1.29895 2.236584 1.767767 1.767767 
C 2.236584 1.29895 2.5 0.663008 2.5 0 
C 2.5 -0.663008 2.236584 -1.29895 1.767767 -1.767767 
C 1.29895 -2.236584 0.663008 -2.5 0 -2.5 
C -0.663008 -2.5 -1.29895 -2.236584 -1.767767 -1.767767 
C -2.236584 -1.29895 -2.5 -0.663008 -2.5 0 
C -2.5 0.663008 -2.236584 1.29895 -1.767767 1.767767 
C -1.29895 2.236584 -0.663008 2.5 0 2.5 
z
" id="m51dcc32771" style="stroke:#000000;"/>
    </defs>
    <g clip-path="url(#pd384fe3e8b)">
     <use style="fill:#ffffff;stroke:#000000;" x="51.842" xlink:href="#m51dcc32771" y="257.825161"/>
     <use style="fill:#ffffff;stroke:#000000;" x="62.924837" xlink:href="#m51dcc32771" y="188.176258"/>
     <use style="fill:#ffffff;stroke:#000000;" x="74.007673" xlink:href="#m51dcc32771" y="152.541935"/>
     <use style="fill:#ffffff;stroke:#000000;" x="85.09051" xlink:href="#m51dcc32771" y="162.260387"/>
     <use style="fill:#ffffff;stroke:#000000;" x="96.173347" xlink:href="#m51dcc32771" y="160.640645"/>
     <use style="fill:#ffffff;stroke:#000000;" x="107.256184" xlink:href="#m51dcc32771" y="162.260387"/>
     <use style="fill:#ffffff;stroke:#000000;" x="118.33902" xlink:href="#m51dcc32771" y="165.499871"/>
     <use style="fill:#ffffff;stroke:#000000;" x="129.421857" xlink:href="#m51dcc32771" y="175.218323"/>
     <use style="fill:#ffffff;stroke:#000000;" x="140.504694" xlink:href="#m51dcc32771" y="196.274968"/>
     <use style="fill:#ffffff;stroke:#000000;" x="151.587531" xlink:href="#m51dcc32771" y="215.711871"/>
     <use style="fill:#ffffff;stroke:#000000;" x="162.670367" xlink:href="#m51dcc32771" y="231.90929"/>
     <use style="fill:#ffffff;stroke:#000000;" x="173.753204" xlink:href="#m51dcc32771" y="265.923871"/>
     <use style="fill:#ffffff;stroke:#000000;" x="184.836041" xlink:href="#m51dcc32771" y="314.516129"/>
     <use style="fill:#ffffff;stroke:#000000;" x="195.918878" xlink:href="#m51dcc32771" y="350.150452"/>
     <use style="fill:#ffffff;stroke:#000000;" x="207.001714" xlink:href="#m51dcc32771" y="358.249161"/>
     <use style="fill:#ffffff;stroke:#000000;" x="218.084551" xlink:href="#m51dcc32771" y="359.868903"/>
     <use style="fill:#ffffff;stroke:#000000;" x="229.167388" xlink:href="#m51dcc32771" y="356.629419"/>
     <use style="fill:#ffffff;stroke:#000000;" x="240.250224" xlink:href="#m51dcc32771" y="342.051742"/>
     <use style="fill:#ffffff;stroke:#000000;" x="251.333061" xlink:href="#m51dcc32771" y="340.432"/>
     <use style="fill:#ffffff;stroke:#000000;" x="262.415898" xlink:href="#m51dcc32771" y="364.728129"/>
     <use style="fill:#ffffff;stroke:#000000;" x="273.498735" xlink:href="#m51dcc32771" y="384.165032"/>
     <use style="fill:#ffffff;stroke:#000000;" x="284.581571" xlink:href="#m51dcc32771" y="379.305806"/>
     <use style="fill:#ffffff;stroke:#000000;" x="295.664408" xlink:href="#m51dcc32771" y="379.305806"/>
     <use style="fill:#ffffff;stroke:#000000;" x="306.747245" xlink:href="#m51dcc32771" y="398.74271"/>
     <use style="fill:#ffffff;stroke:#000000;" x="317.830082" xlink:href="#m51dcc32771" y="416.559871"/>
     <use style="fill:#ffffff;stroke:#000000;" x="328.912918" xlink:href="#m51dcc32771" y="432.75729"/>
     <use style="fill:#ffffff;stroke:#000000;" x="339.995755" xlink:href="#m51dcc32771" y="458.673161"/>
     <use style="fill:#ffffff;stroke:#000000;" x="351.078592" xlink:href="#m51dcc32771" y="468.391613"/>
     <use style="fill:#ffffff;stroke:#000000;" x="362.161429" xlink:href="#m51dcc32771" y="450.574452"/>
     <use style="fill:#ffffff;stroke:#000000;" x="373.244265" xlink:href="#m51dcc32771" y="434.377032"/>
     <use style="fill:#ffffff;stroke:#000000;" x="384.327102" xlink:href="#m51dcc32771" y="429.517806"/>
     <use style="fill:#ffffff;stroke:#000000;" x="395.409939" xlink:href="#m51dcc32771" y="421.419097"/>
     <use style="fill:#ffffff;stroke:#000000;" x="406.492776" xlink:href="#m51dcc32771" y="414.940129"/>
     <use style="fill:#ffffff;stroke:#000000;" x="417.575612" xlink:href="#m51dcc32771" y="421.419097"/>
     <use style="fill:#ffffff;stroke:#000000;" x="428.658449" xlink:href="#m51dcc32771" y="426.278323"/>
     <use style="fill:#ffffff;stroke:#000000;" x="439.741286" xlink:href="#m51dcc32771" y="424.658581"/>
     <use style="fill:#ffffff;stroke:#000000;" x="450.824122" xlink:href="#m51dcc32771" y="424.658581"/>
     <use style="fill:#ffffff;stroke:#000000;" x="461.906959" xlink:href="#m51dcc32771" y="418.179613"/>
     <use style="fill:#ffffff;stroke:#000000;" x="472.989796" xlink:href="#m51dcc32771" y="395.503226"/>
     <use style="fill:#ffffff;stroke:#000000;" x="484.072633" xlink:href="#m51dcc32771" y="377.686065"/>
     <use style="fill:#ffffff;stroke:#000000;" x="495.155469" xlink:href="#m51dcc32771" y="374.446581"/>
     <use style="fill:#ffffff;stroke:#000000;" x="506.238306" xlink:href="#m51dcc32771" y="377.686065"/>
     <use style="fill:#ffffff;stroke:#000000;" x="517.321143" xlink:href="#m51dcc32771" y="384.165032"/>
     <use style="fill:#ffffff;stroke:#000000;" x="528.40398" xlink:href="#m51dcc32771" y="392.263742"/>
     <use style="fill:#ffffff;stroke:#000000;" x="539.486816" xlink:href="#m51dcc32771" y="393.883484"/>
     <use style="fill:#ffffff;stroke:#000000;" x="550.569653" xlink:href="#m51dcc32771" y="374.446581"/>
     <use style="fill:#ffffff;stroke:#000000;" x="561.65249" xlink:href="#m51dcc32771" y="348.53071"/>
     <use style="fill:#ffffff;stroke:#000000;" x="572.735327" xlink:href="#m51dcc32771" y="340.432"/>
     <use style="fill:#ffffff;stroke:#000000;" x="583.818163" xlink:href="#m51dcc32771" y="350.150452"/>
     <use style="fill:#ffffff;stroke:#000000;" x="594.901" xlink:href="#m51dcc32771" y="361.488645"/>
     <use style="fill:#ffffff;stroke:#000000;" x="605.983837" xlink:href="#m51dcc32771" y="372.826839"/>
     <use style="fill:#ffffff;stroke:#000000;" x="617.066673" xlink:href="#m51dcc32771" y="389.024258"/>
     <use style="fill:#ffffff;stroke:#000000;" x="628.14951" xlink:href="#m51dcc32771" y="408.461161"/>
     <use style="fill:#ffffff;stroke:#000000;" x="639.232347" xlink:href="#m51dcc32771" y="424.658581"/>
     <use style="fill:#ffffff;stroke:#000000;" x="650.315184" xlink:href="#m51dcc32771" y="431.137548"/>
     <use style="fill:#ffffff;stroke:#000000;" x="661.39802" xlink:href="#m51dcc32771" y="423.038839"/>
     <use style="fill:#ffffff;stroke:#000000;" x="672.480857" xlink:href="#m51dcc32771" y="411.700645"/>
     <use style="fill:#ffffff;stroke:#000000;" x="683.563694" xlink:href="#m51dcc32771" y="406.841419"/>
     <use style="fill:#ffffff;stroke:#000000;" x="694.646531" xlink:href="#m51dcc32771" y="408.461161"/>
     <use style="fill:#ffffff;stroke:#000000;" x="705.729367" xlink:href="#m51dcc32771" y="406.841419"/>
     <use style="fill:#ffffff;stroke:#000000;" x="716.812204" xlink:href="#m51dcc32771" y="403.601935"/>
     <use style="fill:#ffffff;stroke:#000000;" x="727.895041" xlink:href="#m51dcc32771" y="408.461161"/>
     <use style="fill:#ffffff;stroke:#000000;" x="738.977878" xlink:href="#m51dcc32771" y="408.461161"/>
     <use style="fill:#ffffff;stroke:#000000;" x="750.060714" xlink:href="#m51dcc32771" y="392.263742"/>
     <use style="fill:#ffffff;stroke:#000000;" x="761.143551" xlink:href="#m51dcc32771" y="367.967613"/>
     <use style="fill:#ffffff;stroke:#000000;" x="772.226388" xlink:href="#m51dcc32771" y="345.291226"/>
     <use style="fill:#ffffff;stroke:#000000;" x="783.309224" xlink:href="#m51dcc32771" y="324.234581"/>
     <use style="fill:#ffffff;stroke:#000000;" x="794.392061" xlink:href="#m51dcc32771" y="303.177935"/>
     <use style="fill:#ffffff;stroke:#000000;" x="805.474898" xlink:href="#m51dcc32771" y="286.980516"/>
     <use style="fill:#ffffff;stroke:#000000;" x="816.557735" xlink:href="#m51dcc32771" y="288.600258"/>
     <use style="fill:#ffffff;stroke:#000000;" x="827.640571" xlink:href="#m51dcc32771" y="299.938452"/>
     <use style="fill:#ffffff;stroke:#000000;" x="838.723408" xlink:href="#m51dcc32771" y="303.177935"/>
     <use style="fill:#ffffff;stroke:#000000;" x="849.806245" xlink:href="#m51dcc32771" y="290.22"/>
     <use style="fill:#ffffff;stroke:#000000;" x="860.889082" xlink:href="#m51dcc32771" y="270.783097"/>
     <use style="fill:#ffffff;stroke:#000000;" x="871.971918" xlink:href="#m51dcc32771" y="262.684387"/>
     <use style="fill:#ffffff;stroke:#000000;" x="883.054755" xlink:href="#m51dcc32771" y="267.543613"/>
     <use style="fill:#ffffff;stroke:#000000;" x="894.137592" xlink:href="#m51dcc32771" y="278.881806"/>
     <use style="fill:#ffffff;stroke:#000000;" x="905.220429" xlink:href="#m51dcc32771" y="286.980516"/>
     <use style="fill:#ffffff;stroke:#000000;" x="916.303265" xlink:href="#m51dcc32771" y="295.079226"/>
     <use style="fill:#ffffff;stroke:#000000;" x="927.386102" xlink:href="#m51dcc32771" y="304.797677"/>
     <use style="fill:#ffffff;stroke:#000000;" x="938.468939" xlink:href="#m51dcc32771" y="327.474065"/>
     <use style="fill:#ffffff;stroke:#000000;" x="949.551776" xlink:href="#m51dcc32771" y="358.249161"/>
     <use style="fill:#ffffff;stroke:#000000;" x="960.634612" xlink:href="#m51dcc32771" y="382.54529"/>
     <use style="fill:#ffffff;stroke:#000000;" x="971.717449" xlink:href="#m51dcc32771" y="387.404516"/>
     <use style="fill:#ffffff;stroke:#000000;" x="982.800286" xlink:href="#m51dcc32771" y="382.54529"/>
     <use style="fill:#ffffff;stroke:#000000;" x="993.883122" xlink:href="#m51dcc32771" y="376.066323"/>
     <use style="fill:#ffffff;stroke:#000000;" x="1004.965959" xlink:href="#m51dcc32771" y="371.207097"/>
     <use style="fill:#ffffff;stroke:#000000;" x="1016.048796" xlink:href="#m51dcc32771" y="367.967613"/>
     <use style="fill:#ffffff;stroke:#000000;" x="1027.131633" xlink:href="#m51dcc32771" y="363.108387"/>
     <use style="fill:#ffffff;stroke:#000000;" x="1038.214469" xlink:href="#m51dcc32771" y="353.389935"/>
     <use style="fill:#ffffff;stroke:#000000;" x="1049.297306" xlink:href="#m51dcc32771" y="332.33329"/>
     <use style="fill:#ffffff;stroke:#000000;" x="1060.380143" xlink:href="#m51dcc32771" y="311.276645"/>
     <use style="fill:#ffffff;stroke:#000000;" x="1071.46298" xlink:href="#m51dcc32771" y="295.079226"/>
     <use style="fill:#ffffff;stroke:#000000;" x="1082.545816" xlink:href="#m51dcc32771" y="288.600258"/>
     <use style="fill:#ffffff;stroke:#000000;" x="1093.628653" xlink:href="#m51dcc32771" y="290.22"/>
     <use style="fill:#ffffff;stroke:#000000;" x="1104.71149" xlink:href="#m51dcc32771" y="295.079226"/>
     <use style="fill:#ffffff;stroke:#000000;" x="1115.794327" xlink:href="#m51dcc32771" y="298.31871"/>
     <use style="fill:#ffffff;stroke:#000000;" x="1126.877163" xlink:href="#m51dcc32771" y="298.31871"/>
     <use style="fill:#ffffff;stroke:#000000;" x="1137.96" xlink:href="#m51dcc32771" y="299.938452"/>
    </g>
   </g>
   <g id="patch_3">
    <path d="M 51.842 541.28 
L 51.842 39.16 
" style="fill:none;stroke:#555555;stroke-linecap:square;stroke-linejoin:miter;"/>
   </g>
   <g id="patch_4">
    <path d="M 51.842 541.28 
L 1137.96 541.28 
" style="fill:none;stroke:#555555;stroke-linecap:square;stroke-linejoin:miter;"/>
   </g>
   <g id="text_12">
    <!-- Last updated on 17 September 2020 with $R_t = 1.39$ and 95% confidence in range $1.14 - 1.61$ -->
    <g style="fill:#555555;" transform="translate(167.131 29.16)scale(0.18 -0.18)">
     <defs>
      <path d="M 9.8125 72.90625 
L 19.671875 72.90625 
L 19.671875 8.296875 
L 55.171875 8.296875 
L 55.171875 0 
L 9.8125 0 
z
" id="DejaVuSans-76"/>
      <path d="M 34.28125 27.484375 
Q 23.390625 27.484375 19.1875 25 
Q 14.984375 22.515625 14.984375 16.5 
Q 14.984375 11.71875 18.140625 8.90625 
Q 21.296875 6.109375 26.703125 6.109375 
Q 34.1875 6.109375 38.703125 11.40625 
Q 43.21875 16.703125 43.21875 25.484375 
L 43.21875 27.484375 
z
M 52.203125 31.203125 
L 52.203125 0 
L 43.21875 0 
L 43.21875 8.296875 
Q 40.140625 3.328125 35.546875 0.953125 
Q 30.953125 -1.421875 24.3125 -1.421875 
Q 15.921875 -1.421875 10.953125 3.296875 
Q 6 8.015625 6 15.921875 
Q 6 25.140625 12.171875 29.828125 
Q 18.359375 34.515625 30.609375 34.515625 
L 43.21875 34.515625 
L 43.21875 35.40625 
Q 43.21875 41.609375 39.140625 45 
Q 35.0625 48.390625 27.6875 48.390625 
Q 23 48.390625 18.546875 47.265625 
Q 14.109375 46.140625 10.015625 43.890625 
L 10.015625 52.203125 
Q 14.9375 54.109375 19.578125 55.046875 
Q 24.21875 56 28.609375 56 
Q 40.484375 56 46.34375 49.84375 
Q 52.203125 43.703125 52.203125 31.203125 
z
" id="DejaVuSans-97"/>
      <path d="M 44.28125 53.078125 
L 44.28125 44.578125 
Q 40.484375 46.53125 36.375 47.5 
Q 32.28125 48.484375 27.875 48.484375 
Q 21.1875 48.484375 17.84375 46.4375 
Q 14.5 44.390625 14.5 40.28125 
Q 14.5 37.15625 16.890625 35.375 
Q 19.28125 33.59375 26.515625 31.984375 
L 29.59375 31.296875 
Q 39.15625 29.25 43.1875 25.515625 
Q 47.21875 21.78125 47.21875 15.09375 
Q 47.21875 7.46875 41.1875 3.015625 
Q 35.15625 -1.421875 24.609375 -1.421875 
Q 20.21875 -1.421875 15.453125 -0.5625 
Q 10.6875 0.296875 5.421875 2 
L 5.421875 11.28125 
Q 10.40625 8.6875 15.234375 7.390625 
Q 20.0625 6.109375 24.8125 6.109375 
Q 31.15625 6.109375 34.5625 8.28125 
Q 37.984375 10.453125 37.984375 14.40625 
Q 37.984375 18.0625 35.515625 20.015625 
Q 33.0625 21.96875 24.703125 23.78125 
L 21.578125 24.515625 
Q 13.234375 26.265625 9.515625 29.90625 
Q 5.8125 33.546875 5.8125 39.890625 
Q 5.8125 47.609375 11.28125 51.796875 
Q 16.75 56 26.8125 56 
Q 31.78125 56 36.171875 55.265625 
Q 40.578125 54.546875 44.28125 53.078125 
z
" id="DejaVuSans-115"/>
      <path d="M 18.3125 70.21875 
L 18.3125 54.6875 
L 36.8125 54.6875 
L 36.8125 47.703125 
L 18.3125 47.703125 
L 18.3125 18.015625 
Q 18.3125 11.328125 20.140625 9.421875 
Q 21.96875 7.515625 27.59375 7.515625 
L 36.8125 7.515625 
L 36.8125 0 
L 27.59375 0 
Q 17.1875 0 13.234375 3.875 
Q 9.28125 7.765625 9.28125 18.015625 
L 9.28125 47.703125 
L 2.6875 47.703125 
L 2.6875 54.6875 
L 9.28125 54.6875 
L 9.28125 70.21875 
z
" id="DejaVuSans-116"/>
      <path id="DejaVuSans-32"/>
      <path d="M 8.5 21.578125 
L 8.5 54.6875 
L 17.484375 54.6875 
L 17.484375 21.921875 
Q 17.484375 14.15625 20.5 10.265625 
Q 23.53125 6.390625 29.59375 6.390625 
Q 36.859375 6.390625 41.078125 11.03125 
Q 45.3125 15.671875 45.3125 23.6875 
L 45.3125 54.6875 
L 54.296875 54.6875 
L 54.296875 0 
L 45.3125 0 
L 45.3125 8.40625 
Q 42.046875 3.421875 37.71875 1 
Q 33.40625 -1.421875 27.6875 -1.421875 
Q 18.265625 -1.421875 13.375 4.4375 
Q 8.5 10.296875 8.5 21.578125 
z
M 31.109375 56 
z
" id="DejaVuSans-117"/>
      <path d="M 18.109375 8.203125 
L 18.109375 -20.796875 
L 9.078125 -20.796875 
L 9.078125 54.6875 
L 18.109375 54.6875 
L 18.109375 46.390625 
Q 20.953125 51.265625 25.265625 53.625 
Q 29.59375 56 35.59375 56 
Q 45.5625 56 51.78125 48.09375 
Q 58.015625 40.1875 58.015625 27.296875 
Q 58.015625 14.40625 51.78125 6.484375 
Q 45.5625 -1.421875 35.59375 -1.421875 
Q 29.59375 -1.421875 25.265625 0.953125 
Q 20.953125 3.328125 18.109375 8.203125 
z
M 48.6875 27.296875 
Q 48.6875 37.203125 44.609375 42.84375 
Q 40.53125 48.484375 33.40625 48.484375 
Q 26.265625 48.484375 22.1875 42.84375 
Q 18.109375 37.203125 18.109375 27.296875 
Q 18.109375 17.390625 22.1875 11.75 
Q 26.265625 6.109375 33.40625 6.109375 
Q 40.53125 6.109375 44.609375 11.75 
Q 48.6875 17.390625 48.6875 27.296875 
z
" id="DejaVuSans-112"/>
      <path d="M 45.40625 46.390625 
L 45.40625 75.984375 
L 54.390625 75.984375 
L 54.390625 0 
L 45.40625 0 
L 45.40625 8.203125 
Q 42.578125 3.328125 38.25 0.953125 
Q 33.9375 -1.421875 27.875 -1.421875 
Q 17.96875 -1.421875 11.734375 6.484375 
Q 5.515625 14.40625 5.515625 27.296875 
Q 5.515625 40.1875 11.734375 48.09375 
Q 17.96875 56 27.875 56 
Q 33.9375 56 38.25 53.625 
Q 42.578125 51.265625 45.40625 46.390625 
z
M 14.796875 27.296875 
Q 14.796875 17.390625 18.875 11.75 
Q 22.953125 6.109375 30.078125 6.109375 
Q 37.203125 6.109375 41.296875 11.75 
Q 45.40625 17.390625 45.40625 27.296875 
Q 45.40625 37.203125 41.296875 42.84375 
Q 37.203125 48.484375 30.078125 48.484375 
Q 22.953125 48.484375 18.875 42.84375 
Q 14.796875 37.203125 14.796875 27.296875 
z
" id="DejaVuSans-100"/>
      <path d="M 56.203125 29.59375 
L 56.203125 25.203125 
L 14.890625 25.203125 
Q 15.484375 15.921875 20.484375 11.0625 
Q 25.484375 6.203125 34.421875 6.203125 
Q 39.59375 6.203125 44.453125 7.46875 
Q 49.3125 8.734375 54.109375 11.28125 
L 54.109375 2.78125 
Q 49.265625 0.734375 44.1875 -0.34375 
Q 39.109375 -1.421875 33.890625 -1.421875 
Q 20.796875 -1.421875 13.15625 6.1875 
Q 5.515625 13.8125 5.515625 26.8125 
Q 5.515625 40.234375 12.765625 48.109375 
Q 20.015625 56 32.328125 56 
Q 43.359375 56 49.78125 48.890625 
Q 56.203125 41.796875 56.203125 29.59375 
z
M 47.21875 32.234375 
Q 47.125 39.59375 43.09375 43.984375 
Q 39.0625 48.390625 32.421875 48.390625 
Q 24.90625 48.390625 20.390625 44.140625 
Q 15.875 39.890625 15.1875 32.171875 
z
" id="DejaVuSans-101"/>
      <path d="M 30.609375 48.390625 
Q 23.390625 48.390625 19.1875 42.75 
Q 14.984375 37.109375 14.984375 27.296875 
Q 14.984375 17.484375 19.15625 11.84375 
Q 23.34375 6.203125 30.609375 6.203125 
Q 37.796875 6.203125 41.984375 11.859375 
Q 46.1875 17.53125 46.1875 27.296875 
Q 46.1875 37.015625 41.984375 42.703125 
Q 37.796875 48.390625 30.609375 48.390625 
z
M 30.609375 56 
Q 42.328125 56 49.015625 48.375 
Q 55.71875 40.765625 55.71875 27.296875 
Q 55.71875 13.875 49.015625 6.21875 
Q 42.328125 -1.421875 30.609375 -1.421875 
Q 18.84375 -1.421875 12.171875 6.21875 
Q 5.515625 13.875 5.515625 27.296875 
Q 5.515625 40.765625 12.171875 48.375 
Q 18.84375 56 30.609375 56 
z
" id="DejaVuSans-111"/>
      <path d="M 54.890625 33.015625 
L 54.890625 0 
L 45.90625 0 
L 45.90625 32.71875 
Q 45.90625 40.484375 42.875 44.328125 
Q 39.84375 48.1875 33.796875 48.1875 
Q 26.515625 48.1875 22.3125 43.546875 
Q 18.109375 38.921875 18.109375 30.90625 
L 18.109375 0 
L 9.078125 0 
L 9.078125 54.6875 
L 18.109375 54.6875 
L 18.109375 46.1875 
Q 21.34375 51.125 25.703125 53.5625 
Q 30.078125 56 35.796875 56 
Q 45.21875 56 50.046875 50.171875 
Q 54.890625 44.34375 54.890625 33.015625 
z
" id="DejaVuSans-110"/>
      <path d="M 12.40625 8.296875 
L 28.515625 8.296875 
L 28.515625 63.921875 
L 10.984375 60.40625 
L 10.984375 69.390625 
L 28.421875 72.90625 
L 38.28125 72.90625 
L 38.28125 8.296875 
L 54.390625 8.296875 
L 54.390625 0 
L 12.40625 0 
z
" id="DejaVuSans-49"/>
      <path d="M 8.203125 72.90625 
L 55.078125 72.90625 
L 55.078125 68.703125 
L 28.609375 0 
L 18.3125 0 
L 43.21875 64.59375 
L 8.203125 64.59375 
z
" id="DejaVuSans-55"/>
      <path d="M 53.515625 70.515625 
L 53.515625 60.890625 
Q 47.90625 63.578125 42.921875 64.890625 
Q 37.9375 66.21875 33.296875 66.21875 
Q 25.25 66.21875 20.875 63.09375 
Q 16.5 59.96875 16.5 54.203125 
Q 16.5 49.359375 19.40625 46.890625 
Q 22.3125 44.4375 30.421875 42.921875 
L 36.375 41.703125 
Q 47.40625 39.59375 52.65625 34.296875 
Q 57.90625 29 57.90625 20.125 
Q 57.90625 9.515625 50.796875 4.046875 
Q 43.703125 -1.421875 29.984375 -1.421875 
Q 24.8125 -1.421875 18.96875 -0.25 
Q 13.140625 0.921875 6.890625 3.21875 
L 6.890625 13.375 
Q 12.890625 10.015625 18.65625 8.296875 
Q 24.421875 6.59375 29.984375 6.59375 
Q 38.421875 6.59375 43.015625 9.90625 
Q 47.609375 13.234375 47.609375 19.390625 
Q 47.609375 24.75 44.3125 27.78125 
Q 41.015625 30.8125 33.5 32.328125 
L 27.484375 33.5 
Q 16.453125 35.6875 11.515625 40.375 
Q 6.59375 45.0625 6.59375 53.421875 
Q 6.59375 63.09375 13.40625 68.65625 
Q 20.21875 74.21875 32.171875 74.21875 
Q 37.3125 74.21875 42.625 73.28125 
Q 47.953125 72.359375 53.515625 70.515625 
z
" id="DejaVuSans-83"/>
      <path d="M 52 44.1875 
Q 55.375 50.25 60.0625 53.125 
Q 64.75 56 71.09375 56 
Q 79.640625 56 84.28125 50.015625 
Q 88.921875 44.046875 88.921875 33.015625 
L 88.921875 0 
L 79.890625 0 
L 79.890625 32.71875 
Q 79.890625 40.578125 77.09375 44.375 
Q 74.3125 48.1875 68.609375 48.1875 
Q 61.625 48.1875 57.5625 43.546875 
Q 53.515625 38.921875 53.515625 30.90625 
L 53.515625 0 
L 44.484375 0 
L 44.484375 32.71875 
Q 44.484375 40.625 41.703125 44.40625 
Q 38.921875 48.1875 33.109375 48.1875 
Q 26.21875 48.1875 22.15625 43.53125 
Q 18.109375 38.875 18.109375 30.90625 
L 18.109375 0 
L 9.078125 0 
L 9.078125 54.6875 
L 18.109375 54.6875 
L 18.109375 46.1875 
Q 21.1875 51.21875 25.484375 53.609375 
Q 29.78125 56 35.6875 56 
Q 41.65625 56 45.828125 52.96875 
Q 50 49.953125 52 44.1875 
z
" id="DejaVuSans-109"/>
      <path d="M 48.6875 27.296875 
Q 48.6875 37.203125 44.609375 42.84375 
Q 40.53125 48.484375 33.40625 48.484375 
Q 26.265625 48.484375 22.1875 42.84375 
Q 18.109375 37.203125 18.109375 27.296875 
Q 18.109375 17.390625 22.1875 11.75 
Q 26.265625 6.109375 33.40625 6.109375 
Q 40.53125 6.109375 44.609375 11.75 
Q 48.6875 17.390625 48.6875 27.296875 
z
M 18.109375 46.390625 
Q 20.953125 51.265625 25.265625 53.625 
Q 29.59375 56 35.59375 56 
Q 45.5625 56 51.78125 48.09375 
Q 58.015625 40.1875 58.015625 27.296875 
Q 58.015625 14.40625 51.78125 6.484375 
Q 45.5625 -1.421875 35.59375 -1.421875 
Q 29.59375 -1.421875 25.265625 0.953125 
Q 20.953125 3.328125 18.109375 8.203125 
L 18.109375 0 
L 9.078125 0 
L 9.078125 75.984375 
L 18.109375 75.984375 
z
" id="DejaVuSans-98"/>
      <path d="M 41.109375 46.296875 
Q 39.59375 47.171875 37.8125 47.578125 
Q 36.03125 48 33.890625 48 
Q 26.265625 48 22.1875 43.046875 
Q 18.109375 38.09375 18.109375 28.8125 
L 18.109375 0 
L 9.078125 0 
L 9.078125 54.6875 
L 18.109375 54.6875 
L 18.109375 46.1875 
Q 20.953125 51.171875 25.484375 53.578125 
Q 30.03125 56 36.53125 56 
Q 37.453125 56 38.578125 55.875 
Q 39.703125 55.765625 41.0625 55.515625 
z
" id="DejaVuSans-114"/>
      <path d="M 19.1875 8.296875 
L 53.609375 8.296875 
L 53.609375 0 
L 7.328125 0 
L 7.328125 8.296875 
Q 12.9375 14.109375 22.625 23.890625 
Q 32.328125 33.6875 34.8125 36.53125 
Q 39.546875 41.84375 41.421875 45.53125 
Q 43.3125 49.21875 43.3125 52.78125 
Q 43.3125 58.59375 39.234375 62.25 
Q 35.15625 65.921875 28.609375 65.921875 
Q 23.96875 65.921875 18.8125 64.3125 
Q 13.671875 62.703125 7.8125 59.421875 
L 7.8125 69.390625 
Q 13.765625 71.78125 18.9375 73 
Q 24.125 74.21875 28.421875 74.21875 
Q 39.75 74.21875 46.484375 68.546875 
Q 53.21875 62.890625 53.21875 53.421875 
Q 53.21875 48.921875 51.53125 44.890625 
Q 49.859375 40.875 45.40625 35.40625 
Q 44.1875 33.984375 37.640625 27.21875 
Q 31.109375 20.453125 19.1875 8.296875 
z
" id="DejaVuSans-50"/>
      <path d="M 31.78125 66.40625 
Q 24.171875 66.40625 20.328125 58.90625 
Q 16.5 51.421875 16.5 36.375 
Q 16.5 21.390625 20.328125 13.890625 
Q 24.171875 6.390625 31.78125 6.390625 
Q 39.453125 6.390625 43.28125 13.890625 
Q 47.125 21.390625 47.125 36.375 
Q 47.125 51.421875 43.28125 58.90625 
Q 39.453125 66.40625 31.78125 66.40625 
z
M 31.78125 74.21875 
Q 44.046875 74.21875 50.515625 64.515625 
Q 56.984375 54.828125 56.984375 36.375 
Q 56.984375 17.96875 50.515625 8.265625 
Q 44.046875 -1.421875 31.78125 -1.421875 
Q 19.53125 -1.421875 13.0625 8.265625 
Q 6.59375 17.96875 6.59375 36.375 
Q 6.59375 54.828125 13.0625 64.515625 
Q 19.53125 74.21875 31.78125 74.21875 
z
" id="DejaVuSans-48"/>
      <path d="M 4.203125 54.6875 
L 13.1875 54.6875 
L 24.421875 12.015625 
L 35.59375 54.6875 
L 46.1875 54.6875 
L 57.421875 12.015625 
L 68.609375 54.6875 
L 77.59375 54.6875 
L 63.28125 0 
L 52.6875 0 
L 40.921875 44.828125 
L 29.109375 0 
L 18.5 0 
z
" id="DejaVuSans-119"/>
      <path d="M 9.421875 54.6875 
L 18.40625 54.6875 
L 18.40625 0 
L 9.421875 0 
z
M 9.421875 75.984375 
L 18.40625 75.984375 
L 18.40625 64.59375 
L 9.421875 64.59375 
z
" id="DejaVuSans-105"/>
      <path d="M 54.890625 33.015625 
L 54.890625 0 
L 45.90625 0 
L 45.90625 32.71875 
Q 45.90625 40.484375 42.875 44.328125 
Q 39.84375 48.1875 33.796875 48.1875 
Q 26.515625 48.1875 22.3125 43.546875 
Q 18.109375 38.921875 18.109375 30.90625 
L 18.109375 0 
L 9.078125 0 
L 9.078125 75.984375 
L 18.109375 75.984375 
L 18.109375 46.1875 
Q 21.34375 51.125 25.703125 53.5625 
Q 30.078125 56 35.796875 56 
Q 45.21875 56 50.046875 50.171875 
Q 54.890625 44.34375 54.890625 33.015625 
z
" id="DejaVuSans-104"/>
      <path d="M 10.59375 48.1875 
L 73.1875 48.1875 
L 73.1875 36.71875 
L 10.59375 36.71875 
z
M 10.59375 25.984375 
L 73.1875 25.984375 
L 73.1875 14.40625 
L 10.59375 14.40625 
z
" id="DejaVuSans-Bold-61"/>
      <path d="M 10.203125 18.890625 
L 27.78125 18.890625 
L 27.78125 0 
L 10.203125 0 
z
" id="DejaVuSans-Bold-46"/>
      <path d="M 10.015625 1.609375 
L 10.015625 15.09375 
Q 14.5 12.984375 18.59375 11.9375 
Q 22.703125 10.890625 26.703125 10.890625 
Q 35.109375 10.890625 39.796875 15.546875 
Q 44.484375 20.21875 45.3125 29.390625 
Q 42 26.953125 38.234375 25.734375 
Q 34.46875 24.515625 30.078125 24.515625 
Q 18.890625 24.515625 12.03125 31.03125 
Q 5.171875 37.546875 5.171875 48.1875 
Q 5.171875 59.96875 12.8125 67.046875 
Q 20.453125 74.125 33.296875 74.125 
Q 47.5625 74.125 55.375 64.5 
Q 63.1875 54.890625 63.1875 37.3125 
Q 63.1875 19.234375 54.046875 8.90625 
Q 44.921875 -1.421875 29 -1.421875 
Q 23.875 -1.421875 19.1875 -0.65625 
Q 14.5 0.09375 10.015625 1.609375 
z
M 33.203125 36.71875 
Q 38.140625 36.71875 40.625 39.90625 
Q 43.109375 43.109375 43.109375 49.515625 
Q 43.109375 55.859375 40.625 59.078125 
Q 38.140625 62.3125 33.203125 62.3125 
Q 28.265625 62.3125 25.78125 59.078125 
Q 23.296875 55.859375 23.296875 49.515625 
Q 23.296875 43.109375 25.78125 39.90625 
Q 28.265625 36.71875 33.203125 36.71875 
z
" id="DejaVuSans-Bold-57"/>
      <path d="M 10.984375 1.515625 
L 10.984375 10.5 
Q 14.703125 8.734375 18.5 7.8125 
Q 22.3125 6.890625 25.984375 6.890625 
Q 35.75 6.890625 40.890625 13.453125 
Q 46.046875 20.015625 46.78125 33.40625 
Q 43.953125 29.203125 39.59375 26.953125 
Q 35.25 24.703125 29.984375 24.703125 
Q 19.046875 24.703125 12.671875 31.3125 
Q 6.296875 37.9375 6.296875 49.421875 
Q 6.296875 60.640625 12.9375 67.421875 
Q 19.578125 74.21875 30.609375 74.21875 
Q 43.265625 74.21875 49.921875 64.515625 
Q 56.59375 54.828125 56.59375 36.375 
Q 56.59375 19.140625 48.40625 8.859375 
Q 40.234375 -1.421875 26.421875 -1.421875 
Q 22.703125 -1.421875 18.890625 -0.6875 
Q 15.09375 0.046875 10.984375 1.515625 
z
M 30.609375 32.421875 
Q 37.25 32.421875 41.125 36.953125 
Q 45.015625 41.5 45.015625 49.421875 
Q 45.015625 57.28125 41.125 61.84375 
Q 37.25 66.40625 30.609375 66.40625 
Q 23.96875 66.40625 20.09375 61.84375 
Q 16.21875 57.28125 16.21875 49.421875 
Q 16.21875 41.5 20.09375 36.953125 
Q 23.96875 32.421875 30.609375 32.421875 
z
" id="DejaVuSans-57"/>
      <path d="M 10.796875 72.90625 
L 49.515625 72.90625 
L 49.515625 64.59375 
L 19.828125 64.59375 
L 19.828125 46.734375 
Q 21.96875 47.46875 24.109375 47.828125 
Q 26.265625 48.1875 28.421875 48.1875 
Q 40.625 48.1875 47.75 41.5 
Q 54.890625 34.8125 54.890625 23.390625 
Q 54.890625 11.625 47.5625 5.09375 
Q 40.234375 -1.421875 26.90625 -1.421875 
Q 22.3125 -1.421875 17.546875 -0.640625 
Q 12.796875 0.140625 7.71875 1.703125 
L 7.71875 11.625 
Q 12.109375 9.234375 16.796875 8.0625 
Q 21.484375 6.890625 26.703125 6.890625 
Q 35.15625 6.890625 40.078125 11.328125 
Q 45.015625 15.765625 45.015625 23.390625 
Q 45.015625 31 40.078125 35.4375 
Q 35.15625 39.890625 26.703125 39.890625 
Q 22.75 39.890625 18.8125 39.015625 
Q 14.890625 38.140625 10.796875 36.28125 
z
" id="DejaVuSans-53"/>
      <path d="M 72.703125 32.078125 
Q 68.453125 32.078125 66.03125 28.46875 
Q 63.625 24.859375 63.625 18.40625 
Q 63.625 12.0625 66.03125 8.421875 
Q 68.453125 4.78125 72.703125 4.78125 
Q 76.859375 4.78125 79.265625 8.421875 
Q 81.6875 12.0625 81.6875 18.40625 
Q 81.6875 24.8125 79.265625 28.4375 
Q 76.859375 32.078125 72.703125 32.078125 
z
M 72.703125 38.28125 
Q 80.421875 38.28125 84.953125 32.90625 
Q 89.5 27.546875 89.5 18.40625 
Q 89.5 9.28125 84.9375 3.921875 
Q 80.375 -1.421875 72.703125 -1.421875 
Q 64.890625 -1.421875 60.34375 3.921875 
Q 55.8125 9.28125 55.8125 18.40625 
Q 55.8125 27.59375 60.375 32.9375 
Q 64.9375 38.28125 72.703125 38.28125 
z
M 22.3125 68.015625 
Q 18.109375 68.015625 15.6875 64.375 
Q 13.28125 60.75 13.28125 54.390625 
Q 13.28125 47.953125 15.671875 44.328125 
Q 18.0625 40.71875 22.3125 40.71875 
Q 26.5625 40.71875 28.96875 44.328125 
Q 31.390625 47.953125 31.390625 54.390625 
Q 31.390625 60.6875 28.953125 64.34375 
Q 26.515625 68.015625 22.3125 68.015625 
z
M 66.40625 74.21875 
L 74.21875 74.21875 
L 28.609375 -1.421875 
L 20.796875 -1.421875 
z
M 22.3125 74.21875 
Q 30.03125 74.21875 34.609375 68.875 
Q 39.203125 63.53125 39.203125 54.390625 
Q 39.203125 45.171875 34.640625 39.84375 
Q 30.078125 34.515625 22.3125 34.515625 
Q 14.546875 34.515625 10.03125 39.859375 
Q 5.515625 45.21875 5.515625 54.390625 
Q 5.515625 63.484375 10.046875 68.84375 
Q 14.59375 74.21875 22.3125 74.21875 
z
" id="DejaVuSans-37"/>
      <path d="M 48.78125 52.59375 
L 48.78125 44.1875 
Q 44.96875 46.296875 41.140625 47.34375 
Q 37.3125 48.390625 33.40625 48.390625 
Q 24.65625 48.390625 19.8125 42.84375 
Q 14.984375 37.3125 14.984375 27.296875 
Q 14.984375 17.28125 19.8125 11.734375 
Q 24.65625 6.203125 33.40625 6.203125 
Q 37.3125 6.203125 41.140625 7.25 
Q 44.96875 8.296875 48.78125 10.40625 
L 48.78125 2.09375 
Q 45.015625 0.34375 40.984375 -0.53125 
Q 36.96875 -1.421875 32.421875 -1.421875 
Q 20.0625 -1.421875 12.78125 6.34375 
Q 5.515625 14.109375 5.515625 27.296875 
Q 5.515625 40.671875 12.859375 48.328125 
Q 20.21875 56 33.015625 56 
Q 37.15625 56 41.109375 55.140625 
Q 45.0625 54.296875 48.78125 52.59375 
z
" id="DejaVuSans-99"/>
      <path d="M 37.109375 75.984375 
L 37.109375 68.5 
L 28.515625 68.5 
Q 23.6875 68.5 21.796875 66.546875 
Q 19.921875 64.59375 19.921875 59.515625 
L 19.921875 54.6875 
L 34.71875 54.6875 
L 34.71875 47.703125 
L 19.921875 47.703125 
L 19.921875 0 
L 10.890625 0 
L 10.890625 47.703125 
L 2.296875 47.703125 
L 2.296875 54.6875 
L 10.890625 54.6875 
L 10.890625 58.5 
Q 10.890625 67.625 15.140625 71.796875 
Q 19.390625 75.984375 28.609375 75.984375 
z
" id="DejaVuSans-102"/>
      <path d="M 45.40625 27.984375 
Q 45.40625 37.75 41.375 43.109375 
Q 37.359375 48.484375 30.078125 48.484375 
Q 22.859375 48.484375 18.828125 43.109375 
Q 14.796875 37.75 14.796875 27.984375 
Q 14.796875 18.265625 18.828125 12.890625 
Q 22.859375 7.515625 30.078125 7.515625 
Q 37.359375 7.515625 41.375 12.890625 
Q 45.40625 18.265625 45.40625 27.984375 
z
M 54.390625 6.78125 
Q 54.390625 -7.171875 48.1875 -13.984375 
Q 42 -20.796875 29.203125 -20.796875 
Q 24.46875 -20.796875 20.265625 -20.09375 
Q 16.0625 -19.390625 12.109375 -17.921875 
L 12.109375 -9.1875 
Q 16.0625 -11.328125 19.921875 -12.34375 
Q 23.78125 -13.375 27.78125 -13.375 
Q 36.625 -13.375 41.015625 -8.765625 
Q 45.40625 -4.15625 45.40625 5.171875 
L 45.40625 9.625 
Q 42.625 4.78125 38.28125 2.390625 
Q 33.9375 0 27.875 0 
Q 17.828125 0 11.671875 7.65625 
Q 5.515625 15.328125 5.515625 27.984375 
Q 5.515625 40.671875 11.671875 48.328125 
Q 17.828125 56 27.875 56 
Q 33.9375 56 38.28125 53.609375 
Q 42.625 51.21875 45.40625 46.390625 
L 45.40625 54.6875 
L 54.390625 54.6875 
z
" id="DejaVuSans-103"/>
      <path d="M 36.8125 57.421875 
L 16.21875 26.90625 
L 36.8125 26.90625 
z
M 33.6875 72.90625 
L 54.59375 72.90625 
L 54.59375 26.90625 
L 64.984375 26.90625 
L 64.984375 13.28125 
L 54.59375 13.28125 
L 54.59375 0 
L 36.8125 0 
L 36.8125 13.28125 
L 4.5 13.28125 
L 4.5 29.390625 
z
" id="DejaVuSans-Bold-52"/>
      <path d="M 10.59375 37.109375 
L 73.1875 37.109375 
L 73.1875 25.59375 
L 10.59375 25.59375 
z
" id="DejaVuSans-Bold-8722"/>
      <path d="M 36.1875 35.984375 
Q 31.25 35.984375 28.78125 32.78125 
Q 26.3125 29.59375 26.3125 23.1875 
Q 26.3125 16.796875 28.78125 13.59375 
Q 31.25 10.40625 36.1875 10.40625 
Q 41.15625 10.40625 43.625 13.59375 
Q 46.09375 16.796875 46.09375 23.1875 
Q 46.09375 29.59375 43.625 32.78125 
Q 41.15625 35.984375 36.1875 35.984375 
z
M 59.421875 71 
L 59.421875 57.515625 
Q 54.78125 59.71875 50.671875 60.765625 
Q 46.578125 61.8125 42.671875 61.8125 
Q 34.28125 61.8125 29.59375 57.140625 
Q 24.90625 52.484375 24.125 43.3125 
Q 27.34375 45.703125 31.09375 46.890625 
Q 34.859375 48.09375 39.3125 48.09375 
Q 50.484375 48.09375 57.34375 41.546875 
Q 64.203125 35.015625 64.203125 24.421875 
Q 64.203125 12.703125 56.53125 5.640625 
Q 48.875 -1.421875 35.984375 -1.421875 
Q 21.78125 -1.421875 13.984375 8.171875 
Q 6.203125 17.78125 6.203125 35.40625 
Q 6.203125 53.46875 15.3125 63.796875 
Q 24.421875 74.125 40.28125 74.125 
Q 45.3125 74.125 50.046875 73.34375 
Q 54.78125 72.5625 59.421875 71 
z
" id="DejaVuSans-Bold-54"/>
     </defs>
     <use transform="translate(0 0.015625)" xlink:href="#DejaVuSans-76"/>
     <use transform="translate(55.712891 0.015625)" xlink:href="#DejaVuSans-97"/>
     <use transform="translate(116.992188 0.015625)" xlink:href="#DejaVuSans-115"/>
     <use transform="translate(169.091797 0.015625)" xlink:href="#DejaVuSans-116"/>
     <use transform="translate(208.300781 0.015625)" xlink:href="#DejaVuSans-32"/>
     <use transform="translate(240.087891 0.015625)" xlink:href="#DejaVuSans-117"/>
     <use transform="translate(303.466797 0.015625)" xlink:href="#DejaVuSans-112"/>
     <use transform="translate(366.943359 0.015625)" xlink:href="#DejaVuSans-100"/>
     <use transform="translate(430.419922 0.015625)" xlink:href="#DejaVuSans-97"/>
     <use transform="translate(491.699219 0.015625)" xlink:href="#DejaVuSans-116"/>
     <use transform="translate(530.908203 0.015625)" xlink:href="#DejaVuSans-101"/>
     <use transform="translate(592.431641 0.015625)" xlink:href="#DejaVuSans-100"/>
     <use transform="translate(655.908203 0.015625)" xlink:href="#DejaVuSans-32"/>
     <use transform="translate(687.695312 0.015625)" xlink:href="#DejaVuSans-111"/>
     <use transform="translate(748.876953 0.015625)" xlink:href="#DejaVuSans-110"/>
     <use transform="translate(812.255859 0.015625)" xlink:href="#DejaVuSans-32"/>
     <use transform="translate(844.042969 0.015625)" xlink:href="#DejaVuSans-49"/>
     <use transform="translate(907.666016 0.015625)" xlink:href="#DejaVuSans-55"/>
     <use transform="translate(971.289062 0.015625)" xlink:href="#DejaVuSans-32"/>
     <use transform="translate(1003.076172 0.015625)" xlink:href="#DejaVuSans-83"/>
     <use transform="translate(1066.552734 0.015625)" xlink:href="#DejaVuSans-101"/>
     <use transform="translate(1128.076172 0.015625)" xlink:href="#DejaVuSans-112"/>
     <use transform="translate(1191.552734 0.015625)" xlink:href="#DejaVuSans-116"/>
     <use transform="translate(1230.761719 0.015625)" xlink:href="#DejaVuSans-101"/>
     <use transform="translate(1292.285156 0.015625)" xlink:href="#DejaVuSans-109"/>
     <use transform="translate(1389.697266 0.015625)" xlink:href="#DejaVuSans-98"/>
     <use transform="translate(1453.173828 0.015625)" xlink:href="#DejaVuSans-101"/>
     <use transform="translate(1514.697266 0.015625)" xlink:href="#DejaVuSans-114"/>
     <use transform="translate(1555.810547 0.015625)" xlink:href="#DejaVuSans-32"/>
     <use transform="translate(1587.597656 0.015625)" xlink:href="#DejaVuSans-50"/>
     <use transform="translate(1651.220703 0.015625)" xlink:href="#DejaVuSans-48"/>
     <use transform="translate(1714.84375 0.015625)" xlink:href="#DejaVuSans-50"/>
     <use transform="translate(1778.466797 0.015625)" xlink:href="#DejaVuSans-48"/>
     <use transform="translate(1842.089844 0.015625)" xlink:href="#DejaVuSans-32"/>
     <use transform="translate(1873.876953 0.015625)" xlink:href="#DejaVuSans-119"/>
     <use transform="translate(1955.664062 0.015625)" xlink:href="#DejaVuSans-105"/>
     <use transform="translate(1983.447266 0.015625)" xlink:href="#DejaVuSans-116"/>
     <use transform="translate(2022.65625 0.015625)" xlink:href="#DejaVuSans-104"/>
     <use transform="translate(2086.035156 0.015625)" xlink:href="#DejaVuSans-32"/>
     <use transform="translate(2117.822266 0.015625)" xlink:href="#DejaVuSans-BoldOblique-82"/>
     <use transform="translate(2194.824219 -16.390625)scale(0.7)" xlink:href="#DejaVuSans-BoldOblique-116"/>
     <use transform="translate(2251.860352 0.015625)" xlink:href="#DejaVuSans-Bold-61"/>
     <use transform="translate(2356.489258 0.015625)" xlink:href="#DejaVuSans-Bold-49"/>
     <use transform="translate(2426.069336 0.015625)" xlink:href="#DejaVuSans-Bold-46"/>
     <use transform="translate(2464.057617 0.015625)" xlink:href="#DejaVuSans-Bold-51"/>
     <use transform="translate(2533.637695 0.015625)" xlink:href="#DejaVuSans-Bold-57"/>
     <use transform="translate(2603.217773 0.015625)" xlink:href="#DejaVuSans-32"/>
     <use transform="translate(2635.004883 0.015625)" xlink:href="#DejaVuSans-97"/>
     <use transform="translate(2696.28418 0.015625)" xlink:href="#DejaVuSans-110"/>
     <use transform="translate(2759.663086 0.015625)" xlink:href="#DejaVuSans-100"/>
     <use transform="translate(2823.139648 0.015625)" xlink:href="#DejaVuSans-32"/>
     <use transform="translate(2854.926758 0.015625)" xlink:href="#DejaVuSans-57"/>
     <use transform="translate(2918.549805 0.015625)" xlink:href="#DejaVuSans-53"/>
     <use transform="translate(2982.172852 0.015625)" xlink:href="#DejaVuSans-37"/>
     <use transform="translate(3077.192383 0.015625)" xlink:href="#DejaVuSans-32"/>
     <use transform="translate(3108.979492 0.015625)" xlink:href="#DejaVuSans-99"/>
     <use transform="translate(3163.959961 0.015625)" xlink:href="#DejaVuSans-111"/>
     <use transform="translate(3225.141602 0.015625)" xlink:href="#DejaVuSans-110"/>
     <use transform="translate(3288.520508 0.015625)" xlink:href="#DejaVuSans-102"/>
     <use transform="translate(3323.725586 0.015625)" xlink:href="#DejaVuSans-105"/>
     <use transform="translate(3351.508789 0.015625)" xlink:href="#DejaVuSans-100"/>
     <use transform="translate(3414.985352 0.015625)" xlink:href="#DejaVuSans-101"/>
     <use transform="translate(3476.508789 0.015625)" xlink:href="#DejaVuSans-110"/>
     <use transform="translate(3539.887695 0.015625)" xlink:href="#DejaVuSans-99"/>
     <use transform="translate(3594.868164 0.015625)" xlink:href="#DejaVuSans-101"/>
     <use transform="translate(3656.391602 0.015625)" xlink:href="#DejaVuSans-32"/>
     <use transform="translate(3688.178711 0.015625)" xlink:href="#DejaVuSans-105"/>
     <use transform="translate(3715.961914 0.015625)" xlink:href="#DejaVuSans-110"/>
     <use transform="translate(3779.34082 0.015625)" xlink:href="#DejaVuSans-32"/>
     <use transform="translate(3811.12793 0.015625)" xlink:href="#DejaVuSans-114"/>
     <use transform="translate(3852.241211 0.015625)" xlink:href="#DejaVuSans-97"/>
     <use transform="translate(3913.520508 0.015625)" xlink:href="#DejaVuSans-110"/>
     <use transform="translate(3976.899414 0.015625)" xlink:href="#DejaVuSans-103"/>
     <use transform="translate(4040.375977 0.015625)" xlink:href="#DejaVuSans-101"/>
     <use transform="translate(4101.899414 0.015625)" xlink:href="#DejaVuSans-32"/>
     <use transform="translate(4133.686523 0.015625)" xlink:href="#DejaVuSans-Bold-49"/>
     <use transform="translate(4203.266602 0.015625)" xlink:href="#DejaVuSans-Bold-46"/>
     <use transform="translate(4241.254883 0.015625)" xlink:href="#DejaVuSans-Bold-49"/>
     <use transform="translate(4310.834961 0.015625)" xlink:href="#DejaVuSans-Bold-52"/>
     <use transform="translate(4401.254883 0.015625)" xlink:href="#DejaVuSans-Bold-8722"/>
     <use transform="translate(4505.883789 0.015625)" xlink:href="#DejaVuSans-Bold-49"/>
     <use transform="translate(4575.463867 0.015625)" xlink:href="#DejaVuSans-Bold-46"/>
     <use transform="translate(4613.452148 0.015625)" xlink:href="#DejaVuSans-Bold-54"/>
     <use transform="translate(4683.032227 0.015625)" xlink:href="#DejaVuSans-Bold-49"/>
    </g>
   </g>
   <g id="legend_1">
    <g id="line2d_13">
     <path d="M 952.2 60.12 
L 984.2 60.12 
" style="fill:none;stroke:#000000;stroke-linecap:square;"/>
    </g>
    <g id="line2d_14">
     <g>
      <use style="fill:#ffffff;stroke:#000000;" x="968.2" xlink:href="#m51dcc32771" y="60.12"/>
     </g>
    </g>
    <g id="text_13">
     <!-- Most Likely $R_t$ -->
     <g style="fill:#555555;" transform="translate(997 65.72)scale(0.16 -0.16)">
      <defs>
       <path d="M 34.421875 43.5 
Q 28.609375 43.5 25.5625 39.328125 
Q 22.515625 35.15625 22.515625 27.296875 
Q 22.515625 19.4375 25.5625 15.25 
Q 28.609375 11.078125 34.421875 11.078125 
Q 40.140625 11.078125 43.15625 15.25 
Q 46.1875 19.4375 46.1875 27.296875 
Q 46.1875 35.15625 43.15625 39.328125 
Q 40.140625 43.5 34.421875 43.5 
z
M 34.421875 56 
Q 48.53125 56 56.46875 48.375 
Q 64.40625 40.765625 64.40625 27.296875 
Q 64.40625 13.8125 56.46875 6.1875 
Q 48.53125 -1.421875 34.421875 -1.421875 
Q 20.265625 -1.421875 12.28125 6.1875 
Q 4.296875 13.8125 4.296875 27.296875 
Q 4.296875 40.765625 12.28125 48.375 
Q 20.265625 56 34.421875 56 
z
" id="DejaVuSans-Bold-111"/>
       <path id="DejaVuSans-Bold-32"/>
       <path d="M 9.1875 72.90625 
L 27.984375 72.90625 
L 27.984375 14.203125 
L 60.984375 14.203125 
L 60.984375 0 
L 9.1875 0 
z
" id="DejaVuSans-Bold-76"/>
       <path d="M 8.40625 75.984375 
L 25.875 75.984375 
L 25.875 34.625 
L 46 54.6875 
L 66.3125 54.6875 
L 39.59375 29.59375 
L 68.40625 0 
L 47.21875 0 
L 25.875 22.796875 
L 25.875 0 
L 8.40625 0 
z
" id="DejaVuSans-Bold-107"/>
      </defs>
      <use transform="translate(0 0.015625)" xlink:href="#DejaVuSans-Bold-77"/>
      <use transform="translate(99.511719 0.015625)" xlink:href="#DejaVuSans-Bold-111"/>
      <use transform="translate(168.212891 0.015625)" xlink:href="#DejaVuSans-Bold-115"/>
      <use transform="translate(227.734375 0.015625)" xlink:href="#DejaVuSans-Bold-116"/>
      <use transform="translate(275.537109 0.015625)" xlink:href="#DejaVuSans-Bold-32"/>
      <use transform="translate(310.351562 0.015625)" xlink:href="#DejaVuSans-Bold-76"/>
      <use transform="translate(374.072266 0.015625)" xlink:href="#DejaVuSans-Bold-105"/>
      <use transform="translate(408.349609 0.015625)" xlink:href="#DejaVuSans-Bold-107"/>
      <use transform="translate(474.853516 0.015625)" xlink:href="#DejaVuSans-Bold-101"/>
      <use transform="translate(542.675781 0.015625)" xlink:href="#DejaVuSans-Bold-108"/>
      <use transform="translate(576.953125 0.015625)" xlink:href="#DejaVuSans-Bold-121"/>
      <use transform="translate(642.138672 0.015625)" xlink:href="#DejaVuSans-Bold-32"/>
      <use transform="translate(676.953125 0.015625)" xlink:href="#DejaVuSans-BoldOblique-82"/>
      <use transform="translate(753.955078 -16.390625)scale(0.7)" xlink:href="#DejaVuSans-BoldOblique-116"/>
     </g>
    </g>
    <g id="patch_5">
     <path d="M 952.2 89.3975 
L 984.2 89.3975 
L 984.2 78.1975 
L 952.2 78.1975 
z
" style="fill:#e6e6e6;stroke:#e6e6e6;stroke-linejoin:miter;"/>
    </g>
    <g id="text_14">
     <!-- 95% CI -->
     <g style="fill:#555555;" transform="translate(997 89.3975)scale(0.16 -0.16)">
      <defs>
       <path d="M 10.59375 72.90625 
L 57.328125 72.90625 
L 57.328125 59.078125 
L 25.59375 59.078125 
L 25.59375 47.796875 
Q 27.734375 48.390625 29.90625 48.703125 
Q 32.078125 49.03125 34.421875 49.03125 
Q 47.75 49.03125 55.171875 42.359375 
Q 62.59375 35.6875 62.59375 23.78125 
Q 62.59375 11.96875 54.515625 5.265625 
Q 46.4375 -1.421875 32.078125 -1.421875 
Q 25.875 -1.421875 19.796875 -0.21875 
Q 13.71875 0.984375 7.71875 3.421875 
L 7.71875 18.21875 
Q 13.671875 14.796875 19.015625 13.078125 
Q 24.359375 11.375 29.109375 11.375 
Q 35.9375 11.375 39.859375 14.71875 
Q 43.796875 18.0625 43.796875 23.78125 
Q 43.796875 29.546875 39.859375 32.859375 
Q 35.9375 36.1875 29.109375 36.1875 
Q 25.046875 36.1875 20.453125 35.125 
Q 15.875 34.078125 10.59375 31.890625 
z
" id="DejaVuSans-Bold-53"/>
       <path d="M 77.484375 30.078125 
Q 74.03125 30.078125 72.125 27.078125 
Q 70.21875 24.078125 70.21875 18.5 
Q 70.21875 12.890625 72.09375 9.890625 
Q 73.96875 6.890625 77.484375 6.890625 
Q 81 6.890625 82.859375 9.890625 
Q 84.71875 12.890625 84.71875 18.5 
Q 84.71875 24.078125 82.828125 27.078125 
Q 80.953125 30.078125 77.484375 30.078125 
z
M 77.484375 38.28125 
Q 86.578125 38.28125 91.796875 33 
Q 97.015625 27.734375 97.015625 18.5 
Q 97.015625 9.28125 91.796875 3.921875 
Q 86.578125 -1.421875 77.484375 -1.421875 
Q 68.40625 -1.421875 63.15625 3.921875 
Q 57.90625 9.28125 57.90625 18.5 
Q 57.90625 27.6875 63.15625 32.984375 
Q 68.40625 38.28125 77.484375 38.28125 
z
M 32.71875 -1.421875 
L 21.921875 -1.421875 
L 67.484375 74.21875 
L 78.328125 74.21875 
z
M 22.703125 74.21875 
Q 31.78125 74.21875 36.984375 68.921875 
Q 42.1875 63.625 42.1875 54.390625 
Q 42.1875 45.171875 36.984375 39.84375 
Q 31.78125 34.515625 22.703125 34.515625 
Q 13.625 34.515625 8.421875 39.84375 
Q 3.21875 45.171875 3.21875 54.390625 
Q 3.21875 63.625 8.421875 68.921875 
Q 13.625 74.21875 22.703125 74.21875 
z
M 22.703125 66.015625 
Q 19.1875 66.015625 17.28125 62.984375 
Q 15.375 59.96875 15.375 54.390625 
Q 15.375 48.78125 17.28125 45.71875 
Q 19.1875 42.671875 22.703125 42.671875 
Q 26.21875 42.671875 28.09375 45.71875 
Q 29.984375 48.78125 29.984375 54.390625 
Q 29.984375 59.96875 28.078125 62.984375 
Q 26.171875 66.015625 22.703125 66.015625 
z
" id="DejaVuSans-Bold-37"/>
       <path d="M 67 4 
Q 61.8125 1.3125 56.203125 -0.046875 
Q 50.59375 -1.421875 44.484375 -1.421875 
Q 26.265625 -1.421875 15.625 8.765625 
Q 4.984375 18.953125 4.984375 36.375 
Q 4.984375 53.859375 15.625 64.03125 
Q 26.265625 74.21875 44.484375 74.21875 
Q 50.59375 74.21875 56.203125 72.84375 
Q 61.8125 71.484375 67 68.796875 
L 67 53.71875 
Q 61.765625 57.28125 56.6875 58.9375 
Q 51.609375 60.59375 46 60.59375 
Q 35.9375 60.59375 30.171875 54.140625 
Q 24.421875 47.703125 24.421875 36.375 
Q 24.421875 25.09375 30.171875 18.640625 
Q 35.9375 12.203125 46 12.203125 
Q 51.609375 12.203125 56.6875 13.859375 
Q 61.765625 15.53125 67 19.09375 
z
" id="DejaVuSans-Bold-67"/>
       <path d="M 9.1875 72.90625 
L 27.984375 72.90625 
L 27.984375 0 
L 9.1875 0 
z
" id="DejaVuSans-Bold-73"/>
      </defs>
      <use xlink:href="#DejaVuSans-Bold-57"/>
      <use x="69.580078" xlink:href="#DejaVuSans-Bold-53"/>
      <use x="139.160156" xlink:href="#DejaVuSans-Bold-37"/>
      <use x="239.355469" xlink:href="#DejaVuSans-Bold-32"/>
      <use x="274.169922" xlink:href="#DejaVuSans-Bold-67"/>
      <use x="347.558594" xlink:href="#DejaVuSans-Bold-73"/>
     </g>
    </g>
    <g id="patch_6">
     <path d="M 952.2 112.8825 
L 984.2 112.8825 
L 984.2 101.6825 
L 952.2 101.6825 
z
" style="fill:#c8c8c8;stroke:#c8c8c8;stroke-linejoin:miter;"/>
    </g>
    <g id="text_15">
     <!-- 65% CI -->
     <g style="fill:#555555;" transform="translate(997 112.8825)scale(0.16 -0.16)">
      <use xlink:href="#DejaVuSans-Bold-54"/>
      <use x="69.580078" xlink:href="#DejaVuSans-Bold-53"/>
      <use x="139.160156" xlink:href="#DejaVuSans-Bold-37"/>
      <use x="239.355469" xlink:href="#DejaVuSans-Bold-32"/>
      <use x="274.169922" xlink:href="#DejaVuSans-Bold-67"/>
      <use x="347.558594" xlink:href="#DejaVuSans-Bold-73"/>
     </g>
    </g>
   </g>
  </g>
 </g>
 <defs>
  <clipPath id="pd384fe3e8b">
   <rect height="502.12" width="1086.118" x="51.842" y="39.16"/>
  </clipPath>
 </defs>
</svg>
