<?xml version="1.0" encoding="utf-8" standalone="no"?>
<!DOCTYPE svg PUBLIC "-//W3C//DTD SVG 1.1//EN"
  "http://www.w3.org/Graphics/SVG/1.1/DTD/svg11.dtd">
<!-- Created with matplotlib (https://matplotlib.org/) -->
<svg height="576pt" version="1.1" viewBox="0 0 1152 576" width="1152pt" xmlns="http://www.w3.org/2000/svg" xmlns:xlink="http://www.w3.org/1999/xlink">
 <metadata>
  <rdf:RDF xmlns:cc="http://creativecommons.org/ns#" xmlns:dc="http://purl.org/dc/elements/1.1/" xmlns:rdf="http://www.w3.org/1999/02/22-rdf-syntax-ns#">
   <cc:Work>
    <dc:type rdf:resource="http://purl.org/dc/dcmitype/StillImage"/>
    <dc:date>2020-09-30T17:18:16.299345</dc:date>
    <dc:format>image/svg+xml</dc:format>
    <dc:creator>
     <cc:Agent>
      <dc:title>Matplotlib v3.3.2, https://matplotlib.org/</dc:title>
     </cc:Agent>
    </dc:creator>
   </cc:Work>
  </rdf:RDF>
 </metadata>
 <defs>
  <style type="text/css">*{stroke-linecap:butt;stroke-linejoin:round;}</style>
 </defs>
 <g id="figure_1">
  <g id="patch_1">
   <path d="M 0 576 
L 1152 576 
L 1152 0 
L 0 0 
z
" style="fill:#ffffff;"/>
  </g>
  <g id="axes_1">
   <g id="patch_2">
    <path d="M 51.842 541.28 
L 1137.96 541.28 
L 1137.96 39.16 
L 51.842 39.16 
z
" style="fill:#ffffff;"/>
   </g>
   <g id="PolyCollection_1">
    <path clip-path="url(#p9dcdf23596)" d="M 51.842 -555.28529 
L 51.842 439.236258 
L 57.038737 413.320387 
L 62.235474 384.165032 
L 67.432211 356.629419 
L 72.628947 324.234581 
L 77.825684 301.558194 
L 83.022421 285.360774 
L 88.219158 270.783097 
L 93.415895 259.444903 
L 98.612632 251.346194 
L 103.809368 244.867226 
L 109.006105 240.008 
L 114.202842 235.148774 
L 119.399579 233.529032 
L 124.596316 236.768516 
L 129.793053 243.247484 
L 134.989789 252.965935 
L 140.186526 261.064645 
L 145.383263 267.543613 
L 150.58 274.022581 
L 155.776737 280.501548 
L 160.973474 293.459484 
L 166.170211 312.896387 
L 171.366947 337.192516 
L 176.563684 361.488645 
L 181.760421 382.54529 
L 186.957158 395.503226 
L 192.153895 401.982194 
L 197.350632 403.601935 
L 202.547368 405.221677 
L 207.744105 405.221677 
L 212.940842 405.221677 
L 218.137579 401.982194 
L 223.334316 395.503226 
L 228.531053 387.404516 
L 233.727789 382.54529 
L 238.924526 384.165032 
L 244.121263 395.503226 
L 249.318 410.080903 
L 254.514737 423.038839 
L 259.711474 429.517806 
L 264.908211 429.517806 
L 270.104947 424.658581 
L 275.301684 421.419097 
L 280.498421 424.658581 
L 285.695158 432.75729 
L 290.891895 445.715226 
L 296.088632 455.433677 
L 301.285368 465.152129 
L 306.482105 471.631097 
L 311.678842 481.349548 
L 316.875579 491.068 
L 322.072316 504.025935 
L 327.269053 512.124645 
L 332.465789 515.364129 
L 337.662526 512.124645 
L 342.859263 504.025935 
L 348.056 497.546968 
L 353.252737 494.307484 
L 358.449474 492.687742 
L 363.646211 492.687742 
L 368.842947 489.448258 
L 374.039684 484.589032 
L 379.236421 479.729806 
L 384.433158 479.729806 
L 389.629895 482.96929 
L 394.826632 487.828516 
L 400.023368 492.687742 
L 405.220105 494.307484 
L 410.416842 494.307484 
L 415.613579 494.307484 
L 420.810316 495.927226 
L 426.007053 497.546968 
L 431.203789 495.927226 
L 436.400526 491.068 
L 441.597263 481.349548 
L 446.794 470.011355 
L 451.990737 458.673161 
L 457.187474 450.574452 
L 462.384211 447.334968 
L 467.580947 447.334968 
L 472.777684 448.95471 
L 477.974421 452.194194 
L 483.171158 453.813935 
L 488.367895 457.053419 
L 493.564632 460.292903 
L 498.761368 466.771871 
L 503.958105 470.011355 
L 509.154842 470.011355 
L 514.351579 463.532387 
L 519.548316 450.574452 
L 524.745053 437.616516 
L 529.941789 424.658581 
L 535.138526 416.559871 
L 540.335263 416.559871 
L 545.532 419.799355 
L 550.728737 424.658581 
L 555.925474 431.137548 
L 561.122211 435.996774 
L 566.318947 440.856 
L 571.515684 447.334968 
L 576.712421 455.433677 
L 581.909158 463.532387 
L 587.105895 474.870581 
L 592.302632 484.589032 
L 597.499368 494.307484 
L 602.696105 504.025935 
L 607.892842 510.504903 
L 613.089579 512.124645 
L 618.286316 512.124645 
L 623.483053 508.885161 
L 628.679789 504.025935 
L 633.876526 500.786452 
L 639.073263 499.16671 
L 644.27 499.16671 
L 649.466737 499.16671 
L 654.663474 500.786452 
L 659.860211 500.786452 
L 665.056947 500.786452 
L 670.253684 499.16671 
L 675.450421 499.16671 
L 680.647158 502.406194 
L 685.843895 504.025935 
L 691.040632 507.265419 
L 696.237368 505.645677 
L 701.434105 502.406194 
L 706.630842 492.687742 
L 711.827579 479.729806 
L 717.024316 466.771871 
L 722.221053 453.813935 
L 727.417789 442.475742 
L 732.614526 431.137548 
L 737.811263 418.179613 
L 743.008 405.221677 
L 748.204737 390.644 
L 753.401474 379.305806 
L 758.598211 371.207097 
L 763.794947 367.967613 
L 768.991684 367.967613 
L 774.188421 372.826839 
L 779.385158 376.066323 
L 784.581895 379.305806 
L 789.778632 379.305806 
L 794.975368 372.826839 
L 800.172105 363.108387 
L 805.368842 351.770194 
L 810.565579 340.432 
L 815.762316 332.33329 
L 820.959053 327.474065 
L 826.155789 327.474065 
L 831.352526 330.713548 
L 836.549263 333.953032 
L 841.746 338.812258 
L 846.942737 342.051742 
L 852.139474 345.291226 
L 857.336211 346.910968 
L 862.532947 348.53071 
L 867.729684 351.770194 
L 872.926421 358.249161 
L 878.123158 366.347871 
L 883.319895 379.305806 
L 888.516632 395.503226 
L 893.713368 411.700645 
L 898.910105 424.658581 
L 904.106842 435.996774 
L 909.303579 440.856 
L 914.500316 442.475742 
L 919.697053 440.856 
L 924.893789 437.616516 
L 930.090526 434.377032 
L 935.287263 431.137548 
L 940.484 429.517806 
L 945.680737 426.278323 
L 950.877474 424.658581 
L 956.074211 421.419097 
L 961.270947 419.799355 
L 966.467684 418.179613 
L 971.664421 413.320387 
L 976.861158 406.841419 
L 982.057895 397.122968 
L 987.254632 387.404516 
L 992.451368 374.446581 
L 997.648105 363.108387 
L 1002.844842 353.389935 
L 1008.041579 345.291226 
L 1013.238316 338.812258 
L 1018.435053 335.572774 
L 1023.631789 335.572774 
L 1028.828526 335.572774 
L 1034.025263 338.812258 
L 1039.222 340.432 
L 1044.418737 340.432 
L 1049.615474 338.812258 
L 1054.812211 333.953032 
L 1060.008947 329.093806 
L 1065.205684 324.234581 
L 1070.402421 320.995097 
L 1075.599158 322.614839 
L 1080.795895 325.854323 
L 1085.992632 329.093806 
L 1091.189368 332.33329 
L 1096.386105 333.953032 
L 1101.582842 333.953032 
L 1106.779579 335.572774 
L 1111.976316 338.812258 
L 1117.173053 343.671484 
L 1122.369789 350.150452 
L 1127.566526 355.009677 
L 1132.763263 359.868903 
L 1137.96 363.108387 
L 1137.96 303.177935 
L 1137.96 303.177935 
L 1132.763263 298.31871 
L 1127.566526 295.079226 
L 1122.369789 288.600258 
L 1117.173053 282.12129 
L 1111.976316 275.642323 
L 1106.779579 272.402839 
L 1101.582842 269.163355 
L 1096.386105 267.543613 
L 1091.189368 264.304129 
L 1085.992632 261.064645 
L 1080.795895 254.585677 
L 1075.599158 251.346194 
L 1070.402421 248.10671 
L 1065.205684 248.10671 
L 1060.008947 251.346194 
L 1054.812211 254.585677 
L 1049.615474 257.825161 
L 1044.418737 259.444903 
L 1039.222 256.205419 
L 1034.025263 252.965935 
L 1028.828526 249.726452 
L 1023.631789 246.486968 
L 1018.435053 246.486968 
L 1013.238316 246.486968 
L 1008.041579 251.346194 
L 1002.844842 256.205419 
L 997.648105 264.304129 
L 992.451368 274.022581 
L 987.254632 285.360774 
L 982.057895 295.079226 
L 976.861158 303.177935 
L 971.664421 309.656903 
L 966.467684 314.516129 
L 961.270947 316.135871 
L 956.074211 317.755613 
L 950.877474 320.995097 
L 945.680737 322.614839 
L 940.484 325.854323 
L 935.287263 327.474065 
L 930.090526 330.713548 
L 924.893789 333.953032 
L 919.697053 337.192516 
L 914.500316 340.432 
L 909.303579 340.432 
L 904.106842 335.572774 
L 898.910105 325.854323 
L 893.713368 312.896387 
L 888.516632 296.698968 
L 883.319895 282.12129 
L 878.123158 267.543613 
L 872.926421 257.825161 
L 867.729684 251.346194 
L 862.532947 246.486968 
L 857.336211 241.627742 
L 852.139474 238.388258 
L 846.942737 233.529032 
L 841.746 227.050065 
L 836.549263 220.571097 
L 831.352526 214.092129 
L 826.155789 207.613161 
L 820.959053 205.993419 
L 815.762316 205.993419 
L 810.565579 210.852645 
L 805.368842 217.331613 
L 800.172105 227.050065 
L 794.975368 233.529032 
L 789.778632 236.768516 
L 784.581895 235.148774 
L 779.385158 230.289548 
L 774.188421 223.810581 
L 768.991684 215.711871 
L 763.794947 210.852645 
L 758.598211 210.852645 
L 753.401474 214.092129 
L 748.204737 222.190839 
L 743.008 230.289548 
L 737.811263 240.008 
L 732.614526 249.726452 
L 727.417789 257.825161 
L 722.221053 267.543613 
L 717.024316 278.881806 
L 711.827579 291.839742 
L 706.630842 306.417419 
L 701.434105 316.135871 
L 696.237368 324.234581 
L 691.040632 325.854323 
L 685.843895 324.234581 
L 680.647158 322.614839 
L 675.450421 320.995097 
L 670.253684 322.614839 
L 665.056947 324.234581 
L 659.860211 327.474065 
L 654.663474 327.474065 
L 649.466737 327.474065 
L 644.27 327.474065 
L 639.073263 329.093806 
L 633.876526 333.953032 
L 628.679789 340.432 
L 623.483053 348.53071 
L 618.286316 355.009677 
L 613.089579 359.868903 
L 607.892842 358.249161 
L 602.696105 355.009677 
L 597.499368 348.53071 
L 592.302632 340.432 
L 587.105895 330.713548 
L 581.909158 322.614839 
L 576.712421 314.516129 
L 571.515684 308.037161 
L 566.318947 301.558194 
L 561.122211 296.698968 
L 555.925474 291.839742 
L 550.728737 285.360774 
L 545.532 278.881806 
L 540.335263 274.022581 
L 535.138526 274.022581 
L 529.941789 280.501548 
L 524.745053 291.839742 
L 519.548316 304.797677 
L 514.351579 317.755613 
L 509.154842 324.234581 
L 503.958105 327.474065 
L 498.761368 324.234581 
L 493.564632 320.995097 
L 488.367895 316.135871 
L 483.171158 314.516129 
L 477.974421 312.896387 
L 472.777684 311.276645 
L 467.580947 309.656903 
L 462.384211 308.037161 
L 457.187474 311.276645 
L 451.990737 317.755613 
L 446.794 329.093806 
L 441.597263 342.051742 
L 436.400526 353.389935 
L 431.203789 359.868903 
L 426.007053 363.108387 
L 420.810316 363.108387 
L 415.613579 363.108387 
L 410.416842 364.728129 
L 405.220105 367.967613 
L 400.023368 367.967613 
L 394.826632 364.728129 
L 389.629895 359.868903 
L 384.433158 358.249161 
L 379.236421 359.868903 
L 374.039684 366.347871 
L 368.842947 371.207097 
L 363.646211 376.066323 
L 358.449474 379.305806 
L 353.252737 382.54529 
L 348.056 389.024258 
L 342.859263 400.362452 
L 337.662526 413.320387 
L 332.465789 421.419097 
L 327.269053 419.799355 
L 322.072316 411.700645 
L 316.875579 400.362452 
L 311.678842 389.024258 
L 306.482105 380.925548 
L 301.285368 374.446581 
L 296.088632 367.967613 
L 290.891895 358.249161 
L 285.695158 346.910968 
L 280.498421 338.812258 
L 275.301684 335.572774 
L 270.104947 338.812258 
L 264.908211 343.671484 
L 259.711474 345.291226 
L 254.514737 340.432 
L 249.318 327.474065 
L 244.121263 312.896387 
L 238.924526 303.177935 
L 233.727789 299.938452 
L 228.531053 303.177935 
L 223.334316 311.276645 
L 218.137579 316.135871 
L 212.940842 319.375355 
L 207.744105 319.375355 
L 202.547368 319.375355 
L 197.350632 319.375355 
L 192.153895 317.755613 
L 186.957158 311.276645 
L 181.760421 296.698968 
L 176.563684 277.262065 
L 171.366947 251.346194 
L 166.170211 225.430323 
L 160.973474 204.373677 
L 155.776737 189.796 
L 150.58 178.457806 
L 145.383263 168.739355 
L 140.186526 159.020903 
L 134.989789 146.062968 
L 129.793053 131.48529 
L 124.596316 118.527355 
L 119.399579 108.808903 
L 114.202842 100.710194 
L 109.006105 94.231226 
L 103.809368 89.372 
L 98.612632 81.27329 
L 93.415895 73.174581 
L 88.219158 63.456129 
L 83.022421 52.117935 
L 77.825684 32.681032 
L 72.628947 0.286194 
L 67.432211 -122.814194 
L 62.235474 -242.675097 
L 57.038737 -391.691355 
L 51.842 -555.28529 
z
" style="fill:#e6e6e6;stroke:#e6e6e6;"/>
   </g>
   <g id="PolyCollection_2">
    <path clip-path="url(#p9dcdf23596)" d="M 51.842 -263.731742 
L 51.842 348.53071 
L 57.038737 316.135871 
L 62.235474 286.980516 
L 67.432211 264.304129 
L 72.628947 240.008 
L 77.825684 231.90929 
L 83.022421 225.430323 
L 88.219158 217.331613 
L 93.415895 210.852645 
L 98.612632 207.613161 
L 103.809368 204.373677 
L 109.006105 202.753935 
L 114.202842 202.753935 
L 119.399579 204.373677 
L 124.596316 209.232903 
L 129.793053 217.331613 
L 134.989789 225.430323 
L 140.186526 235.148774 
L 145.383263 243.247484 
L 150.58 249.726452 
L 155.776737 257.825161 
L 160.973474 270.783097 
L 166.170211 290.22 
L 171.366947 314.516129 
L 176.563684 340.432 
L 181.760421 359.868903 
L 186.957158 372.826839 
L 192.153895 379.305806 
L 197.350632 380.925548 
L 202.547368 380.925548 
L 207.744105 382.54529 
L 212.940842 382.54529 
L 218.137579 379.305806 
L 223.334316 372.826839 
L 228.531053 366.347871 
L 233.727789 361.488645 
L 238.924526 364.728129 
L 244.121263 374.446581 
L 249.318 389.024258 
L 254.514737 400.362452 
L 259.711474 406.841419 
L 264.908211 405.221677 
L 270.104947 401.982194 
L 275.301684 398.74271 
L 280.498421 403.601935 
L 285.695158 413.320387 
L 290.891895 424.658581 
L 296.088632 435.996774 
L 301.285368 444.095484 
L 306.482105 450.574452 
L 311.678842 460.292903 
L 316.875579 471.631097 
L 322.072316 484.589032 
L 327.269053 494.307484 
L 332.465789 497.546968 
L 337.662526 491.068 
L 342.859263 481.349548 
L 348.056 471.631097 
L 353.252737 466.771871 
L 358.449474 463.532387 
L 363.646211 461.912645 
L 368.842947 458.673161 
L 374.039684 453.813935 
L 379.236421 448.95471 
L 384.433158 447.334968 
L 389.629895 450.574452 
L 394.826632 455.433677 
L 400.023368 460.292903 
L 405.220105 461.912645 
L 410.416842 460.292903 
L 415.613579 460.292903 
L 420.810316 461.912645 
L 426.007053 461.912645 
L 431.203789 461.912645 
L 436.400526 457.053419 
L 441.597263 447.334968 
L 446.794 434.377032 
L 451.990737 423.038839 
L 457.187474 416.559871 
L 462.384211 411.700645 
L 467.580947 411.700645 
L 472.777684 413.320387 
L 477.974421 414.940129 
L 483.171158 418.179613 
L 488.367895 421.419097 
L 493.564632 426.278323 
L 498.761368 431.137548 
L 503.958105 435.996774 
L 509.154842 434.377032 
L 514.351579 427.898065 
L 519.548316 414.940129 
L 524.745053 401.982194 
L 529.941789 389.024258 
L 535.138526 380.925548 
L 540.335263 379.305806 
L 545.532 382.54529 
L 550.728737 389.024258 
L 555.925474 393.883484 
L 561.122211 398.74271 
L 566.318947 405.221677 
L 571.515684 411.700645 
L 576.712421 419.799355 
L 581.909158 427.898065 
L 587.105895 439.236258 
L 592.302632 448.95471 
L 597.499368 458.673161 
L 602.696105 466.771871 
L 607.892842 473.250839 
L 613.089579 474.870581 
L 618.286316 474.870581 
L 623.483053 470.011355 
L 628.679789 463.532387 
L 633.876526 458.673161 
L 639.073263 455.433677 
L 644.27 455.433677 
L 649.466737 455.433677 
L 654.663474 455.433677 
L 659.860211 455.433677 
L 665.056947 453.813935 
L 670.253684 452.194194 
L 675.450421 452.194194 
L 680.647158 453.813935 
L 685.843895 457.053419 
L 691.040632 458.673161 
L 696.237368 457.053419 
L 701.434105 452.194194 
L 706.630842 442.475742 
L 711.827579 429.517806 
L 717.024316 418.179613 
L 722.221053 405.221677 
L 727.417789 395.503226 
L 732.614526 385.784774 
L 737.811263 374.446581 
L 743.008 361.488645 
L 748.204737 348.53071 
L 753.401474 337.192516 
L 758.598211 330.713548 
L 763.794947 327.474065 
L 768.991684 330.713548 
L 774.188421 335.572774 
L 779.385158 340.432 
L 784.581895 343.671484 
L 789.778632 343.671484 
L 794.975368 338.812258 
L 800.172105 330.713548 
L 805.368842 319.375355 
L 810.565579 309.656903 
L 815.762316 301.558194 
L 820.959053 296.698968 
L 826.155789 296.698968 
L 831.352526 299.938452 
L 836.549263 304.797677 
L 841.746 309.656903 
L 846.942737 314.516129 
L 852.139474 319.375355 
L 857.336211 322.614839 
L 862.532947 325.854323 
L 867.729684 329.093806 
L 872.926421 335.572774 
L 878.123158 343.671484 
L 883.319895 355.009677 
L 888.516632 371.207097 
L 893.713368 385.784774 
L 898.910105 400.362452 
L 904.106842 410.080903 
L 909.303579 416.559871 
L 914.500316 416.559871 
L 919.697053 414.940129 
L 924.893789 413.320387 
L 930.090526 410.080903 
L 935.287263 406.841419 
L 940.484 405.221677 
L 945.680737 401.982194 
L 950.877474 400.362452 
L 956.074211 398.74271 
L 961.270947 395.503226 
L 966.467684 393.883484 
L 971.664421 389.024258 
L 976.861158 382.54529 
L 982.057895 372.826839 
L 987.254632 361.488645 
L 992.451368 350.150452 
L 997.648105 337.192516 
L 1002.844842 329.093806 
L 1008.041579 320.995097 
L 1013.238316 316.135871 
L 1018.435053 314.516129 
L 1023.631789 314.516129 
L 1028.828526 316.135871 
L 1034.025263 317.755613 
L 1039.222 320.995097 
L 1044.418737 320.995097 
L 1049.615474 319.375355 
L 1054.812211 314.516129 
L 1060.008947 308.037161 
L 1065.205684 304.797677 
L 1070.402421 303.177935 
L 1075.599158 304.797677 
L 1080.795895 309.656903 
L 1085.992632 312.896387 
L 1091.189368 316.135871 
L 1096.386105 317.755613 
L 1101.582842 319.375355 
L 1106.779579 320.995097 
L 1111.976316 324.234581 
L 1117.173053 329.093806 
L 1122.369789 335.572774 
L 1127.566526 340.432 
L 1132.763263 345.291226 
L 1137.96 348.53071 
L 1137.96 319.375355 
L 1137.96 319.375355 
L 1132.763263 316.135871 
L 1127.566526 311.276645 
L 1122.369789 306.417419 
L 1117.173053 298.31871 
L 1111.976316 293.459484 
L 1106.779579 290.22 
L 1101.582842 286.980516 
L 1096.386105 285.360774 
L 1091.189368 283.741032 
L 1085.992632 280.501548 
L 1080.795895 275.642323 
L 1075.599158 270.783097 
L 1070.402421 267.543613 
L 1065.205684 267.543613 
L 1060.008947 270.783097 
L 1054.812211 275.642323 
L 1049.615474 280.501548 
L 1044.418737 282.12129 
L 1039.222 280.501548 
L 1034.025263 277.262065 
L 1028.828526 274.022581 
L 1023.631789 270.783097 
L 1018.435053 270.783097 
L 1013.238316 272.402839 
L 1008.041579 275.642323 
L 1002.844842 282.12129 
L 997.648105 290.22 
L 992.451368 301.558194 
L 987.254632 312.896387 
L 982.057895 324.234581 
L 976.861158 332.33329 
L 971.664421 338.812258 
L 966.467684 343.671484 
L 961.270947 345.291226 
L 956.074211 348.53071 
L 950.877474 350.150452 
L 945.680737 351.770194 
L 940.484 355.009677 
L 935.287263 356.629419 
L 930.090526 359.868903 
L 924.893789 363.108387 
L 919.697053 366.347871 
L 914.500316 367.967613 
L 909.303579 367.967613 
L 904.106842 361.488645 
L 898.910105 351.770194 
L 893.713368 338.812258 
L 888.516632 322.614839 
L 883.319895 308.037161 
L 878.123158 295.079226 
L 872.926421 286.980516 
L 867.729684 280.501548 
L 862.532947 275.642323 
L 857.336211 272.402839 
L 852.139474 267.543613 
L 846.942737 262.684387 
L 841.746 256.205419 
L 836.549263 249.726452 
L 831.352526 244.867226 
L 826.155789 240.008 
L 820.959053 238.388258 
L 815.762316 240.008 
L 810.565579 246.486968 
L 805.368842 254.585677 
L 800.172105 264.304129 
L 794.975368 272.402839 
L 789.778632 275.642323 
L 784.581895 275.642323 
L 779.385158 270.783097 
L 774.188421 264.304129 
L 768.991684 257.825161 
L 763.794947 252.965935 
L 758.598211 252.965935 
L 753.401474 257.825161 
L 748.204737 267.543613 
L 743.008 277.262065 
L 737.811263 288.600258 
L 732.614526 298.31871 
L 727.417789 308.037161 
L 722.221053 316.135871 
L 717.024316 327.474065 
L 711.827579 340.432 
L 706.630842 351.770194 
L 701.434105 363.108387 
L 696.237368 367.967613 
L 691.040632 371.207097 
L 685.843895 369.587355 
L 680.647158 367.967613 
L 675.450421 366.347871 
L 670.253684 366.347871 
L 665.056947 367.967613 
L 659.860211 371.207097 
L 654.663474 372.826839 
L 649.466737 372.826839 
L 644.27 372.826839 
L 639.073263 374.446581 
L 633.876526 377.686065 
L 628.679789 384.165032 
L 623.483053 390.644 
L 618.286316 397.122968 
L 613.089579 398.74271 
L 607.892842 398.74271 
L 602.696105 393.883484 
L 597.499368 387.404516 
L 592.302632 379.305806 
L 587.105895 369.587355 
L 581.909158 359.868903 
L 576.712421 351.770194 
L 571.515684 343.671484 
L 566.318947 337.192516 
L 561.122211 332.33329 
L 555.925474 327.474065 
L 550.728737 320.995097 
L 545.532 316.135871 
L 540.335263 311.276645 
L 535.138526 312.896387 
L 529.941789 319.375355 
L 524.745053 330.713548 
L 519.548316 345.291226 
L 514.351579 358.249161 
L 509.154842 364.728129 
L 503.958105 366.347871 
L 498.761368 363.108387 
L 493.564632 358.249161 
L 488.367895 353.389935 
L 483.171158 351.770194 
L 477.974421 348.53071 
L 472.777684 346.910968 
L 467.580947 345.291226 
L 462.384211 345.291226 
L 457.187474 348.53071 
L 451.990737 356.629419 
L 446.794 367.967613 
L 441.597263 379.305806 
L 436.400526 390.644 
L 431.203789 395.503226 
L 426.007053 397.122968 
L 420.810316 397.122968 
L 415.613579 398.74271 
L 410.416842 398.74271 
L 405.220105 400.362452 
L 400.023368 400.362452 
L 394.826632 397.122968 
L 389.629895 392.263742 
L 384.433158 389.024258 
L 379.236421 390.644 
L 374.039684 397.122968 
L 368.842947 401.982194 
L 363.646211 406.841419 
L 358.449474 408.461161 
L 353.252737 411.700645 
L 348.056 418.179613 
L 342.859263 429.517806 
L 337.662526 440.856 
L 332.465789 448.95471 
L 327.269053 447.334968 
L 322.072316 439.236258 
L 316.875579 426.278323 
L 311.678842 414.940129 
L 306.482105 406.841419 
L 301.285368 400.362452 
L 296.088632 392.263742 
L 290.891895 382.54529 
L 285.695158 371.207097 
L 280.498421 361.488645 
L 275.301684 358.249161 
L 270.104947 361.488645 
L 264.908211 366.347871 
L 259.711474 366.347871 
L 254.514737 361.488645 
L 249.318 348.53071 
L 244.121263 335.572774 
L 238.924526 324.234581 
L 233.727789 322.614839 
L 228.531053 325.854323 
L 223.334316 333.953032 
L 218.137579 338.812258 
L 212.940842 342.051742 
L 207.744105 342.051742 
L 202.547368 340.432 
L 197.350632 340.432 
L 192.153895 338.812258 
L 186.957158 332.33329 
L 181.760421 319.375355 
L 176.563684 299.938452 
L 171.366947 274.022581 
L 166.170211 249.726452 
L 160.973474 228.669806 
L 155.776737 214.092129 
L 150.58 204.373677 
L 145.383263 196.274968 
L 140.186526 186.556516 
L 134.989789 175.218323 
L 129.793053 162.260387 
L 124.596316 152.541935 
L 119.399579 142.823484 
L 114.202842 137.964258 
L 109.006105 133.105032 
L 103.809368 129.865548 
L 98.612632 126.626065 
L 93.415895 121.766839 
L 88.219158 118.527355 
L 83.022421 113.668129 
L 77.825684 103.949677 
L 72.628947 84.512774 
L 67.432211 8.384903 
L 62.235474 -67.742968 
L 57.038737 -160.068258 
L 51.842 -263.731742 
z
" style="fill:#c8c8c8;stroke:#c8c8c8;"/>
   </g>
   <g id="matplotlib.axis_1">
    <g id="xtick_1">
     <g id="line2d_1">
      <defs>
       <path d="M 0 0 
L 0 3.5 
" id="m0c618a4ada" style="stroke:#555555;stroke-width:0.8;"/>
      </defs>
      <g>
       <use style="fill:#555555;stroke:#555555;stroke-width:0.8;" x="192.153895" xlink:href="#m0c618a4ada" y="541.28"/>
      </g>
     </g>
     <g id="text_1">
      <!-- April -->
      <g style="fill:#555555;" transform="translate(173.474832 558.917812)scale(0.14 -0.14)">
       <defs>
        <path d="M 53.421875 13.28125 
L 24.03125 13.28125 
L 19.390625 0 
L 0.484375 0 
L 27.484375 72.90625 
L 49.90625 72.90625 
L 76.90625 0 
L 58.015625 0 
z
M 28.71875 26.8125 
L 48.6875 26.8125 
L 38.71875 55.8125 
z
" id="DejaVuSans-Bold-65"/>
        <path d="M 25.875 7.90625 
L 25.875 -20.796875 
L 8.40625 -20.796875 
L 8.40625 54.6875 
L 25.875 54.6875 
L 25.875 46.6875 
Q 29.5 51.46875 33.890625 53.734375 
Q 38.28125 56 44 56 
Q 54.109375 56 60.59375 47.96875 
Q 67.09375 39.9375 67.09375 27.296875 
Q 67.09375 14.65625 60.59375 6.609375 
Q 54.109375 -1.421875 44 -1.421875 
Q 38.28125 -1.421875 33.890625 0.84375 
Q 29.5 3.125 25.875 7.90625 
z
M 37.5 43.3125 
Q 31.890625 43.3125 28.875 39.1875 
Q 25.875 35.0625 25.875 27.296875 
Q 25.875 19.53125 28.875 15.40625 
Q 31.890625 11.28125 37.5 11.28125 
Q 43.109375 11.28125 46.0625 15.375 
Q 49.03125 19.484375 49.03125 27.296875 
Q 49.03125 35.109375 46.0625 39.203125 
Q 43.109375 43.3125 37.5 43.3125 
z
" id="DejaVuSans-Bold-112"/>
        <path d="M 49.03125 39.796875 
Q 46.734375 40.875 44.453125 41.375 
Q 42.1875 41.890625 39.890625 41.890625 
Q 33.15625 41.890625 29.515625 37.5625 
Q 25.875 33.25 25.875 25.203125 
L 25.875 0 
L 8.40625 0 
L 8.40625 54.6875 
L 25.875 54.6875 
L 25.875 45.703125 
Q 29.25 51.078125 33.609375 53.53125 
Q 37.984375 56 44.09375 56 
Q 44.96875 56 45.984375 55.921875 
Q 47.015625 55.859375 48.96875 55.609375 
z
" id="DejaVuSans-Bold-114"/>
        <path d="M 8.40625 54.6875 
L 25.875 54.6875 
L 25.875 0 
L 8.40625 0 
z
M 8.40625 75.984375 
L 25.875 75.984375 
L 25.875 61.71875 
L 8.40625 61.71875 
z
" id="DejaVuSans-Bold-105"/>
        <path d="M 8.40625 75.984375 
L 25.875 75.984375 
L 25.875 0 
L 8.40625 0 
z
" id="DejaVuSans-Bold-108"/>
       </defs>
       <use xlink:href="#DejaVuSans-Bold-65"/>
       <use x="77.392578" xlink:href="#DejaVuSans-Bold-112"/>
       <use x="148.974609" xlink:href="#DejaVuSans-Bold-114"/>
       <use x="198.291016" xlink:href="#DejaVuSans-Bold-105"/>
       <use x="232.568359" xlink:href="#DejaVuSans-Bold-108"/>
      </g>
     </g>
    </g>
    <g id="xtick_2">
     <g id="line2d_2">
      <g>
       <use style="fill:#555555;stroke:#555555;stroke-width:0.8;" x="348.056" xlink:href="#m0c618a4ada" y="541.28"/>
      </g>
     </g>
     <g id="text_2">
      <!-- May -->
      <g style="fill:#555555;" transform="translate(332.021625 558.808437)scale(0.14 -0.14)">
       <defs>
        <path d="M 9.1875 72.90625 
L 33.109375 72.90625 
L 49.703125 33.890625 
L 66.40625 72.90625 
L 90.28125 72.90625 
L 90.28125 0 
L 72.515625 0 
L 72.515625 53.328125 
L 55.71875 14.015625 
L 43.796875 14.015625 
L 27 53.328125 
L 27 0 
L 9.1875 0 
z
" id="DejaVuSans-Bold-77"/>
        <path d="M 32.90625 24.609375 
Q 27.4375 24.609375 24.671875 22.75 
Q 21.921875 20.90625 21.921875 17.28125 
Q 21.921875 13.96875 24.140625 12.078125 
Q 26.375 10.203125 30.328125 10.203125 
Q 35.25 10.203125 38.625 13.734375 
Q 42 17.28125 42 22.609375 
L 42 24.609375 
z
M 59.625 31.203125 
L 59.625 0 
L 42 0 
L 42 8.109375 
Q 38.484375 3.125 34.078125 0.84375 
Q 29.6875 -1.421875 23.390625 -1.421875 
Q 14.890625 -1.421875 9.59375 3.53125 
Q 4.296875 8.5 4.296875 16.40625 
Q 4.296875 26.03125 10.90625 30.515625 
Q 17.53125 35.015625 31.6875 35.015625 
L 42 35.015625 
L 42 36.375 
Q 42 40.53125 38.71875 42.453125 
Q 35.453125 44.390625 28.515625 44.390625 
Q 22.90625 44.390625 18.0625 43.265625 
Q 13.234375 42.140625 9.078125 39.890625 
L 9.078125 53.21875 
Q 14.703125 54.59375 20.359375 55.296875 
Q 26.03125 56 31.6875 56 
Q 46.484375 56 53.046875 50.171875 
Q 59.625 44.34375 59.625 31.203125 
z
" id="DejaVuSans-Bold-97"/>
        <path d="M 1.21875 54.6875 
L 18.703125 54.6875 
L 33.40625 17.578125 
L 45.90625 54.6875 
L 63.375 54.6875 
L 40.375 -5.171875 
Q 36.921875 -14.3125 32.296875 -17.9375 
Q 27.6875 -21.578125 20.125 -21.578125 
L 10.015625 -21.578125 
L 10.015625 -10.109375 
L 15.484375 -10.109375 
Q 19.921875 -10.109375 21.9375 -8.6875 
Q 23.96875 -7.28125 25.09375 -3.609375 
L 25.59375 -2.09375 
z
" id="DejaVuSans-Bold-121"/>
       </defs>
       <use xlink:href="#DejaVuSans-Bold-77"/>
       <use x="99.511719" xlink:href="#DejaVuSans-Bold-97"/>
       <use x="163.867188" xlink:href="#DejaVuSans-Bold-121"/>
      </g>
     </g>
    </g>
    <g id="xtick_3">
     <g id="line2d_3">
      <g>
       <use style="fill:#555555;stroke:#555555;stroke-width:0.8;" x="509.154842" xlink:href="#m0c618a4ada" y="541.28"/>
      </g>
     </g>
     <g id="text_3">
      <!-- June -->
      <g style="fill:#555555;" transform="translate(491.836405 558.917812)scale(0.14 -0.14)">
       <defs>
        <path d="M 9.1875 72.90625 
L 27.984375 72.90625 
L 27.984375 7.078125 
Q 27.984375 -6.546875 20.578125 -13.28125 
Q 13.1875 -20.015625 -1.8125 -20.015625 
L -5.609375 -20.015625 
L -5.609375 -5.8125 
L -2.6875 -5.8125 
Q 3.171875 -5.8125 6.171875 -2.53125 
Q 9.1875 0.734375 9.1875 7.078125 
z
" id="DejaVuSans-Bold-74"/>
        <path d="M 7.8125 21.296875 
L 7.8125 54.6875 
L 25.390625 54.6875 
L 25.390625 49.21875 
Q 25.390625 44.78125 25.34375 38.0625 
Q 25.296875 31.34375 25.296875 29.109375 
Q 25.296875 22.515625 25.640625 19.609375 
Q 25.984375 16.703125 26.8125 15.375 
Q 27.875 13.671875 29.609375 12.734375 
Q 31.34375 11.8125 33.59375 11.8125 
Q 39.0625 11.8125 42.1875 16.015625 
Q 45.3125 20.21875 45.3125 27.6875 
L 45.3125 54.6875 
L 62.796875 54.6875 
L 62.796875 0 
L 45.3125 0 
L 45.3125 7.90625 
Q 41.359375 3.125 36.9375 0.84375 
Q 32.515625 -1.421875 27.203125 -1.421875 
Q 17.71875 -1.421875 12.765625 4.390625 
Q 7.8125 10.203125 7.8125 21.296875 
z
" id="DejaVuSans-Bold-117"/>
        <path d="M 63.375 33.296875 
L 63.375 0 
L 45.796875 0 
L 45.796875 5.421875 
L 45.796875 25.484375 
Q 45.796875 32.5625 45.484375 35.25 
Q 45.171875 37.9375 44.390625 39.203125 
Q 43.359375 40.921875 41.59375 41.875 
Q 39.84375 42.828125 37.59375 42.828125 
Q 32.125 42.828125 29 38.59375 
Q 25.875 34.375 25.875 26.90625 
L 25.875 0 
L 8.40625 0 
L 8.40625 54.6875 
L 25.875 54.6875 
L 25.875 46.6875 
Q 29.828125 51.46875 34.265625 53.734375 
Q 38.71875 56 44.09375 56 
Q 53.5625 56 58.46875 50.1875 
Q 63.375 44.390625 63.375 33.296875 
z
" id="DejaVuSans-Bold-110"/>
        <path d="M 62.984375 27.484375 
L 62.984375 22.515625 
L 22.125 22.515625 
Q 22.75 16.359375 26.5625 13.28125 
Q 30.375 10.203125 37.203125 10.203125 
Q 42.71875 10.203125 48.5 11.84375 
Q 54.296875 13.484375 60.40625 16.796875 
L 60.40625 3.328125 
Q 54.203125 0.984375 48 -0.21875 
Q 41.796875 -1.421875 35.59375 -1.421875 
Q 20.75 -1.421875 12.515625 6.125 
Q 4.296875 13.671875 4.296875 27.296875 
Q 4.296875 40.671875 12.375 48.328125 
Q 20.453125 56 34.625 56 
Q 47.515625 56 55.25 48.234375 
Q 62.984375 40.484375 62.984375 27.484375 
z
M 45.015625 33.296875 
Q 45.015625 38.28125 42.109375 41.328125 
Q 39.203125 44.390625 34.515625 44.390625 
Q 29.4375 44.390625 26.265625 41.53125 
Q 23.09375 38.671875 22.3125 33.296875 
z
" id="DejaVuSans-Bold-101"/>
       </defs>
       <use xlink:href="#DejaVuSans-Bold-74"/>
       <use x="37.207031" xlink:href="#DejaVuSans-Bold-117"/>
       <use x="108.398438" xlink:href="#DejaVuSans-Bold-110"/>
       <use x="179.589844" xlink:href="#DejaVuSans-Bold-101"/>
      </g>
     </g>
    </g>
    <g id="xtick_4">
     <g id="line2d_4">
      <g>
       <use style="fill:#555555;stroke:#555555;stroke-width:0.8;" x="665.056947" xlink:href="#m0c618a4ada" y="541.28"/>
      </g>
     </g>
     <g id="text_4">
      <!-- July -->
      <g style="fill:#555555;" transform="translate(650.506791 558.917812)scale(0.14 -0.14)">
       <use xlink:href="#DejaVuSans-Bold-74"/>
       <use x="37.207031" xlink:href="#DejaVuSans-Bold-117"/>
       <use x="108.398438" xlink:href="#DejaVuSans-Bold-108"/>
       <use x="142.675781" xlink:href="#DejaVuSans-Bold-121"/>
      </g>
     </g>
    </g>
    <g id="xtick_5">
     <g id="line2d_5">
      <g>
       <use style="fill:#555555;stroke:#555555;stroke-width:0.8;" x="826.155789" xlink:href="#m0c618a4ada" y="541.28"/>
      </g>
     </g>
     <g id="text_5">
      <!-- August -->
      <g style="fill:#555555;" transform="translate(798.249852 558.808437)scale(0.14 -0.14)">
       <defs>
        <path d="M 45.609375 9.28125 
Q 42 4.5 37.640625 2.25 
Q 33.296875 0 27.59375 0 
Q 17.578125 0 11.03125 7.875 
Q 4.5 15.765625 4.5 27.984375 
Q 4.5 40.234375 11.03125 48.0625 
Q 17.578125 55.90625 27.59375 55.90625 
Q 33.296875 55.90625 37.640625 53.65625 
Q 42 51.421875 45.609375 46.578125 
L 45.609375 54.6875 
L 63.1875 54.6875 
L 63.1875 5.515625 
Q 63.1875 -7.671875 54.859375 -14.625 
Q 46.53125 -21.578125 30.71875 -21.578125 
Q 25.59375 -21.578125 20.796875 -20.796875 
Q 16.015625 -20.015625 11.1875 -18.40625 
L 11.1875 -4.78125 
Q 15.765625 -7.421875 20.15625 -8.71875 
Q 24.5625 -10.015625 29 -10.015625 
Q 37.59375 -10.015625 41.59375 -6.25 
Q 45.609375 -2.484375 45.609375 5.515625 
z
M 34.078125 43.3125 
Q 28.65625 43.3125 25.625 39.296875 
Q 22.609375 35.296875 22.609375 27.984375 
Q 22.609375 20.453125 25.53125 16.578125 
Q 28.46875 12.703125 34.078125 12.703125 
Q 39.546875 12.703125 42.578125 16.703125 
Q 45.609375 20.703125 45.609375 27.984375 
Q 45.609375 35.296875 42.578125 39.296875 
Q 39.546875 43.3125 34.078125 43.3125 
z
" id="DejaVuSans-Bold-103"/>
        <path d="M 51.125 52.984375 
L 51.125 39.703125 
Q 45.515625 42.046875 40.28125 43.21875 
Q 35.0625 44.390625 30.421875 44.390625 
Q 25.4375 44.390625 23.015625 43.140625 
Q 20.609375 41.890625 20.609375 39.3125 
Q 20.609375 37.203125 22.4375 36.078125 
Q 24.265625 34.96875 29 34.421875 
L 32.078125 33.984375 
Q 45.515625 32.28125 50.140625 28.375 
Q 54.78125 24.46875 54.78125 16.109375 
Q 54.78125 7.375 48.328125 2.96875 
Q 41.890625 -1.421875 29.109375 -1.421875 
Q 23.6875 -1.421875 17.890625 -0.5625 
Q 12.109375 0.296875 6 2 
L 6 15.28125 
Q 11.234375 12.75 16.71875 11.46875 
Q 22.21875 10.203125 27.875 10.203125 
Q 33.015625 10.203125 35.59375 11.609375 
Q 38.1875 13.03125 38.1875 15.828125 
Q 38.1875 18.171875 36.40625 19.3125 
Q 34.625 20.453125 29.296875 21.09375 
L 26.21875 21.484375 
Q 14.546875 22.953125 9.859375 26.90625 
Q 5.171875 30.859375 5.171875 38.921875 
Q 5.171875 47.609375 11.125 51.796875 
Q 17.09375 56 29.390625 56 
Q 34.234375 56 39.546875 55.265625 
Q 44.875 54.546875 51.125 52.984375 
z
" id="DejaVuSans-Bold-115"/>
        <path d="M 27.484375 70.21875 
L 27.484375 54.6875 
L 45.515625 54.6875 
L 45.515625 42.1875 
L 27.484375 42.1875 
L 27.484375 19 
Q 27.484375 15.1875 29 13.84375 
Q 30.515625 12.5 35.015625 12.5 
L 44 12.5 
L 44 0 
L 29 0 
Q 18.65625 0 14.328125 4.3125 
Q 10.015625 8.640625 10.015625 19 
L 10.015625 42.1875 
L 1.3125 42.1875 
L 1.3125 54.6875 
L 10.015625 54.6875 
L 10.015625 70.21875 
z
" id="DejaVuSans-Bold-116"/>
       </defs>
       <use xlink:href="#DejaVuSans-Bold-65"/>
       <use x="77.392578" xlink:href="#DejaVuSans-Bold-117"/>
       <use x="148.583984" xlink:href="#DejaVuSans-Bold-103"/>
       <use x="220.166016" xlink:href="#DejaVuSans-Bold-117"/>
       <use x="291.357422" xlink:href="#DejaVuSans-Bold-115"/>
       <use x="350.878906" xlink:href="#DejaVuSans-Bold-116"/>
      </g>
     </g>
    </g>
    <g id="xtick_6">
     <g id="line2d_6">
      <g>
       <use style="fill:#555555;stroke:#555555;stroke-width:0.8;" x="987.254632" xlink:href="#m0c618a4ada" y="541.28"/>
      </g>
     </g>
     <g id="text_6">
      <!-- September -->
      <g style="fill:#555555;" transform="translate(943.856819 558.917812)scale(0.14 -0.14)">
       <defs>
        <path d="M 59.90625 70.609375 
L 59.90625 55.171875 
Q 53.90625 57.859375 48.1875 59.21875 
Q 42.484375 60.59375 37.40625 60.59375 
Q 30.671875 60.59375 27.4375 58.734375 
Q 24.21875 56.890625 24.21875 52.984375 
Q 24.21875 50.046875 26.390625 48.40625 
Q 28.5625 46.78125 34.28125 45.609375 
L 42.28125 44 
Q 54.4375 41.546875 59.5625 36.5625 
Q 64.703125 31.59375 64.703125 22.40625 
Q 64.703125 10.359375 57.546875 4.46875 
Q 50.390625 -1.421875 35.6875 -1.421875 
Q 28.765625 -1.421875 21.78125 -0.09375 
Q 14.796875 1.21875 7.8125 3.8125 
L 7.8125 19.671875 
Q 14.796875 15.96875 21.3125 14.078125 
Q 27.828125 12.203125 33.890625 12.203125 
Q 40.046875 12.203125 43.3125 14.25 
Q 46.578125 16.3125 46.578125 20.125 
Q 46.578125 23.53125 44.359375 25.390625 
Q 42.140625 27.25 35.5 28.71875 
L 28.21875 30.328125 
Q 17.28125 32.671875 12.21875 37.796875 
Q 7.171875 42.921875 7.171875 51.609375 
Q 7.171875 62.5 14.203125 68.359375 
Q 21.234375 74.21875 34.421875 74.21875 
Q 40.4375 74.21875 46.78125 73.3125 
Q 53.125 72.40625 59.90625 70.609375 
z
" id="DejaVuSans-Bold-83"/>
        <path d="M 59.078125 45.609375 
Q 62.40625 50.6875 66.96875 53.34375 
Q 71.53125 56 77 56 
Q 86.421875 56 91.359375 50.1875 
Q 96.296875 44.390625 96.296875 33.296875 
L 96.296875 0 
L 78.71875 0 
L 78.71875 28.515625 
Q 78.765625 29.15625 78.78125 29.828125 
Q 78.8125 30.515625 78.8125 31.78125 
Q 78.8125 37.59375 77.09375 40.203125 
Q 75.390625 42.828125 71.578125 42.828125 
Q 66.609375 42.828125 63.890625 38.71875 
Q 61.1875 34.625 61.078125 26.859375 
L 61.078125 0 
L 43.5 0 
L 43.5 28.515625 
Q 43.5 37.59375 41.9375 40.203125 
Q 40.375 42.828125 36.375 42.828125 
Q 31.34375 42.828125 28.609375 38.703125 
Q 25.875 34.578125 25.875 26.90625 
L 25.875 0 
L 8.296875 0 
L 8.296875 54.6875 
L 25.875 54.6875 
L 25.875 46.6875 
Q 29.109375 51.3125 33.28125 53.65625 
Q 37.453125 56 42.484375 56 
Q 48.140625 56 52.484375 53.265625 
Q 56.84375 50.53125 59.078125 45.609375 
z
" id="DejaVuSans-Bold-109"/>
        <path d="M 37.5 11.28125 
Q 43.109375 11.28125 46.0625 15.375 
Q 49.03125 19.484375 49.03125 27.296875 
Q 49.03125 35.109375 46.0625 39.203125 
Q 43.109375 43.3125 37.5 43.3125 
Q 31.890625 43.3125 28.875 39.1875 
Q 25.875 35.0625 25.875 27.296875 
Q 25.875 19.53125 28.875 15.40625 
Q 31.890625 11.28125 37.5 11.28125 
z
M 25.875 46.6875 
Q 29.5 51.46875 33.890625 53.734375 
Q 38.28125 56 44 56 
Q 54.109375 56 60.59375 47.96875 
Q 67.09375 39.9375 67.09375 27.296875 
Q 67.09375 14.65625 60.59375 6.609375 
Q 54.109375 -1.421875 44 -1.421875 
Q 38.28125 -1.421875 33.890625 0.84375 
Q 29.5 3.125 25.875 7.90625 
L 25.875 0 
L 8.40625 0 
L 8.40625 75.984375 
L 25.875 75.984375 
z
" id="DejaVuSans-Bold-98"/>
       </defs>
       <use xlink:href="#DejaVuSans-Bold-83"/>
       <use x="72.021484" xlink:href="#DejaVuSans-Bold-101"/>
       <use x="139.84375" xlink:href="#DejaVuSans-Bold-112"/>
       <use x="211.425781" xlink:href="#DejaVuSans-Bold-116"/>
       <use x="259.228516" xlink:href="#DejaVuSans-Bold-101"/>
       <use x="327.050781" xlink:href="#DejaVuSans-Bold-109"/>
       <use x="431.25" xlink:href="#DejaVuSans-Bold-98"/>
       <use x="502.832031" xlink:href="#DejaVuSans-Bold-101"/>
       <use x="570.654297" xlink:href="#DejaVuSans-Bold-114"/>
      </g>
     </g>
    </g>
   </g>
   <g id="matplotlib.axis_2">
    <g id="ytick_1">
     <g id="line2d_7">
      <defs>
       <path d="M 0 0 
L -3.5 0 
" id="m4745035121" style="stroke:#555555;stroke-width:0.8;"/>
      </defs>
      <g>
       <use style="fill:#555555;stroke:#555555;stroke-width:0.8;" x="51.842" xlink:href="#m4745035121" y="525.082581"/>
      </g>
     </g>
     <g id="text_7">
      <!-- 0 -->
      <g style="fill:#555555;" transform="translate(35.101062 530.401487)scale(0.14 -0.14)">
       <defs>
        <path d="M 46 36.53125 
Q 46 50.203125 43.4375 55.78125 
Q 40.875 61.375 34.8125 61.375 
Q 28.765625 61.375 26.171875 55.78125 
Q 23.578125 50.203125 23.578125 36.53125 
Q 23.578125 22.703125 26.171875 17.03125 
Q 28.765625 11.375 34.8125 11.375 
Q 40.828125 11.375 43.40625 17.03125 
Q 46 22.703125 46 36.53125 
z
M 64.796875 36.375 
Q 64.796875 18.265625 56.984375 8.421875 
Q 49.171875 -1.421875 34.8125 -1.421875 
Q 20.40625 -1.421875 12.59375 8.421875 
Q 4.78125 18.265625 4.78125 36.375 
Q 4.78125 54.546875 12.59375 64.375 
Q 20.40625 74.21875 34.8125 74.21875 
Q 49.171875 74.21875 56.984375 64.375 
Q 64.796875 54.546875 64.796875 36.375 
z
" id="DejaVuSans-Bold-48"/>
       </defs>
       <use xlink:href="#DejaVuSans-Bold-48"/>
      </g>
     </g>
    </g>
    <g id="ytick_2">
     <g id="line2d_8">
      <g>
       <use style="fill:#555555;stroke:#555555;stroke-width:0.8;" x="51.842" xlink:href="#m4745035121" y="363.108387"/>
      </g>
     </g>
     <g id="text_8">
      <!-- 1 -->
      <g style="fill:#555555;" transform="translate(35.101062 368.427293)scale(0.14 -0.14)">
       <defs>
        <path d="M 11.71875 12.984375 
L 28.328125 12.984375 
L 28.328125 60.109375 
L 11.28125 56.59375 
L 11.28125 69.390625 
L 28.21875 72.90625 
L 46.09375 72.90625 
L 46.09375 12.984375 
L 62.703125 12.984375 
L 62.703125 0 
L 11.71875 0 
z
" id="DejaVuSans-Bold-49"/>
       </defs>
       <use xlink:href="#DejaVuSans-Bold-49"/>
      </g>
     </g>
    </g>
    <g id="ytick_3">
     <g id="line2d_9">
      <g>
       <use style="fill:#555555;stroke:#555555;stroke-width:0.8;" x="51.842" xlink:href="#m4745035121" y="201.134194"/>
      </g>
     </g>
     <g id="text_9">
      <!-- 2 -->
      <g style="fill:#555555;" transform="translate(35.101062 206.4531)scale(0.14 -0.14)">
       <defs>
        <path d="M 28.8125 13.8125 
L 60.890625 13.8125 
L 60.890625 0 
L 7.90625 0 
L 7.90625 13.8125 
L 34.515625 37.3125 
Q 38.09375 40.53125 39.796875 43.609375 
Q 41.5 46.6875 41.5 50 
Q 41.5 55.125 38.0625 58.25 
Q 34.625 61.375 28.90625 61.375 
Q 24.515625 61.375 19.28125 59.5 
Q 14.0625 57.625 8.109375 53.90625 
L 8.109375 69.921875 
Q 14.453125 72.015625 20.65625 73.109375 
Q 26.859375 74.21875 32.8125 74.21875 
Q 45.90625 74.21875 53.15625 68.453125 
Q 60.40625 62.703125 60.40625 52.390625 
Q 60.40625 46.4375 57.328125 41.28125 
Q 54.25 36.140625 44.390625 27.484375 
z
" id="DejaVuSans-Bold-50"/>
       </defs>
       <use xlink:href="#DejaVuSans-Bold-50"/>
      </g>
     </g>
    </g>
    <g id="ytick_4">
     <g id="line2d_10">
      <g>
       <use style="fill:#555555;stroke:#555555;stroke-width:0.8;" x="51.842" xlink:href="#m4745035121" y="39.16"/>
      </g>
     </g>
     <g id="text_10">
      <!-- 3 -->
      <g style="fill:#555555;" transform="translate(35.101062 44.478906)scale(0.14 -0.14)">
       <defs>
        <path d="M 46.578125 39.3125 
Q 53.953125 37.40625 57.78125 32.6875 
Q 61.625 27.984375 61.625 20.703125 
Q 61.625 9.859375 53.3125 4.21875 
Q 45.015625 -1.421875 29.109375 -1.421875 
Q 23.484375 -1.421875 17.84375 -0.515625 
Q 12.203125 0.390625 6.6875 2.203125 
L 6.6875 16.703125 
Q 11.96875 14.0625 17.15625 12.71875 
Q 22.359375 11.375 27.390625 11.375 
Q 34.859375 11.375 38.84375 13.953125 
Q 42.828125 16.546875 42.828125 21.390625 
Q 42.828125 26.375 38.75 28.9375 
Q 34.671875 31.5 26.703125 31.5 
L 19.1875 31.5 
L 19.1875 43.609375 
L 27.09375 43.609375 
Q 34.1875 43.609375 37.640625 45.828125 
Q 41.109375 48.046875 41.109375 52.59375 
Q 41.109375 56.78125 37.734375 59.078125 
Q 34.375 61.375 28.21875 61.375 
Q 23.6875 61.375 19.046875 60.34375 
Q 14.40625 59.328125 9.8125 57.328125 
L 9.8125 71.09375 
Q 15.375 72.65625 20.84375 73.4375 
Q 26.3125 74.21875 31.59375 74.21875 
Q 45.796875 74.21875 52.84375 69.546875 
Q 59.90625 64.890625 59.90625 55.515625 
Q 59.90625 49.125 56.53125 45.046875 
Q 53.171875 40.96875 46.578125 39.3125 
z
" id="DejaVuSans-Bold-51"/>
       </defs>
       <use xlink:href="#DejaVuSans-Bold-51"/>
      </g>
     </g>
    </g>
    <g id="text_11">
     <!-- $R_{t}$ -->
     <g style="fill:#555555;" transform="translate(27.773562 299.34)rotate(-90)scale(0.16 -0.16)">
      <defs>
       <path d="M 36.71875 40.578125 
Q 43.109375 40.578125 46.40625 43.546875 
Q 49.703125 46.53125 49.703125 52.296875 
Q 49.703125 55.90625 47.4375 57.59375 
Q 45.171875 59.28125 40.28125 59.28125 
L 32.515625 59.28125 
L 28.8125 40.578125 
z
M 26.3125 27.59375 
L 20.90625 0 
L 2.09375 0 
L 16.3125 72.90625 
L 44.09375 72.90625 
Q 56.109375 72.90625 62.296875 68.40625 
Q 68.5 63.921875 68.5 55.171875 
Q 68.5 46.34375 63.609375 40.625 
Q 58.734375 34.90625 50.390625 34.078125 
Q 54.203125 33.296875 56.734375 30.1875 
Q 59.28125 27.09375 61.1875 20.703125 
L 67.390625 0 
L 48.6875 0 
L 43.21875 18.109375 
Q 41.546875 23.53125 39.171875 25.5625 
Q 36.8125 27.59375 32.328125 27.59375 
z
" id="DejaVuSans-BoldOblique-82"/>
       <path d="M 35.984375 70.21875 
L 33.015625 54.6875 
L 50.875 54.6875 
L 48.390625 42.1875 
L 30.515625 42.1875 
L 26.03125 19.046875 
Q 25.828125 18.265625 25.75 17.71875 
Q 25.6875 17.1875 25.6875 16.703125 
Q 25.6875 14.453125 27.171875 13.46875 
Q 28.65625 12.5 32.171875 12.5 
L 41.21875 12.5 
L 38.71875 0 
L 24.03125 0 
Q 16.109375 0 11.953125 3.3125 
Q 7.8125 6.640625 7.8125 12.890625 
Q 7.8125 14.265625 7.953125 15.828125 
Q 8.109375 17.390625 8.40625 19 
L 12.890625 42.1875 
L 4.296875 42.1875 
L 6.6875 54.6875 
L 15.375 54.6875 
L 18.40625 70.21875 
z
" id="DejaVuSans-BoldOblique-116"/>
      </defs>
      <use transform="translate(0 0.09375)" xlink:href="#DejaVuSans-BoldOblique-82"/>
      <use transform="translate(77.001953 -16.3125)scale(0.7)" xlink:href="#DejaVuSans-BoldOblique-116"/>
     </g>
    </g>
   </g>
   <g id="line2d_11">
    <path clip-path="url(#p9dcdf23596)" d="M 51.842 363.108387 
L 1137.96 363.108387 
" style="fill:none;stroke:#ff0000;stroke-dasharray:2,3.3;stroke-dashoffset:0;stroke-width:2;"/>
   </g>
   <g id="line2d_12">
    <path clip-path="url(#p9dcdf23596)" d="M 51.842 257.825161 
L 57.038737 218.951355 
L 62.235474 188.176258 
L 72.628947 152.541935 
L 77.825684 159.020903 
L 83.022421 162.260387 
L 88.219158 162.260387 
L 93.415895 160.640645 
L 98.612632 162.260387 
L 103.809368 162.260387 
L 114.202842 165.499871 
L 119.399579 168.739355 
L 124.596316 175.218323 
L 129.793053 184.936774 
L 140.186526 207.613161 
L 145.383263 215.711871 
L 150.58 222.190839 
L 155.776737 231.90929 
L 160.973474 246.486968 
L 166.170211 265.923871 
L 176.563684 314.516129 
L 181.760421 335.572774 
L 186.957158 350.150452 
L 192.153895 356.629419 
L 202.547368 359.868903 
L 212.940842 359.868903 
L 218.137579 356.629419 
L 223.334316 350.150452 
L 228.531053 342.051742 
L 233.727789 338.812258 
L 238.924526 340.432 
L 244.121263 350.150452 
L 249.318 364.728129 
L 254.514737 377.686065 
L 259.711474 384.165032 
L 264.908211 382.54529 
L 275.301684 376.066323 
L 280.498421 379.305806 
L 285.695158 387.404516 
L 296.088632 410.080903 
L 301.285368 416.559871 
L 311.678842 432.75729 
L 322.072316 458.673161 
L 327.269053 466.771871 
L 332.465789 468.391613 
L 337.662526 461.912645 
L 342.859263 450.574452 
L 348.056 440.856 
L 353.252737 434.377032 
L 358.449474 432.75729 
L 368.842947 426.278323 
L 379.236421 416.559871 
L 384.433158 414.940129 
L 389.629895 416.559871 
L 394.826632 421.419097 
L 400.023368 424.658581 
L 405.220105 426.278323 
L 410.416842 424.658581 
L 426.007053 424.658581 
L 431.203789 423.038839 
L 436.400526 418.179613 
L 441.597263 408.461161 
L 446.794 395.503226 
L 451.990737 384.165032 
L 457.187474 377.686065 
L 462.384211 374.446581 
L 467.580947 374.446581 
L 477.974421 377.686065 
L 493.564632 387.404516 
L 498.761368 392.263742 
L 503.958105 395.503226 
L 509.154842 393.883484 
L 514.351579 385.784774 
L 519.548316 374.446581 
L 524.745053 359.868903 
L 529.941789 348.53071 
L 535.138526 340.432 
L 540.335263 340.432 
L 545.532 343.671484 
L 555.925474 356.629419 
L 566.318947 366.347871 
L 571.515684 372.826839 
L 581.909158 389.024258 
L 597.499368 418.179613 
L 602.696105 424.658581 
L 607.892842 429.517806 
L 613.089579 431.137548 
L 618.286316 427.898065 
L 623.483053 423.038839 
L 628.679789 416.559871 
L 633.876526 411.700645 
L 639.073263 408.461161 
L 644.27 406.841419 
L 649.466737 408.461161 
L 659.860211 408.461161 
L 675.450421 403.601935 
L 680.647158 405.221677 
L 685.843895 408.461161 
L 691.040632 410.080903 
L 696.237368 408.461161 
L 701.434105 401.982194 
L 706.630842 392.263742 
L 711.827579 380.925548 
L 722.221053 355.009677 
L 732.614526 335.572774 
L 743.008 312.896387 
L 753.401474 293.459484 
L 758.598211 286.980516 
L 763.794947 285.360774 
L 768.991684 288.600258 
L 774.188421 293.459484 
L 779.385158 299.938452 
L 784.581895 303.177935 
L 789.778632 303.177935 
L 794.975368 298.31871 
L 800.172105 290.22 
L 810.565579 270.783097 
L 815.762316 264.304129 
L 820.959053 262.684387 
L 826.155789 264.304129 
L 831.352526 267.543613 
L 836.549263 272.402839 
L 841.746 278.881806 
L 846.942737 283.741032 
L 852.139474 286.980516 
L 857.336211 291.839742 
L 862.532947 295.079226 
L 872.926421 304.797677 
L 878.123158 314.516129 
L 883.319895 327.474065 
L 888.516632 342.051742 
L 893.713368 358.249161 
L 898.910105 372.826839 
L 904.106842 382.54529 
L 909.303579 387.404516 
L 914.500316 387.404516 
L 919.697053 385.784774 
L 935.287263 376.066323 
L 940.484 374.446581 
L 945.680737 371.207097 
L 956.074211 367.967613 
L 961.270947 364.728129 
L 966.467684 363.108387 
L 976.861158 353.389935 
L 982.057895 343.671484 
L 992.451368 320.995097 
L 1002.844842 301.558194 
L 1008.041579 295.079226 
L 1013.238316 290.22 
L 1018.435053 288.600258 
L 1023.631789 288.600258 
L 1028.828526 290.22 
L 1034.025263 293.459484 
L 1044.418737 296.698968 
L 1049.615474 295.079226 
L 1054.812211 291.839742 
L 1060.008947 286.980516 
L 1065.205684 283.741032 
L 1070.402421 282.12129 
L 1075.599158 283.741032 
L 1080.795895 288.600258 
L 1096.386105 298.31871 
L 1106.779579 301.558194 
L 1111.976316 304.797677 
L 1117.173053 309.656903 
L 1127.566526 322.614839 
L 1132.763263 325.854323 
L 1137.96 330.713548 
L 1137.96 330.713548 
" style="fill:none;stroke:#000000;stroke-linecap:square;"/>
    <defs>
     <path d="M 0 2.5 
C 0.663008 2.5 1.29895 2.236584 1.767767 1.767767 
C 2.236584 1.29895 2.5 0.663008 2.5 0 
C 2.5 -0.663008 2.236584 -1.29895 1.767767 -1.767767 
C 1.29895 -2.236584 0.663008 -2.5 0 -2.5 
C -0.663008 -2.5 -1.29895 -2.236584 -1.767767 -1.767767 
C -2.236584 -1.29895 -2.5 -0.663008 -2.5 0 
C -2.5 0.663008 -2.236584 1.29895 -1.767767 1.767767 
C -1.29895 2.236584 -0.663008 2.5 0 2.5 
z
" id="m15e38d015d" style="stroke:#000000;"/>
    </defs>
    <g clip-path="url(#p9dcdf23596)">
     <use style="fill:#ffffff;stroke:#000000;" x="51.842" xlink:href="#m15e38d015d" y="257.825161"/>
     <use style="fill:#ffffff;stroke:#000000;" x="62.235474" xlink:href="#m15e38d015d" y="188.176258"/>
     <use style="fill:#ffffff;stroke:#000000;" x="72.628947" xlink:href="#m15e38d015d" y="152.541935"/>
     <use style="fill:#ffffff;stroke:#000000;" x="83.022421" xlink:href="#m15e38d015d" y="162.260387"/>
     <use style="fill:#ffffff;stroke:#000000;" x="93.415895" xlink:href="#m15e38d015d" y="160.640645"/>
     <use style="fill:#ffffff;stroke:#000000;" x="103.809368" xlink:href="#m15e38d015d" y="162.260387"/>
     <use style="fill:#ffffff;stroke:#000000;" x="114.202842" xlink:href="#m15e38d015d" y="165.499871"/>
     <use style="fill:#ffffff;stroke:#000000;" x="124.596316" xlink:href="#m15e38d015d" y="175.218323"/>
     <use style="fill:#ffffff;stroke:#000000;" x="134.989789" xlink:href="#m15e38d015d" y="196.274968"/>
     <use style="fill:#ffffff;stroke:#000000;" x="145.383263" xlink:href="#m15e38d015d" y="215.711871"/>
     <use style="fill:#ffffff;stroke:#000000;" x="155.776737" xlink:href="#m15e38d015d" y="231.90929"/>
     <use style="fill:#ffffff;stroke:#000000;" x="166.170211" xlink:href="#m15e38d015d" y="265.923871"/>
     <use style="fill:#ffffff;stroke:#000000;" x="176.563684" xlink:href="#m15e38d015d" y="314.516129"/>
     <use style="fill:#ffffff;stroke:#000000;" x="186.957158" xlink:href="#m15e38d015d" y="350.150452"/>
     <use style="fill:#ffffff;stroke:#000000;" x="197.350632" xlink:href="#m15e38d015d" y="358.249161"/>
     <use style="fill:#ffffff;stroke:#000000;" x="207.744105" xlink:href="#m15e38d015d" y="359.868903"/>
     <use style="fill:#ffffff;stroke:#000000;" x="218.137579" xlink:href="#m15e38d015d" y="356.629419"/>
     <use style="fill:#ffffff;stroke:#000000;" x="228.531053" xlink:href="#m15e38d015d" y="342.051742"/>
     <use style="fill:#ffffff;stroke:#000000;" x="238.924526" xlink:href="#m15e38d015d" y="340.432"/>
     <use style="fill:#ffffff;stroke:#000000;" x="249.318" xlink:href="#m15e38d015d" y="364.728129"/>
     <use style="fill:#ffffff;stroke:#000000;" x="259.711474" xlink:href="#m15e38d015d" y="384.165032"/>
     <use style="fill:#ffffff;stroke:#000000;" x="270.104947" xlink:href="#m15e38d015d" y="379.305806"/>
     <use style="fill:#ffffff;stroke:#000000;" x="280.498421" xlink:href="#m15e38d015d" y="379.305806"/>
     <use style="fill:#ffffff;stroke:#000000;" x="290.891895" xlink:href="#m15e38d015d" y="398.74271"/>
     <use style="fill:#ffffff;stroke:#000000;" x="301.285368" xlink:href="#m15e38d015d" y="416.559871"/>
     <use style="fill:#ffffff;stroke:#000000;" x="311.678842" xlink:href="#m15e38d015d" y="432.75729"/>
     <use style="fill:#ffffff;stroke:#000000;" x="322.072316" xlink:href="#m15e38d015d" y="458.673161"/>
     <use style="fill:#ffffff;stroke:#000000;" x="332.465789" xlink:href="#m15e38d015d" y="468.391613"/>
     <use style="fill:#ffffff;stroke:#000000;" x="342.859263" xlink:href="#m15e38d015d" y="450.574452"/>
     <use style="fill:#ffffff;stroke:#000000;" x="353.252737" xlink:href="#m15e38d015d" y="434.377032"/>
     <use style="fill:#ffffff;stroke:#000000;" x="363.646211" xlink:href="#m15e38d015d" y="429.517806"/>
     <use style="fill:#ffffff;stroke:#000000;" x="374.039684" xlink:href="#m15e38d015d" y="421.419097"/>
     <use style="fill:#ffffff;stroke:#000000;" x="384.433158" xlink:href="#m15e38d015d" y="414.940129"/>
     <use style="fill:#ffffff;stroke:#000000;" x="394.826632" xlink:href="#m15e38d015d" y="421.419097"/>
     <use style="fill:#ffffff;stroke:#000000;" x="405.220105" xlink:href="#m15e38d015d" y="426.278323"/>
     <use style="fill:#ffffff;stroke:#000000;" x="415.613579" xlink:href="#m15e38d015d" y="424.658581"/>
     <use style="fill:#ffffff;stroke:#000000;" x="426.007053" xlink:href="#m15e38d015d" y="424.658581"/>
     <use style="fill:#ffffff;stroke:#000000;" x="436.400526" xlink:href="#m15e38d015d" y="418.179613"/>
     <use style="fill:#ffffff;stroke:#000000;" x="446.794" xlink:href="#m15e38d015d" y="395.503226"/>
     <use style="fill:#ffffff;stroke:#000000;" x="457.187474" xlink:href="#m15e38d015d" y="377.686065"/>
     <use style="fill:#ffffff;stroke:#000000;" x="467.580947" xlink:href="#m15e38d015d" y="374.446581"/>
     <use style="fill:#ffffff;stroke:#000000;" x="477.974421" xlink:href="#m15e38d015d" y="377.686065"/>
     <use style="fill:#ffffff;stroke:#000000;" x="488.367895" xlink:href="#m15e38d015d" y="384.165032"/>
     <use style="fill:#ffffff;stroke:#000000;" x="498.761368" xlink:href="#m15e38d015d" y="392.263742"/>
     <use style="fill:#ffffff;stroke:#000000;" x="509.154842" xlink:href="#m15e38d015d" y="393.883484"/>
     <use style="fill:#ffffff;stroke:#000000;" x="519.548316" xlink:href="#m15e38d015d" y="374.446581"/>
     <use style="fill:#ffffff;stroke:#000000;" x="529.941789" xlink:href="#m15e38d015d" y="348.53071"/>
     <use style="fill:#ffffff;stroke:#000000;" x="540.335263" xlink:href="#m15e38d015d" y="340.432"/>
     <use style="fill:#ffffff;stroke:#000000;" x="550.728737" xlink:href="#m15e38d015d" y="350.150452"/>
     <use style="fill:#ffffff;stroke:#000000;" x="561.122211" xlink:href="#m15e38d015d" y="361.488645"/>
     <use style="fill:#ffffff;stroke:#000000;" x="571.515684" xlink:href="#m15e38d015d" y="372.826839"/>
     <use style="fill:#ffffff;stroke:#000000;" x="581.909158" xlink:href="#m15e38d015d" y="389.024258"/>
     <use style="fill:#ffffff;stroke:#000000;" x="592.302632" xlink:href="#m15e38d015d" y="408.461161"/>
     <use style="fill:#ffffff;stroke:#000000;" x="602.696105" xlink:href="#m15e38d015d" y="424.658581"/>
     <use style="fill:#ffffff;stroke:#000000;" x="613.089579" xlink:href="#m15e38d015d" y="431.137548"/>
     <use style="fill:#ffffff;stroke:#000000;" x="623.483053" xlink:href="#m15e38d015d" y="423.038839"/>
     <use style="fill:#ffffff;stroke:#000000;" x="633.876526" xlink:href="#m15e38d015d" y="411.700645"/>
     <use style="fill:#ffffff;stroke:#000000;" x="644.27" xlink:href="#m15e38d015d" y="406.841419"/>
     <use style="fill:#ffffff;stroke:#000000;" x="654.663474" xlink:href="#m15e38d015d" y="408.461161"/>
     <use style="fill:#ffffff;stroke:#000000;" x="665.056947" xlink:href="#m15e38d015d" y="406.841419"/>
     <use style="fill:#ffffff;stroke:#000000;" x="675.450421" xlink:href="#m15e38d015d" y="403.601935"/>
     <use style="fill:#ffffff;stroke:#000000;" x="685.843895" xlink:href="#m15e38d015d" y="408.461161"/>
     <use style="fill:#ffffff;stroke:#000000;" x="696.237368" xlink:href="#m15e38d015d" y="408.461161"/>
     <use style="fill:#ffffff;stroke:#000000;" x="706.630842" xlink:href="#m15e38d015d" y="392.263742"/>
     <use style="fill:#ffffff;stroke:#000000;" x="717.024316" xlink:href="#m15e38d015d" y="367.967613"/>
     <use style="fill:#ffffff;stroke:#000000;" x="727.417789" xlink:href="#m15e38d015d" y="345.291226"/>
     <use style="fill:#ffffff;stroke:#000000;" x="737.811263" xlink:href="#m15e38d015d" y="324.234581"/>
     <use style="fill:#ffffff;stroke:#000000;" x="748.204737" xlink:href="#m15e38d015d" y="303.177935"/>
     <use style="fill:#ffffff;stroke:#000000;" x="758.598211" xlink:href="#m15e38d015d" y="286.980516"/>
     <use style="fill:#ffffff;stroke:#000000;" x="768.991684" xlink:href="#m15e38d015d" y="288.600258"/>
     <use style="fill:#ffffff;stroke:#000000;" x="779.385158" xlink:href="#m15e38d015d" y="299.938452"/>
     <use style="fill:#ffffff;stroke:#000000;" x="789.778632" xlink:href="#m15e38d015d" y="303.177935"/>
     <use style="fill:#ffffff;stroke:#000000;" x="800.172105" xlink:href="#m15e38d015d" y="290.22"/>
     <use style="fill:#ffffff;stroke:#000000;" x="810.565579" xlink:href="#m15e38d015d" y="270.783097"/>
     <use style="fill:#ffffff;stroke:#000000;" x="820.959053" xlink:href="#m15e38d015d" y="262.684387"/>
     <use style="fill:#ffffff;stroke:#000000;" x="831.352526" xlink:href="#m15e38d015d" y="267.543613"/>
     <use style="fill:#ffffff;stroke:#000000;" x="841.746" xlink:href="#m15e38d015d" y="278.881806"/>
     <use style="fill:#ffffff;stroke:#000000;" x="852.139474" xlink:href="#m15e38d015d" y="286.980516"/>
     <use style="fill:#ffffff;stroke:#000000;" x="862.532947" xlink:href="#m15e38d015d" y="295.079226"/>
     <use style="fill:#ffffff;stroke:#000000;" x="872.926421" xlink:href="#m15e38d015d" y="304.797677"/>
     <use style="fill:#ffffff;stroke:#000000;" x="883.319895" xlink:href="#m15e38d015d" y="327.474065"/>
     <use style="fill:#ffffff;stroke:#000000;" x="893.713368" xlink:href="#m15e38d015d" y="358.249161"/>
     <use style="fill:#ffffff;stroke:#000000;" x="904.106842" xlink:href="#m15e38d015d" y="382.54529"/>
     <use style="fill:#ffffff;stroke:#000000;" x="914.500316" xlink:href="#m15e38d015d" y="387.404516"/>
     <use style="fill:#ffffff;stroke:#000000;" x="924.893789" xlink:href="#m15e38d015d" y="382.54529"/>
     <use style="fill:#ffffff;stroke:#000000;" x="935.287263" xlink:href="#m15e38d015d" y="376.066323"/>
     <use style="fill:#ffffff;stroke:#000000;" x="945.680737" xlink:href="#m15e38d015d" y="371.207097"/>
     <use style="fill:#ffffff;stroke:#000000;" x="956.074211" xlink:href="#m15e38d015d" y="367.967613"/>
     <use style="fill:#ffffff;stroke:#000000;" x="966.467684" xlink:href="#m15e38d015d" y="363.108387"/>
     <use style="fill:#ffffff;stroke:#000000;" x="976.861158" xlink:href="#m15e38d015d" y="353.389935"/>
     <use style="fill:#ffffff;stroke:#000000;" x="987.254632" xlink:href="#m15e38d015d" y="332.33329"/>
     <use style="fill:#ffffff;stroke:#000000;" x="997.648105" xlink:href="#m15e38d015d" y="311.276645"/>
     <use style="fill:#ffffff;stroke:#000000;" x="1008.041579" xlink:href="#m15e38d015d" y="295.079226"/>
     <use style="fill:#ffffff;stroke:#000000;" x="1018.435053" xlink:href="#m15e38d015d" y="288.600258"/>
     <use style="fill:#ffffff;stroke:#000000;" x="1028.828526" xlink:href="#m15e38d015d" y="290.22"/>
     <use style="fill:#ffffff;stroke:#000000;" x="1039.222" xlink:href="#m15e38d015d" y="295.079226"/>
     <use style="fill:#ffffff;stroke:#000000;" x="1049.615474" xlink:href="#m15e38d015d" y="295.079226"/>
     <use style="fill:#ffffff;stroke:#000000;" x="1060.008947" xlink:href="#m15e38d015d" y="286.980516"/>
     <use style="fill:#ffffff;stroke:#000000;" x="1070.402421" xlink:href="#m15e38d015d" y="282.12129"/>
     <use style="fill:#ffffff;stroke:#000000;" x="1080.795895" xlink:href="#m15e38d015d" y="288.600258"/>
     <use style="fill:#ffffff;stroke:#000000;" x="1091.189368" xlink:href="#m15e38d015d" y="295.079226"/>
     <use style="fill:#ffffff;stroke:#000000;" x="1101.582842" xlink:href="#m15e38d015d" y="299.938452"/>
     <use style="fill:#ffffff;stroke:#000000;" x="1111.976316" xlink:href="#m15e38d015d" y="304.797677"/>
     <use style="fill:#ffffff;stroke:#000000;" x="1122.369789" xlink:href="#m15e38d015d" y="316.135871"/>
     <use style="fill:#ffffff;stroke:#000000;" x="1132.763263" xlink:href="#m15e38d015d" y="325.854323"/>
    </g>
   </g>
   <g id="patch_3">
    <path d="M 51.842 541.28 
L 51.842 39.16 
" style="fill:none;stroke:#555555;stroke-linecap:square;stroke-linejoin:miter;"/>
   </g>
   <g id="patch_4">
    <path d="M 51.842 541.28 
L 1137.96 541.28 
" style="fill:none;stroke:#555555;stroke-linecap:square;stroke-linejoin:miter;"/>
   </g>
   <g id="text_12">
    <!-- Last updated on 30 September 2020 with $R_t = 1.2$ and 95% confidence in range $1.0 - 1.37$ -->
    <g style="fill:#555555;" transform="translate(180.091 29.16)scale(0.18 -0.18)">
     <defs>
      <path d="M 9.8125 72.90625 
L 19.671875 72.90625 
L 19.671875 8.296875 
L 55.171875 8.296875 
L 55.171875 0 
L 9.8125 0 
z
" id="DejaVuSans-76"/>
      <path d="M 34.28125 27.484375 
Q 23.390625 27.484375 19.1875 25 
Q 14.984375 22.515625 14.984375 16.5 
Q 14.984375 11.71875 18.140625 8.90625 
Q 21.296875 6.109375 26.703125 6.109375 
Q 34.1875 6.109375 38.703125 11.40625 
Q 43.21875 16.703125 43.21875 25.484375 
L 43.21875 27.484375 
z
M 52.203125 31.203125 
L 52.203125 0 
L 43.21875 0 
L 43.21875 8.296875 
Q 40.140625 3.328125 35.546875 0.953125 
Q 30.953125 -1.421875 24.3125 -1.421875 
Q 15.921875 -1.421875 10.953125 3.296875 
Q 6 8.015625 6 15.921875 
Q 6 25.140625 12.171875 29.828125 
Q 18.359375 34.515625 30.609375 34.515625 
L 43.21875 34.515625 
L 43.21875 35.40625 
Q 43.21875 41.609375 39.140625 45 
Q 35.0625 48.390625 27.6875 48.390625 
Q 23 48.390625 18.546875 47.265625 
Q 14.109375 46.140625 10.015625 43.890625 
L 10.015625 52.203125 
Q 14.9375 54.109375 19.578125 55.046875 
Q 24.21875 56 28.609375 56 
Q 40.484375 56 46.34375 49.84375 
Q 52.203125 43.703125 52.203125 31.203125 
z
" id="DejaVuSans-97"/>
      <path d="M 44.28125 53.078125 
L 44.28125 44.578125 
Q 40.484375 46.53125 36.375 47.5 
Q 32.28125 48.484375 27.875 48.484375 
Q 21.1875 48.484375 17.84375 46.4375 
Q 14.5 44.390625 14.5 40.28125 
Q 14.5 37.15625 16.890625 35.375 
Q 19.28125 33.59375 26.515625 31.984375 
L 29.59375 31.296875 
Q 39.15625 29.25 43.1875 25.515625 
Q 47.21875 21.78125 47.21875 15.09375 
Q 47.21875 7.46875 41.1875 3.015625 
Q 35.15625 -1.421875 24.609375 -1.421875 
Q 20.21875 -1.421875 15.453125 -0.5625 
Q 10.6875 0.296875 5.421875 2 
L 5.421875 11.28125 
Q 10.40625 8.6875 15.234375 7.390625 
Q 20.0625 6.109375 24.8125 6.109375 
Q 31.15625 6.109375 34.5625 8.28125 
Q 37.984375 10.453125 37.984375 14.40625 
Q 37.984375 18.0625 35.515625 20.015625 
Q 33.0625 21.96875 24.703125 23.78125 
L 21.578125 24.515625 
Q 13.234375 26.265625 9.515625 29.90625 
Q 5.8125 33.546875 5.8125 39.890625 
Q 5.8125 47.609375 11.28125 51.796875 
Q 16.75 56 26.8125 56 
Q 31.78125 56 36.171875 55.265625 
Q 40.578125 54.546875 44.28125 53.078125 
z
" id="DejaVuSans-115"/>
      <path d="M 18.3125 70.21875 
L 18.3125 54.6875 
L 36.8125 54.6875 
L 36.8125 47.703125 
L 18.3125 47.703125 
L 18.3125 18.015625 
Q 18.3125 11.328125 20.140625 9.421875 
Q 21.96875 7.515625 27.59375 7.515625 
L 36.8125 7.515625 
L 36.8125 0 
L 27.59375 0 
Q 17.1875 0 13.234375 3.875 
Q 9.28125 7.765625 9.28125 18.015625 
L 9.28125 47.703125 
L 2.6875 47.703125 
L 2.6875 54.6875 
L 9.28125 54.6875 
L 9.28125 70.21875 
z
" id="DejaVuSans-116"/>
      <path id="DejaVuSans-32"/>
      <path d="M 8.5 21.578125 
L 8.5 54.6875 
L 17.484375 54.6875 
L 17.484375 21.921875 
Q 17.484375 14.15625 20.5 10.265625 
Q 23.53125 6.390625 29.59375 6.390625 
Q 36.859375 6.390625 41.078125 11.03125 
Q 45.3125 15.671875 45.3125 23.6875 
L 45.3125 54.6875 
L 54.296875 54.6875 
L 54.296875 0 
L 45.3125 0 
L 45.3125 8.40625 
Q 42.046875 3.421875 37.71875 1 
Q 33.40625 -1.421875 27.6875 -1.421875 
Q 18.265625 -1.421875 13.375 4.4375 
Q 8.5 10.296875 8.5 21.578125 
z
M 31.109375 56 
z
" id="DejaVuSans-117"/>
      <path d="M 18.109375 8.203125 
L 18.109375 -20.796875 
L 9.078125 -20.796875 
L 9.078125 54.6875 
L 18.109375 54.6875 
L 18.109375 46.390625 
Q 20.953125 51.265625 25.265625 53.625 
Q 29.59375 56 35.59375 56 
Q 45.5625 56 51.78125 48.09375 
Q 58.015625 40.1875 58.015625 27.296875 
Q 58.015625 14.40625 51.78125 6.484375 
Q 45.5625 -1.421875 35.59375 -1.421875 
Q 29.59375 -1.421875 25.265625 0.953125 
Q 20.953125 3.328125 18.109375 8.203125 
z
M 48.6875 27.296875 
Q 48.6875 37.203125 44.609375 42.84375 
Q 40.53125 48.484375 33.40625 48.484375 
Q 26.265625 48.484375 22.1875 42.84375 
Q 18.109375 37.203125 18.109375 27.296875 
Q 18.109375 17.390625 22.1875 11.75 
Q 26.265625 6.109375 33.40625 6.109375 
Q 40.53125 6.109375 44.609375 11.75 
Q 48.6875 17.390625 48.6875 27.296875 
z
" id="DejaVuSans-112"/>
      <path d="M 45.40625 46.390625 
L 45.40625 75.984375 
L 54.390625 75.984375 
L 54.390625 0 
L 45.40625 0 
L 45.40625 8.203125 
Q 42.578125 3.328125 38.25 0.953125 
Q 33.9375 -1.421875 27.875 -1.421875 
Q 17.96875 -1.421875 11.734375 6.484375 
Q 5.515625 14.40625 5.515625 27.296875 
Q 5.515625 40.1875 11.734375 48.09375 
Q 17.96875 56 27.875 56 
Q 33.9375 56 38.25 53.625 
Q 42.578125 51.265625 45.40625 46.390625 
z
M 14.796875 27.296875 
Q 14.796875 17.390625 18.875 11.75 
Q 22.953125 6.109375 30.078125 6.109375 
Q 37.203125 6.109375 41.296875 11.75 
Q 45.40625 17.390625 45.40625 27.296875 
Q 45.40625 37.203125 41.296875 42.84375 
Q 37.203125 48.484375 30.078125 48.484375 
Q 22.953125 48.484375 18.875 42.84375 
Q 14.796875 37.203125 14.796875 27.296875 
z
" id="DejaVuSans-100"/>
      <path d="M 56.203125 29.59375 
L 56.203125 25.203125 
L 14.890625 25.203125 
Q 15.484375 15.921875 20.484375 11.0625 
Q 25.484375 6.203125 34.421875 6.203125 
Q 39.59375 6.203125 44.453125 7.46875 
Q 49.3125 8.734375 54.109375 11.28125 
L 54.109375 2.78125 
Q 49.265625 0.734375 44.1875 -0.34375 
Q 39.109375 -1.421875 33.890625 -1.421875 
Q 20.796875 -1.421875 13.15625 6.1875 
Q 5.515625 13.8125 5.515625 26.8125 
Q 5.515625 40.234375 12.765625 48.109375 
Q 20.015625 56 32.328125 56 
Q 43.359375 56 49.78125 48.890625 
Q 56.203125 41.796875 56.203125 29.59375 
z
M 47.21875 32.234375 
Q 47.125 39.59375 43.09375 43.984375 
Q 39.0625 48.390625 32.421875 48.390625 
Q 24.90625 48.390625 20.390625 44.140625 
Q 15.875 39.890625 15.1875 32.171875 
z
" id="DejaVuSans-101"/>
      <path d="M 30.609375 48.390625 
Q 23.390625 48.390625 19.1875 42.75 
Q 14.984375 37.109375 14.984375 27.296875 
Q 14.984375 17.484375 19.15625 11.84375 
Q 23.34375 6.203125 30.609375 6.203125 
Q 37.796875 6.203125 41.984375 11.859375 
Q 46.1875 17.53125 46.1875 27.296875 
Q 46.1875 37.015625 41.984375 42.703125 
Q 37.796875 48.390625 30.609375 48.390625 
z
M 30.609375 56 
Q 42.328125 56 49.015625 48.375 
Q 55.71875 40.765625 55.71875 27.296875 
Q 55.71875 13.875 49.015625 6.21875 
Q 42.328125 -1.421875 30.609375 -1.421875 
Q 18.84375 -1.421875 12.171875 6.21875 
Q 5.515625 13.875 5.515625 27.296875 
Q 5.515625 40.765625 12.171875 48.375 
Q 18.84375 56 30.609375 56 
z
" id="DejaVuSans-111"/>
      <path d="M 54.890625 33.015625 
L 54.890625 0 
L 45.90625 0 
L 45.90625 32.71875 
Q 45.90625 40.484375 42.875 44.328125 
Q 39.84375 48.1875 33.796875 48.1875 
Q 26.515625 48.1875 22.3125 43.546875 
Q 18.109375 38.921875 18.109375 30.90625 
L 18.109375 0 
L 9.078125 0 
L 9.078125 54.6875 
L 18.109375 54.6875 
L 18.109375 46.1875 
Q 21.34375 51.125 25.703125 53.5625 
Q 30.078125 56 35.796875 56 
Q 45.21875 56 50.046875 50.171875 
Q 54.890625 44.34375 54.890625 33.015625 
z
" id="DejaVuSans-110"/>
      <path d="M 40.578125 39.3125 
Q 47.65625 37.796875 51.625 33 
Q 55.609375 28.21875 55.609375 21.1875 
Q 55.609375 10.40625 48.1875 4.484375 
Q 40.765625 -1.421875 27.09375 -1.421875 
Q 22.515625 -1.421875 17.65625 -0.515625 
Q 12.796875 0.390625 7.625 2.203125 
L 7.625 11.71875 
Q 11.71875 9.328125 16.59375 8.109375 
Q 21.484375 6.890625 26.8125 6.890625 
Q 36.078125 6.890625 40.9375 10.546875 
Q 45.796875 14.203125 45.796875 21.1875 
Q 45.796875 27.640625 41.28125 31.265625 
Q 36.765625 34.90625 28.71875 34.90625 
L 20.21875 34.90625 
L 20.21875 43.015625 
L 29.109375 43.015625 
Q 36.375 43.015625 40.234375 45.921875 
Q 44.09375 48.828125 44.09375 54.296875 
Q 44.09375 59.90625 40.109375 62.90625 
Q 36.140625 65.921875 28.71875 65.921875 
Q 24.65625 65.921875 20.015625 65.03125 
Q 15.375 64.15625 9.8125 62.3125 
L 9.8125 71.09375 
Q 15.4375 72.65625 20.34375 73.4375 
Q 25.25 74.21875 29.59375 74.21875 
Q 40.828125 74.21875 47.359375 69.109375 
Q 53.90625 64.015625 53.90625 55.328125 
Q 53.90625 49.265625 50.4375 45.09375 
Q 46.96875 40.921875 40.578125 39.3125 
z
" id="DejaVuSans-51"/>
      <path d="M 31.78125 66.40625 
Q 24.171875 66.40625 20.328125 58.90625 
Q 16.5 51.421875 16.5 36.375 
Q 16.5 21.390625 20.328125 13.890625 
Q 24.171875 6.390625 31.78125 6.390625 
Q 39.453125 6.390625 43.28125 13.890625 
Q 47.125 21.390625 47.125 36.375 
Q 47.125 51.421875 43.28125 58.90625 
Q 39.453125 66.40625 31.78125 66.40625 
z
M 31.78125 74.21875 
Q 44.046875 74.21875 50.515625 64.515625 
Q 56.984375 54.828125 56.984375 36.375 
Q 56.984375 17.96875 50.515625 8.265625 
Q 44.046875 -1.421875 31.78125 -1.421875 
Q 19.53125 -1.421875 13.0625 8.265625 
Q 6.59375 17.96875 6.59375 36.375 
Q 6.59375 54.828125 13.0625 64.515625 
Q 19.53125 74.21875 31.78125 74.21875 
z
" id="DejaVuSans-48"/>
      <path d="M 53.515625 70.515625 
L 53.515625 60.890625 
Q 47.90625 63.578125 42.921875 64.890625 
Q 37.9375 66.21875 33.296875 66.21875 
Q 25.25 66.21875 20.875 63.09375 
Q 16.5 59.96875 16.5 54.203125 
Q 16.5 49.359375 19.40625 46.890625 
Q 22.3125 44.4375 30.421875 42.921875 
L 36.375 41.703125 
Q 47.40625 39.59375 52.65625 34.296875 
Q 57.90625 29 57.90625 20.125 
Q 57.90625 9.515625 50.796875 4.046875 
Q 43.703125 -1.421875 29.984375 -1.421875 
Q 24.8125 -1.421875 18.96875 -0.25 
Q 13.140625 0.921875 6.890625 3.21875 
L 6.890625 13.375 
Q 12.890625 10.015625 18.65625 8.296875 
Q 24.421875 6.59375 29.984375 6.59375 
Q 38.421875 6.59375 43.015625 9.90625 
Q 47.609375 13.234375 47.609375 19.390625 
Q 47.609375 24.75 44.3125 27.78125 
Q 41.015625 30.8125 33.5 32.328125 
L 27.484375 33.5 
Q 16.453125 35.6875 11.515625 40.375 
Q 6.59375 45.0625 6.59375 53.421875 
Q 6.59375 63.09375 13.40625 68.65625 
Q 20.21875 74.21875 32.171875 74.21875 
Q 37.3125 74.21875 42.625 73.28125 
Q 47.953125 72.359375 53.515625 70.515625 
z
" id="DejaVuSans-83"/>
      <path d="M 52 44.1875 
Q 55.375 50.25 60.0625 53.125 
Q 64.75 56 71.09375 56 
Q 79.640625 56 84.28125 50.015625 
Q 88.921875 44.046875 88.921875 33.015625 
L 88.921875 0 
L 79.890625 0 
L 79.890625 32.71875 
Q 79.890625 40.578125 77.09375 44.375 
Q 74.3125 48.1875 68.609375 48.1875 
Q 61.625 48.1875 57.5625 43.546875 
Q 53.515625 38.921875 53.515625 30.90625 
L 53.515625 0 
L 44.484375 0 
L 44.484375 32.71875 
Q 44.484375 40.625 41.703125 44.40625 
Q 38.921875 48.1875 33.109375 48.1875 
Q 26.21875 48.1875 22.15625 43.53125 
Q 18.109375 38.875 18.109375 30.90625 
L 18.109375 0 
L 9.078125 0 
L 9.078125 54.6875 
L 18.109375 54.6875 
L 18.109375 46.1875 
Q 21.1875 51.21875 25.484375 53.609375 
Q 29.78125 56 35.6875 56 
Q 41.65625 56 45.828125 52.96875 
Q 50 49.953125 52 44.1875 
z
" id="DejaVuSans-109"/>
      <path d="M 48.6875 27.296875 
Q 48.6875 37.203125 44.609375 42.84375 
Q 40.53125 48.484375 33.40625 48.484375 
Q 26.265625 48.484375 22.1875 42.84375 
Q 18.109375 37.203125 18.109375 27.296875 
Q 18.109375 17.390625 22.1875 11.75 
Q 26.265625 6.109375 33.40625 6.109375 
Q 40.53125 6.109375 44.609375 11.75 
Q 48.6875 17.390625 48.6875 27.296875 
z
M 18.109375 46.390625 
Q 20.953125 51.265625 25.265625 53.625 
Q 29.59375 56 35.59375 56 
Q 45.5625 56 51.78125 48.09375 
Q 58.015625 40.1875 58.015625 27.296875 
Q 58.015625 14.40625 51.78125 6.484375 
Q 45.5625 -1.421875 35.59375 -1.421875 
Q 29.59375 -1.421875 25.265625 0.953125 
Q 20.953125 3.328125 18.109375 8.203125 
L 18.109375 0 
L 9.078125 0 
L 9.078125 75.984375 
L 18.109375 75.984375 
z
" id="DejaVuSans-98"/>
      <path d="M 41.109375 46.296875 
Q 39.59375 47.171875 37.8125 47.578125 
Q 36.03125 48 33.890625 48 
Q 26.265625 48 22.1875 43.046875 
Q 18.109375 38.09375 18.109375 28.8125 
L 18.109375 0 
L 9.078125 0 
L 9.078125 54.6875 
L 18.109375 54.6875 
L 18.109375 46.1875 
Q 20.953125 51.171875 25.484375 53.578125 
Q 30.03125 56 36.53125 56 
Q 37.453125 56 38.578125 55.875 
Q 39.703125 55.765625 41.0625 55.515625 
z
" id="DejaVuSans-114"/>
      <path d="M 19.1875 8.296875 
L 53.609375 8.296875 
L 53.609375 0 
L 7.328125 0 
L 7.328125 8.296875 
Q 12.9375 14.109375 22.625 23.890625 
Q 32.328125 33.6875 34.8125 36.53125 
Q 39.546875 41.84375 41.421875 45.53125 
Q 43.3125 49.21875 43.3125 52.78125 
Q 43.3125 58.59375 39.234375 62.25 
Q 35.15625 65.921875 28.609375 65.921875 
Q 23.96875 65.921875 18.8125 64.3125 
Q 13.671875 62.703125 7.8125 59.421875 
L 7.8125 69.390625 
Q 13.765625 71.78125 18.9375 73 
Q 24.125 74.21875 28.421875 74.21875 
Q 39.75 74.21875 46.484375 68.546875 
Q 53.21875 62.890625 53.21875 53.421875 
Q 53.21875 48.921875 51.53125 44.890625 
Q 49.859375 40.875 45.40625 35.40625 
Q 44.1875 33.984375 37.640625 27.21875 
Q 31.109375 20.453125 19.1875 8.296875 
z
" id="DejaVuSans-50"/>
      <path d="M 4.203125 54.6875 
L 13.1875 54.6875 
L 24.421875 12.015625 
L 35.59375 54.6875 
L 46.1875 54.6875 
L 57.421875 12.015625 
L 68.609375 54.6875 
L 77.59375 54.6875 
L 63.28125 0 
L 52.6875 0 
L 40.921875 44.828125 
L 29.109375 0 
L 18.5 0 
z
" id="DejaVuSans-119"/>
      <path d="M 9.421875 54.6875 
L 18.40625 54.6875 
L 18.40625 0 
L 9.421875 0 
z
M 9.421875 75.984375 
L 18.40625 75.984375 
L 18.40625 64.59375 
L 9.421875 64.59375 
z
" id="DejaVuSans-105"/>
      <path d="M 54.890625 33.015625 
L 54.890625 0 
L 45.90625 0 
L 45.90625 32.71875 
Q 45.90625 40.484375 42.875 44.328125 
Q 39.84375 48.1875 33.796875 48.1875 
Q 26.515625 48.1875 22.3125 43.546875 
Q 18.109375 38.921875 18.109375 30.90625 
L 18.109375 0 
L 9.078125 0 
L 9.078125 75.984375 
L 18.109375 75.984375 
L 18.109375 46.1875 
Q 21.34375 51.125 25.703125 53.5625 
Q 30.078125 56 35.796875 56 
Q 45.21875 56 50.046875 50.171875 
Q 54.890625 44.34375 54.890625 33.015625 
z
" id="DejaVuSans-104"/>
      <path d="M 10.59375 48.1875 
L 73.1875 48.1875 
L 73.1875 36.71875 
L 10.59375 36.71875 
z
M 10.59375 25.984375 
L 73.1875 25.984375 
L 73.1875 14.40625 
L 10.59375 14.40625 
z
" id="DejaVuSans-Bold-61"/>
      <path d="M 10.203125 18.890625 
L 27.78125 18.890625 
L 27.78125 0 
L 10.203125 0 
z
" id="DejaVuSans-Bold-46"/>
      <path d="M 10.984375 1.515625 
L 10.984375 10.5 
Q 14.703125 8.734375 18.5 7.8125 
Q 22.3125 6.890625 25.984375 6.890625 
Q 35.75 6.890625 40.890625 13.453125 
Q 46.046875 20.015625 46.78125 33.40625 
Q 43.953125 29.203125 39.59375 26.953125 
Q 35.25 24.703125 29.984375 24.703125 
Q 19.046875 24.703125 12.671875 31.3125 
Q 6.296875 37.9375 6.296875 49.421875 
Q 6.296875 60.640625 12.9375 67.421875 
Q 19.578125 74.21875 30.609375 74.21875 
Q 43.265625 74.21875 49.921875 64.515625 
Q 56.59375 54.828125 56.59375 36.375 
Q 56.59375 19.140625 48.40625 8.859375 
Q 40.234375 -1.421875 26.421875 -1.421875 
Q 22.703125 -1.421875 18.890625 -0.6875 
Q 15.09375 0.046875 10.984375 1.515625 
z
M 30.609375 32.421875 
Q 37.25 32.421875 41.125 36.953125 
Q 45.015625 41.5 45.015625 49.421875 
Q 45.015625 57.28125 41.125 61.84375 
Q 37.25 66.40625 30.609375 66.40625 
Q 23.96875 66.40625 20.09375 61.84375 
Q 16.21875 57.28125 16.21875 49.421875 
Q 16.21875 41.5 20.09375 36.953125 
Q 23.96875 32.421875 30.609375 32.421875 
z
" id="DejaVuSans-57"/>
      <path d="M 10.796875 72.90625 
L 49.515625 72.90625 
L 49.515625 64.59375 
L 19.828125 64.59375 
L 19.828125 46.734375 
Q 21.96875 47.46875 24.109375 47.828125 
Q 26.265625 48.1875 28.421875 48.1875 
Q 40.625 48.1875 47.75 41.5 
Q 54.890625 34.8125 54.890625 23.390625 
Q 54.890625 11.625 47.5625 5.09375 
Q 40.234375 -1.421875 26.90625 -1.421875 
Q 22.3125 -1.421875 17.546875 -0.640625 
Q 12.796875 0.140625 7.71875 1.703125 
L 7.71875 11.625 
Q 12.109375 9.234375 16.796875 8.0625 
Q 21.484375 6.890625 26.703125 6.890625 
Q 35.15625 6.890625 40.078125 11.328125 
Q 45.015625 15.765625 45.015625 23.390625 
Q 45.015625 31 40.078125 35.4375 
Q 35.15625 39.890625 26.703125 39.890625 
Q 22.75 39.890625 18.8125 39.015625 
Q 14.890625 38.140625 10.796875 36.28125 
z
" id="DejaVuSans-53"/>
      <path d="M 72.703125 32.078125 
Q 68.453125 32.078125 66.03125 28.46875 
Q 63.625 24.859375 63.625 18.40625 
Q 63.625 12.0625 66.03125 8.421875 
Q 68.453125 4.78125 72.703125 4.78125 
Q 76.859375 4.78125 79.265625 8.421875 
Q 81.6875 12.0625 81.6875 18.40625 
Q 81.6875 24.8125 79.265625 28.4375 
Q 76.859375 32.078125 72.703125 32.078125 
z
M 72.703125 38.28125 
Q 80.421875 38.28125 84.953125 32.90625 
Q 89.5 27.546875 89.5 18.40625 
Q 89.5 9.28125 84.9375 3.921875 
Q 80.375 -1.421875 72.703125 -1.421875 
Q 64.890625 -1.421875 60.34375 3.921875 
Q 55.8125 9.28125 55.8125 18.40625 
Q 55.8125 27.59375 60.375 32.9375 
Q 64.9375 38.28125 72.703125 38.28125 
z
M 22.3125 68.015625 
Q 18.109375 68.015625 15.6875 64.375 
Q 13.28125 60.75 13.28125 54.390625 
Q 13.28125 47.953125 15.671875 44.328125 
Q 18.0625 40.71875 22.3125 40.71875 
Q 26.5625 40.71875 28.96875 44.328125 
Q 31.390625 47.953125 31.390625 54.390625 
Q 31.390625 60.6875 28.953125 64.34375 
Q 26.515625 68.015625 22.3125 68.015625 
z
M 66.40625 74.21875 
L 74.21875 74.21875 
L 28.609375 -1.421875 
L 20.796875 -1.421875 
z
M 22.3125 74.21875 
Q 30.03125 74.21875 34.609375 68.875 
Q 39.203125 63.53125 39.203125 54.390625 
Q 39.203125 45.171875 34.640625 39.84375 
Q 30.078125 34.515625 22.3125 34.515625 
Q 14.546875 34.515625 10.03125 39.859375 
Q 5.515625 45.21875 5.515625 54.390625 
Q 5.515625 63.484375 10.046875 68.84375 
Q 14.59375 74.21875 22.3125 74.21875 
z
" id="DejaVuSans-37"/>
      <path d="M 48.78125 52.59375 
L 48.78125 44.1875 
Q 44.96875 46.296875 41.140625 47.34375 
Q 37.3125 48.390625 33.40625 48.390625 
Q 24.65625 48.390625 19.8125 42.84375 
Q 14.984375 37.3125 14.984375 27.296875 
Q 14.984375 17.28125 19.8125 11.734375 
Q 24.65625 6.203125 33.40625 6.203125 
Q 37.3125 6.203125 41.140625 7.25 
Q 44.96875 8.296875 48.78125 10.40625 
L 48.78125 2.09375 
Q 45.015625 0.34375 40.984375 -0.53125 
Q 36.96875 -1.421875 32.421875 -1.421875 
Q 20.0625 -1.421875 12.78125 6.34375 
Q 5.515625 14.109375 5.515625 27.296875 
Q 5.515625 40.671875 12.859375 48.328125 
Q 20.21875 56 33.015625 56 
Q 37.15625 56 41.109375 55.140625 
Q 45.0625 54.296875 48.78125 52.59375 
z
" id="DejaVuSans-99"/>
      <path d="M 37.109375 75.984375 
L 37.109375 68.5 
L 28.515625 68.5 
Q 23.6875 68.5 21.796875 66.546875 
Q 19.921875 64.59375 19.921875 59.515625 
L 19.921875 54.6875 
L 34.71875 54.6875 
L 34.71875 47.703125 
L 19.921875 47.703125 
L 19.921875 0 
L 10.890625 0 
L 10.890625 47.703125 
L 2.296875 47.703125 
L 2.296875 54.6875 
L 10.890625 54.6875 
L 10.890625 58.5 
Q 10.890625 67.625 15.140625 71.796875 
Q 19.390625 75.984375 28.609375 75.984375 
z
" id="DejaVuSans-102"/>
      <path d="M 45.40625 27.984375 
Q 45.40625 37.75 41.375 43.109375 
Q 37.359375 48.484375 30.078125 48.484375 
Q 22.859375 48.484375 18.828125 43.109375 
Q 14.796875 37.75 14.796875 27.984375 
Q 14.796875 18.265625 18.828125 12.890625 
Q 22.859375 7.515625 30.078125 7.515625 
Q 37.359375 7.515625 41.375 12.890625 
Q 45.40625 18.265625 45.40625 27.984375 
z
M 54.390625 6.78125 
Q 54.390625 -7.171875 48.1875 -13.984375 
Q 42 -20.796875 29.203125 -20.796875 
Q 24.46875 -20.796875 20.265625 -20.09375 
Q 16.0625 -19.390625 12.109375 -17.921875 
L 12.109375 -9.1875 
Q 16.0625 -11.328125 19.921875 -12.34375 
Q 23.78125 -13.375 27.78125 -13.375 
Q 36.625 -13.375 41.015625 -8.765625 
Q 45.40625 -4.15625 45.40625 5.171875 
L 45.40625 9.625 
Q 42.625 4.78125 38.28125 2.390625 
Q 33.9375 0 27.875 0 
Q 17.828125 0 11.671875 7.65625 
Q 5.515625 15.328125 5.515625 27.984375 
Q 5.515625 40.671875 11.671875 48.328125 
Q 17.828125 56 27.875 56 
Q 33.9375 56 38.28125 53.609375 
Q 42.625 51.21875 45.40625 46.390625 
L 45.40625 54.6875 
L 54.390625 54.6875 
z
" id="DejaVuSans-103"/>
      <path d="M 10.59375 37.109375 
L 73.1875 37.109375 
L 73.1875 25.59375 
L 10.59375 25.59375 
z
" id="DejaVuSans-Bold-8722"/>
      <path d="M 6.6875 72.90625 
L 61.625 72.90625 
L 61.625 62.3125 
L 33.203125 0 
L 14.890625 0 
L 41.796875 59.078125 
L 6.6875 59.078125 
z
" id="DejaVuSans-Bold-55"/>
     </defs>
     <use transform="translate(0 0.015625)" xlink:href="#DejaVuSans-76"/>
     <use transform="translate(55.712891 0.015625)" xlink:href="#DejaVuSans-97"/>
     <use transform="translate(116.992188 0.015625)" xlink:href="#DejaVuSans-115"/>
     <use transform="translate(169.091797 0.015625)" xlink:href="#DejaVuSans-116"/>
     <use transform="translate(208.300781 0.015625)" xlink:href="#DejaVuSans-32"/>
     <use transform="translate(240.087891 0.015625)" xlink:href="#DejaVuSans-117"/>
     <use transform="translate(303.466797 0.015625)" xlink:href="#DejaVuSans-112"/>
     <use transform="translate(366.943359 0.015625)" xlink:href="#DejaVuSans-100"/>
     <use transform="translate(430.419922 0.015625)" xlink:href="#DejaVuSans-97"/>
     <use transform="translate(491.699219 0.015625)" xlink:href="#DejaVuSans-116"/>
     <use transform="translate(530.908203 0.015625)" xlink:href="#DejaVuSans-101"/>
     <use transform="translate(592.431641 0.015625)" xlink:href="#DejaVuSans-100"/>
     <use transform="translate(655.908203 0.015625)" xlink:href="#DejaVuSans-32"/>
     <use transform="translate(687.695312 0.015625)" xlink:href="#DejaVuSans-111"/>
     <use transform="translate(748.876953 0.015625)" xlink:href="#DejaVuSans-110"/>
     <use transform="translate(812.255859 0.015625)" xlink:href="#DejaVuSans-32"/>
     <use transform="translate(844.042969 0.015625)" xlink:href="#DejaVuSans-51"/>
     <use transform="translate(907.666016 0.015625)" xlink:href="#DejaVuSans-48"/>
     <use transform="translate(971.289062 0.015625)" xlink:href="#DejaVuSans-32"/>
     <use transform="translate(1003.076172 0.015625)" xlink:href="#DejaVuSans-83"/>
     <use transform="translate(1066.552734 0.015625)" xlink:href="#DejaVuSans-101"/>
     <use transform="translate(1128.076172 0.015625)" xlink:href="#DejaVuSans-112"/>
     <use transform="translate(1191.552734 0.015625)" xlink:href="#DejaVuSans-116"/>
     <use transform="translate(1230.761719 0.015625)" xlink:href="#DejaVuSans-101"/>
     <use transform="translate(1292.285156 0.015625)" xlink:href="#DejaVuSans-109"/>
     <use transform="translate(1389.697266 0.015625)" xlink:href="#DejaVuSans-98"/>
     <use transform="translate(1453.173828 0.015625)" xlink:href="#DejaVuSans-101"/>
     <use transform="translate(1514.697266 0.015625)" xlink:href="#DejaVuSans-114"/>
     <use transform="translate(1555.810547 0.015625)" xlink:href="#DejaVuSans-32"/>
     <use transform="translate(1587.597656 0.015625)" xlink:href="#DejaVuSans-50"/>
     <use transform="translate(1651.220703 0.015625)" xlink:href="#DejaVuSans-48"/>
     <use transform="translate(1714.84375 0.015625)" xlink:href="#DejaVuSans-50"/>
     <use transform="translate(1778.466797 0.015625)" xlink:href="#DejaVuSans-48"/>
     <use transform="translate(1842.089844 0.015625)" xlink:href="#DejaVuSans-32"/>
     <use transform="translate(1873.876953 0.015625)" xlink:href="#DejaVuSans-119"/>
     <use transform="translate(1955.664062 0.015625)" xlink:href="#DejaVuSans-105"/>
     <use transform="translate(1983.447266 0.015625)" xlink:href="#DejaVuSans-116"/>
     <use transform="translate(2022.65625 0.015625)" xlink:href="#DejaVuSans-104"/>
     <use transform="translate(2086.035156 0.015625)" xlink:href="#DejaVuSans-32"/>
     <use transform="translate(2117.822266 0.015625)" xlink:href="#DejaVuSans-BoldOblique-82"/>
     <use transform="translate(2194.824219 -16.390625)scale(0.7)" xlink:href="#DejaVuSans-BoldOblique-116"/>
     <use transform="translate(2251.860352 0.015625)" xlink:href="#DejaVuSans-Bold-61"/>
     <use transform="translate(2356.489258 0.015625)" xlink:href="#DejaVuSans-Bold-49"/>
     <use transform="translate(2426.069336 0.015625)" xlink:href="#DejaVuSans-Bold-46"/>
     <use transform="translate(2459.557617 0.015625)" xlink:href="#DejaVuSans-Bold-50"/>
     <use transform="translate(2529.137695 0.015625)" xlink:href="#DejaVuSans-32"/>
     <use transform="translate(2560.924805 0.015625)" xlink:href="#DejaVuSans-97"/>
     <use transform="translate(2622.204102 0.015625)" xlink:href="#DejaVuSans-110"/>
     <use transform="translate(2685.583008 0.015625)" xlink:href="#DejaVuSans-100"/>
     <use transform="translate(2749.05957 0.015625)" xlink:href="#DejaVuSans-32"/>
     <use transform="translate(2780.84668 0.015625)" xlink:href="#DejaVuSans-57"/>
     <use transform="translate(2844.469727 0.015625)" xlink:href="#DejaVuSans-53"/>
     <use transform="translate(2908.092773 0.015625)" xlink:href="#DejaVuSans-37"/>
     <use transform="translate(3003.112305 0.015625)" xlink:href="#DejaVuSans-32"/>
     <use transform="translate(3034.899414 0.015625)" xlink:href="#DejaVuSans-99"/>
     <use transform="translate(3089.879883 0.015625)" xlink:href="#DejaVuSans-111"/>
     <use transform="translate(3151.061523 0.015625)" xlink:href="#DejaVuSans-110"/>
     <use transform="translate(3214.44043 0.015625)" xlink:href="#DejaVuSans-102"/>
     <use transform="translate(3249.645508 0.015625)" xlink:href="#DejaVuSans-105"/>
     <use transform="translate(3277.428711 0.015625)" xlink:href="#DejaVuSans-100"/>
     <use transform="translate(3340.905273 0.015625)" xlink:href="#DejaVuSans-101"/>
     <use transform="translate(3402.428711 0.015625)" xlink:href="#DejaVuSans-110"/>
     <use transform="translate(3465.807617 0.015625)" xlink:href="#DejaVuSans-99"/>
     <use transform="translate(3520.788086 0.015625)" xlink:href="#DejaVuSans-101"/>
     <use transform="translate(3582.311523 0.015625)" xlink:href="#DejaVuSans-32"/>
     <use transform="translate(3614.098633 0.015625)" xlink:href="#DejaVuSans-105"/>
     <use transform="translate(3641.881836 0.015625)" xlink:href="#DejaVuSans-110"/>
     <use transform="translate(3705.260742 0.015625)" xlink:href="#DejaVuSans-32"/>
     <use transform="translate(3737.047852 0.015625)" xlink:href="#DejaVuSans-114"/>
     <use transform="translate(3778.161133 0.015625)" xlink:href="#DejaVuSans-97"/>
     <use transform="translate(3839.44043 0.015625)" xlink:href="#DejaVuSans-110"/>
     <use transform="translate(3902.819336 0.015625)" xlink:href="#DejaVuSans-103"/>
     <use transform="translate(3966.295898 0.015625)" xlink:href="#DejaVuSans-101"/>
     <use transform="translate(4027.819336 0.015625)" xlink:href="#DejaVuSans-32"/>
     <use transform="translate(4059.606445 0.015625)" xlink:href="#DejaVuSans-Bold-49"/>
     <use transform="translate(4129.186523 0.015625)" xlink:href="#DejaVuSans-Bold-46"/>
     <use transform="translate(4167.174805 0.015625)" xlink:href="#DejaVuSans-Bold-48"/>
     <use transform="translate(4257.594727 0.015625)" xlink:href="#DejaVuSans-Bold-8722"/>
     <use transform="translate(4362.223633 0.015625)" xlink:href="#DejaVuSans-Bold-49"/>
     <use transform="translate(4431.803711 0.015625)" xlink:href="#DejaVuSans-Bold-46"/>
     <use transform="translate(4469.791992 0.015625)" xlink:href="#DejaVuSans-Bold-51"/>
     <use transform="translate(4539.37207 0.015625)" xlink:href="#DejaVuSans-Bold-55"/>
    </g>
   </g>
   <g id="legend_1">
    <g id="line2d_13">
     <path d="M 952.2 60.12 
L 984.2 60.12 
" style="fill:none;stroke:#000000;stroke-linecap:square;"/>
    </g>
    <g id="line2d_14">
     <g>
      <use style="fill:#ffffff;stroke:#000000;" x="968.2" xlink:href="#m15e38d015d" y="60.12"/>
     </g>
    </g>
    <g id="text_13">
     <!-- Most Likely $R_t$ -->
     <g style="fill:#555555;" transform="translate(997 65.72)scale(0.16 -0.16)">
      <defs>
       <path d="M 34.421875 43.5 
Q 28.609375 43.5 25.5625 39.328125 
Q 22.515625 35.15625 22.515625 27.296875 
Q 22.515625 19.4375 25.5625 15.25 
Q 28.609375 11.078125 34.421875 11.078125 
Q 40.140625 11.078125 43.15625 15.25 
Q 46.1875 19.4375 46.1875 27.296875 
Q 46.1875 35.15625 43.15625 39.328125 
Q 40.140625 43.5 34.421875 43.5 
z
M 34.421875 56 
Q 48.53125 56 56.46875 48.375 
Q 64.40625 40.765625 64.40625 27.296875 
Q 64.40625 13.8125 56.46875 6.1875 
Q 48.53125 -1.421875 34.421875 -1.421875 
Q 20.265625 -1.421875 12.28125 6.1875 
Q 4.296875 13.8125 4.296875 27.296875 
Q 4.296875 40.765625 12.28125 48.375 
Q 20.265625 56 34.421875 56 
z
" id="DejaVuSans-Bold-111"/>
       <path id="DejaVuSans-Bold-32"/>
       <path d="M 9.1875 72.90625 
L 27.984375 72.90625 
L 27.984375 14.203125 
L 60.984375 14.203125 
L 60.984375 0 
L 9.1875 0 
z
" id="DejaVuSans-Bold-76"/>
       <path d="M 8.40625 75.984375 
L 25.875 75.984375 
L 25.875 34.625 
L 46 54.6875 
L 66.3125 54.6875 
L 39.59375 29.59375 
L 68.40625 0 
L 47.21875 0 
L 25.875 22.796875 
L 25.875 0 
L 8.40625 0 
z
" id="DejaVuSans-Bold-107"/>
      </defs>
      <use transform="translate(0 0.015625)" xlink:href="#DejaVuSans-Bold-77"/>
      <use transform="translate(99.511719 0.015625)" xlink:href="#DejaVuSans-Bold-111"/>
      <use transform="translate(168.212891 0.015625)" xlink:href="#DejaVuSans-Bold-115"/>
      <use transform="translate(227.734375 0.015625)" xlink:href="#DejaVuSans-Bold-116"/>
      <use transform="translate(275.537109 0.015625)" xlink:href="#DejaVuSans-Bold-32"/>
      <use transform="translate(310.351562 0.015625)" xlink:href="#DejaVuSans-Bold-76"/>
      <use transform="translate(374.072266 0.015625)" xlink:href="#DejaVuSans-Bold-105"/>
      <use transform="translate(408.349609 0.015625)" xlink:href="#DejaVuSans-Bold-107"/>
      <use transform="translate(474.853516 0.015625)" xlink:href="#DejaVuSans-Bold-101"/>
      <use transform="translate(542.675781 0.015625)" xlink:href="#DejaVuSans-Bold-108"/>
      <use transform="translate(576.953125 0.015625)" xlink:href="#DejaVuSans-Bold-121"/>
      <use transform="translate(642.138672 0.015625)" xlink:href="#DejaVuSans-Bold-32"/>
      <use transform="translate(676.953125 0.015625)" xlink:href="#DejaVuSans-BoldOblique-82"/>
      <use transform="translate(753.955078 -16.390625)scale(0.7)" xlink:href="#DejaVuSans-BoldOblique-116"/>
     </g>
    </g>
    <g id="patch_5">
     <path d="M 952.2 89.3975 
L 984.2 89.3975 
L 984.2 78.1975 
L 952.2 78.1975 
z
" style="fill:#e6e6e6;stroke:#e6e6e6;stroke-linejoin:miter;"/>
    </g>
    <g id="text_14">
     <!-- 95% CI -->
     <g style="fill:#555555;" transform="translate(997 89.3975)scale(0.16 -0.16)">
      <defs>
       <path d="M 10.015625 1.609375 
L 10.015625 15.09375 
Q 14.5 12.984375 18.59375 11.9375 
Q 22.703125 10.890625 26.703125 10.890625 
Q 35.109375 10.890625 39.796875 15.546875 
Q 44.484375 20.21875 45.3125 29.390625 
Q 42 26.953125 38.234375 25.734375 
Q 34.46875 24.515625 30.078125 24.515625 
Q 18.890625 24.515625 12.03125 31.03125 
Q 5.171875 37.546875 5.171875 48.1875 
Q 5.171875 59.96875 12.8125 67.046875 
Q 20.453125 74.125 33.296875 74.125 
Q 47.5625 74.125 55.375 64.5 
Q 63.1875 54.890625 63.1875 37.3125 
Q 63.1875 19.234375 54.046875 8.90625 
Q 44.921875 -1.421875 29 -1.421875 
Q 23.875 -1.421875 19.1875 -0.65625 
Q 14.5 0.09375 10.015625 1.609375 
z
M 33.203125 36.71875 
Q 38.140625 36.71875 40.625 39.90625 
Q 43.109375 43.109375 43.109375 49.515625 
Q 43.109375 55.859375 40.625 59.078125 
Q 38.140625 62.3125 33.203125 62.3125 
Q 28.265625 62.3125 25.78125 59.078125 
Q 23.296875 55.859375 23.296875 49.515625 
Q 23.296875 43.109375 25.78125 39.90625 
Q 28.265625 36.71875 33.203125 36.71875 
z
" id="DejaVuSans-Bold-57"/>
       <path d="M 10.59375 72.90625 
L 57.328125 72.90625 
L 57.328125 59.078125 
L 25.59375 59.078125 
L 25.59375 47.796875 
Q 27.734375 48.390625 29.90625 48.703125 
Q 32.078125 49.03125 34.421875 49.03125 
Q 47.75 49.03125 55.171875 42.359375 
Q 62.59375 35.6875 62.59375 23.78125 
Q 62.59375 11.96875 54.515625 5.265625 
Q 46.4375 -1.421875 32.078125 -1.421875 
Q 25.875 -1.421875 19.796875 -0.21875 
Q 13.71875 0.984375 7.71875 3.421875 
L 7.71875 18.21875 
Q 13.671875 14.796875 19.015625 13.078125 
Q 24.359375 11.375 29.109375 11.375 
Q 35.9375 11.375 39.859375 14.71875 
Q 43.796875 18.0625 43.796875 23.78125 
Q 43.796875 29.546875 39.859375 32.859375 
Q 35.9375 36.1875 29.109375 36.1875 
Q 25.046875 36.1875 20.453125 35.125 
Q 15.875 34.078125 10.59375 31.890625 
z
" id="DejaVuSans-Bold-53"/>
       <path d="M 77.484375 30.078125 
Q 74.03125 30.078125 72.125 27.078125 
Q 70.21875 24.078125 70.21875 18.5 
Q 70.21875 12.890625 72.09375 9.890625 
Q 73.96875 6.890625 77.484375 6.890625 
Q 81 6.890625 82.859375 9.890625 
Q 84.71875 12.890625 84.71875 18.5 
Q 84.71875 24.078125 82.828125 27.078125 
Q 80.953125 30.078125 77.484375 30.078125 
z
M 77.484375 38.28125 
Q 86.578125 38.28125 91.796875 33 
Q 97.015625 27.734375 97.015625 18.5 
Q 97.015625 9.28125 91.796875 3.921875 
Q 86.578125 -1.421875 77.484375 -1.421875 
Q 68.40625 -1.421875 63.15625 3.921875 
Q 57.90625 9.28125 57.90625 18.5 
Q 57.90625 27.6875 63.15625 32.984375 
Q 68.40625 38.28125 77.484375 38.28125 
z
M 32.71875 -1.421875 
L 21.921875 -1.421875 
L 67.484375 74.21875 
L 78.328125 74.21875 
z
M 22.703125 74.21875 
Q 31.78125 74.21875 36.984375 68.921875 
Q 42.1875 63.625 42.1875 54.390625 
Q 42.1875 45.171875 36.984375 39.84375 
Q 31.78125 34.515625 22.703125 34.515625 
Q 13.625 34.515625 8.421875 39.84375 
Q 3.21875 45.171875 3.21875 54.390625 
Q 3.21875 63.625 8.421875 68.921875 
Q 13.625 74.21875 22.703125 74.21875 
z
M 22.703125 66.015625 
Q 19.1875 66.015625 17.28125 62.984375 
Q 15.375 59.96875 15.375 54.390625 
Q 15.375 48.78125 17.28125 45.71875 
Q 19.1875 42.671875 22.703125 42.671875 
Q 26.21875 42.671875 28.09375 45.71875 
Q 29.984375 48.78125 29.984375 54.390625 
Q 29.984375 59.96875 28.078125 62.984375 
Q 26.171875 66.015625 22.703125 66.015625 
z
" id="DejaVuSans-Bold-37"/>
       <path d="M 67 4 
Q 61.8125 1.3125 56.203125 -0.046875 
Q 50.59375 -1.421875 44.484375 -1.421875 
Q 26.265625 -1.421875 15.625 8.765625 
Q 4.984375 18.953125 4.984375 36.375 
Q 4.984375 53.859375 15.625 64.03125 
Q 26.265625 74.21875 44.484375 74.21875 
Q 50.59375 74.21875 56.203125 72.84375 
Q 61.8125 71.484375 67 68.796875 
L 67 53.71875 
Q 61.765625 57.28125 56.6875 58.9375 
Q 51.609375 60.59375 46 60.59375 
Q 35.9375 60.59375 30.171875 54.140625 
Q 24.421875 47.703125 24.421875 36.375 
Q 24.421875 25.09375 30.171875 18.640625 
Q 35.9375 12.203125 46 12.203125 
Q 51.609375 12.203125 56.6875 13.859375 
Q 61.765625 15.53125 67 19.09375 
z
" id="DejaVuSans-Bold-67"/>
       <path d="M 9.1875 72.90625 
L 27.984375 72.90625 
L 27.984375 0 
L 9.1875 0 
z
" id="DejaVuSans-Bold-73"/>
      </defs>
      <use xlink:href="#DejaVuSans-Bold-57"/>
      <use x="69.580078" xlink:href="#DejaVuSans-Bold-53"/>
      <use x="139.160156" xlink:href="#DejaVuSans-Bold-37"/>
      <use x="239.355469" xlink:href="#DejaVuSans-Bold-32"/>
      <use x="274.169922" xlink:href="#DejaVuSans-Bold-67"/>
      <use x="347.558594" xlink:href="#DejaVuSans-Bold-73"/>
     </g>
    </g>
    <g id="patch_6">
     <path d="M 952.2 112.8825 
L 984.2 112.8825 
L 984.2 101.6825 
L 952.2 101.6825 
z
" style="fill:#c8c8c8;stroke:#c8c8c8;stroke-linejoin:miter;"/>
    </g>
    <g id="text_15">
     <!-- 65% CI -->
     <g style="fill:#555555;" transform="translate(997 112.8825)scale(0.16 -0.16)">
      <defs>
       <path d="M 36.1875 35.984375 
Q 31.25 35.984375 28.78125 32.78125 
Q 26.3125 29.59375 26.3125 23.1875 
Q 26.3125 16.796875 28.78125 13.59375 
Q 31.25 10.40625 36.1875 10.40625 
Q 41.15625 10.40625 43.625 13.59375 
Q 46.09375 16.796875 46.09375 23.1875 
Q 46.09375 29.59375 43.625 32.78125 
Q 41.15625 35.984375 36.1875 35.984375 
z
M 59.421875 71 
L 59.421875 57.515625 
Q 54.78125 59.71875 50.671875 60.765625 
Q 46.578125 61.8125 42.671875 61.8125 
Q 34.28125 61.8125 29.59375 57.140625 
Q 24.90625 52.484375 24.125 43.3125 
Q 27.34375 45.703125 31.09375 46.890625 
Q 34.859375 48.09375 39.3125 48.09375 
Q 50.484375 48.09375 57.34375 41.546875 
Q 64.203125 35.015625 64.203125 24.421875 
Q 64.203125 12.703125 56.53125 5.640625 
Q 48.875 -1.421875 35.984375 -1.421875 
Q 21.78125 -1.421875 13.984375 8.171875 
Q 6.203125 17.78125 6.203125 35.40625 
Q 6.203125 53.46875 15.3125 63.796875 
Q 24.421875 74.125 40.28125 74.125 
Q 45.3125 74.125 50.046875 73.34375 
Q 54.78125 72.5625 59.421875 71 
z
" id="DejaVuSans-Bold-54"/>
      </defs>
      <use xlink:href="#DejaVuSans-Bold-54"/>
      <use x="69.580078" xlink:href="#DejaVuSans-Bold-53"/>
      <use x="139.160156" xlink:href="#DejaVuSans-Bold-37"/>
      <use x="239.355469" xlink:href="#DejaVuSans-Bold-32"/>
      <use x="274.169922" xlink:href="#DejaVuSans-Bold-67"/>
      <use x="347.558594" xlink:href="#DejaVuSans-Bold-73"/>
     </g>
    </g>
   </g>
  </g>
 </g>
 <defs>
  <clipPath id="p9dcdf23596">
   <rect height="502.12" width="1086.118" x="51.842" y="39.16"/>
  </clipPath>
 </defs>
</svg>
