<?xml version="1.0" encoding="utf-8" standalone="no"?>
<!DOCTYPE svg PUBLIC "-//W3C//DTD SVG 1.1//EN"
  "http://www.w3.org/Graphics/SVG/1.1/DTD/svg11.dtd">
<!-- Created with matplotlib (https://matplotlib.org/) -->
<svg height="576pt" version="1.1" viewBox="0 0 1152 576" width="1152pt" xmlns="http://www.w3.org/2000/svg" xmlns:xlink="http://www.w3.org/1999/xlink">
 <metadata>
  <rdf:RDF xmlns:cc="http://creativecommons.org/ns#" xmlns:dc="http://purl.org/dc/elements/1.1/" xmlns:rdf="http://www.w3.org/1999/02/22-rdf-syntax-ns#">
   <cc:Work>
    <dc:type rdf:resource="http://purl.org/dc/dcmitype/StillImage"/>
    <dc:date>2020-10-29T17:17:18.106531</dc:date>
    <dc:format>image/svg+xml</dc:format>
    <dc:creator>
     <cc:Agent>
      <dc:title>Matplotlib v3.3.2, https://matplotlib.org/</dc:title>
     </cc:Agent>
    </dc:creator>
   </cc:Work>
  </rdf:RDF>
 </metadata>
 <defs>
  <style type="text/css">*{stroke-linecap:butt;stroke-linejoin:round;}</style>
 </defs>
 <g id="figure_1">
  <g id="patch_1">
   <path d="M 0 576 
L 1152 576 
L 1152 0 
L 0 0 
z
" style="fill:#ffffff;"/>
  </g>
  <g id="axes_1">
   <g id="patch_2">
    <path d="M 87.77 541.28 
L 1137.96 541.28 
L 1137.96 37.72 
L 87.77 37.72 
z
" style="fill:#ffffff;"/>
   </g>
   <g id="matplotlib.axis_1">
    <g id="xtick_1">
     <g id="line2d_1">
      <defs>
       <path d="M 0 0 
L 0 3.5 
" id="m0993116056" style="stroke:#555555;stroke-width:0.8;"/>
      </defs>
      <g>
       <use style="fill:#555555;stroke:#555555;stroke-width:0.8;" x="206.909202" xlink:href="#m0993116056" y="541.28"/>
      </g>
     </g>
     <g id="text_1">
      <!-- April -->
      <g style="fill:#555555;" transform="translate(188.230139 558.917812)scale(0.14 -0.14)">
       <defs>
        <path d="M 53.421875 13.28125 
L 24.03125 13.28125 
L 19.390625 0 
L 0.484375 0 
L 27.484375 72.90625 
L 49.90625 72.90625 
L 76.90625 0 
L 58.015625 0 
z
M 28.71875 26.8125 
L 48.6875 26.8125 
L 38.71875 55.8125 
z
" id="DejaVuSans-Bold-65"/>
        <path d="M 25.875 7.90625 
L 25.875 -20.796875 
L 8.40625 -20.796875 
L 8.40625 54.6875 
L 25.875 54.6875 
L 25.875 46.6875 
Q 29.5 51.46875 33.890625 53.734375 
Q 38.28125 56 44 56 
Q 54.109375 56 60.59375 47.96875 
Q 67.09375 39.9375 67.09375 27.296875 
Q 67.09375 14.65625 60.59375 6.609375 
Q 54.109375 -1.421875 44 -1.421875 
Q 38.28125 -1.421875 33.890625 0.84375 
Q 29.5 3.125 25.875 7.90625 
z
M 37.5 43.3125 
Q 31.890625 43.3125 28.875 39.1875 
Q 25.875 35.0625 25.875 27.296875 
Q 25.875 19.53125 28.875 15.40625 
Q 31.890625 11.28125 37.5 11.28125 
Q 43.109375 11.28125 46.0625 15.375 
Q 49.03125 19.484375 49.03125 27.296875 
Q 49.03125 35.109375 46.0625 39.203125 
Q 43.109375 43.3125 37.5 43.3125 
z
" id="DejaVuSans-Bold-112"/>
        <path d="M 49.03125 39.796875 
Q 46.734375 40.875 44.453125 41.375 
Q 42.1875 41.890625 39.890625 41.890625 
Q 33.15625 41.890625 29.515625 37.5625 
Q 25.875 33.25 25.875 25.203125 
L 25.875 0 
L 8.40625 0 
L 8.40625 54.6875 
L 25.875 54.6875 
L 25.875 45.703125 
Q 29.25 51.078125 33.609375 53.53125 
Q 37.984375 56 44.09375 56 
Q 44.96875 56 45.984375 55.921875 
Q 47.015625 55.859375 48.96875 55.609375 
z
" id="DejaVuSans-Bold-114"/>
        <path d="M 8.40625 54.6875 
L 25.875 54.6875 
L 25.875 0 
L 8.40625 0 
z
M 8.40625 75.984375 
L 25.875 75.984375 
L 25.875 61.71875 
L 8.40625 61.71875 
z
" id="DejaVuSans-Bold-105"/>
        <path d="M 8.40625 75.984375 
L 25.875 75.984375 
L 25.875 0 
L 8.40625 0 
z
" id="DejaVuSans-Bold-108"/>
       </defs>
       <use xlink:href="#DejaVuSans-Bold-65"/>
       <use x="77.392578" xlink:href="#DejaVuSans-Bold-112"/>
       <use x="148.974609" xlink:href="#DejaVuSans-Bold-114"/>
       <use x="198.291016" xlink:href="#DejaVuSans-Bold-105"/>
       <use x="232.568359" xlink:href="#DejaVuSans-Bold-108"/>
      </g>
     </g>
    </g>
    <g id="xtick_2">
     <g id="line2d_2">
      <g>
       <use style="fill:#555555;stroke:#555555;stroke-width:0.8;" x="339.286092" xlink:href="#m0993116056" y="541.28"/>
      </g>
     </g>
     <g id="text_2">
      <!-- May -->
      <g style="fill:#555555;" transform="translate(323.251717 558.808437)scale(0.14 -0.14)">
       <defs>
        <path d="M 9.1875 72.90625 
L 33.109375 72.90625 
L 49.703125 33.890625 
L 66.40625 72.90625 
L 90.28125 72.90625 
L 90.28125 0 
L 72.515625 0 
L 72.515625 53.328125 
L 55.71875 14.015625 
L 43.796875 14.015625 
L 27 53.328125 
L 27 0 
L 9.1875 0 
z
" id="DejaVuSans-Bold-77"/>
        <path d="M 32.90625 24.609375 
Q 27.4375 24.609375 24.671875 22.75 
Q 21.921875 20.90625 21.921875 17.28125 
Q 21.921875 13.96875 24.140625 12.078125 
Q 26.375 10.203125 30.328125 10.203125 
Q 35.25 10.203125 38.625 13.734375 
Q 42 17.28125 42 22.609375 
L 42 24.609375 
z
M 59.625 31.203125 
L 59.625 0 
L 42 0 
L 42 8.109375 
Q 38.484375 3.125 34.078125 0.84375 
Q 29.6875 -1.421875 23.390625 -1.421875 
Q 14.890625 -1.421875 9.59375 3.53125 
Q 4.296875 8.5 4.296875 16.40625 
Q 4.296875 26.03125 10.90625 30.515625 
Q 17.53125 35.015625 31.6875 35.015625 
L 42 35.015625 
L 42 36.375 
Q 42 40.53125 38.71875 42.453125 
Q 35.453125 44.390625 28.515625 44.390625 
Q 22.90625 44.390625 18.0625 43.265625 
Q 13.234375 42.140625 9.078125 39.890625 
L 9.078125 53.21875 
Q 14.703125 54.59375 20.359375 55.296875 
Q 26.03125 56 31.6875 56 
Q 46.484375 56 53.046875 50.171875 
Q 59.625 44.34375 59.625 31.203125 
z
" id="DejaVuSans-Bold-97"/>
        <path d="M 1.21875 54.6875 
L 18.703125 54.6875 
L 33.40625 17.578125 
L 45.90625 54.6875 
L 63.375 54.6875 
L 40.375 -5.171875 
Q 36.921875 -14.3125 32.296875 -17.9375 
Q 27.6875 -21.578125 20.125 -21.578125 
L 10.015625 -21.578125 
L 10.015625 -10.109375 
L 15.484375 -10.109375 
Q 19.921875 -10.109375 21.9375 -8.6875 
Q 23.96875 -7.28125 25.09375 -3.609375 
L 25.59375 -2.09375 
z
" id="DejaVuSans-Bold-121"/>
       </defs>
       <use xlink:href="#DejaVuSans-Bold-77"/>
       <use x="99.511719" xlink:href="#DejaVuSans-Bold-97"/>
       <use x="163.867188" xlink:href="#DejaVuSans-Bold-121"/>
      </g>
     </g>
    </g>
    <g id="xtick_3">
     <g id="line2d_3">
      <g>
       <use style="fill:#555555;stroke:#555555;stroke-width:0.8;" x="476.075546" xlink:href="#m0993116056" y="541.28"/>
      </g>
     </g>
     <g id="text_3">
      <!-- June -->
      <g style="fill:#555555;" transform="translate(458.757109 558.917812)scale(0.14 -0.14)">
       <defs>
        <path d="M 9.1875 72.90625 
L 27.984375 72.90625 
L 27.984375 7.078125 
Q 27.984375 -6.546875 20.578125 -13.28125 
Q 13.1875 -20.015625 -1.8125 -20.015625 
L -5.609375 -20.015625 
L -5.609375 -5.8125 
L -2.6875 -5.8125 
Q 3.171875 -5.8125 6.171875 -2.53125 
Q 9.1875 0.734375 9.1875 7.078125 
z
" id="DejaVuSans-Bold-74"/>
        <path d="M 7.8125 21.296875 
L 7.8125 54.6875 
L 25.390625 54.6875 
L 25.390625 49.21875 
Q 25.390625 44.78125 25.34375 38.0625 
Q 25.296875 31.34375 25.296875 29.109375 
Q 25.296875 22.515625 25.640625 19.609375 
Q 25.984375 16.703125 26.8125 15.375 
Q 27.875 13.671875 29.609375 12.734375 
Q 31.34375 11.8125 33.59375 11.8125 
Q 39.0625 11.8125 42.1875 16.015625 
Q 45.3125 20.21875 45.3125 27.6875 
L 45.3125 54.6875 
L 62.796875 54.6875 
L 62.796875 0 
L 45.3125 0 
L 45.3125 7.90625 
Q 41.359375 3.125 36.9375 0.84375 
Q 32.515625 -1.421875 27.203125 -1.421875 
Q 17.71875 -1.421875 12.765625 4.390625 
Q 7.8125 10.203125 7.8125 21.296875 
z
" id="DejaVuSans-Bold-117"/>
        <path d="M 63.375 33.296875 
L 63.375 0 
L 45.796875 0 
L 45.796875 5.421875 
L 45.796875 25.484375 
Q 45.796875 32.5625 45.484375 35.25 
Q 45.171875 37.9375 44.390625 39.203125 
Q 43.359375 40.921875 41.59375 41.875 
Q 39.84375 42.828125 37.59375 42.828125 
Q 32.125 42.828125 29 38.59375 
Q 25.875 34.375 25.875 26.90625 
L 25.875 0 
L 8.40625 0 
L 8.40625 54.6875 
L 25.875 54.6875 
L 25.875 46.6875 
Q 29.828125 51.46875 34.265625 53.734375 
Q 38.71875 56 44.09375 56 
Q 53.5625 56 58.46875 50.1875 
Q 63.375 44.390625 63.375 33.296875 
z
" id="DejaVuSans-Bold-110"/>
        <path d="M 62.984375 27.484375 
L 62.984375 22.515625 
L 22.125 22.515625 
Q 22.75 16.359375 26.5625 13.28125 
Q 30.375 10.203125 37.203125 10.203125 
Q 42.71875 10.203125 48.5 11.84375 
Q 54.296875 13.484375 60.40625 16.796875 
L 60.40625 3.328125 
Q 54.203125 0.984375 48 -0.21875 
Q 41.796875 -1.421875 35.59375 -1.421875 
Q 20.75 -1.421875 12.515625 6.125 
Q 4.296875 13.671875 4.296875 27.296875 
Q 4.296875 40.671875 12.375 48.328125 
Q 20.453125 56 34.625 56 
Q 47.515625 56 55.25 48.234375 
Q 62.984375 40.484375 62.984375 27.484375 
z
M 45.015625 33.296875 
Q 45.015625 38.28125 42.109375 41.328125 
Q 39.203125 44.390625 34.515625 44.390625 
Q 29.4375 44.390625 26.265625 41.53125 
Q 23.09375 38.671875 22.3125 33.296875 
z
" id="DejaVuSans-Bold-101"/>
       </defs>
       <use xlink:href="#DejaVuSans-Bold-74"/>
       <use x="37.207031" xlink:href="#DejaVuSans-Bold-117"/>
       <use x="108.398438" xlink:href="#DejaVuSans-Bold-110"/>
       <use x="179.589844" xlink:href="#DejaVuSans-Bold-101"/>
      </g>
     </g>
    </g>
    <g id="xtick_4">
     <g id="line2d_4">
      <g>
       <use style="fill:#555555;stroke:#555555;stroke-width:0.8;" x="608.452437" xlink:href="#m0993116056" y="541.28"/>
      </g>
     </g>
     <g id="text_4">
      <!-- July -->
      <g style="fill:#555555;" transform="translate(593.902281 558.917812)scale(0.14 -0.14)">
       <use xlink:href="#DejaVuSans-Bold-74"/>
       <use x="37.207031" xlink:href="#DejaVuSans-Bold-117"/>
       <use x="108.398438" xlink:href="#DejaVuSans-Bold-108"/>
       <use x="142.675781" xlink:href="#DejaVuSans-Bold-121"/>
      </g>
     </g>
    </g>
    <g id="xtick_5">
     <g id="line2d_5">
      <g>
       <use style="fill:#555555;stroke:#555555;stroke-width:0.8;" x="745.241891" xlink:href="#m0993116056" y="541.28"/>
      </g>
     </g>
     <g id="text_5">
      <!-- August -->
      <g style="fill:#555555;" transform="translate(717.335953 558.808437)scale(0.14 -0.14)">
       <defs>
        <path d="M 45.609375 9.28125 
Q 42 4.5 37.640625 2.25 
Q 33.296875 0 27.59375 0 
Q 17.578125 0 11.03125 7.875 
Q 4.5 15.765625 4.5 27.984375 
Q 4.5 40.234375 11.03125 48.0625 
Q 17.578125 55.90625 27.59375 55.90625 
Q 33.296875 55.90625 37.640625 53.65625 
Q 42 51.421875 45.609375 46.578125 
L 45.609375 54.6875 
L 63.1875 54.6875 
L 63.1875 5.515625 
Q 63.1875 -7.671875 54.859375 -14.625 
Q 46.53125 -21.578125 30.71875 -21.578125 
Q 25.59375 -21.578125 20.796875 -20.796875 
Q 16.015625 -20.015625 11.1875 -18.40625 
L 11.1875 -4.78125 
Q 15.765625 -7.421875 20.15625 -8.71875 
Q 24.5625 -10.015625 29 -10.015625 
Q 37.59375 -10.015625 41.59375 -6.25 
Q 45.609375 -2.484375 45.609375 5.515625 
z
M 34.078125 43.3125 
Q 28.65625 43.3125 25.625 39.296875 
Q 22.609375 35.296875 22.609375 27.984375 
Q 22.609375 20.453125 25.53125 16.578125 
Q 28.46875 12.703125 34.078125 12.703125 
Q 39.546875 12.703125 42.578125 16.703125 
Q 45.609375 20.703125 45.609375 27.984375 
Q 45.609375 35.296875 42.578125 39.296875 
Q 39.546875 43.3125 34.078125 43.3125 
z
" id="DejaVuSans-Bold-103"/>
        <path d="M 51.125 52.984375 
L 51.125 39.703125 
Q 45.515625 42.046875 40.28125 43.21875 
Q 35.0625 44.390625 30.421875 44.390625 
Q 25.4375 44.390625 23.015625 43.140625 
Q 20.609375 41.890625 20.609375 39.3125 
Q 20.609375 37.203125 22.4375 36.078125 
Q 24.265625 34.96875 29 34.421875 
L 32.078125 33.984375 
Q 45.515625 32.28125 50.140625 28.375 
Q 54.78125 24.46875 54.78125 16.109375 
Q 54.78125 7.375 48.328125 2.96875 
Q 41.890625 -1.421875 29.109375 -1.421875 
Q 23.6875 -1.421875 17.890625 -0.5625 
Q 12.109375 0.296875 6 2 
L 6 15.28125 
Q 11.234375 12.75 16.71875 11.46875 
Q 22.21875 10.203125 27.875 10.203125 
Q 33.015625 10.203125 35.59375 11.609375 
Q 38.1875 13.03125 38.1875 15.828125 
Q 38.1875 18.171875 36.40625 19.3125 
Q 34.625 20.453125 29.296875 21.09375 
L 26.21875 21.484375 
Q 14.546875 22.953125 9.859375 26.90625 
Q 5.171875 30.859375 5.171875 38.921875 
Q 5.171875 47.609375 11.125 51.796875 
Q 17.09375 56 29.390625 56 
Q 34.234375 56 39.546875 55.265625 
Q 44.875 54.546875 51.125 52.984375 
z
" id="DejaVuSans-Bold-115"/>
        <path d="M 27.484375 70.21875 
L 27.484375 54.6875 
L 45.515625 54.6875 
L 45.515625 42.1875 
L 27.484375 42.1875 
L 27.484375 19 
Q 27.484375 15.1875 29 13.84375 
Q 30.515625 12.5 35.015625 12.5 
L 44 12.5 
L 44 0 
L 29 0 
Q 18.65625 0 14.328125 4.3125 
Q 10.015625 8.640625 10.015625 19 
L 10.015625 42.1875 
L 1.3125 42.1875 
L 1.3125 54.6875 
L 10.015625 54.6875 
L 10.015625 70.21875 
z
" id="DejaVuSans-Bold-116"/>
       </defs>
       <use xlink:href="#DejaVuSans-Bold-65"/>
       <use x="77.392578" xlink:href="#DejaVuSans-Bold-117"/>
       <use x="148.583984" xlink:href="#DejaVuSans-Bold-103"/>
       <use x="220.166016" xlink:href="#DejaVuSans-Bold-117"/>
       <use x="291.357422" xlink:href="#DejaVuSans-Bold-115"/>
       <use x="350.878906" xlink:href="#DejaVuSans-Bold-116"/>
      </g>
     </g>
    </g>
    <g id="xtick_6">
     <g id="line2d_6">
      <g>
       <use style="fill:#555555;stroke:#555555;stroke-width:0.8;" x="882.031345" xlink:href="#m0993116056" y="541.28"/>
      </g>
     </g>
     <g id="text_6">
      <!-- September -->
      <g style="fill:#555555;" transform="translate(838.633532 558.917812)scale(0.14 -0.14)">
       <defs>
        <path d="M 59.90625 70.609375 
L 59.90625 55.171875 
Q 53.90625 57.859375 48.1875 59.21875 
Q 42.484375 60.59375 37.40625 60.59375 
Q 30.671875 60.59375 27.4375 58.734375 
Q 24.21875 56.890625 24.21875 52.984375 
Q 24.21875 50.046875 26.390625 48.40625 
Q 28.5625 46.78125 34.28125 45.609375 
L 42.28125 44 
Q 54.4375 41.546875 59.5625 36.5625 
Q 64.703125 31.59375 64.703125 22.40625 
Q 64.703125 10.359375 57.546875 4.46875 
Q 50.390625 -1.421875 35.6875 -1.421875 
Q 28.765625 -1.421875 21.78125 -0.09375 
Q 14.796875 1.21875 7.8125 3.8125 
L 7.8125 19.671875 
Q 14.796875 15.96875 21.3125 14.078125 
Q 27.828125 12.203125 33.890625 12.203125 
Q 40.046875 12.203125 43.3125 14.25 
Q 46.578125 16.3125 46.578125 20.125 
Q 46.578125 23.53125 44.359375 25.390625 
Q 42.140625 27.25 35.5 28.71875 
L 28.21875 30.328125 
Q 17.28125 32.671875 12.21875 37.796875 
Q 7.171875 42.921875 7.171875 51.609375 
Q 7.171875 62.5 14.203125 68.359375 
Q 21.234375 74.21875 34.421875 74.21875 
Q 40.4375 74.21875 46.78125 73.3125 
Q 53.125 72.40625 59.90625 70.609375 
z
" id="DejaVuSans-Bold-83"/>
        <path d="M 59.078125 45.609375 
Q 62.40625 50.6875 66.96875 53.34375 
Q 71.53125 56 77 56 
Q 86.421875 56 91.359375 50.1875 
Q 96.296875 44.390625 96.296875 33.296875 
L 96.296875 0 
L 78.71875 0 
L 78.71875 28.515625 
Q 78.765625 29.15625 78.78125 29.828125 
Q 78.8125 30.515625 78.8125 31.78125 
Q 78.8125 37.59375 77.09375 40.203125 
Q 75.390625 42.828125 71.578125 42.828125 
Q 66.609375 42.828125 63.890625 38.71875 
Q 61.1875 34.625 61.078125 26.859375 
L 61.078125 0 
L 43.5 0 
L 43.5 28.515625 
Q 43.5 37.59375 41.9375 40.203125 
Q 40.375 42.828125 36.375 42.828125 
Q 31.34375 42.828125 28.609375 38.703125 
Q 25.875 34.578125 25.875 26.90625 
L 25.875 0 
L 8.296875 0 
L 8.296875 54.6875 
L 25.875 54.6875 
L 25.875 46.6875 
Q 29.109375 51.3125 33.28125 53.65625 
Q 37.453125 56 42.484375 56 
Q 48.140625 56 52.484375 53.265625 
Q 56.84375 50.53125 59.078125 45.609375 
z
" id="DejaVuSans-Bold-109"/>
        <path d="M 37.5 11.28125 
Q 43.109375 11.28125 46.0625 15.375 
Q 49.03125 19.484375 49.03125 27.296875 
Q 49.03125 35.109375 46.0625 39.203125 
Q 43.109375 43.3125 37.5 43.3125 
Q 31.890625 43.3125 28.875 39.1875 
Q 25.875 35.0625 25.875 27.296875 
Q 25.875 19.53125 28.875 15.40625 
Q 31.890625 11.28125 37.5 11.28125 
z
M 25.875 46.6875 
Q 29.5 51.46875 33.890625 53.734375 
Q 38.28125 56 44 56 
Q 54.109375 56 60.59375 47.96875 
Q 67.09375 39.9375 67.09375 27.296875 
Q 67.09375 14.65625 60.59375 6.609375 
Q 54.109375 -1.421875 44 -1.421875 
Q 38.28125 -1.421875 33.890625 0.84375 
Q 29.5 3.125 25.875 7.90625 
L 25.875 0 
L 8.40625 0 
L 8.40625 75.984375 
L 25.875 75.984375 
z
" id="DejaVuSans-Bold-98"/>
       </defs>
       <use xlink:href="#DejaVuSans-Bold-83"/>
       <use x="72.021484" xlink:href="#DejaVuSans-Bold-101"/>
       <use x="139.84375" xlink:href="#DejaVuSans-Bold-112"/>
       <use x="211.425781" xlink:href="#DejaVuSans-Bold-116"/>
       <use x="259.228516" xlink:href="#DejaVuSans-Bold-101"/>
       <use x="327.050781" xlink:href="#DejaVuSans-Bold-109"/>
       <use x="431.25" xlink:href="#DejaVuSans-Bold-98"/>
       <use x="502.832031" xlink:href="#DejaVuSans-Bold-101"/>
       <use x="570.654297" xlink:href="#DejaVuSans-Bold-114"/>
      </g>
     </g>
    </g>
    <g id="xtick_7">
     <g id="line2d_7">
      <g>
       <use style="fill:#555555;stroke:#555555;stroke-width:0.8;" x="1014.408235" xlink:href="#m0993116056" y="541.28"/>
      </g>
     </g>
     <g id="text_7">
      <!-- October -->
      <g style="fill:#555555;" transform="translate(982.942142 558.917812)scale(0.14 -0.14)">
       <defs>
        <path d="M 42.484375 60.59375 
Q 33.890625 60.59375 29.15625 54.25 
Q 24.421875 47.90625 24.421875 36.375 
Q 24.421875 24.90625 29.15625 18.546875 
Q 33.890625 12.203125 42.484375 12.203125 
Q 51.125 12.203125 55.859375 18.546875 
Q 60.59375 24.90625 60.59375 36.375 
Q 60.59375 47.90625 55.859375 54.25 
Q 51.125 60.59375 42.484375 60.59375 
z
M 42.484375 74.21875 
Q 60.0625 74.21875 70.015625 64.15625 
Q 79.984375 54.109375 79.984375 36.375 
Q 79.984375 18.703125 70.015625 8.640625 
Q 60.0625 -1.421875 42.484375 -1.421875 
Q 24.953125 -1.421875 14.96875 8.640625 
Q 4.984375 18.703125 4.984375 36.375 
Q 4.984375 54.109375 14.96875 64.15625 
Q 24.953125 74.21875 42.484375 74.21875 
z
" id="DejaVuSans-Bold-79"/>
        <path d="M 52.59375 52.984375 
L 52.59375 38.71875 
Q 49.03125 41.15625 45.4375 42.328125 
Q 41.84375 43.5 37.984375 43.5 
Q 30.671875 43.5 26.59375 39.234375 
Q 22.515625 34.96875 22.515625 27.296875 
Q 22.515625 19.625 26.59375 15.34375 
Q 30.671875 11.078125 37.984375 11.078125 
Q 42.09375 11.078125 45.78125 12.296875 
Q 49.46875 13.53125 52.59375 15.921875 
L 52.59375 1.609375 
Q 48.484375 0.09375 44.265625 -0.65625 
Q 40.046875 -1.421875 35.796875 -1.421875 
Q 21 -1.421875 12.640625 6.171875 
Q 4.296875 13.765625 4.296875 27.296875 
Q 4.296875 40.828125 12.640625 48.40625 
Q 21 56 35.796875 56 
Q 40.09375 56 44.265625 55.25 
Q 48.4375 54.5 52.59375 52.984375 
z
" id="DejaVuSans-Bold-99"/>
        <path d="M 34.421875 43.5 
Q 28.609375 43.5 25.5625 39.328125 
Q 22.515625 35.15625 22.515625 27.296875 
Q 22.515625 19.4375 25.5625 15.25 
Q 28.609375 11.078125 34.421875 11.078125 
Q 40.140625 11.078125 43.15625 15.25 
Q 46.1875 19.4375 46.1875 27.296875 
Q 46.1875 35.15625 43.15625 39.328125 
Q 40.140625 43.5 34.421875 43.5 
z
M 34.421875 56 
Q 48.53125 56 56.46875 48.375 
Q 64.40625 40.765625 64.40625 27.296875 
Q 64.40625 13.8125 56.46875 6.1875 
Q 48.53125 -1.421875 34.421875 -1.421875 
Q 20.265625 -1.421875 12.28125 6.1875 
Q 4.296875 13.8125 4.296875 27.296875 
Q 4.296875 40.765625 12.28125 48.375 
Q 20.265625 56 34.421875 56 
z
" id="DejaVuSans-Bold-111"/>
       </defs>
       <use xlink:href="#DejaVuSans-Bold-79"/>
       <use x="85.009766" xlink:href="#DejaVuSans-Bold-99"/>
       <use x="144.287109" xlink:href="#DejaVuSans-Bold-116"/>
       <use x="192.089844" xlink:href="#DejaVuSans-Bold-111"/>
       <use x="260.791016" xlink:href="#DejaVuSans-Bold-98"/>
       <use x="332.373047" xlink:href="#DejaVuSans-Bold-101"/>
       <use x="400.195312" xlink:href="#DejaVuSans-Bold-114"/>
      </g>
     </g>
    </g>
   </g>
   <g id="matplotlib.axis_2">
    <g id="ytick_1">
     <g id="line2d_8">
      <defs>
       <path d="M 0 0 
L -3.5 0 
" id="m0c811f232b" style="stroke:#555555;stroke-width:0.8;"/>
      </defs>
      <g>
       <use style="fill:#555555;stroke:#555555;stroke-width:0.8;" x="87.77" xlink:href="#m0c811f232b" y="519.989837"/>
      </g>
     </g>
     <g id="text_8">
      <!-- 0 -->
      <g style="fill:#555555;" transform="translate(71.029063 525.308743)scale(0.14 -0.14)">
       <defs>
        <path d="M 46 36.53125 
Q 46 50.203125 43.4375 55.78125 
Q 40.875 61.375 34.8125 61.375 
Q 28.765625 61.375 26.171875 55.78125 
Q 23.578125 50.203125 23.578125 36.53125 
Q 23.578125 22.703125 26.171875 17.03125 
Q 28.765625 11.375 34.8125 11.375 
Q 40.828125 11.375 43.40625 17.03125 
Q 46 22.703125 46 36.53125 
z
M 64.796875 36.375 
Q 64.796875 18.265625 56.984375 8.421875 
Q 49.171875 -1.421875 34.8125 -1.421875 
Q 20.40625 -1.421875 12.59375 8.421875 
Q 4.78125 18.265625 4.78125 36.375 
Q 4.78125 54.546875 12.59375 64.375 
Q 20.40625 74.21875 34.8125 74.21875 
Q 49.171875 74.21875 56.984375 64.375 
Q 64.796875 54.546875 64.796875 36.375 
z
" id="DejaVuSans-Bold-48"/>
       </defs>
       <use xlink:href="#DejaVuSans-Bold-48"/>
      </g>
     </g>
    </g>
    <g id="ytick_2">
     <g id="line2d_9">
      <g>
       <use style="fill:#555555;stroke:#555555;stroke-width:0.8;" x="87.77" xlink:href="#m0c811f232b" y="431.160533"/>
      </g>
     </g>
     <g id="text_9">
      <!-- 2000 -->
      <g style="fill:#555555;" transform="translate(41.80625 436.479439)scale(0.14 -0.14)">
       <defs>
        <path d="M 28.8125 13.8125 
L 60.890625 13.8125 
L 60.890625 0 
L 7.90625 0 
L 7.90625 13.8125 
L 34.515625 37.3125 
Q 38.09375 40.53125 39.796875 43.609375 
Q 41.5 46.6875 41.5 50 
Q 41.5 55.125 38.0625 58.25 
Q 34.625 61.375 28.90625 61.375 
Q 24.515625 61.375 19.28125 59.5 
Q 14.0625 57.625 8.109375 53.90625 
L 8.109375 69.921875 
Q 14.453125 72.015625 20.65625 73.109375 
Q 26.859375 74.21875 32.8125 74.21875 
Q 45.90625 74.21875 53.15625 68.453125 
Q 60.40625 62.703125 60.40625 52.390625 
Q 60.40625 46.4375 57.328125 41.28125 
Q 54.25 36.140625 44.390625 27.484375 
z
" id="DejaVuSans-Bold-50"/>
       </defs>
       <use xlink:href="#DejaVuSans-Bold-50"/>
       <use x="69.580078" xlink:href="#DejaVuSans-Bold-48"/>
       <use x="139.160156" xlink:href="#DejaVuSans-Bold-48"/>
       <use x="208.740234" xlink:href="#DejaVuSans-Bold-48"/>
      </g>
     </g>
    </g>
    <g id="ytick_3">
     <g id="line2d_10">
      <g>
       <use style="fill:#555555;stroke:#555555;stroke-width:0.8;" x="87.77" xlink:href="#m0c811f232b" y="342.331229"/>
      </g>
     </g>
     <g id="text_10">
      <!-- 4000 -->
      <g style="fill:#555555;" transform="translate(41.80625 347.650135)scale(0.14 -0.14)">
       <defs>
        <path d="M 36.8125 57.421875 
L 16.21875 26.90625 
L 36.8125 26.90625 
z
M 33.6875 72.90625 
L 54.59375 72.90625 
L 54.59375 26.90625 
L 64.984375 26.90625 
L 64.984375 13.28125 
L 54.59375 13.28125 
L 54.59375 0 
L 36.8125 0 
L 36.8125 13.28125 
L 4.5 13.28125 
L 4.5 29.390625 
z
" id="DejaVuSans-Bold-52"/>
       </defs>
       <use xlink:href="#DejaVuSans-Bold-52"/>
       <use x="69.580078" xlink:href="#DejaVuSans-Bold-48"/>
       <use x="139.160156" xlink:href="#DejaVuSans-Bold-48"/>
       <use x="208.740234" xlink:href="#DejaVuSans-Bold-48"/>
      </g>
     </g>
    </g>
    <g id="ytick_4">
     <g id="line2d_11">
      <g>
       <use style="fill:#555555;stroke:#555555;stroke-width:0.8;" x="87.77" xlink:href="#m0c811f232b" y="253.501925"/>
      </g>
     </g>
     <g id="text_11">
      <!-- 6000 -->
      <g style="fill:#555555;" transform="translate(41.80625 258.820831)scale(0.14 -0.14)">
       <defs>
        <path d="M 36.1875 35.984375 
Q 31.25 35.984375 28.78125 32.78125 
Q 26.3125 29.59375 26.3125 23.1875 
Q 26.3125 16.796875 28.78125 13.59375 
Q 31.25 10.40625 36.1875 10.40625 
Q 41.15625 10.40625 43.625 13.59375 
Q 46.09375 16.796875 46.09375 23.1875 
Q 46.09375 29.59375 43.625 32.78125 
Q 41.15625 35.984375 36.1875 35.984375 
z
M 59.421875 71 
L 59.421875 57.515625 
Q 54.78125 59.71875 50.671875 60.765625 
Q 46.578125 61.8125 42.671875 61.8125 
Q 34.28125 61.8125 29.59375 57.140625 
Q 24.90625 52.484375 24.125 43.3125 
Q 27.34375 45.703125 31.09375 46.890625 
Q 34.859375 48.09375 39.3125 48.09375 
Q 50.484375 48.09375 57.34375 41.546875 
Q 64.203125 35.015625 64.203125 24.421875 
Q 64.203125 12.703125 56.53125 5.640625 
Q 48.875 -1.421875 35.984375 -1.421875 
Q 21.78125 -1.421875 13.984375 8.171875 
Q 6.203125 17.78125 6.203125 35.40625 
Q 6.203125 53.46875 15.3125 63.796875 
Q 24.421875 74.125 40.28125 74.125 
Q 45.3125 74.125 50.046875 73.34375 
Q 54.78125 72.5625 59.421875 71 
z
" id="DejaVuSans-Bold-54"/>
       </defs>
       <use xlink:href="#DejaVuSans-Bold-54"/>
       <use x="69.580078" xlink:href="#DejaVuSans-Bold-48"/>
       <use x="139.160156" xlink:href="#DejaVuSans-Bold-48"/>
       <use x="208.740234" xlink:href="#DejaVuSans-Bold-48"/>
      </g>
     </g>
    </g>
    <g id="ytick_5">
     <g id="line2d_12">
      <g>
       <use style="fill:#555555;stroke:#555555;stroke-width:0.8;" x="87.77" xlink:href="#m0c811f232b" y="164.672621"/>
      </g>
     </g>
     <g id="text_12">
      <!-- 8000 -->
      <g style="fill:#555555;" transform="translate(41.80625 169.991527)scale(0.14 -0.14)">
       <defs>
        <path d="M 34.8125 32.625 
Q 29.546875 32.625 26.703125 29.734375 
Q 23.875 26.859375 23.875 21.484375 
Q 23.875 16.109375 26.703125 13.25 
Q 29.546875 10.40625 34.8125 10.40625 
Q 40.046875 10.40625 42.828125 13.25 
Q 45.609375 16.109375 45.609375 21.484375 
Q 45.609375 26.90625 42.828125 29.765625 
Q 40.046875 32.625 34.8125 32.625 
z
M 21.09375 38.8125 
Q 14.453125 40.828125 11.078125 44.96875 
Q 7.71875 49.125 7.71875 55.328125 
Q 7.71875 64.546875 14.59375 69.375 
Q 21.484375 74.21875 34.8125 74.21875 
Q 48.046875 74.21875 54.921875 69.40625 
Q 61.8125 64.59375 61.8125 55.328125 
Q 61.8125 49.125 58.421875 44.96875 
Q 55.03125 40.828125 48.390625 38.8125 
Q 55.8125 36.765625 59.59375 32.15625 
Q 63.375 27.546875 63.375 20.515625 
Q 63.375 9.671875 56.171875 4.125 
Q 48.96875 -1.421875 34.8125 -1.421875 
Q 20.609375 -1.421875 13.359375 4.125 
Q 6.109375 9.671875 6.109375 20.515625 
Q 6.109375 27.546875 9.890625 32.15625 
Q 13.671875 36.765625 21.09375 38.8125 
z
M 25.484375 53.421875 
Q 25.484375 49.078125 27.90625 46.734375 
Q 30.328125 44.390625 34.8125 44.390625 
Q 39.203125 44.390625 41.59375 46.734375 
Q 44 49.078125 44 53.421875 
Q 44 57.765625 41.59375 60.078125 
Q 39.203125 62.40625 34.8125 62.40625 
Q 30.328125 62.40625 27.90625 60.0625 
Q 25.484375 57.71875 25.484375 53.421875 
z
" id="DejaVuSans-Bold-56"/>
       </defs>
       <use xlink:href="#DejaVuSans-Bold-56"/>
       <use x="69.580078" xlink:href="#DejaVuSans-Bold-48"/>
       <use x="139.160156" xlink:href="#DejaVuSans-Bold-48"/>
       <use x="208.740234" xlink:href="#DejaVuSans-Bold-48"/>
      </g>
     </g>
    </g>
    <g id="ytick_6">
     <g id="line2d_13">
      <g>
       <use style="fill:#555555;stroke:#555555;stroke-width:0.8;" x="87.77" xlink:href="#m0c811f232b" y="75.843317"/>
      </g>
     </g>
     <g id="text_13">
      <!-- 10000 -->
      <g style="fill:#555555;" transform="translate(32.065313 81.162223)scale(0.14 -0.14)">
       <defs>
        <path d="M 11.71875 12.984375 
L 28.328125 12.984375 
L 28.328125 60.109375 
L 11.28125 56.59375 
L 11.28125 69.390625 
L 28.21875 72.90625 
L 46.09375 72.90625 
L 46.09375 12.984375 
L 62.703125 12.984375 
L 62.703125 0 
L 11.71875 0 
z
" id="DejaVuSans-Bold-49"/>
       </defs>
       <use xlink:href="#DejaVuSans-Bold-49"/>
       <use x="69.580078" xlink:href="#DejaVuSans-Bold-48"/>
       <use x="139.160156" xlink:href="#DejaVuSans-Bold-48"/>
       <use x="208.740234" xlink:href="#DejaVuSans-Bold-48"/>
       <use x="278.320312" xlink:href="#DejaVuSans-Bold-48"/>
      </g>
     </g>
    </g>
    <g id="text_14">
     <!-- New Cases -->
     <g style="fill:#555555;" transform="translate(24.737813 333.23875)rotate(-90)scale(0.16 -0.16)">
      <defs>
       <path d="M 9.8125 72.90625 
L 23.09375 72.90625 
L 55.421875 11.921875 
L 55.421875 72.90625 
L 64.984375 72.90625 
L 64.984375 0 
L 51.703125 0 
L 19.390625 60.984375 
L 19.390625 0 
L 9.8125 0 
z
" id="DejaVuSans-78"/>
       <path d="M 56.203125 29.59375 
L 56.203125 25.203125 
L 14.890625 25.203125 
Q 15.484375 15.921875 20.484375 11.0625 
Q 25.484375 6.203125 34.421875 6.203125 
Q 39.59375 6.203125 44.453125 7.46875 
Q 49.3125 8.734375 54.109375 11.28125 
L 54.109375 2.78125 
Q 49.265625 0.734375 44.1875 -0.34375 
Q 39.109375 -1.421875 33.890625 -1.421875 
Q 20.796875 -1.421875 13.15625 6.1875 
Q 5.515625 13.8125 5.515625 26.8125 
Q 5.515625 40.234375 12.765625 48.109375 
Q 20.015625 56 32.328125 56 
Q 43.359375 56 49.78125 48.890625 
Q 56.203125 41.796875 56.203125 29.59375 
z
M 47.21875 32.234375 
Q 47.125 39.59375 43.09375 43.984375 
Q 39.0625 48.390625 32.421875 48.390625 
Q 24.90625 48.390625 20.390625 44.140625 
Q 15.875 39.890625 15.1875 32.171875 
z
" id="DejaVuSans-101"/>
       <path d="M 4.203125 54.6875 
L 13.1875 54.6875 
L 24.421875 12.015625 
L 35.59375 54.6875 
L 46.1875 54.6875 
L 57.421875 12.015625 
L 68.609375 54.6875 
L 77.59375 54.6875 
L 63.28125 0 
L 52.6875 0 
L 40.921875 44.828125 
L 29.109375 0 
L 18.5 0 
z
" id="DejaVuSans-119"/>
       <path id="DejaVuSans-32"/>
       <path d="M 64.40625 67.28125 
L 64.40625 56.890625 
Q 59.421875 61.53125 53.78125 63.8125 
Q 48.140625 66.109375 41.796875 66.109375 
Q 29.296875 66.109375 22.65625 58.46875 
Q 16.015625 50.828125 16.015625 36.375 
Q 16.015625 21.96875 22.65625 14.328125 
Q 29.296875 6.6875 41.796875 6.6875 
Q 48.140625 6.6875 53.78125 8.984375 
Q 59.421875 11.28125 64.40625 15.921875 
L 64.40625 5.609375 
Q 59.234375 2.09375 53.4375 0.328125 
Q 47.65625 -1.421875 41.21875 -1.421875 
Q 24.65625 -1.421875 15.125 8.703125 
Q 5.609375 18.84375 5.609375 36.375 
Q 5.609375 53.953125 15.125 64.078125 
Q 24.65625 74.21875 41.21875 74.21875 
Q 47.75 74.21875 53.53125 72.484375 
Q 59.328125 70.75 64.40625 67.28125 
z
" id="DejaVuSans-67"/>
       <path d="M 34.28125 27.484375 
Q 23.390625 27.484375 19.1875 25 
Q 14.984375 22.515625 14.984375 16.5 
Q 14.984375 11.71875 18.140625 8.90625 
Q 21.296875 6.109375 26.703125 6.109375 
Q 34.1875 6.109375 38.703125 11.40625 
Q 43.21875 16.703125 43.21875 25.484375 
L 43.21875 27.484375 
z
M 52.203125 31.203125 
L 52.203125 0 
L 43.21875 0 
L 43.21875 8.296875 
Q 40.140625 3.328125 35.546875 0.953125 
Q 30.953125 -1.421875 24.3125 -1.421875 
Q 15.921875 -1.421875 10.953125 3.296875 
Q 6 8.015625 6 15.921875 
Q 6 25.140625 12.171875 29.828125 
Q 18.359375 34.515625 30.609375 34.515625 
L 43.21875 34.515625 
L 43.21875 35.40625 
Q 43.21875 41.609375 39.140625 45 
Q 35.0625 48.390625 27.6875 48.390625 
Q 23 48.390625 18.546875 47.265625 
Q 14.109375 46.140625 10.015625 43.890625 
L 10.015625 52.203125 
Q 14.9375 54.109375 19.578125 55.046875 
Q 24.21875 56 28.609375 56 
Q 40.484375 56 46.34375 49.84375 
Q 52.203125 43.703125 52.203125 31.203125 
z
" id="DejaVuSans-97"/>
       <path d="M 44.28125 53.078125 
L 44.28125 44.578125 
Q 40.484375 46.53125 36.375 47.5 
Q 32.28125 48.484375 27.875 48.484375 
Q 21.1875 48.484375 17.84375 46.4375 
Q 14.5 44.390625 14.5 40.28125 
Q 14.5 37.15625 16.890625 35.375 
Q 19.28125 33.59375 26.515625 31.984375 
L 29.59375 31.296875 
Q 39.15625 29.25 43.1875 25.515625 
Q 47.21875 21.78125 47.21875 15.09375 
Q 47.21875 7.46875 41.1875 3.015625 
Q 35.15625 -1.421875 24.609375 -1.421875 
Q 20.21875 -1.421875 15.453125 -0.5625 
Q 10.6875 0.296875 5.421875 2 
L 5.421875 11.28125 
Q 10.40625 8.6875 15.234375 7.390625 
Q 20.0625 6.109375 24.8125 6.109375 
Q 31.15625 6.109375 34.5625 8.28125 
Q 37.984375 10.453125 37.984375 14.40625 
Q 37.984375 18.0625 35.515625 20.015625 
Q 33.0625 21.96875 24.703125 23.78125 
L 21.578125 24.515625 
Q 13.234375 26.265625 9.515625 29.90625 
Q 5.8125 33.546875 5.8125 39.890625 
Q 5.8125 47.609375 11.28125 51.796875 
Q 16.75 56 26.8125 56 
Q 31.78125 56 36.171875 55.265625 
Q 40.578125 54.546875 44.28125 53.078125 
z
" id="DejaVuSans-115"/>
      </defs>
      <use xlink:href="#DejaVuSans-78"/>
      <use x="74.804688" xlink:href="#DejaVuSans-101"/>
      <use x="136.328125" xlink:href="#DejaVuSans-119"/>
      <use x="218.115234" xlink:href="#DejaVuSans-32"/>
      <use x="249.902344" xlink:href="#DejaVuSans-67"/>
      <use x="319.726562" xlink:href="#DejaVuSans-97"/>
      <use x="381.005859" xlink:href="#DejaVuSans-115"/>
      <use x="433.105469" xlink:href="#DejaVuSans-101"/>
      <use x="494.628906" xlink:href="#DejaVuSans-115"/>
     </g>
    </g>
   </g>
   <g id="line2d_14">
    <path clip-path="url(#p5702b831c3)" d="M 87.77 518.035592 
L 92.182563 517.946763 
L 96.595126 517.324957 
L 101.007689 516.569908 
L 105.420252 517.502616 
L 109.832815 517.280543 
L 114.245378 514.615664 
L 118.657941 515.104225 
L 123.070504 511.506638 
L 127.483067 513.105566 
L 131.89563 512.172858 
L 136.308193 507.642563 
L 140.720756 507.109587 
L 145.133319 504.533538 
L 149.545882 501.824244 
L 153.958445 496.272412 
L 158.371008 491.697703 
L 162.783571 494.540241 
L 167.196134 495.783851 
L 171.608697 483.969554 
L 176.021261 482.148553 
L 180.433824 474.731306 
L 184.846387 467.935864 
L 189.25895 468.513255 
L 193.671513 470.956061 
L 198.084076 480.727284 
L 202.496639 482.459456 
L 206.909202 474.731306 
L 211.321765 471.888768 
L 215.734328 474.420404 
L 220.146891 479.838991 
L 224.559454 465.626303 
L 228.972017 477.707088 
L 233.38458 485.479652 
L 237.797143 476.952039 
L 242.209706 466.114864 
L 246.622269 460.696276 
L 251.034832 461.540155 
L 255.447395 467.847035 
L 259.859958 477.174112 
L 264.272521 481.437919 
L 268.685084 487.389482 
L 273.097647 472.865891 
L 277.51021 465.137741 
L 281.922773 469.357133 
L 286.335336 472.643818 
L 290.747899 486.678848 
L 299.573025 488.544263 
L 303.985588 480.59404 
L 308.398151 484.191627 
L 312.810714 490.89824 
L 317.223277 490.89824 
L 321.63584 502.223976 
L 326.048403 512.394931 
L 330.460966 502.845781 
L 334.873529 497.160705 
L 339.286092 498.892877 
L 343.698655 500.225316 
L 348.111218 505.110928 
L 352.523782 511.151321 
L 356.936345 505.910392 
L 361.348908 509.685637 
L 365.761471 499.78117 
L 370.174034 505.821563 
L 374.586597 507.154002 
L 378.99916 509.108247 
L 383.411723 512.839078 
L 387.824286 511.284565 
L 392.236849 509.907711 
L 396.649412 507.997881 
L 401.061975 511.106906 
L 405.474538 511.595467 
L 409.887101 514.438005 
L 414.299664 513.505297 
L 418.712227 515.193054 
L 423.12479 511.195735 
L 427.537353 508.75293 
L 431.949916 511.639882 
L 436.362479 512.172858 
L 440.775042 512.350516 
L 445.187605 510.707174 
L 449.600168 514.082688 
L 454.012731 511.551053 
L 462.837857 512.172858 
L 467.25042 514.171517 
L 471.662983 511.773126 
L 476.075546 515.415127 
L 480.488109 515.459542 
L 484.900672 516.170176 
L 489.313235 510.707174 
L 493.725798 510.66276 
L 498.138361 511.861955 
L 502.550924 509.374735 
L 506.963487 512.661419 
L 511.37605 512.705834 
L 515.788613 511.817541 
L 520.201176 512.705834 
L 524.613739 510.66276 
L 529.026303 512.039614 
L 533.438866 513.638541 
L 537.851429 512.661419 
L 542.263992 513.8162 
L 546.676555 514.793322 
L 551.089118 514.882152 
L 555.501681 515.237469 
L 559.914244 516.614323 
L 564.326807 515.948103 
L 568.73937 517.102884 
L 573.151933 517.147299 
L 577.564496 516.347835 
L 581.977059 515.104225 
L 586.389622 515.948103 
L 590.802185 516.925226 
L 599.627311 516.614323 
L 604.039874 517.769104 
L 608.452437 517.236128 
L 612.865 516.569908 
L 617.277563 516.658738 
L 621.690126 517.280543 
L 626.102689 516.747567 
L 630.515252 518.390909 
L 634.927815 518.346494 
L 639.340378 517.680275 
L 643.752941 517.680275 
L 648.165504 518.124421 
L 652.578067 516.39225 
L 656.99063 515.503957 
L 661.403193 516.836396 
L 665.815756 517.63586 
L 670.228319 515.281883 
L 674.640882 515.592786 
L 679.053445 515.415127 
L 683.466008 514.349176 
L 687.878571 513.594127 
L 692.291134 511.773126 
L 696.703697 512.750248 
L 701.116261 512.528175 
L 705.528824 512.750248 
L 709.941387 511.506638 
L 714.35395 513.905029 
L 718.766513 510.485101 
L 723.179076 510.884833 
L 727.591639 510.085369 
L 732.004202 509.019418 
L 736.416765 504.800026 
L 740.829328 504.977684 
L 745.241891 500.847122 
L 749.654454 503.734074 
L 754.067017 503.467586 
L 758.47958 498.44873 
L 762.892143 501.069195 
L 767.304706 493.296631 
L 771.717269 496.938632 
L 776.129832 498.404316 
L 780.542395 494.362582 
L 784.954958 492.008606 
L 789.367521 485.390823 
L 793.780084 490.942654 
L 798.192647 494.362582 
L 802.60521 491.742118 
L 807.017773 490.89824 
L 811.430336 497.471608 
L 815.842899 498.581974 
L 820.255462 498.271072 
L 824.668025 495.472949 
L 829.080588 496.494486 
L 833.493151 496.227998 
L 837.905714 497.427193 
L 842.318277 499.692341 
L 846.73084 494.495826 
L 851.143403 501.557756 
L 855.555966 494.62907 
L 859.968529 497.338364 
L 864.381092 497.471608 
L 868.793655 497.738096 
L 873.206218 497.427193 
L 877.618782 496.583315 
L 882.031345 499.470267 
L 886.443908 487.389482 
L 890.856471 493.296631 
L 895.269034 486.945335 
L 899.681597 490.942654 
L 904.09416 478.906283 
L 908.506723 484.591359 
L 912.919286 477.174112 
L 917.331849 469.357133 
L 921.744412 483.436578 
L 926.156975 463.583229 
L 930.569538 465.3154 
L 934.982101 471.71111 
L 939.394664 462.250789 
L 943.807227 458.742031 
L 948.21979 451.502443 
L 952.632353 442.130952 
L 957.044916 432.315314 
L 961.457479 436.179388 
L 965.870042 438.089218 
L 970.282605 421.522553 
L 974.695168 420.278943 
L 979.107731 415.304502 
L 983.520294 406.998962 
L 987.932857 396.650348 
L 992.34542 399.492886 
L 996.757983 386.967954 
L 1001.170546 390.565541 
L 1005.583109 386.257319 
L 1009.995672 373.687973 
L 1014.408235 375.553388 
L 1018.820798 350.103793 
L 1023.233361 343.796912 
L 1027.645924 342.197985 
L 1032.058487 316.615145 
L 1036.47105 318.880292 
L 1040.883613 298.405138 
L 1045.296176 261.407733 
L 1049.708739 254.789949 
L 1054.121303 231.339013 
L 1058.533866 236.935259 
L 1062.946429 215.971544 
L 1067.358992 192.298534 
L 1071.771555 196.340267 
L 1076.184118 173.955283 
L 1080.596681 165.383255 
L 1085.009244 159.60935 
L 1089.421807 156.589154 
L 1093.83437 165.027938 
L 1098.246933 157.344203 
L 1102.659496 131.672534 
L 1107.072059 108.221598 
L 1111.484622 76.020975 
L 1115.897185 135.758682 
L 1120.309748 66.871557 
L 1124.722311 60.609091 
L 1129.134874 62.874238 
L 1133.547437 160.142326 
L 1137.96 64.117848 
L 1137.96 64.117848 
" style="fill:none;stroke:#000000;stroke-dasharray:1.5,2.475;stroke-dashoffset:0;stroke-opacity:0.5;stroke-width:1.5;"/>
   </g>
   <g id="line2d_15">
    <path clip-path="url(#p5702b831c3)" d="M 87.77 518.390909 
L 101.007689 517.147299 
L 105.420252 516.747567 
L 114.245378 515.237469 
L 118.657941 514.304761 
L 127.483067 511.861955 
L 131.89563 510.396272 
L 136.308193 508.575271 
L 140.720756 506.354538 
L 149.545882 500.536219 
L 153.958445 498.048998 
L 162.783571 492.71924 
L 167.196134 489.521385 
L 171.608697 485.479652 
L 180.433824 476.463478 
L 184.846387 473.62094 
L 189.25895 473.221208 
L 193.671513 473.976257 
L 198.084076 475.308697 
L 202.496639 476.241404 
L 206.909202 476.507892 
L 215.734328 474.642477 
L 220.146891 474.820135 
L 224.559454 475.619599 
L 228.972017 476.019331 
L 233.38458 475.086623 
L 242.209706 470.023353 
L 246.622269 467.847035 
L 251.034832 467.713791 
L 255.447395 470.511914 
L 259.859958 474.020672 
L 264.272521 476.330234 
L 268.685084 476.596722 
L 273.097647 475.131038 
L 277.51021 473.976257 
L 281.922773 474.464818 
L 286.335336 476.818795 
L 290.747899 480.194308 
L 295.160462 483.214505 
L 299.573025 485.07992 
L 303.985588 486.234701 
L 308.398151 487.744799 
L 312.810714 491.075898 
L 317.223277 495.117631 
L 321.63584 498.981706 
L 326.048403 501.380097 
L 330.460966 501.957488 
L 334.873529 501.868659 
L 339.286092 501.957488 
L 343.698655 502.534878 
L 348.111218 504.400294 
L 352.523782 505.732733 
L 356.936345 506.310124 
L 361.348908 506.265709 
L 365.761471 506.043636 
L 370.174034 506.354538 
L 383.411723 509.863296 
L 387.824286 510.307442 
L 392.236849 510.396272 
L 396.649412 510.66276 
L 401.061975 511.062492 
L 405.474538 511.950785 
L 409.887101 512.705834 
L 414.299664 512.972322 
L 418.712227 512.661419 
L 427.537353 511.639882 
L 431.949916 511.417809 
L 436.362479 511.551053 
L 445.187605 512.128443 
L 454.012731 512.306102 
L 458.425294 512.394931 
L 467.25042 513.105566 
L 471.662983 513.771785 
L 476.075546 514.127102 
L 480.488109 514.038273 
L 484.900672 513.549712 
L 493.725798 511.950785 
L 498.138361 511.462223 
L 502.550924 511.328979 
L 506.963487 511.684297 
L 511.37605 511.90637 
L 515.788613 511.950785 
L 520.201176 512.128443 
L 524.613739 512.128443 
L 529.026303 512.350516 
L 537.851429 513.283224 
L 555.501681 515.503957 
L 559.914244 515.992518 
L 564.326807 516.30342 
L 568.73937 516.436664 
L 573.151933 516.436664 
L 581.977059 516.259006 
L 586.389622 516.259006 
L 595.214748 516.703152 
L 599.627311 516.925226 
L 608.452437 517.014055 
L 612.865 516.96964 
L 621.690126 517.191713 
L 634.927815 517.857933 
L 639.340378 517.813519 
L 643.752941 517.591445 
L 652.578067 516.96964 
L 674.640882 515.548371 
L 687.878571 513.594127 
L 692.291134 513.061151 
L 696.703697 512.661419 
L 705.528824 512.394931 
L 709.941387 512.261687 
L 714.35395 511.861955 
L 718.766513 511.328979 
L 723.179076 510.440686 
L 727.591639 509.285905 
L 732.004202 507.642563 
L 740.829328 504.755611 
L 745.241891 503.467586 
L 749.654454 502.490464 
L 771.717269 496.494486 
L 776.129832 495.117631 
L 780.542395 493.518704 
L 784.954958 492.408338 
L 789.367521 491.431215 
L 793.780084 491.031483 
L 798.192647 491.653289 
L 802.60521 492.763655 
L 807.017773 494.273753 
L 811.430336 495.428534 
L 815.842899 496.272412 
L 820.255462 496.805388 
L 824.668025 496.983047 
L 833.493151 496.894218 
L 837.905714 497.293949 
L 846.73084 497.560437 
L 855.555966 497.382779 
L 859.968529 497.249535 
L 868.793655 497.338364 
L 873.206218 496.894218 
L 877.618782 496.094754 
L 886.443908 492.941313 
L 890.856471 490.676166 
L 895.269034 488.633092 
L 899.681597 486.145872 
L 904.09416 483.436578 
L 908.506723 480.993772 
L 912.919286 478.151234 
L 917.331849 475.175453 
L 921.744412 473.043549 
L 926.156975 470.37867 
L 930.569538 467.980279 
L 934.982101 465.3154 
L 939.394664 461.051593 
L 943.807227 456.165982 
L 952.632353 444.573757 
L 957.044916 439.288414 
L 961.457479 434.624875 
L 965.870042 430.138996 
L 970.282605 425.297798 
L 974.695168 419.612723 
L 979.107731 413.527916 
L 983.520294 406.998962 
L 987.932857 401.580374 
L 996.757983 391.675907 
L 1001.170546 387.367686 
L 1005.583109 381.77144 
L 1009.995672 374.398607 
L 1014.408235 366.315141 
L 1023.233361 345.662327 
L 1027.645924 334.869567 
L 1032.058487 321.589586 
L 1036.47105 307.332483 
L 1045.296176 272.955542 
L 1054.121303 240.754919 
L 1058.533866 227.208451 
L 1067.358992 201.892099 
L 1071.771555 190.077801 
L 1076.184118 178.840895 
L 1080.596681 170.668599 
L 1089.421807 159.476106 
L 1093.83437 152.902738 
L 1098.246933 141.843489 
L 1102.659496 131.228388 
L 1111.484622 104.268694 
L 1115.897185 92.365567 
L 1120.309748 88.945639 
L 1124.722311 86.458418 
L 1129.134874 88.590322 
L 1133.547437 89.478615 
L 1137.96 93.564763 
L 1137.96 93.564763 
" style="fill:none;stroke:#000000;stroke-linecap:square;stroke-width:1.5;"/>
   </g>
   <g id="patch_3">
    <path d="M 87.77 541.28 
L 87.77 37.72 
" style="fill:none;stroke:#555555;stroke-linecap:square;stroke-linejoin:miter;"/>
   </g>
   <g id="patch_4">
    <path d="M 87.77 541.28 
L 1137.96 541.28 
" style="fill:none;stroke:#555555;stroke-linecap:square;stroke-linejoin:miter;"/>
   </g>
   <g id="text_15">
    <!-- Last updated on 29 October 2020 -->
    <g style="fill:#555555;" transform="translate(460.802969 27.72)scale(0.18 -0.18)">
     <defs>
      <path d="M 9.8125 72.90625 
L 19.671875 72.90625 
L 19.671875 8.296875 
L 55.171875 8.296875 
L 55.171875 0 
L 9.8125 0 
z
" id="DejaVuSans-76"/>
      <path d="M 18.3125 70.21875 
L 18.3125 54.6875 
L 36.8125 54.6875 
L 36.8125 47.703125 
L 18.3125 47.703125 
L 18.3125 18.015625 
Q 18.3125 11.328125 20.140625 9.421875 
Q 21.96875 7.515625 27.59375 7.515625 
L 36.8125 7.515625 
L 36.8125 0 
L 27.59375 0 
Q 17.1875 0 13.234375 3.875 
Q 9.28125 7.765625 9.28125 18.015625 
L 9.28125 47.703125 
L 2.6875 47.703125 
L 2.6875 54.6875 
L 9.28125 54.6875 
L 9.28125 70.21875 
z
" id="DejaVuSans-116"/>
      <path d="M 8.5 21.578125 
L 8.5 54.6875 
L 17.484375 54.6875 
L 17.484375 21.921875 
Q 17.484375 14.15625 20.5 10.265625 
Q 23.53125 6.390625 29.59375 6.390625 
Q 36.859375 6.390625 41.078125 11.03125 
Q 45.3125 15.671875 45.3125 23.6875 
L 45.3125 54.6875 
L 54.296875 54.6875 
L 54.296875 0 
L 45.3125 0 
L 45.3125 8.40625 
Q 42.046875 3.421875 37.71875 1 
Q 33.40625 -1.421875 27.6875 -1.421875 
Q 18.265625 -1.421875 13.375 4.4375 
Q 8.5 10.296875 8.5 21.578125 
z
M 31.109375 56 
z
" id="DejaVuSans-117"/>
      <path d="M 18.109375 8.203125 
L 18.109375 -20.796875 
L 9.078125 -20.796875 
L 9.078125 54.6875 
L 18.109375 54.6875 
L 18.109375 46.390625 
Q 20.953125 51.265625 25.265625 53.625 
Q 29.59375 56 35.59375 56 
Q 45.5625 56 51.78125 48.09375 
Q 58.015625 40.1875 58.015625 27.296875 
Q 58.015625 14.40625 51.78125 6.484375 
Q 45.5625 -1.421875 35.59375 -1.421875 
Q 29.59375 -1.421875 25.265625 0.953125 
Q 20.953125 3.328125 18.109375 8.203125 
z
M 48.6875 27.296875 
Q 48.6875 37.203125 44.609375 42.84375 
Q 40.53125 48.484375 33.40625 48.484375 
Q 26.265625 48.484375 22.1875 42.84375 
Q 18.109375 37.203125 18.109375 27.296875 
Q 18.109375 17.390625 22.1875 11.75 
Q 26.265625 6.109375 33.40625 6.109375 
Q 40.53125 6.109375 44.609375 11.75 
Q 48.6875 17.390625 48.6875 27.296875 
z
" id="DejaVuSans-112"/>
      <path d="M 45.40625 46.390625 
L 45.40625 75.984375 
L 54.390625 75.984375 
L 54.390625 0 
L 45.40625 0 
L 45.40625 8.203125 
Q 42.578125 3.328125 38.25 0.953125 
Q 33.9375 -1.421875 27.875 -1.421875 
Q 17.96875 -1.421875 11.734375 6.484375 
Q 5.515625 14.40625 5.515625 27.296875 
Q 5.515625 40.1875 11.734375 48.09375 
Q 17.96875 56 27.875 56 
Q 33.9375 56 38.25 53.625 
Q 42.578125 51.265625 45.40625 46.390625 
z
M 14.796875 27.296875 
Q 14.796875 17.390625 18.875 11.75 
Q 22.953125 6.109375 30.078125 6.109375 
Q 37.203125 6.109375 41.296875 11.75 
Q 45.40625 17.390625 45.40625 27.296875 
Q 45.40625 37.203125 41.296875 42.84375 
Q 37.203125 48.484375 30.078125 48.484375 
Q 22.953125 48.484375 18.875 42.84375 
Q 14.796875 37.203125 14.796875 27.296875 
z
" id="DejaVuSans-100"/>
      <path d="M 30.609375 48.390625 
Q 23.390625 48.390625 19.1875 42.75 
Q 14.984375 37.109375 14.984375 27.296875 
Q 14.984375 17.484375 19.15625 11.84375 
Q 23.34375 6.203125 30.609375 6.203125 
Q 37.796875 6.203125 41.984375 11.859375 
Q 46.1875 17.53125 46.1875 27.296875 
Q 46.1875 37.015625 41.984375 42.703125 
Q 37.796875 48.390625 30.609375 48.390625 
z
M 30.609375 56 
Q 42.328125 56 49.015625 48.375 
Q 55.71875 40.765625 55.71875 27.296875 
Q 55.71875 13.875 49.015625 6.21875 
Q 42.328125 -1.421875 30.609375 -1.421875 
Q 18.84375 -1.421875 12.171875 6.21875 
Q 5.515625 13.875 5.515625 27.296875 
Q 5.515625 40.765625 12.171875 48.375 
Q 18.84375 56 30.609375 56 
z
" id="DejaVuSans-111"/>
      <path d="M 54.890625 33.015625 
L 54.890625 0 
L 45.90625 0 
L 45.90625 32.71875 
Q 45.90625 40.484375 42.875 44.328125 
Q 39.84375 48.1875 33.796875 48.1875 
Q 26.515625 48.1875 22.3125 43.546875 
Q 18.109375 38.921875 18.109375 30.90625 
L 18.109375 0 
L 9.078125 0 
L 9.078125 54.6875 
L 18.109375 54.6875 
L 18.109375 46.1875 
Q 21.34375 51.125 25.703125 53.5625 
Q 30.078125 56 35.796875 56 
Q 45.21875 56 50.046875 50.171875 
Q 54.890625 44.34375 54.890625 33.015625 
z
" id="DejaVuSans-110"/>
      <path d="M 19.1875 8.296875 
L 53.609375 8.296875 
L 53.609375 0 
L 7.328125 0 
L 7.328125 8.296875 
Q 12.9375 14.109375 22.625 23.890625 
Q 32.328125 33.6875 34.8125 36.53125 
Q 39.546875 41.84375 41.421875 45.53125 
Q 43.3125 49.21875 43.3125 52.78125 
Q 43.3125 58.59375 39.234375 62.25 
Q 35.15625 65.921875 28.609375 65.921875 
Q 23.96875 65.921875 18.8125 64.3125 
Q 13.671875 62.703125 7.8125 59.421875 
L 7.8125 69.390625 
Q 13.765625 71.78125 18.9375 73 
Q 24.125 74.21875 28.421875 74.21875 
Q 39.75 74.21875 46.484375 68.546875 
Q 53.21875 62.890625 53.21875 53.421875 
Q 53.21875 48.921875 51.53125 44.890625 
Q 49.859375 40.875 45.40625 35.40625 
Q 44.1875 33.984375 37.640625 27.21875 
Q 31.109375 20.453125 19.1875 8.296875 
z
" id="DejaVuSans-50"/>
      <path d="M 10.984375 1.515625 
L 10.984375 10.5 
Q 14.703125 8.734375 18.5 7.8125 
Q 22.3125 6.890625 25.984375 6.890625 
Q 35.75 6.890625 40.890625 13.453125 
Q 46.046875 20.015625 46.78125 33.40625 
Q 43.953125 29.203125 39.59375 26.953125 
Q 35.25 24.703125 29.984375 24.703125 
Q 19.046875 24.703125 12.671875 31.3125 
Q 6.296875 37.9375 6.296875 49.421875 
Q 6.296875 60.640625 12.9375 67.421875 
Q 19.578125 74.21875 30.609375 74.21875 
Q 43.265625 74.21875 49.921875 64.515625 
Q 56.59375 54.828125 56.59375 36.375 
Q 56.59375 19.140625 48.40625 8.859375 
Q 40.234375 -1.421875 26.421875 -1.421875 
Q 22.703125 -1.421875 18.890625 -0.6875 
Q 15.09375 0.046875 10.984375 1.515625 
z
M 30.609375 32.421875 
Q 37.25 32.421875 41.125 36.953125 
Q 45.015625 41.5 45.015625 49.421875 
Q 45.015625 57.28125 41.125 61.84375 
Q 37.25 66.40625 30.609375 66.40625 
Q 23.96875 66.40625 20.09375 61.84375 
Q 16.21875 57.28125 16.21875 49.421875 
Q 16.21875 41.5 20.09375 36.953125 
Q 23.96875 32.421875 30.609375 32.421875 
z
" id="DejaVuSans-57"/>
      <path d="M 39.40625 66.21875 
Q 28.65625 66.21875 22.328125 58.203125 
Q 16.015625 50.203125 16.015625 36.375 
Q 16.015625 22.609375 22.328125 14.59375 
Q 28.65625 6.59375 39.40625 6.59375 
Q 50.140625 6.59375 56.421875 14.59375 
Q 62.703125 22.609375 62.703125 36.375 
Q 62.703125 50.203125 56.421875 58.203125 
Q 50.140625 66.21875 39.40625 66.21875 
z
M 39.40625 74.21875 
Q 54.734375 74.21875 63.90625 63.9375 
Q 73.09375 53.65625 73.09375 36.375 
Q 73.09375 19.140625 63.90625 8.859375 
Q 54.734375 -1.421875 39.40625 -1.421875 
Q 24.03125 -1.421875 14.8125 8.828125 
Q 5.609375 19.09375 5.609375 36.375 
Q 5.609375 53.65625 14.8125 63.9375 
Q 24.03125 74.21875 39.40625 74.21875 
z
" id="DejaVuSans-79"/>
      <path d="M 48.78125 52.59375 
L 48.78125 44.1875 
Q 44.96875 46.296875 41.140625 47.34375 
Q 37.3125 48.390625 33.40625 48.390625 
Q 24.65625 48.390625 19.8125 42.84375 
Q 14.984375 37.3125 14.984375 27.296875 
Q 14.984375 17.28125 19.8125 11.734375 
Q 24.65625 6.203125 33.40625 6.203125 
Q 37.3125 6.203125 41.140625 7.25 
Q 44.96875 8.296875 48.78125 10.40625 
L 48.78125 2.09375 
Q 45.015625 0.34375 40.984375 -0.53125 
Q 36.96875 -1.421875 32.421875 -1.421875 
Q 20.0625 -1.421875 12.78125 6.34375 
Q 5.515625 14.109375 5.515625 27.296875 
Q 5.515625 40.671875 12.859375 48.328125 
Q 20.21875 56 33.015625 56 
Q 37.15625 56 41.109375 55.140625 
Q 45.0625 54.296875 48.78125 52.59375 
z
" id="DejaVuSans-99"/>
      <path d="M 48.6875 27.296875 
Q 48.6875 37.203125 44.609375 42.84375 
Q 40.53125 48.484375 33.40625 48.484375 
Q 26.265625 48.484375 22.1875 42.84375 
Q 18.109375 37.203125 18.109375 27.296875 
Q 18.109375 17.390625 22.1875 11.75 
Q 26.265625 6.109375 33.40625 6.109375 
Q 40.53125 6.109375 44.609375 11.75 
Q 48.6875 17.390625 48.6875 27.296875 
z
M 18.109375 46.390625 
Q 20.953125 51.265625 25.265625 53.625 
Q 29.59375 56 35.59375 56 
Q 45.5625 56 51.78125 48.09375 
Q 58.015625 40.1875 58.015625 27.296875 
Q 58.015625 14.40625 51.78125 6.484375 
Q 45.5625 -1.421875 35.59375 -1.421875 
Q 29.59375 -1.421875 25.265625 0.953125 
Q 20.953125 3.328125 18.109375 8.203125 
L 18.109375 0 
L 9.078125 0 
L 9.078125 75.984375 
L 18.109375 75.984375 
z
" id="DejaVuSans-98"/>
      <path d="M 41.109375 46.296875 
Q 39.59375 47.171875 37.8125 47.578125 
Q 36.03125 48 33.890625 48 
Q 26.265625 48 22.1875 43.046875 
Q 18.109375 38.09375 18.109375 28.8125 
L 18.109375 0 
L 9.078125 0 
L 9.078125 54.6875 
L 18.109375 54.6875 
L 18.109375 46.1875 
Q 20.953125 51.171875 25.484375 53.578125 
Q 30.03125 56 36.53125 56 
Q 37.453125 56 38.578125 55.875 
Q 39.703125 55.765625 41.0625 55.515625 
z
" id="DejaVuSans-114"/>
      <path d="M 31.78125 66.40625 
Q 24.171875 66.40625 20.328125 58.90625 
Q 16.5 51.421875 16.5 36.375 
Q 16.5 21.390625 20.328125 13.890625 
Q 24.171875 6.390625 31.78125 6.390625 
Q 39.453125 6.390625 43.28125 13.890625 
Q 47.125 21.390625 47.125 36.375 
Q 47.125 51.421875 43.28125 58.90625 
Q 39.453125 66.40625 31.78125 66.40625 
z
M 31.78125 74.21875 
Q 44.046875 74.21875 50.515625 64.515625 
Q 56.984375 54.828125 56.984375 36.375 
Q 56.984375 17.96875 50.515625 8.265625 
Q 44.046875 -1.421875 31.78125 -1.421875 
Q 19.53125 -1.421875 13.0625 8.265625 
Q 6.59375 17.96875 6.59375 36.375 
Q 6.59375 54.828125 13.0625 64.515625 
Q 19.53125 74.21875 31.78125 74.21875 
z
" id="DejaVuSans-48"/>
     </defs>
     <use xlink:href="#DejaVuSans-76"/>
     <use x="55.712891" xlink:href="#DejaVuSans-97"/>
     <use x="116.992188" xlink:href="#DejaVuSans-115"/>
     <use x="169.091797" xlink:href="#DejaVuSans-116"/>
     <use x="208.300781" xlink:href="#DejaVuSans-32"/>
     <use x="240.087891" xlink:href="#DejaVuSans-117"/>
     <use x="303.466797" xlink:href="#DejaVuSans-112"/>
     <use x="366.943359" xlink:href="#DejaVuSans-100"/>
     <use x="430.419922" xlink:href="#DejaVuSans-97"/>
     <use x="491.699219" xlink:href="#DejaVuSans-116"/>
     <use x="530.908203" xlink:href="#DejaVuSans-101"/>
     <use x="592.431641" xlink:href="#DejaVuSans-100"/>
     <use x="655.908203" xlink:href="#DejaVuSans-32"/>
     <use x="687.695312" xlink:href="#DejaVuSans-111"/>
     <use x="748.876953" xlink:href="#DejaVuSans-110"/>
     <use x="812.255859" xlink:href="#DejaVuSans-32"/>
     <use x="844.042969" xlink:href="#DejaVuSans-50"/>
     <use x="907.666016" xlink:href="#DejaVuSans-57"/>
     <use x="971.289062" xlink:href="#DejaVuSans-32"/>
     <use x="1003.076172" xlink:href="#DejaVuSans-79"/>
     <use x="1081.787109" xlink:href="#DejaVuSans-99"/>
     <use x="1136.767578" xlink:href="#DejaVuSans-116"/>
     <use x="1175.976562" xlink:href="#DejaVuSans-111"/>
     <use x="1237.158203" xlink:href="#DejaVuSans-98"/>
     <use x="1300.634766" xlink:href="#DejaVuSans-101"/>
     <use x="1362.158203" xlink:href="#DejaVuSans-114"/>
     <use x="1403.271484" xlink:href="#DejaVuSans-32"/>
     <use x="1435.058594" xlink:href="#DejaVuSans-50"/>
     <use x="1498.681641" xlink:href="#DejaVuSans-48"/>
     <use x="1562.304688" xlink:href="#DejaVuSans-50"/>
     <use x="1625.927734" xlink:href="#DejaVuSans-48"/>
    </g>
   </g>
   <g id="legend_1">
    <g id="line2d_16">
     <path d="M 99.47 54.747969 
L 125.47 54.747969 
" style="fill:none;stroke:#000000;stroke-dasharray:1.5,2.475;stroke-dashoffset:0;stroke-opacity:0.5;stroke-width:1.5;"/>
    </g>
    <g id="line2d_17"/>
    <g id="text_16">
     <!-- Actual -->
     <g style="fill:#555555;" transform="translate(135.87 59.297969)scale(0.13 -0.13)">
      <use xlink:href="#DejaVuSans-Bold-65"/>
      <use x="77.392578" xlink:href="#DejaVuSans-Bold-99"/>
      <use x="136.669922" xlink:href="#DejaVuSans-Bold-116"/>
      <use x="184.472656" xlink:href="#DejaVuSans-Bold-117"/>
      <use x="255.664062" xlink:href="#DejaVuSans-Bold-97"/>
      <use x="323.144531" xlink:href="#DejaVuSans-Bold-108"/>
     </g>
    </g>
    <g id="line2d_18">
     <path d="M 99.47 73.829531 
L 125.47 73.829531 
" style="fill:none;stroke:#000000;stroke-linecap:square;stroke-width:1.5;"/>
    </g>
    <g id="line2d_19"/>
    <g id="text_17">
     <!-- Smoothed -->
     <g style="fill:#555555;" transform="translate(135.87 78.379531)scale(0.13 -0.13)">
      <defs>
       <path d="M 63.375 33.296875 
L 63.375 0 
L 45.796875 0 
L 45.796875 5.421875 
L 45.796875 25.390625 
Q 45.796875 32.5625 45.484375 35.25 
Q 45.171875 37.9375 44.390625 39.203125 
Q 43.359375 40.921875 41.59375 41.875 
Q 39.84375 42.828125 37.59375 42.828125 
Q 32.125 42.828125 29 38.59375 
Q 25.875 34.375 25.875 26.90625 
L 25.875 0 
L 8.40625 0 
L 8.40625 75.984375 
L 25.875 75.984375 
L 25.875 46.6875 
Q 29.828125 51.46875 34.265625 53.734375 
Q 38.71875 56 44.09375 56 
Q 53.5625 56 58.46875 50.1875 
Q 63.375 44.390625 63.375 33.296875 
z
" id="DejaVuSans-Bold-104"/>
       <path d="M 45.609375 46.6875 
L 45.609375 75.984375 
L 63.1875 75.984375 
L 63.1875 0 
L 45.609375 0 
L 45.609375 7.90625 
Q 42 3.078125 37.640625 0.828125 
Q 33.296875 -1.421875 27.59375 -1.421875 
Q 17.484375 -1.421875 10.984375 6.609375 
Q 4.5 14.65625 4.5 27.296875 
Q 4.5 39.9375 10.984375 47.96875 
Q 17.484375 56 27.59375 56 
Q 33.25 56 37.625 53.734375 
Q 42 51.46875 45.609375 46.6875 
z
M 34.078125 11.28125 
Q 39.703125 11.28125 42.65625 15.375 
Q 45.609375 19.484375 45.609375 27.296875 
Q 45.609375 35.109375 42.65625 39.203125 
Q 39.703125 43.3125 34.078125 43.3125 
Q 28.515625 43.3125 25.5625 39.203125 
Q 22.609375 35.109375 22.609375 27.296875 
Q 22.609375 19.484375 25.5625 15.375 
Q 28.515625 11.28125 34.078125 11.28125 
z
" id="DejaVuSans-Bold-100"/>
      </defs>
      <use xlink:href="#DejaVuSans-Bold-83"/>
      <use x="72.021484" xlink:href="#DejaVuSans-Bold-109"/>
      <use x="176.220703" xlink:href="#DejaVuSans-Bold-111"/>
      <use x="244.921875" xlink:href="#DejaVuSans-Bold-111"/>
      <use x="313.623047" xlink:href="#DejaVuSans-Bold-116"/>
      <use x="361.425781" xlink:href="#DejaVuSans-Bold-104"/>
      <use x="432.617188" xlink:href="#DejaVuSans-Bold-101"/>
      <use x="500.439453" xlink:href="#DejaVuSans-Bold-100"/>
     </g>
    </g>
   </g>
  </g>
 </g>
 <defs>
  <clipPath id="p5702b831c3">
   <rect height="503.56" width="1050.19" x="87.77" y="37.72"/>
  </clipPath>
 </defs>
</svg>
