<?xml version="1.0" encoding="utf-8" standalone="no"?>
<!DOCTYPE svg PUBLIC "-//W3C//DTD SVG 1.1//EN"
  "http://www.w3.org/Graphics/SVG/1.1/DTD/svg11.dtd">
<!-- Created with matplotlib (https://matplotlib.org/) -->
<svg height="576pt" version="1.1" viewBox="0 0 1152 576" width="1152pt" xmlns="http://www.w3.org/2000/svg" xmlns:xlink="http://www.w3.org/1999/xlink">
 <metadata>
  <rdf:RDF xmlns:cc="http://creativecommons.org/ns#" xmlns:dc="http://purl.org/dc/elements/1.1/" xmlns:rdf="http://www.w3.org/1999/02/22-rdf-syntax-ns#">
   <cc:Work>
    <dc:type rdf:resource="http://purl.org/dc/dcmitype/StillImage"/>
    <dc:date>2021-03-12T17:36:10.481697</dc:date>
    <dc:format>image/svg+xml</dc:format>
    <dc:creator>
     <cc:Agent>
      <dc:title>Matplotlib v3.3.4, https://matplotlib.org/</dc:title>
     </cc:Agent>
    </dc:creator>
   </cc:Work>
  </rdf:RDF>
 </metadata>
 <defs>
  <style type="text/css">*{stroke-linecap:butt;stroke-linejoin:round;}</style>
 </defs>
 <g id="figure_1">
  <g id="patch_1">
   <path d="M 0 576 
L 1152 576 
L 1152 0 
L 0 0 
z
" style="fill:#ffffff;"/>
  </g>
  <g id="axes_1">
   <g id="patch_2">
    <path d="M 87.95 541.28 
L 1137.96 541.28 
L 1137.96 37.72 
L 87.95 37.72 
z
" style="fill:#ffffff;"/>
   </g>
   <g id="matplotlib.axis_1">
    <g id="xtick_1">
     <g id="line2d_1">
      <defs>
       <path d="M 0 0 
L 0 3.5 
" id="mb5406ccc93" style="stroke:#555555;stroke-width:0.8;"/>
      </defs>
      <g>
       <use style="fill:#555555;stroke:#555555;stroke-width:0.8;" x="164.160403" xlink:href="#mb5406ccc93" y="541.28"/>
      </g>
     </g>
     <g id="text_1">
      <!-- April -->
      <g style="fill:#555555;" transform="translate(145.481341 558.917812)scale(0.14 -0.14)">
       <defs>
        <path d="M 53.421875 13.28125 
L 24.03125 13.28125 
L 19.390625 0 
L 0.484375 0 
L 27.484375 72.90625 
L 49.90625 72.90625 
L 76.90625 0 
L 58.015625 0 
z
M 28.71875 26.8125 
L 48.6875 26.8125 
L 38.71875 55.8125 
z
" id="DejaVuSans-Bold-65"/>
        <path d="M 25.875 7.90625 
L 25.875 -20.796875 
L 8.40625 -20.796875 
L 8.40625 54.6875 
L 25.875 54.6875 
L 25.875 46.6875 
Q 29.5 51.46875 33.890625 53.734375 
Q 38.28125 56 44 56 
Q 54.109375 56 60.59375 47.96875 
Q 67.09375 39.9375 67.09375 27.296875 
Q 67.09375 14.65625 60.59375 6.609375 
Q 54.109375 -1.421875 44 -1.421875 
Q 38.28125 -1.421875 33.890625 0.84375 
Q 29.5 3.125 25.875 7.90625 
z
M 37.5 43.3125 
Q 31.890625 43.3125 28.875 39.1875 
Q 25.875 35.0625 25.875 27.296875 
Q 25.875 19.53125 28.875 15.40625 
Q 31.890625 11.28125 37.5 11.28125 
Q 43.109375 11.28125 46.0625 15.375 
Q 49.03125 19.484375 49.03125 27.296875 
Q 49.03125 35.109375 46.0625 39.203125 
Q 43.109375 43.3125 37.5 43.3125 
z
" id="DejaVuSans-Bold-112"/>
        <path d="M 49.03125 39.796875 
Q 46.734375 40.875 44.453125 41.375 
Q 42.1875 41.890625 39.890625 41.890625 
Q 33.15625 41.890625 29.515625 37.5625 
Q 25.875 33.25 25.875 25.203125 
L 25.875 0 
L 8.40625 0 
L 8.40625 54.6875 
L 25.875 54.6875 
L 25.875 45.703125 
Q 29.25 51.078125 33.609375 53.53125 
Q 37.984375 56 44.09375 56 
Q 44.96875 56 45.984375 55.921875 
Q 47.015625 55.859375 48.96875 55.609375 
z
" id="DejaVuSans-Bold-114"/>
        <path d="M 8.40625 54.6875 
L 25.875 54.6875 
L 25.875 0 
L 8.40625 0 
z
M 8.40625 75.984375 
L 25.875 75.984375 
L 25.875 61.71875 
L 8.40625 61.71875 
z
" id="DejaVuSans-Bold-105"/>
        <path d="M 8.40625 75.984375 
L 25.875 75.984375 
L 25.875 0 
L 8.40625 0 
z
" id="DejaVuSans-Bold-108"/>
       </defs>
       <use xlink:href="#DejaVuSans-Bold-65"/>
       <use x="77.392578" xlink:href="#DejaVuSans-Bold-112"/>
       <use x="148.974609" xlink:href="#DejaVuSans-Bold-114"/>
       <use x="198.291016" xlink:href="#DejaVuSans-Bold-105"/>
       <use x="232.568359" xlink:href="#DejaVuSans-Bold-108"/>
      </g>
     </g>
    </g>
    <g id="xtick_2">
     <g id="line2d_2">
      <g>
       <use style="fill:#555555;stroke:#555555;stroke-width:0.8;" x="248.838629" xlink:href="#mb5406ccc93" y="541.28"/>
      </g>
     </g>
     <g id="text_2">
      <!-- May -->
      <g style="fill:#555555;" transform="translate(232.804254 558.808437)scale(0.14 -0.14)">
       <defs>
        <path d="M 9.1875 72.90625 
L 33.109375 72.90625 
L 49.703125 33.890625 
L 66.40625 72.90625 
L 90.28125 72.90625 
L 90.28125 0 
L 72.515625 0 
L 72.515625 53.328125 
L 55.71875 14.015625 
L 43.796875 14.015625 
L 27 53.328125 
L 27 0 
L 9.1875 0 
z
" id="DejaVuSans-Bold-77"/>
        <path d="M 32.90625 24.609375 
Q 27.4375 24.609375 24.671875 22.75 
Q 21.921875 20.90625 21.921875 17.28125 
Q 21.921875 13.96875 24.140625 12.078125 
Q 26.375 10.203125 30.328125 10.203125 
Q 35.25 10.203125 38.625 13.734375 
Q 42 17.28125 42 22.609375 
L 42 24.609375 
z
M 59.625 31.203125 
L 59.625 0 
L 42 0 
L 42 8.109375 
Q 38.484375 3.125 34.078125 0.84375 
Q 29.6875 -1.421875 23.390625 -1.421875 
Q 14.890625 -1.421875 9.59375 3.53125 
Q 4.296875 8.5 4.296875 16.40625 
Q 4.296875 26.03125 10.90625 30.515625 
Q 17.53125 35.015625 31.6875 35.015625 
L 42 35.015625 
L 42 36.375 
Q 42 40.53125 38.71875 42.453125 
Q 35.453125 44.390625 28.515625 44.390625 
Q 22.90625 44.390625 18.0625 43.265625 
Q 13.234375 42.140625 9.078125 39.890625 
L 9.078125 53.21875 
Q 14.703125 54.59375 20.359375 55.296875 
Q 26.03125 56 31.6875 56 
Q 46.484375 56 53.046875 50.171875 
Q 59.625 44.34375 59.625 31.203125 
z
" id="DejaVuSans-Bold-97"/>
        <path d="M 1.21875 54.6875 
L 18.703125 54.6875 
L 33.40625 17.578125 
L 45.90625 54.6875 
L 63.375 54.6875 
L 40.375 -5.171875 
Q 36.921875 -14.3125 32.296875 -17.9375 
Q 27.6875 -21.578125 20.125 -21.578125 
L 10.015625 -21.578125 
L 10.015625 -10.109375 
L 15.484375 -10.109375 
Q 19.921875 -10.109375 21.9375 -8.6875 
Q 23.96875 -7.28125 25.09375 -3.609375 
L 25.59375 -2.09375 
z
" id="DejaVuSans-Bold-121"/>
       </defs>
       <use xlink:href="#DejaVuSans-Bold-77"/>
       <use x="99.511719" xlink:href="#DejaVuSans-Bold-97"/>
       <use x="163.867188" xlink:href="#DejaVuSans-Bold-121"/>
      </g>
     </g>
    </g>
    <g id="xtick_3">
     <g id="line2d_3">
      <g>
       <use style="fill:#555555;stroke:#555555;stroke-width:0.8;" x="336.339462" xlink:href="#mb5406ccc93" y="541.28"/>
      </g>
     </g>
     <g id="text_3">
      <!-- June -->
      <g style="fill:#555555;" transform="translate(319.021025 558.917812)scale(0.14 -0.14)">
       <defs>
        <path d="M 9.1875 72.90625 
L 27.984375 72.90625 
L 27.984375 7.078125 
Q 27.984375 -6.546875 20.578125 -13.28125 
Q 13.1875 -20.015625 -1.8125 -20.015625 
L -5.609375 -20.015625 
L -5.609375 -5.8125 
L -2.6875 -5.8125 
Q 3.171875 -5.8125 6.171875 -2.53125 
Q 9.1875 0.734375 9.1875 7.078125 
z
" id="DejaVuSans-Bold-74"/>
        <path d="M 7.8125 21.296875 
L 7.8125 54.6875 
L 25.390625 54.6875 
L 25.390625 49.21875 
Q 25.390625 44.78125 25.34375 38.0625 
Q 25.296875 31.34375 25.296875 29.109375 
Q 25.296875 22.515625 25.640625 19.609375 
Q 25.984375 16.703125 26.8125 15.375 
Q 27.875 13.671875 29.609375 12.734375 
Q 31.34375 11.8125 33.59375 11.8125 
Q 39.0625 11.8125 42.1875 16.015625 
Q 45.3125 20.21875 45.3125 27.6875 
L 45.3125 54.6875 
L 62.796875 54.6875 
L 62.796875 0 
L 45.3125 0 
L 45.3125 7.90625 
Q 41.359375 3.125 36.9375 0.84375 
Q 32.515625 -1.421875 27.203125 -1.421875 
Q 17.71875 -1.421875 12.765625 4.390625 
Q 7.8125 10.203125 7.8125 21.296875 
z
" id="DejaVuSans-Bold-117"/>
        <path d="M 63.375 33.296875 
L 63.375 0 
L 45.796875 0 
L 45.796875 5.421875 
L 45.796875 25.484375 
Q 45.796875 32.5625 45.484375 35.25 
Q 45.171875 37.9375 44.390625 39.203125 
Q 43.359375 40.921875 41.59375 41.875 
Q 39.84375 42.828125 37.59375 42.828125 
Q 32.125 42.828125 29 38.59375 
Q 25.875 34.375 25.875 26.90625 
L 25.875 0 
L 8.40625 0 
L 8.40625 54.6875 
L 25.875 54.6875 
L 25.875 46.6875 
Q 29.828125 51.46875 34.265625 53.734375 
Q 38.71875 56 44.09375 56 
Q 53.5625 56 58.46875 50.1875 
Q 63.375 44.390625 63.375 33.296875 
z
" id="DejaVuSans-Bold-110"/>
        <path d="M 62.984375 27.484375 
L 62.984375 22.515625 
L 22.125 22.515625 
Q 22.75 16.359375 26.5625 13.28125 
Q 30.375 10.203125 37.203125 10.203125 
Q 42.71875 10.203125 48.5 11.84375 
Q 54.296875 13.484375 60.40625 16.796875 
L 60.40625 3.328125 
Q 54.203125 0.984375 48 -0.21875 
Q 41.796875 -1.421875 35.59375 -1.421875 
Q 20.75 -1.421875 12.515625 6.125 
Q 4.296875 13.671875 4.296875 27.296875 
Q 4.296875 40.671875 12.375 48.328125 
Q 20.453125 56 34.625 56 
Q 47.515625 56 55.25 48.234375 
Q 62.984375 40.484375 62.984375 27.484375 
z
M 45.015625 33.296875 
Q 45.015625 38.28125 42.109375 41.328125 
Q 39.203125 44.390625 34.515625 44.390625 
Q 29.4375 44.390625 26.265625 41.53125 
Q 23.09375 38.671875 22.3125 33.296875 
z
" id="DejaVuSans-Bold-101"/>
       </defs>
       <use xlink:href="#DejaVuSans-Bold-74"/>
       <use x="37.207031" xlink:href="#DejaVuSans-Bold-117"/>
       <use x="108.398438" xlink:href="#DejaVuSans-Bold-110"/>
       <use x="179.589844" xlink:href="#DejaVuSans-Bold-101"/>
      </g>
     </g>
    </g>
    <g id="xtick_4">
     <g id="line2d_4">
      <g>
       <use style="fill:#555555;stroke:#555555;stroke-width:0.8;" x="421.017688" xlink:href="#mb5406ccc93" y="541.28"/>
      </g>
     </g>
     <g id="text_4">
      <!-- July -->
      <g style="fill:#555555;" transform="translate(406.467532 558.917812)scale(0.14 -0.14)">
       <use xlink:href="#DejaVuSans-Bold-74"/>
       <use x="37.207031" xlink:href="#DejaVuSans-Bold-117"/>
       <use x="108.398438" xlink:href="#DejaVuSans-Bold-108"/>
       <use x="142.675781" xlink:href="#DejaVuSans-Bold-121"/>
      </g>
     </g>
    </g>
    <g id="xtick_5">
     <g id="line2d_5">
      <g>
       <use style="fill:#555555;stroke:#555555;stroke-width:0.8;" x="508.518522" xlink:href="#mb5406ccc93" y="541.28"/>
      </g>
     </g>
     <g id="text_5">
      <!-- August -->
      <g style="fill:#555555;" transform="translate(480.612584 558.808437)scale(0.14 -0.14)">
       <defs>
        <path d="M 45.609375 9.28125 
Q 42 4.5 37.640625 2.25 
Q 33.296875 0 27.59375 0 
Q 17.578125 0 11.03125 7.875 
Q 4.5 15.765625 4.5 27.984375 
Q 4.5 40.234375 11.03125 48.0625 
Q 17.578125 55.90625 27.59375 55.90625 
Q 33.296875 55.90625 37.640625 53.65625 
Q 42 51.421875 45.609375 46.578125 
L 45.609375 54.6875 
L 63.1875 54.6875 
L 63.1875 5.515625 
Q 63.1875 -7.671875 54.859375 -14.625 
Q 46.53125 -21.578125 30.71875 -21.578125 
Q 25.59375 -21.578125 20.796875 -20.796875 
Q 16.015625 -20.015625 11.1875 -18.40625 
L 11.1875 -4.78125 
Q 15.765625 -7.421875 20.15625 -8.71875 
Q 24.5625 -10.015625 29 -10.015625 
Q 37.59375 -10.015625 41.59375 -6.25 
Q 45.609375 -2.484375 45.609375 5.515625 
z
M 34.078125 43.3125 
Q 28.65625 43.3125 25.625 39.296875 
Q 22.609375 35.296875 22.609375 27.984375 
Q 22.609375 20.453125 25.53125 16.578125 
Q 28.46875 12.703125 34.078125 12.703125 
Q 39.546875 12.703125 42.578125 16.703125 
Q 45.609375 20.703125 45.609375 27.984375 
Q 45.609375 35.296875 42.578125 39.296875 
Q 39.546875 43.3125 34.078125 43.3125 
z
" id="DejaVuSans-Bold-103"/>
        <path d="M 51.125 52.984375 
L 51.125 39.703125 
Q 45.515625 42.046875 40.28125 43.21875 
Q 35.0625 44.390625 30.421875 44.390625 
Q 25.4375 44.390625 23.015625 43.140625 
Q 20.609375 41.890625 20.609375 39.3125 
Q 20.609375 37.203125 22.4375 36.078125 
Q 24.265625 34.96875 29 34.421875 
L 32.078125 33.984375 
Q 45.515625 32.28125 50.140625 28.375 
Q 54.78125 24.46875 54.78125 16.109375 
Q 54.78125 7.375 48.328125 2.96875 
Q 41.890625 -1.421875 29.109375 -1.421875 
Q 23.6875 -1.421875 17.890625 -0.5625 
Q 12.109375 0.296875 6 2 
L 6 15.28125 
Q 11.234375 12.75 16.71875 11.46875 
Q 22.21875 10.203125 27.875 10.203125 
Q 33.015625 10.203125 35.59375 11.609375 
Q 38.1875 13.03125 38.1875 15.828125 
Q 38.1875 18.171875 36.40625 19.3125 
Q 34.625 20.453125 29.296875 21.09375 
L 26.21875 21.484375 
Q 14.546875 22.953125 9.859375 26.90625 
Q 5.171875 30.859375 5.171875 38.921875 
Q 5.171875 47.609375 11.125 51.796875 
Q 17.09375 56 29.390625 56 
Q 34.234375 56 39.546875 55.265625 
Q 44.875 54.546875 51.125 52.984375 
z
" id="DejaVuSans-Bold-115"/>
        <path d="M 27.484375 70.21875 
L 27.484375 54.6875 
L 45.515625 54.6875 
L 45.515625 42.1875 
L 27.484375 42.1875 
L 27.484375 19 
Q 27.484375 15.1875 29 13.84375 
Q 30.515625 12.5 35.015625 12.5 
L 44 12.5 
L 44 0 
L 29 0 
Q 18.65625 0 14.328125 4.3125 
Q 10.015625 8.640625 10.015625 19 
L 10.015625 42.1875 
L 1.3125 42.1875 
L 1.3125 54.6875 
L 10.015625 54.6875 
L 10.015625 70.21875 
z
" id="DejaVuSans-Bold-116"/>
       </defs>
       <use xlink:href="#DejaVuSans-Bold-65"/>
       <use x="77.392578" xlink:href="#DejaVuSans-Bold-117"/>
       <use x="148.583984" xlink:href="#DejaVuSans-Bold-103"/>
       <use x="220.166016" xlink:href="#DejaVuSans-Bold-117"/>
       <use x="291.357422" xlink:href="#DejaVuSans-Bold-115"/>
       <use x="350.878906" xlink:href="#DejaVuSans-Bold-116"/>
      </g>
     </g>
    </g>
    <g id="xtick_6">
     <g id="line2d_6">
      <g>
       <use style="fill:#555555;stroke:#555555;stroke-width:0.8;" x="596.019355" xlink:href="#mb5406ccc93" y="541.28"/>
      </g>
     </g>
     <g id="text_6">
      <!-- September -->
      <g style="fill:#555555;" transform="translate(552.621542 558.917812)scale(0.14 -0.14)">
       <defs>
        <path d="M 59.90625 70.609375 
L 59.90625 55.171875 
Q 53.90625 57.859375 48.1875 59.21875 
Q 42.484375 60.59375 37.40625 60.59375 
Q 30.671875 60.59375 27.4375 58.734375 
Q 24.21875 56.890625 24.21875 52.984375 
Q 24.21875 50.046875 26.390625 48.40625 
Q 28.5625 46.78125 34.28125 45.609375 
L 42.28125 44 
Q 54.4375 41.546875 59.5625 36.5625 
Q 64.703125 31.59375 64.703125 22.40625 
Q 64.703125 10.359375 57.546875 4.46875 
Q 50.390625 -1.421875 35.6875 -1.421875 
Q 28.765625 -1.421875 21.78125 -0.09375 
Q 14.796875 1.21875 7.8125 3.8125 
L 7.8125 19.671875 
Q 14.796875 15.96875 21.3125 14.078125 
Q 27.828125 12.203125 33.890625 12.203125 
Q 40.046875 12.203125 43.3125 14.25 
Q 46.578125 16.3125 46.578125 20.125 
Q 46.578125 23.53125 44.359375 25.390625 
Q 42.140625 27.25 35.5 28.71875 
L 28.21875 30.328125 
Q 17.28125 32.671875 12.21875 37.796875 
Q 7.171875 42.921875 7.171875 51.609375 
Q 7.171875 62.5 14.203125 68.359375 
Q 21.234375 74.21875 34.421875 74.21875 
Q 40.4375 74.21875 46.78125 73.3125 
Q 53.125 72.40625 59.90625 70.609375 
z
" id="DejaVuSans-Bold-83"/>
        <path d="M 59.078125 45.609375 
Q 62.40625 50.6875 66.96875 53.34375 
Q 71.53125 56 77 56 
Q 86.421875 56 91.359375 50.1875 
Q 96.296875 44.390625 96.296875 33.296875 
L 96.296875 0 
L 78.71875 0 
L 78.71875 28.515625 
Q 78.765625 29.15625 78.78125 29.828125 
Q 78.8125 30.515625 78.8125 31.78125 
Q 78.8125 37.59375 77.09375 40.203125 
Q 75.390625 42.828125 71.578125 42.828125 
Q 66.609375 42.828125 63.890625 38.71875 
Q 61.1875 34.625 61.078125 26.859375 
L 61.078125 0 
L 43.5 0 
L 43.5 28.515625 
Q 43.5 37.59375 41.9375 40.203125 
Q 40.375 42.828125 36.375 42.828125 
Q 31.34375 42.828125 28.609375 38.703125 
Q 25.875 34.578125 25.875 26.90625 
L 25.875 0 
L 8.296875 0 
L 8.296875 54.6875 
L 25.875 54.6875 
L 25.875 46.6875 
Q 29.109375 51.3125 33.28125 53.65625 
Q 37.453125 56 42.484375 56 
Q 48.140625 56 52.484375 53.265625 
Q 56.84375 50.53125 59.078125 45.609375 
z
" id="DejaVuSans-Bold-109"/>
        <path d="M 37.5 11.28125 
Q 43.109375 11.28125 46.0625 15.375 
Q 49.03125 19.484375 49.03125 27.296875 
Q 49.03125 35.109375 46.0625 39.203125 
Q 43.109375 43.3125 37.5 43.3125 
Q 31.890625 43.3125 28.875 39.1875 
Q 25.875 35.0625 25.875 27.296875 
Q 25.875 19.53125 28.875 15.40625 
Q 31.890625 11.28125 37.5 11.28125 
z
M 25.875 46.6875 
Q 29.5 51.46875 33.890625 53.734375 
Q 38.28125 56 44 56 
Q 54.109375 56 60.59375 47.96875 
Q 67.09375 39.9375 67.09375 27.296875 
Q 67.09375 14.65625 60.59375 6.609375 
Q 54.109375 -1.421875 44 -1.421875 
Q 38.28125 -1.421875 33.890625 0.84375 
Q 29.5 3.125 25.875 7.90625 
L 25.875 0 
L 8.40625 0 
L 8.40625 75.984375 
L 25.875 75.984375 
z
" id="DejaVuSans-Bold-98"/>
       </defs>
       <use xlink:href="#DejaVuSans-Bold-83"/>
       <use x="72.021484" xlink:href="#DejaVuSans-Bold-101"/>
       <use x="139.84375" xlink:href="#DejaVuSans-Bold-112"/>
       <use x="211.425781" xlink:href="#DejaVuSans-Bold-116"/>
       <use x="259.228516" xlink:href="#DejaVuSans-Bold-101"/>
       <use x="327.050781" xlink:href="#DejaVuSans-Bold-109"/>
       <use x="431.25" xlink:href="#DejaVuSans-Bold-98"/>
       <use x="502.832031" xlink:href="#DejaVuSans-Bold-101"/>
       <use x="570.654297" xlink:href="#DejaVuSans-Bold-114"/>
      </g>
     </g>
    </g>
    <g id="xtick_7">
     <g id="line2d_7">
      <g>
       <use style="fill:#555555;stroke:#555555;stroke-width:0.8;" x="680.697581" xlink:href="#mb5406ccc93" y="541.28"/>
      </g>
     </g>
     <g id="text_7">
      <!-- October -->
      <g style="fill:#555555;" transform="translate(649.231487 558.917812)scale(0.14 -0.14)">
       <defs>
        <path d="M 42.484375 60.59375 
Q 33.890625 60.59375 29.15625 54.25 
Q 24.421875 47.90625 24.421875 36.375 
Q 24.421875 24.90625 29.15625 18.546875 
Q 33.890625 12.203125 42.484375 12.203125 
Q 51.125 12.203125 55.859375 18.546875 
Q 60.59375 24.90625 60.59375 36.375 
Q 60.59375 47.90625 55.859375 54.25 
Q 51.125 60.59375 42.484375 60.59375 
z
M 42.484375 74.21875 
Q 60.0625 74.21875 70.015625 64.15625 
Q 79.984375 54.109375 79.984375 36.375 
Q 79.984375 18.703125 70.015625 8.640625 
Q 60.0625 -1.421875 42.484375 -1.421875 
Q 24.953125 -1.421875 14.96875 8.640625 
Q 4.984375 18.703125 4.984375 36.375 
Q 4.984375 54.109375 14.96875 64.15625 
Q 24.953125 74.21875 42.484375 74.21875 
z
" id="DejaVuSans-Bold-79"/>
        <path d="M 52.59375 52.984375 
L 52.59375 38.71875 
Q 49.03125 41.15625 45.4375 42.328125 
Q 41.84375 43.5 37.984375 43.5 
Q 30.671875 43.5 26.59375 39.234375 
Q 22.515625 34.96875 22.515625 27.296875 
Q 22.515625 19.625 26.59375 15.34375 
Q 30.671875 11.078125 37.984375 11.078125 
Q 42.09375 11.078125 45.78125 12.296875 
Q 49.46875 13.53125 52.59375 15.921875 
L 52.59375 1.609375 
Q 48.484375 0.09375 44.265625 -0.65625 
Q 40.046875 -1.421875 35.796875 -1.421875 
Q 21 -1.421875 12.640625 6.171875 
Q 4.296875 13.765625 4.296875 27.296875 
Q 4.296875 40.828125 12.640625 48.40625 
Q 21 56 35.796875 56 
Q 40.09375 56 44.265625 55.25 
Q 48.4375 54.5 52.59375 52.984375 
z
" id="DejaVuSans-Bold-99"/>
        <path d="M 34.421875 43.5 
Q 28.609375 43.5 25.5625 39.328125 
Q 22.515625 35.15625 22.515625 27.296875 
Q 22.515625 19.4375 25.5625 15.25 
Q 28.609375 11.078125 34.421875 11.078125 
Q 40.140625 11.078125 43.15625 15.25 
Q 46.1875 19.4375 46.1875 27.296875 
Q 46.1875 35.15625 43.15625 39.328125 
Q 40.140625 43.5 34.421875 43.5 
z
M 34.421875 56 
Q 48.53125 56 56.46875 48.375 
Q 64.40625 40.765625 64.40625 27.296875 
Q 64.40625 13.8125 56.46875 6.1875 
Q 48.53125 -1.421875 34.421875 -1.421875 
Q 20.265625 -1.421875 12.28125 6.1875 
Q 4.296875 13.8125 4.296875 27.296875 
Q 4.296875 40.765625 12.28125 48.375 
Q 20.265625 56 34.421875 56 
z
" id="DejaVuSans-Bold-111"/>
       </defs>
       <use xlink:href="#DejaVuSans-Bold-79"/>
       <use x="85.009766" xlink:href="#DejaVuSans-Bold-99"/>
       <use x="144.287109" xlink:href="#DejaVuSans-Bold-116"/>
       <use x="192.089844" xlink:href="#DejaVuSans-Bold-111"/>
       <use x="260.791016" xlink:href="#DejaVuSans-Bold-98"/>
       <use x="332.373047" xlink:href="#DejaVuSans-Bold-101"/>
       <use x="400.195312" xlink:href="#DejaVuSans-Bold-114"/>
      </g>
     </g>
    </g>
    <g id="xtick_8">
     <g id="line2d_8">
      <g>
       <use style="fill:#555555;stroke:#555555;stroke-width:0.8;" x="768.198414" xlink:href="#mb5406ccc93" y="541.28"/>
      </g>
     </g>
     <g id="text_8">
      <!-- November -->
      <g style="fill:#555555;" transform="translate(727.715445 558.917812)scale(0.14 -0.14)">
       <defs>
        <path d="M 9.1875 72.90625 
L 30.171875 72.90625 
L 56.6875 22.90625 
L 56.6875 72.90625 
L 74.515625 72.90625 
L 74.515625 0 
L 53.515625 0 
L 27 50 
L 27 0 
L 9.1875 0 
z
" id="DejaVuSans-Bold-78"/>
        <path d="M 1.515625 54.6875 
L 19 54.6875 
L 32.625 16.890625 
L 46.1875 54.6875 
L 63.71875 54.6875 
L 42.1875 0 
L 23 0 
z
" id="DejaVuSans-Bold-118"/>
       </defs>
       <use xlink:href="#DejaVuSans-Bold-78"/>
       <use x="83.691406" xlink:href="#DejaVuSans-Bold-111"/>
       <use x="152.392578" xlink:href="#DejaVuSans-Bold-118"/>
       <use x="217.578125" xlink:href="#DejaVuSans-Bold-101"/>
       <use x="285.400391" xlink:href="#DejaVuSans-Bold-109"/>
       <use x="389.599609" xlink:href="#DejaVuSans-Bold-98"/>
       <use x="461.181641" xlink:href="#DejaVuSans-Bold-101"/>
       <use x="529.003906" xlink:href="#DejaVuSans-Bold-114"/>
      </g>
     </g>
    </g>
    <g id="xtick_9">
     <g id="line2d_9">
      <g>
       <use style="fill:#555555;stroke:#555555;stroke-width:0.8;" x="852.87664" xlink:href="#mb5406ccc93" y="541.28"/>
      </g>
     </g>
     <g id="text_9">
      <!-- December -->
      <g style="fill:#555555;" transform="translate(812.91539 558.917812)scale(0.14 -0.14)">
       <defs>
        <path d="M 27.984375 58.6875 
L 27.984375 14.203125 
L 34.71875 14.203125 
Q 46.234375 14.203125 52.3125 19.921875 
Q 58.40625 25.640625 58.40625 36.53125 
Q 58.40625 47.359375 52.34375 53.015625 
Q 46.296875 58.6875 34.71875 58.6875 
z
M 9.1875 72.90625 
L 29 72.90625 
Q 45.609375 72.90625 53.734375 70.53125 
Q 61.859375 68.171875 67.671875 62.5 
Q 72.796875 57.5625 75.28125 51.109375 
Q 77.78125 44.671875 77.78125 36.53125 
Q 77.78125 28.265625 75.28125 21.796875 
Q 72.796875 15.328125 67.671875 10.40625 
Q 61.8125 4.734375 53.609375 2.359375 
Q 45.40625 0 29 0 
L 9.1875 0 
z
" id="DejaVuSans-Bold-68"/>
       </defs>
       <use xlink:href="#DejaVuSans-Bold-68"/>
       <use x="83.007812" xlink:href="#DejaVuSans-Bold-101"/>
       <use x="150.830078" xlink:href="#DejaVuSans-Bold-99"/>
       <use x="210.107422" xlink:href="#DejaVuSans-Bold-101"/>
       <use x="277.929688" xlink:href="#DejaVuSans-Bold-109"/>
       <use x="382.128906" xlink:href="#DejaVuSans-Bold-98"/>
       <use x="453.710938" xlink:href="#DejaVuSans-Bold-101"/>
       <use x="521.533203" xlink:href="#DejaVuSans-Bold-114"/>
      </g>
     </g>
    </g>
    <g id="xtick_10">
     <g id="line2d_10">
      <g>
       <use style="fill:#555555;stroke:#555555;stroke-width:0.8;" x="940.377473" xlink:href="#mb5406ccc93" y="541.28"/>
      </g>
     </g>
     <g id="text_10">
      <!-- January -->
      <g style="fill:#555555;" transform="translate(910.344192 558.808437)scale(0.14 -0.14)">
       <use xlink:href="#DejaVuSans-Bold-74"/>
       <use x="37.207031" xlink:href="#DejaVuSans-Bold-97"/>
       <use x="104.6875" xlink:href="#DejaVuSans-Bold-110"/>
       <use x="175.878906" xlink:href="#DejaVuSans-Bold-117"/>
       <use x="247.070312" xlink:href="#DejaVuSans-Bold-97"/>
       <use x="314.550781" xlink:href="#DejaVuSans-Bold-114"/>
       <use x="363.867188" xlink:href="#DejaVuSans-Bold-121"/>
      </g>
     </g>
    </g>
    <g id="xtick_11">
     <g id="line2d_11">
      <g>
       <use style="fill:#555555;stroke:#555555;stroke-width:0.8;" x="1027.878306" xlink:href="#mb5406ccc93" y="541.28"/>
      </g>
     </g>
     <g id="text_11">
      <!-- February -->
      <g style="fill:#555555;" transform="translate(992.444088 558.917812)scale(0.14 -0.14)">
       <defs>
        <path d="M 9.1875 72.90625 
L 59.90625 72.90625 
L 59.90625 58.6875 
L 27.984375 58.6875 
L 27.984375 45.125 
L 58.015625 45.125 
L 58.015625 30.90625 
L 27.984375 30.90625 
L 27.984375 0 
L 9.1875 0 
z
" id="DejaVuSans-Bold-70"/>
       </defs>
       <use xlink:href="#DejaVuSans-Bold-70"/>
       <use x="64.310547" xlink:href="#DejaVuSans-Bold-101"/>
       <use x="132.132812" xlink:href="#DejaVuSans-Bold-98"/>
       <use x="203.714844" xlink:href="#DejaVuSans-Bold-114"/>
       <use x="253.03125" xlink:href="#DejaVuSans-Bold-117"/>
       <use x="324.222656" xlink:href="#DejaVuSans-Bold-97"/>
       <use x="391.703125" xlink:href="#DejaVuSans-Bold-114"/>
       <use x="441.019531" xlink:href="#DejaVuSans-Bold-121"/>
      </g>
     </g>
    </g>
    <g id="xtick_12">
     <g id="line2d_12">
      <g>
       <use style="fill:#555555;stroke:#555555;stroke-width:0.8;" x="1106.911317" xlink:href="#mb5406ccc93" y="541.28"/>
      </g>
     </g>
     <g id="text_12">
      <!-- March -->
      <g style="fill:#555555;" transform="translate(1082.63663 558.917812)scale(0.14 -0.14)">
       <defs>
        <path d="M 63.375 33.296875 
L 63.375 0 
L 45.796875 0 
L 45.796875 5.421875 
L 45.796875 25.390625 
Q 45.796875 32.5625 45.484375 35.25 
Q 45.171875 37.9375 44.390625 39.203125 
Q 43.359375 40.921875 41.59375 41.875 
Q 39.84375 42.828125 37.59375 42.828125 
Q 32.125 42.828125 29 38.59375 
Q 25.875 34.375 25.875 26.90625 
L 25.875 0 
L 8.40625 0 
L 8.40625 75.984375 
L 25.875 75.984375 
L 25.875 46.6875 
Q 29.828125 51.46875 34.265625 53.734375 
Q 38.71875 56 44.09375 56 
Q 53.5625 56 58.46875 50.1875 
Q 63.375 44.390625 63.375 33.296875 
z
" id="DejaVuSans-Bold-104"/>
       </defs>
       <use xlink:href="#DejaVuSans-Bold-77"/>
       <use x="99.511719" xlink:href="#DejaVuSans-Bold-97"/>
       <use x="166.992188" xlink:href="#DejaVuSans-Bold-114"/>
       <use x="216.308594" xlink:href="#DejaVuSans-Bold-99"/>
       <use x="275.585938" xlink:href="#DejaVuSans-Bold-104"/>
      </g>
     </g>
    </g>
   </g>
   <g id="matplotlib.axis_2">
    <g id="ytick_1">
     <g id="line2d_13">
      <defs>
       <path d="M 0 0 
L -3.5 0 
" id="m04d42ba438" style="stroke:#555555;stroke-width:0.8;"/>
      </defs>
      <g>
       <use style="fill:#555555;stroke:#555555;stroke-width:0.8;" x="87.95" xlink:href="#m04d42ba438" y="519.659003"/>
      </g>
     </g>
     <g id="text_13">
      <!-- 0 -->
      <g style="fill:#555555;" transform="translate(71.209063 524.977909)scale(0.14 -0.14)">
       <defs>
        <path d="M 46 36.53125 
Q 46 50.203125 43.4375 55.78125 
Q 40.875 61.375 34.8125 61.375 
Q 28.765625 61.375 26.171875 55.78125 
Q 23.578125 50.203125 23.578125 36.53125 
Q 23.578125 22.703125 26.171875 17.03125 
Q 28.765625 11.375 34.8125 11.375 
Q 40.828125 11.375 43.40625 17.03125 
Q 46 22.703125 46 36.53125 
z
M 64.796875 36.375 
Q 64.796875 18.265625 56.984375 8.421875 
Q 49.171875 -1.421875 34.8125 -1.421875 
Q 20.40625 -1.421875 12.59375 8.421875 
Q 4.78125 18.265625 4.78125 36.375 
Q 4.78125 54.546875 12.59375 64.375 
Q 20.40625 74.21875 34.8125 74.21875 
Q 49.171875 74.21875 56.984375 64.375 
Q 64.796875 54.546875 64.796875 36.375 
z
" id="DejaVuSans-Bold-48"/>
       </defs>
       <use xlink:href="#DejaVuSans-Bold-48"/>
      </g>
     </g>
    </g>
    <g id="ytick_2">
     <g id="line2d_14">
      <g>
       <use style="fill:#555555;stroke:#555555;stroke-width:0.8;" x="87.95" xlink:href="#m04d42ba438" y="449.209354"/>
      </g>
     </g>
     <g id="text_14">
      <!-- 2000 -->
      <g style="fill:#555555;" transform="translate(41.98625 454.52826)scale(0.14 -0.14)">
       <defs>
        <path d="M 28.8125 13.8125 
L 60.890625 13.8125 
L 60.890625 0 
L 7.90625 0 
L 7.90625 13.8125 
L 34.515625 37.3125 
Q 38.09375 40.53125 39.796875 43.609375 
Q 41.5 46.6875 41.5 50 
Q 41.5 55.125 38.0625 58.25 
Q 34.625 61.375 28.90625 61.375 
Q 24.515625 61.375 19.28125 59.5 
Q 14.0625 57.625 8.109375 53.90625 
L 8.109375 69.921875 
Q 14.453125 72.015625 20.65625 73.109375 
Q 26.859375 74.21875 32.8125 74.21875 
Q 45.90625 74.21875 53.15625 68.453125 
Q 60.40625 62.703125 60.40625 52.390625 
Q 60.40625 46.4375 57.328125 41.28125 
Q 54.25 36.140625 44.390625 27.484375 
z
" id="DejaVuSans-Bold-50"/>
       </defs>
       <use xlink:href="#DejaVuSans-Bold-50"/>
       <use x="69.580078" xlink:href="#DejaVuSans-Bold-48"/>
       <use x="139.160156" xlink:href="#DejaVuSans-Bold-48"/>
       <use x="208.740234" xlink:href="#DejaVuSans-Bold-48"/>
      </g>
     </g>
    </g>
    <g id="ytick_3">
     <g id="line2d_15">
      <g>
       <use style="fill:#555555;stroke:#555555;stroke-width:0.8;" x="87.95" xlink:href="#m04d42ba438" y="378.759705"/>
      </g>
     </g>
     <g id="text_15">
      <!-- 4000 -->
      <g style="fill:#555555;" transform="translate(41.98625 384.078611)scale(0.14 -0.14)">
       <defs>
        <path d="M 36.8125 57.421875 
L 16.21875 26.90625 
L 36.8125 26.90625 
z
M 33.6875 72.90625 
L 54.59375 72.90625 
L 54.59375 26.90625 
L 64.984375 26.90625 
L 64.984375 13.28125 
L 54.59375 13.28125 
L 54.59375 0 
L 36.8125 0 
L 36.8125 13.28125 
L 4.5 13.28125 
L 4.5 29.390625 
z
" id="DejaVuSans-Bold-52"/>
       </defs>
       <use xlink:href="#DejaVuSans-Bold-52"/>
       <use x="69.580078" xlink:href="#DejaVuSans-Bold-48"/>
       <use x="139.160156" xlink:href="#DejaVuSans-Bold-48"/>
       <use x="208.740234" xlink:href="#DejaVuSans-Bold-48"/>
      </g>
     </g>
    </g>
    <g id="ytick_4">
     <g id="line2d_16">
      <g>
       <use style="fill:#555555;stroke:#555555;stroke-width:0.8;" x="87.95" xlink:href="#m04d42ba438" y="308.310056"/>
      </g>
     </g>
     <g id="text_16">
      <!-- 6000 -->
      <g style="fill:#555555;" transform="translate(41.98625 313.628962)scale(0.14 -0.14)">
       <defs>
        <path d="M 36.1875 35.984375 
Q 31.25 35.984375 28.78125 32.78125 
Q 26.3125 29.59375 26.3125 23.1875 
Q 26.3125 16.796875 28.78125 13.59375 
Q 31.25 10.40625 36.1875 10.40625 
Q 41.15625 10.40625 43.625 13.59375 
Q 46.09375 16.796875 46.09375 23.1875 
Q 46.09375 29.59375 43.625 32.78125 
Q 41.15625 35.984375 36.1875 35.984375 
z
M 59.421875 71 
L 59.421875 57.515625 
Q 54.78125 59.71875 50.671875 60.765625 
Q 46.578125 61.8125 42.671875 61.8125 
Q 34.28125 61.8125 29.59375 57.140625 
Q 24.90625 52.484375 24.125 43.3125 
Q 27.34375 45.703125 31.09375 46.890625 
Q 34.859375 48.09375 39.3125 48.09375 
Q 50.484375 48.09375 57.34375 41.546875 
Q 64.203125 35.015625 64.203125 24.421875 
Q 64.203125 12.703125 56.53125 5.640625 
Q 48.875 -1.421875 35.984375 -1.421875 
Q 21.78125 -1.421875 13.984375 8.171875 
Q 6.203125 17.78125 6.203125 35.40625 
Q 6.203125 53.46875 15.3125 63.796875 
Q 24.421875 74.125 40.28125 74.125 
Q 45.3125 74.125 50.046875 73.34375 
Q 54.78125 72.5625 59.421875 71 
z
" id="DejaVuSans-Bold-54"/>
       </defs>
       <use xlink:href="#DejaVuSans-Bold-54"/>
       <use x="69.580078" xlink:href="#DejaVuSans-Bold-48"/>
       <use x="139.160156" xlink:href="#DejaVuSans-Bold-48"/>
       <use x="208.740234" xlink:href="#DejaVuSans-Bold-48"/>
      </g>
     </g>
    </g>
    <g id="ytick_5">
     <g id="line2d_17">
      <g>
       <use style="fill:#555555;stroke:#555555;stroke-width:0.8;" x="87.95" xlink:href="#m04d42ba438" y="237.860407"/>
      </g>
     </g>
     <g id="text_17">
      <!-- 8000 -->
      <g style="fill:#555555;" transform="translate(41.98625 243.179314)scale(0.14 -0.14)">
       <defs>
        <path d="M 34.8125 32.625 
Q 29.546875 32.625 26.703125 29.734375 
Q 23.875 26.859375 23.875 21.484375 
Q 23.875 16.109375 26.703125 13.25 
Q 29.546875 10.40625 34.8125 10.40625 
Q 40.046875 10.40625 42.828125 13.25 
Q 45.609375 16.109375 45.609375 21.484375 
Q 45.609375 26.90625 42.828125 29.765625 
Q 40.046875 32.625 34.8125 32.625 
z
M 21.09375 38.8125 
Q 14.453125 40.828125 11.078125 44.96875 
Q 7.71875 49.125 7.71875 55.328125 
Q 7.71875 64.546875 14.59375 69.375 
Q 21.484375 74.21875 34.8125 74.21875 
Q 48.046875 74.21875 54.921875 69.40625 
Q 61.8125 64.59375 61.8125 55.328125 
Q 61.8125 49.125 58.421875 44.96875 
Q 55.03125 40.828125 48.390625 38.8125 
Q 55.8125 36.765625 59.59375 32.15625 
Q 63.375 27.546875 63.375 20.515625 
Q 63.375 9.671875 56.171875 4.125 
Q 48.96875 -1.421875 34.8125 -1.421875 
Q 20.609375 -1.421875 13.359375 4.125 
Q 6.109375 9.671875 6.109375 20.515625 
Q 6.109375 27.546875 9.890625 32.15625 
Q 13.671875 36.765625 21.09375 38.8125 
z
M 25.484375 53.421875 
Q 25.484375 49.078125 27.90625 46.734375 
Q 30.328125 44.390625 34.8125 44.390625 
Q 39.203125 44.390625 41.59375 46.734375 
Q 44 49.078125 44 53.421875 
Q 44 57.765625 41.59375 60.078125 
Q 39.203125 62.40625 34.8125 62.40625 
Q 30.328125 62.40625 27.90625 60.0625 
Q 25.484375 57.71875 25.484375 53.421875 
z
" id="DejaVuSans-Bold-56"/>
       </defs>
       <use xlink:href="#DejaVuSans-Bold-56"/>
       <use x="69.580078" xlink:href="#DejaVuSans-Bold-48"/>
       <use x="139.160156" xlink:href="#DejaVuSans-Bold-48"/>
       <use x="208.740234" xlink:href="#DejaVuSans-Bold-48"/>
      </g>
     </g>
    </g>
    <g id="ytick_6">
     <g id="line2d_18">
      <g>
       <use style="fill:#555555;stroke:#555555;stroke-width:0.8;" x="87.95" xlink:href="#m04d42ba438" y="167.410759"/>
      </g>
     </g>
     <g id="text_18">
      <!-- 10000 -->
      <g style="fill:#555555;" transform="translate(32.245313 172.729665)scale(0.14 -0.14)">
       <defs>
        <path d="M 11.71875 12.984375 
L 28.328125 12.984375 
L 28.328125 60.109375 
L 11.28125 56.59375 
L 11.28125 69.390625 
L 28.21875 72.90625 
L 46.09375 72.90625 
L 46.09375 12.984375 
L 62.703125 12.984375 
L 62.703125 0 
L 11.71875 0 
z
" id="DejaVuSans-Bold-49"/>
       </defs>
       <use xlink:href="#DejaVuSans-Bold-49"/>
       <use x="69.580078" xlink:href="#DejaVuSans-Bold-48"/>
       <use x="139.160156" xlink:href="#DejaVuSans-Bold-48"/>
       <use x="208.740234" xlink:href="#DejaVuSans-Bold-48"/>
       <use x="278.320312" xlink:href="#DejaVuSans-Bold-48"/>
      </g>
     </g>
    </g>
    <g id="ytick_7">
     <g id="line2d_19">
      <g>
       <use style="fill:#555555;stroke:#555555;stroke-width:0.8;" x="87.95" xlink:href="#m04d42ba438" y="96.96111"/>
      </g>
     </g>
     <g id="text_19">
      <!-- 12000 -->
      <g style="fill:#555555;" transform="translate(32.245313 102.280016)scale(0.14 -0.14)">
       <use xlink:href="#DejaVuSans-Bold-49"/>
       <use x="69.580078" xlink:href="#DejaVuSans-Bold-50"/>
       <use x="139.160156" xlink:href="#DejaVuSans-Bold-48"/>
       <use x="208.740234" xlink:href="#DejaVuSans-Bold-48"/>
       <use x="278.320312" xlink:href="#DejaVuSans-Bold-48"/>
      </g>
     </g>
    </g>
    <g id="text_20">
     <!-- New Cases -->
     <g style="fill:#555555;" transform="translate(24.917813 333.23875)rotate(-90)scale(0.16 -0.16)">
      <defs>
       <path d="M 9.8125 72.90625 
L 23.09375 72.90625 
L 55.421875 11.921875 
L 55.421875 72.90625 
L 64.984375 72.90625 
L 64.984375 0 
L 51.703125 0 
L 19.390625 60.984375 
L 19.390625 0 
L 9.8125 0 
z
" id="DejaVuSans-78"/>
       <path d="M 56.203125 29.59375 
L 56.203125 25.203125 
L 14.890625 25.203125 
Q 15.484375 15.921875 20.484375 11.0625 
Q 25.484375 6.203125 34.421875 6.203125 
Q 39.59375 6.203125 44.453125 7.46875 
Q 49.3125 8.734375 54.109375 11.28125 
L 54.109375 2.78125 
Q 49.265625 0.734375 44.1875 -0.34375 
Q 39.109375 -1.421875 33.890625 -1.421875 
Q 20.796875 -1.421875 13.15625 6.1875 
Q 5.515625 13.8125 5.515625 26.8125 
Q 5.515625 40.234375 12.765625 48.109375 
Q 20.015625 56 32.328125 56 
Q 43.359375 56 49.78125 48.890625 
Q 56.203125 41.796875 56.203125 29.59375 
z
M 47.21875 32.234375 
Q 47.125 39.59375 43.09375 43.984375 
Q 39.0625 48.390625 32.421875 48.390625 
Q 24.90625 48.390625 20.390625 44.140625 
Q 15.875 39.890625 15.1875 32.171875 
z
" id="DejaVuSans-101"/>
       <path d="M 4.203125 54.6875 
L 13.1875 54.6875 
L 24.421875 12.015625 
L 35.59375 54.6875 
L 46.1875 54.6875 
L 57.421875 12.015625 
L 68.609375 54.6875 
L 77.59375 54.6875 
L 63.28125 0 
L 52.6875 0 
L 40.921875 44.828125 
L 29.109375 0 
L 18.5 0 
z
" id="DejaVuSans-119"/>
       <path id="DejaVuSans-32"/>
       <path d="M 64.40625 67.28125 
L 64.40625 56.890625 
Q 59.421875 61.53125 53.78125 63.8125 
Q 48.140625 66.109375 41.796875 66.109375 
Q 29.296875 66.109375 22.65625 58.46875 
Q 16.015625 50.828125 16.015625 36.375 
Q 16.015625 21.96875 22.65625 14.328125 
Q 29.296875 6.6875 41.796875 6.6875 
Q 48.140625 6.6875 53.78125 8.984375 
Q 59.421875 11.28125 64.40625 15.921875 
L 64.40625 5.609375 
Q 59.234375 2.09375 53.4375 0.328125 
Q 47.65625 -1.421875 41.21875 -1.421875 
Q 24.65625 -1.421875 15.125 8.703125 
Q 5.609375 18.84375 5.609375 36.375 
Q 5.609375 53.953125 15.125 64.078125 
Q 24.65625 74.21875 41.21875 74.21875 
Q 47.75 74.21875 53.53125 72.484375 
Q 59.328125 70.75 64.40625 67.28125 
z
" id="DejaVuSans-67"/>
       <path d="M 34.28125 27.484375 
Q 23.390625 27.484375 19.1875 25 
Q 14.984375 22.515625 14.984375 16.5 
Q 14.984375 11.71875 18.140625 8.90625 
Q 21.296875 6.109375 26.703125 6.109375 
Q 34.1875 6.109375 38.703125 11.40625 
Q 43.21875 16.703125 43.21875 25.484375 
L 43.21875 27.484375 
z
M 52.203125 31.203125 
L 52.203125 0 
L 43.21875 0 
L 43.21875 8.296875 
Q 40.140625 3.328125 35.546875 0.953125 
Q 30.953125 -1.421875 24.3125 -1.421875 
Q 15.921875 -1.421875 10.953125 3.296875 
Q 6 8.015625 6 15.921875 
Q 6 25.140625 12.171875 29.828125 
Q 18.359375 34.515625 30.609375 34.515625 
L 43.21875 34.515625 
L 43.21875 35.40625 
Q 43.21875 41.609375 39.140625 45 
Q 35.0625 48.390625 27.6875 48.390625 
Q 23 48.390625 18.546875 47.265625 
Q 14.109375 46.140625 10.015625 43.890625 
L 10.015625 52.203125 
Q 14.9375 54.109375 19.578125 55.046875 
Q 24.21875 56 28.609375 56 
Q 40.484375 56 46.34375 49.84375 
Q 52.203125 43.703125 52.203125 31.203125 
z
" id="DejaVuSans-97"/>
       <path d="M 44.28125 53.078125 
L 44.28125 44.578125 
Q 40.484375 46.53125 36.375 47.5 
Q 32.28125 48.484375 27.875 48.484375 
Q 21.1875 48.484375 17.84375 46.4375 
Q 14.5 44.390625 14.5 40.28125 
Q 14.5 37.15625 16.890625 35.375 
Q 19.28125 33.59375 26.515625 31.984375 
L 29.59375 31.296875 
Q 39.15625 29.25 43.1875 25.515625 
Q 47.21875 21.78125 47.21875 15.09375 
Q 47.21875 7.46875 41.1875 3.015625 
Q 35.15625 -1.421875 24.609375 -1.421875 
Q 20.21875 -1.421875 15.453125 -0.5625 
Q 10.6875 0.296875 5.421875 2 
L 5.421875 11.28125 
Q 10.40625 8.6875 15.234375 7.390625 
Q 20.0625 6.109375 24.8125 6.109375 
Q 31.15625 6.109375 34.5625 8.28125 
Q 37.984375 10.453125 37.984375 14.40625 
Q 37.984375 18.0625 35.515625 20.015625 
Q 33.0625 21.96875 24.703125 23.78125 
L 21.578125 24.515625 
Q 13.234375 26.265625 9.515625 29.90625 
Q 5.8125 33.546875 5.8125 39.890625 
Q 5.8125 47.609375 11.28125 51.796875 
Q 16.75 56 26.8125 56 
Q 31.78125 56 36.171875 55.265625 
Q 40.578125 54.546875 44.28125 53.078125 
z
" id="DejaVuSans-115"/>
      </defs>
      <use xlink:href="#DejaVuSans-78"/>
      <use x="74.804688" xlink:href="#DejaVuSans-101"/>
      <use x="136.328125" xlink:href="#DejaVuSans-119"/>
      <use x="218.115234" xlink:href="#DejaVuSans-32"/>
      <use x="249.902344" xlink:href="#DejaVuSans-67"/>
      <use x="319.726562" xlink:href="#DejaVuSans-97"/>
      <use x="381.005859" xlink:href="#DejaVuSans-115"/>
      <use x="433.105469" xlink:href="#DejaVuSans-101"/>
      <use x="494.628906" xlink:href="#DejaVuSans-115"/>
     </g>
    </g>
   </g>
   <g id="line2d_20">
    <path clip-path="url(#p496d328704)" d="M 87.95 518.10911 
L 90.772608 518.038661 
L 96.417823 516.946691 
L 99.24043 517.686413 
L 102.063038 517.510288 
L 104.885645 515.396799 
L 107.708253 515.784272 
L 110.53086 512.931061 
L 113.353468 514.199155 
L 116.176075 513.459434 
L 118.998683 509.866502 
L 121.82129 509.443804 
L 127.466505 505.25205 
L 130.289113 500.848947 
L 133.11172 497.22079 
L 135.934328 499.475178 
L 138.756935 500.461473 
L 141.579543 491.09167 
L 144.402151 489.647452 
L 147.224758 483.764907 
L 150.047366 478.375509 
L 152.869973 478.833431 
L 155.692581 480.770797 
L 158.515188 488.520258 
L 161.337796 489.894026 
L 164.160403 483.764907 
L 166.983011 481.510518 
L 169.805618 483.518333 
L 172.628226 487.815761 
L 175.450833 476.543818 
L 178.273441 486.12497 
L 181.096048 492.289314 
L 183.918656 485.526148 
L 186.741263 476.931291 
L 189.563871 472.633862 
L 192.386478 473.303134 
L 195.209086 478.305059 
L 198.031694 485.702272 
L 200.854301 489.083855 
L 203.676909 493.803982 
L 206.499516 482.285464 
L 209.322124 476.156345 
L 212.144731 479.502703 
L 214.967339 482.10934 
L 217.789946 493.240384 
L 223.435161 494.719827 
L 226.257769 488.414584 
L 229.080376 491.267794 
L 231.902984 496.586743 
L 234.725591 496.586743 
L 237.548199 505.569073 
L 240.370806 513.635558 
L 243.193414 506.062221 
L 246.016022 501.553443 
L 248.838629 502.927211 
L 251.661237 503.983956 
L 254.483844 507.858687 
L 257.306452 512.649263 
L 260.129059 508.492733 
L 262.951667 511.486844 
L 265.774274 503.631708 
L 268.596882 508.422284 
L 271.419489 509.479029 
L 274.242097 511.028921 
L 277.064704 513.987806 
L 279.887312 512.754937 
L 282.709919 511.662968 
L 285.532527 510.1483 
L 288.355134 512.614038 
L 291.177742 513.001511 
L 294.000349 515.2559 
L 296.822957 514.516178 
L 299.645565 515.854722 
L 302.468172 512.684488 
L 305.29078 510.747122 
L 308.113387 513.036736 
L 310.935995 513.459434 
L 313.758602 513.600333 
L 316.58121 512.297014 
L 319.403817 514.974101 
L 322.226425 512.966286 
L 327.87164 513.459434 
L 330.694247 515.044551 
L 333.516855 513.14241 
L 336.339462 516.030846 
L 339.16207 516.066071 
L 341.984677 516.629668 
L 344.807285 512.297014 
L 347.629892 512.26179 
L 350.4525 513.21286 
L 353.275108 511.24027 
L 356.097715 513.846907 
L 358.920323 513.882132 
L 361.74293 513.177635 
L 364.565538 513.882132 
L 367.388145 512.26179 
L 370.210753 513.353759 
L 373.03336 514.621853 
L 375.855968 513.846907 
L 378.678575 514.762752 
L 381.501183 515.537698 
L 384.32379 515.608148 
L 387.146398 515.889947 
L 389.969005 516.981916 
L 392.791613 516.453544 
L 395.61422 517.369389 
L 398.436828 517.404614 
L 401.259435 516.770567 
L 404.082043 515.784272 
L 409.727258 517.22849 
L 415.372473 516.981916 
L 418.195081 517.897762 
L 423.840296 516.946691 
L 426.662903 517.017141 
L 429.485511 517.510288 
L 432.308118 517.087591 
L 435.130726 518.390909 
L 437.953333 518.355684 
L 440.775941 517.827312 
L 443.598548 517.827312 
L 446.421156 518.17956 
L 449.243763 516.805792 
L 452.066371 516.101296 
L 454.888978 517.15804 
L 457.711586 517.792087 
L 460.534194 515.925171 
L 463.356801 516.171745 
L 466.179409 516.030846 
L 469.002016 515.18545 
L 471.824624 514.586628 
L 474.647231 513.14241 
L 477.469839 513.917356 
L 480.292446 513.741232 
L 483.115054 513.917356 
L 485.937661 512.931061 
L 488.760269 514.833202 
L 491.582876 512.12089 
L 494.405484 512.437914 
L 497.228091 511.803867 
L 500.050699 510.958471 
L 502.873306 507.612113 
L 505.695914 507.753012 
L 508.518522 504.477103 
L 511.341129 506.766717 
L 514.163737 506.555368 
L 516.986344 502.574963 
L 519.808952 504.653228 
L 522.631559 498.488883 
L 525.454167 501.377319 
L 528.276774 502.539738 
L 531.099382 499.334279 
L 533.921989 497.467363 
L 536.744597 492.218865 
L 539.567204 496.621968 
L 542.389812 499.334279 
L 545.212419 497.256014 
L 548.035027 496.586743 
L 550.857634 501.800017 
L 553.680242 502.680637 
L 556.502849 502.434064 
L 559.325457 500.2149 
L 562.148065 501.025071 
L 564.970672 500.813722 
L 567.79328 501.764792 
L 570.615887 503.561258 
L 573.438495 499.439954 
L 576.261102 505.040701 
L 579.08371 499.545628 
L 581.906317 501.694342 
L 587.551532 502.011366 
L 590.37414 501.764792 
L 593.196747 501.09552 
L 596.019355 503.385134 
L 598.841962 493.803982 
L 601.66457 498.488883 
L 604.487177 493.451733 
L 607.309785 496.621968 
L 610.132392 487.07604 
L 612.955 491.584818 
L 615.777608 485.702272 
L 618.600215 479.502703 
L 621.422823 490.668972 
L 624.24543 474.923476 
L 627.068038 476.297244 
L 629.890645 481.369619 
L 632.713253 473.866731 
L 635.53586 471.08397 
L 638.358468 465.342324 
L 641.181075 457.909886 
L 644.003683 450.125199 
L 646.82629 453.189759 
L 649.648898 454.704427 
L 652.471505 441.565567 
L 655.294113 440.579272 
L 658.11672 436.634092 
L 660.939328 430.047049 
L 663.761935 421.839665 
L 666.584543 424.094054 
L 669.407151 414.160654 
L 672.229758 417.013864 
L 675.052366 413.597056 
L 677.874973 403.628431 
L 680.697581 405.107874 
L 683.520188 384.924049 
L 686.342796 379.922124 
L 689.165403 378.654031 
L 691.988011 358.364532 
L 694.810618 360.160998 
L 697.633226 343.922354 
L 700.455833 314.580075 
L 703.278441 309.331576 
L 706.101048 290.732869 
L 708.923656 295.171197 
L 711.746263 278.54508 
L 714.568871 259.770248 
L 717.391478 262.975707 
L 720.214086 245.222396 
L 723.036694 238.424005 
L 725.859301 233.844777 
L 728.681909 231.449489 
L 731.504516 238.142206 
L 734.327124 232.048311 
L 737.149731 211.688363 
L 739.972339 193.089656 
L 742.794946 167.551658 
L 745.617554 214.929047 
L 748.440161 160.295344 
L 751.262769 155.328644 
L 754.085376 157.12511 
L 756.907984 234.267475 
L 759.730591 158.111405 
L 762.553199 127.99418 
L 765.375806 174.314824 
L 768.198414 213.801852 
L 771.021022 227.786108 
L 773.843629 246.913187 
L 776.666237 250.787918 
L 779.488844 274.318101 
L 782.311452 264.560824 
L 785.134059 284.674199 
L 790.779274 354.806824 
L 793.601882 355.264747 
L 796.424489 329.198377 
L 799.247097 321.202342 
L 802.069704 305.104597 
L 804.892312 311.339391 
L 807.714919 328.987028 
L 810.537527 349.523101 
L 813.360134 368.121808 
L 816.182742 357.307787 
L 819.005349 320.814869 
L 821.827957 310.670119 
L 824.650565 305.844319 
L 827.473172 329.867649 
L 830.29578 337.546661 
L 833.118387 381.366342 
L 835.940995 346.74034 
L 838.763602 362.204038 
L 841.58621 317.362836 
L 844.408817 362.591511 
L 847.231425 322.928358 
L 850.054032 358.752005 
L 852.87664 377.174588 
L 855.699247 346.317642 
L 858.521855 322.188637 
L 861.344462 312.748384 
L 864.16707 289.957923 
L 866.989677 280.869918 
L 869.812285 270.725169 
L 872.634892 303.167232 
L 875.4575 289.711349 
L 878.280108 212.498534 
L 881.102715 208.342005 
L 883.925323 199.817597 
L 886.74793 171.496838 
L 889.570538 221.762663 
L 892.393145 286.012742 
L 895.215753 126.232939 
L 898.03836 69.520971 
L 900.860968 99.391623 
L 903.683575 89.317323 
L 906.506183 60.609091 
L 909.32879 126.268164 
L 912.151398 174.103475 
L 914.974005 153.743527 
L 917.796613 114.608747 
L 920.61922 115.031445 
L 923.441828 172.764932 
L 926.264435 199.817597 
L 929.087043 258.46693 
L 931.909651 255.40237 
L 934.732258 188.616103 
L 937.554866 178.647478 
L 940.377473 231.414265 
L 943.200081 216.690288 
L 946.022688 259.065752 
L 948.845296 288.47848 
L 951.667903 296.404066 
L 954.490511 269.597974 
L 957.313118 180.549618 
L 960.135726 233.492529 
L 962.958333 261.778063 
L 965.780941 286.752464 
L 968.603548 328.881354 
L 971.426156 348.043658 
L 974.248763 305.280721 
L 977.071371 291.895288 
L 979.893978 307.993033 
L 982.716586 334.376426 
L 985.539194 322.470436 
L 988.361801 352.200187 
L 991.184409 369.178553 
L 994.007016 324.865724 
L 996.829624 316.270867 
L 999.652231 317.327611 
L 1002.474839 328.951803 
L 1005.297446 347.374387 
L 1008.120054 378.160883 
L 1010.942661 381.683366 
L 1013.765269 353.186483 
L 1016.587876 355.546546 
L 1019.410484 366.431017 
L 1022.233091 372.66581 
L 1025.055699 389.327152 
L 1027.878306 407.362263 
L 1030.700914 394.223403 
L 1033.523522 378.301782 
L 1036.346129 371.961314 
L 1039.168737 367.452536 
L 1041.991344 376.117843 
L 1044.813952 381.084543 
L 1047.636559 441.424668 
L 1050.459167 458.226909 
L 1053.281774 407.538387 
L 1056.104382 364.881124 
L 1058.926989 366.74804 
L 1061.749597 371.926089 
L 1064.572204 398.239033 
L 1067.394812 420.677246 
L 1070.217419 424.516752 
L 1073.040027 401.268368 
L 1075.862634 360.513246 
L 1078.685242 353.186483 
L 1081.507849 358.857679 
L 1084.330457 355.018173 
L 1087.153065 373.053284 
L 1089.975672 385.910344 
L 1092.79828 366.008319 
L 1095.620887 343.147408 
L 1098.443495 339.554476 
L 1101.266102 345.754045 
L 1104.08871 355.194298 
L 1106.911317 387.143213 
L 1109.733925 379.428977 
L 1112.556532 343.640555 
L 1115.37914 374.744075 
L 1118.201747 355.194298 
L 1121.024355 331.69934 
L 1123.846962 360.231447 
L 1126.66957 384.607026 
L 1129.492177 368.438832 
L 1132.314785 333.953728 
L 1135.137392 332.192487 
L 1137.96 307.394211 
L 1137.96 307.394211 
" style="fill:none;stroke:#000000;stroke-dasharray:1.5,2.475;stroke-dashoffset:0;stroke-opacity:0.5;stroke-width:1.5;"/>
   </g>
   <g id="line2d_21">
    <path clip-path="url(#p496d328704)" d="M 87.95 518.390909 
L 102.063038 516.523993 
L 107.708253 515.150225 
L 113.353468 513.21286 
L 116.176075 512.050441 
L 118.998683 510.606223 
L 121.82129 508.844982 
L 127.466505 504.23053 
L 130.289113 502.25794 
L 135.934328 498.030961 
L 138.756935 495.494773 
L 141.579543 492.289314 
L 147.224758 485.138675 
L 150.047366 482.884286 
L 152.869973 482.567263 
L 155.692581 483.166085 
L 158.515188 484.222829 
L 161.337796 484.962551 
L 164.160403 485.1739 
L 169.805618 483.694457 
L 172.628226 483.835356 
L 175.450833 484.469403 
L 178.273441 484.786427 
L 181.096048 484.046705 
L 186.741263 480.031075 
L 189.563871 478.305059 
L 192.386478 478.199384 
L 195.209086 480.418548 
L 198.031694 483.201309 
L 200.854301 485.033 
L 203.676909 485.244349 
L 206.499516 484.08193 
L 209.322124 483.166085 
L 212.144731 483.553558 
L 214.967339 485.420473 
L 217.789946 488.09756 
L 220.612554 490.492848 
L 223.435161 491.972291 
L 226.257769 492.888136 
L 229.080376 494.08578 
L 231.902984 496.727642 
L 237.548199 502.997661 
L 240.370806 504.899801 
L 243.193414 505.357724 
L 246.016022 505.287274 
L 248.838629 505.357724 
L 251.661237 505.815647 
L 254.483844 507.295089 
L 257.306452 508.351834 
L 260.129059 508.809757 
L 262.951667 508.774532 
L 265.774274 508.598408 
L 268.596882 508.844982 
L 277.064704 511.627743 
L 279.887312 511.979991 
L 282.709919 512.050441 
L 288.355134 512.578813 
L 294.000349 513.882132 
L 296.822957 514.093481 
L 299.645565 513.846907 
L 305.29078 513.036736 
L 308.113387 512.860612 
L 313.758602 513.177635 
L 316.58121 513.424209 
L 325.049032 513.635558 
L 330.694247 514.199155 
L 333.516855 514.727527 
L 336.339462 515.009326 
L 339.16207 514.938876 
L 341.984677 514.551403 
L 347.629892 513.28331 
L 350.4525 512.895836 
L 353.275108 512.790162 
L 358.920323 513.248085 
L 367.388145 513.424209 
L 370.210753 513.600333 
L 375.855968 514.340054 
L 387.146398 516.101296 
L 389.969005 516.488769 
L 392.791613 516.735342 
L 398.436828 516.841017 
L 404.082043 516.700118 
L 406.904651 516.700118 
L 421.017688 517.29894 
L 426.662903 517.334164 
L 432.308118 517.615963 
L 437.953333 517.968211 
L 440.775941 517.932986 
L 446.421156 517.475064 
L 463.356801 516.13652 
L 471.824624 514.586628 
L 477.469839 513.846907 
L 485.937661 513.529883 
L 491.582876 512.790162 
L 494.405484 512.085666 
L 497.228091 511.16982 
L 500.050699 509.866502 
L 505.695914 507.576888 
L 508.518522 506.555368 
L 511.341129 505.780422 
L 525.454167 501.025071 
L 528.276774 499.933101 
L 531.099382 498.665007 
L 536.744597 497.009441 
L 539.567204 496.692417 
L 542.389812 497.185565 
L 545.212419 498.066185 
L 548.035027 499.263829 
L 550.857634 500.179675 
L 553.680242 500.848947 
L 556.502849 501.271644 
L 559.325457 501.412544 
L 564.970672 501.342094 
L 567.79328 501.659117 
L 573.438495 501.870466 
L 579.08371 501.729567 
L 581.906317 501.623893 
L 587.551532 501.694342 
L 590.37414 501.342094 
L 593.196747 500.708047 
L 598.841962 498.207085 
L 601.66457 496.410619 
L 604.487177 494.790277 
L 607.309785 492.817687 
L 610.132392 490.668972 
L 612.955 488.731607 
L 618.600215 484.117155 
L 621.422823 482.426363 
L 624.24543 480.312874 
L 627.068038 478.410733 
L 629.890645 476.297244 
L 632.713253 472.915661 
L 635.53586 469.04093 
L 641.181075 459.847251 
L 644.003683 455.655497 
L 652.471505 444.559677 
L 655.294113 440.0509 
L 658.11672 435.225099 
L 660.939328 430.047049 
L 663.761935 425.749621 
L 669.407151 417.894485 
L 672.229758 414.477677 
L 675.052366 410.039349 
L 677.874973 404.192028 
L 680.697581 397.78111 
L 686.342796 381.401567 
L 689.165403 372.841935 
L 691.988011 362.309712 
L 694.810618 351.002543 
L 703.278441 310.881468 
L 706.101048 298.200532 
L 708.923656 287.45696 
L 717.391478 258.009007 
L 720.214086 249.097126 
L 723.036694 242.615759 
L 728.681909 233.739103 
L 731.504516 228.525829 
L 737.149731 211.336115 
L 742.794946 189.954646 
L 745.617554 180.514393 
L 748.440161 177.802082 
L 751.262769 175.829492 
L 754.085376 174.06825 
L 756.907984 171.355939 
L 759.730591 172.588808 
L 762.553199 176.780562 
L 765.375806 187.20711 
L 768.198414 200.733442 
L 771.021022 221.022941 
L 773.843629 239.4103 
L 776.666237 253.112756 
L 779.488844 265.688019 
L 782.311452 280.834693 
L 787.956667 314.720974 
L 790.779274 327.049663 
L 793.601882 332.65041 
L 796.424489 330.959618 
L 799.247097 325.746344 
L 802.069704 322.294312 
L 804.892312 325.041848 
L 807.714919 332.967433 
L 810.537527 340.047623 
L 813.360134 343.182632 
L 816.182742 339.695375 
L 819.005349 332.72086 
L 821.827957 326.239492 
L 824.650565 326.380391 
L 827.473172 331.523216 
L 830.29578 341.315717 
L 833.118387 347.339162 
L 835.940995 351.178668 
L 841.58621 346.528991 
L 844.408817 345.754045 
L 847.231425 348.114108 
L 850.054032 348.853829 
L 852.87664 347.902759 
L 855.699247 339.237452 
L 858.521855 327.648485 
L 861.344462 312.008663 
L 864.16707 299.151602 
L 866.989677 291.296466 
L 869.812285 282.736834 
L 872.634892 272.028487 
L 875.4575 257.480635 
L 878.280108 237.860407 
L 881.102715 220.952492 
L 883.925323 212.921232 
L 886.74793 206.017166 
L 889.570538 197.422309 
L 892.393145 180.760967 
L 895.215753 155.469543 
L 898.03836 127.078335 
L 900.860968 105.203719 
L 903.683575 96.538412 
L 906.506183 105.732091 
L 909.32879 118.906175 
L 912.151398 128.346428 
L 917.796613 144.373723 
L 920.61922 156.350164 
L 923.441828 174.984096 
L 926.264435 195.23837 
L 929.087043 210.631618 
L 931.909651 218.416304 
L 934.732258 216.972087 
L 937.554866 216.901637 
L 940.377473 222.25581 
L 943.200081 235.641243 
L 946.022688 252.971857 
L 948.845296 260.932667 
L 951.667903 259.699799 
L 957.313118 248.498304 
L 960.135726 251.598089 
L 962.958333 265.899368 
L 968.603548 303.308131 
L 971.426156 311.973438 
L 974.248763 315.073223 
L 977.071371 315.178897 
L 979.893978 317.398061 
L 982.716586 324.231677 
L 985.539194 332.65041 
L 988.361801 338.215932 
L 991.184409 338.356831 
L 994.007016 334.376426 
L 996.829624 331.417541 
L 999.652231 332.192487 
L 1002.474839 338.462506 
L 1005.297446 348.501581 
L 1008.120054 357.378237 
L 1010.942661 362.873309 
L 1013.765269 365.057248 
L 1016.587876 366.783265 
L 1019.410484 370.76367 
L 1022.233091 377.104138 
L 1025.055699 384.078654 
L 1027.878306 387.70681 
L 1030.700914 386.75574 
L 1033.523522 383.127583 
L 1036.346129 378.900604 
L 1039.168737 380.239148 
L 1041.991344 389.327152 
L 1044.813952 401.197918 
L 1047.636559 409.546202 
L 1050.459167 410.814295 
L 1053.281774 403.804555 
L 1056.104382 394.258628 
L 1058.926989 387.072764 
L 1061.749597 387.601136 
L 1064.572204 394.681326 
L 1067.394812 400.176398 
L 1070.217419 398.837855 
L 1073.040027 390.982719 
L 1075.862634 378.900604 
L 1078.685242 368.614956 
L 1081.507849 364.000504 
L 1084.330457 364.141403 
L 1087.153065 365.79697 
L 1089.975672 364.845899 
L 1092.79828 360.724595 
L 1095.620887 355.72267 
L 1098.443495 353.538731 
L 1101.266102 355.229522 
L 1104.08871 358.963354 
L 1106.911317 364.247077 
L 1109.733925 366.219668 
L 1112.556532 363.577806 
L 1115.37914 359.914424 
L 1118.201747 357.343012 
L 1121.024355 357.62481 
L 1123.846962 359.033803 
L 1126.66957 357.554361 
L 1129.492177 352.270637 
L 1132.314785 346.035843 
L 1135.137392 337.229637 
L 1137.96 327.930283 
L 1137.96 327.930283 
" style="fill:none;stroke:#000000;stroke-linecap:square;stroke-width:1.5;"/>
   </g>
   <g id="patch_3">
    <path d="M 87.95 541.28 
L 87.95 37.72 
" style="fill:none;stroke:#555555;stroke-linecap:square;stroke-linejoin:miter;"/>
   </g>
   <g id="patch_4">
    <path d="M 87.95 541.28 
L 1137.96 541.28 
" style="fill:none;stroke:#555555;stroke-linecap:square;stroke-linejoin:miter;"/>
   </g>
   <g id="text_21">
    <!-- Last updated on 12 March 2021 -->
    <g style="fill:#555555;" transform="translate(469.482344 27.72)scale(0.18 -0.18)">
     <defs>
      <path d="M 9.8125 72.90625 
L 19.671875 72.90625 
L 19.671875 8.296875 
L 55.171875 8.296875 
L 55.171875 0 
L 9.8125 0 
z
" id="DejaVuSans-76"/>
      <path d="M 18.3125 70.21875 
L 18.3125 54.6875 
L 36.8125 54.6875 
L 36.8125 47.703125 
L 18.3125 47.703125 
L 18.3125 18.015625 
Q 18.3125 11.328125 20.140625 9.421875 
Q 21.96875 7.515625 27.59375 7.515625 
L 36.8125 7.515625 
L 36.8125 0 
L 27.59375 0 
Q 17.1875 0 13.234375 3.875 
Q 9.28125 7.765625 9.28125 18.015625 
L 9.28125 47.703125 
L 2.6875 47.703125 
L 2.6875 54.6875 
L 9.28125 54.6875 
L 9.28125 70.21875 
z
" id="DejaVuSans-116"/>
      <path d="M 8.5 21.578125 
L 8.5 54.6875 
L 17.484375 54.6875 
L 17.484375 21.921875 
Q 17.484375 14.15625 20.5 10.265625 
Q 23.53125 6.390625 29.59375 6.390625 
Q 36.859375 6.390625 41.078125 11.03125 
Q 45.3125 15.671875 45.3125 23.6875 
L 45.3125 54.6875 
L 54.296875 54.6875 
L 54.296875 0 
L 45.3125 0 
L 45.3125 8.40625 
Q 42.046875 3.421875 37.71875 1 
Q 33.40625 -1.421875 27.6875 -1.421875 
Q 18.265625 -1.421875 13.375 4.4375 
Q 8.5 10.296875 8.5 21.578125 
z
M 31.109375 56 
z
" id="DejaVuSans-117"/>
      <path d="M 18.109375 8.203125 
L 18.109375 -20.796875 
L 9.078125 -20.796875 
L 9.078125 54.6875 
L 18.109375 54.6875 
L 18.109375 46.390625 
Q 20.953125 51.265625 25.265625 53.625 
Q 29.59375 56 35.59375 56 
Q 45.5625 56 51.78125 48.09375 
Q 58.015625 40.1875 58.015625 27.296875 
Q 58.015625 14.40625 51.78125 6.484375 
Q 45.5625 -1.421875 35.59375 -1.421875 
Q 29.59375 -1.421875 25.265625 0.953125 
Q 20.953125 3.328125 18.109375 8.203125 
z
M 48.6875 27.296875 
Q 48.6875 37.203125 44.609375 42.84375 
Q 40.53125 48.484375 33.40625 48.484375 
Q 26.265625 48.484375 22.1875 42.84375 
Q 18.109375 37.203125 18.109375 27.296875 
Q 18.109375 17.390625 22.1875 11.75 
Q 26.265625 6.109375 33.40625 6.109375 
Q 40.53125 6.109375 44.609375 11.75 
Q 48.6875 17.390625 48.6875 27.296875 
z
" id="DejaVuSans-112"/>
      <path d="M 45.40625 46.390625 
L 45.40625 75.984375 
L 54.390625 75.984375 
L 54.390625 0 
L 45.40625 0 
L 45.40625 8.203125 
Q 42.578125 3.328125 38.25 0.953125 
Q 33.9375 -1.421875 27.875 -1.421875 
Q 17.96875 -1.421875 11.734375 6.484375 
Q 5.515625 14.40625 5.515625 27.296875 
Q 5.515625 40.1875 11.734375 48.09375 
Q 17.96875 56 27.875 56 
Q 33.9375 56 38.25 53.625 
Q 42.578125 51.265625 45.40625 46.390625 
z
M 14.796875 27.296875 
Q 14.796875 17.390625 18.875 11.75 
Q 22.953125 6.109375 30.078125 6.109375 
Q 37.203125 6.109375 41.296875 11.75 
Q 45.40625 17.390625 45.40625 27.296875 
Q 45.40625 37.203125 41.296875 42.84375 
Q 37.203125 48.484375 30.078125 48.484375 
Q 22.953125 48.484375 18.875 42.84375 
Q 14.796875 37.203125 14.796875 27.296875 
z
" id="DejaVuSans-100"/>
      <path d="M 30.609375 48.390625 
Q 23.390625 48.390625 19.1875 42.75 
Q 14.984375 37.109375 14.984375 27.296875 
Q 14.984375 17.484375 19.15625 11.84375 
Q 23.34375 6.203125 30.609375 6.203125 
Q 37.796875 6.203125 41.984375 11.859375 
Q 46.1875 17.53125 46.1875 27.296875 
Q 46.1875 37.015625 41.984375 42.703125 
Q 37.796875 48.390625 30.609375 48.390625 
z
M 30.609375 56 
Q 42.328125 56 49.015625 48.375 
Q 55.71875 40.765625 55.71875 27.296875 
Q 55.71875 13.875 49.015625 6.21875 
Q 42.328125 -1.421875 30.609375 -1.421875 
Q 18.84375 -1.421875 12.171875 6.21875 
Q 5.515625 13.875 5.515625 27.296875 
Q 5.515625 40.765625 12.171875 48.375 
Q 18.84375 56 30.609375 56 
z
" id="DejaVuSans-111"/>
      <path d="M 54.890625 33.015625 
L 54.890625 0 
L 45.90625 0 
L 45.90625 32.71875 
Q 45.90625 40.484375 42.875 44.328125 
Q 39.84375 48.1875 33.796875 48.1875 
Q 26.515625 48.1875 22.3125 43.546875 
Q 18.109375 38.921875 18.109375 30.90625 
L 18.109375 0 
L 9.078125 0 
L 9.078125 54.6875 
L 18.109375 54.6875 
L 18.109375 46.1875 
Q 21.34375 51.125 25.703125 53.5625 
Q 30.078125 56 35.796875 56 
Q 45.21875 56 50.046875 50.171875 
Q 54.890625 44.34375 54.890625 33.015625 
z
" id="DejaVuSans-110"/>
      <path d="M 12.40625 8.296875 
L 28.515625 8.296875 
L 28.515625 63.921875 
L 10.984375 60.40625 
L 10.984375 69.390625 
L 28.421875 72.90625 
L 38.28125 72.90625 
L 38.28125 8.296875 
L 54.390625 8.296875 
L 54.390625 0 
L 12.40625 0 
z
" id="DejaVuSans-49"/>
      <path d="M 19.1875 8.296875 
L 53.609375 8.296875 
L 53.609375 0 
L 7.328125 0 
L 7.328125 8.296875 
Q 12.9375 14.109375 22.625 23.890625 
Q 32.328125 33.6875 34.8125 36.53125 
Q 39.546875 41.84375 41.421875 45.53125 
Q 43.3125 49.21875 43.3125 52.78125 
Q 43.3125 58.59375 39.234375 62.25 
Q 35.15625 65.921875 28.609375 65.921875 
Q 23.96875 65.921875 18.8125 64.3125 
Q 13.671875 62.703125 7.8125 59.421875 
L 7.8125 69.390625 
Q 13.765625 71.78125 18.9375 73 
Q 24.125 74.21875 28.421875 74.21875 
Q 39.75 74.21875 46.484375 68.546875 
Q 53.21875 62.890625 53.21875 53.421875 
Q 53.21875 48.921875 51.53125 44.890625 
Q 49.859375 40.875 45.40625 35.40625 
Q 44.1875 33.984375 37.640625 27.21875 
Q 31.109375 20.453125 19.1875 8.296875 
z
" id="DejaVuSans-50"/>
      <path d="M 9.8125 72.90625 
L 24.515625 72.90625 
L 43.109375 23.296875 
L 61.8125 72.90625 
L 76.515625 72.90625 
L 76.515625 0 
L 66.890625 0 
L 66.890625 64.015625 
L 48.09375 14.015625 
L 38.1875 14.015625 
L 19.390625 64.015625 
L 19.390625 0 
L 9.8125 0 
z
" id="DejaVuSans-77"/>
      <path d="M 41.109375 46.296875 
Q 39.59375 47.171875 37.8125 47.578125 
Q 36.03125 48 33.890625 48 
Q 26.265625 48 22.1875 43.046875 
Q 18.109375 38.09375 18.109375 28.8125 
L 18.109375 0 
L 9.078125 0 
L 9.078125 54.6875 
L 18.109375 54.6875 
L 18.109375 46.1875 
Q 20.953125 51.171875 25.484375 53.578125 
Q 30.03125 56 36.53125 56 
Q 37.453125 56 38.578125 55.875 
Q 39.703125 55.765625 41.0625 55.515625 
z
" id="DejaVuSans-114"/>
      <path d="M 48.78125 52.59375 
L 48.78125 44.1875 
Q 44.96875 46.296875 41.140625 47.34375 
Q 37.3125 48.390625 33.40625 48.390625 
Q 24.65625 48.390625 19.8125 42.84375 
Q 14.984375 37.3125 14.984375 27.296875 
Q 14.984375 17.28125 19.8125 11.734375 
Q 24.65625 6.203125 33.40625 6.203125 
Q 37.3125 6.203125 41.140625 7.25 
Q 44.96875 8.296875 48.78125 10.40625 
L 48.78125 2.09375 
Q 45.015625 0.34375 40.984375 -0.53125 
Q 36.96875 -1.421875 32.421875 -1.421875 
Q 20.0625 -1.421875 12.78125 6.34375 
Q 5.515625 14.109375 5.515625 27.296875 
Q 5.515625 40.671875 12.859375 48.328125 
Q 20.21875 56 33.015625 56 
Q 37.15625 56 41.109375 55.140625 
Q 45.0625 54.296875 48.78125 52.59375 
z
" id="DejaVuSans-99"/>
      <path d="M 54.890625 33.015625 
L 54.890625 0 
L 45.90625 0 
L 45.90625 32.71875 
Q 45.90625 40.484375 42.875 44.328125 
Q 39.84375 48.1875 33.796875 48.1875 
Q 26.515625 48.1875 22.3125 43.546875 
Q 18.109375 38.921875 18.109375 30.90625 
L 18.109375 0 
L 9.078125 0 
L 9.078125 75.984375 
L 18.109375 75.984375 
L 18.109375 46.1875 
Q 21.34375 51.125 25.703125 53.5625 
Q 30.078125 56 35.796875 56 
Q 45.21875 56 50.046875 50.171875 
Q 54.890625 44.34375 54.890625 33.015625 
z
" id="DejaVuSans-104"/>
      <path d="M 31.78125 66.40625 
Q 24.171875 66.40625 20.328125 58.90625 
Q 16.5 51.421875 16.5 36.375 
Q 16.5 21.390625 20.328125 13.890625 
Q 24.171875 6.390625 31.78125 6.390625 
Q 39.453125 6.390625 43.28125 13.890625 
Q 47.125 21.390625 47.125 36.375 
Q 47.125 51.421875 43.28125 58.90625 
Q 39.453125 66.40625 31.78125 66.40625 
z
M 31.78125 74.21875 
Q 44.046875 74.21875 50.515625 64.515625 
Q 56.984375 54.828125 56.984375 36.375 
Q 56.984375 17.96875 50.515625 8.265625 
Q 44.046875 -1.421875 31.78125 -1.421875 
Q 19.53125 -1.421875 13.0625 8.265625 
Q 6.59375 17.96875 6.59375 36.375 
Q 6.59375 54.828125 13.0625 64.515625 
Q 19.53125 74.21875 31.78125 74.21875 
z
" id="DejaVuSans-48"/>
     </defs>
     <use xlink:href="#DejaVuSans-76"/>
     <use x="55.712891" xlink:href="#DejaVuSans-97"/>
     <use x="116.992188" xlink:href="#DejaVuSans-115"/>
     <use x="169.091797" xlink:href="#DejaVuSans-116"/>
     <use x="208.300781" xlink:href="#DejaVuSans-32"/>
     <use x="240.087891" xlink:href="#DejaVuSans-117"/>
     <use x="303.466797" xlink:href="#DejaVuSans-112"/>
     <use x="366.943359" xlink:href="#DejaVuSans-100"/>
     <use x="430.419922" xlink:href="#DejaVuSans-97"/>
     <use x="491.699219" xlink:href="#DejaVuSans-116"/>
     <use x="530.908203" xlink:href="#DejaVuSans-101"/>
     <use x="592.431641" xlink:href="#DejaVuSans-100"/>
     <use x="655.908203" xlink:href="#DejaVuSans-32"/>
     <use x="687.695312" xlink:href="#DejaVuSans-111"/>
     <use x="748.876953" xlink:href="#DejaVuSans-110"/>
     <use x="812.255859" xlink:href="#DejaVuSans-32"/>
     <use x="844.042969" xlink:href="#DejaVuSans-49"/>
     <use x="907.666016" xlink:href="#DejaVuSans-50"/>
     <use x="971.289062" xlink:href="#DejaVuSans-32"/>
     <use x="1003.076172" xlink:href="#DejaVuSans-77"/>
     <use x="1089.355469" xlink:href="#DejaVuSans-97"/>
     <use x="1150.634766" xlink:href="#DejaVuSans-114"/>
     <use x="1189.498047" xlink:href="#DejaVuSans-99"/>
     <use x="1244.478516" xlink:href="#DejaVuSans-104"/>
     <use x="1307.857422" xlink:href="#DejaVuSans-32"/>
     <use x="1339.644531" xlink:href="#DejaVuSans-50"/>
     <use x="1403.267578" xlink:href="#DejaVuSans-48"/>
     <use x="1466.890625" xlink:href="#DejaVuSans-50"/>
     <use x="1530.513672" xlink:href="#DejaVuSans-49"/>
    </g>
   </g>
   <g id="legend_1">
    <g id="line2d_22">
     <path d="M 1015.497969 54.747969 
L 1041.497969 54.747969 
" style="fill:none;stroke:#000000;stroke-dasharray:1.5,2.475;stroke-dashoffset:0;stroke-opacity:0.5;stroke-width:1.5;"/>
    </g>
    <g id="line2d_23"/>
    <g id="text_22">
     <!-- Actual -->
     <g style="fill:#555555;" transform="translate(1051.897969 59.297969)scale(0.13 -0.13)">
      <use xlink:href="#DejaVuSans-Bold-65"/>
      <use x="77.392578" xlink:href="#DejaVuSans-Bold-99"/>
      <use x="136.669922" xlink:href="#DejaVuSans-Bold-116"/>
      <use x="184.472656" xlink:href="#DejaVuSans-Bold-117"/>
      <use x="255.664062" xlink:href="#DejaVuSans-Bold-97"/>
      <use x="323.144531" xlink:href="#DejaVuSans-Bold-108"/>
     </g>
    </g>
    <g id="line2d_24">
     <path d="M 1015.497969 73.829531 
L 1041.497969 73.829531 
" style="fill:none;stroke:#000000;stroke-linecap:square;stroke-width:1.5;"/>
    </g>
    <g id="line2d_25"/>
    <g id="text_23">
     <!-- Smoothed -->
     <g style="fill:#555555;" transform="translate(1051.897969 78.379531)scale(0.13 -0.13)">
      <defs>
       <path d="M 45.609375 46.6875 
L 45.609375 75.984375 
L 63.1875 75.984375 
L 63.1875 0 
L 45.609375 0 
L 45.609375 7.90625 
Q 42 3.078125 37.640625 0.828125 
Q 33.296875 -1.421875 27.59375 -1.421875 
Q 17.484375 -1.421875 10.984375 6.609375 
Q 4.5 14.65625 4.5 27.296875 
Q 4.5 39.9375 10.984375 47.96875 
Q 17.484375 56 27.59375 56 
Q 33.25 56 37.625 53.734375 
Q 42 51.46875 45.609375 46.6875 
z
M 34.078125 11.28125 
Q 39.703125 11.28125 42.65625 15.375 
Q 45.609375 19.484375 45.609375 27.296875 
Q 45.609375 35.109375 42.65625 39.203125 
Q 39.703125 43.3125 34.078125 43.3125 
Q 28.515625 43.3125 25.5625 39.203125 
Q 22.609375 35.109375 22.609375 27.296875 
Q 22.609375 19.484375 25.5625 15.375 
Q 28.515625 11.28125 34.078125 11.28125 
z
" id="DejaVuSans-Bold-100"/>
      </defs>
      <use xlink:href="#DejaVuSans-Bold-83"/>
      <use x="72.021484" xlink:href="#DejaVuSans-Bold-109"/>
      <use x="176.220703" xlink:href="#DejaVuSans-Bold-111"/>
      <use x="244.921875" xlink:href="#DejaVuSans-Bold-111"/>
      <use x="313.623047" xlink:href="#DejaVuSans-Bold-116"/>
      <use x="361.425781" xlink:href="#DejaVuSans-Bold-104"/>
      <use x="432.617188" xlink:href="#DejaVuSans-Bold-101"/>
      <use x="500.439453" xlink:href="#DejaVuSans-Bold-100"/>
     </g>
    </g>
   </g>
  </g>
 </g>
 <defs>
  <clipPath id="p496d328704">
   <rect height="503.56" width="1050.01" x="87.95" y="37.72"/>
  </clipPath>
 </defs>
</svg>
