<?xml version="1.0" encoding="utf-8" standalone="no"?>
<!DOCTYPE svg PUBLIC "-//W3C//DTD SVG 1.1//EN"
  "http://www.w3.org/Graphics/SVG/1.1/DTD/svg11.dtd">
<svg xmlns:xlink="http://www.w3.org/1999/xlink" width="1152pt" height="576pt" viewBox="0 0 1152 576" xmlns="http://www.w3.org/2000/svg" version="1.1">
 <metadata>
  <rdf:RDF xmlns:dc="http://purl.org/dc/elements/1.1/" xmlns:cc="http://creativecommons.org/ns#" xmlns:rdf="http://www.w3.org/1999/02/22-rdf-syntax-ns#">
   <cc:Work>
    <dc:type rdf:resource="http://purl.org/dc/dcmitype/StillImage"/>
    <dc:date>2022-01-20T15:25:06.210479</dc:date>
    <dc:format>image/svg+xml</dc:format>
    <dc:creator>
     <cc:Agent>
      <dc:title>Matplotlib v3.5.1, https://matplotlib.org/</dc:title>
     </cc:Agent>
    </dc:creator>
   </cc:Work>
  </rdf:RDF>
 </metadata>
 <defs>
  <style type="text/css">*{stroke-linejoin: round; stroke-linecap: butt}</style>
 </defs>
 <g id="figure_1">
  <g id="patch_1">
   <path d="M 0 576 
L 1152 576 
L 1152 0 
L 0 0 
z
" style="fill: #ffffff"/>
  </g>
  <g id="axes_1">
   <g id="patch_2">
    <path d="M 87.77 541.28 
L 1137.96 541.28 
L 1137.96 37.72 
L 87.77 37.72 
z
" style="fill: #ffffff"/>
   </g>
   <g id="matplotlib.axis_1">
    <g id="xtick_1">
     <g id="line2d_1">
      <defs>
       <path id="me4bf9faa3b" d="M 0 0 
L 0 3.5 
" style="stroke: #555555; stroke-width: 0.8"/>
      </defs>
      <g>
       <use xlink:href="#me4bf9faa3b" x="88.118437" y="541.28" style="fill: #555555; stroke: #555555; stroke-width: 0.8"/>
      </g>
     </g>
     <g id="text_1">
      <!-- Feb -->
      <g style="fill: #555555" transform="translate(73.858125 558.917812)scale(0.14 -0.14)">
       <defs>
        <path id="DejaVuSans-Bold-46" d="M 588 4666 
L 3834 4666 
L 3834 3756 
L 1791 3756 
L 1791 2888 
L 3713 2888 
L 3713 1978 
L 1791 1978 
L 1791 0 
L 588 0 
L 588 4666 
z
" transform="scale(0.015625)"/>
        <path id="DejaVuSans-Bold-65" d="M 4031 1759 
L 4031 1441 
L 1416 1441 
Q 1456 1047 1700 850 
Q 1944 653 2381 653 
Q 2734 653 3104 758 
Q 3475 863 3866 1075 
L 3866 213 
Q 3469 63 3072 -14 
Q 2675 -91 2278 -91 
Q 1328 -91 801 392 
Q 275 875 275 1747 
Q 275 2603 792 3093 
Q 1309 3584 2216 3584 
Q 3041 3584 3536 3087 
Q 4031 2591 4031 1759 
z
M 2881 2131 
Q 2881 2450 2695 2645 
Q 2509 2841 2209 2841 
Q 1884 2841 1681 2658 
Q 1478 2475 1428 2131 
L 2881 2131 
z
" transform="scale(0.015625)"/>
        <path id="DejaVuSans-Bold-62" d="M 2400 722 
Q 2759 722 2948 984 
Q 3138 1247 3138 1747 
Q 3138 2247 2948 2509 
Q 2759 2772 2400 2772 
Q 2041 2772 1848 2508 
Q 1656 2244 1656 1747 
Q 1656 1250 1848 986 
Q 2041 722 2400 722 
z
M 1656 2988 
Q 1888 3294 2169 3439 
Q 2450 3584 2816 3584 
Q 3463 3584 3878 3070 
Q 4294 2556 4294 1747 
Q 4294 938 3878 423 
Q 3463 -91 2816 -91 
Q 2450 -91 2169 54 
Q 1888 200 1656 506 
L 1656 0 
L 538 0 
L 538 4863 
L 1656 4863 
L 1656 2988 
z
" transform="scale(0.015625)"/>
       </defs>
       <use xlink:href="#DejaVuSans-Bold-46"/>
       <use xlink:href="#DejaVuSans-Bold-65" x="64.310547"/>
       <use xlink:href="#DejaVuSans-Bold-62" x="132.132812"/>
      </g>
     </g>
    </g>
    <g id="xtick_2">
     <g id="line2d_2">
      <g>
       <use xlink:href="#me4bf9faa3b" x="128.537163" y="541.28" style="fill: #555555; stroke: #555555; stroke-width: 0.8"/>
      </g>
     </g>
     <g id="text_2">
      <!-- Mar -->
      <g style="fill: #555555" transform="translate(113.395288 558.917812)scale(0.14 -0.14)">
       <defs>
        <path id="DejaVuSans-Bold-4d" d="M 588 4666 
L 2119 4666 
L 3181 2169 
L 4250 4666 
L 5778 4666 
L 5778 0 
L 4641 0 
L 4641 3413 
L 3566 897 
L 2803 897 
L 1728 3413 
L 1728 0 
L 588 0 
L 588 4666 
z
" transform="scale(0.015625)"/>
        <path id="DejaVuSans-Bold-61" d="M 2106 1575 
Q 1756 1575 1579 1456 
Q 1403 1338 1403 1106 
Q 1403 894 1545 773 
Q 1688 653 1941 653 
Q 2256 653 2472 879 
Q 2688 1106 2688 1447 
L 2688 1575 
L 2106 1575 
z
M 3816 1997 
L 3816 0 
L 2688 0 
L 2688 519 
Q 2463 200 2181 54 
Q 1900 -91 1497 -91 
Q 953 -91 614 226 
Q 275 544 275 1050 
Q 275 1666 698 1953 
Q 1122 2241 2028 2241 
L 2688 2241 
L 2688 2328 
Q 2688 2594 2478 2717 
Q 2269 2841 1825 2841 
Q 1466 2841 1156 2769 
Q 847 2697 581 2553 
L 581 3406 
Q 941 3494 1303 3539 
Q 1666 3584 2028 3584 
Q 2975 3584 3395 3211 
Q 3816 2838 3816 1997 
z
" transform="scale(0.015625)"/>
        <path id="DejaVuSans-Bold-72" d="M 3138 2547 
Q 2991 2616 2845 2648 
Q 2700 2681 2553 2681 
Q 2122 2681 1889 2404 
Q 1656 2128 1656 1613 
L 1656 0 
L 538 0 
L 538 3500 
L 1656 3500 
L 1656 2925 
Q 1872 3269 2151 3426 
Q 2431 3584 2822 3584 
Q 2878 3584 2943 3579 
Q 3009 3575 3134 3559 
L 3138 2547 
z
" transform="scale(0.015625)"/>
       </defs>
       <use xlink:href="#DejaVuSans-Bold-4d"/>
       <use xlink:href="#DejaVuSans-Bold-61" x="99.511719"/>
       <use xlink:href="#DejaVuSans-Bold-72" x="166.992188"/>
      </g>
     </g>
    </g>
    <g id="xtick_3">
     <g id="line2d_3">
      <g>
       <use xlink:href="#me4bf9faa3b" x="171.743388" y="541.28" style="fill: #555555; stroke: #555555; stroke-width: 0.8"/>
      </g>
     </g>
     <g id="text_3">
      <!-- Apr -->
      <g style="fill: #555555" transform="translate(157.8637 558.917812)scale(0.14 -0.14)">
       <defs>
        <path id="DejaVuSans-Bold-41" d="M 3419 850 
L 1538 850 
L 1241 0 
L 31 0 
L 1759 4666 
L 3194 4666 
L 4922 0 
L 3713 0 
L 3419 850 
z
M 1838 1716 
L 3116 1716 
L 2478 3572 
L 1838 1716 
z
" transform="scale(0.015625)"/>
        <path id="DejaVuSans-Bold-70" d="M 1656 506 
L 1656 -1331 
L 538 -1331 
L 538 3500 
L 1656 3500 
L 1656 2988 
Q 1888 3294 2169 3439 
Q 2450 3584 2816 3584 
Q 3463 3584 3878 3070 
Q 4294 2556 4294 1747 
Q 4294 938 3878 423 
Q 3463 -91 2816 -91 
Q 2450 -91 2169 54 
Q 1888 200 1656 506 
z
M 2400 2772 
Q 2041 2772 1848 2508 
Q 1656 2244 1656 1747 
Q 1656 1250 1848 986 
Q 2041 722 2400 722 
Q 2759 722 2948 984 
Q 3138 1247 3138 1747 
Q 3138 2247 2948 2509 
Q 2759 2772 2400 2772 
z
" transform="scale(0.015625)"/>
       </defs>
       <use xlink:href="#DejaVuSans-Bold-41"/>
       <use xlink:href="#DejaVuSans-Bold-70" x="77.392578"/>
       <use xlink:href="#DejaVuSans-Bold-72" x="148.974609"/>
      </g>
     </g>
    </g>
    <g id="xtick_4">
     <g id="line2d_4">
      <g>
       <use xlink:href="#me4bf9faa3b" x="213.555863" y="541.28" style="fill: #555555; stroke: #555555; stroke-width: 0.8"/>
      </g>
     </g>
     <g id="text_4">
      <!-- May -->
      <g style="fill: #555555" transform="translate(197.521488 558.808437)scale(0.14 -0.14)">
       <defs>
        <path id="DejaVuSans-Bold-79" d="M 78 3500 
L 1197 3500 
L 2138 1125 
L 2938 3500 
L 4056 3500 
L 2584 -331 
Q 2363 -916 2067 -1148 
Q 1772 -1381 1288 -1381 
L 641 -1381 
L 641 -647 
L 991 -647 
Q 1275 -647 1404 -556 
Q 1534 -466 1606 -231 
L 1638 -134 
L 78 3500 
z
" transform="scale(0.015625)"/>
       </defs>
       <use xlink:href="#DejaVuSans-Bold-4d"/>
       <use xlink:href="#DejaVuSans-Bold-61" x="99.511719"/>
       <use xlink:href="#DejaVuSans-Bold-79" x="163.867188"/>
      </g>
     </g>
    </g>
    <g id="xtick_5">
     <g id="line2d_5">
      <g>
       <use xlink:href="#me4bf9faa3b" x="256.762087" y="541.28" style="fill: #555555; stroke: #555555; stroke-width: 0.8"/>
      </g>
     </g>
     <g id="text_5">
      <!-- Jun -->
      <g style="fill: #555555" transform="translate(244.191618 558.917812)scale(0.14 -0.14)">
       <defs>
        <path id="DejaVuSans-Bold-4a" d="M 588 4666 
L 1791 4666 
L 1791 453 
Q 1791 -419 1317 -850 
Q 844 -1281 -116 -1281 
L -359 -1281 
L -359 -372 
L -172 -372 
Q 203 -372 395 -162 
Q 588 47 588 453 
L 588 4666 
z
" transform="scale(0.015625)"/>
        <path id="DejaVuSans-Bold-75" d="M 500 1363 
L 500 3500 
L 1625 3500 
L 1625 3150 
Q 1625 2866 1622 2436 
Q 1619 2006 1619 1863 
Q 1619 1441 1641 1255 
Q 1663 1069 1716 984 
Q 1784 875 1895 815 
Q 2006 756 2150 756 
Q 2500 756 2700 1025 
Q 2900 1294 2900 1772 
L 2900 3500 
L 4019 3500 
L 4019 0 
L 2900 0 
L 2900 506 
Q 2647 200 2364 54 
Q 2081 -91 1741 -91 
Q 1134 -91 817 281 
Q 500 653 500 1363 
z
" transform="scale(0.015625)"/>
        <path id="DejaVuSans-Bold-6e" d="M 4056 2131 
L 4056 0 
L 2931 0 
L 2931 347 
L 2931 1631 
Q 2931 2084 2911 2256 
Q 2891 2428 2841 2509 
Q 2775 2619 2662 2680 
Q 2550 2741 2406 2741 
Q 2056 2741 1856 2470 
Q 1656 2200 1656 1722 
L 1656 0 
L 538 0 
L 538 3500 
L 1656 3500 
L 1656 2988 
Q 1909 3294 2193 3439 
Q 2478 3584 2822 3584 
Q 3428 3584 3742 3212 
Q 4056 2841 4056 2131 
z
" transform="scale(0.015625)"/>
       </defs>
       <use xlink:href="#DejaVuSans-Bold-4a"/>
       <use xlink:href="#DejaVuSans-Bold-75" x="37.207031"/>
       <use xlink:href="#DejaVuSans-Bold-6e" x="108.398438"/>
      </g>
     </g>
    </g>
    <g id="xtick_6">
     <g id="line2d_6">
      <g>
       <use xlink:href="#me4bf9faa3b" x="298.574562" y="541.28" style="fill: #555555; stroke: #555555; stroke-width: 0.8"/>
      </g>
     </g>
     <g id="text_6">
      <!-- Jul -->
      <g style="fill: #555555" transform="translate(288.587531 558.917812)scale(0.14 -0.14)">
       <defs>
        <path id="DejaVuSans-Bold-6c" d="M 538 4863 
L 1656 4863 
L 1656 0 
L 538 0 
L 538 4863 
z
" transform="scale(0.015625)"/>
       </defs>
       <use xlink:href="#DejaVuSans-Bold-4a"/>
       <use xlink:href="#DejaVuSans-Bold-75" x="37.207031"/>
       <use xlink:href="#DejaVuSans-Bold-6c" x="108.398438"/>
      </g>
     </g>
    </g>
    <g id="xtick_7">
     <g id="line2d_7">
      <g>
       <use xlink:href="#me4bf9faa3b" x="341.780786" y="541.28" style="fill: #555555; stroke: #555555; stroke-width: 0.8"/>
      </g>
     </g>
     <g id="text_7">
      <!-- Aug -->
      <g style="fill: #555555" transform="translate(326.369849 558.808437)scale(0.14 -0.14)">
       <defs>
        <path id="DejaVuSans-Bold-67" d="M 2919 594 
Q 2688 288 2409 144 
Q 2131 0 1766 0 
Q 1125 0 706 504 
Q 288 1009 288 1791 
Q 288 2575 706 3076 
Q 1125 3578 1766 3578 
Q 2131 3578 2409 3434 
Q 2688 3291 2919 2981 
L 2919 3500 
L 4044 3500 
L 4044 353 
Q 4044 -491 3511 -936 
Q 2978 -1381 1966 -1381 
Q 1638 -1381 1331 -1331 
Q 1025 -1281 716 -1178 
L 716 -306 
Q 1009 -475 1290 -558 
Q 1572 -641 1856 -641 
Q 2406 -641 2662 -400 
Q 2919 -159 2919 353 
L 2919 594 
z
M 2181 2772 
Q 1834 2772 1640 2515 
Q 1447 2259 1447 1791 
Q 1447 1309 1634 1061 
Q 1822 813 2181 813 
Q 2531 813 2725 1069 
Q 2919 1325 2919 1791 
Q 2919 2259 2725 2515 
Q 2531 2772 2181 2772 
z
" transform="scale(0.015625)"/>
       </defs>
       <use xlink:href="#DejaVuSans-Bold-41"/>
       <use xlink:href="#DejaVuSans-Bold-75" x="77.392578"/>
       <use xlink:href="#DejaVuSans-Bold-67" x="148.583984"/>
      </g>
     </g>
    </g>
    <g id="xtick_8">
     <g id="line2d_8">
      <g>
       <use xlink:href="#me4bf9faa3b" x="384.987011" y="541.28" style="fill: #555555; stroke: #555555; stroke-width: 0.8"/>
      </g>
     </g>
     <g id="text_8">
      <!-- Sep -->
      <g style="fill: #555555" transform="translate(370.187479 558.917812)scale(0.14 -0.14)">
       <defs>
        <path id="DejaVuSans-Bold-53" d="M 3834 4519 
L 3834 3531 
Q 3450 3703 3084 3790 
Q 2719 3878 2394 3878 
Q 1963 3878 1756 3759 
Q 1550 3641 1550 3391 
Q 1550 3203 1689 3098 
Q 1828 2994 2194 2919 
L 2706 2816 
Q 3484 2659 3812 2340 
Q 4141 2022 4141 1434 
Q 4141 663 3683 286 
Q 3225 -91 2284 -91 
Q 1841 -91 1394 -6 
Q 947 78 500 244 
L 500 1259 
Q 947 1022 1364 901 
Q 1781 781 2169 781 
Q 2563 781 2772 912 
Q 2981 1044 2981 1288 
Q 2981 1506 2839 1625 
Q 2697 1744 2272 1838 
L 1806 1941 
Q 1106 2091 782 2419 
Q 459 2747 459 3303 
Q 459 4000 909 4375 
Q 1359 4750 2203 4750 
Q 2588 4750 2994 4692 
Q 3400 4634 3834 4519 
z
" transform="scale(0.015625)"/>
       </defs>
       <use xlink:href="#DejaVuSans-Bold-53"/>
       <use xlink:href="#DejaVuSans-Bold-65" x="72.021484"/>
       <use xlink:href="#DejaVuSans-Bold-70" x="139.84375"/>
      </g>
     </g>
    </g>
    <g id="xtick_9">
     <g id="line2d_9">
      <g>
       <use xlink:href="#me4bf9faa3b" x="426.799486" y="541.28" style="fill: #555555; stroke: #555555; stroke-width: 0.8"/>
      </g>
     </g>
     <g id="text_9">
      <!-- Oct -->
      <g style="fill: #555555" transform="translate(413.352923 558.917812)scale(0.14 -0.14)">
       <defs>
        <path id="DejaVuSans-Bold-4f" d="M 2719 3878 
Q 2169 3878 1866 3472 
Q 1563 3066 1563 2328 
Q 1563 1594 1866 1187 
Q 2169 781 2719 781 
Q 3272 781 3575 1187 
Q 3878 1594 3878 2328 
Q 3878 3066 3575 3472 
Q 3272 3878 2719 3878 
z
M 2719 4750 
Q 3844 4750 4481 4106 
Q 5119 3463 5119 2328 
Q 5119 1197 4481 553 
Q 3844 -91 2719 -91 
Q 1597 -91 958 553 
Q 319 1197 319 2328 
Q 319 3463 958 4106 
Q 1597 4750 2719 4750 
z
" transform="scale(0.015625)"/>
        <path id="DejaVuSans-Bold-63" d="M 3366 3391 
L 3366 2478 
Q 3138 2634 2908 2709 
Q 2678 2784 2431 2784 
Q 1963 2784 1702 2511 
Q 1441 2238 1441 1747 
Q 1441 1256 1702 982 
Q 1963 709 2431 709 
Q 2694 709 2930 787 
Q 3166 866 3366 1019 
L 3366 103 
Q 3103 6 2833 -42 
Q 2563 -91 2291 -91 
Q 1344 -91 809 395 
Q 275 881 275 1747 
Q 275 2613 809 3098 
Q 1344 3584 2291 3584 
Q 2566 3584 2833 3536 
Q 3100 3488 3366 3391 
z
" transform="scale(0.015625)"/>
        <path id="DejaVuSans-Bold-74" d="M 1759 4494 
L 1759 3500 
L 2913 3500 
L 2913 2700 
L 1759 2700 
L 1759 1216 
Q 1759 972 1856 886 
Q 1953 800 2241 800 
L 2816 800 
L 2816 0 
L 1856 0 
Q 1194 0 917 276 
Q 641 553 641 1216 
L 641 2700 
L 84 2700 
L 84 3500 
L 641 3500 
L 641 4494 
L 1759 4494 
z
" transform="scale(0.015625)"/>
       </defs>
       <use xlink:href="#DejaVuSans-Bold-4f"/>
       <use xlink:href="#DejaVuSans-Bold-63" x="85.009766"/>
       <use xlink:href="#DejaVuSans-Bold-74" x="144.287109"/>
      </g>
     </g>
    </g>
    <g id="xtick_10">
     <g id="line2d_10">
      <g>
       <use xlink:href="#me4bf9faa3b" x="470.00571" y="541.28" style="fill: #555555; stroke: #555555; stroke-width: 0.8"/>
      </g>
     </g>
     <g id="text_10">
      <!-- Nov -->
      <g style="fill: #555555" transform="translate(454.775241 558.917812)scale(0.14 -0.14)">
       <defs>
        <path id="DejaVuSans-Bold-4e" d="M 588 4666 
L 1931 4666 
L 3628 1466 
L 3628 4666 
L 4769 4666 
L 4769 0 
L 3425 0 
L 1728 3200 
L 1728 0 
L 588 0 
L 588 4666 
z
" transform="scale(0.015625)"/>
        <path id="DejaVuSans-Bold-6f" d="M 2203 2784 
Q 1831 2784 1636 2517 
Q 1441 2250 1441 1747 
Q 1441 1244 1636 976 
Q 1831 709 2203 709 
Q 2569 709 2762 976 
Q 2956 1244 2956 1747 
Q 2956 2250 2762 2517 
Q 2569 2784 2203 2784 
z
M 2203 3584 
Q 3106 3584 3614 3096 
Q 4122 2609 4122 1747 
Q 4122 884 3614 396 
Q 3106 -91 2203 -91 
Q 1297 -91 786 396 
Q 275 884 275 1747 
Q 275 2609 786 3096 
Q 1297 3584 2203 3584 
z
" transform="scale(0.015625)"/>
        <path id="DejaVuSans-Bold-76" d="M 97 3500 
L 1216 3500 
L 2088 1081 
L 2956 3500 
L 4078 3500 
L 2700 0 
L 1472 0 
L 97 3500 
z
" transform="scale(0.015625)"/>
       </defs>
       <use xlink:href="#DejaVuSans-Bold-4e"/>
       <use xlink:href="#DejaVuSans-Bold-6f" x="83.691406"/>
       <use xlink:href="#DejaVuSans-Bold-76" x="152.392578"/>
      </g>
     </g>
    </g>
    <g id="xtick_11">
     <g id="line2d_11">
      <g>
       <use xlink:href="#me4bf9faa3b" x="511.818185" y="541.28" style="fill: #555555; stroke: #555555; stroke-width: 0.8"/>
      </g>
     </g>
     <g id="text_11">
      <!-- Dec -->
      <g style="fill: #555555" transform="translate(497.109435 558.917812)scale(0.14 -0.14)">
       <defs>
        <path id="DejaVuSans-Bold-44" d="M 1791 3756 
L 1791 909 
L 2222 909 
Q 2959 909 3348 1275 
Q 3738 1641 3738 2338 
Q 3738 3031 3350 3393 
Q 2963 3756 2222 3756 
L 1791 3756 
z
M 588 4666 
L 1856 4666 
Q 2919 4666 3439 4514 
Q 3959 4363 4331 4000 
Q 4659 3684 4818 3271 
Q 4978 2859 4978 2338 
Q 4978 1809 4818 1395 
Q 4659 981 4331 666 
Q 3956 303 3431 151 
Q 2906 0 1856 0 
L 588 0 
L 588 4666 
z
" transform="scale(0.015625)"/>
       </defs>
       <use xlink:href="#DejaVuSans-Bold-44"/>
       <use xlink:href="#DejaVuSans-Bold-65" x="83.007812"/>
       <use xlink:href="#DejaVuSans-Bold-63" x="150.830078"/>
      </g>
     </g>
    </g>
    <g id="xtick_12">
     <g id="line2d_12">
      <g>
       <use xlink:href="#me4bf9faa3b" x="555.024409" y="541.28" style="fill: #555555; stroke: #555555; stroke-width: 0.8"/>
      </g>
     </g>
     <g id="text_12">
      <!-- Jan -->
      <g style="fill: #555555" transform="translate(542.713159 558.917812)scale(0.14 -0.14)">
       <use xlink:href="#DejaVuSans-Bold-4a"/>
       <use xlink:href="#DejaVuSans-Bold-61" x="37.207031"/>
       <use xlink:href="#DejaVuSans-Bold-6e" x="104.6875"/>
      </g>
     </g>
    </g>
    <g id="xtick_13">
     <g id="line2d_13">
      <g>
       <use xlink:href="#me4bf9faa3b" x="598.230634" y="541.28" style="fill: #555555; stroke: #555555; stroke-width: 0.8"/>
      </g>
     </g>
     <g id="text_13">
      <!-- Feb -->
      <g style="fill: #555555" transform="translate(583.970321 558.917812)scale(0.14 -0.14)">
       <use xlink:href="#DejaVuSans-Bold-46"/>
       <use xlink:href="#DejaVuSans-Bold-65" x="64.310547"/>
       <use xlink:href="#DejaVuSans-Bold-62" x="132.132812"/>
      </g>
     </g>
    </g>
    <g id="xtick_14">
     <g id="line2d_14">
      <g>
       <use xlink:href="#me4bf9faa3b" x="637.25561" y="541.28" style="fill: #555555; stroke: #555555; stroke-width: 0.8"/>
      </g>
     </g>
     <g id="text_14">
      <!-- Mar -->
      <g style="fill: #555555" transform="translate(622.113735 558.917812)scale(0.14 -0.14)">
       <use xlink:href="#DejaVuSans-Bold-4d"/>
       <use xlink:href="#DejaVuSans-Bold-61" x="99.511719"/>
       <use xlink:href="#DejaVuSans-Bold-72" x="166.992188"/>
      </g>
     </g>
    </g>
    <g id="xtick_15">
     <g id="line2d_15">
      <g>
       <use xlink:href="#me4bf9faa3b" x="680.461835" y="541.28" style="fill: #555555; stroke: #555555; stroke-width: 0.8"/>
      </g>
     </g>
     <g id="text_15">
      <!-- Apr -->
      <g style="fill: #555555" transform="translate(666.582147 558.917812)scale(0.14 -0.14)">
       <use xlink:href="#DejaVuSans-Bold-41"/>
       <use xlink:href="#DejaVuSans-Bold-70" x="77.392578"/>
       <use xlink:href="#DejaVuSans-Bold-72" x="148.974609"/>
      </g>
     </g>
    </g>
    <g id="xtick_16">
     <g id="line2d_16">
      <g>
       <use xlink:href="#me4bf9faa3b" x="722.27431" y="541.28" style="fill: #555555; stroke: #555555; stroke-width: 0.8"/>
      </g>
     </g>
     <g id="text_16">
      <!-- May -->
      <g style="fill: #555555" transform="translate(706.239935 558.808437)scale(0.14 -0.14)">
       <use xlink:href="#DejaVuSans-Bold-4d"/>
       <use xlink:href="#DejaVuSans-Bold-61" x="99.511719"/>
       <use xlink:href="#DejaVuSans-Bold-79" x="163.867188"/>
      </g>
     </g>
    </g>
    <g id="xtick_17">
     <g id="line2d_17">
      <g>
       <use xlink:href="#me4bf9faa3b" x="765.480534" y="541.28" style="fill: #555555; stroke: #555555; stroke-width: 0.8"/>
      </g>
     </g>
     <g id="text_17">
      <!-- Jun -->
      <g style="fill: #555555" transform="translate(752.910065 558.917812)scale(0.14 -0.14)">
       <use xlink:href="#DejaVuSans-Bold-4a"/>
       <use xlink:href="#DejaVuSans-Bold-75" x="37.207031"/>
       <use xlink:href="#DejaVuSans-Bold-6e" x="108.398438"/>
      </g>
     </g>
    </g>
    <g id="xtick_18">
     <g id="line2d_18">
      <g>
       <use xlink:href="#me4bf9faa3b" x="807.293009" y="541.28" style="fill: #555555; stroke: #555555; stroke-width: 0.8"/>
      </g>
     </g>
     <g id="text_18">
      <!-- Jul -->
      <g style="fill: #555555" transform="translate(797.305978 558.917812)scale(0.14 -0.14)">
       <use xlink:href="#DejaVuSans-Bold-4a"/>
       <use xlink:href="#DejaVuSans-Bold-75" x="37.207031"/>
       <use xlink:href="#DejaVuSans-Bold-6c" x="108.398438"/>
      </g>
     </g>
    </g>
    <g id="xtick_19">
     <g id="line2d_19">
      <g>
       <use xlink:href="#me4bf9faa3b" x="850.499234" y="541.28" style="fill: #555555; stroke: #555555; stroke-width: 0.8"/>
      </g>
     </g>
     <g id="text_19">
      <!-- Aug -->
      <g style="fill: #555555" transform="translate(835.088296 558.808437)scale(0.14 -0.14)">
       <use xlink:href="#DejaVuSans-Bold-41"/>
       <use xlink:href="#DejaVuSans-Bold-75" x="77.392578"/>
       <use xlink:href="#DejaVuSans-Bold-67" x="148.583984"/>
      </g>
     </g>
    </g>
    <g id="xtick_20">
     <g id="line2d_20">
      <g>
       <use xlink:href="#me4bf9faa3b" x="893.705458" y="541.28" style="fill: #555555; stroke: #555555; stroke-width: 0.8"/>
      </g>
     </g>
     <g id="text_20">
      <!-- Sep -->
      <g style="fill: #555555" transform="translate(878.905927 558.917812)scale(0.14 -0.14)">
       <use xlink:href="#DejaVuSans-Bold-53"/>
       <use xlink:href="#DejaVuSans-Bold-65" x="72.021484"/>
       <use xlink:href="#DejaVuSans-Bold-70" x="139.84375"/>
      </g>
     </g>
    </g>
    <g id="xtick_21">
     <g id="line2d_21">
      <g>
       <use xlink:href="#me4bf9faa3b" x="935.517933" y="541.28" style="fill: #555555; stroke: #555555; stroke-width: 0.8"/>
      </g>
     </g>
     <g id="text_21">
      <!-- Oct -->
      <g style="fill: #555555" transform="translate(922.07137 558.917812)scale(0.14 -0.14)">
       <use xlink:href="#DejaVuSans-Bold-4f"/>
       <use xlink:href="#DejaVuSans-Bold-63" x="85.009766"/>
       <use xlink:href="#DejaVuSans-Bold-74" x="144.287109"/>
      </g>
     </g>
    </g>
    <g id="xtick_22">
     <g id="line2d_22">
      <g>
       <use xlink:href="#me4bf9faa3b" x="978.724157" y="541.28" style="fill: #555555; stroke: #555555; stroke-width: 0.8"/>
      </g>
     </g>
     <g id="text_22">
      <!-- Nov -->
      <g style="fill: #555555" transform="translate(963.493689 558.917812)scale(0.14 -0.14)">
       <use xlink:href="#DejaVuSans-Bold-4e"/>
       <use xlink:href="#DejaVuSans-Bold-6f" x="83.691406"/>
       <use xlink:href="#DejaVuSans-Bold-76" x="152.392578"/>
      </g>
     </g>
    </g>
    <g id="xtick_23">
     <g id="line2d_23">
      <g>
       <use xlink:href="#me4bf9faa3b" x="1020.536632" y="541.28" style="fill: #555555; stroke: #555555; stroke-width: 0.8"/>
      </g>
     </g>
     <g id="text_23">
      <!-- Dec -->
      <g style="fill: #555555" transform="translate(1005.827882 558.917812)scale(0.14 -0.14)">
       <use xlink:href="#DejaVuSans-Bold-44"/>
       <use xlink:href="#DejaVuSans-Bold-65" x="83.007812"/>
       <use xlink:href="#DejaVuSans-Bold-63" x="150.830078"/>
      </g>
     </g>
    </g>
    <g id="xtick_24">
     <g id="line2d_24">
      <g>
       <use xlink:href="#me4bf9faa3b" x="1063.742857" y="541.28" style="fill: #555555; stroke: #555555; stroke-width: 0.8"/>
      </g>
     </g>
     <g id="text_24">
      <!-- Jan -->
      <g style="fill: #555555" transform="translate(1051.431607 558.917812)scale(0.14 -0.14)">
       <use xlink:href="#DejaVuSans-Bold-4a"/>
       <use xlink:href="#DejaVuSans-Bold-61" x="37.207031"/>
       <use xlink:href="#DejaVuSans-Bold-6e" x="104.6875"/>
      </g>
     </g>
    </g>
    <g id="xtick_25">
     <g id="line2d_25">
      <g>
       <use xlink:href="#me4bf9faa3b" x="1106.949081" y="541.28" style="fill: #555555; stroke: #555555; stroke-width: 0.8"/>
      </g>
     </g>
     <g id="text_25">
      <!-- Feb -->
      <g style="fill: #555555" transform="translate(1092.688768 558.917812)scale(0.14 -0.14)">
       <use xlink:href="#DejaVuSans-Bold-46"/>
       <use xlink:href="#DejaVuSans-Bold-65" x="64.310547"/>
       <use xlink:href="#DejaVuSans-Bold-62" x="132.132812"/>
      </g>
     </g>
    </g>
   </g>
   <g id="matplotlib.axis_2">
    <g id="ytick_1">
     <g id="line2d_26">
      <defs>
       <path id="m6334c8333a" d="M 0 0 
L -3.5 0 
" style="stroke: #555555; stroke-width: 0.8"/>
      </defs>
      <g>
       <use xlink:href="#m6334c8333a" x="87.77" y="518.72564" style="fill: #555555; stroke: #555555; stroke-width: 0.8"/>
      </g>
     </g>
     <g id="text_26">
      <!-- 0 -->
      <g style="fill: #555555" transform="translate(71.029063 524.044546)scale(0.14 -0.14)">
       <defs>
        <path id="DejaVuSans-Bold-30" d="M 2944 2338 
Q 2944 3213 2780 3570 
Q 2616 3928 2228 3928 
Q 1841 3928 1675 3570 
Q 1509 3213 1509 2338 
Q 1509 1453 1675 1090 
Q 1841 728 2228 728 
Q 2613 728 2778 1090 
Q 2944 1453 2944 2338 
z
M 4147 2328 
Q 4147 1169 3647 539 
Q 3147 -91 2228 -91 
Q 1306 -91 806 539 
Q 306 1169 306 2328 
Q 306 3491 806 4120 
Q 1306 4750 2228 4750 
Q 3147 4750 3647 4120 
Q 4147 3491 4147 2328 
z
" transform="scale(0.015625)"/>
       </defs>
       <use xlink:href="#DejaVuSans-Bold-30"/>
      </g>
     </g>
    </g>
    <g id="ytick_2">
     <g id="line2d_27">
      <g>
       <use xlink:href="#m6334c8333a" x="87.77" y="410.748043" style="fill: #555555; stroke: #555555; stroke-width: 0.8"/>
      </g>
     </g>
     <g id="text_27">
      <!-- 10000 -->
      <g style="fill: #555555" transform="translate(32.065313 416.066949)scale(0.14 -0.14)">
       <defs>
        <path id="DejaVuSans-Bold-31" d="M 750 831 
L 1813 831 
L 1813 3847 
L 722 3622 
L 722 4441 
L 1806 4666 
L 2950 4666 
L 2950 831 
L 4013 831 
L 4013 0 
L 750 0 
L 750 831 
z
" transform="scale(0.015625)"/>
       </defs>
       <use xlink:href="#DejaVuSans-Bold-31"/>
       <use xlink:href="#DejaVuSans-Bold-30" x="69.580078"/>
       <use xlink:href="#DejaVuSans-Bold-30" x="139.160156"/>
       <use xlink:href="#DejaVuSans-Bold-30" x="208.740234"/>
       <use xlink:href="#DejaVuSans-Bold-30" x="278.320312"/>
      </g>
     </g>
    </g>
    <g id="ytick_3">
     <g id="line2d_28">
      <g>
       <use xlink:href="#m6334c8333a" x="87.77" y="302.770447" style="fill: #555555; stroke: #555555; stroke-width: 0.8"/>
      </g>
     </g>
     <g id="text_28">
      <!-- 20000 -->
      <g style="fill: #555555" transform="translate(32.065313 308.089353)scale(0.14 -0.14)">
       <defs>
        <path id="DejaVuSans-Bold-32" d="M 1844 884 
L 3897 884 
L 3897 0 
L 506 0 
L 506 884 
L 2209 2388 
Q 2438 2594 2547 2791 
Q 2656 2988 2656 3200 
Q 2656 3528 2436 3728 
Q 2216 3928 1850 3928 
Q 1569 3928 1234 3808 
Q 900 3688 519 3450 
L 519 4475 
Q 925 4609 1322 4679 
Q 1719 4750 2100 4750 
Q 2938 4750 3402 4381 
Q 3866 4013 3866 3353 
Q 3866 2972 3669 2642 
Q 3472 2313 2841 1759 
L 1844 884 
z
" transform="scale(0.015625)"/>
       </defs>
       <use xlink:href="#DejaVuSans-Bold-32"/>
       <use xlink:href="#DejaVuSans-Bold-30" x="69.580078"/>
       <use xlink:href="#DejaVuSans-Bold-30" x="139.160156"/>
       <use xlink:href="#DejaVuSans-Bold-30" x="208.740234"/>
       <use xlink:href="#DejaVuSans-Bold-30" x="278.320312"/>
      </g>
     </g>
    </g>
    <g id="ytick_4">
     <g id="line2d_29">
      <g>
       <use xlink:href="#m6334c8333a" x="87.77" y="194.79285" style="fill: #555555; stroke: #555555; stroke-width: 0.8"/>
      </g>
     </g>
     <g id="text_29">
      <!-- 30000 -->
      <g style="fill: #555555" transform="translate(32.065313 200.111756)scale(0.14 -0.14)">
       <defs>
        <path id="DejaVuSans-Bold-33" d="M 2981 2516 
Q 3453 2394 3698 2092 
Q 3944 1791 3944 1325 
Q 3944 631 3412 270 
Q 2881 -91 1863 -91 
Q 1503 -91 1142 -33 
Q 781 25 428 141 
L 428 1069 
Q 766 900 1098 814 
Q 1431 728 1753 728 
Q 2231 728 2486 893 
Q 2741 1059 2741 1369 
Q 2741 1688 2480 1852 
Q 2219 2016 1709 2016 
L 1228 2016 
L 1228 2791 
L 1734 2791 
Q 2188 2791 2409 2933 
Q 2631 3075 2631 3366 
Q 2631 3634 2415 3781 
Q 2200 3928 1806 3928 
Q 1516 3928 1219 3862 
Q 922 3797 628 3669 
L 628 4550 
Q 984 4650 1334 4700 
Q 1684 4750 2022 4750 
Q 2931 4750 3382 4451 
Q 3834 4153 3834 3553 
Q 3834 3144 3618 2883 
Q 3403 2622 2981 2516 
z
" transform="scale(0.015625)"/>
       </defs>
       <use xlink:href="#DejaVuSans-Bold-33"/>
       <use xlink:href="#DejaVuSans-Bold-30" x="69.580078"/>
       <use xlink:href="#DejaVuSans-Bold-30" x="139.160156"/>
       <use xlink:href="#DejaVuSans-Bold-30" x="208.740234"/>
       <use xlink:href="#DejaVuSans-Bold-30" x="278.320312"/>
      </g>
     </g>
    </g>
    <g id="ytick_5">
     <g id="line2d_30">
      <g>
       <use xlink:href="#m6334c8333a" x="87.77" y="86.815254" style="fill: #555555; stroke: #555555; stroke-width: 0.8"/>
      </g>
     </g>
     <g id="text_30">
      <!-- 40000 -->
      <g style="fill: #555555" transform="translate(32.065313 92.13416)scale(0.14 -0.14)">
       <defs>
        <path id="DejaVuSans-Bold-34" d="M 2356 3675 
L 1038 1722 
L 2356 1722 
L 2356 3675 
z
M 2156 4666 
L 3494 4666 
L 3494 1722 
L 4159 1722 
L 4159 850 
L 3494 850 
L 3494 0 
L 2356 0 
L 2356 850 
L 288 850 
L 288 1881 
L 2156 4666 
z
" transform="scale(0.015625)"/>
       </defs>
       <use xlink:href="#DejaVuSans-Bold-34"/>
       <use xlink:href="#DejaVuSans-Bold-30" x="69.580078"/>
       <use xlink:href="#DejaVuSans-Bold-30" x="139.160156"/>
       <use xlink:href="#DejaVuSans-Bold-30" x="208.740234"/>
       <use xlink:href="#DejaVuSans-Bold-30" x="278.320312"/>
      </g>
     </g>
    </g>
    <g id="text_31">
     <!-- New Cases -->
     <g style="fill: #555555" transform="translate(24.737813 333.23875)rotate(-90)scale(0.16 -0.16)">
      <defs>
       <path id="DejaVuSans-4e" d="M 628 4666 
L 1478 4666 
L 3547 763 
L 3547 4666 
L 4159 4666 
L 4159 0 
L 3309 0 
L 1241 3903 
L 1241 0 
L 628 0 
L 628 4666 
z
" transform="scale(0.015625)"/>
       <path id="DejaVuSans-65" d="M 3597 1894 
L 3597 1613 
L 953 1613 
Q 991 1019 1311 708 
Q 1631 397 2203 397 
Q 2534 397 2845 478 
Q 3156 559 3463 722 
L 3463 178 
Q 3153 47 2828 -22 
Q 2503 -91 2169 -91 
Q 1331 -91 842 396 
Q 353 884 353 1716 
Q 353 2575 817 3079 
Q 1281 3584 2069 3584 
Q 2775 3584 3186 3129 
Q 3597 2675 3597 1894 
z
M 3022 2063 
Q 3016 2534 2758 2815 
Q 2500 3097 2075 3097 
Q 1594 3097 1305 2825 
Q 1016 2553 972 2059 
L 3022 2063 
z
" transform="scale(0.015625)"/>
       <path id="DejaVuSans-77" d="M 269 3500 
L 844 3500 
L 1563 769 
L 2278 3500 
L 2956 3500 
L 3675 769 
L 4391 3500 
L 4966 3500 
L 4050 0 
L 3372 0 
L 2619 2869 
L 1863 0 
L 1184 0 
L 269 3500 
z
" transform="scale(0.015625)"/>
       <path id="DejaVuSans-20" transform="scale(0.015625)"/>
       <path id="DejaVuSans-43" d="M 4122 4306 
L 4122 3641 
Q 3803 3938 3442 4084 
Q 3081 4231 2675 4231 
Q 1875 4231 1450 3742 
Q 1025 3253 1025 2328 
Q 1025 1406 1450 917 
Q 1875 428 2675 428 
Q 3081 428 3442 575 
Q 3803 722 4122 1019 
L 4122 359 
Q 3791 134 3420 21 
Q 3050 -91 2638 -91 
Q 1578 -91 968 557 
Q 359 1206 359 2328 
Q 359 3453 968 4101 
Q 1578 4750 2638 4750 
Q 3056 4750 3426 4639 
Q 3797 4528 4122 4306 
z
" transform="scale(0.015625)"/>
       <path id="DejaVuSans-61" d="M 2194 1759 
Q 1497 1759 1228 1600 
Q 959 1441 959 1056 
Q 959 750 1161 570 
Q 1363 391 1709 391 
Q 2188 391 2477 730 
Q 2766 1069 2766 1631 
L 2766 1759 
L 2194 1759 
z
M 3341 1997 
L 3341 0 
L 2766 0 
L 2766 531 
Q 2569 213 2275 61 
Q 1981 -91 1556 -91 
Q 1019 -91 701 211 
Q 384 513 384 1019 
Q 384 1609 779 1909 
Q 1175 2209 1959 2209 
L 2766 2209 
L 2766 2266 
Q 2766 2663 2505 2880 
Q 2244 3097 1772 3097 
Q 1472 3097 1187 3025 
Q 903 2953 641 2809 
L 641 3341 
Q 956 3463 1253 3523 
Q 1550 3584 1831 3584 
Q 2591 3584 2966 3190 
Q 3341 2797 3341 1997 
z
" transform="scale(0.015625)"/>
       <path id="DejaVuSans-73" d="M 2834 3397 
L 2834 2853 
Q 2591 2978 2328 3040 
Q 2066 3103 1784 3103 
Q 1356 3103 1142 2972 
Q 928 2841 928 2578 
Q 928 2378 1081 2264 
Q 1234 2150 1697 2047 
L 1894 2003 
Q 2506 1872 2764 1633 
Q 3022 1394 3022 966 
Q 3022 478 2636 193 
Q 2250 -91 1575 -91 
Q 1294 -91 989 -36 
Q 684 19 347 128 
L 347 722 
Q 666 556 975 473 
Q 1284 391 1588 391 
Q 1994 391 2212 530 
Q 2431 669 2431 922 
Q 2431 1156 2273 1281 
Q 2116 1406 1581 1522 
L 1381 1569 
Q 847 1681 609 1914 
Q 372 2147 372 2553 
Q 372 3047 722 3315 
Q 1072 3584 1716 3584 
Q 2034 3584 2315 3537 
Q 2597 3491 2834 3397 
z
" transform="scale(0.015625)"/>
      </defs>
      <use xlink:href="#DejaVuSans-4e"/>
      <use xlink:href="#DejaVuSans-65" x="74.804688"/>
      <use xlink:href="#DejaVuSans-77" x="136.328125"/>
      <use xlink:href="#DejaVuSans-20" x="218.115234"/>
      <use xlink:href="#DejaVuSans-43" x="249.902344"/>
      <use xlink:href="#DejaVuSans-61" x="319.726562"/>
      <use xlink:href="#DejaVuSans-73" x="381.005859"/>
      <use xlink:href="#DejaVuSans-65" x="433.105469"/>
      <use xlink:href="#DejaVuSans-73" x="494.628906"/>
     </g>
    </g>
   </g>
   <g id="line2d_31">
    <path d="M 135.505909 518.293729 
L 136.899658 518.185752 
L 138.293407 518.380111 
L 139.687157 518.066976 
L 141.080906 517.321931 
L 142.474655 517.397515 
L 143.868404 517.354324 
L 145.262153 517.505493 
L 146.655902 516.36093 
L 148.049652 516.857627 
L 149.443401 515.810245 
L 150.83715 515.615885 
L 153.624648 514.449727 
L 155.018397 512.970434 
L 156.412147 511.847467 
L 157.805896 512.192995 
L 159.199645 512.754479 
L 160.593394 510.638118 
L 161.987143 509.623128 
L 164.774642 506.124654 
L 166.168391 506.351407 
L 167.56214 506.934486 
L 168.955889 509.299195 
L 170.349638 509.720308 
L 171.743388 507.841498 
L 173.137137 507.031666 
L 174.530886 507.711925 
L 175.924635 507.906284 
L 177.318384 506.858902 
L 180.105883 510.281792 
L 181.499632 508.370588 
L 182.893381 505.681946 
L 184.28713 504.397013 
L 185.680879 504.677754 
L 187.074628 506.081463 
L 188.468378 508.370588 
L 189.862127 509.417971 
L 191.255876 510.843275 
L 192.649625 507.182835 
L 194.043374 505.401204 
L 195.437123 505.919497 
L 196.830873 507.679532 
L 198.224622 510.648915 
L 199.618371 510.994444 
L 201.01212 511.080826 
L 202.405869 509.288398 
L 203.799618 510.033443 
L 205.193368 511.739489 
L 206.587117 511.696298 
L 207.980866 514.352547 
L 209.374615 516.641672 
L 210.768364 514.536109 
L 212.162113 513.251175 
L 213.555863 513.564311 
L 214.949612 514.007019 
L 216.343361 515.075997 
L 217.73711 516.55529 
L 219.130859 515.281154 
L 220.524608 515.281154 
L 221.918358 514.827648 
L 223.312107 515.281154 
L 224.705856 515.615885 
L 226.099605 516.112582 
L 227.493354 516.792841 
L 228.887104 516.620077 
L 230.280853 516.317739 
L 231.674602 515.767053 
L 233.068351 516.544492 
L 234.4621 516.630874 
L 235.855849 517.37592 
L 237.249599 517.127571 
L 238.643348 517.527088 
L 241.430846 515.983009 
L 242.824595 516.738852 
L 245.612094 516.857627 
L 247.005843 516.425717 
L 248.399592 517.332729 
L 249.793341 516.630874 
L 251.18709 516.803638 
L 252.580839 516.803638 
L 253.974589 517.203156 
L 255.368338 516.825234 
L 256.762087 517.602673 
L 259.549585 517.721448 
L 260.943334 516.695661 
L 262.337084 516.382526 
L 263.730833 516.674065 
L 265.124582 516.144975 
L 266.518331 516.933212 
L 267.91208 516.954807 
L 269.305829 516.771245 
L 270.699579 516.976403 
L 272.093328 516.490503 
L 273.487077 516.771245 
L 274.880826 517.170762 
L 276.274575 517.008796 
L 279.062074 517.505493 
L 280.455823 517.386717 
L 283.243321 517.753841 
L 284.63707 517.699852 
L 286.03082 517.991392 
L 288.818318 517.861819 
L 290.212067 517.537886 
L 294.393315 518.012988 
L 295.787064 517.90501 
L 297.180813 518.110167 
L 301.36206 517.90501 
L 302.75581 518.023785 
L 304.149559 517.948201 
L 305.543308 518.282931 
L 306.937057 518.358516 
L 308.330806 518.110167 
L 311.118305 518.023785 
L 313.905803 517.699852 
L 315.299552 517.948201 
L 316.693301 517.667459 
L 319.4808 517.440706 
L 320.874549 517.548684 
L 322.268298 517.159964 
L 323.662047 517.159964 
L 325.055796 516.74965 
L 326.449545 516.900818 
L 329.237044 516.954807 
L 330.630793 517.051987 
L 333.418291 516.425717 
L 334.81204 516.468908 
L 337.599539 516.047795 
L 338.993288 515.043604 
L 340.387037 515.043604 
L 341.780786 514.071805 
L 343.174536 514.849244 
L 344.568285 514.708873 
L 345.962034 513.467131 
L 347.355783 514.104199 
L 348.749532 512.192995 
L 350.143281 513.143198 
L 351.537031 513.499524 
L 352.93078 512.495332 
L 354.324529 510.227803 
L 355.718278 512.031029 
L 357.112027 511.696298 
L 358.505776 512.50613 
L 359.899526 511.955444 
L 361.293275 511.642309 
L 362.687024 513.337558 
L 364.080773 513.477928 
L 365.474522 513.402344 
L 366.868271 512.754479 
L 368.262021 512.992029 
L 369.65577 512.970434 
L 371.049519 513.251175 
L 372.443268 513.812659 
L 373.837017 512.538523 
L 375.230766 514.233772 
L 376.624516 512.549321 
L 378.018265 513.240378 
L 380.805763 513.294367 
L 382.199512 513.261973 
L 383.593261 513.046018 
L 384.987011 513.683086 
L 386.38076 510.951253 
L 387.774509 512.257782 
L 389.168258 510.702904 
L 390.562007 511.717894 
L 391.955756 508.791701 
L 393.349506 510.141421 
L 396.137004 506.416194 
L 397.530753 509.687915 
L 398.924502 505.001687 
L 400.318251 505.530777 
L 401.712001 506.988475 
L 403.10575 504.720945 
L 404.499499 503.867922 
L 405.893248 502.129483 
L 408.680747 497.61602 
L 410.074496 498.296278 
L 411.468245 498.814571 
L 412.861994 494.851793 
L 414.255743 494.571051 
L 415.649492 493.523669 
L 417.043242 491.342521 
L 418.436991 488.880632 
L 419.83074 489.571689 
L 421.224489 486.591507 
L 422.618238 487.401339 
L 424.011987 486.28917 
L 425.405737 483.244201 
L 426.799486 483.600527 
L 428.193235 477.650962 
L 429.586984 476.236455 
L 430.980733 475.718163 
L 432.374482 469.541844 
L 433.768232 469.930564 
L 435.161981 465.039179 
L 436.55573 456.282196 
L 437.949479 454.370992 
L 439.343228 448.777753 
L 440.736977 450.246248 
L 442.130727 445.268481 
L 443.524476 439.556466 
L 444.918225 440.431084 
L 446.311974 434.751463 
L 447.705723 432.88345 
L 449.099472 431.209798 
L 450.493222 430.745494 
L 451.886971 432.494731 
L 453.28072 430.788685 
L 456.068218 418.835565 
L 457.461967 411.05038 
L 458.855717 425.411401 
L 460.249466 408.93402 
L 461.643215 407.476322 
L 463.036964 407.875839 
L 464.430713 431.512135 
L 465.824463 408.102592 
L 467.218212 399.237631 
L 468.611961 413.22073 
L 470.00571 425.011884 
L 471.399459 429.492954 
L 472.793208 435.172575 
L 474.186958 436.662666 
L 475.580707 443.724401 
L 476.974456 440.701028 
L 478.368205 447.287662 
L 481.155703 468.3109 
L 482.549453 468.580844 
L 483.943202 460.601299 
L 485.336951 458.053028 
L 486.7307 453.215632 
L 488.124449 455.051251 
L 489.518198 460.223378 
L 492.305697 472.511228 
L 493.699446 469.239507 
L 495.093195 457.329578 
L 496.486944 454.684127 
L 497.880693 453.895891 
L 499.274443 460.871243 
L 500.668192 462.782447 
L 502.061941 476.106882 
L 503.45569 465.70864 
L 504.849439 470.48125 
L 506.243188 456.627724 
L 507.636938 470.513643 
L 509.030687 458.636107 
L 510.424436 469.358283 
L 511.818185 475.124286 
L 513.211934 465.730235 
L 514.605683 458.322972 
L 515.999433 455.116038 
L 517.393182 448.227067 
L 518.786931 445.721987 
L 520.18068 442.126333 
L 521.574429 452.654148 
L 522.968179 448.0651 
L 524.361928 424.687951 
L 525.755677 423.305838 
L 527.149426 420.228476 
L 528.543175 412.076168 
L 529.936924 427.365795 
L 531.330674 447.136493 
L 532.724423 398.157855 
L 534.118172 380.751867 
L 535.511921 389.627625 
L 536.90567 386.733826 
L 538.299419 378.387157 
L 539.693169 398.265833 
L 541.086918 412.670044 
L 542.480667 406.536917 
L 543.874416 394.61619 
L 545.268165 394.605392 
L 546.661914 412.745629 
L 548.055664 421.491814 
L 549.449413 438.843814 
L 550.843162 437.548083 
L 552.236911 416.697609 
L 553.63066 414.37609 
L 555.024409 430.518741 
L 556.418159 425.983682 
L 557.811908 438.865409 
L 559.205657 447.114898 
L 560.599406 449.954708 
L 561.993155 442.180321 
L 563.386904 414.235719 
L 564.780654 431.134213 
L 567.568152 447.43883 
L 568.961901 459.899445 
L 570.35565 465.363111 
L 571.749399 452.956486 
L 573.143149 448.551 
L 574.536898 453.669138 
L 575.930647 461.551502 
L 577.324396 458.452545 
L 578.718145 467.069157 
L 580.111894 472.36006 
L 581.505644 458.592916 
L 582.899393 456.044645 
L 584.293142 456.69251 
L 585.686891 459.921041 
L 587.08064 466.021775 
L 588.47439 474.5736 
L 589.868139 475.977309 
L 591.261888 467.706225 
L 592.655637 468.073349 
L 594.049386 471.24789 
L 595.443135 473.677386 
L 596.836885 479.022277 
L 598.230634 483.762494 
L 599.624383 480.415188 
L 601.018132 475.340241 
L 602.411881 473.385847 
L 603.80563 472.111711 
L 605.19938 474.584398 
L 606.593129 476.420017 
L 607.986878 494.355096 
L 609.380627 499.73238 
L 610.774376 484.464348 
L 612.168125 470.923958 
L 613.561875 472.003734 
L 614.955624 473.677386 
L 616.349373 481.743313 
L 617.743122 488.038407 
L 619.136871 489.679666 
L 620.53062 482.358785 
L 621.92437 469.509451 
L 623.318119 468.235316 
L 624.711868 469.714609 
L 626.105617 468.3109 
L 627.499366 473.601802 
L 628.893115 477.596973 
L 630.286865 471.561025 
L 631.680614 464.898808 
L 633.074363 463.775841 
L 634.468112 465.579067 
L 635.861861 468.688821 
L 637.25561 478.244839 
L 638.64936 475.912523 
L 640.043109 464.488493 
L 641.436858 474.541207 
L 642.830607 468.386484 
L 644.224356 461.36794 
L 645.618106 470.049339 
L 647.011855 476.787141 
L 648.405604 472.446442 
L 649.799353 461.951019 
L 651.193102 461.529907 
L 652.586851 454.209026 
L 653.980601 449.889922 
L 656.768099 459.316366 
L 658.161848 465.363111 
L 659.555597 454.932476 
L 660.949346 452.524575 
L 662.343096 439.383702 
L 663.736845 436.641071 
L 666.524343 450.699754 
L 667.918092 458.171804 
L 669.311841 437.137768 
L 670.705591 435.712463 
L 672.09934 437.12697 
L 673.493089 423.899714 
L 674.886838 438.066375 
L 676.280587 445.506031 
L 677.674336 455.504757 
L 679.068086 436.349531 
L 680.461835 434.297957 
L 681.855584 440.830602 
L 683.249333 436.69506 
L 684.643082 444.631413 
L 686.036831 461.13039 
L 687.430581 458.700894 
L 688.82433 449.965506 
L 690.218079 434.924227 
L 691.611828 436.014801 
L 693.005577 436.025598 
L 694.399326 430.810281 
L 695.793076 446.834156 
L 697.186825 446.143099 
L 698.580574 459.985827 
L 699.974323 424.849917 
L 701.368072 422.733556 
L 702.761821 429.611729 
L 704.155571 426.707132 
L 705.54932 441.435276 
L 706.943069 445.074121 
L 708.336818 427.24702 
L 709.730567 415.2939 
L 711.124317 419.008329 
L 712.518066 431.674101 
L 713.911815 432.127607 
L 715.305564 451.498788 
L 716.699313 461.443525 
L 718.093062 425.314221 
L 719.486812 440.085556 
L 720.880561 434.891834 
L 722.27431 456.282196 
L 723.668059 459.759074 
L 725.061808 419.537419 
L 726.455557 434.95662 
L 729.243056 445.808369 
L 730.636805 438.18515 
L 732.030554 438.563072 
L 734.818052 455.43997 
L 736.211802 459.068018 
L 737.605551 450.257046 
L 738.9993 453.809509 
L 740.393049 458.873658 
L 741.786798 470.438058 
L 743.180547 470.956351 
L 744.574297 487.865643 
L 745.968046 461.227569 
L 747.361795 469.617429 
L 748.755544 468.883181 
L 750.149293 474.04451 
L 751.543042 484.464348 
L 752.936792 481.764908 
L 754.330541 489.269351 
L 755.72429 491.904005 
L 757.118039 489.161374 
L 758.511788 482.283201 
L 759.905537 477.283838 
L 761.299287 482.607134 
L 762.693036 490.413914 
L 764.086785 496.914165 
L 765.480534 491.947196 
L 766.874283 491.094173 
L 768.268033 488.913025 
L 769.661782 492.865005 
L 771.055531 495.855985 
L 772.44928 501.794753 
L 773.843029 502.874528 
L 775.236778 503.220057 
L 776.630528 499.818762 
L 783.599273 509.234409 
L 784.993023 507.49597 
L 786.386772 507.668734 
L 787.780521 507.290812 
L 789.17427 509.115634 
L 790.568019 511.25359 
L 791.961768 511.05923 
L 793.355518 512.581714 
L 794.749267 511.188803 
L 796.143016 511.545129 
L 797.536765 511.210399 
L 798.930514 511.750287 
L 800.324263 512.732883 
L 801.718013 513.315962 
L 803.111762 512.60331 
L 804.505511 513.024423 
L 805.89926 511.858265 
L 807.293009 509.849881 
L 808.686758 508.575746 
L 810.080508 506.632149 
L 811.474257 505.768328 
L 812.868006 502.399427 
L 814.261755 495.05695 
L 815.655504 479.842907 
L 817.049253 460.493322 
L 818.443003 444.415458 
L 819.836752 408.329345 
L 822.62425 427.689728 
L 824.017999 434.481519 
L 825.411749 406.37495 
L 826.805498 400.187834 
L 828.199247 397.164461 
L 829.592996 399.410395 
L 830.986745 408.772053 
L 832.380494 422.90632 
L 833.774244 445.56002 
L 835.167993 444.696199 
L 836.561742 451.423204 
L 837.955491 449.943911 
L 839.34924 461.940222 
L 840.742989 468.980361 
L 842.136739 477.327029 
L 843.530488 475.761354 
L 844.924237 481.538155 
L 846.317986 470.654014 
L 847.711735 481.667729 
L 849.105484 486.958631 
L 850.499234 493.750422 
L 851.892983 496.061142 
L 853.286732 494.873389 
L 856.07423 482.758302 
L 857.467979 487.401339 
L 858.861729 492.854208 
L 860.255478 493.815208 
L 861.649227 496.730603 
L 863.042976 495.380883 
L 864.436725 495.845187 
L 865.830474 491.018588 
L 867.224224 489.960408 
L 868.617973 493.847601 
L 870.011722 494.322703 
L 871.405471 494.581849 
L 872.79922 493.847601 
L 874.192969 488.653879 
L 876.980468 494.884186 
L 878.374217 492.379106 
L 879.767966 492.152353 
L 881.161715 493.005376 
L 882.555464 492.163151 
L 883.949214 488.319148 
L 885.342963 490.511094 
L 886.736712 488.513508 
L 888.130461 492.271128 
L 890.91796 495.283703 
L 892.311709 494.171534 
L 893.705458 488.621486 
L 895.099207 488.610688 
L 896.492956 491.407308 
L 897.886705 489.053396 
L 899.280455 493.264522 
L 900.674204 495.899176 
L 902.067953 492.033578 
L 903.461702 488.556699 
L 904.855451 493.27532 
L 906.2492 489.830835 
L 907.64295 494.884186 
L 909.036699 496.104333 
L 910.430448 499.807965 
L 911.824197 497.119323 
L 913.217946 493.08096 
L 914.611695 496.158322 
L 916.005445 495.769603 
L 917.399194 496.978952 
L 918.792943 500.758168 
L 920.186692 504.116271 
L 921.580441 500.768965 
L 922.97419 498.274683 
L 924.36794 499.181695 
L 925.761689 500.445033 
L 927.155438 501.449224 
L 928.549187 501.460022 
L 929.942936 503.759945 
L 931.336685 500.185886 
L 932.730435 499.818762 
L 934.124184 500.35865 
L 935.517933 500.185886 
L 936.911682 500.704179 
L 938.305431 501.427629 
L 939.69918 501.341247 
L 941.09293 498.220694 
L 942.486679 498.166705 
L 943.880428 489.215363 
L 945.274177 488.826643 
L 946.667926 491.914802 
L 948.061676 489.193767 
L 949.455425 494.441478 
L 950.849174 487.595699 
L 952.242923 478.579569 
L 953.636672 479.475783 
L 955.030421 478.827918 
L 956.424171 478.871109 
L 957.81792 479.216637 
L 959.211669 482.57474 
L 960.605418 476.463208 
L 961.999167 469.250305 
L 963.392916 462.825638 
L 964.786666 455.699117 
L 966.180415 457.491545 
L 967.574164 450.667361 
L 968.967913 461.519109 
L 970.361662 456.595331 
L 971.755411 440.312309 
L 973.149161 435.950014 
L 974.54291 438.962589 
L 975.936659 432.98063 
L 977.330408 430.713101 
L 978.724157 435.690868 
L 980.117906 435.669272 
L 981.511656 419.96933 
L 982.905405 408.5453 
L 984.299154 401.310801 
L 985.692903 389.476457 
L 987.086652 396.279045 
L 988.480401 391.776379 
L 989.874151 396.88372 
L 991.2679 382.187969 
L 992.661649 343.208057 
L 994.055398 343.801933 
L 995.449147 369.284646 
L 996.842896 389.336086 
L 998.236646 311.354666 
L 999.630395 300.956423 
L 1001.024144 294.974464 
L 1002.417893 264.125265 
L 1003.811642 292.210238 
L 1005.205392 283.787985 
L 1006.599141 295.935465 
L 1007.99289 270.528336 
L 1009.386639 270.927853 
L 1010.780388 262.818736 
L 1012.174137 279.285319 
L 1013.567887 289.111281 
L 1014.961636 281.282905 
L 1016.355385 280.44068 
L 1017.749134 287.070504 
L 1019.142883 280.527062 
L 1020.536632 318.988682 
L 1021.930382 270.042437 
L 1023.324131 286.789762 
L 1024.71788 274.685474 
L 1026.111629 269.826482 
L 1027.505378 292.221035 
L 1028.899127 324.981438 
L 1030.292877 323.761291 
L 1031.686626 305.653448 
L 1033.080375 330.13197 
L 1034.474124 327.108597 
L 1035.867873 339.428841 
L 1037.261622 369.813736 
L 1038.655372 380.557507 
L 1040.049121 372.999075 
L 1041.44287 342.020303 
L 1042.836619 352.990827 
L 1044.230368 360.408888 
L 1045.624117 375.57974 
L 1047.017867 387.608444 
L 1048.411616 417.302283 
L 1049.805365 374.03566 
L 1051.199114 374.931874 
L 1052.592863 384.066779 
L 1053.986612 383.148969 
L 1055.380362 390.297086 
L 1056.774111 395.296449 
L 1058.16786 420.088105 
L 1059.561609 349.190015 
L 1060.955358 359.285921 
L 1062.349107 338.575818 
L 1063.742857 350.388567 
L 1065.136606 330.142767 
L 1066.530355 361.607439 
L 1067.924104 318.330018 
L 1069.317853 254.007764 
L 1070.711603 252.971179 
L 1072.105352 142.574884 
L 1073.499101 217.424954 
L 1074.89285 167.636485 
L 1076.286599 217.198201 
L 1077.680348 205.461037 
L 1079.074098 172.311915 
L 1080.467847 158.436793 
L 1081.861596 135.999049 
L 1083.255345 174.104343 
L 1084.649094 127.252863 
L 1086.042843 60.609091 
L 1087.436593 179.6112 
L 1088.830342 105.58176 
L 1090.224091 87.052804 
L 1090.224091 87.052804 
" clip-path="url(#p917df5bbaf)" style="fill: none; stroke-dasharray: 1.5,2.475; stroke-dashoffset: 0; stroke: #000000; stroke-opacity: 0.5; stroke-width: 1.5"/>
   </g>
   <g id="line2d_32">
    <path d="M 135.505909 518.390909 
L 141.080906 517.699852 
L 146.655902 516.74965 
L 149.443401 515.961413 
L 152.230899 514.752064 
L 155.018397 513.369951 
L 159.199645 511.383163 
L 160.593394 510.454556 
L 163.380893 508.305802 
L 164.774642 507.603947 
L 166.168391 507.463576 
L 167.56214 507.657936 
L 170.349638 508.187026 
L 171.743388 508.165431 
L 174.530886 507.722723 
L 175.924635 507.798307 
L 177.318384 508.057453 
L 178.712133 508.187026 
L 180.105883 507.949476 
L 184.28713 506.124654 
L 185.680879 506.103059 
L 187.074628 506.77252 
L 188.468378 507.614745 
L 189.862127 508.143835 
L 191.255876 508.154633 
L 194.043374 507.506767 
L 195.437123 507.647138 
L 196.830873 508.251813 
L 198.224622 509.126431 
L 199.618371 509.860679 
L 201.01212 510.33578 
L 203.799618 510.940455 
L 205.193368 511.728691 
L 207.980866 513.585906 
L 209.374615 514.14739 
L 210.768364 514.309356 
L 213.555863 514.341749 
L 214.949612 514.492918 
L 217.73711 515.194772 
L 219.130859 515.345941 
L 223.312107 515.475514 
L 227.493354 516.231357 
L 230.280853 516.371728 
L 233.068351 516.533694 
L 235.855849 516.933212 
L 237.249599 517.008796 
L 240.037097 516.836032 
L 242.824595 516.65247 
L 251.18709 516.868425 
L 258.155836 517.311133 
L 260.943334 516.9872 
L 263.730833 516.65247 
L 266.518331 516.695661 
L 270.699579 516.825234 
L 273.487077 516.89002 
L 286.03082 517.818628 
L 302.75581 518.034583 
L 306.937057 518.164156 
L 311.118305 517.980594 
L 323.662047 517.095178 
L 327.843295 516.911616 
L 332.024542 516.717256 
L 334.81204 516.350133 
L 337.599539 515.713065 
L 341.780786 514.708873 
L 344.568285 514.179783 
L 354.324529 511.987838 
L 357.112027 511.804276 
L 358.505776 511.966242 
L 362.687024 512.765276 
L 365.474522 513.078411 
L 375.230766 513.272771 
L 382.199512 513.121602 
L 383.593261 512.927243 
L 386.38076 512.182197 
L 390.562007 510.53014 
L 398.924502 506.653744 
L 401.712001 505.455193 
L 403.10575 504.440204 
L 404.499499 503.274046 
L 408.680747 499.181695 
L 412.861994 495.7804 
L 415.649492 492.962185 
L 417.043242 491.39651 
L 419.83074 488.869834 
L 424.011987 485.230989 
L 426.799486 481.494964 
L 430.980733 473.936533 
L 433.768232 467.241922 
L 437.949479 454.975667 
L 439.343228 451.142462 
L 442.130727 444.858166 
L 444.918225 438.865409 
L 446.311974 436.101183 
L 447.705723 434.071204 
L 450.493222 431.306978 
L 451.886971 429.708909 
L 454.674469 424.428805 
L 457.461967 417.906958 
L 458.855717 415.034754 
L 460.249466 414.214124 
L 463.036964 413.101955 
L 464.430713 412.292123 
L 465.824463 412.659247 
L 467.218212 413.933382 
L 468.611961 417.086328 
L 470.00571 421.200274 
L 471.399459 427.408986 
L 472.793208 433.013024 
L 474.186958 437.245745 
L 475.580707 441.122141 
L 476.974456 445.775975 
L 479.761954 456.152622 
L 481.155703 459.910243 
L 482.549453 461.627087 
L 483.943202 461.087199 
L 485.336951 459.478332 
L 486.7307 458.376961 
L 488.124449 459.186793 
L 489.518198 461.594693 
L 490.911948 463.721852 
L 492.305697 464.650459 
L 493.699446 463.613874 
L 496.486944 459.575512 
L 497.880693 459.629501 
L 499.274443 461.184378 
L 500.668192 464.153762 
L 502.061941 465.924595 
L 503.45569 467.025966 
L 506.243188 465.633055 
L 507.636938 465.427898 
L 509.030687 466.172943 
L 510.424436 466.421292 
L 511.818185 466.14055 
L 513.211934 463.462706 
L 514.605683 459.888647 
L 515.999433 455.062049 
L 517.393182 451.120866 
L 520.18068 446.08911 
L 521.574429 442.828187 
L 522.968179 438.336319 
L 524.361928 432.300371 
L 525.755677 427.095851 
L 527.149426 424.623164 
L 528.543175 422.517601 
L 529.936924 419.904543 
L 531.330674 414.808001 
L 532.724423 407.066007 
L 534.118172 398.352215 
L 535.511921 391.668402 
L 536.90567 389.044546 
L 538.299419 391.873559 
L 539.693169 395.933517 
L 541.086918 398.805721 
L 543.874416 403.77269 
L 545.268165 407.530311 
L 548.055664 419.494228 
L 549.449413 424.148063 
L 550.843162 426.447986 
L 552.236911 425.929693 
L 553.63066 425.886502 
L 555.024409 427.516964 
L 556.418159 431.587719 
L 557.811908 436.857026 
L 559.205657 439.20014 
L 560.599406 438.789825 
L 563.386904 435.431722 
L 564.780654 436.446711 
L 566.174403 440.798208 
L 568.961901 452.179047 
L 570.35565 454.770509 
L 571.749399 455.699117 
L 573.143149 455.763903 
L 574.536898 456.487353 
L 575.930647 458.636107 
L 577.324396 461.195176 
L 578.718145 462.890424 
L 580.111894 462.901222 
L 581.505644 461.681075 
L 582.899393 460.774064 
L 584.293142 461.011614 
L 585.686891 462.91202 
L 587.08064 465.989382 
L 588.47439 468.678024 
L 589.868139 470.330081 
L 592.655637 471.604217 
L 594.049386 472.867554 
L 596.836885 477.046287 
L 598.230634 478.19085 
L 599.624383 477.931704 
L 601.018132 476.819534 
L 602.411881 475.534601 
L 603.80563 475.955714 
L 605.19938 478.71994 
L 606.593129 482.33719 
L 607.986878 484.863865 
L 609.380627 485.252585 
L 610.774376 483.136224 
L 612.168125 480.253222 
L 613.561875 478.09367 
L 614.955624 478.298828 
L 616.349373 480.458379 
L 617.743122 482.099639 
L 619.136871 481.656931 
L 620.53062 479.270626 
L 621.92437 475.599388 
L 623.318119 472.500431 
L 624.711868 471.085924 
L 626.105617 471.10752 
L 627.499366 471.593419 
L 628.893115 471.280284 
L 630.286865 470.038541 
L 631.680614 468.580844 
L 633.074363 467.986967 
L 634.468112 468.548451 
L 635.861861 469.66062 
L 637.25561 471.237093 
L 638.64936 471.798576 
L 640.043109 470.977946 
L 641.436858 469.844182 
L 642.830607 469.045147 
L 644.224356 469.109934 
L 645.618106 469.520249 
L 647.011855 469.045147 
L 648.405604 467.468675 
L 649.799353 464.520886 
L 651.193102 460.687682 
L 652.586851 457.469949 
L 653.980601 456.271398 
L 655.37435 456.433364 
L 656.768099 456.897668 
L 658.161848 456.195813 
L 659.555597 453.679935 
L 660.949346 449.922315 
L 662.343096 446.553414 
L 663.736845 445.182099 
L 665.130594 445.12811 
L 666.524343 445.279278 
L 667.918092 444.879761 
L 669.311841 442.169524 
L 670.705591 438.865409 
L 672.09934 436.522295 
L 673.493089 436.651869 
L 676.280587 440.582253 
L 677.674336 441.629636 
L 679.068086 441.543254 
L 680.461835 440.539062 
L 681.855584 441.165332 
L 683.249333 443.400468 
L 684.643082 447.255269 
L 686.036831 449.587585 
L 687.430581 449.404023 
L 688.82433 447.050111 
L 690.218079 442.806592 
L 691.611828 439.308117 
L 693.005577 437.990791 
L 695.793076 441.651231 
L 697.186825 441.759209 
L 698.580574 439.858803 
L 701.368072 432.807866 
L 702.761821 431.890057 
L 704.155571 431.868461 
L 705.54932 432.764675 
L 706.943069 431.760483 
L 708.336818 429.41737 
L 709.730567 427.3442 
L 711.124317 427.624941 
L 712.518066 431.576921 
L 715.305564 440.593051 
L 716.699313 442.061546 
L 718.093062 442.363883 
L 719.486812 443.378873 
L 720.880561 442.752603 
L 722.27431 442.255906 
L 723.668059 442.180321 
L 725.061808 440.636242 
L 726.455557 439.470084 
L 727.849307 438.617061 
L 729.243056 439.210938 
L 732.030554 444.847368 
L 737.605551 455.612734 
L 738.9993 458.279781 
L 740.393049 462.62048 
L 743.180547 469.930564 
L 744.574297 471.517834 
L 747.361795 471.982138 
L 748.755544 473.277869 
L 750.149293 475.653376 
L 751.543042 480.026469 
L 752.936792 483.643719 
L 754.330541 486.138001 
L 755.72429 486.742676 
L 758.511788 485.004236 
L 759.905537 484.928652 
L 761.299287 486.030023 
L 764.086785 490.154768 
L 765.480534 491.536881 
L 766.874283 492.11996 
L 768.268033 492.854208 
L 769.661782 494.257916 
L 772.44928 498.846964 
L 773.843029 500.628594 
L 775.236778 501.643584 
L 778.024277 502.896124 
L 779.418026 503.986698 
L 782.205524 506.534969 
L 783.599273 507.334003 
L 787.780521 508.662128 
L 791.961768 510.918859 
L 793.355518 511.372365 
L 794.749267 511.555927 
L 796.143016 511.620714 
L 798.930514 512.031029 
L 800.324263 512.376557 
L 801.718013 512.570917 
L 803.111762 512.484535 
L 804.505511 512.009433 
L 805.89926 511.102421 
L 807.293009 509.893072 
L 808.686758 508.392184 
L 810.080508 506.254227 
L 811.474257 502.72336 
L 812.868006 496.730603 
L 814.261755 487.692878 
L 815.655504 474.174083 
L 818.443003 444.199503 
L 819.836752 433.336956 
L 821.230501 425.854109 
L 822.62425 421.103095 
L 826.805498 407.713873 
L 828.199247 405.327568 
L 829.592996 407.670682 
L 830.986745 414.905181 
L 833.774244 434.092799 
L 835.167993 442.666221 
L 836.561742 449.695562 
L 837.955491 455.936667 
L 840.742989 467.274315 
L 842.136739 471.582621 
L 843.530488 475.048702 
L 846.317986 479.724132 
L 847.711735 482.736707 
L 849.105484 486.472732 
L 850.499234 489.474509 
L 851.892983 491.277735 
L 853.286732 491.083375 
L 854.680481 490.154768 
L 856.07423 489.377329 
L 857.467979 489.733655 
L 858.861729 491.061779 
L 860.255478 492.918994 
L 861.649227 494.236321 
L 863.042976 494.387489 
L 867.224224 492.951387 
L 868.617973 493.059365 
L 872.79922 492.875803 
L 874.192969 492.519477 
L 875.586719 492.379106 
L 878.374217 492.55187 
L 879.767966 492.433095 
L 881.161715 491.947196 
L 882.555464 491.126566 
L 883.949214 490.651465 
L 885.342963 490.565082 
L 886.736712 491.007791 
L 888.130461 491.860814 
L 889.52421 492.55187 
L 890.91796 492.573466 
L 892.311709 492.21714 
L 893.705458 491.310128 
L 895.099207 490.727049 
L 896.492956 490.813431 
L 900.674204 492.303522 
L 902.067953 492.065971 
L 903.461702 492.02278 
L 904.855451 492.152353 
L 906.2492 492.962185 
L 907.64295 494.301107 
L 909.036699 495.478063 
L 910.430448 496.104333 
L 911.824197 496.352682 
L 913.217946 496.158322 
L 914.611695 496.309491 
L 916.005445 497.054536 
L 918.792943 499.527223 
L 920.186692 500.207482 
L 921.580441 500.434235 
L 924.36794 500.261471 
L 925.761689 500.499021 
L 928.549187 501.319651 
L 929.942936 501.352044 
L 934.124184 500.563808 
L 938.305431 500.391044 
L 939.69918 499.332863 
L 941.09293 497.562031 
L 943.880428 493.232129 
L 945.274177 491.817623 
L 946.667926 490.921409 
L 948.061676 489.712059 
L 949.455425 488.275957 
L 950.849174 486.019226 
L 952.242923 483.341381 
L 953.636672 481.203425 
L 955.030421 479.853705 
L 957.81792 478.698345 
L 959.211669 476.884321 
L 960.605418 473.537015 
L 961.999167 469.250305 
L 963.392916 464.315729 
L 964.786666 460.385344 
L 966.180415 457.837073 
L 967.574164 455.601937 
L 968.967913 452.999677 
L 970.361662 449.771147 
L 973.149161 441.100546 
L 974.54291 437.353723 
L 975.936659 435.140182 
L 977.330408 433.434136 
L 978.724157 430.648314 
L 980.117906 425.875704 
L 981.511656 419.019127 
L 984.299154 403.956252 
L 985.692903 398.492586 
L 987.086652 394.734966 
L 988.480401 389.31449 
L 991.2679 373.862896 
L 992.661649 367.848544 
L 994.055398 360.991967 
L 995.449147 353.347153 
L 996.842896 343.229652 
L 998.236646 328.652676 
L 1001.024144 297.857466 
L 1002.417893 288.312246 
L 1003.811642 285.191694 
L 1005.205392 283.28049 
L 1006.599141 280.451477 
L 1007.99289 278.313521 
L 1009.386639 275.851632 
L 1010.780388 275.581688 
L 1012.174137 276.650666 
L 1013.567887 279.738825 
L 1014.961636 281.768804 
L 1016.355385 285.634402 
L 1019.142883 288.215067 
L 1020.536632 288.107089 
L 1023.324131 283.226502 
L 1024.71788 284.39266 
L 1026.111629 288.279853 
L 1030.292877 313.686982 
L 1033.080375 327.691676 
L 1034.474124 336.329884 
L 1035.867873 347.030463 
L 1037.261622 356.15457 
L 1038.655372 360.937978 
L 1040.049121 362.255305 
L 1041.44287 361.791001 
L 1042.836619 362.255305 
L 1044.230368 367.913331 
L 1047.017867 382.317542 
L 1048.411616 386.042769 
L 1049.805365 386.301915 
L 1051.199114 385.103364 
L 1052.592863 384.768633 
L 1053.986612 387.154938 
L 1055.380362 389.012153 
L 1056.774111 388.115939 
L 1058.16786 381.658879 
L 1059.561609 372.25403 
L 1060.955358 360.700427 
L 1065.136606 336.265097 
L 1066.530355 322.541145 
L 1067.924104 297.220398 
L 1070.711603 237.659956 
L 1072.105352 213.364997 
L 1073.499101 200.008168 
L 1074.89285 194.576895 
L 1077.680348 186.219429 
L 1080.467847 166.956226 
L 1081.861596 150.737991 
L 1084.649094 132.155046 
L 1086.042843 123.927154 
L 1087.436593 119.176139 
L 1088.830342 113.356147 
L 1090.224091 109.760493 
L 1090.224091 109.760493 
" clip-path="url(#p917df5bbaf)" style="fill: none; stroke: #000000; stroke-width: 1.5; stroke-linecap: square"/>
   </g>
   <g id="patch_3">
    <path d="M 87.77 541.28 
L 87.77 37.72 
" style="fill: none; stroke: #555555; stroke-linejoin: miter; stroke-linecap: square"/>
   </g>
   <g id="patch_4">
    <path d="M 87.77 541.28 
L 1137.96 541.28 
" style="fill: none; stroke: #555555; stroke-linejoin: miter; stroke-linecap: square"/>
   </g>
   <g id="text_32">
    <!-- Positive COVID-19 tests - last updated on 20 January 2022 -->
    <g style="fill: #555555" transform="translate(350.215469 27.72)scale(0.18 -0.18)">
     <defs>
      <path id="DejaVuSans-50" d="M 1259 4147 
L 1259 2394 
L 2053 2394 
Q 2494 2394 2734 2622 
Q 2975 2850 2975 3272 
Q 2975 3691 2734 3919 
Q 2494 4147 2053 4147 
L 1259 4147 
z
M 628 4666 
L 2053 4666 
Q 2838 4666 3239 4311 
Q 3641 3956 3641 3272 
Q 3641 2581 3239 2228 
Q 2838 1875 2053 1875 
L 1259 1875 
L 1259 0 
L 628 0 
L 628 4666 
z
" transform="scale(0.015625)"/>
      <path id="DejaVuSans-6f" d="M 1959 3097 
Q 1497 3097 1228 2736 
Q 959 2375 959 1747 
Q 959 1119 1226 758 
Q 1494 397 1959 397 
Q 2419 397 2687 759 
Q 2956 1122 2956 1747 
Q 2956 2369 2687 2733 
Q 2419 3097 1959 3097 
z
M 1959 3584 
Q 2709 3584 3137 3096 
Q 3566 2609 3566 1747 
Q 3566 888 3137 398 
Q 2709 -91 1959 -91 
Q 1206 -91 779 398 
Q 353 888 353 1747 
Q 353 2609 779 3096 
Q 1206 3584 1959 3584 
z
" transform="scale(0.015625)"/>
      <path id="DejaVuSans-69" d="M 603 3500 
L 1178 3500 
L 1178 0 
L 603 0 
L 603 3500 
z
M 603 4863 
L 1178 4863 
L 1178 4134 
L 603 4134 
L 603 4863 
z
" transform="scale(0.015625)"/>
      <path id="DejaVuSans-74" d="M 1172 4494 
L 1172 3500 
L 2356 3500 
L 2356 3053 
L 1172 3053 
L 1172 1153 
Q 1172 725 1289 603 
Q 1406 481 1766 481 
L 2356 481 
L 2356 0 
L 1766 0 
Q 1100 0 847 248 
Q 594 497 594 1153 
L 594 3053 
L 172 3053 
L 172 3500 
L 594 3500 
L 594 4494 
L 1172 4494 
z
" transform="scale(0.015625)"/>
      <path id="DejaVuSans-76" d="M 191 3500 
L 800 3500 
L 1894 563 
L 2988 3500 
L 3597 3500 
L 2284 0 
L 1503 0 
L 191 3500 
z
" transform="scale(0.015625)"/>
      <path id="DejaVuSans-4f" d="M 2522 4238 
Q 1834 4238 1429 3725 
Q 1025 3213 1025 2328 
Q 1025 1447 1429 934 
Q 1834 422 2522 422 
Q 3209 422 3611 934 
Q 4013 1447 4013 2328 
Q 4013 3213 3611 3725 
Q 3209 4238 2522 4238 
z
M 2522 4750 
Q 3503 4750 4090 4092 
Q 4678 3434 4678 2328 
Q 4678 1225 4090 567 
Q 3503 -91 2522 -91 
Q 1538 -91 948 565 
Q 359 1222 359 2328 
Q 359 3434 948 4092 
Q 1538 4750 2522 4750 
z
" transform="scale(0.015625)"/>
      <path id="DejaVuSans-56" d="M 1831 0 
L 50 4666 
L 709 4666 
L 2188 738 
L 3669 4666 
L 4325 4666 
L 2547 0 
L 1831 0 
z
" transform="scale(0.015625)"/>
      <path id="DejaVuSans-49" d="M 628 4666 
L 1259 4666 
L 1259 0 
L 628 0 
L 628 4666 
z
" transform="scale(0.015625)"/>
      <path id="DejaVuSans-44" d="M 1259 4147 
L 1259 519 
L 2022 519 
Q 2988 519 3436 956 
Q 3884 1394 3884 2338 
Q 3884 3275 3436 3711 
Q 2988 4147 2022 4147 
L 1259 4147 
z
M 628 4666 
L 1925 4666 
Q 3281 4666 3915 4102 
Q 4550 3538 4550 2338 
Q 4550 1131 3912 565 
Q 3275 0 1925 0 
L 628 0 
L 628 4666 
z
" transform="scale(0.015625)"/>
      <path id="DejaVuSans-2d" d="M 313 2009 
L 1997 2009 
L 1997 1497 
L 313 1497 
L 313 2009 
z
" transform="scale(0.015625)"/>
      <path id="DejaVuSans-31" d="M 794 531 
L 1825 531 
L 1825 4091 
L 703 3866 
L 703 4441 
L 1819 4666 
L 2450 4666 
L 2450 531 
L 3481 531 
L 3481 0 
L 794 0 
L 794 531 
z
" transform="scale(0.015625)"/>
      <path id="DejaVuSans-39" d="M 703 97 
L 703 672 
Q 941 559 1184 500 
Q 1428 441 1663 441 
Q 2288 441 2617 861 
Q 2947 1281 2994 2138 
Q 2813 1869 2534 1725 
Q 2256 1581 1919 1581 
Q 1219 1581 811 2004 
Q 403 2428 403 3163 
Q 403 3881 828 4315 
Q 1253 4750 1959 4750 
Q 2769 4750 3195 4129 
Q 3622 3509 3622 2328 
Q 3622 1225 3098 567 
Q 2575 -91 1691 -91 
Q 1453 -91 1209 -44 
Q 966 3 703 97 
z
M 1959 2075 
Q 2384 2075 2632 2365 
Q 2881 2656 2881 3163 
Q 2881 3666 2632 3958 
Q 2384 4250 1959 4250 
Q 1534 4250 1286 3958 
Q 1038 3666 1038 3163 
Q 1038 2656 1286 2365 
Q 1534 2075 1959 2075 
z
" transform="scale(0.015625)"/>
      <path id="DejaVuSans-6c" d="M 603 4863 
L 1178 4863 
L 1178 0 
L 603 0 
L 603 4863 
z
" transform="scale(0.015625)"/>
      <path id="DejaVuSans-75" d="M 544 1381 
L 544 3500 
L 1119 3500 
L 1119 1403 
Q 1119 906 1312 657 
Q 1506 409 1894 409 
Q 2359 409 2629 706 
Q 2900 1003 2900 1516 
L 2900 3500 
L 3475 3500 
L 3475 0 
L 2900 0 
L 2900 538 
Q 2691 219 2414 64 
Q 2138 -91 1772 -91 
Q 1169 -91 856 284 
Q 544 659 544 1381 
z
M 1991 3584 
L 1991 3584 
z
" transform="scale(0.015625)"/>
      <path id="DejaVuSans-70" d="M 1159 525 
L 1159 -1331 
L 581 -1331 
L 581 3500 
L 1159 3500 
L 1159 2969 
Q 1341 3281 1617 3432 
Q 1894 3584 2278 3584 
Q 2916 3584 3314 3078 
Q 3713 2572 3713 1747 
Q 3713 922 3314 415 
Q 2916 -91 2278 -91 
Q 1894 -91 1617 61 
Q 1341 213 1159 525 
z
M 3116 1747 
Q 3116 2381 2855 2742 
Q 2594 3103 2138 3103 
Q 1681 3103 1420 2742 
Q 1159 2381 1159 1747 
Q 1159 1113 1420 752 
Q 1681 391 2138 391 
Q 2594 391 2855 752 
Q 3116 1113 3116 1747 
z
" transform="scale(0.015625)"/>
      <path id="DejaVuSans-64" d="M 2906 2969 
L 2906 4863 
L 3481 4863 
L 3481 0 
L 2906 0 
L 2906 525 
Q 2725 213 2448 61 
Q 2172 -91 1784 -91 
Q 1150 -91 751 415 
Q 353 922 353 1747 
Q 353 2572 751 3078 
Q 1150 3584 1784 3584 
Q 2172 3584 2448 3432 
Q 2725 3281 2906 2969 
z
M 947 1747 
Q 947 1113 1208 752 
Q 1469 391 1925 391 
Q 2381 391 2643 752 
Q 2906 1113 2906 1747 
Q 2906 2381 2643 2742 
Q 2381 3103 1925 3103 
Q 1469 3103 1208 2742 
Q 947 2381 947 1747 
z
" transform="scale(0.015625)"/>
      <path id="DejaVuSans-6e" d="M 3513 2113 
L 3513 0 
L 2938 0 
L 2938 2094 
Q 2938 2591 2744 2837 
Q 2550 3084 2163 3084 
Q 1697 3084 1428 2787 
Q 1159 2491 1159 1978 
L 1159 0 
L 581 0 
L 581 3500 
L 1159 3500 
L 1159 2956 
Q 1366 3272 1645 3428 
Q 1925 3584 2291 3584 
Q 2894 3584 3203 3211 
Q 3513 2838 3513 2113 
z
" transform="scale(0.015625)"/>
      <path id="DejaVuSans-32" d="M 1228 531 
L 3431 531 
L 3431 0 
L 469 0 
L 469 531 
Q 828 903 1448 1529 
Q 2069 2156 2228 2338 
Q 2531 2678 2651 2914 
Q 2772 3150 2772 3378 
Q 2772 3750 2511 3984 
Q 2250 4219 1831 4219 
Q 1534 4219 1204 4116 
Q 875 4013 500 3803 
L 500 4441 
Q 881 4594 1212 4672 
Q 1544 4750 1819 4750 
Q 2544 4750 2975 4387 
Q 3406 4025 3406 3419 
Q 3406 3131 3298 2873 
Q 3191 2616 2906 2266 
Q 2828 2175 2409 1742 
Q 1991 1309 1228 531 
z
" transform="scale(0.015625)"/>
      <path id="DejaVuSans-30" d="M 2034 4250 
Q 1547 4250 1301 3770 
Q 1056 3291 1056 2328 
Q 1056 1369 1301 889 
Q 1547 409 2034 409 
Q 2525 409 2770 889 
Q 3016 1369 3016 2328 
Q 3016 3291 2770 3770 
Q 2525 4250 2034 4250 
z
M 2034 4750 
Q 2819 4750 3233 4129 
Q 3647 3509 3647 2328 
Q 3647 1150 3233 529 
Q 2819 -91 2034 -91 
Q 1250 -91 836 529 
Q 422 1150 422 2328 
Q 422 3509 836 4129 
Q 1250 4750 2034 4750 
z
" transform="scale(0.015625)"/>
      <path id="DejaVuSans-4a" d="M 628 4666 
L 1259 4666 
L 1259 325 
Q 1259 -519 939 -900 
Q 619 -1281 -91 -1281 
L -331 -1281 
L -331 -750 
L -134 -750 
Q 284 -750 456 -515 
Q 628 -281 628 325 
L 628 4666 
z
" transform="scale(0.015625)"/>
      <path id="DejaVuSans-72" d="M 2631 2963 
Q 2534 3019 2420 3045 
Q 2306 3072 2169 3072 
Q 1681 3072 1420 2755 
Q 1159 2438 1159 1844 
L 1159 0 
L 581 0 
L 581 3500 
L 1159 3500 
L 1159 2956 
Q 1341 3275 1631 3429 
Q 1922 3584 2338 3584 
Q 2397 3584 2469 3576 
Q 2541 3569 2628 3553 
L 2631 2963 
z
" transform="scale(0.015625)"/>
      <path id="DejaVuSans-79" d="M 2059 -325 
Q 1816 -950 1584 -1140 
Q 1353 -1331 966 -1331 
L 506 -1331 
L 506 -850 
L 844 -850 
Q 1081 -850 1212 -737 
Q 1344 -625 1503 -206 
L 1606 56 
L 191 3500 
L 800 3500 
L 1894 763 
L 2988 3500 
L 3597 3500 
L 2059 -325 
z
" transform="scale(0.015625)"/>
     </defs>
     <use xlink:href="#DejaVuSans-50"/>
     <use xlink:href="#DejaVuSans-6f" x="56.677734"/>
     <use xlink:href="#DejaVuSans-73" x="117.859375"/>
     <use xlink:href="#DejaVuSans-69" x="169.958984"/>
     <use xlink:href="#DejaVuSans-74" x="197.742188"/>
     <use xlink:href="#DejaVuSans-69" x="236.951172"/>
     <use xlink:href="#DejaVuSans-76" x="264.734375"/>
     <use xlink:href="#DejaVuSans-65" x="323.914062"/>
     <use xlink:href="#DejaVuSans-20" x="385.4375"/>
     <use xlink:href="#DejaVuSans-43" x="417.224609"/>
     <use xlink:href="#DejaVuSans-4f" x="487.048828"/>
     <use xlink:href="#DejaVuSans-56" x="564.009766"/>
     <use xlink:href="#DejaVuSans-49" x="632.417969"/>
     <use xlink:href="#DejaVuSans-44" x="661.910156"/>
     <use xlink:href="#DejaVuSans-2d" x="738.912109"/>
     <use xlink:href="#DejaVuSans-31" x="774.996094"/>
     <use xlink:href="#DejaVuSans-39" x="838.619141"/>
     <use xlink:href="#DejaVuSans-20" x="902.242188"/>
     <use xlink:href="#DejaVuSans-74" x="934.029297"/>
     <use xlink:href="#DejaVuSans-65" x="973.238281"/>
     <use xlink:href="#DejaVuSans-73" x="1034.761719"/>
     <use xlink:href="#DejaVuSans-74" x="1086.861328"/>
     <use xlink:href="#DejaVuSans-73" x="1126.070312"/>
     <use xlink:href="#DejaVuSans-20" x="1178.169922"/>
     <use xlink:href="#DejaVuSans-2d" x="1209.957031"/>
     <use xlink:href="#DejaVuSans-20" x="1246.041016"/>
     <use xlink:href="#DejaVuSans-6c" x="1277.828125"/>
     <use xlink:href="#DejaVuSans-61" x="1305.611328"/>
     <use xlink:href="#DejaVuSans-73" x="1366.890625"/>
     <use xlink:href="#DejaVuSans-74" x="1418.990234"/>
     <use xlink:href="#DejaVuSans-20" x="1458.199219"/>
     <use xlink:href="#DejaVuSans-75" x="1489.986328"/>
     <use xlink:href="#DejaVuSans-70" x="1553.365234"/>
     <use xlink:href="#DejaVuSans-64" x="1616.841797"/>
     <use xlink:href="#DejaVuSans-61" x="1680.318359"/>
     <use xlink:href="#DejaVuSans-74" x="1741.597656"/>
     <use xlink:href="#DejaVuSans-65" x="1780.806641"/>
     <use xlink:href="#DejaVuSans-64" x="1842.330078"/>
     <use xlink:href="#DejaVuSans-20" x="1905.806641"/>
     <use xlink:href="#DejaVuSans-6f" x="1937.59375"/>
     <use xlink:href="#DejaVuSans-6e" x="1998.775391"/>
     <use xlink:href="#DejaVuSans-20" x="2062.154297"/>
     <use xlink:href="#DejaVuSans-32" x="2093.941406"/>
     <use xlink:href="#DejaVuSans-30" x="2157.564453"/>
     <use xlink:href="#DejaVuSans-20" x="2221.1875"/>
     <use xlink:href="#DejaVuSans-4a" x="2252.974609"/>
     <use xlink:href="#DejaVuSans-61" x="2282.466797"/>
     <use xlink:href="#DejaVuSans-6e" x="2343.746094"/>
     <use xlink:href="#DejaVuSans-75" x="2407.125"/>
     <use xlink:href="#DejaVuSans-61" x="2470.503906"/>
     <use xlink:href="#DejaVuSans-72" x="2531.783203"/>
     <use xlink:href="#DejaVuSans-79" x="2572.896484"/>
     <use xlink:href="#DejaVuSans-20" x="2632.076172"/>
     <use xlink:href="#DejaVuSans-32" x="2663.863281"/>
     <use xlink:href="#DejaVuSans-30" x="2727.486328"/>
     <use xlink:href="#DejaVuSans-32" x="2791.109375"/>
     <use xlink:href="#DejaVuSans-32" x="2854.732422"/>
    </g>
   </g>
   <g id="legend_1">
    <g id="line2d_33">
     <path d="M 99.47 54.747969 
L 112.47 54.747969 
L 125.47 54.747969 
" style="fill: none; stroke-dasharray: 1.5,2.475; stroke-dashoffset: 0; stroke: #000000; stroke-opacity: 0.5; stroke-width: 1.5"/>
    </g>
    <g id="text_33">
     <!-- Actual -->
     <g style="fill: #555555" transform="translate(135.87 59.297969)scale(0.13 -0.13)">
      <use xlink:href="#DejaVuSans-Bold-41"/>
      <use xlink:href="#DejaVuSans-Bold-63" x="77.392578"/>
      <use xlink:href="#DejaVuSans-Bold-74" x="136.669922"/>
      <use xlink:href="#DejaVuSans-Bold-75" x="184.472656"/>
      <use xlink:href="#DejaVuSans-Bold-61" x="255.664062"/>
      <use xlink:href="#DejaVuSans-Bold-6c" x="323.144531"/>
     </g>
    </g>
    <g id="line2d_34">
     <path d="M 99.47 73.829531 
L 112.47 73.829531 
L 125.47 73.829531 
" style="fill: none; stroke: #000000; stroke-width: 1.5; stroke-linecap: square"/>
    </g>
    <g id="text_34">
     <!-- Smoothed -->
     <g style="fill: #555555" transform="translate(135.87 78.379531)scale(0.13 -0.13)">
      <defs>
       <path id="DejaVuSans-Bold-6d" d="M 3781 2919 
Q 3994 3244 4286 3414 
Q 4578 3584 4928 3584 
Q 5531 3584 5847 3212 
Q 6163 2841 6163 2131 
L 6163 0 
L 5038 0 
L 5038 1825 
Q 5041 1866 5042 1909 
Q 5044 1953 5044 2034 
Q 5044 2406 4934 2573 
Q 4825 2741 4581 2741 
Q 4263 2741 4089 2478 
Q 3916 2216 3909 1719 
L 3909 0 
L 2784 0 
L 2784 1825 
Q 2784 2406 2684 2573 
Q 2584 2741 2328 2741 
Q 2006 2741 1831 2477 
Q 1656 2213 1656 1722 
L 1656 0 
L 531 0 
L 531 3500 
L 1656 3500 
L 1656 2988 
Q 1863 3284 2130 3434 
Q 2397 3584 2719 3584 
Q 3081 3584 3359 3409 
Q 3638 3234 3781 2919 
z
" transform="scale(0.015625)"/>
       <path id="DejaVuSans-Bold-68" d="M 4056 2131 
L 4056 0 
L 2931 0 
L 2931 347 
L 2931 1625 
Q 2931 2084 2911 2256 
Q 2891 2428 2841 2509 
Q 2775 2619 2662 2680 
Q 2550 2741 2406 2741 
Q 2056 2741 1856 2470 
Q 1656 2200 1656 1722 
L 1656 0 
L 538 0 
L 538 4863 
L 1656 4863 
L 1656 2988 
Q 1909 3294 2193 3439 
Q 2478 3584 2822 3584 
Q 3428 3584 3742 3212 
Q 4056 2841 4056 2131 
z
" transform="scale(0.015625)"/>
       <path id="DejaVuSans-Bold-64" d="M 2919 2988 
L 2919 4863 
L 4044 4863 
L 4044 0 
L 2919 0 
L 2919 506 
Q 2688 197 2409 53 
Q 2131 -91 1766 -91 
Q 1119 -91 703 423 
Q 288 938 288 1747 
Q 288 2556 703 3070 
Q 1119 3584 1766 3584 
Q 2128 3584 2408 3439 
Q 2688 3294 2919 2988 
z
M 2181 722 
Q 2541 722 2730 984 
Q 2919 1247 2919 1747 
Q 2919 2247 2730 2509 
Q 2541 2772 2181 2772 
Q 1825 2772 1636 2509 
Q 1447 2247 1447 1747 
Q 1447 1247 1636 984 
Q 1825 722 2181 722 
z
" transform="scale(0.015625)"/>
      </defs>
      <use xlink:href="#DejaVuSans-Bold-53"/>
      <use xlink:href="#DejaVuSans-Bold-6d" x="72.021484"/>
      <use xlink:href="#DejaVuSans-Bold-6f" x="176.220703"/>
      <use xlink:href="#DejaVuSans-Bold-6f" x="244.921875"/>
      <use xlink:href="#DejaVuSans-Bold-74" x="313.623047"/>
      <use xlink:href="#DejaVuSans-Bold-68" x="361.425781"/>
      <use xlink:href="#DejaVuSans-Bold-65" x="432.617188"/>
      <use xlink:href="#DejaVuSans-Bold-64" x="500.439453"/>
     </g>
    </g>
   </g>
  </g>
 </g>
 <defs>
  <clipPath id="p917df5bbaf">
   <rect x="87.77" y="37.72" width="1050.19" height="503.56"/>
  </clipPath>
 </defs>
</svg>
