<?xml version="1.0" encoding="utf-8" standalone="no"?>
<!DOCTYPE svg PUBLIC "-//W3C//DTD SVG 1.1//EN"
  "http://www.w3.org/Graphics/SVG/1.1/DTD/svg11.dtd">
<svg height="576pt" version="1.1" viewBox="0 0 1152 576" width="1152pt" xmlns="http://www.w3.org/2000/svg" xmlns:xlink="http://www.w3.org/1999/xlink">
 <metadata>
  <rdf:RDF xmlns:cc="http://creativecommons.org/ns#" xmlns:dc="http://purl.org/dc/elements/1.1/" xmlns:rdf="http://www.w3.org/1999/02/22-rdf-syntax-ns#">
   <cc:Work>
    <dc:type rdf:resource="http://purl.org/dc/dcmitype/StillImage"/>
    <dc:date>2021-04-15T17:44:14.400657</dc:date>
    <dc:format>image/svg+xml</dc:format>
    <dc:creator>
     <cc:Agent>
      <dc:title>Matplotlib v3.4.1, https://matplotlib.org/</dc:title>
     </cc:Agent>
    </dc:creator>
   </cc:Work>
  </rdf:RDF>
 </metadata>
 <defs>
  <style type="text/css">*{stroke-linecap:butt;stroke-linejoin:round;}</style>
 </defs>
 <g id="figure_1">
  <g id="patch_1">
   <path d="M 0 576 
L 1152 576 
L 1152 0 
L 0 0 
z
" style="fill:#ffffff;"/>
  </g>
  <g id="axes_1">
   <g id="patch_2">
    <path d="M 87.95 541.28 
L 1130.491149 541.28 
L 1130.491149 37.72 
L 87.95 37.72 
z
" style="fill:#ffffff;"/>
   </g>
   <g id="matplotlib.axis_1">
    <g id="xtick_1">
     <g id="line2d_1">
      <defs>
       <path d="M 0 0 
L 0 3.5 
" id="m9d31ca0cbb" style="stroke:#555555;stroke-width:0.8;"/>
      </defs>
      <g>
       <use style="fill:#555555;stroke:#555555;stroke-width:0.8;" x="126.000651" xlink:href="#m9d31ca0cbb" y="541.28"/>
      </g>
     </g>
     <g id="text_1">
      <!-- Mar -->
      <g style="fill:#555555;" transform="translate(110.858776 558.917812)scale(0.14 -0.14)">
       <defs>
        <path d="M 588 4666 
L 2119 4666 
L 3181 2169 
L 4250 4666 
L 5778 4666 
L 5778 0 
L 4641 0 
L 4641 3413 
L 3566 897 
L 2803 897 
L 1728 3413 
L 1728 0 
L 588 0 
L 588 4666 
z
" id="DejaVuSans-Bold-4d" transform="scale(0.015625)"/>
        <path d="M 2106 1575 
Q 1756 1575 1579 1456 
Q 1403 1338 1403 1106 
Q 1403 894 1545 773 
Q 1688 653 1941 653 
Q 2256 653 2472 879 
Q 2688 1106 2688 1447 
L 2688 1575 
L 2106 1575 
z
M 3816 1997 
L 3816 0 
L 2688 0 
L 2688 519 
Q 2463 200 2181 54 
Q 1900 -91 1497 -91 
Q 953 -91 614 226 
Q 275 544 275 1050 
Q 275 1666 698 1953 
Q 1122 2241 2028 2241 
L 2688 2241 
L 2688 2328 
Q 2688 2594 2478 2717 
Q 2269 2841 1825 2841 
Q 1466 2841 1156 2769 
Q 847 2697 581 2553 
L 581 3406 
Q 941 3494 1303 3539 
Q 1666 3584 2028 3584 
Q 2975 3584 3395 3211 
Q 3816 2838 3816 1997 
z
" id="DejaVuSans-Bold-61" transform="scale(0.015625)"/>
        <path d="M 3138 2547 
Q 2991 2616 2845 2648 
Q 2700 2681 2553 2681 
Q 2122 2681 1889 2404 
Q 1656 2128 1656 1613 
L 1656 0 
L 538 0 
L 538 3500 
L 1656 3500 
L 1656 2925 
Q 1872 3269 2151 3426 
Q 2431 3584 2822 3584 
Q 2878 3584 2943 3579 
Q 3009 3575 3134 3559 
L 3138 2547 
z
" id="DejaVuSans-Bold-72" transform="scale(0.015625)"/>
       </defs>
       <use xlink:href="#DejaVuSans-Bold-4d"/>
       <use x="99.511719" xlink:href="#DejaVuSans-Bold-61"/>
       <use x="166.992188" xlink:href="#DejaVuSans-Bold-72"/>
      </g>
     </g>
    </g>
    <g id="xtick_2">
     <g id="line2d_2">
      <g>
       <use style="fill:#555555;stroke:#555555;stroke-width:0.8;" x="198.36692" xlink:href="#m9d31ca0cbb" y="541.28"/>
      </g>
     </g>
     <g id="text_2">
      <!-- Apr -->
      <g style="fill:#555555;" transform="translate(184.487232 558.917812)scale(0.14 -0.14)">
       <defs>
        <path d="M 3419 850 
L 1538 850 
L 1241 0 
L 31 0 
L 1759 4666 
L 3194 4666 
L 4922 0 
L 3713 0 
L 3419 850 
z
M 1838 1716 
L 3116 1716 
L 2478 3572 
L 1838 1716 
z
" id="DejaVuSans-Bold-41" transform="scale(0.015625)"/>
        <path d="M 1656 506 
L 1656 -1331 
L 538 -1331 
L 538 3500 
L 1656 3500 
L 1656 2988 
Q 1888 3294 2169 3439 
Q 2450 3584 2816 3584 
Q 3463 3584 3878 3070 
Q 4294 2556 4294 1747 
Q 4294 938 3878 423 
Q 3463 -91 2816 -91 
Q 2450 -91 2169 54 
Q 1888 200 1656 506 
z
M 2400 2772 
Q 2041 2772 1848 2508 
Q 1656 2244 1656 1747 
Q 1656 1250 1848 986 
Q 2041 722 2400 722 
Q 2759 722 2948 984 
Q 3138 1247 3138 1747 
Q 3138 2247 2948 2509 
Q 2759 2772 2400 2772 
z
" id="DejaVuSans-Bold-70" transform="scale(0.015625)"/>
       </defs>
       <use xlink:href="#DejaVuSans-Bold-41"/>
       <use x="77.392578" xlink:href="#DejaVuSans-Bold-70"/>
       <use x="148.974609" xlink:href="#DejaVuSans-Bold-72"/>
      </g>
     </g>
    </g>
    <g id="xtick_3">
     <g id="line2d_3">
      <g>
       <use style="fill:#555555;stroke:#555555;stroke-width:0.8;" x="268.398793" xlink:href="#m9d31ca0cbb" y="541.28"/>
      </g>
     </g>
     <g id="text_3">
      <!-- May -->
      <g style="fill:#555555;" transform="translate(252.364418 558.808437)scale(0.14 -0.14)">
       <defs>
        <path d="M 78 3500 
L 1197 3500 
L 2138 1125 
L 2938 3500 
L 4056 3500 
L 2584 -331 
Q 2363 -916 2067 -1148 
Q 1772 -1381 1288 -1381 
L 641 -1381 
L 641 -647 
L 991 -647 
Q 1275 -647 1404 -556 
Q 1534 -466 1606 -231 
L 1638 -134 
L 78 3500 
z
" id="DejaVuSans-Bold-79" transform="scale(0.015625)"/>
       </defs>
       <use xlink:href="#DejaVuSans-Bold-4d"/>
       <use x="99.511719" xlink:href="#DejaVuSans-Bold-61"/>
       <use x="163.867188" xlink:href="#DejaVuSans-Bold-79"/>
      </g>
     </g>
    </g>
    <g id="xtick_4">
     <g id="line2d_4">
      <g>
       <use style="fill:#555555;stroke:#555555;stroke-width:0.8;" x="340.765061" xlink:href="#m9d31ca0cbb" y="541.28"/>
      </g>
     </g>
     <g id="text_4">
      <!-- Jun -->
      <g style="fill:#555555;" transform="translate(328.194593 558.917812)scale(0.14 -0.14)">
       <defs>
        <path d="M 588 4666 
L 1791 4666 
L 1791 453 
Q 1791 -419 1317 -850 
Q 844 -1281 -116 -1281 
L -359 -1281 
L -359 -372 
L -172 -372 
Q 203 -372 395 -162 
Q 588 47 588 453 
L 588 4666 
z
" id="DejaVuSans-Bold-4a" transform="scale(0.015625)"/>
        <path d="M 500 1363 
L 500 3500 
L 1625 3500 
L 1625 3150 
Q 1625 2866 1622 2436 
Q 1619 2006 1619 1863 
Q 1619 1441 1641 1255 
Q 1663 1069 1716 984 
Q 1784 875 1895 815 
Q 2006 756 2150 756 
Q 2500 756 2700 1025 
Q 2900 1294 2900 1772 
L 2900 3500 
L 4019 3500 
L 4019 0 
L 2900 0 
L 2900 506 
Q 2647 200 2364 54 
Q 2081 -91 1741 -91 
Q 1134 -91 817 281 
Q 500 653 500 1363 
z
" id="DejaVuSans-Bold-75" transform="scale(0.015625)"/>
        <path d="M 4056 2131 
L 4056 0 
L 2931 0 
L 2931 347 
L 2931 1631 
Q 2931 2084 2911 2256 
Q 2891 2428 2841 2509 
Q 2775 2619 2662 2680 
Q 2550 2741 2406 2741 
Q 2056 2741 1856 2470 
Q 1656 2200 1656 1722 
L 1656 0 
L 538 0 
L 538 3500 
L 1656 3500 
L 1656 2988 
Q 1909 3294 2193 3439 
Q 2478 3584 2822 3584 
Q 3428 3584 3742 3212 
Q 4056 2841 4056 2131 
z
" id="DejaVuSans-Bold-6e" transform="scale(0.015625)"/>
       </defs>
       <use xlink:href="#DejaVuSans-Bold-4a"/>
       <use x="37.207031" xlink:href="#DejaVuSans-Bold-75"/>
       <use x="108.398438" xlink:href="#DejaVuSans-Bold-6e"/>
      </g>
     </g>
    </g>
    <g id="xtick_5">
     <g id="line2d_5">
      <g>
       <use style="fill:#555555;stroke:#555555;stroke-width:0.8;" x="410.796934" xlink:href="#m9d31ca0cbb" y="541.28"/>
      </g>
     </g>
     <g id="text_5">
      <!-- Jul -->
      <g style="fill:#555555;" transform="translate(400.809903 558.917812)scale(0.14 -0.14)">
       <defs>
        <path d="M 538 4863 
L 1656 4863 
L 1656 0 
L 538 0 
L 538 4863 
z
" id="DejaVuSans-Bold-6c" transform="scale(0.015625)"/>
       </defs>
       <use xlink:href="#DejaVuSans-Bold-4a"/>
       <use x="37.207031" xlink:href="#DejaVuSans-Bold-75"/>
       <use x="108.398438" xlink:href="#DejaVuSans-Bold-6c"/>
      </g>
     </g>
    </g>
    <g id="xtick_6">
     <g id="line2d_6">
      <g>
       <use style="fill:#555555;stroke:#555555;stroke-width:0.8;" x="483.163203" xlink:href="#m9d31ca0cbb" y="541.28"/>
      </g>
     </g>
     <g id="text_6">
      <!-- Aug -->
      <g style="fill:#555555;" transform="translate(467.752266 558.808437)scale(0.14 -0.14)">
       <defs>
        <path d="M 2919 594 
Q 2688 288 2409 144 
Q 2131 0 1766 0 
Q 1125 0 706 504 
Q 288 1009 288 1791 
Q 288 2575 706 3076 
Q 1125 3578 1766 3578 
Q 2131 3578 2409 3434 
Q 2688 3291 2919 2981 
L 2919 3500 
L 4044 3500 
L 4044 353 
Q 4044 -491 3511 -936 
Q 2978 -1381 1966 -1381 
Q 1638 -1381 1331 -1331 
Q 1025 -1281 716 -1178 
L 716 -306 
Q 1009 -475 1290 -558 
Q 1572 -641 1856 -641 
Q 2406 -641 2662 -400 
Q 2919 -159 2919 353 
L 2919 594 
z
M 2181 2772 
Q 1834 2772 1640 2515 
Q 1447 2259 1447 1791 
Q 1447 1309 1634 1061 
Q 1822 813 2181 813 
Q 2531 813 2725 1069 
Q 2919 1325 2919 1791 
Q 2919 2259 2725 2515 
Q 2531 2772 2181 2772 
z
" id="DejaVuSans-Bold-67" transform="scale(0.015625)"/>
       </defs>
       <use xlink:href="#DejaVuSans-Bold-41"/>
       <use x="77.392578" xlink:href="#DejaVuSans-Bold-75"/>
       <use x="148.583984" xlink:href="#DejaVuSans-Bold-67"/>
      </g>
     </g>
    </g>
    <g id="xtick_7">
     <g id="line2d_7">
      <g>
       <use style="fill:#555555;stroke:#555555;stroke-width:0.8;" x="555.529472" xlink:href="#m9d31ca0cbb" y="541.28"/>
      </g>
     </g>
     <g id="text_7">
      <!-- Sep -->
      <g style="fill:#555555;" transform="translate(540.72994 558.917812)scale(0.14 -0.14)">
       <defs>
        <path d="M 3834 4519 
L 3834 3531 
Q 3450 3703 3084 3790 
Q 2719 3878 2394 3878 
Q 1963 3878 1756 3759 
Q 1550 3641 1550 3391 
Q 1550 3203 1689 3098 
Q 1828 2994 2194 2919 
L 2706 2816 
Q 3484 2659 3812 2340 
Q 4141 2022 4141 1434 
Q 4141 663 3683 286 
Q 3225 -91 2284 -91 
Q 1841 -91 1394 -6 
Q 947 78 500 244 
L 500 1259 
Q 947 1022 1364 901 
Q 1781 781 2169 781 
Q 2563 781 2772 912 
Q 2981 1044 2981 1288 
Q 2981 1506 2839 1625 
Q 2697 1744 2272 1838 
L 1806 1941 
Q 1106 2091 782 2419 
Q 459 2747 459 3303 
Q 459 4000 909 4375 
Q 1359 4750 2203 4750 
Q 2588 4750 2994 4692 
Q 3400 4634 3834 4519 
z
" id="DejaVuSans-Bold-53" transform="scale(0.015625)"/>
        <path d="M 4031 1759 
L 4031 1441 
L 1416 1441 
Q 1456 1047 1700 850 
Q 1944 653 2381 653 
Q 2734 653 3104 758 
Q 3475 863 3866 1075 
L 3866 213 
Q 3469 63 3072 -14 
Q 2675 -91 2278 -91 
Q 1328 -91 801 392 
Q 275 875 275 1747 
Q 275 2603 792 3093 
Q 1309 3584 2216 3584 
Q 3041 3584 3536 3087 
Q 4031 2591 4031 1759 
z
M 2881 2131 
Q 2881 2450 2695 2645 
Q 2509 2841 2209 2841 
Q 1884 2841 1681 2658 
Q 1478 2475 1428 2131 
L 2881 2131 
z
" id="DejaVuSans-Bold-65" transform="scale(0.015625)"/>
       </defs>
       <use xlink:href="#DejaVuSans-Bold-53"/>
       <use x="72.021484" xlink:href="#DejaVuSans-Bold-65"/>
       <use x="139.84375" xlink:href="#DejaVuSans-Bold-70"/>
      </g>
     </g>
    </g>
    <g id="xtick_8">
     <g id="line2d_8">
      <g>
       <use style="fill:#555555;stroke:#555555;stroke-width:0.8;" x="625.561345" xlink:href="#m9d31ca0cbb" y="541.28"/>
      </g>
     </g>
     <g id="text_8">
      <!-- Oct -->
      <g style="fill:#555555;" transform="translate(612.114782 558.917812)scale(0.14 -0.14)">
       <defs>
        <path d="M 2719 3878 
Q 2169 3878 1866 3472 
Q 1563 3066 1563 2328 
Q 1563 1594 1866 1187 
Q 2169 781 2719 781 
Q 3272 781 3575 1187 
Q 3878 1594 3878 2328 
Q 3878 3066 3575 3472 
Q 3272 3878 2719 3878 
z
M 2719 4750 
Q 3844 4750 4481 4106 
Q 5119 3463 5119 2328 
Q 5119 1197 4481 553 
Q 3844 -91 2719 -91 
Q 1597 -91 958 553 
Q 319 1197 319 2328 
Q 319 3463 958 4106 
Q 1597 4750 2719 4750 
z
" id="DejaVuSans-Bold-4f" transform="scale(0.015625)"/>
        <path d="M 3366 3391 
L 3366 2478 
Q 3138 2634 2908 2709 
Q 2678 2784 2431 2784 
Q 1963 2784 1702 2511 
Q 1441 2238 1441 1747 
Q 1441 1256 1702 982 
Q 1963 709 2431 709 
Q 2694 709 2930 787 
Q 3166 866 3366 1019 
L 3366 103 
Q 3103 6 2833 -42 
Q 2563 -91 2291 -91 
Q 1344 -91 809 395 
Q 275 881 275 1747 
Q 275 2613 809 3098 
Q 1344 3584 2291 3584 
Q 2566 3584 2833 3536 
Q 3100 3488 3366 3391 
z
" id="DejaVuSans-Bold-63" transform="scale(0.015625)"/>
        <path d="M 1759 4494 
L 1759 3500 
L 2913 3500 
L 2913 2700 
L 1759 2700 
L 1759 1216 
Q 1759 972 1856 886 
Q 1953 800 2241 800 
L 2816 800 
L 2816 0 
L 1856 0 
Q 1194 0 917 276 
Q 641 553 641 1216 
L 641 2700 
L 84 2700 
L 84 3500 
L 641 3500 
L 641 4494 
L 1759 4494 
z
" id="DejaVuSans-Bold-74" transform="scale(0.015625)"/>
       </defs>
       <use xlink:href="#DejaVuSans-Bold-4f"/>
       <use x="85.009766" xlink:href="#DejaVuSans-Bold-63"/>
       <use x="144.287109" xlink:href="#DejaVuSans-Bold-74"/>
      </g>
     </g>
    </g>
    <g id="xtick_9">
     <g id="line2d_9">
      <g>
       <use style="fill:#555555;stroke:#555555;stroke-width:0.8;" x="697.927613" xlink:href="#m9d31ca0cbb" y="541.28"/>
      </g>
     </g>
     <g id="text_9">
      <!-- Nov -->
      <g style="fill:#555555;" transform="translate(682.697145 558.917812)scale(0.14 -0.14)">
       <defs>
        <path d="M 588 4666 
L 1931 4666 
L 3628 1466 
L 3628 4666 
L 4769 4666 
L 4769 0 
L 3425 0 
L 1728 3200 
L 1728 0 
L 588 0 
L 588 4666 
z
" id="DejaVuSans-Bold-4e" transform="scale(0.015625)"/>
        <path d="M 2203 2784 
Q 1831 2784 1636 2517 
Q 1441 2250 1441 1747 
Q 1441 1244 1636 976 
Q 1831 709 2203 709 
Q 2569 709 2762 976 
Q 2956 1244 2956 1747 
Q 2956 2250 2762 2517 
Q 2569 2784 2203 2784 
z
M 2203 3584 
Q 3106 3584 3614 3096 
Q 4122 2609 4122 1747 
Q 4122 884 3614 396 
Q 3106 -91 2203 -91 
Q 1297 -91 786 396 
Q 275 884 275 1747 
Q 275 2609 786 3096 
Q 1297 3584 2203 3584 
z
" id="DejaVuSans-Bold-6f" transform="scale(0.015625)"/>
        <path d="M 97 3500 
L 1216 3500 
L 2088 1081 
L 2956 3500 
L 4078 3500 
L 2700 0 
L 1472 0 
L 97 3500 
z
" id="DejaVuSans-Bold-76" transform="scale(0.015625)"/>
       </defs>
       <use xlink:href="#DejaVuSans-Bold-4e"/>
       <use x="83.691406" xlink:href="#DejaVuSans-Bold-6f"/>
       <use x="152.392578" xlink:href="#DejaVuSans-Bold-76"/>
      </g>
     </g>
    </g>
    <g id="xtick_10">
     <g id="line2d_10">
      <g>
       <use style="fill:#555555;stroke:#555555;stroke-width:0.8;" x="767.959486" xlink:href="#m9d31ca0cbb" y="541.28"/>
      </g>
     </g>
     <g id="text_10">
      <!-- Dec -->
      <g style="fill:#555555;" transform="translate(753.250736 558.917812)scale(0.14 -0.14)">
       <defs>
        <path d="M 1791 3756 
L 1791 909 
L 2222 909 
Q 2959 909 3348 1275 
Q 3738 1641 3738 2338 
Q 3738 3031 3350 3393 
Q 2963 3756 2222 3756 
L 1791 3756 
z
M 588 4666 
L 1856 4666 
Q 2919 4666 3439 4514 
Q 3959 4363 4331 4000 
Q 4659 3684 4818 3271 
Q 4978 2859 4978 2338 
Q 4978 1809 4818 1395 
Q 4659 981 4331 666 
Q 3956 303 3431 151 
Q 2906 0 1856 0 
L 588 0 
L 588 4666 
z
" id="DejaVuSans-Bold-44" transform="scale(0.015625)"/>
       </defs>
       <use xlink:href="#DejaVuSans-Bold-44"/>
       <use x="83.007812" xlink:href="#DejaVuSans-Bold-65"/>
       <use x="150.830078" xlink:href="#DejaVuSans-Bold-63"/>
      </g>
     </g>
    </g>
    <g id="xtick_11">
     <g id="line2d_11">
      <g>
       <use style="fill:#555555;stroke:#555555;stroke-width:0.8;" x="840.325755" xlink:href="#m9d31ca0cbb" y="541.28"/>
      </g>
     </g>
     <g id="text_11">
      <!-- Jan -->
      <g style="fill:#555555;" transform="translate(828.014505 558.917812)scale(0.14 -0.14)">
       <use xlink:href="#DejaVuSans-Bold-4a"/>
       <use x="37.207031" xlink:href="#DejaVuSans-Bold-61"/>
       <use x="104.6875" xlink:href="#DejaVuSans-Bold-6e"/>
      </g>
     </g>
    </g>
    <g id="xtick_12">
     <g id="line2d_12">
      <g>
       <use style="fill:#555555;stroke:#555555;stroke-width:0.8;" x="912.692024" xlink:href="#m9d31ca0cbb" y="541.28"/>
      </g>
     </g>
     <g id="text_12">
      <!-- Feb -->
      <g style="fill:#555555;" transform="translate(898.431711 558.917812)scale(0.14 -0.14)">
       <defs>
        <path d="M 588 4666 
L 3834 4666 
L 3834 3756 
L 1791 3756 
L 1791 2888 
L 3713 2888 
L 3713 1978 
L 1791 1978 
L 1791 0 
L 588 0 
L 588 4666 
z
" id="DejaVuSans-Bold-46" transform="scale(0.015625)"/>
        <path d="M 2400 722 
Q 2759 722 2948 984 
Q 3138 1247 3138 1747 
Q 3138 2247 2948 2509 
Q 2759 2772 2400 2772 
Q 2041 2772 1848 2508 
Q 1656 2244 1656 1747 
Q 1656 1250 1848 986 
Q 2041 722 2400 722 
z
M 1656 2988 
Q 1888 3294 2169 3439 
Q 2450 3584 2816 3584 
Q 3463 3584 3878 3070 
Q 4294 2556 4294 1747 
Q 4294 938 3878 423 
Q 3463 -91 2816 -91 
Q 2450 -91 2169 54 
Q 1888 200 1656 506 
L 1656 0 
L 538 0 
L 538 4863 
L 1656 4863 
L 1656 2988 
z
" id="DejaVuSans-Bold-62" transform="scale(0.015625)"/>
       </defs>
       <use xlink:href="#DejaVuSans-Bold-46"/>
       <use x="64.310547" xlink:href="#DejaVuSans-Bold-65"/>
       <use x="132.132812" xlink:href="#DejaVuSans-Bold-62"/>
      </g>
     </g>
    </g>
    <g id="xtick_13">
     <g id="line2d_13">
      <g>
       <use style="fill:#555555;stroke:#555555;stroke-width:0.8;" x="978.055105" xlink:href="#m9d31ca0cbb" y="541.28"/>
      </g>
     </g>
     <g id="text_13">
      <!-- Mar -->
      <g style="fill:#555555;" transform="translate(962.91323 558.917812)scale(0.14 -0.14)">
       <use xlink:href="#DejaVuSans-Bold-4d"/>
       <use x="99.511719" xlink:href="#DejaVuSans-Bold-61"/>
       <use x="166.992188" xlink:href="#DejaVuSans-Bold-72"/>
      </g>
     </g>
    </g>
    <g id="xtick_14">
     <g id="line2d_14">
      <g>
       <use style="fill:#555555;stroke:#555555;stroke-width:0.8;" x="1050.421374" xlink:href="#m9d31ca0cbb" y="541.28"/>
      </g>
     </g>
     <g id="text_14">
      <!-- Apr -->
      <g style="fill:#555555;" transform="translate(1036.541686 558.917812)scale(0.14 -0.14)">
       <use xlink:href="#DejaVuSans-Bold-41"/>
       <use x="77.392578" xlink:href="#DejaVuSans-Bold-70"/>
       <use x="148.974609" xlink:href="#DejaVuSans-Bold-72"/>
      </g>
     </g>
    </g>
    <g id="xtick_15">
     <g id="line2d_15">
      <g>
       <use style="fill:#555555;stroke:#555555;stroke-width:0.8;" x="1120.453247" xlink:href="#m9d31ca0cbb" y="541.28"/>
      </g>
     </g>
     <g id="text_15">
      <!-- May -->
      <g style="fill:#555555;" transform="translate(1104.418872 558.808437)scale(0.14 -0.14)">
       <use xlink:href="#DejaVuSans-Bold-4d"/>
       <use x="99.511719" xlink:href="#DejaVuSans-Bold-61"/>
       <use x="163.867188" xlink:href="#DejaVuSans-Bold-79"/>
      </g>
     </g>
    </g>
   </g>
   <g id="matplotlib.axis_2">
    <g id="ytick_1">
     <g id="line2d_16">
      <defs>
       <path d="M 0 0 
L -3.5 0 
" id="m9c9c75db38" style="stroke:#555555;stroke-width:0.8;"/>
      </defs>
      <g>
       <use style="fill:#555555;stroke:#555555;stroke-width:0.8;" x="87.95" xlink:href="#m9c9c75db38" y="519.471929"/>
      </g>
     </g>
     <g id="text_16">
      <!-- 0 -->
      <g style="fill:#555555;" transform="translate(71.209063 524.790835)scale(0.14 -0.14)">
       <defs>
        <path d="M 2944 2338 
Q 2944 3213 2780 3570 
Q 2616 3928 2228 3928 
Q 1841 3928 1675 3570 
Q 1509 3213 1509 2338 
Q 1509 1453 1675 1090 
Q 1841 728 2228 728 
Q 2613 728 2778 1090 
Q 2944 1453 2944 2338 
z
M 4147 2328 
Q 4147 1169 3647 539 
Q 3147 -91 2228 -91 
Q 1306 -91 806 539 
Q 306 1169 306 2328 
Q 306 3491 806 4120 
Q 1306 4750 2228 4750 
Q 3147 4750 3647 4120 
Q 4147 3491 4147 2328 
z
" id="DejaVuSans-Bold-30" transform="scale(0.015625)"/>
       </defs>
       <use xlink:href="#DejaVuSans-Bold-30"/>
      </g>
     </g>
    </g>
    <g id="ytick_2">
     <g id="line2d_17">
      <g>
       <use style="fill:#555555;stroke:#555555;stroke-width:0.8;" x="87.95" xlink:href="#m9c9c75db38" y="459.415278"/>
      </g>
     </g>
     <g id="text_17">
      <!-- 2000 -->
      <g style="fill:#555555;" transform="translate(41.98625 464.734185)scale(0.14 -0.14)">
       <defs>
        <path d="M 1844 884 
L 3897 884 
L 3897 0 
L 506 0 
L 506 884 
L 2209 2388 
Q 2438 2594 2547 2791 
Q 2656 2988 2656 3200 
Q 2656 3528 2436 3728 
Q 2216 3928 1850 3928 
Q 1569 3928 1234 3808 
Q 900 3688 519 3450 
L 519 4475 
Q 925 4609 1322 4679 
Q 1719 4750 2100 4750 
Q 2938 4750 3402 4381 
Q 3866 4013 3866 3353 
Q 3866 2972 3669 2642 
Q 3472 2313 2841 1759 
L 1844 884 
z
" id="DejaVuSans-Bold-32" transform="scale(0.015625)"/>
       </defs>
       <use xlink:href="#DejaVuSans-Bold-32"/>
       <use x="69.580078" xlink:href="#DejaVuSans-Bold-30"/>
       <use x="139.160156" xlink:href="#DejaVuSans-Bold-30"/>
       <use x="208.740234" xlink:href="#DejaVuSans-Bold-30"/>
      </g>
     </g>
    </g>
    <g id="ytick_3">
     <g id="line2d_18">
      <g>
       <use style="fill:#555555;stroke:#555555;stroke-width:0.8;" x="87.95" xlink:href="#m9c9c75db38" y="399.358628"/>
      </g>
     </g>
     <g id="text_18">
      <!-- 4000 -->
      <g style="fill:#555555;" transform="translate(41.98625 404.677534)scale(0.14 -0.14)">
       <defs>
        <path d="M 2356 3675 
L 1038 1722 
L 2356 1722 
L 2356 3675 
z
M 2156 4666 
L 3494 4666 
L 3494 1722 
L 4159 1722 
L 4159 850 
L 3494 850 
L 3494 0 
L 2356 0 
L 2356 850 
L 288 850 
L 288 1881 
L 2156 4666 
z
" id="DejaVuSans-Bold-34" transform="scale(0.015625)"/>
       </defs>
       <use xlink:href="#DejaVuSans-Bold-34"/>
       <use x="69.580078" xlink:href="#DejaVuSans-Bold-30"/>
       <use x="139.160156" xlink:href="#DejaVuSans-Bold-30"/>
       <use x="208.740234" xlink:href="#DejaVuSans-Bold-30"/>
      </g>
     </g>
    </g>
    <g id="ytick_4">
     <g id="line2d_19">
      <g>
       <use style="fill:#555555;stroke:#555555;stroke-width:0.8;" x="87.95" xlink:href="#m9c9c75db38" y="339.301977"/>
      </g>
     </g>
     <g id="text_19">
      <!-- 6000 -->
      <g style="fill:#555555;" transform="translate(41.98625 344.620884)scale(0.14 -0.14)">
       <defs>
        <path d="M 2316 2303 
Q 2000 2303 1842 2098 
Q 1684 1894 1684 1484 
Q 1684 1075 1842 870 
Q 2000 666 2316 666 
Q 2634 666 2792 870 
Q 2950 1075 2950 1484 
Q 2950 1894 2792 2098 
Q 2634 2303 2316 2303 
z
M 3803 4544 
L 3803 3681 
Q 3506 3822 3243 3889 
Q 2981 3956 2731 3956 
Q 2194 3956 1894 3657 
Q 1594 3359 1544 2772 
Q 1750 2925 1990 3001 
Q 2231 3078 2516 3078 
Q 3231 3078 3670 2659 
Q 4109 2241 4109 1563 
Q 4109 813 3618 361 
Q 3128 -91 2303 -91 
Q 1394 -91 895 523 
Q 397 1138 397 2266 
Q 397 3422 980 4083 
Q 1563 4744 2578 4744 
Q 2900 4744 3203 4694 
Q 3506 4644 3803 4544 
z
" id="DejaVuSans-Bold-36" transform="scale(0.015625)"/>
       </defs>
       <use xlink:href="#DejaVuSans-Bold-36"/>
       <use x="69.580078" xlink:href="#DejaVuSans-Bold-30"/>
       <use x="139.160156" xlink:href="#DejaVuSans-Bold-30"/>
       <use x="208.740234" xlink:href="#DejaVuSans-Bold-30"/>
      </g>
     </g>
    </g>
    <g id="ytick_5">
     <g id="line2d_20">
      <g>
       <use style="fill:#555555;stroke:#555555;stroke-width:0.8;" x="87.95" xlink:href="#m9c9c75db38" y="279.245327"/>
      </g>
     </g>
     <g id="text_20">
      <!-- 8000 -->
      <g style="fill:#555555;" transform="translate(41.98625 284.564233)scale(0.14 -0.14)">
       <defs>
        <path d="M 2228 2088 
Q 1891 2088 1709 1903 
Q 1528 1719 1528 1375 
Q 1528 1031 1709 848 
Q 1891 666 2228 666 
Q 2563 666 2741 848 
Q 2919 1031 2919 1375 
Q 2919 1722 2741 1905 
Q 2563 2088 2228 2088 
z
M 1350 2484 
Q 925 2613 709 2878 
Q 494 3144 494 3541 
Q 494 4131 934 4440 
Q 1375 4750 2228 4750 
Q 3075 4750 3515 4442 
Q 3956 4134 3956 3541 
Q 3956 3144 3739 2878 
Q 3522 2613 3097 2484 
Q 3572 2353 3814 2058 
Q 4056 1763 4056 1313 
Q 4056 619 3595 264 
Q 3134 -91 2228 -91 
Q 1319 -91 855 264 
Q 391 619 391 1313 
Q 391 1763 633 2058 
Q 875 2353 1350 2484 
z
M 1631 3419 
Q 1631 3141 1786 2991 
Q 1941 2841 2228 2841 
Q 2509 2841 2662 2991 
Q 2816 3141 2816 3419 
Q 2816 3697 2662 3845 
Q 2509 3994 2228 3994 
Q 1941 3994 1786 3844 
Q 1631 3694 1631 3419 
z
" id="DejaVuSans-Bold-38" transform="scale(0.015625)"/>
       </defs>
       <use xlink:href="#DejaVuSans-Bold-38"/>
       <use x="69.580078" xlink:href="#DejaVuSans-Bold-30"/>
       <use x="139.160156" xlink:href="#DejaVuSans-Bold-30"/>
       <use x="208.740234" xlink:href="#DejaVuSans-Bold-30"/>
      </g>
     </g>
    </g>
    <g id="ytick_6">
     <g id="line2d_21">
      <g>
       <use style="fill:#555555;stroke:#555555;stroke-width:0.8;" x="87.95" xlink:href="#m9c9c75db38" y="219.188676"/>
      </g>
     </g>
     <g id="text_21">
      <!-- 10000 -->
      <g style="fill:#555555;" transform="translate(32.245313 224.507583)scale(0.14 -0.14)">
       <defs>
        <path d="M 750 831 
L 1813 831 
L 1813 3847 
L 722 3622 
L 722 4441 
L 1806 4666 
L 2950 4666 
L 2950 831 
L 4013 831 
L 4013 0 
L 750 0 
L 750 831 
z
" id="DejaVuSans-Bold-31" transform="scale(0.015625)"/>
       </defs>
       <use xlink:href="#DejaVuSans-Bold-31"/>
       <use x="69.580078" xlink:href="#DejaVuSans-Bold-30"/>
       <use x="139.160156" xlink:href="#DejaVuSans-Bold-30"/>
       <use x="208.740234" xlink:href="#DejaVuSans-Bold-30"/>
       <use x="278.320312" xlink:href="#DejaVuSans-Bold-30"/>
      </g>
     </g>
    </g>
    <g id="ytick_7">
     <g id="line2d_22">
      <g>
       <use style="fill:#555555;stroke:#555555;stroke-width:0.8;" x="87.95" xlink:href="#m9c9c75db38" y="159.132026"/>
      </g>
     </g>
     <g id="text_22">
      <!-- 12000 -->
      <g style="fill:#555555;" transform="translate(32.245313 164.450932)scale(0.14 -0.14)">
       <use xlink:href="#DejaVuSans-Bold-31"/>
       <use x="69.580078" xlink:href="#DejaVuSans-Bold-32"/>
       <use x="139.160156" xlink:href="#DejaVuSans-Bold-30"/>
       <use x="208.740234" xlink:href="#DejaVuSans-Bold-30"/>
       <use x="278.320312" xlink:href="#DejaVuSans-Bold-30"/>
      </g>
     </g>
    </g>
    <g id="ytick_8">
     <g id="line2d_23">
      <g>
       <use style="fill:#555555;stroke:#555555;stroke-width:0.8;" x="87.95" xlink:href="#m9c9c75db38" y="99.075376"/>
      </g>
     </g>
     <g id="text_23">
      <!-- 14000 -->
      <g style="fill:#555555;" transform="translate(32.245313 104.394282)scale(0.14 -0.14)">
       <use xlink:href="#DejaVuSans-Bold-31"/>
       <use x="69.580078" xlink:href="#DejaVuSans-Bold-34"/>
       <use x="139.160156" xlink:href="#DejaVuSans-Bold-30"/>
       <use x="208.740234" xlink:href="#DejaVuSans-Bold-30"/>
       <use x="278.320312" xlink:href="#DejaVuSans-Bold-30"/>
      </g>
     </g>
    </g>
    <g id="ytick_9">
     <g id="line2d_24">
      <g>
       <use style="fill:#555555;stroke:#555555;stroke-width:0.8;" x="87.95" xlink:href="#m9c9c75db38" y="39.018725"/>
      </g>
     </g>
     <g id="text_24">
      <!-- 16000 -->
      <g style="fill:#555555;" transform="translate(32.245313 44.337631)scale(0.14 -0.14)">
       <use xlink:href="#DejaVuSans-Bold-31"/>
       <use x="69.580078" xlink:href="#DejaVuSans-Bold-36"/>
       <use x="139.160156" xlink:href="#DejaVuSans-Bold-30"/>
       <use x="208.740234" xlink:href="#DejaVuSans-Bold-30"/>
       <use x="278.320312" xlink:href="#DejaVuSans-Bold-30"/>
      </g>
     </g>
    </g>
    <g id="text_25">
     <!-- New Cases -->
     <g style="fill:#555555;" transform="translate(24.917813 333.23875)rotate(-90)scale(0.16 -0.16)">
      <defs>
       <path d="M 628 4666 
L 1478 4666 
L 3547 763 
L 3547 4666 
L 4159 4666 
L 4159 0 
L 3309 0 
L 1241 3903 
L 1241 0 
L 628 0 
L 628 4666 
z
" id="DejaVuSans-4e" transform="scale(0.015625)"/>
       <path d="M 3597 1894 
L 3597 1613 
L 953 1613 
Q 991 1019 1311 708 
Q 1631 397 2203 397 
Q 2534 397 2845 478 
Q 3156 559 3463 722 
L 3463 178 
Q 3153 47 2828 -22 
Q 2503 -91 2169 -91 
Q 1331 -91 842 396 
Q 353 884 353 1716 
Q 353 2575 817 3079 
Q 1281 3584 2069 3584 
Q 2775 3584 3186 3129 
Q 3597 2675 3597 1894 
z
M 3022 2063 
Q 3016 2534 2758 2815 
Q 2500 3097 2075 3097 
Q 1594 3097 1305 2825 
Q 1016 2553 972 2059 
L 3022 2063 
z
" id="DejaVuSans-65" transform="scale(0.015625)"/>
       <path d="M 269 3500 
L 844 3500 
L 1563 769 
L 2278 3500 
L 2956 3500 
L 3675 769 
L 4391 3500 
L 4966 3500 
L 4050 0 
L 3372 0 
L 2619 2869 
L 1863 0 
L 1184 0 
L 269 3500 
z
" id="DejaVuSans-77" transform="scale(0.015625)"/>
       <path id="DejaVuSans-20" transform="scale(0.015625)"/>
       <path d="M 4122 4306 
L 4122 3641 
Q 3803 3938 3442 4084 
Q 3081 4231 2675 4231 
Q 1875 4231 1450 3742 
Q 1025 3253 1025 2328 
Q 1025 1406 1450 917 
Q 1875 428 2675 428 
Q 3081 428 3442 575 
Q 3803 722 4122 1019 
L 4122 359 
Q 3791 134 3420 21 
Q 3050 -91 2638 -91 
Q 1578 -91 968 557 
Q 359 1206 359 2328 
Q 359 3453 968 4101 
Q 1578 4750 2638 4750 
Q 3056 4750 3426 4639 
Q 3797 4528 4122 4306 
z
" id="DejaVuSans-43" transform="scale(0.015625)"/>
       <path d="M 2194 1759 
Q 1497 1759 1228 1600 
Q 959 1441 959 1056 
Q 959 750 1161 570 
Q 1363 391 1709 391 
Q 2188 391 2477 730 
Q 2766 1069 2766 1631 
L 2766 1759 
L 2194 1759 
z
M 3341 1997 
L 3341 0 
L 2766 0 
L 2766 531 
Q 2569 213 2275 61 
Q 1981 -91 1556 -91 
Q 1019 -91 701 211 
Q 384 513 384 1019 
Q 384 1609 779 1909 
Q 1175 2209 1959 2209 
L 2766 2209 
L 2766 2266 
Q 2766 2663 2505 2880 
Q 2244 3097 1772 3097 
Q 1472 3097 1187 3025 
Q 903 2953 641 2809 
L 641 3341 
Q 956 3463 1253 3523 
Q 1550 3584 1831 3584 
Q 2591 3584 2966 3190 
Q 3341 2797 3341 1997 
z
" id="DejaVuSans-61" transform="scale(0.015625)"/>
       <path d="M 2834 3397 
L 2834 2853 
Q 2591 2978 2328 3040 
Q 2066 3103 1784 3103 
Q 1356 3103 1142 2972 
Q 928 2841 928 2578 
Q 928 2378 1081 2264 
Q 1234 2150 1697 2047 
L 1894 2003 
Q 2506 1872 2764 1633 
Q 3022 1394 3022 966 
Q 3022 478 2636 193 
Q 2250 -91 1575 -91 
Q 1294 -91 989 -36 
Q 684 19 347 128 
L 347 722 
Q 666 556 975 473 
Q 1284 391 1588 391 
Q 1994 391 2212 530 
Q 2431 669 2431 922 
Q 2431 1156 2273 1281 
Q 2116 1406 1581 1522 
L 1381 1569 
Q 847 1681 609 1914 
Q 372 2147 372 2553 
Q 372 3047 722 3315 
Q 1072 3584 1716 3584 
Q 2034 3584 2315 3537 
Q 2597 3491 2834 3397 
z
" id="DejaVuSans-73" transform="scale(0.015625)"/>
      </defs>
      <use xlink:href="#DejaVuSans-4e"/>
      <use x="74.804688" xlink:href="#DejaVuSans-65"/>
      <use x="136.328125" xlink:href="#DejaVuSans-77"/>
      <use x="218.115234" xlink:href="#DejaVuSans-20"/>
      <use x="249.902344" xlink:href="#DejaVuSans-43"/>
      <use x="319.726562" xlink:href="#DejaVuSans-61"/>
      <use x="381.005859" xlink:href="#DejaVuSans-73"/>
      <use x="433.105469" xlink:href="#DejaVuSans-65"/>
      <use x="494.628906" xlink:href="#DejaVuSans-73"/>
     </g>
    </g>
   </g>
   <g id="line2d_25">
    <path clip-path="url(#pdf8003ef47)" d="M 135.338234 518.150682 
L 137.67263 518.090626 
L 142.341421 517.159748 
L 144.675817 517.790343 
L 147.010213 517.640201 
L 149.344609 515.838501 
L 151.679004 516.168813 
L 154.0134 513.736519 
L 156.347796 514.817538 
L 158.682192 514.186944 
L 161.016587 511.124054 
L 163.350983 510.763714 
L 168.019775 507.190344 
L 170.354171 503.436803 
L 172.688566 500.343886 
L 175.022962 502.265698 
L 177.357358 503.106492 
L 179.691754 495.118957 
L 182.026149 493.887796 
L 184.360545 488.873065 
L 186.694941 484.278732 
L 189.029337 484.6691 
L 191.363732 486.320658 
L 193.698128 492.926889 
L 196.032524 494.097994 
L 198.36692 488.873065 
L 200.701315 486.951253 
L 203.035711 488.662867 
L 205.370107 492.326323 
L 207.704503 482.717259 
L 210.038899 490.884963 
L 212.373294 496.13992 
L 214.70769 490.374482 
L 217.042086 483.04757 
L 219.376482 479.384115 
L 221.710877 479.954653 
L 224.045273 484.218675 
L 226.379669 490.524623 
L 228.714065 493.407342 
L 231.04846 497.431138 
L 233.382856 487.611876 
L 235.717252 482.386947 
L 238.051648 485.239638 
L 240.386043 487.461734 
L 242.720439 496.950685 
L 247.389231 498.211875 
L 249.723627 492.836804 
L 252.058022 495.269099 
L 254.392418 499.803376 
L 256.726814 499.803376 
L 259.06121 507.460599 
L 261.395605 514.337085 
L 263.730001 507.880995 
L 266.064397 504.03737 
L 268.398793 505.208474 
L 270.733188 506.109324 
L 273.067584 509.41244 
L 275.40198 513.496292 
L 277.736376 509.95295 
L 280.070771 512.505357 
L 282.405167 505.809041 
L 284.739563 509.892893 
L 287.073959 510.793743 
L 289.408355 512.114989 
L 291.74275 514.637368 
L 298.745938 511.364281 
L 301.080333 513.466264 
L 303.414729 513.796575 
L 305.749125 515.718388 
L 308.083521 515.087793 
L 310.417916 516.22887 
L 312.752312 513.52632 
L 315.086708 511.874763 
L 317.421104 513.826604 
L 319.755499 514.186944 
L 322.089895 514.307057 
L 324.424291 513.196009 
L 326.758687 515.478162 
L 329.093083 513.766547 
L 333.761874 514.186944 
L 336.09627 515.538218 
L 338.430666 513.916689 
L 340.765061 516.379011 
L 343.099457 516.40904 
L 345.433853 516.889493 
L 347.768249 513.196009 
L 350.102644 513.165981 
L 352.43704 513.976745 
L 354.771436 512.295159 
L 357.105832 514.517255 
L 359.440227 514.547283 
L 361.774623 513.946717 
L 364.109019 514.547283 
L 366.443415 513.165981 
L 368.777811 514.096859 
L 371.112206 515.177878 
L 373.446602 514.517255 
L 375.780998 515.297992 
L 378.115394 515.958615 
L 380.449789 516.018671 
L 382.784185 516.258898 
L 385.118581 517.189776 
L 387.452977 516.739351 
L 389.787372 517.520088 
L 392.121768 517.550116 
L 394.456164 517.009606 
L 396.79056 516.168813 
L 401.459351 517.399974 
L 406.128143 517.189776 
L 408.462539 517.970513 
L 413.13133 517.159748 
L 415.465726 517.219804 
L 417.800122 517.640201 
L 420.134517 517.279861 
L 422.468913 518.390909 
L 424.803309 518.360881 
L 427.137705 517.910456 
L 429.4721 517.910456 
L 431.806496 518.210739 
L 434.140892 517.039634 
L 436.475288 516.439068 
L 438.809683 517.339918 
L 441.144079 517.880428 
L 443.478475 516.288926 
L 445.812871 516.499125 
L 448.147267 516.379011 
L 450.481662 515.658331 
L 452.816058 515.14785 
L 455.150454 513.916689 
L 457.48485 514.577312 
L 459.819245 514.42717 
L 462.153641 514.577312 
L 464.488037 513.736519 
L 466.822433 515.358048 
L 469.156828 513.045867 
L 471.491224 513.316122 
L 473.82562 512.775612 
L 476.160016 512.054932 
L 478.494411 509.202242 
L 480.828807 509.322355 
L 483.163203 506.529721 
L 485.497599 508.481562 
L 487.831995 508.301392 
L 490.16639 504.908191 
L 492.500786 506.679862 
L 494.835182 501.424905 
L 497.169578 503.887228 
L 499.503973 504.878163 
L 501.838369 502.145585 
L 504.172765 500.554084 
L 506.507161 496.079863 
L 508.841556 499.833404 
L 511.175952 502.145585 
L 513.510348 500.373914 
L 515.844744 499.803376 
L 518.17914 504.247568 
L 520.513535 504.998276 
L 522.847931 504.788078 
L 525.182327 502.896293 
L 527.516723 503.586945 
L 529.851118 503.406775 
L 532.185514 504.21754 
L 534.51991 505.748984 
L 536.854306 502.23567 
L 539.188701 507.010174 
L 541.523097 502.325755 
L 543.857493 504.157483 
L 548.526284 504.427738 
L 550.86068 504.21754 
L 553.195076 503.647001 
L 555.529472 505.598843 
L 557.863868 497.431138 
L 560.198263 501.424905 
L 562.532659 497.130855 
L 564.867055 499.833404 
L 567.201451 491.695728 
L 569.535846 495.539354 
L 571.870242 490.524623 
L 574.204638 485.239638 
L 576.539034 494.758617 
L 578.873429 481.335956 
L 581.207825 482.50706 
L 583.542221 486.831139 
L 585.876617 480.435106 
L 588.211012 478.062868 
L 590.545408 473.168251 
L 595.2142 460.196015 
L 597.548596 462.808479 
L 599.882991 464.099697 
L 602.217387 452.899132 
L 604.551783 452.058339 
L 606.886179 448.695166 
L 609.220574 443.079869 
L 611.55497 436.08327 
L 613.889366 438.005082 
L 616.223762 429.537095 
L 618.558157 431.969389 
L 620.892553 429.056642 
L 623.226949 420.558625 
L 625.561345 421.819815 
L 627.89574 404.613585 
L 630.230136 400.349563 
L 632.564532 399.268543 
L 634.898928 381.972228 
L 637.233324 383.503672 
L 639.567719 369.660614 
L 641.902115 344.647019 
L 644.236511 340.172799 
L 646.570907 324.317843 
L 648.905302 328.101412 
L 651.239698 313.928043 
L 653.574094 297.922945 
L 655.90849 300.655523 
L 658.242885 285.521247 
L 660.577281 279.72578 
L 662.911677 275.822098 
L 665.246073 273.780172 
L 667.580468 279.485554 
L 669.914864 274.290653 
L 672.24926 256.934281 
L 674.583656 241.079326 
L 676.918052 219.30879 
L 679.252447 259.696887 
L 681.586843 213.122955 
L 683.921239 208.888961 
L 686.255635 210.420405 
L 688.59003 276.182438 
L 690.924426 211.261199 
L 693.258822 185.586981 
L 695.593218 225.074228 
L 697.927613 258.735981 
L 700.262009 270.657226 
L 702.596405 286.962607 
L 704.930801 290.265722 
L 707.265196 310.324644 
L 709.599592 302.006797 
L 711.933988 319.152971 
L 716.60278 378.939367 
L 718.937175 379.329735 
L 721.271571 357.108774 
L 723.605967 350.292344 
L 725.940363 336.5694 
L 728.274758 341.884413 
L 730.609154 356.928604 
L 732.94355 374.435118 
L 735.277946 390.290074 
L 737.612341 381.071378 
L 739.946737 349.962033 
L 742.281133 341.313875 
L 744.615529 337.199995 
L 746.949924 357.679312 
L 749.28432 364.225487 
L 751.618716 401.580724 
L 753.953112 372.06288 
L 756.287508 385.245315 
L 758.621903 347.019257 
L 760.956299 385.575627 
L 763.290695 351.763732 
L 765.625091 382.302539 
L 767.959486 398.007353 
L 770.293882 371.70254 
L 772.628278 351.133138 
L 774.962674 343.085546 
L 777.297069 323.65722 
L 779.631465 315.909912 
L 781.965861 307.261754 
L 784.300257 334.917842 
L 786.634652 323.447022 
L 788.969048 257.624933 
L 791.303444 254.08159 
L 793.63784 246.814736 
L 795.972236 222.671962 
L 798.306631 265.522382 
L 800.641027 320.294048 
L 802.975423 184.085564 
L 805.309819 135.739961 
L 807.644214 161.20398 
L 809.97861 152.615879 
L 812.313006 128.142794 
L 814.647402 184.115593 
L 816.981797 224.894058 
L 819.316193 207.537686 
L 821.650589 174.176217 
L 823.984985 174.536557 
L 826.31938 223.752982 
L 828.653776 246.814736 
L 830.988172 296.811897 
L 833.322568 294.199433 
L 835.656964 237.265728 
L 837.991359 228.767712 
L 840.325755 273.750143 
L 842.660151 261.198303 
L 844.994547 297.322379 
L 847.328942 322.39603 
L 849.663338 329.152403 
L 851.997734 306.300848 
L 854.33213 230.389242 
L 856.666525 275.521815 
L 859.000921 299.63456 
L 861.335317 320.924642 
L 863.669713 356.838519 
L 866.004108 373.173928 
L 868.338504 336.719541 
L 870.6729 325.308778 
L 873.007296 339.031722 
L 875.341692 361.522938 
L 877.676087 351.373364 
L 880.010483 376.717271 
L 882.344879 391.190923 
L 884.679275 353.41529 
L 887.01367 346.088379 
L 889.348066 346.989229 
L 891.682462 356.898576 
L 894.016858 372.60339 
L 896.351253 398.848146 
L 898.685649 401.850979 
L 901.020045 377.558064 
L 903.354441 379.569962 
L 905.688837 388.848714 
L 908.023232 394.163728 
L 910.357628 408.367125 
L 912.692024 423.741628 
L 915.02642 412.541063 
L 917.360815 398.96826 
L 919.695211 393.563161 
L 922.029607 389.719535 
L 924.364003 397.106503 
L 926.698398 401.340497 
L 929.032794 452.779018 
L 931.36719 467.10253 
L 933.701586 423.89177 
L 936.035981 387.527468 
L 938.370377 389.118969 
L 940.704773 393.533133 
L 943.039169 415.964292 
L 945.373565 435.092335 
L 947.70796 438.365422 
L 950.042356 418.546728 
L 952.376752 383.803955 
L 954.711148 377.558064 
L 957.045543 382.392624 
L 959.379939 379.119537 
L 961.714335 394.494039 
L 964.048731 405.454378 
L 966.383126 388.488374 
L 968.717522 368.999991 
L 971.051918 365.937102 
L 973.386314 371.222087 
L 975.720709 379.269678 
L 978.055105 406.505369 
L 980.389501 399.929166 
L 982.723897 369.420388 
L 985.058293 395.935399 
L 987.392688 379.269678 
L 989.727084 359.240785 
L 992.06148 383.563729 
L 994.395876 404.34333 
L 996.730271 390.560329 
L 999.064667 361.162598 
L 1001.399063 359.661182 
L 1003.733459 338.521241 
L 1006.067854 327.410761 
L 1008.40225 340.082714 
L 1010.736646 355.247018 
L 1013.071042 372.273079 
L 1015.405437 341.58413 
L 1017.739833 335.548437 
L 1020.074229 298.01303 
L 1022.408625 291.466855 
L 1024.743021 310.324644 
L 1029.411812 352.514441 
L 1034.080604 60.609091 
L 1036.414999 292.397733 
L 1038.749395 255.282723 
L 1041.083791 296.361472 
L 1043.418187 317.74164 
L 1045.752582 344.466849 
L 1048.086978 290.265722 
L 1050.421374 284.440227 
L 1052.75577 301.676486 
L 1055.090165 290.415864 
L 1057.424561 314.618694 
L 1059.758957 359.721239 
L 1062.093353 353.084979 
L 1064.427749 328.912177 
L 1066.762144 285.761474 
L 1069.09654 290.205666 
L 1071.430936 288.974504 
L 1073.765332 272.699152 
L 1076.099727 319.032858 
L 1078.434123 318.732575 
L 1080.768519 357.739369 
L 1083.102915 257.204536 
L 1083.102915 257.204536 
" style="fill:none;stroke:#000000;stroke-dasharray:1.5,2.475;stroke-dashoffset:0;stroke-opacity:0.5;stroke-width:1.5;"/>
   </g>
   <g id="line2d_26">
    <path clip-path="url(#pdf8003ef47)" d="M 135.338234 518.390909 
L 147.010213 516.799408 
L 151.679004 515.628303 
L 156.347796 513.976745 
L 158.682192 512.985811 
L 161.016587 511.754649 
L 163.350983 510.253233 
L 168.019775 506.319522 
L 170.354171 504.637936 
L 175.022962 501.034537 
L 177.357358 498.872498 
L 179.691754 496.13992 
L 184.360545 490.04417 
L 186.694941 488.122357 
L 189.029337 487.852102 
L 191.363732 488.362584 
L 193.698128 489.263434 
L 196.032524 489.894028 
L 198.36692 490.074198 
L 203.035711 488.813009 
L 205.370107 488.933122 
L 207.704503 489.473632 
L 210.038899 489.743887 
L 212.373294 489.113292 
L 217.042086 485.690063 
L 219.376482 484.218675 
L 221.710877 484.12859 
L 224.045273 486.020374 
L 226.379669 488.392612 
L 228.714065 489.954085 
L 231.04846 490.134255 
L 233.382856 489.14332 
L 235.717252 488.362584 
L 238.051648 488.692895 
L 240.386043 490.284397 
L 242.720439 492.566549 
L 245.054835 494.608476 
L 247.389231 495.869665 
L 249.723627 496.650402 
L 252.058022 497.671365 
L 254.392418 499.923489 
L 259.06121 505.268531 
L 261.395605 506.890061 
L 263.730001 507.280429 
L 266.064397 507.220372 
L 268.398793 507.280429 
L 270.733188 507.670797 
L 273.067584 508.931987 
L 275.40198 509.832836 
L 277.736376 510.223205 
L 280.070771 510.193176 
L 282.405167 510.043035 
L 284.739563 510.253233 
L 291.74275 512.625471 
L 294.077146 512.925754 
L 296.411542 512.985811 
L 301.080333 513.436235 
L 305.749125 514.547283 
L 308.083521 514.727453 
L 310.417916 514.517255 
L 315.086708 513.826604 
L 317.421104 513.676462 
L 322.089895 513.946717 
L 324.424291 514.156915 
L 331.427478 514.337085 
L 336.09627 514.817538 
L 338.430666 515.267963 
L 340.765061 515.50819 
L 343.099457 515.448133 
L 345.433853 515.117822 
L 350.102644 514.036802 
L 352.43704 513.70649 
L 354.771436 513.616405 
L 359.440227 514.006774 
L 366.443415 514.156915 
L 368.777811 514.307057 
L 373.446602 514.937652 
L 382.784185 516.439068 
L 385.118581 516.76938 
L 387.452977 516.979578 
L 392.121768 517.069663 
L 396.79056 516.949549 
L 399.124955 516.949549 
L 410.796934 517.460031 
L 415.465726 517.490059 
L 420.134517 517.730286 
L 424.803309 518.030569 
L 427.137705 518.000541 
L 431.806496 517.610173 
L 445.812871 516.469096 
L 452.816058 515.14785 
L 457.48485 514.517255 
L 464.488037 514.247 
L 469.156828 513.616405 
L 471.491224 513.015839 
L 473.82562 512.235102 
L 478.494411 510.13312 
L 483.163203 508.301392 
L 485.497599 507.640769 
L 497.169578 503.586945 
L 499.503973 502.656067 
L 501.838369 501.575047 
L 506.507161 500.163716 
L 508.841556 499.893461 
L 511.175952 500.313857 
L 513.510348 501.064565 
L 515.844744 502.085528 
L 518.17914 502.866265 
L 520.513535 503.436803 
L 522.847931 503.797143 
L 525.182327 503.917256 
L 529.851118 503.8572 
L 532.185514 504.127455 
L 536.854306 504.307625 
L 541.523097 504.187511 
L 543.857493 504.097426 
L 548.526284 504.157483 
L 550.86068 503.8572 
L 553.195076 503.31669 
L 557.863868 501.184679 
L 560.198263 499.653234 
L 562.532659 498.271931 
L 564.867055 496.590345 
L 567.201451 494.758617 
L 569.535846 493.107059 
L 574.204638 489.173349 
L 576.539034 487.731989 
L 578.873429 485.93029 
L 581.207825 484.30876 
L 583.542221 482.50706 
L 585.876617 479.624341 
L 588.211012 476.321225 
L 592.879804 468.483833 
L 595.2142 464.910462 
L 602.217387 455.451539 
L 604.551783 451.607914 
L 606.886179 447.494033 
L 609.220574 443.079869 
L 611.55497 439.416414 
L 616.223762 432.720097 
L 618.558157 429.80735 
L 620.892553 426.023781 
L 623.226949 421.039079 
L 625.561345 415.573923 
L 630.230136 401.610752 
L 632.564532 394.313869 
L 634.898928 385.3354 
L 637.233324 375.696308 
L 644.236511 341.494045 
L 646.570907 330.683848 
L 648.905302 321.525209 
L 655.90849 296.421529 
L 658.242885 288.824363 
L 660.577281 283.299151 
L 665.246073 275.732013 
L 667.580468 271.287821 
L 672.24926 256.633998 
L 676.918052 238.406805 
L 679.252447 230.359213 
L 681.586843 228.047032 
L 683.921239 226.365446 
L 686.255635 224.86403 
L 688.59003 222.551849 
L 690.924426 223.60284 
L 693.258822 227.176211 
L 695.593218 236.064595 
L 697.927613 247.595472 
L 700.262009 264.891787 
L 702.596405 280.566573 
L 704.930801 292.247592 
L 707.265196 302.967704 
L 709.599592 315.879884 
L 714.268384 344.767133 
L 716.60278 355.277046 
L 718.937175 360.05155 
L 721.271571 358.610191 
L 723.605967 354.165998 
L 725.940363 351.223223 
L 728.274758 353.565432 
L 730.609154 360.321805 
L 732.94355 366.357498 
L 735.277946 369.030019 
L 737.612341 366.057215 
L 739.946737 360.111607 
L 742.281133 354.586395 
L 744.615529 354.706508 
L 746.949924 359.090644 
L 749.28432 367.438518 
L 751.618716 372.573362 
L 753.953112 375.846449 
L 758.621903 371.88271 
L 760.956299 371.222087 
L 763.290695 373.233985 
L 765.625091 373.86458 
L 767.959486 373.053815 
L 770.293882 365.666847 
L 772.628278 355.787528 
L 774.962674 342.454952 
L 777.297069 331.494613 
L 779.631465 324.798296 
L 781.965861 317.501413 
L 784.300257 308.372802 
L 786.634652 295.971104 
L 788.969048 279.245327 
L 791.303444 264.831731 
L 793.63784 257.985273 
L 795.972236 252.099721 
L 798.306631 244.77281 
L 800.641027 230.569412 
L 802.975423 209.009074 
L 805.309819 184.806244 
L 807.644214 166.158654 
L 809.97861 158.771686 
L 812.313006 166.609079 
L 814.647402 177.839673 
L 816.981797 185.887264 
L 821.650589 199.550152 
L 823.984985 209.759782 
L 826.31938 225.644766 
L 828.653776 242.911053 
L 830.988172 256.033432 
L 833.322568 262.669691 
L 835.656964 261.43853 
L 837.991359 261.378473 
L 840.325755 265.942779 
L 842.660151 277.353542 
L 844.994547 292.127478 
L 847.328942 298.91388 
L 849.663338 297.862889 
L 854.33213 288.313881 
L 856.666525 290.956374 
L 859.000921 303.147874 
L 863.669713 335.037955 
L 866.004108 342.424923 
L 868.338504 345.067416 
L 870.6729 345.157501 
L 873.007296 347.049285 
L 875.341692 352.87478 
L 877.676087 360.05155 
L 880.010483 364.796026 
L 882.344879 364.916139 
L 884.679275 361.522938 
L 887.01367 359.000559 
L 889.348066 359.661182 
L 891.682462 365.006224 
L 894.016858 373.564296 
L 896.351253 381.131434 
L 898.685649 385.815853 
L 901.020045 387.677609 
L 903.354441 389.148997 
L 905.688837 392.542198 
L 908.023232 397.947297 
L 910.357628 403.892905 
L 912.692024 406.985822 
L 915.02642 406.175058 
L 917.360815 403.08214 
L 919.695211 399.478741 
L 922.029607 400.619818 
L 924.364003 408.367125 
L 926.698398 418.486671 
L 929.032794 425.603384 
L 931.36719 426.684404 
L 933.701586 420.708767 
L 936.035981 412.571091 
L 938.370377 406.445313 
L 940.704773 406.895737 
L 943.039169 412.931431 
L 945.373565 417.61585 
L 947.70796 416.474773 
L 950.042356 409.778457 
L 952.376752 399.478741 
L 954.711148 390.71047 
L 957.045543 386.77676 
L 959.379939 386.896873 
L 961.714335 388.308204 
L 964.048731 387.497439 
L 966.383126 383.984125 
L 968.717522 379.720103 
L 971.051918 377.858347 
L 973.386314 379.299707 
L 975.720709 382.482709 
L 978.055105 386.986958 
L 980.389501 388.668544 
L 982.723897 386.41642 
L 985.058293 383.293474 
L 987.392688 381.101406 
L 989.727084 381.341633 
L 992.06148 382.542766 
L 994.395876 381.281576 
L 996.730271 376.777327 
L 999.064667 368.369396 
L 1001.399063 357.499142 
L 1003.733459 348.430588 
L 1006.067854 345.337671 
L 1008.40225 346.058351 
L 1010.736646 347.619823 
L 1013.071042 345.788096 
L 1015.405437 338.731439 
L 1017.739833 328.191497 
L 1020.074229 318.792631 
L 1022.408625 315.129176 
L 1024.743021 298.91388 
L 1027.077416 285.611332 
L 1029.411812 268.315017 
L 1034.080604 255.552978 
L 1036.414999 254.021534 
L 1038.749395 265.942779 
L 1041.083791 281.437395 
L 1043.418187 302.847591 
L 1045.752582 305.610196 
L 1048.086978 305.039658 
L 1050.421374 301.946741 
L 1052.75577 303.508214 
L 1055.090165 309.874219 
L 1057.424561 320.834557 
L 1059.758957 327.470817 
L 1062.093353 327.080449 
L 1064.427749 320.444189 
L 1066.762144 308.342774 
L 1069.09654 298.343342 
L 1071.430936 294.499716 
L 1076.099727 304.919545 
L 1078.434123 309.393765 
L 1080.768519 310.594898 
L 1083.102915 309.123511 
L 1083.102915 309.123511 
" style="fill:none;stroke:#000000;stroke-linecap:square;stroke-width:1.5;"/>
   </g>
   <g id="patch_3">
    <path d="M 87.95 541.28 
L 87.95 37.72 
" style="fill:none;stroke:#555555;stroke-linecap:square;stroke-linejoin:miter;"/>
   </g>
   <g id="patch_4">
    <path d="M 87.95 541.28 
L 1130.491149 541.28 
" style="fill:none;stroke:#555555;stroke-linecap:square;stroke-linejoin:miter;"/>
   </g>
   <g id="text_26">
    <!-- Last updated on 15 April 2021 -->
    <g style="fill:#555555;" transform="translate(472.607606 27.72)scale(0.18 -0.18)">
     <defs>
      <path d="M 628 4666 
L 1259 4666 
L 1259 531 
L 3531 531 
L 3531 0 
L 628 0 
L 628 4666 
z
" id="DejaVuSans-4c" transform="scale(0.015625)"/>
      <path d="M 1172 4494 
L 1172 3500 
L 2356 3500 
L 2356 3053 
L 1172 3053 
L 1172 1153 
Q 1172 725 1289 603 
Q 1406 481 1766 481 
L 2356 481 
L 2356 0 
L 1766 0 
Q 1100 0 847 248 
Q 594 497 594 1153 
L 594 3053 
L 172 3053 
L 172 3500 
L 594 3500 
L 594 4494 
L 1172 4494 
z
" id="DejaVuSans-74" transform="scale(0.015625)"/>
      <path d="M 544 1381 
L 544 3500 
L 1119 3500 
L 1119 1403 
Q 1119 906 1312 657 
Q 1506 409 1894 409 
Q 2359 409 2629 706 
Q 2900 1003 2900 1516 
L 2900 3500 
L 3475 3500 
L 3475 0 
L 2900 0 
L 2900 538 
Q 2691 219 2414 64 
Q 2138 -91 1772 -91 
Q 1169 -91 856 284 
Q 544 659 544 1381 
z
M 1991 3584 
L 1991 3584 
z
" id="DejaVuSans-75" transform="scale(0.015625)"/>
      <path d="M 1159 525 
L 1159 -1331 
L 581 -1331 
L 581 3500 
L 1159 3500 
L 1159 2969 
Q 1341 3281 1617 3432 
Q 1894 3584 2278 3584 
Q 2916 3584 3314 3078 
Q 3713 2572 3713 1747 
Q 3713 922 3314 415 
Q 2916 -91 2278 -91 
Q 1894 -91 1617 61 
Q 1341 213 1159 525 
z
M 3116 1747 
Q 3116 2381 2855 2742 
Q 2594 3103 2138 3103 
Q 1681 3103 1420 2742 
Q 1159 2381 1159 1747 
Q 1159 1113 1420 752 
Q 1681 391 2138 391 
Q 2594 391 2855 752 
Q 3116 1113 3116 1747 
z
" id="DejaVuSans-70" transform="scale(0.015625)"/>
      <path d="M 2906 2969 
L 2906 4863 
L 3481 4863 
L 3481 0 
L 2906 0 
L 2906 525 
Q 2725 213 2448 61 
Q 2172 -91 1784 -91 
Q 1150 -91 751 415 
Q 353 922 353 1747 
Q 353 2572 751 3078 
Q 1150 3584 1784 3584 
Q 2172 3584 2448 3432 
Q 2725 3281 2906 2969 
z
M 947 1747 
Q 947 1113 1208 752 
Q 1469 391 1925 391 
Q 2381 391 2643 752 
Q 2906 1113 2906 1747 
Q 2906 2381 2643 2742 
Q 2381 3103 1925 3103 
Q 1469 3103 1208 2742 
Q 947 2381 947 1747 
z
" id="DejaVuSans-64" transform="scale(0.015625)"/>
      <path d="M 1959 3097 
Q 1497 3097 1228 2736 
Q 959 2375 959 1747 
Q 959 1119 1226 758 
Q 1494 397 1959 397 
Q 2419 397 2687 759 
Q 2956 1122 2956 1747 
Q 2956 2369 2687 2733 
Q 2419 3097 1959 3097 
z
M 1959 3584 
Q 2709 3584 3137 3096 
Q 3566 2609 3566 1747 
Q 3566 888 3137 398 
Q 2709 -91 1959 -91 
Q 1206 -91 779 398 
Q 353 888 353 1747 
Q 353 2609 779 3096 
Q 1206 3584 1959 3584 
z
" id="DejaVuSans-6f" transform="scale(0.015625)"/>
      <path d="M 3513 2113 
L 3513 0 
L 2938 0 
L 2938 2094 
Q 2938 2591 2744 2837 
Q 2550 3084 2163 3084 
Q 1697 3084 1428 2787 
Q 1159 2491 1159 1978 
L 1159 0 
L 581 0 
L 581 3500 
L 1159 3500 
L 1159 2956 
Q 1366 3272 1645 3428 
Q 1925 3584 2291 3584 
Q 2894 3584 3203 3211 
Q 3513 2838 3513 2113 
z
" id="DejaVuSans-6e" transform="scale(0.015625)"/>
      <path d="M 794 531 
L 1825 531 
L 1825 4091 
L 703 3866 
L 703 4441 
L 1819 4666 
L 2450 4666 
L 2450 531 
L 3481 531 
L 3481 0 
L 794 0 
L 794 531 
z
" id="DejaVuSans-31" transform="scale(0.015625)"/>
      <path d="M 691 4666 
L 3169 4666 
L 3169 4134 
L 1269 4134 
L 1269 2991 
Q 1406 3038 1543 3061 
Q 1681 3084 1819 3084 
Q 2600 3084 3056 2656 
Q 3513 2228 3513 1497 
Q 3513 744 3044 326 
Q 2575 -91 1722 -91 
Q 1428 -91 1123 -41 
Q 819 9 494 109 
L 494 744 
Q 775 591 1075 516 
Q 1375 441 1709 441 
Q 2250 441 2565 725 
Q 2881 1009 2881 1497 
Q 2881 1984 2565 2268 
Q 2250 2553 1709 2553 
Q 1456 2553 1204 2497 
Q 953 2441 691 2322 
L 691 4666 
z
" id="DejaVuSans-35" transform="scale(0.015625)"/>
      <path d="M 2188 4044 
L 1331 1722 
L 3047 1722 
L 2188 4044 
z
M 1831 4666 
L 2547 4666 
L 4325 0 
L 3669 0 
L 3244 1197 
L 1141 1197 
L 716 0 
L 50 0 
L 1831 4666 
z
" id="DejaVuSans-41" transform="scale(0.015625)"/>
      <path d="M 2631 2963 
Q 2534 3019 2420 3045 
Q 2306 3072 2169 3072 
Q 1681 3072 1420 2755 
Q 1159 2438 1159 1844 
L 1159 0 
L 581 0 
L 581 3500 
L 1159 3500 
L 1159 2956 
Q 1341 3275 1631 3429 
Q 1922 3584 2338 3584 
Q 2397 3584 2469 3576 
Q 2541 3569 2628 3553 
L 2631 2963 
z
" id="DejaVuSans-72" transform="scale(0.015625)"/>
      <path d="M 603 3500 
L 1178 3500 
L 1178 0 
L 603 0 
L 603 3500 
z
M 603 4863 
L 1178 4863 
L 1178 4134 
L 603 4134 
L 603 4863 
z
" id="DejaVuSans-69" transform="scale(0.015625)"/>
      <path d="M 603 4863 
L 1178 4863 
L 1178 0 
L 603 0 
L 603 4863 
z
" id="DejaVuSans-6c" transform="scale(0.015625)"/>
      <path d="M 1228 531 
L 3431 531 
L 3431 0 
L 469 0 
L 469 531 
Q 828 903 1448 1529 
Q 2069 2156 2228 2338 
Q 2531 2678 2651 2914 
Q 2772 3150 2772 3378 
Q 2772 3750 2511 3984 
Q 2250 4219 1831 4219 
Q 1534 4219 1204 4116 
Q 875 4013 500 3803 
L 500 4441 
Q 881 4594 1212 4672 
Q 1544 4750 1819 4750 
Q 2544 4750 2975 4387 
Q 3406 4025 3406 3419 
Q 3406 3131 3298 2873 
Q 3191 2616 2906 2266 
Q 2828 2175 2409 1742 
Q 1991 1309 1228 531 
z
" id="DejaVuSans-32" transform="scale(0.015625)"/>
      <path d="M 2034 4250 
Q 1547 4250 1301 3770 
Q 1056 3291 1056 2328 
Q 1056 1369 1301 889 
Q 1547 409 2034 409 
Q 2525 409 2770 889 
Q 3016 1369 3016 2328 
Q 3016 3291 2770 3770 
Q 2525 4250 2034 4250 
z
M 2034 4750 
Q 2819 4750 3233 4129 
Q 3647 3509 3647 2328 
Q 3647 1150 3233 529 
Q 2819 -91 2034 -91 
Q 1250 -91 836 529 
Q 422 1150 422 2328 
Q 422 3509 836 4129 
Q 1250 4750 2034 4750 
z
" id="DejaVuSans-30" transform="scale(0.015625)"/>
     </defs>
     <use xlink:href="#DejaVuSans-4c"/>
     <use x="55.712891" xlink:href="#DejaVuSans-61"/>
     <use x="116.992188" xlink:href="#DejaVuSans-73"/>
     <use x="169.091797" xlink:href="#DejaVuSans-74"/>
     <use x="208.300781" xlink:href="#DejaVuSans-20"/>
     <use x="240.087891" xlink:href="#DejaVuSans-75"/>
     <use x="303.466797" xlink:href="#DejaVuSans-70"/>
     <use x="366.943359" xlink:href="#DejaVuSans-64"/>
     <use x="430.419922" xlink:href="#DejaVuSans-61"/>
     <use x="491.699219" xlink:href="#DejaVuSans-74"/>
     <use x="530.908203" xlink:href="#DejaVuSans-65"/>
     <use x="592.431641" xlink:href="#DejaVuSans-64"/>
     <use x="655.908203" xlink:href="#DejaVuSans-20"/>
     <use x="687.695312" xlink:href="#DejaVuSans-6f"/>
     <use x="748.876953" xlink:href="#DejaVuSans-6e"/>
     <use x="812.255859" xlink:href="#DejaVuSans-20"/>
     <use x="844.042969" xlink:href="#DejaVuSans-31"/>
     <use x="907.666016" xlink:href="#DejaVuSans-35"/>
     <use x="971.289062" xlink:href="#DejaVuSans-20"/>
     <use x="1003.076172" xlink:href="#DejaVuSans-41"/>
     <use x="1071.484375" xlink:href="#DejaVuSans-70"/>
     <use x="1134.960938" xlink:href="#DejaVuSans-72"/>
     <use x="1176.074219" xlink:href="#DejaVuSans-69"/>
     <use x="1203.857422" xlink:href="#DejaVuSans-6c"/>
     <use x="1231.640625" xlink:href="#DejaVuSans-20"/>
     <use x="1263.427734" xlink:href="#DejaVuSans-32"/>
     <use x="1327.050781" xlink:href="#DejaVuSans-30"/>
     <use x="1390.673828" xlink:href="#DejaVuSans-32"/>
     <use x="1454.296875" xlink:href="#DejaVuSans-31"/>
    </g>
   </g>
   <g id="legend_1">
    <g id="line2d_27">
     <path d="M 99.65 54.747969 
L 125.65 54.747969 
" style="fill:none;stroke:#000000;stroke-dasharray:1.5,2.475;stroke-dashoffset:0;stroke-opacity:0.5;stroke-width:1.5;"/>
    </g>
    <g id="line2d_28"/>
    <g id="text_27">
     <!-- Actual -->
     <g style="fill:#555555;" transform="translate(136.05 59.297969)scale(0.13 -0.13)">
      <use xlink:href="#DejaVuSans-Bold-41"/>
      <use x="77.392578" xlink:href="#DejaVuSans-Bold-63"/>
      <use x="136.669922" xlink:href="#DejaVuSans-Bold-74"/>
      <use x="184.472656" xlink:href="#DejaVuSans-Bold-75"/>
      <use x="255.664062" xlink:href="#DejaVuSans-Bold-61"/>
      <use x="323.144531" xlink:href="#DejaVuSans-Bold-6c"/>
     </g>
    </g>
    <g id="line2d_29">
     <path d="M 99.65 73.829531 
L 125.65 73.829531 
" style="fill:none;stroke:#000000;stroke-linecap:square;stroke-width:1.5;"/>
    </g>
    <g id="line2d_30"/>
    <g id="text_28">
     <!-- Smoothed -->
     <g style="fill:#555555;" transform="translate(136.05 78.379531)scale(0.13 -0.13)">
      <defs>
       <path d="M 3781 2919 
Q 3994 3244 4286 3414 
Q 4578 3584 4928 3584 
Q 5531 3584 5847 3212 
Q 6163 2841 6163 2131 
L 6163 0 
L 5038 0 
L 5038 1825 
Q 5041 1866 5042 1909 
Q 5044 1953 5044 2034 
Q 5044 2406 4934 2573 
Q 4825 2741 4581 2741 
Q 4263 2741 4089 2478 
Q 3916 2216 3909 1719 
L 3909 0 
L 2784 0 
L 2784 1825 
Q 2784 2406 2684 2573 
Q 2584 2741 2328 2741 
Q 2006 2741 1831 2477 
Q 1656 2213 1656 1722 
L 1656 0 
L 531 0 
L 531 3500 
L 1656 3500 
L 1656 2988 
Q 1863 3284 2130 3434 
Q 2397 3584 2719 3584 
Q 3081 3584 3359 3409 
Q 3638 3234 3781 2919 
z
" id="DejaVuSans-Bold-6d" transform="scale(0.015625)"/>
       <path d="M 4056 2131 
L 4056 0 
L 2931 0 
L 2931 347 
L 2931 1625 
Q 2931 2084 2911 2256 
Q 2891 2428 2841 2509 
Q 2775 2619 2662 2680 
Q 2550 2741 2406 2741 
Q 2056 2741 1856 2470 
Q 1656 2200 1656 1722 
L 1656 0 
L 538 0 
L 538 4863 
L 1656 4863 
L 1656 2988 
Q 1909 3294 2193 3439 
Q 2478 3584 2822 3584 
Q 3428 3584 3742 3212 
Q 4056 2841 4056 2131 
z
" id="DejaVuSans-Bold-68" transform="scale(0.015625)"/>
       <path d="M 2919 2988 
L 2919 4863 
L 4044 4863 
L 4044 0 
L 2919 0 
L 2919 506 
Q 2688 197 2409 53 
Q 2131 -91 1766 -91 
Q 1119 -91 703 423 
Q 288 938 288 1747 
Q 288 2556 703 3070 
Q 1119 3584 1766 3584 
Q 2128 3584 2408 3439 
Q 2688 3294 2919 2988 
z
M 2181 722 
Q 2541 722 2730 984 
Q 2919 1247 2919 1747 
Q 2919 2247 2730 2509 
Q 2541 2772 2181 2772 
Q 1825 2772 1636 2509 
Q 1447 2247 1447 1747 
Q 1447 1247 1636 984 
Q 1825 722 2181 722 
z
" id="DejaVuSans-Bold-64" transform="scale(0.015625)"/>
      </defs>
      <use xlink:href="#DejaVuSans-Bold-53"/>
      <use x="72.021484" xlink:href="#DejaVuSans-Bold-6d"/>
      <use x="176.220703" xlink:href="#DejaVuSans-Bold-6f"/>
      <use x="244.921875" xlink:href="#DejaVuSans-Bold-6f"/>
      <use x="313.623047" xlink:href="#DejaVuSans-Bold-74"/>
      <use x="361.425781" xlink:href="#DejaVuSans-Bold-68"/>
      <use x="432.617188" xlink:href="#DejaVuSans-Bold-65"/>
      <use x="500.439453" xlink:href="#DejaVuSans-Bold-64"/>
     </g>
    </g>
   </g>
  </g>
 </g>
 <defs>
  <clipPath id="pdf8003ef47">
   <rect height="503.56" width="1042.541149" x="87.95" y="37.72"/>
  </clipPath>
 </defs>
</svg>
