<?xml version="1.0" encoding="utf-8" standalone="no"?>
<!DOCTYPE svg PUBLIC "-//W3C//DTD SVG 1.1//EN"
  "http://www.w3.org/Graphics/SVG/1.1/DTD/svg11.dtd">
<svg height="576pt" version="1.1" viewBox="0 0 1152 576" width="1152pt" xmlns="http://www.w3.org/2000/svg" xmlns:xlink="http://www.w3.org/1999/xlink">
 <metadata>
  <rdf:RDF xmlns:cc="http://creativecommons.org/ns#" xmlns:dc="http://purl.org/dc/elements/1.1/" xmlns:rdf="http://www.w3.org/1999/02/22-rdf-syntax-ns#">
   <cc:Work>
    <dc:type rdf:resource="http://purl.org/dc/dcmitype/StillImage"/>
    <dc:date>2021-06-10T17:39:33.878865</dc:date>
    <dc:format>image/svg+xml</dc:format>
    <dc:creator>
     <cc:Agent>
      <dc:title>Matplotlib v3.4.2, https://matplotlib.org/</dc:title>
     </cc:Agent>
    </dc:creator>
   </cc:Work>
  </rdf:RDF>
 </metadata>
 <defs>
  <style type="text/css">*{stroke-linecap:butt;stroke-linejoin:round;}</style>
 </defs>
 <g id="figure_1">
  <g id="patch_1">
   <path d="M 0 576 
L 1152 576 
L 1152 0 
L 0 0 
z
" style="fill:#ffffff;"/>
  </g>
  <g id="axes_1">
   <g id="patch_2">
    <path d="M 87.95 541.28 
L 1131.624229 541.28 
L 1131.624229 37.72 
L 87.95 37.72 
z
" style="fill:#ffffff;"/>
   </g>
   <g id="matplotlib.axis_1">
    <g id="xtick_1">
     <g id="line2d_1">
      <defs>
       <path d="M 0 0 
L 0 3.5 
" id="mae985ade36" style="stroke:#555555;stroke-width:0.8;"/>
      </defs>
      <g>
       <use style="fill:#555555;stroke:#555555;stroke-width:0.8;" x="125.099122" xlink:href="#mae985ade36" y="541.28"/>
      </g>
     </g>
     <g id="text_1">
      <!-- Mar -->
      <g style="fill:#555555;" transform="translate(109.957247 558.917812)scale(0.14 -0.14)">
       <defs>
        <path d="M 588 4666 
L 2119 4666 
L 3181 2169 
L 4250 4666 
L 5778 4666 
L 5778 0 
L 4641 0 
L 4641 3413 
L 3566 897 
L 2803 897 
L 1728 3413 
L 1728 0 
L 588 0 
L 588 4666 
z
" id="DejaVuSans-Bold-4d" transform="scale(0.015625)"/>
        <path d="M 2106 1575 
Q 1756 1575 1579 1456 
Q 1403 1338 1403 1106 
Q 1403 894 1545 773 
Q 1688 653 1941 653 
Q 2256 653 2472 879 
Q 2688 1106 2688 1447 
L 2688 1575 
L 2106 1575 
z
M 3816 1997 
L 3816 0 
L 2688 0 
L 2688 519 
Q 2463 200 2181 54 
Q 1900 -91 1497 -91 
Q 953 -91 614 226 
Q 275 544 275 1050 
Q 275 1666 698 1953 
Q 1122 2241 2028 2241 
L 2688 2241 
L 2688 2328 
Q 2688 2594 2478 2717 
Q 2269 2841 1825 2841 
Q 1466 2841 1156 2769 
Q 847 2697 581 2553 
L 581 3406 
Q 941 3494 1303 3539 
Q 1666 3584 2028 3584 
Q 2975 3584 3395 3211 
Q 3816 2838 3816 1997 
z
" id="DejaVuSans-Bold-61" transform="scale(0.015625)"/>
        <path d="M 3138 2547 
Q 2991 2616 2845 2648 
Q 2700 2681 2553 2681 
Q 2122 2681 1889 2404 
Q 1656 2128 1656 1613 
L 1656 0 
L 538 0 
L 538 3500 
L 1656 3500 
L 1656 2925 
Q 1872 3269 2151 3426 
Q 2431 3584 2822 3584 
Q 2878 3584 2943 3579 
Q 3009 3575 3134 3559 
L 3138 2547 
z
" id="DejaVuSans-Bold-72" transform="scale(0.015625)"/>
       </defs>
       <use xlink:href="#DejaVuSans-Bold-4d"/>
       <use x="99.511719" xlink:href="#DejaVuSans-Bold-61"/>
       <use x="166.992188" xlink:href="#DejaVuSans-Bold-72"/>
      </g>
     </g>
    </g>
    <g id="xtick_2">
     <g id="line2d_2">
      <g>
       <use style="fill:#555555;stroke:#555555;stroke-width:0.8;" x="188.900939" xlink:href="#mae985ade36" y="541.28"/>
      </g>
     </g>
     <g id="text_2">
      <!-- Apr -->
      <g style="fill:#555555;" transform="translate(175.021251 558.917812)scale(0.14 -0.14)">
       <defs>
        <path d="M 3419 850 
L 1538 850 
L 1241 0 
L 31 0 
L 1759 4666 
L 3194 4666 
L 4922 0 
L 3713 0 
L 3419 850 
z
M 1838 1716 
L 3116 1716 
L 2478 3572 
L 1838 1716 
z
" id="DejaVuSans-Bold-41" transform="scale(0.015625)"/>
        <path d="M 1656 506 
L 1656 -1331 
L 538 -1331 
L 538 3500 
L 1656 3500 
L 1656 2988 
Q 1888 3294 2169 3439 
Q 2450 3584 2816 3584 
Q 3463 3584 3878 3070 
Q 4294 2556 4294 1747 
Q 4294 938 3878 423 
Q 3463 -91 2816 -91 
Q 2450 -91 2169 54 
Q 1888 200 1656 506 
z
M 2400 2772 
Q 2041 2772 1848 2508 
Q 1656 2244 1656 1747 
Q 1656 1250 1848 986 
Q 2041 722 2400 722 
Q 2759 722 2948 984 
Q 3138 1247 3138 1747 
Q 3138 2247 2948 2509 
Q 2759 2772 2400 2772 
z
" id="DejaVuSans-Bold-70" transform="scale(0.015625)"/>
       </defs>
       <use xlink:href="#DejaVuSans-Bold-41"/>
       <use x="77.392578" xlink:href="#DejaVuSans-Bold-70"/>
       <use x="148.974609" xlink:href="#DejaVuSans-Bold-72"/>
      </g>
     </g>
    </g>
    <g id="xtick_3">
     <g id="line2d_3">
      <g>
       <use style="fill:#555555;stroke:#555555;stroke-width:0.8;" x="250.644632" xlink:href="#mae985ade36" y="541.28"/>
      </g>
     </g>
     <g id="text_3">
      <!-- May -->
      <g style="fill:#555555;" transform="translate(234.610257 558.808437)scale(0.14 -0.14)">
       <defs>
        <path d="M 78 3500 
L 1197 3500 
L 2138 1125 
L 2938 3500 
L 4056 3500 
L 2584 -331 
Q 2363 -916 2067 -1148 
Q 1772 -1381 1288 -1381 
L 641 -1381 
L 641 -647 
L 991 -647 
Q 1275 -647 1404 -556 
Q 1534 -466 1606 -231 
L 1638 -134 
L 78 3500 
z
" id="DejaVuSans-Bold-79" transform="scale(0.015625)"/>
       </defs>
       <use xlink:href="#DejaVuSans-Bold-4d"/>
       <use x="99.511719" xlink:href="#DejaVuSans-Bold-61"/>
       <use x="163.867188" xlink:href="#DejaVuSans-Bold-79"/>
      </g>
     </g>
    </g>
    <g id="xtick_4">
     <g id="line2d_4">
      <g>
       <use style="fill:#555555;stroke:#555555;stroke-width:0.8;" x="314.446448" xlink:href="#mae985ade36" y="541.28"/>
      </g>
     </g>
     <g id="text_4">
      <!-- Jun -->
      <g style="fill:#555555;" transform="translate(301.875979 558.917812)scale(0.14 -0.14)">
       <defs>
        <path d="M 588 4666 
L 1791 4666 
L 1791 453 
Q 1791 -419 1317 -850 
Q 844 -1281 -116 -1281 
L -359 -1281 
L -359 -372 
L -172 -372 
Q 203 -372 395 -162 
Q 588 47 588 453 
L 588 4666 
z
" id="DejaVuSans-Bold-4a" transform="scale(0.015625)"/>
        <path d="M 500 1363 
L 500 3500 
L 1625 3500 
L 1625 3150 
Q 1625 2866 1622 2436 
Q 1619 2006 1619 1863 
Q 1619 1441 1641 1255 
Q 1663 1069 1716 984 
Q 1784 875 1895 815 
Q 2006 756 2150 756 
Q 2500 756 2700 1025 
Q 2900 1294 2900 1772 
L 2900 3500 
L 4019 3500 
L 4019 0 
L 2900 0 
L 2900 506 
Q 2647 200 2364 54 
Q 2081 -91 1741 -91 
Q 1134 -91 817 281 
Q 500 653 500 1363 
z
" id="DejaVuSans-Bold-75" transform="scale(0.015625)"/>
        <path d="M 4056 2131 
L 4056 0 
L 2931 0 
L 2931 347 
L 2931 1631 
Q 2931 2084 2911 2256 
Q 2891 2428 2841 2509 
Q 2775 2619 2662 2680 
Q 2550 2741 2406 2741 
Q 2056 2741 1856 2470 
Q 1656 2200 1656 1722 
L 1656 0 
L 538 0 
L 538 3500 
L 1656 3500 
L 1656 2988 
Q 1909 3294 2193 3439 
Q 2478 3584 2822 3584 
Q 3428 3584 3742 3212 
Q 4056 2841 4056 2131 
z
" id="DejaVuSans-Bold-6e" transform="scale(0.015625)"/>
       </defs>
       <use xlink:href="#DejaVuSans-Bold-4a"/>
       <use x="37.207031" xlink:href="#DejaVuSans-Bold-75"/>
       <use x="108.398438" xlink:href="#DejaVuSans-Bold-6e"/>
      </g>
     </g>
    </g>
    <g id="xtick_5">
     <g id="line2d_5">
      <g>
       <use style="fill:#555555;stroke:#555555;stroke-width:0.8;" x="376.190142" xlink:href="#mae985ade36" y="541.28"/>
      </g>
     </g>
     <g id="text_5">
      <!-- Jul -->
      <g style="fill:#555555;" transform="translate(366.20311 558.917812)scale(0.14 -0.14)">
       <defs>
        <path d="M 538 4863 
L 1656 4863 
L 1656 0 
L 538 0 
L 538 4863 
z
" id="DejaVuSans-Bold-6c" transform="scale(0.015625)"/>
       </defs>
       <use xlink:href="#DejaVuSans-Bold-4a"/>
       <use x="37.207031" xlink:href="#DejaVuSans-Bold-75"/>
       <use x="108.398438" xlink:href="#DejaVuSans-Bold-6c"/>
      </g>
     </g>
    </g>
    <g id="xtick_6">
     <g id="line2d_6">
      <g>
       <use style="fill:#555555;stroke:#555555;stroke-width:0.8;" x="439.991958" xlink:href="#mae985ade36" y="541.28"/>
      </g>
     </g>
     <g id="text_6">
      <!-- Aug -->
      <g style="fill:#555555;" transform="translate(424.58102 558.808437)scale(0.14 -0.14)">
       <defs>
        <path d="M 2919 594 
Q 2688 288 2409 144 
Q 2131 0 1766 0 
Q 1125 0 706 504 
Q 288 1009 288 1791 
Q 288 2575 706 3076 
Q 1125 3578 1766 3578 
Q 2131 3578 2409 3434 
Q 2688 3291 2919 2981 
L 2919 3500 
L 4044 3500 
L 4044 353 
Q 4044 -491 3511 -936 
Q 2978 -1381 1966 -1381 
Q 1638 -1381 1331 -1331 
Q 1025 -1281 716 -1178 
L 716 -306 
Q 1009 -475 1290 -558 
Q 1572 -641 1856 -641 
Q 2406 -641 2662 -400 
Q 2919 -159 2919 353 
L 2919 594 
z
M 2181 2772 
Q 1834 2772 1640 2515 
Q 1447 2259 1447 1791 
Q 1447 1309 1634 1061 
Q 1822 813 2181 813 
Q 2531 813 2725 1069 
Q 2919 1325 2919 1791 
Q 2919 2259 2725 2515 
Q 2531 2772 2181 2772 
z
" id="DejaVuSans-Bold-67" transform="scale(0.015625)"/>
       </defs>
       <use xlink:href="#DejaVuSans-Bold-41"/>
       <use x="77.392578" xlink:href="#DejaVuSans-Bold-75"/>
       <use x="148.583984" xlink:href="#DejaVuSans-Bold-67"/>
      </g>
     </g>
    </g>
    <g id="xtick_7">
     <g id="line2d_7">
      <g>
       <use style="fill:#555555;stroke:#555555;stroke-width:0.8;" x="503.793774" xlink:href="#mae985ade36" y="541.28"/>
      </g>
     </g>
     <g id="text_7">
      <!-- Sep -->
      <g style="fill:#555555;" transform="translate(488.994243 558.917812)scale(0.14 -0.14)">
       <defs>
        <path d="M 3834 4519 
L 3834 3531 
Q 3450 3703 3084 3790 
Q 2719 3878 2394 3878 
Q 1963 3878 1756 3759 
Q 1550 3641 1550 3391 
Q 1550 3203 1689 3098 
Q 1828 2994 2194 2919 
L 2706 2816 
Q 3484 2659 3812 2340 
Q 4141 2022 4141 1434 
Q 4141 663 3683 286 
Q 3225 -91 2284 -91 
Q 1841 -91 1394 -6 
Q 947 78 500 244 
L 500 1259 
Q 947 1022 1364 901 
Q 1781 781 2169 781 
Q 2563 781 2772 912 
Q 2981 1044 2981 1288 
Q 2981 1506 2839 1625 
Q 2697 1744 2272 1838 
L 1806 1941 
Q 1106 2091 782 2419 
Q 459 2747 459 3303 
Q 459 4000 909 4375 
Q 1359 4750 2203 4750 
Q 2588 4750 2994 4692 
Q 3400 4634 3834 4519 
z
" id="DejaVuSans-Bold-53" transform="scale(0.015625)"/>
        <path d="M 4031 1759 
L 4031 1441 
L 1416 1441 
Q 1456 1047 1700 850 
Q 1944 653 2381 653 
Q 2734 653 3104 758 
Q 3475 863 3866 1075 
L 3866 213 
Q 3469 63 3072 -14 
Q 2675 -91 2278 -91 
Q 1328 -91 801 392 
Q 275 875 275 1747 
Q 275 2603 792 3093 
Q 1309 3584 2216 3584 
Q 3041 3584 3536 3087 
Q 4031 2591 4031 1759 
z
M 2881 2131 
Q 2881 2450 2695 2645 
Q 2509 2841 2209 2841 
Q 1884 2841 1681 2658 
Q 1478 2475 1428 2131 
L 2881 2131 
z
" id="DejaVuSans-Bold-65" transform="scale(0.015625)"/>
       </defs>
       <use xlink:href="#DejaVuSans-Bold-53"/>
       <use x="72.021484" xlink:href="#DejaVuSans-Bold-65"/>
       <use x="139.84375" xlink:href="#DejaVuSans-Bold-70"/>
      </g>
     </g>
    </g>
    <g id="xtick_8">
     <g id="line2d_8">
      <g>
       <use style="fill:#555555;stroke:#555555;stroke-width:0.8;" x="565.537468" xlink:href="#mae985ade36" y="541.28"/>
      </g>
     </g>
     <g id="text_8">
      <!-- Oct -->
      <g style="fill:#555555;" transform="translate(552.090905 558.917812)scale(0.14 -0.14)">
       <defs>
        <path d="M 2719 3878 
Q 2169 3878 1866 3472 
Q 1563 3066 1563 2328 
Q 1563 1594 1866 1187 
Q 2169 781 2719 781 
Q 3272 781 3575 1187 
Q 3878 1594 3878 2328 
Q 3878 3066 3575 3472 
Q 3272 3878 2719 3878 
z
M 2719 4750 
Q 3844 4750 4481 4106 
Q 5119 3463 5119 2328 
Q 5119 1197 4481 553 
Q 3844 -91 2719 -91 
Q 1597 -91 958 553 
Q 319 1197 319 2328 
Q 319 3463 958 4106 
Q 1597 4750 2719 4750 
z
" id="DejaVuSans-Bold-4f" transform="scale(0.015625)"/>
        <path d="M 3366 3391 
L 3366 2478 
Q 3138 2634 2908 2709 
Q 2678 2784 2431 2784 
Q 1963 2784 1702 2511 
Q 1441 2238 1441 1747 
Q 1441 1256 1702 982 
Q 1963 709 2431 709 
Q 2694 709 2930 787 
Q 3166 866 3366 1019 
L 3366 103 
Q 3103 6 2833 -42 
Q 2563 -91 2291 -91 
Q 1344 -91 809 395 
Q 275 881 275 1747 
Q 275 2613 809 3098 
Q 1344 3584 2291 3584 
Q 2566 3584 2833 3536 
Q 3100 3488 3366 3391 
z
" id="DejaVuSans-Bold-63" transform="scale(0.015625)"/>
        <path d="M 1759 4494 
L 1759 3500 
L 2913 3500 
L 2913 2700 
L 1759 2700 
L 1759 1216 
Q 1759 972 1856 886 
Q 1953 800 2241 800 
L 2816 800 
L 2816 0 
L 1856 0 
Q 1194 0 917 276 
Q 641 553 641 1216 
L 641 2700 
L 84 2700 
L 84 3500 
L 641 3500 
L 641 4494 
L 1759 4494 
z
" id="DejaVuSans-Bold-74" transform="scale(0.015625)"/>
       </defs>
       <use xlink:href="#DejaVuSans-Bold-4f"/>
       <use x="85.009766" xlink:href="#DejaVuSans-Bold-63"/>
       <use x="144.287109" xlink:href="#DejaVuSans-Bold-74"/>
      </g>
     </g>
    </g>
    <g id="xtick_9">
     <g id="line2d_9">
      <g>
       <use style="fill:#555555;stroke:#555555;stroke-width:0.8;" x="629.339284" xlink:href="#mae985ade36" y="541.28"/>
      </g>
     </g>
     <g id="text_9">
      <!-- Nov -->
      <g style="fill:#555555;" transform="translate(614.108815 558.917812)scale(0.14 -0.14)">
       <defs>
        <path d="M 588 4666 
L 1931 4666 
L 3628 1466 
L 3628 4666 
L 4769 4666 
L 4769 0 
L 3425 0 
L 1728 3200 
L 1728 0 
L 588 0 
L 588 4666 
z
" id="DejaVuSans-Bold-4e" transform="scale(0.015625)"/>
        <path d="M 2203 2784 
Q 1831 2784 1636 2517 
Q 1441 2250 1441 1747 
Q 1441 1244 1636 976 
Q 1831 709 2203 709 
Q 2569 709 2762 976 
Q 2956 1244 2956 1747 
Q 2956 2250 2762 2517 
Q 2569 2784 2203 2784 
z
M 2203 3584 
Q 3106 3584 3614 3096 
Q 4122 2609 4122 1747 
Q 4122 884 3614 396 
Q 3106 -91 2203 -91 
Q 1297 -91 786 396 
Q 275 884 275 1747 
Q 275 2609 786 3096 
Q 1297 3584 2203 3584 
z
" id="DejaVuSans-Bold-6f" transform="scale(0.015625)"/>
        <path d="M 97 3500 
L 1216 3500 
L 2088 1081 
L 2956 3500 
L 4078 3500 
L 2700 0 
L 1472 0 
L 97 3500 
z
" id="DejaVuSans-Bold-76" transform="scale(0.015625)"/>
       </defs>
       <use xlink:href="#DejaVuSans-Bold-4e"/>
       <use x="83.691406" xlink:href="#DejaVuSans-Bold-6f"/>
       <use x="152.392578" xlink:href="#DejaVuSans-Bold-76"/>
      </g>
     </g>
    </g>
    <g id="xtick_10">
     <g id="line2d_10">
      <g>
       <use style="fill:#555555;stroke:#555555;stroke-width:0.8;" x="691.082977" xlink:href="#mae985ade36" y="541.28"/>
      </g>
     </g>
     <g id="text_10">
      <!-- Dec -->
      <g style="fill:#555555;" transform="translate(676.374227 558.917812)scale(0.14 -0.14)">
       <defs>
        <path d="M 1791 3756 
L 1791 909 
L 2222 909 
Q 2959 909 3348 1275 
Q 3738 1641 3738 2338 
Q 3738 3031 3350 3393 
Q 2963 3756 2222 3756 
L 1791 3756 
z
M 588 4666 
L 1856 4666 
Q 2919 4666 3439 4514 
Q 3959 4363 4331 4000 
Q 4659 3684 4818 3271 
Q 4978 2859 4978 2338 
Q 4978 1809 4818 1395 
Q 4659 981 4331 666 
Q 3956 303 3431 151 
Q 2906 0 1856 0 
L 588 0 
L 588 4666 
z
" id="DejaVuSans-Bold-44" transform="scale(0.015625)"/>
       </defs>
       <use xlink:href="#DejaVuSans-Bold-44"/>
       <use x="83.007812" xlink:href="#DejaVuSans-Bold-65"/>
       <use x="150.830078" xlink:href="#DejaVuSans-Bold-63"/>
      </g>
     </g>
    </g>
    <g id="xtick_11">
     <g id="line2d_11">
      <g>
       <use style="fill:#555555;stroke:#555555;stroke-width:0.8;" x="754.884794" xlink:href="#mae985ade36" y="541.28"/>
      </g>
     </g>
     <g id="text_11">
      <!-- Jan -->
      <g style="fill:#555555;" transform="translate(742.573544 558.917812)scale(0.14 -0.14)">
       <use xlink:href="#DejaVuSans-Bold-4a"/>
       <use x="37.207031" xlink:href="#DejaVuSans-Bold-61"/>
       <use x="104.6875" xlink:href="#DejaVuSans-Bold-6e"/>
      </g>
     </g>
    </g>
    <g id="xtick_12">
     <g id="line2d_12">
      <g>
       <use style="fill:#555555;stroke:#555555;stroke-width:0.8;" x="818.68661" xlink:href="#mae985ade36" y="541.28"/>
      </g>
     </g>
     <g id="text_12">
      <!-- Feb -->
      <g style="fill:#555555;" transform="translate(804.426298 558.917812)scale(0.14 -0.14)">
       <defs>
        <path d="M 588 4666 
L 3834 4666 
L 3834 3756 
L 1791 3756 
L 1791 2888 
L 3713 2888 
L 3713 1978 
L 1791 1978 
L 1791 0 
L 588 0 
L 588 4666 
z
" id="DejaVuSans-Bold-46" transform="scale(0.015625)"/>
        <path d="M 2400 722 
Q 2759 722 2948 984 
Q 3138 1247 3138 1747 
Q 3138 2247 2948 2509 
Q 2759 2772 2400 2772 
Q 2041 2772 1848 2508 
Q 1656 2244 1656 1747 
Q 1656 1250 1848 986 
Q 2041 722 2400 722 
z
M 1656 2988 
Q 1888 3294 2169 3439 
Q 2450 3584 2816 3584 
Q 3463 3584 3878 3070 
Q 4294 2556 4294 1747 
Q 4294 938 3878 423 
Q 3463 -91 2816 -91 
Q 2450 -91 2169 54 
Q 1888 200 1656 506 
L 1656 0 
L 538 0 
L 538 4863 
L 1656 4863 
L 1656 2988 
z
" id="DejaVuSans-Bold-62" transform="scale(0.015625)"/>
       </defs>
       <use xlink:href="#DejaVuSans-Bold-46"/>
       <use x="64.310547" xlink:href="#DejaVuSans-Bold-65"/>
       <use x="132.132812" xlink:href="#DejaVuSans-Bold-62"/>
      </g>
     </g>
    </g>
    <g id="xtick_13">
     <g id="line2d_13">
      <g>
       <use style="fill:#555555;stroke:#555555;stroke-width:0.8;" x="876.314057" xlink:href="#mae985ade36" y="541.28"/>
      </g>
     </g>
     <g id="text_13">
      <!-- Mar -->
      <g style="fill:#555555;" transform="translate(861.172182 558.917812)scale(0.14 -0.14)">
       <use xlink:href="#DejaVuSans-Bold-4d"/>
       <use x="99.511719" xlink:href="#DejaVuSans-Bold-61"/>
       <use x="166.992188" xlink:href="#DejaVuSans-Bold-72"/>
      </g>
     </g>
    </g>
    <g id="xtick_14">
     <g id="line2d_14">
      <g>
       <use style="fill:#555555;stroke:#555555;stroke-width:0.8;" x="940.115874" xlink:href="#mae985ade36" y="541.28"/>
      </g>
     </g>
     <g id="text_14">
      <!-- Apr -->
      <g style="fill:#555555;" transform="translate(926.236186 558.917812)scale(0.14 -0.14)">
       <use xlink:href="#DejaVuSans-Bold-41"/>
       <use x="77.392578" xlink:href="#DejaVuSans-Bold-70"/>
       <use x="148.974609" xlink:href="#DejaVuSans-Bold-72"/>
      </g>
     </g>
    </g>
    <g id="xtick_15">
     <g id="line2d_15">
      <g>
       <use style="fill:#555555;stroke:#555555;stroke-width:0.8;" x="1001.859567" xlink:href="#mae985ade36" y="541.28"/>
      </g>
     </g>
     <g id="text_15">
      <!-- May -->
      <g style="fill:#555555;" transform="translate(985.825192 558.808437)scale(0.14 -0.14)">
       <use xlink:href="#DejaVuSans-Bold-4d"/>
       <use x="99.511719" xlink:href="#DejaVuSans-Bold-61"/>
       <use x="163.867188" xlink:href="#DejaVuSans-Bold-79"/>
      </g>
     </g>
    </g>
    <g id="xtick_16">
     <g id="line2d_16">
      <g>
       <use style="fill:#555555;stroke:#555555;stroke-width:0.8;" x="1065.661383" xlink:href="#mae985ade36" y="541.28"/>
      </g>
     </g>
     <g id="text_16">
      <!-- Jun -->
      <g style="fill:#555555;" transform="translate(1053.090915 558.917812)scale(0.14 -0.14)">
       <use xlink:href="#DejaVuSans-Bold-4a"/>
       <use x="37.207031" xlink:href="#DejaVuSans-Bold-75"/>
       <use x="108.398438" xlink:href="#DejaVuSans-Bold-6e"/>
      </g>
     </g>
    </g>
    <g id="xtick_17">
     <g id="line2d_17">
      <g>
       <use style="fill:#555555;stroke:#555555;stroke-width:0.8;" x="1127.405077" xlink:href="#mae985ade36" y="541.28"/>
      </g>
     </g>
     <g id="text_17">
      <!-- Jul -->
      <g style="fill:#555555;" transform="translate(1117.418045 558.917812)scale(0.14 -0.14)">
       <use xlink:href="#DejaVuSans-Bold-4a"/>
       <use x="37.207031" xlink:href="#DejaVuSans-Bold-75"/>
       <use x="108.398438" xlink:href="#DejaVuSans-Bold-6c"/>
      </g>
     </g>
    </g>
   </g>
   <g id="matplotlib.axis_2">
    <g id="ytick_1">
     <g id="line2d_18">
      <defs>
       <path d="M 0 0 
L -3.5 0 
" id="m0a2fe4b0e6" style="stroke:#555555;stroke-width:0.8;"/>
      </defs>
      <g>
       <use style="fill:#555555;stroke:#555555;stroke-width:0.8;" x="87.95" xlink:href="#m0a2fe4b0e6" y="519.485405"/>
      </g>
     </g>
     <g id="text_18">
      <!-- 0 -->
      <g style="fill:#555555;" transform="translate(71.209063 524.804311)scale(0.14 -0.14)">
       <defs>
        <path d="M 2944 2338 
Q 2944 3213 2780 3570 
Q 2616 3928 2228 3928 
Q 1841 3928 1675 3570 
Q 1509 3213 1509 2338 
Q 1509 1453 1675 1090 
Q 1841 728 2228 728 
Q 2613 728 2778 1090 
Q 2944 1453 2944 2338 
z
M 4147 2328 
Q 4147 1169 3647 539 
Q 3147 -91 2228 -91 
Q 1306 -91 806 539 
Q 306 1169 306 2328 
Q 306 3491 806 4120 
Q 1306 4750 2228 4750 
Q 3147 4750 3647 4120 
Q 4147 3491 4147 2328 
z
" id="DejaVuSans-Bold-30" transform="scale(0.015625)"/>
       </defs>
       <use xlink:href="#DejaVuSans-Bold-30"/>
      </g>
     </g>
    </g>
    <g id="ytick_2">
     <g id="line2d_19">
      <g>
       <use style="fill:#555555;stroke:#555555;stroke-width:0.8;" x="87.95" xlink:href="#m0a2fe4b0e6" y="448.872754"/>
      </g>
     </g>
     <g id="text_19">
      <!-- 2000 -->
      <g style="fill:#555555;" transform="translate(41.98625 454.19166)scale(0.14 -0.14)">
       <defs>
        <path d="M 1844 884 
L 3897 884 
L 3897 0 
L 506 0 
L 506 884 
L 2209 2388 
Q 2438 2594 2547 2791 
Q 2656 2988 2656 3200 
Q 2656 3528 2436 3728 
Q 2216 3928 1850 3928 
Q 1569 3928 1234 3808 
Q 900 3688 519 3450 
L 519 4475 
Q 925 4609 1322 4679 
Q 1719 4750 2100 4750 
Q 2938 4750 3402 4381 
Q 3866 4013 3866 3353 
Q 3866 2972 3669 2642 
Q 3472 2313 2841 1759 
L 1844 884 
z
" id="DejaVuSans-Bold-32" transform="scale(0.015625)"/>
       </defs>
       <use xlink:href="#DejaVuSans-Bold-32"/>
       <use x="69.580078" xlink:href="#DejaVuSans-Bold-30"/>
       <use x="139.160156" xlink:href="#DejaVuSans-Bold-30"/>
       <use x="208.740234" xlink:href="#DejaVuSans-Bold-30"/>
      </g>
     </g>
    </g>
    <g id="ytick_3">
     <g id="line2d_20">
      <g>
       <use style="fill:#555555;stroke:#555555;stroke-width:0.8;" x="87.95" xlink:href="#m0a2fe4b0e6" y="378.260103"/>
      </g>
     </g>
     <g id="text_20">
      <!-- 4000 -->
      <g style="fill:#555555;" transform="translate(41.98625 383.579009)scale(0.14 -0.14)">
       <defs>
        <path d="M 2356 3675 
L 1038 1722 
L 2356 1722 
L 2356 3675 
z
M 2156 4666 
L 3494 4666 
L 3494 1722 
L 4159 1722 
L 4159 850 
L 3494 850 
L 3494 0 
L 2356 0 
L 2356 850 
L 288 850 
L 288 1881 
L 2156 4666 
z
" id="DejaVuSans-Bold-34" transform="scale(0.015625)"/>
       </defs>
       <use xlink:href="#DejaVuSans-Bold-34"/>
       <use x="69.580078" xlink:href="#DejaVuSans-Bold-30"/>
       <use x="139.160156" xlink:href="#DejaVuSans-Bold-30"/>
       <use x="208.740234" xlink:href="#DejaVuSans-Bold-30"/>
      </g>
     </g>
    </g>
    <g id="ytick_4">
     <g id="line2d_21">
      <g>
       <use style="fill:#555555;stroke:#555555;stroke-width:0.8;" x="87.95" xlink:href="#m0a2fe4b0e6" y="307.647451"/>
      </g>
     </g>
     <g id="text_21">
      <!-- 6000 -->
      <g style="fill:#555555;" transform="translate(41.98625 312.966358)scale(0.14 -0.14)">
       <defs>
        <path d="M 2316 2303 
Q 2000 2303 1842 2098 
Q 1684 1894 1684 1484 
Q 1684 1075 1842 870 
Q 2000 666 2316 666 
Q 2634 666 2792 870 
Q 2950 1075 2950 1484 
Q 2950 1894 2792 2098 
Q 2634 2303 2316 2303 
z
M 3803 4544 
L 3803 3681 
Q 3506 3822 3243 3889 
Q 2981 3956 2731 3956 
Q 2194 3956 1894 3657 
Q 1594 3359 1544 2772 
Q 1750 2925 1990 3001 
Q 2231 3078 2516 3078 
Q 3231 3078 3670 2659 
Q 4109 2241 4109 1563 
Q 4109 813 3618 361 
Q 3128 -91 2303 -91 
Q 1394 -91 895 523 
Q 397 1138 397 2266 
Q 397 3422 980 4083 
Q 1563 4744 2578 4744 
Q 2900 4744 3203 4694 
Q 3506 4644 3803 4544 
z
" id="DejaVuSans-Bold-36" transform="scale(0.015625)"/>
       </defs>
       <use xlink:href="#DejaVuSans-Bold-36"/>
       <use x="69.580078" xlink:href="#DejaVuSans-Bold-30"/>
       <use x="139.160156" xlink:href="#DejaVuSans-Bold-30"/>
       <use x="208.740234" xlink:href="#DejaVuSans-Bold-30"/>
      </g>
     </g>
    </g>
    <g id="ytick_5">
     <g id="line2d_22">
      <g>
       <use style="fill:#555555;stroke:#555555;stroke-width:0.8;" x="87.95" xlink:href="#m0a2fe4b0e6" y="237.0348"/>
      </g>
     </g>
     <g id="text_22">
      <!-- 8000 -->
      <g style="fill:#555555;" transform="translate(41.98625 242.353706)scale(0.14 -0.14)">
       <defs>
        <path d="M 2228 2088 
Q 1891 2088 1709 1903 
Q 1528 1719 1528 1375 
Q 1528 1031 1709 848 
Q 1891 666 2228 666 
Q 2563 666 2741 848 
Q 2919 1031 2919 1375 
Q 2919 1722 2741 1905 
Q 2563 2088 2228 2088 
z
M 1350 2484 
Q 925 2613 709 2878 
Q 494 3144 494 3541 
Q 494 4131 934 4440 
Q 1375 4750 2228 4750 
Q 3075 4750 3515 4442 
Q 3956 4134 3956 3541 
Q 3956 3144 3739 2878 
Q 3522 2613 3097 2484 
Q 3572 2353 3814 2058 
Q 4056 1763 4056 1313 
Q 4056 619 3595 264 
Q 3134 -91 2228 -91 
Q 1319 -91 855 264 
Q 391 619 391 1313 
Q 391 1763 633 2058 
Q 875 2353 1350 2484 
z
M 1631 3419 
Q 1631 3141 1786 2991 
Q 1941 2841 2228 2841 
Q 2509 2841 2662 2991 
Q 2816 3141 2816 3419 
Q 2816 3697 2662 3845 
Q 2509 3994 2228 3994 
Q 1941 3994 1786 3844 
Q 1631 3694 1631 3419 
z
" id="DejaVuSans-Bold-38" transform="scale(0.015625)"/>
       </defs>
       <use xlink:href="#DejaVuSans-Bold-38"/>
       <use x="69.580078" xlink:href="#DejaVuSans-Bold-30"/>
       <use x="139.160156" xlink:href="#DejaVuSans-Bold-30"/>
       <use x="208.740234" xlink:href="#DejaVuSans-Bold-30"/>
      </g>
     </g>
    </g>
    <g id="ytick_6">
     <g id="line2d_23">
      <g>
       <use style="fill:#555555;stroke:#555555;stroke-width:0.8;" x="87.95" xlink:href="#m0a2fe4b0e6" y="166.422149"/>
      </g>
     </g>
     <g id="text_23">
      <!-- 10000 -->
      <g style="fill:#555555;" transform="translate(32.245313 171.741055)scale(0.14 -0.14)">
       <defs>
        <path d="M 750 831 
L 1813 831 
L 1813 3847 
L 722 3622 
L 722 4441 
L 1806 4666 
L 2950 4666 
L 2950 831 
L 4013 831 
L 4013 0 
L 750 0 
L 750 831 
z
" id="DejaVuSans-Bold-31" transform="scale(0.015625)"/>
       </defs>
       <use xlink:href="#DejaVuSans-Bold-31"/>
       <use x="69.580078" xlink:href="#DejaVuSans-Bold-30"/>
       <use x="139.160156" xlink:href="#DejaVuSans-Bold-30"/>
       <use x="208.740234" xlink:href="#DejaVuSans-Bold-30"/>
       <use x="278.320312" xlink:href="#DejaVuSans-Bold-30"/>
      </g>
     </g>
    </g>
    <g id="ytick_7">
     <g id="line2d_24">
      <g>
       <use style="fill:#555555;stroke:#555555;stroke-width:0.8;" x="87.95" xlink:href="#m0a2fe4b0e6" y="95.809498"/>
      </g>
     </g>
     <g id="text_24">
      <!-- 12000 -->
      <g style="fill:#555555;" transform="translate(32.245313 101.128404)scale(0.14 -0.14)">
       <use xlink:href="#DejaVuSans-Bold-31"/>
       <use x="69.580078" xlink:href="#DejaVuSans-Bold-32"/>
       <use x="139.160156" xlink:href="#DejaVuSans-Bold-30"/>
       <use x="208.740234" xlink:href="#DejaVuSans-Bold-30"/>
       <use x="278.320312" xlink:href="#DejaVuSans-Bold-30"/>
      </g>
     </g>
    </g>
    <g id="text_25">
     <!-- New Cases -->
     <g style="fill:#555555;" transform="translate(24.917813 333.23875)rotate(-90)scale(0.16 -0.16)">
      <defs>
       <path d="M 628 4666 
L 1478 4666 
L 3547 763 
L 3547 4666 
L 4159 4666 
L 4159 0 
L 3309 0 
L 1241 3903 
L 1241 0 
L 628 0 
L 628 4666 
z
" id="DejaVuSans-4e" transform="scale(0.015625)"/>
       <path d="M 3597 1894 
L 3597 1613 
L 953 1613 
Q 991 1019 1311 708 
Q 1631 397 2203 397 
Q 2534 397 2845 478 
Q 3156 559 3463 722 
L 3463 178 
Q 3153 47 2828 -22 
Q 2503 -91 2169 -91 
Q 1331 -91 842 396 
Q 353 884 353 1716 
Q 353 2575 817 3079 
Q 1281 3584 2069 3584 
Q 2775 3584 3186 3129 
Q 3597 2675 3597 1894 
z
M 3022 2063 
Q 3016 2534 2758 2815 
Q 2500 3097 2075 3097 
Q 1594 3097 1305 2825 
Q 1016 2553 972 2059 
L 3022 2063 
z
" id="DejaVuSans-65" transform="scale(0.015625)"/>
       <path d="M 269 3500 
L 844 3500 
L 1563 769 
L 2278 3500 
L 2956 3500 
L 3675 769 
L 4391 3500 
L 4966 3500 
L 4050 0 
L 3372 0 
L 2619 2869 
L 1863 0 
L 1184 0 
L 269 3500 
z
" id="DejaVuSans-77" transform="scale(0.015625)"/>
       <path id="DejaVuSans-20" transform="scale(0.015625)"/>
       <path d="M 4122 4306 
L 4122 3641 
Q 3803 3938 3442 4084 
Q 3081 4231 2675 4231 
Q 1875 4231 1450 3742 
Q 1025 3253 1025 2328 
Q 1025 1406 1450 917 
Q 1875 428 2675 428 
Q 3081 428 3442 575 
Q 3803 722 4122 1019 
L 4122 359 
Q 3791 134 3420 21 
Q 3050 -91 2638 -91 
Q 1578 -91 968 557 
Q 359 1206 359 2328 
Q 359 3453 968 4101 
Q 1578 4750 2638 4750 
Q 3056 4750 3426 4639 
Q 3797 4528 4122 4306 
z
" id="DejaVuSans-43" transform="scale(0.015625)"/>
       <path d="M 2194 1759 
Q 1497 1759 1228 1600 
Q 959 1441 959 1056 
Q 959 750 1161 570 
Q 1363 391 1709 391 
Q 2188 391 2477 730 
Q 2766 1069 2766 1631 
L 2766 1759 
L 2194 1759 
z
M 3341 1997 
L 3341 0 
L 2766 0 
L 2766 531 
Q 2569 213 2275 61 
Q 1981 -91 1556 -91 
Q 1019 -91 701 211 
Q 384 513 384 1019 
Q 384 1609 779 1909 
Q 1175 2209 1959 2209 
L 2766 2209 
L 2766 2266 
Q 2766 2663 2505 2880 
Q 2244 3097 1772 3097 
Q 1472 3097 1187 3025 
Q 903 2953 641 2809 
L 641 3341 
Q 956 3463 1253 3523 
Q 1550 3584 1831 3584 
Q 2591 3584 2966 3190 
Q 3341 2797 3341 1997 
z
" id="DejaVuSans-61" transform="scale(0.015625)"/>
       <path d="M 2834 3397 
L 2834 2853 
Q 2591 2978 2328 3040 
Q 2066 3103 1784 3103 
Q 1356 3103 1142 2972 
Q 928 2841 928 2578 
Q 928 2378 1081 2264 
Q 1234 2150 1697 2047 
L 1894 2003 
Q 2506 1872 2764 1633 
Q 3022 1394 3022 966 
Q 3022 478 2636 193 
Q 2250 -91 1575 -91 
Q 1294 -91 989 -36 
Q 684 19 347 128 
L 347 722 
Q 666 556 975 473 
Q 1284 391 1588 391 
Q 1994 391 2212 530 
Q 2431 669 2431 922 
Q 2431 1156 2273 1281 
Q 2116 1406 1581 1522 
L 1381 1569 
Q 847 1681 609 1914 
Q 372 2147 372 2553 
Q 372 3047 722 3315 
Q 1072 3584 1716 3584 
Q 2034 3584 2315 3537 
Q 2597 3491 2834 3397 
z
" id="DejaVuSans-73" transform="scale(0.015625)"/>
      </defs>
      <use xlink:href="#DejaVuSans-4e"/>
      <use x="74.804688" xlink:href="#DejaVuSans-65"/>
      <use x="136.328125" xlink:href="#DejaVuSans-77"/>
      <use x="218.115234" xlink:href="#DejaVuSans-20"/>
      <use x="249.902344" xlink:href="#DejaVuSans-43"/>
      <use x="319.726562" xlink:href="#DejaVuSans-61"/>
      <use x="381.005859" xlink:href="#DejaVuSans-73"/>
      <use x="433.105469" xlink:href="#DejaVuSans-65"/>
      <use x="494.628906" xlink:href="#DejaVuSans-73"/>
     </g>
    </g>
   </g>
   <g id="line2d_25">
    <path clip-path="url(#p366b396f78)" d="M 135.389738 518.073152 
L 137.447861 517.720089 
L 139.505984 518.355603 
L 141.564107 517.331719 
L 143.62223 514.895583 
L 145.680353 515.142727 
L 147.738476 515.001502 
L 149.796599 515.49579 
L 151.854723 511.75332 
L 153.912846 513.377411 
L 155.970969 509.952697 
L 158.029092 509.317183 
L 160.087215 507.23411 
L 162.145338 505.5041 
L 164.203461 500.667134 
L 166.261584 496.995276 
L 168.319707 498.125078 
L 170.377831 499.961007 
L 172.435954 493.040967 
L 174.494077 489.722173 
L 178.610323 478.282923 
L 180.668446 479.024356 
L 182.726569 480.930898 
L 184.784692 488.662983 
L 186.842815 490.03993 
L 188.900939 483.896629 
L 190.959062 481.248655 
L 193.017185 483.472953 
L 195.075308 484.108467 
L 197.133431 480.683753 
L 199.191554 486.120927 
L 201.249677 491.875859 
L 203.3078 485.626639 
L 205.365923 476.835364 
L 207.424047 472.633911 
L 209.48217 473.551876 
L 211.540293 478.141698 
L 213.598416 485.626639 
L 215.656539 489.051352 
L 217.714662 493.711787 
L 219.772785 481.742943 
L 221.830908 475.917399 
L 223.889031 477.612103 
L 225.947155 483.367034 
L 228.005278 493.076274 
L 230.063401 494.206076 
L 232.121524 494.488527 
L 234.179647 488.627677 
L 236.23777 491.063813 
L 238.295893 496.642212 
L 240.354016 496.500987 
L 242.412139 505.186343 
L 244.470262 512.671284 
L 246.528386 505.786551 
L 248.586509 501.585098 
L 250.644632 502.608982 
L 252.702755 504.056541 
L 254.760878 507.551867 
L 256.819001 512.388834 
L 258.877124 508.222687 
L 260.935247 508.222687 
L 262.99337 506.739822 
L 265.051494 508.222687 
L 267.109617 509.317183 
L 269.16774 510.941274 
L 271.225863 513.165573 
L 273.283986 512.600672 
L 275.342109 511.612095 
L 277.400232 509.811472 
L 279.458355 512.353527 
L 281.516478 512.635978 
L 283.574602 515.072114 
L 285.632725 514.260069 
L 287.690848 515.566403 
L 289.748971 512.883122 
L 291.807094 510.517598 
L 293.865217 512.989041 
L 297.981463 513.377411 
L 300.039586 511.965158 
L 302.09771 514.930889 
L 304.155833 512.635978 
L 306.213956 513.200879 
L 308.272079 513.200879 
L 310.330202 514.507213 
L 312.388325 513.271492 
L 314.446448 515.813547 
L 316.504571 516.131304 
L 318.562694 516.201917 
L 320.620818 512.847816 
L 322.678941 511.823933 
L 324.737064 512.777203 
L 326.795187 511.047193 
L 328.85331 513.624555 
L 330.911433 513.695168 
L 332.969556 513.09496 
L 335.027679 513.76578 
L 337.085802 512.176996 
L 339.143926 513.09496 
L 341.202049 514.401294 
L 343.260172 513.871699 
L 345.318295 514.754358 
L 347.376418 515.49579 
L 349.434541 515.107421 
L 353.550787 516.307836 
L 355.60891 516.131304 
L 357.667034 517.084575 
L 359.725157 517.013962 
L 361.78328 516.660899 
L 363.841403 515.601709 
L 367.957649 516.766818 
L 370.015772 517.155188 
L 372.073895 516.802124 
L 374.132018 517.472945 
L 376.190142 517.296413 
L 378.248265 516.837431 
L 380.306388 516.802124 
L 382.364511 517.190494 
L 384.422634 516.94335 
L 386.480757 518.037846 
L 388.53888 518.28499 
L 390.597003 517.472945 
L 394.71325 517.190494 
L 396.771373 516.519674 
L 398.829496 516.131304 
L 400.887619 516.94335 
L 402.945742 516.025385 
L 407.061988 515.283952 
L 409.120111 515.637016 
L 411.178234 514.365988 
L 413.236357 514.365988 
L 415.294481 513.024348 
L 417.352604 513.518636 
L 419.410727 513.48333 
L 423.526973 514.012925 
L 427.643219 511.965158 
L 429.701342 512.106383 
L 431.759465 511.576788 
L 433.817589 510.729436 
L 435.875712 507.445948 
L 437.933835 507.445948 
L 439.991958 504.268379 
L 442.050081 506.810434 
L 444.108204 506.351452 
L 446.166327 502.291225 
L 448.22445 504.374298 
L 450.282573 498.125078 
L 452.340697 501.232035 
L 454.39882 502.397144 
L 456.456943 499.113655 
L 458.515066 491.699327 
L 460.573189 497.595483 
L 462.631312 496.500987 
L 464.689435 499.148962 
L 466.747558 497.348339 
L 468.805681 496.324456 
L 470.863805 501.867549 
L 472.921928 502.326531 
L 474.980051 502.079387 
L 477.038174 499.961007 
L 479.096297 500.737746 
L 481.15442 500.667134 
L 483.212543 501.585098 
L 485.270666 503.421027 
L 487.328789 499.254881 
L 489.386913 504.797974 
L 491.445036 499.290187 
L 493.503159 501.549792 
L 495.561282 501.796936 
L 499.677528 501.620404 
L 501.735651 500.914278 
L 503.793774 502.997351 
L 505.851897 494.064851 
L 507.910021 498.336916 
L 509.968144 493.252805 
L 512.026267 496.5716 
L 514.08439 487.003586 
L 516.142513 491.416876 
L 520.258759 479.236194 
L 522.316882 489.934011 
L 524.375005 474.611065 
L 526.433129 476.341075 
L 528.491252 481.107429 
L 530.549375 473.693101 
L 532.607498 470.903901 
L 534.665621 465.219583 
L 536.723744 458.087705 
L 538.781867 450.390926 
L 540.83999 452.685837 
L 542.898113 454.380541 
L 544.956237 441.387813 
L 547.01436 440.505155 
L 549.072483 437.080441 
L 551.130606 429.948563 
L 553.188729 421.898721 
L 555.246852 424.158326 
L 557.304975 414.41378 
L 559.363098 417.026448 
L 561.421221 413.425203 
L 563.479345 403.468819 
L 565.537468 404.633928 
L 567.595591 385.180142 
L 569.653714 380.555014 
L 571.711837 378.86031 
L 573.76996 358.665092 
L 575.828083 359.900813 
L 577.886206 343.907048 
L 579.944329 315.273618 
L 582.002452 309.024398 
L 584.060576 290.771028 
L 586.118699 295.572688 
L 588.176822 279.296472 
L 590.234945 260.548813 
L 592.293068 263.443932 
L 594.351191 244.872804 
L 596.409314 238.76481 
L 598.467437 233.29233 
L 600.52556 231.809464 
L 602.583684 237.529089 
L 604.641807 231.950689 
L 606.69993 211.790777 
L 608.758053 192.866587 
L 610.816176 167.340113 
L 612.874299 214.368139 
L 614.932422 160.490686 
L 616.990545 155.724332 
L 619.048668 156.99536 
L 621.106792 234.316213 
L 623.164915 157.701486 
L 625.223038 128.714993 
L 627.281161 174.471991 
L 629.339284 213.061805 
L 631.397407 227.678624 
L 633.45553 246.249751 
L 635.513653 251.15733 
L 637.571776 274.247667 
L 639.6299 264.32659 
L 641.688023 285.898755 
L 645.804269 354.604864 
L 647.862392 355.522829 
L 649.920515 329.431454 
L 651.978638 321.099161 
L 654.036761 305.246621 
L 656.094884 311.248697 
L 658.153008 328.195733 
L 662.269254 368.339025 
L 664.327377 357.570596 
L 666.3855 318.698331 
L 668.443623 310.048282 
L 670.501746 307.506226 
L 672.559869 330.314112 
L 674.617992 336.563332 
L 676.676116 380.131338 
L 678.734239 346.131346 
L 680.792362 361.736742 
L 682.850485 316.40342 
L 684.908608 361.842661 
L 686.966731 323.005703 
L 689.024854 358.064884 
L 691.082977 376.918462 
L 693.1411 346.201959 
L 695.199224 321.98182 
L 697.257347 311.495841 
L 699.31547 288.970405 
L 701.373593 280.779338 
L 703.431716 269.022331 
L 705.489839 303.445999 
L 707.547962 288.44081 
L 709.606085 212.002615 
L 711.664208 207.483406 
L 713.722332 197.421103 
L 715.780455 170.694214 
L 717.838578 220.758584 
L 719.896701 285.36916 
L 721.954824 125.254973 
L 724.012947 68.341176 
L 726.07107 97.32767 
L 728.129193 87.900881 
L 730.187316 60.609091 
L 732.24544 125.608036 
L 734.303563 172.706675 
L 736.361686 152.511457 
L 738.419809 113.674498 
L 740.477932 113.639192 
L 742.536055 172.953819 
L 744.594178 201.551943 
L 746.652301 258.253902 
L 748.710424 253.981836 
L 750.768547 185.805322 
L 752.826671 178.214462 
L 754.884794 231.032725 
L 756.942917 216.239374 
L 759.00104 258.359821 
L 761.059163 285.333854 
L 763.117286 294.584111 
L 765.175409 269.12825 
L 767.233532 177.720173 
L 769.291655 233.080492 
L 771.349779 260.690038 
L 773.407902 286.322431 
L 775.466025 327.136543 
L 777.524148 345.001544 
L 779.582271 304.399269 
L 781.640394 290.029595 
L 783.698517 306.729487 
L 785.75664 332.538411 
L 787.814763 322.405495 
L 789.872887 350.579943 
L 791.93101 367.844737 
L 793.989133 322.864478 
L 796.047256 314.532185 
L 798.105379 316.579952 
L 800.163502 327.207156 
L 802.221625 347.119923 
L 804.279748 375.11784 
L 806.337871 379.707662 
L 808.395995 352.62771 
L 810.454118 353.828125 
L 812.512241 364.172879 
L 814.570364 372.187415 
L 816.628487 389.558127 
L 818.68661 405.163523 
L 820.744733 394.183256 
L 822.802856 377.624589 
L 824.860979 371.128225 
L 826.919103 366.997385 
L 828.977226 375.11784 
L 831.035349 381.155221 
L 833.093472 439.763722 
L 835.151595 457.381578 
L 837.209718 407.458434 
L 839.267841 363.184302 
L 841.325964 366.679628 
L 843.384087 372.187415 
L 845.442211 398.490627 
L 847.500334 419.144828 
L 849.558457 424.511389 
L 851.61658 400.5737 
L 853.674703 358.523867 
L 855.732826 354.393027 
L 857.790949 359.194687 
L 859.849072 354.640171 
L 861.907195 371.94027 
L 863.965319 385.003611 
L 866.023442 365.232068 
L 868.081565 343.448066 
L 870.139688 339.811514 
L 872.197811 345.70767 
L 874.255934 355.840586 
L 876.314057 387.12199 
L 878.37218 379.495824 
L 880.430303 342.141732 
L 882.488427 374.906002 
L 884.54655 354.887315 
L 886.604673 331.902897 
L 888.662796 360.324489 
L 890.720919 382.32033 
L 892.779042 368.162494 
L 894.837165 333.809439 
L 896.895288 332.467798 
L 898.953411 308.53011 
L 901.011535 294.30166 
L 903.069658 309.306849 
L 905.127781 325.230002 
L 907.185904 344.966238 
L 909.244027 310.860327 
L 911.30215 302.95171 
L 913.360273 260.054524 
L 915.418396 251.086718 
L 917.476519 273.400316 
L 921.592766 321.487531 
L 923.650889 252.710809 
L 925.709012 247.979761 
L 927.767135 252.60489 
L 929.825258 209.425253 
L 931.883381 255.747153 
L 933.941504 280.073211 
L 935.999627 312.731562 
L 938.05775 250.098141 
L 940.115874 243.425245 
L 942.173997 264.750266 
L 944.23212 251.192637 
L 946.290243 277.178092 
L 948.348366 331.126158 
L 950.406489 323.217541 
L 952.464612 294.548805 
L 954.522735 245.437706 
L 956.580858 248.968338 
L 958.638982 249.038951 
L 960.697105 232.021302 
L 962.755228 284.380583 
L 964.813351 282.156284 
L 966.871474 327.348381 
L 968.929597 212.426291 
L 970.98772 205.541558 
L 973.045843 228.1023 
L 975.103966 218.569592 
L 977.16209 266.762726 
L 979.220213 278.625652 
L 981.278336 220.264295 
L 983.336459 181.250806 
L 985.394582 193.396182 
L 987.452705 234.775195 
L 989.510828 236.293367 
L 991.568951 299.668222 
L 993.627074 332.185348 
L 995.685198 213.979769 
L 997.743321 262.314129 
L 999.801444 245.331787 
L 1001.859567 315.203005 
L 1003.91769 326.571642 
L 1005.975813 195.126192 
L 1008.033936 245.543625 
L 1012.150182 280.991176 
L 1014.208306 256.029603 
L 1016.266429 257.265325 
L 1020.382675 312.555031 
L 1022.440798 324.312037 
L 1024.498921 295.607994 
L 1026.557044 307.188469 
L 1028.615167 323.605911 
L 1030.67329 361.454292 
L 1032.731414 363.148995 
L 1034.789537 418.368089 
L 1036.84766 331.126158 
L 1038.905783 358.629786 
L 1040.963906 356.264262 
L 1043.022029 373.105379 
L 1045.080152 407.281902 
L 1047.138275 398.596546 
L 1049.196398 422.993217 
L 1051.254522 431.607961 
L 1053.312645 422.67546 
L 1055.370768 400.255944 
L 1057.428891 383.803196 
L 1059.487014 401.173908 
L 1061.545137 426.559156 
L 1063.60326 448.025402 
L 1065.661383 431.71388 
L 1067.719506 428.748148 
L 1069.77763 421.792802 
L 1071.835753 434.679611 
L 1073.893876 444.388851 
L 1075.951999 463.877942 
L 1078.010122 467.479188 
L 1080.068245 468.185314 
L 1082.126368 456.993209 
L 1084.184491 462.74814 
L 1084.184491 462.74814 
" style="fill:none;stroke:#000000;stroke-dasharray:1.5,2.475;stroke-dashoffset:0;stroke-opacity:0.5;stroke-width:1.5;"/>
   </g>
   <g id="line2d_26">
    <path clip-path="url(#p366b396f78)" d="M 135.389738 518.390909 
L 139.505984 517.367026 
L 147.738476 514.719051 
L 149.796599 513.942312 
L 151.854723 513.024348 
L 153.912846 511.859239 
L 155.970969 510.446986 
L 158.029092 508.646363 
L 160.087215 506.492677 
L 162.145338 504.091847 
L 170.377831 495.477104 
L 172.435954 492.44076 
L 176.5522 485.414801 
L 178.610323 483.11989 
L 180.668446 482.660908 
L 182.726569 483.296421 
L 184.784692 484.320305 
L 186.842815 485.026431 
L 188.900939 484.955819 
L 193.017185 483.508259 
L 195.075308 483.755404 
L 197.133431 484.602755 
L 199.191554 485.026431 
L 201.249677 484.249692 
L 203.3078 482.307844 
L 205.365923 479.977627 
L 207.424047 478.282923 
L 209.48217 478.212311 
L 211.540293 480.401303 
L 213.598416 483.155196 
L 215.656539 484.885206 
L 217.714662 484.920512 
L 219.772785 483.720097 
L 221.830908 482.802133 
L 223.889031 483.261115 
L 225.947155 485.238269 
L 228.005278 488.098082 
L 230.063401 490.498912 
L 232.121524 492.05239 
L 234.179647 492.864436 
L 236.23777 494.029544 
L 238.295893 496.606906 
L 242.412139 502.679594 
L 244.470262 504.515523 
L 246.528386 505.045118 
L 250.644632 505.151037 
L 252.702755 505.645326 
L 254.760878 506.881047 
L 256.819001 507.940237 
L 258.877124 508.434525 
L 262.99337 508.540444 
L 265.051494 508.858201 
L 269.16774 510.658824 
L 271.225863 511.329644 
L 273.283986 511.682707 
L 277.400232 511.965158 
L 279.458355 512.318221 
L 283.574602 513.624555 
L 285.632725 513.871699 
L 287.690848 513.695168 
L 291.807094 512.918429 
L 293.865217 512.706591 
L 295.92334 512.777203 
L 300.039586 513.200879 
L 306.213956 513.412717 
L 310.330202 514.012925 
L 312.388325 514.54252 
L 314.446448 514.860277 
L 316.504571 514.860277 
L 318.562694 514.471907 
L 322.678941 513.09496 
L 324.737064 512.706591 
L 326.795187 512.600672 
L 330.911433 513.059654 
L 337.085802 513.306798 
L 339.143926 513.48333 
L 343.260172 514.224763 
L 347.376418 515.072114 
L 355.60891 516.378449 
L 359.725157 516.55498 
L 363.841403 516.484368 
L 365.899526 516.484368 
L 376.190142 517.084575 
L 380.306388 517.084575 
L 388.53888 517.649476 
L 392.655126 517.331719 
L 400.887619 516.27253 
L 405.003865 515.742935 
L 407.061988 515.460484 
L 413.236357 514.15415 
L 415.294481 513.836393 
L 419.410727 513.553942 
L 423.526973 513.236186 
L 425.585096 512.918429 
L 427.643219 512.42414 
L 429.701342 511.718014 
L 431.759465 510.835355 
L 435.875712 508.469832 
L 439.991958 506.351452 
L 442.050081 505.610019 
L 450.282573 501.655711 
L 452.340697 500.384683 
L 454.39882 499.396106 
L 456.456943 498.160385 
L 458.515066 497.454258 
L 460.573189 496.995276 
L 462.631312 496.85405 
L 464.689435 497.383645 
L 466.747558 498.336916 
L 470.863805 499.996313 
L 472.921928 500.631827 
L 474.980051 501.020197 
L 477.038174 501.161422 
L 481.15442 501.126116 
L 483.212543 501.443873 
L 487.328789 501.691017 
L 491.445036 501.549792 
L 493.503159 501.443873 
L 495.561282 501.549792 
L 497.619405 501.514485 
L 499.677528 501.161422 
L 501.735651 500.525908 
L 505.851897 498.089772 
L 512.026267 492.687904 
L 514.08439 490.498912 
L 516.142513 488.521758 
L 520.258759 483.755404 
L 522.316882 482.0607 
L 524.375005 480.012933 
L 526.433129 478.177004 
L 528.491252 476.093931 
L 530.549375 472.775136 
L 532.607498 468.962053 
L 536.723744 459.782409 
L 538.781867 455.580956 
L 544.956237 444.459463 
L 547.01436 440.010866 
L 549.072483 435.244512 
L 551.130606 430.125095 
L 553.188729 425.85303 
L 557.304975 417.944413 
L 559.363098 414.484393 
L 561.421221 409.965183 
L 563.479345 404.139639 
L 565.537468 397.749194 
L 569.653714 381.543591 
L 571.711837 373.034766 
L 573.76996 362.513481 
L 575.828083 351.144845 
L 582.002452 311.036859 
L 584.060576 298.467807 
L 586.118699 287.840603 
L 592.293068 258.324514 
L 594.351191 249.286095 
L 596.409314 242.648506 
L 600.52556 233.610087 
L 602.583684 228.38475 
L 606.69993 211.155263 
L 610.816176 189.830243 
L 612.874299 180.403454 
L 614.932422 177.755479 
L 616.990545 175.813631 
L 619.048668 174.083621 
L 621.106792 171.435647 
L 623.164915 172.636062 
L 625.223038 176.802209 
L 627.281161 187.111656 
L 629.339284 200.563366 
L 631.397407 220.864503 
L 633.45553 239.188486 
L 635.513653 253.028566 
L 637.571776 265.738843 
L 639.6299 280.955869 
L 643.746146 314.849942 
L 645.804269 327.136543 
L 647.862392 332.750249 
L 649.920515 330.984933 
L 651.978638 325.72429 
L 654.036761 322.158351 
L 656.094884 324.806326 
L 658.153008 332.64433 
L 660.211131 339.599676 
L 662.269254 342.63602 
L 664.327377 339.211306 
L 666.3855 332.397186 
L 668.443623 326.042047 
L 670.501746 326.218579 
L 672.559869 331.337996 
L 674.617992 341.047235 
L 676.676116 346.837473 
L 678.734239 350.438718 
L 680.792362 348.073194 
L 682.850485 345.884202 
L 684.908608 345.213382 
L 686.966731 347.649518 
L 689.024854 348.461564 
L 691.082977 347.543599 
L 693.1411 338.787631 
L 695.199224 327.101237 
L 697.257347 311.319309 
L 699.31547 298.4325 
L 701.373593 290.523883 
L 703.431716 281.979753 
L 705.489839 271.317242 
L 707.547962 256.629811 
L 709.606085 236.893575 
L 711.664208 219.875926 
L 713.722332 211.755471 
L 715.780455 204.906044 
L 717.838578 196.326607 
L 719.896701 179.662021 
L 721.954824 154.347385 
L 724.012947 125.890487 
L 726.07107 104.035871 
L 728.129193 95.456434 
L 730.187316 104.706692 
L 732.24544 117.946564 
L 734.303563 127.338046 
L 738.419809 143.578956 
L 740.477932 155.865557 
L 742.536055 174.754442 
L 744.594178 194.984966 
L 746.652301 210.201993 
L 748.710424 217.686934 
L 750.768547 216.027536 
L 752.826671 215.886311 
L 754.884794 221.217566 
L 756.942917 234.528051 
L 759.00104 251.757538 
L 761.059163 259.419011 
L 763.117286 258.07737 
L 767.233532 247.061797 
L 769.291655 250.415898 
L 771.349779 264.644347 
L 775.466025 301.857214 
L 777.524148 310.366038 
L 779.582271 313.402382 
L 781.640394 313.61422 
L 783.698517 315.979744 
L 785.75664 322.970397 
L 787.814763 331.373302 
L 789.872887 336.881089 
L 791.93101 336.951702 
L 793.989133 332.926781 
L 796.047256 329.961049 
L 798.105379 330.737788 
L 800.163502 336.987008 
L 802.221625 347.014004 
L 804.279748 355.840586 
L 806.337871 361.242454 
L 808.395995 363.466752 
L 810.454118 365.373294 
L 812.512241 369.504134 
L 814.570364 376.07111 
L 816.628487 383.167682 
L 818.68661 386.910152 
L 820.744733 386.027494 
L 822.802856 382.426249 
L 824.860979 378.224796 
L 826.919103 379.601743 
L 828.977226 388.604856 
L 831.035349 400.467781 
L 833.093472 408.764768 
L 835.151595 410.035796 
L 837.209718 403.115756 
L 839.267841 393.688967 
L 841.325964 386.627702 
L 843.384087 387.263216 
L 845.442211 394.324481 
L 847.500334 399.691042 
L 849.558457 398.278789 
L 851.61658 390.440785 
L 853.674703 378.471941 
L 855.732826 368.339025 
L 857.790949 363.713896 
L 859.849072 363.784509 
L 861.907195 365.337987 
L 863.965319 364.34941 
L 866.023442 360.289183 
L 868.081565 355.522829 
L 870.139688 353.545675 
L 872.197811 355.381604 
L 874.255934 359.053462 
L 876.314057 364.208185 
L 878.37218 366.044114 
L 880.430303 363.325527 
L 882.488427 359.653669 
L 884.54655 357.005695 
L 886.604673 357.217533 
L 888.662796 358.559173 
L 890.720919 357.041001 
L 892.779042 351.886277 
L 894.837165 342.24765 
L 896.895288 329.713905 
L 898.953411 319.157314 
L 901.011535 315.273618 
L 903.069658 315.803213 
L 905.127781 317.286078 
L 907.185904 314.991167 
L 909.244027 306.764793 
L 911.30215 294.478192 
L 913.360273 283.497925 
L 915.418396 279.014021 
L 917.476519 278.83749 
L 919.534642 279.331778 
L 921.592766 277.990138 
L 923.650889 269.12825 
L 925.709012 258.324514 
L 927.767135 250.663042 
L 929.825258 251.086718 
L 933.941504 263.973527 
L 935.999627 267.39824 
L 938.05775 267.080483 
L 940.115874 263.796995 
L 942.173997 265.844762 
L 944.23212 273.153171 
L 946.290243 285.757529 
L 948.348366 293.383696 
L 950.406489 292.783488 
L 952.464612 285.051403 
L 954.522735 271.211323 
L 956.580858 259.772074 
L 958.638982 255.464702 
L 960.697105 261.678615 
L 962.755228 267.433546 
L 964.813351 267.78661 
L 966.871474 261.572696 
L 968.929597 249.709771 
L 970.98772 238.517666 
L 973.045843 235.516628 
L 975.103966 235.446015 
L 977.16209 238.37644 
L 979.220213 235.057646 
L 981.278336 227.43148 
L 983.336459 220.652665 
L 985.394582 221.535323 
L 987.452705 234.492745 
L 991.568951 263.973527 
L 993.627074 268.775187 
L 995.685198 269.763764 
L 997.743321 273.082559 
L 999.801444 270.999485 
L 1001.859567 269.375394 
L 1003.91769 269.12825 
L 1005.975813 264.079446 
L 1008.033936 260.266362 
L 1010.092059 257.477163 
L 1012.150182 259.419011 
L 1014.208306 269.057637 
L 1026.557044 321.769982 
L 1028.615167 335.892512 
L 1030.67329 348.143807 
L 1032.731414 359.724282 
L 1034.789537 364.914312 
L 1036.84766 365.585132 
L 1038.905783 366.397177 
L 1040.963906 370.633936 
L 1043.022029 378.401328 
L 1045.080152 392.771002 
L 1047.138275 404.598622 
L 1049.196398 412.789689 
L 1051.254522 414.766843 
L 1055.370768 409.047219 
L 1057.428891 408.800074 
L 1059.487014 412.366013 
L 1063.60326 425.817723 
L 1065.661383 430.336933 
L 1067.719506 432.243475 
L 1069.77763 434.644305 
L 1071.835753 439.198821 
L 1073.893876 446.8956 
L 1075.951999 454.133396 
L 1078.010122 459.888328 
L 1080.068245 462.571608 
L 1082.126368 463.348347 
L 1084.184491 462.677527 
L 1084.184491 462.677527 
" style="fill:none;stroke:#000000;stroke-linecap:square;stroke-width:1.5;"/>
   </g>
   <g id="patch_3">
    <path d="M 87.95 541.28 
L 87.95 37.72 
" style="fill:none;stroke:#555555;stroke-linecap:square;stroke-linejoin:miter;"/>
   </g>
   <g id="patch_4">
    <path d="M 87.95 541.28 
L 1131.624229 541.28 
" style="fill:none;stroke:#555555;stroke-linecap:square;stroke-linejoin:miter;"/>
   </g>
   <g id="text_26">
    <!-- Last updated on 10 June 2021 -->
    <g style="fill:#555555;" transform="translate(474.144458 27.72)scale(0.18 -0.18)">
     <defs>
      <path d="M 628 4666 
L 1259 4666 
L 1259 531 
L 3531 531 
L 3531 0 
L 628 0 
L 628 4666 
z
" id="DejaVuSans-4c" transform="scale(0.015625)"/>
      <path d="M 1172 4494 
L 1172 3500 
L 2356 3500 
L 2356 3053 
L 1172 3053 
L 1172 1153 
Q 1172 725 1289 603 
Q 1406 481 1766 481 
L 2356 481 
L 2356 0 
L 1766 0 
Q 1100 0 847 248 
Q 594 497 594 1153 
L 594 3053 
L 172 3053 
L 172 3500 
L 594 3500 
L 594 4494 
L 1172 4494 
z
" id="DejaVuSans-74" transform="scale(0.015625)"/>
      <path d="M 544 1381 
L 544 3500 
L 1119 3500 
L 1119 1403 
Q 1119 906 1312 657 
Q 1506 409 1894 409 
Q 2359 409 2629 706 
Q 2900 1003 2900 1516 
L 2900 3500 
L 3475 3500 
L 3475 0 
L 2900 0 
L 2900 538 
Q 2691 219 2414 64 
Q 2138 -91 1772 -91 
Q 1169 -91 856 284 
Q 544 659 544 1381 
z
M 1991 3584 
L 1991 3584 
z
" id="DejaVuSans-75" transform="scale(0.015625)"/>
      <path d="M 1159 525 
L 1159 -1331 
L 581 -1331 
L 581 3500 
L 1159 3500 
L 1159 2969 
Q 1341 3281 1617 3432 
Q 1894 3584 2278 3584 
Q 2916 3584 3314 3078 
Q 3713 2572 3713 1747 
Q 3713 922 3314 415 
Q 2916 -91 2278 -91 
Q 1894 -91 1617 61 
Q 1341 213 1159 525 
z
M 3116 1747 
Q 3116 2381 2855 2742 
Q 2594 3103 2138 3103 
Q 1681 3103 1420 2742 
Q 1159 2381 1159 1747 
Q 1159 1113 1420 752 
Q 1681 391 2138 391 
Q 2594 391 2855 752 
Q 3116 1113 3116 1747 
z
" id="DejaVuSans-70" transform="scale(0.015625)"/>
      <path d="M 2906 2969 
L 2906 4863 
L 3481 4863 
L 3481 0 
L 2906 0 
L 2906 525 
Q 2725 213 2448 61 
Q 2172 -91 1784 -91 
Q 1150 -91 751 415 
Q 353 922 353 1747 
Q 353 2572 751 3078 
Q 1150 3584 1784 3584 
Q 2172 3584 2448 3432 
Q 2725 3281 2906 2969 
z
M 947 1747 
Q 947 1113 1208 752 
Q 1469 391 1925 391 
Q 2381 391 2643 752 
Q 2906 1113 2906 1747 
Q 2906 2381 2643 2742 
Q 2381 3103 1925 3103 
Q 1469 3103 1208 2742 
Q 947 2381 947 1747 
z
" id="DejaVuSans-64" transform="scale(0.015625)"/>
      <path d="M 1959 3097 
Q 1497 3097 1228 2736 
Q 959 2375 959 1747 
Q 959 1119 1226 758 
Q 1494 397 1959 397 
Q 2419 397 2687 759 
Q 2956 1122 2956 1747 
Q 2956 2369 2687 2733 
Q 2419 3097 1959 3097 
z
M 1959 3584 
Q 2709 3584 3137 3096 
Q 3566 2609 3566 1747 
Q 3566 888 3137 398 
Q 2709 -91 1959 -91 
Q 1206 -91 779 398 
Q 353 888 353 1747 
Q 353 2609 779 3096 
Q 1206 3584 1959 3584 
z
" id="DejaVuSans-6f" transform="scale(0.015625)"/>
      <path d="M 3513 2113 
L 3513 0 
L 2938 0 
L 2938 2094 
Q 2938 2591 2744 2837 
Q 2550 3084 2163 3084 
Q 1697 3084 1428 2787 
Q 1159 2491 1159 1978 
L 1159 0 
L 581 0 
L 581 3500 
L 1159 3500 
L 1159 2956 
Q 1366 3272 1645 3428 
Q 1925 3584 2291 3584 
Q 2894 3584 3203 3211 
Q 3513 2838 3513 2113 
z
" id="DejaVuSans-6e" transform="scale(0.015625)"/>
      <path d="M 794 531 
L 1825 531 
L 1825 4091 
L 703 3866 
L 703 4441 
L 1819 4666 
L 2450 4666 
L 2450 531 
L 3481 531 
L 3481 0 
L 794 0 
L 794 531 
z
" id="DejaVuSans-31" transform="scale(0.015625)"/>
      <path d="M 2034 4250 
Q 1547 4250 1301 3770 
Q 1056 3291 1056 2328 
Q 1056 1369 1301 889 
Q 1547 409 2034 409 
Q 2525 409 2770 889 
Q 3016 1369 3016 2328 
Q 3016 3291 2770 3770 
Q 2525 4250 2034 4250 
z
M 2034 4750 
Q 2819 4750 3233 4129 
Q 3647 3509 3647 2328 
Q 3647 1150 3233 529 
Q 2819 -91 2034 -91 
Q 1250 -91 836 529 
Q 422 1150 422 2328 
Q 422 3509 836 4129 
Q 1250 4750 2034 4750 
z
" id="DejaVuSans-30" transform="scale(0.015625)"/>
      <path d="M 628 4666 
L 1259 4666 
L 1259 325 
Q 1259 -519 939 -900 
Q 619 -1281 -91 -1281 
L -331 -1281 
L -331 -750 
L -134 -750 
Q 284 -750 456 -515 
Q 628 -281 628 325 
L 628 4666 
z
" id="DejaVuSans-4a" transform="scale(0.015625)"/>
      <path d="M 1228 531 
L 3431 531 
L 3431 0 
L 469 0 
L 469 531 
Q 828 903 1448 1529 
Q 2069 2156 2228 2338 
Q 2531 2678 2651 2914 
Q 2772 3150 2772 3378 
Q 2772 3750 2511 3984 
Q 2250 4219 1831 4219 
Q 1534 4219 1204 4116 
Q 875 4013 500 3803 
L 500 4441 
Q 881 4594 1212 4672 
Q 1544 4750 1819 4750 
Q 2544 4750 2975 4387 
Q 3406 4025 3406 3419 
Q 3406 3131 3298 2873 
Q 3191 2616 2906 2266 
Q 2828 2175 2409 1742 
Q 1991 1309 1228 531 
z
" id="DejaVuSans-32" transform="scale(0.015625)"/>
     </defs>
     <use xlink:href="#DejaVuSans-4c"/>
     <use x="55.712891" xlink:href="#DejaVuSans-61"/>
     <use x="116.992188" xlink:href="#DejaVuSans-73"/>
     <use x="169.091797" xlink:href="#DejaVuSans-74"/>
     <use x="208.300781" xlink:href="#DejaVuSans-20"/>
     <use x="240.087891" xlink:href="#DejaVuSans-75"/>
     <use x="303.466797" xlink:href="#DejaVuSans-70"/>
     <use x="366.943359" xlink:href="#DejaVuSans-64"/>
     <use x="430.419922" xlink:href="#DejaVuSans-61"/>
     <use x="491.699219" xlink:href="#DejaVuSans-74"/>
     <use x="530.908203" xlink:href="#DejaVuSans-65"/>
     <use x="592.431641" xlink:href="#DejaVuSans-64"/>
     <use x="655.908203" xlink:href="#DejaVuSans-20"/>
     <use x="687.695312" xlink:href="#DejaVuSans-6f"/>
     <use x="748.876953" xlink:href="#DejaVuSans-6e"/>
     <use x="812.255859" xlink:href="#DejaVuSans-20"/>
     <use x="844.042969" xlink:href="#DejaVuSans-31"/>
     <use x="907.666016" xlink:href="#DejaVuSans-30"/>
     <use x="971.289062" xlink:href="#DejaVuSans-20"/>
     <use x="1003.076172" xlink:href="#DejaVuSans-4a"/>
     <use x="1032.568359" xlink:href="#DejaVuSans-75"/>
     <use x="1095.947266" xlink:href="#DejaVuSans-6e"/>
     <use x="1159.326172" xlink:href="#DejaVuSans-65"/>
     <use x="1220.849609" xlink:href="#DejaVuSans-20"/>
     <use x="1252.636719" xlink:href="#DejaVuSans-32"/>
     <use x="1316.259766" xlink:href="#DejaVuSans-30"/>
     <use x="1379.882812" xlink:href="#DejaVuSans-32"/>
     <use x="1443.505859" xlink:href="#DejaVuSans-31"/>
    </g>
   </g>
   <g id="legend_1">
    <g id="line2d_27">
     <path d="M 1009.162198 54.747969 
L 1035.162198 54.747969 
" style="fill:none;stroke:#000000;stroke-dasharray:1.5,2.475;stroke-dashoffset:0;stroke-opacity:0.5;stroke-width:1.5;"/>
    </g>
    <g id="line2d_28"/>
    <g id="text_27">
     <!-- Actual -->
     <g style="fill:#555555;" transform="translate(1045.562198 59.297969)scale(0.13 -0.13)">
      <use xlink:href="#DejaVuSans-Bold-41"/>
      <use x="77.392578" xlink:href="#DejaVuSans-Bold-63"/>
      <use x="136.669922" xlink:href="#DejaVuSans-Bold-74"/>
      <use x="184.472656" xlink:href="#DejaVuSans-Bold-75"/>
      <use x="255.664062" xlink:href="#DejaVuSans-Bold-61"/>
      <use x="323.144531" xlink:href="#DejaVuSans-Bold-6c"/>
     </g>
    </g>
    <g id="line2d_29">
     <path d="M 1009.162198 73.829531 
L 1035.162198 73.829531 
" style="fill:none;stroke:#000000;stroke-linecap:square;stroke-width:1.5;"/>
    </g>
    <g id="line2d_30"/>
    <g id="text_28">
     <!-- Smoothed -->
     <g style="fill:#555555;" transform="translate(1045.562198 78.379531)scale(0.13 -0.13)">
      <defs>
       <path d="M 3781 2919 
Q 3994 3244 4286 3414 
Q 4578 3584 4928 3584 
Q 5531 3584 5847 3212 
Q 6163 2841 6163 2131 
L 6163 0 
L 5038 0 
L 5038 1825 
Q 5041 1866 5042 1909 
Q 5044 1953 5044 2034 
Q 5044 2406 4934 2573 
Q 4825 2741 4581 2741 
Q 4263 2741 4089 2478 
Q 3916 2216 3909 1719 
L 3909 0 
L 2784 0 
L 2784 1825 
Q 2784 2406 2684 2573 
Q 2584 2741 2328 2741 
Q 2006 2741 1831 2477 
Q 1656 2213 1656 1722 
L 1656 0 
L 531 0 
L 531 3500 
L 1656 3500 
L 1656 2988 
Q 1863 3284 2130 3434 
Q 2397 3584 2719 3584 
Q 3081 3584 3359 3409 
Q 3638 3234 3781 2919 
z
" id="DejaVuSans-Bold-6d" transform="scale(0.015625)"/>
       <path d="M 4056 2131 
L 4056 0 
L 2931 0 
L 2931 347 
L 2931 1625 
Q 2931 2084 2911 2256 
Q 2891 2428 2841 2509 
Q 2775 2619 2662 2680 
Q 2550 2741 2406 2741 
Q 2056 2741 1856 2470 
Q 1656 2200 1656 1722 
L 1656 0 
L 538 0 
L 538 4863 
L 1656 4863 
L 1656 2988 
Q 1909 3294 2193 3439 
Q 2478 3584 2822 3584 
Q 3428 3584 3742 3212 
Q 4056 2841 4056 2131 
z
" id="DejaVuSans-Bold-68" transform="scale(0.015625)"/>
       <path d="M 2919 2988 
L 2919 4863 
L 4044 4863 
L 4044 0 
L 2919 0 
L 2919 506 
Q 2688 197 2409 53 
Q 2131 -91 1766 -91 
Q 1119 -91 703 423 
Q 288 938 288 1747 
Q 288 2556 703 3070 
Q 1119 3584 1766 3584 
Q 2128 3584 2408 3439 
Q 2688 3294 2919 2988 
z
M 2181 722 
Q 2541 722 2730 984 
Q 2919 1247 2919 1747 
Q 2919 2247 2730 2509 
Q 2541 2772 2181 2772 
Q 1825 2772 1636 2509 
Q 1447 2247 1447 1747 
Q 1447 1247 1636 984 
Q 1825 722 2181 722 
z
" id="DejaVuSans-Bold-64" transform="scale(0.015625)"/>
      </defs>
      <use xlink:href="#DejaVuSans-Bold-53"/>
      <use x="72.021484" xlink:href="#DejaVuSans-Bold-6d"/>
      <use x="176.220703" xlink:href="#DejaVuSans-Bold-6f"/>
      <use x="244.921875" xlink:href="#DejaVuSans-Bold-6f"/>
      <use x="313.623047" xlink:href="#DejaVuSans-Bold-74"/>
      <use x="361.425781" xlink:href="#DejaVuSans-Bold-68"/>
      <use x="432.617188" xlink:href="#DejaVuSans-Bold-65"/>
      <use x="500.439453" xlink:href="#DejaVuSans-Bold-64"/>
     </g>
    </g>
   </g>
  </g>
 </g>
 <defs>
  <clipPath id="p366b396f78">
   <rect height="503.56" width="1043.674229" x="87.95" y="37.72"/>
  </clipPath>
 </defs>
</svg>
