<?xml version="1.0" encoding="utf-8" standalone="no"?>
<!DOCTYPE svg PUBLIC "-//W3C//DTD SVG 1.1//EN"
  "http://www.w3.org/Graphics/SVG/1.1/DTD/svg11.dtd">
<svg height="576pt" version="1.1" viewBox="0 0 1152 576" width="1152pt" xmlns="http://www.w3.org/2000/svg" xmlns:xlink="http://www.w3.org/1999/xlink">
 <metadata>
  <rdf:RDF xmlns:cc="http://creativecommons.org/ns#" xmlns:dc="http://purl.org/dc/elements/1.1/" xmlns:rdf="http://www.w3.org/1999/02/22-rdf-syntax-ns#">
   <cc:Work>
    <dc:type rdf:resource="http://purl.org/dc/dcmitype/StillImage"/>
    <dc:date>2021-06-27T17:14:50.932657</dc:date>
    <dc:format>image/svg+xml</dc:format>
    <dc:creator>
     <cc:Agent>
      <dc:title>Matplotlib v3.4.2, https://matplotlib.org/</dc:title>
     </cc:Agent>
    </dc:creator>
   </cc:Work>
  </rdf:RDF>
 </metadata>
 <defs>
  <style type="text/css">*{stroke-linecap:butt;stroke-linejoin:round;}</style>
 </defs>
 <g id="figure_1">
  <g id="patch_1">
   <path d="M 0 576 
L 1152 576 
L 1152 0 
L 0 0 
z
" style="fill:#ffffff;"/>
  </g>
  <g id="axes_1">
   <g id="patch_2">
    <path d="M 87.95 541.28 
L 1137.96 541.28 
L 1137.96 37.72 
L 87.95 37.72 
z
" style="fill:#ffffff;"/>
   </g>
   <g id="matplotlib.axis_1">
    <g id="xtick_1">
     <g id="line2d_1">
      <defs>
       <path d="M 0 0 
L 0 3.5 
" id="m3906829c02" style="stroke:#555555;stroke-width:0.8;"/>
      </defs>
      <g>
       <use style="fill:#555555;stroke:#555555;stroke-width:0.8;" x="125.692847" xlink:href="#m3906829c02" y="541.28"/>
      </g>
     </g>
     <g id="text_1">
      <!-- Mar -->
      <g style="fill:#555555;" transform="translate(110.550972 558.917812)scale(0.14 -0.14)">
       <defs>
        <path d="M 588 4666 
L 2119 4666 
L 3181 2169 
L 4250 4666 
L 5778 4666 
L 5778 0 
L 4641 0 
L 4641 3413 
L 3566 897 
L 2803 897 
L 1728 3413 
L 1728 0 
L 588 0 
L 588 4666 
z
" id="DejaVuSans-Bold-4d" transform="scale(0.015625)"/>
        <path d="M 2106 1575 
Q 1756 1575 1579 1456 
Q 1403 1338 1403 1106 
Q 1403 894 1545 773 
Q 1688 653 1941 653 
Q 2256 653 2472 879 
Q 2688 1106 2688 1447 
L 2688 1575 
L 2106 1575 
z
M 3816 1997 
L 3816 0 
L 2688 0 
L 2688 519 
Q 2463 200 2181 54 
Q 1900 -91 1497 -91 
Q 953 -91 614 226 
Q 275 544 275 1050 
Q 275 1666 698 1953 
Q 1122 2241 2028 2241 
L 2688 2241 
L 2688 2328 
Q 2688 2594 2478 2717 
Q 2269 2841 1825 2841 
Q 1466 2841 1156 2769 
Q 847 2697 581 2553 
L 581 3406 
Q 941 3494 1303 3539 
Q 1666 3584 2028 3584 
Q 2975 3584 3395 3211 
Q 3816 2838 3816 1997 
z
" id="DejaVuSans-Bold-61" transform="scale(0.015625)"/>
        <path d="M 3138 2547 
Q 2991 2616 2845 2648 
Q 2700 2681 2553 2681 
Q 2122 2681 1889 2404 
Q 1656 2128 1656 1613 
L 1656 0 
L 538 0 
L 538 3500 
L 1656 3500 
L 1656 2925 
Q 1872 3269 2151 3426 
Q 2431 3584 2822 3584 
Q 2878 3584 2943 3579 
Q 3009 3575 3134 3559 
L 3138 2547 
z
" id="DejaVuSans-Bold-72" transform="scale(0.015625)"/>
       </defs>
       <use xlink:href="#DejaVuSans-Bold-4d"/>
       <use x="99.511719" xlink:href="#DejaVuSans-Bold-61"/>
       <use x="166.992188" xlink:href="#DejaVuSans-Bold-72"/>
      </g>
     </g>
    </g>
    <g id="xtick_2">
     <g id="line2d_2">
      <g>
       <use style="fill:#555555;stroke:#555555;stroke-width:0.8;" x="187.599104" xlink:href="#m3906829c02" y="541.28"/>
      </g>
     </g>
     <g id="text_2">
      <!-- Apr -->
      <g style="fill:#555555;" transform="translate(173.719417 558.917812)scale(0.14 -0.14)">
       <defs>
        <path d="M 3419 850 
L 1538 850 
L 1241 0 
L 31 0 
L 1759 4666 
L 3194 4666 
L 4922 0 
L 3713 0 
L 3419 850 
z
M 1838 1716 
L 3116 1716 
L 2478 3572 
L 1838 1716 
z
" id="DejaVuSans-Bold-41" transform="scale(0.015625)"/>
        <path d="M 1656 506 
L 1656 -1331 
L 538 -1331 
L 538 3500 
L 1656 3500 
L 1656 2988 
Q 1888 3294 2169 3439 
Q 2450 3584 2816 3584 
Q 3463 3584 3878 3070 
Q 4294 2556 4294 1747 
Q 4294 938 3878 423 
Q 3463 -91 2816 -91 
Q 2450 -91 2169 54 
Q 1888 200 1656 506 
z
M 2400 2772 
Q 2041 2772 1848 2508 
Q 1656 2244 1656 1747 
Q 1656 1250 1848 986 
Q 2041 722 2400 722 
Q 2759 722 2948 984 
Q 3138 1247 3138 1747 
Q 3138 2247 2948 2509 
Q 2759 2772 2400 2772 
z
" id="DejaVuSans-Bold-70" transform="scale(0.015625)"/>
       </defs>
       <use xlink:href="#DejaVuSans-Bold-41"/>
       <use x="77.392578" xlink:href="#DejaVuSans-Bold-70"/>
       <use x="148.974609" xlink:href="#DejaVuSans-Bold-72"/>
      </g>
     </g>
    </g>
    <g id="xtick_3">
     <g id="line2d_3">
      <g>
       <use style="fill:#555555;stroke:#555555;stroke-width:0.8;" x="247.508385" xlink:href="#m3906829c02" y="541.28"/>
      </g>
     </g>
     <g id="text_3">
      <!-- May -->
      <g style="fill:#555555;" transform="translate(231.47401 558.808437)scale(0.14 -0.14)">
       <defs>
        <path d="M 78 3500 
L 1197 3500 
L 2138 1125 
L 2938 3500 
L 4056 3500 
L 2584 -331 
Q 2363 -916 2067 -1148 
Q 1772 -1381 1288 -1381 
L 641 -1381 
L 641 -647 
L 991 -647 
Q 1275 -647 1404 -556 
Q 1534 -466 1606 -231 
L 1638 -134 
L 78 3500 
z
" id="DejaVuSans-Bold-79" transform="scale(0.015625)"/>
       </defs>
       <use xlink:href="#DejaVuSans-Bold-4d"/>
       <use x="99.511719" xlink:href="#DejaVuSans-Bold-61"/>
       <use x="163.867188" xlink:href="#DejaVuSans-Bold-79"/>
      </g>
     </g>
    </g>
    <g id="xtick_4">
     <g id="line2d_4">
      <g>
       <use style="fill:#555555;stroke:#555555;stroke-width:0.8;" x="309.414642" xlink:href="#m3906829c02" y="541.28"/>
      </g>
     </g>
     <g id="text_4">
      <!-- Jun -->
      <g style="fill:#555555;" transform="translate(296.844174 558.917812)scale(0.14 -0.14)">
       <defs>
        <path d="M 588 4666 
L 1791 4666 
L 1791 453 
Q 1791 -419 1317 -850 
Q 844 -1281 -116 -1281 
L -359 -1281 
L -359 -372 
L -172 -372 
Q 203 -372 395 -162 
Q 588 47 588 453 
L 588 4666 
z
" id="DejaVuSans-Bold-4a" transform="scale(0.015625)"/>
        <path d="M 500 1363 
L 500 3500 
L 1625 3500 
L 1625 3150 
Q 1625 2866 1622 2436 
Q 1619 2006 1619 1863 
Q 1619 1441 1641 1255 
Q 1663 1069 1716 984 
Q 1784 875 1895 815 
Q 2006 756 2150 756 
Q 2500 756 2700 1025 
Q 2900 1294 2900 1772 
L 2900 3500 
L 4019 3500 
L 4019 0 
L 2900 0 
L 2900 506 
Q 2647 200 2364 54 
Q 2081 -91 1741 -91 
Q 1134 -91 817 281 
Q 500 653 500 1363 
z
" id="DejaVuSans-Bold-75" transform="scale(0.015625)"/>
        <path d="M 4056 2131 
L 4056 0 
L 2931 0 
L 2931 347 
L 2931 1631 
Q 2931 2084 2911 2256 
Q 2891 2428 2841 2509 
Q 2775 2619 2662 2680 
Q 2550 2741 2406 2741 
Q 2056 2741 1856 2470 
Q 1656 2200 1656 1722 
L 1656 0 
L 538 0 
L 538 3500 
L 1656 3500 
L 1656 2988 
Q 1909 3294 2193 3439 
Q 2478 3584 2822 3584 
Q 3428 3584 3742 3212 
Q 4056 2841 4056 2131 
z
" id="DejaVuSans-Bold-6e" transform="scale(0.015625)"/>
       </defs>
       <use xlink:href="#DejaVuSans-Bold-4a"/>
       <use x="37.207031" xlink:href="#DejaVuSans-Bold-75"/>
       <use x="108.398438" xlink:href="#DejaVuSans-Bold-6e"/>
      </g>
     </g>
    </g>
    <g id="xtick_5">
     <g id="line2d_5">
      <g>
       <use style="fill:#555555;stroke:#555555;stroke-width:0.8;" x="369.323924" xlink:href="#m3906829c02" y="541.28"/>
      </g>
     </g>
     <g id="text_5">
      <!-- Jul -->
      <g style="fill:#555555;" transform="translate(359.336892 558.917812)scale(0.14 -0.14)">
       <defs>
        <path d="M 538 4863 
L 1656 4863 
L 1656 0 
L 538 0 
L 538 4863 
z
" id="DejaVuSans-Bold-6c" transform="scale(0.015625)"/>
       </defs>
       <use xlink:href="#DejaVuSans-Bold-4a"/>
       <use x="37.207031" xlink:href="#DejaVuSans-Bold-75"/>
       <use x="108.398438" xlink:href="#DejaVuSans-Bold-6c"/>
      </g>
     </g>
    </g>
    <g id="xtick_6">
     <g id="line2d_6">
      <g>
       <use style="fill:#555555;stroke:#555555;stroke-width:0.8;" x="431.230181" xlink:href="#m3906829c02" y="541.28"/>
      </g>
     </g>
     <g id="text_6">
      <!-- Aug -->
      <g style="fill:#555555;" transform="translate(415.819243 558.808437)scale(0.14 -0.14)">
       <defs>
        <path d="M 2919 594 
Q 2688 288 2409 144 
Q 2131 0 1766 0 
Q 1125 0 706 504 
Q 288 1009 288 1791 
Q 288 2575 706 3076 
Q 1125 3578 1766 3578 
Q 2131 3578 2409 3434 
Q 2688 3291 2919 2981 
L 2919 3500 
L 4044 3500 
L 4044 353 
Q 4044 -491 3511 -936 
Q 2978 -1381 1966 -1381 
Q 1638 -1381 1331 -1331 
Q 1025 -1281 716 -1178 
L 716 -306 
Q 1009 -475 1290 -558 
Q 1572 -641 1856 -641 
Q 2406 -641 2662 -400 
Q 2919 -159 2919 353 
L 2919 594 
z
M 2181 2772 
Q 1834 2772 1640 2515 
Q 1447 2259 1447 1791 
Q 1447 1309 1634 1061 
Q 1822 813 2181 813 
Q 2531 813 2725 1069 
Q 2919 1325 2919 1791 
Q 2919 2259 2725 2515 
Q 2531 2772 2181 2772 
z
" id="DejaVuSans-Bold-67" transform="scale(0.015625)"/>
       </defs>
       <use xlink:href="#DejaVuSans-Bold-41"/>
       <use x="77.392578" xlink:href="#DejaVuSans-Bold-75"/>
       <use x="148.583984" xlink:href="#DejaVuSans-Bold-67"/>
      </g>
     </g>
    </g>
    <g id="xtick_7">
     <g id="line2d_7">
      <g>
       <use style="fill:#555555;stroke:#555555;stroke-width:0.8;" x="493.136438" xlink:href="#m3906829c02" y="541.28"/>
      </g>
     </g>
     <g id="text_7">
      <!-- Sep -->
      <g style="fill:#555555;" transform="translate(478.336907 558.917812)scale(0.14 -0.14)">
       <defs>
        <path d="M 3834 4519 
L 3834 3531 
Q 3450 3703 3084 3790 
Q 2719 3878 2394 3878 
Q 1963 3878 1756 3759 
Q 1550 3641 1550 3391 
Q 1550 3203 1689 3098 
Q 1828 2994 2194 2919 
L 2706 2816 
Q 3484 2659 3812 2340 
Q 4141 2022 4141 1434 
Q 4141 663 3683 286 
Q 3225 -91 2284 -91 
Q 1841 -91 1394 -6 
Q 947 78 500 244 
L 500 1259 
Q 947 1022 1364 901 
Q 1781 781 2169 781 
Q 2563 781 2772 912 
Q 2981 1044 2981 1288 
Q 2981 1506 2839 1625 
Q 2697 1744 2272 1838 
L 1806 1941 
Q 1106 2091 782 2419 
Q 459 2747 459 3303 
Q 459 4000 909 4375 
Q 1359 4750 2203 4750 
Q 2588 4750 2994 4692 
Q 3400 4634 3834 4519 
z
" id="DejaVuSans-Bold-53" transform="scale(0.015625)"/>
        <path d="M 4031 1759 
L 4031 1441 
L 1416 1441 
Q 1456 1047 1700 850 
Q 1944 653 2381 653 
Q 2734 653 3104 758 
Q 3475 863 3866 1075 
L 3866 213 
Q 3469 63 3072 -14 
Q 2675 -91 2278 -91 
Q 1328 -91 801 392 
Q 275 875 275 1747 
Q 275 2603 792 3093 
Q 1309 3584 2216 3584 
Q 3041 3584 3536 3087 
Q 4031 2591 4031 1759 
z
M 2881 2131 
Q 2881 2450 2695 2645 
Q 2509 2841 2209 2841 
Q 1884 2841 1681 2658 
Q 1478 2475 1428 2131 
L 2881 2131 
z
" id="DejaVuSans-Bold-65" transform="scale(0.015625)"/>
       </defs>
       <use xlink:href="#DejaVuSans-Bold-53"/>
       <use x="72.021484" xlink:href="#DejaVuSans-Bold-65"/>
       <use x="139.84375" xlink:href="#DejaVuSans-Bold-70"/>
      </g>
     </g>
    </g>
    <g id="xtick_8">
     <g id="line2d_8">
      <g>
       <use style="fill:#555555;stroke:#555555;stroke-width:0.8;" x="553.045719" xlink:href="#m3906829c02" y="541.28"/>
      </g>
     </g>
     <g id="text_8">
      <!-- Oct -->
      <g style="fill:#555555;" transform="translate(539.599156 558.917812)scale(0.14 -0.14)">
       <defs>
        <path d="M 2719 3878 
Q 2169 3878 1866 3472 
Q 1563 3066 1563 2328 
Q 1563 1594 1866 1187 
Q 2169 781 2719 781 
Q 3272 781 3575 1187 
Q 3878 1594 3878 2328 
Q 3878 3066 3575 3472 
Q 3272 3878 2719 3878 
z
M 2719 4750 
Q 3844 4750 4481 4106 
Q 5119 3463 5119 2328 
Q 5119 1197 4481 553 
Q 3844 -91 2719 -91 
Q 1597 -91 958 553 
Q 319 1197 319 2328 
Q 319 3463 958 4106 
Q 1597 4750 2719 4750 
z
" id="DejaVuSans-Bold-4f" transform="scale(0.015625)"/>
        <path d="M 3366 3391 
L 3366 2478 
Q 3138 2634 2908 2709 
Q 2678 2784 2431 2784 
Q 1963 2784 1702 2511 
Q 1441 2238 1441 1747 
Q 1441 1256 1702 982 
Q 1963 709 2431 709 
Q 2694 709 2930 787 
Q 3166 866 3366 1019 
L 3366 103 
Q 3103 6 2833 -42 
Q 2563 -91 2291 -91 
Q 1344 -91 809 395 
Q 275 881 275 1747 
Q 275 2613 809 3098 
Q 1344 3584 2291 3584 
Q 2566 3584 2833 3536 
Q 3100 3488 3366 3391 
z
" id="DejaVuSans-Bold-63" transform="scale(0.015625)"/>
        <path d="M 1759 4494 
L 1759 3500 
L 2913 3500 
L 2913 2700 
L 1759 2700 
L 1759 1216 
Q 1759 972 1856 886 
Q 1953 800 2241 800 
L 2816 800 
L 2816 0 
L 1856 0 
Q 1194 0 917 276 
Q 641 553 641 1216 
L 641 2700 
L 84 2700 
L 84 3500 
L 641 3500 
L 641 4494 
L 1759 4494 
z
" id="DejaVuSans-Bold-74" transform="scale(0.015625)"/>
       </defs>
       <use xlink:href="#DejaVuSans-Bold-4f"/>
       <use x="85.009766" xlink:href="#DejaVuSans-Bold-63"/>
       <use x="144.287109" xlink:href="#DejaVuSans-Bold-74"/>
      </g>
     </g>
    </g>
    <g id="xtick_9">
     <g id="line2d_9">
      <g>
       <use style="fill:#555555;stroke:#555555;stroke-width:0.8;" x="614.951976" xlink:href="#m3906829c02" y="541.28"/>
      </g>
     </g>
     <g id="text_9">
      <!-- Nov -->
      <g style="fill:#555555;" transform="translate(599.721507 558.917812)scale(0.14 -0.14)">
       <defs>
        <path d="M 588 4666 
L 1931 4666 
L 3628 1466 
L 3628 4666 
L 4769 4666 
L 4769 0 
L 3425 0 
L 1728 3200 
L 1728 0 
L 588 0 
L 588 4666 
z
" id="DejaVuSans-Bold-4e" transform="scale(0.015625)"/>
        <path d="M 2203 2784 
Q 1831 2784 1636 2517 
Q 1441 2250 1441 1747 
Q 1441 1244 1636 976 
Q 1831 709 2203 709 
Q 2569 709 2762 976 
Q 2956 1244 2956 1747 
Q 2956 2250 2762 2517 
Q 2569 2784 2203 2784 
z
M 2203 3584 
Q 3106 3584 3614 3096 
Q 4122 2609 4122 1747 
Q 4122 884 3614 396 
Q 3106 -91 2203 -91 
Q 1297 -91 786 396 
Q 275 884 275 1747 
Q 275 2609 786 3096 
Q 1297 3584 2203 3584 
z
" id="DejaVuSans-Bold-6f" transform="scale(0.015625)"/>
        <path d="M 97 3500 
L 1216 3500 
L 2088 1081 
L 2956 3500 
L 4078 3500 
L 2700 0 
L 1472 0 
L 97 3500 
z
" id="DejaVuSans-Bold-76" transform="scale(0.015625)"/>
       </defs>
       <use xlink:href="#DejaVuSans-Bold-4e"/>
       <use x="83.691406" xlink:href="#DejaVuSans-Bold-6f"/>
       <use x="152.392578" xlink:href="#DejaVuSans-Bold-76"/>
      </g>
     </g>
    </g>
    <g id="xtick_10">
     <g id="line2d_10">
      <g>
       <use style="fill:#555555;stroke:#555555;stroke-width:0.8;" x="674.861257" xlink:href="#m3906829c02" y="541.28"/>
      </g>
     </g>
     <g id="text_10">
      <!-- Dec -->
      <g style="fill:#555555;" transform="translate(660.152507 558.917812)scale(0.14 -0.14)">
       <defs>
        <path d="M 1791 3756 
L 1791 909 
L 2222 909 
Q 2959 909 3348 1275 
Q 3738 1641 3738 2338 
Q 3738 3031 3350 3393 
Q 2963 3756 2222 3756 
L 1791 3756 
z
M 588 4666 
L 1856 4666 
Q 2919 4666 3439 4514 
Q 3959 4363 4331 4000 
Q 4659 3684 4818 3271 
Q 4978 2859 4978 2338 
Q 4978 1809 4818 1395 
Q 4659 981 4331 666 
Q 3956 303 3431 151 
Q 2906 0 1856 0 
L 588 0 
L 588 4666 
z
" id="DejaVuSans-Bold-44" transform="scale(0.015625)"/>
       </defs>
       <use xlink:href="#DejaVuSans-Bold-44"/>
       <use x="83.007812" xlink:href="#DejaVuSans-Bold-65"/>
       <use x="150.830078" xlink:href="#DejaVuSans-Bold-63"/>
      </g>
     </g>
    </g>
    <g id="xtick_11">
     <g id="line2d_11">
      <g>
       <use style="fill:#555555;stroke:#555555;stroke-width:0.8;" x="736.767514" xlink:href="#m3906829c02" y="541.28"/>
      </g>
     </g>
     <g id="text_11">
      <!-- Jan -->
      <g style="fill:#555555;" transform="translate(724.456264 558.917812)scale(0.14 -0.14)">
       <use xlink:href="#DejaVuSans-Bold-4a"/>
       <use x="37.207031" xlink:href="#DejaVuSans-Bold-61"/>
       <use x="104.6875" xlink:href="#DejaVuSans-Bold-6e"/>
      </g>
     </g>
    </g>
    <g id="xtick_12">
     <g id="line2d_12">
      <g>
       <use style="fill:#555555;stroke:#555555;stroke-width:0.8;" x="798.673771" xlink:href="#m3906829c02" y="541.28"/>
      </g>
     </g>
     <g id="text_12">
      <!-- Feb -->
      <g style="fill:#555555;" transform="translate(784.413459 558.917812)scale(0.14 -0.14)">
       <defs>
        <path d="M 588 4666 
L 3834 4666 
L 3834 3756 
L 1791 3756 
L 1791 2888 
L 3713 2888 
L 3713 1978 
L 1791 1978 
L 1791 0 
L 588 0 
L 588 4666 
z
" id="DejaVuSans-Bold-46" transform="scale(0.015625)"/>
        <path d="M 2400 722 
Q 2759 722 2948 984 
Q 3138 1247 3138 1747 
Q 3138 2247 2948 2509 
Q 2759 2772 2400 2772 
Q 2041 2772 1848 2508 
Q 1656 2244 1656 1747 
Q 1656 1250 1848 986 
Q 2041 722 2400 722 
z
M 1656 2988 
Q 1888 3294 2169 3439 
Q 2450 3584 2816 3584 
Q 3463 3584 3878 3070 
Q 4294 2556 4294 1747 
Q 4294 938 3878 423 
Q 3463 -91 2816 -91 
Q 2450 -91 2169 54 
Q 1888 200 1656 506 
L 1656 0 
L 538 0 
L 538 4863 
L 1656 4863 
L 1656 2988 
z
" id="DejaVuSans-Bold-62" transform="scale(0.015625)"/>
       </defs>
       <use xlink:href="#DejaVuSans-Bold-46"/>
       <use x="64.310547" xlink:href="#DejaVuSans-Bold-65"/>
       <use x="132.132812" xlink:href="#DejaVuSans-Bold-62"/>
      </g>
     </g>
    </g>
    <g id="xtick_13">
     <g id="line2d_13">
      <g>
       <use style="fill:#555555;stroke:#555555;stroke-width:0.8;" x="854.5891" xlink:href="#m3906829c02" y="541.28"/>
      </g>
     </g>
     <g id="text_13">
      <!-- Mar -->
      <g style="fill:#555555;" transform="translate(839.447225 558.917812)scale(0.14 -0.14)">
       <use xlink:href="#DejaVuSans-Bold-4d"/>
       <use x="99.511719" xlink:href="#DejaVuSans-Bold-61"/>
       <use x="166.992188" xlink:href="#DejaVuSans-Bold-72"/>
      </g>
     </g>
    </g>
    <g id="xtick_14">
     <g id="line2d_14">
      <g>
       <use style="fill:#555555;stroke:#555555;stroke-width:0.8;" x="916.495358" xlink:href="#m3906829c02" y="541.28"/>
      </g>
     </g>
     <g id="text_14">
      <!-- Apr -->
      <g style="fill:#555555;" transform="translate(902.61567 558.917812)scale(0.14 -0.14)">
       <use xlink:href="#DejaVuSans-Bold-41"/>
       <use x="77.392578" xlink:href="#DejaVuSans-Bold-70"/>
       <use x="148.974609" xlink:href="#DejaVuSans-Bold-72"/>
      </g>
     </g>
    </g>
    <g id="xtick_15">
     <g id="line2d_15">
      <g>
       <use style="fill:#555555;stroke:#555555;stroke-width:0.8;" x="976.404639" xlink:href="#m3906829c02" y="541.28"/>
      </g>
     </g>
     <g id="text_15">
      <!-- May -->
      <g style="fill:#555555;" transform="translate(960.370264 558.808437)scale(0.14 -0.14)">
       <use xlink:href="#DejaVuSans-Bold-4d"/>
       <use x="99.511719" xlink:href="#DejaVuSans-Bold-61"/>
       <use x="163.867188" xlink:href="#DejaVuSans-Bold-79"/>
      </g>
     </g>
    </g>
    <g id="xtick_16">
     <g id="line2d_16">
      <g>
       <use style="fill:#555555;stroke:#555555;stroke-width:0.8;" x="1038.310896" xlink:href="#m3906829c02" y="541.28"/>
      </g>
     </g>
     <g id="text_16">
      <!-- Jun -->
      <g style="fill:#555555;" transform="translate(1025.740427 558.917812)scale(0.14 -0.14)">
       <use xlink:href="#DejaVuSans-Bold-4a"/>
       <use x="37.207031" xlink:href="#DejaVuSans-Bold-75"/>
       <use x="108.398438" xlink:href="#DejaVuSans-Bold-6e"/>
      </g>
     </g>
    </g>
    <g id="xtick_17">
     <g id="line2d_17">
      <g>
       <use style="fill:#555555;stroke:#555555;stroke-width:0.8;" x="1098.220177" xlink:href="#m3906829c02" y="541.28"/>
      </g>
     </g>
     <g id="text_17">
      <!-- Jul -->
      <g style="fill:#555555;" transform="translate(1088.233146 558.917812)scale(0.14 -0.14)">
       <use xlink:href="#DejaVuSans-Bold-4a"/>
       <use x="37.207031" xlink:href="#DejaVuSans-Bold-75"/>
       <use x="108.398438" xlink:href="#DejaVuSans-Bold-6c"/>
      </g>
     </g>
    </g>
   </g>
   <g id="matplotlib.axis_2">
    <g id="ytick_1">
     <g id="line2d_18">
      <defs>
       <path d="M 0 0 
L -3.5 0 
" id="mc8ebb64ef6" style="stroke:#555555;stroke-width:0.8;"/>
      </defs>
      <g>
       <use style="fill:#555555;stroke:#555555;stroke-width:0.8;" x="87.95" xlink:href="#mc8ebb64ef6" y="519.485405"/>
      </g>
     </g>
     <g id="text_18">
      <!-- 0 -->
      <g style="fill:#555555;" transform="translate(71.209063 524.804311)scale(0.14 -0.14)">
       <defs>
        <path d="M 2944 2338 
Q 2944 3213 2780 3570 
Q 2616 3928 2228 3928 
Q 1841 3928 1675 3570 
Q 1509 3213 1509 2338 
Q 1509 1453 1675 1090 
Q 1841 728 2228 728 
Q 2613 728 2778 1090 
Q 2944 1453 2944 2338 
z
M 4147 2328 
Q 4147 1169 3647 539 
Q 3147 -91 2228 -91 
Q 1306 -91 806 539 
Q 306 1169 306 2328 
Q 306 3491 806 4120 
Q 1306 4750 2228 4750 
Q 3147 4750 3647 4120 
Q 4147 3491 4147 2328 
z
" id="DejaVuSans-Bold-30" transform="scale(0.015625)"/>
       </defs>
       <use xlink:href="#DejaVuSans-Bold-30"/>
      </g>
     </g>
    </g>
    <g id="ytick_2">
     <g id="line2d_19">
      <g>
       <use style="fill:#555555;stroke:#555555;stroke-width:0.8;" x="87.95" xlink:href="#mc8ebb64ef6" y="448.872754"/>
      </g>
     </g>
     <g id="text_19">
      <!-- 2000 -->
      <g style="fill:#555555;" transform="translate(41.98625 454.19166)scale(0.14 -0.14)">
       <defs>
        <path d="M 1844 884 
L 3897 884 
L 3897 0 
L 506 0 
L 506 884 
L 2209 2388 
Q 2438 2594 2547 2791 
Q 2656 2988 2656 3200 
Q 2656 3528 2436 3728 
Q 2216 3928 1850 3928 
Q 1569 3928 1234 3808 
Q 900 3688 519 3450 
L 519 4475 
Q 925 4609 1322 4679 
Q 1719 4750 2100 4750 
Q 2938 4750 3402 4381 
Q 3866 4013 3866 3353 
Q 3866 2972 3669 2642 
Q 3472 2313 2841 1759 
L 1844 884 
z
" id="DejaVuSans-Bold-32" transform="scale(0.015625)"/>
       </defs>
       <use xlink:href="#DejaVuSans-Bold-32"/>
       <use x="69.580078" xlink:href="#DejaVuSans-Bold-30"/>
       <use x="139.160156" xlink:href="#DejaVuSans-Bold-30"/>
       <use x="208.740234" xlink:href="#DejaVuSans-Bold-30"/>
      </g>
     </g>
    </g>
    <g id="ytick_3">
     <g id="line2d_20">
      <g>
       <use style="fill:#555555;stroke:#555555;stroke-width:0.8;" x="87.95" xlink:href="#mc8ebb64ef6" y="378.260103"/>
      </g>
     </g>
     <g id="text_20">
      <!-- 4000 -->
      <g style="fill:#555555;" transform="translate(41.98625 383.579009)scale(0.14 -0.14)">
       <defs>
        <path d="M 2356 3675 
L 1038 1722 
L 2356 1722 
L 2356 3675 
z
M 2156 4666 
L 3494 4666 
L 3494 1722 
L 4159 1722 
L 4159 850 
L 3494 850 
L 3494 0 
L 2356 0 
L 2356 850 
L 288 850 
L 288 1881 
L 2156 4666 
z
" id="DejaVuSans-Bold-34" transform="scale(0.015625)"/>
       </defs>
       <use xlink:href="#DejaVuSans-Bold-34"/>
       <use x="69.580078" xlink:href="#DejaVuSans-Bold-30"/>
       <use x="139.160156" xlink:href="#DejaVuSans-Bold-30"/>
       <use x="208.740234" xlink:href="#DejaVuSans-Bold-30"/>
      </g>
     </g>
    </g>
    <g id="ytick_4">
     <g id="line2d_21">
      <g>
       <use style="fill:#555555;stroke:#555555;stroke-width:0.8;" x="87.95" xlink:href="#mc8ebb64ef6" y="307.647451"/>
      </g>
     </g>
     <g id="text_21">
      <!-- 6000 -->
      <g style="fill:#555555;" transform="translate(41.98625 312.966358)scale(0.14 -0.14)">
       <defs>
        <path d="M 2316 2303 
Q 2000 2303 1842 2098 
Q 1684 1894 1684 1484 
Q 1684 1075 1842 870 
Q 2000 666 2316 666 
Q 2634 666 2792 870 
Q 2950 1075 2950 1484 
Q 2950 1894 2792 2098 
Q 2634 2303 2316 2303 
z
M 3803 4544 
L 3803 3681 
Q 3506 3822 3243 3889 
Q 2981 3956 2731 3956 
Q 2194 3956 1894 3657 
Q 1594 3359 1544 2772 
Q 1750 2925 1990 3001 
Q 2231 3078 2516 3078 
Q 3231 3078 3670 2659 
Q 4109 2241 4109 1563 
Q 4109 813 3618 361 
Q 3128 -91 2303 -91 
Q 1394 -91 895 523 
Q 397 1138 397 2266 
Q 397 3422 980 4083 
Q 1563 4744 2578 4744 
Q 2900 4744 3203 4694 
Q 3506 4644 3803 4544 
z
" id="DejaVuSans-Bold-36" transform="scale(0.015625)"/>
       </defs>
       <use xlink:href="#DejaVuSans-Bold-36"/>
       <use x="69.580078" xlink:href="#DejaVuSans-Bold-30"/>
       <use x="139.160156" xlink:href="#DejaVuSans-Bold-30"/>
       <use x="208.740234" xlink:href="#DejaVuSans-Bold-30"/>
      </g>
     </g>
    </g>
    <g id="ytick_5">
     <g id="line2d_22">
      <g>
       <use style="fill:#555555;stroke:#555555;stroke-width:0.8;" x="87.95" xlink:href="#mc8ebb64ef6" y="237.0348"/>
      </g>
     </g>
     <g id="text_22">
      <!-- 8000 -->
      <g style="fill:#555555;" transform="translate(41.98625 242.353706)scale(0.14 -0.14)">
       <defs>
        <path d="M 2228 2088 
Q 1891 2088 1709 1903 
Q 1528 1719 1528 1375 
Q 1528 1031 1709 848 
Q 1891 666 2228 666 
Q 2563 666 2741 848 
Q 2919 1031 2919 1375 
Q 2919 1722 2741 1905 
Q 2563 2088 2228 2088 
z
M 1350 2484 
Q 925 2613 709 2878 
Q 494 3144 494 3541 
Q 494 4131 934 4440 
Q 1375 4750 2228 4750 
Q 3075 4750 3515 4442 
Q 3956 4134 3956 3541 
Q 3956 3144 3739 2878 
Q 3522 2613 3097 2484 
Q 3572 2353 3814 2058 
Q 4056 1763 4056 1313 
Q 4056 619 3595 264 
Q 3134 -91 2228 -91 
Q 1319 -91 855 264 
Q 391 619 391 1313 
Q 391 1763 633 2058 
Q 875 2353 1350 2484 
z
M 1631 3419 
Q 1631 3141 1786 2991 
Q 1941 2841 2228 2841 
Q 2509 2841 2662 2991 
Q 2816 3141 2816 3419 
Q 2816 3697 2662 3845 
Q 2509 3994 2228 3994 
Q 1941 3994 1786 3844 
Q 1631 3694 1631 3419 
z
" id="DejaVuSans-Bold-38" transform="scale(0.015625)"/>
       </defs>
       <use xlink:href="#DejaVuSans-Bold-38"/>
       <use x="69.580078" xlink:href="#DejaVuSans-Bold-30"/>
       <use x="139.160156" xlink:href="#DejaVuSans-Bold-30"/>
       <use x="208.740234" xlink:href="#DejaVuSans-Bold-30"/>
      </g>
     </g>
    </g>
    <g id="ytick_6">
     <g id="line2d_23">
      <g>
       <use style="fill:#555555;stroke:#555555;stroke-width:0.8;" x="87.95" xlink:href="#mc8ebb64ef6" y="166.422149"/>
      </g>
     </g>
     <g id="text_23">
      <!-- 10000 -->
      <g style="fill:#555555;" transform="translate(32.245313 171.741055)scale(0.14 -0.14)">
       <defs>
        <path d="M 750 831 
L 1813 831 
L 1813 3847 
L 722 3622 
L 722 4441 
L 1806 4666 
L 2950 4666 
L 2950 831 
L 4013 831 
L 4013 0 
L 750 0 
L 750 831 
z
" id="DejaVuSans-Bold-31" transform="scale(0.015625)"/>
       </defs>
       <use xlink:href="#DejaVuSans-Bold-31"/>
       <use x="69.580078" xlink:href="#DejaVuSans-Bold-30"/>
       <use x="139.160156" xlink:href="#DejaVuSans-Bold-30"/>
       <use x="208.740234" xlink:href="#DejaVuSans-Bold-30"/>
       <use x="278.320312" xlink:href="#DejaVuSans-Bold-30"/>
      </g>
     </g>
    </g>
    <g id="ytick_7">
     <g id="line2d_24">
      <g>
       <use style="fill:#555555;stroke:#555555;stroke-width:0.8;" x="87.95" xlink:href="#mc8ebb64ef6" y="95.809498"/>
      </g>
     </g>
     <g id="text_24">
      <!-- 12000 -->
      <g style="fill:#555555;" transform="translate(32.245313 101.128404)scale(0.14 -0.14)">
       <use xlink:href="#DejaVuSans-Bold-31"/>
       <use x="69.580078" xlink:href="#DejaVuSans-Bold-32"/>
       <use x="139.160156" xlink:href="#DejaVuSans-Bold-30"/>
       <use x="208.740234" xlink:href="#DejaVuSans-Bold-30"/>
       <use x="278.320312" xlink:href="#DejaVuSans-Bold-30"/>
      </g>
     </g>
    </g>
    <g id="text_25">
     <!-- New Cases -->
     <g style="fill:#555555;" transform="translate(24.917813 333.23875)rotate(-90)scale(0.16 -0.16)">
      <defs>
       <path d="M 628 4666 
L 1478 4666 
L 3547 763 
L 3547 4666 
L 4159 4666 
L 4159 0 
L 3309 0 
L 1241 3903 
L 1241 0 
L 628 0 
L 628 4666 
z
" id="DejaVuSans-4e" transform="scale(0.015625)"/>
       <path d="M 3597 1894 
L 3597 1613 
L 953 1613 
Q 991 1019 1311 708 
Q 1631 397 2203 397 
Q 2534 397 2845 478 
Q 3156 559 3463 722 
L 3463 178 
Q 3153 47 2828 -22 
Q 2503 -91 2169 -91 
Q 1331 -91 842 396 
Q 353 884 353 1716 
Q 353 2575 817 3079 
Q 1281 3584 2069 3584 
Q 2775 3584 3186 3129 
Q 3597 2675 3597 1894 
z
M 3022 2063 
Q 3016 2534 2758 2815 
Q 2500 3097 2075 3097 
Q 1594 3097 1305 2825 
Q 1016 2553 972 2059 
L 3022 2063 
z
" id="DejaVuSans-65" transform="scale(0.015625)"/>
       <path d="M 269 3500 
L 844 3500 
L 1563 769 
L 2278 3500 
L 2956 3500 
L 3675 769 
L 4391 3500 
L 4966 3500 
L 4050 0 
L 3372 0 
L 2619 2869 
L 1863 0 
L 1184 0 
L 269 3500 
z
" id="DejaVuSans-77" transform="scale(0.015625)"/>
       <path id="DejaVuSans-20" transform="scale(0.015625)"/>
       <path d="M 4122 4306 
L 4122 3641 
Q 3803 3938 3442 4084 
Q 3081 4231 2675 4231 
Q 1875 4231 1450 3742 
Q 1025 3253 1025 2328 
Q 1025 1406 1450 917 
Q 1875 428 2675 428 
Q 3081 428 3442 575 
Q 3803 722 4122 1019 
L 4122 359 
Q 3791 134 3420 21 
Q 3050 -91 2638 -91 
Q 1578 -91 968 557 
Q 359 1206 359 2328 
Q 359 3453 968 4101 
Q 1578 4750 2638 4750 
Q 3056 4750 3426 4639 
Q 3797 4528 4122 4306 
z
" id="DejaVuSans-43" transform="scale(0.015625)"/>
       <path d="M 2194 1759 
Q 1497 1759 1228 1600 
Q 959 1441 959 1056 
Q 959 750 1161 570 
Q 1363 391 1709 391 
Q 2188 391 2477 730 
Q 2766 1069 2766 1631 
L 2766 1759 
L 2194 1759 
z
M 3341 1997 
L 3341 0 
L 2766 0 
L 2766 531 
Q 2569 213 2275 61 
Q 1981 -91 1556 -91 
Q 1019 -91 701 211 
Q 384 513 384 1019 
Q 384 1609 779 1909 
Q 1175 2209 1959 2209 
L 2766 2209 
L 2766 2266 
Q 2766 2663 2505 2880 
Q 2244 3097 1772 3097 
Q 1472 3097 1187 3025 
Q 903 2953 641 2809 
L 641 3341 
Q 956 3463 1253 3523 
Q 1550 3584 1831 3584 
Q 2591 3584 2966 3190 
Q 3341 2797 3341 1997 
z
" id="DejaVuSans-61" transform="scale(0.015625)"/>
       <path d="M 2834 3397 
L 2834 2853 
Q 2591 2978 2328 3040 
Q 2066 3103 1784 3103 
Q 1356 3103 1142 2972 
Q 928 2841 928 2578 
Q 928 2378 1081 2264 
Q 1234 2150 1697 2047 
L 1894 2003 
Q 2506 1872 2764 1633 
Q 3022 1394 3022 966 
Q 3022 478 2636 193 
Q 2250 -91 1575 -91 
Q 1294 -91 989 -36 
Q 684 19 347 128 
L 347 722 
Q 666 556 975 473 
Q 1284 391 1588 391 
Q 1994 391 2212 530 
Q 2431 669 2431 922 
Q 2431 1156 2273 1281 
Q 2116 1406 1581 1522 
L 1381 1569 
Q 847 1681 609 1914 
Q 372 2147 372 2553 
Q 372 3047 722 3315 
Q 1072 3584 1716 3584 
Q 2034 3584 2315 3537 
Q 2597 3491 2834 3397 
z
" id="DejaVuSans-73" transform="scale(0.015625)"/>
      </defs>
      <use xlink:href="#DejaVuSans-4e"/>
      <use x="74.804688" xlink:href="#DejaVuSans-65"/>
      <use x="136.328125" xlink:href="#DejaVuSans-77"/>
      <use x="218.115234" xlink:href="#DejaVuSans-20"/>
      <use x="249.902344" xlink:href="#DejaVuSans-43"/>
      <use x="319.726562" xlink:href="#DejaVuSans-61"/>
      <use x="381.005859" xlink:href="#DejaVuSans-73"/>
      <use x="433.105469" xlink:href="#DejaVuSans-65"/>
      <use x="494.628906" xlink:href="#DejaVuSans-73"/>
     </g>
    </g>
   </g>
   <g id="line2d_25">
    <path clip-path="url(#peb19bf6af8)" d="M 135.677727 518.073152 
L 137.674703 517.720089 
L 139.671679 518.355603 
L 141.668655 517.331719 
L 143.665631 514.895583 
L 145.662607 515.142727 
L 147.659583 515.001502 
L 149.65656 515.49579 
L 151.653536 511.75332 
L 153.650512 513.377411 
L 155.647488 509.952697 
L 157.644464 509.317183 
L 159.64144 507.23411 
L 161.638416 505.5041 
L 163.635392 500.667134 
L 165.632368 496.995276 
L 167.629344 498.125078 
L 169.62632 499.961007 
L 171.623296 493.040967 
L 173.620272 489.722173 
L 177.614224 478.282923 
L 179.6112 479.024356 
L 181.608176 480.930898 
L 183.605152 488.662983 
L 185.602128 490.03993 
L 187.599104 483.896629 
L 189.59608 481.248655 
L 191.593056 483.472953 
L 193.590032 484.108467 
L 195.587008 480.683753 
L 199.58096 491.875859 
L 201.577936 485.626639 
L 203.574913 476.835364 
L 205.571889 472.633911 
L 207.568865 473.551876 
L 209.565841 478.141698 
L 211.562817 485.626639 
L 213.559793 489.051352 
L 215.556769 493.711787 
L 217.553745 481.742943 
L 219.550721 475.917399 
L 221.547697 477.612103 
L 223.544673 483.367034 
L 225.541649 493.076274 
L 227.538625 494.206076 
L 229.535601 494.488527 
L 231.532577 488.627677 
L 233.529553 491.063813 
L 235.526529 496.642212 
L 237.523505 496.500987 
L 239.520481 505.186343 
L 241.517457 512.671284 
L 243.514433 505.786551 
L 245.511409 501.585098 
L 247.508385 502.608982 
L 249.505361 504.056541 
L 251.502337 507.551867 
L 253.499313 512.388834 
L 255.496289 508.222687 
L 257.493266 508.222687 
L 259.490242 506.739822 
L 261.487218 508.222687 
L 263.484194 509.317183 
L 265.48117 510.941274 
L 267.478146 513.165573 
L 269.475122 512.600672 
L 271.472098 511.612095 
L 273.469074 509.811472 
L 275.46605 512.353527 
L 277.463026 512.635978 
L 279.460002 515.072114 
L 281.456978 514.260069 
L 283.453954 515.566403 
L 285.45093 512.883122 
L 287.447906 510.517598 
L 289.444882 512.989041 
L 293.438834 513.377411 
L 295.43581 511.965158 
L 297.432786 514.930889 
L 299.429762 512.635978 
L 301.426738 513.200879 
L 303.423714 513.200879 
L 305.42069 514.507213 
L 307.417666 513.271492 
L 309.414642 515.813547 
L 311.411618 516.131304 
L 313.408595 516.201917 
L 315.405571 512.847816 
L 317.402547 511.823933 
L 319.399523 512.777203 
L 321.396499 511.047193 
L 323.393475 513.624555 
L 325.390451 513.695168 
L 327.387427 513.09496 
L 329.384403 513.76578 
L 331.381379 512.176996 
L 333.378355 513.09496 
L 335.375331 514.401294 
L 337.372307 513.871699 
L 339.369283 514.754358 
L 341.366259 515.49579 
L 343.363235 515.107421 
L 347.357187 516.307836 
L 349.354163 516.131304 
L 351.351139 517.084575 
L 353.348115 517.013962 
L 355.345091 516.660899 
L 357.342067 515.601709 
L 361.336019 516.766818 
L 363.332995 517.155188 
L 365.329971 516.802124 
L 367.326948 517.472945 
L 369.323924 517.296413 
L 371.3209 516.837431 
L 373.317876 516.802124 
L 375.314852 517.190494 
L 377.311828 516.94335 
L 379.308804 518.037846 
L 381.30578 518.28499 
L 383.302756 517.472945 
L 387.296708 517.190494 
L 389.293684 516.519674 
L 391.29066 516.131304 
L 393.287636 516.94335 
L 395.284612 516.025385 
L 399.278564 515.283952 
L 401.27554 515.637016 
L 403.272516 514.365988 
L 405.269492 514.365988 
L 407.266468 513.024348 
L 409.263444 513.518636 
L 411.26042 513.48333 
L 415.254372 514.012925 
L 419.248324 511.965158 
L 421.2453 512.106383 
L 423.242277 511.576788 
L 425.239253 510.729436 
L 427.236229 507.445948 
L 429.233205 507.445948 
L 431.230181 504.268379 
L 433.227157 506.810434 
L 435.224133 506.351452 
L 437.221109 502.291225 
L 439.218085 504.374298 
L 441.215061 498.125078 
L 443.212037 501.232035 
L 445.209013 502.397144 
L 447.205989 499.113655 
L 449.202965 491.699327 
L 451.199941 497.595483 
L 453.196917 496.500987 
L 455.193893 499.148962 
L 457.190869 497.348339 
L 459.187845 496.324456 
L 461.184821 501.867549 
L 463.181797 502.326531 
L 465.178773 502.079387 
L 467.175749 499.961007 
L 469.172725 500.737746 
L 471.169701 500.667134 
L 473.166677 501.585098 
L 475.163653 503.421027 
L 477.16063 499.254881 
L 479.157606 504.797974 
L 481.154582 499.290187 
L 483.151558 501.549792 
L 485.148534 501.796936 
L 489.142486 501.620404 
L 491.139462 500.914278 
L 493.136438 502.997351 
L 495.133414 494.064851 
L 497.13039 498.336916 
L 499.127366 493.252805 
L 501.124342 496.5716 
L 503.121318 487.003586 
L 505.118294 491.416876 
L 509.112246 479.236194 
L 511.109222 489.934011 
L 513.106198 474.611065 
L 515.103174 476.341075 
L 517.10015 481.107429 
L 519.097126 473.693101 
L 521.094102 470.903901 
L 523.091078 465.219583 
L 525.088054 458.087705 
L 527.08503 450.390926 
L 529.082006 452.685837 
L 531.078983 454.380541 
L 533.075959 441.387813 
L 535.072935 440.505155 
L 537.069911 437.080441 
L 539.066887 429.948563 
L 541.063863 421.898721 
L 543.060839 424.158326 
L 545.057815 414.41378 
L 547.054791 417.026448 
L 549.051767 413.425203 
L 551.048743 403.468819 
L 553.045719 404.633928 
L 555.042695 385.180142 
L 557.039671 380.555014 
L 559.036647 378.86031 
L 561.033623 358.665092 
L 563.030599 359.93612 
L 565.027575 343.942354 
L 567.024551 315.273618 
L 569.021527 309.024398 
L 571.018503 290.771028 
L 573.015479 295.572688 
L 575.012455 279.296472 
L 577.009431 260.548813 
L 579.006407 263.443932 
L 581.003383 244.872804 
L 583.000359 238.76481 
L 584.997335 233.327636 
L 586.994312 231.809464 
L 588.991288 237.529089 
L 590.988264 231.950689 
L 592.98524 211.790777 
L 594.982216 192.866587 
L 596.979192 167.340113 
L 598.976168 214.368139 
L 600.973144 160.490686 
L 602.97012 155.724332 
L 604.967096 156.99536 
L 606.964072 234.316213 
L 608.961048 157.701486 
L 610.958024 128.750299 
L 612.955 174.471991 
L 614.951976 213.061805 
L 616.948952 227.678624 
L 618.945928 246.285057 
L 620.942904 251.15733 
L 622.93988 274.247667 
L 624.936856 264.32659 
L 626.933832 285.898755 
L 630.927784 354.604864 
L 632.92476 355.522829 
L 634.921736 329.431454 
L 636.918712 321.099161 
L 638.915688 305.246621 
L 640.912665 311.248697 
L 642.909641 328.195733 
L 646.903593 368.339025 
L 648.900569 357.570596 
L 650.897545 318.698331 
L 652.894521 310.048282 
L 654.891497 307.506226 
L 656.888473 330.314112 
L 658.885449 336.563332 
L 660.882425 380.131338 
L 662.879401 346.131346 
L 664.876377 361.736742 
L 666.873353 316.40342 
L 668.870329 361.842661 
L 670.867305 323.005703 
L 672.864281 358.064884 
L 674.861257 376.918462 
L 676.858233 346.201959 
L 678.855209 321.98182 
L 680.852185 311.495841 
L 682.849161 288.970405 
L 684.846137 280.779338 
L 686.843113 269.022331 
L 688.840089 303.445999 
L 690.837065 288.44081 
L 692.834041 212.002615 
L 694.831017 207.483406 
L 696.827994 197.421103 
L 698.82497 170.729521 
L 700.821946 220.758584 
L 702.818922 285.36916 
L 704.815898 125.254973 
L 706.812874 68.341176 
L 708.80985 97.32767 
L 710.806826 87.900881 
L 712.803802 60.609091 
L 714.800778 125.608036 
L 716.797754 172.706675 
L 718.79473 152.546763 
L 720.791706 113.674498 
L 722.788682 113.639192 
L 724.785658 172.953819 
L 726.782634 201.551943 
L 728.77961 258.289208 
L 730.776586 254.052449 
L 732.773562 185.875934 
L 734.770538 178.249768 
L 736.767514 231.068031 
L 738.76449 216.239374 
L 740.761466 258.359821 
L 742.758442 285.333854 
L 744.755418 294.619417 
L 746.752394 269.163556 
L 748.74937 177.790786 
L 750.746347 233.080492 
L 752.743323 260.690038 
L 754.740299 286.393043 
L 756.737275 327.136543 
L 758.734251 345.001544 
L 760.731227 304.434576 
L 762.728203 290.029595 
L 764.725179 306.729487 
L 766.722155 332.538411 
L 768.719131 322.405495 
L 770.716107 350.579943 
L 772.713083 367.844737 
L 774.710059 322.864478 
L 776.707035 314.532185 
L 778.704011 316.615258 
L 780.700987 327.207156 
L 782.697963 347.15523 
L 784.694939 375.11784 
L 786.691915 379.707662 
L 788.688891 352.663017 
L 790.685867 353.863432 
L 792.682843 364.208185 
L 794.679819 372.187415 
L 796.676795 389.62874 
L 798.673771 405.163523 
L 800.670747 394.218562 
L 802.667723 377.624589 
L 804.6647 371.198838 
L 806.661676 366.997385 
L 808.658652 375.11784 
L 810.655628 381.155221 
L 812.652604 439.799028 
L 814.64958 457.381578 
L 816.646556 407.458434 
L 818.643532 363.184302 
L 820.640508 366.714934 
L 822.637484 372.187415 
L 824.63446 398.525934 
L 826.631436 419.144828 
L 828.628412 424.511389 
L 830.625388 400.5737 
L 832.622364 358.559173 
L 834.61934 354.393027 
L 836.616316 359.229993 
L 838.613292 354.640171 
L 840.610268 371.94027 
L 842.607244 385.003611 
L 844.60422 365.232068 
L 846.601196 343.448066 
L 848.598172 339.811514 
L 850.595148 345.70767 
L 852.592124 355.840586 
L 854.5891 387.12199 
L 856.586076 379.495824 
L 858.583052 342.141732 
L 860.580029 375.011921 
L 862.577005 354.887315 
L 864.573981 331.938203 
L 866.570957 360.324489 
L 868.567933 382.355636 
L 870.564909 368.162494 
L 872.561885 333.809439 
L 874.558861 332.467798 
L 876.555837 308.53011 
L 878.552813 294.336967 
L 880.549789 309.306849 
L 882.546765 325.230002 
L 884.543741 345.001544 
L 886.540717 310.895633 
L 888.537693 302.987016 
L 890.534669 260.054524 
L 892.531645 251.086718 
L 894.528621 273.400316 
L 898.522573 321.487531 
L 900.519549 252.710809 
L 902.516525 248.050374 
L 904.513501 252.60489 
L 906.510477 209.425253 
L 908.507453 255.747153 
L 910.504429 280.073211 
L 912.501405 312.766869 
L 914.498382 250.133447 
L 916.495358 243.425245 
L 918.492334 264.785572 
L 920.48931 251.263249 
L 922.486286 277.213399 
L 924.483262 331.161464 
L 926.480238 323.217541 
L 928.477214 294.584111 
L 930.47419 245.473012 
L 932.471166 249.038951 
L 934.468142 249.074257 
L 936.465118 232.021302 
L 938.462094 284.415889 
L 940.45907 282.156284 
L 942.456046 327.418994 
L 944.453022 212.496904 
L 946.449998 205.61217 
L 948.446974 228.1023 
L 950.44395 218.604898 
L 952.440926 266.762726 
L 954.437902 278.625652 
L 956.434878 220.370214 
L 958.431854 181.286112 
L 960.42883 193.396182 
L 962.425806 234.845808 
L 964.422782 236.328674 
L 966.419758 299.668222 
L 968.416734 332.185348 
L 970.413711 214.015076 
L 972.410687 262.314129 
L 974.407663 245.331787 
L 976.404639 315.273618 
L 978.401615 326.606948 
L 980.398591 195.126192 
L 982.395567 245.578931 
L 986.389519 281.026482 
L 988.386495 256.100216 
L 990.383471 257.265325 
L 994.377423 312.555031 
L 996.374399 324.347343 
L 998.371375 295.607994 
L 1000.368351 307.188469 
L 1002.365327 323.71183 
L 1004.362303 361.489598 
L 1006.359279 363.219608 
L 1008.356255 418.509314 
L 1010.353231 331.196771 
L 1012.350207 358.735705 
L 1014.347183 356.405487 
L 1016.344159 373.211298 
L 1018.341135 407.387821 
L 1020.338111 398.596546 
L 1022.335087 423.134443 
L 1024.332064 431.71388 
L 1026.32904 422.710767 
L 1028.326016 400.255944 
L 1030.322992 383.838502 
L 1032.319968 401.279827 
L 1034.316944 426.912219 
L 1036.31392 448.060708 
L 1038.310896 431.784492 
L 1040.307872 428.92468 
L 1042.304848 421.934027 
L 1044.301824 434.78553 
L 1046.2988 444.600689 
L 1048.295776 464.019168 
L 1050.292752 467.585107 
L 1052.289728 468.750215 
L 1054.286704 457.55811 
L 1056.28368 463.736717 
L 1058.280656 470.374306 
L 1060.277632 475.705561 
L 1062.274608 482.660908 
L 1064.271584 488.415839 
L 1066.26856 482.590295 
L 1068.265536 483.296421 
L 1070.262512 482.025394 
L 1072.259488 487.815631 
L 1074.256464 494.947509 
L 1076.25344 494.206076 
L 1078.250417 499.254881 
L 1080.247393 494.700365 
L 1082.244369 495.90078 
L 1084.241345 494.806284 
L 1086.238321 496.536294 
L 1088.235297 499.607944 
L 1090.232273 501.055503 
L 1090.232273 501.055503 
" style="fill:none;stroke:#000000;stroke-dasharray:1.5,2.475;stroke-dashoffset:0;stroke-opacity:0.5;stroke-width:1.5;"/>
   </g>
   <g id="line2d_26">
    <path clip-path="url(#peb19bf6af8)" d="M 135.677727 518.390909 
L 139.671679 517.367026 
L 147.659583 514.719051 
L 149.65656 513.942312 
L 151.653536 513.024348 
L 153.650512 511.859239 
L 155.647488 510.446986 
L 157.644464 508.646363 
L 159.64144 506.492677 
L 161.638416 504.091847 
L 169.62632 495.477104 
L 171.623296 492.44076 
L 175.617248 485.414801 
L 177.614224 483.11989 
L 179.6112 482.660908 
L 181.608176 483.296421 
L 183.605152 484.320305 
L 185.602128 485.026431 
L 187.599104 484.955819 
L 191.593056 483.508259 
L 193.590032 483.755404 
L 195.587008 484.602755 
L 197.583984 485.026431 
L 199.58096 484.249692 
L 201.577936 482.307844 
L 203.574913 479.977627 
L 205.571889 478.282923 
L 207.568865 478.212311 
L 209.565841 480.401303 
L 211.562817 483.155196 
L 213.559793 484.885206 
L 215.556769 484.920512 
L 217.553745 483.720097 
L 219.550721 482.802133 
L 221.547697 483.261115 
L 223.544673 485.238269 
L 225.541649 488.098082 
L 227.538625 490.498912 
L 229.535601 492.05239 
L 231.532577 492.864436 
L 233.529553 494.029544 
L 235.526529 496.606906 
L 239.520481 502.679594 
L 241.517457 504.515523 
L 243.514433 505.045118 
L 247.508385 505.151037 
L 249.505361 505.645326 
L 251.502337 506.881047 
L 253.499313 507.940237 
L 255.496289 508.434525 
L 259.490242 508.540444 
L 261.487218 508.858201 
L 265.48117 510.658824 
L 267.478146 511.329644 
L 269.475122 511.682707 
L 273.469074 511.965158 
L 275.46605 512.318221 
L 279.460002 513.624555 
L 281.456978 513.871699 
L 283.453954 513.695168 
L 287.447906 512.918429 
L 289.444882 512.706591 
L 291.441858 512.777203 
L 295.43581 513.200879 
L 301.426738 513.412717 
L 305.42069 514.012925 
L 307.417666 514.54252 
L 309.414642 514.860277 
L 311.411618 514.860277 
L 313.408595 514.471907 
L 317.402547 513.09496 
L 319.399523 512.706591 
L 321.396499 512.600672 
L 325.390451 513.059654 
L 331.381379 513.306798 
L 333.378355 513.48333 
L 337.372307 514.224763 
L 341.366259 515.072114 
L 349.354163 516.378449 
L 353.348115 516.55498 
L 357.342067 516.484368 
L 359.339043 516.484368 
L 369.323924 517.084575 
L 373.317876 517.084575 
L 381.30578 517.649476 
L 385.299732 517.331719 
L 393.287636 516.27253 
L 397.281588 515.742935 
L 399.278564 515.460484 
L 405.269492 514.15415 
L 407.266468 513.836393 
L 411.26042 513.553942 
L 415.254372 513.236186 
L 417.251348 512.918429 
L 419.248324 512.42414 
L 421.2453 511.718014 
L 423.242277 510.835355 
L 427.236229 508.469832 
L 431.230181 506.351452 
L 433.227157 505.610019 
L 441.215061 501.655711 
L 443.212037 500.384683 
L 445.209013 499.396106 
L 447.205989 498.160385 
L 449.202965 497.454258 
L 451.199941 496.995276 
L 453.196917 496.85405 
L 455.193893 497.383645 
L 457.190869 498.336916 
L 461.184821 499.996313 
L 463.181797 500.631827 
L 465.178773 501.020197 
L 467.175749 501.161422 
L 471.169701 501.126116 
L 473.166677 501.443873 
L 477.16063 501.691017 
L 481.154582 501.549792 
L 483.151558 501.443873 
L 485.148534 501.549792 
L 487.14551 501.514485 
L 489.142486 501.161422 
L 491.139462 500.525908 
L 495.133414 498.089772 
L 501.124342 492.687904 
L 503.121318 490.498912 
L 505.118294 488.521758 
L 509.112246 483.755404 
L 511.109222 482.0607 
L 513.106198 480.012933 
L 515.103174 478.177004 
L 517.10015 476.093931 
L 519.097126 472.775136 
L 521.094102 468.962053 
L 525.088054 459.782409 
L 527.08503 455.580956 
L 533.075959 444.459463 
L 535.072935 440.010866 
L 537.069911 435.244512 
L 539.066887 430.125095 
L 541.063863 425.85303 
L 545.057815 417.944413 
L 547.054791 414.484393 
L 549.051767 409.965183 
L 551.048743 404.139639 
L 553.045719 397.749194 
L 557.039671 381.578897 
L 559.036647 373.034766 
L 561.033623 362.513481 
L 563.030599 351.144845 
L 569.021527 311.036859 
L 571.018503 298.503113 
L 573.015479 287.840603 
L 579.006407 258.324514 
L 581.003383 249.286095 
L 583.000359 242.648506 
L 586.994312 233.645393 
L 588.991288 228.420057 
L 592.98524 211.155263 
L 596.979192 189.830243 
L 598.976168 180.403454 
L 600.973144 177.755479 
L 602.97012 175.813631 
L 604.967096 174.083621 
L 606.964072 171.435647 
L 608.961048 172.636062 
L 610.958024 176.802209 
L 612.955 187.111656 
L 614.951976 200.598672 
L 616.948952 220.864503 
L 618.945928 239.188486 
L 620.942904 253.028566 
L 622.93988 265.738843 
L 624.936856 280.955869 
L 628.930808 314.849942 
L 630.927784 327.136543 
L 632.92476 332.750249 
L 634.921736 330.984933 
L 636.918712 325.72429 
L 638.915688 322.158351 
L 640.912665 324.806326 
L 642.909641 332.64433 
L 644.906617 339.599676 
L 646.903593 342.63602 
L 648.900569 339.211306 
L 650.897545 332.397186 
L 652.894521 326.042047 
L 654.891497 326.218579 
L 656.888473 331.337996 
L 658.885449 341.047235 
L 660.882425 346.837473 
L 662.879401 350.438718 
L 664.876377 348.073194 
L 666.873353 345.884202 
L 668.870329 345.213382 
L 670.867305 347.649518 
L 672.864281 348.461564 
L 674.861257 347.543599 
L 676.858233 338.787631 
L 678.855209 327.101237 
L 680.852185 311.319309 
L 682.849161 298.4325 
L 684.846137 290.523883 
L 686.843113 281.979753 
L 688.840089 271.317242 
L 690.837065 256.629811 
L 692.834041 236.893575 
L 694.831017 219.875926 
L 696.827994 211.790777 
L 698.82497 204.906044 
L 700.821946 196.326607 
L 702.818922 179.662021 
L 704.815898 154.347385 
L 706.812874 125.890487 
L 708.80985 104.035871 
L 710.806826 95.456434 
L 712.803802 104.706692 
L 714.800778 117.946564 
L 716.797754 127.338046 
L 720.791706 143.578956 
L 722.788682 155.865557 
L 724.785658 174.754442 
L 726.782634 195.020273 
L 728.77961 210.237299 
L 730.776586 217.72224 
L 732.773562 216.062843 
L 734.770538 215.921617 
L 736.767514 221.252873 
L 738.76449 234.563357 
L 740.761466 251.792844 
L 742.758442 259.419011 
L 744.755418 258.112677 
L 748.74937 247.097103 
L 750.746347 250.451204 
L 752.743323 264.679653 
L 756.737275 301.89252 
L 758.734251 310.366038 
L 760.731227 313.402382 
L 762.728203 313.61422 
L 764.725179 315.979744 
L 766.722155 322.970397 
L 768.719131 331.373302 
L 770.716107 336.881089 
L 772.713083 336.951702 
L 774.710059 332.926781 
L 776.707035 329.996356 
L 778.704011 330.773095 
L 780.700987 336.987008 
L 782.697963 347.049311 
L 784.694939 355.840586 
L 786.691915 361.242454 
L 788.688891 363.502059 
L 790.685867 365.4086 
L 792.682843 369.53944 
L 794.679819 376.07111 
L 796.676795 383.167682 
L 798.673771 386.910152 
L 800.670747 386.062801 
L 802.667723 382.461555 
L 804.6647 378.224796 
L 806.661676 379.601743 
L 808.658652 388.640162 
L 810.655628 400.467781 
L 812.652604 408.764768 
L 814.64958 410.035796 
L 816.646556 403.115756 
L 818.643532 393.688967 
L 820.640508 386.627702 
L 822.637484 387.298522 
L 824.63446 394.324481 
L 826.631436 399.726349 
L 828.628412 398.278789 
L 830.625388 390.476091 
L 832.622364 378.471941 
L 834.61934 368.339025 
L 836.616316 363.713896 
L 838.613292 363.784509 
L 840.610268 365.373294 
L 842.607244 364.34941 
L 844.60422 360.289183 
L 846.601196 355.522829 
L 848.598172 353.545675 
L 850.595148 355.381604 
L 852.592124 359.053462 
L 854.5891 364.208185 
L 856.586076 366.044114 
L 858.583052 363.360833 
L 860.580029 359.653669 
L 862.577005 357.041001 
L 864.573981 357.252839 
L 866.570957 358.594479 
L 868.567933 357.041001 
L 870.564909 351.886277 
L 872.561885 342.24765 
L 874.558861 329.713905 
L 876.555837 319.157314 
L 878.552813 315.273618 
L 880.549789 315.803213 
L 882.546765 317.286078 
L 884.543741 315.026473 
L 886.540717 306.8001 
L 888.537693 294.513498 
L 890.534669 283.497925 
L 892.531645 279.014021 
L 894.528621 278.83749 
L 896.525597 279.331778 
L 898.522573 278.025444 
L 900.519549 269.163556 
L 902.516525 258.359821 
L 904.513501 250.698348 
L 906.510477 251.122024 
L 910.504429 263.973527 
L 912.501405 267.39824 
L 914.498382 267.11579 
L 916.495358 263.832301 
L 918.492334 265.880068 
L 920.48931 273.188478 
L 922.486286 285.792836 
L 924.483262 293.419002 
L 926.480238 292.783488 
L 928.477214 285.086709 
L 930.47419 271.24663 
L 932.471166 259.80738 
L 934.468142 255.500008 
L 936.465118 261.713922 
L 938.462094 267.468853 
L 940.45907 267.821916 
L 942.456046 261.608003 
L 944.453022 249.745077 
L 946.449998 238.552972 
L 948.446974 235.551934 
L 950.44395 235.446015 
L 952.440926 238.411747 
L 954.437902 235.092952 
L 956.434878 227.466786 
L 958.431854 220.687971 
L 960.42883 221.605936 
L 962.425806 234.528051 
L 966.419758 263.973527 
L 968.416734 268.810493 
L 970.413711 269.763764 
L 972.410687 273.082559 
L 974.407663 271.034792 
L 976.404639 269.410701 
L 978.401615 269.163556 
L 980.398591 264.114752 
L 982.395567 260.301669 
L 984.392543 257.512469 
L 986.389519 259.454317 
L 988.386495 269.092944 
L 1000.368351 321.805288 
L 1002.365327 335.963125 
L 1006.359279 359.830201 
L 1008.356255 364.984924 
L 1012.350207 366.503096 
L 1014.347183 370.739855 
L 1016.344159 378.507247 
L 1018.341135 392.876921 
L 1020.338111 404.704541 
L 1022.335087 412.860302 
L 1024.332064 414.837456 
L 1028.326016 409.153138 
L 1030.322992 408.905993 
L 1032.319968 412.471932 
L 1036.31392 425.958949 
L 1038.310896 430.478158 
L 1040.307872 432.3847 
L 1042.304848 434.750224 
L 1044.301824 439.375352 
L 1048.295776 454.380541 
L 1050.292752 460.241391 
L 1052.289728 463.524879 
L 1056.28368 467.655719 
L 1058.280656 471.221658 
L 1062.274608 479.518645 
L 1064.271584 482.166619 
L 1066.26856 483.649485 
L 1068.265536 484.955819 
L 1070.262512 486.438684 
L 1072.259488 488.768902 
L 1074.256464 491.487489 
L 1076.25344 493.817706 
L 1078.250417 495.300572 
L 1080.247393 495.90078 
L 1082.244369 496.112618 
L 1086.238321 497.207114 
L 1090.232273 498.901817 
L 1090.232273 498.901817 
" style="fill:none;stroke:#000000;stroke-linecap:square;stroke-width:1.5;"/>
   </g>
   <g id="patch_3">
    <path d="M 87.95 541.28 
L 87.95 37.72 
" style="fill:none;stroke:#555555;stroke-linecap:square;stroke-linejoin:miter;"/>
   </g>
   <g id="patch_4">
    <path d="M 87.95 541.28 
L 1137.96 541.28 
" style="fill:none;stroke:#555555;stroke-linecap:square;stroke-linejoin:miter;"/>
   </g>
   <g id="text_26">
    <!-- Last updated on 27 June 2021 -->
    <g style="fill:#555555;" transform="translate(477.312344 27.72)scale(0.18 -0.18)">
     <defs>
      <path d="M 628 4666 
L 1259 4666 
L 1259 531 
L 3531 531 
L 3531 0 
L 628 0 
L 628 4666 
z
" id="DejaVuSans-4c" transform="scale(0.015625)"/>
      <path d="M 1172 4494 
L 1172 3500 
L 2356 3500 
L 2356 3053 
L 1172 3053 
L 1172 1153 
Q 1172 725 1289 603 
Q 1406 481 1766 481 
L 2356 481 
L 2356 0 
L 1766 0 
Q 1100 0 847 248 
Q 594 497 594 1153 
L 594 3053 
L 172 3053 
L 172 3500 
L 594 3500 
L 594 4494 
L 1172 4494 
z
" id="DejaVuSans-74" transform="scale(0.015625)"/>
      <path d="M 544 1381 
L 544 3500 
L 1119 3500 
L 1119 1403 
Q 1119 906 1312 657 
Q 1506 409 1894 409 
Q 2359 409 2629 706 
Q 2900 1003 2900 1516 
L 2900 3500 
L 3475 3500 
L 3475 0 
L 2900 0 
L 2900 538 
Q 2691 219 2414 64 
Q 2138 -91 1772 -91 
Q 1169 -91 856 284 
Q 544 659 544 1381 
z
M 1991 3584 
L 1991 3584 
z
" id="DejaVuSans-75" transform="scale(0.015625)"/>
      <path d="M 1159 525 
L 1159 -1331 
L 581 -1331 
L 581 3500 
L 1159 3500 
L 1159 2969 
Q 1341 3281 1617 3432 
Q 1894 3584 2278 3584 
Q 2916 3584 3314 3078 
Q 3713 2572 3713 1747 
Q 3713 922 3314 415 
Q 2916 -91 2278 -91 
Q 1894 -91 1617 61 
Q 1341 213 1159 525 
z
M 3116 1747 
Q 3116 2381 2855 2742 
Q 2594 3103 2138 3103 
Q 1681 3103 1420 2742 
Q 1159 2381 1159 1747 
Q 1159 1113 1420 752 
Q 1681 391 2138 391 
Q 2594 391 2855 752 
Q 3116 1113 3116 1747 
z
" id="DejaVuSans-70" transform="scale(0.015625)"/>
      <path d="M 2906 2969 
L 2906 4863 
L 3481 4863 
L 3481 0 
L 2906 0 
L 2906 525 
Q 2725 213 2448 61 
Q 2172 -91 1784 -91 
Q 1150 -91 751 415 
Q 353 922 353 1747 
Q 353 2572 751 3078 
Q 1150 3584 1784 3584 
Q 2172 3584 2448 3432 
Q 2725 3281 2906 2969 
z
M 947 1747 
Q 947 1113 1208 752 
Q 1469 391 1925 391 
Q 2381 391 2643 752 
Q 2906 1113 2906 1747 
Q 2906 2381 2643 2742 
Q 2381 3103 1925 3103 
Q 1469 3103 1208 2742 
Q 947 2381 947 1747 
z
" id="DejaVuSans-64" transform="scale(0.015625)"/>
      <path d="M 1959 3097 
Q 1497 3097 1228 2736 
Q 959 2375 959 1747 
Q 959 1119 1226 758 
Q 1494 397 1959 397 
Q 2419 397 2687 759 
Q 2956 1122 2956 1747 
Q 2956 2369 2687 2733 
Q 2419 3097 1959 3097 
z
M 1959 3584 
Q 2709 3584 3137 3096 
Q 3566 2609 3566 1747 
Q 3566 888 3137 398 
Q 2709 -91 1959 -91 
Q 1206 -91 779 398 
Q 353 888 353 1747 
Q 353 2609 779 3096 
Q 1206 3584 1959 3584 
z
" id="DejaVuSans-6f" transform="scale(0.015625)"/>
      <path d="M 3513 2113 
L 3513 0 
L 2938 0 
L 2938 2094 
Q 2938 2591 2744 2837 
Q 2550 3084 2163 3084 
Q 1697 3084 1428 2787 
Q 1159 2491 1159 1978 
L 1159 0 
L 581 0 
L 581 3500 
L 1159 3500 
L 1159 2956 
Q 1366 3272 1645 3428 
Q 1925 3584 2291 3584 
Q 2894 3584 3203 3211 
Q 3513 2838 3513 2113 
z
" id="DejaVuSans-6e" transform="scale(0.015625)"/>
      <path d="M 1228 531 
L 3431 531 
L 3431 0 
L 469 0 
L 469 531 
Q 828 903 1448 1529 
Q 2069 2156 2228 2338 
Q 2531 2678 2651 2914 
Q 2772 3150 2772 3378 
Q 2772 3750 2511 3984 
Q 2250 4219 1831 4219 
Q 1534 4219 1204 4116 
Q 875 4013 500 3803 
L 500 4441 
Q 881 4594 1212 4672 
Q 1544 4750 1819 4750 
Q 2544 4750 2975 4387 
Q 3406 4025 3406 3419 
Q 3406 3131 3298 2873 
Q 3191 2616 2906 2266 
Q 2828 2175 2409 1742 
Q 1991 1309 1228 531 
z
" id="DejaVuSans-32" transform="scale(0.015625)"/>
      <path d="M 525 4666 
L 3525 4666 
L 3525 4397 
L 1831 0 
L 1172 0 
L 2766 4134 
L 525 4134 
L 525 4666 
z
" id="DejaVuSans-37" transform="scale(0.015625)"/>
      <path d="M 628 4666 
L 1259 4666 
L 1259 325 
Q 1259 -519 939 -900 
Q 619 -1281 -91 -1281 
L -331 -1281 
L -331 -750 
L -134 -750 
Q 284 -750 456 -515 
Q 628 -281 628 325 
L 628 4666 
z
" id="DejaVuSans-4a" transform="scale(0.015625)"/>
      <path d="M 2034 4250 
Q 1547 4250 1301 3770 
Q 1056 3291 1056 2328 
Q 1056 1369 1301 889 
Q 1547 409 2034 409 
Q 2525 409 2770 889 
Q 3016 1369 3016 2328 
Q 3016 3291 2770 3770 
Q 2525 4250 2034 4250 
z
M 2034 4750 
Q 2819 4750 3233 4129 
Q 3647 3509 3647 2328 
Q 3647 1150 3233 529 
Q 2819 -91 2034 -91 
Q 1250 -91 836 529 
Q 422 1150 422 2328 
Q 422 3509 836 4129 
Q 1250 4750 2034 4750 
z
" id="DejaVuSans-30" transform="scale(0.015625)"/>
      <path d="M 794 531 
L 1825 531 
L 1825 4091 
L 703 3866 
L 703 4441 
L 1819 4666 
L 2450 4666 
L 2450 531 
L 3481 531 
L 3481 0 
L 794 0 
L 794 531 
z
" id="DejaVuSans-31" transform="scale(0.015625)"/>
     </defs>
     <use xlink:href="#DejaVuSans-4c"/>
     <use x="55.712891" xlink:href="#DejaVuSans-61"/>
     <use x="116.992188" xlink:href="#DejaVuSans-73"/>
     <use x="169.091797" xlink:href="#DejaVuSans-74"/>
     <use x="208.300781" xlink:href="#DejaVuSans-20"/>
     <use x="240.087891" xlink:href="#DejaVuSans-75"/>
     <use x="303.466797" xlink:href="#DejaVuSans-70"/>
     <use x="366.943359" xlink:href="#DejaVuSans-64"/>
     <use x="430.419922" xlink:href="#DejaVuSans-61"/>
     <use x="491.699219" xlink:href="#DejaVuSans-74"/>
     <use x="530.908203" xlink:href="#DejaVuSans-65"/>
     <use x="592.431641" xlink:href="#DejaVuSans-64"/>
     <use x="655.908203" xlink:href="#DejaVuSans-20"/>
     <use x="687.695312" xlink:href="#DejaVuSans-6f"/>
     <use x="748.876953" xlink:href="#DejaVuSans-6e"/>
     <use x="812.255859" xlink:href="#DejaVuSans-20"/>
     <use x="844.042969" xlink:href="#DejaVuSans-32"/>
     <use x="907.666016" xlink:href="#DejaVuSans-37"/>
     <use x="971.289062" xlink:href="#DejaVuSans-20"/>
     <use x="1003.076172" xlink:href="#DejaVuSans-4a"/>
     <use x="1032.568359" xlink:href="#DejaVuSans-75"/>
     <use x="1095.947266" xlink:href="#DejaVuSans-6e"/>
     <use x="1159.326172" xlink:href="#DejaVuSans-65"/>
     <use x="1220.849609" xlink:href="#DejaVuSans-20"/>
     <use x="1252.636719" xlink:href="#DejaVuSans-32"/>
     <use x="1316.259766" xlink:href="#DejaVuSans-30"/>
     <use x="1379.882812" xlink:href="#DejaVuSans-32"/>
     <use x="1443.505859" xlink:href="#DejaVuSans-31"/>
    </g>
   </g>
   <g id="legend_1">
    <g id="line2d_27">
     <path d="M 1015.497969 54.747969 
L 1041.497969 54.747969 
" style="fill:none;stroke:#000000;stroke-dasharray:1.5,2.475;stroke-dashoffset:0;stroke-opacity:0.5;stroke-width:1.5;"/>
    </g>
    <g id="line2d_28"/>
    <g id="text_27">
     <!-- Actual -->
     <g style="fill:#555555;" transform="translate(1051.897969 59.297969)scale(0.13 -0.13)">
      <use xlink:href="#DejaVuSans-Bold-41"/>
      <use x="77.392578" xlink:href="#DejaVuSans-Bold-63"/>
      <use x="136.669922" xlink:href="#DejaVuSans-Bold-74"/>
      <use x="184.472656" xlink:href="#DejaVuSans-Bold-75"/>
      <use x="255.664062" xlink:href="#DejaVuSans-Bold-61"/>
      <use x="323.144531" xlink:href="#DejaVuSans-Bold-6c"/>
     </g>
    </g>
    <g id="line2d_29">
     <path d="M 1015.497969 73.829531 
L 1041.497969 73.829531 
" style="fill:none;stroke:#000000;stroke-linecap:square;stroke-width:1.5;"/>
    </g>
    <g id="line2d_30"/>
    <g id="text_28">
     <!-- Smoothed -->
     <g style="fill:#555555;" transform="translate(1051.897969 78.379531)scale(0.13 -0.13)">
      <defs>
       <path d="M 3781 2919 
Q 3994 3244 4286 3414 
Q 4578 3584 4928 3584 
Q 5531 3584 5847 3212 
Q 6163 2841 6163 2131 
L 6163 0 
L 5038 0 
L 5038 1825 
Q 5041 1866 5042 1909 
Q 5044 1953 5044 2034 
Q 5044 2406 4934 2573 
Q 4825 2741 4581 2741 
Q 4263 2741 4089 2478 
Q 3916 2216 3909 1719 
L 3909 0 
L 2784 0 
L 2784 1825 
Q 2784 2406 2684 2573 
Q 2584 2741 2328 2741 
Q 2006 2741 1831 2477 
Q 1656 2213 1656 1722 
L 1656 0 
L 531 0 
L 531 3500 
L 1656 3500 
L 1656 2988 
Q 1863 3284 2130 3434 
Q 2397 3584 2719 3584 
Q 3081 3584 3359 3409 
Q 3638 3234 3781 2919 
z
" id="DejaVuSans-Bold-6d" transform="scale(0.015625)"/>
       <path d="M 4056 2131 
L 4056 0 
L 2931 0 
L 2931 347 
L 2931 1625 
Q 2931 2084 2911 2256 
Q 2891 2428 2841 2509 
Q 2775 2619 2662 2680 
Q 2550 2741 2406 2741 
Q 2056 2741 1856 2470 
Q 1656 2200 1656 1722 
L 1656 0 
L 538 0 
L 538 4863 
L 1656 4863 
L 1656 2988 
Q 1909 3294 2193 3439 
Q 2478 3584 2822 3584 
Q 3428 3584 3742 3212 
Q 4056 2841 4056 2131 
z
" id="DejaVuSans-Bold-68" transform="scale(0.015625)"/>
       <path d="M 2919 2988 
L 2919 4863 
L 4044 4863 
L 4044 0 
L 2919 0 
L 2919 506 
Q 2688 197 2409 53 
Q 2131 -91 1766 -91 
Q 1119 -91 703 423 
Q 288 938 288 1747 
Q 288 2556 703 3070 
Q 1119 3584 1766 3584 
Q 2128 3584 2408 3439 
Q 2688 3294 2919 2988 
z
M 2181 722 
Q 2541 722 2730 984 
Q 2919 1247 2919 1747 
Q 2919 2247 2730 2509 
Q 2541 2772 2181 2772 
Q 1825 2772 1636 2509 
Q 1447 2247 1447 1747 
Q 1447 1247 1636 984 
Q 1825 722 2181 722 
z
" id="DejaVuSans-Bold-64" transform="scale(0.015625)"/>
      </defs>
      <use xlink:href="#DejaVuSans-Bold-53"/>
      <use x="72.021484" xlink:href="#DejaVuSans-Bold-6d"/>
      <use x="176.220703" xlink:href="#DejaVuSans-Bold-6f"/>
      <use x="244.921875" xlink:href="#DejaVuSans-Bold-6f"/>
      <use x="313.623047" xlink:href="#DejaVuSans-Bold-74"/>
      <use x="361.425781" xlink:href="#DejaVuSans-Bold-68"/>
      <use x="432.617188" xlink:href="#DejaVuSans-Bold-65"/>
      <use x="500.439453" xlink:href="#DejaVuSans-Bold-64"/>
     </g>
    </g>
   </g>
  </g>
 </g>
 <defs>
  <clipPath id="peb19bf6af8">
   <rect height="503.56" width="1050.01" x="87.95" y="37.72"/>
  </clipPath>
 </defs>
</svg>
