<?xml version="1.0" encoding="utf-8" standalone="no"?>
<!DOCTYPE svg PUBLIC "-//W3C//DTD SVG 1.1//EN"
  "http://www.w3.org/Graphics/SVG/1.1/DTD/svg11.dtd">
<svg xmlns:xlink="http://www.w3.org/1999/xlink" width="1152pt" height="576pt" viewBox="0 0 1152 576" xmlns="http://www.w3.org/2000/svg" version="1.1">
 <metadata>
  <rdf:RDF xmlns:dc="http://purl.org/dc/elements/1.1/" xmlns:cc="http://creativecommons.org/ns#" xmlns:rdf="http://www.w3.org/1999/02/22-rdf-syntax-ns#">
   <cc:Work>
    <dc:type rdf:resource="http://purl.org/dc/dcmitype/StillImage"/>
    <dc:date>2021-12-20T14:15:57.558350</dc:date>
    <dc:format>image/svg+xml</dc:format>
    <dc:creator>
     <cc:Agent>
      <dc:title>Matplotlib v3.5.1, https://matplotlib.org/</dc:title>
     </cc:Agent>
    </dc:creator>
   </cc:Work>
  </rdf:RDF>
 </metadata>
 <defs>
  <style type="text/css">*{stroke-linejoin: round; stroke-linecap: butt}</style>
 </defs>
 <g id="figure_1">
  <g id="patch_1">
   <path d="M 0 576 
L 1152 576 
L 1152 0 
L 0 0 
z
" style="fill: #ffffff"/>
  </g>
  <g id="axes_1">
   <g id="patch_2">
    <path d="M 87.95 541.28 
L 1137.96 541.28 
L 1137.96 37.72 
L 87.95 37.72 
z
" style="fill: #ffffff"/>
   </g>
   <g id="matplotlib.axis_1">
    <g id="xtick_1">
     <g id="line2d_1">
      <defs>
       <path id="m47605ea2db" d="M 0 0 
L 0 3.5 
" style="stroke: #555555; stroke-width: 0.8"/>
      </defs>
      <g>
       <use xlink:href="#m47605ea2db" x="128.368734" y="541.28" style="fill: #555555; stroke: #555555; stroke-width: 0.8"/>
      </g>
     </g>
     <g id="text_1">
      <!-- Mar -->
      <g style="fill: #555555" transform="translate(113.226859 558.917812)scale(0.14 -0.14)">
       <defs>
        <path id="DejaVuSans-Bold-4d" d="M 588 4666 
L 2119 4666 
L 3181 2169 
L 4250 4666 
L 5778 4666 
L 5778 0 
L 4641 0 
L 4641 3413 
L 3566 897 
L 2803 897 
L 1728 3413 
L 1728 0 
L 588 0 
L 588 4666 
z
" transform="scale(0.015625)"/>
        <path id="DejaVuSans-Bold-61" d="M 2106 1575 
Q 1756 1575 1579 1456 
Q 1403 1338 1403 1106 
Q 1403 894 1545 773 
Q 1688 653 1941 653 
Q 2256 653 2472 879 
Q 2688 1106 2688 1447 
L 2688 1575 
L 2106 1575 
z
M 3816 1997 
L 3816 0 
L 2688 0 
L 2688 519 
Q 2463 200 2181 54 
Q 1900 -91 1497 -91 
Q 953 -91 614 226 
Q 275 544 275 1050 
Q 275 1666 698 1953 
Q 1122 2241 2028 2241 
L 2688 2241 
L 2688 2328 
Q 2688 2594 2478 2717 
Q 2269 2841 1825 2841 
Q 1466 2841 1156 2769 
Q 847 2697 581 2553 
L 581 3406 
Q 941 3494 1303 3539 
Q 1666 3584 2028 3584 
Q 2975 3584 3395 3211 
Q 3816 2838 3816 1997 
z
" transform="scale(0.015625)"/>
        <path id="DejaVuSans-Bold-72" d="M 3138 2547 
Q 2991 2616 2845 2648 
Q 2700 2681 2553 2681 
Q 2122 2681 1889 2404 
Q 1656 2128 1656 1613 
L 1656 0 
L 538 0 
L 538 3500 
L 1656 3500 
L 1656 2925 
Q 1872 3269 2151 3426 
Q 2431 3584 2822 3584 
Q 2878 3584 2943 3579 
Q 3009 3575 3134 3559 
L 3138 2547 
z
" transform="scale(0.015625)"/>
       </defs>
       <use xlink:href="#DejaVuSans-Bold-4d"/>
       <use xlink:href="#DejaVuSans-Bold-61" x="99.511719"/>
       <use xlink:href="#DejaVuSans-Bold-72" x="166.992188"/>
      </g>
     </g>
    </g>
    <g id="xtick_2">
     <g id="line2d_2">
      <g>
       <use xlink:href="#m47605ea2db" x="173.684493" y="541.28" style="fill: #555555; stroke: #555555; stroke-width: 0.8"/>
      </g>
     </g>
     <g id="text_2">
      <!-- Apr -->
      <g style="fill: #555555" transform="translate(159.804806 558.917812)scale(0.14 -0.14)">
       <defs>
        <path id="DejaVuSans-Bold-41" d="M 3419 850 
L 1538 850 
L 1241 0 
L 31 0 
L 1759 4666 
L 3194 4666 
L 4922 0 
L 3713 0 
L 3419 850 
z
M 1838 1716 
L 3116 1716 
L 2478 3572 
L 1838 1716 
z
" transform="scale(0.015625)"/>
        <path id="DejaVuSans-Bold-70" d="M 1656 506 
L 1656 -1331 
L 538 -1331 
L 538 3500 
L 1656 3500 
L 1656 2988 
Q 1888 3294 2169 3439 
Q 2450 3584 2816 3584 
Q 3463 3584 3878 3070 
Q 4294 2556 4294 1747 
Q 4294 938 3878 423 
Q 3463 -91 2816 -91 
Q 2450 -91 2169 54 
Q 1888 200 1656 506 
z
M 2400 2772 
Q 2041 2772 1848 2508 
Q 1656 2244 1656 1747 
Q 1656 1250 1848 986 
Q 2041 722 2400 722 
Q 2759 722 2948 984 
Q 3138 1247 3138 1747 
Q 3138 2247 2948 2509 
Q 2759 2772 2400 2772 
z
" transform="scale(0.015625)"/>
       </defs>
       <use xlink:href="#DejaVuSans-Bold-41"/>
       <use xlink:href="#DejaVuSans-Bold-70" x="77.392578"/>
       <use xlink:href="#DejaVuSans-Bold-72" x="148.974609"/>
      </g>
     </g>
    </g>
    <g id="xtick_3">
     <g id="line2d_3">
      <g>
       <use xlink:href="#m47605ea2db" x="217.538454" y="541.28" style="fill: #555555; stroke: #555555; stroke-width: 0.8"/>
      </g>
     </g>
     <g id="text_3">
      <!-- May -->
      <g style="fill: #555555" transform="translate(201.504079 558.808437)scale(0.14 -0.14)">
       <defs>
        <path id="DejaVuSans-Bold-79" d="M 78 3500 
L 1197 3500 
L 2138 1125 
L 2938 3500 
L 4056 3500 
L 2584 -331 
Q 2363 -916 2067 -1148 
Q 1772 -1381 1288 -1381 
L 641 -1381 
L 641 -647 
L 991 -647 
Q 1275 -647 1404 -556 
Q 1534 -466 1606 -231 
L 1638 -134 
L 78 3500 
z
" transform="scale(0.015625)"/>
       </defs>
       <use xlink:href="#DejaVuSans-Bold-4d"/>
       <use xlink:href="#DejaVuSans-Bold-61" x="99.511719"/>
       <use xlink:href="#DejaVuSans-Bold-79" x="163.867188"/>
      </g>
     </g>
    </g>
    <g id="xtick_4">
     <g id="line2d_4">
      <g>
       <use xlink:href="#m47605ea2db" x="262.854213" y="541.28" style="fill: #555555; stroke: #555555; stroke-width: 0.8"/>
      </g>
     </g>
     <g id="text_4">
      <!-- Jun -->
      <g style="fill: #555555" transform="translate(250.283745 558.917812)scale(0.14 -0.14)">
       <defs>
        <path id="DejaVuSans-Bold-4a" d="M 588 4666 
L 1791 4666 
L 1791 453 
Q 1791 -419 1317 -850 
Q 844 -1281 -116 -1281 
L -359 -1281 
L -359 -372 
L -172 -372 
Q 203 -372 395 -162 
Q 588 47 588 453 
L 588 4666 
z
" transform="scale(0.015625)"/>
        <path id="DejaVuSans-Bold-75" d="M 500 1363 
L 500 3500 
L 1625 3500 
L 1625 3150 
Q 1625 2866 1622 2436 
Q 1619 2006 1619 1863 
Q 1619 1441 1641 1255 
Q 1663 1069 1716 984 
Q 1784 875 1895 815 
Q 2006 756 2150 756 
Q 2500 756 2700 1025 
Q 2900 1294 2900 1772 
L 2900 3500 
L 4019 3500 
L 4019 0 
L 2900 0 
L 2900 506 
Q 2647 200 2364 54 
Q 2081 -91 1741 -91 
Q 1134 -91 817 281 
Q 500 653 500 1363 
z
" transform="scale(0.015625)"/>
        <path id="DejaVuSans-Bold-6e" d="M 4056 2131 
L 4056 0 
L 2931 0 
L 2931 347 
L 2931 1631 
Q 2931 2084 2911 2256 
Q 2891 2428 2841 2509 
Q 2775 2619 2662 2680 
Q 2550 2741 2406 2741 
Q 2056 2741 1856 2470 
Q 1656 2200 1656 1722 
L 1656 0 
L 538 0 
L 538 3500 
L 1656 3500 
L 1656 2988 
Q 1909 3294 2193 3439 
Q 2478 3584 2822 3584 
Q 3428 3584 3742 3212 
Q 4056 2841 4056 2131 
z
" transform="scale(0.015625)"/>
       </defs>
       <use xlink:href="#DejaVuSans-Bold-4a"/>
       <use xlink:href="#DejaVuSans-Bold-75" x="37.207031"/>
       <use xlink:href="#DejaVuSans-Bold-6e" x="108.398438"/>
      </g>
     </g>
    </g>
    <g id="xtick_5">
     <g id="line2d_5">
      <g>
       <use xlink:href="#m47605ea2db" x="306.708174" y="541.28" style="fill: #555555; stroke: #555555; stroke-width: 0.8"/>
      </g>
     </g>
     <g id="text_5">
      <!-- Jul -->
      <g style="fill: #555555" transform="translate(296.721143 558.917812)scale(0.14 -0.14)">
       <defs>
        <path id="DejaVuSans-Bold-6c" d="M 538 4863 
L 1656 4863 
L 1656 0 
L 538 0 
L 538 4863 
z
" transform="scale(0.015625)"/>
       </defs>
       <use xlink:href="#DejaVuSans-Bold-4a"/>
       <use xlink:href="#DejaVuSans-Bold-75" x="37.207031"/>
       <use xlink:href="#DejaVuSans-Bold-6c" x="108.398438"/>
      </g>
     </g>
    </g>
    <g id="xtick_6">
     <g id="line2d_6">
      <g>
       <use xlink:href="#m47605ea2db" x="352.023934" y="541.28" style="fill: #555555; stroke: #555555; stroke-width: 0.8"/>
      </g>
     </g>
     <g id="text_6">
      <!-- Aug -->
      <g style="fill: #555555" transform="translate(336.612996 558.808437)scale(0.14 -0.14)">
       <defs>
        <path id="DejaVuSans-Bold-67" d="M 2919 594 
Q 2688 288 2409 144 
Q 2131 0 1766 0 
Q 1125 0 706 504 
Q 288 1009 288 1791 
Q 288 2575 706 3076 
Q 1125 3578 1766 3578 
Q 2131 3578 2409 3434 
Q 2688 3291 2919 2981 
L 2919 3500 
L 4044 3500 
L 4044 353 
Q 4044 -491 3511 -936 
Q 2978 -1381 1966 -1381 
Q 1638 -1381 1331 -1331 
Q 1025 -1281 716 -1178 
L 716 -306 
Q 1009 -475 1290 -558 
Q 1572 -641 1856 -641 
Q 2406 -641 2662 -400 
Q 2919 -159 2919 353 
L 2919 594 
z
M 2181 2772 
Q 1834 2772 1640 2515 
Q 1447 2259 1447 1791 
Q 1447 1309 1634 1061 
Q 1822 813 2181 813 
Q 2531 813 2725 1069 
Q 2919 1325 2919 1791 
Q 2919 2259 2725 2515 
Q 2531 2772 2181 2772 
z
" transform="scale(0.015625)"/>
       </defs>
       <use xlink:href="#DejaVuSans-Bold-41"/>
       <use xlink:href="#DejaVuSans-Bold-75" x="77.392578"/>
       <use xlink:href="#DejaVuSans-Bold-67" x="148.583984"/>
      </g>
     </g>
    </g>
    <g id="xtick_7">
     <g id="line2d_7">
      <g>
       <use xlink:href="#m47605ea2db" x="397.339693" y="541.28" style="fill: #555555; stroke: #555555; stroke-width: 0.8"/>
      </g>
     </g>
     <g id="text_7">
      <!-- Sep -->
      <g style="fill: #555555" transform="translate(382.540162 558.917812)scale(0.14 -0.14)">
       <defs>
        <path id="DejaVuSans-Bold-53" d="M 3834 4519 
L 3834 3531 
Q 3450 3703 3084 3790 
Q 2719 3878 2394 3878 
Q 1963 3878 1756 3759 
Q 1550 3641 1550 3391 
Q 1550 3203 1689 3098 
Q 1828 2994 2194 2919 
L 2706 2816 
Q 3484 2659 3812 2340 
Q 4141 2022 4141 1434 
Q 4141 663 3683 286 
Q 3225 -91 2284 -91 
Q 1841 -91 1394 -6 
Q 947 78 500 244 
L 500 1259 
Q 947 1022 1364 901 
Q 1781 781 2169 781 
Q 2563 781 2772 912 
Q 2981 1044 2981 1288 
Q 2981 1506 2839 1625 
Q 2697 1744 2272 1838 
L 1806 1941 
Q 1106 2091 782 2419 
Q 459 2747 459 3303 
Q 459 4000 909 4375 
Q 1359 4750 2203 4750 
Q 2588 4750 2994 4692 
Q 3400 4634 3834 4519 
z
" transform="scale(0.015625)"/>
        <path id="DejaVuSans-Bold-65" d="M 4031 1759 
L 4031 1441 
L 1416 1441 
Q 1456 1047 1700 850 
Q 1944 653 2381 653 
Q 2734 653 3104 758 
Q 3475 863 3866 1075 
L 3866 213 
Q 3469 63 3072 -14 
Q 2675 -91 2278 -91 
Q 1328 -91 801 392 
Q 275 875 275 1747 
Q 275 2603 792 3093 
Q 1309 3584 2216 3584 
Q 3041 3584 3536 3087 
Q 4031 2591 4031 1759 
z
M 2881 2131 
Q 2881 2450 2695 2645 
Q 2509 2841 2209 2841 
Q 1884 2841 1681 2658 
Q 1478 2475 1428 2131 
L 2881 2131 
z
" transform="scale(0.015625)"/>
       </defs>
       <use xlink:href="#DejaVuSans-Bold-53"/>
       <use xlink:href="#DejaVuSans-Bold-65" x="72.021484"/>
       <use xlink:href="#DejaVuSans-Bold-70" x="139.84375"/>
      </g>
     </g>
    </g>
    <g id="xtick_8">
     <g id="line2d_8">
      <g>
       <use xlink:href="#m47605ea2db" x="441.193654" y="541.28" style="fill: #555555; stroke: #555555; stroke-width: 0.8"/>
      </g>
     </g>
     <g id="text_8">
      <!-- Oct -->
      <g style="fill: #555555" transform="translate(427.747091 558.917812)scale(0.14 -0.14)">
       <defs>
        <path id="DejaVuSans-Bold-4f" d="M 2719 3878 
Q 2169 3878 1866 3472 
Q 1563 3066 1563 2328 
Q 1563 1594 1866 1187 
Q 2169 781 2719 781 
Q 3272 781 3575 1187 
Q 3878 1594 3878 2328 
Q 3878 3066 3575 3472 
Q 3272 3878 2719 3878 
z
M 2719 4750 
Q 3844 4750 4481 4106 
Q 5119 3463 5119 2328 
Q 5119 1197 4481 553 
Q 3844 -91 2719 -91 
Q 1597 -91 958 553 
Q 319 1197 319 2328 
Q 319 3463 958 4106 
Q 1597 4750 2719 4750 
z
" transform="scale(0.015625)"/>
        <path id="DejaVuSans-Bold-63" d="M 3366 3391 
L 3366 2478 
Q 3138 2634 2908 2709 
Q 2678 2784 2431 2784 
Q 1963 2784 1702 2511 
Q 1441 2238 1441 1747 
Q 1441 1256 1702 982 
Q 1963 709 2431 709 
Q 2694 709 2930 787 
Q 3166 866 3366 1019 
L 3366 103 
Q 3103 6 2833 -42 
Q 2563 -91 2291 -91 
Q 1344 -91 809 395 
Q 275 881 275 1747 
Q 275 2613 809 3098 
Q 1344 3584 2291 3584 
Q 2566 3584 2833 3536 
Q 3100 3488 3366 3391 
z
" transform="scale(0.015625)"/>
        <path id="DejaVuSans-Bold-74" d="M 1759 4494 
L 1759 3500 
L 2913 3500 
L 2913 2700 
L 1759 2700 
L 1759 1216 
Q 1759 972 1856 886 
Q 1953 800 2241 800 
L 2816 800 
L 2816 0 
L 1856 0 
Q 1194 0 917 276 
Q 641 553 641 1216 
L 641 2700 
L 84 2700 
L 84 3500 
L 641 3500 
L 641 4494 
L 1759 4494 
z
" transform="scale(0.015625)"/>
       </defs>
       <use xlink:href="#DejaVuSans-Bold-4f"/>
       <use xlink:href="#DejaVuSans-Bold-63" x="85.009766"/>
       <use xlink:href="#DejaVuSans-Bold-74" x="144.287109"/>
      </g>
     </g>
    </g>
    <g id="xtick_9">
     <g id="line2d_9">
      <g>
       <use xlink:href="#m47605ea2db" x="486.509413" y="541.28" style="fill: #555555; stroke: #555555; stroke-width: 0.8"/>
      </g>
     </g>
     <g id="text_9">
      <!-- Nov -->
      <g style="fill: #555555" transform="translate(471.278944 558.917812)scale(0.14 -0.14)">
       <defs>
        <path id="DejaVuSans-Bold-4e" d="M 588 4666 
L 1931 4666 
L 3628 1466 
L 3628 4666 
L 4769 4666 
L 4769 0 
L 3425 0 
L 1728 3200 
L 1728 0 
L 588 0 
L 588 4666 
z
" transform="scale(0.015625)"/>
        <path id="DejaVuSans-Bold-6f" d="M 2203 2784 
Q 1831 2784 1636 2517 
Q 1441 2250 1441 1747 
Q 1441 1244 1636 976 
Q 1831 709 2203 709 
Q 2569 709 2762 976 
Q 2956 1244 2956 1747 
Q 2956 2250 2762 2517 
Q 2569 2784 2203 2784 
z
M 2203 3584 
Q 3106 3584 3614 3096 
Q 4122 2609 4122 1747 
Q 4122 884 3614 396 
Q 3106 -91 2203 -91 
Q 1297 -91 786 396 
Q 275 884 275 1747 
Q 275 2609 786 3096 
Q 1297 3584 2203 3584 
z
" transform="scale(0.015625)"/>
        <path id="DejaVuSans-Bold-76" d="M 97 3500 
L 1216 3500 
L 2088 1081 
L 2956 3500 
L 4078 3500 
L 2700 0 
L 1472 0 
L 97 3500 
z
" transform="scale(0.015625)"/>
       </defs>
       <use xlink:href="#DejaVuSans-Bold-4e"/>
       <use xlink:href="#DejaVuSans-Bold-6f" x="83.691406"/>
       <use xlink:href="#DejaVuSans-Bold-76" x="152.392578"/>
      </g>
     </g>
    </g>
    <g id="xtick_10">
     <g id="line2d_10">
      <g>
       <use xlink:href="#m47605ea2db" x="530.363374" y="541.28" style="fill: #555555; stroke: #555555; stroke-width: 0.8"/>
      </g>
     </g>
     <g id="text_10">
      <!-- Dec -->
      <g style="fill: #555555" transform="translate(515.654624 558.917812)scale(0.14 -0.14)">
       <defs>
        <path id="DejaVuSans-Bold-44" d="M 1791 3756 
L 1791 909 
L 2222 909 
Q 2959 909 3348 1275 
Q 3738 1641 3738 2338 
Q 3738 3031 3350 3393 
Q 2963 3756 2222 3756 
L 1791 3756 
z
M 588 4666 
L 1856 4666 
Q 2919 4666 3439 4514 
Q 3959 4363 4331 4000 
Q 4659 3684 4818 3271 
Q 4978 2859 4978 2338 
Q 4978 1809 4818 1395 
Q 4659 981 4331 666 
Q 3956 303 3431 151 
Q 2906 0 1856 0 
L 588 0 
L 588 4666 
z
" transform="scale(0.015625)"/>
       </defs>
       <use xlink:href="#DejaVuSans-Bold-44"/>
       <use xlink:href="#DejaVuSans-Bold-65" x="83.007812"/>
       <use xlink:href="#DejaVuSans-Bold-63" x="150.830078"/>
      </g>
     </g>
    </g>
    <g id="xtick_11">
     <g id="line2d_11">
      <g>
       <use xlink:href="#m47605ea2db" x="575.679133" y="541.28" style="fill: #555555; stroke: #555555; stroke-width: 0.8"/>
      </g>
     </g>
     <g id="text_11">
      <!-- Jan -->
      <g style="fill: #555555" transform="translate(563.367883 558.917812)scale(0.14 -0.14)">
       <use xlink:href="#DejaVuSans-Bold-4a"/>
       <use xlink:href="#DejaVuSans-Bold-61" x="37.207031"/>
       <use xlink:href="#DejaVuSans-Bold-6e" x="104.6875"/>
      </g>
     </g>
    </g>
    <g id="xtick_12">
     <g id="line2d_12">
      <g>
       <use xlink:href="#m47605ea2db" x="620.994893" y="541.28" style="fill: #555555; stroke: #555555; stroke-width: 0.8"/>
      </g>
     </g>
     <g id="text_12">
      <!-- Feb -->
      <g style="fill: #555555" transform="translate(606.73458 558.917812)scale(0.14 -0.14)">
       <defs>
        <path id="DejaVuSans-Bold-46" d="M 588 4666 
L 3834 4666 
L 3834 3756 
L 1791 3756 
L 1791 2888 
L 3713 2888 
L 3713 1978 
L 1791 1978 
L 1791 0 
L 588 0 
L 588 4666 
z
" transform="scale(0.015625)"/>
        <path id="DejaVuSans-Bold-62" d="M 2400 722 
Q 2759 722 2948 984 
Q 3138 1247 3138 1747 
Q 3138 2247 2948 2509 
Q 2759 2772 2400 2772 
Q 2041 2772 1848 2508 
Q 1656 2244 1656 1747 
Q 1656 1250 1848 986 
Q 2041 722 2400 722 
z
M 1656 2988 
Q 1888 3294 2169 3439 
Q 2450 3584 2816 3584 
Q 3463 3584 3878 3070 
Q 4294 2556 4294 1747 
Q 4294 938 3878 423 
Q 3463 -91 2816 -91 
Q 2450 -91 2169 54 
Q 1888 200 1656 506 
L 1656 0 
L 538 0 
L 538 4863 
L 1656 4863 
L 1656 2988 
z
" transform="scale(0.015625)"/>
       </defs>
       <use xlink:href="#DejaVuSans-Bold-46"/>
       <use xlink:href="#DejaVuSans-Bold-65" x="64.310547"/>
       <use xlink:href="#DejaVuSans-Bold-62" x="132.132812"/>
      </g>
     </g>
    </g>
    <g id="xtick_13">
     <g id="line2d_13">
      <g>
       <use xlink:href="#m47605ea2db" x="661.925256" y="541.28" style="fill: #555555; stroke: #555555; stroke-width: 0.8"/>
      </g>
     </g>
     <g id="text_13">
      <!-- Mar -->
      <g style="fill: #555555" transform="translate(646.783381 558.917812)scale(0.14 -0.14)">
       <use xlink:href="#DejaVuSans-Bold-4d"/>
       <use xlink:href="#DejaVuSans-Bold-61" x="99.511719"/>
       <use xlink:href="#DejaVuSans-Bold-72" x="166.992188"/>
      </g>
     </g>
    </g>
    <g id="xtick_14">
     <g id="line2d_14">
      <g>
       <use xlink:href="#m47605ea2db" x="707.241016" y="541.28" style="fill: #555555; stroke: #555555; stroke-width: 0.8"/>
      </g>
     </g>
     <g id="text_14">
      <!-- Apr -->
      <g style="fill: #555555" transform="translate(693.361328 558.917812)scale(0.14 -0.14)">
       <use xlink:href="#DejaVuSans-Bold-41"/>
       <use xlink:href="#DejaVuSans-Bold-70" x="77.392578"/>
       <use xlink:href="#DejaVuSans-Bold-72" x="148.974609"/>
      </g>
     </g>
    </g>
    <g id="xtick_15">
     <g id="line2d_15">
      <g>
       <use xlink:href="#m47605ea2db" x="751.094976" y="541.28" style="fill: #555555; stroke: #555555; stroke-width: 0.8"/>
      </g>
     </g>
     <g id="text_15">
      <!-- May -->
      <g style="fill: #555555" transform="translate(735.060601 558.808437)scale(0.14 -0.14)">
       <use xlink:href="#DejaVuSans-Bold-4d"/>
       <use xlink:href="#DejaVuSans-Bold-61" x="99.511719"/>
       <use xlink:href="#DejaVuSans-Bold-79" x="163.867188"/>
      </g>
     </g>
    </g>
    <g id="xtick_16">
     <g id="line2d_16">
      <g>
       <use xlink:href="#m47605ea2db" x="796.410736" y="541.28" style="fill: #555555; stroke: #555555; stroke-width: 0.8"/>
      </g>
     </g>
     <g id="text_16">
      <!-- Jun -->
      <g style="fill: #555555" transform="translate(783.840267 558.917812)scale(0.14 -0.14)">
       <use xlink:href="#DejaVuSans-Bold-4a"/>
       <use xlink:href="#DejaVuSans-Bold-75" x="37.207031"/>
       <use xlink:href="#DejaVuSans-Bold-6e" x="108.398438"/>
      </g>
     </g>
    </g>
    <g id="xtick_17">
     <g id="line2d_17">
      <g>
       <use xlink:href="#m47605ea2db" x="840.264697" y="541.28" style="fill: #555555; stroke: #555555; stroke-width: 0.8"/>
      </g>
     </g>
     <g id="text_17">
      <!-- Jul -->
      <g style="fill: #555555" transform="translate(830.277665 558.917812)scale(0.14 -0.14)">
       <use xlink:href="#DejaVuSans-Bold-4a"/>
       <use xlink:href="#DejaVuSans-Bold-75" x="37.207031"/>
       <use xlink:href="#DejaVuSans-Bold-6c" x="108.398438"/>
      </g>
     </g>
    </g>
    <g id="xtick_18">
     <g id="line2d_18">
      <g>
       <use xlink:href="#m47605ea2db" x="885.580456" y="541.28" style="fill: #555555; stroke: #555555; stroke-width: 0.8"/>
      </g>
     </g>
     <g id="text_18">
      <!-- Aug -->
      <g style="fill: #555555" transform="translate(870.169518 558.808437)scale(0.14 -0.14)">
       <use xlink:href="#DejaVuSans-Bold-41"/>
       <use xlink:href="#DejaVuSans-Bold-75" x="77.392578"/>
       <use xlink:href="#DejaVuSans-Bold-67" x="148.583984"/>
      </g>
     </g>
    </g>
    <g id="xtick_19">
     <g id="line2d_19">
      <g>
       <use xlink:href="#m47605ea2db" x="930.896215" y="541.28" style="fill: #555555; stroke: #555555; stroke-width: 0.8"/>
      </g>
     </g>
     <g id="text_19">
      <!-- Sep -->
      <g style="fill: #555555" transform="translate(916.096684 558.917812)scale(0.14 -0.14)">
       <use xlink:href="#DejaVuSans-Bold-53"/>
       <use xlink:href="#DejaVuSans-Bold-65" x="72.021484"/>
       <use xlink:href="#DejaVuSans-Bold-70" x="139.84375"/>
      </g>
     </g>
    </g>
    <g id="xtick_20">
     <g id="line2d_20">
      <g>
       <use xlink:href="#m47605ea2db" x="974.750176" y="541.28" style="fill: #555555; stroke: #555555; stroke-width: 0.8"/>
      </g>
     </g>
     <g id="text_20">
      <!-- Oct -->
      <g style="fill: #555555" transform="translate(961.303614 558.917812)scale(0.14 -0.14)">
       <use xlink:href="#DejaVuSans-Bold-4f"/>
       <use xlink:href="#DejaVuSans-Bold-63" x="85.009766"/>
       <use xlink:href="#DejaVuSans-Bold-74" x="144.287109"/>
      </g>
     </g>
    </g>
    <g id="xtick_21">
     <g id="line2d_21">
      <g>
       <use xlink:href="#m47605ea2db" x="1020.065936" y="541.28" style="fill: #555555; stroke: #555555; stroke-width: 0.8"/>
      </g>
     </g>
     <g id="text_21">
      <!-- Nov -->
      <g style="fill: #555555" transform="translate(1004.835467 558.917812)scale(0.14 -0.14)">
       <use xlink:href="#DejaVuSans-Bold-4e"/>
       <use xlink:href="#DejaVuSans-Bold-6f" x="83.691406"/>
       <use xlink:href="#DejaVuSans-Bold-76" x="152.392578"/>
      </g>
     </g>
    </g>
    <g id="xtick_22">
     <g id="line2d_22">
      <g>
       <use xlink:href="#m47605ea2db" x="1063.919896" y="541.28" style="fill: #555555; stroke: #555555; stroke-width: 0.8"/>
      </g>
     </g>
     <g id="text_22">
      <!-- Dec -->
      <g style="fill: #555555" transform="translate(1049.211146 558.917812)scale(0.14 -0.14)">
       <use xlink:href="#DejaVuSans-Bold-44"/>
       <use xlink:href="#DejaVuSans-Bold-65" x="83.007812"/>
       <use xlink:href="#DejaVuSans-Bold-63" x="150.830078"/>
      </g>
     </g>
    </g>
    <g id="xtick_23">
     <g id="line2d_23">
      <g>
       <use xlink:href="#m47605ea2db" x="1109.235656" y="541.28" style="fill: #555555; stroke: #555555; stroke-width: 0.8"/>
      </g>
     </g>
     <g id="text_23">
      <!-- Jan -->
      <g style="fill: #555555" transform="translate(1096.924406 558.917812)scale(0.14 -0.14)">
       <use xlink:href="#DejaVuSans-Bold-4a"/>
       <use xlink:href="#DejaVuSans-Bold-61" x="37.207031"/>
       <use xlink:href="#DejaVuSans-Bold-6e" x="104.6875"/>
      </g>
     </g>
    </g>
   </g>
   <g id="matplotlib.axis_2">
    <g id="ytick_1">
     <g id="line2d_24">
      <defs>
       <path id="m82abcd83a3" d="M 0 0 
L -3.5 0 
" style="stroke: #555555; stroke-width: 0.8"/>
      </defs>
      <g>
       <use xlink:href="#m82abcd83a3" x="87.95" y="518.990226" style="fill: #555555; stroke: #555555; stroke-width: 0.8"/>
      </g>
     </g>
     <g id="text_24">
      <!-- 0 -->
      <g style="fill: #555555" transform="translate(71.209063 524.309133)scale(0.14 -0.14)">
       <defs>
        <path id="DejaVuSans-Bold-30" d="M 2944 2338 
Q 2944 3213 2780 3570 
Q 2616 3928 2228 3928 
Q 1841 3928 1675 3570 
Q 1509 3213 1509 2338 
Q 1509 1453 1675 1090 
Q 1841 728 2228 728 
Q 2613 728 2778 1090 
Q 2944 1453 2944 2338 
z
M 4147 2328 
Q 4147 1169 3647 539 
Q 3147 -91 2228 -91 
Q 1306 -91 806 539 
Q 306 1169 306 2328 
Q 306 3491 806 4120 
Q 1306 4750 2228 4750 
Q 3147 4750 3647 4120 
Q 4147 3491 4147 2328 
z
" transform="scale(0.015625)"/>
       </defs>
       <use xlink:href="#DejaVuSans-Bold-30"/>
      </g>
     </g>
    </g>
    <g id="ytick_2">
     <g id="line2d_25">
      <g>
       <use xlink:href="#m82abcd83a3" x="87.95" y="422.326132" style="fill: #555555; stroke: #555555; stroke-width: 0.8"/>
      </g>
     </g>
     <g id="text_25">
      <!-- 5000 -->
      <g style="fill: #555555" transform="translate(41.98625 427.645038)scale(0.14 -0.14)">
       <defs>
        <path id="DejaVuSans-Bold-35" d="M 678 4666 
L 3669 4666 
L 3669 3781 
L 1638 3781 
L 1638 3059 
Q 1775 3097 1914 3117 
Q 2053 3138 2203 3138 
Q 3056 3138 3531 2711 
Q 4006 2284 4006 1522 
Q 4006 766 3489 337 
Q 2972 -91 2053 -91 
Q 1656 -91 1267 -14 
Q 878 63 494 219 
L 494 1166 
Q 875 947 1217 837 
Q 1559 728 1863 728 
Q 2300 728 2551 942 
Q 2803 1156 2803 1522 
Q 2803 1891 2551 2103 
Q 2300 2316 1863 2316 
Q 1603 2316 1309 2248 
Q 1016 2181 678 2041 
L 678 4666 
z
" transform="scale(0.015625)"/>
       </defs>
       <use xlink:href="#DejaVuSans-Bold-35"/>
       <use xlink:href="#DejaVuSans-Bold-30" x="69.580078"/>
       <use xlink:href="#DejaVuSans-Bold-30" x="139.160156"/>
       <use xlink:href="#DejaVuSans-Bold-30" x="208.740234"/>
      </g>
     </g>
    </g>
    <g id="ytick_3">
     <g id="line2d_26">
      <g>
       <use xlink:href="#m82abcd83a3" x="87.95" y="325.662038" style="fill: #555555; stroke: #555555; stroke-width: 0.8"/>
      </g>
     </g>
     <g id="text_26">
      <!-- 10000 -->
      <g style="fill: #555555" transform="translate(32.245313 330.980944)scale(0.14 -0.14)">
       <defs>
        <path id="DejaVuSans-Bold-31" d="M 750 831 
L 1813 831 
L 1813 3847 
L 722 3622 
L 722 4441 
L 1806 4666 
L 2950 4666 
L 2950 831 
L 4013 831 
L 4013 0 
L 750 0 
L 750 831 
z
" transform="scale(0.015625)"/>
       </defs>
       <use xlink:href="#DejaVuSans-Bold-31"/>
       <use xlink:href="#DejaVuSans-Bold-30" x="69.580078"/>
       <use xlink:href="#DejaVuSans-Bold-30" x="139.160156"/>
       <use xlink:href="#DejaVuSans-Bold-30" x="208.740234"/>
       <use xlink:href="#DejaVuSans-Bold-30" x="278.320312"/>
      </g>
     </g>
    </g>
    <g id="ytick_4">
     <g id="line2d_27">
      <g>
       <use xlink:href="#m82abcd83a3" x="87.95" y="228.997943" style="fill: #555555; stroke: #555555; stroke-width: 0.8"/>
      </g>
     </g>
     <g id="text_27">
      <!-- 15000 -->
      <g style="fill: #555555" transform="translate(32.245313 234.31685)scale(0.14 -0.14)">
       <use xlink:href="#DejaVuSans-Bold-31"/>
       <use xlink:href="#DejaVuSans-Bold-35" x="69.580078"/>
       <use xlink:href="#DejaVuSans-Bold-30" x="139.160156"/>
       <use xlink:href="#DejaVuSans-Bold-30" x="208.740234"/>
       <use xlink:href="#DejaVuSans-Bold-30" x="278.320312"/>
      </g>
     </g>
    </g>
    <g id="ytick_5">
     <g id="line2d_28">
      <g>
       <use xlink:href="#m82abcd83a3" x="87.95" y="132.333849" style="fill: #555555; stroke: #555555; stroke-width: 0.8"/>
      </g>
     </g>
     <g id="text_28">
      <!-- 20000 -->
      <g style="fill: #555555" transform="translate(32.245313 137.652755)scale(0.14 -0.14)">
       <defs>
        <path id="DejaVuSans-Bold-32" d="M 1844 884 
L 3897 884 
L 3897 0 
L 506 0 
L 506 884 
L 2209 2388 
Q 2438 2594 2547 2791 
Q 2656 2988 2656 3200 
Q 2656 3528 2436 3728 
Q 2216 3928 1850 3928 
Q 1569 3928 1234 3808 
Q 900 3688 519 3450 
L 519 4475 
Q 925 4609 1322 4679 
Q 1719 4750 2100 4750 
Q 2938 4750 3402 4381 
Q 3866 4013 3866 3353 
Q 3866 2972 3669 2642 
Q 3472 2313 2841 1759 
L 1844 884 
z
" transform="scale(0.015625)"/>
       </defs>
       <use xlink:href="#DejaVuSans-Bold-32"/>
       <use xlink:href="#DejaVuSans-Bold-30" x="69.580078"/>
       <use xlink:href="#DejaVuSans-Bold-30" x="139.160156"/>
       <use xlink:href="#DejaVuSans-Bold-30" x="208.740234"/>
       <use xlink:href="#DejaVuSans-Bold-30" x="278.320312"/>
      </g>
     </g>
    </g>
    <g id="text_29">
     <!-- New Cases -->
     <g style="fill: #555555" transform="translate(24.917813 333.23875)rotate(-90)scale(0.16 -0.16)">
      <defs>
       <path id="DejaVuSans-4e" d="M 628 4666 
L 1478 4666 
L 3547 763 
L 3547 4666 
L 4159 4666 
L 4159 0 
L 3309 0 
L 1241 3903 
L 1241 0 
L 628 0 
L 628 4666 
z
" transform="scale(0.015625)"/>
       <path id="DejaVuSans-65" d="M 3597 1894 
L 3597 1613 
L 953 1613 
Q 991 1019 1311 708 
Q 1631 397 2203 397 
Q 2534 397 2845 478 
Q 3156 559 3463 722 
L 3463 178 
Q 3153 47 2828 -22 
Q 2503 -91 2169 -91 
Q 1331 -91 842 396 
Q 353 884 353 1716 
Q 353 2575 817 3079 
Q 1281 3584 2069 3584 
Q 2775 3584 3186 3129 
Q 3597 2675 3597 1894 
z
M 3022 2063 
Q 3016 2534 2758 2815 
Q 2500 3097 2075 3097 
Q 1594 3097 1305 2825 
Q 1016 2553 972 2059 
L 3022 2063 
z
" transform="scale(0.015625)"/>
       <path id="DejaVuSans-77" d="M 269 3500 
L 844 3500 
L 1563 769 
L 2278 3500 
L 2956 3500 
L 3675 769 
L 4391 3500 
L 4966 3500 
L 4050 0 
L 3372 0 
L 2619 2869 
L 1863 0 
L 1184 0 
L 269 3500 
z
" transform="scale(0.015625)"/>
       <path id="DejaVuSans-20" transform="scale(0.015625)"/>
       <path id="DejaVuSans-43" d="M 4122 4306 
L 4122 3641 
Q 3803 3938 3442 4084 
Q 3081 4231 2675 4231 
Q 1875 4231 1450 3742 
Q 1025 3253 1025 2328 
Q 1025 1406 1450 917 
Q 1875 428 2675 428 
Q 3081 428 3442 575 
Q 3803 722 4122 1019 
L 4122 359 
Q 3791 134 3420 21 
Q 3050 -91 2638 -91 
Q 1578 -91 968 557 
Q 359 1206 359 2328 
Q 359 3453 968 4101 
Q 1578 4750 2638 4750 
Q 3056 4750 3426 4639 
Q 3797 4528 4122 4306 
z
" transform="scale(0.015625)"/>
       <path id="DejaVuSans-61" d="M 2194 1759 
Q 1497 1759 1228 1600 
Q 959 1441 959 1056 
Q 959 750 1161 570 
Q 1363 391 1709 391 
Q 2188 391 2477 730 
Q 2766 1069 2766 1631 
L 2766 1759 
L 2194 1759 
z
M 3341 1997 
L 3341 0 
L 2766 0 
L 2766 531 
Q 2569 213 2275 61 
Q 1981 -91 1556 -91 
Q 1019 -91 701 211 
Q 384 513 384 1019 
Q 384 1609 779 1909 
Q 1175 2209 1959 2209 
L 2766 2209 
L 2766 2266 
Q 2766 2663 2505 2880 
Q 2244 3097 1772 3097 
Q 1472 3097 1187 3025 
Q 903 2953 641 2809 
L 641 3341 
Q 956 3463 1253 3523 
Q 1550 3584 1831 3584 
Q 2591 3584 2966 3190 
Q 3341 2797 3341 1997 
z
" transform="scale(0.015625)"/>
       <path id="DejaVuSans-73" d="M 2834 3397 
L 2834 2853 
Q 2591 2978 2328 3040 
Q 2066 3103 1784 3103 
Q 1356 3103 1142 2972 
Q 928 2841 928 2578 
Q 928 2378 1081 2264 
Q 1234 2150 1697 2047 
L 1894 2003 
Q 2506 1872 2764 1633 
Q 3022 1394 3022 966 
Q 3022 478 2636 193 
Q 2250 -91 1575 -91 
Q 1294 -91 989 -36 
Q 684 19 347 128 
L 347 722 
Q 666 556 975 473 
Q 1284 391 1588 391 
Q 1994 391 2212 530 
Q 2431 669 2431 922 
Q 2431 1156 2273 1281 
Q 2116 1406 1581 1522 
L 1381 1569 
Q 847 1681 609 1914 
Q 372 2147 372 2553 
Q 372 3047 722 3315 
Q 1072 3584 1716 3584 
Q 2034 3584 2315 3537 
Q 2597 3491 2834 3397 
z
" transform="scale(0.015625)"/>
      </defs>
      <use xlink:href="#DejaVuSans-4e"/>
      <use xlink:href="#DejaVuSans-65" x="74.804688"/>
      <use xlink:href="#DejaVuSans-77" x="136.328125"/>
      <use xlink:href="#DejaVuSans-20" x="218.115234"/>
      <use xlink:href="#DejaVuSans-43" x="249.902344"/>
      <use xlink:href="#DejaVuSans-61" x="319.726562"/>
      <use xlink:href="#DejaVuSans-73" x="381.005859"/>
      <use xlink:href="#DejaVuSans-65" x="433.105469"/>
      <use xlink:href="#DejaVuSans-73" x="494.628906"/>
     </g>
    </g>
   </g>
   <g id="line2d_29">
    <path d="M 135.677727 518.216914 
L 137.139526 518.023586 
L 138.601325 518.371576 
L 140.063123 517.810925 
L 141.524922 516.47696 
L 142.986721 516.61229 
L 144.448519 516.534958 
L 145.910318 516.805618 
L 147.372117 514.756339 
L 148.833915 515.645649 
L 150.295714 513.770365 
L 151.757513 513.422375 
L 153.219312 512.281738 
L 154.68111 511.33443 
L 156.142909 508.685834 
L 157.604708 506.675221 
L 159.066506 507.293871 
L 160.528305 508.299178 
L 161.990104 504.509945 
L 163.451902 502.69266 
L 166.3755 496.428827 
L 167.837298 496.834816 
L 169.299097 497.878788 
L 170.760896 502.112676 
L 172.222695 502.866656 
L 173.684493 499.502745 
L 175.146292 498.052784 
L 176.608091 499.270751 
L 178.069889 499.618742 
L 179.531688 497.743459 
L 182.455285 503.871962 
L 183.917084 500.450053 
L 185.378883 495.636181 
L 186.840681 493.335576 
L 188.30248 493.838229 
L 189.764279 496.351496 
L 191.226078 500.450053 
L 192.687876 502.325337 
L 194.149675 504.877269 
L 195.611474 498.323443 
L 197.073272 495.133528 
L 198.535071 496.061503 
L 199.99687 499.212753 
L 201.458668 504.529278 
L 202.920467 505.147928 
L 204.382266 505.302591 
L 205.844064 502.093343 
L 207.305863 503.427307 
L 208.767662 506.481893 
L 210.229461 506.404561 
L 211.691259 511.160435 
L 213.153058 515.258992 
L 214.614857 511.489093 
L 216.076655 509.188487 
L 217.538454 509.749139 
L 219.000253 510.541785 
L 220.462051 512.455734 
L 221.92385 515.10433 
L 223.385649 512.823057 
L 224.847447 512.823057 
L 226.309246 512.011079 
L 227.771045 512.823057 
L 229.232844 513.422375 
L 230.694642 514.311684 
L 232.156441 515.529652 
L 233.61824 515.220327 
L 235.080038 514.679008 
L 236.541837 513.693034 
L 238.003636 515.084997 
L 239.465434 515.23966 
L 240.927233 516.573624 
L 242.389032 516.128969 
L 243.85083 516.844284 
L 245.312629 515.374989 
L 246.774428 514.07969 
L 248.236227 515.432988 
L 251.159824 515.645649 
L 252.621623 514.872336 
L 254.083421 516.496293 
L 255.54522 515.23966 
L 257.007019 515.548985 
L 258.468817 515.548985 
L 259.930616 516.264299 
L 261.392415 515.58765 
L 262.854213 516.979613 
L 264.316012 517.153609 
L 265.777811 517.192274 
L 267.239609 515.355657 
L 268.701408 514.795005 
L 270.163207 515.316991 
L 271.625006 514.369683 
L 273.086804 515.780979 
L 274.548603 515.819644 
L 276.010402 515.490986 
L 277.4722 515.85831 
L 278.933999 514.988333 
L 280.395798 515.490986 
L 281.857596 516.206301 
L 283.319395 515.916308 
L 286.242992 516.805618 
L 287.704791 516.592957 
L 290.628389 517.250273 
L 292.090187 517.153609 
L 293.551986 517.675595 
L 295.013785 517.636929 
L 296.475583 517.443601 
L 297.937382 516.863616 
L 300.860979 517.501599 
L 302.322778 517.71426 
L 303.784577 517.520932 
L 305.246375 517.888256 
L 306.708174 517.791592 
L 308.169973 517.540265 
L 309.631772 517.520932 
L 311.09357 517.733593 
L 312.555369 517.598264 
L 314.017168 518.197581 
L 315.478966 518.332911 
L 316.940765 517.888256 
L 319.864362 517.733593 
L 321.326161 517.36627 
L 322.78796 517.153609 
L 324.249758 517.598264 
L 325.711557 517.09561 
L 328.635155 516.689621 
L 330.096953 516.882949 
L 331.558752 516.186968 
L 333.020551 516.186968 
L 334.482349 515.452321 
L 335.944148 515.72298 
L 337.405947 515.703647 
L 340.329544 515.99364 
L 343.253141 514.872336 
L 344.71494 514.949667 
L 346.176739 514.659675 
L 347.638538 514.195687 
L 349.100336 512.397735 
L 350.562135 512.397735 
L 352.023934 510.657782 
L 353.485732 512.049744 
L 354.947531 511.798418 
L 356.40933 509.575144 
L 357.871128 510.71578 
L 359.332927 507.293871 
L 360.794726 508.995159 
L 362.256524 509.633142 
L 363.718323 507.83519 
L 365.180122 503.775298 
L 366.641921 507.003879 
L 368.103719 506.404561 
L 369.565518 507.854523 
L 371.027317 506.868549 
L 372.489115 506.307897 
L 373.950914 509.34315 
L 375.412713 509.594477 
L 376.874511 509.459147 
L 378.33631 508.299178 
L 379.798109 508.7245 
L 381.259907 508.685834 
L 382.721706 509.188487 
L 384.183505 510.193794 
L 385.645303 507.912521 
L 387.107102 510.947774 
L 388.568901 507.931854 
L 390.0307 509.169154 
L 391.492498 509.304484 
L 394.416096 509.20782 
L 395.877894 508.821164 
L 397.339693 509.9618 
L 398.801492 505.070597 
L 400.26329 507.409868 
L 401.725089 504.625942 
L 403.186888 506.443227 
L 404.648686 501.204033 
L 406.110485 503.620635 
L 409.034083 496.950813 
L 410.495881 502.808657 
L 411.95768 494.418214 
L 413.419479 495.365522 
L 414.881277 497.975452 
L 416.343076 493.91556 
L 417.804875 492.388268 
L 419.266673 489.275684 
L 422.190271 481.194566 
L 423.652069 482.412533 
L 425.113868 483.340508 
L 426.575667 476.245364 
L 428.037466 475.742711 
L 429.499264 473.867427 
L 430.961063 469.962198 
L 432.422862 465.554315 
L 433.88466 466.791616 
L 435.346459 461.455757 
L 436.808258 462.886386 
L 438.270056 460.914439 
L 439.731855 455.462584 
L 441.193654 456.100567 
L 442.655452 445.448183 
L 444.117251 442.915584 
L 445.57905 441.987609 
L 447.040849 430.929236 
L 448.502647 431.625218 
L 449.964446 422.867451 
L 451.426245 407.169202 
L 452.888043 403.766626 
L 454.349842 393.752226 
L 455.811641 396.381489 
L 457.273439 387.46906 
L 458.735238 377.241998 
L 460.197037 378.807957 
L 461.658835 368.638894 
L 463.120634 365.294316 
L 464.582433 362.297729 
L 466.044232 361.466418 
L 467.50603 364.598335 
L 468.967829 361.54375 
L 471.891426 340.142319 
L 473.353225 326.203357 
L 474.815024 351.916006 
L 476.276822 322.414124 
L 477.738621 319.804194 
L 479.20042 320.519508 
L 480.662218 362.839048 
L 482.124017 320.925497 
L 483.585816 305.053253 
L 485.047615 330.089253 
L 486.509413 351.200691 
L 487.971212 359.223811 
L 489.433011 369.392874 
L 490.894809 372.060803 
L 492.356608 384.704467 
L 493.818407 379.291277 
L 495.280205 391.084297 
L 498.203803 428.725295 
L 499.665601 429.208616 
L 501.1274 414.921662 
L 502.589199 410.359117 
L 504.050997 401.678682 
L 505.512796 404.984594 
L 506.974595 414.245014 
L 509.898192 436.245762 
L 511.359991 430.387918 
L 512.82179 409.063818 
L 514.283588 404.327278 
L 515.745387 402.915982 
L 517.207186 415.404983 
L 518.668984 418.826892 
L 520.130783 442.68359 
L 521.592582 424.066086 
L 523.05438 432.611192 
L 524.516179 407.807185 
L 525.977978 432.66919 
L 527.439777 411.403089 
L 528.901575 430.600579 
L 530.363374 440.924304 
L 531.825173 424.104751 
L 533.286971 410.842438 
L 534.74877 405.10059 
L 536.210569 392.766252 
L 537.672367 388.281038 
L 539.134166 381.843209 
L 540.595965 400.692708 
L 542.057763 392.47626 
L 543.519562 350.620707 
L 544.981361 348.146106 
L 546.44316 342.636253 
L 547.904958 328.039974 
L 549.366757 355.415246 
L 550.828556 390.794305 
L 552.290354 303.119971 
L 553.752153 271.955467 
L 555.213952 287.847044 
L 556.67575 282.665849 
L 558.137549 267.72158 
L 559.599348 303.313299 
L 561.061146 329.103279 
L 562.522945 318.102906 
L 563.984744 296.778806 
L 565.446543 296.759473 
L 566.908341 329.238609 
L 568.37014 344.898192 
L 569.831939 375.966032 
L 571.293737 373.646094 
L 572.755536 336.314421 
L 574.217335 332.157865 
L 575.679133 361.060429 
L 577.140932 352.940645 
L 578.602731 376.004698 
L 580.064529 390.774972 
L 581.526328 395.859503 
L 582.988127 381.939873 
L 584.449926 331.887205 
L 585.911724 362.1624 
L 588.835322 391.354956 
L 590.29712 413.665029 
L 591.758919 423.447436 
L 593.220718 401.234027 
L 594.682516 393.346237 
L 596.144315 402.509993 
L 597.606114 416.622951 
L 599.067912 411.074432 
L 600.529711 426.502021 
L 601.99151 435.955769 
L 603.453309 411.325758 
L 604.915107 406.763213 
L 606.376906 407.923182 
L 607.838705 413.703695 
L 609.300503 424.626738 
L 610.762302 439.93833 
L 612.224101 442.451597 
L 613.685899 427.642657 
L 615.147698 428.299973 
L 616.609497 433.983822 
L 618.071295 438.333706 
L 619.533094 447.903451 
L 620.994893 456.390559 
L 622.456691 450.397385 
L 623.91849 441.31096 
L 625.380289 437.81172 
L 626.842088 435.530447 
L 628.303886 439.957663 
L 629.765685 443.244242 
L 631.227484 475.356054 
L 632.689282 484.983798 
L 634.151081 457.647192 
L 635.61288 433.403837 
L 637.074678 435.337119 
L 638.536477 438.333706 
L 639.998276 452.775322 
L 641.460074 464.046355 
L 642.921873 466.984944 
L 644.383672 453.877292 
L 645.845471 430.871238 
L 647.307269 428.589965 
L 648.769068 431.238562 
L 650.230867 428.725295 
L 651.692665 438.198376 
L 653.154464 445.351519 
L 654.616263 434.544474 
L 656.078061 422.616124 
L 657.53986 420.605511 
L 659.001659 423.834092 
L 660.463457 429.401944 
L 661.925256 446.511489 
L 663.387055 442.3356 
L 664.848854 421.881477 
L 666.310652 439.880332 
L 667.772451 428.860625 
L 669.23425 416.294293 
L 670.696048 431.837879 
L 672.157847 443.901558 
L 673.619646 436.129765 
L 675.081444 417.318932 
L 676.543243 416.584285 
L 678.005042 403.476634 
L 679.46684 395.743506 
L 682.390438 412.621057 
L 683.852237 423.447436 
L 685.314035 404.771933 
L 686.775834 400.460714 
L 688.237633 376.932673 
L 689.699431 372.022137 
L 692.623029 397.193468 
L 694.084827 410.571778 
L 695.546626 372.911447 
L 697.008425 370.359515 
L 698.470223 372.872781 
L 699.932022 349.209411 
L 701.393821 374.574069 
L 702.85562 387.894382 
L 704.317418 405.796572 
L 705.779217 371.500151 
L 707.241016 367.826916 
L 708.702814 379.523271 
L 710.164613 372.118801 
L 711.626412 386.328423 
L 713.08821 415.868971 
L 714.550009 411.519086 
L 716.011808 395.878836 
L 717.473606 368.948219 
L 718.935405 370.900834 
L 720.397204 370.920167 
L 721.859003 361.582415 
L 723.320801 390.272318 
L 724.7826 389.035018 
L 726.244399 413.819692 
L 727.706197 350.910699 
L 729.167996 347.121467 
L 730.629795 359.436472 
L 732.091593 354.235944 
L 733.553392 380.605909 
L 735.015191 387.121069 
L 736.476989 355.202585 
L 737.938788 333.801154 
L 739.400587 340.451644 
L 740.862385 363.129041 
L 742.324184 363.941019 
L 743.785983 398.624096 
L 745.247782 416.429622 
L 746.70958 351.74201 
L 748.171379 378.189307 
L 749.633178 368.890221 
L 751.094976 407.188535 
L 752.556775 413.413703 
L 754.018574 341.398952 
L 755.480372 369.006218 
L 758.40397 388.435701 
L 759.865768 374.78673 
L 761.327567 375.463379 
L 764.251165 405.680575 
L 765.712963 412.176402 
L 767.174762 396.400822 
L 768.636561 402.761319 
L 770.098359 411.828411 
L 771.560158 432.53386 
L 773.021957 433.461836 
L 774.483755 463.73703 
L 775.945554 416.042966 
L 777.407353 431.064566 
L 778.869151 429.749935 
L 780.33095 438.991022 
L 781.792749 457.647192 
L 783.254548 452.813987 
L 784.716346 466.250297 
L 786.178145 470.967504 
L 787.639944 466.056968 
L 789.101742 453.741963 
L 790.563541 444.771535 
L 792.02534 454.321947 
L 793.487138 468.299575 
L 794.948937 479.937932 
L 796.410736 471.044836 
L 797.872534 469.517543 
L 799.334333 465.612314 
L 800.796132 472.688125 
L 802.257931 478.043316 
L 803.719729 488.676366 
L 805.181528 490.609648 
L 806.643327 491.228299 
L 808.105125 485.138461 
L 809.566924 488.502371 
L 811.028723 492.175607 
L 812.490521 495.036864 
L 813.95232 498.864762 
L 815.414119 501.996679 
L 816.875917 498.884095 
L 818.337716 499.19342 
L 819.799515 498.516771 
L 821.261314 501.784018 
L 822.723112 505.611916 
L 824.184911 505.263925 
L 825.64671 507.989853 
L 827.108508 505.495919 
L 828.570307 506.133902 
L 830.032106 505.534585 
L 831.493904 506.501225 
L 832.955703 508.260512 
L 834.417502 509.304484 
L 835.8793 508.028518 
L 837.341099 508.782498 
L 838.802898 506.694554 
L 840.264697 503.098649 
L 841.726495 500.817377 
L 843.188294 497.337469 
L 844.650093 495.790844 
L 846.111891 489.759004 
L 847.57369 476.612687 
L 849.035489 449.372746 
L 850.497287 414.709001 
L 851.959086 385.922434 
L 853.420885 321.331486 
L 856.344482 355.995231 
L 857.806281 368.155574 
L 859.268079 317.812913 
L 860.729878 306.754541 
L 862.191677 301.341352 
L 863.653476 305.362578 
L 865.115274 322.124132 
L 866.577073 347.430792 
L 868.038872 387.991046 
L 869.50067 386.425087 
L 870.962469 398.488766 
L 872.424268 395.820837 
L 873.886066 417.318932 
L 875.347865 429.92393 
L 876.809664 444.868199 
L 878.271462 442.006942 
L 879.733261 452.407998 
L 881.19506 432.920517 
L 882.656859 452.639992 
L 884.118657 462.113073 
L 885.580456 474.273416 
L 887.042255 478.41064 
L 888.504053 476.28403 
L 891.427651 454.592607 
L 892.889449 462.905719 
L 894.351248 472.668792 
L 895.813047 474.389413 
L 897.274845 479.609274 
L 898.736644 477.192672 
L 900.198443 478.023983 
L 901.660242 469.382213 
L 903.12204 467.487597 
L 904.583839 474.447412 
L 906.045638 475.278723 
L 907.507436 475.762043 
L 908.969235 474.447412 
L 910.431034 465.148326 
L 911.892832 470.967504 
L 913.354631 476.303362 
L 914.81643 471.818148 
L 916.278228 471.412159 
L 917.740027 472.939452 
L 919.201826 471.431492 
L 920.663625 464.549009 
L 922.125423 468.473571 
L 923.587222 464.896999 
L 925.049021 471.62482 
L 927.972618 477.018677 
L 929.434417 475.027396 
L 930.896215 465.090327 
L 932.358014 465.070995 
L 933.819813 470.078195 
L 935.281611 465.86364 
L 936.74341 473.40344 
L 938.205209 478.120647 
L 939.667008 471.199498 
L 941.128806 464.974331 
L 942.590605 473.422772 
L 944.052404 467.255603 
L 945.514202 476.303362 
L 946.976001 478.487971 
L 948.4378 485.119128 
L 949.899598 480.305256 
L 951.361397 473.074782 
L 952.823196 478.584635 
L 954.284994 477.888654 
L 955.746793 480.053929 
L 957.208592 486.820416 
L 958.670391 492.832923 
L 960.132189 486.839749 
L 961.593988 482.373868 
L 963.055787 483.997824 
L 964.517585 486.240431 
L 965.979384 488.057716 
L 967.441183 488.077049 
L 968.902981 492.19494 
L 970.36478 485.795776 
L 971.826579 485.138461 
L 973.288377 486.105102 
L 974.750176 485.795776 
L 976.211975 486.723752 
L 977.673773 488.019051 
L 979.135572 487.864388 
L 980.597371 482.277203 
L 982.05917 482.180539 
L 983.520968 466.153632 
L 984.982767 465.457651 
L 986.444566 470.986837 
L 987.906364 466.114967 
L 989.368163 475.510717 
L 990.829962 463.25371 
L 992.29176 447.110806 
L 993.753559 448.71543 
L 995.215358 447.536128 
L 996.677156 447.632792 
L 998.138955 448.251442 
L 999.600754 454.244616 
L 1001.062553 443.321573 
L 1002.524351 430.40725 
L 1003.98615 418.904223 
L 1005.447949 406.12523 
L 1006.909747 409.353811 
L 1008.371546 397.135469 
L 1009.833345 416.564952 
L 1011.295143 407.749187 
L 1012.756942 378.55663 
L 1014.218741 370.765504 
L 1015.680539 376.120695 
L 1017.142338 365.448979 
L 1018.604137 361.389087 
L 1020.065936 370.320849 
L 1021.527734 370.262851 
L 1022.989533 342.114267 
L 1024.451332 321.69881 
L 1025.91313 308.765154 
L 1027.374929 287.557052 
L 1028.836728 299.736728 
L 1030.298526 291.694275 
L 1031.760325 300.761367 
L 1033.222124 274.488066 
L 1034.683922 204.69659 
L 1036.145721 205.682564 
L 1037.60752 251.366015 
L 1039.069319 287.189728 
L 1040.531117 147.664774 
L 1041.992916 129.008604 
L 1043.454715 118.317555 
L 1044.916513 63.045026 
L 1046.378312 113.27169 
L 1047.840111 98.308088 
L 1049.301909 119.941512 
L 1050.763708 74.354725 
L 1052.225507 75.205369 
L 1053.687305 60.609091 
L 1055.149104 89.975643 
L 1056.610903 107.800502 
L 1058.072702 93.72621 
L 1059.5345 92.160251 
L 1060.996299 104.011269 
L 1062.458098 92.276248 
L 1063.919896 161.236413 
L 1065.381695 73.310753 
L 1066.843494 102.889966 
L 1068.305292 81.31454 
L 1069.767091 72.730768 
L 1071.22889 113.233024 
L 1072.690688 171.830798 
L 1074.152487 169.626857 
L 1075.614286 136.993058 
L 1077.076085 180.820559 
L 1078.537883 175.542699 
L 1079.999682 197.640111 
L 1081.461481 252.177993 
L 1082.923279 271.356149 
L 1084.385078 257.803843 
L 1085.846877 202.047994 
L 1087.308675 221.651472 
L 1088.770474 234.933119 
L 1090.232273 261.651074 
L 1090.232273 261.651074 
" clip-path="url(#p9da30153a8)" style="fill: none; stroke-dasharray: 1.5,2.475; stroke-dashoffset: 0; stroke: #000000; stroke-opacity: 0.5; stroke-width: 1.5"/>
   </g>
   <g id="line2d_30">
    <path d="M 135.677727 518.390909 
L 140.063123 517.482267 
L 142.986721 516.747619 
L 145.910318 515.954974 
L 147.372117 515.452321 
L 148.833915 514.814338 
L 150.295714 514.041025 
L 151.757513 513.055051 
L 160.528305 505.84391 
L 161.990104 504.181287 
L 164.913701 500.334056 
L 166.3755 499.077423 
L 167.837298 498.826096 
L 169.299097 499.174087 
L 170.760896 499.734739 
L 172.222695 500.121395 
L 173.684493 500.08273 
L 176.608091 499.290084 
L 178.069889 499.425414 
L 179.531688 499.889401 
L 180.993487 500.121395 
L 182.455285 499.696073 
L 183.917084 498.632768 
L 185.378883 497.356802 
L 186.840681 496.428827 
L 188.30248 496.390161 
L 189.764279 497.588796 
L 191.226078 499.096756 
L 192.687876 500.044064 
L 194.149675 500.063397 
L 195.611474 499.406081 
L 197.073272 498.903428 
L 198.535071 499.154754 
L 199.99687 500.237392 
L 201.458668 501.80335 
L 202.920467 503.117982 
L 204.382266 503.968626 
L 205.844064 504.413281 
L 207.305863 505.051264 
L 208.767662 506.46256 
L 211.691259 509.787805 
L 213.153058 510.793111 
L 214.614857 511.083104 
L 217.538454 511.141102 
L 219.000253 511.411761 
L 221.92385 512.668395 
L 223.385649 512.939054 
L 226.309246 512.997053 
L 227.771045 513.171048 
L 232.156441 514.524345 
L 233.61824 514.717674 
L 236.541837 514.872336 
L 238.003636 515.065664 
L 240.927233 515.780979 
L 242.389032 515.916308 
L 243.85083 515.819644 
L 248.236227 515.278325 
L 251.159824 515.432988 
L 254.083421 515.58765 
L 257.007019 515.664982 
L 259.930616 515.99364 
L 261.392415 516.283632 
L 262.854213 516.457627 
L 264.316012 516.457627 
L 265.777811 516.244966 
L 268.701408 515.490986 
L 270.163207 515.278325 
L 271.625006 515.220327 
L 274.548603 515.471653 
L 280.395798 515.703647 
L 293.551986 517.36627 
L 302.322778 517.540265 
L 305.246375 517.675595 
L 311.09357 517.752926 
L 315.478966 517.98492 
L 318.402564 517.810925 
L 330.096953 516.534958 
L 334.482349 515.896975 
L 341.791343 515.394322 
L 343.253141 515.123663 
L 346.176739 514.253686 
L 350.562135 512.378402 
L 352.023934 511.798418 
L 353.485732 511.392429 
L 359.332927 509.227153 
L 360.794726 508.531171 
L 362.256524 507.989853 
L 363.718323 507.313204 
L 365.180122 506.926547 
L 366.641921 506.675221 
L 368.103719 506.59789 
L 369.565518 506.887882 
L 372.489115 507.854523 
L 375.412713 508.666501 
L 376.874511 508.879162 
L 379.798109 508.956493 
L 381.259907 508.937161 
L 384.183505 509.20782 
L 387.107102 509.227153 
L 390.0307 509.111156 
L 392.954297 509.149822 
L 394.416096 508.956493 
L 395.877894 508.608503 
L 398.801492 507.274538 
L 403.186888 504.316617 
L 407.572284 500.759378 
L 409.034083 499.425414 
L 410.495881 498.497438 
L 414.881277 495.230192 
L 416.343076 493.412907 
L 417.804875 491.324963 
L 422.190271 483.997824 
L 426.575667 477.907986 
L 429.499264 472.862121 
L 430.961063 470.058862 
L 433.88466 465.534982 
L 435.346459 463.389039 
L 436.808258 461.494423 
L 438.270056 459.019822 
L 439.731855 455.829907 
L 441.193654 452.330667 
L 445.57905 438.797694 
L 447.040849 433.036514 
L 448.502647 426.811346 
L 452.888043 404.849264 
L 454.349842 397.986113 
L 457.273439 386.734413 
L 460.197037 376.004698 
L 461.658835 371.055496 
L 463.120634 367.420926 
L 466.044232 362.471725 
L 467.50603 359.610468 
L 470.429628 350.156719 
L 473.353225 338.479697 
L 474.815024 333.337167 
L 476.276822 331.867873 
L 479.20042 329.876592 
L 480.662218 328.426631 
L 482.124017 329.083947 
L 483.585816 331.365219 
L 485.047615 337.010402 
L 486.509413 344.376206 
L 487.971212 355.492577 
L 489.433011 365.52631 
L 490.894809 373.104775 
L 492.356608 380.045257 
L 493.818407 388.377702 
L 496.742004 406.956541 
L 498.203803 413.684362 
L 499.665601 416.75828 
L 501.1274 415.791639 
L 502.589199 412.891716 
L 504.050997 410.939102 
L 505.512796 412.389063 
L 506.974595 416.700282 
L 508.436394 420.508847 
L 509.898192 422.17147 
L 511.359991 420.315519 
L 514.283588 413.085045 
L 515.745387 413.181709 
L 517.207186 415.965635 
L 518.668984 421.28216 
L 520.130783 424.452742 
L 521.592582 426.42469 
L 524.516179 423.930756 
L 525.977978 423.563433 
L 527.439777 424.897397 
L 528.901575 425.342052 
L 530.363374 424.839399 
L 531.825173 420.044859 
L 533.286971 413.645696 
L 534.74877 405.003926 
L 536.210569 397.947447 
L 537.672367 393.616896 
L 539.134166 388.938354 
L 540.595965 383.099843 
L 542.057763 375.05739 
L 543.519562 364.250344 
L 544.981361 354.931925 
L 546.44316 350.50471 
L 547.904958 346.73481 
L 549.366757 342.036935 
L 550.828556 332.931178 
L 552.290354 319.069546 
L 553.752153 303.467962 
L 555.213952 291.500947 
L 556.67575 286.803072 
L 558.137549 291.86827 
L 559.599348 299.13741 
L 561.061146 304.27994 
L 563.984744 313.173037 
L 565.446543 319.881525 
L 568.37014 341.321621 
L 569.831939 349.654066 
L 571.293737 353.771956 
L 572.755536 352.843981 
L 574.217335 352.76665 
L 575.679133 355.685905 
L 577.140932 362.974378 
L 578.602731 372.408794 
L 580.064529 376.584683 
L 581.526328 375.869368 
L 584.449926 369.837529 
L 585.911724 371.674147 
L 587.373523 379.465273 
L 590.29712 399.842064 
L 591.758919 404.48194 
L 593.220718 406.144563 
L 594.682516 406.26056 
L 596.144315 407.555858 
L 597.606114 411.403089 
L 599.067912 415.984968 
L 600.529711 419.000887 
L 601.99151 419.039553 
L 603.453309 416.854944 
L 604.915107 415.230988 
L 606.376906 415.65631 
L 607.838705 419.058886 
L 609.300503 424.568739 
L 610.762302 429.382611 
L 612.224101 432.340532 
L 613.685899 433.577833 
L 615.147698 434.621805 
L 616.609497 436.883745 
L 619.533094 444.365546 
L 620.994893 446.414824 
L 622.456691 445.950837 
L 623.91849 443.959556 
L 625.380289 441.658951 
L 626.842088 442.412931 
L 628.303886 447.362133 
L 629.765685 453.838627 
L 631.227484 458.362506 
L 632.689282 459.058488 
L 634.151081 455.269255 
L 635.61288 450.107393 
L 637.074678 446.240829 
L 638.536477 446.608153 
L 639.998276 450.474716 
L 641.460074 453.413305 
L 642.921873 452.620659 
L 644.383672 448.348106 
L 645.845471 441.774948 
L 647.307269 436.226429 
L 648.769068 433.69383 
L 650.230867 433.732495 
L 651.692665 434.602472 
L 653.154464 434.04182 
L 654.616263 431.818546 
L 656.078061 429.208616 
L 657.53986 428.145311 
L 659.001659 429.150617 
L 660.463457 431.141898 
L 661.925256 433.964489 
L 663.387055 434.969796 
L 664.848854 433.500501 
L 666.310652 431.470555 
L 667.772451 430.039927 
L 669.23425 430.155924 
L 670.696048 430.890571 
L 672.157847 430.039927 
L 673.619646 427.217335 
L 675.081444 421.939476 
L 676.543243 415.076325 
L 678.005042 409.295812 
L 679.46684 407.169202 
L 680.928639 407.459194 
L 682.390438 408.290506 
L 683.852237 407.033872 
L 685.314035 402.529326 
L 686.775834 395.801505 
L 688.237633 389.769665 
L 689.699431 387.314397 
L 691.16123 387.217733 
L 692.623029 387.488392 
L 694.084827 386.773078 
L 695.546626 381.920541 
L 697.008425 376.004698 
L 698.470223 371.809476 
L 699.932022 372.04147 
L 702.85562 379.078616 
L 704.317418 380.9539 
L 705.779217 380.799237 
L 707.241016 379.001285 
L 708.702814 380.122588 
L 710.164613 384.124482 
L 711.626412 391.026298 
L 713.08821 395.202187 
L 714.550009 394.873529 
L 716.011808 390.658975 
L 717.473606 383.061177 
L 718.935405 376.797344 
L 720.397204 374.43874 
L 723.320801 380.992565 
L 724.7826 381.185894 
L 726.244399 377.783317 
L 729.167996 365.158987 
L 730.629795 363.515697 
L 732.091593 363.477031 
L 733.553392 365.081655 
L 735.015191 363.283703 
L 736.476989 359.088482 
L 737.938788 355.37658 
L 739.400587 355.879234 
L 740.862385 362.955045 
L 743.785983 379.097949 
L 745.247782 381.727212 
L 746.70958 382.268531 
L 748.171379 384.085816 
L 749.633178 382.964513 
L 751.094976 382.075203 
L 752.556775 381.939873 
L 754.018574 379.17528 
L 755.480372 377.087336 
L 756.942171 375.560043 
L 758.40397 376.623348 
L 759.865768 381.901208 
L 768.636561 410.765106 
L 770.098359 418.5369 
L 773.021957 431.625218 
L 774.483755 434.467142 
L 777.407353 435.298454 
L 778.869151 437.618392 
L 780.33095 441.871612 
L 781.792749 449.701404 
L 783.254548 456.177898 
L 784.716346 460.643779 
L 786.178145 461.726417 
L 789.101742 458.613833 
L 790.563541 458.478503 
L 792.02534 460.450451 
L 794.948937 467.835588 
L 796.410736 470.310189 
L 797.872534 471.354161 
L 799.334333 472.668792 
L 800.796132 475.182059 
L 803.719729 483.398507 
L 805.181528 486.588422 
L 806.643327 488.405707 
L 809.566924 490.648314 
L 811.028723 492.600929 
L 813.95232 497.163474 
L 815.414119 498.594103 
L 819.799515 500.972039 
L 821.261314 502.248005 
L 822.723112 503.736632 
L 824.184911 505.012598 
L 825.64671 505.824577 
L 827.108508 506.153235 
L 828.570307 506.269232 
L 831.493904 507.003879 
L 832.955703 507.622529 
L 834.417502 507.97052 
L 835.8793 507.815857 
L 837.341099 506.965213 
L 838.802898 505.341256 
L 840.264697 503.175981 
L 841.726495 500.488719 
L 843.188294 496.660821 
L 844.650093 490.338989 
L 846.111891 479.609274 
L 847.57369 463.408372 
L 849.035489 439.203683 
L 851.959086 385.535778 
L 853.420885 366.106295 
L 854.882683 352.689318 
L 856.344482 344.202211 
L 860.729878 320.229516 
L 862.191677 315.93763 
L 863.653476 320.152184 
L 865.115274 333.105173 
L 868.038872 367.459592 
L 869.50067 382.80985 
L 870.962469 395.395515 
L 872.424268 406.550552 
L 875.347865 426.850012 
L 876.809664 434.563806 
L 878.271462 440.769641 
L 881.19506 449.160085 
L 882.656859 454.553941 
L 884.118657 461.243096 
L 885.580456 466.61762 
L 887.042255 469.846201 
L 888.504053 469.49821 
L 889.965852 467.835588 
L 891.427651 466.443625 
L 892.889449 467.081608 
L 894.351248 469.459545 
L 895.813047 472.784789 
L 897.274845 475.143393 
L 898.736644 475.414053 
L 900.198443 474.544076 
L 901.660242 473.480771 
L 903.12204 472.842788 
L 904.583839 473.036116 
L 908.969235 472.707458 
L 910.431034 472.069475 
L 911.892832 471.818148 
L 914.81643 472.127474 
L 916.278228 471.914813 
L 917.740027 471.044836 
L 919.201826 469.575541 
L 920.663625 468.724897 
L 922.125423 468.570235 
L 923.587222 469.36288 
L 925.049021 470.890173 
L 926.510819 472.127474 
L 927.972618 472.166139 
L 929.434417 471.528156 
L 930.896215 469.904199 
L 932.358014 468.860227 
L 933.819813 469.01489 
L 935.281611 469.923532 
L 936.74341 470.967504 
L 938.205209 471.682819 
L 939.667008 471.257497 
L 941.128806 471.180165 
L 942.590605 471.412159 
L 944.052404 472.862121 
L 945.514202 475.25939 
L 946.976001 477.366667 
L 948.4378 478.487971 
L 949.899598 478.932626 
L 951.361397 478.584635 
L 952.823196 478.855294 
L 954.284994 480.189259 
L 957.208592 484.616475 
L 958.670391 485.834442 
L 960.132189 486.240431 
L 963.055787 485.931106 
L 964.517585 486.356428 
L 965.979384 487.168407 
L 967.441183 487.825722 
L 968.902981 487.883721 
L 973.288377 486.472425 
L 974.750176 486.375761 
L 976.211975 486.433759 
L 977.673773 486.1631 
L 979.135572 484.268484 
L 980.597371 481.097901 
L 983.520968 473.345441 
L 984.982767 470.812842 
L 986.444566 469.208218 
L 987.906364 467.042942 
L 989.368163 464.471677 
L 990.829962 460.431118 
L 992.29176 455.636579 
L 993.753559 451.789348 
L 995.215358 449.392079 
L 998.138955 447.323467 
L 999.600754 444.075553 
L 1001.062553 438.082379 
L 1002.524351 430.387918 
L 1003.98615 421.552819 
L 1005.447949 414.515673 
L 1006.909747 409.972461 
L 1008.371546 405.970567 
L 1009.833345 401.311358 
L 1011.295143 395.511512 
L 1014.218741 379.987259 
L 1015.680539 373.259438 
L 1017.142338 369.29621 
L 1018.604137 366.260957 
L 1020.065936 361.27309 
L 1021.527734 352.727984 
L 1022.989533 340.432311 
L 1025.91313 313.482362 
L 1027.374929 303.699955 
L 1028.836728 296.972134 
L 1030.298526 287.247727 
L 1033.222124 259.582463 
L 1034.683922 248.79475 
L 1036.145721 236.51841 
L 1037.60752 222.811441 
L 1039.069319 204.69659 
L 1040.531117 178.597285 
L 1043.454715 123.440752 
L 1044.916513 106.369873 
L 1046.378312 100.744023 
L 1047.840111 97.302781 
L 1049.301909 92.237583 
L 1050.763708 88.371019 
L 1052.225507 83.963136 
L 1053.687305 83.460483 
L 1055.149104 85.393765 
L 1056.610903 90.922951 
L 1058.072702 94.538188 
L 1059.5345 101.47867 
L 1062.458098 106.00255 
L 1063.919896 105.712557 
L 1066.843494 96.800128 
L 1068.305292 98.888072 
L 1069.767091 105.86722 
L 1071.22889 120.830822 
L 1072.690688 136.954393 
L 1074.152487 151.512005 
L 1077.076085 176.567339 
L 1078.537883 192.072259 
L 1079.999682 211.250416 
L 1081.461481 227.60598 
L 1082.923279 236.151086 
L 1084.385078 238.451692 
L 1085.846877 237.504384 
L 1087.308675 234.836455 
L 1088.770474 234.759123 
L 1090.232273 237.775043 
L 1090.232273 237.775043 
" clip-path="url(#p9da30153a8)" style="fill: none; stroke: #000000; stroke-width: 1.5; stroke-linecap: square"/>
   </g>
   <g id="patch_3">
    <path d="M 87.95 541.28 
L 87.95 37.72 
" style="fill: none; stroke: #555555; stroke-linejoin: miter; stroke-linecap: square"/>
   </g>
   <g id="patch_4">
    <path d="M 87.95 541.28 
L 1137.96 541.28 
" style="fill: none; stroke: #555555; stroke-linejoin: miter; stroke-linecap: square"/>
   </g>
   <g id="text_30">
    <!-- Positive COVID-19 tests - last updated on 20 December 2021 -->
    <g style="fill: #555555" transform="translate(337.753281 27.72)scale(0.18 -0.18)">
     <defs>
      <path id="DejaVuSans-50" d="M 1259 4147 
L 1259 2394 
L 2053 2394 
Q 2494 2394 2734 2622 
Q 2975 2850 2975 3272 
Q 2975 3691 2734 3919 
Q 2494 4147 2053 4147 
L 1259 4147 
z
M 628 4666 
L 2053 4666 
Q 2838 4666 3239 4311 
Q 3641 3956 3641 3272 
Q 3641 2581 3239 2228 
Q 2838 1875 2053 1875 
L 1259 1875 
L 1259 0 
L 628 0 
L 628 4666 
z
" transform="scale(0.015625)"/>
      <path id="DejaVuSans-6f" d="M 1959 3097 
Q 1497 3097 1228 2736 
Q 959 2375 959 1747 
Q 959 1119 1226 758 
Q 1494 397 1959 397 
Q 2419 397 2687 759 
Q 2956 1122 2956 1747 
Q 2956 2369 2687 2733 
Q 2419 3097 1959 3097 
z
M 1959 3584 
Q 2709 3584 3137 3096 
Q 3566 2609 3566 1747 
Q 3566 888 3137 398 
Q 2709 -91 1959 -91 
Q 1206 -91 779 398 
Q 353 888 353 1747 
Q 353 2609 779 3096 
Q 1206 3584 1959 3584 
z
" transform="scale(0.015625)"/>
      <path id="DejaVuSans-69" d="M 603 3500 
L 1178 3500 
L 1178 0 
L 603 0 
L 603 3500 
z
M 603 4863 
L 1178 4863 
L 1178 4134 
L 603 4134 
L 603 4863 
z
" transform="scale(0.015625)"/>
      <path id="DejaVuSans-74" d="M 1172 4494 
L 1172 3500 
L 2356 3500 
L 2356 3053 
L 1172 3053 
L 1172 1153 
Q 1172 725 1289 603 
Q 1406 481 1766 481 
L 2356 481 
L 2356 0 
L 1766 0 
Q 1100 0 847 248 
Q 594 497 594 1153 
L 594 3053 
L 172 3053 
L 172 3500 
L 594 3500 
L 594 4494 
L 1172 4494 
z
" transform="scale(0.015625)"/>
      <path id="DejaVuSans-76" d="M 191 3500 
L 800 3500 
L 1894 563 
L 2988 3500 
L 3597 3500 
L 2284 0 
L 1503 0 
L 191 3500 
z
" transform="scale(0.015625)"/>
      <path id="DejaVuSans-4f" d="M 2522 4238 
Q 1834 4238 1429 3725 
Q 1025 3213 1025 2328 
Q 1025 1447 1429 934 
Q 1834 422 2522 422 
Q 3209 422 3611 934 
Q 4013 1447 4013 2328 
Q 4013 3213 3611 3725 
Q 3209 4238 2522 4238 
z
M 2522 4750 
Q 3503 4750 4090 4092 
Q 4678 3434 4678 2328 
Q 4678 1225 4090 567 
Q 3503 -91 2522 -91 
Q 1538 -91 948 565 
Q 359 1222 359 2328 
Q 359 3434 948 4092 
Q 1538 4750 2522 4750 
z
" transform="scale(0.015625)"/>
      <path id="DejaVuSans-56" d="M 1831 0 
L 50 4666 
L 709 4666 
L 2188 738 
L 3669 4666 
L 4325 4666 
L 2547 0 
L 1831 0 
z
" transform="scale(0.015625)"/>
      <path id="DejaVuSans-49" d="M 628 4666 
L 1259 4666 
L 1259 0 
L 628 0 
L 628 4666 
z
" transform="scale(0.015625)"/>
      <path id="DejaVuSans-44" d="M 1259 4147 
L 1259 519 
L 2022 519 
Q 2988 519 3436 956 
Q 3884 1394 3884 2338 
Q 3884 3275 3436 3711 
Q 2988 4147 2022 4147 
L 1259 4147 
z
M 628 4666 
L 1925 4666 
Q 3281 4666 3915 4102 
Q 4550 3538 4550 2338 
Q 4550 1131 3912 565 
Q 3275 0 1925 0 
L 628 0 
L 628 4666 
z
" transform="scale(0.015625)"/>
      <path id="DejaVuSans-2d" d="M 313 2009 
L 1997 2009 
L 1997 1497 
L 313 1497 
L 313 2009 
z
" transform="scale(0.015625)"/>
      <path id="DejaVuSans-31" d="M 794 531 
L 1825 531 
L 1825 4091 
L 703 3866 
L 703 4441 
L 1819 4666 
L 2450 4666 
L 2450 531 
L 3481 531 
L 3481 0 
L 794 0 
L 794 531 
z
" transform="scale(0.015625)"/>
      <path id="DejaVuSans-39" d="M 703 97 
L 703 672 
Q 941 559 1184 500 
Q 1428 441 1663 441 
Q 2288 441 2617 861 
Q 2947 1281 2994 2138 
Q 2813 1869 2534 1725 
Q 2256 1581 1919 1581 
Q 1219 1581 811 2004 
Q 403 2428 403 3163 
Q 403 3881 828 4315 
Q 1253 4750 1959 4750 
Q 2769 4750 3195 4129 
Q 3622 3509 3622 2328 
Q 3622 1225 3098 567 
Q 2575 -91 1691 -91 
Q 1453 -91 1209 -44 
Q 966 3 703 97 
z
M 1959 2075 
Q 2384 2075 2632 2365 
Q 2881 2656 2881 3163 
Q 2881 3666 2632 3958 
Q 2384 4250 1959 4250 
Q 1534 4250 1286 3958 
Q 1038 3666 1038 3163 
Q 1038 2656 1286 2365 
Q 1534 2075 1959 2075 
z
" transform="scale(0.015625)"/>
      <path id="DejaVuSans-6c" d="M 603 4863 
L 1178 4863 
L 1178 0 
L 603 0 
L 603 4863 
z
" transform="scale(0.015625)"/>
      <path id="DejaVuSans-75" d="M 544 1381 
L 544 3500 
L 1119 3500 
L 1119 1403 
Q 1119 906 1312 657 
Q 1506 409 1894 409 
Q 2359 409 2629 706 
Q 2900 1003 2900 1516 
L 2900 3500 
L 3475 3500 
L 3475 0 
L 2900 0 
L 2900 538 
Q 2691 219 2414 64 
Q 2138 -91 1772 -91 
Q 1169 -91 856 284 
Q 544 659 544 1381 
z
M 1991 3584 
L 1991 3584 
z
" transform="scale(0.015625)"/>
      <path id="DejaVuSans-70" d="M 1159 525 
L 1159 -1331 
L 581 -1331 
L 581 3500 
L 1159 3500 
L 1159 2969 
Q 1341 3281 1617 3432 
Q 1894 3584 2278 3584 
Q 2916 3584 3314 3078 
Q 3713 2572 3713 1747 
Q 3713 922 3314 415 
Q 2916 -91 2278 -91 
Q 1894 -91 1617 61 
Q 1341 213 1159 525 
z
M 3116 1747 
Q 3116 2381 2855 2742 
Q 2594 3103 2138 3103 
Q 1681 3103 1420 2742 
Q 1159 2381 1159 1747 
Q 1159 1113 1420 752 
Q 1681 391 2138 391 
Q 2594 391 2855 752 
Q 3116 1113 3116 1747 
z
" transform="scale(0.015625)"/>
      <path id="DejaVuSans-64" d="M 2906 2969 
L 2906 4863 
L 3481 4863 
L 3481 0 
L 2906 0 
L 2906 525 
Q 2725 213 2448 61 
Q 2172 -91 1784 -91 
Q 1150 -91 751 415 
Q 353 922 353 1747 
Q 353 2572 751 3078 
Q 1150 3584 1784 3584 
Q 2172 3584 2448 3432 
Q 2725 3281 2906 2969 
z
M 947 1747 
Q 947 1113 1208 752 
Q 1469 391 1925 391 
Q 2381 391 2643 752 
Q 2906 1113 2906 1747 
Q 2906 2381 2643 2742 
Q 2381 3103 1925 3103 
Q 1469 3103 1208 2742 
Q 947 2381 947 1747 
z
" transform="scale(0.015625)"/>
      <path id="DejaVuSans-6e" d="M 3513 2113 
L 3513 0 
L 2938 0 
L 2938 2094 
Q 2938 2591 2744 2837 
Q 2550 3084 2163 3084 
Q 1697 3084 1428 2787 
Q 1159 2491 1159 1978 
L 1159 0 
L 581 0 
L 581 3500 
L 1159 3500 
L 1159 2956 
Q 1366 3272 1645 3428 
Q 1925 3584 2291 3584 
Q 2894 3584 3203 3211 
Q 3513 2838 3513 2113 
z
" transform="scale(0.015625)"/>
      <path id="DejaVuSans-32" d="M 1228 531 
L 3431 531 
L 3431 0 
L 469 0 
L 469 531 
Q 828 903 1448 1529 
Q 2069 2156 2228 2338 
Q 2531 2678 2651 2914 
Q 2772 3150 2772 3378 
Q 2772 3750 2511 3984 
Q 2250 4219 1831 4219 
Q 1534 4219 1204 4116 
Q 875 4013 500 3803 
L 500 4441 
Q 881 4594 1212 4672 
Q 1544 4750 1819 4750 
Q 2544 4750 2975 4387 
Q 3406 4025 3406 3419 
Q 3406 3131 3298 2873 
Q 3191 2616 2906 2266 
Q 2828 2175 2409 1742 
Q 1991 1309 1228 531 
z
" transform="scale(0.015625)"/>
      <path id="DejaVuSans-30" d="M 2034 4250 
Q 1547 4250 1301 3770 
Q 1056 3291 1056 2328 
Q 1056 1369 1301 889 
Q 1547 409 2034 409 
Q 2525 409 2770 889 
Q 3016 1369 3016 2328 
Q 3016 3291 2770 3770 
Q 2525 4250 2034 4250 
z
M 2034 4750 
Q 2819 4750 3233 4129 
Q 3647 3509 3647 2328 
Q 3647 1150 3233 529 
Q 2819 -91 2034 -91 
Q 1250 -91 836 529 
Q 422 1150 422 2328 
Q 422 3509 836 4129 
Q 1250 4750 2034 4750 
z
" transform="scale(0.015625)"/>
      <path id="DejaVuSans-63" d="M 3122 3366 
L 3122 2828 
Q 2878 2963 2633 3030 
Q 2388 3097 2138 3097 
Q 1578 3097 1268 2742 
Q 959 2388 959 1747 
Q 959 1106 1268 751 
Q 1578 397 2138 397 
Q 2388 397 2633 464 
Q 2878 531 3122 666 
L 3122 134 
Q 2881 22 2623 -34 
Q 2366 -91 2075 -91 
Q 1284 -91 818 406 
Q 353 903 353 1747 
Q 353 2603 823 3093 
Q 1294 3584 2113 3584 
Q 2378 3584 2631 3529 
Q 2884 3475 3122 3366 
z
" transform="scale(0.015625)"/>
      <path id="DejaVuSans-6d" d="M 3328 2828 
Q 3544 3216 3844 3400 
Q 4144 3584 4550 3584 
Q 5097 3584 5394 3201 
Q 5691 2819 5691 2113 
L 5691 0 
L 5113 0 
L 5113 2094 
Q 5113 2597 4934 2840 
Q 4756 3084 4391 3084 
Q 3944 3084 3684 2787 
Q 3425 2491 3425 1978 
L 3425 0 
L 2847 0 
L 2847 2094 
Q 2847 2600 2669 2842 
Q 2491 3084 2119 3084 
Q 1678 3084 1418 2786 
Q 1159 2488 1159 1978 
L 1159 0 
L 581 0 
L 581 3500 
L 1159 3500 
L 1159 2956 
Q 1356 3278 1631 3431 
Q 1906 3584 2284 3584 
Q 2666 3584 2933 3390 
Q 3200 3197 3328 2828 
z
" transform="scale(0.015625)"/>
      <path id="DejaVuSans-62" d="M 3116 1747 
Q 3116 2381 2855 2742 
Q 2594 3103 2138 3103 
Q 1681 3103 1420 2742 
Q 1159 2381 1159 1747 
Q 1159 1113 1420 752 
Q 1681 391 2138 391 
Q 2594 391 2855 752 
Q 3116 1113 3116 1747 
z
M 1159 2969 
Q 1341 3281 1617 3432 
Q 1894 3584 2278 3584 
Q 2916 3584 3314 3078 
Q 3713 2572 3713 1747 
Q 3713 922 3314 415 
Q 2916 -91 2278 -91 
Q 1894 -91 1617 61 
Q 1341 213 1159 525 
L 1159 0 
L 581 0 
L 581 4863 
L 1159 4863 
L 1159 2969 
z
" transform="scale(0.015625)"/>
      <path id="DejaVuSans-72" d="M 2631 2963 
Q 2534 3019 2420 3045 
Q 2306 3072 2169 3072 
Q 1681 3072 1420 2755 
Q 1159 2438 1159 1844 
L 1159 0 
L 581 0 
L 581 3500 
L 1159 3500 
L 1159 2956 
Q 1341 3275 1631 3429 
Q 1922 3584 2338 3584 
Q 2397 3584 2469 3576 
Q 2541 3569 2628 3553 
L 2631 2963 
z
" transform="scale(0.015625)"/>
     </defs>
     <use xlink:href="#DejaVuSans-50"/>
     <use xlink:href="#DejaVuSans-6f" x="56.677734"/>
     <use xlink:href="#DejaVuSans-73" x="117.859375"/>
     <use xlink:href="#DejaVuSans-69" x="169.958984"/>
     <use xlink:href="#DejaVuSans-74" x="197.742188"/>
     <use xlink:href="#DejaVuSans-69" x="236.951172"/>
     <use xlink:href="#DejaVuSans-76" x="264.734375"/>
     <use xlink:href="#DejaVuSans-65" x="323.914062"/>
     <use xlink:href="#DejaVuSans-20" x="385.4375"/>
     <use xlink:href="#DejaVuSans-43" x="417.224609"/>
     <use xlink:href="#DejaVuSans-4f" x="487.048828"/>
     <use xlink:href="#DejaVuSans-56" x="564.009766"/>
     <use xlink:href="#DejaVuSans-49" x="632.417969"/>
     <use xlink:href="#DejaVuSans-44" x="661.910156"/>
     <use xlink:href="#DejaVuSans-2d" x="738.912109"/>
     <use xlink:href="#DejaVuSans-31" x="774.996094"/>
     <use xlink:href="#DejaVuSans-39" x="838.619141"/>
     <use xlink:href="#DejaVuSans-20" x="902.242188"/>
     <use xlink:href="#DejaVuSans-74" x="934.029297"/>
     <use xlink:href="#DejaVuSans-65" x="973.238281"/>
     <use xlink:href="#DejaVuSans-73" x="1034.761719"/>
     <use xlink:href="#DejaVuSans-74" x="1086.861328"/>
     <use xlink:href="#DejaVuSans-73" x="1126.070312"/>
     <use xlink:href="#DejaVuSans-20" x="1178.169922"/>
     <use xlink:href="#DejaVuSans-2d" x="1209.957031"/>
     <use xlink:href="#DejaVuSans-20" x="1246.041016"/>
     <use xlink:href="#DejaVuSans-6c" x="1277.828125"/>
     <use xlink:href="#DejaVuSans-61" x="1305.611328"/>
     <use xlink:href="#DejaVuSans-73" x="1366.890625"/>
     <use xlink:href="#DejaVuSans-74" x="1418.990234"/>
     <use xlink:href="#DejaVuSans-20" x="1458.199219"/>
     <use xlink:href="#DejaVuSans-75" x="1489.986328"/>
     <use xlink:href="#DejaVuSans-70" x="1553.365234"/>
     <use xlink:href="#DejaVuSans-64" x="1616.841797"/>
     <use xlink:href="#DejaVuSans-61" x="1680.318359"/>
     <use xlink:href="#DejaVuSans-74" x="1741.597656"/>
     <use xlink:href="#DejaVuSans-65" x="1780.806641"/>
     <use xlink:href="#DejaVuSans-64" x="1842.330078"/>
     <use xlink:href="#DejaVuSans-20" x="1905.806641"/>
     <use xlink:href="#DejaVuSans-6f" x="1937.59375"/>
     <use xlink:href="#DejaVuSans-6e" x="1998.775391"/>
     <use xlink:href="#DejaVuSans-20" x="2062.154297"/>
     <use xlink:href="#DejaVuSans-32" x="2093.941406"/>
     <use xlink:href="#DejaVuSans-30" x="2157.564453"/>
     <use xlink:href="#DejaVuSans-20" x="2221.1875"/>
     <use xlink:href="#DejaVuSans-44" x="2252.974609"/>
     <use xlink:href="#DejaVuSans-65" x="2329.976562"/>
     <use xlink:href="#DejaVuSans-63" x="2391.5"/>
     <use xlink:href="#DejaVuSans-65" x="2446.480469"/>
     <use xlink:href="#DejaVuSans-6d" x="2508.003906"/>
     <use xlink:href="#DejaVuSans-62" x="2605.416016"/>
     <use xlink:href="#DejaVuSans-65" x="2668.892578"/>
     <use xlink:href="#DejaVuSans-72" x="2730.416016"/>
     <use xlink:href="#DejaVuSans-20" x="2771.529297"/>
     <use xlink:href="#DejaVuSans-32" x="2803.316406"/>
     <use xlink:href="#DejaVuSans-30" x="2866.939453"/>
     <use xlink:href="#DejaVuSans-32" x="2930.5625"/>
     <use xlink:href="#DejaVuSans-31" x="2994.185547"/>
    </g>
   </g>
   <g id="legend_1">
    <g id="line2d_31">
     <path d="M 99.65 54.747969 
L 112.65 54.747969 
L 125.65 54.747969 
" style="fill: none; stroke-dasharray: 1.5,2.475; stroke-dashoffset: 0; stroke: #000000; stroke-opacity: 0.5; stroke-width: 1.5"/>
    </g>
    <g id="text_31">
     <!-- Actual -->
     <g style="fill: #555555" transform="translate(136.05 59.297969)scale(0.13 -0.13)">
      <use xlink:href="#DejaVuSans-Bold-41"/>
      <use xlink:href="#DejaVuSans-Bold-63" x="77.392578"/>
      <use xlink:href="#DejaVuSans-Bold-74" x="136.669922"/>
      <use xlink:href="#DejaVuSans-Bold-75" x="184.472656"/>
      <use xlink:href="#DejaVuSans-Bold-61" x="255.664062"/>
      <use xlink:href="#DejaVuSans-Bold-6c" x="323.144531"/>
     </g>
    </g>
    <g id="line2d_32">
     <path d="M 99.65 73.829531 
L 112.65 73.829531 
L 125.65 73.829531 
" style="fill: none; stroke: #000000; stroke-width: 1.5; stroke-linecap: square"/>
    </g>
    <g id="text_32">
     <!-- Smoothed -->
     <g style="fill: #555555" transform="translate(136.05 78.379531)scale(0.13 -0.13)">
      <defs>
       <path id="DejaVuSans-Bold-6d" d="M 3781 2919 
Q 3994 3244 4286 3414 
Q 4578 3584 4928 3584 
Q 5531 3584 5847 3212 
Q 6163 2841 6163 2131 
L 6163 0 
L 5038 0 
L 5038 1825 
Q 5041 1866 5042 1909 
Q 5044 1953 5044 2034 
Q 5044 2406 4934 2573 
Q 4825 2741 4581 2741 
Q 4263 2741 4089 2478 
Q 3916 2216 3909 1719 
L 3909 0 
L 2784 0 
L 2784 1825 
Q 2784 2406 2684 2573 
Q 2584 2741 2328 2741 
Q 2006 2741 1831 2477 
Q 1656 2213 1656 1722 
L 1656 0 
L 531 0 
L 531 3500 
L 1656 3500 
L 1656 2988 
Q 1863 3284 2130 3434 
Q 2397 3584 2719 3584 
Q 3081 3584 3359 3409 
Q 3638 3234 3781 2919 
z
" transform="scale(0.015625)"/>
       <path id="DejaVuSans-Bold-68" d="M 4056 2131 
L 4056 0 
L 2931 0 
L 2931 347 
L 2931 1625 
Q 2931 2084 2911 2256 
Q 2891 2428 2841 2509 
Q 2775 2619 2662 2680 
Q 2550 2741 2406 2741 
Q 2056 2741 1856 2470 
Q 1656 2200 1656 1722 
L 1656 0 
L 538 0 
L 538 4863 
L 1656 4863 
L 1656 2988 
Q 1909 3294 2193 3439 
Q 2478 3584 2822 3584 
Q 3428 3584 3742 3212 
Q 4056 2841 4056 2131 
z
" transform="scale(0.015625)"/>
       <path id="DejaVuSans-Bold-64" d="M 2919 2988 
L 2919 4863 
L 4044 4863 
L 4044 0 
L 2919 0 
L 2919 506 
Q 2688 197 2409 53 
Q 2131 -91 1766 -91 
Q 1119 -91 703 423 
Q 288 938 288 1747 
Q 288 2556 703 3070 
Q 1119 3584 1766 3584 
Q 2128 3584 2408 3439 
Q 2688 3294 2919 2988 
z
M 2181 722 
Q 2541 722 2730 984 
Q 2919 1247 2919 1747 
Q 2919 2247 2730 2509 
Q 2541 2772 2181 2772 
Q 1825 2772 1636 2509 
Q 1447 2247 1447 1747 
Q 1447 1247 1636 984 
Q 1825 722 2181 722 
z
" transform="scale(0.015625)"/>
      </defs>
      <use xlink:href="#DejaVuSans-Bold-53"/>
      <use xlink:href="#DejaVuSans-Bold-6d" x="72.021484"/>
      <use xlink:href="#DejaVuSans-Bold-6f" x="176.220703"/>
      <use xlink:href="#DejaVuSans-Bold-6f" x="244.921875"/>
      <use xlink:href="#DejaVuSans-Bold-74" x="313.623047"/>
      <use xlink:href="#DejaVuSans-Bold-68" x="361.425781"/>
      <use xlink:href="#DejaVuSans-Bold-65" x="432.617188"/>
      <use xlink:href="#DejaVuSans-Bold-64" x="500.439453"/>
     </g>
    </g>
   </g>
  </g>
 </g>
 <defs>
  <clipPath id="p9da30153a8">
   <rect x="87.95" y="37.72" width="1050.01" height="503.56"/>
  </clipPath>
 </defs>
</svg>
