<?xml version="1.0" encoding="utf-8" standalone="no"?>
<!DOCTYPE svg PUBLIC "-//W3C//DTD SVG 1.1//EN"
  "http://www.w3.org/Graphics/SVG/1.1/DTD/svg11.dtd">
<!-- Created with matplotlib (https://matplotlib.org/) -->
<svg height="576pt" version="1.1" viewBox="0 0 1152 576" width="1152pt" xmlns="http://www.w3.org/2000/svg" xmlns:xlink="http://www.w3.org/1999/xlink">
 <metadata>
  <rdf:RDF xmlns:cc="http://creativecommons.org/ns#" xmlns:dc="http://purl.org/dc/elements/1.1/" xmlns:rdf="http://www.w3.org/1999/02/22-rdf-syntax-ns#">
   <cc:Work>
    <dc:type rdf:resource="http://purl.org/dc/dcmitype/StillImage"/>
    <dc:date>2021-03-04T17:31:46.573995</dc:date>
    <dc:format>image/svg+xml</dc:format>
    <dc:creator>
     <cc:Agent>
      <dc:title>Matplotlib v3.3.4, https://matplotlib.org/</dc:title>
     </cc:Agent>
    </dc:creator>
   </cc:Work>
  </rdf:RDF>
 </metadata>
 <defs>
  <style type="text/css">*{stroke-linecap:butt;stroke-linejoin:round;}</style>
 </defs>
 <g id="figure_1">
  <g id="patch_1">
   <path d="M 0 576 
L 1152 576 
L 1152 0 
L 0 0 
z
" style="fill:#ffffff;"/>
  </g>
  <g id="axes_1">
   <g id="patch_2">
    <path d="M 87.95 541.28 
L 1120.973242 541.28 
L 1120.973242 37.72 
L 87.95 37.72 
z
" style="fill:#ffffff;"/>
   </g>
   <g id="matplotlib.axis_1">
    <g id="xtick_1">
     <g id="line2d_1">
      <defs>
       <path d="M 0 0 
L 0 3.5 
" id="m3e3bf57ab0" style="stroke:#555555;stroke-width:0.8;"/>
      </defs>
      <g>
       <use style="fill:#555555;stroke:#555555;stroke-width:0.8;" x="164.57535" xlink:href="#m3e3bf57ab0" y="541.28"/>
      </g>
     </g>
     <g id="text_1">
      <!-- April -->
      <g style="fill:#555555;" transform="translate(145.896288 558.917812)scale(0.14 -0.14)">
       <defs>
        <path d="M 53.421875 13.28125 
L 24.03125 13.28125 
L 19.390625 0 
L 0.484375 0 
L 27.484375 72.90625 
L 49.90625 72.90625 
L 76.90625 0 
L 58.015625 0 
z
M 28.71875 26.8125 
L 48.6875 26.8125 
L 38.71875 55.8125 
z
" id="DejaVuSans-Bold-65"/>
        <path d="M 25.875 7.90625 
L 25.875 -20.796875 
L 8.40625 -20.796875 
L 8.40625 54.6875 
L 25.875 54.6875 
L 25.875 46.6875 
Q 29.5 51.46875 33.890625 53.734375 
Q 38.28125 56 44 56 
Q 54.109375 56 60.59375 47.96875 
Q 67.09375 39.9375 67.09375 27.296875 
Q 67.09375 14.65625 60.59375 6.609375 
Q 54.109375 -1.421875 44 -1.421875 
Q 38.28125 -1.421875 33.890625 0.84375 
Q 29.5 3.125 25.875 7.90625 
z
M 37.5 43.3125 
Q 31.890625 43.3125 28.875 39.1875 
Q 25.875 35.0625 25.875 27.296875 
Q 25.875 19.53125 28.875 15.40625 
Q 31.890625 11.28125 37.5 11.28125 
Q 43.109375 11.28125 46.0625 15.375 
Q 49.03125 19.484375 49.03125 27.296875 
Q 49.03125 35.109375 46.0625 39.203125 
Q 43.109375 43.3125 37.5 43.3125 
z
" id="DejaVuSans-Bold-112"/>
        <path d="M 49.03125 39.796875 
Q 46.734375 40.875 44.453125 41.375 
Q 42.1875 41.890625 39.890625 41.890625 
Q 33.15625 41.890625 29.515625 37.5625 
Q 25.875 33.25 25.875 25.203125 
L 25.875 0 
L 8.40625 0 
L 8.40625 54.6875 
L 25.875 54.6875 
L 25.875 45.703125 
Q 29.25 51.078125 33.609375 53.53125 
Q 37.984375 56 44.09375 56 
Q 44.96875 56 45.984375 55.921875 
Q 47.015625 55.859375 48.96875 55.609375 
z
" id="DejaVuSans-Bold-114"/>
        <path d="M 8.40625 54.6875 
L 25.875 54.6875 
L 25.875 0 
L 8.40625 0 
z
M 8.40625 75.984375 
L 25.875 75.984375 
L 25.875 61.71875 
L 8.40625 61.71875 
z
" id="DejaVuSans-Bold-105"/>
        <path d="M 8.40625 75.984375 
L 25.875 75.984375 
L 25.875 0 
L 8.40625 0 
z
" id="DejaVuSans-Bold-108"/>
       </defs>
       <use xlink:href="#DejaVuSans-Bold-65"/>
       <use x="77.392578" xlink:href="#DejaVuSans-Bold-112"/>
       <use x="148.974609" xlink:href="#DejaVuSans-Bold-114"/>
       <use x="198.291016" xlink:href="#DejaVuSans-Bold-105"/>
       <use x="232.568359" xlink:href="#DejaVuSans-Bold-108"/>
      </g>
     </g>
    </g>
    <g id="xtick_2">
     <g id="line2d_2">
      <g>
       <use style="fill:#555555;stroke:#555555;stroke-width:0.8;" x="249.714629" xlink:href="#m3e3bf57ab0" y="541.28"/>
      </g>
     </g>
     <g id="text_2">
      <!-- May -->
      <g style="fill:#555555;" transform="translate(233.680254 558.808437)scale(0.14 -0.14)">
       <defs>
        <path d="M 9.1875 72.90625 
L 33.109375 72.90625 
L 49.703125 33.890625 
L 66.40625 72.90625 
L 90.28125 72.90625 
L 90.28125 0 
L 72.515625 0 
L 72.515625 53.328125 
L 55.71875 14.015625 
L 43.796875 14.015625 
L 27 53.328125 
L 27 0 
L 9.1875 0 
z
" id="DejaVuSans-Bold-77"/>
        <path d="M 32.90625 24.609375 
Q 27.4375 24.609375 24.671875 22.75 
Q 21.921875 20.90625 21.921875 17.28125 
Q 21.921875 13.96875 24.140625 12.078125 
Q 26.375 10.203125 30.328125 10.203125 
Q 35.25 10.203125 38.625 13.734375 
Q 42 17.28125 42 22.609375 
L 42 24.609375 
z
M 59.625 31.203125 
L 59.625 0 
L 42 0 
L 42 8.109375 
Q 38.484375 3.125 34.078125 0.84375 
Q 29.6875 -1.421875 23.390625 -1.421875 
Q 14.890625 -1.421875 9.59375 3.53125 
Q 4.296875 8.5 4.296875 16.40625 
Q 4.296875 26.03125 10.90625 30.515625 
Q 17.53125 35.015625 31.6875 35.015625 
L 42 35.015625 
L 42 36.375 
Q 42 40.53125 38.71875 42.453125 
Q 35.453125 44.390625 28.515625 44.390625 
Q 22.90625 44.390625 18.0625 43.265625 
Q 13.234375 42.140625 9.078125 39.890625 
L 9.078125 53.21875 
Q 14.703125 54.59375 20.359375 55.296875 
Q 26.03125 56 31.6875 56 
Q 46.484375 56 53.046875 50.171875 
Q 59.625 44.34375 59.625 31.203125 
z
" id="DejaVuSans-Bold-97"/>
        <path d="M 1.21875 54.6875 
L 18.703125 54.6875 
L 33.40625 17.578125 
L 45.90625 54.6875 
L 63.375 54.6875 
L 40.375 -5.171875 
Q 36.921875 -14.3125 32.296875 -17.9375 
Q 27.6875 -21.578125 20.125 -21.578125 
L 10.015625 -21.578125 
L 10.015625 -10.109375 
L 15.484375 -10.109375 
Q 19.921875 -10.109375 21.9375 -8.6875 
Q 23.96875 -7.28125 25.09375 -3.609375 
L 25.59375 -2.09375 
z
" id="DejaVuSans-Bold-121"/>
       </defs>
       <use xlink:href="#DejaVuSans-Bold-77"/>
       <use x="99.511719" xlink:href="#DejaVuSans-Bold-97"/>
       <use x="163.867188" xlink:href="#DejaVuSans-Bold-121"/>
      </g>
     </g>
    </g>
    <g id="xtick_3">
     <g id="line2d_3">
      <g>
       <use style="fill:#555555;stroke:#555555;stroke-width:0.8;" x="337.691883" xlink:href="#m3e3bf57ab0" y="541.28"/>
      </g>
     </g>
     <g id="text_3">
      <!-- June -->
      <g style="fill:#555555;" transform="translate(320.373445 558.917812)scale(0.14 -0.14)">
       <defs>
        <path d="M 9.1875 72.90625 
L 27.984375 72.90625 
L 27.984375 7.078125 
Q 27.984375 -6.546875 20.578125 -13.28125 
Q 13.1875 -20.015625 -1.8125 -20.015625 
L -5.609375 -20.015625 
L -5.609375 -5.8125 
L -2.6875 -5.8125 
Q 3.171875 -5.8125 6.171875 -2.53125 
Q 9.1875 0.734375 9.1875 7.078125 
z
" id="DejaVuSans-Bold-74"/>
        <path d="M 7.8125 21.296875 
L 7.8125 54.6875 
L 25.390625 54.6875 
L 25.390625 49.21875 
Q 25.390625 44.78125 25.34375 38.0625 
Q 25.296875 31.34375 25.296875 29.109375 
Q 25.296875 22.515625 25.640625 19.609375 
Q 25.984375 16.703125 26.8125 15.375 
Q 27.875 13.671875 29.609375 12.734375 
Q 31.34375 11.8125 33.59375 11.8125 
Q 39.0625 11.8125 42.1875 16.015625 
Q 45.3125 20.21875 45.3125 27.6875 
L 45.3125 54.6875 
L 62.796875 54.6875 
L 62.796875 0 
L 45.3125 0 
L 45.3125 7.90625 
Q 41.359375 3.125 36.9375 0.84375 
Q 32.515625 -1.421875 27.203125 -1.421875 
Q 17.71875 -1.421875 12.765625 4.390625 
Q 7.8125 10.203125 7.8125 21.296875 
z
" id="DejaVuSans-Bold-117"/>
        <path d="M 63.375 33.296875 
L 63.375 0 
L 45.796875 0 
L 45.796875 5.421875 
L 45.796875 25.484375 
Q 45.796875 32.5625 45.484375 35.25 
Q 45.171875 37.9375 44.390625 39.203125 
Q 43.359375 40.921875 41.59375 41.875 
Q 39.84375 42.828125 37.59375 42.828125 
Q 32.125 42.828125 29 38.59375 
Q 25.875 34.375 25.875 26.90625 
L 25.875 0 
L 8.40625 0 
L 8.40625 54.6875 
L 25.875 54.6875 
L 25.875 46.6875 
Q 29.828125 51.46875 34.265625 53.734375 
Q 38.71875 56 44.09375 56 
Q 53.5625 56 58.46875 50.1875 
Q 63.375 44.390625 63.375 33.296875 
z
" id="DejaVuSans-Bold-110"/>
        <path d="M 62.984375 27.484375 
L 62.984375 22.515625 
L 22.125 22.515625 
Q 22.75 16.359375 26.5625 13.28125 
Q 30.375 10.203125 37.203125 10.203125 
Q 42.71875 10.203125 48.5 11.84375 
Q 54.296875 13.484375 60.40625 16.796875 
L 60.40625 3.328125 
Q 54.203125 0.984375 48 -0.21875 
Q 41.796875 -1.421875 35.59375 -1.421875 
Q 20.75 -1.421875 12.515625 6.125 
Q 4.296875 13.671875 4.296875 27.296875 
Q 4.296875 40.671875 12.375 48.328125 
Q 20.453125 56 34.625 56 
Q 47.515625 56 55.25 48.234375 
Q 62.984375 40.484375 62.984375 27.484375 
z
M 45.015625 33.296875 
Q 45.015625 38.28125 42.109375 41.328125 
Q 39.203125 44.390625 34.515625 44.390625 
Q 29.4375 44.390625 26.265625 41.53125 
Q 23.09375 38.671875 22.3125 33.296875 
z
" id="DejaVuSans-Bold-101"/>
       </defs>
       <use xlink:href="#DejaVuSans-Bold-74"/>
       <use x="37.207031" xlink:href="#DejaVuSans-Bold-117"/>
       <use x="108.398438" xlink:href="#DejaVuSans-Bold-110"/>
       <use x="179.589844" xlink:href="#DejaVuSans-Bold-101"/>
      </g>
     </g>
    </g>
    <g id="xtick_4">
     <g id="line2d_4">
      <g>
       <use style="fill:#555555;stroke:#555555;stroke-width:0.8;" x="422.831161" xlink:href="#m3e3bf57ab0" y="541.28"/>
      </g>
     </g>
     <g id="text_4">
      <!-- July -->
      <g style="fill:#555555;" transform="translate(408.281005 558.917812)scale(0.14 -0.14)">
       <use xlink:href="#DejaVuSans-Bold-74"/>
       <use x="37.207031" xlink:href="#DejaVuSans-Bold-117"/>
       <use x="108.398438" xlink:href="#DejaVuSans-Bold-108"/>
       <use x="142.675781" xlink:href="#DejaVuSans-Bold-121"/>
      </g>
     </g>
    </g>
    <g id="xtick_5">
     <g id="line2d_5">
      <g>
       <use style="fill:#555555;stroke:#555555;stroke-width:0.8;" x="510.808415" xlink:href="#m3e3bf57ab0" y="541.28"/>
      </g>
     </g>
     <g id="text_5">
      <!-- August -->
      <g style="fill:#555555;" transform="translate(482.902477 558.808437)scale(0.14 -0.14)">
       <defs>
        <path d="M 45.609375 9.28125 
Q 42 4.5 37.640625 2.25 
Q 33.296875 0 27.59375 0 
Q 17.578125 0 11.03125 7.875 
Q 4.5 15.765625 4.5 27.984375 
Q 4.5 40.234375 11.03125 48.0625 
Q 17.578125 55.90625 27.59375 55.90625 
Q 33.296875 55.90625 37.640625 53.65625 
Q 42 51.421875 45.609375 46.578125 
L 45.609375 54.6875 
L 63.1875 54.6875 
L 63.1875 5.515625 
Q 63.1875 -7.671875 54.859375 -14.625 
Q 46.53125 -21.578125 30.71875 -21.578125 
Q 25.59375 -21.578125 20.796875 -20.796875 
Q 16.015625 -20.015625 11.1875 -18.40625 
L 11.1875 -4.78125 
Q 15.765625 -7.421875 20.15625 -8.71875 
Q 24.5625 -10.015625 29 -10.015625 
Q 37.59375 -10.015625 41.59375 -6.25 
Q 45.609375 -2.484375 45.609375 5.515625 
z
M 34.078125 43.3125 
Q 28.65625 43.3125 25.625 39.296875 
Q 22.609375 35.296875 22.609375 27.984375 
Q 22.609375 20.453125 25.53125 16.578125 
Q 28.46875 12.703125 34.078125 12.703125 
Q 39.546875 12.703125 42.578125 16.703125 
Q 45.609375 20.703125 45.609375 27.984375 
Q 45.609375 35.296875 42.578125 39.296875 
Q 39.546875 43.3125 34.078125 43.3125 
z
" id="DejaVuSans-Bold-103"/>
        <path d="M 51.125 52.984375 
L 51.125 39.703125 
Q 45.515625 42.046875 40.28125 43.21875 
Q 35.0625 44.390625 30.421875 44.390625 
Q 25.4375 44.390625 23.015625 43.140625 
Q 20.609375 41.890625 20.609375 39.3125 
Q 20.609375 37.203125 22.4375 36.078125 
Q 24.265625 34.96875 29 34.421875 
L 32.078125 33.984375 
Q 45.515625 32.28125 50.140625 28.375 
Q 54.78125 24.46875 54.78125 16.109375 
Q 54.78125 7.375 48.328125 2.96875 
Q 41.890625 -1.421875 29.109375 -1.421875 
Q 23.6875 -1.421875 17.890625 -0.5625 
Q 12.109375 0.296875 6 2 
L 6 15.28125 
Q 11.234375 12.75 16.71875 11.46875 
Q 22.21875 10.203125 27.875 10.203125 
Q 33.015625 10.203125 35.59375 11.609375 
Q 38.1875 13.03125 38.1875 15.828125 
Q 38.1875 18.171875 36.40625 19.3125 
Q 34.625 20.453125 29.296875 21.09375 
L 26.21875 21.484375 
Q 14.546875 22.953125 9.859375 26.90625 
Q 5.171875 30.859375 5.171875 38.921875 
Q 5.171875 47.609375 11.125 51.796875 
Q 17.09375 56 29.390625 56 
Q 34.234375 56 39.546875 55.265625 
Q 44.875 54.546875 51.125 52.984375 
z
" id="DejaVuSans-Bold-115"/>
        <path d="M 27.484375 70.21875 
L 27.484375 54.6875 
L 45.515625 54.6875 
L 45.515625 42.1875 
L 27.484375 42.1875 
L 27.484375 19 
Q 27.484375 15.1875 29 13.84375 
Q 30.515625 12.5 35.015625 12.5 
L 44 12.5 
L 44 0 
L 29 0 
Q 18.65625 0 14.328125 4.3125 
Q 10.015625 8.640625 10.015625 19 
L 10.015625 42.1875 
L 1.3125 42.1875 
L 1.3125 54.6875 
L 10.015625 54.6875 
L 10.015625 70.21875 
z
" id="DejaVuSans-Bold-116"/>
       </defs>
       <use xlink:href="#DejaVuSans-Bold-65"/>
       <use x="77.392578" xlink:href="#DejaVuSans-Bold-117"/>
       <use x="148.583984" xlink:href="#DejaVuSans-Bold-103"/>
       <use x="220.166016" xlink:href="#DejaVuSans-Bold-117"/>
       <use x="291.357422" xlink:href="#DejaVuSans-Bold-115"/>
       <use x="350.878906" xlink:href="#DejaVuSans-Bold-116"/>
      </g>
     </g>
    </g>
    <g id="xtick_6">
     <g id="line2d_6">
      <g>
       <use style="fill:#555555;stroke:#555555;stroke-width:0.8;" x="598.785669" xlink:href="#m3e3bf57ab0" y="541.28"/>
      </g>
     </g>
     <g id="text_6">
      <!-- September -->
      <g style="fill:#555555;" transform="translate(555.387857 558.917812)scale(0.14 -0.14)">
       <defs>
        <path d="M 59.90625 70.609375 
L 59.90625 55.171875 
Q 53.90625 57.859375 48.1875 59.21875 
Q 42.484375 60.59375 37.40625 60.59375 
Q 30.671875 60.59375 27.4375 58.734375 
Q 24.21875 56.890625 24.21875 52.984375 
Q 24.21875 50.046875 26.390625 48.40625 
Q 28.5625 46.78125 34.28125 45.609375 
L 42.28125 44 
Q 54.4375 41.546875 59.5625 36.5625 
Q 64.703125 31.59375 64.703125 22.40625 
Q 64.703125 10.359375 57.546875 4.46875 
Q 50.390625 -1.421875 35.6875 -1.421875 
Q 28.765625 -1.421875 21.78125 -0.09375 
Q 14.796875 1.21875 7.8125 3.8125 
L 7.8125 19.671875 
Q 14.796875 15.96875 21.3125 14.078125 
Q 27.828125 12.203125 33.890625 12.203125 
Q 40.046875 12.203125 43.3125 14.25 
Q 46.578125 16.3125 46.578125 20.125 
Q 46.578125 23.53125 44.359375 25.390625 
Q 42.140625 27.25 35.5 28.71875 
L 28.21875 30.328125 
Q 17.28125 32.671875 12.21875 37.796875 
Q 7.171875 42.921875 7.171875 51.609375 
Q 7.171875 62.5 14.203125 68.359375 
Q 21.234375 74.21875 34.421875 74.21875 
Q 40.4375 74.21875 46.78125 73.3125 
Q 53.125 72.40625 59.90625 70.609375 
z
" id="DejaVuSans-Bold-83"/>
        <path d="M 59.078125 45.609375 
Q 62.40625 50.6875 66.96875 53.34375 
Q 71.53125 56 77 56 
Q 86.421875 56 91.359375 50.1875 
Q 96.296875 44.390625 96.296875 33.296875 
L 96.296875 0 
L 78.71875 0 
L 78.71875 28.515625 
Q 78.765625 29.15625 78.78125 29.828125 
Q 78.8125 30.515625 78.8125 31.78125 
Q 78.8125 37.59375 77.09375 40.203125 
Q 75.390625 42.828125 71.578125 42.828125 
Q 66.609375 42.828125 63.890625 38.71875 
Q 61.1875 34.625 61.078125 26.859375 
L 61.078125 0 
L 43.5 0 
L 43.5 28.515625 
Q 43.5 37.59375 41.9375 40.203125 
Q 40.375 42.828125 36.375 42.828125 
Q 31.34375 42.828125 28.609375 38.703125 
Q 25.875 34.578125 25.875 26.90625 
L 25.875 0 
L 8.296875 0 
L 8.296875 54.6875 
L 25.875 54.6875 
L 25.875 46.6875 
Q 29.109375 51.3125 33.28125 53.65625 
Q 37.453125 56 42.484375 56 
Q 48.140625 56 52.484375 53.265625 
Q 56.84375 50.53125 59.078125 45.609375 
z
" id="DejaVuSans-Bold-109"/>
        <path d="M 37.5 11.28125 
Q 43.109375 11.28125 46.0625 15.375 
Q 49.03125 19.484375 49.03125 27.296875 
Q 49.03125 35.109375 46.0625 39.203125 
Q 43.109375 43.3125 37.5 43.3125 
Q 31.890625 43.3125 28.875 39.1875 
Q 25.875 35.0625 25.875 27.296875 
Q 25.875 19.53125 28.875 15.40625 
Q 31.890625 11.28125 37.5 11.28125 
z
M 25.875 46.6875 
Q 29.5 51.46875 33.890625 53.734375 
Q 38.28125 56 44 56 
Q 54.109375 56 60.59375 47.96875 
Q 67.09375 39.9375 67.09375 27.296875 
Q 67.09375 14.65625 60.59375 6.609375 
Q 54.109375 -1.421875 44 -1.421875 
Q 38.28125 -1.421875 33.890625 0.84375 
Q 29.5 3.125 25.875 7.90625 
L 25.875 0 
L 8.40625 0 
L 8.40625 75.984375 
L 25.875 75.984375 
z
" id="DejaVuSans-Bold-98"/>
       </defs>
       <use xlink:href="#DejaVuSans-Bold-83"/>
       <use x="72.021484" xlink:href="#DejaVuSans-Bold-101"/>
       <use x="139.84375" xlink:href="#DejaVuSans-Bold-112"/>
       <use x="211.425781" xlink:href="#DejaVuSans-Bold-116"/>
       <use x="259.228516" xlink:href="#DejaVuSans-Bold-101"/>
       <use x="327.050781" xlink:href="#DejaVuSans-Bold-109"/>
       <use x="431.25" xlink:href="#DejaVuSans-Bold-98"/>
       <use x="502.832031" xlink:href="#DejaVuSans-Bold-101"/>
       <use x="570.654297" xlink:href="#DejaVuSans-Bold-114"/>
      </g>
     </g>
    </g>
    <g id="xtick_7">
     <g id="line2d_7">
      <g>
       <use style="fill:#555555;stroke:#555555;stroke-width:0.8;" x="683.924947" xlink:href="#m3e3bf57ab0" y="541.28"/>
      </g>
     </g>
     <g id="text_7">
      <!-- October -->
      <g style="fill:#555555;" transform="translate(652.458853 558.917812)scale(0.14 -0.14)">
       <defs>
        <path d="M 42.484375 60.59375 
Q 33.890625 60.59375 29.15625 54.25 
Q 24.421875 47.90625 24.421875 36.375 
Q 24.421875 24.90625 29.15625 18.546875 
Q 33.890625 12.203125 42.484375 12.203125 
Q 51.125 12.203125 55.859375 18.546875 
Q 60.59375 24.90625 60.59375 36.375 
Q 60.59375 47.90625 55.859375 54.25 
Q 51.125 60.59375 42.484375 60.59375 
z
M 42.484375 74.21875 
Q 60.0625 74.21875 70.015625 64.15625 
Q 79.984375 54.109375 79.984375 36.375 
Q 79.984375 18.703125 70.015625 8.640625 
Q 60.0625 -1.421875 42.484375 -1.421875 
Q 24.953125 -1.421875 14.96875 8.640625 
Q 4.984375 18.703125 4.984375 36.375 
Q 4.984375 54.109375 14.96875 64.15625 
Q 24.953125 74.21875 42.484375 74.21875 
z
" id="DejaVuSans-Bold-79"/>
        <path d="M 52.59375 52.984375 
L 52.59375 38.71875 
Q 49.03125 41.15625 45.4375 42.328125 
Q 41.84375 43.5 37.984375 43.5 
Q 30.671875 43.5 26.59375 39.234375 
Q 22.515625 34.96875 22.515625 27.296875 
Q 22.515625 19.625 26.59375 15.34375 
Q 30.671875 11.078125 37.984375 11.078125 
Q 42.09375 11.078125 45.78125 12.296875 
Q 49.46875 13.53125 52.59375 15.921875 
L 52.59375 1.609375 
Q 48.484375 0.09375 44.265625 -0.65625 
Q 40.046875 -1.421875 35.796875 -1.421875 
Q 21 -1.421875 12.640625 6.171875 
Q 4.296875 13.765625 4.296875 27.296875 
Q 4.296875 40.828125 12.640625 48.40625 
Q 21 56 35.796875 56 
Q 40.09375 56 44.265625 55.25 
Q 48.4375 54.5 52.59375 52.984375 
z
" id="DejaVuSans-Bold-99"/>
        <path d="M 34.421875 43.5 
Q 28.609375 43.5 25.5625 39.328125 
Q 22.515625 35.15625 22.515625 27.296875 
Q 22.515625 19.4375 25.5625 15.25 
Q 28.609375 11.078125 34.421875 11.078125 
Q 40.140625 11.078125 43.15625 15.25 
Q 46.1875 19.4375 46.1875 27.296875 
Q 46.1875 35.15625 43.15625 39.328125 
Q 40.140625 43.5 34.421875 43.5 
z
M 34.421875 56 
Q 48.53125 56 56.46875 48.375 
Q 64.40625 40.765625 64.40625 27.296875 
Q 64.40625 13.8125 56.46875 6.1875 
Q 48.53125 -1.421875 34.421875 -1.421875 
Q 20.265625 -1.421875 12.28125 6.1875 
Q 4.296875 13.8125 4.296875 27.296875 
Q 4.296875 40.765625 12.28125 48.375 
Q 20.265625 56 34.421875 56 
z
" id="DejaVuSans-Bold-111"/>
       </defs>
       <use xlink:href="#DejaVuSans-Bold-79"/>
       <use x="85.009766" xlink:href="#DejaVuSans-Bold-99"/>
       <use x="144.287109" xlink:href="#DejaVuSans-Bold-116"/>
       <use x="192.089844" xlink:href="#DejaVuSans-Bold-111"/>
       <use x="260.791016" xlink:href="#DejaVuSans-Bold-98"/>
       <use x="332.373047" xlink:href="#DejaVuSans-Bold-101"/>
       <use x="400.195312" xlink:href="#DejaVuSans-Bold-114"/>
      </g>
     </g>
    </g>
    <g id="xtick_8">
     <g id="line2d_8">
      <g>
       <use style="fill:#555555;stroke:#555555;stroke-width:0.8;" x="771.902201" xlink:href="#m3e3bf57ab0" y="541.28"/>
      </g>
     </g>
     <g id="text_8">
      <!-- November -->
      <g style="fill:#555555;" transform="translate(731.419233 558.917812)scale(0.14 -0.14)">
       <defs>
        <path d="M 9.1875 72.90625 
L 30.171875 72.90625 
L 56.6875 22.90625 
L 56.6875 72.90625 
L 74.515625 72.90625 
L 74.515625 0 
L 53.515625 0 
L 27 50 
L 27 0 
L 9.1875 0 
z
" id="DejaVuSans-Bold-78"/>
        <path d="M 1.515625 54.6875 
L 19 54.6875 
L 32.625 16.890625 
L 46.1875 54.6875 
L 63.71875 54.6875 
L 42.1875 0 
L 23 0 
z
" id="DejaVuSans-Bold-118"/>
       </defs>
       <use xlink:href="#DejaVuSans-Bold-78"/>
       <use x="83.691406" xlink:href="#DejaVuSans-Bold-111"/>
       <use x="152.392578" xlink:href="#DejaVuSans-Bold-118"/>
       <use x="217.578125" xlink:href="#DejaVuSans-Bold-101"/>
       <use x="285.400391" xlink:href="#DejaVuSans-Bold-109"/>
       <use x="389.599609" xlink:href="#DejaVuSans-Bold-98"/>
       <use x="461.181641" xlink:href="#DejaVuSans-Bold-101"/>
       <use x="529.003906" xlink:href="#DejaVuSans-Bold-114"/>
      </g>
     </g>
    </g>
    <g id="xtick_9">
     <g id="line2d_9">
      <g>
       <use style="fill:#555555;stroke:#555555;stroke-width:0.8;" x="857.041479" xlink:href="#m3e3bf57ab0" y="541.28"/>
      </g>
     </g>
     <g id="text_9">
      <!-- December -->
      <g style="fill:#555555;" transform="translate(817.080229 558.917812)scale(0.14 -0.14)">
       <defs>
        <path d="M 27.984375 58.6875 
L 27.984375 14.203125 
L 34.71875 14.203125 
Q 46.234375 14.203125 52.3125 19.921875 
Q 58.40625 25.640625 58.40625 36.53125 
Q 58.40625 47.359375 52.34375 53.015625 
Q 46.296875 58.6875 34.71875 58.6875 
z
M 9.1875 72.90625 
L 29 72.90625 
Q 45.609375 72.90625 53.734375 70.53125 
Q 61.859375 68.171875 67.671875 62.5 
Q 72.796875 57.5625 75.28125 51.109375 
Q 77.78125 44.671875 77.78125 36.53125 
Q 77.78125 28.265625 75.28125 21.796875 
Q 72.796875 15.328125 67.671875 10.40625 
Q 61.8125 4.734375 53.609375 2.359375 
Q 45.40625 0 29 0 
L 9.1875 0 
z
" id="DejaVuSans-Bold-68"/>
       </defs>
       <use xlink:href="#DejaVuSans-Bold-68"/>
       <use x="83.007812" xlink:href="#DejaVuSans-Bold-101"/>
       <use x="150.830078" xlink:href="#DejaVuSans-Bold-99"/>
       <use x="210.107422" xlink:href="#DejaVuSans-Bold-101"/>
       <use x="277.929688" xlink:href="#DejaVuSans-Bold-109"/>
       <use x="382.128906" xlink:href="#DejaVuSans-Bold-98"/>
       <use x="453.710938" xlink:href="#DejaVuSans-Bold-101"/>
       <use x="521.533203" xlink:href="#DejaVuSans-Bold-114"/>
      </g>
     </g>
    </g>
    <g id="xtick_10">
     <g id="line2d_10">
      <g>
       <use style="fill:#555555;stroke:#555555;stroke-width:0.8;" x="945.018734" xlink:href="#m3e3bf57ab0" y="541.28"/>
      </g>
     </g>
     <g id="text_10">
      <!-- January -->
      <g style="fill:#555555;" transform="translate(914.985452 558.808437)scale(0.14 -0.14)">
       <use xlink:href="#DejaVuSans-Bold-74"/>
       <use x="37.207031" xlink:href="#DejaVuSans-Bold-97"/>
       <use x="104.6875" xlink:href="#DejaVuSans-Bold-110"/>
       <use x="175.878906" xlink:href="#DejaVuSans-Bold-117"/>
       <use x="247.070312" xlink:href="#DejaVuSans-Bold-97"/>
       <use x="314.550781" xlink:href="#DejaVuSans-Bold-114"/>
       <use x="363.867188" xlink:href="#DejaVuSans-Bold-121"/>
      </g>
     </g>
    </g>
    <g id="xtick_11">
     <g id="line2d_11">
      <g>
       <use style="fill:#555555;stroke:#555555;stroke-width:0.8;" x="1032.995988" xlink:href="#m3e3bf57ab0" y="541.28"/>
      </g>
     </g>
     <g id="text_11">
      <!-- February -->
      <g style="fill:#555555;" transform="translate(997.561769 558.917812)scale(0.14 -0.14)">
       <defs>
        <path d="M 9.1875 72.90625 
L 59.90625 72.90625 
L 59.90625 58.6875 
L 27.984375 58.6875 
L 27.984375 45.125 
L 58.015625 45.125 
L 58.015625 30.90625 
L 27.984375 30.90625 
L 27.984375 0 
L 9.1875 0 
z
" id="DejaVuSans-Bold-70"/>
       </defs>
       <use xlink:href="#DejaVuSans-Bold-70"/>
       <use x="64.310547" xlink:href="#DejaVuSans-Bold-101"/>
       <use x="132.132812" xlink:href="#DejaVuSans-Bold-98"/>
       <use x="203.714844" xlink:href="#DejaVuSans-Bold-114"/>
       <use x="253.03125" xlink:href="#DejaVuSans-Bold-117"/>
       <use x="324.222656" xlink:href="#DejaVuSans-Bold-97"/>
       <use x="391.703125" xlink:href="#DejaVuSans-Bold-114"/>
       <use x="441.019531" xlink:href="#DejaVuSans-Bold-121"/>
      </g>
     </g>
    </g>
    <g id="xtick_12">
     <g id="line2d_12">
      <g>
       <use style="fill:#555555;stroke:#555555;stroke-width:0.8;" x="1112.459314" xlink:href="#m3e3bf57ab0" y="541.28"/>
      </g>
     </g>
     <g id="text_12">
      <!-- March -->
      <g style="fill:#555555;" transform="translate(1088.184626 558.917812)scale(0.14 -0.14)">
       <defs>
        <path d="M 63.375 33.296875 
L 63.375 0 
L 45.796875 0 
L 45.796875 5.421875 
L 45.796875 25.390625 
Q 45.796875 32.5625 45.484375 35.25 
Q 45.171875 37.9375 44.390625 39.203125 
Q 43.359375 40.921875 41.59375 41.875 
Q 39.84375 42.828125 37.59375 42.828125 
Q 32.125 42.828125 29 38.59375 
Q 25.875 34.375 25.875 26.90625 
L 25.875 0 
L 8.40625 0 
L 8.40625 75.984375 
L 25.875 75.984375 
L 25.875 46.6875 
Q 29.828125 51.46875 34.265625 53.734375 
Q 38.71875 56 44.09375 56 
Q 53.5625 56 58.46875 50.1875 
Q 63.375 44.390625 63.375 33.296875 
z
" id="DejaVuSans-Bold-104"/>
       </defs>
       <use xlink:href="#DejaVuSans-Bold-77"/>
       <use x="99.511719" xlink:href="#DejaVuSans-Bold-97"/>
       <use x="166.992188" xlink:href="#DejaVuSans-Bold-114"/>
       <use x="216.308594" xlink:href="#DejaVuSans-Bold-99"/>
       <use x="275.585938" xlink:href="#DejaVuSans-Bold-104"/>
      </g>
     </g>
    </g>
   </g>
   <g id="matplotlib.axis_2">
    <g id="ytick_1">
     <g id="line2d_13">
      <defs>
       <path d="M 0 0 
L -3.5 0 
" id="mc585604070" style="stroke:#555555;stroke-width:0.8;"/>
      </defs>
      <g>
       <use style="fill:#555555;stroke:#555555;stroke-width:0.8;" x="87.95" xlink:href="#mc585604070" y="519.659003"/>
      </g>
     </g>
     <g id="text_13">
      <!-- 0 -->
      <g style="fill:#555555;" transform="translate(71.209063 524.977909)scale(0.14 -0.14)">
       <defs>
        <path d="M 46 36.53125 
Q 46 50.203125 43.4375 55.78125 
Q 40.875 61.375 34.8125 61.375 
Q 28.765625 61.375 26.171875 55.78125 
Q 23.578125 50.203125 23.578125 36.53125 
Q 23.578125 22.703125 26.171875 17.03125 
Q 28.765625 11.375 34.8125 11.375 
Q 40.828125 11.375 43.40625 17.03125 
Q 46 22.703125 46 36.53125 
z
M 64.796875 36.375 
Q 64.796875 18.265625 56.984375 8.421875 
Q 49.171875 -1.421875 34.8125 -1.421875 
Q 20.40625 -1.421875 12.59375 8.421875 
Q 4.78125 18.265625 4.78125 36.375 
Q 4.78125 54.546875 12.59375 64.375 
Q 20.40625 74.21875 34.8125 74.21875 
Q 49.171875 74.21875 56.984375 64.375 
Q 64.796875 54.546875 64.796875 36.375 
z
" id="DejaVuSans-Bold-48"/>
       </defs>
       <use xlink:href="#DejaVuSans-Bold-48"/>
      </g>
     </g>
    </g>
    <g id="ytick_2">
     <g id="line2d_14">
      <g>
       <use style="fill:#555555;stroke:#555555;stroke-width:0.8;" x="87.95" xlink:href="#mc585604070" y="449.209354"/>
      </g>
     </g>
     <g id="text_14">
      <!-- 2000 -->
      <g style="fill:#555555;" transform="translate(41.98625 454.52826)scale(0.14 -0.14)">
       <defs>
        <path d="M 28.8125 13.8125 
L 60.890625 13.8125 
L 60.890625 0 
L 7.90625 0 
L 7.90625 13.8125 
L 34.515625 37.3125 
Q 38.09375 40.53125 39.796875 43.609375 
Q 41.5 46.6875 41.5 50 
Q 41.5 55.125 38.0625 58.25 
Q 34.625 61.375 28.90625 61.375 
Q 24.515625 61.375 19.28125 59.5 
Q 14.0625 57.625 8.109375 53.90625 
L 8.109375 69.921875 
Q 14.453125 72.015625 20.65625 73.109375 
Q 26.859375 74.21875 32.8125 74.21875 
Q 45.90625 74.21875 53.15625 68.453125 
Q 60.40625 62.703125 60.40625 52.390625 
Q 60.40625 46.4375 57.328125 41.28125 
Q 54.25 36.140625 44.390625 27.484375 
z
" id="DejaVuSans-Bold-50"/>
       </defs>
       <use xlink:href="#DejaVuSans-Bold-50"/>
       <use x="69.580078" xlink:href="#DejaVuSans-Bold-48"/>
       <use x="139.160156" xlink:href="#DejaVuSans-Bold-48"/>
       <use x="208.740234" xlink:href="#DejaVuSans-Bold-48"/>
      </g>
     </g>
    </g>
    <g id="ytick_3">
     <g id="line2d_15">
      <g>
       <use style="fill:#555555;stroke:#555555;stroke-width:0.8;" x="87.95" xlink:href="#mc585604070" y="378.759705"/>
      </g>
     </g>
     <g id="text_15">
      <!-- 4000 -->
      <g style="fill:#555555;" transform="translate(41.98625 384.078611)scale(0.14 -0.14)">
       <defs>
        <path d="M 36.8125 57.421875 
L 16.21875 26.90625 
L 36.8125 26.90625 
z
M 33.6875 72.90625 
L 54.59375 72.90625 
L 54.59375 26.90625 
L 64.984375 26.90625 
L 64.984375 13.28125 
L 54.59375 13.28125 
L 54.59375 0 
L 36.8125 0 
L 36.8125 13.28125 
L 4.5 13.28125 
L 4.5 29.390625 
z
" id="DejaVuSans-Bold-52"/>
       </defs>
       <use xlink:href="#DejaVuSans-Bold-52"/>
       <use x="69.580078" xlink:href="#DejaVuSans-Bold-48"/>
       <use x="139.160156" xlink:href="#DejaVuSans-Bold-48"/>
       <use x="208.740234" xlink:href="#DejaVuSans-Bold-48"/>
      </g>
     </g>
    </g>
    <g id="ytick_4">
     <g id="line2d_16">
      <g>
       <use style="fill:#555555;stroke:#555555;stroke-width:0.8;" x="87.95" xlink:href="#mc585604070" y="308.310056"/>
      </g>
     </g>
     <g id="text_16">
      <!-- 6000 -->
      <g style="fill:#555555;" transform="translate(41.98625 313.628962)scale(0.14 -0.14)">
       <defs>
        <path d="M 36.1875 35.984375 
Q 31.25 35.984375 28.78125 32.78125 
Q 26.3125 29.59375 26.3125 23.1875 
Q 26.3125 16.796875 28.78125 13.59375 
Q 31.25 10.40625 36.1875 10.40625 
Q 41.15625 10.40625 43.625 13.59375 
Q 46.09375 16.796875 46.09375 23.1875 
Q 46.09375 29.59375 43.625 32.78125 
Q 41.15625 35.984375 36.1875 35.984375 
z
M 59.421875 71 
L 59.421875 57.515625 
Q 54.78125 59.71875 50.671875 60.765625 
Q 46.578125 61.8125 42.671875 61.8125 
Q 34.28125 61.8125 29.59375 57.140625 
Q 24.90625 52.484375 24.125 43.3125 
Q 27.34375 45.703125 31.09375 46.890625 
Q 34.859375 48.09375 39.3125 48.09375 
Q 50.484375 48.09375 57.34375 41.546875 
Q 64.203125 35.015625 64.203125 24.421875 
Q 64.203125 12.703125 56.53125 5.640625 
Q 48.875 -1.421875 35.984375 -1.421875 
Q 21.78125 -1.421875 13.984375 8.171875 
Q 6.203125 17.78125 6.203125 35.40625 
Q 6.203125 53.46875 15.3125 63.796875 
Q 24.421875 74.125 40.28125 74.125 
Q 45.3125 74.125 50.046875 73.34375 
Q 54.78125 72.5625 59.421875 71 
z
" id="DejaVuSans-Bold-54"/>
       </defs>
       <use xlink:href="#DejaVuSans-Bold-54"/>
       <use x="69.580078" xlink:href="#DejaVuSans-Bold-48"/>
       <use x="139.160156" xlink:href="#DejaVuSans-Bold-48"/>
       <use x="208.740234" xlink:href="#DejaVuSans-Bold-48"/>
      </g>
     </g>
    </g>
    <g id="ytick_5">
     <g id="line2d_17">
      <g>
       <use style="fill:#555555;stroke:#555555;stroke-width:0.8;" x="87.95" xlink:href="#mc585604070" y="237.860407"/>
      </g>
     </g>
     <g id="text_17">
      <!-- 8000 -->
      <g style="fill:#555555;" transform="translate(41.98625 243.179314)scale(0.14 -0.14)">
       <defs>
        <path d="M 34.8125 32.625 
Q 29.546875 32.625 26.703125 29.734375 
Q 23.875 26.859375 23.875 21.484375 
Q 23.875 16.109375 26.703125 13.25 
Q 29.546875 10.40625 34.8125 10.40625 
Q 40.046875 10.40625 42.828125 13.25 
Q 45.609375 16.109375 45.609375 21.484375 
Q 45.609375 26.90625 42.828125 29.765625 
Q 40.046875 32.625 34.8125 32.625 
z
M 21.09375 38.8125 
Q 14.453125 40.828125 11.078125 44.96875 
Q 7.71875 49.125 7.71875 55.328125 
Q 7.71875 64.546875 14.59375 69.375 
Q 21.484375 74.21875 34.8125 74.21875 
Q 48.046875 74.21875 54.921875 69.40625 
Q 61.8125 64.59375 61.8125 55.328125 
Q 61.8125 49.125 58.421875 44.96875 
Q 55.03125 40.828125 48.390625 38.8125 
Q 55.8125 36.765625 59.59375 32.15625 
Q 63.375 27.546875 63.375 20.515625 
Q 63.375 9.671875 56.171875 4.125 
Q 48.96875 -1.421875 34.8125 -1.421875 
Q 20.609375 -1.421875 13.359375 4.125 
Q 6.109375 9.671875 6.109375 20.515625 
Q 6.109375 27.546875 9.890625 32.15625 
Q 13.671875 36.765625 21.09375 38.8125 
z
M 25.484375 53.421875 
Q 25.484375 49.078125 27.90625 46.734375 
Q 30.328125 44.390625 34.8125 44.390625 
Q 39.203125 44.390625 41.59375 46.734375 
Q 44 49.078125 44 53.421875 
Q 44 57.765625 41.59375 60.078125 
Q 39.203125 62.40625 34.8125 62.40625 
Q 30.328125 62.40625 27.90625 60.0625 
Q 25.484375 57.71875 25.484375 53.421875 
z
" id="DejaVuSans-Bold-56"/>
       </defs>
       <use xlink:href="#DejaVuSans-Bold-56"/>
       <use x="69.580078" xlink:href="#DejaVuSans-Bold-48"/>
       <use x="139.160156" xlink:href="#DejaVuSans-Bold-48"/>
       <use x="208.740234" xlink:href="#DejaVuSans-Bold-48"/>
      </g>
     </g>
    </g>
    <g id="ytick_6">
     <g id="line2d_18">
      <g>
       <use style="fill:#555555;stroke:#555555;stroke-width:0.8;" x="87.95" xlink:href="#mc585604070" y="167.410759"/>
      </g>
     </g>
     <g id="text_18">
      <!-- 10000 -->
      <g style="fill:#555555;" transform="translate(32.245313 172.729665)scale(0.14 -0.14)">
       <defs>
        <path d="M 11.71875 12.984375 
L 28.328125 12.984375 
L 28.328125 60.109375 
L 11.28125 56.59375 
L 11.28125 69.390625 
L 28.21875 72.90625 
L 46.09375 72.90625 
L 46.09375 12.984375 
L 62.703125 12.984375 
L 62.703125 0 
L 11.71875 0 
z
" id="DejaVuSans-Bold-49"/>
       </defs>
       <use xlink:href="#DejaVuSans-Bold-49"/>
       <use x="69.580078" xlink:href="#DejaVuSans-Bold-48"/>
       <use x="139.160156" xlink:href="#DejaVuSans-Bold-48"/>
       <use x="208.740234" xlink:href="#DejaVuSans-Bold-48"/>
       <use x="278.320312" xlink:href="#DejaVuSans-Bold-48"/>
      </g>
     </g>
    </g>
    <g id="ytick_7">
     <g id="line2d_19">
      <g>
       <use style="fill:#555555;stroke:#555555;stroke-width:0.8;" x="87.95" xlink:href="#mc585604070" y="96.96111"/>
      </g>
     </g>
     <g id="text_19">
      <!-- 12000 -->
      <g style="fill:#555555;" transform="translate(32.245313 102.280016)scale(0.14 -0.14)">
       <use xlink:href="#DejaVuSans-Bold-49"/>
       <use x="69.580078" xlink:href="#DejaVuSans-Bold-50"/>
       <use x="139.160156" xlink:href="#DejaVuSans-Bold-48"/>
       <use x="208.740234" xlink:href="#DejaVuSans-Bold-48"/>
       <use x="278.320312" xlink:href="#DejaVuSans-Bold-48"/>
      </g>
     </g>
    </g>
    <g id="text_20">
     <!-- New Cases -->
     <g style="fill:#555555;" transform="translate(24.917813 333.23875)rotate(-90)scale(0.16 -0.16)">
      <defs>
       <path d="M 9.8125 72.90625 
L 23.09375 72.90625 
L 55.421875 11.921875 
L 55.421875 72.90625 
L 64.984375 72.90625 
L 64.984375 0 
L 51.703125 0 
L 19.390625 60.984375 
L 19.390625 0 
L 9.8125 0 
z
" id="DejaVuSans-78"/>
       <path d="M 56.203125 29.59375 
L 56.203125 25.203125 
L 14.890625 25.203125 
Q 15.484375 15.921875 20.484375 11.0625 
Q 25.484375 6.203125 34.421875 6.203125 
Q 39.59375 6.203125 44.453125 7.46875 
Q 49.3125 8.734375 54.109375 11.28125 
L 54.109375 2.78125 
Q 49.265625 0.734375 44.1875 -0.34375 
Q 39.109375 -1.421875 33.890625 -1.421875 
Q 20.796875 -1.421875 13.15625 6.1875 
Q 5.515625 13.8125 5.515625 26.8125 
Q 5.515625 40.234375 12.765625 48.109375 
Q 20.015625 56 32.328125 56 
Q 43.359375 56 49.78125 48.890625 
Q 56.203125 41.796875 56.203125 29.59375 
z
M 47.21875 32.234375 
Q 47.125 39.59375 43.09375 43.984375 
Q 39.0625 48.390625 32.421875 48.390625 
Q 24.90625 48.390625 20.390625 44.140625 
Q 15.875 39.890625 15.1875 32.171875 
z
" id="DejaVuSans-101"/>
       <path d="M 4.203125 54.6875 
L 13.1875 54.6875 
L 24.421875 12.015625 
L 35.59375 54.6875 
L 46.1875 54.6875 
L 57.421875 12.015625 
L 68.609375 54.6875 
L 77.59375 54.6875 
L 63.28125 0 
L 52.6875 0 
L 40.921875 44.828125 
L 29.109375 0 
L 18.5 0 
z
" id="DejaVuSans-119"/>
       <path id="DejaVuSans-32"/>
       <path d="M 64.40625 67.28125 
L 64.40625 56.890625 
Q 59.421875 61.53125 53.78125 63.8125 
Q 48.140625 66.109375 41.796875 66.109375 
Q 29.296875 66.109375 22.65625 58.46875 
Q 16.015625 50.828125 16.015625 36.375 
Q 16.015625 21.96875 22.65625 14.328125 
Q 29.296875 6.6875 41.796875 6.6875 
Q 48.140625 6.6875 53.78125 8.984375 
Q 59.421875 11.28125 64.40625 15.921875 
L 64.40625 5.609375 
Q 59.234375 2.09375 53.4375 0.328125 
Q 47.65625 -1.421875 41.21875 -1.421875 
Q 24.65625 -1.421875 15.125 8.703125 
Q 5.609375 18.84375 5.609375 36.375 
Q 5.609375 53.953125 15.125 64.078125 
Q 24.65625 74.21875 41.21875 74.21875 
Q 47.75 74.21875 53.53125 72.484375 
Q 59.328125 70.75 64.40625 67.28125 
z
" id="DejaVuSans-67"/>
       <path d="M 34.28125 27.484375 
Q 23.390625 27.484375 19.1875 25 
Q 14.984375 22.515625 14.984375 16.5 
Q 14.984375 11.71875 18.140625 8.90625 
Q 21.296875 6.109375 26.703125 6.109375 
Q 34.1875 6.109375 38.703125 11.40625 
Q 43.21875 16.703125 43.21875 25.484375 
L 43.21875 27.484375 
z
M 52.203125 31.203125 
L 52.203125 0 
L 43.21875 0 
L 43.21875 8.296875 
Q 40.140625 3.328125 35.546875 0.953125 
Q 30.953125 -1.421875 24.3125 -1.421875 
Q 15.921875 -1.421875 10.953125 3.296875 
Q 6 8.015625 6 15.921875 
Q 6 25.140625 12.171875 29.828125 
Q 18.359375 34.515625 30.609375 34.515625 
L 43.21875 34.515625 
L 43.21875 35.40625 
Q 43.21875 41.609375 39.140625 45 
Q 35.0625 48.390625 27.6875 48.390625 
Q 23 48.390625 18.546875 47.265625 
Q 14.109375 46.140625 10.015625 43.890625 
L 10.015625 52.203125 
Q 14.9375 54.109375 19.578125 55.046875 
Q 24.21875 56 28.609375 56 
Q 40.484375 56 46.34375 49.84375 
Q 52.203125 43.703125 52.203125 31.203125 
z
" id="DejaVuSans-97"/>
       <path d="M 44.28125 53.078125 
L 44.28125 44.578125 
Q 40.484375 46.53125 36.375 47.5 
Q 32.28125 48.484375 27.875 48.484375 
Q 21.1875 48.484375 17.84375 46.4375 
Q 14.5 44.390625 14.5 40.28125 
Q 14.5 37.15625 16.890625 35.375 
Q 19.28125 33.59375 26.515625 31.984375 
L 29.59375 31.296875 
Q 39.15625 29.25 43.1875 25.515625 
Q 47.21875 21.78125 47.21875 15.09375 
Q 47.21875 7.46875 41.1875 3.015625 
Q 35.15625 -1.421875 24.609375 -1.421875 
Q 20.21875 -1.421875 15.453125 -0.5625 
Q 10.6875 0.296875 5.421875 2 
L 5.421875 11.28125 
Q 10.40625 8.6875 15.234375 7.390625 
Q 20.0625 6.109375 24.8125 6.109375 
Q 31.15625 6.109375 34.5625 8.28125 
Q 37.984375 10.453125 37.984375 14.40625 
Q 37.984375 18.0625 35.515625 20.015625 
Q 33.0625 21.96875 24.703125 23.78125 
L 21.578125 24.515625 
Q 13.234375 26.265625 9.515625 29.90625 
Q 5.8125 33.546875 5.8125 39.890625 
Q 5.8125 47.609375 11.28125 51.796875 
Q 16.75 56 26.8125 56 
Q 31.78125 56 36.171875 55.265625 
Q 40.578125 54.546875 44.28125 53.078125 
z
" id="DejaVuSans-115"/>
      </defs>
      <use xlink:href="#DejaVuSans-78"/>
      <use x="74.804688" xlink:href="#DejaVuSans-101"/>
      <use x="136.328125" xlink:href="#DejaVuSans-119"/>
      <use x="218.115234" xlink:href="#DejaVuSans-32"/>
      <use x="249.902344" xlink:href="#DejaVuSans-67"/>
      <use x="319.726562" xlink:href="#DejaVuSans-97"/>
      <use x="381.005859" xlink:href="#DejaVuSans-115"/>
      <use x="433.105469" xlink:href="#DejaVuSans-101"/>
      <use x="494.628906" xlink:href="#DejaVuSans-115"/>
     </g>
    </g>
   </g>
   <g id="line2d_20">
    <path clip-path="url(#p3b5c164d1f)" d="M 87.95 518.10911 
L 90.787976 518.038661 
L 96.463928 516.946691 
L 99.301904 517.686413 
L 102.13988 517.510288 
L 104.977856 515.396799 
L 107.815832 515.784272 
L 110.653808 512.931061 
L 113.491783 514.199155 
L 116.329759 513.459434 
L 119.167735 509.866502 
L 122.005711 509.443804 
L 127.681663 505.25205 
L 130.519639 500.848947 
L 133.357615 497.22079 
L 136.195591 499.475178 
L 139.033567 500.461473 
L 141.871543 491.09167 
L 144.709519 489.647452 
L 147.547495 483.764907 
L 150.385471 478.375509 
L 153.223447 478.833431 
L 156.061423 480.770797 
L 158.899398 488.520258 
L 161.737374 489.894026 
L 164.57535 483.764907 
L 167.413326 481.510518 
L 170.251302 483.518333 
L 173.089278 487.815761 
L 175.927254 476.543818 
L 178.76523 486.12497 
L 181.603206 492.289314 
L 184.441182 485.526148 
L 187.279158 476.931291 
L 190.117134 472.633862 
L 192.95511 473.303134 
L 195.793086 478.305059 
L 198.631062 485.702272 
L 201.469038 489.083855 
L 204.307013 493.803982 
L 207.144989 482.285464 
L 209.982965 476.156345 
L 212.820941 479.502703 
L 215.658917 482.10934 
L 218.496893 493.240384 
L 224.172845 494.719827 
L 227.010821 488.414584 
L 229.848797 491.267794 
L 232.686773 496.586743 
L 235.524749 496.586743 
L 238.362725 505.569073 
L 241.200701 513.635558 
L 244.038677 506.062221 
L 246.876653 501.553443 
L 249.714629 502.927211 
L 252.552604 503.983956 
L 255.39058 507.858687 
L 258.228556 512.649263 
L 261.066532 508.492733 
L 263.904508 511.486844 
L 266.742484 503.631708 
L 269.58046 508.422284 
L 272.418436 509.479029 
L 275.256412 511.028921 
L 278.094388 513.987806 
L 280.932364 512.754937 
L 283.77034 511.662968 
L 286.608316 510.1483 
L 289.446292 512.614038 
L 292.284268 513.001511 
L 295.122244 515.2559 
L 297.960219 514.516178 
L 300.798195 515.854722 
L 303.636171 512.684488 
L 306.474147 510.747122 
L 309.312123 513.036736 
L 312.150099 513.459434 
L 314.988075 513.600333 
L 317.826051 512.297014 
L 320.664027 514.974101 
L 323.502003 512.966286 
L 329.177955 513.459434 
L 332.015931 515.044551 
L 334.853907 513.14241 
L 337.691883 516.030846 
L 340.529859 516.066071 
L 343.367835 516.629668 
L 346.20581 512.297014 
L 349.043786 512.26179 
L 351.881762 513.21286 
L 354.719738 511.24027 
L 357.557714 513.846907 
L 360.39569 513.882132 
L 363.233666 513.177635 
L 366.071642 513.882132 
L 368.909618 512.26179 
L 371.747594 513.353759 
L 374.58557 514.621853 
L 377.423546 513.846907 
L 380.261522 514.762752 
L 383.099498 515.537698 
L 385.937474 515.608148 
L 388.77545 515.889947 
L 391.613425 516.981916 
L 394.451401 516.453544 
L 397.289377 517.369389 
L 400.127353 517.404614 
L 402.965329 516.770567 
L 405.803305 515.784272 
L 411.479257 517.22849 
L 417.155209 516.981916 
L 419.993185 517.897762 
L 425.669137 516.946691 
L 428.507113 517.017141 
L 431.345089 517.510288 
L 434.183065 517.087591 
L 437.02104 518.390909 
L 439.859016 518.355684 
L 442.696992 517.827312 
L 445.534968 517.827312 
L 448.372944 518.17956 
L 451.21092 516.805792 
L 454.048896 516.101296 
L 456.886872 517.15804 
L 459.724848 517.792087 
L 462.562824 515.925171 
L 465.4008 516.171745 
L 468.238776 516.030846 
L 471.076752 515.18545 
L 473.914728 514.586628 
L 476.752704 513.14241 
L 479.59068 513.917356 
L 482.428656 513.741232 
L 485.266631 513.917356 
L 488.104607 512.931061 
L 490.942583 514.833202 
L 493.780559 512.12089 
L 496.618535 512.437914 
L 499.456511 511.803867 
L 502.294487 510.958471 
L 505.132463 507.612113 
L 507.970439 507.753012 
L 510.808415 504.477103 
L 513.646391 506.766717 
L 516.484367 506.555368 
L 519.322343 502.574963 
L 522.160319 504.653228 
L 524.998295 498.488883 
L 527.836271 501.377319 
L 530.674246 502.539738 
L 533.512222 499.334279 
L 536.350198 497.467363 
L 539.188174 492.218865 
L 542.02615 496.621968 
L 544.864126 499.334279 
L 547.702102 497.256014 
L 550.540078 496.586743 
L 553.378054 501.800017 
L 556.21603 502.680637 
L 559.054006 502.434064 
L 561.891982 500.2149 
L 564.729958 501.025071 
L 567.567934 500.813722 
L 570.40591 501.764792 
L 573.243886 503.561258 
L 576.081861 499.439954 
L 578.919837 505.040701 
L 581.757813 499.545628 
L 584.595789 501.694342 
L 590.271741 502.011366 
L 593.109717 501.764792 
L 595.947693 501.09552 
L 598.785669 503.385134 
L 601.623645 493.803982 
L 604.461621 498.488883 
L 607.299597 493.451733 
L 610.137573 496.621968 
L 612.975549 487.07604 
L 615.813525 491.584818 
L 618.651501 485.702272 
L 621.489477 479.502703 
L 624.327452 490.668972 
L 627.165428 474.923476 
L 630.003404 476.297244 
L 632.84138 481.369619 
L 635.679356 473.866731 
L 638.517332 471.08397 
L 641.355308 465.342324 
L 644.193284 457.909886 
L 647.03126 450.125199 
L 649.869236 453.189759 
L 652.707212 454.704427 
L 655.545188 441.565567 
L 658.383164 440.579272 
L 661.22114 436.634092 
L 664.059116 430.047049 
L 666.897092 421.839665 
L 669.735067 424.094054 
L 672.573043 414.160654 
L 675.411019 417.013864 
L 678.248995 413.597056 
L 681.086971 403.628431 
L 683.924947 405.107874 
L 686.762923 384.924049 
L 689.600899 379.922124 
L 692.438875 378.654031 
L 695.276851 358.364532 
L 698.114827 360.160998 
L 700.952803 343.922354 
L 703.790779 314.580075 
L 706.628755 309.331576 
L 709.466731 290.732869 
L 712.304707 295.171197 
L 715.142682 278.54508 
L 717.980658 259.770248 
L 720.818634 262.975707 
L 723.65661 245.222396 
L 726.494586 238.424005 
L 729.332562 233.844777 
L 732.170538 231.449489 
L 735.008514 238.142206 
L 737.84649 232.048311 
L 740.684466 211.688363 
L 743.522442 193.089656 
L 746.360418 167.551658 
L 749.198394 214.929047 
L 752.03637 160.295344 
L 754.874346 155.328644 
L 757.712322 157.12511 
L 760.550298 234.267475 
L 763.388273 158.111405 
L 766.226249 127.99418 
L 769.064225 174.314824 
L 771.902201 213.801852 
L 774.740177 227.786108 
L 777.578153 246.913187 
L 780.416129 250.787918 
L 783.254105 274.318101 
L 786.092081 264.560824 
L 788.930057 284.674199 
L 794.606009 354.806824 
L 797.443985 355.264747 
L 800.281961 329.198377 
L 803.119937 321.202342 
L 805.957913 305.104597 
L 808.795888 311.339391 
L 811.633864 328.987028 
L 814.47184 349.523101 
L 817.309816 368.121808 
L 820.147792 357.307787 
L 822.985768 320.814869 
L 825.823744 310.670119 
L 828.66172 305.844319 
L 831.499696 329.867649 
L 834.337672 337.546661 
L 837.175648 381.366342 
L 840.013624 346.74034 
L 842.8516 362.204038 
L 845.689576 317.362836 
L 848.527552 362.591511 
L 851.365528 322.928358 
L 854.203504 358.752005 
L 857.041479 377.174588 
L 859.879455 346.317642 
L 862.717431 322.188637 
L 865.555407 312.748384 
L 868.393383 289.957923 
L 871.231359 280.869918 
L 874.069335 270.725169 
L 876.907311 303.167232 
L 879.745287 289.711349 
L 882.583263 212.498534 
L 885.421239 208.342005 
L 888.259215 199.817597 
L 891.097191 171.496838 
L 893.935167 221.762663 
L 896.773143 286.012742 
L 899.611119 126.232939 
L 902.449094 69.520971 
L 905.28707 99.391623 
L 908.125046 89.317323 
L 910.963022 60.609091 
L 913.800998 126.268164 
L 916.638974 174.103475 
L 919.47695 153.743527 
L 922.314926 114.608747 
L 925.152902 115.031445 
L 927.990878 172.764932 
L 930.828854 199.817597 
L 933.66683 258.46693 
L 936.504806 255.40237 
L 939.342782 188.616103 
L 942.180758 178.647478 
L 945.018734 231.414265 
L 947.856709 216.690288 
L 950.694685 259.065752 
L 953.532661 288.47848 
L 956.370637 296.404066 
L 959.208613 269.597974 
L 962.046589 180.549618 
L 964.884565 233.492529 
L 967.722541 261.778063 
L 970.560517 286.752464 
L 973.398493 328.881354 
L 976.236469 348.043658 
L 979.074445 305.280721 
L 981.912421 291.895288 
L 984.750397 307.993033 
L 987.588373 334.376426 
L 990.426349 322.470436 
L 993.264325 352.200187 
L 996.1023 369.178553 
L 998.940276 324.865724 
L 1001.778252 316.270867 
L 1004.616228 317.327611 
L 1007.454204 328.951803 
L 1010.29218 347.374387 
L 1013.130156 378.160883 
L 1015.968132 381.683366 
L 1018.806108 353.186483 
L 1021.644084 355.546546 
L 1024.48206 366.431017 
L 1027.320036 372.66581 
L 1030.158012 389.327152 
L 1032.995988 407.362263 
L 1035.833964 394.223403 
L 1038.67194 378.301782 
L 1041.509915 371.961314 
L 1044.347891 367.452536 
L 1047.185867 376.117843 
L 1050.023843 381.084543 
L 1052.861819 441.424668 
L 1055.699795 458.226909 
L 1058.537771 407.538387 
L 1061.375747 364.881124 
L 1064.213723 366.74804 
L 1067.051699 371.926089 
L 1069.889675 398.239033 
L 1072.727651 420.677246 
L 1075.565627 424.516752 
L 1078.403603 401.268368 
L 1081.241579 360.513246 
L 1084.079555 353.186483 
L 1086.91753 358.857679 
L 1089.755506 355.018173 
L 1092.593482 373.053284 
L 1095.431458 385.910344 
L 1098.269434 366.008319 
L 1101.10741 343.147408 
L 1103.945386 339.554476 
L 1106.783362 345.754045 
L 1109.621338 355.194298 
L 1112.459314 387.143213 
L 1115.29729 379.428977 
L 1118.135266 343.640555 
L 1120.973242 374.744075 
L 1120.973242 374.744075 
" style="fill:none;stroke:#000000;stroke-dasharray:1.5,2.475;stroke-dashoffset:0;stroke-opacity:0.5;stroke-width:1.5;"/>
   </g>
   <g id="line2d_21">
    <path clip-path="url(#p3b5c164d1f)" d="M 87.95 518.390909 
L 102.13988 516.523993 
L 107.815832 515.150225 
L 113.491783 513.21286 
L 116.329759 512.050441 
L 119.167735 510.606223 
L 122.005711 508.844982 
L 127.681663 504.23053 
L 130.519639 502.25794 
L 136.195591 498.030961 
L 139.033567 495.494773 
L 141.871543 492.289314 
L 147.547495 485.138675 
L 150.385471 482.884286 
L 153.223447 482.567263 
L 156.061423 483.166085 
L 158.899398 484.222829 
L 161.737374 484.962551 
L 164.57535 485.1739 
L 170.251302 483.694457 
L 173.089278 483.835356 
L 175.927254 484.469403 
L 178.76523 484.786427 
L 181.603206 484.046705 
L 187.279158 480.031075 
L 190.117134 478.305059 
L 192.95511 478.199384 
L 195.793086 480.418548 
L 198.631062 483.201309 
L 201.469038 485.033 
L 204.307013 485.244349 
L 207.144989 484.08193 
L 209.982965 483.166085 
L 212.820941 483.553558 
L 215.658917 485.420473 
L 218.496893 488.09756 
L 221.334869 490.492848 
L 224.172845 491.972291 
L 227.010821 492.888136 
L 229.848797 494.08578 
L 232.686773 496.727642 
L 238.362725 502.997661 
L 241.200701 504.899801 
L 244.038677 505.357724 
L 246.876653 505.287274 
L 249.714629 505.357724 
L 252.552604 505.815647 
L 255.39058 507.295089 
L 258.228556 508.351834 
L 261.066532 508.809757 
L 263.904508 508.774532 
L 266.742484 508.598408 
L 269.58046 508.844982 
L 278.094388 511.627743 
L 280.932364 511.979991 
L 283.77034 512.050441 
L 289.446292 512.578813 
L 295.122244 513.882132 
L 297.960219 514.093481 
L 300.798195 513.846907 
L 306.474147 513.036736 
L 309.312123 512.860612 
L 314.988075 513.177635 
L 317.826051 513.424209 
L 326.339979 513.635558 
L 332.015931 514.199155 
L 334.853907 514.727527 
L 337.691883 515.009326 
L 340.529859 514.938876 
L 343.367835 514.551403 
L 349.043786 513.28331 
L 351.881762 512.895836 
L 354.719738 512.790162 
L 360.39569 513.248085 
L 368.909618 513.424209 
L 371.747594 513.600333 
L 377.423546 514.340054 
L 388.77545 516.101296 
L 391.613425 516.488769 
L 394.451401 516.735342 
L 400.127353 516.841017 
L 405.803305 516.700118 
L 408.641281 516.700118 
L 422.831161 517.29894 
L 428.507113 517.334164 
L 434.183065 517.615963 
L 439.859016 517.968211 
L 442.696992 517.932986 
L 448.372944 517.475064 
L 465.4008 516.13652 
L 473.914728 514.586628 
L 479.59068 513.846907 
L 488.104607 513.529883 
L 493.780559 512.790162 
L 496.618535 512.085666 
L 499.456511 511.16982 
L 502.294487 509.866502 
L 507.970439 507.576888 
L 510.808415 506.555368 
L 513.646391 505.780422 
L 527.836271 501.025071 
L 530.674246 499.933101 
L 533.512222 498.665007 
L 539.188174 497.009441 
L 542.02615 496.692417 
L 544.864126 497.185565 
L 547.702102 498.066185 
L 550.540078 499.263829 
L 553.378054 500.179675 
L 556.21603 500.848947 
L 559.054006 501.271644 
L 561.891982 501.412544 
L 567.567934 501.342094 
L 570.40591 501.659117 
L 576.081861 501.870466 
L 581.757813 501.729567 
L 584.595789 501.623893 
L 590.271741 501.694342 
L 593.109717 501.342094 
L 595.947693 500.708047 
L 601.623645 498.207085 
L 604.461621 496.410619 
L 607.299597 494.790277 
L 610.137573 492.817687 
L 612.975549 490.668972 
L 615.813525 488.731607 
L 621.489477 484.117155 
L 624.327452 482.426363 
L 627.165428 480.312874 
L 630.003404 478.410733 
L 632.84138 476.297244 
L 635.679356 472.915661 
L 638.517332 469.04093 
L 644.193284 459.847251 
L 647.03126 455.655497 
L 655.545188 444.559677 
L 658.383164 440.0509 
L 661.22114 435.225099 
L 664.059116 430.047049 
L 666.897092 425.749621 
L 672.573043 417.894485 
L 675.411019 414.477677 
L 678.248995 410.039349 
L 681.086971 404.192028 
L 683.924947 397.78111 
L 689.600899 381.401567 
L 692.438875 372.841935 
L 695.276851 362.309712 
L 698.114827 351.002543 
L 706.628755 310.881468 
L 709.466731 298.200532 
L 712.304707 287.45696 
L 720.818634 258.009007 
L 723.65661 249.097126 
L 726.494586 242.615759 
L 732.170538 233.739103 
L 735.008514 228.525829 
L 740.684466 211.336115 
L 746.360418 189.954646 
L 749.198394 180.514393 
L 752.03637 177.802082 
L 754.874346 175.829492 
L 757.712322 174.06825 
L 760.550298 171.355939 
L 763.388273 172.588808 
L 766.226249 176.780562 
L 769.064225 187.20711 
L 771.902201 200.733442 
L 774.740177 221.022941 
L 777.578153 239.4103 
L 780.416129 253.112756 
L 783.254105 265.688019 
L 786.092081 280.834693 
L 791.768033 314.720974 
L 794.606009 327.049663 
L 797.443985 332.65041 
L 800.281961 330.959618 
L 803.119937 325.746344 
L 805.957913 322.294312 
L 808.795888 325.041848 
L 811.633864 332.967433 
L 814.47184 340.047623 
L 817.309816 343.182632 
L 820.147792 339.695375 
L 822.985768 332.72086 
L 825.823744 326.239492 
L 828.66172 326.380391 
L 831.499696 331.523216 
L 834.337672 341.315717 
L 837.175648 347.339162 
L 840.013624 351.178668 
L 845.689576 346.528991 
L 848.527552 345.754045 
L 851.365528 348.114108 
L 854.203504 348.853829 
L 857.041479 347.902759 
L 859.879455 339.237452 
L 862.717431 327.648485 
L 865.555407 312.008663 
L 868.393383 299.151602 
L 871.231359 291.296466 
L 874.069335 282.736834 
L 876.907311 272.028487 
L 879.745287 257.480635 
L 882.583263 237.860407 
L 885.421239 220.952492 
L 888.259215 212.921232 
L 891.097191 206.017166 
L 893.935167 197.422309 
L 896.773143 180.760967 
L 899.611119 155.469543 
L 902.449094 127.078335 
L 905.28707 105.203719 
L 908.125046 96.538412 
L 910.963022 105.732091 
L 913.800998 118.906175 
L 916.638974 128.346428 
L 922.314926 144.373723 
L 925.152902 156.350164 
L 927.990878 174.984096 
L 930.828854 195.23837 
L 933.66683 210.631618 
L 936.504806 218.416304 
L 939.342782 216.972087 
L 942.180758 216.901637 
L 945.018734 222.25581 
L 947.856709 235.641243 
L 950.694685 252.971857 
L 953.532661 260.932667 
L 956.370637 259.699799 
L 962.046589 248.498304 
L 964.884565 251.598089 
L 967.722541 265.899368 
L 973.398493 303.308131 
L 976.236469 311.973438 
L 979.074445 315.073223 
L 981.912421 315.178897 
L 984.750397 317.398061 
L 987.588373 324.231677 
L 990.426349 332.65041 
L 993.264325 338.215932 
L 996.1023 338.356831 
L 998.940276 334.376426 
L 1001.778252 331.417541 
L 1004.616228 332.192487 
L 1007.454204 338.462506 
L 1010.29218 348.501581 
L 1013.130156 357.378237 
L 1015.968132 362.873309 
L 1018.806108 365.057248 
L 1021.644084 366.783265 
L 1024.48206 370.76367 
L 1027.320036 377.104138 
L 1030.158012 384.078654 
L 1032.995988 387.70681 
L 1035.833964 386.75574 
L 1038.67194 383.127583 
L 1041.509915 378.900604 
L 1044.347891 380.239148 
L 1047.185867 389.327152 
L 1050.023843 401.197918 
L 1052.861819 409.546202 
L 1055.699795 410.814295 
L 1058.537771 403.804555 
L 1061.375747 394.258628 
L 1064.213723 387.072764 
L 1067.051699 387.601136 
L 1069.889675 394.681326 
L 1072.727651 400.176398 
L 1075.565627 398.837855 
L 1078.403603 390.982719 
L 1081.241579 378.900604 
L 1084.079555 368.614956 
L 1086.91753 364.000504 
L 1089.755506 364.141403 
L 1092.593482 365.79697 
L 1095.431458 364.845899 
L 1098.269434 360.724595 
L 1101.10741 355.72267 
L 1103.945386 353.538731 
L 1106.783362 355.229522 
L 1109.621338 358.963354 
L 1112.459314 364.247077 
L 1115.29729 367.065063 
L 1118.135266 367.76956 
L 1120.973242 367.417312 
L 1120.973242 367.417312 
" style="fill:none;stroke:#000000;stroke-linecap:square;stroke-width:1.5;"/>
   </g>
   <g id="patch_3">
    <path d="M 87.95 541.28 
L 87.95 37.72 
" style="fill:none;stroke:#555555;stroke-linecap:square;stroke-linejoin:miter;"/>
   </g>
   <g id="patch_4">
    <path d="M 87.95 541.28 
L 1120.973242 541.28 
" style="fill:none;stroke:#555555;stroke-linecap:square;stroke-linejoin:miter;"/>
   </g>
   <g id="text_21">
    <!-- Last updated on 04 March 2021 -->
    <g style="fill:#555555;" transform="translate(460.988965 27.72)scale(0.18 -0.18)">
     <defs>
      <path d="M 9.8125 72.90625 
L 19.671875 72.90625 
L 19.671875 8.296875 
L 55.171875 8.296875 
L 55.171875 0 
L 9.8125 0 
z
" id="DejaVuSans-76"/>
      <path d="M 18.3125 70.21875 
L 18.3125 54.6875 
L 36.8125 54.6875 
L 36.8125 47.703125 
L 18.3125 47.703125 
L 18.3125 18.015625 
Q 18.3125 11.328125 20.140625 9.421875 
Q 21.96875 7.515625 27.59375 7.515625 
L 36.8125 7.515625 
L 36.8125 0 
L 27.59375 0 
Q 17.1875 0 13.234375 3.875 
Q 9.28125 7.765625 9.28125 18.015625 
L 9.28125 47.703125 
L 2.6875 47.703125 
L 2.6875 54.6875 
L 9.28125 54.6875 
L 9.28125 70.21875 
z
" id="DejaVuSans-116"/>
      <path d="M 8.5 21.578125 
L 8.5 54.6875 
L 17.484375 54.6875 
L 17.484375 21.921875 
Q 17.484375 14.15625 20.5 10.265625 
Q 23.53125 6.390625 29.59375 6.390625 
Q 36.859375 6.390625 41.078125 11.03125 
Q 45.3125 15.671875 45.3125 23.6875 
L 45.3125 54.6875 
L 54.296875 54.6875 
L 54.296875 0 
L 45.3125 0 
L 45.3125 8.40625 
Q 42.046875 3.421875 37.71875 1 
Q 33.40625 -1.421875 27.6875 -1.421875 
Q 18.265625 -1.421875 13.375 4.4375 
Q 8.5 10.296875 8.5 21.578125 
z
M 31.109375 56 
z
" id="DejaVuSans-117"/>
      <path d="M 18.109375 8.203125 
L 18.109375 -20.796875 
L 9.078125 -20.796875 
L 9.078125 54.6875 
L 18.109375 54.6875 
L 18.109375 46.390625 
Q 20.953125 51.265625 25.265625 53.625 
Q 29.59375 56 35.59375 56 
Q 45.5625 56 51.78125 48.09375 
Q 58.015625 40.1875 58.015625 27.296875 
Q 58.015625 14.40625 51.78125 6.484375 
Q 45.5625 -1.421875 35.59375 -1.421875 
Q 29.59375 -1.421875 25.265625 0.953125 
Q 20.953125 3.328125 18.109375 8.203125 
z
M 48.6875 27.296875 
Q 48.6875 37.203125 44.609375 42.84375 
Q 40.53125 48.484375 33.40625 48.484375 
Q 26.265625 48.484375 22.1875 42.84375 
Q 18.109375 37.203125 18.109375 27.296875 
Q 18.109375 17.390625 22.1875 11.75 
Q 26.265625 6.109375 33.40625 6.109375 
Q 40.53125 6.109375 44.609375 11.75 
Q 48.6875 17.390625 48.6875 27.296875 
z
" id="DejaVuSans-112"/>
      <path d="M 45.40625 46.390625 
L 45.40625 75.984375 
L 54.390625 75.984375 
L 54.390625 0 
L 45.40625 0 
L 45.40625 8.203125 
Q 42.578125 3.328125 38.25 0.953125 
Q 33.9375 -1.421875 27.875 -1.421875 
Q 17.96875 -1.421875 11.734375 6.484375 
Q 5.515625 14.40625 5.515625 27.296875 
Q 5.515625 40.1875 11.734375 48.09375 
Q 17.96875 56 27.875 56 
Q 33.9375 56 38.25 53.625 
Q 42.578125 51.265625 45.40625 46.390625 
z
M 14.796875 27.296875 
Q 14.796875 17.390625 18.875 11.75 
Q 22.953125 6.109375 30.078125 6.109375 
Q 37.203125 6.109375 41.296875 11.75 
Q 45.40625 17.390625 45.40625 27.296875 
Q 45.40625 37.203125 41.296875 42.84375 
Q 37.203125 48.484375 30.078125 48.484375 
Q 22.953125 48.484375 18.875 42.84375 
Q 14.796875 37.203125 14.796875 27.296875 
z
" id="DejaVuSans-100"/>
      <path d="M 30.609375 48.390625 
Q 23.390625 48.390625 19.1875 42.75 
Q 14.984375 37.109375 14.984375 27.296875 
Q 14.984375 17.484375 19.15625 11.84375 
Q 23.34375 6.203125 30.609375 6.203125 
Q 37.796875 6.203125 41.984375 11.859375 
Q 46.1875 17.53125 46.1875 27.296875 
Q 46.1875 37.015625 41.984375 42.703125 
Q 37.796875 48.390625 30.609375 48.390625 
z
M 30.609375 56 
Q 42.328125 56 49.015625 48.375 
Q 55.71875 40.765625 55.71875 27.296875 
Q 55.71875 13.875 49.015625 6.21875 
Q 42.328125 -1.421875 30.609375 -1.421875 
Q 18.84375 -1.421875 12.171875 6.21875 
Q 5.515625 13.875 5.515625 27.296875 
Q 5.515625 40.765625 12.171875 48.375 
Q 18.84375 56 30.609375 56 
z
" id="DejaVuSans-111"/>
      <path d="M 54.890625 33.015625 
L 54.890625 0 
L 45.90625 0 
L 45.90625 32.71875 
Q 45.90625 40.484375 42.875 44.328125 
Q 39.84375 48.1875 33.796875 48.1875 
Q 26.515625 48.1875 22.3125 43.546875 
Q 18.109375 38.921875 18.109375 30.90625 
L 18.109375 0 
L 9.078125 0 
L 9.078125 54.6875 
L 18.109375 54.6875 
L 18.109375 46.1875 
Q 21.34375 51.125 25.703125 53.5625 
Q 30.078125 56 35.796875 56 
Q 45.21875 56 50.046875 50.171875 
Q 54.890625 44.34375 54.890625 33.015625 
z
" id="DejaVuSans-110"/>
      <path d="M 31.78125 66.40625 
Q 24.171875 66.40625 20.328125 58.90625 
Q 16.5 51.421875 16.5 36.375 
Q 16.5 21.390625 20.328125 13.890625 
Q 24.171875 6.390625 31.78125 6.390625 
Q 39.453125 6.390625 43.28125 13.890625 
Q 47.125 21.390625 47.125 36.375 
Q 47.125 51.421875 43.28125 58.90625 
Q 39.453125 66.40625 31.78125 66.40625 
z
M 31.78125 74.21875 
Q 44.046875 74.21875 50.515625 64.515625 
Q 56.984375 54.828125 56.984375 36.375 
Q 56.984375 17.96875 50.515625 8.265625 
Q 44.046875 -1.421875 31.78125 -1.421875 
Q 19.53125 -1.421875 13.0625 8.265625 
Q 6.59375 17.96875 6.59375 36.375 
Q 6.59375 54.828125 13.0625 64.515625 
Q 19.53125 74.21875 31.78125 74.21875 
z
" id="DejaVuSans-48"/>
      <path d="M 37.796875 64.3125 
L 12.890625 25.390625 
L 37.796875 25.390625 
z
M 35.203125 72.90625 
L 47.609375 72.90625 
L 47.609375 25.390625 
L 58.015625 25.390625 
L 58.015625 17.1875 
L 47.609375 17.1875 
L 47.609375 0 
L 37.796875 0 
L 37.796875 17.1875 
L 4.890625 17.1875 
L 4.890625 26.703125 
z
" id="DejaVuSans-52"/>
      <path d="M 9.8125 72.90625 
L 24.515625 72.90625 
L 43.109375 23.296875 
L 61.8125 72.90625 
L 76.515625 72.90625 
L 76.515625 0 
L 66.890625 0 
L 66.890625 64.015625 
L 48.09375 14.015625 
L 38.1875 14.015625 
L 19.390625 64.015625 
L 19.390625 0 
L 9.8125 0 
z
" id="DejaVuSans-77"/>
      <path d="M 41.109375 46.296875 
Q 39.59375 47.171875 37.8125 47.578125 
Q 36.03125 48 33.890625 48 
Q 26.265625 48 22.1875 43.046875 
Q 18.109375 38.09375 18.109375 28.8125 
L 18.109375 0 
L 9.078125 0 
L 9.078125 54.6875 
L 18.109375 54.6875 
L 18.109375 46.1875 
Q 20.953125 51.171875 25.484375 53.578125 
Q 30.03125 56 36.53125 56 
Q 37.453125 56 38.578125 55.875 
Q 39.703125 55.765625 41.0625 55.515625 
z
" id="DejaVuSans-114"/>
      <path d="M 48.78125 52.59375 
L 48.78125 44.1875 
Q 44.96875 46.296875 41.140625 47.34375 
Q 37.3125 48.390625 33.40625 48.390625 
Q 24.65625 48.390625 19.8125 42.84375 
Q 14.984375 37.3125 14.984375 27.296875 
Q 14.984375 17.28125 19.8125 11.734375 
Q 24.65625 6.203125 33.40625 6.203125 
Q 37.3125 6.203125 41.140625 7.25 
Q 44.96875 8.296875 48.78125 10.40625 
L 48.78125 2.09375 
Q 45.015625 0.34375 40.984375 -0.53125 
Q 36.96875 -1.421875 32.421875 -1.421875 
Q 20.0625 -1.421875 12.78125 6.34375 
Q 5.515625 14.109375 5.515625 27.296875 
Q 5.515625 40.671875 12.859375 48.328125 
Q 20.21875 56 33.015625 56 
Q 37.15625 56 41.109375 55.140625 
Q 45.0625 54.296875 48.78125 52.59375 
z
" id="DejaVuSans-99"/>
      <path d="M 54.890625 33.015625 
L 54.890625 0 
L 45.90625 0 
L 45.90625 32.71875 
Q 45.90625 40.484375 42.875 44.328125 
Q 39.84375 48.1875 33.796875 48.1875 
Q 26.515625 48.1875 22.3125 43.546875 
Q 18.109375 38.921875 18.109375 30.90625 
L 18.109375 0 
L 9.078125 0 
L 9.078125 75.984375 
L 18.109375 75.984375 
L 18.109375 46.1875 
Q 21.34375 51.125 25.703125 53.5625 
Q 30.078125 56 35.796875 56 
Q 45.21875 56 50.046875 50.171875 
Q 54.890625 44.34375 54.890625 33.015625 
z
" id="DejaVuSans-104"/>
      <path d="M 19.1875 8.296875 
L 53.609375 8.296875 
L 53.609375 0 
L 7.328125 0 
L 7.328125 8.296875 
Q 12.9375 14.109375 22.625 23.890625 
Q 32.328125 33.6875 34.8125 36.53125 
Q 39.546875 41.84375 41.421875 45.53125 
Q 43.3125 49.21875 43.3125 52.78125 
Q 43.3125 58.59375 39.234375 62.25 
Q 35.15625 65.921875 28.609375 65.921875 
Q 23.96875 65.921875 18.8125 64.3125 
Q 13.671875 62.703125 7.8125 59.421875 
L 7.8125 69.390625 
Q 13.765625 71.78125 18.9375 73 
Q 24.125 74.21875 28.421875 74.21875 
Q 39.75 74.21875 46.484375 68.546875 
Q 53.21875 62.890625 53.21875 53.421875 
Q 53.21875 48.921875 51.53125 44.890625 
Q 49.859375 40.875 45.40625 35.40625 
Q 44.1875 33.984375 37.640625 27.21875 
Q 31.109375 20.453125 19.1875 8.296875 
z
" id="DejaVuSans-50"/>
      <path d="M 12.40625 8.296875 
L 28.515625 8.296875 
L 28.515625 63.921875 
L 10.984375 60.40625 
L 10.984375 69.390625 
L 28.421875 72.90625 
L 38.28125 72.90625 
L 38.28125 8.296875 
L 54.390625 8.296875 
L 54.390625 0 
L 12.40625 0 
z
" id="DejaVuSans-49"/>
     </defs>
     <use xlink:href="#DejaVuSans-76"/>
     <use x="55.712891" xlink:href="#DejaVuSans-97"/>
     <use x="116.992188" xlink:href="#DejaVuSans-115"/>
     <use x="169.091797" xlink:href="#DejaVuSans-116"/>
     <use x="208.300781" xlink:href="#DejaVuSans-32"/>
     <use x="240.087891" xlink:href="#DejaVuSans-117"/>
     <use x="303.466797" xlink:href="#DejaVuSans-112"/>
     <use x="366.943359" xlink:href="#DejaVuSans-100"/>
     <use x="430.419922" xlink:href="#DejaVuSans-97"/>
     <use x="491.699219" xlink:href="#DejaVuSans-116"/>
     <use x="530.908203" xlink:href="#DejaVuSans-101"/>
     <use x="592.431641" xlink:href="#DejaVuSans-100"/>
     <use x="655.908203" xlink:href="#DejaVuSans-32"/>
     <use x="687.695312" xlink:href="#DejaVuSans-111"/>
     <use x="748.876953" xlink:href="#DejaVuSans-110"/>
     <use x="812.255859" xlink:href="#DejaVuSans-32"/>
     <use x="844.042969" xlink:href="#DejaVuSans-48"/>
     <use x="907.666016" xlink:href="#DejaVuSans-52"/>
     <use x="971.289062" xlink:href="#DejaVuSans-32"/>
     <use x="1003.076172" xlink:href="#DejaVuSans-77"/>
     <use x="1089.355469" xlink:href="#DejaVuSans-97"/>
     <use x="1150.634766" xlink:href="#DejaVuSans-114"/>
     <use x="1189.498047" xlink:href="#DejaVuSans-99"/>
     <use x="1244.478516" xlink:href="#DejaVuSans-104"/>
     <use x="1307.857422" xlink:href="#DejaVuSans-32"/>
     <use x="1339.644531" xlink:href="#DejaVuSans-50"/>
     <use x="1403.267578" xlink:href="#DejaVuSans-48"/>
     <use x="1466.890625" xlink:href="#DejaVuSans-50"/>
     <use x="1530.513672" xlink:href="#DejaVuSans-49"/>
    </g>
   </g>
   <g id="legend_1">
    <g id="line2d_22">
     <path d="M 998.511211 54.747969 
L 1024.511211 54.747969 
" style="fill:none;stroke:#000000;stroke-dasharray:1.5,2.475;stroke-dashoffset:0;stroke-opacity:0.5;stroke-width:1.5;"/>
    </g>
    <g id="line2d_23"/>
    <g id="text_22">
     <!-- Actual -->
     <g style="fill:#555555;" transform="translate(1034.911211 59.297969)scale(0.13 -0.13)">
      <use xlink:href="#DejaVuSans-Bold-65"/>
      <use x="77.392578" xlink:href="#DejaVuSans-Bold-99"/>
      <use x="136.669922" xlink:href="#DejaVuSans-Bold-116"/>
      <use x="184.472656" xlink:href="#DejaVuSans-Bold-117"/>
      <use x="255.664062" xlink:href="#DejaVuSans-Bold-97"/>
      <use x="323.144531" xlink:href="#DejaVuSans-Bold-108"/>
     </g>
    </g>
    <g id="line2d_24">
     <path d="M 998.511211 73.829531 
L 1024.511211 73.829531 
" style="fill:none;stroke:#000000;stroke-linecap:square;stroke-width:1.5;"/>
    </g>
    <g id="line2d_25"/>
    <g id="text_23">
     <!-- Smoothed -->
     <g style="fill:#555555;" transform="translate(1034.911211 78.379531)scale(0.13 -0.13)">
      <defs>
       <path d="M 45.609375 46.6875 
L 45.609375 75.984375 
L 63.1875 75.984375 
L 63.1875 0 
L 45.609375 0 
L 45.609375 7.90625 
Q 42 3.078125 37.640625 0.828125 
Q 33.296875 -1.421875 27.59375 -1.421875 
Q 17.484375 -1.421875 10.984375 6.609375 
Q 4.5 14.65625 4.5 27.296875 
Q 4.5 39.9375 10.984375 47.96875 
Q 17.484375 56 27.59375 56 
Q 33.25 56 37.625 53.734375 
Q 42 51.46875 45.609375 46.6875 
z
M 34.078125 11.28125 
Q 39.703125 11.28125 42.65625 15.375 
Q 45.609375 19.484375 45.609375 27.296875 
Q 45.609375 35.109375 42.65625 39.203125 
Q 39.703125 43.3125 34.078125 43.3125 
Q 28.515625 43.3125 25.5625 39.203125 
Q 22.609375 35.109375 22.609375 27.296875 
Q 22.609375 19.484375 25.5625 15.375 
Q 28.515625 11.28125 34.078125 11.28125 
z
" id="DejaVuSans-Bold-100"/>
      </defs>
      <use xlink:href="#DejaVuSans-Bold-83"/>
      <use x="72.021484" xlink:href="#DejaVuSans-Bold-109"/>
      <use x="176.220703" xlink:href="#DejaVuSans-Bold-111"/>
      <use x="244.921875" xlink:href="#DejaVuSans-Bold-111"/>
      <use x="313.623047" xlink:href="#DejaVuSans-Bold-116"/>
      <use x="361.425781" xlink:href="#DejaVuSans-Bold-104"/>
      <use x="432.617188" xlink:href="#DejaVuSans-Bold-101"/>
      <use x="500.439453" xlink:href="#DejaVuSans-Bold-100"/>
     </g>
    </g>
   </g>
  </g>
 </g>
 <defs>
  <clipPath id="p3b5c164d1f">
   <rect height="503.56" width="1033.023242" x="87.95" y="37.72"/>
  </clipPath>
 </defs>
</svg>
