<?xml version="1.0" encoding="utf-8" standalone="no"?>
<!DOCTYPE svg PUBLIC "-//W3C//DTD SVG 1.1//EN"
  "http://www.w3.org/Graphics/SVG/1.1/DTD/svg11.dtd">
<svg xmlns:xlink="http://www.w3.org/1999/xlink" width="1152pt" height="576pt" viewBox="0 0 1152 576" xmlns="http://www.w3.org/2000/svg" version="1.1">
 <metadata>
  <rdf:RDF xmlns:dc="http://purl.org/dc/elements/1.1/" xmlns:cc="http://creativecommons.org/ns#" xmlns:rdf="http://www.w3.org/1999/02/22-rdf-syntax-ns#">
   <cc:Work>
    <dc:type rdf:resource="http://purl.org/dc/dcmitype/StillImage"/>
    <dc:date>2021-12-27T16:25:51.233368</dc:date>
    <dc:format>image/svg+xml</dc:format>
    <dc:creator>
     <cc:Agent>
      <dc:title>Matplotlib v3.5.1, https://matplotlib.org/</dc:title>
     </cc:Agent>
    </dc:creator>
   </cc:Work>
  </rdf:RDF>
 </metadata>
 <defs>
  <style type="text/css">*{stroke-linejoin: round; stroke-linecap: butt}</style>
 </defs>
 <g id="figure_1">
  <g id="patch_1">
   <path d="M 0 576 
L 1152 576 
L 1152 0 
L 0 0 
z
" style="fill: #ffffff"/>
  </g>
  <g id="axes_1">
   <g id="patch_2">
    <path d="M 87.95 541.28 
L 1137.96 541.28 
L 1137.96 37.72 
L 87.95 37.72 
z
" style="fill: #ffffff"/>
   </g>
   <g id="matplotlib.axis_1">
    <g id="xtick_1">
     <g id="line2d_1">
      <defs>
       <path id="m976f68c183" d="M 0 0 
L 0 3.5 
" style="stroke: #555555; stroke-width: 0.8"/>
      </defs>
      <g>
       <use xlink:href="#m976f68c183" x="128.457194" y="541.28" style="fill: #555555; stroke: #555555; stroke-width: 0.8"/>
      </g>
     </g>
     <g id="text_1">
      <!-- Mar -->
      <g style="fill: #555555" transform="translate(113.315319 558.917812)scale(0.14 -0.14)">
       <defs>
        <path id="DejaVuSans-Bold-4d" d="M 588 4666 
L 2119 4666 
L 3181 2169 
L 4250 4666 
L 5778 4666 
L 5778 0 
L 4641 0 
L 4641 3413 
L 3566 897 
L 2803 897 
L 1728 3413 
L 1728 0 
L 588 0 
L 588 4666 
z
" transform="scale(0.015625)"/>
        <path id="DejaVuSans-Bold-61" d="M 2106 1575 
Q 1756 1575 1579 1456 
Q 1403 1338 1403 1106 
Q 1403 894 1545 773 
Q 1688 653 1941 653 
Q 2256 653 2472 879 
Q 2688 1106 2688 1447 
L 2688 1575 
L 2106 1575 
z
M 3816 1997 
L 3816 0 
L 2688 0 
L 2688 519 
Q 2463 200 2181 54 
Q 1900 -91 1497 -91 
Q 953 -91 614 226 
Q 275 544 275 1050 
Q 275 1666 698 1953 
Q 1122 2241 2028 2241 
L 2688 2241 
L 2688 2328 
Q 2688 2594 2478 2717 
Q 2269 2841 1825 2841 
Q 1466 2841 1156 2769 
Q 847 2697 581 2553 
L 581 3406 
Q 941 3494 1303 3539 
Q 1666 3584 2028 3584 
Q 2975 3584 3395 3211 
Q 3816 2838 3816 1997 
z
" transform="scale(0.015625)"/>
        <path id="DejaVuSans-Bold-72" d="M 3138 2547 
Q 2991 2616 2845 2648 
Q 2700 2681 2553 2681 
Q 2122 2681 1889 2404 
Q 1656 2128 1656 1613 
L 1656 0 
L 538 0 
L 538 3500 
L 1656 3500 
L 1656 2925 
Q 1872 3269 2151 3426 
Q 2431 3584 2822 3584 
Q 2878 3584 2943 3579 
Q 3009 3575 3134 3559 
L 3138 2547 
z
" transform="scale(0.015625)"/>
       </defs>
       <use xlink:href="#DejaVuSans-Bold-4d"/>
       <use xlink:href="#DejaVuSans-Bold-61" x="99.511719"/>
       <use xlink:href="#DejaVuSans-Bold-72" x="166.992188"/>
      </g>
     </g>
    </g>
    <g id="xtick_2">
     <g id="line2d_2">
      <g>
       <use xlink:href="#m976f68c183" x="173.224502" y="541.28" style="fill: #555555; stroke: #555555; stroke-width: 0.8"/>
      </g>
     </g>
     <g id="text_2">
      <!-- Apr -->
      <g style="fill: #555555" transform="translate(159.344815 558.917812)scale(0.14 -0.14)">
       <defs>
        <path id="DejaVuSans-Bold-41" d="M 3419 850 
L 1538 850 
L 1241 0 
L 31 0 
L 1759 4666 
L 3194 4666 
L 4922 0 
L 3713 0 
L 3419 850 
z
M 1838 1716 
L 3116 1716 
L 2478 3572 
L 1838 1716 
z
" transform="scale(0.015625)"/>
        <path id="DejaVuSans-Bold-70" d="M 1656 506 
L 1656 -1331 
L 538 -1331 
L 538 3500 
L 1656 3500 
L 1656 2988 
Q 1888 3294 2169 3439 
Q 2450 3584 2816 3584 
Q 3463 3584 3878 3070 
Q 4294 2556 4294 1747 
Q 4294 938 3878 423 
Q 3463 -91 2816 -91 
Q 2450 -91 2169 54 
Q 1888 200 1656 506 
z
M 2400 2772 
Q 2041 2772 1848 2508 
Q 1656 2244 1656 1747 
Q 1656 1250 1848 986 
Q 2041 722 2400 722 
Q 2759 722 2948 984 
Q 3138 1247 3138 1747 
Q 3138 2247 2948 2509 
Q 2759 2772 2400 2772 
z
" transform="scale(0.015625)"/>
       </defs>
       <use xlink:href="#DejaVuSans-Bold-41"/>
       <use xlink:href="#DejaVuSans-Bold-70" x="77.392578"/>
       <use xlink:href="#DejaVuSans-Bold-72" x="148.974609"/>
      </g>
     </g>
    </g>
    <g id="xtick_3">
     <g id="line2d_3">
      <g>
       <use xlink:href="#m976f68c183" x="216.547704" y="541.28" style="fill: #555555; stroke: #555555; stroke-width: 0.8"/>
      </g>
     </g>
     <g id="text_3">
      <!-- May -->
      <g style="fill: #555555" transform="translate(200.513329 558.808437)scale(0.14 -0.14)">
       <defs>
        <path id="DejaVuSans-Bold-79" d="M 78 3500 
L 1197 3500 
L 2138 1125 
L 2938 3500 
L 4056 3500 
L 2584 -331 
Q 2363 -916 2067 -1148 
Q 1772 -1381 1288 -1381 
L 641 -1381 
L 641 -647 
L 991 -647 
Q 1275 -647 1404 -556 
Q 1534 -466 1606 -231 
L 1638 -134 
L 78 3500 
z
" transform="scale(0.015625)"/>
       </defs>
       <use xlink:href="#DejaVuSans-Bold-4d"/>
       <use xlink:href="#DejaVuSans-Bold-61" x="99.511719"/>
       <use xlink:href="#DejaVuSans-Bold-79" x="163.867188"/>
      </g>
     </g>
    </g>
    <g id="xtick_4">
     <g id="line2d_4">
      <g>
       <use xlink:href="#m976f68c183" x="261.315012" y="541.28" style="fill: #555555; stroke: #555555; stroke-width: 0.8"/>
      </g>
     </g>
     <g id="text_4">
      <!-- Jun -->
      <g style="fill: #555555" transform="translate(248.744544 558.917812)scale(0.14 -0.14)">
       <defs>
        <path id="DejaVuSans-Bold-4a" d="M 588 4666 
L 1791 4666 
L 1791 453 
Q 1791 -419 1317 -850 
Q 844 -1281 -116 -1281 
L -359 -1281 
L -359 -372 
L -172 -372 
Q 203 -372 395 -162 
Q 588 47 588 453 
L 588 4666 
z
" transform="scale(0.015625)"/>
        <path id="DejaVuSans-Bold-75" d="M 500 1363 
L 500 3500 
L 1625 3500 
L 1625 3150 
Q 1625 2866 1622 2436 
Q 1619 2006 1619 1863 
Q 1619 1441 1641 1255 
Q 1663 1069 1716 984 
Q 1784 875 1895 815 
Q 2006 756 2150 756 
Q 2500 756 2700 1025 
Q 2900 1294 2900 1772 
L 2900 3500 
L 4019 3500 
L 4019 0 
L 2900 0 
L 2900 506 
Q 2647 200 2364 54 
Q 2081 -91 1741 -91 
Q 1134 -91 817 281 
Q 500 653 500 1363 
z
" transform="scale(0.015625)"/>
        <path id="DejaVuSans-Bold-6e" d="M 4056 2131 
L 4056 0 
L 2931 0 
L 2931 347 
L 2931 1631 
Q 2931 2084 2911 2256 
Q 2891 2428 2841 2509 
Q 2775 2619 2662 2680 
Q 2550 2741 2406 2741 
Q 2056 2741 1856 2470 
Q 1656 2200 1656 1722 
L 1656 0 
L 538 0 
L 538 3500 
L 1656 3500 
L 1656 2988 
Q 1909 3294 2193 3439 
Q 2478 3584 2822 3584 
Q 3428 3584 3742 3212 
Q 4056 2841 4056 2131 
z
" transform="scale(0.015625)"/>
       </defs>
       <use xlink:href="#DejaVuSans-Bold-4a"/>
       <use xlink:href="#DejaVuSans-Bold-75" x="37.207031"/>
       <use xlink:href="#DejaVuSans-Bold-6e" x="108.398438"/>
      </g>
     </g>
    </g>
    <g id="xtick_5">
     <g id="line2d_5">
      <g>
       <use xlink:href="#m976f68c183" x="304.638214" y="541.28" style="fill: #555555; stroke: #555555; stroke-width: 0.8"/>
      </g>
     </g>
     <g id="text_5">
      <!-- Jul -->
      <g style="fill: #555555" transform="translate(294.651183 558.917812)scale(0.14 -0.14)">
       <defs>
        <path id="DejaVuSans-Bold-6c" d="M 538 4863 
L 1656 4863 
L 1656 0 
L 538 0 
L 538 4863 
z
" transform="scale(0.015625)"/>
       </defs>
       <use xlink:href="#DejaVuSans-Bold-4a"/>
       <use xlink:href="#DejaVuSans-Bold-75" x="37.207031"/>
       <use xlink:href="#DejaVuSans-Bold-6c" x="108.398438"/>
      </g>
     </g>
    </g>
    <g id="xtick_6">
     <g id="line2d_6">
      <g>
       <use xlink:href="#m976f68c183" x="349.405523" y="541.28" style="fill: #555555; stroke: #555555; stroke-width: 0.8"/>
      </g>
     </g>
     <g id="text_6">
      <!-- Aug -->
      <g style="fill: #555555" transform="translate(333.994585 558.808437)scale(0.14 -0.14)">
       <defs>
        <path id="DejaVuSans-Bold-67" d="M 2919 594 
Q 2688 288 2409 144 
Q 2131 0 1766 0 
Q 1125 0 706 504 
Q 288 1009 288 1791 
Q 288 2575 706 3076 
Q 1125 3578 1766 3578 
Q 2131 3578 2409 3434 
Q 2688 3291 2919 2981 
L 2919 3500 
L 4044 3500 
L 4044 353 
Q 4044 -491 3511 -936 
Q 2978 -1381 1966 -1381 
Q 1638 -1381 1331 -1331 
Q 1025 -1281 716 -1178 
L 716 -306 
Q 1009 -475 1290 -558 
Q 1572 -641 1856 -641 
Q 2406 -641 2662 -400 
Q 2919 -159 2919 353 
L 2919 594 
z
M 2181 2772 
Q 1834 2772 1640 2515 
Q 1447 2259 1447 1791 
Q 1447 1309 1634 1061 
Q 1822 813 2181 813 
Q 2531 813 2725 1069 
Q 2919 1325 2919 1791 
Q 2919 2259 2725 2515 
Q 2531 2772 2181 2772 
z
" transform="scale(0.015625)"/>
       </defs>
       <use xlink:href="#DejaVuSans-Bold-41"/>
       <use xlink:href="#DejaVuSans-Bold-75" x="77.392578"/>
       <use xlink:href="#DejaVuSans-Bold-67" x="148.583984"/>
      </g>
     </g>
    </g>
    <g id="xtick_7">
     <g id="line2d_7">
      <g>
       <use xlink:href="#m976f68c183" x="394.172831" y="541.28" style="fill: #555555; stroke: #555555; stroke-width: 0.8"/>
      </g>
     </g>
     <g id="text_7">
      <!-- Sep -->
      <g style="fill: #555555" transform="translate(379.3733 558.917812)scale(0.14 -0.14)">
       <defs>
        <path id="DejaVuSans-Bold-53" d="M 3834 4519 
L 3834 3531 
Q 3450 3703 3084 3790 
Q 2719 3878 2394 3878 
Q 1963 3878 1756 3759 
Q 1550 3641 1550 3391 
Q 1550 3203 1689 3098 
Q 1828 2994 2194 2919 
L 2706 2816 
Q 3484 2659 3812 2340 
Q 4141 2022 4141 1434 
Q 4141 663 3683 286 
Q 3225 -91 2284 -91 
Q 1841 -91 1394 -6 
Q 947 78 500 244 
L 500 1259 
Q 947 1022 1364 901 
Q 1781 781 2169 781 
Q 2563 781 2772 912 
Q 2981 1044 2981 1288 
Q 2981 1506 2839 1625 
Q 2697 1744 2272 1838 
L 1806 1941 
Q 1106 2091 782 2419 
Q 459 2747 459 3303 
Q 459 4000 909 4375 
Q 1359 4750 2203 4750 
Q 2588 4750 2994 4692 
Q 3400 4634 3834 4519 
z
" transform="scale(0.015625)"/>
        <path id="DejaVuSans-Bold-65" d="M 4031 1759 
L 4031 1441 
L 1416 1441 
Q 1456 1047 1700 850 
Q 1944 653 2381 653 
Q 2734 653 3104 758 
Q 3475 863 3866 1075 
L 3866 213 
Q 3469 63 3072 -14 
Q 2675 -91 2278 -91 
Q 1328 -91 801 392 
Q 275 875 275 1747 
Q 275 2603 792 3093 
Q 1309 3584 2216 3584 
Q 3041 3584 3536 3087 
Q 4031 2591 4031 1759 
z
M 2881 2131 
Q 2881 2450 2695 2645 
Q 2509 2841 2209 2841 
Q 1884 2841 1681 2658 
Q 1478 2475 1428 2131 
L 2881 2131 
z
" transform="scale(0.015625)"/>
       </defs>
       <use xlink:href="#DejaVuSans-Bold-53"/>
       <use xlink:href="#DejaVuSans-Bold-65" x="72.021484"/>
       <use xlink:href="#DejaVuSans-Bold-70" x="139.84375"/>
      </g>
     </g>
    </g>
    <g id="xtick_8">
     <g id="line2d_8">
      <g>
       <use xlink:href="#m976f68c183" x="437.496033" y="541.28" style="fill: #555555; stroke: #555555; stroke-width: 0.8"/>
      </g>
     </g>
     <g id="text_8">
      <!-- Oct -->
      <g style="fill: #555555" transform="translate(424.04947 558.917812)scale(0.14 -0.14)">
       <defs>
        <path id="DejaVuSans-Bold-4f" d="M 2719 3878 
Q 2169 3878 1866 3472 
Q 1563 3066 1563 2328 
Q 1563 1594 1866 1187 
Q 2169 781 2719 781 
Q 3272 781 3575 1187 
Q 3878 1594 3878 2328 
Q 3878 3066 3575 3472 
Q 3272 3878 2719 3878 
z
M 2719 4750 
Q 3844 4750 4481 4106 
Q 5119 3463 5119 2328 
Q 5119 1197 4481 553 
Q 3844 -91 2719 -91 
Q 1597 -91 958 553 
Q 319 1197 319 2328 
Q 319 3463 958 4106 
Q 1597 4750 2719 4750 
z
" transform="scale(0.015625)"/>
        <path id="DejaVuSans-Bold-63" d="M 3366 3391 
L 3366 2478 
Q 3138 2634 2908 2709 
Q 2678 2784 2431 2784 
Q 1963 2784 1702 2511 
Q 1441 2238 1441 1747 
Q 1441 1256 1702 982 
Q 1963 709 2431 709 
Q 2694 709 2930 787 
Q 3166 866 3366 1019 
L 3366 103 
Q 3103 6 2833 -42 
Q 2563 -91 2291 -91 
Q 1344 -91 809 395 
Q 275 881 275 1747 
Q 275 2613 809 3098 
Q 1344 3584 2291 3584 
Q 2566 3584 2833 3536 
Q 3100 3488 3366 3391 
z
" transform="scale(0.015625)"/>
        <path id="DejaVuSans-Bold-74" d="M 1759 4494 
L 1759 3500 
L 2913 3500 
L 2913 2700 
L 1759 2700 
L 1759 1216 
Q 1759 972 1856 886 
Q 1953 800 2241 800 
L 2816 800 
L 2816 0 
L 1856 0 
Q 1194 0 917 276 
Q 641 553 641 1216 
L 641 2700 
L 84 2700 
L 84 3500 
L 641 3500 
L 641 4494 
L 1759 4494 
z
" transform="scale(0.015625)"/>
       </defs>
       <use xlink:href="#DejaVuSans-Bold-4f"/>
       <use xlink:href="#DejaVuSans-Bold-63" x="85.009766"/>
       <use xlink:href="#DejaVuSans-Bold-74" x="144.287109"/>
      </g>
     </g>
    </g>
    <g id="xtick_9">
     <g id="line2d_9">
      <g>
       <use xlink:href="#m976f68c183" x="482.263341" y="541.28" style="fill: #555555; stroke: #555555; stroke-width: 0.8"/>
      </g>
     </g>
     <g id="text_9">
      <!-- Nov -->
      <g style="fill: #555555" transform="translate(467.032873 558.917812)scale(0.14 -0.14)">
       <defs>
        <path id="DejaVuSans-Bold-4e" d="M 588 4666 
L 1931 4666 
L 3628 1466 
L 3628 4666 
L 4769 4666 
L 4769 0 
L 3425 0 
L 1728 3200 
L 1728 0 
L 588 0 
L 588 4666 
z
" transform="scale(0.015625)"/>
        <path id="DejaVuSans-Bold-6f" d="M 2203 2784 
Q 1831 2784 1636 2517 
Q 1441 2250 1441 1747 
Q 1441 1244 1636 976 
Q 1831 709 2203 709 
Q 2569 709 2762 976 
Q 2956 1244 2956 1747 
Q 2956 2250 2762 2517 
Q 2569 2784 2203 2784 
z
M 2203 3584 
Q 3106 3584 3614 3096 
Q 4122 2609 4122 1747 
Q 4122 884 3614 396 
Q 3106 -91 2203 -91 
Q 1297 -91 786 396 
Q 275 884 275 1747 
Q 275 2609 786 3096 
Q 1297 3584 2203 3584 
z
" transform="scale(0.015625)"/>
        <path id="DejaVuSans-Bold-76" d="M 97 3500 
L 1216 3500 
L 2088 1081 
L 2956 3500 
L 4078 3500 
L 2700 0 
L 1472 0 
L 97 3500 
z
" transform="scale(0.015625)"/>
       </defs>
       <use xlink:href="#DejaVuSans-Bold-4e"/>
       <use xlink:href="#DejaVuSans-Bold-6f" x="83.691406"/>
       <use xlink:href="#DejaVuSans-Bold-76" x="152.392578"/>
      </g>
     </g>
    </g>
    <g id="xtick_10">
     <g id="line2d_10">
      <g>
       <use xlink:href="#m976f68c183" x="525.586543" y="541.28" style="fill: #555555; stroke: #555555; stroke-width: 0.8"/>
      </g>
     </g>
     <g id="text_10">
      <!-- Dec -->
      <g style="fill: #555555" transform="translate(510.877793 558.917812)scale(0.14 -0.14)">
       <defs>
        <path id="DejaVuSans-Bold-44" d="M 1791 3756 
L 1791 909 
L 2222 909 
Q 2959 909 3348 1275 
Q 3738 1641 3738 2338 
Q 3738 3031 3350 3393 
Q 2963 3756 2222 3756 
L 1791 3756 
z
M 588 4666 
L 1856 4666 
Q 2919 4666 3439 4514 
Q 3959 4363 4331 4000 
Q 4659 3684 4818 3271 
Q 4978 2859 4978 2338 
Q 4978 1809 4818 1395 
Q 4659 981 4331 666 
Q 3956 303 3431 151 
Q 2906 0 1856 0 
L 588 0 
L 588 4666 
z
" transform="scale(0.015625)"/>
       </defs>
       <use xlink:href="#DejaVuSans-Bold-44"/>
       <use xlink:href="#DejaVuSans-Bold-65" x="83.007812"/>
       <use xlink:href="#DejaVuSans-Bold-63" x="150.830078"/>
      </g>
     </g>
    </g>
    <g id="xtick_11">
     <g id="line2d_11">
      <g>
       <use xlink:href="#m976f68c183" x="570.353852" y="541.28" style="fill: #555555; stroke: #555555; stroke-width: 0.8"/>
      </g>
     </g>
     <g id="text_11">
      <!-- Jan -->
      <g style="fill: #555555" transform="translate(558.042602 558.917812)scale(0.14 -0.14)">
       <use xlink:href="#DejaVuSans-Bold-4a"/>
       <use xlink:href="#DejaVuSans-Bold-61" x="37.207031"/>
       <use xlink:href="#DejaVuSans-Bold-6e" x="104.6875"/>
      </g>
     </g>
    </g>
    <g id="xtick_12">
     <g id="line2d_12">
      <g>
       <use xlink:href="#m976f68c183" x="615.12116" y="541.28" style="fill: #555555; stroke: #555555; stroke-width: 0.8"/>
      </g>
     </g>
     <g id="text_12">
      <!-- Feb -->
      <g style="fill: #555555" transform="translate(600.860848 558.917812)scale(0.14 -0.14)">
       <defs>
        <path id="DejaVuSans-Bold-46" d="M 588 4666 
L 3834 4666 
L 3834 3756 
L 1791 3756 
L 1791 2888 
L 3713 2888 
L 3713 1978 
L 1791 1978 
L 1791 0 
L 588 0 
L 588 4666 
z
" transform="scale(0.015625)"/>
        <path id="DejaVuSans-Bold-62" d="M 2400 722 
Q 2759 722 2948 984 
Q 3138 1247 3138 1747 
Q 3138 2247 2948 2509 
Q 2759 2772 2400 2772 
Q 2041 2772 1848 2508 
Q 1656 2244 1656 1747 
Q 1656 1250 1848 986 
Q 2041 722 2400 722 
z
M 1656 2988 
Q 1888 3294 2169 3439 
Q 2450 3584 2816 3584 
Q 3463 3584 3878 3070 
Q 4294 2556 4294 1747 
Q 4294 938 3878 423 
Q 3463 -91 2816 -91 
Q 2450 -91 2169 54 
Q 1888 200 1656 506 
L 1656 0 
L 538 0 
L 538 4863 
L 1656 4863 
L 1656 2988 
z
" transform="scale(0.015625)"/>
       </defs>
       <use xlink:href="#DejaVuSans-Bold-46"/>
       <use xlink:href="#DejaVuSans-Bold-65" x="64.310547"/>
       <use xlink:href="#DejaVuSans-Bold-62" x="132.132812"/>
      </g>
     </g>
    </g>
    <g id="xtick_13">
     <g id="line2d_13">
      <g>
       <use xlink:href="#m976f68c183" x="655.556148" y="541.28" style="fill: #555555; stroke: #555555; stroke-width: 0.8"/>
      </g>
     </g>
     <g id="text_13">
      <!-- Mar -->
      <g style="fill: #555555" transform="translate(640.414273 558.917812)scale(0.14 -0.14)">
       <use xlink:href="#DejaVuSans-Bold-4d"/>
       <use xlink:href="#DejaVuSans-Bold-61" x="99.511719"/>
       <use xlink:href="#DejaVuSans-Bold-72" x="166.992188"/>
      </g>
     </g>
    </g>
    <g id="xtick_14">
     <g id="line2d_14">
      <g>
       <use xlink:href="#m976f68c183" x="700.323457" y="541.28" style="fill: #555555; stroke: #555555; stroke-width: 0.8"/>
      </g>
     </g>
     <g id="text_14">
      <!-- Apr -->
      <g style="fill: #555555" transform="translate(686.443769 558.917812)scale(0.14 -0.14)">
       <use xlink:href="#DejaVuSans-Bold-41"/>
       <use xlink:href="#DejaVuSans-Bold-70" x="77.392578"/>
       <use xlink:href="#DejaVuSans-Bold-72" x="148.974609"/>
      </g>
     </g>
    </g>
    <g id="xtick_15">
     <g id="line2d_15">
      <g>
       <use xlink:href="#m976f68c183" x="743.646659" y="541.28" style="fill: #555555; stroke: #555555; stroke-width: 0.8"/>
      </g>
     </g>
     <g id="text_15">
      <!-- May -->
      <g style="fill: #555555" transform="translate(727.612284 558.808437)scale(0.14 -0.14)">
       <use xlink:href="#DejaVuSans-Bold-4d"/>
       <use xlink:href="#DejaVuSans-Bold-61" x="99.511719"/>
       <use xlink:href="#DejaVuSans-Bold-79" x="163.867188"/>
      </g>
     </g>
    </g>
    <g id="xtick_16">
     <g id="line2d_16">
      <g>
       <use xlink:href="#m976f68c183" x="788.413967" y="541.28" style="fill: #555555; stroke: #555555; stroke-width: 0.8"/>
      </g>
     </g>
     <g id="text_16">
      <!-- Jun -->
      <g style="fill: #555555" transform="translate(775.843498 558.917812)scale(0.14 -0.14)">
       <use xlink:href="#DejaVuSans-Bold-4a"/>
       <use xlink:href="#DejaVuSans-Bold-75" x="37.207031"/>
       <use xlink:href="#DejaVuSans-Bold-6e" x="108.398438"/>
      </g>
     </g>
    </g>
    <g id="xtick_17">
     <g id="line2d_17">
      <g>
       <use xlink:href="#m976f68c183" x="831.737169" y="541.28" style="fill: #555555; stroke: #555555; stroke-width: 0.8"/>
      </g>
     </g>
     <g id="text_17">
      <!-- Jul -->
      <g style="fill: #555555" transform="translate(821.750138 558.917812)scale(0.14 -0.14)">
       <use xlink:href="#DejaVuSans-Bold-4a"/>
       <use xlink:href="#DejaVuSans-Bold-75" x="37.207031"/>
       <use xlink:href="#DejaVuSans-Bold-6c" x="108.398438"/>
      </g>
     </g>
    </g>
    <g id="xtick_18">
     <g id="line2d_18">
      <g>
       <use xlink:href="#m976f68c183" x="876.504477" y="541.28" style="fill: #555555; stroke: #555555; stroke-width: 0.8"/>
      </g>
     </g>
     <g id="text_18">
      <!-- Aug -->
      <g style="fill: #555555" transform="translate(861.09354 558.808437)scale(0.14 -0.14)">
       <use xlink:href="#DejaVuSans-Bold-41"/>
       <use xlink:href="#DejaVuSans-Bold-75" x="77.392578"/>
       <use xlink:href="#DejaVuSans-Bold-67" x="148.583984"/>
      </g>
     </g>
    </g>
    <g id="xtick_19">
     <g id="line2d_19">
      <g>
       <use xlink:href="#m976f68c183" x="921.271786" y="541.28" style="fill: #555555; stroke: #555555; stroke-width: 0.8"/>
      </g>
     </g>
     <g id="text_19">
      <!-- Sep -->
      <g style="fill: #555555" transform="translate(906.472255 558.917812)scale(0.14 -0.14)">
       <use xlink:href="#DejaVuSans-Bold-53"/>
       <use xlink:href="#DejaVuSans-Bold-65" x="72.021484"/>
       <use xlink:href="#DejaVuSans-Bold-70" x="139.84375"/>
      </g>
     </g>
    </g>
    <g id="xtick_20">
     <g id="line2d_20">
      <g>
       <use xlink:href="#m976f68c183" x="964.594988" y="541.28" style="fill: #555555; stroke: #555555; stroke-width: 0.8"/>
      </g>
     </g>
     <g id="text_20">
      <!-- Oct -->
      <g style="fill: #555555" transform="translate(951.148425 558.917812)scale(0.14 -0.14)">
       <use xlink:href="#DejaVuSans-Bold-4f"/>
       <use xlink:href="#DejaVuSans-Bold-63" x="85.009766"/>
       <use xlink:href="#DejaVuSans-Bold-74" x="144.287109"/>
      </g>
     </g>
    </g>
    <g id="xtick_21">
     <g id="line2d_21">
      <g>
       <use xlink:href="#m976f68c183" x="1009.362296" y="541.28" style="fill: #555555; stroke: #555555; stroke-width: 0.8"/>
      </g>
     </g>
     <g id="text_21">
      <!-- Nov -->
      <g style="fill: #555555" transform="translate(994.131827 558.917812)scale(0.14 -0.14)">
       <use xlink:href="#DejaVuSans-Bold-4e"/>
       <use xlink:href="#DejaVuSans-Bold-6f" x="83.691406"/>
       <use xlink:href="#DejaVuSans-Bold-76" x="152.392578"/>
      </g>
     </g>
    </g>
    <g id="xtick_22">
     <g id="line2d_22">
      <g>
       <use xlink:href="#m976f68c183" x="1052.685498" y="541.28" style="fill: #555555; stroke: #555555; stroke-width: 0.8"/>
      </g>
     </g>
     <g id="text_22">
      <!-- Dec -->
      <g style="fill: #555555" transform="translate(1037.976748 558.917812)scale(0.14 -0.14)">
       <use xlink:href="#DejaVuSans-Bold-44"/>
       <use xlink:href="#DejaVuSans-Bold-65" x="83.007812"/>
       <use xlink:href="#DejaVuSans-Bold-63" x="150.830078"/>
      </g>
     </g>
    </g>
    <g id="xtick_23">
     <g id="line2d_23">
      <g>
       <use xlink:href="#m976f68c183" x="1097.452806" y="541.28" style="fill: #555555; stroke: #555555; stroke-width: 0.8"/>
      </g>
     </g>
     <g id="text_23">
      <!-- Jan -->
      <g style="fill: #555555" transform="translate(1085.141556 558.917812)scale(0.14 -0.14)">
       <use xlink:href="#DejaVuSans-Bold-4a"/>
       <use xlink:href="#DejaVuSans-Bold-61" x="37.207031"/>
       <use xlink:href="#DejaVuSans-Bold-6e" x="104.6875"/>
      </g>
     </g>
    </g>
   </g>
   <g id="matplotlib.axis_2">
    <g id="ytick_1">
     <g id="line2d_24">
      <defs>
       <path id="ma14050e631" d="M 0 0 
L -3.5 0 
" style="stroke: #555555; stroke-width: 0.8"/>
      </defs>
      <g>
       <use xlink:href="#ma14050e631" x="87.95" y="518.990277" style="fill: #555555; stroke: #555555; stroke-width: 0.8"/>
      </g>
     </g>
     <g id="text_24">
      <!-- 0 -->
      <g style="fill: #555555" transform="translate(71.209063 524.309183)scale(0.14 -0.14)">
       <defs>
        <path id="DejaVuSans-Bold-30" d="M 2944 2338 
Q 2944 3213 2780 3570 
Q 2616 3928 2228 3928 
Q 1841 3928 1675 3570 
Q 1509 3213 1509 2338 
Q 1509 1453 1675 1090 
Q 1841 728 2228 728 
Q 2613 728 2778 1090 
Q 2944 1453 2944 2338 
z
M 4147 2328 
Q 4147 1169 3647 539 
Q 3147 -91 2228 -91 
Q 1306 -91 806 539 
Q 306 1169 306 2328 
Q 306 3491 806 4120 
Q 1306 4750 2228 4750 
Q 3147 4750 3647 4120 
Q 4147 3491 4147 2328 
z
" transform="scale(0.015625)"/>
       </defs>
       <use xlink:href="#DejaVuSans-Bold-30"/>
      </g>
     </g>
    </g>
    <g id="ytick_2">
     <g id="line2d_25">
      <g>
       <use xlink:href="#ma14050e631" x="87.95" y="422.318017" style="fill: #555555; stroke: #555555; stroke-width: 0.8"/>
      </g>
     </g>
     <g id="text_25">
      <!-- 5000 -->
      <g style="fill: #555555" transform="translate(41.98625 427.636924)scale(0.14 -0.14)">
       <defs>
        <path id="DejaVuSans-Bold-35" d="M 678 4666 
L 3669 4666 
L 3669 3781 
L 1638 3781 
L 1638 3059 
Q 1775 3097 1914 3117 
Q 2053 3138 2203 3138 
Q 3056 3138 3531 2711 
Q 4006 2284 4006 1522 
Q 4006 766 3489 337 
Q 2972 -91 2053 -91 
Q 1656 -91 1267 -14 
Q 878 63 494 219 
L 494 1166 
Q 875 947 1217 837 
Q 1559 728 1863 728 
Q 2300 728 2551 942 
Q 2803 1156 2803 1522 
Q 2803 1891 2551 2103 
Q 2300 2316 1863 2316 
Q 1603 2316 1309 2248 
Q 1016 2181 678 2041 
L 678 4666 
z
" transform="scale(0.015625)"/>
       </defs>
       <use xlink:href="#DejaVuSans-Bold-35"/>
       <use xlink:href="#DejaVuSans-Bold-30" x="69.580078"/>
       <use xlink:href="#DejaVuSans-Bold-30" x="139.160156"/>
       <use xlink:href="#DejaVuSans-Bold-30" x="208.740234"/>
      </g>
     </g>
    </g>
    <g id="ytick_3">
     <g id="line2d_26">
      <g>
       <use xlink:href="#ma14050e631" x="87.95" y="325.645758" style="fill: #555555; stroke: #555555; stroke-width: 0.8"/>
      </g>
     </g>
     <g id="text_26">
      <!-- 10000 -->
      <g style="fill: #555555" transform="translate(32.245313 330.964664)scale(0.14 -0.14)">
       <defs>
        <path id="DejaVuSans-Bold-31" d="M 750 831 
L 1813 831 
L 1813 3847 
L 722 3622 
L 722 4441 
L 1806 4666 
L 2950 4666 
L 2950 831 
L 4013 831 
L 4013 0 
L 750 0 
L 750 831 
z
" transform="scale(0.015625)"/>
       </defs>
       <use xlink:href="#DejaVuSans-Bold-31"/>
       <use xlink:href="#DejaVuSans-Bold-30" x="69.580078"/>
       <use xlink:href="#DejaVuSans-Bold-30" x="139.160156"/>
       <use xlink:href="#DejaVuSans-Bold-30" x="208.740234"/>
       <use xlink:href="#DejaVuSans-Bold-30" x="278.320312"/>
      </g>
     </g>
    </g>
    <g id="ytick_4">
     <g id="line2d_27">
      <g>
       <use xlink:href="#ma14050e631" x="87.95" y="228.973498" style="fill: #555555; stroke: #555555; stroke-width: 0.8"/>
      </g>
     </g>
     <g id="text_27">
      <!-- 15000 -->
      <g style="fill: #555555" transform="translate(32.245313 234.292405)scale(0.14 -0.14)">
       <use xlink:href="#DejaVuSans-Bold-31"/>
       <use xlink:href="#DejaVuSans-Bold-35" x="69.580078"/>
       <use xlink:href="#DejaVuSans-Bold-30" x="139.160156"/>
       <use xlink:href="#DejaVuSans-Bold-30" x="208.740234"/>
       <use xlink:href="#DejaVuSans-Bold-30" x="278.320312"/>
      </g>
     </g>
    </g>
    <g id="ytick_5">
     <g id="line2d_28">
      <g>
       <use xlink:href="#ma14050e631" x="87.95" y="132.301239" style="fill: #555555; stroke: #555555; stroke-width: 0.8"/>
      </g>
     </g>
     <g id="text_28">
      <!-- 20000 -->
      <g style="fill: #555555" transform="translate(32.245313 137.620145)scale(0.14 -0.14)">
       <defs>
        <path id="DejaVuSans-Bold-32" d="M 1844 884 
L 3897 884 
L 3897 0 
L 506 0 
L 506 884 
L 2209 2388 
Q 2438 2594 2547 2791 
Q 2656 2988 2656 3200 
Q 2656 3528 2436 3728 
Q 2216 3928 1850 3928 
Q 1569 3928 1234 3808 
Q 900 3688 519 3450 
L 519 4475 
Q 925 4609 1322 4679 
Q 1719 4750 2100 4750 
Q 2938 4750 3402 4381 
Q 3866 4013 3866 3353 
Q 3866 2972 3669 2642 
Q 3472 2313 2841 1759 
L 1844 884 
z
" transform="scale(0.015625)"/>
       </defs>
       <use xlink:href="#DejaVuSans-Bold-32"/>
       <use xlink:href="#DejaVuSans-Bold-30" x="69.580078"/>
       <use xlink:href="#DejaVuSans-Bold-30" x="139.160156"/>
       <use xlink:href="#DejaVuSans-Bold-30" x="208.740234"/>
       <use xlink:href="#DejaVuSans-Bold-30" x="278.320312"/>
      </g>
     </g>
    </g>
    <g id="text_29">
     <!-- New Cases -->
     <g style="fill: #555555" transform="translate(24.917813 333.23875)rotate(-90)scale(0.16 -0.16)">
      <defs>
       <path id="DejaVuSans-4e" d="M 628 4666 
L 1478 4666 
L 3547 763 
L 3547 4666 
L 4159 4666 
L 4159 0 
L 3309 0 
L 1241 3903 
L 1241 0 
L 628 0 
L 628 4666 
z
" transform="scale(0.015625)"/>
       <path id="DejaVuSans-65" d="M 3597 1894 
L 3597 1613 
L 953 1613 
Q 991 1019 1311 708 
Q 1631 397 2203 397 
Q 2534 397 2845 478 
Q 3156 559 3463 722 
L 3463 178 
Q 3153 47 2828 -22 
Q 2503 -91 2169 -91 
Q 1331 -91 842 396 
Q 353 884 353 1716 
Q 353 2575 817 3079 
Q 1281 3584 2069 3584 
Q 2775 3584 3186 3129 
Q 3597 2675 3597 1894 
z
M 3022 2063 
Q 3016 2534 2758 2815 
Q 2500 3097 2075 3097 
Q 1594 3097 1305 2825 
Q 1016 2553 972 2059 
L 3022 2063 
z
" transform="scale(0.015625)"/>
       <path id="DejaVuSans-77" d="M 269 3500 
L 844 3500 
L 1563 769 
L 2278 3500 
L 2956 3500 
L 3675 769 
L 4391 3500 
L 4966 3500 
L 4050 0 
L 3372 0 
L 2619 2869 
L 1863 0 
L 1184 0 
L 269 3500 
z
" transform="scale(0.015625)"/>
       <path id="DejaVuSans-20" transform="scale(0.015625)"/>
       <path id="DejaVuSans-43" d="M 4122 4306 
L 4122 3641 
Q 3803 3938 3442 4084 
Q 3081 4231 2675 4231 
Q 1875 4231 1450 3742 
Q 1025 3253 1025 2328 
Q 1025 1406 1450 917 
Q 1875 428 2675 428 
Q 3081 428 3442 575 
Q 3803 722 4122 1019 
L 4122 359 
Q 3791 134 3420 21 
Q 3050 -91 2638 -91 
Q 1578 -91 968 557 
Q 359 1206 359 2328 
Q 359 3453 968 4101 
Q 1578 4750 2638 4750 
Q 3056 4750 3426 4639 
Q 3797 4528 4122 4306 
z
" transform="scale(0.015625)"/>
       <path id="DejaVuSans-61" d="M 2194 1759 
Q 1497 1759 1228 1600 
Q 959 1441 959 1056 
Q 959 750 1161 570 
Q 1363 391 1709 391 
Q 2188 391 2477 730 
Q 2766 1069 2766 1631 
L 2766 1759 
L 2194 1759 
z
M 3341 1997 
L 3341 0 
L 2766 0 
L 2766 531 
Q 2569 213 2275 61 
Q 1981 -91 1556 -91 
Q 1019 -91 701 211 
Q 384 513 384 1019 
Q 384 1609 779 1909 
Q 1175 2209 1959 2209 
L 2766 2209 
L 2766 2266 
Q 2766 2663 2505 2880 
Q 2244 3097 1772 3097 
Q 1472 3097 1187 3025 
Q 903 2953 641 2809 
L 641 3341 
Q 956 3463 1253 3523 
Q 1550 3584 1831 3584 
Q 2591 3584 2966 3190 
Q 3341 2797 3341 1997 
z
" transform="scale(0.015625)"/>
       <path id="DejaVuSans-73" d="M 2834 3397 
L 2834 2853 
Q 2591 2978 2328 3040 
Q 2066 3103 1784 3103 
Q 1356 3103 1142 2972 
Q 928 2841 928 2578 
Q 928 2378 1081 2264 
Q 1234 2150 1697 2047 
L 1894 2003 
Q 2506 1872 2764 1633 
Q 3022 1394 3022 966 
Q 3022 478 2636 193 
Q 2250 -91 1575 -91 
Q 1294 -91 989 -36 
Q 684 19 347 128 
L 347 722 
Q 666 556 975 473 
Q 1284 391 1588 391 
Q 1994 391 2212 530 
Q 2431 669 2431 922 
Q 2431 1156 2273 1281 
Q 2116 1406 1581 1522 
L 1381 1569 
Q 847 1681 609 1914 
Q 372 2147 372 2553 
Q 372 3047 722 3315 
Q 1072 3584 1716 3584 
Q 2034 3584 2315 3537 
Q 2597 3491 2834 3397 
z
" transform="scale(0.015625)"/>
      </defs>
      <use xlink:href="#DejaVuSans-4e"/>
      <use xlink:href="#DejaVuSans-65" x="74.804688"/>
      <use xlink:href="#DejaVuSans-77" x="136.328125"/>
      <use xlink:href="#DejaVuSans-20" x="218.115234"/>
      <use xlink:href="#DejaVuSans-43" x="249.902344"/>
      <use xlink:href="#DejaVuSans-61" x="319.726562"/>
      <use xlink:href="#DejaVuSans-73" x="381.005859"/>
      <use xlink:href="#DejaVuSans-65" x="433.105469"/>
      <use xlink:href="#DejaVuSans-73" x="494.628906"/>
     </g>
    </g>
   </g>
   <g id="line2d_29">
    <path d="M 135.677727 518.216899 
L 137.121834 518.023555 
L 138.565941 518.371575 
L 140.010047 517.810876 
L 141.454154 516.476798 
L 142.898261 516.61214 
L 144.342368 516.534802 
L 145.786474 516.805484 
L 147.230581 514.756032 
L 148.674688 515.645417 
L 150.118795 513.769975 
L 151.562901 513.421955 
L 153.007008 512.281222 
L 154.451115 511.333834 
L 155.895221 508.685014 
L 157.339328 506.674231 
L 158.783435 507.292934 
L 160.227542 508.298325 
L 161.671648 504.508773 
L 163.115755 502.691334 
L 166.003969 496.426972 
L 167.448075 496.832995 
L 168.892182 497.877056 
L 170.336289 502.111301 
L 171.780395 502.865344 
L 173.224502 499.50115 
L 174.668609 498.051066 
L 176.112716 499.269136 
L 177.556822 499.617156 
L 179.000929 497.741714 
L 181.889142 503.870736 
L 183.333249 500.448538 
L 184.777356 495.634259 
L 186.221463 493.333459 
L 187.665569 493.836155 
L 189.109676 496.349634 
L 190.553783 500.448538 
L 191.99789 502.32398 
L 193.441996 504.876127 
L 194.886103 498.321748 
L 196.33021 495.131563 
L 197.774316 496.059617 
L 199.218423 499.211133 
L 200.66253 504.528107 
L 202.106637 505.14681 
L 203.550743 505.301485 
L 204.99485 502.091966 
L 206.438957 503.426043 
L 207.883064 506.480887 
L 209.32717 506.403549 
L 210.771277 511.159824 
L 212.215384 515.258728 
L 213.65949 511.48851 
L 215.103597 509.18771 
L 216.547704 509.748409 
L 217.991811 510.541122 
L 219.435917 512.455232 
L 220.880024 515.104052 
L 222.324131 512.822587 
L 223.768238 512.822587 
L 225.212344 512.01054 
L 226.656451 512.822587 
L 228.100558 513.421955 
L 229.544664 514.31134 
L 230.988771 515.52941 
L 232.432878 515.220059 
L 233.876985 514.678694 
L 235.321091 513.692637 
L 236.765198 515.084718 
L 238.209305 515.239393 
L 239.653411 516.573471 
L 241.097518 516.128778 
L 242.541625 516.844153 
L 243.985732 515.374735 
L 245.429838 514.079326 
L 246.873945 515.432738 
L 249.762159 515.645417 
L 251.206265 514.872039 
L 252.650372 516.496133 
L 254.094479 515.239393 
L 255.538585 515.548745 
L 256.982692 515.548745 
L 258.426799 516.264119 
L 259.870906 515.587414 
L 261.315012 516.979494 
L 262.759119 517.153504 
L 264.203226 517.192173 
L 265.647333 515.3554 
L 267.091439 514.794701 
L 268.535546 515.316731 
L 269.979653 514.369343 
L 271.423759 515.780758 
L 272.867866 515.819427 
L 274.311973 515.490741 
L 275.75608 515.858096 
L 277.200186 514.988046 
L 278.644293 515.490741 
L 280.0884 516.206116 
L 281.532507 515.916099 
L 284.42072 516.805484 
L 285.864827 516.592805 
L 288.75304 517.250176 
L 290.197147 517.153504 
L 291.641254 517.675534 
L 293.08536 517.636865 
L 294.529467 517.443521 
L 295.973574 516.863487 
L 298.861787 517.501524 
L 300.305894 517.714203 
L 301.750001 517.520859 
L 303.194107 517.888213 
L 304.638214 517.791541 
L 306.082321 517.540193 
L 307.526428 517.520859 
L 308.970534 517.733538 
L 310.414641 517.598197 
L 311.858748 518.197565 
L 313.302854 518.332906 
L 314.746961 517.888213 
L 317.635175 517.733538 
L 319.079281 517.366183 
L 320.523388 517.153504 
L 321.967495 517.598197 
L 323.411602 517.095501 
L 326.299815 516.689477 
L 327.743922 516.882822 
L 329.188028 516.186782 
L 330.632135 516.186782 
L 332.076242 515.452072 
L 333.520349 515.722755 
L 334.964455 515.70342 
L 337.852669 515.993437 
L 340.740882 514.872039 
L 342.184989 514.949377 
L 343.629096 514.65936 
L 345.073202 514.195333 
L 346.517309 512.397229 
L 347.961416 512.397229 
L 349.405523 510.657128 
L 350.849629 512.049209 
L 352.293736 511.797861 
L 353.737843 509.574399 
L 355.18195 510.715132 
L 356.626056 507.292934 
L 358.070163 508.994365 
L 359.51427 509.632402 
L 360.958376 507.834298 
L 362.402483 503.774063 
L 363.84659 507.002917 
L 365.290697 506.403549 
L 366.734803 507.853633 
L 368.17891 506.867576 
L 369.623017 506.306877 
L 371.067124 509.342386 
L 372.51123 509.593733 
L 373.955337 509.458392 
L 375.399444 508.298325 
L 376.84355 508.723683 
L 378.287657 508.685014 
L 379.731764 509.18771 
L 381.175871 510.193101 
L 382.619977 507.911636 
L 384.064084 510.947145 
L 385.508191 507.930971 
L 386.952297 509.168376 
L 388.396404 509.303717 
L 391.284618 509.207044 
L 392.728724 508.820355 
L 394.172831 509.961088 
L 395.616938 505.069472 
L 397.061045 507.40894 
L 398.505151 504.624779 
L 399.949258 506.442218 
L 401.393365 501.202581 
L 402.837471 503.619388 
L 405.725685 496.949002 
L 407.169792 502.807341 
L 408.613898 494.416189 
L 410.058005 495.363577 
L 411.502112 497.973728 
L 412.946219 493.913493 
L 414.390325 492.386071 
L 415.834432 489.273224 
L 418.722645 481.191424 
L 420.166752 482.409494 
L 421.610859 483.337548 
L 423.054966 476.241804 
L 424.499072 475.739108 
L 425.943179 473.863666 
L 427.387286 469.958107 
L 428.831393 465.549852 
L 430.275499 466.787257 
L 431.719606 461.450948 
L 433.163713 462.881698 
L 434.607819 460.909584 
L 436.051926 455.457268 
L 437.496033 456.095305 
L 438.94014 445.442022 
L 440.384246 442.909209 
L 441.828353 441.981155 
L 443.27246 430.921849 
L 444.716566 431.617889 
L 446.160673 422.859382 
L 447.60478 407.159807 
L 449.048887 403.756944 
L 450.492993 393.741698 
L 451.9371 396.371183 
L 453.381207 387.458001 
L 454.825314 377.230076 
L 456.26942 378.796166 
L 457.713527 368.626244 
L 459.157634 365.281384 
L 460.60174 362.284544 
L 462.045847 361.453163 
L 463.489954 364.585344 
L 464.934061 361.530501 
L 467.822274 340.127262 
L 469.266381 326.187123 
L 470.710488 351.901944 
L 472.154594 322.39757 
L 473.598701 319.787419 
L 475.042808 320.502794 
L 476.486914 362.825909 
L 477.931021 320.908817 
L 479.375128 305.035232 
L 480.819235 330.073347 
L 482.263341 351.186569 
L 483.707448 359.210366 
L 485.151555 369.380288 
L 486.595662 372.048442 
L 488.039768 384.693174 
L 489.483875 379.279528 
L 490.927982 391.073543 
L 493.816195 428.717721 
L 495.260302 429.201082 
L 496.704409 414.912922 
L 498.148515 410.349992 
L 499.592622 401.688157 
L 501.036729 404.975014 
L 502.480836 414.236217 
L 505.369049 436.238823 
L 506.813156 430.380484 
L 508.257262 409.054583 
L 509.701369 404.317643 
L 511.145476 402.906228 
L 512.589583 415.396284 
L 514.033689 418.818482 
L 515.477796 442.677195 
L 516.921903 424.058118 
L 518.366009 432.603946 
L 519.810116 407.797844 
L 521.254223 432.661949 
L 522.69833 411.394052 
L 524.142436 430.593163 
L 525.586543 440.91776 
L 527.03065 424.096787 
L 528.474757 410.833353 
L 529.918863 405.091021 
L 531.36297 392.75564 
L 532.807077 388.270048 
L 534.251183 381.831675 
L 535.69529 400.682766 
L 537.139397 392.465624 
L 538.583504 350.606535 
L 540.02761 348.131725 
L 541.471717 342.621407 
L 542.915824 328.023895 
L 544.359931 355.401479 
L 545.804037 390.802861 
L 547.248144 303.101787 
L 548.692251 271.93465 
L 550.136357 287.82757 
L 551.580464 282.645937 
L 553.024571 267.700405 
L 554.468678 303.295131 
L 555.912784 329.08729 
L 557.356891 318.085987 
L 558.800998 296.760087 
L 560.245105 296.740752 
L 561.689211 329.222631 
L 563.133318 344.883538 
L 564.577425 375.954002 
L 566.021531 373.633868 
L 567.465638 336.299041 
L 568.909745 332.142134 
L 570.353852 361.047139 
L 571.797958 352.92667 
L 573.242065 375.992671 
L 574.686172 390.764192 
L 576.130279 395.849153 
L 577.574385 381.928347 
L 579.018492 331.871451 
L 580.462599 362.149203 
L 583.350812 391.344226 
L 584.794919 413.656183 
L 586.239026 423.439416 
L 587.683132 401.22413 
L 589.127239 393.335674 
L 590.571346 402.500204 
L 592.015452 416.614354 
L 593.459559 411.065366 
L 594.903666 426.494259 
L 596.347773 435.948806 
L 597.791879 411.316714 
L 599.235986 406.753784 
L 600.680093 407.913851 
L 602.1242 413.694852 
L 603.568306 424.618817 
L 605.012413 439.931703 
L 606.45652 442.445182 
L 607.900626 427.634992 
L 609.344733 428.292363 
L 610.78884 433.976692 
L 612.232947 438.326944 
L 613.677053 447.897497 
L 615.12116 456.385322 
L 616.565267 450.391642 
L 618.009374 441.304449 
L 619.45348 437.804913 
L 620.897587 435.523448 
L 622.341694 439.951038 
L 623.7858 443.237894 
L 625.229907 475.352419 
L 626.674014 484.980976 
L 628.118121 457.642061 
L 629.562227 433.396658 
L 631.006334 435.330104 
L 632.450441 438.326944 
L 633.894548 452.769779 
L 635.338654 464.041765 
L 636.782761 466.980601 
L 638.226868 453.871843 
L 639.670974 430.863845 
L 641.115081 428.58238 
L 642.559188 431.2312 
L 644.003295 428.717721 
L 645.447401 438.191603 
L 646.891508 445.34535 
L 648.335615 434.537391 
L 649.779721 422.608034 
L 651.223828 420.597251 
L 652.667935 423.826105 
L 654.112042 429.394427 
L 655.556148 446.505417 
L 657.000255 442.329175 
L 658.444362 421.873325 
L 659.888469 439.8737 
L 661.332575 428.853062 
L 662.776682 416.285668 
L 664.220789 431.830568 
L 665.664895 443.895266 
L 667.109002 436.122816 
L 668.553109 417.310394 
L 669.997216 416.575685 
L 671.441322 403.466927 
L 672.885429 395.733146 
L 675.773643 412.612123 
L 677.217749 423.439416 
L 678.661856 404.762335 
L 680.105963 400.450752 
L 681.550069 376.920724 
L 682.994176 372.009774 
L 685.88239 397.18323 
L 687.326496 410.562671 
L 688.770603 372.899158 
L 690.21471 370.347011 
L 691.658817 372.860489 
L 693.102923 349.19512 
L 694.54703 374.561921 
L 695.991137 387.883359 
L 697.435243 405.787061 
L 698.87935 371.487743 
L 700.323457 367.814198 
L 701.767564 379.511541 
L 703.21167 372.106446 
L 704.655777 386.317268 
L 706.099884 415.860311 
L 707.543991 411.510059 
L 708.988097 395.868487 
L 710.432204 368.935596 
L 711.876311 370.888375 
L 713.320417 370.90771 
L 714.764524 361.56917 
L 716.208631 390.261496 
L 717.652738 389.024091 
L 719.096844 413.810859 
L 720.540951 350.896552 
L 721.985058 347.107 
L 723.429164 359.423045 
L 724.873271 354.222078 
L 726.317378 380.59427 
L 727.761485 387.109981 
L 729.205591 355.1888 
L 730.649698 333.785562 
L 732.093805 340.436614 
L 733.537912 363.115926 
L 734.982018 363.927973 
L 736.426125 398.613979 
L 737.870232 416.42101 
L 739.314338 351.727934 
L 740.758445 378.177464 
L 742.202552 368.877592 
L 743.646659 407.179142 
L 745.090765 413.404835 
L 746.534872 341.384002 
L 747.978979 368.993599 
L 750.867192 388.424723 
L 752.311299 374.7746 
L 753.755406 375.451306 
L 756.643619 405.671054 
L 758.087726 412.16743 
L 759.531833 396.390517 
L 760.975939 402.751552 
L 762.420046 411.81941 
L 763.864153 432.526608 
L 765.30826 433.454662 
L 766.752366 463.732414 
L 768.196473 416.034321 
L 769.64058 431.05719 
L 771.084686 429.742447 
L 772.528793 438.984315 
L 773.9729 457.642061 
L 775.417007 452.808448 
L 776.861113 466.245892 
L 778.30522 470.963499 
L 779.749327 466.052548 
L 781.193434 453.736502 
L 782.63754 444.765316 
L 784.081647 454.316535 
L 785.525754 468.295344 
L 786.96986 479.934684 
L 788.413967 471.040836 
L 789.858074 469.513415 
L 791.302181 465.607855 
L 792.746287 472.684265 
L 794.190394 478.039908 
L 795.634501 488.673856 
L 797.078607 490.607302 
L 798.522714 491.226004 
L 799.966821 485.135652 
L 801.410928 488.499846 
L 802.855034 492.173392 
L 804.299141 495.034891 
L 805.743248 498.863113 
L 807.187355 501.995294 
L 808.631461 498.882447 
L 810.075568 499.191798 
L 811.519675 498.515093 
L 812.963781 501.782615 
L 814.407888 505.610836 
L 815.851995 505.262816 
L 817.296102 507.988974 
L 818.740208 505.49483 
L 820.184315 506.132867 
L 821.628422 505.533499 
L 823.072529 506.500221 
L 824.516635 508.259656 
L 825.960742 509.303717 
L 827.404849 508.027643 
L 828.848955 508.781686 
L 830.293062 506.693566 
L 831.737169 503.097358 
L 833.181276 500.815892 
L 834.625382 497.335691 
L 836.069489 495.788935 
L 837.513596 489.756586 
L 838.957703 476.609158 
L 840.401809 449.366916 
L 841.845916 414.719578 
L 843.290023 385.930579 
L 844.734129 321.314841 
L 847.622343 355.981513 
L 849.06645 368.142883 
L 850.510556 317.815305 
L 851.954663 306.736664 
L 853.39877 301.323017 
L 854.842876 305.344583 
L 856.286983 322.107553 
L 857.73109 347.416351 
L 859.175197 387.980031 
L 860.619303 386.41394 
L 862.06341 398.478638 
L 863.507517 395.829818 
L 864.951624 417.310394 
L 866.39573 429.916457 
L 867.839837 444.861988 
L 869.283944 442.00049 
L 870.72805 452.402425 
L 872.172157 432.913297 
L 873.616264 452.634438 
L 875.060371 462.10832 
L 876.504477 474.26969 
L 877.948584 478.407263 
L 879.392691 476.280473 
L 882.280904 454.587218 
L 883.725011 462.901032 
L 885.169118 472.66493 
L 886.613224 474.385697 
L 888.057331 479.605999 
L 889.501438 477.189192 
L 890.945545 478.020573 
L 892.389651 469.378073 
L 893.833758 467.483297 
L 895.277865 474.4437 
L 896.721972 475.275081 
L 898.166078 475.758443 
L 899.610185 474.4437 
L 901.054292 465.143828 
L 902.498398 470.963499 
L 903.942505 476.299807 
L 905.386612 471.814214 
L 906.830719 471.408191 
L 908.274825 472.935613 
L 909.718932 471.427525 
L 911.163039 464.54446 
L 912.607146 468.469354 
L 914.051252 464.892481 
L 915.495359 471.62087 
L 918.383572 477.015182 
L 919.827679 475.023733 
L 921.271786 465.085825 
L 922.715893 465.066491 
L 924.159999 470.074114 
L 925.604106 465.859203 
L 927.048213 473.399639 
L 928.492319 478.117246 
L 929.936426 471.195512 
L 931.380533 464.969818 
L 932.82464 473.418974 
L 934.268746 467.251284 
L 935.712853 476.299807 
L 937.15696 478.4846 
L 938.601067 485.116317 
L 940.045173 480.302039 
L 941.48928 473.070954 
L 942.933387 478.581273 
L 944.377493 477.885232 
L 945.8216 480.050691 
L 947.265707 486.817749 
L 948.709814 492.830764 
L 950.15392 486.837084 
L 951.598027 482.370825 
L 953.042134 483.994919 
L 954.486241 486.25705 
L 955.930347 488.055154 
L 957.374454 488.074488 
L 958.818561 492.192727 
L 960.262667 485.793023 
L 961.706774 485.135652 
L 963.150881 486.102374 
L 964.594988 485.793023 
L 966.039094 486.721077 
L 967.483201 488.016485 
L 968.927308 487.86181 
L 970.371415 482.274153 
L 971.815521 482.177481 
L 973.259628 466.14922 
L 974.703735 465.45318 
L 976.147841 470.982833 
L 977.591948 466.110551 
L 979.036055 475.507095 
L 980.480162 463.249052 
L 981.924268 447.104785 
L 983.368375 448.709544 
L 984.812482 447.530143 
L 986.256589 447.626815 
L 987.700695 448.245518 
L 989.144802 454.239198 
L 990.588909 443.315232 
L 992.033015 430.399818 
L 993.477122 418.895819 
L 994.921229 406.115747 
L 996.365336 409.3446 
L 997.809442 397.125227 
L 999.253549 416.556351 
L 1000.697656 407.739841 
L 1002.141762 378.583487 
L 1003.585869 370.772369 
L 1005.029976 376.147346 
L 1006.474083 365.455394 
L 1007.918189 361.375825 
L 1009.362296 370.308342 
L 1010.806403 370.250338 
L 1012.25051 342.15738 
L 1013.694616 321.70153 
L 1015.138723 308.747447 
L 1016.58283 287.537553 
L 1018.026936 299.737592 
L 1019.471043 291.675126 
L 1020.91515 300.762318 
L 1022.359257 274.486798 
L 1023.803363 204.670092 
L 1025.24747 205.694818 
L 1026.691577 251.362794 
L 1028.135684 287.266871 
L 1029.57979 147.672128 
L 1031.023897 128.995047 
L 1032.468004 118.283761 
L 1033.91211 63.045232 
L 1035.356217 113.295472 
L 1036.800324 98.272603 
L 1038.244431 119.965858 
L 1039.688537 74.491227 
L 1041.132644 75.167933 
L 1042.576751 60.609091 
L 1044.020858 90.055461 
L 1045.464964 107.765819 
L 1046.909071 93.729007 
L 1048.353178 92.201585 
L 1049.797284 104.053604 
L 1051.241391 92.336927 
L 1052.685498 161.206244 
L 1054.129605 73.408498 
L 1055.573711 103.299561 
L 1057.017818 81.644975 
L 1058.461925 72.925137 
L 1059.906031 113.256803 
L 1061.350138 171.898196 
L 1062.794245 169.713403 
L 1064.238352 137.115517 
L 1065.682458 181.004723 
L 1067.126565 175.707083 
L 1068.570672 197.787027 
L 1070.014779 252.252178 
L 1071.458885 271.451289 
L 1072.902992 257.975176 
L 1074.347099 202.349958 
L 1075.791205 221.974427 
L 1077.235312 235.353867 
L 1078.679419 262.557441 
L 1080.123526 284.076686 
L 1081.567632 337.188426 
L 1083.011739 259.618605 
L 1084.455846 261.068688 
L 1085.899953 277.58031 
L 1087.344059 275.608196 
L 1088.788166 288.156256 
L 1090.232273 296.740752 
L 1090.232273 296.740752 
" clip-path="url(#pfbb8a6ee1b)" style="fill: none; stroke-dasharray: 1.5,2.475; stroke-dashoffset: 0; stroke: #000000; stroke-opacity: 0.5; stroke-width: 1.5"/>
   </g>
   <g id="line2d_30">
    <path d="M 135.677727 518.390909 
L 140.010047 517.48219 
L 142.898261 516.747481 
L 145.786474 515.954768 
L 147.230581 515.452072 
L 148.674688 514.814035 
L 150.118795 514.040657 
L 151.562901 513.0546 
L 160.227542 505.84285 
L 161.671648 504.180087 
L 164.559862 500.332531 
L 166.003969 499.075792 
L 167.448075 498.824444 
L 168.892182 499.172464 
L 170.336289 499.733163 
L 171.780395 500.119852 
L 173.224502 500.081183 
L 176.112716 499.288471 
L 177.556822 499.423812 
L 179.000929 499.887839 
L 180.445036 500.119852 
L 181.889142 499.694494 
L 183.333249 498.631099 
L 184.777356 497.355025 
L 186.221463 496.426972 
L 187.665569 496.388303 
L 189.109676 497.587039 
L 190.553783 499.095126 
L 191.99789 500.042514 
L 193.441996 500.061849 
L 194.886103 499.404477 
L 196.33021 498.901782 
L 197.774316 499.153129 
L 199.218423 500.235859 
L 200.66253 501.801949 
L 202.106637 503.116692 
L 203.550743 503.967408 
L 204.99485 504.4121 
L 206.438957 505.050137 
L 207.883064 506.461552 
L 210.771277 509.787078 
L 212.215384 510.792469 
L 213.65949 511.082486 
L 216.547704 511.14049 
L 217.991811 511.411172 
L 220.880024 512.667911 
L 222.324131 512.938594 
L 225.212344 512.996597 
L 226.656451 513.170607 
L 230.988771 514.524019 
L 232.432878 514.717363 
L 235.321091 514.872039 
L 236.765198 515.065383 
L 239.653411 515.780758 
L 241.097518 515.916099 
L 242.541625 515.819427 
L 246.873945 515.278062 
L 249.762159 515.432738 
L 252.650372 515.587414 
L 255.538585 515.664751 
L 258.426799 515.993437 
L 259.870906 516.283454 
L 261.315012 516.457464 
L 262.759119 516.457464 
L 264.203226 516.244785 
L 267.091439 515.490741 
L 268.535546 515.278062 
L 269.979653 515.220059 
L 272.867866 515.471407 
L 278.644293 515.70342 
L 291.641254 517.366183 
L 300.305894 517.540193 
L 303.194107 517.675534 
L 308.970534 517.752872 
L 313.302854 517.984886 
L 316.191068 517.810876 
L 327.743922 516.534802 
L 332.076242 515.896765 
L 339.296776 515.394069 
L 340.740882 515.123387 
L 343.629096 514.253336 
L 347.961416 512.377895 
L 349.405523 511.797861 
L 350.849629 511.391837 
L 356.626056 509.226379 
L 358.070163 508.530339 
L 359.51427 507.988974 
L 360.958376 507.312268 
L 362.402483 506.925579 
L 363.84659 506.674231 
L 365.290697 506.596893 
L 366.734803 506.88691 
L 369.623017 507.853633 
L 372.51123 508.66568 
L 373.955337 508.878359 
L 376.84355 508.955697 
L 378.287657 508.936362 
L 381.175871 509.207044 
L 384.064084 509.226379 
L 386.952297 509.110372 
L 389.840511 509.149041 
L 391.284618 508.955697 
L 392.728724 508.607676 
L 395.616938 507.273599 
L 399.949258 504.315428 
L 404.281578 500.757889 
L 405.725685 499.423812 
L 407.169792 498.495758 
L 411.502112 495.228236 
L 412.946219 493.410797 
L 414.390325 491.322676 
L 418.722645 483.994919 
L 423.054966 477.904567 
L 425.943179 472.858275 
L 427.387286 470.054779 
L 430.275499 465.530518 
L 431.719606 463.384393 
L 433.163713 461.489617 
L 434.607819 459.014807 
L 436.051926 455.824623 
L 437.496033 452.325087 
L 441.828353 438.790971 
L 443.27246 433.029304 
L 444.716566 426.80361 
L 449.048887 404.839673 
L 450.492993 397.975943 
L 453.381207 386.723291 
L 456.26942 375.992671 
L 457.713527 371.043051 
L 459.157634 367.408174 
L 462.045847 362.458554 
L 463.489954 359.597055 
L 466.378167 350.142508 
L 469.266381 338.464499 
L 470.710488 333.321535 
L 472.154594 331.852117 
L 475.042808 329.860668 
L 476.486914 328.410584 
L 477.931021 329.067956 
L 479.375128 331.349421 
L 480.819235 336.995081 
L 482.263341 344.361507 
L 483.707448 355.478817 
L 485.151555 365.513398 
L 486.595662 373.092503 
L 488.039768 380.033571 
L 489.483875 388.36672 
L 492.372088 406.947128 
L 493.816195 413.675517 
L 495.260302 416.749695 
L 496.704409 415.782973 
L 498.148515 412.902139 
L 499.592622 410.930025 
L 501.036729 412.380109 
L 502.480836 416.691692 
L 503.924942 420.500579 
L 505.369049 422.163342 
L 506.813156 420.307234 
L 509.701369 413.076149 
L 511.145476 413.172822 
L 512.589583 415.956983 
L 514.033689 421.273957 
L 515.477796 424.444807 
L 516.921903 426.416921 
L 519.810116 423.922777 
L 521.254223 423.555422 
L 522.69833 424.8895 
L 524.142436 425.334192 
L 525.586543 424.831496 
L 527.03065 420.036552 
L 528.474757 413.636849 
L 529.918863 404.994349 
L 531.36297 397.937274 
L 534.251183 388.927419 
L 535.69529 383.088415 
L 537.139397 375.045283 
L 538.583504 364.237324 
L 540.02761 354.918118 
L 541.471717 350.490529 
L 542.915824 346.72031 
L 544.359931 342.041373 
L 545.804037 332.915512 
L 547.248144 319.05271 
L 548.692251 303.449807 
L 550.136357 291.481781 
L 551.580464 286.78351 
L 553.024571 291.849136 
L 554.468678 299.11889 
L 555.912784 304.261854 
L 558.800998 313.155702 
L 560.245105 319.864757 
L 563.133318 341.306664 
L 564.577425 349.639813 
L 566.021531 353.758051 
L 567.465638 352.829997 
L 568.909745 352.752659 
L 570.353852 355.672162 
L 571.797958 362.96125 
L 573.242065 372.396463 
L 574.686172 376.572704 
L 576.130279 375.85733 
L 579.018492 369.824981 
L 580.462599 371.661753 
L 581.906705 379.453538 
L 584.794919 399.83205 
L 586.239026 404.472318 
L 587.683132 406.135081 
L 589.127239 406.251088 
L 590.571346 407.546496 
L 592.015452 411.394052 
L 593.459559 415.976317 
L 594.903666 418.992492 
L 596.347773 419.031161 
L 597.791879 416.846368 
L 599.235986 415.222274 
L 600.680093 415.647632 
L 602.1242 419.050495 
L 603.568306 424.560814 
L 605.012413 429.375092 
L 606.45652 432.333264 
L 607.900626 433.570669 
L 609.344733 434.614729 
L 610.78884 436.87686 
L 613.677053 444.359293 
L 615.12116 446.408745 
L 616.565267 445.944718 
L 618.009374 443.953269 
L 619.45348 441.652469 
L 620.897587 442.406513 
L 622.341694 447.356133 
L 623.7858 453.833174 
L 625.229907 458.357436 
L 626.674014 459.053476 
L 628.118121 455.263924 
L 629.562227 450.101625 
L 631.006334 446.234735 
L 632.450441 446.602089 
L 633.894548 450.468979 
L 635.338654 453.407816 
L 636.782761 452.615104 
L 638.226868 448.34219 
L 639.670974 441.768476 
L 641.115081 436.219488 
L 642.559188 433.686675 
L 644.003295 433.725344 
L 645.447401 434.595394 
L 646.891508 434.034695 
L 648.335615 431.811233 
L 649.779721 429.201082 
L 651.223828 428.137688 
L 652.667935 429.143079 
L 654.112042 431.134528 
L 655.556148 433.957358 
L 657.000255 434.962749 
L 658.444362 433.493331 
L 659.888469 431.463213 
L 661.332575 430.032464 
L 662.776682 430.148471 
L 664.220789 430.88318 
L 665.664895 430.032464 
L 667.109002 427.209634 
L 668.553109 421.931328 
L 669.997216 415.067598 
L 671.441322 409.286597 
L 672.885429 407.159807 
L 674.329536 407.449824 
L 675.773643 408.281205 
L 677.217749 407.024466 
L 678.661856 402.519539 
L 680.105963 395.791149 
L 681.550069 389.7588 
L 682.994176 387.303325 
L 684.438283 387.206653 
L 685.88239 387.477335 
L 687.326496 386.76196 
L 688.770603 381.909013 
L 690.21471 375.992671 
L 691.658817 371.797095 
L 693.102923 372.029108 
L 695.991137 379.066849 
L 697.435243 380.94229 
L 698.87935 380.787615 
L 700.323457 378.989511 
L 701.767564 380.110909 
L 703.21167 384.11314 
L 704.655777 391.01554 
L 706.099884 395.191781 
L 707.543991 394.863096 
L 708.988097 390.648185 
L 710.432204 383.049746 
L 711.876311 376.785383 
L 713.320417 374.42658 
L 716.208631 380.980959 
L 717.652738 381.174304 
L 719.096844 377.77144 
L 721.985058 365.146043 
L 723.429164 363.502615 
L 724.873271 363.463946 
L 726.317378 365.068705 
L 727.761485 363.270601 
L 729.205591 359.075025 
L 730.649698 355.36281 
L 732.093805 355.865506 
L 733.537912 362.941916 
L 736.426125 379.086183 
L 737.870232 381.715668 
L 739.314338 382.257033 
L 740.758445 384.074472 
L 742.202552 382.953073 
L 743.646659 382.063689 
L 745.090765 381.928347 
L 746.534872 379.163521 
L 747.978979 377.0754 
L 749.423086 375.547978 
L 750.867192 376.611373 
L 752.311299 381.889679 
L 760.975939 410.756015 
L 762.420046 418.528465 
L 765.30826 431.617889 
L 766.752366 434.460053 
L 769.64058 435.291435 
L 771.084686 437.611569 
L 772.528793 441.865148 
L 773.9729 449.695601 
L 775.417007 456.172643 
L 776.861113 460.638901 
L 778.30522 461.721631 
L 781.193434 458.608784 
L 782.63754 458.473443 
L 784.081647 460.445557 
L 786.96986 467.831317 
L 788.413967 470.306127 
L 789.858074 471.350188 
L 791.302181 472.66493 
L 792.746287 475.178409 
L 795.634501 483.395551 
L 797.078607 486.585736 
L 798.522714 488.403174 
L 801.410928 490.645971 
L 802.855034 492.59875 
L 805.743248 497.161681 
L 807.187355 498.59243 
L 811.519675 500.970568 
L 812.963781 502.246642 
L 814.407888 503.735395 
L 815.851995 505.011468 
L 817.296102 505.823515 
L 818.740208 506.152201 
L 820.184315 506.268208 
L 823.072529 507.002917 
L 824.516635 507.621619 
L 825.960742 507.96964 
L 827.404849 507.814964 
L 828.848955 506.964248 
L 830.293062 505.340154 
L 831.737169 503.174695 
L 833.181276 500.487207 
L 834.625382 496.658985 
L 836.069489 490.336619 
L 837.513596 479.605999 
L 838.957703 463.423062 
L 840.401809 439.216328 
L 843.290023 385.54389 
L 844.734129 366.093431 
L 846.178236 352.694656 
L 847.622343 344.187497 
L 851.954663 320.212777 
L 853.39877 315.939863 
L 854.842876 320.135439 
L 856.286983 333.089522 
L 859.175197 367.446843 
L 860.619303 382.798398 
L 862.06341 395.385126 
L 863.507517 406.560439 
L 866.39573 426.842279 
L 867.839837 434.556726 
L 869.283944 440.763085 
L 872.172157 449.154237 
L 873.616264 454.548549 
L 875.060371 461.238269 
L 876.504477 466.613247 
L 877.948584 469.8421 
L 879.392691 469.49408 
L 880.836798 467.831317 
L 882.280904 466.439237 
L 883.725011 467.077274 
L 885.169118 469.455411 
L 886.613224 472.780937 
L 888.057331 475.13974 
L 889.501438 475.410422 
L 890.945545 474.540372 
L 892.389651 473.476977 
L 893.833758 472.83894 
L 895.277865 473.032285 
L 899.610185 472.703599 
L 901.054292 472.065562 
L 902.498398 471.814214 
L 905.386612 472.123566 
L 906.830719 471.910887 
L 908.274825 471.040836 
L 909.718932 469.571418 
L 911.163039 468.720702 
L 912.607146 468.566026 
L 914.051252 469.358739 
L 915.495359 470.886161 
L 916.939466 472.123566 
L 918.383572 472.162235 
L 919.827679 471.524198 
L 921.271786 469.900104 
L 922.715893 468.856043 
L 924.159999 469.010719 
L 925.604106 469.919438 
L 927.048213 470.963499 
L 928.492319 471.678873 
L 929.936426 471.253515 
L 931.380533 471.176177 
L 932.82464 471.408191 
L 934.268746 472.858275 
L 935.712853 475.255747 
L 937.15696 477.363202 
L 938.601067 478.4846 
L 940.045173 478.929293 
L 941.48928 478.581273 
L 942.933387 478.851955 
L 944.377493 480.186032 
L 947.265707 484.613622 
L 948.709814 485.831692 
L 950.15392 486.237716 
L 953.042134 485.928364 
L 954.486241 486.353722 
L 955.930347 487.165769 
L 957.374454 487.823141 
L 958.818561 487.881144 
L 963.150881 486.469729 
L 964.594988 486.373057 
L 966.039094 486.43106 
L 967.483201 486.160378 
L 968.927308 484.265601 
L 970.371415 481.094751 
L 973.259628 473.341636 
L 974.703735 470.808823 
L 976.147841 469.204063 
L 977.591948 467.038605 
L 979.036055 464.467123 
L 980.480162 460.426222 
L 981.924268 455.631278 
L 983.368375 451.783722 
L 984.812482 449.38625 
L 987.700695 447.317464 
L 989.144802 444.069276 
L 990.588909 438.075596 
L 992.033015 430.380484 
L 993.477122 421.544639 
L 994.921229 414.506899 
L 996.365336 409.963303 
L 997.809442 405.961071 
L 999.253549 401.301468 
L 1000.697656 395.520467 
L 1003.585869 379.994902 
L 1005.029976 373.266513 
L 1006.474083 369.30295 
L 1007.918189 366.267441 
L 1009.362296 361.259818 
L 1010.806403 352.733325 
L 1012.25051 340.436614 
L 1015.138723 313.484388 
L 1016.58283 303.68182 
L 1018.026936 296.953431 
L 1019.471043 287.247536 
L 1022.359257 259.560601 
L 1023.803363 248.791311 
L 1025.24747 236.513935 
L 1026.691577 222.825143 
L 1028.135684 204.708761 
L 1029.57979 178.607251 
L 1032.468004 123.44606 
L 1033.91211 106.354404 
L 1035.356217 100.747413 
L 1036.800324 97.325215 
L 1038.244431 92.259589 
L 1039.688537 88.412033 
L 1041.132644 83.984443 
L 1042.576751 83.481748 
L 1044.020858 85.415193 
L 1045.464964 90.944846 
L 1046.909071 94.560388 
L 1048.353178 101.501457 
L 1051.241391 106.064387 
L 1052.685498 105.832374 
L 1055.573711 97.015864 
L 1057.017818 99.08465 
L 1058.461925 106.064387 
L 1059.906031 120.97125 
L 1061.350138 137.076848 
L 1062.794245 151.616356 
L 1065.682458 176.712475 
L 1067.126565 192.199371 
L 1068.570672 211.379147 
L 1070.014779 227.736093 
L 1071.458885 236.32059 
L 1072.902992 238.660059 
L 1074.347099 237.809343 
L 1075.791205 238.640724 
L 1077.235312 248.791311 
L 1080.123526 274.544801 
L 1081.567632 281.176518 
L 1083.011739 281.582542 
L 1084.455846 279.339746 
L 1085.899953 278.605036 
L 1087.344059 278.31502 
L 1088.788166 283.090629 
L 1090.232273 287.286205 
L 1090.232273 287.286205 
" clip-path="url(#pfbb8a6ee1b)" style="fill: none; stroke: #000000; stroke-width: 1.5; stroke-linecap: square"/>
   </g>
   <g id="patch_3">
    <path d="M 87.95 541.28 
L 87.95 37.72 
" style="fill: none; stroke: #555555; stroke-linejoin: miter; stroke-linecap: square"/>
   </g>
   <g id="patch_4">
    <path d="M 87.95 541.28 
L 1137.96 541.28 
" style="fill: none; stroke: #555555; stroke-linejoin: miter; stroke-linecap: square"/>
   </g>
   <g id="text_30">
    <!-- Positive COVID-19 tests - last updated on 27 December 2021 -->
    <g style="fill: #555555" transform="translate(337.753281 27.72)scale(0.18 -0.18)">
     <defs>
      <path id="DejaVuSans-50" d="M 1259 4147 
L 1259 2394 
L 2053 2394 
Q 2494 2394 2734 2622 
Q 2975 2850 2975 3272 
Q 2975 3691 2734 3919 
Q 2494 4147 2053 4147 
L 1259 4147 
z
M 628 4666 
L 2053 4666 
Q 2838 4666 3239 4311 
Q 3641 3956 3641 3272 
Q 3641 2581 3239 2228 
Q 2838 1875 2053 1875 
L 1259 1875 
L 1259 0 
L 628 0 
L 628 4666 
z
" transform="scale(0.015625)"/>
      <path id="DejaVuSans-6f" d="M 1959 3097 
Q 1497 3097 1228 2736 
Q 959 2375 959 1747 
Q 959 1119 1226 758 
Q 1494 397 1959 397 
Q 2419 397 2687 759 
Q 2956 1122 2956 1747 
Q 2956 2369 2687 2733 
Q 2419 3097 1959 3097 
z
M 1959 3584 
Q 2709 3584 3137 3096 
Q 3566 2609 3566 1747 
Q 3566 888 3137 398 
Q 2709 -91 1959 -91 
Q 1206 -91 779 398 
Q 353 888 353 1747 
Q 353 2609 779 3096 
Q 1206 3584 1959 3584 
z
" transform="scale(0.015625)"/>
      <path id="DejaVuSans-69" d="M 603 3500 
L 1178 3500 
L 1178 0 
L 603 0 
L 603 3500 
z
M 603 4863 
L 1178 4863 
L 1178 4134 
L 603 4134 
L 603 4863 
z
" transform="scale(0.015625)"/>
      <path id="DejaVuSans-74" d="M 1172 4494 
L 1172 3500 
L 2356 3500 
L 2356 3053 
L 1172 3053 
L 1172 1153 
Q 1172 725 1289 603 
Q 1406 481 1766 481 
L 2356 481 
L 2356 0 
L 1766 0 
Q 1100 0 847 248 
Q 594 497 594 1153 
L 594 3053 
L 172 3053 
L 172 3500 
L 594 3500 
L 594 4494 
L 1172 4494 
z
" transform="scale(0.015625)"/>
      <path id="DejaVuSans-76" d="M 191 3500 
L 800 3500 
L 1894 563 
L 2988 3500 
L 3597 3500 
L 2284 0 
L 1503 0 
L 191 3500 
z
" transform="scale(0.015625)"/>
      <path id="DejaVuSans-4f" d="M 2522 4238 
Q 1834 4238 1429 3725 
Q 1025 3213 1025 2328 
Q 1025 1447 1429 934 
Q 1834 422 2522 422 
Q 3209 422 3611 934 
Q 4013 1447 4013 2328 
Q 4013 3213 3611 3725 
Q 3209 4238 2522 4238 
z
M 2522 4750 
Q 3503 4750 4090 4092 
Q 4678 3434 4678 2328 
Q 4678 1225 4090 567 
Q 3503 -91 2522 -91 
Q 1538 -91 948 565 
Q 359 1222 359 2328 
Q 359 3434 948 4092 
Q 1538 4750 2522 4750 
z
" transform="scale(0.015625)"/>
      <path id="DejaVuSans-56" d="M 1831 0 
L 50 4666 
L 709 4666 
L 2188 738 
L 3669 4666 
L 4325 4666 
L 2547 0 
L 1831 0 
z
" transform="scale(0.015625)"/>
      <path id="DejaVuSans-49" d="M 628 4666 
L 1259 4666 
L 1259 0 
L 628 0 
L 628 4666 
z
" transform="scale(0.015625)"/>
      <path id="DejaVuSans-44" d="M 1259 4147 
L 1259 519 
L 2022 519 
Q 2988 519 3436 956 
Q 3884 1394 3884 2338 
Q 3884 3275 3436 3711 
Q 2988 4147 2022 4147 
L 1259 4147 
z
M 628 4666 
L 1925 4666 
Q 3281 4666 3915 4102 
Q 4550 3538 4550 2338 
Q 4550 1131 3912 565 
Q 3275 0 1925 0 
L 628 0 
L 628 4666 
z
" transform="scale(0.015625)"/>
      <path id="DejaVuSans-2d" d="M 313 2009 
L 1997 2009 
L 1997 1497 
L 313 1497 
L 313 2009 
z
" transform="scale(0.015625)"/>
      <path id="DejaVuSans-31" d="M 794 531 
L 1825 531 
L 1825 4091 
L 703 3866 
L 703 4441 
L 1819 4666 
L 2450 4666 
L 2450 531 
L 3481 531 
L 3481 0 
L 794 0 
L 794 531 
z
" transform="scale(0.015625)"/>
      <path id="DejaVuSans-39" d="M 703 97 
L 703 672 
Q 941 559 1184 500 
Q 1428 441 1663 441 
Q 2288 441 2617 861 
Q 2947 1281 2994 2138 
Q 2813 1869 2534 1725 
Q 2256 1581 1919 1581 
Q 1219 1581 811 2004 
Q 403 2428 403 3163 
Q 403 3881 828 4315 
Q 1253 4750 1959 4750 
Q 2769 4750 3195 4129 
Q 3622 3509 3622 2328 
Q 3622 1225 3098 567 
Q 2575 -91 1691 -91 
Q 1453 -91 1209 -44 
Q 966 3 703 97 
z
M 1959 2075 
Q 2384 2075 2632 2365 
Q 2881 2656 2881 3163 
Q 2881 3666 2632 3958 
Q 2384 4250 1959 4250 
Q 1534 4250 1286 3958 
Q 1038 3666 1038 3163 
Q 1038 2656 1286 2365 
Q 1534 2075 1959 2075 
z
" transform="scale(0.015625)"/>
      <path id="DejaVuSans-6c" d="M 603 4863 
L 1178 4863 
L 1178 0 
L 603 0 
L 603 4863 
z
" transform="scale(0.015625)"/>
      <path id="DejaVuSans-75" d="M 544 1381 
L 544 3500 
L 1119 3500 
L 1119 1403 
Q 1119 906 1312 657 
Q 1506 409 1894 409 
Q 2359 409 2629 706 
Q 2900 1003 2900 1516 
L 2900 3500 
L 3475 3500 
L 3475 0 
L 2900 0 
L 2900 538 
Q 2691 219 2414 64 
Q 2138 -91 1772 -91 
Q 1169 -91 856 284 
Q 544 659 544 1381 
z
M 1991 3584 
L 1991 3584 
z
" transform="scale(0.015625)"/>
      <path id="DejaVuSans-70" d="M 1159 525 
L 1159 -1331 
L 581 -1331 
L 581 3500 
L 1159 3500 
L 1159 2969 
Q 1341 3281 1617 3432 
Q 1894 3584 2278 3584 
Q 2916 3584 3314 3078 
Q 3713 2572 3713 1747 
Q 3713 922 3314 415 
Q 2916 -91 2278 -91 
Q 1894 -91 1617 61 
Q 1341 213 1159 525 
z
M 3116 1747 
Q 3116 2381 2855 2742 
Q 2594 3103 2138 3103 
Q 1681 3103 1420 2742 
Q 1159 2381 1159 1747 
Q 1159 1113 1420 752 
Q 1681 391 2138 391 
Q 2594 391 2855 752 
Q 3116 1113 3116 1747 
z
" transform="scale(0.015625)"/>
      <path id="DejaVuSans-64" d="M 2906 2969 
L 2906 4863 
L 3481 4863 
L 3481 0 
L 2906 0 
L 2906 525 
Q 2725 213 2448 61 
Q 2172 -91 1784 -91 
Q 1150 -91 751 415 
Q 353 922 353 1747 
Q 353 2572 751 3078 
Q 1150 3584 1784 3584 
Q 2172 3584 2448 3432 
Q 2725 3281 2906 2969 
z
M 947 1747 
Q 947 1113 1208 752 
Q 1469 391 1925 391 
Q 2381 391 2643 752 
Q 2906 1113 2906 1747 
Q 2906 2381 2643 2742 
Q 2381 3103 1925 3103 
Q 1469 3103 1208 2742 
Q 947 2381 947 1747 
z
" transform="scale(0.015625)"/>
      <path id="DejaVuSans-6e" d="M 3513 2113 
L 3513 0 
L 2938 0 
L 2938 2094 
Q 2938 2591 2744 2837 
Q 2550 3084 2163 3084 
Q 1697 3084 1428 2787 
Q 1159 2491 1159 1978 
L 1159 0 
L 581 0 
L 581 3500 
L 1159 3500 
L 1159 2956 
Q 1366 3272 1645 3428 
Q 1925 3584 2291 3584 
Q 2894 3584 3203 3211 
Q 3513 2838 3513 2113 
z
" transform="scale(0.015625)"/>
      <path id="DejaVuSans-32" d="M 1228 531 
L 3431 531 
L 3431 0 
L 469 0 
L 469 531 
Q 828 903 1448 1529 
Q 2069 2156 2228 2338 
Q 2531 2678 2651 2914 
Q 2772 3150 2772 3378 
Q 2772 3750 2511 3984 
Q 2250 4219 1831 4219 
Q 1534 4219 1204 4116 
Q 875 4013 500 3803 
L 500 4441 
Q 881 4594 1212 4672 
Q 1544 4750 1819 4750 
Q 2544 4750 2975 4387 
Q 3406 4025 3406 3419 
Q 3406 3131 3298 2873 
Q 3191 2616 2906 2266 
Q 2828 2175 2409 1742 
Q 1991 1309 1228 531 
z
" transform="scale(0.015625)"/>
      <path id="DejaVuSans-37" d="M 525 4666 
L 3525 4666 
L 3525 4397 
L 1831 0 
L 1172 0 
L 2766 4134 
L 525 4134 
L 525 4666 
z
" transform="scale(0.015625)"/>
      <path id="DejaVuSans-63" d="M 3122 3366 
L 3122 2828 
Q 2878 2963 2633 3030 
Q 2388 3097 2138 3097 
Q 1578 3097 1268 2742 
Q 959 2388 959 1747 
Q 959 1106 1268 751 
Q 1578 397 2138 397 
Q 2388 397 2633 464 
Q 2878 531 3122 666 
L 3122 134 
Q 2881 22 2623 -34 
Q 2366 -91 2075 -91 
Q 1284 -91 818 406 
Q 353 903 353 1747 
Q 353 2603 823 3093 
Q 1294 3584 2113 3584 
Q 2378 3584 2631 3529 
Q 2884 3475 3122 3366 
z
" transform="scale(0.015625)"/>
      <path id="DejaVuSans-6d" d="M 3328 2828 
Q 3544 3216 3844 3400 
Q 4144 3584 4550 3584 
Q 5097 3584 5394 3201 
Q 5691 2819 5691 2113 
L 5691 0 
L 5113 0 
L 5113 2094 
Q 5113 2597 4934 2840 
Q 4756 3084 4391 3084 
Q 3944 3084 3684 2787 
Q 3425 2491 3425 1978 
L 3425 0 
L 2847 0 
L 2847 2094 
Q 2847 2600 2669 2842 
Q 2491 3084 2119 3084 
Q 1678 3084 1418 2786 
Q 1159 2488 1159 1978 
L 1159 0 
L 581 0 
L 581 3500 
L 1159 3500 
L 1159 2956 
Q 1356 3278 1631 3431 
Q 1906 3584 2284 3584 
Q 2666 3584 2933 3390 
Q 3200 3197 3328 2828 
z
" transform="scale(0.015625)"/>
      <path id="DejaVuSans-62" d="M 3116 1747 
Q 3116 2381 2855 2742 
Q 2594 3103 2138 3103 
Q 1681 3103 1420 2742 
Q 1159 2381 1159 1747 
Q 1159 1113 1420 752 
Q 1681 391 2138 391 
Q 2594 391 2855 752 
Q 3116 1113 3116 1747 
z
M 1159 2969 
Q 1341 3281 1617 3432 
Q 1894 3584 2278 3584 
Q 2916 3584 3314 3078 
Q 3713 2572 3713 1747 
Q 3713 922 3314 415 
Q 2916 -91 2278 -91 
Q 1894 -91 1617 61 
Q 1341 213 1159 525 
L 1159 0 
L 581 0 
L 581 4863 
L 1159 4863 
L 1159 2969 
z
" transform="scale(0.015625)"/>
      <path id="DejaVuSans-72" d="M 2631 2963 
Q 2534 3019 2420 3045 
Q 2306 3072 2169 3072 
Q 1681 3072 1420 2755 
Q 1159 2438 1159 1844 
L 1159 0 
L 581 0 
L 581 3500 
L 1159 3500 
L 1159 2956 
Q 1341 3275 1631 3429 
Q 1922 3584 2338 3584 
Q 2397 3584 2469 3576 
Q 2541 3569 2628 3553 
L 2631 2963 
z
" transform="scale(0.015625)"/>
      <path id="DejaVuSans-30" d="M 2034 4250 
Q 1547 4250 1301 3770 
Q 1056 3291 1056 2328 
Q 1056 1369 1301 889 
Q 1547 409 2034 409 
Q 2525 409 2770 889 
Q 3016 1369 3016 2328 
Q 3016 3291 2770 3770 
Q 2525 4250 2034 4250 
z
M 2034 4750 
Q 2819 4750 3233 4129 
Q 3647 3509 3647 2328 
Q 3647 1150 3233 529 
Q 2819 -91 2034 -91 
Q 1250 -91 836 529 
Q 422 1150 422 2328 
Q 422 3509 836 4129 
Q 1250 4750 2034 4750 
z
" transform="scale(0.015625)"/>
     </defs>
     <use xlink:href="#DejaVuSans-50"/>
     <use xlink:href="#DejaVuSans-6f" x="56.677734"/>
     <use xlink:href="#DejaVuSans-73" x="117.859375"/>
     <use xlink:href="#DejaVuSans-69" x="169.958984"/>
     <use xlink:href="#DejaVuSans-74" x="197.742188"/>
     <use xlink:href="#DejaVuSans-69" x="236.951172"/>
     <use xlink:href="#DejaVuSans-76" x="264.734375"/>
     <use xlink:href="#DejaVuSans-65" x="323.914062"/>
     <use xlink:href="#DejaVuSans-20" x="385.4375"/>
     <use xlink:href="#DejaVuSans-43" x="417.224609"/>
     <use xlink:href="#DejaVuSans-4f" x="487.048828"/>
     <use xlink:href="#DejaVuSans-56" x="564.009766"/>
     <use xlink:href="#DejaVuSans-49" x="632.417969"/>
     <use xlink:href="#DejaVuSans-44" x="661.910156"/>
     <use xlink:href="#DejaVuSans-2d" x="738.912109"/>
     <use xlink:href="#DejaVuSans-31" x="774.996094"/>
     <use xlink:href="#DejaVuSans-39" x="838.619141"/>
     <use xlink:href="#DejaVuSans-20" x="902.242188"/>
     <use xlink:href="#DejaVuSans-74" x="934.029297"/>
     <use xlink:href="#DejaVuSans-65" x="973.238281"/>
     <use xlink:href="#DejaVuSans-73" x="1034.761719"/>
     <use xlink:href="#DejaVuSans-74" x="1086.861328"/>
     <use xlink:href="#DejaVuSans-73" x="1126.070312"/>
     <use xlink:href="#DejaVuSans-20" x="1178.169922"/>
     <use xlink:href="#DejaVuSans-2d" x="1209.957031"/>
     <use xlink:href="#DejaVuSans-20" x="1246.041016"/>
     <use xlink:href="#DejaVuSans-6c" x="1277.828125"/>
     <use xlink:href="#DejaVuSans-61" x="1305.611328"/>
     <use xlink:href="#DejaVuSans-73" x="1366.890625"/>
     <use xlink:href="#DejaVuSans-74" x="1418.990234"/>
     <use xlink:href="#DejaVuSans-20" x="1458.199219"/>
     <use xlink:href="#DejaVuSans-75" x="1489.986328"/>
     <use xlink:href="#DejaVuSans-70" x="1553.365234"/>
     <use xlink:href="#DejaVuSans-64" x="1616.841797"/>
     <use xlink:href="#DejaVuSans-61" x="1680.318359"/>
     <use xlink:href="#DejaVuSans-74" x="1741.597656"/>
     <use xlink:href="#DejaVuSans-65" x="1780.806641"/>
     <use xlink:href="#DejaVuSans-64" x="1842.330078"/>
     <use xlink:href="#DejaVuSans-20" x="1905.806641"/>
     <use xlink:href="#DejaVuSans-6f" x="1937.59375"/>
     <use xlink:href="#DejaVuSans-6e" x="1998.775391"/>
     <use xlink:href="#DejaVuSans-20" x="2062.154297"/>
     <use xlink:href="#DejaVuSans-32" x="2093.941406"/>
     <use xlink:href="#DejaVuSans-37" x="2157.564453"/>
     <use xlink:href="#DejaVuSans-20" x="2221.1875"/>
     <use xlink:href="#DejaVuSans-44" x="2252.974609"/>
     <use xlink:href="#DejaVuSans-65" x="2329.976562"/>
     <use xlink:href="#DejaVuSans-63" x="2391.5"/>
     <use xlink:href="#DejaVuSans-65" x="2446.480469"/>
     <use xlink:href="#DejaVuSans-6d" x="2508.003906"/>
     <use xlink:href="#DejaVuSans-62" x="2605.416016"/>
     <use xlink:href="#DejaVuSans-65" x="2668.892578"/>
     <use xlink:href="#DejaVuSans-72" x="2730.416016"/>
     <use xlink:href="#DejaVuSans-20" x="2771.529297"/>
     <use xlink:href="#DejaVuSans-32" x="2803.316406"/>
     <use xlink:href="#DejaVuSans-30" x="2866.939453"/>
     <use xlink:href="#DejaVuSans-32" x="2930.5625"/>
     <use xlink:href="#DejaVuSans-31" x="2994.185547"/>
    </g>
   </g>
   <g id="legend_1">
    <g id="line2d_31">
     <path d="M 99.65 54.747969 
L 112.65 54.747969 
L 125.65 54.747969 
" style="fill: none; stroke-dasharray: 1.5,2.475; stroke-dashoffset: 0; stroke: #000000; stroke-opacity: 0.5; stroke-width: 1.5"/>
    </g>
    <g id="text_31">
     <!-- Actual -->
     <g style="fill: #555555" transform="translate(136.05 59.297969)scale(0.13 -0.13)">
      <use xlink:href="#DejaVuSans-Bold-41"/>
      <use xlink:href="#DejaVuSans-Bold-63" x="77.392578"/>
      <use xlink:href="#DejaVuSans-Bold-74" x="136.669922"/>
      <use xlink:href="#DejaVuSans-Bold-75" x="184.472656"/>
      <use xlink:href="#DejaVuSans-Bold-61" x="255.664062"/>
      <use xlink:href="#DejaVuSans-Bold-6c" x="323.144531"/>
     </g>
    </g>
    <g id="line2d_32">
     <path d="M 99.65 73.829531 
L 112.65 73.829531 
L 125.65 73.829531 
" style="fill: none; stroke: #000000; stroke-width: 1.5; stroke-linecap: square"/>
    </g>
    <g id="text_32">
     <!-- Smoothed -->
     <g style="fill: #555555" transform="translate(136.05 78.379531)scale(0.13 -0.13)">
      <defs>
       <path id="DejaVuSans-Bold-6d" d="M 3781 2919 
Q 3994 3244 4286 3414 
Q 4578 3584 4928 3584 
Q 5531 3584 5847 3212 
Q 6163 2841 6163 2131 
L 6163 0 
L 5038 0 
L 5038 1825 
Q 5041 1866 5042 1909 
Q 5044 1953 5044 2034 
Q 5044 2406 4934 2573 
Q 4825 2741 4581 2741 
Q 4263 2741 4089 2478 
Q 3916 2216 3909 1719 
L 3909 0 
L 2784 0 
L 2784 1825 
Q 2784 2406 2684 2573 
Q 2584 2741 2328 2741 
Q 2006 2741 1831 2477 
Q 1656 2213 1656 1722 
L 1656 0 
L 531 0 
L 531 3500 
L 1656 3500 
L 1656 2988 
Q 1863 3284 2130 3434 
Q 2397 3584 2719 3584 
Q 3081 3584 3359 3409 
Q 3638 3234 3781 2919 
z
" transform="scale(0.015625)"/>
       <path id="DejaVuSans-Bold-68" d="M 4056 2131 
L 4056 0 
L 2931 0 
L 2931 347 
L 2931 1625 
Q 2931 2084 2911 2256 
Q 2891 2428 2841 2509 
Q 2775 2619 2662 2680 
Q 2550 2741 2406 2741 
Q 2056 2741 1856 2470 
Q 1656 2200 1656 1722 
L 1656 0 
L 538 0 
L 538 4863 
L 1656 4863 
L 1656 2988 
Q 1909 3294 2193 3439 
Q 2478 3584 2822 3584 
Q 3428 3584 3742 3212 
Q 4056 2841 4056 2131 
z
" transform="scale(0.015625)"/>
       <path id="DejaVuSans-Bold-64" d="M 2919 2988 
L 2919 4863 
L 4044 4863 
L 4044 0 
L 2919 0 
L 2919 506 
Q 2688 197 2409 53 
Q 2131 -91 1766 -91 
Q 1119 -91 703 423 
Q 288 938 288 1747 
Q 288 2556 703 3070 
Q 1119 3584 1766 3584 
Q 2128 3584 2408 3439 
Q 2688 3294 2919 2988 
z
M 2181 722 
Q 2541 722 2730 984 
Q 2919 1247 2919 1747 
Q 2919 2247 2730 2509 
Q 2541 2772 2181 2772 
Q 1825 2772 1636 2509 
Q 1447 2247 1447 1747 
Q 1447 1247 1636 984 
Q 1825 722 2181 722 
z
" transform="scale(0.015625)"/>
      </defs>
      <use xlink:href="#DejaVuSans-Bold-53"/>
      <use xlink:href="#DejaVuSans-Bold-6d" x="72.021484"/>
      <use xlink:href="#DejaVuSans-Bold-6f" x="176.220703"/>
      <use xlink:href="#DejaVuSans-Bold-6f" x="244.921875"/>
      <use xlink:href="#DejaVuSans-Bold-74" x="313.623047"/>
      <use xlink:href="#DejaVuSans-Bold-68" x="361.425781"/>
      <use xlink:href="#DejaVuSans-Bold-65" x="432.617188"/>
      <use xlink:href="#DejaVuSans-Bold-64" x="500.439453"/>
     </g>
    </g>
   </g>
  </g>
 </g>
 <defs>
  <clipPath id="pfbb8a6ee1b">
   <rect x="87.95" y="37.72" width="1050.01" height="503.56"/>
  </clipPath>
 </defs>
</svg>
