<?xml version="1.0" encoding="utf-8" standalone="no"?>
<!DOCTYPE svg PUBLIC "-//W3C//DTD SVG 1.1//EN"
  "http://www.w3.org/Graphics/SVG/1.1/DTD/svg11.dtd">
<svg height="576pt" version="1.1" viewBox="0 0 1152 576" width="1152pt" xmlns="http://www.w3.org/2000/svg" xmlns:xlink="http://www.w3.org/1999/xlink">
 <metadata>
  <rdf:RDF xmlns:cc="http://creativecommons.org/ns#" xmlns:dc="http://purl.org/dc/elements/1.1/" xmlns:rdf="http://www.w3.org/1999/02/22-rdf-syntax-ns#">
   <cc:Work>
    <dc:type rdf:resource="http://purl.org/dc/dcmitype/StillImage"/>
    <dc:date>2021-10-20T14:14:52.545914</dc:date>
    <dc:format>image/svg+xml</dc:format>
    <dc:creator>
     <cc:Agent>
      <dc:title>Matplotlib v3.4.3, https://matplotlib.org/</dc:title>
     </cc:Agent>
    </dc:creator>
   </cc:Work>
  </rdf:RDF>
 </metadata>
 <defs>
  <style type="text/css">*{stroke-linecap:butt;stroke-linejoin:round;}</style>
 </defs>
 <g id="figure_1">
  <g id="patch_1">
   <path d="M 0 576 
L 1152 576 
L 1152 0 
L 0 0 
z
" style="fill:#ffffff;"/>
  </g>
  <g id="axes_1">
   <g id="patch_2">
    <path d="M 87.95 541.28 
L 1137.96 541.28 
L 1137.96 37.72 
L 87.95 37.72 
z
" style="fill:#ffffff;"/>
   </g>
   <g id="matplotlib.axis_1">
    <g id="xtick_1">
     <g id="line2d_1">
      <defs>
       <path d="M 0 0 
L 0 3.5 
" id="m2c182590ee" style="stroke:#555555;stroke-width:0.8;"/>
      </defs>
      <g>
       <use style="fill:#555555;stroke:#555555;stroke-width:0.8;" x="127.629207" xlink:href="#m2c182590ee" y="541.28"/>
      </g>
     </g>
     <g id="text_1">
      <!-- Mar -->
      <g style="fill:#555555;" transform="translate(112.487332 558.917812)scale(0.14 -0.14)">
       <defs>
        <path d="M 588 4666 
L 2119 4666 
L 3181 2169 
L 4250 4666 
L 5778 4666 
L 5778 0 
L 4641 0 
L 4641 3413 
L 3566 897 
L 2803 897 
L 1728 3413 
L 1728 0 
L 588 0 
L 588 4666 
z
" id="DejaVuSans-Bold-4d" transform="scale(0.015625)"/>
        <path d="M 2106 1575 
Q 1756 1575 1579 1456 
Q 1403 1338 1403 1106 
Q 1403 894 1545 773 
Q 1688 653 1941 653 
Q 2256 653 2472 879 
Q 2688 1106 2688 1447 
L 2688 1575 
L 2106 1575 
z
M 3816 1997 
L 3816 0 
L 2688 0 
L 2688 519 
Q 2463 200 2181 54 
Q 1900 -91 1497 -91 
Q 953 -91 614 226 
Q 275 544 275 1050 
Q 275 1666 698 1953 
Q 1122 2241 2028 2241 
L 2688 2241 
L 2688 2328 
Q 2688 2594 2478 2717 
Q 2269 2841 1825 2841 
Q 1466 2841 1156 2769 
Q 847 2697 581 2553 
L 581 3406 
Q 941 3494 1303 3539 
Q 1666 3584 2028 3584 
Q 2975 3584 3395 3211 
Q 3816 2838 3816 1997 
z
" id="DejaVuSans-Bold-61" transform="scale(0.015625)"/>
        <path d="M 3138 2547 
Q 2991 2616 2845 2648 
Q 2700 2681 2553 2681 
Q 2122 2681 1889 2404 
Q 1656 2128 1656 1613 
L 1656 0 
L 538 0 
L 538 3500 
L 1656 3500 
L 1656 2925 
Q 1872 3269 2151 3426 
Q 2431 3584 2822 3584 
Q 2878 3584 2943 3579 
Q 3009 3575 3134 3559 
L 3138 2547 
z
" id="DejaVuSans-Bold-72" transform="scale(0.015625)"/>
       </defs>
       <use xlink:href="#DejaVuSans-Bold-4d"/>
       <use x="99.511719" xlink:href="#DejaVuSans-Bold-61"/>
       <use x="166.992188" xlink:href="#DejaVuSans-Bold-72"/>
      </g>
     </g>
    </g>
    <g id="xtick_2">
     <g id="line2d_2">
      <g>
       <use style="fill:#555555;stroke:#555555;stroke-width:0.8;" x="177.530034" xlink:href="#m2c182590ee" y="541.28"/>
      </g>
     </g>
     <g id="text_2">
      <!-- Apr -->
      <g style="fill:#555555;" transform="translate(163.650347 558.917812)scale(0.14 -0.14)">
       <defs>
        <path d="M 3419 850 
L 1538 850 
L 1241 0 
L 31 0 
L 1759 4666 
L 3194 4666 
L 4922 0 
L 3713 0 
L 3419 850 
z
M 1838 1716 
L 3116 1716 
L 2478 3572 
L 1838 1716 
z
" id="DejaVuSans-Bold-41" transform="scale(0.015625)"/>
        <path d="M 1656 506 
L 1656 -1331 
L 538 -1331 
L 538 3500 
L 1656 3500 
L 1656 2988 
Q 1888 3294 2169 3439 
Q 2450 3584 2816 3584 
Q 3463 3584 3878 3070 
Q 4294 2556 4294 1747 
Q 4294 938 3878 423 
Q 3463 -91 2816 -91 
Q 2450 -91 2169 54 
Q 1888 200 1656 506 
z
M 2400 2772 
Q 2041 2772 1848 2508 
Q 1656 2244 1656 1747 
Q 1656 1250 1848 986 
Q 2041 722 2400 722 
Q 2759 722 2948 984 
Q 3138 1247 3138 1747 
Q 3138 2247 2948 2509 
Q 2759 2772 2400 2772 
z
" id="DejaVuSans-Bold-70" transform="scale(0.015625)"/>
       </defs>
       <use xlink:href="#DejaVuSans-Bold-41"/>
       <use x="77.392578" xlink:href="#DejaVuSans-Bold-70"/>
       <use x="148.974609" xlink:href="#DejaVuSans-Bold-72"/>
      </g>
     </g>
    </g>
    <g id="xtick_3">
     <g id="line2d_3">
      <g>
       <use style="fill:#555555;stroke:#555555;stroke-width:0.8;" x="225.821158" xlink:href="#m2c182590ee" y="541.28"/>
      </g>
     </g>
     <g id="text_3">
      <!-- May -->
      <g style="fill:#555555;" transform="translate(209.786783 558.808437)scale(0.14 -0.14)">
       <defs>
        <path d="M 78 3500 
L 1197 3500 
L 2138 1125 
L 2938 3500 
L 4056 3500 
L 2584 -331 
Q 2363 -916 2067 -1148 
Q 1772 -1381 1288 -1381 
L 641 -1381 
L 641 -647 
L 991 -647 
Q 1275 -647 1404 -556 
Q 1534 -466 1606 -231 
L 1638 -134 
L 78 3500 
z
" id="DejaVuSans-Bold-79" transform="scale(0.015625)"/>
       </defs>
       <use xlink:href="#DejaVuSans-Bold-4d"/>
       <use x="99.511719" xlink:href="#DejaVuSans-Bold-61"/>
       <use x="163.867188" xlink:href="#DejaVuSans-Bold-79"/>
      </g>
     </g>
    </g>
    <g id="xtick_4">
     <g id="line2d_4">
      <g>
       <use style="fill:#555555;stroke:#555555;stroke-width:0.8;" x="275.721986" xlink:href="#m2c182590ee" y="541.28"/>
      </g>
     </g>
     <g id="text_4">
      <!-- Jun -->
      <g style="fill:#555555;" transform="translate(263.151517 558.917812)scale(0.14 -0.14)">
       <defs>
        <path d="M 588 4666 
L 1791 4666 
L 1791 453 
Q 1791 -419 1317 -850 
Q 844 -1281 -116 -1281 
L -359 -1281 
L -359 -372 
L -172 -372 
Q 203 -372 395 -162 
Q 588 47 588 453 
L 588 4666 
z
" id="DejaVuSans-Bold-4a" transform="scale(0.015625)"/>
        <path d="M 500 1363 
L 500 3500 
L 1625 3500 
L 1625 3150 
Q 1625 2866 1622 2436 
Q 1619 2006 1619 1863 
Q 1619 1441 1641 1255 
Q 1663 1069 1716 984 
Q 1784 875 1895 815 
Q 2006 756 2150 756 
Q 2500 756 2700 1025 
Q 2900 1294 2900 1772 
L 2900 3500 
L 4019 3500 
L 4019 0 
L 2900 0 
L 2900 506 
Q 2647 200 2364 54 
Q 2081 -91 1741 -91 
Q 1134 -91 817 281 
Q 500 653 500 1363 
z
" id="DejaVuSans-Bold-75" transform="scale(0.015625)"/>
        <path d="M 4056 2131 
L 4056 0 
L 2931 0 
L 2931 347 
L 2931 1631 
Q 2931 2084 2911 2256 
Q 2891 2428 2841 2509 
Q 2775 2619 2662 2680 
Q 2550 2741 2406 2741 
Q 2056 2741 1856 2470 
Q 1656 2200 1656 1722 
L 1656 0 
L 538 0 
L 538 3500 
L 1656 3500 
L 1656 2988 
Q 1909 3294 2193 3439 
Q 2478 3584 2822 3584 
Q 3428 3584 3742 3212 
Q 4056 2841 4056 2131 
z
" id="DejaVuSans-Bold-6e" transform="scale(0.015625)"/>
       </defs>
       <use xlink:href="#DejaVuSans-Bold-4a"/>
       <use x="37.207031" xlink:href="#DejaVuSans-Bold-75"/>
       <use x="108.398438" xlink:href="#DejaVuSans-Bold-6e"/>
      </g>
     </g>
    </g>
    <g id="xtick_5">
     <g id="line2d_5">
      <g>
       <use style="fill:#555555;stroke:#555555;stroke-width:0.8;" x="324.01311" xlink:href="#m2c182590ee" y="541.28"/>
      </g>
     </g>
     <g id="text_5">
      <!-- Jul -->
      <g style="fill:#555555;" transform="translate(314.026079 558.917812)scale(0.14 -0.14)">
       <defs>
        <path d="M 538 4863 
L 1656 4863 
L 1656 0 
L 538 0 
L 538 4863 
z
" id="DejaVuSans-Bold-6c" transform="scale(0.015625)"/>
       </defs>
       <use xlink:href="#DejaVuSans-Bold-4a"/>
       <use x="37.207031" xlink:href="#DejaVuSans-Bold-75"/>
       <use x="108.398438" xlink:href="#DejaVuSans-Bold-6c"/>
      </g>
     </g>
    </g>
    <g id="xtick_6">
     <g id="line2d_6">
      <g>
       <use style="fill:#555555;stroke:#555555;stroke-width:0.8;" x="373.913938" xlink:href="#m2c182590ee" y="541.28"/>
      </g>
     </g>
     <g id="text_6">
      <!-- Aug -->
      <g style="fill:#555555;" transform="translate(358.503 558.808437)scale(0.14 -0.14)">
       <defs>
        <path d="M 2919 594 
Q 2688 288 2409 144 
Q 2131 0 1766 0 
Q 1125 0 706 504 
Q 288 1009 288 1791 
Q 288 2575 706 3076 
Q 1125 3578 1766 3578 
Q 2131 3578 2409 3434 
Q 2688 3291 2919 2981 
L 2919 3500 
L 4044 3500 
L 4044 353 
Q 4044 -491 3511 -936 
Q 2978 -1381 1966 -1381 
Q 1638 -1381 1331 -1331 
Q 1025 -1281 716 -1178 
L 716 -306 
Q 1009 -475 1290 -558 
Q 1572 -641 1856 -641 
Q 2406 -641 2662 -400 
Q 2919 -159 2919 353 
L 2919 594 
z
M 2181 2772 
Q 1834 2772 1640 2515 
Q 1447 2259 1447 1791 
Q 1447 1309 1634 1061 
Q 1822 813 2181 813 
Q 2531 813 2725 1069 
Q 2919 1325 2919 1791 
Q 2919 2259 2725 2515 
Q 2531 2772 2181 2772 
z
" id="DejaVuSans-Bold-67" transform="scale(0.015625)"/>
       </defs>
       <use xlink:href="#DejaVuSans-Bold-41"/>
       <use x="77.392578" xlink:href="#DejaVuSans-Bold-75"/>
       <use x="148.583984" xlink:href="#DejaVuSans-Bold-67"/>
      </g>
     </g>
    </g>
    <g id="xtick_7">
     <g id="line2d_7">
      <g>
       <use style="fill:#555555;stroke:#555555;stroke-width:0.8;" x="423.814765" xlink:href="#m2c182590ee" y="541.28"/>
      </g>
     </g>
     <g id="text_7">
      <!-- Sep -->
      <g style="fill:#555555;" transform="translate(409.015234 558.917812)scale(0.14 -0.14)">
       <defs>
        <path d="M 3834 4519 
L 3834 3531 
Q 3450 3703 3084 3790 
Q 2719 3878 2394 3878 
Q 1963 3878 1756 3759 
Q 1550 3641 1550 3391 
Q 1550 3203 1689 3098 
Q 1828 2994 2194 2919 
L 2706 2816 
Q 3484 2659 3812 2340 
Q 4141 2022 4141 1434 
Q 4141 663 3683 286 
Q 3225 -91 2284 -91 
Q 1841 -91 1394 -6 
Q 947 78 500 244 
L 500 1259 
Q 947 1022 1364 901 
Q 1781 781 2169 781 
Q 2563 781 2772 912 
Q 2981 1044 2981 1288 
Q 2981 1506 2839 1625 
Q 2697 1744 2272 1838 
L 1806 1941 
Q 1106 2091 782 2419 
Q 459 2747 459 3303 
Q 459 4000 909 4375 
Q 1359 4750 2203 4750 
Q 2588 4750 2994 4692 
Q 3400 4634 3834 4519 
z
" id="DejaVuSans-Bold-53" transform="scale(0.015625)"/>
        <path d="M 4031 1759 
L 4031 1441 
L 1416 1441 
Q 1456 1047 1700 850 
Q 1944 653 2381 653 
Q 2734 653 3104 758 
Q 3475 863 3866 1075 
L 3866 213 
Q 3469 63 3072 -14 
Q 2675 -91 2278 -91 
Q 1328 -91 801 392 
Q 275 875 275 1747 
Q 275 2603 792 3093 
Q 1309 3584 2216 3584 
Q 3041 3584 3536 3087 
Q 4031 2591 4031 1759 
z
M 2881 2131 
Q 2881 2450 2695 2645 
Q 2509 2841 2209 2841 
Q 1884 2841 1681 2658 
Q 1478 2475 1428 2131 
L 2881 2131 
z
" id="DejaVuSans-Bold-65" transform="scale(0.015625)"/>
       </defs>
       <use xlink:href="#DejaVuSans-Bold-53"/>
       <use x="72.021484" xlink:href="#DejaVuSans-Bold-65"/>
       <use x="139.84375" xlink:href="#DejaVuSans-Bold-70"/>
      </g>
     </g>
    </g>
    <g id="xtick_8">
     <g id="line2d_8">
      <g>
       <use style="fill:#555555;stroke:#555555;stroke-width:0.8;" x="472.105889" xlink:href="#m2c182590ee" y="541.28"/>
      </g>
     </g>
     <g id="text_8">
      <!-- Oct -->
      <g style="fill:#555555;" transform="translate(458.659327 558.917812)scale(0.14 -0.14)">
       <defs>
        <path d="M 2719 3878 
Q 2169 3878 1866 3472 
Q 1563 3066 1563 2328 
Q 1563 1594 1866 1187 
Q 2169 781 2719 781 
Q 3272 781 3575 1187 
Q 3878 1594 3878 2328 
Q 3878 3066 3575 3472 
Q 3272 3878 2719 3878 
z
M 2719 4750 
Q 3844 4750 4481 4106 
Q 5119 3463 5119 2328 
Q 5119 1197 4481 553 
Q 3844 -91 2719 -91 
Q 1597 -91 958 553 
Q 319 1197 319 2328 
Q 319 3463 958 4106 
Q 1597 4750 2719 4750 
z
" id="DejaVuSans-Bold-4f" transform="scale(0.015625)"/>
        <path d="M 3366 3391 
L 3366 2478 
Q 3138 2634 2908 2709 
Q 2678 2784 2431 2784 
Q 1963 2784 1702 2511 
Q 1441 2238 1441 1747 
Q 1441 1256 1702 982 
Q 1963 709 2431 709 
Q 2694 709 2930 787 
Q 3166 866 3366 1019 
L 3366 103 
Q 3103 6 2833 -42 
Q 2563 -91 2291 -91 
Q 1344 -91 809 395 
Q 275 881 275 1747 
Q 275 2613 809 3098 
Q 1344 3584 2291 3584 
Q 2566 3584 2833 3536 
Q 3100 3488 3366 3391 
z
" id="DejaVuSans-Bold-63" transform="scale(0.015625)"/>
        <path d="M 1759 4494 
L 1759 3500 
L 2913 3500 
L 2913 2700 
L 1759 2700 
L 1759 1216 
Q 1759 972 1856 886 
Q 1953 800 2241 800 
L 2816 800 
L 2816 0 
L 1856 0 
Q 1194 0 917 276 
Q 641 553 641 1216 
L 641 2700 
L 84 2700 
L 84 3500 
L 641 3500 
L 641 4494 
L 1759 4494 
z
" id="DejaVuSans-Bold-74" transform="scale(0.015625)"/>
       </defs>
       <use xlink:href="#DejaVuSans-Bold-4f"/>
       <use x="85.009766" xlink:href="#DejaVuSans-Bold-63"/>
       <use x="144.287109" xlink:href="#DejaVuSans-Bold-74"/>
      </g>
     </g>
    </g>
    <g id="xtick_9">
     <g id="line2d_9">
      <g>
       <use style="fill:#555555;stroke:#555555;stroke-width:0.8;" x="522.006717" xlink:href="#m2c182590ee" y="541.28"/>
      </g>
     </g>
     <g id="text_9">
      <!-- Nov -->
      <g style="fill:#555555;" transform="translate(506.776248 558.917812)scale(0.14 -0.14)">
       <defs>
        <path d="M 588 4666 
L 1931 4666 
L 3628 1466 
L 3628 4666 
L 4769 4666 
L 4769 0 
L 3425 0 
L 1728 3200 
L 1728 0 
L 588 0 
L 588 4666 
z
" id="DejaVuSans-Bold-4e" transform="scale(0.015625)"/>
        <path d="M 2203 2784 
Q 1831 2784 1636 2517 
Q 1441 2250 1441 1747 
Q 1441 1244 1636 976 
Q 1831 709 2203 709 
Q 2569 709 2762 976 
Q 2956 1244 2956 1747 
Q 2956 2250 2762 2517 
Q 2569 2784 2203 2784 
z
M 2203 3584 
Q 3106 3584 3614 3096 
Q 4122 2609 4122 1747 
Q 4122 884 3614 396 
Q 3106 -91 2203 -91 
Q 1297 -91 786 396 
Q 275 884 275 1747 
Q 275 2609 786 3096 
Q 1297 3584 2203 3584 
z
" id="DejaVuSans-Bold-6f" transform="scale(0.015625)"/>
        <path d="M 97 3500 
L 1216 3500 
L 2088 1081 
L 2956 3500 
L 4078 3500 
L 2700 0 
L 1472 0 
L 97 3500 
z
" id="DejaVuSans-Bold-76" transform="scale(0.015625)"/>
       </defs>
       <use xlink:href="#DejaVuSans-Bold-4e"/>
       <use x="83.691406" xlink:href="#DejaVuSans-Bold-6f"/>
       <use x="152.392578" xlink:href="#DejaVuSans-Bold-76"/>
      </g>
     </g>
    </g>
    <g id="xtick_10">
     <g id="line2d_10">
      <g>
       <use style="fill:#555555;stroke:#555555;stroke-width:0.8;" x="570.297841" xlink:href="#m2c182590ee" y="541.28"/>
      </g>
     </g>
     <g id="text_10">
      <!-- Dec -->
      <g style="fill:#555555;" transform="translate(555.589091 558.917812)scale(0.14 -0.14)">
       <defs>
        <path d="M 1791 3756 
L 1791 909 
L 2222 909 
Q 2959 909 3348 1275 
Q 3738 1641 3738 2338 
Q 3738 3031 3350 3393 
Q 2963 3756 2222 3756 
L 1791 3756 
z
M 588 4666 
L 1856 4666 
Q 2919 4666 3439 4514 
Q 3959 4363 4331 4000 
Q 4659 3684 4818 3271 
Q 4978 2859 4978 2338 
Q 4978 1809 4818 1395 
Q 4659 981 4331 666 
Q 3956 303 3431 151 
Q 2906 0 1856 0 
L 588 0 
L 588 4666 
z
" id="DejaVuSans-Bold-44" transform="scale(0.015625)"/>
       </defs>
       <use xlink:href="#DejaVuSans-Bold-44"/>
       <use x="83.007812" xlink:href="#DejaVuSans-Bold-65"/>
       <use x="150.830078" xlink:href="#DejaVuSans-Bold-63"/>
      </g>
     </g>
    </g>
    <g id="xtick_11">
     <g id="line2d_11">
      <g>
       <use style="fill:#555555;stroke:#555555;stroke-width:0.8;" x="620.198669" xlink:href="#m2c182590ee" y="541.28"/>
      </g>
     </g>
     <g id="text_11">
      <!-- Jan -->
      <g style="fill:#555555;" transform="translate(607.887419 558.917812)scale(0.14 -0.14)">
       <use xlink:href="#DejaVuSans-Bold-4a"/>
       <use x="37.207031" xlink:href="#DejaVuSans-Bold-61"/>
       <use x="104.6875" xlink:href="#DejaVuSans-Bold-6e"/>
      </g>
     </g>
    </g>
    <g id="xtick_12">
     <g id="line2d_12">
      <g>
       <use style="fill:#555555;stroke:#555555;stroke-width:0.8;" x="670.099496" xlink:href="#m2c182590ee" y="541.28"/>
      </g>
     </g>
     <g id="text_12">
      <!-- Feb -->
      <g style="fill:#555555;" transform="translate(655.839184 558.917812)scale(0.14 -0.14)">
       <defs>
        <path d="M 588 4666 
L 3834 4666 
L 3834 3756 
L 1791 3756 
L 1791 2888 
L 3713 2888 
L 3713 1978 
L 1791 1978 
L 1791 0 
L 588 0 
L 588 4666 
z
" id="DejaVuSans-Bold-46" transform="scale(0.015625)"/>
        <path d="M 2400 722 
Q 2759 722 2948 984 
Q 3138 1247 3138 1747 
Q 3138 2247 2948 2509 
Q 2759 2772 2400 2772 
Q 2041 2772 1848 2508 
Q 1656 2244 1656 1747 
Q 1656 1250 1848 986 
Q 2041 722 2400 722 
z
M 1656 2988 
Q 1888 3294 2169 3439 
Q 2450 3584 2816 3584 
Q 3463 3584 3878 3070 
Q 4294 2556 4294 1747 
Q 4294 938 3878 423 
Q 3463 -91 2816 -91 
Q 2450 -91 2169 54 
Q 1888 200 1656 506 
L 1656 0 
L 538 0 
L 538 4863 
L 1656 4863 
L 1656 2988 
z
" id="DejaVuSans-Bold-62" transform="scale(0.015625)"/>
       </defs>
       <use xlink:href="#DejaVuSans-Bold-46"/>
       <use x="64.310547" xlink:href="#DejaVuSans-Bold-65"/>
       <use x="132.132812" xlink:href="#DejaVuSans-Bold-62"/>
      </g>
     </g>
    </g>
    <g id="xtick_13">
     <g id="line2d_13">
      <g>
       <use style="fill:#555555;stroke:#555555;stroke-width:0.8;" x="715.171212" xlink:href="#m2c182590ee" y="541.28"/>
      </g>
     </g>
     <g id="text_13">
      <!-- Mar -->
      <g style="fill:#555555;" transform="translate(700.029337 558.917812)scale(0.14 -0.14)">
       <use xlink:href="#DejaVuSans-Bold-4d"/>
       <use x="99.511719" xlink:href="#DejaVuSans-Bold-61"/>
       <use x="166.992188" xlink:href="#DejaVuSans-Bold-72"/>
      </g>
     </g>
    </g>
    <g id="xtick_14">
     <g id="line2d_14">
      <g>
       <use style="fill:#555555;stroke:#555555;stroke-width:0.8;" x="765.07204" xlink:href="#m2c182590ee" y="541.28"/>
      </g>
     </g>
     <g id="text_14">
      <!-- Apr -->
      <g style="fill:#555555;" transform="translate(751.192352 558.917812)scale(0.14 -0.14)">
       <use xlink:href="#DejaVuSans-Bold-41"/>
       <use x="77.392578" xlink:href="#DejaVuSans-Bold-70"/>
       <use x="148.974609" xlink:href="#DejaVuSans-Bold-72"/>
      </g>
     </g>
    </g>
    <g id="xtick_15">
     <g id="line2d_15">
      <g>
       <use style="fill:#555555;stroke:#555555;stroke-width:0.8;" x="813.363163" xlink:href="#m2c182590ee" y="541.28"/>
      </g>
     </g>
     <g id="text_15">
      <!-- May -->
      <g style="fill:#555555;" transform="translate(797.328788 558.808437)scale(0.14 -0.14)">
       <use xlink:href="#DejaVuSans-Bold-4d"/>
       <use x="99.511719" xlink:href="#DejaVuSans-Bold-61"/>
       <use x="163.867188" xlink:href="#DejaVuSans-Bold-79"/>
      </g>
     </g>
    </g>
    <g id="xtick_16">
     <g id="line2d_16">
      <g>
       <use style="fill:#555555;stroke:#555555;stroke-width:0.8;" x="863.263991" xlink:href="#m2c182590ee" y="541.28"/>
      </g>
     </g>
     <g id="text_16">
      <!-- Jun -->
      <g style="fill:#555555;" transform="translate(850.693523 558.917812)scale(0.14 -0.14)">
       <use xlink:href="#DejaVuSans-Bold-4a"/>
       <use x="37.207031" xlink:href="#DejaVuSans-Bold-75"/>
       <use x="108.398438" xlink:href="#DejaVuSans-Bold-6e"/>
      </g>
     </g>
    </g>
    <g id="xtick_17">
     <g id="line2d_17">
      <g>
       <use style="fill:#555555;stroke:#555555;stroke-width:0.8;" x="911.555115" xlink:href="#m2c182590ee" y="541.28"/>
      </g>
     </g>
     <g id="text_17">
      <!-- Jul -->
      <g style="fill:#555555;" transform="translate(901.568084 558.917812)scale(0.14 -0.14)">
       <use xlink:href="#DejaVuSans-Bold-4a"/>
       <use x="37.207031" xlink:href="#DejaVuSans-Bold-75"/>
       <use x="108.398438" xlink:href="#DejaVuSans-Bold-6c"/>
      </g>
     </g>
    </g>
    <g id="xtick_18">
     <g id="line2d_18">
      <g>
       <use style="fill:#555555;stroke:#555555;stroke-width:0.8;" x="961.455943" xlink:href="#m2c182590ee" y="541.28"/>
      </g>
     </g>
     <g id="text_18">
      <!-- Aug -->
      <g style="fill:#555555;" transform="translate(946.045005 558.808437)scale(0.14 -0.14)">
       <use xlink:href="#DejaVuSans-Bold-41"/>
       <use x="77.392578" xlink:href="#DejaVuSans-Bold-75"/>
       <use x="148.583984" xlink:href="#DejaVuSans-Bold-67"/>
      </g>
     </g>
    </g>
    <g id="xtick_19">
     <g id="line2d_19">
      <g>
       <use style="fill:#555555;stroke:#555555;stroke-width:0.8;" x="1011.356771" xlink:href="#m2c182590ee" y="541.28"/>
      </g>
     </g>
     <g id="text_19">
      <!-- Sep -->
      <g style="fill:#555555;" transform="translate(996.557239 558.917812)scale(0.14 -0.14)">
       <use xlink:href="#DejaVuSans-Bold-53"/>
       <use x="72.021484" xlink:href="#DejaVuSans-Bold-65"/>
       <use x="139.84375" xlink:href="#DejaVuSans-Bold-70"/>
      </g>
     </g>
    </g>
    <g id="xtick_20">
     <g id="line2d_20">
      <g>
       <use style="fill:#555555;stroke:#555555;stroke-width:0.8;" x="1059.647894" xlink:href="#m2c182590ee" y="541.28"/>
      </g>
     </g>
     <g id="text_20">
      <!-- Oct -->
      <g style="fill:#555555;" transform="translate(1046.201332 558.917812)scale(0.14 -0.14)">
       <use xlink:href="#DejaVuSans-Bold-4f"/>
       <use x="85.009766" xlink:href="#DejaVuSans-Bold-63"/>
       <use x="144.287109" xlink:href="#DejaVuSans-Bold-74"/>
      </g>
     </g>
    </g>
    <g id="xtick_21">
     <g id="line2d_21">
      <g>
       <use style="fill:#555555;stroke:#555555;stroke-width:0.8;" x="1109.548722" xlink:href="#m2c182590ee" y="541.28"/>
      </g>
     </g>
     <g id="text_21">
      <!-- Nov -->
      <g style="fill:#555555;" transform="translate(1094.318253 558.917812)scale(0.14 -0.14)">
       <use xlink:href="#DejaVuSans-Bold-4e"/>
       <use x="83.691406" xlink:href="#DejaVuSans-Bold-6f"/>
       <use x="152.392578" xlink:href="#DejaVuSans-Bold-76"/>
      </g>
     </g>
    </g>
   </g>
   <g id="matplotlib.axis_2">
    <g id="ytick_1">
     <g id="line2d_22">
      <defs>
       <path d="M 0 0 
L -3.5 0 
" id="mcfbfa1ae0e" style="stroke:#555555;stroke-width:0.8;"/>
      </defs>
      <g>
       <use style="fill:#555555;stroke:#555555;stroke-width:0.8;" x="87.95" xlink:href="#mcfbfa1ae0e" y="519.485405"/>
      </g>
     </g>
     <g id="text_22">
      <!-- 0 -->
      <g style="fill:#555555;" transform="translate(71.209063 524.804311)scale(0.14 -0.14)">
       <defs>
        <path d="M 2944 2338 
Q 2944 3213 2780 3570 
Q 2616 3928 2228 3928 
Q 1841 3928 1675 3570 
Q 1509 3213 1509 2338 
Q 1509 1453 1675 1090 
Q 1841 728 2228 728 
Q 2613 728 2778 1090 
Q 2944 1453 2944 2338 
z
M 4147 2328 
Q 4147 1169 3647 539 
Q 3147 -91 2228 -91 
Q 1306 -91 806 539 
Q 306 1169 306 2328 
Q 306 3491 806 4120 
Q 1306 4750 2228 4750 
Q 3147 4750 3647 4120 
Q 4147 3491 4147 2328 
z
" id="DejaVuSans-Bold-30" transform="scale(0.015625)"/>
       </defs>
       <use xlink:href="#DejaVuSans-Bold-30"/>
      </g>
     </g>
    </g>
    <g id="ytick_2">
     <g id="line2d_23">
      <g>
       <use style="fill:#555555;stroke:#555555;stroke-width:0.8;" x="87.95" xlink:href="#mcfbfa1ae0e" y="448.872754"/>
      </g>
     </g>
     <g id="text_23">
      <!-- 2000 -->
      <g style="fill:#555555;" transform="translate(41.98625 454.19166)scale(0.14 -0.14)">
       <defs>
        <path d="M 1844 884 
L 3897 884 
L 3897 0 
L 506 0 
L 506 884 
L 2209 2388 
Q 2438 2594 2547 2791 
Q 2656 2988 2656 3200 
Q 2656 3528 2436 3728 
Q 2216 3928 1850 3928 
Q 1569 3928 1234 3808 
Q 900 3688 519 3450 
L 519 4475 
Q 925 4609 1322 4679 
Q 1719 4750 2100 4750 
Q 2938 4750 3402 4381 
Q 3866 4013 3866 3353 
Q 3866 2972 3669 2642 
Q 3472 2313 2841 1759 
L 1844 884 
z
" id="DejaVuSans-Bold-32" transform="scale(0.015625)"/>
       </defs>
       <use xlink:href="#DejaVuSans-Bold-32"/>
       <use x="69.580078" xlink:href="#DejaVuSans-Bold-30"/>
       <use x="139.160156" xlink:href="#DejaVuSans-Bold-30"/>
       <use x="208.740234" xlink:href="#DejaVuSans-Bold-30"/>
      </g>
     </g>
    </g>
    <g id="ytick_3">
     <g id="line2d_24">
      <g>
       <use style="fill:#555555;stroke:#555555;stroke-width:0.8;" x="87.95" xlink:href="#mcfbfa1ae0e" y="378.260103"/>
      </g>
     </g>
     <g id="text_24">
      <!-- 4000 -->
      <g style="fill:#555555;" transform="translate(41.98625 383.579009)scale(0.14 -0.14)">
       <defs>
        <path d="M 2356 3675 
L 1038 1722 
L 2356 1722 
L 2356 3675 
z
M 2156 4666 
L 3494 4666 
L 3494 1722 
L 4159 1722 
L 4159 850 
L 3494 850 
L 3494 0 
L 2356 0 
L 2356 850 
L 288 850 
L 288 1881 
L 2156 4666 
z
" id="DejaVuSans-Bold-34" transform="scale(0.015625)"/>
       </defs>
       <use xlink:href="#DejaVuSans-Bold-34"/>
       <use x="69.580078" xlink:href="#DejaVuSans-Bold-30"/>
       <use x="139.160156" xlink:href="#DejaVuSans-Bold-30"/>
       <use x="208.740234" xlink:href="#DejaVuSans-Bold-30"/>
      </g>
     </g>
    </g>
    <g id="ytick_4">
     <g id="line2d_25">
      <g>
       <use style="fill:#555555;stroke:#555555;stroke-width:0.8;" x="87.95" xlink:href="#mcfbfa1ae0e" y="307.647451"/>
      </g>
     </g>
     <g id="text_25">
      <!-- 6000 -->
      <g style="fill:#555555;" transform="translate(41.98625 312.966358)scale(0.14 -0.14)">
       <defs>
        <path d="M 2316 2303 
Q 2000 2303 1842 2098 
Q 1684 1894 1684 1484 
Q 1684 1075 1842 870 
Q 2000 666 2316 666 
Q 2634 666 2792 870 
Q 2950 1075 2950 1484 
Q 2950 1894 2792 2098 
Q 2634 2303 2316 2303 
z
M 3803 4544 
L 3803 3681 
Q 3506 3822 3243 3889 
Q 2981 3956 2731 3956 
Q 2194 3956 1894 3657 
Q 1594 3359 1544 2772 
Q 1750 2925 1990 3001 
Q 2231 3078 2516 3078 
Q 3231 3078 3670 2659 
Q 4109 2241 4109 1563 
Q 4109 813 3618 361 
Q 3128 -91 2303 -91 
Q 1394 -91 895 523 
Q 397 1138 397 2266 
Q 397 3422 980 4083 
Q 1563 4744 2578 4744 
Q 2900 4744 3203 4694 
Q 3506 4644 3803 4544 
z
" id="DejaVuSans-Bold-36" transform="scale(0.015625)"/>
       </defs>
       <use xlink:href="#DejaVuSans-Bold-36"/>
       <use x="69.580078" xlink:href="#DejaVuSans-Bold-30"/>
       <use x="139.160156" xlink:href="#DejaVuSans-Bold-30"/>
       <use x="208.740234" xlink:href="#DejaVuSans-Bold-30"/>
      </g>
     </g>
    </g>
    <g id="ytick_5">
     <g id="line2d_26">
      <g>
       <use style="fill:#555555;stroke:#555555;stroke-width:0.8;" x="87.95" xlink:href="#mcfbfa1ae0e" y="237.0348"/>
      </g>
     </g>
     <g id="text_26">
      <!-- 8000 -->
      <g style="fill:#555555;" transform="translate(41.98625 242.353706)scale(0.14 -0.14)">
       <defs>
        <path d="M 2228 2088 
Q 1891 2088 1709 1903 
Q 1528 1719 1528 1375 
Q 1528 1031 1709 848 
Q 1891 666 2228 666 
Q 2563 666 2741 848 
Q 2919 1031 2919 1375 
Q 2919 1722 2741 1905 
Q 2563 2088 2228 2088 
z
M 1350 2484 
Q 925 2613 709 2878 
Q 494 3144 494 3541 
Q 494 4131 934 4440 
Q 1375 4750 2228 4750 
Q 3075 4750 3515 4442 
Q 3956 4134 3956 3541 
Q 3956 3144 3739 2878 
Q 3522 2613 3097 2484 
Q 3572 2353 3814 2058 
Q 4056 1763 4056 1313 
Q 4056 619 3595 264 
Q 3134 -91 2228 -91 
Q 1319 -91 855 264 
Q 391 619 391 1313 
Q 391 1763 633 2058 
Q 875 2353 1350 2484 
z
M 1631 3419 
Q 1631 3141 1786 2991 
Q 1941 2841 2228 2841 
Q 2509 2841 2662 2991 
Q 2816 3141 2816 3419 
Q 2816 3697 2662 3845 
Q 2509 3994 2228 3994 
Q 1941 3994 1786 3844 
Q 1631 3694 1631 3419 
z
" id="DejaVuSans-Bold-38" transform="scale(0.015625)"/>
       </defs>
       <use xlink:href="#DejaVuSans-Bold-38"/>
       <use x="69.580078" xlink:href="#DejaVuSans-Bold-30"/>
       <use x="139.160156" xlink:href="#DejaVuSans-Bold-30"/>
       <use x="208.740234" xlink:href="#DejaVuSans-Bold-30"/>
      </g>
     </g>
    </g>
    <g id="ytick_6">
     <g id="line2d_27">
      <g>
       <use style="fill:#555555;stroke:#555555;stroke-width:0.8;" x="87.95" xlink:href="#mcfbfa1ae0e" y="166.422149"/>
      </g>
     </g>
     <g id="text_27">
      <!-- 10000 -->
      <g style="fill:#555555;" transform="translate(32.245313 171.741055)scale(0.14 -0.14)">
       <defs>
        <path d="M 750 831 
L 1813 831 
L 1813 3847 
L 722 3622 
L 722 4441 
L 1806 4666 
L 2950 4666 
L 2950 831 
L 4013 831 
L 4013 0 
L 750 0 
L 750 831 
z
" id="DejaVuSans-Bold-31" transform="scale(0.015625)"/>
       </defs>
       <use xlink:href="#DejaVuSans-Bold-31"/>
       <use x="69.580078" xlink:href="#DejaVuSans-Bold-30"/>
       <use x="139.160156" xlink:href="#DejaVuSans-Bold-30"/>
       <use x="208.740234" xlink:href="#DejaVuSans-Bold-30"/>
       <use x="278.320312" xlink:href="#DejaVuSans-Bold-30"/>
      </g>
     </g>
    </g>
    <g id="ytick_7">
     <g id="line2d_28">
      <g>
       <use style="fill:#555555;stroke:#555555;stroke-width:0.8;" x="87.95" xlink:href="#mcfbfa1ae0e" y="95.809498"/>
      </g>
     </g>
     <g id="text_28">
      <!-- 12000 -->
      <g style="fill:#555555;" transform="translate(32.245313 101.128404)scale(0.14 -0.14)">
       <use xlink:href="#DejaVuSans-Bold-31"/>
       <use x="69.580078" xlink:href="#DejaVuSans-Bold-32"/>
       <use x="139.160156" xlink:href="#DejaVuSans-Bold-30"/>
       <use x="208.740234" xlink:href="#DejaVuSans-Bold-30"/>
       <use x="278.320312" xlink:href="#DejaVuSans-Bold-30"/>
      </g>
     </g>
    </g>
    <g id="text_29">
     <!-- New Cases -->
     <g style="fill:#555555;" transform="translate(24.917813 333.23875)rotate(-90)scale(0.16 -0.16)">
      <defs>
       <path d="M 628 4666 
L 1478 4666 
L 3547 763 
L 3547 4666 
L 4159 4666 
L 4159 0 
L 3309 0 
L 1241 3903 
L 1241 0 
L 628 0 
L 628 4666 
z
" id="DejaVuSans-4e" transform="scale(0.015625)"/>
       <path d="M 3597 1894 
L 3597 1613 
L 953 1613 
Q 991 1019 1311 708 
Q 1631 397 2203 397 
Q 2534 397 2845 478 
Q 3156 559 3463 722 
L 3463 178 
Q 3153 47 2828 -22 
Q 2503 -91 2169 -91 
Q 1331 -91 842 396 
Q 353 884 353 1716 
Q 353 2575 817 3079 
Q 1281 3584 2069 3584 
Q 2775 3584 3186 3129 
Q 3597 2675 3597 1894 
z
M 3022 2063 
Q 3016 2534 2758 2815 
Q 2500 3097 2075 3097 
Q 1594 3097 1305 2825 
Q 1016 2553 972 2059 
L 3022 2063 
z
" id="DejaVuSans-65" transform="scale(0.015625)"/>
       <path d="M 269 3500 
L 844 3500 
L 1563 769 
L 2278 3500 
L 2956 3500 
L 3675 769 
L 4391 3500 
L 4966 3500 
L 4050 0 
L 3372 0 
L 2619 2869 
L 1863 0 
L 1184 0 
L 269 3500 
z
" id="DejaVuSans-77" transform="scale(0.015625)"/>
       <path id="DejaVuSans-20" transform="scale(0.015625)"/>
       <path d="M 4122 4306 
L 4122 3641 
Q 3803 3938 3442 4084 
Q 3081 4231 2675 4231 
Q 1875 4231 1450 3742 
Q 1025 3253 1025 2328 
Q 1025 1406 1450 917 
Q 1875 428 2675 428 
Q 3081 428 3442 575 
Q 3803 722 4122 1019 
L 4122 359 
Q 3791 134 3420 21 
Q 3050 -91 2638 -91 
Q 1578 -91 968 557 
Q 359 1206 359 2328 
Q 359 3453 968 4101 
Q 1578 4750 2638 4750 
Q 3056 4750 3426 4639 
Q 3797 4528 4122 4306 
z
" id="DejaVuSans-43" transform="scale(0.015625)"/>
       <path d="M 2194 1759 
Q 1497 1759 1228 1600 
Q 959 1441 959 1056 
Q 959 750 1161 570 
Q 1363 391 1709 391 
Q 2188 391 2477 730 
Q 2766 1069 2766 1631 
L 2766 1759 
L 2194 1759 
z
M 3341 1997 
L 3341 0 
L 2766 0 
L 2766 531 
Q 2569 213 2275 61 
Q 1981 -91 1556 -91 
Q 1019 -91 701 211 
Q 384 513 384 1019 
Q 384 1609 779 1909 
Q 1175 2209 1959 2209 
L 2766 2209 
L 2766 2266 
Q 2766 2663 2505 2880 
Q 2244 3097 1772 3097 
Q 1472 3097 1187 3025 
Q 903 2953 641 2809 
L 641 3341 
Q 956 3463 1253 3523 
Q 1550 3584 1831 3584 
Q 2591 3584 2966 3190 
Q 3341 2797 3341 1997 
z
" id="DejaVuSans-61" transform="scale(0.015625)"/>
       <path d="M 2834 3397 
L 2834 2853 
Q 2591 2978 2328 3040 
Q 2066 3103 1784 3103 
Q 1356 3103 1142 2972 
Q 928 2841 928 2578 
Q 928 2378 1081 2264 
Q 1234 2150 1697 2047 
L 1894 2003 
Q 2506 1872 2764 1633 
Q 3022 1394 3022 966 
Q 3022 478 2636 193 
Q 2250 -91 1575 -91 
Q 1294 -91 989 -36 
Q 684 19 347 128 
L 347 722 
Q 666 556 975 473 
Q 1284 391 1588 391 
Q 1994 391 2212 530 
Q 2431 669 2431 922 
Q 2431 1156 2273 1281 
Q 2116 1406 1581 1522 
L 1381 1569 
Q 847 1681 609 1914 
Q 372 2147 372 2553 
Q 372 3047 722 3315 
Q 1072 3584 1716 3584 
Q 2034 3584 2315 3537 
Q 2597 3491 2834 3397 
z
" id="DejaVuSans-73" transform="scale(0.015625)"/>
      </defs>
      <use xlink:href="#DejaVuSans-4e"/>
      <use x="74.804688" xlink:href="#DejaVuSans-65"/>
      <use x="136.328125" xlink:href="#DejaVuSans-77"/>
      <use x="218.115234" xlink:href="#DejaVuSans-20"/>
      <use x="249.902344" xlink:href="#DejaVuSans-43"/>
      <use x="319.726562" xlink:href="#DejaVuSans-61"/>
      <use x="381.005859" xlink:href="#DejaVuSans-73"/>
      <use x="433.105469" xlink:href="#DejaVuSans-65"/>
      <use x="494.628906" xlink:href="#DejaVuSans-73"/>
     </g>
    </g>
   </g>
   <g id="line2d_29">
    <path clip-path="url(#p689f8782a3)" d="M 135.677727 518.073152 
L 137.287431 517.720089 
L 138.897136 518.355603 
L 140.50684 517.331719 
L 142.116544 514.895583 
L 143.726248 515.142727 
L 145.335952 515.001502 
L 146.945656 515.49579 
L 148.55536 511.75332 
L 150.165064 513.377411 
L 151.774769 509.952697 
L 153.384473 509.317183 
L 154.994177 507.23411 
L 156.603881 505.5041 
L 158.213585 500.667134 
L 159.823289 496.995276 
L 161.432993 498.125078 
L 163.042697 499.961007 
L 164.652402 493.040967 
L 166.262106 489.722173 
L 169.481514 478.282923 
L 171.091218 479.024356 
L 172.700922 480.930898 
L 174.310626 488.662983 
L 175.92033 490.03993 
L 177.530034 483.896629 
L 179.139739 481.248655 
L 180.749443 483.472953 
L 182.359147 484.108467 
L 183.968851 480.683753 
L 187.188259 491.875859 
L 188.797963 485.626639 
L 190.407667 476.835364 
L 192.017372 472.633911 
L 193.627076 473.551876 
L 195.23678 478.141698 
L 196.846484 485.626639 
L 198.456188 489.051352 
L 200.065892 493.711787 
L 201.675596 481.742943 
L 203.2853 475.917399 
L 204.895005 477.612103 
L 206.504709 483.367034 
L 208.114413 493.076274 
L 209.724117 494.206076 
L 211.333821 494.488527 
L 212.943525 488.627677 
L 214.553229 491.063813 
L 216.162933 496.642212 
L 217.772638 496.500987 
L 219.382342 505.186343 
L 220.992046 512.671284 
L 222.60175 505.786551 
L 224.211454 501.585098 
L 225.821158 502.608982 
L 227.430862 504.056541 
L 229.040566 507.551867 
L 230.650271 512.388834 
L 232.259975 508.222687 
L 233.869679 508.222687 
L 235.479383 506.739822 
L 237.089087 508.222687 
L 238.698791 509.317183 
L 240.308495 510.941274 
L 241.918199 513.165573 
L 243.527904 512.600672 
L 245.137608 511.612095 
L 246.747312 509.811472 
L 248.357016 512.353527 
L 249.96672 512.635978 
L 251.576424 515.072114 
L 253.186128 514.260069 
L 254.795832 515.566403 
L 256.405537 512.883122 
L 258.015241 510.517598 
L 259.624945 512.989041 
L 262.844353 513.377411 
L 264.454057 511.965158 
L 266.063761 514.930889 
L 267.673465 512.635978 
L 269.28317 513.200879 
L 270.892874 513.200879 
L 272.502578 514.507213 
L 274.112282 513.271492 
L 275.721986 515.813547 
L 277.33169 516.131304 
L 278.941394 516.201917 
L 280.551098 512.847816 
L 282.160803 511.823933 
L 283.770507 512.777203 
L 285.380211 511.047193 
L 286.989915 513.624555 
L 288.599619 513.695168 
L 290.209323 513.09496 
L 291.819027 513.76578 
L 293.428731 512.176996 
L 295.038436 513.09496 
L 296.64814 514.401294 
L 298.257844 513.871699 
L 299.867548 514.754358 
L 301.477252 515.49579 
L 303.086956 515.107421 
L 306.306364 516.307836 
L 307.916069 516.131304 
L 309.525773 517.084575 
L 311.135477 517.013962 
L 312.745181 516.660899 
L 314.354885 515.601709 
L 317.574293 516.766818 
L 319.183997 517.155188 
L 320.793702 516.802124 
L 322.403406 517.472945 
L 324.01311 517.296413 
L 325.622814 516.837431 
L 327.232518 516.802124 
L 328.842222 517.190494 
L 330.451926 516.94335 
L 332.06163 518.037846 
L 333.671335 518.28499 
L 335.281039 517.472945 
L 338.500447 517.190494 
L 340.110151 516.519674 
L 341.719855 516.131304 
L 343.329559 516.94335 
L 344.939263 516.025385 
L 348.158672 515.283952 
L 349.768376 515.637016 
L 351.37808 514.365988 
L 352.987784 514.365988 
L 354.597488 513.024348 
L 356.207192 513.518636 
L 357.816896 513.48333 
L 361.036305 514.012925 
L 364.255713 511.965158 
L 365.865417 512.106383 
L 367.475121 511.576788 
L 369.084825 510.729436 
L 370.694529 507.445948 
L 372.304233 507.445948 
L 373.913938 504.268379 
L 375.523642 506.810434 
L 377.133346 506.351452 
L 378.74305 502.291225 
L 380.352754 504.374298 
L 381.962458 498.125078 
L 383.572162 501.232035 
L 385.181866 502.397144 
L 386.791571 499.113655 
L 388.401275 491.699327 
L 390.010979 497.595483 
L 391.620683 496.500987 
L 393.230387 499.148962 
L 394.840091 497.348339 
L 396.449795 496.324456 
L 398.059499 501.867549 
L 399.669204 502.326531 
L 401.278908 502.079387 
L 402.888612 499.961007 
L 404.498316 500.737746 
L 406.10802 500.667134 
L 407.717724 501.585098 
L 409.327428 503.421027 
L 410.937132 499.254881 
L 412.546837 504.797974 
L 414.156541 499.290187 
L 415.766245 501.549792 
L 417.375949 501.796936 
L 420.595357 501.620404 
L 422.205061 500.914278 
L 423.814765 502.997351 
L 425.42447 494.064851 
L 427.034174 498.336916 
L 428.643878 493.252805 
L 430.253582 496.5716 
L 431.863286 487.003586 
L 433.47299 491.416876 
L 436.692398 479.236194 
L 438.302103 489.934011 
L 439.911807 474.611065 
L 441.521511 476.341075 
L 443.131215 481.107429 
L 444.740919 473.693101 
L 446.350623 470.903901 
L 447.960327 465.219583 
L 451.179736 450.461539 
L 452.78944 452.685837 
L 454.399144 454.380541 
L 456.008848 441.423119 
L 457.618552 440.505155 
L 459.228256 437.080441 
L 460.83796 429.948563 
L 462.447664 421.898721 
L 464.057369 424.158326 
L 465.667073 414.41378 
L 467.276777 417.026448 
L 468.886481 413.425203 
L 470.496185 403.468819 
L 472.105889 404.633928 
L 473.715593 385.180142 
L 475.325297 380.555014 
L 476.935002 378.86031 
L 478.544706 358.665092 
L 480.15441 359.93612 
L 481.764114 343.942354 
L 483.373818 315.273618 
L 484.983522 309.059704 
L 486.593226 290.771028 
L 488.20293 295.572688 
L 489.812635 279.296472 
L 491.422339 260.584119 
L 493.032043 263.479238 
L 494.641747 244.908111 
L 496.251451 238.76481 
L 497.861155 233.327636 
L 499.470859 231.809464 
L 501.080563 237.529089 
L 502.690268 231.950689 
L 505.909676 192.866587 
L 507.51938 167.410726 
L 509.129084 214.368139 
L 510.738788 160.490686 
L 512.348492 155.724332 
L 513.958196 157.030666 
L 515.567901 234.316213 
L 517.177605 157.772099 
L 518.787309 128.785606 
L 520.397013 174.507297 
L 522.006717 213.061805 
L 523.616421 227.678624 
L 525.226125 246.285057 
L 526.835829 251.15733 
L 528.445533 274.247667 
L 530.055238 264.361896 
L 531.664942 285.898755 
L 534.88435 354.640171 
L 536.494054 355.522829 
L 538.103758 329.431454 
L 539.713462 321.099161 
L 541.323166 305.246621 
L 542.932871 311.284003 
L 544.542575 328.195733 
L 547.761983 368.374331 
L 549.371687 357.676515 
L 550.981391 318.733638 
L 552.591095 310.048282 
L 554.200799 307.506226 
L 555.810504 330.314112 
L 557.420208 336.563332 
L 559.029912 380.131338 
L 560.639616 346.131346 
L 562.24932 361.736742 
L 563.859024 316.438726 
L 565.468728 361.842661 
L 567.078432 323.005703 
L 568.688137 358.064884 
L 570.297841 376.918462 
L 571.907545 346.201959 
L 573.517249 321.98182 
L 575.126953 311.495841 
L 576.736657 288.970405 
L 578.346361 280.779338 
L 579.956065 269.022331 
L 581.56577 303.445999 
L 583.175474 288.44081 
L 584.785178 212.002615 
L 586.394882 207.483406 
L 588.004586 197.421103 
L 589.61429 170.764827 
L 591.223994 220.758584 
L 592.833698 285.36916 
L 594.443403 125.254973 
L 596.053107 68.341176 
L 597.662811 97.362976 
L 599.272515 87.900881 
L 600.882219 60.609091 
L 602.491923 125.608036 
L 604.101627 172.706675 
L 605.711331 152.617376 
L 607.321036 113.674498 
L 608.93074 113.639192 
L 610.540444 172.953819 
L 612.150148 201.551943 
L 613.759852 258.289208 
L 615.369556 254.052449 
L 616.97926 185.875934 
L 618.588964 178.285074 
L 620.198669 231.068031 
L 621.808373 216.239374 
L 623.418077 258.359821 
L 625.027781 285.333854 
L 626.637485 294.619417 
L 628.247189 269.198863 
L 629.856893 177.790786 
L 631.466597 233.080492 
L 634.686006 286.393043 
L 636.29571 327.136543 
L 637.905414 345.001544 
L 639.515118 304.434576 
L 641.124822 290.029595 
L 642.734526 306.764793 
L 644.34423 332.538411 
L 645.953935 322.405495 
L 647.563639 350.579943 
L 649.173343 367.844737 
L 650.783047 322.864478 
L 652.392751 314.532185 
L 654.002455 316.650564 
L 655.612159 327.207156 
L 657.221863 347.15523 
L 658.831568 375.11784 
L 660.441272 379.707662 
L 662.050976 352.663017 
L 663.66068 353.863432 
L 665.270384 364.243491 
L 666.880088 372.187415 
L 668.489792 389.664046 
L 670.099496 405.163523 
L 671.709201 394.218562 
L 673.318905 377.624589 
L 674.928609 371.234144 
L 676.538313 367.067997 
L 678.148017 375.11784 
L 679.757721 381.155221 
L 681.367425 439.799028 
L 682.977129 457.381578 
L 684.586834 407.458434 
L 686.196538 363.184302 
L 687.806242 366.714934 
L 689.415946 372.187415 
L 691.02565 398.56124 
L 692.635354 419.144828 
L 694.245058 424.511389 
L 695.854762 400.5737 
L 697.464467 358.559173 
L 699.074171 354.393027 
L 700.683875 359.229993 
L 702.293579 354.640171 
L 703.903283 371.94027 
L 705.512987 385.003611 
L 707.122691 365.267375 
L 708.732395 343.448066 
L 710.342099 339.811514 
L 711.951804 345.70767 
L 713.561508 355.875892 
L 715.171212 387.12199 
L 716.780916 379.495824 
L 718.39062 342.141732 
L 720.000324 375.011921 
L 721.610028 354.887315 
L 723.219732 331.938203 
L 724.829437 360.324489 
L 726.439141 382.355636 
L 728.048845 368.162494 
L 729.658549 333.809439 
L 731.268253 332.467798 
L 732.877957 308.53011 
L 734.487661 294.407579 
L 737.70707 325.230002 
L 739.316774 345.001544 
L 740.926478 310.895633 
L 742.536182 303.022323 
L 744.145886 260.054524 
L 745.75559 251.086718 
L 748.974998 297.055554 
L 750.584703 321.487531 
L 752.194407 252.710809 
L 753.804111 248.050374 
L 755.413815 252.640196 
L 757.023519 209.425253 
L 758.633223 255.747153 
L 760.242927 280.073211 
L 761.852631 312.766869 
L 763.462336 250.133447 
L 765.07204 243.425245 
L 766.681744 264.785572 
L 768.291448 251.263249 
L 769.901152 277.213399 
L 771.510856 331.161464 
L 773.12056 323.217541 
L 774.730264 294.619417 
L 776.339969 245.473012 
L 777.949673 249.038951 
L 779.559377 249.074257 
L 781.169081 232.021302 
L 782.778785 284.415889 
L 784.388489 282.156284 
L 785.998193 327.418994 
L 787.607897 212.53221 
L 789.217602 205.61217 
L 790.827306 228.1023 
L 792.43701 218.604898 
L 794.046714 266.762726 
L 795.656418 278.660958 
L 797.266122 220.370214 
L 798.875826 181.286112 
L 800.48553 193.396182 
L 802.095235 234.845808 
L 803.704939 236.328674 
L 805.314643 299.668222 
L 806.924347 332.185348 
L 808.534051 214.050382 
L 810.143755 262.349436 
L 811.753459 245.367093 
L 813.363163 315.308924 
L 814.972868 326.677561 
L 816.582572 195.161498 
L 818.192276 245.578931 
L 821.411684 281.061788 
L 823.021388 256.135522 
L 824.631092 257.371244 
L 827.850501 312.555031 
L 829.460205 324.417956 
L 831.069909 295.607994 
L 832.679613 307.223775 
L 834.289317 323.782442 
L 835.899021 361.595517 
L 837.508725 363.290221 
L 839.118429 418.579927 
L 840.728134 331.479221 
L 842.337838 358.912236 
L 843.947542 356.511406 
L 845.557246 373.38783 
L 847.16695 407.458434 
L 848.776654 398.631853 
L 850.386358 423.169749 
L 851.996062 431.784492 
L 853.605767 422.816686 
L 855.215471 400.326556 
L 856.825175 383.944421 
L 858.434879 401.385746 
L 860.044583 426.912219 
L 861.654287 448.166627 
L 863.263991 431.925718 
L 864.873695 429.136518 
L 866.4834 422.00464 
L 868.093104 434.926755 
L 869.702808 444.706607 
L 871.312512 464.125087 
L 872.922216 467.655719 
L 874.53192 468.785522 
L 876.141624 457.664029 
L 877.751328 463.80733 
L 879.361033 470.515532 
L 880.970737 475.740868 
L 882.580441 482.73152 
L 884.190145 488.451145 
L 885.799849 482.766827 
L 887.409553 483.331728 
L 889.019257 482.096006 
L 890.628961 488.062775 
L 892.238665 495.053428 
L 893.84837 494.417914 
L 895.458074 499.396106 
L 897.067778 494.84159 
L 898.677482 496.006699 
L 900.287186 494.912203 
L 901.89689 496.677519 
L 903.506594 499.890394 
L 905.116298 501.796936 
L 906.726003 499.466719 
L 908.335707 500.843665 
L 909.945411 497.030582 
L 911.555115 490.463606 
L 913.164819 486.297459 
L 914.774523 479.94232 
L 916.384227 477.117814 
L 917.993931 466.102241 
L 919.603636 442.093939 
L 921.21334 392.347327 
L 922.823044 329.007778 
L 924.432748 276.471966 
L 926.042452 158.513532 
L 929.26186 221.817774 
L 930.871564 244.025453 
L 932.481269 152.087781 
L 934.090973 131.892562 
L 935.700677 121.936179 
L 937.310381 129.315201 
L 938.920085 159.925785 
L 940.529789 206.177072 
L 942.139493 280.249743 
L 943.749197 277.38993 
L 945.358902 299.421078 
L 946.968606 294.548805 
L 948.57831 333.809439 
L 950.188014 356.829163 
L 951.797718 384.120953 
L 953.407422 379.001535 
L 955.017126 397.89042 
L 956.62683 362.301643 
L 958.236535 398.278789 
L 959.846239 415.614195 
L 961.455943 437.821874 
L 963.065647 445.377428 
L 964.675351 441.458426 
L 966.285055 420.874838 
L 967.894759 401.880034 
L 969.504463 416.885223 
L 971.114168 434.856143 
L 972.723872 438.033712 
L 974.333576 447.56642 
L 975.94328 443.153129 
L 977.552984 444.671301 
L 979.162688 428.854067 
L 980.772392 425.429354 
L 982.382096 438.139631 
L 983.991801 439.657803 
L 985.601505 440.540461 
L 987.211209 438.104325 
L 988.820913 421.157288 
L 990.430617 431.784492 
L 992.040321 441.529038 
L 993.650025 433.337971 
L 995.259729 432.561231 
L 996.869434 435.385738 
L 998.479138 432.631844 
L 1000.088842 420.062792 
L 1001.698546 427.229976 
L 1003.30825 420.698306 
L 1004.917954 432.984907 
L 1008.137362 442.835372 
L 1009.747067 439.163514 
L 1011.356771 420.980757 
L 1012.966475 421.016063 
L 1014.576179 430.160401 
L 1016.185883 422.463622 
L 1017.795587 436.233089 
L 1019.405291 444.847833 
L 1021.014995 432.208168 
L 1022.6247 420.839531 
L 1024.234404 436.268396 
L 1025.844108 425.005678 
L 1027.453812 441.529038 
L 1029.063516 445.518653 
L 1030.67322 457.628723 
L 1032.282924 448.837448 
L 1033.892628 435.632882 
L 1035.502333 445.695185 
L 1037.112037 444.424157 
L 1038.721741 448.378465 
L 1040.331445 460.665067 
L 1041.941149 471.715947 
L 1043.550853 460.770986 
L 1045.160557 452.615224 
L 1046.770261 455.545649 
L 1048.379966 459.67649 
L 1049.98967 462.995284 
L 1051.599374 463.03059 
L 1053.209078 470.515532 
L 1054.818782 458.829138 
L 1056.428486 457.664029 
L 1058.03819 459.358733 
L 1059.647894 458.864444 
L 1061.257598 460.559148 
L 1062.867303 462.924672 
L 1064.477007 462.642221 
L 1066.086711 452.332774 
L 1067.696415 452.191549 
L 1069.306119 422.993217 
L 1070.915823 421.686883 
L 1072.525527 431.784492 
L 1074.135231 422.816686 
L 1075.744936 439.97556 
L 1077.35464 417.591349 
L 1078.964344 388.145874 
L 1080.574048 391.040993 
L 1082.183752 388.887307 
L 1083.793456 389.028532 
L 1085.40316 389.946496 
L 1087.012864 400.679619 
L 1088.622569 380.731545 
L 1090.232273 356.75855 
L 1090.232273 356.75855 
" style="fill:none;stroke:#000000;stroke-dasharray:1.5,2.475;stroke-dashoffset:0;stroke-opacity:0.5;stroke-width:1.5;"/>
   </g>
   <g id="line2d_30">
    <path clip-path="url(#p689f8782a3)" d="M 135.677727 518.390909 
L 138.897136 517.367026 
L 145.335952 514.719051 
L 146.945656 513.942312 
L 148.55536 513.024348 
L 150.165064 511.859239 
L 151.774769 510.446986 
L 153.384473 508.646363 
L 154.994177 506.492677 
L 156.603881 504.091847 
L 163.042697 495.477104 
L 164.652402 492.44076 
L 167.87181 485.414801 
L 169.481514 483.11989 
L 171.091218 482.660908 
L 172.700922 483.296421 
L 174.310626 484.320305 
L 175.92033 485.026431 
L 177.530034 484.955819 
L 180.749443 483.508259 
L 182.359147 483.755404 
L 183.968851 484.602755 
L 185.578555 485.026431 
L 187.188259 484.249692 
L 188.797963 482.307844 
L 190.407667 479.977627 
L 192.017372 478.282923 
L 193.627076 478.212311 
L 195.23678 480.401303 
L 196.846484 483.155196 
L 198.456188 484.885206 
L 200.065892 484.920512 
L 201.675596 483.720097 
L 203.2853 482.802133 
L 204.895005 483.261115 
L 206.504709 485.238269 
L 208.114413 488.098082 
L 209.724117 490.498912 
L 211.333821 492.05239 
L 212.943525 492.864436 
L 214.553229 494.029544 
L 216.162933 496.606906 
L 219.382342 502.679594 
L 220.992046 504.515523 
L 222.60175 505.045118 
L 225.821158 505.151037 
L 227.430862 505.645326 
L 229.040566 506.881047 
L 230.650271 507.940237 
L 232.259975 508.434525 
L 235.479383 508.540444 
L 237.089087 508.858201 
L 240.308495 510.658824 
L 241.918199 511.329644 
L 243.527904 511.682707 
L 246.747312 511.965158 
L 248.357016 512.318221 
L 251.576424 513.624555 
L 253.186128 513.871699 
L 254.795832 513.695168 
L 258.015241 512.918429 
L 259.624945 512.706591 
L 261.234649 512.777203 
L 264.454057 513.200879 
L 269.28317 513.412717 
L 272.502578 514.012925 
L 274.112282 514.54252 
L 275.721986 514.860277 
L 277.33169 514.860277 
L 278.941394 514.471907 
L 282.160803 513.09496 
L 283.770507 512.706591 
L 285.380211 512.600672 
L 288.599619 513.059654 
L 293.428731 513.306798 
L 295.038436 513.48333 
L 298.257844 514.224763 
L 301.477252 515.072114 
L 307.916069 516.378449 
L 311.135477 516.55498 
L 314.354885 516.484368 
L 315.964589 516.484368 
L 324.01311 517.084575 
L 327.232518 517.084575 
L 333.671335 517.649476 
L 336.890743 517.331719 
L 343.329559 516.27253 
L 346.548967 515.742935 
L 348.158672 515.460484 
L 352.987784 514.15415 
L 354.597488 513.836393 
L 357.816896 513.553942 
L 361.036305 513.236186 
L 362.646009 512.918429 
L 364.255713 512.42414 
L 365.865417 511.718014 
L 367.475121 510.835355 
L 370.694529 508.469832 
L 373.913938 506.351452 
L 375.523642 505.610019 
L 381.962458 501.655711 
L 383.572162 500.384683 
L 385.181866 499.396106 
L 386.791571 498.160385 
L 388.401275 497.454258 
L 390.010979 496.995276 
L 391.620683 496.85405 
L 393.230387 497.383645 
L 394.840091 498.336916 
L 398.059499 499.996313 
L 399.669204 500.631827 
L 401.278908 501.020197 
L 402.888612 501.161422 
L 406.10802 501.126116 
L 407.717724 501.443873 
L 410.937132 501.691017 
L 414.156541 501.549792 
L 415.766245 501.443873 
L 417.375949 501.549792 
L 418.985653 501.514485 
L 420.595357 501.161422 
L 422.205061 500.525908 
L 425.42447 498.089772 
L 430.253582 492.687904 
L 435.082694 486.19154 
L 436.692398 483.755404 
L 438.302103 482.0607 
L 439.911807 480.012933 
L 441.521511 478.177004 
L 443.131215 476.093931 
L 444.740919 472.775136 
L 446.350623 468.962053 
L 449.570031 459.782409 
L 451.179736 455.580956 
L 456.008848 444.459463 
L 459.228256 435.244512 
L 460.83796 430.125095 
L 464.057369 421.863415 
L 465.667073 417.944413 
L 467.276777 414.484393 
L 468.886481 409.965183 
L 470.496185 404.139639 
L 472.105889 397.749194 
L 476.935002 373.034766 
L 478.544706 362.513481 
L 480.15441 351.144845 
L 484.983522 311.036859 
L 486.593226 298.503113 
L 489.812635 277.954832 
L 493.032043 258.359821 
L 494.641747 249.321401 
L 496.251451 242.683812 
L 499.470859 233.645393 
L 501.080563 228.420057 
L 504.299972 211.155263 
L 507.51938 189.830243 
L 509.129084 180.43876 
L 510.738788 177.755479 
L 512.348492 175.848938 
L 513.958196 174.118928 
L 515.567901 171.470953 
L 517.177605 172.671368 
L 518.787309 176.837515 
L 520.397013 187.146962 
L 522.006717 200.598672 
L 523.616421 220.864503 
L 525.226125 239.223792 
L 526.835829 253.063872 
L 528.445533 265.738843 
L 530.055238 280.955869 
L 533.274646 314.885248 
L 534.88435 327.171849 
L 536.494054 332.785555 
L 538.103758 331.020239 
L 539.713462 325.72429 
L 541.323166 322.158351 
L 542.932871 324.806326 
L 544.542575 332.679636 
L 546.152279 339.634982 
L 547.761983 342.671326 
L 549.371687 339.246613 
L 552.591095 326.077353 
L 554.200799 326.253885 
L 555.810504 331.337996 
L 557.420208 341.047235 
L 559.029912 346.837473 
L 560.639616 350.438718 
L 563.859024 345.884202 
L 565.468728 345.213382 
L 567.078432 347.649518 
L 568.688137 348.461564 
L 570.297841 347.543599 
L 571.907545 338.787631 
L 573.517249 327.101237 
L 575.126953 311.319309 
L 576.736657 298.4325 
L 578.346361 290.523883 
L 579.956065 281.979753 
L 581.56577 271.317242 
L 583.175474 256.629811 
L 584.785178 236.893575 
L 586.394882 219.875926 
L 588.004586 211.790777 
L 589.61429 204.906044 
L 591.223994 196.326607 
L 592.833698 179.697327 
L 594.443403 154.382692 
L 596.053107 125.890487 
L 597.662811 104.035871 
L 599.272515 95.456434 
L 600.882219 104.706692 
L 602.491923 117.98187 
L 604.101627 127.373353 
L 607.321036 143.614262 
L 608.93074 155.865557 
L 612.150148 195.020273 
L 613.759852 210.237299 
L 615.369556 217.757546 
L 616.97926 216.062843 
L 618.588964 215.921617 
L 620.198669 221.252873 
L 621.808373 234.563357 
L 623.418077 251.792844 
L 625.027781 259.419011 
L 626.637485 258.112677 
L 629.856893 247.097103 
L 631.466597 250.451204 
L 633.076302 264.679653 
L 636.29571 301.89252 
L 637.905414 310.366038 
L 639.515118 313.402382 
L 641.124822 313.61422 
L 642.734526 315.979744 
L 644.34423 323.005703 
L 645.953935 331.373302 
L 647.563639 336.881089 
L 649.173343 336.951702 
L 650.783047 332.962087 
L 652.392751 329.996356 
L 654.002455 330.773095 
L 655.612159 336.987008 
L 657.221863 347.049311 
L 658.831568 355.840586 
L 660.441272 361.242454 
L 662.050976 363.502059 
L 663.66068 365.4086 
L 665.270384 369.53944 
L 666.880088 376.106417 
L 668.489792 383.202988 
L 670.099496 386.945459 
L 671.709201 386.098107 
L 673.318905 382.461555 
L 674.928609 378.260103 
L 676.538313 379.637049 
L 678.148017 388.640162 
L 679.757721 400.467781 
L 681.367425 408.764768 
L 682.977129 410.035796 
L 684.586834 403.115756 
L 686.196538 393.688967 
L 687.806242 386.627702 
L 689.415946 387.298522 
L 691.02565 394.359787 
L 692.635354 399.726349 
L 694.245058 398.278789 
L 695.854762 390.476091 
L 697.464467 378.471941 
L 699.074171 368.339025 
L 700.683875 363.713896 
L 702.293579 363.784509 
L 703.903283 365.373294 
L 705.512987 364.34941 
L 707.122691 360.289183 
L 708.732395 355.522829 
L 710.342099 353.545675 
L 711.951804 355.381604 
L 713.561508 359.053462 
L 715.171212 364.208185 
L 716.780916 366.044114 
L 718.39062 363.360833 
L 720.000324 359.653669 
L 721.610028 357.041001 
L 723.219732 357.252839 
L 724.829437 358.594479 
L 726.439141 357.041001 
L 728.048845 351.886277 
L 729.658549 342.24765 
L 731.268253 329.713905 
L 732.877957 319.157314 
L 734.487661 315.273618 
L 736.097365 315.803213 
L 737.70707 317.321385 
L 739.316774 315.026473 
L 740.926478 306.8001 
L 742.536182 294.513498 
L 744.145886 283.497925 
L 745.75559 279.014021 
L 747.365294 278.83749 
L 748.974998 279.331778 
L 750.584703 278.025444 
L 752.194407 269.163556 
L 753.804111 258.359821 
L 755.413815 250.698348 
L 757.023519 251.122024 
L 760.242927 263.973527 
L 761.852631 267.39824 
L 763.462336 267.11579 
L 765.07204 263.832301 
L 766.681744 265.880068 
L 768.291448 273.188478 
L 769.901152 285.792836 
L 771.510856 293.419002 
L 773.12056 292.818795 
L 774.730264 285.086709 
L 776.339969 271.24663 
L 777.949673 259.80738 
L 779.559377 255.500008 
L 781.169081 261.713922 
L 782.778785 267.468853 
L 784.388489 267.821916 
L 785.998193 261.608003 
L 789.217602 238.552972 
L 790.827306 235.551934 
L 792.43701 235.481322 
L 794.046714 238.411747 
L 795.656418 235.092952 
L 797.266122 227.466786 
L 798.875826 220.687971 
L 800.48553 221.605936 
L 802.095235 234.528051 
L 805.314643 264.008833 
L 806.924347 268.810493 
L 808.534051 269.79907 
L 810.143755 273.117865 
L 811.753459 271.070098 
L 813.363163 269.446007 
L 814.972868 269.198863 
L 816.582572 264.150058 
L 818.192276 260.336975 
L 819.80198 257.547775 
L 821.411684 259.489623 
L 823.021388 269.12825 
L 832.679613 321.840594 
L 834.289317 336.033737 
L 837.508725 359.93612 
L 839.118429 365.12615 
L 842.337838 366.644322 
L 843.947542 370.881081 
L 845.557246 378.648472 
L 847.16695 392.947534 
L 848.776654 404.775153 
L 850.386358 412.930914 
L 851.996062 414.908069 
L 855.215471 409.22375 
L 856.825175 408.976606 
L 858.434879 412.577851 
L 861.654287 426.064868 
L 863.263991 430.584077 
L 864.873695 432.490619 
L 866.4834 434.891449 
L 868.093104 439.481271 
L 871.312512 454.48646 
L 872.922216 460.312003 
L 874.53192 463.630798 
L 877.751328 467.726332 
L 879.361033 471.292271 
L 882.580441 479.624564 
L 884.190145 482.237232 
L 885.799849 483.755404 
L 887.409553 485.061738 
L 889.019257 486.57991 
L 890.628961 488.910127 
L 892.238665 491.628714 
L 893.84837 493.958932 
L 895.458074 495.441797 
L 897.067778 496.042005 
L 898.677482 496.253843 
L 901.89689 497.595483 
L 903.506594 498.725286 
L 905.116298 499.3608 
L 906.726003 499.078349 
L 908.335707 497.524871 
L 909.945411 494.559139 
L 911.555115 490.604831 
L 913.164819 485.697252 
L 914.774523 478.706599 
L 916.384227 467.161431 
L 917.993931 447.56642 
L 919.603636 417.979719 
L 921.21334 373.776199 
L 924.432748 275.765839 
L 926.042452 240.247676 
L 927.652156 215.780392 
L 929.26186 200.280915 
L 932.481269 172.106467 
L 934.090973 156.465765 
L 935.700677 148.663067 
L 937.310381 156.359846 
L 938.920085 179.979778 
L 942.139493 242.719119 
L 943.749197 270.752341 
L 945.358902 293.772065 
L 946.968606 314.143815 
L 948.57831 332.008816 
L 950.188014 351.250764 
L 951.797718 365.337987 
L 953.407422 376.671318 
L 956.62683 391.958957 
L 958.236535 401.809422 
L 959.846239 414.025411 
L 961.455943 423.840569 
L 963.065647 429.736725 
L 964.675351 429.065905 
L 966.285055 426.029561 
L 967.894759 423.452199 
L 969.504463 424.617308 
L 971.114168 428.995293 
L 972.723872 435.067981 
L 974.333576 439.410659 
L 975.94328 439.904947 
L 977.552984 438.316163 
L 979.162688 436.374315 
L 980.772392 435.209206 
L 982.382096 435.562269 
L 985.601505 435.385738 
L 987.211209 434.962062 
L 988.820913 433.796953 
L 990.430617 433.302664 
L 993.650025 433.902872 
L 995.259729 433.514502 
L 996.869434 431.890411 
L 998.479138 429.242437 
L 1000.088842 427.688959 
L 1001.698546 427.406508 
L 1003.30825 428.854067 
L 1004.917954 431.643267 
L 1006.527658 433.867566 
L 1008.137362 433.938178 
L 1009.747067 432.773069 
L 1011.356771 429.807338 
L 1012.966475 427.936103 
L 1014.576179 428.218553 
L 1016.185883 429.877951 
L 1017.795587 431.784492 
L 1019.405291 433.090826 
L 1021.014995 432.314087 
L 1022.6247 432.172862 
L 1024.234404 432.596538 
L 1025.844108 435.244512 
L 1027.453812 439.622497 
L 1029.063516 443.470886 
L 1030.67322 445.518653 
L 1032.282924 446.330698 
L 1033.892628 445.695185 
L 1035.502333 446.189473 
L 1037.112037 448.62561 
L 1040.331445 456.710758 
L 1041.941149 458.89975 
L 1043.550853 459.641183 
L 1045.160557 459.464652 
L 1046.770261 459.111588 
L 1048.379966 459.888328 
L 1049.98967 461.371193 
L 1051.599374 462.571608 
L 1053.209078 462.642221 
L 1054.818782 461.759563 
L 1056.428486 460.62976 
L 1058.03819 460.064859 
L 1059.647894 459.923634 
L 1061.257598 460.029553 
L 1062.867303 459.499958 
L 1064.477007 456.039938 
L 1066.086711 450.249701 
L 1069.306119 436.091864 
L 1070.915823 431.431429 
L 1072.525527 428.501004 
L 1074.135231 424.546696 
L 1075.744936 419.850954 
L 1077.35464 412.436626 
L 1078.964344 403.715963 
L 1080.574048 396.654698 
L 1082.183752 392.206101 
L 1083.793456 390.334866 
L 1085.40316 388.216486 
L 1087.012864 385.674431 
L 1088.622569 382.002573 
L 1090.232273 377.589282 
L 1090.232273 377.589282 
" style="fill:none;stroke:#000000;stroke-linecap:square;stroke-width:1.5;"/>
   </g>
   <g id="patch_3">
    <path d="M 87.95 541.28 
L 87.95 37.72 
" style="fill:none;stroke:#555555;stroke-linecap:square;stroke-linejoin:miter;"/>
   </g>
   <g id="patch_4">
    <path d="M 87.95 541.28 
L 1137.96 541.28 
" style="fill:none;stroke:#555555;stroke-linecap:square;stroke-linejoin:miter;"/>
   </g>
   <g id="text_30">
    <!-- Positive COVID-19 tests - last updated on 20 October 2021 -->
    <g style="fill:#555555;" transform="translate(348.405625 27.72)scale(0.18 -0.18)">
     <defs>
      <path d="M 1259 4147 
L 1259 2394 
L 2053 2394 
Q 2494 2394 2734 2622 
Q 2975 2850 2975 3272 
Q 2975 3691 2734 3919 
Q 2494 4147 2053 4147 
L 1259 4147 
z
M 628 4666 
L 2053 4666 
Q 2838 4666 3239 4311 
Q 3641 3956 3641 3272 
Q 3641 2581 3239 2228 
Q 2838 1875 2053 1875 
L 1259 1875 
L 1259 0 
L 628 0 
L 628 4666 
z
" id="DejaVuSans-50" transform="scale(0.015625)"/>
      <path d="M 1959 3097 
Q 1497 3097 1228 2736 
Q 959 2375 959 1747 
Q 959 1119 1226 758 
Q 1494 397 1959 397 
Q 2419 397 2687 759 
Q 2956 1122 2956 1747 
Q 2956 2369 2687 2733 
Q 2419 3097 1959 3097 
z
M 1959 3584 
Q 2709 3584 3137 3096 
Q 3566 2609 3566 1747 
Q 3566 888 3137 398 
Q 2709 -91 1959 -91 
Q 1206 -91 779 398 
Q 353 888 353 1747 
Q 353 2609 779 3096 
Q 1206 3584 1959 3584 
z
" id="DejaVuSans-6f" transform="scale(0.015625)"/>
      <path d="M 603 3500 
L 1178 3500 
L 1178 0 
L 603 0 
L 603 3500 
z
M 603 4863 
L 1178 4863 
L 1178 4134 
L 603 4134 
L 603 4863 
z
" id="DejaVuSans-69" transform="scale(0.015625)"/>
      <path d="M 1172 4494 
L 1172 3500 
L 2356 3500 
L 2356 3053 
L 1172 3053 
L 1172 1153 
Q 1172 725 1289 603 
Q 1406 481 1766 481 
L 2356 481 
L 2356 0 
L 1766 0 
Q 1100 0 847 248 
Q 594 497 594 1153 
L 594 3053 
L 172 3053 
L 172 3500 
L 594 3500 
L 594 4494 
L 1172 4494 
z
" id="DejaVuSans-74" transform="scale(0.015625)"/>
      <path d="M 191 3500 
L 800 3500 
L 1894 563 
L 2988 3500 
L 3597 3500 
L 2284 0 
L 1503 0 
L 191 3500 
z
" id="DejaVuSans-76" transform="scale(0.015625)"/>
      <path d="M 2522 4238 
Q 1834 4238 1429 3725 
Q 1025 3213 1025 2328 
Q 1025 1447 1429 934 
Q 1834 422 2522 422 
Q 3209 422 3611 934 
Q 4013 1447 4013 2328 
Q 4013 3213 3611 3725 
Q 3209 4238 2522 4238 
z
M 2522 4750 
Q 3503 4750 4090 4092 
Q 4678 3434 4678 2328 
Q 4678 1225 4090 567 
Q 3503 -91 2522 -91 
Q 1538 -91 948 565 
Q 359 1222 359 2328 
Q 359 3434 948 4092 
Q 1538 4750 2522 4750 
z
" id="DejaVuSans-4f" transform="scale(0.015625)"/>
      <path d="M 1831 0 
L 50 4666 
L 709 4666 
L 2188 738 
L 3669 4666 
L 4325 4666 
L 2547 0 
L 1831 0 
z
" id="DejaVuSans-56" transform="scale(0.015625)"/>
      <path d="M 628 4666 
L 1259 4666 
L 1259 0 
L 628 0 
L 628 4666 
z
" id="DejaVuSans-49" transform="scale(0.015625)"/>
      <path d="M 1259 4147 
L 1259 519 
L 2022 519 
Q 2988 519 3436 956 
Q 3884 1394 3884 2338 
Q 3884 3275 3436 3711 
Q 2988 4147 2022 4147 
L 1259 4147 
z
M 628 4666 
L 1925 4666 
Q 3281 4666 3915 4102 
Q 4550 3538 4550 2338 
Q 4550 1131 3912 565 
Q 3275 0 1925 0 
L 628 0 
L 628 4666 
z
" id="DejaVuSans-44" transform="scale(0.015625)"/>
      <path d="M 313 2009 
L 1997 2009 
L 1997 1497 
L 313 1497 
L 313 2009 
z
" id="DejaVuSans-2d" transform="scale(0.015625)"/>
      <path d="M 794 531 
L 1825 531 
L 1825 4091 
L 703 3866 
L 703 4441 
L 1819 4666 
L 2450 4666 
L 2450 531 
L 3481 531 
L 3481 0 
L 794 0 
L 794 531 
z
" id="DejaVuSans-31" transform="scale(0.015625)"/>
      <path d="M 703 97 
L 703 672 
Q 941 559 1184 500 
Q 1428 441 1663 441 
Q 2288 441 2617 861 
Q 2947 1281 2994 2138 
Q 2813 1869 2534 1725 
Q 2256 1581 1919 1581 
Q 1219 1581 811 2004 
Q 403 2428 403 3163 
Q 403 3881 828 4315 
Q 1253 4750 1959 4750 
Q 2769 4750 3195 4129 
Q 3622 3509 3622 2328 
Q 3622 1225 3098 567 
Q 2575 -91 1691 -91 
Q 1453 -91 1209 -44 
Q 966 3 703 97 
z
M 1959 2075 
Q 2384 2075 2632 2365 
Q 2881 2656 2881 3163 
Q 2881 3666 2632 3958 
Q 2384 4250 1959 4250 
Q 1534 4250 1286 3958 
Q 1038 3666 1038 3163 
Q 1038 2656 1286 2365 
Q 1534 2075 1959 2075 
z
" id="DejaVuSans-39" transform="scale(0.015625)"/>
      <path d="M 603 4863 
L 1178 4863 
L 1178 0 
L 603 0 
L 603 4863 
z
" id="DejaVuSans-6c" transform="scale(0.015625)"/>
      <path d="M 544 1381 
L 544 3500 
L 1119 3500 
L 1119 1403 
Q 1119 906 1312 657 
Q 1506 409 1894 409 
Q 2359 409 2629 706 
Q 2900 1003 2900 1516 
L 2900 3500 
L 3475 3500 
L 3475 0 
L 2900 0 
L 2900 538 
Q 2691 219 2414 64 
Q 2138 -91 1772 -91 
Q 1169 -91 856 284 
Q 544 659 544 1381 
z
M 1991 3584 
L 1991 3584 
z
" id="DejaVuSans-75" transform="scale(0.015625)"/>
      <path d="M 1159 525 
L 1159 -1331 
L 581 -1331 
L 581 3500 
L 1159 3500 
L 1159 2969 
Q 1341 3281 1617 3432 
Q 1894 3584 2278 3584 
Q 2916 3584 3314 3078 
Q 3713 2572 3713 1747 
Q 3713 922 3314 415 
Q 2916 -91 2278 -91 
Q 1894 -91 1617 61 
Q 1341 213 1159 525 
z
M 3116 1747 
Q 3116 2381 2855 2742 
Q 2594 3103 2138 3103 
Q 1681 3103 1420 2742 
Q 1159 2381 1159 1747 
Q 1159 1113 1420 752 
Q 1681 391 2138 391 
Q 2594 391 2855 752 
Q 3116 1113 3116 1747 
z
" id="DejaVuSans-70" transform="scale(0.015625)"/>
      <path d="M 2906 2969 
L 2906 4863 
L 3481 4863 
L 3481 0 
L 2906 0 
L 2906 525 
Q 2725 213 2448 61 
Q 2172 -91 1784 -91 
Q 1150 -91 751 415 
Q 353 922 353 1747 
Q 353 2572 751 3078 
Q 1150 3584 1784 3584 
Q 2172 3584 2448 3432 
Q 2725 3281 2906 2969 
z
M 947 1747 
Q 947 1113 1208 752 
Q 1469 391 1925 391 
Q 2381 391 2643 752 
Q 2906 1113 2906 1747 
Q 2906 2381 2643 2742 
Q 2381 3103 1925 3103 
Q 1469 3103 1208 2742 
Q 947 2381 947 1747 
z
" id="DejaVuSans-64" transform="scale(0.015625)"/>
      <path d="M 3513 2113 
L 3513 0 
L 2938 0 
L 2938 2094 
Q 2938 2591 2744 2837 
Q 2550 3084 2163 3084 
Q 1697 3084 1428 2787 
Q 1159 2491 1159 1978 
L 1159 0 
L 581 0 
L 581 3500 
L 1159 3500 
L 1159 2956 
Q 1366 3272 1645 3428 
Q 1925 3584 2291 3584 
Q 2894 3584 3203 3211 
Q 3513 2838 3513 2113 
z
" id="DejaVuSans-6e" transform="scale(0.015625)"/>
      <path d="M 1228 531 
L 3431 531 
L 3431 0 
L 469 0 
L 469 531 
Q 828 903 1448 1529 
Q 2069 2156 2228 2338 
Q 2531 2678 2651 2914 
Q 2772 3150 2772 3378 
Q 2772 3750 2511 3984 
Q 2250 4219 1831 4219 
Q 1534 4219 1204 4116 
Q 875 4013 500 3803 
L 500 4441 
Q 881 4594 1212 4672 
Q 1544 4750 1819 4750 
Q 2544 4750 2975 4387 
Q 3406 4025 3406 3419 
Q 3406 3131 3298 2873 
Q 3191 2616 2906 2266 
Q 2828 2175 2409 1742 
Q 1991 1309 1228 531 
z
" id="DejaVuSans-32" transform="scale(0.015625)"/>
      <path d="M 2034 4250 
Q 1547 4250 1301 3770 
Q 1056 3291 1056 2328 
Q 1056 1369 1301 889 
Q 1547 409 2034 409 
Q 2525 409 2770 889 
Q 3016 1369 3016 2328 
Q 3016 3291 2770 3770 
Q 2525 4250 2034 4250 
z
M 2034 4750 
Q 2819 4750 3233 4129 
Q 3647 3509 3647 2328 
Q 3647 1150 3233 529 
Q 2819 -91 2034 -91 
Q 1250 -91 836 529 
Q 422 1150 422 2328 
Q 422 3509 836 4129 
Q 1250 4750 2034 4750 
z
" id="DejaVuSans-30" transform="scale(0.015625)"/>
      <path d="M 3122 3366 
L 3122 2828 
Q 2878 2963 2633 3030 
Q 2388 3097 2138 3097 
Q 1578 3097 1268 2742 
Q 959 2388 959 1747 
Q 959 1106 1268 751 
Q 1578 397 2138 397 
Q 2388 397 2633 464 
Q 2878 531 3122 666 
L 3122 134 
Q 2881 22 2623 -34 
Q 2366 -91 2075 -91 
Q 1284 -91 818 406 
Q 353 903 353 1747 
Q 353 2603 823 3093 
Q 1294 3584 2113 3584 
Q 2378 3584 2631 3529 
Q 2884 3475 3122 3366 
z
" id="DejaVuSans-63" transform="scale(0.015625)"/>
      <path d="M 3116 1747 
Q 3116 2381 2855 2742 
Q 2594 3103 2138 3103 
Q 1681 3103 1420 2742 
Q 1159 2381 1159 1747 
Q 1159 1113 1420 752 
Q 1681 391 2138 391 
Q 2594 391 2855 752 
Q 3116 1113 3116 1747 
z
M 1159 2969 
Q 1341 3281 1617 3432 
Q 1894 3584 2278 3584 
Q 2916 3584 3314 3078 
Q 3713 2572 3713 1747 
Q 3713 922 3314 415 
Q 2916 -91 2278 -91 
Q 1894 -91 1617 61 
Q 1341 213 1159 525 
L 1159 0 
L 581 0 
L 581 4863 
L 1159 4863 
L 1159 2969 
z
" id="DejaVuSans-62" transform="scale(0.015625)"/>
      <path d="M 2631 2963 
Q 2534 3019 2420 3045 
Q 2306 3072 2169 3072 
Q 1681 3072 1420 2755 
Q 1159 2438 1159 1844 
L 1159 0 
L 581 0 
L 581 3500 
L 1159 3500 
L 1159 2956 
Q 1341 3275 1631 3429 
Q 1922 3584 2338 3584 
Q 2397 3584 2469 3576 
Q 2541 3569 2628 3553 
L 2631 2963 
z
" id="DejaVuSans-72" transform="scale(0.015625)"/>
     </defs>
     <use xlink:href="#DejaVuSans-50"/>
     <use x="56.677734" xlink:href="#DejaVuSans-6f"/>
     <use x="117.859375" xlink:href="#DejaVuSans-73"/>
     <use x="169.958984" xlink:href="#DejaVuSans-69"/>
     <use x="197.742188" xlink:href="#DejaVuSans-74"/>
     <use x="236.951172" xlink:href="#DejaVuSans-69"/>
     <use x="264.734375" xlink:href="#DejaVuSans-76"/>
     <use x="323.914062" xlink:href="#DejaVuSans-65"/>
     <use x="385.4375" xlink:href="#DejaVuSans-20"/>
     <use x="417.224609" xlink:href="#DejaVuSans-43"/>
     <use x="487.048828" xlink:href="#DejaVuSans-4f"/>
     <use x="564.009766" xlink:href="#DejaVuSans-56"/>
     <use x="632.417969" xlink:href="#DejaVuSans-49"/>
     <use x="661.910156" xlink:href="#DejaVuSans-44"/>
     <use x="738.912109" xlink:href="#DejaVuSans-2d"/>
     <use x="774.996094" xlink:href="#DejaVuSans-31"/>
     <use x="838.619141" xlink:href="#DejaVuSans-39"/>
     <use x="902.242188" xlink:href="#DejaVuSans-20"/>
     <use x="934.029297" xlink:href="#DejaVuSans-74"/>
     <use x="973.238281" xlink:href="#DejaVuSans-65"/>
     <use x="1034.761719" xlink:href="#DejaVuSans-73"/>
     <use x="1086.861328" xlink:href="#DejaVuSans-74"/>
     <use x="1126.070312" xlink:href="#DejaVuSans-73"/>
     <use x="1178.169922" xlink:href="#DejaVuSans-20"/>
     <use x="1209.957031" xlink:href="#DejaVuSans-2d"/>
     <use x="1246.041016" xlink:href="#DejaVuSans-20"/>
     <use x="1277.828125" xlink:href="#DejaVuSans-6c"/>
     <use x="1305.611328" xlink:href="#DejaVuSans-61"/>
     <use x="1366.890625" xlink:href="#DejaVuSans-73"/>
     <use x="1418.990234" xlink:href="#DejaVuSans-74"/>
     <use x="1458.199219" xlink:href="#DejaVuSans-20"/>
     <use x="1489.986328" xlink:href="#DejaVuSans-75"/>
     <use x="1553.365234" xlink:href="#DejaVuSans-70"/>
     <use x="1616.841797" xlink:href="#DejaVuSans-64"/>
     <use x="1680.318359" xlink:href="#DejaVuSans-61"/>
     <use x="1741.597656" xlink:href="#DejaVuSans-74"/>
     <use x="1780.806641" xlink:href="#DejaVuSans-65"/>
     <use x="1842.330078" xlink:href="#DejaVuSans-64"/>
     <use x="1905.806641" xlink:href="#DejaVuSans-20"/>
     <use x="1937.59375" xlink:href="#DejaVuSans-6f"/>
     <use x="1998.775391" xlink:href="#DejaVuSans-6e"/>
     <use x="2062.154297" xlink:href="#DejaVuSans-20"/>
     <use x="2093.941406" xlink:href="#DejaVuSans-32"/>
     <use x="2157.564453" xlink:href="#DejaVuSans-30"/>
     <use x="2221.1875" xlink:href="#DejaVuSans-20"/>
     <use x="2252.974609" xlink:href="#DejaVuSans-4f"/>
     <use x="2331.685547" xlink:href="#DejaVuSans-63"/>
     <use x="2386.666016" xlink:href="#DejaVuSans-74"/>
     <use x="2425.875" xlink:href="#DejaVuSans-6f"/>
     <use x="2487.056641" xlink:href="#DejaVuSans-62"/>
     <use x="2550.533203" xlink:href="#DejaVuSans-65"/>
     <use x="2612.056641" xlink:href="#DejaVuSans-72"/>
     <use x="2653.169922" xlink:href="#DejaVuSans-20"/>
     <use x="2684.957031" xlink:href="#DejaVuSans-32"/>
     <use x="2748.580078" xlink:href="#DejaVuSans-30"/>
     <use x="2812.203125" xlink:href="#DejaVuSans-32"/>
     <use x="2875.826172" xlink:href="#DejaVuSans-31"/>
    </g>
   </g>
   <g id="legend_1">
    <g id="line2d_31">
     <path d="M 1015.497969 54.747969 
L 1041.497969 54.747969 
" style="fill:none;stroke:#000000;stroke-dasharray:1.5,2.475;stroke-dashoffset:0;stroke-opacity:0.5;stroke-width:1.5;"/>
    </g>
    <g id="line2d_32"/>
    <g id="text_31">
     <!-- Actual -->
     <g style="fill:#555555;" transform="translate(1051.897969 59.297969)scale(0.13 -0.13)">
      <use xlink:href="#DejaVuSans-Bold-41"/>
      <use x="77.392578" xlink:href="#DejaVuSans-Bold-63"/>
      <use x="136.669922" xlink:href="#DejaVuSans-Bold-74"/>
      <use x="184.472656" xlink:href="#DejaVuSans-Bold-75"/>
      <use x="255.664062" xlink:href="#DejaVuSans-Bold-61"/>
      <use x="323.144531" xlink:href="#DejaVuSans-Bold-6c"/>
     </g>
    </g>
    <g id="line2d_33">
     <path d="M 1015.497969 73.829531 
L 1041.497969 73.829531 
" style="fill:none;stroke:#000000;stroke-linecap:square;stroke-width:1.5;"/>
    </g>
    <g id="line2d_34"/>
    <g id="text_32">
     <!-- Smoothed -->
     <g style="fill:#555555;" transform="translate(1051.897969 78.379531)scale(0.13 -0.13)">
      <defs>
       <path d="M 3781 2919 
Q 3994 3244 4286 3414 
Q 4578 3584 4928 3584 
Q 5531 3584 5847 3212 
Q 6163 2841 6163 2131 
L 6163 0 
L 5038 0 
L 5038 1825 
Q 5041 1866 5042 1909 
Q 5044 1953 5044 2034 
Q 5044 2406 4934 2573 
Q 4825 2741 4581 2741 
Q 4263 2741 4089 2478 
Q 3916 2216 3909 1719 
L 3909 0 
L 2784 0 
L 2784 1825 
Q 2784 2406 2684 2573 
Q 2584 2741 2328 2741 
Q 2006 2741 1831 2477 
Q 1656 2213 1656 1722 
L 1656 0 
L 531 0 
L 531 3500 
L 1656 3500 
L 1656 2988 
Q 1863 3284 2130 3434 
Q 2397 3584 2719 3584 
Q 3081 3584 3359 3409 
Q 3638 3234 3781 2919 
z
" id="DejaVuSans-Bold-6d" transform="scale(0.015625)"/>
       <path d="M 4056 2131 
L 4056 0 
L 2931 0 
L 2931 347 
L 2931 1625 
Q 2931 2084 2911 2256 
Q 2891 2428 2841 2509 
Q 2775 2619 2662 2680 
Q 2550 2741 2406 2741 
Q 2056 2741 1856 2470 
Q 1656 2200 1656 1722 
L 1656 0 
L 538 0 
L 538 4863 
L 1656 4863 
L 1656 2988 
Q 1909 3294 2193 3439 
Q 2478 3584 2822 3584 
Q 3428 3584 3742 3212 
Q 4056 2841 4056 2131 
z
" id="DejaVuSans-Bold-68" transform="scale(0.015625)"/>
       <path d="M 2919 2988 
L 2919 4863 
L 4044 4863 
L 4044 0 
L 2919 0 
L 2919 506 
Q 2688 197 2409 53 
Q 2131 -91 1766 -91 
Q 1119 -91 703 423 
Q 288 938 288 1747 
Q 288 2556 703 3070 
Q 1119 3584 1766 3584 
Q 2128 3584 2408 3439 
Q 2688 3294 2919 2988 
z
M 2181 722 
Q 2541 722 2730 984 
Q 2919 1247 2919 1747 
Q 2919 2247 2730 2509 
Q 2541 2772 2181 2772 
Q 1825 2772 1636 2509 
Q 1447 2247 1447 1747 
Q 1447 1247 1636 984 
Q 1825 722 2181 722 
z
" id="DejaVuSans-Bold-64" transform="scale(0.015625)"/>
      </defs>
      <use xlink:href="#DejaVuSans-Bold-53"/>
      <use x="72.021484" xlink:href="#DejaVuSans-Bold-6d"/>
      <use x="176.220703" xlink:href="#DejaVuSans-Bold-6f"/>
      <use x="244.921875" xlink:href="#DejaVuSans-Bold-6f"/>
      <use x="313.623047" xlink:href="#DejaVuSans-Bold-74"/>
      <use x="361.425781" xlink:href="#DejaVuSans-Bold-68"/>
      <use x="432.617188" xlink:href="#DejaVuSans-Bold-65"/>
      <use x="500.439453" xlink:href="#DejaVuSans-Bold-64"/>
     </g>
    </g>
   </g>
  </g>
 </g>
 <defs>
  <clipPath id="p689f8782a3">
   <rect height="503.56" width="1050.01" x="87.95" y="37.72"/>
  </clipPath>
 </defs>
</svg>
