<?xml version="1.0" encoding="utf-8" standalone="no"?>
<!DOCTYPE svg PUBLIC "-//W3C//DTD SVG 1.1//EN"
  "http://www.w3.org/Graphics/SVG/1.1/DTD/svg11.dtd">
<svg xmlns:xlink="http://www.w3.org/1999/xlink" width="1152pt" height="576pt" viewBox="0 0 1152 576" xmlns="http://www.w3.org/2000/svg" version="1.1">
 <metadata>
  <rdf:RDF xmlns:dc="http://purl.org/dc/elements/1.1/" xmlns:cc="http://creativecommons.org/ns#" xmlns:rdf="http://www.w3.org/1999/02/22-rdf-syntax-ns#">
   <cc:Work>
    <dc:type rdf:resource="http://purl.org/dc/dcmitype/StillImage"/>
    <dc:date>2021-11-21T14:13:37.480093</dc:date>
    <dc:format>image/svg+xml</dc:format>
    <dc:creator>
     <cc:Agent>
      <dc:title>Matplotlib v3.5.0, https://matplotlib.org/</dc:title>
     </cc:Agent>
    </dc:creator>
   </cc:Work>
  </rdf:RDF>
 </metadata>
 <defs>
  <style type="text/css">*{stroke-linejoin: round; stroke-linecap: butt}</style>
 </defs>
 <g id="figure_1">
  <g id="patch_1">
   <path d="M 0 576 
L 1152 576 
L 1152 0 
L 0 0 
z
" style="fill: #ffffff"/>
  </g>
  <g id="axes_1">
   <g id="patch_2">
    <path d="M 87.95 541.28 
L 1137.96 541.28 
L 1137.96 37.72 
L 87.95 37.72 
z
" style="fill: #ffffff"/>
   </g>
   <g id="matplotlib.axis_1">
    <g id="xtick_1">
     <g id="line2d_1">
      <defs>
       <path id="ma1effff5f4" d="M 0 0 
L 0 3.5 
" style="stroke: #555555; stroke-width: 0.8"/>
      </defs>
      <g>
       <use xlink:href="#ma1effff5f4" x="128.029053" y="541.28" style="fill: #555555; stroke: #555555; stroke-width: 0.8"/>
      </g>
     </g>
     <g id="text_1">
      <!-- Mar -->
      <g style="fill: #555555" transform="translate(112.887178 558.917812)scale(0.14 -0.14)">
       <defs>
        <path id="DejaVuSans-Bold-4d" d="M 588 4666 
L 2119 4666 
L 3181 2169 
L 4250 4666 
L 5778 4666 
L 5778 0 
L 4641 0 
L 4641 3413 
L 3566 897 
L 2803 897 
L 1728 3413 
L 1728 0 
L 588 0 
L 588 4666 
z
" transform="scale(0.015625)"/>
        <path id="DejaVuSans-Bold-61" d="M 2106 1575 
Q 1756 1575 1579 1456 
Q 1403 1338 1403 1106 
Q 1403 894 1545 773 
Q 1688 653 1941 653 
Q 2256 653 2472 879 
Q 2688 1106 2688 1447 
L 2688 1575 
L 2106 1575 
z
M 3816 1997 
L 3816 0 
L 2688 0 
L 2688 519 
Q 2463 200 2181 54 
Q 1900 -91 1497 -91 
Q 953 -91 614 226 
Q 275 544 275 1050 
Q 275 1666 698 1953 
Q 1122 2241 2028 2241 
L 2688 2241 
L 2688 2328 
Q 2688 2594 2478 2717 
Q 2269 2841 1825 2841 
Q 1466 2841 1156 2769 
Q 847 2697 581 2553 
L 581 3406 
Q 941 3494 1303 3539 
Q 1666 3584 2028 3584 
Q 2975 3584 3395 3211 
Q 3816 2838 3816 1997 
z
" transform="scale(0.015625)"/>
        <path id="DejaVuSans-Bold-72" d="M 3138 2547 
Q 2991 2616 2845 2648 
Q 2700 2681 2553 2681 
Q 2122 2681 1889 2404 
Q 1656 2128 1656 1613 
L 1656 0 
L 538 0 
L 538 3500 
L 1656 3500 
L 1656 2925 
Q 1872 3269 2151 3426 
Q 2431 3584 2822 3584 
Q 2878 3584 2943 3579 
Q 3009 3575 3134 3559 
L 3138 2547 
z
" transform="scale(0.015625)"/>
       </defs>
       <use xlink:href="#DejaVuSans-Bold-4d"/>
       <use xlink:href="#DejaVuSans-Bold-61" x="99.511719"/>
       <use xlink:href="#DejaVuSans-Bold-72" x="166.992188"/>
      </g>
     </g>
    </g>
    <g id="xtick_2">
     <g id="line2d_2">
      <g>
       <use xlink:href="#ma1effff5f4" x="175.450833" y="541.28" style="fill: #555555; stroke: #555555; stroke-width: 0.8"/>
      </g>
     </g>
     <g id="text_2">
      <!-- Apr -->
      <g style="fill: #555555" transform="translate(161.571146 558.917812)scale(0.14 -0.14)">
       <defs>
        <path id="DejaVuSans-Bold-41" d="M 3419 850 
L 1538 850 
L 1241 0 
L 31 0 
L 1759 4666 
L 3194 4666 
L 4922 0 
L 3713 0 
L 3419 850 
z
M 1838 1716 
L 3116 1716 
L 2478 3572 
L 1838 1716 
z
" transform="scale(0.015625)"/>
        <path id="DejaVuSans-Bold-70" d="M 1656 506 
L 1656 -1331 
L 538 -1331 
L 538 3500 
L 1656 3500 
L 1656 2988 
Q 1888 3294 2169 3439 
Q 2450 3584 2816 3584 
Q 3463 3584 3878 3070 
Q 4294 2556 4294 1747 
Q 4294 938 3878 423 
Q 3463 -91 2816 -91 
Q 2450 -91 2169 54 
Q 1888 200 1656 506 
z
M 2400 2772 
Q 2041 2772 1848 2508 
Q 1656 2244 1656 1747 
Q 1656 1250 1848 986 
Q 2041 722 2400 722 
Q 2759 722 2948 984 
Q 3138 1247 3138 1747 
Q 3138 2247 2948 2509 
Q 2759 2772 2400 2772 
z
" transform="scale(0.015625)"/>
       </defs>
       <use xlink:href="#DejaVuSans-Bold-41"/>
       <use xlink:href="#DejaVuSans-Bold-70" x="77.392578"/>
       <use xlink:href="#DejaVuSans-Bold-72" x="148.974609"/>
      </g>
     </g>
    </g>
    <g id="xtick_3">
     <g id="line2d_3">
      <g>
       <use xlink:href="#ma1effff5f4" x="221.342879" y="541.28" style="fill: #555555; stroke: #555555; stroke-width: 0.8"/>
      </g>
     </g>
     <g id="text_3">
      <!-- May -->
      <g style="fill: #555555" transform="translate(205.308504 558.808437)scale(0.14 -0.14)">
       <defs>
        <path id="DejaVuSans-Bold-79" d="M 78 3500 
L 1197 3500 
L 2138 1125 
L 2938 3500 
L 4056 3500 
L 2584 -331 
Q 2363 -916 2067 -1148 
Q 1772 -1381 1288 -1381 
L 641 -1381 
L 641 -647 
L 991 -647 
Q 1275 -647 1404 -556 
Q 1534 -466 1606 -231 
L 1638 -134 
L 78 3500 
z
" transform="scale(0.015625)"/>
       </defs>
       <use xlink:href="#DejaVuSans-Bold-4d"/>
       <use xlink:href="#DejaVuSans-Bold-61" x="99.511719"/>
       <use xlink:href="#DejaVuSans-Bold-79" x="163.867188"/>
      </g>
     </g>
    </g>
    <g id="xtick_4">
     <g id="line2d_4">
      <g>
       <use xlink:href="#ma1effff5f4" x="268.764659" y="541.28" style="fill: #555555; stroke: #555555; stroke-width: 0.8"/>
      </g>
     </g>
     <g id="text_4">
      <!-- Jun -->
      <g style="fill: #555555" transform="translate(256.19419 558.917812)scale(0.14 -0.14)">
       <defs>
        <path id="DejaVuSans-Bold-4a" d="M 588 4666 
L 1791 4666 
L 1791 453 
Q 1791 -419 1317 -850 
Q 844 -1281 -116 -1281 
L -359 -1281 
L -359 -372 
L -172 -372 
Q 203 -372 395 -162 
Q 588 47 588 453 
L 588 4666 
z
" transform="scale(0.015625)"/>
        <path id="DejaVuSans-Bold-75" d="M 500 1363 
L 500 3500 
L 1625 3500 
L 1625 3150 
Q 1625 2866 1622 2436 
Q 1619 2006 1619 1863 
Q 1619 1441 1641 1255 
Q 1663 1069 1716 984 
Q 1784 875 1895 815 
Q 2006 756 2150 756 
Q 2500 756 2700 1025 
Q 2900 1294 2900 1772 
L 2900 3500 
L 4019 3500 
L 4019 0 
L 2900 0 
L 2900 506 
Q 2647 200 2364 54 
Q 2081 -91 1741 -91 
Q 1134 -91 817 281 
Q 500 653 500 1363 
z
" transform="scale(0.015625)"/>
        <path id="DejaVuSans-Bold-6e" d="M 4056 2131 
L 4056 0 
L 2931 0 
L 2931 347 
L 2931 1631 
Q 2931 2084 2911 2256 
Q 2891 2428 2841 2509 
Q 2775 2619 2662 2680 
Q 2550 2741 2406 2741 
Q 2056 2741 1856 2470 
Q 1656 2200 1656 1722 
L 1656 0 
L 538 0 
L 538 3500 
L 1656 3500 
L 1656 2988 
Q 1909 3294 2193 3439 
Q 2478 3584 2822 3584 
Q 3428 3584 3742 3212 
Q 4056 2841 4056 2131 
z
" transform="scale(0.015625)"/>
       </defs>
       <use xlink:href="#DejaVuSans-Bold-4a"/>
       <use xlink:href="#DejaVuSans-Bold-75" x="37.207031"/>
       <use xlink:href="#DejaVuSans-Bold-6e" x="108.398438"/>
      </g>
     </g>
    </g>
    <g id="xtick_5">
     <g id="line2d_5">
      <g>
       <use xlink:href="#ma1effff5f4" x="314.656705" y="541.28" style="fill: #555555; stroke: #555555; stroke-width: 0.8"/>
      </g>
     </g>
     <g id="text_5">
      <!-- Jul -->
      <g style="fill: #555555" transform="translate(304.669673 558.917812)scale(0.14 -0.14)">
       <defs>
        <path id="DejaVuSans-Bold-6c" d="M 538 4863 
L 1656 4863 
L 1656 0 
L 538 0 
L 538 4863 
z
" transform="scale(0.015625)"/>
       </defs>
       <use xlink:href="#DejaVuSans-Bold-4a"/>
       <use xlink:href="#DejaVuSans-Bold-75" x="37.207031"/>
       <use xlink:href="#DejaVuSans-Bold-6c" x="108.398438"/>
      </g>
     </g>
    </g>
    <g id="xtick_6">
     <g id="line2d_6">
      <g>
       <use xlink:href="#ma1effff5f4" x="362.078485" y="541.28" style="fill: #555555; stroke: #555555; stroke-width: 0.8"/>
      </g>
     </g>
     <g id="text_6">
      <!-- Aug -->
      <g style="fill: #555555" transform="translate(346.667547 558.808437)scale(0.14 -0.14)">
       <defs>
        <path id="DejaVuSans-Bold-67" d="M 2919 594 
Q 2688 288 2409 144 
Q 2131 0 1766 0 
Q 1125 0 706 504 
Q 288 1009 288 1791 
Q 288 2575 706 3076 
Q 1125 3578 1766 3578 
Q 2131 3578 2409 3434 
Q 2688 3291 2919 2981 
L 2919 3500 
L 4044 3500 
L 4044 353 
Q 4044 -491 3511 -936 
Q 2978 -1381 1966 -1381 
Q 1638 -1381 1331 -1331 
Q 1025 -1281 716 -1178 
L 716 -306 
Q 1009 -475 1290 -558 
Q 1572 -641 1856 -641 
Q 2406 -641 2662 -400 
Q 2919 -159 2919 353 
L 2919 594 
z
M 2181 2772 
Q 1834 2772 1640 2515 
Q 1447 2259 1447 1791 
Q 1447 1309 1634 1061 
Q 1822 813 2181 813 
Q 2531 813 2725 1069 
Q 2919 1325 2919 1791 
Q 2919 2259 2725 2515 
Q 2531 2772 2181 2772 
z
" transform="scale(0.015625)"/>
       </defs>
       <use xlink:href="#DejaVuSans-Bold-41"/>
       <use xlink:href="#DejaVuSans-Bold-75" x="77.392578"/>
       <use xlink:href="#DejaVuSans-Bold-67" x="148.583984"/>
      </g>
     </g>
    </g>
    <g id="xtick_7">
     <g id="line2d_7">
      <g>
       <use xlink:href="#ma1effff5f4" x="409.500265" y="541.28" style="fill: #555555; stroke: #555555; stroke-width: 0.8"/>
      </g>
     </g>
     <g id="text_7">
      <!-- Sep -->
      <g style="fill: #555555" transform="translate(394.700734 558.917812)scale(0.14 -0.14)">
       <defs>
        <path id="DejaVuSans-Bold-53" d="M 3834 4519 
L 3834 3531 
Q 3450 3703 3084 3790 
Q 2719 3878 2394 3878 
Q 1963 3878 1756 3759 
Q 1550 3641 1550 3391 
Q 1550 3203 1689 3098 
Q 1828 2994 2194 2919 
L 2706 2816 
Q 3484 2659 3812 2340 
Q 4141 2022 4141 1434 
Q 4141 663 3683 286 
Q 3225 -91 2284 -91 
Q 1841 -91 1394 -6 
Q 947 78 500 244 
L 500 1259 
Q 947 1022 1364 901 
Q 1781 781 2169 781 
Q 2563 781 2772 912 
Q 2981 1044 2981 1288 
Q 2981 1506 2839 1625 
Q 2697 1744 2272 1838 
L 1806 1941 
Q 1106 2091 782 2419 
Q 459 2747 459 3303 
Q 459 4000 909 4375 
Q 1359 4750 2203 4750 
Q 2588 4750 2994 4692 
Q 3400 4634 3834 4519 
z
" transform="scale(0.015625)"/>
        <path id="DejaVuSans-Bold-65" d="M 4031 1759 
L 4031 1441 
L 1416 1441 
Q 1456 1047 1700 850 
Q 1944 653 2381 653 
Q 2734 653 3104 758 
Q 3475 863 3866 1075 
L 3866 213 
Q 3469 63 3072 -14 
Q 2675 -91 2278 -91 
Q 1328 -91 801 392 
Q 275 875 275 1747 
Q 275 2603 792 3093 
Q 1309 3584 2216 3584 
Q 3041 3584 3536 3087 
Q 4031 2591 4031 1759 
z
M 2881 2131 
Q 2881 2450 2695 2645 
Q 2509 2841 2209 2841 
Q 1884 2841 1681 2658 
Q 1478 2475 1428 2131 
L 2881 2131 
z
" transform="scale(0.015625)"/>
       </defs>
       <use xlink:href="#DejaVuSans-Bold-53"/>
       <use xlink:href="#DejaVuSans-Bold-65" x="72.021484"/>
       <use xlink:href="#DejaVuSans-Bold-70" x="139.84375"/>
      </g>
     </g>
    </g>
    <g id="xtick_8">
     <g id="line2d_8">
      <g>
       <use xlink:href="#ma1effff5f4" x="455.392311" y="541.28" style="fill: #555555; stroke: #555555; stroke-width: 0.8"/>
      </g>
     </g>
     <g id="text_8">
      <!-- Oct -->
      <g style="fill: #555555" transform="translate(441.945748 558.917812)scale(0.14 -0.14)">
       <defs>
        <path id="DejaVuSans-Bold-4f" d="M 2719 3878 
Q 2169 3878 1866 3472 
Q 1563 3066 1563 2328 
Q 1563 1594 1866 1187 
Q 2169 781 2719 781 
Q 3272 781 3575 1187 
Q 3878 1594 3878 2328 
Q 3878 3066 3575 3472 
Q 3272 3878 2719 3878 
z
M 2719 4750 
Q 3844 4750 4481 4106 
Q 5119 3463 5119 2328 
Q 5119 1197 4481 553 
Q 3844 -91 2719 -91 
Q 1597 -91 958 553 
Q 319 1197 319 2328 
Q 319 3463 958 4106 
Q 1597 4750 2719 4750 
z
" transform="scale(0.015625)"/>
        <path id="DejaVuSans-Bold-63" d="M 3366 3391 
L 3366 2478 
Q 3138 2634 2908 2709 
Q 2678 2784 2431 2784 
Q 1963 2784 1702 2511 
Q 1441 2238 1441 1747 
Q 1441 1256 1702 982 
Q 1963 709 2431 709 
Q 2694 709 2930 787 
Q 3166 866 3366 1019 
L 3366 103 
Q 3103 6 2833 -42 
Q 2563 -91 2291 -91 
Q 1344 -91 809 395 
Q 275 881 275 1747 
Q 275 2613 809 3098 
Q 1344 3584 2291 3584 
Q 2566 3584 2833 3536 
Q 3100 3488 3366 3391 
z
" transform="scale(0.015625)"/>
        <path id="DejaVuSans-Bold-74" d="M 1759 4494 
L 1759 3500 
L 2913 3500 
L 2913 2700 
L 1759 2700 
L 1759 1216 
Q 1759 972 1856 886 
Q 1953 800 2241 800 
L 2816 800 
L 2816 0 
L 1856 0 
Q 1194 0 917 276 
Q 641 553 641 1216 
L 641 2700 
L 84 2700 
L 84 3500 
L 641 3500 
L 641 4494 
L 1759 4494 
z
" transform="scale(0.015625)"/>
       </defs>
       <use xlink:href="#DejaVuSans-Bold-4f"/>
       <use xlink:href="#DejaVuSans-Bold-63" x="85.009766"/>
       <use xlink:href="#DejaVuSans-Bold-74" x="144.287109"/>
      </g>
     </g>
    </g>
    <g id="xtick_9">
     <g id="line2d_9">
      <g>
       <use xlink:href="#ma1effff5f4" x="502.814091" y="541.28" style="fill: #555555; stroke: #555555; stroke-width: 0.8"/>
      </g>
     </g>
     <g id="text_9">
      <!-- Nov -->
      <g style="fill: #555555" transform="translate(487.583622 558.917812)scale(0.14 -0.14)">
       <defs>
        <path id="DejaVuSans-Bold-4e" d="M 588 4666 
L 1931 4666 
L 3628 1466 
L 3628 4666 
L 4769 4666 
L 4769 0 
L 3425 0 
L 1728 3200 
L 1728 0 
L 588 0 
L 588 4666 
z
" transform="scale(0.015625)"/>
        <path id="DejaVuSans-Bold-6f" d="M 2203 2784 
Q 1831 2784 1636 2517 
Q 1441 2250 1441 1747 
Q 1441 1244 1636 976 
Q 1831 709 2203 709 
Q 2569 709 2762 976 
Q 2956 1244 2956 1747 
Q 2956 2250 2762 2517 
Q 2569 2784 2203 2784 
z
M 2203 3584 
Q 3106 3584 3614 3096 
Q 4122 2609 4122 1747 
Q 4122 884 3614 396 
Q 3106 -91 2203 -91 
Q 1297 -91 786 396 
Q 275 884 275 1747 
Q 275 2609 786 3096 
Q 1297 3584 2203 3584 
z
" transform="scale(0.015625)"/>
        <path id="DejaVuSans-Bold-76" d="M 97 3500 
L 1216 3500 
L 2088 1081 
L 2956 3500 
L 4078 3500 
L 2700 0 
L 1472 0 
L 97 3500 
z
" transform="scale(0.015625)"/>
       </defs>
       <use xlink:href="#DejaVuSans-Bold-4e"/>
       <use xlink:href="#DejaVuSans-Bold-6f" x="83.691406"/>
       <use xlink:href="#DejaVuSans-Bold-76" x="152.392578"/>
      </g>
     </g>
    </g>
    <g id="xtick_10">
     <g id="line2d_10">
      <g>
       <use xlink:href="#ma1effff5f4" x="548.706136" y="541.28" style="fill: #555555; stroke: #555555; stroke-width: 0.8"/>
      </g>
     </g>
     <g id="text_10">
      <!-- Dec -->
      <g style="fill: #555555" transform="translate(533.997386 558.917812)scale(0.14 -0.14)">
       <defs>
        <path id="DejaVuSans-Bold-44" d="M 1791 3756 
L 1791 909 
L 2222 909 
Q 2959 909 3348 1275 
Q 3738 1641 3738 2338 
Q 3738 3031 3350 3393 
Q 2963 3756 2222 3756 
L 1791 3756 
z
M 588 4666 
L 1856 4666 
Q 2919 4666 3439 4514 
Q 3959 4363 4331 4000 
Q 4659 3684 4818 3271 
Q 4978 2859 4978 2338 
Q 4978 1809 4818 1395 
Q 4659 981 4331 666 
Q 3956 303 3431 151 
Q 2906 0 1856 0 
L 588 0 
L 588 4666 
z
" transform="scale(0.015625)"/>
       </defs>
       <use xlink:href="#DejaVuSans-Bold-44"/>
       <use xlink:href="#DejaVuSans-Bold-65" x="83.007812"/>
       <use xlink:href="#DejaVuSans-Bold-63" x="150.830078"/>
      </g>
     </g>
    </g>
    <g id="xtick_11">
     <g id="line2d_11">
      <g>
       <use xlink:href="#ma1effff5f4" x="596.127917" y="541.28" style="fill: #555555; stroke: #555555; stroke-width: 0.8"/>
      </g>
     </g>
     <g id="text_11">
      <!-- Jan -->
      <g style="fill: #555555" transform="translate(583.816667 558.917812)scale(0.14 -0.14)">
       <use xlink:href="#DejaVuSans-Bold-4a"/>
       <use xlink:href="#DejaVuSans-Bold-61" x="37.207031"/>
       <use xlink:href="#DejaVuSans-Bold-6e" x="104.6875"/>
      </g>
     </g>
    </g>
    <g id="xtick_12">
     <g id="line2d_12">
      <g>
       <use xlink:href="#ma1effff5f4" x="643.549697" y="541.28" style="fill: #555555; stroke: #555555; stroke-width: 0.8"/>
      </g>
     </g>
     <g id="text_12">
      <!-- Feb -->
      <g style="fill: #555555" transform="translate(629.289384 558.917812)scale(0.14 -0.14)">
       <defs>
        <path id="DejaVuSans-Bold-46" d="M 588 4666 
L 3834 4666 
L 3834 3756 
L 1791 3756 
L 1791 2888 
L 3713 2888 
L 3713 1978 
L 1791 1978 
L 1791 0 
L 588 0 
L 588 4666 
z
" transform="scale(0.015625)"/>
        <path id="DejaVuSans-Bold-62" d="M 2400 722 
Q 2759 722 2948 984 
Q 3138 1247 3138 1747 
Q 3138 2247 2948 2509 
Q 2759 2772 2400 2772 
Q 2041 2772 1848 2508 
Q 1656 2244 1656 1747 
Q 1656 1250 1848 986 
Q 2041 722 2400 722 
z
M 1656 2988 
Q 1888 3294 2169 3439 
Q 2450 3584 2816 3584 
Q 3463 3584 3878 3070 
Q 4294 2556 4294 1747 
Q 4294 938 3878 423 
Q 3463 -91 2816 -91 
Q 2450 -91 2169 54 
Q 1888 200 1656 506 
L 1656 0 
L 538 0 
L 538 4863 
L 1656 4863 
L 1656 2988 
z
" transform="scale(0.015625)"/>
       </defs>
       <use xlink:href="#DejaVuSans-Bold-46"/>
       <use xlink:href="#DejaVuSans-Bold-65" x="64.310547"/>
       <use xlink:href="#DejaVuSans-Bold-62" x="132.132812"/>
      </g>
     </g>
    </g>
    <g id="xtick_13">
     <g id="line2d_13">
      <g>
       <use xlink:href="#ma1effff5f4" x="686.382273" y="541.28" style="fill: #555555; stroke: #555555; stroke-width: 0.8"/>
      </g>
     </g>
     <g id="text_13">
      <!-- Mar -->
      <g style="fill: #555555" transform="translate(671.240398 558.917812)scale(0.14 -0.14)">
       <use xlink:href="#DejaVuSans-Bold-4d"/>
       <use xlink:href="#DejaVuSans-Bold-61" x="99.511719"/>
       <use xlink:href="#DejaVuSans-Bold-72" x="166.992188"/>
      </g>
     </g>
    </g>
    <g id="xtick_14">
     <g id="line2d_14">
      <g>
       <use xlink:href="#ma1effff5f4" x="733.804053" y="541.28" style="fill: #555555; stroke: #555555; stroke-width: 0.8"/>
      </g>
     </g>
     <g id="text_14">
      <!-- Apr -->
      <g style="fill: #555555" transform="translate(719.924366 558.917812)scale(0.14 -0.14)">
       <use xlink:href="#DejaVuSans-Bold-41"/>
       <use xlink:href="#DejaVuSans-Bold-70" x="77.392578"/>
       <use xlink:href="#DejaVuSans-Bold-72" x="148.974609"/>
      </g>
     </g>
    </g>
    <g id="xtick_15">
     <g id="line2d_15">
      <g>
       <use xlink:href="#ma1effff5f4" x="779.696098" y="541.28" style="fill: #555555; stroke: #555555; stroke-width: 0.8"/>
      </g>
     </g>
     <g id="text_15">
      <!-- May -->
      <g style="fill: #555555" transform="translate(763.661723 558.808437)scale(0.14 -0.14)">
       <use xlink:href="#DejaVuSans-Bold-4d"/>
       <use xlink:href="#DejaVuSans-Bold-61" x="99.511719"/>
       <use xlink:href="#DejaVuSans-Bold-79" x="163.867188"/>
      </g>
     </g>
    </g>
    <g id="xtick_16">
     <g id="line2d_16">
      <g>
       <use xlink:href="#ma1effff5f4" x="827.117879" y="541.28" style="fill: #555555; stroke: #555555; stroke-width: 0.8"/>
      </g>
     </g>
     <g id="text_16">
      <!-- Jun -->
      <g style="fill: #555555" transform="translate(814.54741 558.917812)scale(0.14 -0.14)">
       <use xlink:href="#DejaVuSans-Bold-4a"/>
       <use xlink:href="#DejaVuSans-Bold-75" x="37.207031"/>
       <use xlink:href="#DejaVuSans-Bold-6e" x="108.398438"/>
      </g>
     </g>
    </g>
    <g id="xtick_17">
     <g id="line2d_17">
      <g>
       <use xlink:href="#ma1effff5f4" x="873.009924" y="541.28" style="fill: #555555; stroke: #555555; stroke-width: 0.8"/>
      </g>
     </g>
     <g id="text_17">
      <!-- Jul -->
      <g style="fill: #555555" transform="translate(863.022893 558.917812)scale(0.14 -0.14)">
       <use xlink:href="#DejaVuSans-Bold-4a"/>
       <use xlink:href="#DejaVuSans-Bold-75" x="37.207031"/>
       <use xlink:href="#DejaVuSans-Bold-6c" x="108.398438"/>
      </g>
     </g>
    </g>
    <g id="xtick_18">
     <g id="line2d_18">
      <g>
       <use xlink:href="#ma1effff5f4" x="920.431705" y="541.28" style="fill: #555555; stroke: #555555; stroke-width: 0.8"/>
      </g>
     </g>
     <g id="text_18">
      <!-- Aug -->
      <g style="fill: #555555" transform="translate(905.020767 558.808437)scale(0.14 -0.14)">
       <use xlink:href="#DejaVuSans-Bold-41"/>
       <use xlink:href="#DejaVuSans-Bold-75" x="77.392578"/>
       <use xlink:href="#DejaVuSans-Bold-67" x="148.583984"/>
      </g>
     </g>
    </g>
    <g id="xtick_19">
     <g id="line2d_19">
      <g>
       <use xlink:href="#ma1effff5f4" x="967.853485" y="541.28" style="fill: #555555; stroke: #555555; stroke-width: 0.8"/>
      </g>
     </g>
     <g id="text_19">
      <!-- Sep -->
      <g style="fill: #555555" transform="translate(953.053954 558.917812)scale(0.14 -0.14)">
       <use xlink:href="#DejaVuSans-Bold-53"/>
       <use xlink:href="#DejaVuSans-Bold-65" x="72.021484"/>
       <use xlink:href="#DejaVuSans-Bold-70" x="139.84375"/>
      </g>
     </g>
    </g>
    <g id="xtick_20">
     <g id="line2d_20">
      <g>
       <use xlink:href="#ma1effff5f4" x="1013.74553" y="541.28" style="fill: #555555; stroke: #555555; stroke-width: 0.8"/>
      </g>
     </g>
     <g id="text_20">
      <!-- Oct -->
      <g style="fill: #555555" transform="translate(1000.298968 558.917812)scale(0.14 -0.14)">
       <use xlink:href="#DejaVuSans-Bold-4f"/>
       <use xlink:href="#DejaVuSans-Bold-63" x="85.009766"/>
       <use xlink:href="#DejaVuSans-Bold-74" x="144.287109"/>
      </g>
     </g>
    </g>
    <g id="xtick_21">
     <g id="line2d_21">
      <g>
       <use xlink:href="#ma1effff5f4" x="1061.167311" y="541.28" style="fill: #555555; stroke: #555555; stroke-width: 0.8"/>
      </g>
     </g>
     <g id="text_21">
      <!-- Nov -->
      <g style="fill: #555555" transform="translate(1045.936842 558.917812)scale(0.14 -0.14)">
       <use xlink:href="#DejaVuSans-Bold-4e"/>
       <use xlink:href="#DejaVuSans-Bold-6f" x="83.691406"/>
       <use xlink:href="#DejaVuSans-Bold-76" x="152.392578"/>
      </g>
     </g>
    </g>
    <g id="xtick_22">
     <g id="line2d_22">
      <g>
       <use xlink:href="#ma1effff5f4" x="1107.059356" y="541.28" style="fill: #555555; stroke: #555555; stroke-width: 0.8"/>
      </g>
     </g>
     <g id="text_22">
      <!-- Dec -->
      <g style="fill: #555555" transform="translate(1092.350606 558.917812)scale(0.14 -0.14)">
       <use xlink:href="#DejaVuSans-Bold-44"/>
       <use xlink:href="#DejaVuSans-Bold-65" x="83.007812"/>
       <use xlink:href="#DejaVuSans-Bold-63" x="150.830078"/>
      </g>
     </g>
    </g>
   </g>
   <g id="matplotlib.axis_2">
    <g id="ytick_1">
     <g id="line2d_23">
      <defs>
       <path id="mcc6b3fb030" d="M 0 0 
L -3.5 0 
" style="stroke: #555555; stroke-width: 0.8"/>
      </defs>
      <g>
       <use xlink:href="#mcc6b3fb030" x="87.95" y="518.992411" style="fill: #555555; stroke: #555555; stroke-width: 0.8"/>
      </g>
     </g>
     <g id="text_23">
      <!-- 0 -->
      <g style="fill: #555555" transform="translate(71.209063 524.311317)scale(0.14 -0.14)">
       <defs>
        <path id="DejaVuSans-Bold-30" d="M 2944 2338 
Q 2944 3213 2780 3570 
Q 2616 3928 2228 3928 
Q 1841 3928 1675 3570 
Q 1509 3213 1509 2338 
Q 1509 1453 1675 1090 
Q 1841 728 2228 728 
Q 2613 728 2778 1090 
Q 2944 1453 2944 2338 
z
M 4147 2328 
Q 4147 1169 3647 539 
Q 3147 -91 2228 -91 
Q 1306 -91 806 539 
Q 306 1169 306 2328 
Q 306 3491 806 4120 
Q 1306 4750 2228 4750 
Q 3147 4750 3647 4120 
Q 4147 3491 4147 2328 
z
" transform="scale(0.015625)"/>
       </defs>
       <use xlink:href="#DejaVuSans-Bold-30"/>
      </g>
     </g>
    </g>
    <g id="ytick_2">
     <g id="line2d_24">
      <g>
       <use xlink:href="#mcc6b3fb030" x="87.95" y="421.975962" style="fill: #555555; stroke: #555555; stroke-width: 0.8"/>
      </g>
     </g>
     <g id="text_24">
      <!-- 5000 -->
      <g style="fill: #555555" transform="translate(41.98625 427.294868)scale(0.14 -0.14)">
       <defs>
        <path id="DejaVuSans-Bold-35" d="M 678 4666 
L 3669 4666 
L 3669 3781 
L 1638 3781 
L 1638 3059 
Q 1775 3097 1914 3117 
Q 2053 3138 2203 3138 
Q 3056 3138 3531 2711 
Q 4006 2284 4006 1522 
Q 4006 766 3489 337 
Q 2972 -91 2053 -91 
Q 1656 -91 1267 -14 
Q 878 63 494 219 
L 494 1166 
Q 875 947 1217 837 
Q 1559 728 1863 728 
Q 2300 728 2551 942 
Q 2803 1156 2803 1522 
Q 2803 1891 2551 2103 
Q 2300 2316 1863 2316 
Q 1603 2316 1309 2248 
Q 1016 2181 678 2041 
L 678 4666 
z
" transform="scale(0.015625)"/>
       </defs>
       <use xlink:href="#DejaVuSans-Bold-35"/>
       <use xlink:href="#DejaVuSans-Bold-30" x="69.580078"/>
       <use xlink:href="#DejaVuSans-Bold-30" x="139.160156"/>
       <use xlink:href="#DejaVuSans-Bold-30" x="208.740234"/>
      </g>
     </g>
    </g>
    <g id="ytick_3">
     <g id="line2d_25">
      <g>
       <use xlink:href="#mcc6b3fb030" x="87.95" y="324.959512" style="fill: #555555; stroke: #555555; stroke-width: 0.8"/>
      </g>
     </g>
     <g id="text_25">
      <!-- 10000 -->
      <g style="fill: #555555" transform="translate(32.245313 330.278419)scale(0.14 -0.14)">
       <defs>
        <path id="DejaVuSans-Bold-31" d="M 750 831 
L 1813 831 
L 1813 3847 
L 722 3622 
L 722 4441 
L 1806 4666 
L 2950 4666 
L 2950 831 
L 4013 831 
L 4013 0 
L 750 0 
L 750 831 
z
" transform="scale(0.015625)"/>
       </defs>
       <use xlink:href="#DejaVuSans-Bold-31"/>
       <use xlink:href="#DejaVuSans-Bold-30" x="69.580078"/>
       <use xlink:href="#DejaVuSans-Bold-30" x="139.160156"/>
       <use xlink:href="#DejaVuSans-Bold-30" x="208.740234"/>
       <use xlink:href="#DejaVuSans-Bold-30" x="278.320312"/>
      </g>
     </g>
    </g>
    <g id="ytick_4">
     <g id="line2d_26">
      <g>
       <use xlink:href="#mcc6b3fb030" x="87.95" y="227.943063" style="fill: #555555; stroke: #555555; stroke-width: 0.8"/>
      </g>
     </g>
     <g id="text_26">
      <!-- 15000 -->
      <g style="fill: #555555" transform="translate(32.245313 233.261969)scale(0.14 -0.14)">
       <use xlink:href="#DejaVuSans-Bold-31"/>
       <use xlink:href="#DejaVuSans-Bold-35" x="69.580078"/>
       <use xlink:href="#DejaVuSans-Bold-30" x="139.160156"/>
       <use xlink:href="#DejaVuSans-Bold-30" x="208.740234"/>
       <use xlink:href="#DejaVuSans-Bold-30" x="278.320312"/>
      </g>
     </g>
    </g>
    <g id="ytick_5">
     <g id="line2d_27">
      <g>
       <use xlink:href="#mcc6b3fb030" x="87.95" y="130.926613" style="fill: #555555; stroke: #555555; stroke-width: 0.8"/>
      </g>
     </g>
     <g id="text_27">
      <!-- 20000 -->
      <g style="fill: #555555" transform="translate(32.245313 136.24552)scale(0.14 -0.14)">
       <defs>
        <path id="DejaVuSans-Bold-32" d="M 1844 884 
L 3897 884 
L 3897 0 
L 506 0 
L 506 884 
L 2209 2388 
Q 2438 2594 2547 2791 
Q 2656 2988 2656 3200 
Q 2656 3528 2436 3728 
Q 2216 3928 1850 3928 
Q 1569 3928 1234 3808 
Q 900 3688 519 3450 
L 519 4475 
Q 925 4609 1322 4679 
Q 1719 4750 2100 4750 
Q 2938 4750 3402 4381 
Q 3866 4013 3866 3353 
Q 3866 2972 3669 2642 
Q 3472 2313 2841 1759 
L 1844 884 
z
" transform="scale(0.015625)"/>
       </defs>
       <use xlink:href="#DejaVuSans-Bold-32"/>
       <use xlink:href="#DejaVuSans-Bold-30" x="69.580078"/>
       <use xlink:href="#DejaVuSans-Bold-30" x="139.160156"/>
       <use xlink:href="#DejaVuSans-Bold-30" x="208.740234"/>
       <use xlink:href="#DejaVuSans-Bold-30" x="278.320312"/>
      </g>
     </g>
    </g>
    <g id="text_28">
     <!-- New Cases -->
     <g style="fill: #555555" transform="translate(24.917813 333.23875)rotate(-90)scale(0.16 -0.16)">
      <defs>
       <path id="DejaVuSans-4e" d="M 628 4666 
L 1478 4666 
L 3547 763 
L 3547 4666 
L 4159 4666 
L 4159 0 
L 3309 0 
L 1241 3903 
L 1241 0 
L 628 0 
L 628 4666 
z
" transform="scale(0.015625)"/>
       <path id="DejaVuSans-65" d="M 3597 1894 
L 3597 1613 
L 953 1613 
Q 991 1019 1311 708 
Q 1631 397 2203 397 
Q 2534 397 2845 478 
Q 3156 559 3463 722 
L 3463 178 
Q 3153 47 2828 -22 
Q 2503 -91 2169 -91 
Q 1331 -91 842 396 
Q 353 884 353 1716 
Q 353 2575 817 3079 
Q 1281 3584 2069 3584 
Q 2775 3584 3186 3129 
Q 3597 2675 3597 1894 
z
M 3022 2063 
Q 3016 2534 2758 2815 
Q 2500 3097 2075 3097 
Q 1594 3097 1305 2825 
Q 1016 2553 972 2059 
L 3022 2063 
z
" transform="scale(0.015625)"/>
       <path id="DejaVuSans-77" d="M 269 3500 
L 844 3500 
L 1563 769 
L 2278 3500 
L 2956 3500 
L 3675 769 
L 4391 3500 
L 4966 3500 
L 4050 0 
L 3372 0 
L 2619 2869 
L 1863 0 
L 1184 0 
L 269 3500 
z
" transform="scale(0.015625)"/>
       <path id="DejaVuSans-20" transform="scale(0.015625)"/>
       <path id="DejaVuSans-43" d="M 4122 4306 
L 4122 3641 
Q 3803 3938 3442 4084 
Q 3081 4231 2675 4231 
Q 1875 4231 1450 3742 
Q 1025 3253 1025 2328 
Q 1025 1406 1450 917 
Q 1875 428 2675 428 
Q 3081 428 3442 575 
Q 3803 722 4122 1019 
L 4122 359 
Q 3791 134 3420 21 
Q 3050 -91 2638 -91 
Q 1578 -91 968 557 
Q 359 1206 359 2328 
Q 359 3453 968 4101 
Q 1578 4750 2638 4750 
Q 3056 4750 3426 4639 
Q 3797 4528 4122 4306 
z
" transform="scale(0.015625)"/>
       <path id="DejaVuSans-61" d="M 2194 1759 
Q 1497 1759 1228 1600 
Q 959 1441 959 1056 
Q 959 750 1161 570 
Q 1363 391 1709 391 
Q 2188 391 2477 730 
Q 2766 1069 2766 1631 
L 2766 1759 
L 2194 1759 
z
M 3341 1997 
L 3341 0 
L 2766 0 
L 2766 531 
Q 2569 213 2275 61 
Q 1981 -91 1556 -91 
Q 1019 -91 701 211 
Q 384 513 384 1019 
Q 384 1609 779 1909 
Q 1175 2209 1959 2209 
L 2766 2209 
L 2766 2266 
Q 2766 2663 2505 2880 
Q 2244 3097 1772 3097 
Q 1472 3097 1187 3025 
Q 903 2953 641 2809 
L 641 3341 
Q 956 3463 1253 3523 
Q 1550 3584 1831 3584 
Q 2591 3584 2966 3190 
Q 3341 2797 3341 1997 
z
" transform="scale(0.015625)"/>
       <path id="DejaVuSans-73" d="M 2834 3397 
L 2834 2853 
Q 2591 2978 2328 3040 
Q 2066 3103 1784 3103 
Q 1356 3103 1142 2972 
Q 928 2841 928 2578 
Q 928 2378 1081 2264 
Q 1234 2150 1697 2047 
L 1894 2003 
Q 2506 1872 2764 1633 
Q 3022 1394 3022 966 
Q 3022 478 2636 193 
Q 2250 -91 1575 -91 
Q 1294 -91 989 -36 
Q 684 19 347 128 
L 347 722 
Q 666 556 975 473 
Q 1284 391 1588 391 
Q 1994 391 2212 530 
Q 2431 669 2431 922 
Q 2431 1156 2273 1281 
Q 2116 1406 1581 1522 
L 1381 1569 
Q 847 1681 609 1914 
Q 372 2147 372 2553 
Q 372 3047 722 3315 
Q 1072 3584 1716 3584 
Q 2034 3584 2315 3537 
Q 2597 3491 2834 3397 
z
" transform="scale(0.015625)"/>
      </defs>
      <use xlink:href="#DejaVuSans-4e"/>
      <use xlink:href="#DejaVuSans-65" x="74.804688"/>
      <use xlink:href="#DejaVuSans-77" x="136.328125"/>
      <use xlink:href="#DejaVuSans-20" x="218.115234"/>
      <use xlink:href="#DejaVuSans-43" x="249.902344"/>
      <use xlink:href="#DejaVuSans-61" x="319.726562"/>
      <use xlink:href="#DejaVuSans-73" x="381.005859"/>
      <use xlink:href="#DejaVuSans-65" x="433.105469"/>
      <use xlink:href="#DejaVuSans-73" x="494.628906"/>
     </g>
    </g>
   </g>
   <g id="line2d_28">
    <path d="M 135.677727 518.216279 
L 137.207462 518.022247 
L 138.737197 518.371506 
L 140.266932 517.80881 
L 141.796667 516.469983 
L 143.326402 516.605806 
L 144.856136 516.528193 
L 146.385871 516.799839 
L 147.915606 514.743091 
L 149.445341 515.635642 
L 150.975076 513.753523 
L 152.504811 513.404264 
L 154.034545 512.259469 
L 155.56428 511.308708 
L 157.094015 508.650458 
L 158.62375 506.632515 
L 160.153485 507.253421 
L 161.68322 508.262392 
L 163.212955 504.459347 
L 164.742689 502.635438 
L 167.802159 496.348772 
L 169.331894 496.756241 
L 170.861629 497.804019 
L 172.391364 502.053339 
L 173.921098 502.810067 
L 175.450833 499.433895 
L 176.980568 497.978648 
L 178.510303 499.201055 
L 180.040038 499.550315 
L 181.569773 497.668195 
L 184.629242 503.819038 
L 186.158977 500.384656 
L 187.688712 495.553237 
L 189.218447 493.244245 
L 190.748182 493.748731 
L 192.277917 496.271159 
L 193.807652 500.384656 
L 195.337386 502.266775 
L 196.867121 504.828009 
L 198.396856 498.250294 
L 199.926591 495.048751 
L 201.456326 495.980109 
L 202.986061 499.142846 
L 204.515795 504.47875 
L 206.04553 505.099656 
L 207.575265 505.254882 
L 209.105 502.033936 
L 210.634735 503.372763 
L 212.16447 506.438483 
L 213.694205 506.360869 
L 215.223939 511.134079 
L 216.753674 515.247576 
L 218.283409 511.463935 
L 219.813144 509.154943 
L 221.342879 509.717639 
L 222.872614 510.513173 
L 224.402348 512.434099 
L 225.932083 515.09235 
L 227.461818 512.802762 
L 228.991553 512.802762 
L 230.521288 511.987823 
L 232.051023 512.802762 
L 233.580758 513.404264 
L 235.110492 514.296815 
L 236.640227 515.519222 
L 238.169962 515.20877 
L 239.699697 514.665477 
L 241.229432 513.67591 
L 242.759167 515.072947 
L 244.288902 515.228173 
L 245.818636 516.567 
L 247.348371 516.120724 
L 248.878106 516.838646 
L 250.407841 515.363996 
L 251.937576 514.063975 
L 253.467311 515.422206 
L 256.52678 515.635642 
L 258.056515 514.85951 
L 259.58625 516.489387 
L 261.115985 515.228173 
L 262.64572 515.538625 
L 264.175455 515.538625 
L 265.705189 516.256547 
L 267.234924 515.577432 
L 268.764659 516.974469 
L 270.294394 517.149099 
L 271.824129 517.187905 
L 273.353864 515.344593 
L 274.883598 514.781897 
L 276.413333 515.305786 
L 277.943068 514.355025 
L 279.472803 515.771465 
L 281.002538 515.810272 
L 282.532273 515.480416 
L 284.062008 515.849078 
L 285.591742 514.97593 
L 287.121477 515.480416 
L 288.651212 516.198337 
L 290.180947 515.907288 
L 293.240417 516.799839 
L 294.770152 516.586403 
L 297.829621 517.246115 
L 299.359356 517.149099 
L 300.889091 517.672987 
L 302.418826 517.634181 
L 303.948561 517.440148 
L 305.478295 516.858049 
L 308.537765 517.498358 
L 310.0675 517.711794 
L 311.597235 517.517761 
L 313.12697 517.886424 
L 314.656705 517.789407 
L 316.186439 517.537164 
L 317.716174 517.517761 
L 319.245909 517.731197 
L 320.775644 517.595374 
L 322.305379 518.196876 
L 323.835114 518.332699 
L 325.364848 517.886424 
L 328.424318 517.731197 
L 329.954053 517.362535 
L 331.483788 517.149099 
L 333.013523 517.595374 
L 334.543258 517.090889 
L 337.602727 516.68342 
L 339.132462 516.877452 
L 340.662197 516.178934 
L 342.191932 516.178934 
L 343.721667 515.441609 
L 345.251402 515.713255 
L 346.781136 515.693852 
L 349.840606 515.984901 
L 352.900076 514.85951 
L 354.429811 514.937123 
L 355.959545 514.646074 
L 357.48928 514.180395 
L 359.019015 512.375889 
L 360.54875 512.375889 
L 362.078485 510.629593 
L 363.60822 512.02663 
L 365.137955 511.774387 
L 366.667689 509.543009 
L 368.197424 510.687803 
L 369.727159 507.253421 
L 371.256894 508.96091 
L 372.786629 509.601219 
L 374.316364 507.796713 
L 375.846098 503.722022 
L 377.375833 506.962371 
L 378.905568 506.360869 
L 380.435303 507.816116 
L 381.965038 506.826548 
L 383.494773 506.263853 
L 385.024508 509.310169 
L 386.554242 509.562412 
L 388.083977 509.426589 
L 389.613712 508.262392 
L 391.143447 508.689264 
L 392.673182 508.650458 
L 394.202917 509.154943 
L 395.732652 510.163914 
L 397.262386 507.874326 
L 398.792121 510.920642 
L 400.321856 507.893729 
L 401.851591 509.13554 
L 403.381326 509.271363 
L 406.440795 509.174346 
L 407.97053 508.786281 
L 409.500265 509.931075 
L 411.03 505.022042 
L 412.559735 507.36984 
L 414.08947 504.575767 
L 415.619205 506.399676 
L 417.148939 501.141384 
L 418.678674 503.566796 
L 421.738144 496.872661 
L 423.267879 502.751857 
L 424.797614 494.33083 
L 426.327348 495.281591 
L 427.857083 497.901035 
L 429.386818 493.826344 
L 430.916553 492.293484 
L 432.446288 489.169555 
L 435.505758 481.058979 
L 437.035492 482.281387 
L 438.565227 483.212745 
L 440.094962 476.091737 
L 441.624697 475.587252 
L 443.154432 473.705132 
L 444.684167 469.785668 
L 446.213902 465.361718 
L 447.743636 466.603528 
L 449.273371 461.24822 
L 450.803106 462.684064 
L 452.332841 460.704928 
L 453.862576 455.233201 
L 455.392311 455.873509 
L 456.922045 445.182296 
L 458.45178 442.640465 
L 459.981515 441.709107 
L 461.51125 430.610426 
L 463.040985 431.308944 
L 464.57072 422.519254 
L 466.100455 406.763782 
L 467.630189 403.348803 
L 469.159924 393.297899 
L 470.689659 395.936747 
L 472.219394 386.99183 
L 473.749129 376.708086 
L 475.278864 378.299156 
L 476.808598 368.093026 
L 478.338333 364.736257 
L 479.868068 361.728747 
L 481.397803 360.894405 
L 482.927538 364.037738 
L 484.457273 360.972018 
L 487.516742 339.492576 
L 489.046477 325.502804 
L 490.576212 351.30918 
L 492.105947 321.69976 
L 493.635682 319.080315 
L 495.165417 319.798237 
L 496.695152 362.272039 
L 498.224886 320.205706 
L 499.754621 304.275605 
L 501.284356 329.402866 
L 502.814091 350.591258 
L 504.343826 358.643623 
L 505.873561 368.849754 
L 507.403295 371.527408 
L 508.93303 384.21716 
L 510.462765 378.784238 
L 511.9925 390.620245 
L 515.05197 428.398451 
L 516.581705 428.883533 
L 518.111439 414.544502 
L 519.641174 409.965325 
L 521.170909 401.253248 
L 522.700644 404.571211 
L 524.230379 413.865386 
L 527.289848 435.94633 
L 528.819583 430.067134 
L 530.349318 408.665305 
L 531.879053 403.911499 
L 533.408788 402.495059 
L 534.938523 415.029584 
L 536.468258 418.463966 
L 537.997992 442.407626 
L 539.527727 423.722258 
L 541.057462 432.298512 
L 542.587197 407.404091 
L 544.116932 432.356722 
L 545.646667 411.013103 
L 547.176402 430.28057 
L 548.706136 440.641927 
L 550.235871 423.761064 
L 551.765606 410.450407 
L 553.295341 404.68763 
L 554.825076 392.308331 
L 556.354811 387.806768 
L 557.884545 381.345473 
L 559.41428 400.26368 
L 560.944015 392.017282 
L 562.47375 350.009159 
L 564.003485 347.525538 
L 565.53322 341.995601 
L 567.062955 327.346117 
L 568.592689 354.821175 
L 570.122424 390.329196 
L 571.652159 302.335276 
L 573.181894 271.057173 
L 574.711629 287.006677 
L 576.241364 281.806596 
L 577.771098 266.807852 
L 579.300833 302.529309 
L 580.830568 328.413298 
L 582.360303 317.372826 
L 583.890038 295.970997 
L 585.419773 295.951594 
L 586.949508 328.549121 
L 588.479242 344.265786 
L 590.008977 375.446873 
L 591.538712 373.118478 
L 593.068447 335.650725 
L 594.598182 331.479018 
L 596.127917 360.486936 
L 597.657652 352.337554 
L 599.187386 375.485679 
L 600.717121 390.309793 
L 602.246856 395.412858 
L 603.776591 381.442489 
L 605.306326 331.207372 
L 606.836061 361.592924 
L 609.89553 390.891891 
L 611.425265 413.283288 
L 612.955 423.101352 
L 614.484735 400.806972 
L 616.01447 392.89043 
L 617.544205 402.08759 
L 619.073939 416.251991 
L 620.603674 410.683247 
L 622.133409 426.167072 
L 623.663144 435.655281 
L 625.192879 410.93549 
L 626.722614 406.356313 
L 628.252348 407.520511 
L 629.782083 413.322094 
L 631.311818 424.284953 
L 632.841553 439.652359 
L 634.371288 442.174786 
L 635.901023 427.311866 
L 637.430758 427.971578 
L 638.960492 433.676145 
L 640.490227 438.041886 
L 642.019962 447.646514 
L 643.549697 456.164558 
L 645.079432 450.149539 
L 646.609167 441.029992 
L 648.138902 437.517997 
L 649.668636 435.228409 
L 651.198371 439.671762 
L 652.728106 442.970321 
L 654.257841 475.199186 
L 655.787576 484.862024 
L 657.317311 457.425772 
L 658.847045 433.094047 
L 660.37678 435.034376 
L 661.906515 438.041886 
L 663.43625 452.536143 
L 664.965985 463.848261 
L 666.49572 466.797561 
L 668.025455 453.642131 
L 669.555189 430.552216 
L 671.084924 428.262628 
L 672.614659 430.920878 
L 674.144394 428.398451 
L 675.674129 437.906063 
L 677.203864 445.08528 
L 678.733598 434.238841 
L 680.263333 422.247608 
L 681.793068 420.249069 
L 683.322803 423.489418 
L 684.852538 429.077566 
L 686.382273 446.249477 
L 687.912008 442.058367 
L 689.441742 421.529686 
L 690.971477 439.594149 
L 692.501212 428.534274 
L 694.030947 415.922135 
L 695.560682 431.52238 
L 697.090417 443.630033 
L 698.620152 435.829911 
L 700.149886 416.95051 
L 701.679621 416.213185 
L 703.209356 403.057754 
L 704.739091 395.296438 
L 707.798561 412.23551 
L 709.328295 423.101352 
L 710.85803 404.357774 
L 712.387765 400.030841 
L 713.9175 376.417037 
L 715.447235 371.488601 
L 718.506705 396.751685 
L 720.036439 410.178761 
L 721.566174 372.381153 
L 723.095909 369.819918 
L 724.625644 372.342346 
L 726.155379 348.592719 
L 727.685114 374.049836 
L 729.214848 387.418702 
L 730.744583 405.386149 
L 732.274318 370.964713 
L 733.804053 367.278087 
L 735.333788 379.017078 
L 736.863523 371.585618 
L 738.393258 385.847036 
L 739.922992 415.495263 
L 741.452727 411.129523 
L 742.982462 395.412858 
L 744.512197 368.403478 
L 746.041932 370.363211 
L 747.571667 370.382614 
L 749.101402 361.010825 
L 750.631136 389.805307 
L 752.160871 388.563496 
L 753.690606 413.438514 
L 755.220341 350.300209 
L 756.750076 346.497164 
L 758.279811 358.85706 
L 759.809545 353.637575 
L 761.33928 380.103662 
L 762.869015 386.642571 
L 764.39875 354.607739 
L 765.928485 333.128297 
L 767.45822 339.803029 
L 768.987955 362.563088 
L 770.517689 363.378026 
L 772.047424 398.187528 
L 773.577159 416.057958 
L 775.106894 351.13455 
L 776.636629 377.678251 
L 778.166364 368.345268 
L 779.696098 406.783186 
L 781.225833 413.031045 
L 782.755568 340.75379 
L 784.285303 368.461688 
L 787.344773 387.961995 
L 788.874508 374.263272 
L 790.404242 374.942387 
L 793.463712 405.269729 
L 794.993447 411.789234 
L 796.523182 395.95615 
L 798.052917 402.339832 
L 799.582652 411.439975 
L 801.112386 432.220899 
L 802.642121 433.152257 
L 804.171856 463.537809 
L 805.701591 415.669892 
L 807.231326 430.746249 
L 808.761061 429.426825 
L 810.290795 438.701598 
L 811.82053 457.425772 
L 813.350265 452.57495 
L 814.88 466.060236 
L 816.409735 470.794639 
L 817.93947 465.866203 
L 819.469205 453.506308 
L 820.998939 444.503181 
L 822.528674 454.088406 
L 824.058409 468.116985 
L 825.588144 479.797766 
L 827.117879 470.872252 
L 828.647614 469.339392 
L 830.177348 465.419928 
L 831.707083 472.521532 
L 833.236818 477.896243 
L 834.766553 488.568053 
L 836.296288 490.508382 
L 837.826023 491.129287 
L 839.355758 485.01725 
L 840.885492 488.393423 
L 842.415227 492.080048 
L 843.944962 494.951735 
L 845.474697 498.793586 
L 847.004432 501.936919 
L 848.534167 498.81299 
L 850.063902 499.123442 
L 851.593636 498.444327 
L 853.123371 501.723483 
L 854.653106 505.565334 
L 856.182841 505.216075 
L 857.712576 507.951939 
L 859.242311 505.448915 
L 860.772045 506.089223 
L 862.30178 505.487721 
L 863.831515 506.457886 
L 865.36125 508.223585 
L 866.890985 509.271363 
L 868.42072 507.990746 
L 869.950455 508.747474 
L 871.480189 506.651919 
L 873.009924 503.042907 
L 874.539659 500.753319 
L 876.069394 497.260726 
L 877.599129 495.708463 
L 879.128864 489.654637 
L 880.658598 476.4604 
L 882.188333 449.121164 
L 883.718068 414.331065 
L 885.247803 385.439567 
L 886.777538 320.613175 
L 889.837008 355.403274 
L 891.366742 367.607943 
L 892.896477 317.081777 
L 894.426212 305.983095 
L 895.955947 300.511367 
L 897.485682 304.566655 
L 899.015417 321.40871 
L 900.545152 346.807617 
L 902.074886 387.515719 
L 903.604621 385.944052 
L 905.134356 398.051705 
L 906.664091 395.374051 
L 908.193826 416.95051 
L 909.723561 429.601455 
L 911.253295 444.600198 
L 912.78303 441.786721 
L 914.312765 452.167481 
L 915.8425 432.608965 
L 917.372235 452.40032 
L 918.90197 461.907932 
L 920.431705 474.112602 
L 921.961439 478.264906 
L 923.491174 476.130544 
L 925.020909 464.818426 
L 926.550644 454.360052 
L 928.080379 462.703467 
L 929.610114 472.482725 
L 931.139848 474.229021 
L 932.669583 479.46791 
L 934.199318 477.042498 
L 935.729053 477.87684 
L 937.258788 469.203569 
L 938.788523 467.302047 
L 940.318258 474.287231 
L 941.847992 475.121573 
L 943.377727 475.606655 
L 944.907462 474.287231 
L 946.437197 464.954249 
L 947.966932 470.794639 
L 949.496667 476.149947 
L 951.026402 471.648384 
L 952.556136 471.240915 
L 954.085871 472.773775 
L 955.615606 471.260318 
L 957.145341 464.352747 
L 958.675076 468.291615 
L 960.204811 464.702006 
L 961.734545 471.454351 
L 964.794015 476.867869 
L 966.32375 474.86933 
L 967.853485 464.896039 
L 969.38322 464.876636 
L 970.912955 469.902088 
L 972.442689 465.67217 
L 973.972424 473.239454 
L 975.502159 477.973856 
L 977.031894 471.027478 
L 978.561629 464.779619 
L 980.091364 473.258857 
L 981.621098 467.069207 
L 983.150833 476.149947 
L 984.680568 478.342519 
L 986.210303 484.997847 
L 987.740038 480.166428 
L 989.269773 472.909598 
L 990.799508 478.439535 
L 992.329242 477.741017 
L 993.858977 479.914185 
L 995.388712 486.685933 
L 996.918447 492.73976 
L 998.448182 486.72474 
L 999.977917 482.24258 
L 1001.507652 483.872456 
L 1003.037386 486.123238 
L 1004.567121 487.947147 
L 1006.096856 487.966551 
L 1007.626591 492.099451 
L 1009.156326 485.676962 
L 1010.686061 485.01725 
L 1012.215795 485.987415 
L 1013.74553 485.676962 
L 1015.275265 486.60832 
L 1016.805 487.908341 
L 1018.334735 487.753114 
L 1019.86447 482.145564 
L 1021.394205 482.048547 
L 1022.923939 465.96322 
L 1024.453674 465.264701 
L 1025.983409 470.794639 
L 1027.513144 465.924413 
L 1029.042879 475.354412 
L 1030.572614 463.052726 
L 1032.102348 446.850979 
L 1033.632083 448.461452 
L 1035.161818 447.277852 
L 1036.691553 447.374868 
L 1038.221288 447.97637 
L 1039.751023 454.010793 
L 1041.280758 443.028531 
L 1042.810492 430.067134 
L 1044.340227 418.522176 
L 1045.869962 405.696601 
L 1047.399697 408.936951 
L 1048.929432 396.693475 
L 1050.459167 416.174378 
L 1051.988902 407.307075 
L 1053.518636 378.046913 
L 1055.048371 370.207984 
L 1056.578106 375.602099 
L 1058.107841 364.87208 
L 1059.637576 360.758582 
L 1061.167311 369.761709 
L 1062.697045 369.625886 
L 1064.22678 341.413502 
L 1065.756515 320.943031 
L 1067.28625 307.942827 
L 1068.815985 286.696225 
L 1070.34572 298.881491 
L 1071.875455 290.809722 
L 1073.405189 299.793445 
L 1074.934924 273.482584 
L 1076.464659 203.339691 
L 1077.994394 204.154629 
L 1079.524129 250.140426 
L 1081.053864 286.094723 
L 1082.583598 145.964163 
L 1084.113333 127.084762 
L 1085.643068 115.850257 
L 1087.172803 60.609091 
L 1088.702538 110.339723 
L 1090.232273 94.584251 
L 1090.232273 94.584251 
" clip-path="url(#p78240d6b88)" style="fill: none; stroke-dasharray: 1.5,2.475; stroke-dashoffset: 0; stroke: #000000; stroke-opacity: 0.5; stroke-width: 1.5"/>
   </g>
   <g id="line2d_29">
    <path d="M 135.677727 518.390909 
L 140.266932 517.478954 
L 143.326402 516.741629 
L 146.385871 515.946095 
L 147.915606 515.441609 
L 149.445341 514.8013 
L 150.975076 514.025169 
L 152.504811 513.035601 
L 161.68322 505.798174 
L 163.212955 504.129491 
L 166.272424 500.268236 
L 167.802159 499.007022 
L 169.331894 498.75478 
L 170.861629 499.104039 
L 172.391364 499.666734 
L 173.921098 500.0548 
L 175.450833 500.015994 
L 178.510303 499.220459 
L 180.040038 499.356282 
L 181.569773 499.821961 
L 183.099508 500.0548 
L 184.629242 499.627928 
L 186.158977 498.560747 
L 187.688712 497.28013 
L 189.218447 496.348772 
L 190.748182 496.309965 
L 192.277917 497.512969 
L 193.807652 499.026426 
L 195.337386 499.977187 
L 196.867121 499.99659 
L 198.396856 499.336878 
L 199.926591 498.832393 
L 201.456326 499.084636 
L 202.986061 500.17122 
L 204.515795 501.742886 
L 206.04553 503.06231 
L 207.575265 503.916055 
L 209.105 504.362331 
L 210.634735 505.002639 
L 212.16447 506.419079 
L 215.223939 509.756445 
L 216.753674 510.765416 
L 218.283409 511.056466 
L 221.342879 511.114675 
L 222.872614 511.386321 
L 225.932083 512.647535 
L 227.461818 512.919181 
L 230.521288 512.977391 
L 232.051023 513.152021 
L 236.640227 514.510251 
L 238.169962 514.704284 
L 241.229432 514.85951 
L 242.759167 515.053543 
L 245.818636 515.771465 
L 247.348371 515.907288 
L 248.878106 515.810272 
L 253.467311 515.266979 
L 256.52678 515.422206 
L 259.58625 515.577432 
L 262.64572 515.655045 
L 265.705189 515.984901 
L 267.234924 516.27595 
L 268.764659 516.45058 
L 270.294394 516.45058 
L 271.824129 516.237144 
L 274.883598 515.480416 
L 276.413333 515.266979 
L 277.943068 515.20877 
L 281.002538 515.461012 
L 287.121477 515.693852 
L 300.889091 517.362535 
L 310.0675 517.537164 
L 313.12697 517.672987 
L 319.245909 517.750601 
L 323.835114 517.98344 
L 326.894583 517.80881 
L 339.132462 516.528193 
L 343.721667 515.887885 
L 351.370341 515.383399 
L 352.900076 515.111753 
L 355.959545 514.238605 
L 360.54875 512.356486 
L 362.078485 511.774387 
L 363.60822 511.366918 
L 369.727159 509.19375 
L 371.256894 508.495231 
L 372.786629 507.951939 
L 374.316364 507.272824 
L 375.846098 506.884758 
L 377.375833 506.632515 
L 378.905568 506.554902 
L 380.435303 506.845952 
L 383.494773 507.816116 
L 385.024508 508.281795 
L 386.554242 508.631054 
L 388.083977 508.84449 
L 391.143447 508.922104 
L 392.673182 508.9027 
L 395.732652 509.174346 
L 398.792121 509.19375 
L 401.851591 509.07733 
L 404.911061 509.116137 
L 406.440795 508.922104 
L 407.97053 508.572844 
L 411.03 507.234017 
L 415.619205 504.265314 
L 420.208409 500.695109 
L 421.738144 499.356282 
L 423.267879 498.424924 
L 427.857083 495.145768 
L 429.386818 493.321859 
L 430.916553 491.226303 
L 435.505758 483.872456 
L 440.094962 477.76042 
L 443.154432 472.696161 
L 444.684167 469.882684 
L 447.743636 465.342315 
L 449.273371 463.188549 
L 450.803106 461.287027 
L 452.332841 458.803406 
L 453.862576 455.601863 
L 455.392311 452.089868 
L 459.981515 438.507565 
L 461.51125 432.725384 
L 463.040985 426.477525 
L 467.630189 404.435388 
L 469.159924 397.54722 
L 472.219394 386.254505 
L 475.278864 375.485679 
L 476.808598 370.518437 
L 478.338333 366.870618 
L 481.397803 361.903376 
L 482.927538 359.031689 
L 485.987008 349.543481 
L 489.046477 337.823893 
L 490.576212 332.662618 
L 492.105947 331.187968 
L 495.165417 329.189429 
L 496.695152 327.734183 
L 498.224886 328.393895 
L 499.754621 330.683483 
L 501.284356 336.349243 
L 502.814091 343.741897 
L 504.343826 354.898789 
L 505.873561 364.969096 
L 507.403295 372.575186 
L 508.93303 379.540967 
L 510.462765 387.903785 
L 513.522235 406.550346 
L 515.05197 413.302691 
L 516.581705 416.387814 
L 518.111439 415.41765 
L 519.641174 412.507156 
L 521.170909 410.547424 
L 522.700644 412.002671 
L 524.230379 416.329604 
L 525.760114 420.152052 
L 527.289848 421.820735 
L 528.819583 419.95802 
L 531.879053 412.701189 
L 533.408788 412.798206 
L 534.938523 415.592279 
L 536.468258 420.928184 
L 537.997992 424.110324 
L 539.527727 426.089459 
L 542.587197 423.586435 
L 544.116932 423.217772 
L 545.646667 424.556599 
L 547.176402 425.002875 
L 548.706136 424.498389 
L 550.235871 419.686373 
L 551.765606 413.263885 
L 553.295341 404.590614 
L 554.825076 397.508413 
L 556.354811 393.162076 
L 557.884545 388.46648 
L 559.41428 382.606686 
L 560.944015 374.534918 
L 562.47375 363.688479 
L 564.003485 354.336093 
L 565.53322 349.89274 
L 567.062955 346.109098 
L 568.592689 341.394099 
L 570.122424 332.255149 
L 571.652159 318.34299 
L 573.181894 302.684535 
L 574.711629 290.673899 
L 576.241364 285.9589 
L 577.771098 291.042562 
L 579.300833 298.338199 
L 580.830568 303.499474 
L 583.890038 312.424987 
L 585.419773 319.157929 
L 588.479242 340.676177 
L 590.008977 349.038995 
L 591.538712 353.171896 
L 593.068447 352.240538 
L 594.598182 352.162925 
L 596.127917 355.092821 
L 597.657652 362.407862 
L 599.187386 371.876667 
L 600.717121 376.067778 
L 602.246856 375.349856 
L 605.306326 369.29603 
L 606.836061 371.139342 
L 608.365795 378.958868 
L 611.425265 399.409936 
L 612.955 404.066725 
L 614.484735 405.735408 
L 616.01447 405.851828 
L 617.544205 407.151848 
L 619.073939 411.013103 
L 620.603674 415.611683 
L 622.133409 418.638596 
L 623.663144 418.677402 
L 625.192879 416.484831 
L 626.722614 414.854954 
L 628.252348 415.281827 
L 629.782083 418.696806 
L 631.311818 424.226743 
L 632.841553 429.058162 
L 634.371288 432.026866 
L 635.901023 433.268676 
L 637.430758 434.316454 
L 638.960492 436.586639 
L 640.490227 440.195651 
L 642.019962 444.095712 
L 643.549697 446.152461 
L 645.079432 445.686782 
L 646.609167 443.688243 
L 648.138902 441.379252 
L 649.668636 442.13598 
L 651.198371 447.103222 
L 652.728106 453.603324 
L 654.257841 458.143694 
L 655.787576 458.842212 
L 657.317311 455.039168 
L 658.847045 449.858489 
L 660.37678 445.977831 
L 661.906515 446.346494 
L 663.43625 450.227152 
L 664.965985 453.176452 
L 666.49572 452.380917 
L 668.025455 448.09279 
L 669.555189 441.495671 
L 671.084924 435.926927 
L 672.614659 433.385096 
L 674.144394 433.423903 
L 675.674129 434.297051 
L 677.203864 433.734355 
L 678.733598 431.502977 
L 680.263333 428.883533 
L 681.793068 427.796949 
L 683.322803 428.80592 
L 684.852538 430.823862 
L 686.382273 433.656742 
L 687.912008 434.665713 
L 689.441742 433.191063 
L 690.971477 431.153718 
L 692.501212 429.717874 
L 694.030947 429.834294 
L 695.560682 430.571619 
L 697.090417 429.717874 
L 698.620152 426.884994 
L 700.149886 421.587896 
L 701.679621 414.699728 
L 703.209356 408.898144 
L 704.739091 406.763782 
L 706.268826 407.054832 
L 707.798561 407.889173 
L 709.328295 406.627959 
L 710.85803 402.106993 
L 712.387765 395.354648 
L 713.9175 389.300822 
L 715.447235 386.836604 
L 716.97697 386.739587 
L 718.506705 387.011233 
L 720.036439 386.293312 
L 721.566174 381.423086 
L 723.095909 375.485679 
L 724.625644 371.275165 
L 726.155379 371.508005 
L 729.214848 378.570802 
L 730.744583 380.452921 
L 732.274318 380.297695 
L 733.804053 378.493189 
L 735.333788 379.61858 
L 736.863523 383.635061 
L 738.393258 390.562035 
L 739.922992 394.753146 
L 741.452727 394.42329 
L 742.982462 390.17397 
L 744.512197 382.56788 
L 746.041932 376.281214 
L 747.571667 373.914013 
L 750.631136 380.491728 
L 752.160871 380.685761 
L 753.690606 377.270782 
L 756.750076 364.600433 
L 758.279811 362.951154 
L 759.809545 362.912347 
L 761.33928 364.52282 
L 762.869015 362.718314 
L 764.39875 358.5078 
L 765.928485 354.782369 
L 767.45822 355.286854 
L 768.987955 362.388458 
L 772.047424 378.590205 
L 773.577159 381.229053 
L 775.106894 381.772345 
L 776.636629 383.596254 
L 778.166364 382.470863 
L 779.696098 381.578312 
L 781.225833 381.442489 
L 782.755568 378.667819 
L 784.285303 376.572263 
L 785.815038 375.039403 
L 787.344773 376.106584 
L 788.874508 381.403683 
L 798.052917 410.372794 
L 799.582652 418.172917 
L 802.642121 431.308944 
L 804.171856 434.161228 
L 807.231326 434.995569 
L 808.761061 437.323964 
L 810.290795 441.592688 
L 811.82053 449.45102 
L 813.350265 455.951122 
L 814.88 460.433282 
L 816.409735 461.519866 
L 819.469205 458.395937 
L 820.998939 458.260114 
L 822.528674 460.239249 
L 825.588144 467.651306 
L 827.117879 470.134927 
L 828.647614 471.182705 
L 830.177348 472.502129 
L 831.707083 475.024556 
L 834.766553 483.270954 
L 836.296288 486.472497 
L 837.826023 488.296406 
L 840.885492 490.547188 
L 842.415227 492.50692 
L 845.474697 497.086097 
L 847.004432 498.52194 
L 851.593636 500.908545 
L 853.123371 502.189162 
L 854.653106 503.683215 
L 856.182841 504.963832 
L 857.712576 505.778771 
L 859.242311 506.108627 
L 860.772045 506.225046 
L 863.831515 506.962371 
L 865.36125 507.583277 
L 866.890985 507.932536 
L 868.42072 507.77731 
L 869.950455 506.923565 
L 871.480189 505.293688 
L 873.009924 503.12052 
L 874.539659 500.423463 
L 876.069394 496.581611 
L 877.599129 490.236735 
L 879.128864 479.46791 
L 880.658598 463.207953 
L 882.188333 438.915034 
L 885.247803 385.051501 
L 886.777538 365.551195 
L 888.307273 352.085312 
L 889.837008 343.567267 
L 892.896477 328.083442 
L 894.426212 319.507188 
L 895.955947 315.199657 
L 897.485682 319.429575 
L 899.015417 332.410376 
L 902.074886 366.909425 
L 903.604621 382.315637 
L 905.134356 394.947179 
L 906.664091 406.142877 
L 908.193826 415.960942 
L 909.723561 426.535735 
L 911.253295 434.277647 
L 912.78303 440.506104 
L 915.8425 448.907728 
L 917.372235 454.321246 
L 918.90197 461.034784 
L 920.431705 466.428899 
L 921.961439 469.669248 
L 923.491174 469.319989 
L 925.020909 467.651306 
L 926.550644 466.254269 
L 928.080379 466.875174 
L 929.610114 469.281182 
L 931.139848 472.618548 
L 932.669583 474.98575 
L 934.199318 475.257396 
L 935.729053 474.384248 
L 937.258788 473.317067 
L 938.788523 472.676758 
L 940.318258 472.870791 
L 944.907462 472.540935 
L 946.437197 471.900627 
L 947.966932 471.648384 
L 951.026402 471.958836 
L 952.556136 471.7454 
L 954.085871 470.872252 
L 955.615606 469.397602 
L 957.145341 468.543857 
L 958.675076 468.388631 
L 960.204811 469.184166 
L 961.734545 470.717026 
L 963.26428 471.958836 
L 964.794015 471.997643 
L 966.32375 471.357334 
L 967.853485 469.727458 
L 969.38322 468.67968 
L 970.912955 468.834907 
L 972.442689 469.746861 
L 973.972424 470.794639 
L 975.502159 471.512561 
L 977.031894 471.085688 
L 978.561629 471.008075 
L 980.091364 471.240915 
L 981.621098 472.696161 
L 983.150833 475.102169 
L 984.680568 477.217128 
L 986.210303 478.342519 
L 987.740038 478.788794 
L 989.269773 478.439535 
L 990.799508 478.711181 
L 992.329242 480.050008 
L 995.388712 484.493362 
L 996.918447 485.715769 
L 998.448182 486.123238 
L 1001.507652 485.812785 
L 1003.037386 486.239658 
L 1004.567121 487.054596 
L 1006.096856 487.714308 
L 1007.626591 487.772518 
L 1012.215795 486.356077 
L 1013.74553 486.259061 
L 1015.275265 486.317271 
L 1016.805 486.045625 
L 1018.334735 484.144102 
L 1019.86447 480.961963 
L 1022.923939 473.181244 
L 1024.453674 470.639413 
L 1025.983409 469.02894 
L 1027.513144 466.855771 
L 1029.042879 464.275134 
L 1030.572614 460.200443 
L 1032.102348 455.40783 
L 1033.632083 451.546575 
L 1035.161818 449.140568 
L 1038.221288 447.045012 
L 1039.751023 443.804663 
L 1041.280758 437.77024 
L 1042.810492 430.04773 
L 1044.340227 421.19983 
L 1045.869962 414.137033 
L 1047.399697 409.557856 
L 1048.929432 405.541375 
L 1050.459167 400.865182 
L 1051.988902 395.063599 
L 1055.048371 379.463354 
L 1056.578106 372.711009 
L 1058.107841 368.733334 
L 1059.637576 365.667614 
L 1061.167311 360.642162 
L 1062.697045 352.065908 
L 1064.22678 339.744819 
L 1067.28625 312.696633 
L 1068.815985 302.859165 
L 1070.34572 296.087417 
L 1071.875455 286.308159 
L 1074.934924 258.445035 
L 1076.464659 247.598596 
L 1077.994394 235.219297 
L 1079.524129 221.442961 
L 1081.053864 203.184465 
L 1082.583598 176.893007 
L 1085.643068 121.127952 
L 1087.172803 102.733633 
L 1088.702538 97.087276 
L 1090.232273 94.661865 
L 1090.232273 94.661865 
" clip-path="url(#p78240d6b88)" style="fill: none; stroke: #000000; stroke-width: 1.5; stroke-linecap: square"/>
   </g>
   <g id="patch_3">
    <path d="M 87.95 541.28 
L 87.95 37.72 
" style="fill: none; stroke: #555555; stroke-linejoin: miter; stroke-linecap: square"/>
   </g>
   <g id="patch_4">
    <path d="M 87.95 541.28 
L 1137.96 541.28 
" style="fill: none; stroke: #555555; stroke-linejoin: miter; stroke-linecap: square"/>
   </g>
   <g id="text_29">
    <!-- Positive COVID-19 tests - last updated on 21 November 2021 -->
    <g style="fill: #555555" transform="translate(337.602813 27.72)scale(0.18 -0.18)">
     <defs>
      <path id="DejaVuSans-50" d="M 1259 4147 
L 1259 2394 
L 2053 2394 
Q 2494 2394 2734 2622 
Q 2975 2850 2975 3272 
Q 2975 3691 2734 3919 
Q 2494 4147 2053 4147 
L 1259 4147 
z
M 628 4666 
L 2053 4666 
Q 2838 4666 3239 4311 
Q 3641 3956 3641 3272 
Q 3641 2581 3239 2228 
Q 2838 1875 2053 1875 
L 1259 1875 
L 1259 0 
L 628 0 
L 628 4666 
z
" transform="scale(0.015625)"/>
      <path id="DejaVuSans-6f" d="M 1959 3097 
Q 1497 3097 1228 2736 
Q 959 2375 959 1747 
Q 959 1119 1226 758 
Q 1494 397 1959 397 
Q 2419 397 2687 759 
Q 2956 1122 2956 1747 
Q 2956 2369 2687 2733 
Q 2419 3097 1959 3097 
z
M 1959 3584 
Q 2709 3584 3137 3096 
Q 3566 2609 3566 1747 
Q 3566 888 3137 398 
Q 2709 -91 1959 -91 
Q 1206 -91 779 398 
Q 353 888 353 1747 
Q 353 2609 779 3096 
Q 1206 3584 1959 3584 
z
" transform="scale(0.015625)"/>
      <path id="DejaVuSans-69" d="M 603 3500 
L 1178 3500 
L 1178 0 
L 603 0 
L 603 3500 
z
M 603 4863 
L 1178 4863 
L 1178 4134 
L 603 4134 
L 603 4863 
z
" transform="scale(0.015625)"/>
      <path id="DejaVuSans-74" d="M 1172 4494 
L 1172 3500 
L 2356 3500 
L 2356 3053 
L 1172 3053 
L 1172 1153 
Q 1172 725 1289 603 
Q 1406 481 1766 481 
L 2356 481 
L 2356 0 
L 1766 0 
Q 1100 0 847 248 
Q 594 497 594 1153 
L 594 3053 
L 172 3053 
L 172 3500 
L 594 3500 
L 594 4494 
L 1172 4494 
z
" transform="scale(0.015625)"/>
      <path id="DejaVuSans-76" d="M 191 3500 
L 800 3500 
L 1894 563 
L 2988 3500 
L 3597 3500 
L 2284 0 
L 1503 0 
L 191 3500 
z
" transform="scale(0.015625)"/>
      <path id="DejaVuSans-4f" d="M 2522 4238 
Q 1834 4238 1429 3725 
Q 1025 3213 1025 2328 
Q 1025 1447 1429 934 
Q 1834 422 2522 422 
Q 3209 422 3611 934 
Q 4013 1447 4013 2328 
Q 4013 3213 3611 3725 
Q 3209 4238 2522 4238 
z
M 2522 4750 
Q 3503 4750 4090 4092 
Q 4678 3434 4678 2328 
Q 4678 1225 4090 567 
Q 3503 -91 2522 -91 
Q 1538 -91 948 565 
Q 359 1222 359 2328 
Q 359 3434 948 4092 
Q 1538 4750 2522 4750 
z
" transform="scale(0.015625)"/>
      <path id="DejaVuSans-56" d="M 1831 0 
L 50 4666 
L 709 4666 
L 2188 738 
L 3669 4666 
L 4325 4666 
L 2547 0 
L 1831 0 
z
" transform="scale(0.015625)"/>
      <path id="DejaVuSans-49" d="M 628 4666 
L 1259 4666 
L 1259 0 
L 628 0 
L 628 4666 
z
" transform="scale(0.015625)"/>
      <path id="DejaVuSans-44" d="M 1259 4147 
L 1259 519 
L 2022 519 
Q 2988 519 3436 956 
Q 3884 1394 3884 2338 
Q 3884 3275 3436 3711 
Q 2988 4147 2022 4147 
L 1259 4147 
z
M 628 4666 
L 1925 4666 
Q 3281 4666 3915 4102 
Q 4550 3538 4550 2338 
Q 4550 1131 3912 565 
Q 3275 0 1925 0 
L 628 0 
L 628 4666 
z
" transform="scale(0.015625)"/>
      <path id="DejaVuSans-2d" d="M 313 2009 
L 1997 2009 
L 1997 1497 
L 313 1497 
L 313 2009 
z
" transform="scale(0.015625)"/>
      <path id="DejaVuSans-31" d="M 794 531 
L 1825 531 
L 1825 4091 
L 703 3866 
L 703 4441 
L 1819 4666 
L 2450 4666 
L 2450 531 
L 3481 531 
L 3481 0 
L 794 0 
L 794 531 
z
" transform="scale(0.015625)"/>
      <path id="DejaVuSans-39" d="M 703 97 
L 703 672 
Q 941 559 1184 500 
Q 1428 441 1663 441 
Q 2288 441 2617 861 
Q 2947 1281 2994 2138 
Q 2813 1869 2534 1725 
Q 2256 1581 1919 1581 
Q 1219 1581 811 2004 
Q 403 2428 403 3163 
Q 403 3881 828 4315 
Q 1253 4750 1959 4750 
Q 2769 4750 3195 4129 
Q 3622 3509 3622 2328 
Q 3622 1225 3098 567 
Q 2575 -91 1691 -91 
Q 1453 -91 1209 -44 
Q 966 3 703 97 
z
M 1959 2075 
Q 2384 2075 2632 2365 
Q 2881 2656 2881 3163 
Q 2881 3666 2632 3958 
Q 2384 4250 1959 4250 
Q 1534 4250 1286 3958 
Q 1038 3666 1038 3163 
Q 1038 2656 1286 2365 
Q 1534 2075 1959 2075 
z
" transform="scale(0.015625)"/>
      <path id="DejaVuSans-6c" d="M 603 4863 
L 1178 4863 
L 1178 0 
L 603 0 
L 603 4863 
z
" transform="scale(0.015625)"/>
      <path id="DejaVuSans-75" d="M 544 1381 
L 544 3500 
L 1119 3500 
L 1119 1403 
Q 1119 906 1312 657 
Q 1506 409 1894 409 
Q 2359 409 2629 706 
Q 2900 1003 2900 1516 
L 2900 3500 
L 3475 3500 
L 3475 0 
L 2900 0 
L 2900 538 
Q 2691 219 2414 64 
Q 2138 -91 1772 -91 
Q 1169 -91 856 284 
Q 544 659 544 1381 
z
M 1991 3584 
L 1991 3584 
z
" transform="scale(0.015625)"/>
      <path id="DejaVuSans-70" d="M 1159 525 
L 1159 -1331 
L 581 -1331 
L 581 3500 
L 1159 3500 
L 1159 2969 
Q 1341 3281 1617 3432 
Q 1894 3584 2278 3584 
Q 2916 3584 3314 3078 
Q 3713 2572 3713 1747 
Q 3713 922 3314 415 
Q 2916 -91 2278 -91 
Q 1894 -91 1617 61 
Q 1341 213 1159 525 
z
M 3116 1747 
Q 3116 2381 2855 2742 
Q 2594 3103 2138 3103 
Q 1681 3103 1420 2742 
Q 1159 2381 1159 1747 
Q 1159 1113 1420 752 
Q 1681 391 2138 391 
Q 2594 391 2855 752 
Q 3116 1113 3116 1747 
z
" transform="scale(0.015625)"/>
      <path id="DejaVuSans-64" d="M 2906 2969 
L 2906 4863 
L 3481 4863 
L 3481 0 
L 2906 0 
L 2906 525 
Q 2725 213 2448 61 
Q 2172 -91 1784 -91 
Q 1150 -91 751 415 
Q 353 922 353 1747 
Q 353 2572 751 3078 
Q 1150 3584 1784 3584 
Q 2172 3584 2448 3432 
Q 2725 3281 2906 2969 
z
M 947 1747 
Q 947 1113 1208 752 
Q 1469 391 1925 391 
Q 2381 391 2643 752 
Q 2906 1113 2906 1747 
Q 2906 2381 2643 2742 
Q 2381 3103 1925 3103 
Q 1469 3103 1208 2742 
Q 947 2381 947 1747 
z
" transform="scale(0.015625)"/>
      <path id="DejaVuSans-6e" d="M 3513 2113 
L 3513 0 
L 2938 0 
L 2938 2094 
Q 2938 2591 2744 2837 
Q 2550 3084 2163 3084 
Q 1697 3084 1428 2787 
Q 1159 2491 1159 1978 
L 1159 0 
L 581 0 
L 581 3500 
L 1159 3500 
L 1159 2956 
Q 1366 3272 1645 3428 
Q 1925 3584 2291 3584 
Q 2894 3584 3203 3211 
Q 3513 2838 3513 2113 
z
" transform="scale(0.015625)"/>
      <path id="DejaVuSans-32" d="M 1228 531 
L 3431 531 
L 3431 0 
L 469 0 
L 469 531 
Q 828 903 1448 1529 
Q 2069 2156 2228 2338 
Q 2531 2678 2651 2914 
Q 2772 3150 2772 3378 
Q 2772 3750 2511 3984 
Q 2250 4219 1831 4219 
Q 1534 4219 1204 4116 
Q 875 4013 500 3803 
L 500 4441 
Q 881 4594 1212 4672 
Q 1544 4750 1819 4750 
Q 2544 4750 2975 4387 
Q 3406 4025 3406 3419 
Q 3406 3131 3298 2873 
Q 3191 2616 2906 2266 
Q 2828 2175 2409 1742 
Q 1991 1309 1228 531 
z
" transform="scale(0.015625)"/>
      <path id="DejaVuSans-6d" d="M 3328 2828 
Q 3544 3216 3844 3400 
Q 4144 3584 4550 3584 
Q 5097 3584 5394 3201 
Q 5691 2819 5691 2113 
L 5691 0 
L 5113 0 
L 5113 2094 
Q 5113 2597 4934 2840 
Q 4756 3084 4391 3084 
Q 3944 3084 3684 2787 
Q 3425 2491 3425 1978 
L 3425 0 
L 2847 0 
L 2847 2094 
Q 2847 2600 2669 2842 
Q 2491 3084 2119 3084 
Q 1678 3084 1418 2786 
Q 1159 2488 1159 1978 
L 1159 0 
L 581 0 
L 581 3500 
L 1159 3500 
L 1159 2956 
Q 1356 3278 1631 3431 
Q 1906 3584 2284 3584 
Q 2666 3584 2933 3390 
Q 3200 3197 3328 2828 
z
" transform="scale(0.015625)"/>
      <path id="DejaVuSans-62" d="M 3116 1747 
Q 3116 2381 2855 2742 
Q 2594 3103 2138 3103 
Q 1681 3103 1420 2742 
Q 1159 2381 1159 1747 
Q 1159 1113 1420 752 
Q 1681 391 2138 391 
Q 2594 391 2855 752 
Q 3116 1113 3116 1747 
z
M 1159 2969 
Q 1341 3281 1617 3432 
Q 1894 3584 2278 3584 
Q 2916 3584 3314 3078 
Q 3713 2572 3713 1747 
Q 3713 922 3314 415 
Q 2916 -91 2278 -91 
Q 1894 -91 1617 61 
Q 1341 213 1159 525 
L 1159 0 
L 581 0 
L 581 4863 
L 1159 4863 
L 1159 2969 
z
" transform="scale(0.015625)"/>
      <path id="DejaVuSans-72" d="M 2631 2963 
Q 2534 3019 2420 3045 
Q 2306 3072 2169 3072 
Q 1681 3072 1420 2755 
Q 1159 2438 1159 1844 
L 1159 0 
L 581 0 
L 581 3500 
L 1159 3500 
L 1159 2956 
Q 1341 3275 1631 3429 
Q 1922 3584 2338 3584 
Q 2397 3584 2469 3576 
Q 2541 3569 2628 3553 
L 2631 2963 
z
" transform="scale(0.015625)"/>
      <path id="DejaVuSans-30" d="M 2034 4250 
Q 1547 4250 1301 3770 
Q 1056 3291 1056 2328 
Q 1056 1369 1301 889 
Q 1547 409 2034 409 
Q 2525 409 2770 889 
Q 3016 1369 3016 2328 
Q 3016 3291 2770 3770 
Q 2525 4250 2034 4250 
z
M 2034 4750 
Q 2819 4750 3233 4129 
Q 3647 3509 3647 2328 
Q 3647 1150 3233 529 
Q 2819 -91 2034 -91 
Q 1250 -91 836 529 
Q 422 1150 422 2328 
Q 422 3509 836 4129 
Q 1250 4750 2034 4750 
z
" transform="scale(0.015625)"/>
     </defs>
     <use xlink:href="#DejaVuSans-50"/>
     <use xlink:href="#DejaVuSans-6f" x="56.677734"/>
     <use xlink:href="#DejaVuSans-73" x="117.859375"/>
     <use xlink:href="#DejaVuSans-69" x="169.958984"/>
     <use xlink:href="#DejaVuSans-74" x="197.742188"/>
     <use xlink:href="#DejaVuSans-69" x="236.951172"/>
     <use xlink:href="#DejaVuSans-76" x="264.734375"/>
     <use xlink:href="#DejaVuSans-65" x="323.914062"/>
     <use xlink:href="#DejaVuSans-20" x="385.4375"/>
     <use xlink:href="#DejaVuSans-43" x="417.224609"/>
     <use xlink:href="#DejaVuSans-4f" x="487.048828"/>
     <use xlink:href="#DejaVuSans-56" x="564.009766"/>
     <use xlink:href="#DejaVuSans-49" x="632.417969"/>
     <use xlink:href="#DejaVuSans-44" x="661.910156"/>
     <use xlink:href="#DejaVuSans-2d" x="738.912109"/>
     <use xlink:href="#DejaVuSans-31" x="774.996094"/>
     <use xlink:href="#DejaVuSans-39" x="838.619141"/>
     <use xlink:href="#DejaVuSans-20" x="902.242188"/>
     <use xlink:href="#DejaVuSans-74" x="934.029297"/>
     <use xlink:href="#DejaVuSans-65" x="973.238281"/>
     <use xlink:href="#DejaVuSans-73" x="1034.761719"/>
     <use xlink:href="#DejaVuSans-74" x="1086.861328"/>
     <use xlink:href="#DejaVuSans-73" x="1126.070312"/>
     <use xlink:href="#DejaVuSans-20" x="1178.169922"/>
     <use xlink:href="#DejaVuSans-2d" x="1209.957031"/>
     <use xlink:href="#DejaVuSans-20" x="1246.041016"/>
     <use xlink:href="#DejaVuSans-6c" x="1277.828125"/>
     <use xlink:href="#DejaVuSans-61" x="1305.611328"/>
     <use xlink:href="#DejaVuSans-73" x="1366.890625"/>
     <use xlink:href="#DejaVuSans-74" x="1418.990234"/>
     <use xlink:href="#DejaVuSans-20" x="1458.199219"/>
     <use xlink:href="#DejaVuSans-75" x="1489.986328"/>
     <use xlink:href="#DejaVuSans-70" x="1553.365234"/>
     <use xlink:href="#DejaVuSans-64" x="1616.841797"/>
     <use xlink:href="#DejaVuSans-61" x="1680.318359"/>
     <use xlink:href="#DejaVuSans-74" x="1741.597656"/>
     <use xlink:href="#DejaVuSans-65" x="1780.806641"/>
     <use xlink:href="#DejaVuSans-64" x="1842.330078"/>
     <use xlink:href="#DejaVuSans-20" x="1905.806641"/>
     <use xlink:href="#DejaVuSans-6f" x="1937.59375"/>
     <use xlink:href="#DejaVuSans-6e" x="1998.775391"/>
     <use xlink:href="#DejaVuSans-20" x="2062.154297"/>
     <use xlink:href="#DejaVuSans-32" x="2093.941406"/>
     <use xlink:href="#DejaVuSans-31" x="2157.564453"/>
     <use xlink:href="#DejaVuSans-20" x="2221.1875"/>
     <use xlink:href="#DejaVuSans-4e" x="2252.974609"/>
     <use xlink:href="#DejaVuSans-6f" x="2327.779297"/>
     <use xlink:href="#DejaVuSans-76" x="2388.960938"/>
     <use xlink:href="#DejaVuSans-65" x="2448.140625"/>
     <use xlink:href="#DejaVuSans-6d" x="2509.664062"/>
     <use xlink:href="#DejaVuSans-62" x="2607.076172"/>
     <use xlink:href="#DejaVuSans-65" x="2670.552734"/>
     <use xlink:href="#DejaVuSans-72" x="2732.076172"/>
     <use xlink:href="#DejaVuSans-20" x="2773.189453"/>
     <use xlink:href="#DejaVuSans-32" x="2804.976562"/>
     <use xlink:href="#DejaVuSans-30" x="2868.599609"/>
     <use xlink:href="#DejaVuSans-32" x="2932.222656"/>
     <use xlink:href="#DejaVuSans-31" x="2995.845703"/>
    </g>
   </g>
   <g id="legend_1">
    <g id="line2d_30">
     <path d="M 99.65 54.747969 
L 112.65 54.747969 
L 125.65 54.747969 
" style="fill: none; stroke-dasharray: 1.5,2.475; stroke-dashoffset: 0; stroke: #000000; stroke-opacity: 0.5; stroke-width: 1.5"/>
    </g>
    <g id="text_30">
     <!-- Actual -->
     <g style="fill: #555555" transform="translate(136.05 59.297969)scale(0.13 -0.13)">
      <use xlink:href="#DejaVuSans-Bold-41"/>
      <use xlink:href="#DejaVuSans-Bold-63" x="77.392578"/>
      <use xlink:href="#DejaVuSans-Bold-74" x="136.669922"/>
      <use xlink:href="#DejaVuSans-Bold-75" x="184.472656"/>
      <use xlink:href="#DejaVuSans-Bold-61" x="255.664062"/>
      <use xlink:href="#DejaVuSans-Bold-6c" x="323.144531"/>
     </g>
    </g>
    <g id="line2d_31">
     <path d="M 99.65 73.829531 
L 112.65 73.829531 
L 125.65 73.829531 
" style="fill: none; stroke: #000000; stroke-width: 1.5; stroke-linecap: square"/>
    </g>
    <g id="text_31">
     <!-- Smoothed -->
     <g style="fill: #555555" transform="translate(136.05 78.379531)scale(0.13 -0.13)">
      <defs>
       <path id="DejaVuSans-Bold-6d" d="M 3781 2919 
Q 3994 3244 4286 3414 
Q 4578 3584 4928 3584 
Q 5531 3584 5847 3212 
Q 6163 2841 6163 2131 
L 6163 0 
L 5038 0 
L 5038 1825 
Q 5041 1866 5042 1909 
Q 5044 1953 5044 2034 
Q 5044 2406 4934 2573 
Q 4825 2741 4581 2741 
Q 4263 2741 4089 2478 
Q 3916 2216 3909 1719 
L 3909 0 
L 2784 0 
L 2784 1825 
Q 2784 2406 2684 2573 
Q 2584 2741 2328 2741 
Q 2006 2741 1831 2477 
Q 1656 2213 1656 1722 
L 1656 0 
L 531 0 
L 531 3500 
L 1656 3500 
L 1656 2988 
Q 1863 3284 2130 3434 
Q 2397 3584 2719 3584 
Q 3081 3584 3359 3409 
Q 3638 3234 3781 2919 
z
" transform="scale(0.015625)"/>
       <path id="DejaVuSans-Bold-68" d="M 4056 2131 
L 4056 0 
L 2931 0 
L 2931 347 
L 2931 1625 
Q 2931 2084 2911 2256 
Q 2891 2428 2841 2509 
Q 2775 2619 2662 2680 
Q 2550 2741 2406 2741 
Q 2056 2741 1856 2470 
Q 1656 2200 1656 1722 
L 1656 0 
L 538 0 
L 538 4863 
L 1656 4863 
L 1656 2988 
Q 1909 3294 2193 3439 
Q 2478 3584 2822 3584 
Q 3428 3584 3742 3212 
Q 4056 2841 4056 2131 
z
" transform="scale(0.015625)"/>
       <path id="DejaVuSans-Bold-64" d="M 2919 2988 
L 2919 4863 
L 4044 4863 
L 4044 0 
L 2919 0 
L 2919 506 
Q 2688 197 2409 53 
Q 2131 -91 1766 -91 
Q 1119 -91 703 423 
Q 288 938 288 1747 
Q 288 2556 703 3070 
Q 1119 3584 1766 3584 
Q 2128 3584 2408 3439 
Q 2688 3294 2919 2988 
z
M 2181 722 
Q 2541 722 2730 984 
Q 2919 1247 2919 1747 
Q 2919 2247 2730 2509 
Q 2541 2772 2181 2772 
Q 1825 2772 1636 2509 
Q 1447 2247 1447 1747 
Q 1447 1247 1636 984 
Q 1825 722 2181 722 
z
" transform="scale(0.015625)"/>
      </defs>
      <use xlink:href="#DejaVuSans-Bold-53"/>
      <use xlink:href="#DejaVuSans-Bold-6d" x="72.021484"/>
      <use xlink:href="#DejaVuSans-Bold-6f" x="176.220703"/>
      <use xlink:href="#DejaVuSans-Bold-6f" x="244.921875"/>
      <use xlink:href="#DejaVuSans-Bold-74" x="313.623047"/>
      <use xlink:href="#DejaVuSans-Bold-68" x="361.425781"/>
      <use xlink:href="#DejaVuSans-Bold-65" x="432.617188"/>
      <use xlink:href="#DejaVuSans-Bold-64" x="500.439453"/>
     </g>
    </g>
   </g>
  </g>
 </g>
 <defs>
  <clipPath id="p78240d6b88">
   <rect x="87.95" y="37.72" width="1050.01" height="503.56"/>
  </clipPath>
 </defs>
</svg>
