<?xml version="1.0" encoding="utf-8" standalone="no"?>
<!DOCTYPE svg PUBLIC "-//W3C//DTD SVG 1.1//EN"
  "http://www.w3.org/Graphics/SVG/1.1/DTD/svg11.dtd">
<svg height="576pt" version="1.1" viewBox="0 0 1152 576" width="1152pt" xmlns="http://www.w3.org/2000/svg" xmlns:xlink="http://www.w3.org/1999/xlink">
 <metadata>
  <rdf:RDF xmlns:cc="http://creativecommons.org/ns#" xmlns:dc="http://purl.org/dc/elements/1.1/" xmlns:rdf="http://www.w3.org/1999/02/22-rdf-syntax-ns#">
   <cc:Work>
    <dc:type rdf:resource="http://purl.org/dc/dcmitype/StillImage"/>
    <dc:date>2021-07-02T17:19:18.729562</dc:date>
    <dc:format>image/svg+xml</dc:format>
    <dc:creator>
     <cc:Agent>
      <dc:title>Matplotlib v3.4.2, https://matplotlib.org/</dc:title>
     </cc:Agent>
    </dc:creator>
   </cc:Work>
  </rdf:RDF>
 </metadata>
 <defs>
  <style type="text/css">*{stroke-linecap:butt;stroke-linejoin:round;}</style>
 </defs>
 <g id="figure_1">
  <g id="patch_1">
   <path d="M 0 576 
L 1152 576 
L 1152 0 
L 0 0 
z
" style="fill:#ffffff;"/>
  </g>
  <g id="axes_1">
   <g id="patch_2">
    <path d="M 87.95 541.28 
L 1137.96 541.28 
L 1137.96 37.72 
L 87.95 37.72 
z
" style="fill:#ffffff;"/>
   </g>
   <g id="matplotlib.axis_1">
    <g id="xtick_1">
     <g id="line2d_1">
      <defs>
       <path d="M 0 0 
L 0 3.5 
" id="m8ed8bcc919" style="stroke:#555555;stroke-width:0.8;"/>
      </defs>
      <g>
       <use style="fill:#555555;stroke:#555555;stroke-width:0.8;" x="125.79621" xlink:href="#m8ed8bcc919" y="541.28"/>
      </g>
     </g>
     <g id="text_1">
      <!-- Mar -->
      <g style="fill:#555555;" transform="translate(110.654335 558.917812)scale(0.14 -0.14)">
       <defs>
        <path d="M 588 4666 
L 2119 4666 
L 3181 2169 
L 4250 4666 
L 5778 4666 
L 5778 0 
L 4641 0 
L 4641 3413 
L 3566 897 
L 2803 897 
L 1728 3413 
L 1728 0 
L 588 0 
L 588 4666 
z
" id="DejaVuSans-Bold-4d" transform="scale(0.015625)"/>
        <path d="M 2106 1575 
Q 1756 1575 1579 1456 
Q 1403 1338 1403 1106 
Q 1403 894 1545 773 
Q 1688 653 1941 653 
Q 2256 653 2472 879 
Q 2688 1106 2688 1447 
L 2688 1575 
L 2106 1575 
z
M 3816 1997 
L 3816 0 
L 2688 0 
L 2688 519 
Q 2463 200 2181 54 
Q 1900 -91 1497 -91 
Q 953 -91 614 226 
Q 275 544 275 1050 
Q 275 1666 698 1953 
Q 1122 2241 2028 2241 
L 2688 2241 
L 2688 2328 
Q 2688 2594 2478 2717 
Q 2269 2841 1825 2841 
Q 1466 2841 1156 2769 
Q 847 2697 581 2553 
L 581 3406 
Q 941 3494 1303 3539 
Q 1666 3584 2028 3584 
Q 2975 3584 3395 3211 
Q 3816 2838 3816 1997 
z
" id="DejaVuSans-Bold-61" transform="scale(0.015625)"/>
        <path d="M 3138 2547 
Q 2991 2616 2845 2648 
Q 2700 2681 2553 2681 
Q 2122 2681 1889 2404 
Q 1656 2128 1656 1613 
L 1656 0 
L 538 0 
L 538 3500 
L 1656 3500 
L 1656 2925 
Q 1872 3269 2151 3426 
Q 2431 3584 2822 3584 
Q 2878 3584 2943 3579 
Q 3009 3575 3134 3559 
L 3138 2547 
z
" id="DejaVuSans-Bold-72" transform="scale(0.015625)"/>
       </defs>
       <use xlink:href="#DejaVuSans-Bold-4d"/>
       <use x="99.511719" xlink:href="#DejaVuSans-Bold-61"/>
       <use x="166.992188" xlink:href="#DejaVuSans-Bold-72"/>
      </g>
     </g>
    </g>
    <g id="xtick_2">
     <g id="line2d_2">
      <g>
       <use style="fill:#555555;stroke:#555555;stroke-width:0.8;" x="187.061616" xlink:href="#m8ed8bcc919" y="541.28"/>
      </g>
     </g>
     <g id="text_2">
      <!-- Apr -->
      <g style="fill:#555555;" transform="translate(173.181928 558.917812)scale(0.14 -0.14)">
       <defs>
        <path d="M 3419 850 
L 1538 850 
L 1241 0 
L 31 0 
L 1759 4666 
L 3194 4666 
L 4922 0 
L 3713 0 
L 3419 850 
z
M 1838 1716 
L 3116 1716 
L 2478 3572 
L 1838 1716 
z
" id="DejaVuSans-Bold-41" transform="scale(0.015625)"/>
        <path d="M 1656 506 
L 1656 -1331 
L 538 -1331 
L 538 3500 
L 1656 3500 
L 1656 2988 
Q 1888 3294 2169 3439 
Q 2450 3584 2816 3584 
Q 3463 3584 3878 3070 
Q 4294 2556 4294 1747 
Q 4294 938 3878 423 
Q 3463 -91 2816 -91 
Q 2450 -91 2169 54 
Q 1888 200 1656 506 
z
M 2400 2772 
Q 2041 2772 1848 2508 
Q 1656 2244 1656 1747 
Q 1656 1250 1848 986 
Q 2041 722 2400 722 
Q 2759 722 2948 984 
Q 3138 1247 3138 1747 
Q 3138 2247 2948 2509 
Q 2759 2772 2400 2772 
z
" id="DejaVuSans-Bold-70" transform="scale(0.015625)"/>
       </defs>
       <use xlink:href="#DejaVuSans-Bold-41"/>
       <use x="77.392578" xlink:href="#DejaVuSans-Bold-70"/>
       <use x="148.974609" xlink:href="#DejaVuSans-Bold-72"/>
      </g>
     </g>
    </g>
    <g id="xtick_3">
     <g id="line2d_3">
      <g>
       <use style="fill:#555555;stroke:#555555;stroke-width:0.8;" x="246.350718" xlink:href="#m8ed8bcc919" y="541.28"/>
      </g>
     </g>
     <g id="text_3">
      <!-- May -->
      <g style="fill:#555555;" transform="translate(230.316343 558.808437)scale(0.14 -0.14)">
       <defs>
        <path d="M 78 3500 
L 1197 3500 
L 2138 1125 
L 2938 3500 
L 4056 3500 
L 2584 -331 
Q 2363 -916 2067 -1148 
Q 1772 -1381 1288 -1381 
L 641 -1381 
L 641 -647 
L 991 -647 
Q 1275 -647 1404 -556 
Q 1534 -466 1606 -231 
L 1638 -134 
L 78 3500 
z
" id="DejaVuSans-Bold-79" transform="scale(0.015625)"/>
       </defs>
       <use xlink:href="#DejaVuSans-Bold-4d"/>
       <use x="99.511719" xlink:href="#DejaVuSans-Bold-61"/>
       <use x="163.867188" xlink:href="#DejaVuSans-Bold-79"/>
      </g>
     </g>
    </g>
    <g id="xtick_4">
     <g id="line2d_4">
      <g>
       <use style="fill:#555555;stroke:#555555;stroke-width:0.8;" x="307.616124" xlink:href="#m8ed8bcc919" y="541.28"/>
      </g>
     </g>
     <g id="text_4">
      <!-- Jun -->
      <g style="fill:#555555;" transform="translate(295.045655 558.917812)scale(0.14 -0.14)">
       <defs>
        <path d="M 588 4666 
L 1791 4666 
L 1791 453 
Q 1791 -419 1317 -850 
Q 844 -1281 -116 -1281 
L -359 -1281 
L -359 -372 
L -172 -372 
Q 203 -372 395 -162 
Q 588 47 588 453 
L 588 4666 
z
" id="DejaVuSans-Bold-4a" transform="scale(0.015625)"/>
        <path d="M 500 1363 
L 500 3500 
L 1625 3500 
L 1625 3150 
Q 1625 2866 1622 2436 
Q 1619 2006 1619 1863 
Q 1619 1441 1641 1255 
Q 1663 1069 1716 984 
Q 1784 875 1895 815 
Q 2006 756 2150 756 
Q 2500 756 2700 1025 
Q 2900 1294 2900 1772 
L 2900 3500 
L 4019 3500 
L 4019 0 
L 2900 0 
L 2900 506 
Q 2647 200 2364 54 
Q 2081 -91 1741 -91 
Q 1134 -91 817 281 
Q 500 653 500 1363 
z
" id="DejaVuSans-Bold-75" transform="scale(0.015625)"/>
        <path d="M 4056 2131 
L 4056 0 
L 2931 0 
L 2931 347 
L 2931 1631 
Q 2931 2084 2911 2256 
Q 2891 2428 2841 2509 
Q 2775 2619 2662 2680 
Q 2550 2741 2406 2741 
Q 2056 2741 1856 2470 
Q 1656 2200 1656 1722 
L 1656 0 
L 538 0 
L 538 3500 
L 1656 3500 
L 1656 2988 
Q 1909 3294 2193 3439 
Q 2478 3584 2822 3584 
Q 3428 3584 3742 3212 
Q 4056 2841 4056 2131 
z
" id="DejaVuSans-Bold-6e" transform="scale(0.015625)"/>
       </defs>
       <use xlink:href="#DejaVuSans-Bold-4a"/>
       <use x="37.207031" xlink:href="#DejaVuSans-Bold-75"/>
       <use x="108.398438" xlink:href="#DejaVuSans-Bold-6e"/>
      </g>
     </g>
    </g>
    <g id="xtick_5">
     <g id="line2d_5">
      <g>
       <use style="fill:#555555;stroke:#555555;stroke-width:0.8;" x="366.905226" xlink:href="#m8ed8bcc919" y="541.28"/>
      </g>
     </g>
     <g id="text_5">
      <!-- Jul -->
      <g style="fill:#555555;" transform="translate(356.918195 558.917812)scale(0.14 -0.14)">
       <defs>
        <path d="M 538 4863 
L 1656 4863 
L 1656 0 
L 538 0 
L 538 4863 
z
" id="DejaVuSans-Bold-6c" transform="scale(0.015625)"/>
       </defs>
       <use xlink:href="#DejaVuSans-Bold-4a"/>
       <use x="37.207031" xlink:href="#DejaVuSans-Bold-75"/>
       <use x="108.398438" xlink:href="#DejaVuSans-Bold-6c"/>
      </g>
     </g>
    </g>
    <g id="xtick_6">
     <g id="line2d_6">
      <g>
       <use style="fill:#555555;stroke:#555555;stroke-width:0.8;" x="428.170631" xlink:href="#m8ed8bcc919" y="541.28"/>
      </g>
     </g>
     <g id="text_6">
      <!-- Aug -->
      <g style="fill:#555555;" transform="translate(412.759694 558.808437)scale(0.14 -0.14)">
       <defs>
        <path d="M 2919 594 
Q 2688 288 2409 144 
Q 2131 0 1766 0 
Q 1125 0 706 504 
Q 288 1009 288 1791 
Q 288 2575 706 3076 
Q 1125 3578 1766 3578 
Q 2131 3578 2409 3434 
Q 2688 3291 2919 2981 
L 2919 3500 
L 4044 3500 
L 4044 353 
Q 4044 -491 3511 -936 
Q 2978 -1381 1966 -1381 
Q 1638 -1381 1331 -1331 
Q 1025 -1281 716 -1178 
L 716 -306 
Q 1009 -475 1290 -558 
Q 1572 -641 1856 -641 
Q 2406 -641 2662 -400 
Q 2919 -159 2919 353 
L 2919 594 
z
M 2181 2772 
Q 1834 2772 1640 2515 
Q 1447 2259 1447 1791 
Q 1447 1309 1634 1061 
Q 1822 813 2181 813 
Q 2531 813 2725 1069 
Q 2919 1325 2919 1791 
Q 2919 2259 2725 2515 
Q 2531 2772 2181 2772 
z
" id="DejaVuSans-Bold-67" transform="scale(0.015625)"/>
       </defs>
       <use xlink:href="#DejaVuSans-Bold-41"/>
       <use x="77.392578" xlink:href="#DejaVuSans-Bold-75"/>
       <use x="148.583984" xlink:href="#DejaVuSans-Bold-67"/>
      </g>
     </g>
    </g>
    <g id="xtick_7">
     <g id="line2d_7">
      <g>
       <use style="fill:#555555;stroke:#555555;stroke-width:0.8;" x="489.436037" xlink:href="#m8ed8bcc919" y="541.28"/>
      </g>
     </g>
     <g id="text_7">
      <!-- Sep -->
      <g style="fill:#555555;" transform="translate(474.636506 558.917812)scale(0.14 -0.14)">
       <defs>
        <path d="M 3834 4519 
L 3834 3531 
Q 3450 3703 3084 3790 
Q 2719 3878 2394 3878 
Q 1963 3878 1756 3759 
Q 1550 3641 1550 3391 
Q 1550 3203 1689 3098 
Q 1828 2994 2194 2919 
L 2706 2816 
Q 3484 2659 3812 2340 
Q 4141 2022 4141 1434 
Q 4141 663 3683 286 
Q 3225 -91 2284 -91 
Q 1841 -91 1394 -6 
Q 947 78 500 244 
L 500 1259 
Q 947 1022 1364 901 
Q 1781 781 2169 781 
Q 2563 781 2772 912 
Q 2981 1044 2981 1288 
Q 2981 1506 2839 1625 
Q 2697 1744 2272 1838 
L 1806 1941 
Q 1106 2091 782 2419 
Q 459 2747 459 3303 
Q 459 4000 909 4375 
Q 1359 4750 2203 4750 
Q 2588 4750 2994 4692 
Q 3400 4634 3834 4519 
z
" id="DejaVuSans-Bold-53" transform="scale(0.015625)"/>
        <path d="M 4031 1759 
L 4031 1441 
L 1416 1441 
Q 1456 1047 1700 850 
Q 1944 653 2381 653 
Q 2734 653 3104 758 
Q 3475 863 3866 1075 
L 3866 213 
Q 3469 63 3072 -14 
Q 2675 -91 2278 -91 
Q 1328 -91 801 392 
Q 275 875 275 1747 
Q 275 2603 792 3093 
Q 1309 3584 2216 3584 
Q 3041 3584 3536 3087 
Q 4031 2591 4031 1759 
z
M 2881 2131 
Q 2881 2450 2695 2645 
Q 2509 2841 2209 2841 
Q 1884 2841 1681 2658 
Q 1478 2475 1428 2131 
L 2881 2131 
z
" id="DejaVuSans-Bold-65" transform="scale(0.015625)"/>
       </defs>
       <use xlink:href="#DejaVuSans-Bold-53"/>
       <use x="72.021484" xlink:href="#DejaVuSans-Bold-65"/>
       <use x="139.84375" xlink:href="#DejaVuSans-Bold-70"/>
      </g>
     </g>
    </g>
    <g id="xtick_8">
     <g id="line2d_8">
      <g>
       <use style="fill:#555555;stroke:#555555;stroke-width:0.8;" x="548.725139" xlink:href="#m8ed8bcc919" y="541.28"/>
      </g>
     </g>
     <g id="text_8">
      <!-- Oct -->
      <g style="fill:#555555;" transform="translate(535.278577 558.917812)scale(0.14 -0.14)">
       <defs>
        <path d="M 2719 3878 
Q 2169 3878 1866 3472 
Q 1563 3066 1563 2328 
Q 1563 1594 1866 1187 
Q 2169 781 2719 781 
Q 3272 781 3575 1187 
Q 3878 1594 3878 2328 
Q 3878 3066 3575 3472 
Q 3272 3878 2719 3878 
z
M 2719 4750 
Q 3844 4750 4481 4106 
Q 5119 3463 5119 2328 
Q 5119 1197 4481 553 
Q 3844 -91 2719 -91 
Q 1597 -91 958 553 
Q 319 1197 319 2328 
Q 319 3463 958 4106 
Q 1597 4750 2719 4750 
z
" id="DejaVuSans-Bold-4f" transform="scale(0.015625)"/>
        <path d="M 3366 3391 
L 3366 2478 
Q 3138 2634 2908 2709 
Q 2678 2784 2431 2784 
Q 1963 2784 1702 2511 
Q 1441 2238 1441 1747 
Q 1441 1256 1702 982 
Q 1963 709 2431 709 
Q 2694 709 2930 787 
Q 3166 866 3366 1019 
L 3366 103 
Q 3103 6 2833 -42 
Q 2563 -91 2291 -91 
Q 1344 -91 809 395 
Q 275 881 275 1747 
Q 275 2613 809 3098 
Q 1344 3584 2291 3584 
Q 2566 3584 2833 3536 
Q 3100 3488 3366 3391 
z
" id="DejaVuSans-Bold-63" transform="scale(0.015625)"/>
        <path d="M 1759 4494 
L 1759 3500 
L 2913 3500 
L 2913 2700 
L 1759 2700 
L 1759 1216 
Q 1759 972 1856 886 
Q 1953 800 2241 800 
L 2816 800 
L 2816 0 
L 1856 0 
Q 1194 0 917 276 
Q 641 553 641 1216 
L 641 2700 
L 84 2700 
L 84 3500 
L 641 3500 
L 641 4494 
L 1759 4494 
z
" id="DejaVuSans-Bold-74" transform="scale(0.015625)"/>
       </defs>
       <use xlink:href="#DejaVuSans-Bold-4f"/>
       <use x="85.009766" xlink:href="#DejaVuSans-Bold-63"/>
       <use x="144.287109" xlink:href="#DejaVuSans-Bold-74"/>
      </g>
     </g>
    </g>
    <g id="xtick_9">
     <g id="line2d_9">
      <g>
       <use style="fill:#555555;stroke:#555555;stroke-width:0.8;" x="609.990545" xlink:href="#m8ed8bcc919" y="541.28"/>
      </g>
     </g>
     <g id="text_9">
      <!-- Nov -->
      <g style="fill:#555555;" transform="translate(594.760076 558.917812)scale(0.14 -0.14)">
       <defs>
        <path d="M 588 4666 
L 1931 4666 
L 3628 1466 
L 3628 4666 
L 4769 4666 
L 4769 0 
L 3425 0 
L 1728 3200 
L 1728 0 
L 588 0 
L 588 4666 
z
" id="DejaVuSans-Bold-4e" transform="scale(0.015625)"/>
        <path d="M 2203 2784 
Q 1831 2784 1636 2517 
Q 1441 2250 1441 1747 
Q 1441 1244 1636 976 
Q 1831 709 2203 709 
Q 2569 709 2762 976 
Q 2956 1244 2956 1747 
Q 2956 2250 2762 2517 
Q 2569 2784 2203 2784 
z
M 2203 3584 
Q 3106 3584 3614 3096 
Q 4122 2609 4122 1747 
Q 4122 884 3614 396 
Q 3106 -91 2203 -91 
Q 1297 -91 786 396 
Q 275 884 275 1747 
Q 275 2609 786 3096 
Q 1297 3584 2203 3584 
z
" id="DejaVuSans-Bold-6f" transform="scale(0.015625)"/>
        <path d="M 97 3500 
L 1216 3500 
L 2088 1081 
L 2956 3500 
L 4078 3500 
L 2700 0 
L 1472 0 
L 97 3500 
z
" id="DejaVuSans-Bold-76" transform="scale(0.015625)"/>
       </defs>
       <use xlink:href="#DejaVuSans-Bold-4e"/>
       <use x="83.691406" xlink:href="#DejaVuSans-Bold-6f"/>
       <use x="152.392578" xlink:href="#DejaVuSans-Bold-76"/>
      </g>
     </g>
    </g>
    <g id="xtick_10">
     <g id="line2d_10">
      <g>
       <use style="fill:#555555;stroke:#555555;stroke-width:0.8;" x="669.279647" xlink:href="#m8ed8bcc919" y="541.28"/>
      </g>
     </g>
     <g id="text_10">
      <!-- Dec -->
      <g style="fill:#555555;" transform="translate(654.570897 558.917812)scale(0.14 -0.14)">
       <defs>
        <path d="M 1791 3756 
L 1791 909 
L 2222 909 
Q 2959 909 3348 1275 
Q 3738 1641 3738 2338 
Q 3738 3031 3350 3393 
Q 2963 3756 2222 3756 
L 1791 3756 
z
M 588 4666 
L 1856 4666 
Q 2919 4666 3439 4514 
Q 3959 4363 4331 4000 
Q 4659 3684 4818 3271 
Q 4978 2859 4978 2338 
Q 4978 1809 4818 1395 
Q 4659 981 4331 666 
Q 3956 303 3431 151 
Q 2906 0 1856 0 
L 588 0 
L 588 4666 
z
" id="DejaVuSans-Bold-44" transform="scale(0.015625)"/>
       </defs>
       <use xlink:href="#DejaVuSans-Bold-44"/>
       <use x="83.007812" xlink:href="#DejaVuSans-Bold-65"/>
       <use x="150.830078" xlink:href="#DejaVuSans-Bold-63"/>
      </g>
     </g>
    </g>
    <g id="xtick_11">
     <g id="line2d_11">
      <g>
       <use style="fill:#555555;stroke:#555555;stroke-width:0.8;" x="730.545053" xlink:href="#m8ed8bcc919" y="541.28"/>
      </g>
     </g>
     <g id="text_11">
      <!-- Jan -->
      <g style="fill:#555555;" transform="translate(718.233803 558.917812)scale(0.14 -0.14)">
       <use xlink:href="#DejaVuSans-Bold-4a"/>
       <use x="37.207031" xlink:href="#DejaVuSans-Bold-61"/>
       <use x="104.6875" xlink:href="#DejaVuSans-Bold-6e"/>
      </g>
     </g>
    </g>
    <g id="xtick_12">
     <g id="line2d_12">
      <g>
       <use style="fill:#555555;stroke:#555555;stroke-width:0.8;" x="791.810458" xlink:href="#m8ed8bcc919" y="541.28"/>
      </g>
     </g>
     <g id="text_12">
      <!-- Feb -->
      <g style="fill:#555555;" transform="translate(777.550146 558.917812)scale(0.14 -0.14)">
       <defs>
        <path d="M 588 4666 
L 3834 4666 
L 3834 3756 
L 1791 3756 
L 1791 2888 
L 3713 2888 
L 3713 1978 
L 1791 1978 
L 1791 0 
L 588 0 
L 588 4666 
z
" id="DejaVuSans-Bold-46" transform="scale(0.015625)"/>
        <path d="M 2400 722 
Q 2759 722 2948 984 
Q 3138 1247 3138 1747 
Q 3138 2247 2948 2509 
Q 2759 2772 2400 2772 
Q 2041 2772 1848 2508 
Q 1656 2244 1656 1747 
Q 1656 1250 1848 986 
Q 2041 722 2400 722 
z
M 1656 2988 
Q 1888 3294 2169 3439 
Q 2450 3584 2816 3584 
Q 3463 3584 3878 3070 
Q 4294 2556 4294 1747 
Q 4294 938 3878 423 
Q 3463 -91 2816 -91 
Q 2450 -91 2169 54 
Q 1888 200 1656 506 
L 1656 0 
L 538 0 
L 538 4863 
L 1656 4863 
L 1656 2988 
z
" id="DejaVuSans-Bold-62" transform="scale(0.015625)"/>
       </defs>
       <use xlink:href="#DejaVuSans-Bold-46"/>
       <use x="64.310547" xlink:href="#DejaVuSans-Bold-65"/>
       <use x="132.132812" xlink:href="#DejaVuSans-Bold-62"/>
      </g>
     </g>
    </g>
    <g id="xtick_13">
     <g id="line2d_13">
      <g>
       <use style="fill:#555555;stroke:#555555;stroke-width:0.8;" x="847.146954" xlink:href="#m8ed8bcc919" y="541.28"/>
      </g>
     </g>
     <g id="text_13">
      <!-- Mar -->
      <g style="fill:#555555;" transform="translate(832.005079 558.917812)scale(0.14 -0.14)">
       <use xlink:href="#DejaVuSans-Bold-4d"/>
       <use x="99.511719" xlink:href="#DejaVuSans-Bold-61"/>
       <use x="166.992188" xlink:href="#DejaVuSans-Bold-72"/>
      </g>
     </g>
    </g>
    <g id="xtick_14">
     <g id="line2d_14">
      <g>
       <use style="fill:#555555;stroke:#555555;stroke-width:0.8;" x="908.412359" xlink:href="#m8ed8bcc919" y="541.28"/>
      </g>
     </g>
     <g id="text_14">
      <!-- Apr -->
      <g style="fill:#555555;" transform="translate(894.532672 558.917812)scale(0.14 -0.14)">
       <use xlink:href="#DejaVuSans-Bold-41"/>
       <use x="77.392578" xlink:href="#DejaVuSans-Bold-70"/>
       <use x="148.974609" xlink:href="#DejaVuSans-Bold-72"/>
      </g>
     </g>
    </g>
    <g id="xtick_15">
     <g id="line2d_15">
      <g>
       <use style="fill:#555555;stroke:#555555;stroke-width:0.8;" x="967.701462" xlink:href="#m8ed8bcc919" y="541.28"/>
      </g>
     </g>
     <g id="text_15">
      <!-- May -->
      <g style="fill:#555555;" transform="translate(951.667087 558.808437)scale(0.14 -0.14)">
       <use xlink:href="#DejaVuSans-Bold-4d"/>
       <use x="99.511719" xlink:href="#DejaVuSans-Bold-61"/>
       <use x="163.867188" xlink:href="#DejaVuSans-Bold-79"/>
      </g>
     </g>
    </g>
    <g id="xtick_16">
     <g id="line2d_16">
      <g>
       <use style="fill:#555555;stroke:#555555;stroke-width:0.8;" x="1028.966867" xlink:href="#m8ed8bcc919" y="541.28"/>
      </g>
     </g>
     <g id="text_16">
      <!-- Jun -->
      <g style="fill:#555555;" transform="translate(1016.396398 558.917812)scale(0.14 -0.14)">
       <use xlink:href="#DejaVuSans-Bold-4a"/>
       <use x="37.207031" xlink:href="#DejaVuSans-Bold-75"/>
       <use x="108.398438" xlink:href="#DejaVuSans-Bold-6e"/>
      </g>
     </g>
    </g>
    <g id="xtick_17">
     <g id="line2d_17">
      <g>
       <use style="fill:#555555;stroke:#555555;stroke-width:0.8;" x="1088.255969" xlink:href="#m8ed8bcc919" y="541.28"/>
      </g>
     </g>
     <g id="text_17">
      <!-- Jul -->
      <g style="fill:#555555;" transform="translate(1078.268938 558.917812)scale(0.14 -0.14)">
       <use xlink:href="#DejaVuSans-Bold-4a"/>
       <use x="37.207031" xlink:href="#DejaVuSans-Bold-75"/>
       <use x="108.398438" xlink:href="#DejaVuSans-Bold-6c"/>
      </g>
     </g>
    </g>
   </g>
   <g id="matplotlib.axis_2">
    <g id="ytick_1">
     <g id="line2d_18">
      <defs>
       <path d="M 0 0 
L -3.5 0 
" id="ma8b56e7e76" style="stroke:#555555;stroke-width:0.8;"/>
      </defs>
      <g>
       <use style="fill:#555555;stroke:#555555;stroke-width:0.8;" x="87.95" xlink:href="#ma8b56e7e76" y="519.485405"/>
      </g>
     </g>
     <g id="text_18">
      <!-- 0 -->
      <g style="fill:#555555;" transform="translate(71.209063 524.804311)scale(0.14 -0.14)">
       <defs>
        <path d="M 2944 2338 
Q 2944 3213 2780 3570 
Q 2616 3928 2228 3928 
Q 1841 3928 1675 3570 
Q 1509 3213 1509 2338 
Q 1509 1453 1675 1090 
Q 1841 728 2228 728 
Q 2613 728 2778 1090 
Q 2944 1453 2944 2338 
z
M 4147 2328 
Q 4147 1169 3647 539 
Q 3147 -91 2228 -91 
Q 1306 -91 806 539 
Q 306 1169 306 2328 
Q 306 3491 806 4120 
Q 1306 4750 2228 4750 
Q 3147 4750 3647 4120 
Q 4147 3491 4147 2328 
z
" id="DejaVuSans-Bold-30" transform="scale(0.015625)"/>
       </defs>
       <use xlink:href="#DejaVuSans-Bold-30"/>
      </g>
     </g>
    </g>
    <g id="ytick_2">
     <g id="line2d_19">
      <g>
       <use style="fill:#555555;stroke:#555555;stroke-width:0.8;" x="87.95" xlink:href="#ma8b56e7e76" y="448.872754"/>
      </g>
     </g>
     <g id="text_19">
      <!-- 2000 -->
      <g style="fill:#555555;" transform="translate(41.98625 454.19166)scale(0.14 -0.14)">
       <defs>
        <path d="M 1844 884 
L 3897 884 
L 3897 0 
L 506 0 
L 506 884 
L 2209 2388 
Q 2438 2594 2547 2791 
Q 2656 2988 2656 3200 
Q 2656 3528 2436 3728 
Q 2216 3928 1850 3928 
Q 1569 3928 1234 3808 
Q 900 3688 519 3450 
L 519 4475 
Q 925 4609 1322 4679 
Q 1719 4750 2100 4750 
Q 2938 4750 3402 4381 
Q 3866 4013 3866 3353 
Q 3866 2972 3669 2642 
Q 3472 2313 2841 1759 
L 1844 884 
z
" id="DejaVuSans-Bold-32" transform="scale(0.015625)"/>
       </defs>
       <use xlink:href="#DejaVuSans-Bold-32"/>
       <use x="69.580078" xlink:href="#DejaVuSans-Bold-30"/>
       <use x="139.160156" xlink:href="#DejaVuSans-Bold-30"/>
       <use x="208.740234" xlink:href="#DejaVuSans-Bold-30"/>
      </g>
     </g>
    </g>
    <g id="ytick_3">
     <g id="line2d_20">
      <g>
       <use style="fill:#555555;stroke:#555555;stroke-width:0.8;" x="87.95" xlink:href="#ma8b56e7e76" y="378.260103"/>
      </g>
     </g>
     <g id="text_20">
      <!-- 4000 -->
      <g style="fill:#555555;" transform="translate(41.98625 383.579009)scale(0.14 -0.14)">
       <defs>
        <path d="M 2356 3675 
L 1038 1722 
L 2356 1722 
L 2356 3675 
z
M 2156 4666 
L 3494 4666 
L 3494 1722 
L 4159 1722 
L 4159 850 
L 3494 850 
L 3494 0 
L 2356 0 
L 2356 850 
L 288 850 
L 288 1881 
L 2156 4666 
z
" id="DejaVuSans-Bold-34" transform="scale(0.015625)"/>
       </defs>
       <use xlink:href="#DejaVuSans-Bold-34"/>
       <use x="69.580078" xlink:href="#DejaVuSans-Bold-30"/>
       <use x="139.160156" xlink:href="#DejaVuSans-Bold-30"/>
       <use x="208.740234" xlink:href="#DejaVuSans-Bold-30"/>
      </g>
     </g>
    </g>
    <g id="ytick_4">
     <g id="line2d_21">
      <g>
       <use style="fill:#555555;stroke:#555555;stroke-width:0.8;" x="87.95" xlink:href="#ma8b56e7e76" y="307.647451"/>
      </g>
     </g>
     <g id="text_21">
      <!-- 6000 -->
      <g style="fill:#555555;" transform="translate(41.98625 312.966358)scale(0.14 -0.14)">
       <defs>
        <path d="M 2316 2303 
Q 2000 2303 1842 2098 
Q 1684 1894 1684 1484 
Q 1684 1075 1842 870 
Q 2000 666 2316 666 
Q 2634 666 2792 870 
Q 2950 1075 2950 1484 
Q 2950 1894 2792 2098 
Q 2634 2303 2316 2303 
z
M 3803 4544 
L 3803 3681 
Q 3506 3822 3243 3889 
Q 2981 3956 2731 3956 
Q 2194 3956 1894 3657 
Q 1594 3359 1544 2772 
Q 1750 2925 1990 3001 
Q 2231 3078 2516 3078 
Q 3231 3078 3670 2659 
Q 4109 2241 4109 1563 
Q 4109 813 3618 361 
Q 3128 -91 2303 -91 
Q 1394 -91 895 523 
Q 397 1138 397 2266 
Q 397 3422 980 4083 
Q 1563 4744 2578 4744 
Q 2900 4744 3203 4694 
Q 3506 4644 3803 4544 
z
" id="DejaVuSans-Bold-36" transform="scale(0.015625)"/>
       </defs>
       <use xlink:href="#DejaVuSans-Bold-36"/>
       <use x="69.580078" xlink:href="#DejaVuSans-Bold-30"/>
       <use x="139.160156" xlink:href="#DejaVuSans-Bold-30"/>
       <use x="208.740234" xlink:href="#DejaVuSans-Bold-30"/>
      </g>
     </g>
    </g>
    <g id="ytick_5">
     <g id="line2d_22">
      <g>
       <use style="fill:#555555;stroke:#555555;stroke-width:0.8;" x="87.95" xlink:href="#ma8b56e7e76" y="237.0348"/>
      </g>
     </g>
     <g id="text_22">
      <!-- 8000 -->
      <g style="fill:#555555;" transform="translate(41.98625 242.353706)scale(0.14 -0.14)">
       <defs>
        <path d="M 2228 2088 
Q 1891 2088 1709 1903 
Q 1528 1719 1528 1375 
Q 1528 1031 1709 848 
Q 1891 666 2228 666 
Q 2563 666 2741 848 
Q 2919 1031 2919 1375 
Q 2919 1722 2741 1905 
Q 2563 2088 2228 2088 
z
M 1350 2484 
Q 925 2613 709 2878 
Q 494 3144 494 3541 
Q 494 4131 934 4440 
Q 1375 4750 2228 4750 
Q 3075 4750 3515 4442 
Q 3956 4134 3956 3541 
Q 3956 3144 3739 2878 
Q 3522 2613 3097 2484 
Q 3572 2353 3814 2058 
Q 4056 1763 4056 1313 
Q 4056 619 3595 264 
Q 3134 -91 2228 -91 
Q 1319 -91 855 264 
Q 391 619 391 1313 
Q 391 1763 633 2058 
Q 875 2353 1350 2484 
z
M 1631 3419 
Q 1631 3141 1786 2991 
Q 1941 2841 2228 2841 
Q 2509 2841 2662 2991 
Q 2816 3141 2816 3419 
Q 2816 3697 2662 3845 
Q 2509 3994 2228 3994 
Q 1941 3994 1786 3844 
Q 1631 3694 1631 3419 
z
" id="DejaVuSans-Bold-38" transform="scale(0.015625)"/>
       </defs>
       <use xlink:href="#DejaVuSans-Bold-38"/>
       <use x="69.580078" xlink:href="#DejaVuSans-Bold-30"/>
       <use x="139.160156" xlink:href="#DejaVuSans-Bold-30"/>
       <use x="208.740234" xlink:href="#DejaVuSans-Bold-30"/>
      </g>
     </g>
    </g>
    <g id="ytick_6">
     <g id="line2d_23">
      <g>
       <use style="fill:#555555;stroke:#555555;stroke-width:0.8;" x="87.95" xlink:href="#ma8b56e7e76" y="166.422149"/>
      </g>
     </g>
     <g id="text_23">
      <!-- 10000 -->
      <g style="fill:#555555;" transform="translate(32.245313 171.741055)scale(0.14 -0.14)">
       <defs>
        <path d="M 750 831 
L 1813 831 
L 1813 3847 
L 722 3622 
L 722 4441 
L 1806 4666 
L 2950 4666 
L 2950 831 
L 4013 831 
L 4013 0 
L 750 0 
L 750 831 
z
" id="DejaVuSans-Bold-31" transform="scale(0.015625)"/>
       </defs>
       <use xlink:href="#DejaVuSans-Bold-31"/>
       <use x="69.580078" xlink:href="#DejaVuSans-Bold-30"/>
       <use x="139.160156" xlink:href="#DejaVuSans-Bold-30"/>
       <use x="208.740234" xlink:href="#DejaVuSans-Bold-30"/>
       <use x="278.320312" xlink:href="#DejaVuSans-Bold-30"/>
      </g>
     </g>
    </g>
    <g id="ytick_7">
     <g id="line2d_24">
      <g>
       <use style="fill:#555555;stroke:#555555;stroke-width:0.8;" x="87.95" xlink:href="#ma8b56e7e76" y="95.809498"/>
      </g>
     </g>
     <g id="text_24">
      <!-- 12000 -->
      <g style="fill:#555555;" transform="translate(32.245313 101.128404)scale(0.14 -0.14)">
       <use xlink:href="#DejaVuSans-Bold-31"/>
       <use x="69.580078" xlink:href="#DejaVuSans-Bold-32"/>
       <use x="139.160156" xlink:href="#DejaVuSans-Bold-30"/>
       <use x="208.740234" xlink:href="#DejaVuSans-Bold-30"/>
       <use x="278.320312" xlink:href="#DejaVuSans-Bold-30"/>
      </g>
     </g>
    </g>
    <g id="text_25">
     <!-- New Cases -->
     <g style="fill:#555555;" transform="translate(24.917813 333.23875)rotate(-90)scale(0.16 -0.16)">
      <defs>
       <path d="M 628 4666 
L 1478 4666 
L 3547 763 
L 3547 4666 
L 4159 4666 
L 4159 0 
L 3309 0 
L 1241 3903 
L 1241 0 
L 628 0 
L 628 4666 
z
" id="DejaVuSans-4e" transform="scale(0.015625)"/>
       <path d="M 3597 1894 
L 3597 1613 
L 953 1613 
Q 991 1019 1311 708 
Q 1631 397 2203 397 
Q 2534 397 2845 478 
Q 3156 559 3463 722 
L 3463 178 
Q 3153 47 2828 -22 
Q 2503 -91 2169 -91 
Q 1331 -91 842 396 
Q 353 884 353 1716 
Q 353 2575 817 3079 
Q 1281 3584 2069 3584 
Q 2775 3584 3186 3129 
Q 3597 2675 3597 1894 
z
M 3022 2063 
Q 3016 2534 2758 2815 
Q 2500 3097 2075 3097 
Q 1594 3097 1305 2825 
Q 1016 2553 972 2059 
L 3022 2063 
z
" id="DejaVuSans-65" transform="scale(0.015625)"/>
       <path d="M 269 3500 
L 844 3500 
L 1563 769 
L 2278 3500 
L 2956 3500 
L 3675 769 
L 4391 3500 
L 4966 3500 
L 4050 0 
L 3372 0 
L 2619 2869 
L 1863 0 
L 1184 0 
L 269 3500 
z
" id="DejaVuSans-77" transform="scale(0.015625)"/>
       <path id="DejaVuSans-20" transform="scale(0.015625)"/>
       <path d="M 4122 4306 
L 4122 3641 
Q 3803 3938 3442 4084 
Q 3081 4231 2675 4231 
Q 1875 4231 1450 3742 
Q 1025 3253 1025 2328 
Q 1025 1406 1450 917 
Q 1875 428 2675 428 
Q 3081 428 3442 575 
Q 3803 722 4122 1019 
L 4122 359 
Q 3791 134 3420 21 
Q 3050 -91 2638 -91 
Q 1578 -91 968 557 
Q 359 1206 359 2328 
Q 359 3453 968 4101 
Q 1578 4750 2638 4750 
Q 3056 4750 3426 4639 
Q 3797 4528 4122 4306 
z
" id="DejaVuSans-43" transform="scale(0.015625)"/>
       <path d="M 2194 1759 
Q 1497 1759 1228 1600 
Q 959 1441 959 1056 
Q 959 750 1161 570 
Q 1363 391 1709 391 
Q 2188 391 2477 730 
Q 2766 1069 2766 1631 
L 2766 1759 
L 2194 1759 
z
M 3341 1997 
L 3341 0 
L 2766 0 
L 2766 531 
Q 2569 213 2275 61 
Q 1981 -91 1556 -91 
Q 1019 -91 701 211 
Q 384 513 384 1019 
Q 384 1609 779 1909 
Q 1175 2209 1959 2209 
L 2766 2209 
L 2766 2266 
Q 2766 2663 2505 2880 
Q 2244 3097 1772 3097 
Q 1472 3097 1187 3025 
Q 903 2953 641 2809 
L 641 3341 
Q 956 3463 1253 3523 
Q 1550 3584 1831 3584 
Q 2591 3584 2966 3190 
Q 3341 2797 3341 1997 
z
" id="DejaVuSans-61" transform="scale(0.015625)"/>
       <path d="M 2834 3397 
L 2834 2853 
Q 2591 2978 2328 3040 
Q 2066 3103 1784 3103 
Q 1356 3103 1142 2972 
Q 928 2841 928 2578 
Q 928 2378 1081 2264 
Q 1234 2150 1697 2047 
L 1894 2003 
Q 2506 1872 2764 1633 
Q 3022 1394 3022 966 
Q 3022 478 2636 193 
Q 2250 -91 1575 -91 
Q 1294 -91 989 -36 
Q 684 19 347 128 
L 347 722 
Q 666 556 975 473 
Q 1284 391 1588 391 
Q 1994 391 2212 530 
Q 2431 669 2431 922 
Q 2431 1156 2273 1281 
Q 2116 1406 1581 1522 
L 1381 1569 
Q 847 1681 609 1914 
Q 372 2147 372 2553 
Q 372 3047 722 3315 
Q 1072 3584 1716 3584 
Q 2034 3584 2315 3537 
Q 2597 3491 2834 3397 
z
" id="DejaVuSans-73" transform="scale(0.015625)"/>
      </defs>
      <use xlink:href="#DejaVuSans-4e"/>
      <use x="74.804688" xlink:href="#DejaVuSans-65"/>
      <use x="136.328125" xlink:href="#DejaVuSans-77"/>
      <use x="218.115234" xlink:href="#DejaVuSans-20"/>
      <use x="249.902344" xlink:href="#DejaVuSans-43"/>
      <use x="319.726562" xlink:href="#DejaVuSans-61"/>
      <use x="381.005859" xlink:href="#DejaVuSans-73"/>
      <use x="433.105469" xlink:href="#DejaVuSans-65"/>
      <use x="494.628906" xlink:href="#DejaVuSans-73"/>
     </g>
    </g>
   </g>
   <g id="line2d_25">
    <path clip-path="url(#p759ab808ef)" d="M 135.677727 518.073152 
L 137.654031 517.720089 
L 139.630334 518.355603 
L 141.606637 517.331719 
L 143.582941 514.895583 
L 145.559244 515.142727 
L 147.535548 515.001502 
L 149.511851 515.49579 
L 151.488155 511.75332 
L 153.464458 513.377411 
L 155.440761 509.952697 
L 157.417065 509.317183 
L 159.393368 507.23411 
L 161.369672 505.5041 
L 163.345975 500.667134 
L 165.322278 496.995276 
L 167.298582 498.125078 
L 169.274885 499.961007 
L 171.251189 493.040967 
L 173.227492 489.722173 
L 177.180099 478.282923 
L 179.156402 479.024356 
L 181.132706 480.930898 
L 183.109009 488.662983 
L 185.085312 490.03993 
L 187.061616 483.896629 
L 189.037919 481.248655 
L 191.014223 483.472953 
L 192.990526 484.108467 
L 194.966829 480.683753 
L 198.919436 491.875859 
L 200.89574 485.626639 
L 202.872043 476.835364 
L 204.848347 472.633911 
L 206.82465 473.551876 
L 208.800953 478.141698 
L 210.777257 485.626639 
L 212.75356 489.051352 
L 214.729864 493.711787 
L 216.706167 481.742943 
L 218.68247 475.917399 
L 220.658774 477.612103 
L 222.635077 483.367034 
L 224.611381 493.076274 
L 226.587684 494.206076 
L 228.563987 494.488527 
L 230.540291 488.627677 
L 232.516594 491.063813 
L 234.492898 496.642212 
L 236.469201 496.500987 
L 238.445504 505.186343 
L 240.421808 512.671284 
L 242.398111 505.786551 
L 244.374415 501.585098 
L 246.350718 502.608982 
L 248.327021 504.056541 
L 250.303325 507.551867 
L 252.279628 512.388834 
L 254.255932 508.222687 
L 256.232235 508.222687 
L 258.208538 506.739822 
L 260.184842 508.222687 
L 262.161145 509.317183 
L 264.137449 510.941274 
L 266.113752 513.165573 
L 268.090056 512.600672 
L 270.066359 511.612095 
L 272.042662 509.811472 
L 274.018966 512.353527 
L 275.995269 512.635978 
L 277.971573 515.072114 
L 279.947876 514.260069 
L 281.924179 515.566403 
L 283.900483 512.883122 
L 285.876786 510.517598 
L 287.85309 512.989041 
L 291.805696 513.377411 
L 293.782 511.965158 
L 295.758303 514.930889 
L 297.734607 512.635978 
L 299.71091 513.200879 
L 301.687213 513.200879 
L 303.663517 514.507213 
L 305.63982 513.271492 
L 307.616124 515.813547 
L 309.592427 516.131304 
L 311.56873 516.201917 
L 313.545034 512.847816 
L 315.521337 511.823933 
L 317.497641 512.777203 
L 319.473944 511.047193 
L 321.450248 513.624555 
L 323.426551 513.695168 
L 325.402854 513.09496 
L 327.379158 513.76578 
L 329.355461 512.176996 
L 331.331765 513.09496 
L 333.308068 514.401294 
L 335.284371 513.871699 
L 337.260675 514.754358 
L 339.236978 515.49579 
L 341.213282 515.107421 
L 345.165888 516.307836 
L 347.142192 516.131304 
L 349.118495 517.084575 
L 351.094799 517.013962 
L 353.071102 516.660899 
L 355.047405 515.601709 
L 359.000012 516.766818 
L 360.976316 517.155188 
L 362.952619 516.802124 
L 364.928922 517.472945 
L 366.905226 517.296413 
L 368.881529 516.837431 
L 370.857833 516.802124 
L 372.834136 517.190494 
L 374.810439 516.94335 
L 376.786743 518.037846 
L 378.763046 518.28499 
L 380.73935 517.472945 
L 384.691957 517.190494 
L 386.66826 516.519674 
L 388.644563 516.131304 
L 390.620867 516.94335 
L 392.59717 516.025385 
L 396.549777 515.283952 
L 398.52608 515.637016 
L 400.502384 514.365988 
L 402.478687 514.365988 
L 404.454991 513.024348 
L 406.431294 513.518636 
L 408.407597 513.48333 
L 412.360204 514.012925 
L 416.312811 511.965158 
L 418.289114 512.106383 
L 420.265418 511.576788 
L 422.241721 510.729436 
L 424.218025 507.445948 
L 426.194328 507.445948 
L 428.170631 504.268379 
L 430.146935 506.810434 
L 432.123238 506.351452 
L 434.099542 502.291225 
L 436.075845 504.374298 
L 438.052149 498.125078 
L 440.028452 501.232035 
L 442.004755 502.397144 
L 443.981059 499.113655 
L 445.957362 491.699327 
L 447.933666 497.595483 
L 449.909969 496.500987 
L 451.886272 499.148962 
L 453.862576 497.348339 
L 455.838879 496.324456 
L 457.815183 501.867549 
L 459.791486 502.326531 
L 461.767789 502.079387 
L 463.744093 499.961007 
L 465.720396 500.737746 
L 467.6967 500.667134 
L 469.673003 501.585098 
L 471.649306 503.421027 
L 473.62561 499.254881 
L 475.601913 504.797974 
L 477.578217 499.290187 
L 479.55452 501.549792 
L 481.530823 501.796936 
L 485.48343 501.620404 
L 487.459734 500.914278 
L 489.436037 502.997351 
L 491.41234 494.064851 
L 493.388644 498.336916 
L 495.364947 493.252805 
L 497.341251 496.5716 
L 499.317554 487.003586 
L 501.293858 491.416876 
L 505.246464 479.236194 
L 507.222768 489.934011 
L 509.199071 474.611065 
L 511.175375 476.341075 
L 513.151678 481.107429 
L 515.127981 473.693101 
L 517.104285 470.903901 
L 519.080588 465.219583 
L 521.056892 458.087705 
L 523.033195 450.390926 
L 525.009498 452.685837 
L 526.985802 454.380541 
L 528.962105 441.387813 
L 530.938409 440.505155 
L 532.914712 437.080441 
L 534.891015 429.948563 
L 536.867319 421.898721 
L 538.843622 424.158326 
L 540.819926 414.41378 
L 542.796229 417.026448 
L 544.772532 413.425203 
L 546.748836 403.468819 
L 548.725139 404.633928 
L 550.701443 385.180142 
L 552.677746 380.555014 
L 554.65405 378.86031 
L 556.630353 358.665092 
L 558.606656 359.93612 
L 560.58296 343.942354 
L 562.559263 315.273618 
L 564.535567 309.024398 
L 566.51187 290.771028 
L 568.488173 295.572688 
L 570.464477 279.296472 
L 572.44078 260.548813 
L 574.417084 263.443932 
L 576.393387 244.872804 
L 578.36969 238.76481 
L 580.345994 233.327636 
L 582.322297 231.809464 
L 584.298601 237.529089 
L 586.274904 231.950689 
L 588.251207 211.790777 
L 590.227511 192.866587 
L 592.203814 167.340113 
L 594.180118 214.368139 
L 596.156421 160.490686 
L 598.132724 155.724332 
L 600.109028 156.99536 
L 602.085331 234.316213 
L 604.061635 157.701486 
L 606.037938 128.750299 
L 608.014241 174.471991 
L 609.990545 213.061805 
L 611.966848 227.678624 
L 613.943152 246.285057 
L 615.919455 251.15733 
L 617.895759 274.247667 
L 619.872062 264.32659 
L 621.848365 285.898755 
L 625.800972 354.604864 
L 627.777276 355.522829 
L 629.753579 329.431454 
L 631.729882 321.099161 
L 633.706186 305.246621 
L 635.682489 311.248697 
L 637.658793 328.195733 
L 641.611399 368.339025 
L 643.587703 357.570596 
L 645.564006 318.698331 
L 647.54031 310.048282 
L 649.516613 307.506226 
L 651.492916 330.314112 
L 653.46922 336.563332 
L 655.445523 380.131338 
L 657.421827 346.131346 
L 659.39813 361.736742 
L 661.374433 316.40342 
L 663.350737 361.842661 
L 665.32704 323.005703 
L 667.303344 358.064884 
L 669.279647 376.918462 
L 671.25595 346.201959 
L 673.232254 321.98182 
L 675.208557 311.495841 
L 677.184861 288.970405 
L 679.161164 280.779338 
L 681.137468 269.022331 
L 683.113771 303.445999 
L 685.090074 288.44081 
L 687.066378 212.002615 
L 689.042681 207.483406 
L 691.018985 197.421103 
L 692.995288 170.729521 
L 694.971591 220.758584 
L 696.947895 285.36916 
L 698.924198 125.254973 
L 700.900502 68.341176 
L 702.876805 97.32767 
L 704.853108 87.900881 
L 706.829412 60.609091 
L 708.805715 125.608036 
L 710.782019 172.706675 
L 712.758322 152.546763 
L 714.734625 113.674498 
L 716.710929 113.639192 
L 718.687232 172.953819 
L 720.663536 201.551943 
L 722.639839 258.289208 
L 724.616142 254.052449 
L 726.592446 185.875934 
L 728.568749 178.249768 
L 730.545053 231.068031 
L 732.521356 216.239374 
L 734.49766 258.359821 
L 736.473963 285.333854 
L 738.450266 294.619417 
L 740.42657 269.163556 
L 742.402873 177.790786 
L 744.379177 233.080492 
L 746.35548 260.690038 
L 748.331783 286.393043 
L 750.308087 327.136543 
L 752.28439 345.001544 
L 754.260694 304.434576 
L 756.236997 290.029595 
L 758.2133 306.729487 
L 760.189604 332.538411 
L 762.165907 322.405495 
L 764.142211 350.579943 
L 766.118514 367.844737 
L 768.094817 322.864478 
L 770.071121 314.532185 
L 772.047424 316.615258 
L 774.023728 327.207156 
L 776.000031 347.15523 
L 777.976334 375.11784 
L 779.952638 379.707662 
L 781.928941 352.663017 
L 783.905245 353.863432 
L 785.881548 364.208185 
L 787.857851 372.187415 
L 789.834155 389.62874 
L 791.810458 405.163523 
L 793.786762 394.218562 
L 795.763065 377.624589 
L 797.739369 371.198838 
L 799.715672 366.997385 
L 801.691975 375.11784 
L 803.668279 381.155221 
L 805.644582 439.799028 
L 807.620886 457.381578 
L 809.597189 407.458434 
L 811.573492 363.184302 
L 813.549796 366.714934 
L 815.526099 372.187415 
L 817.502403 398.525934 
L 819.478706 419.144828 
L 821.455009 424.511389 
L 823.431313 400.5737 
L 825.407616 358.559173 
L 827.38392 354.393027 
L 829.360223 359.229993 
L 831.336526 354.640171 
L 833.31283 371.94027 
L 835.289133 385.003611 
L 837.265437 365.232068 
L 839.24174 343.448066 
L 841.218043 339.811514 
L 843.194347 345.70767 
L 845.17065 355.840586 
L 847.146954 387.12199 
L 849.123257 379.495824 
L 851.099561 342.141732 
L 853.075864 375.011921 
L 855.052167 354.887315 
L 857.028471 331.938203 
L 859.004774 360.324489 
L 860.981078 382.355636 
L 862.957381 368.162494 
L 864.933684 333.809439 
L 866.909988 332.467798 
L 868.886291 308.53011 
L 870.862595 294.336967 
L 872.838898 309.306849 
L 874.815201 325.230002 
L 876.791505 345.001544 
L 878.767808 310.895633 
L 880.744112 302.987016 
L 882.720415 260.054524 
L 884.696718 251.086718 
L 886.673022 273.400316 
L 890.625629 321.487531 
L 892.601932 252.710809 
L 894.578235 248.050374 
L 896.554539 252.60489 
L 898.530842 209.425253 
L 900.507146 255.747153 
L 902.483449 280.073211 
L 904.459752 312.766869 
L 906.436056 250.133447 
L 908.412359 243.425245 
L 910.388663 264.785572 
L 912.364966 251.263249 
L 914.34127 277.213399 
L 916.317573 331.161464 
L 918.293876 323.217541 
L 920.27018 294.584111 
L 922.246483 245.473012 
L 924.222787 249.038951 
L 926.19909 249.074257 
L 928.175393 232.021302 
L 930.151697 284.415889 
L 932.128 282.156284 
L 934.104304 327.418994 
L 936.080607 212.496904 
L 938.05691 205.61217 
L 940.033214 228.1023 
L 942.009517 218.604898 
L 943.985821 266.762726 
L 945.962124 278.625652 
L 947.938427 220.370214 
L 949.914731 181.286112 
L 951.891034 193.396182 
L 953.867338 234.845808 
L 955.843641 236.328674 
L 957.819944 299.668222 
L 959.796248 332.185348 
L 961.772551 214.050382 
L 963.748855 262.314129 
L 965.725158 245.331787 
L 967.701462 315.273618 
L 969.677765 326.606948 
L 971.654068 195.126192 
L 973.630372 245.578931 
L 977.582979 281.026482 
L 979.559282 256.100216 
L 981.535585 257.265325 
L 985.488192 312.555031 
L 987.464496 324.347343 
L 989.440799 295.607994 
L 991.417102 307.188469 
L 993.393406 323.747136 
L 995.369709 361.489598 
L 997.346013 363.219608 
L 999.322316 418.54462 
L 1001.298619 331.267383 
L 1003.274923 358.806317 
L 1005.251226 356.440793 
L 1007.22753 373.246604 
L 1009.203833 407.387821 
L 1011.180136 398.596546 
L 1013.15644 423.134443 
L 1015.132743 431.71388 
L 1017.109047 422.710767 
L 1019.08535 400.29125 
L 1021.061653 383.838502 
L 1023.037957 401.315133 
L 1025.01426 426.912219 
L 1026.990564 448.096015 
L 1028.966867 431.855105 
L 1030.943171 428.995293 
L 1032.919474 421.934027 
L 1034.895777 434.820836 
L 1036.872081 444.600689 
L 1038.848384 464.019168 
L 1040.824688 467.585107 
L 1042.800991 468.750215 
L 1044.777294 457.55811 
L 1046.753598 463.772023 
L 1048.729901 470.374306 
L 1050.706205 475.705561 
L 1052.682508 482.660908 
L 1054.658811 488.415839 
L 1056.635115 482.590295 
L 1058.611418 483.296421 
L 1060.587722 482.025394 
L 1062.564025 487.886244 
L 1064.540328 494.982815 
L 1066.516632 494.276689 
L 1068.492935 499.290187 
L 1070.469239 494.770977 
L 1072.445542 495.936086 
L 1074.421845 494.84159 
L 1076.398149 496.606906 
L 1078.374452 499.819782 
L 1080.350756 501.691017 
L 1082.327059 499.325493 
L 1084.303363 500.490602 
L 1086.279666 496.748131 
L 1088.255969 490.03993 
L 1090.232273 485.52072 
L 1090.232273 485.52072 
" style="fill:none;stroke:#000000;stroke-dasharray:1.5,2.475;stroke-dashoffset:0;stroke-opacity:0.5;stroke-width:1.5;"/>
   </g>
   <g id="line2d_26">
    <path clip-path="url(#p759ab808ef)" d="M 135.677727 518.390909 
L 139.630334 517.367026 
L 147.535548 514.719051 
L 149.511851 513.942312 
L 151.488155 513.024348 
L 153.464458 511.859239 
L 155.440761 510.446986 
L 157.417065 508.646363 
L 159.393368 506.492677 
L 161.369672 504.091847 
L 169.274885 495.477104 
L 171.251189 492.44076 
L 175.203795 485.414801 
L 177.180099 483.11989 
L 179.156402 482.660908 
L 181.132706 483.296421 
L 183.109009 484.320305 
L 185.085312 485.026431 
L 187.061616 484.955819 
L 191.014223 483.508259 
L 192.990526 483.755404 
L 194.966829 484.602755 
L 196.943133 485.026431 
L 198.919436 484.249692 
L 200.89574 482.307844 
L 202.872043 479.977627 
L 204.848347 478.282923 
L 206.82465 478.212311 
L 208.800953 480.401303 
L 210.777257 483.155196 
L 212.75356 484.885206 
L 214.729864 484.920512 
L 216.706167 483.720097 
L 218.68247 482.802133 
L 220.658774 483.261115 
L 222.635077 485.238269 
L 224.611381 488.098082 
L 226.587684 490.498912 
L 228.563987 492.05239 
L 230.540291 492.864436 
L 232.516594 494.029544 
L 234.492898 496.606906 
L 238.445504 502.679594 
L 240.421808 504.515523 
L 242.398111 505.045118 
L 246.350718 505.151037 
L 248.327021 505.645326 
L 250.303325 506.881047 
L 252.279628 507.940237 
L 254.255932 508.434525 
L 258.208538 508.540444 
L 260.184842 508.858201 
L 264.137449 510.658824 
L 266.113752 511.329644 
L 268.090056 511.682707 
L 272.042662 511.965158 
L 274.018966 512.318221 
L 277.971573 513.624555 
L 279.947876 513.871699 
L 281.924179 513.695168 
L 285.876786 512.918429 
L 287.85309 512.706591 
L 289.829393 512.777203 
L 293.782 513.200879 
L 299.71091 513.412717 
L 303.663517 514.012925 
L 305.63982 514.54252 
L 307.616124 514.860277 
L 309.592427 514.860277 
L 311.56873 514.471907 
L 315.521337 513.09496 
L 317.497641 512.706591 
L 319.473944 512.600672 
L 323.426551 513.059654 
L 329.355461 513.306798 
L 331.331765 513.48333 
L 335.284371 514.224763 
L 339.236978 515.072114 
L 347.142192 516.378449 
L 351.094799 516.55498 
L 355.047405 516.484368 
L 357.023709 516.484368 
L 366.905226 517.084575 
L 370.857833 517.084575 
L 378.763046 517.649476 
L 382.715653 517.331719 
L 390.620867 516.27253 
L 394.573474 515.742935 
L 396.549777 515.460484 
L 402.478687 514.15415 
L 404.454991 513.836393 
L 408.407597 513.553942 
L 412.360204 513.236186 
L 414.336508 512.918429 
L 416.312811 512.42414 
L 418.289114 511.718014 
L 420.265418 510.835355 
L 424.218025 508.469832 
L 428.170631 506.351452 
L 430.146935 505.610019 
L 438.052149 501.655711 
L 440.028452 500.384683 
L 442.004755 499.396106 
L 443.981059 498.160385 
L 445.957362 497.454258 
L 447.933666 496.995276 
L 449.909969 496.85405 
L 451.886272 497.383645 
L 453.862576 498.336916 
L 457.815183 499.996313 
L 459.791486 500.631827 
L 461.767789 501.020197 
L 463.744093 501.161422 
L 467.6967 501.126116 
L 469.673003 501.443873 
L 473.62561 501.691017 
L 477.578217 501.549792 
L 479.55452 501.443873 
L 481.530823 501.549792 
L 483.507127 501.514485 
L 485.48343 501.161422 
L 487.459734 500.525908 
L 491.41234 498.089772 
L 497.341251 492.687904 
L 499.317554 490.498912 
L 501.293858 488.521758 
L 505.246464 483.755404 
L 507.222768 482.0607 
L 509.199071 480.012933 
L 511.175375 478.177004 
L 513.151678 476.093931 
L 515.127981 472.775136 
L 517.104285 468.962053 
L 521.056892 459.782409 
L 523.033195 455.580956 
L 528.962105 444.459463 
L 530.938409 440.010866 
L 532.914712 435.244512 
L 534.891015 430.125095 
L 536.867319 425.85303 
L 540.819926 417.944413 
L 542.796229 414.484393 
L 544.772532 409.965183 
L 546.748836 404.139639 
L 548.725139 397.749194 
L 552.677746 381.578897 
L 554.65405 373.034766 
L 556.630353 362.513481 
L 558.606656 351.144845 
L 564.535567 311.036859 
L 566.51187 298.503113 
L 568.488173 287.840603 
L 574.417084 258.324514 
L 576.393387 249.286095 
L 578.36969 242.648506 
L 582.322297 233.645393 
L 584.298601 228.420057 
L 588.251207 211.155263 
L 592.203814 189.830243 
L 594.180118 180.403454 
L 596.156421 177.755479 
L 598.132724 175.813631 
L 600.109028 174.083621 
L 602.085331 171.435647 
L 604.061635 172.636062 
L 606.037938 176.802209 
L 608.014241 187.111656 
L 609.990545 200.598672 
L 611.966848 220.864503 
L 613.943152 239.188486 
L 615.919455 253.028566 
L 617.895759 265.738843 
L 619.872062 280.955869 
L 623.824669 314.849942 
L 625.800972 327.136543 
L 627.777276 332.750249 
L 629.753579 330.984933 
L 631.729882 325.72429 
L 633.706186 322.158351 
L 635.682489 324.806326 
L 637.658793 332.64433 
L 639.635096 339.599676 
L 641.611399 342.63602 
L 643.587703 339.211306 
L 645.564006 332.397186 
L 647.54031 326.042047 
L 649.516613 326.218579 
L 651.492916 331.337996 
L 653.46922 341.047235 
L 655.445523 346.837473 
L 657.421827 350.438718 
L 659.39813 348.073194 
L 661.374433 345.884202 
L 663.350737 345.213382 
L 665.32704 347.649518 
L 667.303344 348.461564 
L 669.279647 347.543599 
L 671.25595 338.787631 
L 673.232254 327.101237 
L 675.208557 311.319309 
L 677.184861 298.4325 
L 679.161164 290.523883 
L 681.137468 281.979753 
L 683.113771 271.317242 
L 685.090074 256.629811 
L 687.066378 236.893575 
L 689.042681 219.875926 
L 691.018985 211.790777 
L 692.995288 204.906044 
L 694.971591 196.326607 
L 696.947895 179.662021 
L 698.924198 154.347385 
L 700.900502 125.890487 
L 702.876805 104.035871 
L 704.853108 95.456434 
L 706.829412 104.706692 
L 708.805715 117.946564 
L 710.782019 127.338046 
L 714.734625 143.578956 
L 716.710929 155.865557 
L 718.687232 174.754442 
L 720.663536 195.020273 
L 722.639839 210.237299 
L 724.616142 217.72224 
L 726.592446 216.062843 
L 728.568749 215.921617 
L 730.545053 221.252873 
L 732.521356 234.563357 
L 734.49766 251.792844 
L 736.473963 259.419011 
L 738.450266 258.112677 
L 742.402873 247.097103 
L 744.379177 250.451204 
L 746.35548 264.679653 
L 750.308087 301.89252 
L 752.28439 310.366038 
L 754.260694 313.402382 
L 756.236997 313.61422 
L 758.2133 315.979744 
L 760.189604 322.970397 
L 762.165907 331.373302 
L 764.142211 336.881089 
L 766.118514 336.951702 
L 768.094817 332.926781 
L 770.071121 329.996356 
L 772.047424 330.773095 
L 774.023728 336.987008 
L 776.000031 347.049311 
L 777.976334 355.840586 
L 779.952638 361.242454 
L 781.928941 363.502059 
L 783.905245 365.4086 
L 785.881548 369.53944 
L 787.857851 376.07111 
L 789.834155 383.167682 
L 791.810458 386.910152 
L 793.786762 386.062801 
L 795.763065 382.461555 
L 797.739369 378.224796 
L 799.715672 379.601743 
L 801.691975 388.640162 
L 803.668279 400.467781 
L 805.644582 408.764768 
L 807.620886 410.035796 
L 809.597189 403.115756 
L 811.573492 393.688967 
L 813.549796 386.627702 
L 815.526099 387.298522 
L 817.502403 394.324481 
L 819.478706 399.726349 
L 821.455009 398.278789 
L 823.431313 390.476091 
L 825.407616 378.471941 
L 827.38392 368.339025 
L 829.360223 363.713896 
L 831.336526 363.784509 
L 833.31283 365.373294 
L 835.289133 364.34941 
L 837.265437 360.289183 
L 839.24174 355.522829 
L 841.218043 353.545675 
L 843.194347 355.381604 
L 845.17065 359.053462 
L 847.146954 364.208185 
L 849.123257 366.044114 
L 851.099561 363.360833 
L 853.075864 359.653669 
L 855.052167 357.041001 
L 857.028471 357.252839 
L 859.004774 358.594479 
L 860.981078 357.041001 
L 862.957381 351.886277 
L 864.933684 342.24765 
L 866.909988 329.713905 
L 868.886291 319.157314 
L 870.862595 315.273618 
L 872.838898 315.803213 
L 874.815201 317.286078 
L 876.791505 315.026473 
L 878.767808 306.8001 
L 880.744112 294.513498 
L 882.720415 283.497925 
L 884.696718 279.014021 
L 886.673022 278.83749 
L 888.649325 279.331778 
L 890.625629 278.025444 
L 892.601932 269.163556 
L 894.578235 258.359821 
L 896.554539 250.698348 
L 898.530842 251.122024 
L 902.483449 263.973527 
L 904.459752 267.39824 
L 906.436056 267.11579 
L 908.412359 263.832301 
L 910.388663 265.880068 
L 912.364966 273.188478 
L 914.34127 285.792836 
L 916.317573 293.419002 
L 918.293876 292.783488 
L 920.27018 285.086709 
L 922.246483 271.24663 
L 924.222787 259.80738 
L 926.19909 255.500008 
L 928.175393 261.713922 
L 930.151697 267.468853 
L 932.128 267.821916 
L 934.104304 261.608003 
L 938.05691 238.552972 
L 940.033214 235.551934 
L 942.009517 235.446015 
L 943.985821 238.411747 
L 945.962124 235.092952 
L 947.938427 227.466786 
L 949.914731 220.687971 
L 951.891034 221.605936 
L 953.867338 234.528051 
L 957.819944 264.008833 
L 959.796248 268.810493 
L 961.772551 269.763764 
L 963.748855 273.117865 
L 965.725158 271.034792 
L 967.701462 269.410701 
L 969.677765 269.163556 
L 971.654068 264.114752 
L 973.630372 260.301669 
L 975.606675 257.512469 
L 977.582979 259.454317 
L 979.559282 269.092944 
L 991.417102 321.805288 
L 993.393406 335.963125 
L 995.369709 348.249726 
L 997.346013 359.830201 
L 999.322316 365.020231 
L 1003.274923 366.538403 
L 1005.251226 370.775162 
L 1007.22753 378.542553 
L 1009.203833 392.876921 
L 1011.180136 404.704541 
L 1013.15644 412.860302 
L 1015.132743 414.837456 
L 1019.08535 409.153138 
L 1021.061653 408.905993 
L 1023.037957 412.507239 
L 1026.990564 425.994255 
L 1028.966867 430.513465 
L 1030.943171 432.420006 
L 1032.919474 434.78553 
L 1034.895777 439.375352 
L 1038.848384 454.380541 
L 1040.824688 460.241391 
L 1042.800991 463.524879 
L 1046.753598 467.655719 
L 1048.729901 471.221658 
L 1052.682508 479.518645 
L 1054.658811 482.166619 
L 1056.635115 483.649485 
L 1058.611418 484.955819 
L 1060.587722 486.473991 
L 1062.564025 488.768902 
L 1064.540328 491.522795 
L 1066.516632 493.853013 
L 1068.492935 495.371185 
L 1070.469239 495.936086 
L 1072.445542 496.18323 
L 1076.398149 497.524871 
L 1078.374452 498.619367 
L 1080.350756 499.219574 
L 1082.327059 498.866511 
L 1084.303363 497.24242 
L 1086.279666 495.300572 
L 1088.255969 493.076274 
L 1090.232273 491.099119 
L 1090.232273 491.099119 
" style="fill:none;stroke:#000000;stroke-linecap:square;stroke-width:1.5;"/>
   </g>
   <g id="patch_3">
    <path d="M 87.95 541.28 
L 87.95 37.72 
" style="fill:none;stroke:#555555;stroke-linecap:square;stroke-linejoin:miter;"/>
   </g>
   <g id="patch_4">
    <path d="M 87.95 541.28 
L 1137.96 541.28 
" style="fill:none;stroke:#555555;stroke-linecap:square;stroke-linejoin:miter;"/>
   </g>
   <g id="text_26">
    <!-- Last updated on 02 July 2021 -->
    <g style="fill:#555555;" transform="translate(480.726719 27.72)scale(0.18 -0.18)">
     <defs>
      <path d="M 628 4666 
L 1259 4666 
L 1259 531 
L 3531 531 
L 3531 0 
L 628 0 
L 628 4666 
z
" id="DejaVuSans-4c" transform="scale(0.015625)"/>
      <path d="M 1172 4494 
L 1172 3500 
L 2356 3500 
L 2356 3053 
L 1172 3053 
L 1172 1153 
Q 1172 725 1289 603 
Q 1406 481 1766 481 
L 2356 481 
L 2356 0 
L 1766 0 
Q 1100 0 847 248 
Q 594 497 594 1153 
L 594 3053 
L 172 3053 
L 172 3500 
L 594 3500 
L 594 4494 
L 1172 4494 
z
" id="DejaVuSans-74" transform="scale(0.015625)"/>
      <path d="M 544 1381 
L 544 3500 
L 1119 3500 
L 1119 1403 
Q 1119 906 1312 657 
Q 1506 409 1894 409 
Q 2359 409 2629 706 
Q 2900 1003 2900 1516 
L 2900 3500 
L 3475 3500 
L 3475 0 
L 2900 0 
L 2900 538 
Q 2691 219 2414 64 
Q 2138 -91 1772 -91 
Q 1169 -91 856 284 
Q 544 659 544 1381 
z
M 1991 3584 
L 1991 3584 
z
" id="DejaVuSans-75" transform="scale(0.015625)"/>
      <path d="M 1159 525 
L 1159 -1331 
L 581 -1331 
L 581 3500 
L 1159 3500 
L 1159 2969 
Q 1341 3281 1617 3432 
Q 1894 3584 2278 3584 
Q 2916 3584 3314 3078 
Q 3713 2572 3713 1747 
Q 3713 922 3314 415 
Q 2916 -91 2278 -91 
Q 1894 -91 1617 61 
Q 1341 213 1159 525 
z
M 3116 1747 
Q 3116 2381 2855 2742 
Q 2594 3103 2138 3103 
Q 1681 3103 1420 2742 
Q 1159 2381 1159 1747 
Q 1159 1113 1420 752 
Q 1681 391 2138 391 
Q 2594 391 2855 752 
Q 3116 1113 3116 1747 
z
" id="DejaVuSans-70" transform="scale(0.015625)"/>
      <path d="M 2906 2969 
L 2906 4863 
L 3481 4863 
L 3481 0 
L 2906 0 
L 2906 525 
Q 2725 213 2448 61 
Q 2172 -91 1784 -91 
Q 1150 -91 751 415 
Q 353 922 353 1747 
Q 353 2572 751 3078 
Q 1150 3584 1784 3584 
Q 2172 3584 2448 3432 
Q 2725 3281 2906 2969 
z
M 947 1747 
Q 947 1113 1208 752 
Q 1469 391 1925 391 
Q 2381 391 2643 752 
Q 2906 1113 2906 1747 
Q 2906 2381 2643 2742 
Q 2381 3103 1925 3103 
Q 1469 3103 1208 2742 
Q 947 2381 947 1747 
z
" id="DejaVuSans-64" transform="scale(0.015625)"/>
      <path d="M 1959 3097 
Q 1497 3097 1228 2736 
Q 959 2375 959 1747 
Q 959 1119 1226 758 
Q 1494 397 1959 397 
Q 2419 397 2687 759 
Q 2956 1122 2956 1747 
Q 2956 2369 2687 2733 
Q 2419 3097 1959 3097 
z
M 1959 3584 
Q 2709 3584 3137 3096 
Q 3566 2609 3566 1747 
Q 3566 888 3137 398 
Q 2709 -91 1959 -91 
Q 1206 -91 779 398 
Q 353 888 353 1747 
Q 353 2609 779 3096 
Q 1206 3584 1959 3584 
z
" id="DejaVuSans-6f" transform="scale(0.015625)"/>
      <path d="M 3513 2113 
L 3513 0 
L 2938 0 
L 2938 2094 
Q 2938 2591 2744 2837 
Q 2550 3084 2163 3084 
Q 1697 3084 1428 2787 
Q 1159 2491 1159 1978 
L 1159 0 
L 581 0 
L 581 3500 
L 1159 3500 
L 1159 2956 
Q 1366 3272 1645 3428 
Q 1925 3584 2291 3584 
Q 2894 3584 3203 3211 
Q 3513 2838 3513 2113 
z
" id="DejaVuSans-6e" transform="scale(0.015625)"/>
      <path d="M 2034 4250 
Q 1547 4250 1301 3770 
Q 1056 3291 1056 2328 
Q 1056 1369 1301 889 
Q 1547 409 2034 409 
Q 2525 409 2770 889 
Q 3016 1369 3016 2328 
Q 3016 3291 2770 3770 
Q 2525 4250 2034 4250 
z
M 2034 4750 
Q 2819 4750 3233 4129 
Q 3647 3509 3647 2328 
Q 3647 1150 3233 529 
Q 2819 -91 2034 -91 
Q 1250 -91 836 529 
Q 422 1150 422 2328 
Q 422 3509 836 4129 
Q 1250 4750 2034 4750 
z
" id="DejaVuSans-30" transform="scale(0.015625)"/>
      <path d="M 1228 531 
L 3431 531 
L 3431 0 
L 469 0 
L 469 531 
Q 828 903 1448 1529 
Q 2069 2156 2228 2338 
Q 2531 2678 2651 2914 
Q 2772 3150 2772 3378 
Q 2772 3750 2511 3984 
Q 2250 4219 1831 4219 
Q 1534 4219 1204 4116 
Q 875 4013 500 3803 
L 500 4441 
Q 881 4594 1212 4672 
Q 1544 4750 1819 4750 
Q 2544 4750 2975 4387 
Q 3406 4025 3406 3419 
Q 3406 3131 3298 2873 
Q 3191 2616 2906 2266 
Q 2828 2175 2409 1742 
Q 1991 1309 1228 531 
z
" id="DejaVuSans-32" transform="scale(0.015625)"/>
      <path d="M 628 4666 
L 1259 4666 
L 1259 325 
Q 1259 -519 939 -900 
Q 619 -1281 -91 -1281 
L -331 -1281 
L -331 -750 
L -134 -750 
Q 284 -750 456 -515 
Q 628 -281 628 325 
L 628 4666 
z
" id="DejaVuSans-4a" transform="scale(0.015625)"/>
      <path d="M 603 4863 
L 1178 4863 
L 1178 0 
L 603 0 
L 603 4863 
z
" id="DejaVuSans-6c" transform="scale(0.015625)"/>
      <path d="M 2059 -325 
Q 1816 -950 1584 -1140 
Q 1353 -1331 966 -1331 
L 506 -1331 
L 506 -850 
L 844 -850 
Q 1081 -850 1212 -737 
Q 1344 -625 1503 -206 
L 1606 56 
L 191 3500 
L 800 3500 
L 1894 763 
L 2988 3500 
L 3597 3500 
L 2059 -325 
z
" id="DejaVuSans-79" transform="scale(0.015625)"/>
      <path d="M 794 531 
L 1825 531 
L 1825 4091 
L 703 3866 
L 703 4441 
L 1819 4666 
L 2450 4666 
L 2450 531 
L 3481 531 
L 3481 0 
L 794 0 
L 794 531 
z
" id="DejaVuSans-31" transform="scale(0.015625)"/>
     </defs>
     <use xlink:href="#DejaVuSans-4c"/>
     <use x="55.712891" xlink:href="#DejaVuSans-61"/>
     <use x="116.992188" xlink:href="#DejaVuSans-73"/>
     <use x="169.091797" xlink:href="#DejaVuSans-74"/>
     <use x="208.300781" xlink:href="#DejaVuSans-20"/>
     <use x="240.087891" xlink:href="#DejaVuSans-75"/>
     <use x="303.466797" xlink:href="#DejaVuSans-70"/>
     <use x="366.943359" xlink:href="#DejaVuSans-64"/>
     <use x="430.419922" xlink:href="#DejaVuSans-61"/>
     <use x="491.699219" xlink:href="#DejaVuSans-74"/>
     <use x="530.908203" xlink:href="#DejaVuSans-65"/>
     <use x="592.431641" xlink:href="#DejaVuSans-64"/>
     <use x="655.908203" xlink:href="#DejaVuSans-20"/>
     <use x="687.695312" xlink:href="#DejaVuSans-6f"/>
     <use x="748.876953" xlink:href="#DejaVuSans-6e"/>
     <use x="812.255859" xlink:href="#DejaVuSans-20"/>
     <use x="844.042969" xlink:href="#DejaVuSans-30"/>
     <use x="907.666016" xlink:href="#DejaVuSans-32"/>
     <use x="971.289062" xlink:href="#DejaVuSans-20"/>
     <use x="1003.076172" xlink:href="#DejaVuSans-4a"/>
     <use x="1032.568359" xlink:href="#DejaVuSans-75"/>
     <use x="1095.947266" xlink:href="#DejaVuSans-6c"/>
     <use x="1123.730469" xlink:href="#DejaVuSans-79"/>
     <use x="1182.910156" xlink:href="#DejaVuSans-20"/>
     <use x="1214.697266" xlink:href="#DejaVuSans-32"/>
     <use x="1278.320312" xlink:href="#DejaVuSans-30"/>
     <use x="1341.943359" xlink:href="#DejaVuSans-32"/>
     <use x="1405.566406" xlink:href="#DejaVuSans-31"/>
    </g>
   </g>
   <g id="legend_1">
    <g id="line2d_27">
     <path d="M 1015.497969 54.747969 
L 1041.497969 54.747969 
" style="fill:none;stroke:#000000;stroke-dasharray:1.5,2.475;stroke-dashoffset:0;stroke-opacity:0.5;stroke-width:1.5;"/>
    </g>
    <g id="line2d_28"/>
    <g id="text_27">
     <!-- Actual -->
     <g style="fill:#555555;" transform="translate(1051.897969 59.297969)scale(0.13 -0.13)">
      <use xlink:href="#DejaVuSans-Bold-41"/>
      <use x="77.392578" xlink:href="#DejaVuSans-Bold-63"/>
      <use x="136.669922" xlink:href="#DejaVuSans-Bold-74"/>
      <use x="184.472656" xlink:href="#DejaVuSans-Bold-75"/>
      <use x="255.664062" xlink:href="#DejaVuSans-Bold-61"/>
      <use x="323.144531" xlink:href="#DejaVuSans-Bold-6c"/>
     </g>
    </g>
    <g id="line2d_29">
     <path d="M 1015.497969 73.829531 
L 1041.497969 73.829531 
" style="fill:none;stroke:#000000;stroke-linecap:square;stroke-width:1.5;"/>
    </g>
    <g id="line2d_30"/>
    <g id="text_28">
     <!-- Smoothed -->
     <g style="fill:#555555;" transform="translate(1051.897969 78.379531)scale(0.13 -0.13)">
      <defs>
       <path d="M 3781 2919 
Q 3994 3244 4286 3414 
Q 4578 3584 4928 3584 
Q 5531 3584 5847 3212 
Q 6163 2841 6163 2131 
L 6163 0 
L 5038 0 
L 5038 1825 
Q 5041 1866 5042 1909 
Q 5044 1953 5044 2034 
Q 5044 2406 4934 2573 
Q 4825 2741 4581 2741 
Q 4263 2741 4089 2478 
Q 3916 2216 3909 1719 
L 3909 0 
L 2784 0 
L 2784 1825 
Q 2784 2406 2684 2573 
Q 2584 2741 2328 2741 
Q 2006 2741 1831 2477 
Q 1656 2213 1656 1722 
L 1656 0 
L 531 0 
L 531 3500 
L 1656 3500 
L 1656 2988 
Q 1863 3284 2130 3434 
Q 2397 3584 2719 3584 
Q 3081 3584 3359 3409 
Q 3638 3234 3781 2919 
z
" id="DejaVuSans-Bold-6d" transform="scale(0.015625)"/>
       <path d="M 4056 2131 
L 4056 0 
L 2931 0 
L 2931 347 
L 2931 1625 
Q 2931 2084 2911 2256 
Q 2891 2428 2841 2509 
Q 2775 2619 2662 2680 
Q 2550 2741 2406 2741 
Q 2056 2741 1856 2470 
Q 1656 2200 1656 1722 
L 1656 0 
L 538 0 
L 538 4863 
L 1656 4863 
L 1656 2988 
Q 1909 3294 2193 3439 
Q 2478 3584 2822 3584 
Q 3428 3584 3742 3212 
Q 4056 2841 4056 2131 
z
" id="DejaVuSans-Bold-68" transform="scale(0.015625)"/>
       <path d="M 2919 2988 
L 2919 4863 
L 4044 4863 
L 4044 0 
L 2919 0 
L 2919 506 
Q 2688 197 2409 53 
Q 2131 -91 1766 -91 
Q 1119 -91 703 423 
Q 288 938 288 1747 
Q 288 2556 703 3070 
Q 1119 3584 1766 3584 
Q 2128 3584 2408 3439 
Q 2688 3294 2919 2988 
z
M 2181 722 
Q 2541 722 2730 984 
Q 2919 1247 2919 1747 
Q 2919 2247 2730 2509 
Q 2541 2772 2181 2772 
Q 1825 2772 1636 2509 
Q 1447 2247 1447 1747 
Q 1447 1247 1636 984 
Q 1825 722 2181 722 
z
" id="DejaVuSans-Bold-64" transform="scale(0.015625)"/>
      </defs>
      <use xlink:href="#DejaVuSans-Bold-53"/>
      <use x="72.021484" xlink:href="#DejaVuSans-Bold-6d"/>
      <use x="176.220703" xlink:href="#DejaVuSans-Bold-6f"/>
      <use x="244.921875" xlink:href="#DejaVuSans-Bold-6f"/>
      <use x="313.623047" xlink:href="#DejaVuSans-Bold-74"/>
      <use x="361.425781" xlink:href="#DejaVuSans-Bold-68"/>
      <use x="432.617188" xlink:href="#DejaVuSans-Bold-65"/>
      <use x="500.439453" xlink:href="#DejaVuSans-Bold-64"/>
     </g>
    </g>
   </g>
  </g>
 </g>
 <defs>
  <clipPath id="p759ab808ef">
   <rect height="503.56" width="1050.01" x="87.95" y="37.72"/>
  </clipPath>
 </defs>
</svg>
