<?xml version="1.0" encoding="utf-8" standalone="no"?>
<!DOCTYPE svg PUBLIC "-//W3C//DTD SVG 1.1//EN"
  "http://www.w3.org/Graphics/SVG/1.1/DTD/svg11.dtd">
<svg height="576pt" version="1.1" viewBox="0 0 1152 576" width="1152pt" xmlns="http://www.w3.org/2000/svg" xmlns:xlink="http://www.w3.org/1999/xlink">
 <metadata>
  <rdf:RDF xmlns:cc="http://creativecommons.org/ns#" xmlns:dc="http://purl.org/dc/elements/1.1/" xmlns:rdf="http://www.w3.org/1999/02/22-rdf-syntax-ns#">
   <cc:Work>
    <dc:type rdf:resource="http://purl.org/dc/dcmitype/StillImage"/>
    <dc:date>2021-04-17T17:36:14.848952</dc:date>
    <dc:format>image/svg+xml</dc:format>
    <dc:creator>
     <cc:Agent>
      <dc:title>Matplotlib v3.4.1, https://matplotlib.org/</dc:title>
     </cc:Agent>
    </dc:creator>
   </cc:Work>
  </rdf:RDF>
 </metadata>
 <defs>
  <style type="text/css">*{stroke-linecap:butt;stroke-linejoin:round;}</style>
 </defs>
 <g id="figure_1">
  <g id="patch_1">
   <path d="M 0 576 
L 1152 576 
L 1152 0 
L 0 0 
z
" style="fill:#ffffff;"/>
  </g>
  <g id="axes_1">
   <g id="patch_2">
    <path d="M 87.95 541.28 
L 1134.626551 541.28 
L 1134.626551 37.72 
L 87.95 37.72 
z
" style="fill:#ffffff;"/>
   </g>
   <g id="matplotlib.axis_1">
    <g id="xtick_1">
     <g id="line2d_1">
      <defs>
       <path d="M 0 0 
L 0 3.5 
" id="m8778b12e88" style="stroke:#555555;stroke-width:0.8;"/>
      </defs>
      <g>
       <use style="fill:#555555;stroke:#555555;stroke-width:0.8;" x="126.197539" xlink:href="#m8778b12e88" y="541.28"/>
      </g>
     </g>
     <g id="text_1">
      <!-- Mar -->
      <g style="fill:#555555;" transform="translate(111.055664 558.917812)scale(0.14 -0.14)">
       <defs>
        <path d="M 588 4666 
L 2119 4666 
L 3181 2169 
L 4250 4666 
L 5778 4666 
L 5778 0 
L 4641 0 
L 4641 3413 
L 3566 897 
L 2803 897 
L 1728 3413 
L 1728 0 
L 588 0 
L 588 4666 
z
" id="DejaVuSans-Bold-4d" transform="scale(0.015625)"/>
        <path d="M 2106 1575 
Q 1756 1575 1579 1456 
Q 1403 1338 1403 1106 
Q 1403 894 1545 773 
Q 1688 653 1941 653 
Q 2256 653 2472 879 
Q 2688 1106 2688 1447 
L 2688 1575 
L 2106 1575 
z
M 3816 1997 
L 3816 0 
L 2688 0 
L 2688 519 
Q 2463 200 2181 54 
Q 1900 -91 1497 -91 
Q 953 -91 614 226 
Q 275 544 275 1050 
Q 275 1666 698 1953 
Q 1122 2241 2028 2241 
L 2688 2241 
L 2688 2328 
Q 2688 2594 2478 2717 
Q 2269 2841 1825 2841 
Q 1466 2841 1156 2769 
Q 847 2697 581 2553 
L 581 3406 
Q 941 3494 1303 3539 
Q 1666 3584 2028 3584 
Q 2975 3584 3395 3211 
Q 3816 2838 3816 1997 
z
" id="DejaVuSans-Bold-61" transform="scale(0.015625)"/>
        <path d="M 3138 2547 
Q 2991 2616 2845 2648 
Q 2700 2681 2553 2681 
Q 2122 2681 1889 2404 
Q 1656 2128 1656 1613 
L 1656 0 
L 538 0 
L 538 3500 
L 1656 3500 
L 1656 2925 
Q 1872 3269 2151 3426 
Q 2431 3584 2822 3584 
Q 2878 3584 2943 3579 
Q 3009 3575 3134 3559 
L 3138 2547 
z
" id="DejaVuSans-Bold-72" transform="scale(0.015625)"/>
       </defs>
       <use xlink:href="#DejaVuSans-Bold-4d"/>
       <use x="99.511719" xlink:href="#DejaVuSans-Bold-61"/>
       <use x="166.992188" xlink:href="#DejaVuSans-Bold-72"/>
      </g>
     </g>
    </g>
    <g id="xtick_2">
     <g id="line2d_2">
      <g>
       <use style="fill:#555555;stroke:#555555;stroke-width:0.8;" x="198.494716" xlink:href="#m8778b12e88" y="541.28"/>
      </g>
     </g>
     <g id="text_2">
      <!-- Apr -->
      <g style="fill:#555555;" transform="translate(184.615028 558.917812)scale(0.14 -0.14)">
       <defs>
        <path d="M 3419 850 
L 1538 850 
L 1241 0 
L 31 0 
L 1759 4666 
L 3194 4666 
L 4922 0 
L 3713 0 
L 3419 850 
z
M 1838 1716 
L 3116 1716 
L 2478 3572 
L 1838 1716 
z
" id="DejaVuSans-Bold-41" transform="scale(0.015625)"/>
        <path d="M 1656 506 
L 1656 -1331 
L 538 -1331 
L 538 3500 
L 1656 3500 
L 1656 2988 
Q 1888 3294 2169 3439 
Q 2450 3584 2816 3584 
Q 3463 3584 3878 3070 
Q 4294 2556 4294 1747 
Q 4294 938 3878 423 
Q 3463 -91 2816 -91 
Q 2450 -91 2169 54 
Q 1888 200 1656 506 
z
M 2400 2772 
Q 2041 2772 1848 2508 
Q 1656 2244 1656 1747 
Q 1656 1250 1848 986 
Q 2041 722 2400 722 
Q 2759 722 2948 984 
Q 3138 1247 3138 1747 
Q 3138 2247 2948 2509 
Q 2759 2772 2400 2772 
z
" id="DejaVuSans-Bold-70" transform="scale(0.015625)"/>
       </defs>
       <use xlink:href="#DejaVuSans-Bold-41"/>
       <use x="77.392578" xlink:href="#DejaVuSans-Bold-70"/>
       <use x="148.974609" xlink:href="#DejaVuSans-Bold-72"/>
      </g>
     </g>
    </g>
    <g id="xtick_3">
     <g id="line2d_3">
      <g>
       <use style="fill:#555555;stroke:#555555;stroke-width:0.8;" x="268.459726" xlink:href="#m8778b12e88" y="541.28"/>
      </g>
     </g>
     <g id="text_3">
      <!-- May -->
      <g style="fill:#555555;" transform="translate(252.425351 558.808437)scale(0.14 -0.14)">
       <defs>
        <path d="M 78 3500 
L 1197 3500 
L 2138 1125 
L 2938 3500 
L 4056 3500 
L 2584 -331 
Q 2363 -916 2067 -1148 
Q 1772 -1381 1288 -1381 
L 641 -1381 
L 641 -647 
L 991 -647 
Q 1275 -647 1404 -556 
Q 1534 -466 1606 -231 
L 1638 -134 
L 78 3500 
z
" id="DejaVuSans-Bold-79" transform="scale(0.015625)"/>
       </defs>
       <use xlink:href="#DejaVuSans-Bold-4d"/>
       <use x="99.511719" xlink:href="#DejaVuSans-Bold-61"/>
       <use x="163.867188" xlink:href="#DejaVuSans-Bold-79"/>
      </g>
     </g>
    </g>
    <g id="xtick_4">
     <g id="line2d_4">
      <g>
       <use style="fill:#555555;stroke:#555555;stroke-width:0.8;" x="340.756903" xlink:href="#m8778b12e88" y="541.28"/>
      </g>
     </g>
     <g id="text_4">
      <!-- Jun -->
      <g style="fill:#555555;" transform="translate(328.186434 558.917812)scale(0.14 -0.14)">
       <defs>
        <path d="M 588 4666 
L 1791 4666 
L 1791 453 
Q 1791 -419 1317 -850 
Q 844 -1281 -116 -1281 
L -359 -1281 
L -359 -372 
L -172 -372 
Q 203 -372 395 -162 
Q 588 47 588 453 
L 588 4666 
z
" id="DejaVuSans-Bold-4a" transform="scale(0.015625)"/>
        <path d="M 500 1363 
L 500 3500 
L 1625 3500 
L 1625 3150 
Q 1625 2866 1622 2436 
Q 1619 2006 1619 1863 
Q 1619 1441 1641 1255 
Q 1663 1069 1716 984 
Q 1784 875 1895 815 
Q 2006 756 2150 756 
Q 2500 756 2700 1025 
Q 2900 1294 2900 1772 
L 2900 3500 
L 4019 3500 
L 4019 0 
L 2900 0 
L 2900 506 
Q 2647 200 2364 54 
Q 2081 -91 1741 -91 
Q 1134 -91 817 281 
Q 500 653 500 1363 
z
" id="DejaVuSans-Bold-75" transform="scale(0.015625)"/>
        <path d="M 4056 2131 
L 4056 0 
L 2931 0 
L 2931 347 
L 2931 1631 
Q 2931 2084 2911 2256 
Q 2891 2428 2841 2509 
Q 2775 2619 2662 2680 
Q 2550 2741 2406 2741 
Q 2056 2741 1856 2470 
Q 1656 2200 1656 1722 
L 1656 0 
L 538 0 
L 538 3500 
L 1656 3500 
L 1656 2988 
Q 1909 3294 2193 3439 
Q 2478 3584 2822 3584 
Q 3428 3584 3742 3212 
Q 4056 2841 4056 2131 
z
" id="DejaVuSans-Bold-6e" transform="scale(0.015625)"/>
       </defs>
       <use xlink:href="#DejaVuSans-Bold-4a"/>
       <use x="37.207031" xlink:href="#DejaVuSans-Bold-75"/>
       <use x="108.398438" xlink:href="#DejaVuSans-Bold-6e"/>
      </g>
     </g>
    </g>
    <g id="xtick_5">
     <g id="line2d_5">
      <g>
       <use style="fill:#555555;stroke:#555555;stroke-width:0.8;" x="410.721913" xlink:href="#m8778b12e88" y="541.28"/>
      </g>
     </g>
     <g id="text_5">
      <!-- Jul -->
      <g style="fill:#555555;" transform="translate(400.734882 558.917812)scale(0.14 -0.14)">
       <defs>
        <path d="M 538 4863 
L 1656 4863 
L 1656 0 
L 538 0 
L 538 4863 
z
" id="DejaVuSans-Bold-6c" transform="scale(0.015625)"/>
       </defs>
       <use xlink:href="#DejaVuSans-Bold-4a"/>
       <use x="37.207031" xlink:href="#DejaVuSans-Bold-75"/>
       <use x="108.398438" xlink:href="#DejaVuSans-Bold-6c"/>
      </g>
     </g>
    </g>
    <g id="xtick_6">
     <g id="line2d_6">
      <g>
       <use style="fill:#555555;stroke:#555555;stroke-width:0.8;" x="483.01909" xlink:href="#m8778b12e88" y="541.28"/>
      </g>
     </g>
     <g id="text_6">
      <!-- Aug -->
      <g style="fill:#555555;" transform="translate(467.608153 558.808437)scale(0.14 -0.14)">
       <defs>
        <path d="M 2919 594 
Q 2688 288 2409 144 
Q 2131 0 1766 0 
Q 1125 0 706 504 
Q 288 1009 288 1791 
Q 288 2575 706 3076 
Q 1125 3578 1766 3578 
Q 2131 3578 2409 3434 
Q 2688 3291 2919 2981 
L 2919 3500 
L 4044 3500 
L 4044 353 
Q 4044 -491 3511 -936 
Q 2978 -1381 1966 -1381 
Q 1638 -1381 1331 -1331 
Q 1025 -1281 716 -1178 
L 716 -306 
Q 1009 -475 1290 -558 
Q 1572 -641 1856 -641 
Q 2406 -641 2662 -400 
Q 2919 -159 2919 353 
L 2919 594 
z
M 2181 2772 
Q 1834 2772 1640 2515 
Q 1447 2259 1447 1791 
Q 1447 1309 1634 1061 
Q 1822 813 2181 813 
Q 2531 813 2725 1069 
Q 2919 1325 2919 1791 
Q 2919 2259 2725 2515 
Q 2531 2772 2181 2772 
z
" id="DejaVuSans-Bold-67" transform="scale(0.015625)"/>
       </defs>
       <use xlink:href="#DejaVuSans-Bold-41"/>
       <use x="77.392578" xlink:href="#DejaVuSans-Bold-75"/>
       <use x="148.583984" xlink:href="#DejaVuSans-Bold-67"/>
      </g>
     </g>
    </g>
    <g id="xtick_7">
     <g id="line2d_7">
      <g>
       <use style="fill:#555555;stroke:#555555;stroke-width:0.8;" x="555.316267" xlink:href="#m8778b12e88" y="541.28"/>
      </g>
     </g>
     <g id="text_7">
      <!-- Sep -->
      <g style="fill:#555555;" transform="translate(540.516736 558.917812)scale(0.14 -0.14)">
       <defs>
        <path d="M 3834 4519 
L 3834 3531 
Q 3450 3703 3084 3790 
Q 2719 3878 2394 3878 
Q 1963 3878 1756 3759 
Q 1550 3641 1550 3391 
Q 1550 3203 1689 3098 
Q 1828 2994 2194 2919 
L 2706 2816 
Q 3484 2659 3812 2340 
Q 4141 2022 4141 1434 
Q 4141 663 3683 286 
Q 3225 -91 2284 -91 
Q 1841 -91 1394 -6 
Q 947 78 500 244 
L 500 1259 
Q 947 1022 1364 901 
Q 1781 781 2169 781 
Q 2563 781 2772 912 
Q 2981 1044 2981 1288 
Q 2981 1506 2839 1625 
Q 2697 1744 2272 1838 
L 1806 1941 
Q 1106 2091 782 2419 
Q 459 2747 459 3303 
Q 459 4000 909 4375 
Q 1359 4750 2203 4750 
Q 2588 4750 2994 4692 
Q 3400 4634 3834 4519 
z
" id="DejaVuSans-Bold-53" transform="scale(0.015625)"/>
        <path d="M 4031 1759 
L 4031 1441 
L 1416 1441 
Q 1456 1047 1700 850 
Q 1944 653 2381 653 
Q 2734 653 3104 758 
Q 3475 863 3866 1075 
L 3866 213 
Q 3469 63 3072 -14 
Q 2675 -91 2278 -91 
Q 1328 -91 801 392 
Q 275 875 275 1747 
Q 275 2603 792 3093 
Q 1309 3584 2216 3584 
Q 3041 3584 3536 3087 
Q 4031 2591 4031 1759 
z
M 2881 2131 
Q 2881 2450 2695 2645 
Q 2509 2841 2209 2841 
Q 1884 2841 1681 2658 
Q 1478 2475 1428 2131 
L 2881 2131 
z
" id="DejaVuSans-Bold-65" transform="scale(0.015625)"/>
       </defs>
       <use xlink:href="#DejaVuSans-Bold-53"/>
       <use x="72.021484" xlink:href="#DejaVuSans-Bold-65"/>
       <use x="139.84375" xlink:href="#DejaVuSans-Bold-70"/>
      </g>
     </g>
    </g>
    <g id="xtick_8">
     <g id="line2d_8">
      <g>
       <use style="fill:#555555;stroke:#555555;stroke-width:0.8;" x="625.281277" xlink:href="#m8778b12e88" y="541.28"/>
      </g>
     </g>
     <g id="text_8">
      <!-- Oct -->
      <g style="fill:#555555;" transform="translate(611.834715 558.917812)scale(0.14 -0.14)">
       <defs>
        <path d="M 2719 3878 
Q 2169 3878 1866 3472 
Q 1563 3066 1563 2328 
Q 1563 1594 1866 1187 
Q 2169 781 2719 781 
Q 3272 781 3575 1187 
Q 3878 1594 3878 2328 
Q 3878 3066 3575 3472 
Q 3272 3878 2719 3878 
z
M 2719 4750 
Q 3844 4750 4481 4106 
Q 5119 3463 5119 2328 
Q 5119 1197 4481 553 
Q 3844 -91 2719 -91 
Q 1597 -91 958 553 
Q 319 1197 319 2328 
Q 319 3463 958 4106 
Q 1597 4750 2719 4750 
z
" id="DejaVuSans-Bold-4f" transform="scale(0.015625)"/>
        <path d="M 3366 3391 
L 3366 2478 
Q 3138 2634 2908 2709 
Q 2678 2784 2431 2784 
Q 1963 2784 1702 2511 
Q 1441 2238 1441 1747 
Q 1441 1256 1702 982 
Q 1963 709 2431 709 
Q 2694 709 2930 787 
Q 3166 866 3366 1019 
L 3366 103 
Q 3103 6 2833 -42 
Q 2563 -91 2291 -91 
Q 1344 -91 809 395 
Q 275 881 275 1747 
Q 275 2613 809 3098 
Q 1344 3584 2291 3584 
Q 2566 3584 2833 3536 
Q 3100 3488 3366 3391 
z
" id="DejaVuSans-Bold-63" transform="scale(0.015625)"/>
        <path d="M 1759 4494 
L 1759 3500 
L 2913 3500 
L 2913 2700 
L 1759 2700 
L 1759 1216 
Q 1759 972 1856 886 
Q 1953 800 2241 800 
L 2816 800 
L 2816 0 
L 1856 0 
Q 1194 0 917 276 
Q 641 553 641 1216 
L 641 2700 
L 84 2700 
L 84 3500 
L 641 3500 
L 641 4494 
L 1759 4494 
z
" id="DejaVuSans-Bold-74" transform="scale(0.015625)"/>
       </defs>
       <use xlink:href="#DejaVuSans-Bold-4f"/>
       <use x="85.009766" xlink:href="#DejaVuSans-Bold-63"/>
       <use x="144.287109" xlink:href="#DejaVuSans-Bold-74"/>
      </g>
     </g>
    </g>
    <g id="xtick_9">
     <g id="line2d_9">
      <g>
       <use style="fill:#555555;stroke:#555555;stroke-width:0.8;" x="697.578455" xlink:href="#m8778b12e88" y="541.28"/>
      </g>
     </g>
     <g id="text_9">
      <!-- Nov -->
      <g style="fill:#555555;" transform="translate(682.347986 558.917812)scale(0.14 -0.14)">
       <defs>
        <path d="M 588 4666 
L 1931 4666 
L 3628 1466 
L 3628 4666 
L 4769 4666 
L 4769 0 
L 3425 0 
L 1728 3200 
L 1728 0 
L 588 0 
L 588 4666 
z
" id="DejaVuSans-Bold-4e" transform="scale(0.015625)"/>
        <path d="M 2203 2784 
Q 1831 2784 1636 2517 
Q 1441 2250 1441 1747 
Q 1441 1244 1636 976 
Q 1831 709 2203 709 
Q 2569 709 2762 976 
Q 2956 1244 2956 1747 
Q 2956 2250 2762 2517 
Q 2569 2784 2203 2784 
z
M 2203 3584 
Q 3106 3584 3614 3096 
Q 4122 2609 4122 1747 
Q 4122 884 3614 396 
Q 3106 -91 2203 -91 
Q 1297 -91 786 396 
Q 275 884 275 1747 
Q 275 2609 786 3096 
Q 1297 3584 2203 3584 
z
" id="DejaVuSans-Bold-6f" transform="scale(0.015625)"/>
        <path d="M 97 3500 
L 1216 3500 
L 2088 1081 
L 2956 3500 
L 4078 3500 
L 2700 0 
L 1472 0 
L 97 3500 
z
" id="DejaVuSans-Bold-76" transform="scale(0.015625)"/>
       </defs>
       <use xlink:href="#DejaVuSans-Bold-4e"/>
       <use x="83.691406" xlink:href="#DejaVuSans-Bold-6f"/>
       <use x="152.392578" xlink:href="#DejaVuSans-Bold-76"/>
      </g>
     </g>
    </g>
    <g id="xtick_10">
     <g id="line2d_10">
      <g>
       <use style="fill:#555555;stroke:#555555;stroke-width:0.8;" x="767.543465" xlink:href="#m8778b12e88" y="541.28"/>
      </g>
     </g>
     <g id="text_10">
      <!-- Dec -->
      <g style="fill:#555555;" transform="translate(752.834715 558.917812)scale(0.14 -0.14)">
       <defs>
        <path d="M 1791 3756 
L 1791 909 
L 2222 909 
Q 2959 909 3348 1275 
Q 3738 1641 3738 2338 
Q 3738 3031 3350 3393 
Q 2963 3756 2222 3756 
L 1791 3756 
z
M 588 4666 
L 1856 4666 
Q 2919 4666 3439 4514 
Q 3959 4363 4331 4000 
Q 4659 3684 4818 3271 
Q 4978 2859 4978 2338 
Q 4978 1809 4818 1395 
Q 4659 981 4331 666 
Q 3956 303 3431 151 
Q 2906 0 1856 0 
L 588 0 
L 588 4666 
z
" id="DejaVuSans-Bold-44" transform="scale(0.015625)"/>
       </defs>
       <use xlink:href="#DejaVuSans-Bold-44"/>
       <use x="83.007812" xlink:href="#DejaVuSans-Bold-65"/>
       <use x="150.830078" xlink:href="#DejaVuSans-Bold-63"/>
      </g>
     </g>
    </g>
    <g id="xtick_11">
     <g id="line2d_11">
      <g>
       <use style="fill:#555555;stroke:#555555;stroke-width:0.8;" x="839.840642" xlink:href="#m8778b12e88" y="541.28"/>
      </g>
     </g>
     <g id="text_11">
      <!-- Jan -->
      <g style="fill:#555555;" transform="translate(827.529392 558.917812)scale(0.14 -0.14)">
       <use xlink:href="#DejaVuSans-Bold-4a"/>
       <use x="37.207031" xlink:href="#DejaVuSans-Bold-61"/>
       <use x="104.6875" xlink:href="#DejaVuSans-Bold-6e"/>
      </g>
     </g>
    </g>
    <g id="xtick_12">
     <g id="line2d_12">
      <g>
       <use style="fill:#555555;stroke:#555555;stroke-width:0.8;" x="912.137819" xlink:href="#m8778b12e88" y="541.28"/>
      </g>
     </g>
     <g id="text_12">
      <!-- Feb -->
      <g style="fill:#555555;" transform="translate(897.877506 558.917812)scale(0.14 -0.14)">
       <defs>
        <path d="M 588 4666 
L 3834 4666 
L 3834 3756 
L 1791 3756 
L 1791 2888 
L 3713 2888 
L 3713 1978 
L 1791 1978 
L 1791 0 
L 588 0 
L 588 4666 
z
" id="DejaVuSans-Bold-46" transform="scale(0.015625)"/>
        <path d="M 2400 722 
Q 2759 722 2948 984 
Q 3138 1247 3138 1747 
Q 3138 2247 2948 2509 
Q 2759 2772 2400 2772 
Q 2041 2772 1848 2508 
Q 1656 2244 1656 1747 
Q 1656 1250 1848 986 
Q 2041 722 2400 722 
z
M 1656 2988 
Q 1888 3294 2169 3439 
Q 2450 3584 2816 3584 
Q 3463 3584 3878 3070 
Q 4294 2556 4294 1747 
Q 4294 938 3878 423 
Q 3463 -91 2816 -91 
Q 2450 -91 2169 54 
Q 1888 200 1656 506 
L 1656 0 
L 538 0 
L 538 4863 
L 1656 4863 
L 1656 2988 
z
" id="DejaVuSans-Bold-62" transform="scale(0.015625)"/>
       </defs>
       <use xlink:href="#DejaVuSans-Bold-46"/>
       <use x="64.310547" xlink:href="#DejaVuSans-Bold-65"/>
       <use x="132.132812" xlink:href="#DejaVuSans-Bold-62"/>
      </g>
     </g>
    </g>
    <g id="xtick_13">
     <g id="line2d_13">
      <g>
       <use style="fill:#555555;stroke:#555555;stroke-width:0.8;" x="977.438495" xlink:href="#m8778b12e88" y="541.28"/>
      </g>
     </g>
     <g id="text_13">
      <!-- Mar -->
      <g style="fill:#555555;" transform="translate(962.29662 558.917812)scale(0.14 -0.14)">
       <use xlink:href="#DejaVuSans-Bold-4d"/>
       <use x="99.511719" xlink:href="#DejaVuSans-Bold-61"/>
       <use x="166.992188" xlink:href="#DejaVuSans-Bold-72"/>
      </g>
     </g>
    </g>
    <g id="xtick_14">
     <g id="line2d_14">
      <g>
       <use style="fill:#555555;stroke:#555555;stroke-width:0.8;" x="1049.735672" xlink:href="#m8778b12e88" y="541.28"/>
      </g>
     </g>
     <g id="text_14">
      <!-- Apr -->
      <g style="fill:#555555;" transform="translate(1035.855984 558.917812)scale(0.14 -0.14)">
       <use xlink:href="#DejaVuSans-Bold-41"/>
       <use x="77.392578" xlink:href="#DejaVuSans-Bold-70"/>
       <use x="148.974609" xlink:href="#DejaVuSans-Bold-72"/>
      </g>
     </g>
    </g>
    <g id="xtick_15">
     <g id="line2d_15">
      <g>
       <use style="fill:#555555;stroke:#555555;stroke-width:0.8;" x="1119.700682" xlink:href="#m8778b12e88" y="541.28"/>
      </g>
     </g>
     <g id="text_15">
      <!-- May -->
      <g style="fill:#555555;" transform="translate(1103.666307 558.808437)scale(0.14 -0.14)">
       <use xlink:href="#DejaVuSans-Bold-4d"/>
       <use x="99.511719" xlink:href="#DejaVuSans-Bold-61"/>
       <use x="163.867188" xlink:href="#DejaVuSans-Bold-79"/>
      </g>
     </g>
    </g>
   </g>
   <g id="matplotlib.axis_2">
    <g id="ytick_1">
     <g id="line2d_16">
      <defs>
       <path d="M 0 0 
L -3.5 0 
" id="mb3b04d8f17" style="stroke:#555555;stroke-width:0.8;"/>
      </defs>
      <g>
       <use style="fill:#555555;stroke:#555555;stroke-width:0.8;" x="87.95" xlink:href="#mb3b04d8f17" y="519.471929"/>
      </g>
     </g>
     <g id="text_16">
      <!-- 0 -->
      <g style="fill:#555555;" transform="translate(71.209063 524.790835)scale(0.14 -0.14)">
       <defs>
        <path d="M 2944 2338 
Q 2944 3213 2780 3570 
Q 2616 3928 2228 3928 
Q 1841 3928 1675 3570 
Q 1509 3213 1509 2338 
Q 1509 1453 1675 1090 
Q 1841 728 2228 728 
Q 2613 728 2778 1090 
Q 2944 1453 2944 2338 
z
M 4147 2328 
Q 4147 1169 3647 539 
Q 3147 -91 2228 -91 
Q 1306 -91 806 539 
Q 306 1169 306 2328 
Q 306 3491 806 4120 
Q 1306 4750 2228 4750 
Q 3147 4750 3647 4120 
Q 4147 3491 4147 2328 
z
" id="DejaVuSans-Bold-30" transform="scale(0.015625)"/>
       </defs>
       <use xlink:href="#DejaVuSans-Bold-30"/>
      </g>
     </g>
    </g>
    <g id="ytick_2">
     <g id="line2d_17">
      <g>
       <use style="fill:#555555;stroke:#555555;stroke-width:0.8;" x="87.95" xlink:href="#mb3b04d8f17" y="459.415278"/>
      </g>
     </g>
     <g id="text_17">
      <!-- 2000 -->
      <g style="fill:#555555;" transform="translate(41.98625 464.734185)scale(0.14 -0.14)">
       <defs>
        <path d="M 1844 884 
L 3897 884 
L 3897 0 
L 506 0 
L 506 884 
L 2209 2388 
Q 2438 2594 2547 2791 
Q 2656 2988 2656 3200 
Q 2656 3528 2436 3728 
Q 2216 3928 1850 3928 
Q 1569 3928 1234 3808 
Q 900 3688 519 3450 
L 519 4475 
Q 925 4609 1322 4679 
Q 1719 4750 2100 4750 
Q 2938 4750 3402 4381 
Q 3866 4013 3866 3353 
Q 3866 2972 3669 2642 
Q 3472 2313 2841 1759 
L 1844 884 
z
" id="DejaVuSans-Bold-32" transform="scale(0.015625)"/>
       </defs>
       <use xlink:href="#DejaVuSans-Bold-32"/>
       <use x="69.580078" xlink:href="#DejaVuSans-Bold-30"/>
       <use x="139.160156" xlink:href="#DejaVuSans-Bold-30"/>
       <use x="208.740234" xlink:href="#DejaVuSans-Bold-30"/>
      </g>
     </g>
    </g>
    <g id="ytick_3">
     <g id="line2d_18">
      <g>
       <use style="fill:#555555;stroke:#555555;stroke-width:0.8;" x="87.95" xlink:href="#mb3b04d8f17" y="399.358628"/>
      </g>
     </g>
     <g id="text_18">
      <!-- 4000 -->
      <g style="fill:#555555;" transform="translate(41.98625 404.677534)scale(0.14 -0.14)">
       <defs>
        <path d="M 2356 3675 
L 1038 1722 
L 2356 1722 
L 2356 3675 
z
M 2156 4666 
L 3494 4666 
L 3494 1722 
L 4159 1722 
L 4159 850 
L 3494 850 
L 3494 0 
L 2356 0 
L 2356 850 
L 288 850 
L 288 1881 
L 2156 4666 
z
" id="DejaVuSans-Bold-34" transform="scale(0.015625)"/>
       </defs>
       <use xlink:href="#DejaVuSans-Bold-34"/>
       <use x="69.580078" xlink:href="#DejaVuSans-Bold-30"/>
       <use x="139.160156" xlink:href="#DejaVuSans-Bold-30"/>
       <use x="208.740234" xlink:href="#DejaVuSans-Bold-30"/>
      </g>
     </g>
    </g>
    <g id="ytick_4">
     <g id="line2d_19">
      <g>
       <use style="fill:#555555;stroke:#555555;stroke-width:0.8;" x="87.95" xlink:href="#mb3b04d8f17" y="339.301977"/>
      </g>
     </g>
     <g id="text_19">
      <!-- 6000 -->
      <g style="fill:#555555;" transform="translate(41.98625 344.620884)scale(0.14 -0.14)">
       <defs>
        <path d="M 2316 2303 
Q 2000 2303 1842 2098 
Q 1684 1894 1684 1484 
Q 1684 1075 1842 870 
Q 2000 666 2316 666 
Q 2634 666 2792 870 
Q 2950 1075 2950 1484 
Q 2950 1894 2792 2098 
Q 2634 2303 2316 2303 
z
M 3803 4544 
L 3803 3681 
Q 3506 3822 3243 3889 
Q 2981 3956 2731 3956 
Q 2194 3956 1894 3657 
Q 1594 3359 1544 2772 
Q 1750 2925 1990 3001 
Q 2231 3078 2516 3078 
Q 3231 3078 3670 2659 
Q 4109 2241 4109 1563 
Q 4109 813 3618 361 
Q 3128 -91 2303 -91 
Q 1394 -91 895 523 
Q 397 1138 397 2266 
Q 397 3422 980 4083 
Q 1563 4744 2578 4744 
Q 2900 4744 3203 4694 
Q 3506 4644 3803 4544 
z
" id="DejaVuSans-Bold-36" transform="scale(0.015625)"/>
       </defs>
       <use xlink:href="#DejaVuSans-Bold-36"/>
       <use x="69.580078" xlink:href="#DejaVuSans-Bold-30"/>
       <use x="139.160156" xlink:href="#DejaVuSans-Bold-30"/>
       <use x="208.740234" xlink:href="#DejaVuSans-Bold-30"/>
      </g>
     </g>
    </g>
    <g id="ytick_5">
     <g id="line2d_20">
      <g>
       <use style="fill:#555555;stroke:#555555;stroke-width:0.8;" x="87.95" xlink:href="#mb3b04d8f17" y="279.245327"/>
      </g>
     </g>
     <g id="text_20">
      <!-- 8000 -->
      <g style="fill:#555555;" transform="translate(41.98625 284.564233)scale(0.14 -0.14)">
       <defs>
        <path d="M 2228 2088 
Q 1891 2088 1709 1903 
Q 1528 1719 1528 1375 
Q 1528 1031 1709 848 
Q 1891 666 2228 666 
Q 2563 666 2741 848 
Q 2919 1031 2919 1375 
Q 2919 1722 2741 1905 
Q 2563 2088 2228 2088 
z
M 1350 2484 
Q 925 2613 709 2878 
Q 494 3144 494 3541 
Q 494 4131 934 4440 
Q 1375 4750 2228 4750 
Q 3075 4750 3515 4442 
Q 3956 4134 3956 3541 
Q 3956 3144 3739 2878 
Q 3522 2613 3097 2484 
Q 3572 2353 3814 2058 
Q 4056 1763 4056 1313 
Q 4056 619 3595 264 
Q 3134 -91 2228 -91 
Q 1319 -91 855 264 
Q 391 619 391 1313 
Q 391 1763 633 2058 
Q 875 2353 1350 2484 
z
M 1631 3419 
Q 1631 3141 1786 2991 
Q 1941 2841 2228 2841 
Q 2509 2841 2662 2991 
Q 2816 3141 2816 3419 
Q 2816 3697 2662 3845 
Q 2509 3994 2228 3994 
Q 1941 3994 1786 3844 
Q 1631 3694 1631 3419 
z
" id="DejaVuSans-Bold-38" transform="scale(0.015625)"/>
       </defs>
       <use xlink:href="#DejaVuSans-Bold-38"/>
       <use x="69.580078" xlink:href="#DejaVuSans-Bold-30"/>
       <use x="139.160156" xlink:href="#DejaVuSans-Bold-30"/>
       <use x="208.740234" xlink:href="#DejaVuSans-Bold-30"/>
      </g>
     </g>
    </g>
    <g id="ytick_6">
     <g id="line2d_21">
      <g>
       <use style="fill:#555555;stroke:#555555;stroke-width:0.8;" x="87.95" xlink:href="#mb3b04d8f17" y="219.188676"/>
      </g>
     </g>
     <g id="text_21">
      <!-- 10000 -->
      <g style="fill:#555555;" transform="translate(32.245313 224.507583)scale(0.14 -0.14)">
       <defs>
        <path d="M 750 831 
L 1813 831 
L 1813 3847 
L 722 3622 
L 722 4441 
L 1806 4666 
L 2950 4666 
L 2950 831 
L 4013 831 
L 4013 0 
L 750 0 
L 750 831 
z
" id="DejaVuSans-Bold-31" transform="scale(0.015625)"/>
       </defs>
       <use xlink:href="#DejaVuSans-Bold-31"/>
       <use x="69.580078" xlink:href="#DejaVuSans-Bold-30"/>
       <use x="139.160156" xlink:href="#DejaVuSans-Bold-30"/>
       <use x="208.740234" xlink:href="#DejaVuSans-Bold-30"/>
       <use x="278.320312" xlink:href="#DejaVuSans-Bold-30"/>
      </g>
     </g>
    </g>
    <g id="ytick_7">
     <g id="line2d_22">
      <g>
       <use style="fill:#555555;stroke:#555555;stroke-width:0.8;" x="87.95" xlink:href="#mb3b04d8f17" y="159.132026"/>
      </g>
     </g>
     <g id="text_22">
      <!-- 12000 -->
      <g style="fill:#555555;" transform="translate(32.245313 164.450932)scale(0.14 -0.14)">
       <use xlink:href="#DejaVuSans-Bold-31"/>
       <use x="69.580078" xlink:href="#DejaVuSans-Bold-32"/>
       <use x="139.160156" xlink:href="#DejaVuSans-Bold-30"/>
       <use x="208.740234" xlink:href="#DejaVuSans-Bold-30"/>
       <use x="278.320312" xlink:href="#DejaVuSans-Bold-30"/>
      </g>
     </g>
    </g>
    <g id="ytick_8">
     <g id="line2d_23">
      <g>
       <use style="fill:#555555;stroke:#555555;stroke-width:0.8;" x="87.95" xlink:href="#mb3b04d8f17" y="99.075376"/>
      </g>
     </g>
     <g id="text_23">
      <!-- 14000 -->
      <g style="fill:#555555;" transform="translate(32.245313 104.394282)scale(0.14 -0.14)">
       <use xlink:href="#DejaVuSans-Bold-31"/>
       <use x="69.580078" xlink:href="#DejaVuSans-Bold-34"/>
       <use x="139.160156" xlink:href="#DejaVuSans-Bold-30"/>
       <use x="208.740234" xlink:href="#DejaVuSans-Bold-30"/>
       <use x="278.320312" xlink:href="#DejaVuSans-Bold-30"/>
      </g>
     </g>
    </g>
    <g id="ytick_9">
     <g id="line2d_24">
      <g>
       <use style="fill:#555555;stroke:#555555;stroke-width:0.8;" x="87.95" xlink:href="#mb3b04d8f17" y="39.018725"/>
      </g>
     </g>
     <g id="text_24">
      <!-- 16000 -->
      <g style="fill:#555555;" transform="translate(32.245313 44.337631)scale(0.14 -0.14)">
       <use xlink:href="#DejaVuSans-Bold-31"/>
       <use x="69.580078" xlink:href="#DejaVuSans-Bold-36"/>
       <use x="139.160156" xlink:href="#DejaVuSans-Bold-30"/>
       <use x="208.740234" xlink:href="#DejaVuSans-Bold-30"/>
       <use x="278.320312" xlink:href="#DejaVuSans-Bold-30"/>
      </g>
     </g>
    </g>
    <g id="text_25">
     <!-- New Cases -->
     <g style="fill:#555555;" transform="translate(24.917813 333.23875)rotate(-90)scale(0.16 -0.16)">
      <defs>
       <path d="M 628 4666 
L 1478 4666 
L 3547 763 
L 3547 4666 
L 4159 4666 
L 4159 0 
L 3309 0 
L 1241 3903 
L 1241 0 
L 628 0 
L 628 4666 
z
" id="DejaVuSans-4e" transform="scale(0.015625)"/>
       <path d="M 3597 1894 
L 3597 1613 
L 953 1613 
Q 991 1019 1311 708 
Q 1631 397 2203 397 
Q 2534 397 2845 478 
Q 3156 559 3463 722 
L 3463 178 
Q 3153 47 2828 -22 
Q 2503 -91 2169 -91 
Q 1331 -91 842 396 
Q 353 884 353 1716 
Q 353 2575 817 3079 
Q 1281 3584 2069 3584 
Q 2775 3584 3186 3129 
Q 3597 2675 3597 1894 
z
M 3022 2063 
Q 3016 2534 2758 2815 
Q 2500 3097 2075 3097 
Q 1594 3097 1305 2825 
Q 1016 2553 972 2059 
L 3022 2063 
z
" id="DejaVuSans-65" transform="scale(0.015625)"/>
       <path d="M 269 3500 
L 844 3500 
L 1563 769 
L 2278 3500 
L 2956 3500 
L 3675 769 
L 4391 3500 
L 4966 3500 
L 4050 0 
L 3372 0 
L 2619 2869 
L 1863 0 
L 1184 0 
L 269 3500 
z
" id="DejaVuSans-77" transform="scale(0.015625)"/>
       <path id="DejaVuSans-20" transform="scale(0.015625)"/>
       <path d="M 4122 4306 
L 4122 3641 
Q 3803 3938 3442 4084 
Q 3081 4231 2675 4231 
Q 1875 4231 1450 3742 
Q 1025 3253 1025 2328 
Q 1025 1406 1450 917 
Q 1875 428 2675 428 
Q 3081 428 3442 575 
Q 3803 722 4122 1019 
L 4122 359 
Q 3791 134 3420 21 
Q 3050 -91 2638 -91 
Q 1578 -91 968 557 
Q 359 1206 359 2328 
Q 359 3453 968 4101 
Q 1578 4750 2638 4750 
Q 3056 4750 3426 4639 
Q 3797 4528 4122 4306 
z
" id="DejaVuSans-43" transform="scale(0.015625)"/>
       <path d="M 2194 1759 
Q 1497 1759 1228 1600 
Q 959 1441 959 1056 
Q 959 750 1161 570 
Q 1363 391 1709 391 
Q 2188 391 2477 730 
Q 2766 1069 2766 1631 
L 2766 1759 
L 2194 1759 
z
M 3341 1997 
L 3341 0 
L 2766 0 
L 2766 531 
Q 2569 213 2275 61 
Q 1981 -91 1556 -91 
Q 1019 -91 701 211 
Q 384 513 384 1019 
Q 384 1609 779 1909 
Q 1175 2209 1959 2209 
L 2766 2209 
L 2766 2266 
Q 2766 2663 2505 2880 
Q 2244 3097 1772 3097 
Q 1472 3097 1187 3025 
Q 903 2953 641 2809 
L 641 3341 
Q 956 3463 1253 3523 
Q 1550 3584 1831 3584 
Q 2591 3584 2966 3190 
Q 3341 2797 3341 1997 
z
" id="DejaVuSans-61" transform="scale(0.015625)"/>
       <path d="M 2834 3397 
L 2834 2853 
Q 2591 2978 2328 3040 
Q 2066 3103 1784 3103 
Q 1356 3103 1142 2972 
Q 928 2841 928 2578 
Q 928 2378 1081 2264 
Q 1234 2150 1697 2047 
L 1894 2003 
Q 2506 1872 2764 1633 
Q 3022 1394 3022 966 
Q 3022 478 2636 193 
Q 2250 -91 1575 -91 
Q 1294 -91 989 -36 
Q 684 19 347 128 
L 347 722 
Q 666 556 975 473 
Q 1284 391 1588 391 
Q 1994 391 2212 530 
Q 2431 669 2431 922 
Q 2431 1156 2273 1281 
Q 2116 1406 1581 1522 
L 1381 1569 
Q 847 1681 609 1914 
Q 372 2147 372 2553 
Q 372 3047 722 3315 
Q 1072 3584 1716 3584 
Q 2034 3584 2315 3537 
Q 2597 3491 2834 3397 
z
" id="DejaVuSans-73" transform="scale(0.015625)"/>
      </defs>
      <use xlink:href="#DejaVuSans-4e"/>
      <use x="74.804688" xlink:href="#DejaVuSans-65"/>
      <use x="136.328125" xlink:href="#DejaVuSans-77"/>
      <use x="218.115234" xlink:href="#DejaVuSans-20"/>
      <use x="249.902344" xlink:href="#DejaVuSans-43"/>
      <use x="319.726562" xlink:href="#DejaVuSans-61"/>
      <use x="381.005859" xlink:href="#DejaVuSans-73"/>
      <use x="433.105469" xlink:href="#DejaVuSans-65"/>
      <use x="494.628906" xlink:href="#DejaVuSans-73"/>
     </g>
    </g>
   </g>
   <g id="line2d_25">
    <path clip-path="url(#p8dc08bf67f)" d="M 135.526207 518.150682 
L 137.858374 518.090626 
L 142.522708 517.159748 
L 144.854875 517.790343 
L 147.187042 517.640201 
L 149.519209 515.838501 
L 151.851376 516.168813 
L 154.183543 513.736519 
L 156.51571 514.817538 
L 158.847877 514.186944 
L 161.180044 511.124054 
L 163.512211 510.763714 
L 168.176545 507.190344 
L 170.508712 503.436803 
L 172.840879 500.343886 
L 175.173046 502.265698 
L 177.505213 503.106492 
L 179.83738 495.118957 
L 182.169547 493.887796 
L 184.501714 488.873065 
L 186.833881 484.278732 
L 189.166048 484.6691 
L 191.498215 486.320658 
L 193.830382 492.926889 
L 196.162549 494.097994 
L 198.494716 488.873065 
L 200.826883 486.951253 
L 203.15905 488.662867 
L 205.491217 492.326323 
L 207.823384 482.717259 
L 210.155551 490.884963 
L 212.487718 496.13992 
L 214.819885 490.374482 
L 217.152052 483.04757 
L 219.484219 479.384115 
L 221.816386 479.954653 
L 224.148553 484.218675 
L 226.48072 490.524623 
L 228.812887 493.407342 
L 231.145054 497.431138 
L 233.477221 487.611876 
L 235.809388 482.386947 
L 238.141555 485.239638 
L 240.473722 487.461734 
L 242.805889 496.950685 
L 247.470223 498.211875 
L 249.80239 492.836804 
L 252.134557 495.269099 
L 254.466724 499.803376 
L 256.798891 499.803376 
L 259.131058 507.460599 
L 261.463225 514.337085 
L 263.795392 507.880995 
L 266.127559 504.03737 
L 268.459726 505.208474 
L 270.791893 506.109324 
L 273.12406 509.41244 
L 275.456227 513.496292 
L 277.788394 509.95295 
L 280.120561 512.505357 
L 282.452728 505.809041 
L 284.784895 509.892893 
L 287.117062 510.793743 
L 289.449229 512.114989 
L 291.781396 514.637368 
L 298.777897 511.364281 
L 301.110064 513.466264 
L 303.442231 513.796575 
L 305.774398 515.718388 
L 308.106565 515.087793 
L 310.438732 516.22887 
L 312.770899 513.52632 
L 315.103066 511.874763 
L 317.435233 513.826604 
L 319.7674 514.186944 
L 322.099567 514.307057 
L 324.431734 513.196009 
L 326.763901 515.478162 
L 329.096068 513.766547 
L 333.760402 514.186944 
L 336.092569 515.538218 
L 338.424736 513.916689 
L 340.756903 516.379011 
L 343.08907 516.40904 
L 345.421237 516.889493 
L 347.753404 513.196009 
L 350.085571 513.165981 
L 352.417738 513.976745 
L 354.749905 512.295159 
L 357.082072 514.517255 
L 359.414239 514.547283 
L 361.746406 513.946717 
L 364.078573 514.547283 
L 366.41074 513.165981 
L 368.742907 514.096859 
L 371.075074 515.177878 
L 373.407241 514.517255 
L 375.739408 515.297992 
L 378.071575 515.958615 
L 380.403742 516.018671 
L 382.735909 516.258898 
L 385.068076 517.189776 
L 387.400243 516.739351 
L 389.73241 517.520088 
L 392.064577 517.550116 
L 394.396744 517.009606 
L 396.728911 516.168813 
L 401.393245 517.399974 
L 406.057579 517.189776 
L 408.389746 517.970513 
L 413.05408 517.159748 
L 415.386247 517.219804 
L 417.718414 517.640201 
L 420.050581 517.279861 
L 422.382748 518.390909 
L 424.714915 518.360881 
L 427.047082 517.910456 
L 429.379249 517.910456 
L 431.711416 518.210739 
L 434.043583 517.039634 
L 436.37575 516.439068 
L 438.707917 517.339918 
L 441.040084 517.880428 
L 443.372251 516.288926 
L 445.704418 516.499125 
L 448.036585 516.379011 
L 450.368752 515.658331 
L 452.700919 515.14785 
L 455.033086 513.916689 
L 457.365253 514.577312 
L 459.69742 514.42717 
L 462.029587 514.577312 
L 464.361754 513.736519 
L 466.693921 515.358048 
L 469.026088 513.045867 
L 471.358255 513.316122 
L 473.690422 512.775612 
L 476.022589 512.054932 
L 478.354756 509.202242 
L 480.686923 509.322355 
L 483.01909 506.529721 
L 485.351257 508.481562 
L 487.683424 508.301392 
L 490.015591 504.908191 
L 492.347758 506.679862 
L 494.679925 501.424905 
L 497.012092 503.887228 
L 499.344259 504.878163 
L 501.676426 502.145585 
L 504.008593 500.554084 
L 506.34076 496.079863 
L 508.672927 499.833404 
L 511.005094 502.145585 
L 513.337261 500.373914 
L 515.669428 499.803376 
L 518.001595 504.247568 
L 520.333762 504.998276 
L 522.665929 504.788078 
L 524.998096 502.896293 
L 527.330263 503.586945 
L 529.66243 503.406775 
L 531.994597 504.21754 
L 534.326764 505.748984 
L 536.658931 502.23567 
L 538.991098 507.010174 
L 541.323265 502.325755 
L 543.655432 504.157483 
L 548.319766 504.427738 
L 550.651933 504.21754 
L 552.9841 503.647001 
L 555.316267 505.598843 
L 557.648434 497.431138 
L 559.980601 501.424905 
L 562.312768 497.130855 
L 564.644935 499.833404 
L 566.977102 491.695728 
L 569.309269 495.539354 
L 571.641436 490.524623 
L 573.973603 485.239638 
L 576.30577 494.758617 
L 578.637937 481.335956 
L 580.970104 482.50706 
L 583.302271 486.831139 
L 585.634438 480.435106 
L 587.966605 478.062868 
L 590.298772 473.168251 
L 594.963106 460.196015 
L 597.295273 462.808479 
L 599.62744 464.099697 
L 601.959607 452.899132 
L 604.291774 452.058339 
L 606.623941 448.695166 
L 608.956108 443.079869 
L 611.288275 436.08327 
L 613.620442 438.005082 
L 615.952609 429.537095 
L 618.284776 431.969389 
L 620.616943 429.056642 
L 622.94911 420.558625 
L 625.281277 421.819815 
L 627.613444 404.613585 
L 629.945611 400.349563 
L 632.277778 399.268543 
L 634.609945 381.972228 
L 636.942112 383.503672 
L 639.274279 369.660614 
L 641.606446 344.647019 
L 643.938613 340.172799 
L 646.27078 324.317843 
L 648.602947 328.101412 
L 650.935114 313.928043 
L 653.267281 297.922945 
L 655.599448 300.655523 
L 657.931615 285.521247 
L 660.263782 279.72578 
L 662.595949 275.822098 
L 664.928116 273.780172 
L 667.260283 279.485554 
L 669.59245 274.290653 
L 671.924617 256.934281 
L 674.256784 241.079326 
L 676.588951 219.30879 
L 678.921118 259.696887 
L 681.253285 213.122955 
L 683.585452 208.888961 
L 685.917619 210.420405 
L 688.249786 276.182438 
L 690.581953 211.261199 
L 692.91412 185.586981 
L 695.246287 225.074228 
L 697.578455 258.735981 
L 699.910622 270.657226 
L 702.242789 286.962607 
L 704.574956 290.265722 
L 706.907123 310.324644 
L 709.23929 302.006797 
L 711.571457 319.152971 
L 716.235791 378.939367 
L 718.567958 379.329735 
L 720.900125 357.108774 
L 723.232292 350.292344 
L 725.564459 336.5694 
L 727.896626 341.884413 
L 730.228793 356.928604 
L 732.56096 374.435118 
L 734.893127 390.290074 
L 737.225294 381.071378 
L 739.557461 349.962033 
L 741.889628 341.313875 
L 744.221795 337.199995 
L 746.553962 357.679312 
L 748.886129 364.225487 
L 751.218296 401.580724 
L 753.550463 372.06288 
L 755.88263 385.245315 
L 758.214797 347.019257 
L 760.546964 385.575627 
L 762.879131 351.763732 
L 765.211298 382.302539 
L 767.543465 398.007353 
L 769.875632 371.70254 
L 772.207799 351.133138 
L 774.539966 343.085546 
L 776.872133 323.65722 
L 779.2043 315.909912 
L 781.536467 307.261754 
L 783.868634 334.917842 
L 786.200801 323.447022 
L 788.532968 257.624933 
L 790.865135 254.08159 
L 793.197302 246.814736 
L 795.529469 222.671962 
L 797.861636 265.522382 
L 800.193803 320.294048 
L 802.52597 184.085564 
L 804.858137 135.739961 
L 807.190304 161.20398 
L 809.522471 152.615879 
L 811.854638 128.142794 
L 814.186805 184.115593 
L 816.518972 224.894058 
L 818.851139 207.537686 
L 821.183306 174.176217 
L 823.515473 174.536557 
L 825.84764 223.752982 
L 828.179807 246.814736 
L 830.511974 296.811897 
L 832.844141 294.199433 
L 835.176308 237.265728 
L 837.508475 228.767712 
L 839.840642 273.750143 
L 842.172809 261.198303 
L 844.504976 297.322379 
L 846.837143 322.39603 
L 849.16931 329.152403 
L 851.501477 306.300848 
L 853.833644 230.389242 
L 856.165811 275.521815 
L 858.497978 299.63456 
L 860.830145 320.924642 
L 863.162312 356.838519 
L 865.494479 373.173928 
L 867.826646 336.719541 
L 870.158813 325.308778 
L 872.49098 339.031722 
L 874.823147 361.522938 
L 877.155314 351.373364 
L 879.487481 376.717271 
L 881.819648 391.190923 
L 884.151815 353.41529 
L 886.483982 346.088379 
L 888.816149 346.989229 
L 891.148316 356.898576 
L 893.480483 372.60339 
L 895.81265 398.848146 
L 898.144817 401.850979 
L 900.476984 377.558064 
L 902.809151 379.569962 
L 905.141318 388.848714 
L 907.473485 394.163728 
L 909.805652 408.367125 
L 912.137819 423.741628 
L 914.469986 412.541063 
L 916.802153 398.96826 
L 919.13432 393.563161 
L 921.466487 389.719535 
L 923.798654 397.106503 
L 926.130821 401.340497 
L 928.462988 452.779018 
L 930.795155 467.10253 
L 933.127322 423.89177 
L 935.459489 387.527468 
L 937.791656 389.118969 
L 940.123823 393.533133 
L 942.45599 415.964292 
L 944.788157 435.092335 
L 947.120324 438.365422 
L 949.452491 418.546728 
L 951.784658 383.803955 
L 954.116825 377.558064 
L 956.448992 382.392624 
L 958.781159 379.119537 
L 961.113326 394.494039 
L 963.445493 405.454378 
L 965.77766 388.488374 
L 968.109827 368.999991 
L 970.441994 365.937102 
L 972.774161 371.222087 
L 975.106328 379.269678 
L 977.438495 406.505369 
L 979.770662 399.929166 
L 982.102829 369.420388 
L 984.434996 395.935399 
L 986.767163 379.269678 
L 989.09933 359.240785 
L 991.431497 383.563729 
L 993.763664 404.34333 
L 996.095831 390.560329 
L 998.427998 361.162598 
L 1000.760165 359.661182 
L 1003.092332 338.521241 
L 1005.424499 327.410761 
L 1007.756666 340.082714 
L 1010.088833 355.247018 
L 1012.421 372.273079 
L 1014.753167 341.58413 
L 1017.085334 335.548437 
L 1019.417501 298.01303 
L 1021.749668 291.466855 
L 1024.081835 310.324644 
L 1028.746169 352.514441 
L 1033.410503 60.609091 
L 1035.74267 292.397733 
L 1038.074837 255.282723 
L 1040.407004 296.361472 
L 1042.739171 317.74164 
L 1045.071338 344.466849 
L 1047.403505 290.265722 
L 1049.735672 284.440227 
L 1052.067839 301.676486 
L 1054.400006 290.415864 
L 1056.732173 314.618694 
L 1059.06434 359.721239 
L 1061.396507 353.084979 
L 1063.728674 328.912177 
L 1066.060841 285.761474 
L 1068.393008 290.205666 
L 1070.725175 288.974504 
L 1073.057342 272.699152 
L 1075.389509 319.032858 
L 1077.721676 318.732575 
L 1080.053843 357.739369 
L 1082.38601 257.204536 
L 1084.718177 252.279891 
L 1087.050344 270.687254 
L 1087.050344 270.687254 
" style="fill:none;stroke:#000000;stroke-dasharray:1.5,2.475;stroke-dashoffset:0;stroke-opacity:0.5;stroke-width:1.5;"/>
   </g>
   <g id="line2d_26">
    <path clip-path="url(#p8dc08bf67f)" d="M 135.526207 518.390909 
L 147.187042 516.799408 
L 151.851376 515.628303 
L 156.51571 513.976745 
L 158.847877 512.985811 
L 161.180044 511.754649 
L 163.512211 510.253233 
L 168.176545 506.319522 
L 170.508712 504.637936 
L 175.173046 501.034537 
L 177.505213 498.872498 
L 179.83738 496.13992 
L 184.501714 490.04417 
L 186.833881 488.122357 
L 189.166048 487.852102 
L 191.498215 488.362584 
L 193.830382 489.263434 
L 196.162549 489.894028 
L 198.494716 490.074198 
L 203.15905 488.813009 
L 205.491217 488.933122 
L 207.823384 489.473632 
L 210.155551 489.743887 
L 212.487718 489.113292 
L 217.152052 485.690063 
L 219.484219 484.218675 
L 221.816386 484.12859 
L 224.148553 486.020374 
L 226.48072 488.392612 
L 228.812887 489.954085 
L 231.145054 490.134255 
L 233.477221 489.14332 
L 235.809388 488.362584 
L 238.141555 488.692895 
L 240.473722 490.284397 
L 242.805889 492.566549 
L 245.138056 494.608476 
L 247.470223 495.869665 
L 249.80239 496.650402 
L 252.134557 497.671365 
L 254.466724 499.923489 
L 259.131058 505.268531 
L 261.463225 506.890061 
L 263.795392 507.280429 
L 266.127559 507.220372 
L 268.459726 507.280429 
L 270.791893 507.670797 
L 273.12406 508.931987 
L 275.456227 509.832836 
L 277.788394 510.223205 
L 280.120561 510.193176 
L 282.452728 510.043035 
L 284.784895 510.253233 
L 291.781396 512.625471 
L 294.113563 512.925754 
L 296.44573 512.985811 
L 301.110064 513.436235 
L 305.774398 514.547283 
L 308.106565 514.727453 
L 310.438732 514.517255 
L 315.103066 513.826604 
L 317.435233 513.676462 
L 322.099567 513.946717 
L 324.431734 514.156915 
L 331.428235 514.337085 
L 336.092569 514.817538 
L 338.424736 515.267963 
L 340.756903 515.50819 
L 343.08907 515.448133 
L 345.421237 515.117822 
L 350.085571 514.036802 
L 352.417738 513.70649 
L 354.749905 513.616405 
L 359.414239 514.006774 
L 366.41074 514.156915 
L 368.742907 514.307057 
L 373.407241 514.937652 
L 382.735909 516.439068 
L 385.068076 516.76938 
L 387.400243 516.979578 
L 392.064577 517.069663 
L 396.728911 516.949549 
L 399.061078 516.949549 
L 410.721913 517.460031 
L 415.386247 517.490059 
L 420.050581 517.730286 
L 424.714915 518.030569 
L 427.047082 518.000541 
L 431.711416 517.610173 
L 445.704418 516.469096 
L 452.700919 515.14785 
L 457.365253 514.517255 
L 464.361754 514.247 
L 469.026088 513.616405 
L 471.358255 513.015839 
L 473.690422 512.235102 
L 478.354756 510.13312 
L 483.01909 508.301392 
L 485.351257 507.640769 
L 497.012092 503.586945 
L 499.344259 502.656067 
L 501.676426 501.575047 
L 506.34076 500.163716 
L 508.672927 499.893461 
L 511.005094 500.313857 
L 513.337261 501.064565 
L 515.669428 502.085528 
L 518.001595 502.866265 
L 520.333762 503.436803 
L 522.665929 503.797143 
L 524.998096 503.917256 
L 529.66243 503.8572 
L 531.994597 504.127455 
L 536.658931 504.307625 
L 541.323265 504.187511 
L 543.655432 504.097426 
L 548.319766 504.157483 
L 550.651933 503.8572 
L 552.9841 503.31669 
L 557.648434 501.184679 
L 559.980601 499.653234 
L 562.312768 498.271931 
L 564.644935 496.590345 
L 566.977102 494.758617 
L 569.309269 493.107059 
L 573.973603 489.173349 
L 576.30577 487.731989 
L 578.637937 485.93029 
L 580.970104 484.30876 
L 583.302271 482.50706 
L 585.634438 479.624341 
L 587.966605 476.321225 
L 592.630939 468.483833 
L 594.963106 464.910462 
L 601.959607 455.451539 
L 604.291774 451.607914 
L 606.623941 447.494033 
L 608.956108 443.079869 
L 611.288275 439.416414 
L 615.952609 432.720097 
L 618.284776 429.80735 
L 620.616943 426.023781 
L 622.94911 421.039079 
L 625.281277 415.573923 
L 629.945611 401.610752 
L 632.277778 394.313869 
L 634.609945 385.3354 
L 636.942112 375.696308 
L 643.938613 341.494045 
L 646.27078 330.683848 
L 648.602947 321.525209 
L 655.599448 296.421529 
L 657.931615 288.824363 
L 660.263782 283.299151 
L 664.928116 275.732013 
L 667.260283 271.287821 
L 671.924617 256.633998 
L 676.588951 238.406805 
L 678.921118 230.359213 
L 681.253285 228.047032 
L 683.585452 226.365446 
L 685.917619 224.86403 
L 688.249786 222.551849 
L 690.581953 223.60284 
L 692.91412 227.176211 
L 695.246287 236.064595 
L 697.578455 247.595472 
L 699.910622 264.891787 
L 702.242789 280.566573 
L 704.574956 292.247592 
L 706.907123 302.967704 
L 709.23929 315.879884 
L 713.903624 344.767133 
L 716.235791 355.277046 
L 718.567958 360.05155 
L 720.900125 358.610191 
L 723.232292 354.165998 
L 725.564459 351.223223 
L 727.896626 353.565432 
L 730.228793 360.321805 
L 732.56096 366.357498 
L 734.893127 369.030019 
L 737.225294 366.057215 
L 739.557461 360.111607 
L 741.889628 354.586395 
L 744.221795 354.706508 
L 746.553962 359.090644 
L 748.886129 367.438518 
L 751.218296 372.573362 
L 753.550463 375.846449 
L 758.214797 371.88271 
L 760.546964 371.222087 
L 762.879131 373.233985 
L 765.211298 373.86458 
L 767.543465 373.053815 
L 769.875632 365.666847 
L 772.207799 355.787528 
L 774.539966 342.454952 
L 776.872133 331.494613 
L 779.2043 324.798296 
L 781.536467 317.501413 
L 783.868634 308.372802 
L 786.200801 295.971104 
L 788.532968 279.245327 
L 790.865135 264.831731 
L 793.197302 257.985273 
L 795.529469 252.099721 
L 797.861636 244.77281 
L 800.193803 230.569412 
L 802.52597 209.009074 
L 804.858137 184.806244 
L 807.190304 166.158654 
L 809.522471 158.771686 
L 811.854638 166.609079 
L 814.186805 177.839673 
L 816.518972 185.887264 
L 821.183306 199.550152 
L 823.515473 209.759782 
L 825.84764 225.644766 
L 828.179807 242.911053 
L 830.511974 256.033432 
L 832.844141 262.669691 
L 835.176308 261.43853 
L 837.508475 261.378473 
L 839.840642 265.942779 
L 842.172809 277.353542 
L 844.504976 292.127478 
L 846.837143 298.91388 
L 849.16931 297.862889 
L 853.833644 288.313881 
L 856.165811 290.956374 
L 858.497978 303.147874 
L 863.162312 335.037955 
L 865.494479 342.424923 
L 867.826646 345.067416 
L 870.158813 345.157501 
L 872.49098 347.049285 
L 874.823147 352.87478 
L 877.155314 360.05155 
L 879.487481 364.796026 
L 881.819648 364.916139 
L 884.151815 361.522938 
L 886.483982 359.000559 
L 888.816149 359.661182 
L 891.148316 365.006224 
L 893.480483 373.564296 
L 895.81265 381.131434 
L 898.144817 385.815853 
L 900.476984 387.677609 
L 902.809151 389.148997 
L 905.141318 392.542198 
L 907.473485 397.947297 
L 909.805652 403.892905 
L 912.137819 406.985822 
L 914.469986 406.175058 
L 916.802153 403.08214 
L 919.13432 399.478741 
L 921.466487 400.619818 
L 923.798654 408.367125 
L 926.130821 418.486671 
L 928.462988 425.603384 
L 930.795155 426.684404 
L 933.127322 420.708767 
L 935.459489 412.571091 
L 937.791656 406.445313 
L 940.123823 406.895737 
L 942.45599 412.931431 
L 944.788157 417.61585 
L 947.120324 416.474773 
L 949.452491 409.778457 
L 951.784658 399.478741 
L 954.116825 390.71047 
L 956.448992 386.77676 
L 958.781159 386.896873 
L 961.113326 388.308204 
L 963.445493 387.497439 
L 965.77766 383.984125 
L 968.109827 379.720103 
L 970.441994 377.858347 
L 972.774161 379.299707 
L 975.106328 382.482709 
L 977.438495 386.986958 
L 979.770662 388.668544 
L 982.102829 386.41642 
L 984.434996 383.293474 
L 986.767163 381.101406 
L 989.09933 381.341633 
L 991.431497 382.542766 
L 993.763664 381.281576 
L 996.095831 376.777327 
L 998.427998 368.369396 
L 1000.760165 357.499142 
L 1003.092332 348.430588 
L 1005.424499 345.337671 
L 1007.756666 346.058351 
L 1010.088833 347.619823 
L 1012.421 345.788096 
L 1014.753167 338.731439 
L 1017.085334 328.191497 
L 1019.417501 318.792631 
L 1021.749668 315.129176 
L 1024.081835 298.91388 
L 1026.414002 285.611332 
L 1028.746169 268.315017 
L 1033.410503 255.552978 
L 1035.74267 254.021534 
L 1038.074837 265.942779 
L 1040.407004 281.437395 
L 1042.739171 302.847591 
L 1045.071338 305.610196 
L 1047.403505 305.039658 
L 1049.735672 301.946741 
L 1052.067839 303.508214 
L 1054.400006 309.874219 
L 1056.732173 320.834557 
L 1059.06434 327.470817 
L 1061.396507 327.080449 
L 1063.728674 320.444189 
L 1066.060841 308.342774 
L 1068.393008 298.343342 
L 1070.725175 294.499716 
L 1075.389509 304.919545 
L 1077.721676 305.36997 
L 1080.053843 300.145041 
L 1082.38601 292.067422 
L 1084.718177 280.98697 
L 1087.050344 272.038529 
L 1087.050344 272.038529 
" style="fill:none;stroke:#000000;stroke-linecap:square;stroke-width:1.5;"/>
   </g>
   <g id="patch_3">
    <path d="M 87.95 541.28 
L 87.95 37.72 
" style="fill:none;stroke:#555555;stroke-linecap:square;stroke-linejoin:miter;"/>
   </g>
   <g id="patch_4">
    <path d="M 87.95 541.28 
L 1134.626551 541.28 
" style="fill:none;stroke:#555555;stroke-linecap:square;stroke-linejoin:miter;"/>
   </g>
   <g id="text_26">
    <!-- Last updated on 17 April 2021 -->
    <g style="fill:#555555;" transform="translate(474.675307 27.72)scale(0.18 -0.18)">
     <defs>
      <path d="M 628 4666 
L 1259 4666 
L 1259 531 
L 3531 531 
L 3531 0 
L 628 0 
L 628 4666 
z
" id="DejaVuSans-4c" transform="scale(0.015625)"/>
      <path d="M 1172 4494 
L 1172 3500 
L 2356 3500 
L 2356 3053 
L 1172 3053 
L 1172 1153 
Q 1172 725 1289 603 
Q 1406 481 1766 481 
L 2356 481 
L 2356 0 
L 1766 0 
Q 1100 0 847 248 
Q 594 497 594 1153 
L 594 3053 
L 172 3053 
L 172 3500 
L 594 3500 
L 594 4494 
L 1172 4494 
z
" id="DejaVuSans-74" transform="scale(0.015625)"/>
      <path d="M 544 1381 
L 544 3500 
L 1119 3500 
L 1119 1403 
Q 1119 906 1312 657 
Q 1506 409 1894 409 
Q 2359 409 2629 706 
Q 2900 1003 2900 1516 
L 2900 3500 
L 3475 3500 
L 3475 0 
L 2900 0 
L 2900 538 
Q 2691 219 2414 64 
Q 2138 -91 1772 -91 
Q 1169 -91 856 284 
Q 544 659 544 1381 
z
M 1991 3584 
L 1991 3584 
z
" id="DejaVuSans-75" transform="scale(0.015625)"/>
      <path d="M 1159 525 
L 1159 -1331 
L 581 -1331 
L 581 3500 
L 1159 3500 
L 1159 2969 
Q 1341 3281 1617 3432 
Q 1894 3584 2278 3584 
Q 2916 3584 3314 3078 
Q 3713 2572 3713 1747 
Q 3713 922 3314 415 
Q 2916 -91 2278 -91 
Q 1894 -91 1617 61 
Q 1341 213 1159 525 
z
M 3116 1747 
Q 3116 2381 2855 2742 
Q 2594 3103 2138 3103 
Q 1681 3103 1420 2742 
Q 1159 2381 1159 1747 
Q 1159 1113 1420 752 
Q 1681 391 2138 391 
Q 2594 391 2855 752 
Q 3116 1113 3116 1747 
z
" id="DejaVuSans-70" transform="scale(0.015625)"/>
      <path d="M 2906 2969 
L 2906 4863 
L 3481 4863 
L 3481 0 
L 2906 0 
L 2906 525 
Q 2725 213 2448 61 
Q 2172 -91 1784 -91 
Q 1150 -91 751 415 
Q 353 922 353 1747 
Q 353 2572 751 3078 
Q 1150 3584 1784 3584 
Q 2172 3584 2448 3432 
Q 2725 3281 2906 2969 
z
M 947 1747 
Q 947 1113 1208 752 
Q 1469 391 1925 391 
Q 2381 391 2643 752 
Q 2906 1113 2906 1747 
Q 2906 2381 2643 2742 
Q 2381 3103 1925 3103 
Q 1469 3103 1208 2742 
Q 947 2381 947 1747 
z
" id="DejaVuSans-64" transform="scale(0.015625)"/>
      <path d="M 1959 3097 
Q 1497 3097 1228 2736 
Q 959 2375 959 1747 
Q 959 1119 1226 758 
Q 1494 397 1959 397 
Q 2419 397 2687 759 
Q 2956 1122 2956 1747 
Q 2956 2369 2687 2733 
Q 2419 3097 1959 3097 
z
M 1959 3584 
Q 2709 3584 3137 3096 
Q 3566 2609 3566 1747 
Q 3566 888 3137 398 
Q 2709 -91 1959 -91 
Q 1206 -91 779 398 
Q 353 888 353 1747 
Q 353 2609 779 3096 
Q 1206 3584 1959 3584 
z
" id="DejaVuSans-6f" transform="scale(0.015625)"/>
      <path d="M 3513 2113 
L 3513 0 
L 2938 0 
L 2938 2094 
Q 2938 2591 2744 2837 
Q 2550 3084 2163 3084 
Q 1697 3084 1428 2787 
Q 1159 2491 1159 1978 
L 1159 0 
L 581 0 
L 581 3500 
L 1159 3500 
L 1159 2956 
Q 1366 3272 1645 3428 
Q 1925 3584 2291 3584 
Q 2894 3584 3203 3211 
Q 3513 2838 3513 2113 
z
" id="DejaVuSans-6e" transform="scale(0.015625)"/>
      <path d="M 794 531 
L 1825 531 
L 1825 4091 
L 703 3866 
L 703 4441 
L 1819 4666 
L 2450 4666 
L 2450 531 
L 3481 531 
L 3481 0 
L 794 0 
L 794 531 
z
" id="DejaVuSans-31" transform="scale(0.015625)"/>
      <path d="M 525 4666 
L 3525 4666 
L 3525 4397 
L 1831 0 
L 1172 0 
L 2766 4134 
L 525 4134 
L 525 4666 
z
" id="DejaVuSans-37" transform="scale(0.015625)"/>
      <path d="M 2188 4044 
L 1331 1722 
L 3047 1722 
L 2188 4044 
z
M 1831 4666 
L 2547 4666 
L 4325 0 
L 3669 0 
L 3244 1197 
L 1141 1197 
L 716 0 
L 50 0 
L 1831 4666 
z
" id="DejaVuSans-41" transform="scale(0.015625)"/>
      <path d="M 2631 2963 
Q 2534 3019 2420 3045 
Q 2306 3072 2169 3072 
Q 1681 3072 1420 2755 
Q 1159 2438 1159 1844 
L 1159 0 
L 581 0 
L 581 3500 
L 1159 3500 
L 1159 2956 
Q 1341 3275 1631 3429 
Q 1922 3584 2338 3584 
Q 2397 3584 2469 3576 
Q 2541 3569 2628 3553 
L 2631 2963 
z
" id="DejaVuSans-72" transform="scale(0.015625)"/>
      <path d="M 603 3500 
L 1178 3500 
L 1178 0 
L 603 0 
L 603 3500 
z
M 603 4863 
L 1178 4863 
L 1178 4134 
L 603 4134 
L 603 4863 
z
" id="DejaVuSans-69" transform="scale(0.015625)"/>
      <path d="M 603 4863 
L 1178 4863 
L 1178 0 
L 603 0 
L 603 4863 
z
" id="DejaVuSans-6c" transform="scale(0.015625)"/>
      <path d="M 1228 531 
L 3431 531 
L 3431 0 
L 469 0 
L 469 531 
Q 828 903 1448 1529 
Q 2069 2156 2228 2338 
Q 2531 2678 2651 2914 
Q 2772 3150 2772 3378 
Q 2772 3750 2511 3984 
Q 2250 4219 1831 4219 
Q 1534 4219 1204 4116 
Q 875 4013 500 3803 
L 500 4441 
Q 881 4594 1212 4672 
Q 1544 4750 1819 4750 
Q 2544 4750 2975 4387 
Q 3406 4025 3406 3419 
Q 3406 3131 3298 2873 
Q 3191 2616 2906 2266 
Q 2828 2175 2409 1742 
Q 1991 1309 1228 531 
z
" id="DejaVuSans-32" transform="scale(0.015625)"/>
      <path d="M 2034 4250 
Q 1547 4250 1301 3770 
Q 1056 3291 1056 2328 
Q 1056 1369 1301 889 
Q 1547 409 2034 409 
Q 2525 409 2770 889 
Q 3016 1369 3016 2328 
Q 3016 3291 2770 3770 
Q 2525 4250 2034 4250 
z
M 2034 4750 
Q 2819 4750 3233 4129 
Q 3647 3509 3647 2328 
Q 3647 1150 3233 529 
Q 2819 -91 2034 -91 
Q 1250 -91 836 529 
Q 422 1150 422 2328 
Q 422 3509 836 4129 
Q 1250 4750 2034 4750 
z
" id="DejaVuSans-30" transform="scale(0.015625)"/>
     </defs>
     <use xlink:href="#DejaVuSans-4c"/>
     <use x="55.712891" xlink:href="#DejaVuSans-61"/>
     <use x="116.992188" xlink:href="#DejaVuSans-73"/>
     <use x="169.091797" xlink:href="#DejaVuSans-74"/>
     <use x="208.300781" xlink:href="#DejaVuSans-20"/>
     <use x="240.087891" xlink:href="#DejaVuSans-75"/>
     <use x="303.466797" xlink:href="#DejaVuSans-70"/>
     <use x="366.943359" xlink:href="#DejaVuSans-64"/>
     <use x="430.419922" xlink:href="#DejaVuSans-61"/>
     <use x="491.699219" xlink:href="#DejaVuSans-74"/>
     <use x="530.908203" xlink:href="#DejaVuSans-65"/>
     <use x="592.431641" xlink:href="#DejaVuSans-64"/>
     <use x="655.908203" xlink:href="#DejaVuSans-20"/>
     <use x="687.695312" xlink:href="#DejaVuSans-6f"/>
     <use x="748.876953" xlink:href="#DejaVuSans-6e"/>
     <use x="812.255859" xlink:href="#DejaVuSans-20"/>
     <use x="844.042969" xlink:href="#DejaVuSans-31"/>
     <use x="907.666016" xlink:href="#DejaVuSans-37"/>
     <use x="971.289062" xlink:href="#DejaVuSans-20"/>
     <use x="1003.076172" xlink:href="#DejaVuSans-41"/>
     <use x="1071.484375" xlink:href="#DejaVuSans-70"/>
     <use x="1134.960938" xlink:href="#DejaVuSans-72"/>
     <use x="1176.074219" xlink:href="#DejaVuSans-69"/>
     <use x="1203.857422" xlink:href="#DejaVuSans-6c"/>
     <use x="1231.640625" xlink:href="#DejaVuSans-20"/>
     <use x="1263.427734" xlink:href="#DejaVuSans-32"/>
     <use x="1327.050781" xlink:href="#DejaVuSans-30"/>
     <use x="1390.673828" xlink:href="#DejaVuSans-32"/>
     <use x="1454.296875" xlink:href="#DejaVuSans-31"/>
    </g>
   </g>
   <g id="legend_1">
    <g id="line2d_27">
     <path d="M 99.65 54.747969 
L 125.65 54.747969 
" style="fill:none;stroke:#000000;stroke-dasharray:1.5,2.475;stroke-dashoffset:0;stroke-opacity:0.5;stroke-width:1.5;"/>
    </g>
    <g id="line2d_28"/>
    <g id="text_27">
     <!-- Actual -->
     <g style="fill:#555555;" transform="translate(136.05 59.297969)scale(0.13 -0.13)">
      <use xlink:href="#DejaVuSans-Bold-41"/>
      <use x="77.392578" xlink:href="#DejaVuSans-Bold-63"/>
      <use x="136.669922" xlink:href="#DejaVuSans-Bold-74"/>
      <use x="184.472656" xlink:href="#DejaVuSans-Bold-75"/>
      <use x="255.664062" xlink:href="#DejaVuSans-Bold-61"/>
      <use x="323.144531" xlink:href="#DejaVuSans-Bold-6c"/>
     </g>
    </g>
    <g id="line2d_29">
     <path d="M 99.65 73.829531 
L 125.65 73.829531 
" style="fill:none;stroke:#000000;stroke-linecap:square;stroke-width:1.5;"/>
    </g>
    <g id="line2d_30"/>
    <g id="text_28">
     <!-- Smoothed -->
     <g style="fill:#555555;" transform="translate(136.05 78.379531)scale(0.13 -0.13)">
      <defs>
       <path d="M 3781 2919 
Q 3994 3244 4286 3414 
Q 4578 3584 4928 3584 
Q 5531 3584 5847 3212 
Q 6163 2841 6163 2131 
L 6163 0 
L 5038 0 
L 5038 1825 
Q 5041 1866 5042 1909 
Q 5044 1953 5044 2034 
Q 5044 2406 4934 2573 
Q 4825 2741 4581 2741 
Q 4263 2741 4089 2478 
Q 3916 2216 3909 1719 
L 3909 0 
L 2784 0 
L 2784 1825 
Q 2784 2406 2684 2573 
Q 2584 2741 2328 2741 
Q 2006 2741 1831 2477 
Q 1656 2213 1656 1722 
L 1656 0 
L 531 0 
L 531 3500 
L 1656 3500 
L 1656 2988 
Q 1863 3284 2130 3434 
Q 2397 3584 2719 3584 
Q 3081 3584 3359 3409 
Q 3638 3234 3781 2919 
z
" id="DejaVuSans-Bold-6d" transform="scale(0.015625)"/>
       <path d="M 4056 2131 
L 4056 0 
L 2931 0 
L 2931 347 
L 2931 1625 
Q 2931 2084 2911 2256 
Q 2891 2428 2841 2509 
Q 2775 2619 2662 2680 
Q 2550 2741 2406 2741 
Q 2056 2741 1856 2470 
Q 1656 2200 1656 1722 
L 1656 0 
L 538 0 
L 538 4863 
L 1656 4863 
L 1656 2988 
Q 1909 3294 2193 3439 
Q 2478 3584 2822 3584 
Q 3428 3584 3742 3212 
Q 4056 2841 4056 2131 
z
" id="DejaVuSans-Bold-68" transform="scale(0.015625)"/>
       <path d="M 2919 2988 
L 2919 4863 
L 4044 4863 
L 4044 0 
L 2919 0 
L 2919 506 
Q 2688 197 2409 53 
Q 2131 -91 1766 -91 
Q 1119 -91 703 423 
Q 288 938 288 1747 
Q 288 2556 703 3070 
Q 1119 3584 1766 3584 
Q 2128 3584 2408 3439 
Q 2688 3294 2919 2988 
z
M 2181 722 
Q 2541 722 2730 984 
Q 2919 1247 2919 1747 
Q 2919 2247 2730 2509 
Q 2541 2772 2181 2772 
Q 1825 2772 1636 2509 
Q 1447 2247 1447 1747 
Q 1447 1247 1636 984 
Q 1825 722 2181 722 
z
" id="DejaVuSans-Bold-64" transform="scale(0.015625)"/>
      </defs>
      <use xlink:href="#DejaVuSans-Bold-53"/>
      <use x="72.021484" xlink:href="#DejaVuSans-Bold-6d"/>
      <use x="176.220703" xlink:href="#DejaVuSans-Bold-6f"/>
      <use x="244.921875" xlink:href="#DejaVuSans-Bold-6f"/>
      <use x="313.623047" xlink:href="#DejaVuSans-Bold-74"/>
      <use x="361.425781" xlink:href="#DejaVuSans-Bold-68"/>
      <use x="432.617188" xlink:href="#DejaVuSans-Bold-65"/>
      <use x="500.439453" xlink:href="#DejaVuSans-Bold-64"/>
     </g>
    </g>
   </g>
  </g>
 </g>
 <defs>
  <clipPath id="p8dc08bf67f">
   <rect height="503.56" width="1046.676551" x="87.95" y="37.72"/>
  </clipPath>
 </defs>
</svg>
