<?xml version="1.0" encoding="utf-8" standalone="no"?>
<!DOCTYPE svg PUBLIC "-//W3C//DTD SVG 1.1//EN"
  "http://www.w3.org/Graphics/SVG/1.1/DTD/svg11.dtd">
<svg xmlns:xlink="http://www.w3.org/1999/xlink" width="1152pt" height="576pt" viewBox="0 0 1152 576" xmlns="http://www.w3.org/2000/svg" version="1.1">
 <metadata>
  <rdf:RDF xmlns:dc="http://purl.org/dc/elements/1.1/" xmlns:cc="http://creativecommons.org/ns#" xmlns:rdf="http://www.w3.org/1999/02/22-rdf-syntax-ns#">
   <cc:Work>
    <dc:type rdf:resource="http://purl.org/dc/dcmitype/StillImage"/>
    <dc:date>2021-12-03T14:14:44.331410</dc:date>
    <dc:format>image/svg+xml</dc:format>
    <dc:creator>
     <cc:Agent>
      <dc:title>Matplotlib v3.5.0, https://matplotlib.org/</dc:title>
     </cc:Agent>
    </dc:creator>
   </cc:Work>
  </rdf:RDF>
 </metadata>
 <defs>
  <style type="text/css">*{stroke-linejoin: round; stroke-linecap: butt}</style>
 </defs>
 <g id="figure_1">
  <g id="patch_1">
   <path d="M 0 576 
L 1152 576 
L 1152 0 
L 0 0 
z
" style="fill: #ffffff"/>
  </g>
  <g id="axes_1">
   <g id="patch_2">
    <path d="M 87.95 541.28 
L 1127.972084 541.28 
L 1127.972084 37.72 
L 87.95 37.72 
z
" style="fill: #ffffff"/>
   </g>
   <g id="matplotlib.axis_1">
    <g id="xtick_1">
     <g id="line2d_1">
      <defs>
       <path id="m30a3bdf163" d="M 0 0 
L 0 3.5 
" style="stroke: #555555; stroke-width: 0.8"/>
      </defs>
      <g>
       <use xlink:href="#m30a3bdf163" x="127.790755" y="541.28" style="fill: #555555; stroke: #555555; stroke-width: 0.8"/>
      </g>
     </g>
     <g id="text_1">
      <!-- Mar -->
      <g style="fill: #555555" transform="translate(112.64888 558.917812)scale(0.14 -0.14)">
       <defs>
        <path id="DejaVuSans-Bold-4d" d="M 588 4666 
L 2119 4666 
L 3181 2169 
L 4250 4666 
L 5778 4666 
L 5778 0 
L 4641 0 
L 4641 3413 
L 3566 897 
L 2803 897 
L 1728 3413 
L 1728 0 
L 588 0 
L 588 4666 
z
" transform="scale(0.015625)"/>
        <path id="DejaVuSans-Bold-61" d="M 2106 1575 
Q 1756 1575 1579 1456 
Q 1403 1338 1403 1106 
Q 1403 894 1545 773 
Q 1688 653 1941 653 
Q 2256 653 2472 879 
Q 2688 1106 2688 1447 
L 2688 1575 
L 2106 1575 
z
M 3816 1997 
L 3816 0 
L 2688 0 
L 2688 519 
Q 2463 200 2181 54 
Q 1900 -91 1497 -91 
Q 953 -91 614 226 
Q 275 544 275 1050 
Q 275 1666 698 1953 
Q 1122 2241 2028 2241 
L 2688 2241 
L 2688 2328 
Q 2688 2594 2478 2717 
Q 2269 2841 1825 2841 
Q 1466 2841 1156 2769 
Q 847 2697 581 2553 
L 581 3406 
Q 941 3494 1303 3539 
Q 1666 3584 2028 3584 
Q 2975 3584 3395 3211 
Q 3816 2838 3816 1997 
z
" transform="scale(0.015625)"/>
        <path id="DejaVuSans-Bold-72" d="M 3138 2547 
Q 2991 2616 2845 2648 
Q 2700 2681 2553 2681 
Q 2122 2681 1889 2404 
Q 1656 2128 1656 1613 
L 1656 0 
L 538 0 
L 538 3500 
L 1656 3500 
L 1656 2925 
Q 1872 3269 2151 3426 
Q 2431 3584 2822 3584 
Q 2878 3584 2943 3579 
Q 3009 3575 3134 3559 
L 3138 2547 
z
" transform="scale(0.015625)"/>
       </defs>
       <use xlink:href="#DejaVuSans-Bold-4d"/>
       <use xlink:href="#DejaVuSans-Bold-61" x="99.511719"/>
       <use xlink:href="#DejaVuSans-Bold-72" x="166.992188"/>
      </g>
     </g>
    </g>
    <g id="xtick_2">
     <g id="line2d_2">
      <g>
       <use xlink:href="#m30a3bdf163" x="173.875209" y="541.28" style="fill: #555555; stroke: #555555; stroke-width: 0.8"/>
      </g>
     </g>
     <g id="text_2">
      <!-- Apr -->
      <g style="fill: #555555" transform="translate(159.995522 558.917812)scale(0.14 -0.14)">
       <defs>
        <path id="DejaVuSans-Bold-41" d="M 3419 850 
L 1538 850 
L 1241 0 
L 31 0 
L 1759 4666 
L 3194 4666 
L 4922 0 
L 3713 0 
L 3419 850 
z
M 1838 1716 
L 3116 1716 
L 2478 3572 
L 1838 1716 
z
" transform="scale(0.015625)"/>
        <path id="DejaVuSans-Bold-70" d="M 1656 506 
L 1656 -1331 
L 538 -1331 
L 538 3500 
L 1656 3500 
L 1656 2988 
Q 1888 3294 2169 3439 
Q 2450 3584 2816 3584 
Q 3463 3584 3878 3070 
Q 4294 2556 4294 1747 
Q 4294 938 3878 423 
Q 3463 -91 2816 -91 
Q 2450 -91 2169 54 
Q 1888 200 1656 506 
z
M 2400 2772 
Q 2041 2772 1848 2508 
Q 1656 2244 1656 1747 
Q 1656 1250 1848 986 
Q 2041 722 2400 722 
Q 2759 722 2948 984 
Q 3138 1247 3138 1747 
Q 3138 2247 2948 2509 
Q 2759 2772 2400 2772 
z
" transform="scale(0.015625)"/>
       </defs>
       <use xlink:href="#DejaVuSans-Bold-41"/>
       <use xlink:href="#DejaVuSans-Bold-70" x="77.392578"/>
       <use xlink:href="#DejaVuSans-Bold-72" x="148.974609"/>
      </g>
     </g>
    </g>
    <g id="xtick_3">
     <g id="line2d_3">
      <g>
       <use xlink:href="#m30a3bdf163" x="218.473069" y="541.28" style="fill: #555555; stroke: #555555; stroke-width: 0.8"/>
      </g>
     </g>
     <g id="text_3">
      <!-- May -->
      <g style="fill: #555555" transform="translate(202.438694 558.808437)scale(0.14 -0.14)">
       <defs>
        <path id="DejaVuSans-Bold-79" d="M 78 3500 
L 1197 3500 
L 2138 1125 
L 2938 3500 
L 4056 3500 
L 2584 -331 
Q 2363 -916 2067 -1148 
Q 1772 -1381 1288 -1381 
L 641 -1381 
L 641 -647 
L 991 -647 
Q 1275 -647 1404 -556 
Q 1534 -466 1606 -231 
L 1638 -134 
L 78 3500 
z
" transform="scale(0.015625)"/>
       </defs>
       <use xlink:href="#DejaVuSans-Bold-4d"/>
       <use xlink:href="#DejaVuSans-Bold-61" x="99.511719"/>
       <use xlink:href="#DejaVuSans-Bold-79" x="163.867188"/>
      </g>
     </g>
    </g>
    <g id="xtick_4">
     <g id="line2d_4">
      <g>
       <use xlink:href="#m30a3bdf163" x="264.557524" y="541.28" style="fill: #555555; stroke: #555555; stroke-width: 0.8"/>
      </g>
     </g>
     <g id="text_4">
      <!-- Jun -->
      <g style="fill: #555555" transform="translate(251.987055 558.917812)scale(0.14 -0.14)">
       <defs>
        <path id="DejaVuSans-Bold-4a" d="M 588 4666 
L 1791 4666 
L 1791 453 
Q 1791 -419 1317 -850 
Q 844 -1281 -116 -1281 
L -359 -1281 
L -359 -372 
L -172 -372 
Q 203 -372 395 -162 
Q 588 47 588 453 
L 588 4666 
z
" transform="scale(0.015625)"/>
        <path id="DejaVuSans-Bold-75" d="M 500 1363 
L 500 3500 
L 1625 3500 
L 1625 3150 
Q 1625 2866 1622 2436 
Q 1619 2006 1619 1863 
Q 1619 1441 1641 1255 
Q 1663 1069 1716 984 
Q 1784 875 1895 815 
Q 2006 756 2150 756 
Q 2500 756 2700 1025 
Q 2900 1294 2900 1772 
L 2900 3500 
L 4019 3500 
L 4019 0 
L 2900 0 
L 2900 506 
Q 2647 200 2364 54 
Q 2081 -91 1741 -91 
Q 1134 -91 817 281 
Q 500 653 500 1363 
z
" transform="scale(0.015625)"/>
        <path id="DejaVuSans-Bold-6e" d="M 4056 2131 
L 4056 0 
L 2931 0 
L 2931 347 
L 2931 1631 
Q 2931 2084 2911 2256 
Q 2891 2428 2841 2509 
Q 2775 2619 2662 2680 
Q 2550 2741 2406 2741 
Q 2056 2741 1856 2470 
Q 1656 2200 1656 1722 
L 1656 0 
L 538 0 
L 538 3500 
L 1656 3500 
L 1656 2988 
Q 1909 3294 2193 3439 
Q 2478 3584 2822 3584 
Q 3428 3584 3742 3212 
Q 4056 2841 4056 2131 
z
" transform="scale(0.015625)"/>
       </defs>
       <use xlink:href="#DejaVuSans-Bold-4a"/>
       <use xlink:href="#DejaVuSans-Bold-75" x="37.207031"/>
       <use xlink:href="#DejaVuSans-Bold-6e" x="108.398438"/>
      </g>
     </g>
    </g>
    <g id="xtick_5">
     <g id="line2d_5">
      <g>
       <use xlink:href="#m30a3bdf163" x="309.155383" y="541.28" style="fill: #555555; stroke: #555555; stroke-width: 0.8"/>
      </g>
     </g>
     <g id="text_5">
      <!-- Jul -->
      <g style="fill: #555555" transform="translate(299.168352 558.917812)scale(0.14 -0.14)">
       <defs>
        <path id="DejaVuSans-Bold-6c" d="M 538 4863 
L 1656 4863 
L 1656 0 
L 538 0 
L 538 4863 
z
" transform="scale(0.015625)"/>
       </defs>
       <use xlink:href="#DejaVuSans-Bold-4a"/>
       <use xlink:href="#DejaVuSans-Bold-75" x="37.207031"/>
       <use xlink:href="#DejaVuSans-Bold-6c" x="108.398438"/>
      </g>
     </g>
    </g>
    <g id="xtick_6">
     <g id="line2d_6">
      <g>
       <use xlink:href="#m30a3bdf163" x="355.239838" y="541.28" style="fill: #555555; stroke: #555555; stroke-width: 0.8"/>
      </g>
     </g>
     <g id="text_6">
      <!-- Aug -->
      <g style="fill: #555555" transform="translate(339.828901 558.808437)scale(0.14 -0.14)">
       <defs>
        <path id="DejaVuSans-Bold-67" d="M 2919 594 
Q 2688 288 2409 144 
Q 2131 0 1766 0 
Q 1125 0 706 504 
Q 288 1009 288 1791 
Q 288 2575 706 3076 
Q 1125 3578 1766 3578 
Q 2131 3578 2409 3434 
Q 2688 3291 2919 2981 
L 2919 3500 
L 4044 3500 
L 4044 353 
Q 4044 -491 3511 -936 
Q 2978 -1381 1966 -1381 
Q 1638 -1381 1331 -1331 
Q 1025 -1281 716 -1178 
L 716 -306 
Q 1009 -475 1290 -558 
Q 1572 -641 1856 -641 
Q 2406 -641 2662 -400 
Q 2919 -159 2919 353 
L 2919 594 
z
M 2181 2772 
Q 1834 2772 1640 2515 
Q 1447 2259 1447 1791 
Q 1447 1309 1634 1061 
Q 1822 813 2181 813 
Q 2531 813 2725 1069 
Q 2919 1325 2919 1791 
Q 2919 2259 2725 2515 
Q 2531 2772 2181 2772 
z
" transform="scale(0.015625)"/>
       </defs>
       <use xlink:href="#DejaVuSans-Bold-41"/>
       <use xlink:href="#DejaVuSans-Bold-75" x="77.392578"/>
       <use xlink:href="#DejaVuSans-Bold-67" x="148.583984"/>
      </g>
     </g>
    </g>
    <g id="xtick_7">
     <g id="line2d_7">
      <g>
       <use xlink:href="#m30a3bdf163" x="401.324293" y="541.28" style="fill: #555555; stroke: #555555; stroke-width: 0.8"/>
      </g>
     </g>
     <g id="text_7">
      <!-- Sep -->
      <g style="fill: #555555" transform="translate(386.524762 558.917812)scale(0.14 -0.14)">
       <defs>
        <path id="DejaVuSans-Bold-53" d="M 3834 4519 
L 3834 3531 
Q 3450 3703 3084 3790 
Q 2719 3878 2394 3878 
Q 1963 3878 1756 3759 
Q 1550 3641 1550 3391 
Q 1550 3203 1689 3098 
Q 1828 2994 2194 2919 
L 2706 2816 
Q 3484 2659 3812 2340 
Q 4141 2022 4141 1434 
Q 4141 663 3683 286 
Q 3225 -91 2284 -91 
Q 1841 -91 1394 -6 
Q 947 78 500 244 
L 500 1259 
Q 947 1022 1364 901 
Q 1781 781 2169 781 
Q 2563 781 2772 912 
Q 2981 1044 2981 1288 
Q 2981 1506 2839 1625 
Q 2697 1744 2272 1838 
L 1806 1941 
Q 1106 2091 782 2419 
Q 459 2747 459 3303 
Q 459 4000 909 4375 
Q 1359 4750 2203 4750 
Q 2588 4750 2994 4692 
Q 3400 4634 3834 4519 
z
" transform="scale(0.015625)"/>
        <path id="DejaVuSans-Bold-65" d="M 4031 1759 
L 4031 1441 
L 1416 1441 
Q 1456 1047 1700 850 
Q 1944 653 2381 653 
Q 2734 653 3104 758 
Q 3475 863 3866 1075 
L 3866 213 
Q 3469 63 3072 -14 
Q 2675 -91 2278 -91 
Q 1328 -91 801 392 
Q 275 875 275 1747 
Q 275 2603 792 3093 
Q 1309 3584 2216 3584 
Q 3041 3584 3536 3087 
Q 4031 2591 4031 1759 
z
M 2881 2131 
Q 2881 2450 2695 2645 
Q 2509 2841 2209 2841 
Q 1884 2841 1681 2658 
Q 1478 2475 1428 2131 
L 2881 2131 
z
" transform="scale(0.015625)"/>
       </defs>
       <use xlink:href="#DejaVuSans-Bold-53"/>
       <use xlink:href="#DejaVuSans-Bold-65" x="72.021484"/>
       <use xlink:href="#DejaVuSans-Bold-70" x="139.84375"/>
      </g>
     </g>
    </g>
    <g id="xtick_8">
     <g id="line2d_8">
      <g>
       <use xlink:href="#m30a3bdf163" x="445.922152" y="541.28" style="fill: #555555; stroke: #555555; stroke-width: 0.8"/>
      </g>
     </g>
     <g id="text_8">
      <!-- Oct -->
      <g style="fill: #555555" transform="translate(432.47559 558.917812)scale(0.14 -0.14)">
       <defs>
        <path id="DejaVuSans-Bold-4f" d="M 2719 3878 
Q 2169 3878 1866 3472 
Q 1563 3066 1563 2328 
Q 1563 1594 1866 1187 
Q 2169 781 2719 781 
Q 3272 781 3575 1187 
Q 3878 1594 3878 2328 
Q 3878 3066 3575 3472 
Q 3272 3878 2719 3878 
z
M 2719 4750 
Q 3844 4750 4481 4106 
Q 5119 3463 5119 2328 
Q 5119 1197 4481 553 
Q 3844 -91 2719 -91 
Q 1597 -91 958 553 
Q 319 1197 319 2328 
Q 319 3463 958 4106 
Q 1597 4750 2719 4750 
z
" transform="scale(0.015625)"/>
        <path id="DejaVuSans-Bold-63" d="M 3366 3391 
L 3366 2478 
Q 3138 2634 2908 2709 
Q 2678 2784 2431 2784 
Q 1963 2784 1702 2511 
Q 1441 2238 1441 1747 
Q 1441 1256 1702 982 
Q 1963 709 2431 709 
Q 2694 709 2930 787 
Q 3166 866 3366 1019 
L 3366 103 
Q 3103 6 2833 -42 
Q 2563 -91 2291 -91 
Q 1344 -91 809 395 
Q 275 881 275 1747 
Q 275 2613 809 3098 
Q 1344 3584 2291 3584 
Q 2566 3584 2833 3536 
Q 3100 3488 3366 3391 
z
" transform="scale(0.015625)"/>
        <path id="DejaVuSans-Bold-74" d="M 1759 4494 
L 1759 3500 
L 2913 3500 
L 2913 2700 
L 1759 2700 
L 1759 1216 
Q 1759 972 1856 886 
Q 1953 800 2241 800 
L 2816 800 
L 2816 0 
L 1856 0 
Q 1194 0 917 276 
Q 641 553 641 1216 
L 641 2700 
L 84 2700 
L 84 3500 
L 641 3500 
L 641 4494 
L 1759 4494 
z
" transform="scale(0.015625)"/>
       </defs>
       <use xlink:href="#DejaVuSans-Bold-4f"/>
       <use xlink:href="#DejaVuSans-Bold-63" x="85.009766"/>
       <use xlink:href="#DejaVuSans-Bold-74" x="144.287109"/>
      </g>
     </g>
    </g>
    <g id="xtick_9">
     <g id="line2d_9">
      <g>
       <use xlink:href="#m30a3bdf163" x="492.006607" y="541.28" style="fill: #555555; stroke: #555555; stroke-width: 0.8"/>
      </g>
     </g>
     <g id="text_9">
      <!-- Nov -->
      <g style="fill: #555555" transform="translate(476.776139 558.917812)scale(0.14 -0.14)">
       <defs>
        <path id="DejaVuSans-Bold-4e" d="M 588 4666 
L 1931 4666 
L 3628 1466 
L 3628 4666 
L 4769 4666 
L 4769 0 
L 3425 0 
L 1728 3200 
L 1728 0 
L 588 0 
L 588 4666 
z
" transform="scale(0.015625)"/>
        <path id="DejaVuSans-Bold-6f" d="M 2203 2784 
Q 1831 2784 1636 2517 
Q 1441 2250 1441 1747 
Q 1441 1244 1636 976 
Q 1831 709 2203 709 
Q 2569 709 2762 976 
Q 2956 1244 2956 1747 
Q 2956 2250 2762 2517 
Q 2569 2784 2203 2784 
z
M 2203 3584 
Q 3106 3584 3614 3096 
Q 4122 2609 4122 1747 
Q 4122 884 3614 396 
Q 3106 -91 2203 -91 
Q 1297 -91 786 396 
Q 275 884 275 1747 
Q 275 2609 786 3096 
Q 1297 3584 2203 3584 
z
" transform="scale(0.015625)"/>
        <path id="DejaVuSans-Bold-76" d="M 97 3500 
L 1216 3500 
L 2088 1081 
L 2956 3500 
L 4078 3500 
L 2700 0 
L 1472 0 
L 97 3500 
z
" transform="scale(0.015625)"/>
       </defs>
       <use xlink:href="#DejaVuSans-Bold-4e"/>
       <use xlink:href="#DejaVuSans-Bold-6f" x="83.691406"/>
       <use xlink:href="#DejaVuSans-Bold-76" x="152.392578"/>
      </g>
     </g>
    </g>
    <g id="xtick_10">
     <g id="line2d_10">
      <g>
       <use xlink:href="#m30a3bdf163" x="536.604467" y="541.28" style="fill: #555555; stroke: #555555; stroke-width: 0.8"/>
      </g>
     </g>
     <g id="text_10">
      <!-- Dec -->
      <g style="fill: #555555" transform="translate(521.895717 558.917812)scale(0.14 -0.14)">
       <defs>
        <path id="DejaVuSans-Bold-44" d="M 1791 3756 
L 1791 909 
L 2222 909 
Q 2959 909 3348 1275 
Q 3738 1641 3738 2338 
Q 3738 3031 3350 3393 
Q 2963 3756 2222 3756 
L 1791 3756 
z
M 588 4666 
L 1856 4666 
Q 2919 4666 3439 4514 
Q 3959 4363 4331 4000 
Q 4659 3684 4818 3271 
Q 4978 2859 4978 2338 
Q 4978 1809 4818 1395 
Q 4659 981 4331 666 
Q 3956 303 3431 151 
Q 2906 0 1856 0 
L 588 0 
L 588 4666 
z
" transform="scale(0.015625)"/>
       </defs>
       <use xlink:href="#DejaVuSans-Bold-44"/>
       <use xlink:href="#DejaVuSans-Bold-65" x="83.007812"/>
       <use xlink:href="#DejaVuSans-Bold-63" x="150.830078"/>
      </g>
     </g>
    </g>
    <g id="xtick_11">
     <g id="line2d_11">
      <g>
       <use xlink:href="#m30a3bdf163" x="582.688922" y="541.28" style="fill: #555555; stroke: #555555; stroke-width: 0.8"/>
      </g>
     </g>
     <g id="text_11">
      <!-- Jan -->
      <g style="fill: #555555" transform="translate(570.377672 558.917812)scale(0.14 -0.14)">
       <use xlink:href="#DejaVuSans-Bold-4a"/>
       <use xlink:href="#DejaVuSans-Bold-61" x="37.207031"/>
       <use xlink:href="#DejaVuSans-Bold-6e" x="104.6875"/>
      </g>
     </g>
    </g>
    <g id="xtick_12">
     <g id="line2d_12">
      <g>
       <use xlink:href="#m30a3bdf163" x="628.773376" y="541.28" style="fill: #555555; stroke: #555555; stroke-width: 0.8"/>
      </g>
     </g>
     <g id="text_12">
      <!-- Feb -->
      <g style="fill: #555555" transform="translate(614.513064 558.917812)scale(0.14 -0.14)">
       <defs>
        <path id="DejaVuSans-Bold-46" d="M 588 4666 
L 3834 4666 
L 3834 3756 
L 1791 3756 
L 1791 2888 
L 3713 2888 
L 3713 1978 
L 1791 1978 
L 1791 0 
L 588 0 
L 588 4666 
z
" transform="scale(0.015625)"/>
        <path id="DejaVuSans-Bold-62" d="M 2400 722 
Q 2759 722 2948 984 
Q 3138 1247 3138 1747 
Q 3138 2247 2948 2509 
Q 2759 2772 2400 2772 
Q 2041 2772 1848 2508 
Q 1656 2244 1656 1747 
Q 1656 1250 1848 986 
Q 2041 722 2400 722 
z
M 1656 2988 
Q 1888 3294 2169 3439 
Q 2450 3584 2816 3584 
Q 3463 3584 3878 3070 
Q 4294 2556 4294 1747 
Q 4294 938 3878 423 
Q 3463 -91 2816 -91 
Q 2450 -91 2169 54 
Q 1888 200 1656 506 
L 1656 0 
L 538 0 
L 538 4863 
L 1656 4863 
L 1656 2988 
z
" transform="scale(0.015625)"/>
       </defs>
       <use xlink:href="#DejaVuSans-Bold-46"/>
       <use xlink:href="#DejaVuSans-Bold-65" x="64.310547"/>
       <use xlink:href="#DejaVuSans-Bold-62" x="132.132812"/>
      </g>
     </g>
    </g>
    <g id="xtick_13">
     <g id="line2d_13">
      <g>
       <use xlink:href="#m30a3bdf163" x="670.398045" y="541.28" style="fill: #555555; stroke: #555555; stroke-width: 0.8"/>
      </g>
     </g>
     <g id="text_13">
      <!-- Mar -->
      <g style="fill: #555555" transform="translate(655.25617 558.917812)scale(0.14 -0.14)">
       <use xlink:href="#DejaVuSans-Bold-4d"/>
       <use xlink:href="#DejaVuSans-Bold-61" x="99.511719"/>
       <use xlink:href="#DejaVuSans-Bold-72" x="166.992188"/>
      </g>
     </g>
    </g>
    <g id="xtick_14">
     <g id="line2d_14">
      <g>
       <use xlink:href="#m30a3bdf163" x="716.4825" y="541.28" style="fill: #555555; stroke: #555555; stroke-width: 0.8"/>
      </g>
     </g>
     <g id="text_14">
      <!-- Apr -->
      <g style="fill: #555555" transform="translate(702.602813 558.917812)scale(0.14 -0.14)">
       <use xlink:href="#DejaVuSans-Bold-41"/>
       <use xlink:href="#DejaVuSans-Bold-70" x="77.392578"/>
       <use xlink:href="#DejaVuSans-Bold-72" x="148.974609"/>
      </g>
     </g>
    </g>
    <g id="xtick_15">
     <g id="line2d_15">
      <g>
       <use xlink:href="#m30a3bdf163" x="761.08036" y="541.28" style="fill: #555555; stroke: #555555; stroke-width: 0.8"/>
      </g>
     </g>
     <g id="text_15">
      <!-- May -->
      <g style="fill: #555555" transform="translate(745.045985 558.808437)scale(0.14 -0.14)">
       <use xlink:href="#DejaVuSans-Bold-4d"/>
       <use xlink:href="#DejaVuSans-Bold-61" x="99.511719"/>
       <use xlink:href="#DejaVuSans-Bold-79" x="163.867188"/>
      </g>
     </g>
    </g>
    <g id="xtick_16">
     <g id="line2d_16">
      <g>
       <use xlink:href="#m30a3bdf163" x="807.164815" y="541.28" style="fill: #555555; stroke: #555555; stroke-width: 0.8"/>
      </g>
     </g>
     <g id="text_16">
      <!-- Jun -->
      <g style="fill: #555555" transform="translate(794.594346 558.917812)scale(0.14 -0.14)">
       <use xlink:href="#DejaVuSans-Bold-4a"/>
       <use xlink:href="#DejaVuSans-Bold-75" x="37.207031"/>
       <use xlink:href="#DejaVuSans-Bold-6e" x="108.398438"/>
      </g>
     </g>
    </g>
    <g id="xtick_17">
     <g id="line2d_17">
      <g>
       <use xlink:href="#m30a3bdf163" x="851.762674" y="541.28" style="fill: #555555; stroke: #555555; stroke-width: 0.8"/>
      </g>
     </g>
     <g id="text_17">
      <!-- Jul -->
      <g style="fill: #555555" transform="translate(841.775643 558.917812)scale(0.14 -0.14)">
       <use xlink:href="#DejaVuSans-Bold-4a"/>
       <use xlink:href="#DejaVuSans-Bold-75" x="37.207031"/>
       <use xlink:href="#DejaVuSans-Bold-6c" x="108.398438"/>
      </g>
     </g>
    </g>
    <g id="xtick_18">
     <g id="line2d_18">
      <g>
       <use xlink:href="#m30a3bdf163" x="897.847129" y="541.28" style="fill: #555555; stroke: #555555; stroke-width: 0.8"/>
      </g>
     </g>
     <g id="text_18">
      <!-- Aug -->
      <g style="fill: #555555" transform="translate(882.436191 558.808437)scale(0.14 -0.14)">
       <use xlink:href="#DejaVuSans-Bold-41"/>
       <use xlink:href="#DejaVuSans-Bold-75" x="77.392578"/>
       <use xlink:href="#DejaVuSans-Bold-67" x="148.583984"/>
      </g>
     </g>
    </g>
    <g id="xtick_19">
     <g id="line2d_19">
      <g>
       <use xlink:href="#m30a3bdf163" x="943.931584" y="541.28" style="fill: #555555; stroke: #555555; stroke-width: 0.8"/>
      </g>
     </g>
     <g id="text_19">
      <!-- Sep -->
      <g style="fill: #555555" transform="translate(929.132053 558.917812)scale(0.14 -0.14)">
       <use xlink:href="#DejaVuSans-Bold-53"/>
       <use xlink:href="#DejaVuSans-Bold-65" x="72.021484"/>
       <use xlink:href="#DejaVuSans-Bold-70" x="139.84375"/>
      </g>
     </g>
    </g>
    <g id="xtick_20">
     <g id="line2d_20">
      <g>
       <use xlink:href="#m30a3bdf163" x="988.529443" y="541.28" style="fill: #555555; stroke: #555555; stroke-width: 0.8"/>
      </g>
     </g>
     <g id="text_20">
      <!-- Oct -->
      <g style="fill: #555555" transform="translate(975.082881 558.917812)scale(0.14 -0.14)">
       <use xlink:href="#DejaVuSans-Bold-4f"/>
       <use xlink:href="#DejaVuSans-Bold-63" x="85.009766"/>
       <use xlink:href="#DejaVuSans-Bold-74" x="144.287109"/>
      </g>
     </g>
    </g>
    <g id="xtick_21">
     <g id="line2d_21">
      <g>
       <use xlink:href="#m30a3bdf163" x="1034.613898" y="541.28" style="fill: #555555; stroke: #555555; stroke-width: 0.8"/>
      </g>
     </g>
     <g id="text_21">
      <!-- Nov -->
      <g style="fill: #555555" transform="translate(1019.383429 558.917812)scale(0.14 -0.14)">
       <use xlink:href="#DejaVuSans-Bold-4e"/>
       <use xlink:href="#DejaVuSans-Bold-6f" x="83.691406"/>
       <use xlink:href="#DejaVuSans-Bold-76" x="152.392578"/>
      </g>
     </g>
    </g>
    <g id="xtick_22">
     <g id="line2d_22">
      <g>
       <use xlink:href="#m30a3bdf163" x="1079.211758" y="541.28" style="fill: #555555; stroke: #555555; stroke-width: 0.8"/>
      </g>
     </g>
     <g id="text_22">
      <!-- Dec -->
      <g style="fill: #555555" transform="translate(1064.503008 558.917812)scale(0.14 -0.14)">
       <use xlink:href="#DejaVuSans-Bold-44"/>
       <use xlink:href="#DejaVuSans-Bold-65" x="83.007812"/>
       <use xlink:href="#DejaVuSans-Bold-63" x="150.830078"/>
      </g>
     </g>
    </g>
    <g id="xtick_23">
     <g id="line2d_23">
      <g>
       <use xlink:href="#m30a3bdf163" x="1125.296212" y="541.28" style="fill: #555555; stroke: #555555; stroke-width: 0.8"/>
      </g>
     </g>
     <g id="text_23">
      <!-- Jan -->
      <g style="fill: #555555" transform="translate(1112.984962 558.917812)scale(0.14 -0.14)">
       <use xlink:href="#DejaVuSans-Bold-4a"/>
       <use xlink:href="#DejaVuSans-Bold-61" x="37.207031"/>
       <use xlink:href="#DejaVuSans-Bold-6e" x="104.6875"/>
      </g>
     </g>
    </g>
   </g>
   <g id="matplotlib.axis_2">
    <g id="ytick_1">
     <g id="line2d_24">
      <defs>
       <path id="m9f8f00df59" d="M 0 0 
L -3.5 0 
" style="stroke: #555555; stroke-width: 0.8"/>
      </defs>
      <g>
       <use xlink:href="#m9f8f00df59" x="87.95" y="518.989721" style="fill: #555555; stroke: #555555; stroke-width: 0.8"/>
      </g>
     </g>
     <g id="text_24">
      <!-- 0 -->
      <g style="fill: #555555" transform="translate(71.209063 524.308627)scale(0.14 -0.14)">
       <defs>
        <path id="DejaVuSans-Bold-30" d="M 2944 2338 
Q 2944 3213 2780 3570 
Q 2616 3928 2228 3928 
Q 1841 3928 1675 3570 
Q 1509 3213 1509 2338 
Q 1509 1453 1675 1090 
Q 1841 728 2228 728 
Q 2613 728 2778 1090 
Q 2944 1453 2944 2338 
z
M 4147 2328 
Q 4147 1169 3647 539 
Q 3147 -91 2228 -91 
Q 1306 -91 806 539 
Q 306 1169 306 2328 
Q 306 3491 806 4120 
Q 1306 4750 2228 4750 
Q 3147 4750 3647 4120 
Q 4147 3491 4147 2328 
z
" transform="scale(0.015625)"/>
       </defs>
       <use xlink:href="#DejaVuSans-Bold-30"/>
      </g>
     </g>
    </g>
    <g id="ytick_2">
     <g id="line2d_25">
      <g>
       <use xlink:href="#m9f8f00df59" x="87.95" y="422.407203" style="fill: #555555; stroke: #555555; stroke-width: 0.8"/>
      </g>
     </g>
     <g id="text_25">
      <!-- 5000 -->
      <g style="fill: #555555" transform="translate(41.98625 427.726109)scale(0.14 -0.14)">
       <defs>
        <path id="DejaVuSans-Bold-35" d="M 678 4666 
L 3669 4666 
L 3669 3781 
L 1638 3781 
L 1638 3059 
Q 1775 3097 1914 3117 
Q 2053 3138 2203 3138 
Q 3056 3138 3531 2711 
Q 4006 2284 4006 1522 
Q 4006 766 3489 337 
Q 2972 -91 2053 -91 
Q 1656 -91 1267 -14 
Q 878 63 494 219 
L 494 1166 
Q 875 947 1217 837 
Q 1559 728 1863 728 
Q 2300 728 2551 942 
Q 2803 1156 2803 1522 
Q 2803 1891 2551 2103 
Q 2300 2316 1863 2316 
Q 1603 2316 1309 2248 
Q 1016 2181 678 2041 
L 678 4666 
z
" transform="scale(0.015625)"/>
       </defs>
       <use xlink:href="#DejaVuSans-Bold-35"/>
       <use xlink:href="#DejaVuSans-Bold-30" x="69.580078"/>
       <use xlink:href="#DejaVuSans-Bold-30" x="139.160156"/>
       <use xlink:href="#DejaVuSans-Bold-30" x="208.740234"/>
      </g>
     </g>
    </g>
    <g id="ytick_3">
     <g id="line2d_26">
      <g>
       <use xlink:href="#m9f8f00df59" x="87.95" y="325.824685" style="fill: #555555; stroke: #555555; stroke-width: 0.8"/>
      </g>
     </g>
     <g id="text_26">
      <!-- 10000 -->
      <g style="fill: #555555" transform="translate(32.245313 331.143591)scale(0.14 -0.14)">
       <defs>
        <path id="DejaVuSans-Bold-31" d="M 750 831 
L 1813 831 
L 1813 3847 
L 722 3622 
L 722 4441 
L 1806 4666 
L 2950 4666 
L 2950 831 
L 4013 831 
L 4013 0 
L 750 0 
L 750 831 
z
" transform="scale(0.015625)"/>
       </defs>
       <use xlink:href="#DejaVuSans-Bold-31"/>
       <use xlink:href="#DejaVuSans-Bold-30" x="69.580078"/>
       <use xlink:href="#DejaVuSans-Bold-30" x="139.160156"/>
       <use xlink:href="#DejaVuSans-Bold-30" x="208.740234"/>
       <use xlink:href="#DejaVuSans-Bold-30" x="278.320312"/>
      </g>
     </g>
    </g>
    <g id="ytick_4">
     <g id="line2d_27">
      <g>
       <use xlink:href="#m9f8f00df59" x="87.95" y="229.242167" style="fill: #555555; stroke: #555555; stroke-width: 0.8"/>
      </g>
     </g>
     <g id="text_27">
      <!-- 15000 -->
      <g style="fill: #555555" transform="translate(32.245313 234.561073)scale(0.14 -0.14)">
       <use xlink:href="#DejaVuSans-Bold-31"/>
       <use xlink:href="#DejaVuSans-Bold-35" x="69.580078"/>
       <use xlink:href="#DejaVuSans-Bold-30" x="139.160156"/>
       <use xlink:href="#DejaVuSans-Bold-30" x="208.740234"/>
       <use xlink:href="#DejaVuSans-Bold-30" x="278.320312"/>
      </g>
     </g>
    </g>
    <g id="ytick_5">
     <g id="line2d_28">
      <g>
       <use xlink:href="#m9f8f00df59" x="87.95" y="132.659649" style="fill: #555555; stroke: #555555; stroke-width: 0.8"/>
      </g>
     </g>
     <g id="text_28">
      <!-- 20000 -->
      <g style="fill: #555555" transform="translate(32.245313 137.978555)scale(0.14 -0.14)">
       <defs>
        <path id="DejaVuSans-Bold-32" d="M 1844 884 
L 3897 884 
L 3897 0 
L 506 0 
L 506 884 
L 2209 2388 
Q 2438 2594 2547 2791 
Q 2656 2988 2656 3200 
Q 2656 3528 2436 3728 
Q 2216 3928 1850 3928 
Q 1569 3928 1234 3808 
Q 900 3688 519 3450 
L 519 4475 
Q 925 4609 1322 4679 
Q 1719 4750 2100 4750 
Q 2938 4750 3402 4381 
Q 3866 4013 3866 3353 
Q 3866 2972 3669 2642 
Q 3472 2313 2841 1759 
L 1844 884 
z
" transform="scale(0.015625)"/>
       </defs>
       <use xlink:href="#DejaVuSans-Bold-32"/>
       <use xlink:href="#DejaVuSans-Bold-30" x="69.580078"/>
       <use xlink:href="#DejaVuSans-Bold-30" x="139.160156"/>
       <use xlink:href="#DejaVuSans-Bold-30" x="208.740234"/>
       <use xlink:href="#DejaVuSans-Bold-30" x="278.320312"/>
      </g>
     </g>
    </g>
    <g id="text_29">
     <!-- New Cases -->
     <g style="fill: #555555" transform="translate(24.917813 333.23875)rotate(-90)scale(0.16 -0.16)">
      <defs>
       <path id="DejaVuSans-4e" d="M 628 4666 
L 1478 4666 
L 3547 763 
L 3547 4666 
L 4159 4666 
L 4159 0 
L 3309 0 
L 1241 3903 
L 1241 0 
L 628 0 
L 628 4666 
z
" transform="scale(0.015625)"/>
       <path id="DejaVuSans-65" d="M 3597 1894 
L 3597 1613 
L 953 1613 
Q 991 1019 1311 708 
Q 1631 397 2203 397 
Q 2534 397 2845 478 
Q 3156 559 3463 722 
L 3463 178 
Q 3153 47 2828 -22 
Q 2503 -91 2169 -91 
Q 1331 -91 842 396 
Q 353 884 353 1716 
Q 353 2575 817 3079 
Q 1281 3584 2069 3584 
Q 2775 3584 3186 3129 
Q 3597 2675 3597 1894 
z
M 3022 2063 
Q 3016 2534 2758 2815 
Q 2500 3097 2075 3097 
Q 1594 3097 1305 2825 
Q 1016 2553 972 2059 
L 3022 2063 
z
" transform="scale(0.015625)"/>
       <path id="DejaVuSans-77" d="M 269 3500 
L 844 3500 
L 1563 769 
L 2278 3500 
L 2956 3500 
L 3675 769 
L 4391 3500 
L 4966 3500 
L 4050 0 
L 3372 0 
L 2619 2869 
L 1863 0 
L 1184 0 
L 269 3500 
z
" transform="scale(0.015625)"/>
       <path id="DejaVuSans-20" transform="scale(0.015625)"/>
       <path id="DejaVuSans-43" d="M 4122 4306 
L 4122 3641 
Q 3803 3938 3442 4084 
Q 3081 4231 2675 4231 
Q 1875 4231 1450 3742 
Q 1025 3253 1025 2328 
Q 1025 1406 1450 917 
Q 1875 428 2675 428 
Q 3081 428 3442 575 
Q 3803 722 4122 1019 
L 4122 359 
Q 3791 134 3420 21 
Q 3050 -91 2638 -91 
Q 1578 -91 968 557 
Q 359 1206 359 2328 
Q 359 3453 968 4101 
Q 1578 4750 2638 4750 
Q 3056 4750 3426 4639 
Q 3797 4528 4122 4306 
z
" transform="scale(0.015625)"/>
       <path id="DejaVuSans-61" d="M 2194 1759 
Q 1497 1759 1228 1600 
Q 959 1441 959 1056 
Q 959 750 1161 570 
Q 1363 391 1709 391 
Q 2188 391 2477 730 
Q 2766 1069 2766 1631 
L 2766 1759 
L 2194 1759 
z
M 3341 1997 
L 3341 0 
L 2766 0 
L 2766 531 
Q 2569 213 2275 61 
Q 1981 -91 1556 -91 
Q 1019 -91 701 211 
Q 384 513 384 1019 
Q 384 1609 779 1909 
Q 1175 2209 1959 2209 
L 2766 2209 
L 2766 2266 
Q 2766 2663 2505 2880 
Q 2244 3097 1772 3097 
Q 1472 3097 1187 3025 
Q 903 2953 641 2809 
L 641 3341 
Q 956 3463 1253 3523 
Q 1550 3584 1831 3584 
Q 2591 3584 2966 3190 
Q 3341 2797 3341 1997 
z
" transform="scale(0.015625)"/>
       <path id="DejaVuSans-73" d="M 2834 3397 
L 2834 2853 
Q 2591 2978 2328 3040 
Q 2066 3103 1784 3103 
Q 1356 3103 1142 2972 
Q 928 2841 928 2578 
Q 928 2378 1081 2264 
Q 1234 2150 1697 2047 
L 1894 2003 
Q 2506 1872 2764 1633 
Q 3022 1394 3022 966 
Q 3022 478 2636 193 
Q 2250 -91 1575 -91 
Q 1294 -91 989 -36 
Q 684 19 347 128 
L 347 722 
Q 666 556 975 473 
Q 1284 391 1588 391 
Q 1994 391 2212 530 
Q 2431 669 2431 922 
Q 2431 1156 2273 1281 
Q 2116 1406 1581 1522 
L 1381 1569 
Q 847 1681 609 1914 
Q 372 2147 372 2553 
Q 372 3047 722 3315 
Q 1072 3584 1716 3584 
Q 2034 3584 2315 3537 
Q 2597 3491 2834 3397 
z
" transform="scale(0.015625)"/>
      </defs>
      <use xlink:href="#DejaVuSans-4e"/>
      <use xlink:href="#DejaVuSans-65" x="74.804688"/>
      <use xlink:href="#DejaVuSans-77" x="136.328125"/>
      <use xlink:href="#DejaVuSans-20" x="218.115234"/>
      <use xlink:href="#DejaVuSans-43" x="249.902344"/>
      <use xlink:href="#DejaVuSans-61" x="319.726562"/>
      <use xlink:href="#DejaVuSans-73" x="381.005859"/>
      <use xlink:href="#DejaVuSans-65" x="433.105469"/>
      <use xlink:href="#DejaVuSans-73" x="494.628906"/>
     </g>
    </g>
   </g>
   <g id="line2d_29">
    <path d="M 135.223731 518.217061 
L 136.710326 518.023896 
L 138.196922 518.371593 
L 139.683517 517.811414 
L 141.170112 516.478575 
L 142.656708 516.613791 
L 144.143303 516.536525 
L 145.629898 516.806956 
L 147.116494 514.759406 
L 148.603089 515.647966 
L 150.089684 513.774265 
L 151.57628 513.426568 
L 153.062875 512.286894 
L 154.54947 511.340385 
L 156.036066 508.694024 
L 157.522661 506.685108 
L 159.009256 507.303236 
L 160.495851 508.307694 
L 161.982447 504.52166 
L 163.469042 502.705908 
L 166.442233 496.447361 
L 167.928828 496.853008 
L 169.415423 497.896099 
L 170.902019 502.126413 
L 172.388614 502.879757 
L 173.875209 499.518685 
L 175.361805 498.069947 
L 176.8484 499.286887 
L 178.334995 499.634584 
L 179.821591 497.760883 
L 182.794781 503.884215 
L 184.281377 500.465194 
L 185.767972 495.655384 
L 187.254567 493.35672 
L 188.741163 493.85895 
L 190.227758 496.370095 
L 191.714353 500.465194 
L 193.200948 502.338895 
L 194.687544 504.888673 
L 196.174139 498.340378 
L 197.660734 495.153155 
L 199.14733 496.080347 
L 200.633925 499.228938 
L 202.12052 504.540976 
L 203.607116 505.159104 
L 205.093711 505.313636 
L 206.580306 502.107097 
L 208.066902 503.439935 
L 209.553497 506.491943 
L 211.040092 506.414677 
L 212.526688 511.166537 
L 214.013283 515.261636 
L 215.499878 511.494917 
L 216.986474 509.196253 
L 218.473069 509.756432 
L 219.959664 510.548409 
L 221.44626 512.460742 
L 222.932855 515.107103 
L 224.41945 512.827756 
L 225.906045 512.827756 
L 227.392641 512.016463 
L 228.879236 512.827756 
L 230.365831 513.426568 
L 231.852427 514.315127 
L 233.339022 515.532067 
L 234.825617 515.223003 
L 236.312213 514.68214 
L 237.798808 513.696999 
L 239.285403 515.087787 
L 240.771999 515.242319 
L 242.258594 516.575158 
L 243.745189 516.130878 
L 245.231785 516.845589 
L 246.71838 515.377535 
L 248.204975 514.083329 
L 249.691571 515.435484 
L 252.664761 515.647966 
L 254.151356 514.875305 
L 255.637952 516.497892 
L 257.124547 515.242319 
L 258.611142 515.551383 
L 260.097738 515.551383 
L 261.584333 516.266094 
L 263.070928 515.590016 
L 264.557524 516.980804 
L 266.044119 517.154653 
L 267.530714 517.193286 
L 269.01731 515.358218 
L 270.503905 514.798039 
L 271.9905 515.319585 
L 273.477096 514.373076 
L 274.963691 515.783181 
L 276.450286 515.821814 
L 277.936882 515.493434 
L 279.423477 515.860447 
L 280.910072 514.991204 
L 282.396668 515.493434 
L 283.883263 516.208144 
L 285.369858 515.918397 
L 288.343049 516.806956 
L 289.829644 516.594474 
L 292.802835 517.251235 
L 294.28943 517.154653 
L 295.776025 517.676198 
L 297.262621 517.637565 
L 298.749216 517.4444 
L 300.235811 516.864905 
L 303.209002 517.50235 
L 304.695597 517.714831 
L 306.182193 517.521666 
L 307.668788 517.88868 
L 309.155383 517.792097 
L 310.641979 517.540983 
L 312.128574 517.521666 
L 313.615169 517.734148 
L 315.101764 517.598932 
L 316.58836 518.197744 
L 318.074955 518.33296 
L 319.56155 517.88868 
L 322.534741 517.734148 
L 324.021336 517.367134 
L 325.507932 517.154653 
L 326.994527 517.598932 
L 328.481122 517.096703 
L 331.454313 516.691057 
L 332.940908 516.884222 
L 334.427504 516.188828 
L 335.914099 516.188828 
L 337.400694 515.454801 
L 338.88729 515.725232 
L 340.373885 515.705915 
L 343.347076 515.995663 
L 346.320266 514.875305 
L 347.806861 514.952571 
L 349.293457 514.662824 
L 350.780052 514.199228 
L 352.266647 512.402793 
L 353.753243 512.402793 
L 355.239838 510.664308 
L 356.726433 512.055096 
L 358.213029 511.803981 
L 359.699624 509.582583 
L 361.186219 510.722257 
L 362.672815 507.303236 
L 364.15941 509.003088 
L 365.646005 509.640533 
L 367.132601 507.844098 
L 368.619196 503.787632 
L 370.105791 507.013488 
L 371.592387 506.414677 
L 373.078982 507.863415 
L 374.565577 506.878273 
L 376.052173 506.318094 
L 377.538768 509.350785 
L 379.025363 509.6019 
L 380.511958 509.466684 
L 381.998554 508.307694 
L 383.485149 508.732657 
L 384.971744 508.694024 
L 386.45834 509.196253 
L 387.944935 510.200712 
L 389.43153 507.921364 
L 390.918126 510.954055 
L 392.404721 507.940681 
L 393.891316 509.176937 
L 395.377912 509.312152 
L 398.351102 509.21557 
L 399.837698 508.82924 
L 401.324293 509.968914 
L 402.810888 505.081838 
L 404.297484 507.419135 
L 405.784079 504.637559 
L 407.270674 506.45331 
L 408.757269 501.218537 
L 410.243865 503.6331 
L 413.217055 496.968907 
L 414.703651 502.821807 
L 416.190246 494.438445 
L 417.676841 495.384953 
L 419.163437 497.992681 
L 420.650032 493.936216 
L 422.136627 492.410212 
L 423.623223 489.300255 
L 426.596413 481.225956 
L 428.083009 482.442896 
L 429.569604 483.370088 
L 431.056199 476.280931 
L 432.542795 475.778702 
L 434.02939 473.905001 
L 435.515985 470.003068 
L 437.002581 465.598905 
L 438.489176 466.835161 
L 439.975771 461.503806 
L 441.462366 462.933227 
L 442.948962 460.962944 
L 444.435557 455.51569 
L 445.922152 456.153135 
L 447.408748 445.509741 
L 448.895343 442.979279 
L 450.381938 442.052087 
L 451.868534 431.003047 
L 453.355129 431.698441 
L 454.841724 422.948065 
L 456.32832 407.263064 
L 457.814915 403.863359 
L 459.30151 393.857411 
L 460.788106 396.484455 
L 462.274701 387.579547 
L 463.761296 377.3418 
L 465.247892 378.925753 
L 466.734487 368.765272 
L 468.221082 365.423517 
L 469.707678 362.429459 
L 471.194273 361.59885 
L 472.680868 364.728123 
L 474.167463 361.676116 
L 477.140654 340.292746 
L 478.627249 326.365547 
L 480.113845 352.056497 
L 481.60044 322.579512 
L 483.087035 319.971784 
L 484.573631 320.686495 
L 486.060226 362.970321 
L 487.546821 321.092142 
L 489.033417 305.233292 
L 490.520012 330.248164 
L 492.006607 351.341786 
L 493.493203 359.358135 
L 494.979798 369.518616 
L 496.466393 372.184294 
L 497.952989 384.817287 
L 499.439584 379.408666 
L 500.926179 391.191733 
L 503.89937 428.800966 
L 505.385965 429.283878 
L 506.87256 415.008982 
L 508.359156 410.450287 
L 509.845751 401.777177 
L 511.332346 405.080299 
L 512.818942 414.332904 
L 515.792132 436.315085 
L 517.278728 430.462185 
L 518.765323 409.156081 
L 520.251918 404.423538 
L 521.738514 403.013433 
L 523.225109 415.491895 
L 524.711704 418.910916 
L 526.1983 442.747481 
L 527.684895 424.145688 
L 529.17149 432.683583 
L 530.658086 407.900509 
L 532.144681 432.741532 
L 533.631276 411.493378 
L 535.117871 430.674666 
L 536.604467 440.989679 
L 538.091062 424.184321 
L 539.577657 410.9332 
L 541.064253 405.196198 
L 542.550848 392.872269 
L 544.037443 388.39084 
L 545.524039 381.958444 
L 547.010634 400.792035 
L 548.497229 392.582521 
L 549.983825 350.762291 
L 551.47042 348.289779 
L 552.957015 342.784575 
L 554.443611 328.200615 
L 555.930206 355.552784 
L 557.416801 390.901986 
L 558.903397 303.301642 
L 560.389992 272.163438 
L 561.876587 288.041604 
L 563.363183 282.864781 
L 564.849778 267.933124 
L 566.336373 303.494807 
L 567.822968 329.263023 
L 569.309564 318.271932 
L 570.796159 296.965829 
L 572.282754 296.946512 
L 573.76935 329.398238 
L 575.255945 345.044606 
L 576.74254 376.086227 
L 578.229136 373.768247 
L 579.715731 336.468078 
L 581.202326 332.31503 
L 582.688922 361.193203 
L 584.175517 353.080272 
L 585.662112 376.12486 
L 587.148708 390.882669 
L 588.635303 395.962909 
L 590.121898 382.055027 
L 591.608494 332.044599 
L 593.095089 362.294244 
L 596.068279 391.462164 
L 597.554875 413.753409 
L 599.04147 423.52756 
L 600.528065 401.332897 
L 602.014661 393.451764 
L 603.501256 402.607787 
L 604.987851 416.708834 
L 606.474447 411.164998 
L 607.961042 426.579568 
L 609.447637 436.025338 
L 610.934233 411.416112 
L 612.420828 406.857417 
L 613.907423 408.016408 
L 615.394019 413.792042 
L 616.880614 424.705867 
L 618.367209 440.004538 
L 619.853805 442.515683 
L 621.3404 427.719241 
L 622.826995 428.376002 
L 624.313591 434.055054 
L 625.800186 438.401268 
L 627.286781 447.962937 
L 628.773376 456.442882 
L 630.259972 450.454766 
L 631.746567 441.376009 
L 633.233162 437.879722 
L 634.719758 435.600375 
L 636.206353 440.023854 
L 637.692948 443.30766 
L 639.179544 475.392372 
L 640.666139 485.011991 
L 642.152734 457.698455 
L 643.63933 433.475559 
L 645.125925 435.40721 
L 646.61252 438.401268 
L 648.099116 452.830696 
L 649.585711 464.092218 
L 651.072306 467.028326 
L 652.558902 453.931737 
L 654.045497 430.945097 
L 655.532092 428.66575 
L 657.018687 431.312111 
L 658.505283 428.800966 
L 659.991878 438.266052 
L 661.478473 445.413159 
L 662.965069 434.615233 
L 664.451664 422.677634 
L 665.938259 420.688034 
L 667.424855 423.91389 
L 668.91145 429.477043 
L 670.398045 446.572149 
L 671.884641 442.399784 
L 673.371236 421.962923 
L 674.857831 439.946588 
L 676.344427 428.936181 
L 677.831022 416.380454 
L 679.317617 431.910923 
L 680.804213 443.964421 
L 682.290808 436.199186 
L 683.777403 417.404228 
L 685.263999 416.670201 
L 686.750594 403.573612 
L 688.237189 395.84701 
L 691.21038 412.710318 
L 692.696975 423.52756 
L 694.18357 404.867818 
L 695.670166 400.560237 
L 697.156761 377.052052 
L 698.643356 372.145661 
L 701.616547 397.295748 
L 703.103142 410.662769 
L 704.589738 373.03422 
L 706.076333 370.484441 
L 707.562928 372.995587 
L 709.049524 349.352186 
L 710.536119 374.695439 
L 712.022714 388.00451 
L 713.50931 405.891592 
L 714.995905 371.624115 
L 716.4825 367.953979 
L 717.969096 379.640464 
L 719.455691 372.242243 
L 720.942286 386.439873 
L 722.428881 415.955491 
L 723.915477 411.609277 
L 725.402072 395.962909 
L 726.888667 369.074336 
L 728.375263 371.025303 
L 729.861858 371.04462 
L 731.348453 361.714749 
L 732.835049 390.38044 
L 734.321644 389.144184 
L 735.808239 413.907941 
L 737.294835 351.052039 
L 738.78143 347.266004 
L 740.268025 359.570617 
L 741.754621 354.374477 
L 743.241216 380.722188 
L 744.727811 387.23185 
L 746.214407 355.340302 
L 747.701002 333.956933 
L 749.187597 340.60181 
L 750.674192 363.260069 
L 752.160788 364.071362 
L 753.647383 398.725169 
L 755.133978 416.515669 
L 756.620574 351.882648 
L 758.107169 378.307625 
L 759.593764 369.016387 
L 761.08036 407.282381 
L 762.566955 413.502295 
L 764.05355 341.548319 
L 765.540146 369.132286 
L 768.513336 388.545372 
L 769.999932 374.907921 
L 771.486527 375.583998 
L 774.459718 405.775693 
L 775.946313 412.266038 
L 777.432908 396.503772 
L 778.919504 402.858901 
L 780.406099 411.918341 
L 781.892694 432.606317 
L 783.379289 433.533509 
L 784.865885 463.783153 
L 786.35248 416.129339 
L 787.839075 431.138262 
L 789.325671 429.82474 
L 790.812266 439.058029 
L 792.298861 457.698455 
L 793.785457 452.869329 
L 795.272052 466.294299 
L 796.758647 471.007526 
L 798.245243 466.101134 
L 799.731838 453.796521 
L 801.218433 444.833663 
L 802.705029 454.376016 
L 804.191624 468.341848 
L 805.678219 479.970383 
L 807.164815 471.084792 
L 808.65141 469.558788 
L 810.138005 465.656854 
L 811.624601 472.726695 
L 813.111196 478.077366 
L 814.597791 488.701443 
L 816.084386 490.633093 
L 817.570982 491.251222 
L 819.057577 485.166523 
L 820.544172 488.527595 
L 822.030768 492.19773 
L 823.517363 495.056573 
L 825.003958 498.88124 
L 826.490554 502.010514 
L 827.977149 498.900557 
L 829.463744 499.209621 
L 830.95034 498.533543 
L 832.436935 501.798033 
L 833.92353 505.6227 
L 835.410126 505.275003 
L 836.896721 507.99863 
L 838.383316 505.506801 
L 839.869912 506.144246 
L 841.356507 505.545434 
L 842.843102 506.511259 
L 844.329697 508.269061 
L 845.816293 509.312152 
L 847.302888 508.037263 
L 848.789483 508.790607 
L 850.276079 506.704424 
L 851.762674 503.111555 
L 853.249269 500.832207 
L 854.735865 497.355237 
L 856.22246 495.809916 
L 857.709055 489.783167 
L 859.195651 476.647945 
L 860.682246 449.430991 
L 862.168841 414.7965 
L 863.655437 386.034227 
L 865.142032 321.497788 
L 868.115223 356.132279 
L 869.601818 368.28236 
L 871.088413 317.982185 
L 872.575009 306.933144 
L 874.061604 301.505207 
L 875.548199 305.52304 
L 877.034794 322.289765 
L 878.52139 347.575068 
L 880.007985 388.101092 
L 881.49458 386.536456 
L 882.981176 398.589954 
L 884.467771 395.924276 
L 885.954366 417.404228 
L 887.440962 429.998589 
L 888.927557 444.930246 
L 890.414152 442.129353 
L 891.900748 452.463682 
L 893.387343 432.992647 
L 894.873938 452.69548 
L 896.360534 462.160567 
L 897.847129 474.310648 
L 899.333724 478.44438 
L 900.82032 476.319564 
L 902.306915 465.058043 
L 903.79351 454.646447 
L 905.280106 462.952544 
L 906.766701 472.688062 
L 908.253296 474.426547 
L 909.739891 479.642003 
L 911.226487 477.22744 
L 912.713082 478.05805 
L 914.199677 469.423573 
L 915.686273 467.530555 
L 917.172868 474.484496 
L 918.659463 475.315106 
L 920.146059 475.798019 
L 921.632654 474.484496 
L 923.119249 465.193258 
L 924.605845 471.007526 
L 926.09244 476.338881 
L 927.579035 471.857452 
L 929.065631 471.451805 
L 930.552226 472.977809 
L 932.038821 471.471122 
L 933.525417 464.594447 
L 935.012012 468.515697 
L 936.498607 464.942144 
L 937.985202 471.664287 
L 940.958393 477.053591 
L 942.444988 475.063992 
L 943.931584 465.135309 
L 945.418179 465.115992 
L 946.904774 470.118967 
L 948.39137 465.907969 
L 949.877965 473.441405 
L 951.36456 478.154632 
L 952.851156 471.239324 
L 954.337751 465.01941 
L 955.824346 473.460722 
L 957.310942 467.298757 
L 958.797537 476.338881 
L 960.284132 478.521646 
L 961.770728 485.147206 
L 963.257323 480.337397 
L 964.743918 473.113025 
L 966.230514 478.618228 
L 967.717109 477.922834 
L 969.203704 480.086283 
L 970.690299 486.827742 
L 972.176895 492.854491 
L 973.66349 486.866375 
L 975.150085 482.404263 
L 976.636681 484.026849 
L 978.123276 486.267564 
L 979.609871 488.083315 
L 981.096467 488.102631 
L 982.583062 492.217047 
L 984.069657 485.823284 
L 985.556253 485.166523 
L 987.042848 486.132348 
L 988.529443 485.823284 
L 990.016039 486.750476 
L 991.502634 488.044682 
L 992.989229 487.89015 
L 994.475825 482.30768 
L 995.96242 482.211098 
L 997.449015 466.197716 
L 998.93561 465.502322 
L 1000.422206 471.026842 
L 1001.908801 466.159083 
L 1003.395396 475.546904 
L 1004.881992 463.300241 
L 1006.368587 447.17096 
L 1007.855182 448.77423 
L 1009.341778 447.595923 
L 1010.828373 447.692506 
L 1012.314968 448.310634 
L 1013.801564 454.29875 
L 1015.288159 443.384926 
L 1016.774754 430.462185 
L 1018.26135 418.968865 
L 1019.747945 406.219973 
L 1021.23454 409.445829 
L 1022.721136 397.237799 
L 1024.207731 416.650885 
L 1025.694326 407.823243 
L 1027.180922 378.674639 
L 1028.667517 370.870771 
L 1030.154112 376.240759 
L 1031.640707 365.578049 
L 1033.127303 361.482951 
L 1034.613898 370.445808 
L 1036.100493 370.329909 
L 1037.587089 342.243713 
L 1039.073684 321.845485 
L 1040.560279 308.903428 
L 1042.046875 287.73254 
L 1043.53347 299.882621 
L 1045.020065 291.866272 
L 1046.506661 300.867762 
L 1047.993256 274.635951 
L 1049.479851 204.845423 
L 1050.966447 205.811248 
L 1052.453042 251.494779 
L 1053.939637 287.34621 
L 1055.426233 147.842421 
L 1056.912828 129.201995 
L 1058.399423 118.191588 
L 1059.886019 63.178186 
L 1061.372614 113.285196 
L 1062.859209 98.334222 
L 1064.345804 120.007339 
L 1065.8324 74.246542 
L 1067.318995 75.270317 
L 1068.80559 60.609091 
L 1070.292186 89.873594 
L 1071.778781 107.702727 
L 1073.265376 93.350564 
L 1074.751972 91.843877 
L 1076.238567 103.453096 
L 1077.725162 91.1678 
L 1079.211758 160.514047 
L 1080.698353 71.967195 
L 1080.698353 71.967195 
" clip-path="url(#p7b1bbd7383)" style="fill: none; stroke-dasharray: 1.5,2.475; stroke-dashoffset: 0; stroke: #000000; stroke-opacity: 0.5; stroke-width: 1.5"/>
   </g>
   <g id="line2d_30">
    <path d="M 135.223731 518.390909 
L 139.683517 517.483033 
L 142.656708 516.749006 
L 145.629898 515.95703 
L 147.116494 515.454801 
L 148.603089 514.817356 
L 150.089684 514.044696 
L 151.57628 513.059554 
L 160.495851 505.854498 
L 161.982447 504.193279 
L 164.955637 500.349295 
L 166.442233 499.093722 
L 167.928828 498.842607 
L 169.415423 499.190305 
L 170.902019 499.750483 
L 172.388614 500.136813 
L 173.875209 500.09818 
L 176.8484 499.306204 
L 178.334995 499.441419 
L 179.821591 499.905015 
L 181.308186 500.136813 
L 182.794781 499.71185 
L 184.281377 498.649442 
L 185.767972 497.374553 
L 187.254567 496.447361 
L 188.741163 496.408728 
L 190.227758 497.606351 
L 191.714353 499.113039 
L 193.200948 500.059547 
L 194.687544 500.078864 
L 196.174139 499.422103 
L 197.660734 498.919873 
L 199.14733 499.170988 
L 200.633925 500.252712 
L 202.12052 501.817349 
L 203.607116 503.130871 
L 205.093711 503.980797 
L 206.580306 504.425077 
L 208.066902 505.062522 
L 209.553497 506.472626 
L 212.526688 509.795065 
L 214.013283 510.799523 
L 215.499878 511.089271 
L 218.473069 511.14722 
L 219.959664 511.417651 
L 222.932855 512.673224 
L 224.41945 512.943655 
L 227.392641 513.001605 
L 228.879236 513.175453 
L 233.339022 514.527608 
L 234.825617 514.720773 
L 237.798808 514.875305 
L 239.285403 515.06847 
L 242.258594 515.783181 
L 243.745189 515.918397 
L 245.231785 515.821814 
L 249.691571 515.280952 
L 252.664761 515.435484 
L 255.637952 515.590016 
L 258.611142 515.667282 
L 261.584333 515.995663 
L 263.070928 516.28541 
L 264.557524 516.459259 
L 266.044119 516.459259 
L 267.530714 516.246777 
L 270.503905 515.493434 
L 271.9905 515.280952 
L 273.477096 515.223003 
L 276.450286 515.474117 
L 282.396668 515.705915 
L 295.776025 517.367134 
L 304.695597 517.540983 
L 307.668788 517.676198 
L 313.615169 517.753464 
L 318.074955 517.985263 
L 321.048146 517.811414 
L 332.940908 516.536525 
L 337.400694 515.89908 
L 344.833671 515.396851 
L 346.320266 515.12642 
L 349.293457 514.257177 
L 353.753243 512.383476 
L 355.239838 511.803981 
L 356.726433 511.398335 
L 362.672815 509.234886 
L 364.15941 508.539492 
L 365.646005 507.99863 
L 367.132601 507.322553 
L 368.619196 506.936222 
L 370.105791 506.685108 
L 371.592387 506.607842 
L 373.078982 506.897589 
L 376.052173 507.863415 
L 379.025363 508.674708 
L 380.511958 508.887189 
L 383.485149 508.964455 
L 384.971744 508.945139 
L 387.944935 509.21557 
L 390.918126 509.234886 
L 393.891316 509.118987 
L 396.864507 509.15762 
L 398.351102 508.964455 
L 399.837698 508.616758 
L 402.810888 507.28392 
L 407.270674 504.328494 
L 411.73046 500.774258 
L 413.217055 499.441419 
L 414.703651 498.514227 
L 419.163437 495.249738 
L 420.650032 493.433986 
L 422.136627 491.347804 
L 426.596413 484.026849 
L 431.056199 477.942151 
L 434.02939 472.900543 
L 435.515985 470.09965 
L 438.489176 465.579588 
L 439.975771 463.435456 
L 441.462366 461.542439 
L 442.948962 459.069927 
L 444.435557 455.882704 
L 445.922152 452.386416 
L 450.381938 438.864864 
L 451.868534 433.108546 
L 453.355129 426.888632 
L 457.814915 404.945084 
L 459.30151 398.087725 
L 462.274701 386.84552 
L 465.247892 376.12486 
L 466.734487 371.179835 
L 468.221082 367.548333 
L 471.194273 362.603308 
L 472.680868 359.744465 
L 475.654059 350.298695 
L 478.627249 338.631527 
L 480.113845 333.493337 
L 481.60044 332.025283 
L 484.573631 330.035683 
L 486.060226 328.586945 
L 487.546821 329.243706 
L 489.033417 331.523054 
L 490.520012 337.163473 
L 492.006607 344.52306 
L 493.493203 355.63005 
L 494.979798 365.655315 
L 496.466393 373.227385 
L 497.952989 380.16201 
L 499.439584 388.487423 
L 502.412774 407.050582 
L 503.89937 413.772726 
L 505.385965 416.84405 
L 506.87256 415.878225 
L 508.359156 412.980749 
L 509.845751 411.029782 
L 511.332346 412.47852 
L 512.818942 416.7861 
L 514.305537 420.591451 
L 515.792132 422.252671 
L 517.278728 420.398286 
L 520.251918 413.173914 
L 521.738514 413.270497 
L 523.225109 416.052073 
L 524.711704 421.364112 
L 526.1983 424.532018 
L 527.684895 426.502302 
L 530.658086 424.010473 
L 532.144681 423.643459 
L 533.631276 424.976298 
L 535.117871 425.420577 
L 536.604467 424.918348 
L 538.091062 420.127855 
L 539.577657 413.734093 
L 541.064253 405.099616 
L 542.550848 398.049092 
L 544.037443 393.722195 
L 545.524039 389.047601 
L 547.010634 383.214017 
L 548.497229 375.178352 
L 549.983825 364.380426 
L 551.47042 355.069871 
L 552.957015 350.646392 
L 554.443611 346.879674 
L 555.930206 342.185763 
L 557.416801 333.08769 
L 558.903397 319.237757 
L 560.389992 303.649339 
L 561.876587 291.692423 
L 563.363183 286.998513 
L 564.849778 292.059437 
L 566.336373 299.322442 
L 567.822968 304.460632 
L 570.796159 313.346224 
L 572.282754 320.04905 
L 575.255945 341.471053 
L 576.74254 349.796466 
L 578.229136 353.910881 
L 579.715731 352.983689 
L 581.202326 352.906423 
L 582.688922 355.823215 
L 584.175517 363.105537 
L 585.662112 372.531991 
L 587.148708 376.704355 
L 588.635303 375.989645 
L 591.608494 369.962896 
L 593.095089 371.797963 
L 594.581684 379.582514 
L 597.554875 399.942109 
L 599.04147 404.57807 
L 600.528065 406.239289 
L 602.014661 406.355188 
L 603.501256 407.649394 
L 604.987851 411.493378 
L 606.474447 416.07139 
L 607.961042 419.084764 
L 609.447637 419.123397 
L 610.934233 416.940632 
L 612.420828 415.318046 
L 613.907423 415.743009 
L 615.394019 419.142714 
L 616.880614 424.647917 
L 618.367209 429.457727 
L 619.853805 432.413152 
L 621.3404 433.649408 
L 622.826995 434.692499 
L 624.313591 436.95253 
L 627.286781 444.428017 
L 628.773376 446.475566 
L 630.259972 446.01197 
L 631.746567 444.02237 
L 633.233162 441.723706 
L 634.719758 442.47705 
L 636.206353 447.422075 
L 637.692948 453.893104 
L 639.179544 458.413165 
L 640.666139 459.10856 
L 642.152734 455.322525 
L 643.63933 450.165018 
L 645.125925 446.301718 
L 646.61252 446.668731 
L 648.099116 450.532032 
L 649.585711 453.468141 
L 651.072306 452.676164 
L 652.558902 448.407217 
L 654.045497 441.839605 
L 655.532092 436.295769 
L 657.018687 433.765307 
L 658.505283 433.80394 
L 659.991878 434.673183 
L 661.478473 434.113004 
L 662.965069 431.891606 
L 664.451664 429.283878 
L 665.938259 428.202154 
L 667.424855 429.206612 
L 668.91145 431.215528 
L 670.398045 434.035738 
L 671.884641 435.040196 
L 673.371236 433.572142 
L 674.857831 431.543909 
L 676.344427 430.114488 
L 677.831022 430.230387 
L 679.317617 430.964414 
L 680.804213 430.114488 
L 682.290808 427.294278 
L 683.777403 422.020873 
L 685.263999 415.163514 
L 686.750594 409.387879 
L 688.237189 407.263064 
L 689.723784 407.552812 
L 691.21038 408.383421 
L 692.696975 407.127849 
L 694.18357 402.627103 
L 695.670166 395.90496 
L 697.156761 389.878211 
L 698.643356 387.425015 
L 700.129952 387.328432 
L 701.616547 387.598863 
L 703.103142 386.884153 
L 704.589738 382.03571 
L 706.076333 376.12486 
L 707.562928 371.933179 
L 709.049524 372.164977 
L 712.022714 379.196184 
L 713.50931 381.069885 
L 714.995905 380.915353 
L 716.4825 379.118918 
L 717.969096 380.239276 
L 719.455691 384.237792 
L 720.942286 391.133784 
L 722.428881 395.306148 
L 723.915477 394.977768 
L 725.402072 390.747453 
L 726.888667 383.175384 
L 728.375263 376.916837 
L 729.861858 374.560223 
L 732.835049 381.108518 
L 734.321644 381.301683 
L 735.808239 377.901979 
L 738.78143 365.288302 
L 740.268025 363.646399 
L 741.754621 363.607766 
L 743.241216 365.211036 
L 744.727811 363.414601 
L 746.214407 359.22292 
L 747.701002 355.514151 
L 749.187597 356.01638 
L 750.674192 363.08622 
L 753.647383 379.215501 
L 755.133978 381.842545 
L 756.620574 382.383407 
L 758.107169 384.199159 
L 759.593764 383.078802 
L 761.08036 382.190242 
L 762.566955 382.055027 
L 764.05355 379.292767 
L 765.540146 377.206584 
L 767.026741 375.680581 
L 768.513336 376.742988 
L 769.999932 382.016394 
L 778.919504 410.855934 
L 780.406099 418.621168 
L 783.379289 431.698441 
L 784.865885 434.537967 
L 787.839075 435.368577 
L 789.325671 437.686557 
L 790.812266 441.936188 
L 792.298861 449.759372 
L 793.785457 456.230401 
L 795.272052 460.692513 
L 796.758647 461.774237 
L 799.731838 458.66428 
L 801.218433 458.529065 
L 802.705029 460.499348 
L 805.678219 467.878252 
L 807.164815 470.350765 
L 808.65141 471.393856 
L 810.138005 472.707378 
L 811.624601 475.218524 
L 814.597791 483.428038 
L 816.084386 486.615261 
L 817.570982 488.431012 
L 820.544172 490.671726 
L 822.030768 492.622693 
L 825.003958 497.181388 
L 826.490554 498.610809 
L 830.95034 500.986739 
L 832.436935 502.261629 
L 833.92353 503.748999 
L 835.410126 505.023889 
L 836.896721 505.835182 
L 838.383316 506.163562 
L 839.869912 506.279461 
L 842.843102 507.013488 
L 844.329697 507.631617 
L 845.816293 507.979314 
L 847.302888 507.824782 
L 848.789483 506.974855 
L 850.276079 505.352269 
L 851.762674 503.188821 
L 853.249269 500.503827 
L 854.735865 496.679159 
L 856.22246 490.362662 
L 857.709055 479.642003 
L 859.195651 463.454773 
L 860.682246 439.27051 
L 863.655437 385.647897 
L 865.142032 366.23481 
L 866.628627 352.829157 
L 868.115223 344.349212 
L 871.088413 328.934642 
L 872.575009 320.396747 
L 874.061604 316.108484 
L 875.548199 320.319481 
L 877.034794 333.242222 
L 880.007985 367.586966 
L 881.49458 382.92427 
L 882.981176 395.499313 
L 884.467771 406.644936 
L 885.954366 416.419087 
L 887.440962 426.946581 
L 888.927557 434.653866 
L 890.414152 440.854464 
L 893.387343 449.21851 
L 894.873938 454.607814 
L 896.360534 461.291325 
L 897.847129 466.661313 
L 899.333724 469.887169 
L 900.82032 469.539472 
L 902.306915 467.878252 
L 903.79351 466.487464 
L 905.280106 467.105592 
L 906.766701 469.500839 
L 908.253296 472.823277 
L 909.739891 475.179891 
L 911.226487 475.450322 
L 912.713082 474.581079 
L 914.199677 473.518671 
L 915.686273 472.881227 
L 917.172868 473.074392 
L 921.632654 472.746011 
L 923.119249 472.108567 
L 924.605845 471.857452 
L 927.579035 472.166516 
L 929.065631 471.954035 
L 930.552226 471.084792 
L 932.038821 469.616738 
L 933.525417 468.766811 
L 935.012012 468.612279 
L 936.498607 469.404256 
L 937.985202 470.93026 
L 939.471798 472.166516 
L 940.958393 472.205149 
L 942.444988 471.567704 
L 943.931584 469.945118 
L 945.418179 468.902027 
L 946.904774 469.056559 
L 948.39137 469.964435 
L 949.877965 471.007526 
L 951.36456 471.722236 
L 952.851156 471.297273 
L 954.337751 471.220007 
L 955.824346 471.451805 
L 957.310942 472.900543 
L 958.797537 475.29579 
L 960.284132 477.401289 
L 961.770728 478.521646 
L 963.257323 478.965925 
L 964.743918 478.618228 
L 966.230514 478.888659 
L 967.717109 480.221498 
L 970.690299 484.644977 
L 972.176895 485.861917 
L 973.66349 486.267564 
L 976.636681 485.9585 
L 978.123276 486.383463 
L 979.609871 487.194756 
L 981.096467 487.851517 
L 982.583062 487.909466 
L 987.042848 486.499362 
L 988.529443 486.402779 
L 990.016039 486.460729 
L 991.502634 486.190298 
L 992.989229 484.29728 
L 994.475825 481.129374 
L 997.449015 473.383456 
L 998.93561 470.852994 
L 1000.422206 469.249724 
L 1001.908801 467.086276 
L 1003.395396 464.517181 
L 1004.881992 460.480031 
L 1006.368587 455.689538 
L 1007.855182 451.845554 
L 1009.341778 449.450308 
L 1012.314968 447.383442 
L 1013.801564 444.138269 
L 1015.288159 438.150153 
L 1016.774754 430.462185 
L 1018.26135 421.634543 
L 1019.747945 414.603335 
L 1021.23454 410.063957 
L 1022.721136 406.046124 
L 1024.207731 401.390847 
L 1025.694326 395.615212 
L 1028.667517 380.084744 
L 1030.154112 373.381917 
L 1031.640707 369.422034 
L 1033.127303 366.370026 
L 1034.613898 361.367052 
L 1036.100493 352.829157 
L 1037.587089 340.563177 
L 1040.560279 313.635971 
L 1042.046875 303.842504 
L 1043.53347 297.120361 
L 1045.020065 287.404159 
L 1047.993256 259.704293 
L 1049.479851 248.925684 
L 1050.966447 236.640388 
L 1052.453042 222.964303 
L 1053.939637 204.826107 
L 1055.426233 178.710194 
L 1058.399423 123.522943 
L 1059.886019 106.408521 
L 1061.372614 100.787418 
L 1062.859209 97.329764 
L 1064.345804 92.249524 
L 1065.8324 88.366907 
L 1067.318995 83.943427 
L 1068.80559 83.402565 
L 1070.292186 85.276266 
L 1071.778781 90.742836 
L 1073.265376 94.219807 
L 1074.751972 101.019216 
L 1079.211758 107.412979 
L 1080.698353 107.509562 
L 1080.698353 107.509562 
" clip-path="url(#p7b1bbd7383)" style="fill: none; stroke: #000000; stroke-width: 1.5; stroke-linecap: square"/>
   </g>
   <g id="patch_3">
    <path d="M 87.95 541.28 
L 87.95 37.72 
" style="fill: none; stroke: #555555; stroke-linejoin: miter; stroke-linecap: square"/>
   </g>
   <g id="patch_4">
    <path d="M 87.95 541.28 
L 1127.972084 541.28 
" style="fill: none; stroke: #555555; stroke-linejoin: miter; stroke-linecap: square"/>
   </g>
   <g id="text_30">
    <!-- Positive COVID-19 tests - last updated on 03 December 2021 -->
    <g style="fill: #555555" transform="translate(332.759323 27.72)scale(0.18 -0.18)">
     <defs>
      <path id="DejaVuSans-50" d="M 1259 4147 
L 1259 2394 
L 2053 2394 
Q 2494 2394 2734 2622 
Q 2975 2850 2975 3272 
Q 2975 3691 2734 3919 
Q 2494 4147 2053 4147 
L 1259 4147 
z
M 628 4666 
L 2053 4666 
Q 2838 4666 3239 4311 
Q 3641 3956 3641 3272 
Q 3641 2581 3239 2228 
Q 2838 1875 2053 1875 
L 1259 1875 
L 1259 0 
L 628 0 
L 628 4666 
z
" transform="scale(0.015625)"/>
      <path id="DejaVuSans-6f" d="M 1959 3097 
Q 1497 3097 1228 2736 
Q 959 2375 959 1747 
Q 959 1119 1226 758 
Q 1494 397 1959 397 
Q 2419 397 2687 759 
Q 2956 1122 2956 1747 
Q 2956 2369 2687 2733 
Q 2419 3097 1959 3097 
z
M 1959 3584 
Q 2709 3584 3137 3096 
Q 3566 2609 3566 1747 
Q 3566 888 3137 398 
Q 2709 -91 1959 -91 
Q 1206 -91 779 398 
Q 353 888 353 1747 
Q 353 2609 779 3096 
Q 1206 3584 1959 3584 
z
" transform="scale(0.015625)"/>
      <path id="DejaVuSans-69" d="M 603 3500 
L 1178 3500 
L 1178 0 
L 603 0 
L 603 3500 
z
M 603 4863 
L 1178 4863 
L 1178 4134 
L 603 4134 
L 603 4863 
z
" transform="scale(0.015625)"/>
      <path id="DejaVuSans-74" d="M 1172 4494 
L 1172 3500 
L 2356 3500 
L 2356 3053 
L 1172 3053 
L 1172 1153 
Q 1172 725 1289 603 
Q 1406 481 1766 481 
L 2356 481 
L 2356 0 
L 1766 0 
Q 1100 0 847 248 
Q 594 497 594 1153 
L 594 3053 
L 172 3053 
L 172 3500 
L 594 3500 
L 594 4494 
L 1172 4494 
z
" transform="scale(0.015625)"/>
      <path id="DejaVuSans-76" d="M 191 3500 
L 800 3500 
L 1894 563 
L 2988 3500 
L 3597 3500 
L 2284 0 
L 1503 0 
L 191 3500 
z
" transform="scale(0.015625)"/>
      <path id="DejaVuSans-4f" d="M 2522 4238 
Q 1834 4238 1429 3725 
Q 1025 3213 1025 2328 
Q 1025 1447 1429 934 
Q 1834 422 2522 422 
Q 3209 422 3611 934 
Q 4013 1447 4013 2328 
Q 4013 3213 3611 3725 
Q 3209 4238 2522 4238 
z
M 2522 4750 
Q 3503 4750 4090 4092 
Q 4678 3434 4678 2328 
Q 4678 1225 4090 567 
Q 3503 -91 2522 -91 
Q 1538 -91 948 565 
Q 359 1222 359 2328 
Q 359 3434 948 4092 
Q 1538 4750 2522 4750 
z
" transform="scale(0.015625)"/>
      <path id="DejaVuSans-56" d="M 1831 0 
L 50 4666 
L 709 4666 
L 2188 738 
L 3669 4666 
L 4325 4666 
L 2547 0 
L 1831 0 
z
" transform="scale(0.015625)"/>
      <path id="DejaVuSans-49" d="M 628 4666 
L 1259 4666 
L 1259 0 
L 628 0 
L 628 4666 
z
" transform="scale(0.015625)"/>
      <path id="DejaVuSans-44" d="M 1259 4147 
L 1259 519 
L 2022 519 
Q 2988 519 3436 956 
Q 3884 1394 3884 2338 
Q 3884 3275 3436 3711 
Q 2988 4147 2022 4147 
L 1259 4147 
z
M 628 4666 
L 1925 4666 
Q 3281 4666 3915 4102 
Q 4550 3538 4550 2338 
Q 4550 1131 3912 565 
Q 3275 0 1925 0 
L 628 0 
L 628 4666 
z
" transform="scale(0.015625)"/>
      <path id="DejaVuSans-2d" d="M 313 2009 
L 1997 2009 
L 1997 1497 
L 313 1497 
L 313 2009 
z
" transform="scale(0.015625)"/>
      <path id="DejaVuSans-31" d="M 794 531 
L 1825 531 
L 1825 4091 
L 703 3866 
L 703 4441 
L 1819 4666 
L 2450 4666 
L 2450 531 
L 3481 531 
L 3481 0 
L 794 0 
L 794 531 
z
" transform="scale(0.015625)"/>
      <path id="DejaVuSans-39" d="M 703 97 
L 703 672 
Q 941 559 1184 500 
Q 1428 441 1663 441 
Q 2288 441 2617 861 
Q 2947 1281 2994 2138 
Q 2813 1869 2534 1725 
Q 2256 1581 1919 1581 
Q 1219 1581 811 2004 
Q 403 2428 403 3163 
Q 403 3881 828 4315 
Q 1253 4750 1959 4750 
Q 2769 4750 3195 4129 
Q 3622 3509 3622 2328 
Q 3622 1225 3098 567 
Q 2575 -91 1691 -91 
Q 1453 -91 1209 -44 
Q 966 3 703 97 
z
M 1959 2075 
Q 2384 2075 2632 2365 
Q 2881 2656 2881 3163 
Q 2881 3666 2632 3958 
Q 2384 4250 1959 4250 
Q 1534 4250 1286 3958 
Q 1038 3666 1038 3163 
Q 1038 2656 1286 2365 
Q 1534 2075 1959 2075 
z
" transform="scale(0.015625)"/>
      <path id="DejaVuSans-6c" d="M 603 4863 
L 1178 4863 
L 1178 0 
L 603 0 
L 603 4863 
z
" transform="scale(0.015625)"/>
      <path id="DejaVuSans-75" d="M 544 1381 
L 544 3500 
L 1119 3500 
L 1119 1403 
Q 1119 906 1312 657 
Q 1506 409 1894 409 
Q 2359 409 2629 706 
Q 2900 1003 2900 1516 
L 2900 3500 
L 3475 3500 
L 3475 0 
L 2900 0 
L 2900 538 
Q 2691 219 2414 64 
Q 2138 -91 1772 -91 
Q 1169 -91 856 284 
Q 544 659 544 1381 
z
M 1991 3584 
L 1991 3584 
z
" transform="scale(0.015625)"/>
      <path id="DejaVuSans-70" d="M 1159 525 
L 1159 -1331 
L 581 -1331 
L 581 3500 
L 1159 3500 
L 1159 2969 
Q 1341 3281 1617 3432 
Q 1894 3584 2278 3584 
Q 2916 3584 3314 3078 
Q 3713 2572 3713 1747 
Q 3713 922 3314 415 
Q 2916 -91 2278 -91 
Q 1894 -91 1617 61 
Q 1341 213 1159 525 
z
M 3116 1747 
Q 3116 2381 2855 2742 
Q 2594 3103 2138 3103 
Q 1681 3103 1420 2742 
Q 1159 2381 1159 1747 
Q 1159 1113 1420 752 
Q 1681 391 2138 391 
Q 2594 391 2855 752 
Q 3116 1113 3116 1747 
z
" transform="scale(0.015625)"/>
      <path id="DejaVuSans-64" d="M 2906 2969 
L 2906 4863 
L 3481 4863 
L 3481 0 
L 2906 0 
L 2906 525 
Q 2725 213 2448 61 
Q 2172 -91 1784 -91 
Q 1150 -91 751 415 
Q 353 922 353 1747 
Q 353 2572 751 3078 
Q 1150 3584 1784 3584 
Q 2172 3584 2448 3432 
Q 2725 3281 2906 2969 
z
M 947 1747 
Q 947 1113 1208 752 
Q 1469 391 1925 391 
Q 2381 391 2643 752 
Q 2906 1113 2906 1747 
Q 2906 2381 2643 2742 
Q 2381 3103 1925 3103 
Q 1469 3103 1208 2742 
Q 947 2381 947 1747 
z
" transform="scale(0.015625)"/>
      <path id="DejaVuSans-6e" d="M 3513 2113 
L 3513 0 
L 2938 0 
L 2938 2094 
Q 2938 2591 2744 2837 
Q 2550 3084 2163 3084 
Q 1697 3084 1428 2787 
Q 1159 2491 1159 1978 
L 1159 0 
L 581 0 
L 581 3500 
L 1159 3500 
L 1159 2956 
Q 1366 3272 1645 3428 
Q 1925 3584 2291 3584 
Q 2894 3584 3203 3211 
Q 3513 2838 3513 2113 
z
" transform="scale(0.015625)"/>
      <path id="DejaVuSans-30" d="M 2034 4250 
Q 1547 4250 1301 3770 
Q 1056 3291 1056 2328 
Q 1056 1369 1301 889 
Q 1547 409 2034 409 
Q 2525 409 2770 889 
Q 3016 1369 3016 2328 
Q 3016 3291 2770 3770 
Q 2525 4250 2034 4250 
z
M 2034 4750 
Q 2819 4750 3233 4129 
Q 3647 3509 3647 2328 
Q 3647 1150 3233 529 
Q 2819 -91 2034 -91 
Q 1250 -91 836 529 
Q 422 1150 422 2328 
Q 422 3509 836 4129 
Q 1250 4750 2034 4750 
z
" transform="scale(0.015625)"/>
      <path id="DejaVuSans-33" d="M 2597 2516 
Q 3050 2419 3304 2112 
Q 3559 1806 3559 1356 
Q 3559 666 3084 287 
Q 2609 -91 1734 -91 
Q 1441 -91 1130 -33 
Q 819 25 488 141 
L 488 750 
Q 750 597 1062 519 
Q 1375 441 1716 441 
Q 2309 441 2620 675 
Q 2931 909 2931 1356 
Q 2931 1769 2642 2001 
Q 2353 2234 1838 2234 
L 1294 2234 
L 1294 2753 
L 1863 2753 
Q 2328 2753 2575 2939 
Q 2822 3125 2822 3475 
Q 2822 3834 2567 4026 
Q 2313 4219 1838 4219 
Q 1578 4219 1281 4162 
Q 984 4106 628 3988 
L 628 4550 
Q 988 4650 1302 4700 
Q 1616 4750 1894 4750 
Q 2613 4750 3031 4423 
Q 3450 4097 3450 3541 
Q 3450 3153 3228 2886 
Q 3006 2619 2597 2516 
z
" transform="scale(0.015625)"/>
      <path id="DejaVuSans-63" d="M 3122 3366 
L 3122 2828 
Q 2878 2963 2633 3030 
Q 2388 3097 2138 3097 
Q 1578 3097 1268 2742 
Q 959 2388 959 1747 
Q 959 1106 1268 751 
Q 1578 397 2138 397 
Q 2388 397 2633 464 
Q 2878 531 3122 666 
L 3122 134 
Q 2881 22 2623 -34 
Q 2366 -91 2075 -91 
Q 1284 -91 818 406 
Q 353 903 353 1747 
Q 353 2603 823 3093 
Q 1294 3584 2113 3584 
Q 2378 3584 2631 3529 
Q 2884 3475 3122 3366 
z
" transform="scale(0.015625)"/>
      <path id="DejaVuSans-6d" d="M 3328 2828 
Q 3544 3216 3844 3400 
Q 4144 3584 4550 3584 
Q 5097 3584 5394 3201 
Q 5691 2819 5691 2113 
L 5691 0 
L 5113 0 
L 5113 2094 
Q 5113 2597 4934 2840 
Q 4756 3084 4391 3084 
Q 3944 3084 3684 2787 
Q 3425 2491 3425 1978 
L 3425 0 
L 2847 0 
L 2847 2094 
Q 2847 2600 2669 2842 
Q 2491 3084 2119 3084 
Q 1678 3084 1418 2786 
Q 1159 2488 1159 1978 
L 1159 0 
L 581 0 
L 581 3500 
L 1159 3500 
L 1159 2956 
Q 1356 3278 1631 3431 
Q 1906 3584 2284 3584 
Q 2666 3584 2933 3390 
Q 3200 3197 3328 2828 
z
" transform="scale(0.015625)"/>
      <path id="DejaVuSans-62" d="M 3116 1747 
Q 3116 2381 2855 2742 
Q 2594 3103 2138 3103 
Q 1681 3103 1420 2742 
Q 1159 2381 1159 1747 
Q 1159 1113 1420 752 
Q 1681 391 2138 391 
Q 2594 391 2855 752 
Q 3116 1113 3116 1747 
z
M 1159 2969 
Q 1341 3281 1617 3432 
Q 1894 3584 2278 3584 
Q 2916 3584 3314 3078 
Q 3713 2572 3713 1747 
Q 3713 922 3314 415 
Q 2916 -91 2278 -91 
Q 1894 -91 1617 61 
Q 1341 213 1159 525 
L 1159 0 
L 581 0 
L 581 4863 
L 1159 4863 
L 1159 2969 
z
" transform="scale(0.015625)"/>
      <path id="DejaVuSans-72" d="M 2631 2963 
Q 2534 3019 2420 3045 
Q 2306 3072 2169 3072 
Q 1681 3072 1420 2755 
Q 1159 2438 1159 1844 
L 1159 0 
L 581 0 
L 581 3500 
L 1159 3500 
L 1159 2956 
Q 1341 3275 1631 3429 
Q 1922 3584 2338 3584 
Q 2397 3584 2469 3576 
Q 2541 3569 2628 3553 
L 2631 2963 
z
" transform="scale(0.015625)"/>
      <path id="DejaVuSans-32" d="M 1228 531 
L 3431 531 
L 3431 0 
L 469 0 
L 469 531 
Q 828 903 1448 1529 
Q 2069 2156 2228 2338 
Q 2531 2678 2651 2914 
Q 2772 3150 2772 3378 
Q 2772 3750 2511 3984 
Q 2250 4219 1831 4219 
Q 1534 4219 1204 4116 
Q 875 4013 500 3803 
L 500 4441 
Q 881 4594 1212 4672 
Q 1544 4750 1819 4750 
Q 2544 4750 2975 4387 
Q 3406 4025 3406 3419 
Q 3406 3131 3298 2873 
Q 3191 2616 2906 2266 
Q 2828 2175 2409 1742 
Q 1991 1309 1228 531 
z
" transform="scale(0.015625)"/>
     </defs>
     <use xlink:href="#DejaVuSans-50"/>
     <use xlink:href="#DejaVuSans-6f" x="56.677734"/>
     <use xlink:href="#DejaVuSans-73" x="117.859375"/>
     <use xlink:href="#DejaVuSans-69" x="169.958984"/>
     <use xlink:href="#DejaVuSans-74" x="197.742188"/>
     <use xlink:href="#DejaVuSans-69" x="236.951172"/>
     <use xlink:href="#DejaVuSans-76" x="264.734375"/>
     <use xlink:href="#DejaVuSans-65" x="323.914062"/>
     <use xlink:href="#DejaVuSans-20" x="385.4375"/>
     <use xlink:href="#DejaVuSans-43" x="417.224609"/>
     <use xlink:href="#DejaVuSans-4f" x="487.048828"/>
     <use xlink:href="#DejaVuSans-56" x="564.009766"/>
     <use xlink:href="#DejaVuSans-49" x="632.417969"/>
     <use xlink:href="#DejaVuSans-44" x="661.910156"/>
     <use xlink:href="#DejaVuSans-2d" x="738.912109"/>
     <use xlink:href="#DejaVuSans-31" x="774.996094"/>
     <use xlink:href="#DejaVuSans-39" x="838.619141"/>
     <use xlink:href="#DejaVuSans-20" x="902.242188"/>
     <use xlink:href="#DejaVuSans-74" x="934.029297"/>
     <use xlink:href="#DejaVuSans-65" x="973.238281"/>
     <use xlink:href="#DejaVuSans-73" x="1034.761719"/>
     <use xlink:href="#DejaVuSans-74" x="1086.861328"/>
     <use xlink:href="#DejaVuSans-73" x="1126.070312"/>
     <use xlink:href="#DejaVuSans-20" x="1178.169922"/>
     <use xlink:href="#DejaVuSans-2d" x="1209.957031"/>
     <use xlink:href="#DejaVuSans-20" x="1246.041016"/>
     <use xlink:href="#DejaVuSans-6c" x="1277.828125"/>
     <use xlink:href="#DejaVuSans-61" x="1305.611328"/>
     <use xlink:href="#DejaVuSans-73" x="1366.890625"/>
     <use xlink:href="#DejaVuSans-74" x="1418.990234"/>
     <use xlink:href="#DejaVuSans-20" x="1458.199219"/>
     <use xlink:href="#DejaVuSans-75" x="1489.986328"/>
     <use xlink:href="#DejaVuSans-70" x="1553.365234"/>
     <use xlink:href="#DejaVuSans-64" x="1616.841797"/>
     <use xlink:href="#DejaVuSans-61" x="1680.318359"/>
     <use xlink:href="#DejaVuSans-74" x="1741.597656"/>
     <use xlink:href="#DejaVuSans-65" x="1780.806641"/>
     <use xlink:href="#DejaVuSans-64" x="1842.330078"/>
     <use xlink:href="#DejaVuSans-20" x="1905.806641"/>
     <use xlink:href="#DejaVuSans-6f" x="1937.59375"/>
     <use xlink:href="#DejaVuSans-6e" x="1998.775391"/>
     <use xlink:href="#DejaVuSans-20" x="2062.154297"/>
     <use xlink:href="#DejaVuSans-30" x="2093.941406"/>
     <use xlink:href="#DejaVuSans-33" x="2157.564453"/>
     <use xlink:href="#DejaVuSans-20" x="2221.1875"/>
     <use xlink:href="#DejaVuSans-44" x="2252.974609"/>
     <use xlink:href="#DejaVuSans-65" x="2329.976562"/>
     <use xlink:href="#DejaVuSans-63" x="2391.5"/>
     <use xlink:href="#DejaVuSans-65" x="2446.480469"/>
     <use xlink:href="#DejaVuSans-6d" x="2508.003906"/>
     <use xlink:href="#DejaVuSans-62" x="2605.416016"/>
     <use xlink:href="#DejaVuSans-65" x="2668.892578"/>
     <use xlink:href="#DejaVuSans-72" x="2730.416016"/>
     <use xlink:href="#DejaVuSans-20" x="2771.529297"/>
     <use xlink:href="#DejaVuSans-32" x="2803.316406"/>
     <use xlink:href="#DejaVuSans-30" x="2866.939453"/>
     <use xlink:href="#DejaVuSans-32" x="2930.5625"/>
     <use xlink:href="#DejaVuSans-31" x="2994.185547"/>
    </g>
   </g>
   <g id="legend_1">
    <g id="line2d_31">
     <path d="M 99.65 54.747969 
L 112.65 54.747969 
L 125.65 54.747969 
" style="fill: none; stroke-dasharray: 1.5,2.475; stroke-dashoffset: 0; stroke: #000000; stroke-opacity: 0.5; stroke-width: 1.5"/>
    </g>
    <g id="text_31">
     <!-- Actual -->
     <g style="fill: #555555" transform="translate(136.05 59.297969)scale(0.13 -0.13)">
      <use xlink:href="#DejaVuSans-Bold-41"/>
      <use xlink:href="#DejaVuSans-Bold-63" x="77.392578"/>
      <use xlink:href="#DejaVuSans-Bold-74" x="136.669922"/>
      <use xlink:href="#DejaVuSans-Bold-75" x="184.472656"/>
      <use xlink:href="#DejaVuSans-Bold-61" x="255.664062"/>
      <use xlink:href="#DejaVuSans-Bold-6c" x="323.144531"/>
     </g>
    </g>
    <g id="line2d_32">
     <path d="M 99.65 73.829531 
L 112.65 73.829531 
L 125.65 73.829531 
" style="fill: none; stroke: #000000; stroke-width: 1.5; stroke-linecap: square"/>
    </g>
    <g id="text_32">
     <!-- Smoothed -->
     <g style="fill: #555555" transform="translate(136.05 78.379531)scale(0.13 -0.13)">
      <defs>
       <path id="DejaVuSans-Bold-6d" d="M 3781 2919 
Q 3994 3244 4286 3414 
Q 4578 3584 4928 3584 
Q 5531 3584 5847 3212 
Q 6163 2841 6163 2131 
L 6163 0 
L 5038 0 
L 5038 1825 
Q 5041 1866 5042 1909 
Q 5044 1953 5044 2034 
Q 5044 2406 4934 2573 
Q 4825 2741 4581 2741 
Q 4263 2741 4089 2478 
Q 3916 2216 3909 1719 
L 3909 0 
L 2784 0 
L 2784 1825 
Q 2784 2406 2684 2573 
Q 2584 2741 2328 2741 
Q 2006 2741 1831 2477 
Q 1656 2213 1656 1722 
L 1656 0 
L 531 0 
L 531 3500 
L 1656 3500 
L 1656 2988 
Q 1863 3284 2130 3434 
Q 2397 3584 2719 3584 
Q 3081 3584 3359 3409 
Q 3638 3234 3781 2919 
z
" transform="scale(0.015625)"/>
       <path id="DejaVuSans-Bold-68" d="M 4056 2131 
L 4056 0 
L 2931 0 
L 2931 347 
L 2931 1625 
Q 2931 2084 2911 2256 
Q 2891 2428 2841 2509 
Q 2775 2619 2662 2680 
Q 2550 2741 2406 2741 
Q 2056 2741 1856 2470 
Q 1656 2200 1656 1722 
L 1656 0 
L 538 0 
L 538 4863 
L 1656 4863 
L 1656 2988 
Q 1909 3294 2193 3439 
Q 2478 3584 2822 3584 
Q 3428 3584 3742 3212 
Q 4056 2841 4056 2131 
z
" transform="scale(0.015625)"/>
       <path id="DejaVuSans-Bold-64" d="M 2919 2988 
L 2919 4863 
L 4044 4863 
L 4044 0 
L 2919 0 
L 2919 506 
Q 2688 197 2409 53 
Q 2131 -91 1766 -91 
Q 1119 -91 703 423 
Q 288 938 288 1747 
Q 288 2556 703 3070 
Q 1119 3584 1766 3584 
Q 2128 3584 2408 3439 
Q 2688 3294 2919 2988 
z
M 2181 722 
Q 2541 722 2730 984 
Q 2919 1247 2919 1747 
Q 2919 2247 2730 2509 
Q 2541 2772 2181 2772 
Q 1825 2772 1636 2509 
Q 1447 2247 1447 1747 
Q 1447 1247 1636 984 
Q 1825 722 2181 722 
z
" transform="scale(0.015625)"/>
      </defs>
      <use xlink:href="#DejaVuSans-Bold-53"/>
      <use xlink:href="#DejaVuSans-Bold-6d" x="72.021484"/>
      <use xlink:href="#DejaVuSans-Bold-6f" x="176.220703"/>
      <use xlink:href="#DejaVuSans-Bold-6f" x="244.921875"/>
      <use xlink:href="#DejaVuSans-Bold-74" x="313.623047"/>
      <use xlink:href="#DejaVuSans-Bold-68" x="361.425781"/>
      <use xlink:href="#DejaVuSans-Bold-65" x="432.617188"/>
      <use xlink:href="#DejaVuSans-Bold-64" x="500.439453"/>
     </g>
    </g>
   </g>
  </g>
 </g>
 <defs>
  <clipPath id="p7b1bbd7383">
   <rect x="87.95" y="37.72" width="1040.022084" height="503.56"/>
  </clipPath>
 </defs>
</svg>
