<?xml version="1.0" encoding="utf-8" standalone="no"?>
<!DOCTYPE svg PUBLIC "-//W3C//DTD SVG 1.1//EN"
  "http://www.w3.org/Graphics/SVG/1.1/DTD/svg11.dtd">
<svg xmlns:xlink="http://www.w3.org/1999/xlink" width="1152pt" height="576pt" viewBox="0 0 1152 576" xmlns="http://www.w3.org/2000/svg" version="1.1">
 <metadata>
  <rdf:RDF xmlns:dc="http://purl.org/dc/elements/1.1/" xmlns:cc="http://creativecommons.org/ns#" xmlns:rdf="http://www.w3.org/1999/02/22-rdf-syntax-ns#">
   <cc:Work>
    <dc:type rdf:resource="http://purl.org/dc/dcmitype/StillImage"/>
    <dc:date>2021-12-08T14:15:58.798953</dc:date>
    <dc:format>image/svg+xml</dc:format>
    <dc:creator>
     <cc:Agent>
      <dc:title>Matplotlib v3.5.0, https://matplotlib.org/</dc:title>
     </cc:Agent>
    </dc:creator>
   </cc:Work>
  </rdf:RDF>
 </metadata>
 <defs>
  <style type="text/css">*{stroke-linejoin: round; stroke-linecap: butt}</style>
 </defs>
 <g id="figure_1">
  <g id="patch_1">
   <path d="M 0 576 
L 1152 576 
L 1152 0 
L 0 0 
z
" style="fill: #ffffff"/>
  </g>
  <g id="axes_1">
   <g id="patch_2">
    <path d="M 87.95 541.28 
L 1134.601734 541.28 
L 1134.601734 37.72 
L 87.95 37.72 
z
" style="fill: #ffffff"/>
   </g>
   <g id="matplotlib.axis_1">
    <g id="xtick_1">
     <g id="line2d_1">
      <defs>
       <path id="m8a72cf0719" d="M 0 0 
L 0 3.5 
" style="stroke: #555555; stroke-width: 0.8"/>
      </defs>
      <g>
       <use xlink:href="#m8a72cf0719" x="128.10307" y="541.28" style="fill: #555555; stroke: #555555; stroke-width: 0.8"/>
      </g>
     </g>
     <g id="text_1">
      <!-- Mar -->
      <g style="fill: #555555" transform="translate(112.961195 558.917812)scale(0.14 -0.14)">
       <defs>
        <path id="DejaVuSans-Bold-4d" d="M 588 4666 
L 2119 4666 
L 3181 2169 
L 4250 4666 
L 5778 4666 
L 5778 0 
L 4641 0 
L 4641 3413 
L 3566 897 
L 2803 897 
L 1728 3413 
L 1728 0 
L 588 0 
L 588 4666 
z
" transform="scale(0.015625)"/>
        <path id="DejaVuSans-Bold-61" d="M 2106 1575 
Q 1756 1575 1579 1456 
Q 1403 1338 1403 1106 
Q 1403 894 1545 773 
Q 1688 653 1941 653 
Q 2256 653 2472 879 
Q 2688 1106 2688 1447 
L 2688 1575 
L 2106 1575 
z
M 3816 1997 
L 3816 0 
L 2688 0 
L 2688 519 
Q 2463 200 2181 54 
Q 1900 -91 1497 -91 
Q 953 -91 614 226 
Q 275 544 275 1050 
Q 275 1666 698 1953 
Q 1122 2241 2028 2241 
L 2688 2241 
L 2688 2328 
Q 2688 2594 2478 2717 
Q 2269 2841 1825 2841 
Q 1466 2841 1156 2769 
Q 847 2697 581 2553 
L 581 3406 
Q 941 3494 1303 3539 
Q 1666 3584 2028 3584 
Q 2975 3584 3395 3211 
Q 3816 2838 3816 1997 
z
" transform="scale(0.015625)"/>
        <path id="DejaVuSans-Bold-72" d="M 3138 2547 
Q 2991 2616 2845 2648 
Q 2700 2681 2553 2681 
Q 2122 2681 1889 2404 
Q 1656 2128 1656 1613 
L 1656 0 
L 538 0 
L 538 3500 
L 1656 3500 
L 1656 2925 
Q 1872 3269 2151 3426 
Q 2431 3584 2822 3584 
Q 2878 3584 2943 3579 
Q 3009 3575 3134 3559 
L 3138 2547 
z
" transform="scale(0.015625)"/>
       </defs>
       <use xlink:href="#DejaVuSans-Bold-4d"/>
       <use xlink:href="#DejaVuSans-Bold-61" x="99.511719"/>
       <use xlink:href="#DejaVuSans-Bold-72" x="166.992188"/>
      </g>
     </g>
    </g>
    <g id="xtick_2">
     <g id="line2d_2">
      <g>
       <use xlink:href="#m8a72cf0719" x="174.119527" y="541.28" style="fill: #555555; stroke: #555555; stroke-width: 0.8"/>
      </g>
     </g>
     <g id="text_2">
      <!-- Apr -->
      <g style="fill: #555555" transform="translate(160.239839 558.917812)scale(0.14 -0.14)">
       <defs>
        <path id="DejaVuSans-Bold-41" d="M 3419 850 
L 1538 850 
L 1241 0 
L 31 0 
L 1759 4666 
L 3194 4666 
L 4922 0 
L 3713 0 
L 3419 850 
z
M 1838 1716 
L 3116 1716 
L 2478 3572 
L 1838 1716 
z
" transform="scale(0.015625)"/>
        <path id="DejaVuSans-Bold-70" d="M 1656 506 
L 1656 -1331 
L 538 -1331 
L 538 3500 
L 1656 3500 
L 1656 2988 
Q 1888 3294 2169 3439 
Q 2450 3584 2816 3584 
Q 3463 3584 3878 3070 
Q 4294 2556 4294 1747 
Q 4294 938 3878 423 
Q 3463 -91 2816 -91 
Q 2450 -91 2169 54 
Q 1888 200 1656 506 
z
M 2400 2772 
Q 2041 2772 1848 2508 
Q 1656 2244 1656 1747 
Q 1656 1250 1848 986 
Q 2041 722 2400 722 
Q 2759 722 2948 984 
Q 3138 1247 3138 1747 
Q 3138 2247 2948 2509 
Q 2759 2772 2400 2772 
z
" transform="scale(0.015625)"/>
       </defs>
       <use xlink:href="#DejaVuSans-Bold-41"/>
       <use xlink:href="#DejaVuSans-Bold-70" x="77.392578"/>
       <use xlink:href="#DejaVuSans-Bold-72" x="148.974609"/>
      </g>
     </g>
    </g>
    <g id="xtick_3">
     <g id="line2d_3">
      <g>
       <use xlink:href="#m8a72cf0719" x="218.651582" y="541.28" style="fill: #555555; stroke: #555555; stroke-width: 0.8"/>
      </g>
     </g>
     <g id="text_3">
      <!-- May -->
      <g style="fill: #555555" transform="translate(202.617207 558.808437)scale(0.14 -0.14)">
       <defs>
        <path id="DejaVuSans-Bold-79" d="M 78 3500 
L 1197 3500 
L 2138 1125 
L 2938 3500 
L 4056 3500 
L 2584 -331 
Q 2363 -916 2067 -1148 
Q 1772 -1381 1288 -1381 
L 641 -1381 
L 641 -647 
L 991 -647 
Q 1275 -647 1404 -556 
Q 1534 -466 1606 -231 
L 1638 -134 
L 78 3500 
z
" transform="scale(0.015625)"/>
       </defs>
       <use xlink:href="#DejaVuSans-Bold-4d"/>
       <use xlink:href="#DejaVuSans-Bold-61" x="99.511719"/>
       <use xlink:href="#DejaVuSans-Bold-79" x="163.867188"/>
      </g>
     </g>
    </g>
    <g id="xtick_4">
     <g id="line2d_4">
      <g>
       <use xlink:href="#m8a72cf0719" x="264.668038" y="541.28" style="fill: #555555; stroke: #555555; stroke-width: 0.8"/>
      </g>
     </g>
     <g id="text_4">
      <!-- Jun -->
      <g style="fill: #555555" transform="translate(252.09757 558.917812)scale(0.14 -0.14)">
       <defs>
        <path id="DejaVuSans-Bold-4a" d="M 588 4666 
L 1791 4666 
L 1791 453 
Q 1791 -419 1317 -850 
Q 844 -1281 -116 -1281 
L -359 -1281 
L -359 -372 
L -172 -372 
Q 203 -372 395 -162 
Q 588 47 588 453 
L 588 4666 
z
" transform="scale(0.015625)"/>
        <path id="DejaVuSans-Bold-75" d="M 500 1363 
L 500 3500 
L 1625 3500 
L 1625 3150 
Q 1625 2866 1622 2436 
Q 1619 2006 1619 1863 
Q 1619 1441 1641 1255 
Q 1663 1069 1716 984 
Q 1784 875 1895 815 
Q 2006 756 2150 756 
Q 2500 756 2700 1025 
Q 2900 1294 2900 1772 
L 2900 3500 
L 4019 3500 
L 4019 0 
L 2900 0 
L 2900 506 
Q 2647 200 2364 54 
Q 2081 -91 1741 -91 
Q 1134 -91 817 281 
Q 500 653 500 1363 
z
" transform="scale(0.015625)"/>
        <path id="DejaVuSans-Bold-6e" d="M 4056 2131 
L 4056 0 
L 2931 0 
L 2931 347 
L 2931 1631 
Q 2931 2084 2911 2256 
Q 2891 2428 2841 2509 
Q 2775 2619 2662 2680 
Q 2550 2741 2406 2741 
Q 2056 2741 1856 2470 
Q 1656 2200 1656 1722 
L 1656 0 
L 538 0 
L 538 3500 
L 1656 3500 
L 1656 2988 
Q 1909 3294 2193 3439 
Q 2478 3584 2822 3584 
Q 3428 3584 3742 3212 
Q 4056 2841 4056 2131 
z
" transform="scale(0.015625)"/>
       </defs>
       <use xlink:href="#DejaVuSans-Bold-4a"/>
       <use xlink:href="#DejaVuSans-Bold-75" x="37.207031"/>
       <use xlink:href="#DejaVuSans-Bold-6e" x="108.398438"/>
      </g>
     </g>
    </g>
    <g id="xtick_5">
     <g id="line2d_5">
      <g>
       <use xlink:href="#m8a72cf0719" x="309.200093" y="541.28" style="fill: #555555; stroke: #555555; stroke-width: 0.8"/>
      </g>
     </g>
     <g id="text_5">
      <!-- Jul -->
      <g style="fill: #555555" transform="translate(299.213062 558.917812)scale(0.14 -0.14)">
       <defs>
        <path id="DejaVuSans-Bold-6c" d="M 538 4863 
L 1656 4863 
L 1656 0 
L 538 0 
L 538 4863 
z
" transform="scale(0.015625)"/>
       </defs>
       <use xlink:href="#DejaVuSans-Bold-4a"/>
       <use xlink:href="#DejaVuSans-Bold-75" x="37.207031"/>
       <use xlink:href="#DejaVuSans-Bold-6c" x="108.398438"/>
      </g>
     </g>
    </g>
    <g id="xtick_6">
     <g id="line2d_6">
      <g>
       <use xlink:href="#m8a72cf0719" x="355.21655" y="541.28" style="fill: #555555; stroke: #555555; stroke-width: 0.8"/>
      </g>
     </g>
     <g id="text_6">
      <!-- Aug -->
      <g style="fill: #555555" transform="translate(339.805613 558.808437)scale(0.14 -0.14)">
       <defs>
        <path id="DejaVuSans-Bold-67" d="M 2919 594 
Q 2688 288 2409 144 
Q 2131 0 1766 0 
Q 1125 0 706 504 
Q 288 1009 288 1791 
Q 288 2575 706 3076 
Q 1125 3578 1766 3578 
Q 2131 3578 2409 3434 
Q 2688 3291 2919 2981 
L 2919 3500 
L 4044 3500 
L 4044 353 
Q 4044 -491 3511 -936 
Q 2978 -1381 1966 -1381 
Q 1638 -1381 1331 -1331 
Q 1025 -1281 716 -1178 
L 716 -306 
Q 1009 -475 1290 -558 
Q 1572 -641 1856 -641 
Q 2406 -641 2662 -400 
Q 2919 -159 2919 353 
L 2919 594 
z
M 2181 2772 
Q 1834 2772 1640 2515 
Q 1447 2259 1447 1791 
Q 1447 1309 1634 1061 
Q 1822 813 2181 813 
Q 2531 813 2725 1069 
Q 2919 1325 2919 1791 
Q 2919 2259 2725 2515 
Q 2531 2772 2181 2772 
z
" transform="scale(0.015625)"/>
       </defs>
       <use xlink:href="#DejaVuSans-Bold-41"/>
       <use xlink:href="#DejaVuSans-Bold-75" x="77.392578"/>
       <use xlink:href="#DejaVuSans-Bold-67" x="148.583984"/>
      </g>
     </g>
    </g>
    <g id="xtick_7">
     <g id="line2d_7">
      <g>
       <use xlink:href="#m8a72cf0719" x="401.233007" y="541.28" style="fill: #555555; stroke: #555555; stroke-width: 0.8"/>
      </g>
     </g>
     <g id="text_7">
      <!-- Sep -->
      <g style="fill: #555555" transform="translate(386.433476 558.917812)scale(0.14 -0.14)">
       <defs>
        <path id="DejaVuSans-Bold-53" d="M 3834 4519 
L 3834 3531 
Q 3450 3703 3084 3790 
Q 2719 3878 2394 3878 
Q 1963 3878 1756 3759 
Q 1550 3641 1550 3391 
Q 1550 3203 1689 3098 
Q 1828 2994 2194 2919 
L 2706 2816 
Q 3484 2659 3812 2340 
Q 4141 2022 4141 1434 
Q 4141 663 3683 286 
Q 3225 -91 2284 -91 
Q 1841 -91 1394 -6 
Q 947 78 500 244 
L 500 1259 
Q 947 1022 1364 901 
Q 1781 781 2169 781 
Q 2563 781 2772 912 
Q 2981 1044 2981 1288 
Q 2981 1506 2839 1625 
Q 2697 1744 2272 1838 
L 1806 1941 
Q 1106 2091 782 2419 
Q 459 2747 459 3303 
Q 459 4000 909 4375 
Q 1359 4750 2203 4750 
Q 2588 4750 2994 4692 
Q 3400 4634 3834 4519 
z
" transform="scale(0.015625)"/>
        <path id="DejaVuSans-Bold-65" d="M 4031 1759 
L 4031 1441 
L 1416 1441 
Q 1456 1047 1700 850 
Q 1944 653 2381 653 
Q 2734 653 3104 758 
Q 3475 863 3866 1075 
L 3866 213 
Q 3469 63 3072 -14 
Q 2675 -91 2278 -91 
Q 1328 -91 801 392 
Q 275 875 275 1747 
Q 275 2603 792 3093 
Q 1309 3584 2216 3584 
Q 3041 3584 3536 3087 
Q 4031 2591 4031 1759 
z
M 2881 2131 
Q 2881 2450 2695 2645 
Q 2509 2841 2209 2841 
Q 1884 2841 1681 2658 
Q 1478 2475 1428 2131 
L 2881 2131 
z
" transform="scale(0.015625)"/>
       </defs>
       <use xlink:href="#DejaVuSans-Bold-53"/>
       <use xlink:href="#DejaVuSans-Bold-65" x="72.021484"/>
       <use xlink:href="#DejaVuSans-Bold-70" x="139.84375"/>
      </g>
     </g>
    </g>
    <g id="xtick_8">
     <g id="line2d_8">
      <g>
       <use xlink:href="#m8a72cf0719" x="445.765062" y="541.28" style="fill: #555555; stroke: #555555; stroke-width: 0.8"/>
      </g>
     </g>
     <g id="text_8">
      <!-- Oct -->
      <g style="fill: #555555" transform="translate(432.3185 558.917812)scale(0.14 -0.14)">
       <defs>
        <path id="DejaVuSans-Bold-4f" d="M 2719 3878 
Q 2169 3878 1866 3472 
Q 1563 3066 1563 2328 
Q 1563 1594 1866 1187 
Q 2169 781 2719 781 
Q 3272 781 3575 1187 
Q 3878 1594 3878 2328 
Q 3878 3066 3575 3472 
Q 3272 3878 2719 3878 
z
M 2719 4750 
Q 3844 4750 4481 4106 
Q 5119 3463 5119 2328 
Q 5119 1197 4481 553 
Q 3844 -91 2719 -91 
Q 1597 -91 958 553 
Q 319 1197 319 2328 
Q 319 3463 958 4106 
Q 1597 4750 2719 4750 
z
" transform="scale(0.015625)"/>
        <path id="DejaVuSans-Bold-63" d="M 3366 3391 
L 3366 2478 
Q 3138 2634 2908 2709 
Q 2678 2784 2431 2784 
Q 1963 2784 1702 2511 
Q 1441 2238 1441 1747 
Q 1441 1256 1702 982 
Q 1963 709 2431 709 
Q 2694 709 2930 787 
Q 3166 866 3366 1019 
L 3366 103 
Q 3103 6 2833 -42 
Q 2563 -91 2291 -91 
Q 1344 -91 809 395 
Q 275 881 275 1747 
Q 275 2613 809 3098 
Q 1344 3584 2291 3584 
Q 2566 3584 2833 3536 
Q 3100 3488 3366 3391 
z
" transform="scale(0.015625)"/>
        <path id="DejaVuSans-Bold-74" d="M 1759 4494 
L 1759 3500 
L 2913 3500 
L 2913 2700 
L 1759 2700 
L 1759 1216 
Q 1759 972 1856 886 
Q 1953 800 2241 800 
L 2816 800 
L 2816 0 
L 1856 0 
Q 1194 0 917 276 
Q 641 553 641 1216 
L 641 2700 
L 84 2700 
L 84 3500 
L 641 3500 
L 641 4494 
L 1759 4494 
z
" transform="scale(0.015625)"/>
       </defs>
       <use xlink:href="#DejaVuSans-Bold-4f"/>
       <use xlink:href="#DejaVuSans-Bold-63" x="85.009766"/>
       <use xlink:href="#DejaVuSans-Bold-74" x="144.287109"/>
      </g>
     </g>
    </g>
    <g id="xtick_9">
     <g id="line2d_9">
      <g>
       <use xlink:href="#m8a72cf0719" x="491.781519" y="541.28" style="fill: #555555; stroke: #555555; stroke-width: 0.8"/>
      </g>
     </g>
     <g id="text_9">
      <!-- Nov -->
      <g style="fill: #555555" transform="translate(476.55105 558.917812)scale(0.14 -0.14)">
       <defs>
        <path id="DejaVuSans-Bold-4e" d="M 588 4666 
L 1931 4666 
L 3628 1466 
L 3628 4666 
L 4769 4666 
L 4769 0 
L 3425 0 
L 1728 3200 
L 1728 0 
L 588 0 
L 588 4666 
z
" transform="scale(0.015625)"/>
        <path id="DejaVuSans-Bold-6f" d="M 2203 2784 
Q 1831 2784 1636 2517 
Q 1441 2250 1441 1747 
Q 1441 1244 1636 976 
Q 1831 709 2203 709 
Q 2569 709 2762 976 
Q 2956 1244 2956 1747 
Q 2956 2250 2762 2517 
Q 2569 2784 2203 2784 
z
M 2203 3584 
Q 3106 3584 3614 3096 
Q 4122 2609 4122 1747 
Q 4122 884 3614 396 
Q 3106 -91 2203 -91 
Q 1297 -91 786 396 
Q 275 884 275 1747 
Q 275 2609 786 3096 
Q 1297 3584 2203 3584 
z
" transform="scale(0.015625)"/>
        <path id="DejaVuSans-Bold-76" d="M 97 3500 
L 1216 3500 
L 2088 1081 
L 2956 3500 
L 4078 3500 
L 2700 0 
L 1472 0 
L 97 3500 
z
" transform="scale(0.015625)"/>
       </defs>
       <use xlink:href="#DejaVuSans-Bold-4e"/>
       <use xlink:href="#DejaVuSans-Bold-6f" x="83.691406"/>
       <use xlink:href="#DejaVuSans-Bold-76" x="152.392578"/>
      </g>
     </g>
    </g>
    <g id="xtick_10">
     <g id="line2d_10">
      <g>
       <use xlink:href="#m8a72cf0719" x="536.313574" y="541.28" style="fill: #555555; stroke: #555555; stroke-width: 0.8"/>
      </g>
     </g>
     <g id="text_10">
      <!-- Dec -->
      <g style="fill: #555555" transform="translate(521.604824 558.917812)scale(0.14 -0.14)">
       <defs>
        <path id="DejaVuSans-Bold-44" d="M 1791 3756 
L 1791 909 
L 2222 909 
Q 2959 909 3348 1275 
Q 3738 1641 3738 2338 
Q 3738 3031 3350 3393 
Q 2963 3756 2222 3756 
L 1791 3756 
z
M 588 4666 
L 1856 4666 
Q 2919 4666 3439 4514 
Q 3959 4363 4331 4000 
Q 4659 3684 4818 3271 
Q 4978 2859 4978 2338 
Q 4978 1809 4818 1395 
Q 4659 981 4331 666 
Q 3956 303 3431 151 
Q 2906 0 1856 0 
L 588 0 
L 588 4666 
z
" transform="scale(0.015625)"/>
       </defs>
       <use xlink:href="#DejaVuSans-Bold-44"/>
       <use xlink:href="#DejaVuSans-Bold-65" x="83.007812"/>
       <use xlink:href="#DejaVuSans-Bold-63" x="150.830078"/>
      </g>
     </g>
    </g>
    <g id="xtick_11">
     <g id="line2d_11">
      <g>
       <use xlink:href="#m8a72cf0719" x="582.330031" y="541.28" style="fill: #555555; stroke: #555555; stroke-width: 0.8"/>
      </g>
     </g>
     <g id="text_11">
      <!-- Jan -->
      <g style="fill: #555555" transform="translate(570.018781 558.917812)scale(0.14 -0.14)">
       <use xlink:href="#DejaVuSans-Bold-4a"/>
       <use xlink:href="#DejaVuSans-Bold-61" x="37.207031"/>
       <use xlink:href="#DejaVuSans-Bold-6e" x="104.6875"/>
      </g>
     </g>
    </g>
    <g id="xtick_12">
     <g id="line2d_12">
      <g>
       <use xlink:href="#m8a72cf0719" x="628.346488" y="541.28" style="fill: #555555; stroke: #555555; stroke-width: 0.8"/>
      </g>
     </g>
     <g id="text_12">
      <!-- Feb -->
      <g style="fill: #555555" transform="translate(614.086175 558.917812)scale(0.14 -0.14)">
       <defs>
        <path id="DejaVuSans-Bold-46" d="M 588 4666 
L 3834 4666 
L 3834 3756 
L 1791 3756 
L 1791 2888 
L 3713 2888 
L 3713 1978 
L 1791 1978 
L 1791 0 
L 588 0 
L 588 4666 
z
" transform="scale(0.015625)"/>
        <path id="DejaVuSans-Bold-62" d="M 2400 722 
Q 2759 722 2948 984 
Q 3138 1247 3138 1747 
Q 3138 2247 2948 2509 
Q 2759 2772 2400 2772 
Q 2041 2772 1848 2508 
Q 1656 2244 1656 1747 
Q 1656 1250 1848 986 
Q 2041 722 2400 722 
z
M 1656 2988 
Q 1888 3294 2169 3439 
Q 2450 3584 2816 3584 
Q 3463 3584 3878 3070 
Q 4294 2556 4294 1747 
Q 4294 938 3878 423 
Q 3463 -91 2816 -91 
Q 2450 -91 2169 54 
Q 1888 200 1656 506 
L 1656 0 
L 538 0 
L 538 4863 
L 1656 4863 
L 1656 2988 
z
" transform="scale(0.015625)"/>
       </defs>
       <use xlink:href="#DejaVuSans-Bold-46"/>
       <use xlink:href="#DejaVuSans-Bold-65" x="64.310547"/>
       <use xlink:href="#DejaVuSans-Bold-62" x="132.132812"/>
      </g>
     </g>
    </g>
    <g id="xtick_13">
     <g id="line2d_13">
      <g>
       <use xlink:href="#m8a72cf0719" x="669.909739" y="541.28" style="fill: #555555; stroke: #555555; stroke-width: 0.8"/>
      </g>
     </g>
     <g id="text_13">
      <!-- Mar -->
      <g style="fill: #555555" transform="translate(654.767864 558.917812)scale(0.14 -0.14)">
       <use xlink:href="#DejaVuSans-Bold-4d"/>
       <use xlink:href="#DejaVuSans-Bold-61" x="99.511719"/>
       <use xlink:href="#DejaVuSans-Bold-72" x="166.992188"/>
      </g>
     </g>
    </g>
    <g id="xtick_14">
     <g id="line2d_14">
      <g>
       <use xlink:href="#m8a72cf0719" x="715.926196" y="541.28" style="fill: #555555; stroke: #555555; stroke-width: 0.8"/>
      </g>
     </g>
     <g id="text_14">
      <!-- Apr -->
      <g style="fill: #555555" transform="translate(702.046509 558.917812)scale(0.14 -0.14)">
       <use xlink:href="#DejaVuSans-Bold-41"/>
       <use xlink:href="#DejaVuSans-Bold-70" x="77.392578"/>
       <use xlink:href="#DejaVuSans-Bold-72" x="148.974609"/>
      </g>
     </g>
    </g>
    <g id="xtick_15">
     <g id="line2d_15">
      <g>
       <use xlink:href="#m8a72cf0719" x="760.458251" y="541.28" style="fill: #555555; stroke: #555555; stroke-width: 0.8"/>
      </g>
     </g>
     <g id="text_15">
      <!-- May -->
      <g style="fill: #555555" transform="translate(744.423876 558.808437)scale(0.14 -0.14)">
       <use xlink:href="#DejaVuSans-Bold-4d"/>
       <use xlink:href="#DejaVuSans-Bold-61" x="99.511719"/>
       <use xlink:href="#DejaVuSans-Bold-79" x="163.867188"/>
      </g>
     </g>
    </g>
    <g id="xtick_16">
     <g id="line2d_16">
      <g>
       <use xlink:href="#m8a72cf0719" x="806.474708" y="541.28" style="fill: #555555; stroke: #555555; stroke-width: 0.8"/>
      </g>
     </g>
     <g id="text_16">
      <!-- Jun -->
      <g style="fill: #555555" transform="translate(793.904239 558.917812)scale(0.14 -0.14)">
       <use xlink:href="#DejaVuSans-Bold-4a"/>
       <use xlink:href="#DejaVuSans-Bold-75" x="37.207031"/>
       <use xlink:href="#DejaVuSans-Bold-6e" x="108.398438"/>
      </g>
     </g>
    </g>
    <g id="xtick_17">
     <g id="line2d_17">
      <g>
       <use xlink:href="#m8a72cf0719" x="851.006763" y="541.28" style="fill: #555555; stroke: #555555; stroke-width: 0.8"/>
      </g>
     </g>
     <g id="text_17">
      <!-- Jul -->
      <g style="fill: #555555" transform="translate(841.019732 558.917812)scale(0.14 -0.14)">
       <use xlink:href="#DejaVuSans-Bold-4a"/>
       <use xlink:href="#DejaVuSans-Bold-75" x="37.207031"/>
       <use xlink:href="#DejaVuSans-Bold-6c" x="108.398438"/>
      </g>
     </g>
    </g>
    <g id="xtick_18">
     <g id="line2d_18">
      <g>
       <use xlink:href="#m8a72cf0719" x="897.02322" y="541.28" style="fill: #555555; stroke: #555555; stroke-width: 0.8"/>
      </g>
     </g>
     <g id="text_18">
      <!-- Aug -->
      <g style="fill: #555555" transform="translate(881.612283 558.808437)scale(0.14 -0.14)">
       <use xlink:href="#DejaVuSans-Bold-41"/>
       <use xlink:href="#DejaVuSans-Bold-75" x="77.392578"/>
       <use xlink:href="#DejaVuSans-Bold-67" x="148.583984"/>
      </g>
     </g>
    </g>
    <g id="xtick_19">
     <g id="line2d_19">
      <g>
       <use xlink:href="#m8a72cf0719" x="943.039677" y="541.28" style="fill: #555555; stroke: #555555; stroke-width: 0.8"/>
      </g>
     </g>
     <g id="text_19">
      <!-- Sep -->
      <g style="fill: #555555" transform="translate(928.240146 558.917812)scale(0.14 -0.14)">
       <use xlink:href="#DejaVuSans-Bold-53"/>
       <use xlink:href="#DejaVuSans-Bold-65" x="72.021484"/>
       <use xlink:href="#DejaVuSans-Bold-70" x="139.84375"/>
      </g>
     </g>
    </g>
    <g id="xtick_20">
     <g id="line2d_20">
      <g>
       <use xlink:href="#m8a72cf0719" x="987.571732" y="541.28" style="fill: #555555; stroke: #555555; stroke-width: 0.8"/>
      </g>
     </g>
     <g id="text_20">
      <!-- Oct -->
      <g style="fill: #555555" transform="translate(974.12517 558.917812)scale(0.14 -0.14)">
       <use xlink:href="#DejaVuSans-Bold-4f"/>
       <use xlink:href="#DejaVuSans-Bold-63" x="85.009766"/>
       <use xlink:href="#DejaVuSans-Bold-74" x="144.287109"/>
      </g>
     </g>
    </g>
    <g id="xtick_21">
     <g id="line2d_21">
      <g>
       <use xlink:href="#m8a72cf0719" x="1033.588189" y="541.28" style="fill: #555555; stroke: #555555; stroke-width: 0.8"/>
      </g>
     </g>
     <g id="text_21">
      <!-- Nov -->
      <g style="fill: #555555" transform="translate(1018.35772 558.917812)scale(0.14 -0.14)">
       <use xlink:href="#DejaVuSans-Bold-4e"/>
       <use xlink:href="#DejaVuSans-Bold-6f" x="83.691406"/>
       <use xlink:href="#DejaVuSans-Bold-76" x="152.392578"/>
      </g>
     </g>
    </g>
    <g id="xtick_22">
     <g id="line2d_22">
      <g>
       <use xlink:href="#m8a72cf0719" x="1078.120244" y="541.28" style="fill: #555555; stroke: #555555; stroke-width: 0.8"/>
      </g>
     </g>
     <g id="text_22">
      <!-- Dec -->
      <g style="fill: #555555" transform="translate(1063.411494 558.917812)scale(0.14 -0.14)">
       <use xlink:href="#DejaVuSans-Bold-44"/>
       <use xlink:href="#DejaVuSans-Bold-65" x="83.007812"/>
       <use xlink:href="#DejaVuSans-Bold-63" x="150.830078"/>
      </g>
     </g>
    </g>
    <g id="xtick_23">
     <g id="line2d_23">
      <g>
       <use xlink:href="#m8a72cf0719" x="1124.136701" y="541.28" style="fill: #555555; stroke: #555555; stroke-width: 0.8"/>
      </g>
     </g>
     <g id="text_23">
      <!-- Jan -->
      <g style="fill: #555555" transform="translate(1111.825451 558.917812)scale(0.14 -0.14)">
       <use xlink:href="#DejaVuSans-Bold-4a"/>
       <use xlink:href="#DejaVuSans-Bold-61" x="37.207031"/>
       <use xlink:href="#DejaVuSans-Bold-6e" x="104.6875"/>
      </g>
     </g>
    </g>
   </g>
   <g id="matplotlib.axis_2">
    <g id="ytick_1">
     <g id="line2d_24">
      <defs>
       <path id="m34ca2fee2d" d="M 0 0 
L -3.5 0 
" style="stroke: #555555; stroke-width: 0.8"/>
      </defs>
      <g>
       <use xlink:href="#m34ca2fee2d" x="87.95" y="518.989999" style="fill: #555555; stroke: #555555; stroke-width: 0.8"/>
      </g>
     </g>
     <g id="text_24">
      <!-- 0 -->
      <g style="fill: #555555" transform="translate(71.209063 524.308905)scale(0.14 -0.14)">
       <defs>
        <path id="DejaVuSans-Bold-30" d="M 2944 2338 
Q 2944 3213 2780 3570 
Q 2616 3928 2228 3928 
Q 1841 3928 1675 3570 
Q 1509 3213 1509 2338 
Q 1509 1453 1675 1090 
Q 1841 728 2228 728 
Q 2613 728 2778 1090 
Q 2944 1453 2944 2338 
z
M 4147 2328 
Q 4147 1169 3647 539 
Q 3147 -91 2228 -91 
Q 1306 -91 806 539 
Q 306 1169 306 2328 
Q 306 3491 806 4120 
Q 1306 4750 2228 4750 
Q 3147 4750 3647 4120 
Q 4147 3491 4147 2328 
z
" transform="scale(0.015625)"/>
       </defs>
       <use xlink:href="#DejaVuSans-Bold-30"/>
      </g>
     </g>
    </g>
    <g id="ytick_2">
     <g id="line2d_25">
      <g>
       <use xlink:href="#m34ca2fee2d" x="87.95" y="422.362631" style="fill: #555555; stroke: #555555; stroke-width: 0.8"/>
      </g>
     </g>
     <g id="text_25">
      <!-- 5000 -->
      <g style="fill: #555555" transform="translate(41.98625 427.681537)scale(0.14 -0.14)">
       <defs>
        <path id="DejaVuSans-Bold-35" d="M 678 4666 
L 3669 4666 
L 3669 3781 
L 1638 3781 
L 1638 3059 
Q 1775 3097 1914 3117 
Q 2053 3138 2203 3138 
Q 3056 3138 3531 2711 
Q 4006 2284 4006 1522 
Q 4006 766 3489 337 
Q 2972 -91 2053 -91 
Q 1656 -91 1267 -14 
Q 878 63 494 219 
L 494 1166 
Q 875 947 1217 837 
Q 1559 728 1863 728 
Q 2300 728 2551 942 
Q 2803 1156 2803 1522 
Q 2803 1891 2551 2103 
Q 2300 2316 1863 2316 
Q 1603 2316 1309 2248 
Q 1016 2181 678 2041 
L 678 4666 
z
" transform="scale(0.015625)"/>
       </defs>
       <use xlink:href="#DejaVuSans-Bold-35"/>
       <use xlink:href="#DejaVuSans-Bold-30" x="69.580078"/>
       <use xlink:href="#DejaVuSans-Bold-30" x="139.160156"/>
       <use xlink:href="#DejaVuSans-Bold-30" x="208.740234"/>
      </g>
     </g>
    </g>
    <g id="ytick_3">
     <g id="line2d_26">
      <g>
       <use xlink:href="#m34ca2fee2d" x="87.95" y="325.735263" style="fill: #555555; stroke: #555555; stroke-width: 0.8"/>
      </g>
     </g>
     <g id="text_26">
      <!-- 10000 -->
      <g style="fill: #555555" transform="translate(32.245313 331.054169)scale(0.14 -0.14)">
       <defs>
        <path id="DejaVuSans-Bold-31" d="M 750 831 
L 1813 831 
L 1813 3847 
L 722 3622 
L 722 4441 
L 1806 4666 
L 2950 4666 
L 2950 831 
L 4013 831 
L 4013 0 
L 750 0 
L 750 831 
z
" transform="scale(0.015625)"/>
       </defs>
       <use xlink:href="#DejaVuSans-Bold-31"/>
       <use xlink:href="#DejaVuSans-Bold-30" x="69.580078"/>
       <use xlink:href="#DejaVuSans-Bold-30" x="139.160156"/>
       <use xlink:href="#DejaVuSans-Bold-30" x="208.740234"/>
       <use xlink:href="#DejaVuSans-Bold-30" x="278.320312"/>
      </g>
     </g>
    </g>
    <g id="ytick_4">
     <g id="line2d_27">
      <g>
       <use xlink:href="#m34ca2fee2d" x="87.95" y="229.107895" style="fill: #555555; stroke: #555555; stroke-width: 0.8"/>
      </g>
     </g>
     <g id="text_27">
      <!-- 15000 -->
      <g style="fill: #555555" transform="translate(32.245313 234.426801)scale(0.14 -0.14)">
       <use xlink:href="#DejaVuSans-Bold-31"/>
       <use xlink:href="#DejaVuSans-Bold-35" x="69.580078"/>
       <use xlink:href="#DejaVuSans-Bold-30" x="139.160156"/>
       <use xlink:href="#DejaVuSans-Bold-30" x="208.740234"/>
       <use xlink:href="#DejaVuSans-Bold-30" x="278.320312"/>
      </g>
     </g>
    </g>
    <g id="ytick_5">
     <g id="line2d_28">
      <g>
       <use xlink:href="#m34ca2fee2d" x="87.95" y="132.480527" style="fill: #555555; stroke: #555555; stroke-width: 0.8"/>
      </g>
     </g>
     <g id="text_28">
      <!-- 20000 -->
      <g style="fill: #555555" transform="translate(32.245313 137.799433)scale(0.14 -0.14)">
       <defs>
        <path id="DejaVuSans-Bold-32" d="M 1844 884 
L 3897 884 
L 3897 0 
L 506 0 
L 506 884 
L 2209 2388 
Q 2438 2594 2547 2791 
Q 2656 2988 2656 3200 
Q 2656 3528 2436 3728 
Q 2216 3928 1850 3928 
Q 1569 3928 1234 3808 
Q 900 3688 519 3450 
L 519 4475 
Q 925 4609 1322 4679 
Q 1719 4750 2100 4750 
Q 2938 4750 3402 4381 
Q 3866 4013 3866 3353 
Q 3866 2972 3669 2642 
Q 3472 2313 2841 1759 
L 1844 884 
z
" transform="scale(0.015625)"/>
       </defs>
       <use xlink:href="#DejaVuSans-Bold-32"/>
       <use xlink:href="#DejaVuSans-Bold-30" x="69.580078"/>
       <use xlink:href="#DejaVuSans-Bold-30" x="139.160156"/>
       <use xlink:href="#DejaVuSans-Bold-30" x="208.740234"/>
       <use xlink:href="#DejaVuSans-Bold-30" x="278.320312"/>
      </g>
     </g>
    </g>
    <g id="text_29">
     <!-- New Cases -->
     <g style="fill: #555555" transform="translate(24.917813 333.23875)rotate(-90)scale(0.16 -0.16)">
      <defs>
       <path id="DejaVuSans-4e" d="M 628 4666 
L 1478 4666 
L 3547 763 
L 3547 4666 
L 4159 4666 
L 4159 0 
L 3309 0 
L 1241 3903 
L 1241 0 
L 628 0 
L 628 4666 
z
" transform="scale(0.015625)"/>
       <path id="DejaVuSans-65" d="M 3597 1894 
L 3597 1613 
L 953 1613 
Q 991 1019 1311 708 
Q 1631 397 2203 397 
Q 2534 397 2845 478 
Q 3156 559 3463 722 
L 3463 178 
Q 3153 47 2828 -22 
Q 2503 -91 2169 -91 
Q 1331 -91 842 396 
Q 353 884 353 1716 
Q 353 2575 817 3079 
Q 1281 3584 2069 3584 
Q 2775 3584 3186 3129 
Q 3597 2675 3597 1894 
z
M 3022 2063 
Q 3016 2534 2758 2815 
Q 2500 3097 2075 3097 
Q 1594 3097 1305 2825 
Q 1016 2553 972 2059 
L 3022 2063 
z
" transform="scale(0.015625)"/>
       <path id="DejaVuSans-77" d="M 269 3500 
L 844 3500 
L 1563 769 
L 2278 3500 
L 2956 3500 
L 3675 769 
L 4391 3500 
L 4966 3500 
L 4050 0 
L 3372 0 
L 2619 2869 
L 1863 0 
L 1184 0 
L 269 3500 
z
" transform="scale(0.015625)"/>
       <path id="DejaVuSans-20" transform="scale(0.015625)"/>
       <path id="DejaVuSans-43" d="M 4122 4306 
L 4122 3641 
Q 3803 3938 3442 4084 
Q 3081 4231 2675 4231 
Q 1875 4231 1450 3742 
Q 1025 3253 1025 2328 
Q 1025 1406 1450 917 
Q 1875 428 2675 428 
Q 3081 428 3442 575 
Q 3803 722 4122 1019 
L 4122 359 
Q 3791 134 3420 21 
Q 3050 -91 2638 -91 
Q 1578 -91 968 557 
Q 359 1206 359 2328 
Q 359 3453 968 4101 
Q 1578 4750 2638 4750 
Q 3056 4750 3426 4639 
Q 3797 4528 4122 4306 
z
" transform="scale(0.015625)"/>
       <path id="DejaVuSans-61" d="M 2194 1759 
Q 1497 1759 1228 1600 
Q 959 1441 959 1056 
Q 959 750 1161 570 
Q 1363 391 1709 391 
Q 2188 391 2477 730 
Q 2766 1069 2766 1631 
L 2766 1759 
L 2194 1759 
z
M 3341 1997 
L 3341 0 
L 2766 0 
L 2766 531 
Q 2569 213 2275 61 
Q 1981 -91 1556 -91 
Q 1019 -91 701 211 
Q 384 513 384 1019 
Q 384 1609 779 1909 
Q 1175 2209 1959 2209 
L 2766 2209 
L 2766 2266 
Q 2766 2663 2505 2880 
Q 2244 3097 1772 3097 
Q 1472 3097 1187 3025 
Q 903 2953 641 2809 
L 641 3341 
Q 956 3463 1253 3523 
Q 1550 3584 1831 3584 
Q 2591 3584 2966 3190 
Q 3341 2797 3341 1997 
z
" transform="scale(0.015625)"/>
       <path id="DejaVuSans-73" d="M 2834 3397 
L 2834 2853 
Q 2591 2978 2328 3040 
Q 2066 3103 1784 3103 
Q 1356 3103 1142 2972 
Q 928 2841 928 2578 
Q 928 2378 1081 2264 
Q 1234 2150 1697 2047 
L 1894 2003 
Q 2506 1872 2764 1633 
Q 3022 1394 3022 966 
Q 3022 478 2636 193 
Q 2250 -91 1575 -91 
Q 1294 -91 989 -36 
Q 684 19 347 128 
L 347 722 
Q 666 556 975 473 
Q 1284 391 1588 391 
Q 1994 391 2212 530 
Q 2431 669 2431 922 
Q 2431 1156 2273 1281 
Q 2116 1406 1581 1522 
L 1381 1569 
Q 847 1681 609 1914 
Q 372 2147 372 2553 
Q 372 3047 722 3315 
Q 1072 3584 1716 3584 
Q 2034 3584 2315 3537 
Q 2597 3491 2834 3397 
z
" transform="scale(0.015625)"/>
      </defs>
      <use xlink:href="#DejaVuSans-4e"/>
      <use xlink:href="#DejaVuSans-65" x="74.804688"/>
      <use xlink:href="#DejaVuSans-77" x="136.328125"/>
      <use xlink:href="#DejaVuSans-20" x="218.115234"/>
      <use xlink:href="#DejaVuSans-43" x="249.902344"/>
      <use xlink:href="#DejaVuSans-61" x="319.726562"/>
      <use xlink:href="#DejaVuSans-73" x="381.005859"/>
      <use xlink:href="#DejaVuSans-65" x="433.105469"/>
      <use xlink:href="#DejaVuSans-73" x="494.628906"/>
     </g>
    </g>
   </g>
   <g id="line2d_29">
    <path d="M 135.525079 518.21698 
L 137.009481 518.023725 
L 138.493882 518.371584 
L 139.978284 517.811145 
L 141.462686 516.477687 
L 142.947088 516.612966 
L 144.43149 516.535664 
L 145.915892 516.80622 
L 147.400293 514.75772 
L 148.884695 515.646692 
L 150.369097 513.772121 
L 151.853499 513.424262 
L 153.337901 512.284059 
L 154.822303 511.337111 
L 156.306704 508.689521 
L 157.791106 506.679672 
L 159.275508 507.298087 
L 160.75991 508.303012 
L 162.244312 504.515219 
L 163.728714 502.698625 
L 166.697517 496.437171 
L 168.181919 496.843006 
L 169.666321 497.886582 
L 171.150723 502.11886 
L 172.635125 502.872554 
L 174.119527 499.509921 
L 175.603928 498.060511 
L 177.08833 499.278016 
L 178.572732 499.625874 
L 180.057134 497.751303 
L 183.025938 503.877478 
L 184.510339 500.45687 
L 185.994741 495.644827 
L 187.479143 493.345095 
L 188.963545 493.847558 
L 190.447947 496.359869 
L 191.932349 500.45687 
L 193.41675 502.331441 
L 194.901152 504.882403 
L 196.385554 498.331068 
L 197.869956 495.142364 
L 199.354358 496.069987 
L 200.83876 499.220039 
L 202.323161 504.534545 
L 203.807563 505.15296 
L 205.291965 505.307563 
L 206.776367 502.099535 
L 208.260769 503.432993 
L 209.745171 506.486417 
L 211.229572 506.409115 
L 212.713974 511.163182 
L 214.198376 515.260182 
L 215.682778 511.491715 
L 217.16718 509.191984 
L 218.651582 509.752422 
L 220.135983 510.544767 
L 221.620385 512.457989 
L 223.104787 515.105579 
L 224.589189 512.825173 
L 226.073591 512.825173 
L 227.557993 512.013503 
L 229.042394 512.825173 
L 230.526796 513.424262 
L 232.011198 514.313234 
L 233.4956 515.530739 
L 234.980002 515.221531 
L 236.464404 514.680418 
L 237.948805 513.694819 
L 239.433207 515.086253 
L 240.917609 515.240857 
L 242.402011 516.574315 
L 243.886413 516.129829 
L 245.370815 516.844871 
L 246.855216 515.376135 
L 248.339618 514.081328 
L 249.82402 515.434112 
L 252.792824 515.646692 
L 254.277226 514.873673 
L 255.761627 516.497013 
L 257.246029 515.240857 
L 258.730431 515.550064 
L 260.214833 515.550064 
L 261.699235 516.265107 
L 263.183637 515.588715 
L 264.668038 516.98015 
L 266.15244 517.154079 
L 267.636842 517.19273 
L 269.121244 515.35681 
L 270.605646 514.796371 
L 272.090048 515.318159 
L 273.574449 514.371211 
L 275.058851 515.78197 
L 276.543253 515.820621 
L 278.027655 515.492088 
L 279.512057 515.859272 
L 280.996459 514.989626 
L 282.48086 515.492088 
L 283.965262 516.207131 
L 285.449664 515.917248 
L 288.418468 516.80622 
L 289.90287 516.59364 
L 292.871673 517.250706 
L 294.356075 517.154079 
L 295.840477 517.675867 
L 297.324879 517.637216 
L 298.809281 517.443961 
L 300.293682 516.864197 
L 303.262486 517.501937 
L 304.746888 517.714518 
L 306.23129 517.521263 
L 307.715692 517.888447 
L 309.200093 517.791819 
L 310.684495 517.540588 
L 312.168897 517.521263 
L 313.653299 517.733843 
L 315.137701 517.598565 
L 316.622103 518.197654 
L 318.106505 518.332933 
L 319.590906 517.888447 
L 322.55971 517.733843 
L 324.044112 517.366659 
L 325.528514 517.154079 
L 327.012916 517.598565 
L 328.497317 517.096102 
L 331.466121 516.690267 
L 332.950523 516.883522 
L 334.434925 516.187805 
L 335.919327 516.187805 
L 337.403728 515.453437 
L 338.88813 515.723994 
L 340.372532 515.704668 
L 343.341336 515.99455 
L 346.310139 514.873673 
L 347.794541 514.950975 
L 349.278943 514.661093 
L 350.763345 514.197281 
L 352.247747 512.400012 
L 353.732149 512.400012 
L 355.21655 510.66072 
L 356.700952 512.052154 
L 358.185354 511.800923 
L 359.669756 509.578493 
L 361.154158 510.718696 
L 362.63856 507.298087 
L 364.122961 508.998729 
L 365.607363 509.63647 
L 367.091765 507.839201 
L 368.576167 503.780851 
L 370.060569 507.008205 
L 371.544971 506.409115 
L 373.029372 507.858526 
L 374.513774 506.872927 
L 375.998176 506.312488 
L 377.482578 509.346587 
L 378.96698 509.597819 
L 380.451382 509.46254 
L 381.935783 508.303012 
L 383.420185 508.728172 
L 384.904587 508.689521 
L 386.388989 509.191984 
L 387.873391 510.196908 
L 389.357793 507.916502 
L 390.842194 510.950602 
L 392.326596 507.935828 
L 393.810998 509.172658 
L 395.2954 509.307937 
L 398.264204 509.211309 
L 399.748605 508.8248 
L 401.233007 509.965003 
L 402.717409 505.075658 
L 404.201811 507.41404 
L 405.686213 504.631172 
L 407.170615 506.447766 
L 408.655016 501.210563 
L 410.139418 503.626247 
L 413.108222 496.958959 
L 414.592624 502.814577 
L 416.077026 494.427322 
L 417.561427 495.37427 
L 419.045829 497.983209 
L 420.530231 493.92486 
L 422.014633 492.398147 
L 423.499035 489.286746 
L 426.467838 481.208698 
L 427.95224 482.426203 
L 429.436642 483.353825 
L 430.921044 476.261377 
L 432.405446 475.758914 
L 433.889848 473.884343 
L 435.374249 469.980598 
L 436.858651 465.57439 
L 438.343053 466.81122 
L 439.827455 461.477389 
L 441.311857 462.907474 
L 442.796259 460.936276 
L 444.28066 455.486493 
L 445.765062 456.124233 
L 447.249464 445.475897 
L 448.733866 442.94426 
L 450.218268 442.016637 
L 451.70267 430.962467 
L 453.187071 431.658184 
L 454.671473 422.903744 
L 456.155875 407.21146 
L 457.640277 403.810176 
L 459.124679 393.799581 
L 460.609081 396.427845 
L 462.093482 387.518802 
L 463.577884 377.276301 
L 465.062286 378.86099 
L 466.546688 368.695791 
L 468.03109 365.352484 
L 469.515492 362.357035 
L 470.999893 361.52604 
L 472.484295 364.656767 
L 473.968697 361.603342 
L 476.937501 340.210043 
L 478.421903 326.276376 
L 479.906305 351.979256 
L 481.390706 322.488583 
L 482.875108 319.879644 
L 484.35951 320.594687 
L 485.843912 362.898149 
L 487.328314 321.000522 
L 488.812716 305.134308 
L 490.297117 330.160796 
L 491.781519 351.264214 
L 493.265921 359.284285 
L 494.750323 369.449484 
L 496.234725 372.1164 
L 497.719127 384.755259 
L 499.203528 379.344127 
L 500.68793 391.132666 
L 503.656734 428.759363 
L 505.141136 429.242499 
L 506.625538 414.960974 
L 508.109939 410.400163 
L 509.594341 401.723025 
L 511.078743 405.027681 
L 512.563145 414.284583 
L 515.531949 436.276972 
L 517.01635 430.421353 
L 518.500752 409.105356 
L 519.985154 404.370615 
L 521.469556 402.959855 
L 522.953958 415.444111 
L 524.43836 418.86472 
L 525.922761 442.712355 
L 527.407163 424.101923 
L 528.891565 432.643783 
L 530.375967 407.8492 
L 531.860369 432.701759 
L 533.344771 411.443738 
L 534.829172 430.633934 
L 536.313574 440.953736 
L 537.797976 424.140574 
L 539.282378 410.8833 
L 540.76678 405.143634 
L 542.251182 392.813982 
L 543.735583 388.330472 
L 545.219985 381.895089 
L 546.704387 400.737426 
L 548.188789 392.5241 
L 549.673191 350.684449 
L 551.157593 348.210789 
L 552.641994 342.703029 
L 554.126396 328.112296 
L 555.610798 355.477167 
L 557.0952 390.842783 
L 558.579602 303.201761 
L 560.064004 272.049097 
L 561.548405 287.934637 
L 563.032807 282.75541 
L 564.517209 267.816819 
L 566.001611 303.395016 
L 567.486013 329.175197 
L 568.970415 318.179003 
L 570.454816 296.863005 
L 571.939218 296.84368 
L 573.42362 329.310476 
L 574.908022 344.964109 
L 576.392424 376.020145 
L 577.876826 373.701088 
L 579.361227 336.383599 
L 580.845629 332.228622 
L 582.330031 361.120205 
L 583.814433 353.003506 
L 585.298835 376.058796 
L 586.783237 390.823458 
L 588.267638 395.906058 
L 589.75204 381.991717 
L 591.236442 331.958065 
L 592.720844 362.221757 
L 595.689648 391.403222 
L 597.174049 413.704819 
L 598.658451 423.483508 
L 600.142853 401.278539 
L 601.627255 393.393746 
L 603.111657 402.55402 
L 604.596059 416.661616 
L 606.08046 411.115205 
L 607.564862 426.536933 
L 609.049264 435.98709 
L 610.533666 411.366436 
L 612.018068 406.805625 
L 613.50247 407.965153 
L 614.986871 413.74347 
L 616.471273 424.662362 
L 617.955675 439.968137 
L 619.440077 442.480449 
L 620.924479 427.677136 
L 622.408881 428.334202 
L 623.893282 434.015891 
L 625.377684 438.364123 
L 626.862086 447.930232 
L 628.346488 456.414115 
L 629.83089 450.423219 
L 631.315292 441.340246 
L 632.799694 437.842335 
L 634.284095 435.561929 
L 635.768497 439.987463 
L 637.252899 443.272793 
L 638.737301 475.372405 
L 640.221703 484.996491 
L 641.706105 457.670271 
L 643.190506 433.436127 
L 644.674908 435.368675 
L 646.15931 438.364123 
L 647.643712 452.800252 
L 649.128114 464.067003 
L 650.612516 467.004475 
L 652.096917 453.901804 
L 653.581319 430.90449 
L 655.065721 428.624084 
L 656.550123 431.271674 
L 658.034525 428.759363 
L 659.518927 438.228845 
L 661.003328 445.37927 
L 662.48773 434.57633 
L 663.972132 422.652513 
L 665.456534 420.642664 
L 666.940936 423.870018 
L 668.425338 429.435754 
L 669.909739 446.538798 
L 671.394141 442.364496 
L 672.878543 421.918145 
L 674.362945 439.910161 
L 675.847347 428.894641 
L 677.331749 416.333083 
L 678.81615 431.870764 
L 680.300552 443.929859 
L 681.784954 436.161019 
L 683.269356 417.357333 
L 684.753758 416.622965 
L 686.23816 403.520294 
L 687.722561 395.790105 
L 690.691365 412.661243 
L 692.175767 423.483508 
L 693.660169 404.815101 
L 695.144571 400.50552 
L 696.628972 376.986419 
L 698.113374 372.077749 
L 701.082178 397.239515 
L 702.56658 410.612743 
L 704.050982 372.96672 
L 705.535383 370.415758 
L 707.019785 372.928069 
L 708.504187 349.27369 
L 709.988589 374.628711 
L 711.472991 387.943962 
L 712.957393 405.839351 
L 714.441794 371.555961 
L 715.926196 367.884121 
L 717.410598 379.576032 
L 718.895 372.174376 
L 720.379402 386.378599 
L 721.863804 415.907923 
L 723.348205 411.559691 
L 724.832607 395.906058 
L 726.317009 369.004998 
L 727.801411 370.956871 
L 729.285813 370.976197 
L 730.770215 361.641993 
L 732.254616 390.320996 
L 733.739018 389.084165 
L 735.22342 413.859422 
L 736.707822 350.974331 
L 738.192224 347.186539 
L 739.676626 359.496865 
L 741.161027 354.298313 
L 742.645429 380.658259 
L 744.129831 387.170943 
L 745.614233 355.264587 
L 747.098635 333.871287 
L 748.583037 340.51925 
L 750.067438 363.188031 
L 751.55184 363.999701 
L 753.036242 398.6696 
L 754.520644 416.468361 
L 756.005046 351.805327 
L 757.489448 378.242575 
L 758.973849 368.947022 
L 760.458251 407.230785 
L 761.942653 413.453588 
L 763.427055 341.466198 
L 764.911457 369.062975 
L 767.88026 388.485076 
L 769.364662 374.841291 
L 770.849064 375.517683 
L 773.817868 405.723398 
L 775.30227 412.216757 
L 776.786671 396.447171 
L 778.271073 402.805252 
L 779.755475 411.868899 
L 781.239877 432.566481 
L 782.724279 433.494104 
L 784.208681 463.757795 
L 785.693083 416.081852 
L 787.177484 431.097745 
L 788.661886 429.783613 
L 790.146288 439.021189 
L 791.63069 457.670271 
L 793.115092 452.838903 
L 794.599494 466.270107 
L 796.083895 470.985522 
L 797.568297 466.076852 
L 799.052699 453.766525 
L 800.537101 444.799506 
L 802.021503 454.34629 
L 803.505905 468.318607 
L 804.990306 479.952542 
L 806.474708 471.062824 
L 807.95911 469.536112 
L 809.443512 465.632366 
L 810.927914 472.70549 
L 812.412316 478.058646 
L 813.896717 488.687656 
L 815.381119 490.620204 
L 816.865521 491.238619 
L 818.349923 485.151095 
L 819.834325 488.513727 
L 821.318727 492.185567 
L 822.803128 495.045737 
L 824.28753 498.872181 
L 825.771932 502.002907 
L 827.256334 498.891506 
L 828.740736 499.200714 
L 830.225138 498.524322 
L 831.709539 501.790327 
L 833.193941 505.616771 
L 834.678343 505.268913 
L 836.162745 507.993804 
L 837.647147 505.500818 
L 839.131549 506.138559 
L 840.61595 505.539469 
L 842.100352 506.505743 
L 843.584754 508.264361 
L 845.069156 509.307937 
L 846.553558 508.032455 
L 848.03796 508.786149 
L 849.522361 506.698998 
L 851.006763 503.104459 
L 852.491165 500.824054 
L 853.975567 497.345468 
L 855.459969 495.79943 
L 856.944371 489.769883 
L 858.428772 476.628561 
L 859.913174 449.398968 
L 861.397576 414.748394 
L 862.881978 385.972764 
L 864.36638 321.406357 
L 867.335183 356.056931 
L 868.819585 368.212654 
L 870.303987 317.889121 
L 871.788389 306.83495 
L 873.272791 301.404492 
L 874.757193 305.42419 
L 876.241594 322.198701 
L 877.725996 347.495746 
L 879.210398 388.04059 
L 880.6948 386.475226 
L 882.179202 398.534322 
L 883.663604 395.867407 
L 885.148005 417.357333 
L 886.632407 429.957542 
L 888.116809 444.896133 
L 889.601211 442.093939 
L 891.085613 452.433068 
L 892.570015 432.95299 
L 894.054416 452.664973 
L 895.538818 462.134455 
L 897.02322 474.290178 
L 898.507622 478.42583 
L 899.992024 476.300028 
L 902.960827 454.616846 
L 904.445229 462.9268 
L 905.929631 472.666839 
L 907.414033 474.406131 
L 908.898435 479.624009 
L 910.382837 477.208325 
L 911.867238 478.03932 
L 913.35164 469.400834 
L 914.836042 467.506937 
L 916.320444 474.464108 
L 917.804846 475.295103 
L 919.289248 475.77824 
L 920.773649 474.464108 
L 922.258051 465.168555 
L 923.742453 470.985522 
L 925.226855 476.319353 
L 926.711257 471.835843 
L 928.195659 471.430008 
L 929.68006 472.956721 
L 931.164462 471.449334 
L 932.648864 464.569465 
L 934.133266 468.492536 
L 935.617668 464.917324 
L 937.10207 471.642588 
L 940.070873 477.034396 
L 941.555275 475.043872 
L 943.039677 465.110578 
L 944.524079 465.091253 
L 946.008481 470.096551 
L 947.492883 465.883597 
L 948.977284 473.420532 
L 950.461686 478.135948 
L 951.946088 471.217428 
L 953.43049 464.994626 
L 954.914892 473.439858 
L 956.399294 467.275031 
L 957.883695 476.319353 
L 959.368097 478.503132 
L 960.852499 485.131769 
L 962.336901 480.319726 
L 963.821303 473.091999 
L 965.305705 478.599759 
L 966.790106 477.904042 
L 968.274508 480.068495 
L 969.75891 486.813085 
L 971.243312 492.842633 
L 972.727714 486.851736 
L 974.212116 482.387552 
L 975.696517 484.010892 
L 977.180919 486.252647 
L 978.665321 488.069241 
L 980.149723 488.088567 
L 981.634125 492.204892 
L 983.118527 485.808161 
L 984.602928 485.151095 
L 986.08733 486.117368 
L 987.571732 485.808161 
L 989.056134 486.735783 
L 990.540536 488.03059 
L 992.024938 487.875986 
L 993.509339 482.290924 
L 994.993741 482.194297 
L 996.478143 466.173479 
L 997.962545 465.477762 
L 999.446947 471.004848 
L 1000.931349 466.134829 
L 1002.41575 475.527009 
L 1003.900152 463.274658 
L 1005.384554 447.137888 
L 1006.868956 448.741902 
L 1008.353358 447.563048 
L 1009.83776 447.659676 
L 1011.322161 448.278091 
L 1012.806563 454.268988 
L 1014.290965 443.350095 
L 1015.775367 430.421353 
L 1017.259769 418.922697 
L 1018.744171 406.167884 
L 1020.228572 409.395238 
L 1021.712974 397.181539 
L 1023.197376 416.60364 
L 1024.681778 407.771898 
L 1026.16618 378.609759 
L 1027.650582 370.821593 
L 1029.134983 376.174749 
L 1030.619385 365.507088 
L 1032.103787 361.429413 
L 1033.588189 370.377107 
L 1035.072591 370.28048 
L 1036.556993 342.181241 
L 1038.041394 321.754215 
L 1039.525796 308.806148 
L 1041.010198 287.625429 
L 1042.4946 299.800477 
L 1043.979002 291.76108 
L 1045.463404 300.786077 
L 1046.947805 274.522758 
L 1048.432207 204.719147 
L 1049.916609 205.743398 
L 1051.401011 251.390166 
L 1052.885413 287.258245 
L 1054.369815 147.689675 
L 1055.854216 129.098569 
L 1057.338618 118.29563 
L 1058.82302 63.044101 
L 1060.307422 113.174379 
L 1061.791824 98.216462 
L 1063.276226 119.899644 
L 1064.760627 74.214224 
L 1066.245029 75.199823 
L 1067.729431 60.609091 
L 1069.213833 89.887183 
L 1070.698235 107.763246 
L 1072.182637 93.423745 
L 1073.667038 92.051636 
L 1075.15144 103.782199 
L 1076.635842 91.800405 
L 1078.120244 161.043577 
L 1079.604646 73.054696 
L 1081.089048 102.603345 
L 1082.573449 81.074767 
L 1084.057851 72.474932 
L 1085.542253 112.710568 
L 1087.026655 171.344055 
L 1087.026655 171.344055 
" clip-path="url(#pfa8a5653c1)" style="fill: none; stroke-dasharray: 1.5,2.475; stroke-dashoffset: 0; stroke: #000000; stroke-opacity: 0.5; stroke-width: 1.5"/>
   </g>
   <g id="line2d_30">
    <path d="M 135.525079 518.390909 
L 139.978284 517.482612 
L 142.947088 516.748244 
L 145.915892 515.955899 
L 147.400293 515.453437 
L 148.884695 514.815696 
L 150.369097 514.042678 
L 151.853499 513.057078 
L 160.75991 505.848677 
L 162.244312 504.186686 
L 165.213116 500.340917 
L 166.697517 499.084761 
L 168.181919 498.83353 
L 169.666321 499.181388 
L 171.150723 499.741827 
L 172.635125 500.128337 
L 174.119527 500.089686 
L 177.08833 499.297341 
L 178.572732 499.43262 
L 180.057134 499.896431 
L 181.541536 500.128337 
L 183.025938 499.703176 
L 184.510339 498.640275 
L 185.994741 497.364794 
L 187.479143 496.437171 
L 188.963545 496.39852 
L 190.447947 497.5967 
L 191.932349 499.104086 
L 193.41675 500.051035 
L 194.901152 500.07036 
L 196.385554 499.413294 
L 197.869956 498.910832 
L 199.354358 499.162063 
L 200.83876 500.244289 
L 202.323161 501.809653 
L 203.807563 503.123785 
L 205.291965 503.974106 
L 206.776367 504.418592 
L 208.260769 505.056332 
L 209.745171 506.467092 
L 212.713974 509.791073 
L 214.198376 510.795998 
L 215.682778 511.08588 
L 218.651582 511.143856 
L 220.135983 511.414413 
L 223.104787 512.670569 
L 224.589189 512.941126 
L 227.557993 512.999102 
L 229.042394 513.173031 
L 233.4956 514.525814 
L 234.980002 514.719069 
L 237.948805 514.873673 
L 239.433207 515.066928 
L 242.402011 515.78197 
L 243.886413 515.917248 
L 245.370815 515.820621 
L 249.82402 515.279508 
L 252.792824 515.434112 
L 255.761627 515.588715 
L 258.730431 515.666017 
L 261.699235 515.99455 
L 263.183637 516.284432 
L 264.668038 516.458362 
L 266.15244 516.458362 
L 267.636842 516.245782 
L 270.605646 515.492088 
L 272.090048 515.279508 
L 273.574449 515.221531 
L 276.543253 515.472763 
L 282.48086 515.704668 
L 295.840477 517.366659 
L 304.746888 517.540588 
L 307.715692 517.675867 
L 313.653299 517.753168 
L 318.106505 517.985074 
L 321.075308 517.811145 
L 332.950523 516.535664 
L 337.403728 515.897923 
L 344.825738 515.395461 
L 346.310139 515.124904 
L 349.278943 514.255258 
L 353.732149 512.380687 
L 355.21655 511.800923 
L 356.700952 511.395088 
L 362.63856 509.230635 
L 364.122961 508.534918 
L 365.607363 507.993804 
L 367.091765 507.317413 
L 368.576167 506.930903 
L 370.060569 506.679672 
L 371.544971 506.60237 
L 373.029372 506.892252 
L 375.998176 507.858526 
L 378.96698 508.670196 
L 380.451382 508.882776 
L 383.420185 508.960078 
L 384.904587 508.940753 
L 387.873391 509.211309 
L 390.842194 509.230635 
L 393.810998 509.114682 
L 396.779802 509.153333 
L 398.264204 508.960078 
L 399.748605 508.612219 
L 402.717409 507.278762 
L 407.170615 504.321964 
L 411.62382 500.766077 
L 413.108222 499.43262 
L 414.592624 498.504997 
L 419.045829 495.238992 
L 420.530231 493.422397 
L 422.014633 491.335246 
L 426.467838 484.010892 
L 430.921044 477.923367 
L 433.889848 472.879419 
L 435.374249 470.077225 
L 438.343053 465.555064 
L 439.827455 463.409937 
L 441.311857 461.51604 
L 442.796259 459.04238 
L 444.28066 455.853677 
L 445.765062 452.355766 
L 450.218268 438.827934 
L 451.70267 433.068943 
L 453.187071 426.846141 
L 457.640277 404.892403 
L 459.124679 398.03186 
L 462.093482 386.784434 
L 465.062286 376.058796 
L 466.546688 371.111475 
L 468.03109 367.478286 
L 470.999893 362.530965 
L 472.484295 359.670795 
L 475.453099 350.220638 
L 478.421903 338.548052 
L 479.906305 333.407476 
L 481.390706 331.93874 
L 484.35951 329.948216 
L 485.843912 328.498806 
L 487.328314 329.155872 
L 488.812716 331.436278 
L 490.297117 337.079316 
L 491.781519 344.442321 
L 493.265921 355.554469 
L 494.750323 365.584389 
L 496.234725 373.159975 
L 497.719127 380.09782 
L 499.203528 388.427099 
L 502.172332 406.998879 
L 503.656734 413.724144 
L 505.141136 416.796894 
L 506.625538 415.830621 
L 508.109939 412.9318 
L 509.594341 410.979927 
L 511.078743 412.429337 
L 512.563145 416.738918 
L 514.047547 420.546036 
L 515.531949 422.208027 
L 517.01635 420.352782 
L 519.985154 413.125054 
L 521.469556 413.221682 
L 522.953958 416.00455 
L 524.43836 421.319055 
L 525.922761 424.488433 
L 527.407163 426.459631 
L 530.375967 423.966645 
L 531.860369 423.599461 
L 533.344771 424.932919 
L 534.829172 425.377405 
L 536.313574 424.874942 
L 537.797976 420.082225 
L 539.282378 413.685493 
L 540.76678 405.047007 
L 542.251182 397.993209 
L 543.735583 393.664303 
L 545.219985 388.987538 
L 546.704387 383.151245 
L 548.188789 375.111848 
L 549.673191 364.308908 
L 551.157593 354.99403 
L 552.641994 350.568497 
L 554.126396 346.800029 
L 555.610798 342.103939 
L 557.0952 333.001641 
L 558.579602 319.145276 
L 560.064004 303.549619 
L 561.548405 291.587151 
L 563.032807 286.891061 
L 564.517209 291.954335 
L 566.001611 299.220713 
L 567.486013 304.361289 
L 570.454816 313.251007 
L 571.939218 319.956946 
L 574.908022 341.388897 
L 576.392424 349.718176 
L 577.876826 353.834502 
L 579.361227 352.906879 
L 580.845629 352.829577 
L 582.330031 355.747723 
L 583.814433 363.033427 
L 585.298835 372.464258 
L 586.783237 376.63856 
L 588.267638 375.923518 
L 591.236442 369.89397 
L 592.720844 371.72989 
L 594.205246 379.518056 
L 597.174049 399.887105 
L 598.658451 404.525219 
L 600.142853 406.187209 
L 601.627255 406.303162 
L 603.111657 407.597969 
L 604.596059 411.443738 
L 606.08046 416.023876 
L 607.564862 419.038649 
L 609.049264 419.0773 
L 610.533666 416.893522 
L 612.018068 415.270182 
L 613.50247 415.695342 
L 614.986871 419.096626 
L 616.471273 424.604386 
L 617.955675 429.416429 
L 619.440077 432.373226 
L 620.924479 433.610056 
L 622.408881 434.653632 
L 623.893282 436.914712 
L 626.862086 444.393671 
L 628.346488 446.442171 
L 629.83089 445.97836 
L 631.315292 443.987836 
L 632.799694 441.688104 
L 634.284095 442.441798 
L 635.768497 447.389119 
L 637.252899 453.863153 
L 638.737301 458.385314 
L 640.221703 459.081031 
L 641.706105 455.293238 
L 643.190506 450.133336 
L 644.674908 446.268242 
L 646.15931 446.635426 
L 647.643712 450.50052 
L 649.128114 453.437992 
L 650.612516 452.645648 
L 652.096917 448.374718 
L 653.581319 441.804057 
L 655.065721 436.257646 
L 656.550123 433.726009 
L 658.034525 433.76466 
L 659.518927 434.634307 
L 661.003328 434.073868 
L 662.48773 431.851438 
L 663.972132 429.242499 
L 665.456534 428.179598 
L 666.940936 429.184523 
L 668.425338 431.175047 
L 669.909739 433.996566 
L 671.394141 435.001491 
L 672.878543 433.532755 
L 674.362945 431.50358 
L 675.847347 430.073495 
L 677.331749 430.189448 
L 678.81615 430.923816 
L 680.300552 430.073495 
L 681.784954 427.251976 
L 683.269356 421.976121 
L 684.753758 415.115578 
L 686.23816 409.337262 
L 687.722561 407.21146 
L 689.206963 407.501342 
L 690.691365 408.332337 
L 692.175767 407.076181 
L 693.660169 402.573346 
L 695.144571 395.848081 
L 696.628972 389.818533 
L 698.113374 387.364198 
L 699.597776 387.267571 
L 701.082178 387.538127 
L 702.56658 386.823085 
L 704.050982 381.972391 
L 705.535383 376.058796 
L 707.019785 371.865168 
L 708.504187 372.097074 
L 711.472991 379.131546 
L 712.957393 381.006117 
L 714.441794 380.851514 
L 715.926196 379.054245 
L 717.410598 380.175122 
L 718.895 384.175495 
L 720.379402 391.074689 
L 721.863804 395.248991 
L 723.348205 394.920458 
L 724.832607 390.68818 
L 726.317009 383.112594 
L 727.801411 376.851141 
L 729.285813 374.493433 
L 732.254616 381.044768 
L 733.739018 381.238023 
L 735.22342 377.83674 
L 738.192224 365.217205 
L 739.676626 363.57454 
L 741.161027 363.535889 
L 742.645429 365.139904 
L 744.129831 363.342635 
L 745.614233 359.149007 
L 747.098635 355.438516 
L 748.583037 355.940978 
L 750.067438 363.014102 
L 753.036242 379.150872 
L 754.520644 381.779136 
L 756.005046 382.32025 
L 757.489448 384.136844 
L 758.973849 383.015967 
L 760.458251 382.126995 
L 761.942653 381.991717 
L 763.427055 379.228174 
L 764.911457 377.141023 
L 766.395859 375.61431 
L 767.88026 376.677211 
L 769.364662 381.953066 
L 778.271073 410.805998 
L 779.755475 418.574838 
L 782.724279 431.658184 
L 784.208681 434.499028 
L 787.177484 435.330024 
L 788.661886 437.64908 
L 790.146288 441.900685 
L 791.63069 449.727501 
L 793.115092 456.201535 
L 794.599494 460.66572 
L 796.083895 461.747946 
L 799.052699 458.636545 
L 800.537101 458.501266 
L 802.021503 460.472465 
L 804.990306 467.854796 
L 806.474708 470.328456 
L 807.95911 471.372032 
L 809.443512 472.686164 
L 810.927914 475.198476 
L 813.896717 483.411802 
L 815.381119 486.600505 
L 816.865521 488.4171 
L 819.834325 490.658855 
L 821.318727 492.610727 
L 824.28753 497.171539 
L 825.771932 498.601624 
L 830.225138 500.978657 
L 831.709539 502.254139 
L 833.193941 503.7422 
L 834.678343 505.017681 
L 836.162745 505.829351 
L 837.647147 506.157884 
L 839.131549 506.273837 
L 842.100352 507.008205 
L 843.584754 507.62662 
L 845.069156 507.974479 
L 846.553558 507.819875 
L 848.03796 506.969554 
L 849.522361 505.346214 
L 851.006763 503.181761 
L 852.491165 500.495521 
L 853.975567 496.669077 
L 855.459969 490.349647 
L 856.944371 479.624009 
L 858.428772 463.429262 
L 859.913174 439.233769 
L 862.881978 385.586255 
L 864.36638 366.164154 
L 865.850782 352.752275 
L 867.335183 344.268392 
L 870.303987 328.846664 
L 871.788389 320.304805 
L 873.272791 316.01455 
L 874.757193 320.227503 
L 876.241594 333.156245 
L 879.210398 367.516937 
L 880.6948 382.861363 
L 882.179202 395.442246 
L 883.663604 406.593044 
L 885.148005 416.371734 
L 886.632407 426.904117 
L 888.116809 434.614981 
L 889.601211 440.818458 
L 892.570015 449.186388 
L 894.054416 454.578195 
L 895.538818 461.264809 
L 897.02322 466.637291 
L 898.507622 469.864645 
L 899.992024 469.516786 
L 901.476426 467.854796 
L 902.960827 466.463362 
L 904.445229 467.081777 
L 905.929631 469.478135 
L 907.414033 472.802117 
L 908.898435 475.159825 
L 910.382837 475.430381 
L 911.867238 474.560735 
L 913.35164 473.497834 
L 914.836042 472.860093 
L 916.320444 473.053348 
L 920.773649 472.724815 
L 922.258051 472.087074 
L 923.742453 471.835843 
L 926.711257 472.145051 
L 928.195659 471.932471 
L 929.68006 471.062824 
L 931.164462 469.594088 
L 932.648864 468.743767 
L 934.133266 468.589164 
L 935.617668 469.381508 
L 937.10207 470.908221 
L 938.586471 472.145051 
L 940.070873 472.183702 
L 941.555275 471.545961 
L 943.039677 469.922621 
L 944.524079 468.879046 
L 946.008481 469.03365 
L 947.492883 469.941947 
L 948.977284 470.985522 
L 950.461686 471.700565 
L 951.946088 471.275405 
L 953.43049 471.198103 
L 954.914892 471.430008 
L 956.399294 472.879419 
L 957.883695 475.275778 
L 959.368097 477.382254 
L 960.852499 478.503132 
L 962.336901 478.947618 
L 963.821303 478.599759 
L 965.305705 478.870316 
L 966.790106 480.203773 
L 969.75891 484.629307 
L 971.243312 485.846812 
L 972.727714 486.252647 
L 975.696517 485.943439 
L 977.180919 486.368599 
L 978.665321 487.180269 
L 980.149723 487.837335 
L 981.634125 487.895312 
L 986.08733 486.484552 
L 987.571732 486.387925 
L 989.056134 486.445901 
L 990.540536 486.175345 
L 992.024938 484.281448 
L 993.509339 481.112071 
L 996.478143 473.362556 
L 997.962545 470.830919 
L 999.446947 469.226904 
L 1000.931349 467.062451 
L 1002.41575 464.492163 
L 1003.900152 460.453139 
L 1005.384554 455.660422 
L 1006.868956 451.814653 
L 1008.353358 449.418294 
L 1011.322161 447.350468 
L 1012.806563 444.103789 
L 1014.290965 438.112892 
L 1015.775367 430.421353 
L 1017.259769 421.589612 
L 1018.744171 414.55514 
L 1020.228572 410.013653 
L 1021.712974 405.993955 
L 1023.197376 401.355841 
L 1024.681778 395.558199 
L 1027.650582 380.020518 
L 1029.134983 373.314579 
L 1030.619385 369.352857 
L 1032.103787 366.318757 
L 1033.588189 361.31346 
L 1035.072591 352.771601 
L 1036.556993 340.480599 
L 1039.525796 313.540889 
L 1041.010198 303.7622 
L 1042.4946 297.017609 
L 1043.979002 287.296896 
L 1046.947805 259.622818 
L 1048.432207 248.839204 
L 1049.916609 236.548202 
L 1051.401011 222.865767 
L 1052.885413 204.738473 
L 1054.369815 178.629758 
L 1057.338618 123.436206 
L 1058.82302 106.333161 
L 1060.307422 100.690123 
L 1061.791824 97.250189 
L 1063.276226 92.167589 
L 1064.760627 88.302495 
L 1066.245029 83.915612 
L 1067.729431 83.393824 
L 1069.213833 85.307046 
L 1070.698235 90.814806 
L 1072.182637 94.370693 
L 1073.667038 101.269887 
L 1076.635842 105.734072 
L 1078.120244 105.44419 
L 1081.089048 96.515821 
L 1084.057851 100.709449 
L 1087.026655 121.233102 
L 1087.026655 121.233102 
" clip-path="url(#pfa8a5653c1)" style="fill: none; stroke: #000000; stroke-width: 1.5; stroke-linecap: square"/>
   </g>
   <g id="patch_3">
    <path d="M 87.95 541.28 
L 87.95 37.72 
" style="fill: none; stroke: #555555; stroke-linejoin: miter; stroke-linecap: square"/>
   </g>
   <g id="patch_4">
    <path d="M 87.95 541.28 
L 1134.601734 541.28 
" style="fill: none; stroke: #555555; stroke-linejoin: miter; stroke-linecap: square"/>
   </g>
   <g id="text_30">
    <!-- Positive COVID-19 tests - last updated on 08 December 2021 -->
    <g style="fill: #555555" transform="translate(336.074148 27.72)scale(0.18 -0.18)">
     <defs>
      <path id="DejaVuSans-50" d="M 1259 4147 
L 1259 2394 
L 2053 2394 
Q 2494 2394 2734 2622 
Q 2975 2850 2975 3272 
Q 2975 3691 2734 3919 
Q 2494 4147 2053 4147 
L 1259 4147 
z
M 628 4666 
L 2053 4666 
Q 2838 4666 3239 4311 
Q 3641 3956 3641 3272 
Q 3641 2581 3239 2228 
Q 2838 1875 2053 1875 
L 1259 1875 
L 1259 0 
L 628 0 
L 628 4666 
z
" transform="scale(0.015625)"/>
      <path id="DejaVuSans-6f" d="M 1959 3097 
Q 1497 3097 1228 2736 
Q 959 2375 959 1747 
Q 959 1119 1226 758 
Q 1494 397 1959 397 
Q 2419 397 2687 759 
Q 2956 1122 2956 1747 
Q 2956 2369 2687 2733 
Q 2419 3097 1959 3097 
z
M 1959 3584 
Q 2709 3584 3137 3096 
Q 3566 2609 3566 1747 
Q 3566 888 3137 398 
Q 2709 -91 1959 -91 
Q 1206 -91 779 398 
Q 353 888 353 1747 
Q 353 2609 779 3096 
Q 1206 3584 1959 3584 
z
" transform="scale(0.015625)"/>
      <path id="DejaVuSans-69" d="M 603 3500 
L 1178 3500 
L 1178 0 
L 603 0 
L 603 3500 
z
M 603 4863 
L 1178 4863 
L 1178 4134 
L 603 4134 
L 603 4863 
z
" transform="scale(0.015625)"/>
      <path id="DejaVuSans-74" d="M 1172 4494 
L 1172 3500 
L 2356 3500 
L 2356 3053 
L 1172 3053 
L 1172 1153 
Q 1172 725 1289 603 
Q 1406 481 1766 481 
L 2356 481 
L 2356 0 
L 1766 0 
Q 1100 0 847 248 
Q 594 497 594 1153 
L 594 3053 
L 172 3053 
L 172 3500 
L 594 3500 
L 594 4494 
L 1172 4494 
z
" transform="scale(0.015625)"/>
      <path id="DejaVuSans-76" d="M 191 3500 
L 800 3500 
L 1894 563 
L 2988 3500 
L 3597 3500 
L 2284 0 
L 1503 0 
L 191 3500 
z
" transform="scale(0.015625)"/>
      <path id="DejaVuSans-4f" d="M 2522 4238 
Q 1834 4238 1429 3725 
Q 1025 3213 1025 2328 
Q 1025 1447 1429 934 
Q 1834 422 2522 422 
Q 3209 422 3611 934 
Q 4013 1447 4013 2328 
Q 4013 3213 3611 3725 
Q 3209 4238 2522 4238 
z
M 2522 4750 
Q 3503 4750 4090 4092 
Q 4678 3434 4678 2328 
Q 4678 1225 4090 567 
Q 3503 -91 2522 -91 
Q 1538 -91 948 565 
Q 359 1222 359 2328 
Q 359 3434 948 4092 
Q 1538 4750 2522 4750 
z
" transform="scale(0.015625)"/>
      <path id="DejaVuSans-56" d="M 1831 0 
L 50 4666 
L 709 4666 
L 2188 738 
L 3669 4666 
L 4325 4666 
L 2547 0 
L 1831 0 
z
" transform="scale(0.015625)"/>
      <path id="DejaVuSans-49" d="M 628 4666 
L 1259 4666 
L 1259 0 
L 628 0 
L 628 4666 
z
" transform="scale(0.015625)"/>
      <path id="DejaVuSans-44" d="M 1259 4147 
L 1259 519 
L 2022 519 
Q 2988 519 3436 956 
Q 3884 1394 3884 2338 
Q 3884 3275 3436 3711 
Q 2988 4147 2022 4147 
L 1259 4147 
z
M 628 4666 
L 1925 4666 
Q 3281 4666 3915 4102 
Q 4550 3538 4550 2338 
Q 4550 1131 3912 565 
Q 3275 0 1925 0 
L 628 0 
L 628 4666 
z
" transform="scale(0.015625)"/>
      <path id="DejaVuSans-2d" d="M 313 2009 
L 1997 2009 
L 1997 1497 
L 313 1497 
L 313 2009 
z
" transform="scale(0.015625)"/>
      <path id="DejaVuSans-31" d="M 794 531 
L 1825 531 
L 1825 4091 
L 703 3866 
L 703 4441 
L 1819 4666 
L 2450 4666 
L 2450 531 
L 3481 531 
L 3481 0 
L 794 0 
L 794 531 
z
" transform="scale(0.015625)"/>
      <path id="DejaVuSans-39" d="M 703 97 
L 703 672 
Q 941 559 1184 500 
Q 1428 441 1663 441 
Q 2288 441 2617 861 
Q 2947 1281 2994 2138 
Q 2813 1869 2534 1725 
Q 2256 1581 1919 1581 
Q 1219 1581 811 2004 
Q 403 2428 403 3163 
Q 403 3881 828 4315 
Q 1253 4750 1959 4750 
Q 2769 4750 3195 4129 
Q 3622 3509 3622 2328 
Q 3622 1225 3098 567 
Q 2575 -91 1691 -91 
Q 1453 -91 1209 -44 
Q 966 3 703 97 
z
M 1959 2075 
Q 2384 2075 2632 2365 
Q 2881 2656 2881 3163 
Q 2881 3666 2632 3958 
Q 2384 4250 1959 4250 
Q 1534 4250 1286 3958 
Q 1038 3666 1038 3163 
Q 1038 2656 1286 2365 
Q 1534 2075 1959 2075 
z
" transform="scale(0.015625)"/>
      <path id="DejaVuSans-6c" d="M 603 4863 
L 1178 4863 
L 1178 0 
L 603 0 
L 603 4863 
z
" transform="scale(0.015625)"/>
      <path id="DejaVuSans-75" d="M 544 1381 
L 544 3500 
L 1119 3500 
L 1119 1403 
Q 1119 906 1312 657 
Q 1506 409 1894 409 
Q 2359 409 2629 706 
Q 2900 1003 2900 1516 
L 2900 3500 
L 3475 3500 
L 3475 0 
L 2900 0 
L 2900 538 
Q 2691 219 2414 64 
Q 2138 -91 1772 -91 
Q 1169 -91 856 284 
Q 544 659 544 1381 
z
M 1991 3584 
L 1991 3584 
z
" transform="scale(0.015625)"/>
      <path id="DejaVuSans-70" d="M 1159 525 
L 1159 -1331 
L 581 -1331 
L 581 3500 
L 1159 3500 
L 1159 2969 
Q 1341 3281 1617 3432 
Q 1894 3584 2278 3584 
Q 2916 3584 3314 3078 
Q 3713 2572 3713 1747 
Q 3713 922 3314 415 
Q 2916 -91 2278 -91 
Q 1894 -91 1617 61 
Q 1341 213 1159 525 
z
M 3116 1747 
Q 3116 2381 2855 2742 
Q 2594 3103 2138 3103 
Q 1681 3103 1420 2742 
Q 1159 2381 1159 1747 
Q 1159 1113 1420 752 
Q 1681 391 2138 391 
Q 2594 391 2855 752 
Q 3116 1113 3116 1747 
z
" transform="scale(0.015625)"/>
      <path id="DejaVuSans-64" d="M 2906 2969 
L 2906 4863 
L 3481 4863 
L 3481 0 
L 2906 0 
L 2906 525 
Q 2725 213 2448 61 
Q 2172 -91 1784 -91 
Q 1150 -91 751 415 
Q 353 922 353 1747 
Q 353 2572 751 3078 
Q 1150 3584 1784 3584 
Q 2172 3584 2448 3432 
Q 2725 3281 2906 2969 
z
M 947 1747 
Q 947 1113 1208 752 
Q 1469 391 1925 391 
Q 2381 391 2643 752 
Q 2906 1113 2906 1747 
Q 2906 2381 2643 2742 
Q 2381 3103 1925 3103 
Q 1469 3103 1208 2742 
Q 947 2381 947 1747 
z
" transform="scale(0.015625)"/>
      <path id="DejaVuSans-6e" d="M 3513 2113 
L 3513 0 
L 2938 0 
L 2938 2094 
Q 2938 2591 2744 2837 
Q 2550 3084 2163 3084 
Q 1697 3084 1428 2787 
Q 1159 2491 1159 1978 
L 1159 0 
L 581 0 
L 581 3500 
L 1159 3500 
L 1159 2956 
Q 1366 3272 1645 3428 
Q 1925 3584 2291 3584 
Q 2894 3584 3203 3211 
Q 3513 2838 3513 2113 
z
" transform="scale(0.015625)"/>
      <path id="DejaVuSans-30" d="M 2034 4250 
Q 1547 4250 1301 3770 
Q 1056 3291 1056 2328 
Q 1056 1369 1301 889 
Q 1547 409 2034 409 
Q 2525 409 2770 889 
Q 3016 1369 3016 2328 
Q 3016 3291 2770 3770 
Q 2525 4250 2034 4250 
z
M 2034 4750 
Q 2819 4750 3233 4129 
Q 3647 3509 3647 2328 
Q 3647 1150 3233 529 
Q 2819 -91 2034 -91 
Q 1250 -91 836 529 
Q 422 1150 422 2328 
Q 422 3509 836 4129 
Q 1250 4750 2034 4750 
z
" transform="scale(0.015625)"/>
      <path id="DejaVuSans-38" d="M 2034 2216 
Q 1584 2216 1326 1975 
Q 1069 1734 1069 1313 
Q 1069 891 1326 650 
Q 1584 409 2034 409 
Q 2484 409 2743 651 
Q 3003 894 3003 1313 
Q 3003 1734 2745 1975 
Q 2488 2216 2034 2216 
z
M 1403 2484 
Q 997 2584 770 2862 
Q 544 3141 544 3541 
Q 544 4100 942 4425 
Q 1341 4750 2034 4750 
Q 2731 4750 3128 4425 
Q 3525 4100 3525 3541 
Q 3525 3141 3298 2862 
Q 3072 2584 2669 2484 
Q 3125 2378 3379 2068 
Q 3634 1759 3634 1313 
Q 3634 634 3220 271 
Q 2806 -91 2034 -91 
Q 1263 -91 848 271 
Q 434 634 434 1313 
Q 434 1759 690 2068 
Q 947 2378 1403 2484 
z
M 1172 3481 
Q 1172 3119 1398 2916 
Q 1625 2713 2034 2713 
Q 2441 2713 2670 2916 
Q 2900 3119 2900 3481 
Q 2900 3844 2670 4047 
Q 2441 4250 2034 4250 
Q 1625 4250 1398 4047 
Q 1172 3844 1172 3481 
z
" transform="scale(0.015625)"/>
      <path id="DejaVuSans-63" d="M 3122 3366 
L 3122 2828 
Q 2878 2963 2633 3030 
Q 2388 3097 2138 3097 
Q 1578 3097 1268 2742 
Q 959 2388 959 1747 
Q 959 1106 1268 751 
Q 1578 397 2138 397 
Q 2388 397 2633 464 
Q 2878 531 3122 666 
L 3122 134 
Q 2881 22 2623 -34 
Q 2366 -91 2075 -91 
Q 1284 -91 818 406 
Q 353 903 353 1747 
Q 353 2603 823 3093 
Q 1294 3584 2113 3584 
Q 2378 3584 2631 3529 
Q 2884 3475 3122 3366 
z
" transform="scale(0.015625)"/>
      <path id="DejaVuSans-6d" d="M 3328 2828 
Q 3544 3216 3844 3400 
Q 4144 3584 4550 3584 
Q 5097 3584 5394 3201 
Q 5691 2819 5691 2113 
L 5691 0 
L 5113 0 
L 5113 2094 
Q 5113 2597 4934 2840 
Q 4756 3084 4391 3084 
Q 3944 3084 3684 2787 
Q 3425 2491 3425 1978 
L 3425 0 
L 2847 0 
L 2847 2094 
Q 2847 2600 2669 2842 
Q 2491 3084 2119 3084 
Q 1678 3084 1418 2786 
Q 1159 2488 1159 1978 
L 1159 0 
L 581 0 
L 581 3500 
L 1159 3500 
L 1159 2956 
Q 1356 3278 1631 3431 
Q 1906 3584 2284 3584 
Q 2666 3584 2933 3390 
Q 3200 3197 3328 2828 
z
" transform="scale(0.015625)"/>
      <path id="DejaVuSans-62" d="M 3116 1747 
Q 3116 2381 2855 2742 
Q 2594 3103 2138 3103 
Q 1681 3103 1420 2742 
Q 1159 2381 1159 1747 
Q 1159 1113 1420 752 
Q 1681 391 2138 391 
Q 2594 391 2855 752 
Q 3116 1113 3116 1747 
z
M 1159 2969 
Q 1341 3281 1617 3432 
Q 1894 3584 2278 3584 
Q 2916 3584 3314 3078 
Q 3713 2572 3713 1747 
Q 3713 922 3314 415 
Q 2916 -91 2278 -91 
Q 1894 -91 1617 61 
Q 1341 213 1159 525 
L 1159 0 
L 581 0 
L 581 4863 
L 1159 4863 
L 1159 2969 
z
" transform="scale(0.015625)"/>
      <path id="DejaVuSans-72" d="M 2631 2963 
Q 2534 3019 2420 3045 
Q 2306 3072 2169 3072 
Q 1681 3072 1420 2755 
Q 1159 2438 1159 1844 
L 1159 0 
L 581 0 
L 581 3500 
L 1159 3500 
L 1159 2956 
Q 1341 3275 1631 3429 
Q 1922 3584 2338 3584 
Q 2397 3584 2469 3576 
Q 2541 3569 2628 3553 
L 2631 2963 
z
" transform="scale(0.015625)"/>
      <path id="DejaVuSans-32" d="M 1228 531 
L 3431 531 
L 3431 0 
L 469 0 
L 469 531 
Q 828 903 1448 1529 
Q 2069 2156 2228 2338 
Q 2531 2678 2651 2914 
Q 2772 3150 2772 3378 
Q 2772 3750 2511 3984 
Q 2250 4219 1831 4219 
Q 1534 4219 1204 4116 
Q 875 4013 500 3803 
L 500 4441 
Q 881 4594 1212 4672 
Q 1544 4750 1819 4750 
Q 2544 4750 2975 4387 
Q 3406 4025 3406 3419 
Q 3406 3131 3298 2873 
Q 3191 2616 2906 2266 
Q 2828 2175 2409 1742 
Q 1991 1309 1228 531 
z
" transform="scale(0.015625)"/>
     </defs>
     <use xlink:href="#DejaVuSans-50"/>
     <use xlink:href="#DejaVuSans-6f" x="56.677734"/>
     <use xlink:href="#DejaVuSans-73" x="117.859375"/>
     <use xlink:href="#DejaVuSans-69" x="169.958984"/>
     <use xlink:href="#DejaVuSans-74" x="197.742188"/>
     <use xlink:href="#DejaVuSans-69" x="236.951172"/>
     <use xlink:href="#DejaVuSans-76" x="264.734375"/>
     <use xlink:href="#DejaVuSans-65" x="323.914062"/>
     <use xlink:href="#DejaVuSans-20" x="385.4375"/>
     <use xlink:href="#DejaVuSans-43" x="417.224609"/>
     <use xlink:href="#DejaVuSans-4f" x="487.048828"/>
     <use xlink:href="#DejaVuSans-56" x="564.009766"/>
     <use xlink:href="#DejaVuSans-49" x="632.417969"/>
     <use xlink:href="#DejaVuSans-44" x="661.910156"/>
     <use xlink:href="#DejaVuSans-2d" x="738.912109"/>
     <use xlink:href="#DejaVuSans-31" x="774.996094"/>
     <use xlink:href="#DejaVuSans-39" x="838.619141"/>
     <use xlink:href="#DejaVuSans-20" x="902.242188"/>
     <use xlink:href="#DejaVuSans-74" x="934.029297"/>
     <use xlink:href="#DejaVuSans-65" x="973.238281"/>
     <use xlink:href="#DejaVuSans-73" x="1034.761719"/>
     <use xlink:href="#DejaVuSans-74" x="1086.861328"/>
     <use xlink:href="#DejaVuSans-73" x="1126.070312"/>
     <use xlink:href="#DejaVuSans-20" x="1178.169922"/>
     <use xlink:href="#DejaVuSans-2d" x="1209.957031"/>
     <use xlink:href="#DejaVuSans-20" x="1246.041016"/>
     <use xlink:href="#DejaVuSans-6c" x="1277.828125"/>
     <use xlink:href="#DejaVuSans-61" x="1305.611328"/>
     <use xlink:href="#DejaVuSans-73" x="1366.890625"/>
     <use xlink:href="#DejaVuSans-74" x="1418.990234"/>
     <use xlink:href="#DejaVuSans-20" x="1458.199219"/>
     <use xlink:href="#DejaVuSans-75" x="1489.986328"/>
     <use xlink:href="#DejaVuSans-70" x="1553.365234"/>
     <use xlink:href="#DejaVuSans-64" x="1616.841797"/>
     <use xlink:href="#DejaVuSans-61" x="1680.318359"/>
     <use xlink:href="#DejaVuSans-74" x="1741.597656"/>
     <use xlink:href="#DejaVuSans-65" x="1780.806641"/>
     <use xlink:href="#DejaVuSans-64" x="1842.330078"/>
     <use xlink:href="#DejaVuSans-20" x="1905.806641"/>
     <use xlink:href="#DejaVuSans-6f" x="1937.59375"/>
     <use xlink:href="#DejaVuSans-6e" x="1998.775391"/>
     <use xlink:href="#DejaVuSans-20" x="2062.154297"/>
     <use xlink:href="#DejaVuSans-30" x="2093.941406"/>
     <use xlink:href="#DejaVuSans-38" x="2157.564453"/>
     <use xlink:href="#DejaVuSans-20" x="2221.1875"/>
     <use xlink:href="#DejaVuSans-44" x="2252.974609"/>
     <use xlink:href="#DejaVuSans-65" x="2329.976562"/>
     <use xlink:href="#DejaVuSans-63" x="2391.5"/>
     <use xlink:href="#DejaVuSans-65" x="2446.480469"/>
     <use xlink:href="#DejaVuSans-6d" x="2508.003906"/>
     <use xlink:href="#DejaVuSans-62" x="2605.416016"/>
     <use xlink:href="#DejaVuSans-65" x="2668.892578"/>
     <use xlink:href="#DejaVuSans-72" x="2730.416016"/>
     <use xlink:href="#DejaVuSans-20" x="2771.529297"/>
     <use xlink:href="#DejaVuSans-32" x="2803.316406"/>
     <use xlink:href="#DejaVuSans-30" x="2866.939453"/>
     <use xlink:href="#DejaVuSans-32" x="2930.5625"/>
     <use xlink:href="#DejaVuSans-31" x="2994.185547"/>
    </g>
   </g>
   <g id="legend_1">
    <g id="line2d_31">
     <path d="M 99.65 54.747969 
L 112.65 54.747969 
L 125.65 54.747969 
" style="fill: none; stroke-dasharray: 1.5,2.475; stroke-dashoffset: 0; stroke: #000000; stroke-opacity: 0.5; stroke-width: 1.5"/>
    </g>
    <g id="text_31">
     <!-- Actual -->
     <g style="fill: #555555" transform="translate(136.05 59.297969)scale(0.13 -0.13)">
      <use xlink:href="#DejaVuSans-Bold-41"/>
      <use xlink:href="#DejaVuSans-Bold-63" x="77.392578"/>
      <use xlink:href="#DejaVuSans-Bold-74" x="136.669922"/>
      <use xlink:href="#DejaVuSans-Bold-75" x="184.472656"/>
      <use xlink:href="#DejaVuSans-Bold-61" x="255.664062"/>
      <use xlink:href="#DejaVuSans-Bold-6c" x="323.144531"/>
     </g>
    </g>
    <g id="line2d_32">
     <path d="M 99.65 73.829531 
L 112.65 73.829531 
L 125.65 73.829531 
" style="fill: none; stroke: #000000; stroke-width: 1.5; stroke-linecap: square"/>
    </g>
    <g id="text_32">
     <!-- Smoothed -->
     <g style="fill: #555555" transform="translate(136.05 78.379531)scale(0.13 -0.13)">
      <defs>
       <path id="DejaVuSans-Bold-6d" d="M 3781 2919 
Q 3994 3244 4286 3414 
Q 4578 3584 4928 3584 
Q 5531 3584 5847 3212 
Q 6163 2841 6163 2131 
L 6163 0 
L 5038 0 
L 5038 1825 
Q 5041 1866 5042 1909 
Q 5044 1953 5044 2034 
Q 5044 2406 4934 2573 
Q 4825 2741 4581 2741 
Q 4263 2741 4089 2478 
Q 3916 2216 3909 1719 
L 3909 0 
L 2784 0 
L 2784 1825 
Q 2784 2406 2684 2573 
Q 2584 2741 2328 2741 
Q 2006 2741 1831 2477 
Q 1656 2213 1656 1722 
L 1656 0 
L 531 0 
L 531 3500 
L 1656 3500 
L 1656 2988 
Q 1863 3284 2130 3434 
Q 2397 3584 2719 3584 
Q 3081 3584 3359 3409 
Q 3638 3234 3781 2919 
z
" transform="scale(0.015625)"/>
       <path id="DejaVuSans-Bold-68" d="M 4056 2131 
L 4056 0 
L 2931 0 
L 2931 347 
L 2931 1625 
Q 2931 2084 2911 2256 
Q 2891 2428 2841 2509 
Q 2775 2619 2662 2680 
Q 2550 2741 2406 2741 
Q 2056 2741 1856 2470 
Q 1656 2200 1656 1722 
L 1656 0 
L 538 0 
L 538 4863 
L 1656 4863 
L 1656 2988 
Q 1909 3294 2193 3439 
Q 2478 3584 2822 3584 
Q 3428 3584 3742 3212 
Q 4056 2841 4056 2131 
z
" transform="scale(0.015625)"/>
       <path id="DejaVuSans-Bold-64" d="M 2919 2988 
L 2919 4863 
L 4044 4863 
L 4044 0 
L 2919 0 
L 2919 506 
Q 2688 197 2409 53 
Q 2131 -91 1766 -91 
Q 1119 -91 703 423 
Q 288 938 288 1747 
Q 288 2556 703 3070 
Q 1119 3584 1766 3584 
Q 2128 3584 2408 3439 
Q 2688 3294 2919 2988 
z
M 2181 722 
Q 2541 722 2730 984 
Q 2919 1247 2919 1747 
Q 2919 2247 2730 2509 
Q 2541 2772 2181 2772 
Q 1825 2772 1636 2509 
Q 1447 2247 1447 1747 
Q 1447 1247 1636 984 
Q 1825 722 2181 722 
z
" transform="scale(0.015625)"/>
      </defs>
      <use xlink:href="#DejaVuSans-Bold-53"/>
      <use xlink:href="#DejaVuSans-Bold-6d" x="72.021484"/>
      <use xlink:href="#DejaVuSans-Bold-6f" x="176.220703"/>
      <use xlink:href="#DejaVuSans-Bold-6f" x="244.921875"/>
      <use xlink:href="#DejaVuSans-Bold-74" x="313.623047"/>
      <use xlink:href="#DejaVuSans-Bold-68" x="361.425781"/>
      <use xlink:href="#DejaVuSans-Bold-65" x="432.617188"/>
      <use xlink:href="#DejaVuSans-Bold-64" x="500.439453"/>
     </g>
    </g>
   </g>
  </g>
 </g>
 <defs>
  <clipPath id="pfa8a5653c1">
   <rect x="87.95" y="37.72" width="1046.651734" height="503.56"/>
  </clipPath>
 </defs>
</svg>
