<?xml version="1.0" encoding="utf-8" standalone="no"?>
<!DOCTYPE svg PUBLIC "-//W3C//DTD SVG 1.1//EN"
  "http://www.w3.org/Graphics/SVG/1.1/DTD/svg11.dtd">
<svg height="576pt" version="1.1" viewBox="0 0 1152 576" width="1152pt" xmlns="http://www.w3.org/2000/svg" xmlns:xlink="http://www.w3.org/1999/xlink">
 <metadata>
  <rdf:RDF xmlns:cc="http://creativecommons.org/ns#" xmlns:dc="http://purl.org/dc/elements/1.1/" xmlns:rdf="http://www.w3.org/1999/02/22-rdf-syntax-ns#">
   <cc:Work>
    <dc:type rdf:resource="http://purl.org/dc/dcmitype/StillImage"/>
    <dc:date>2021-07-05T17:16:57.530408</dc:date>
    <dc:format>image/svg+xml</dc:format>
    <dc:creator>
     <cc:Agent>
      <dc:title>Matplotlib v3.4.2, https://matplotlib.org/</dc:title>
     </cc:Agent>
    </dc:creator>
   </cc:Work>
  </rdf:RDF>
 </metadata>
 <defs>
  <style type="text/css">*{stroke-linecap:butt;stroke-linejoin:round;}</style>
 </defs>
 <g id="figure_1">
  <g id="patch_1">
   <path d="M 0 576 
L 1152 576 
L 1152 0 
L 0 0 
z
" style="fill:#ffffff;"/>
  </g>
  <g id="axes_1">
   <g id="patch_2">
    <path d="M 87.95 541.28 
L 1137.96 541.28 
L 1137.96 37.72 
L 87.95 37.72 
z
" style="fill:#ffffff;"/>
   </g>
   <g id="matplotlib.axis_1">
    <g id="xtick_1">
     <g id="line2d_1">
      <defs>
       <path d="M 0 0 
L 0 3.5 
" id="mca14a81692" style="stroke:#555555;stroke-width:0.8;"/>
      </defs>
      <g>
       <use style="fill:#555555;stroke:#555555;stroke-width:0.8;" x="125.857207" xlink:href="#mca14a81692" y="541.28"/>
      </g>
     </g>
     <g id="text_1">
      <!-- Mar -->
      <g style="fill:#555555;" transform="translate(110.715332 558.917812)scale(0.14 -0.14)">
       <defs>
        <path d="M 588 4666 
L 2119 4666 
L 3181 2169 
L 4250 4666 
L 5778 4666 
L 5778 0 
L 4641 0 
L 4641 3413 
L 3566 897 
L 2803 897 
L 1728 3413 
L 1728 0 
L 588 0 
L 588 4666 
z
" id="DejaVuSans-Bold-4d" transform="scale(0.015625)"/>
        <path d="M 2106 1575 
Q 1756 1575 1579 1456 
Q 1403 1338 1403 1106 
Q 1403 894 1545 773 
Q 1688 653 1941 653 
Q 2256 653 2472 879 
Q 2688 1106 2688 1447 
L 2688 1575 
L 2106 1575 
z
M 3816 1997 
L 3816 0 
L 2688 0 
L 2688 519 
Q 2463 200 2181 54 
Q 1900 -91 1497 -91 
Q 953 -91 614 226 
Q 275 544 275 1050 
Q 275 1666 698 1953 
Q 1122 2241 2028 2241 
L 2688 2241 
L 2688 2328 
Q 2688 2594 2478 2717 
Q 2269 2841 1825 2841 
Q 1466 2841 1156 2769 
Q 847 2697 581 2553 
L 581 3406 
Q 941 3494 1303 3539 
Q 1666 3584 2028 3584 
Q 2975 3584 3395 3211 
Q 3816 2838 3816 1997 
z
" id="DejaVuSans-Bold-61" transform="scale(0.015625)"/>
        <path d="M 3138 2547 
Q 2991 2616 2845 2648 
Q 2700 2681 2553 2681 
Q 2122 2681 1889 2404 
Q 1656 2128 1656 1613 
L 1656 0 
L 538 0 
L 538 3500 
L 1656 3500 
L 1656 2925 
Q 1872 3269 2151 3426 
Q 2431 3584 2822 3584 
Q 2878 3584 2943 3579 
Q 3009 3575 3134 3559 
L 3138 2547 
z
" id="DejaVuSans-Bold-72" transform="scale(0.015625)"/>
       </defs>
       <use xlink:href="#DejaVuSans-Bold-4d"/>
       <use x="99.511719" xlink:href="#DejaVuSans-Bold-61"/>
       <use x="166.992188" xlink:href="#DejaVuSans-Bold-72"/>
      </g>
     </g>
    </g>
    <g id="xtick_2">
     <g id="line2d_2">
      <g>
       <use style="fill:#555555;stroke:#555555;stroke-width:0.8;" x="186.744431" xlink:href="#mca14a81692" y="541.28"/>
      </g>
     </g>
     <g id="text_2">
      <!-- Apr -->
      <g style="fill:#555555;" transform="translate(172.864744 558.917812)scale(0.14 -0.14)">
       <defs>
        <path d="M 3419 850 
L 1538 850 
L 1241 0 
L 31 0 
L 1759 4666 
L 3194 4666 
L 4922 0 
L 3713 0 
L 3419 850 
z
M 1838 1716 
L 3116 1716 
L 2478 3572 
L 1838 1716 
z
" id="DejaVuSans-Bold-41" transform="scale(0.015625)"/>
        <path d="M 1656 506 
L 1656 -1331 
L 538 -1331 
L 538 3500 
L 1656 3500 
L 1656 2988 
Q 1888 3294 2169 3439 
Q 2450 3584 2816 3584 
Q 3463 3584 3878 3070 
Q 4294 2556 4294 1747 
Q 4294 938 3878 423 
Q 3463 -91 2816 -91 
Q 2450 -91 2169 54 
Q 1888 200 1656 506 
z
M 2400 2772 
Q 2041 2772 1848 2508 
Q 1656 2244 1656 1747 
Q 1656 1250 1848 986 
Q 2041 722 2400 722 
Q 2759 722 2948 984 
Q 3138 1247 3138 1747 
Q 3138 2247 2948 2509 
Q 2759 2772 2400 2772 
z
" id="DejaVuSans-Bold-70" transform="scale(0.015625)"/>
       </defs>
       <use xlink:href="#DejaVuSans-Bold-41"/>
       <use x="77.392578" xlink:href="#DejaVuSans-Bold-70"/>
       <use x="148.974609" xlink:href="#DejaVuSans-Bold-72"/>
      </g>
     </g>
    </g>
    <g id="xtick_3">
     <g id="line2d_3">
      <g>
       <use style="fill:#555555;stroke:#555555;stroke-width:0.8;" x="245.667551" xlink:href="#mca14a81692" y="541.28"/>
      </g>
     </g>
     <g id="text_3">
      <!-- May -->
      <g style="fill:#555555;" transform="translate(229.633176 558.808437)scale(0.14 -0.14)">
       <defs>
        <path d="M 78 3500 
L 1197 3500 
L 2138 1125 
L 2938 3500 
L 4056 3500 
L 2584 -331 
Q 2363 -916 2067 -1148 
Q 1772 -1381 1288 -1381 
L 641 -1381 
L 641 -647 
L 991 -647 
Q 1275 -647 1404 -556 
Q 1534 -466 1606 -231 
L 1638 -134 
L 78 3500 
z
" id="DejaVuSans-Bold-79" transform="scale(0.015625)"/>
       </defs>
       <use xlink:href="#DejaVuSans-Bold-4d"/>
       <use x="99.511719" xlink:href="#DejaVuSans-Bold-61"/>
       <use x="163.867188" xlink:href="#DejaVuSans-Bold-79"/>
      </g>
     </g>
    </g>
    <g id="xtick_4">
     <g id="line2d_4">
      <g>
       <use style="fill:#555555;stroke:#555555;stroke-width:0.8;" x="306.554776" xlink:href="#mca14a81692" y="541.28"/>
      </g>
     </g>
     <g id="text_4">
      <!-- Jun -->
      <g style="fill:#555555;" transform="translate(293.984307 558.917812)scale(0.14 -0.14)">
       <defs>
        <path d="M 588 4666 
L 1791 4666 
L 1791 453 
Q 1791 -419 1317 -850 
Q 844 -1281 -116 -1281 
L -359 -1281 
L -359 -372 
L -172 -372 
Q 203 -372 395 -162 
Q 588 47 588 453 
L 588 4666 
z
" id="DejaVuSans-Bold-4a" transform="scale(0.015625)"/>
        <path d="M 500 1363 
L 500 3500 
L 1625 3500 
L 1625 3150 
Q 1625 2866 1622 2436 
Q 1619 2006 1619 1863 
Q 1619 1441 1641 1255 
Q 1663 1069 1716 984 
Q 1784 875 1895 815 
Q 2006 756 2150 756 
Q 2500 756 2700 1025 
Q 2900 1294 2900 1772 
L 2900 3500 
L 4019 3500 
L 4019 0 
L 2900 0 
L 2900 506 
Q 2647 200 2364 54 
Q 2081 -91 1741 -91 
Q 1134 -91 817 281 
Q 500 653 500 1363 
z
" id="DejaVuSans-Bold-75" transform="scale(0.015625)"/>
        <path d="M 4056 2131 
L 4056 0 
L 2931 0 
L 2931 347 
L 2931 1631 
Q 2931 2084 2911 2256 
Q 2891 2428 2841 2509 
Q 2775 2619 2662 2680 
Q 2550 2741 2406 2741 
Q 2056 2741 1856 2470 
Q 1656 2200 1656 1722 
L 1656 0 
L 538 0 
L 538 3500 
L 1656 3500 
L 1656 2988 
Q 1909 3294 2193 3439 
Q 2478 3584 2822 3584 
Q 3428 3584 3742 3212 
Q 4056 2841 4056 2131 
z
" id="DejaVuSans-Bold-6e" transform="scale(0.015625)"/>
       </defs>
       <use xlink:href="#DejaVuSans-Bold-4a"/>
       <use x="37.207031" xlink:href="#DejaVuSans-Bold-75"/>
       <use x="108.398438" xlink:href="#DejaVuSans-Bold-6e"/>
      </g>
     </g>
    </g>
    <g id="xtick_5">
     <g id="line2d_5">
      <g>
       <use style="fill:#555555;stroke:#555555;stroke-width:0.8;" x="365.477896" xlink:href="#mca14a81692" y="541.28"/>
      </g>
     </g>
     <g id="text_5">
      <!-- Jul -->
      <g style="fill:#555555;" transform="translate(355.490864 558.917812)scale(0.14 -0.14)">
       <defs>
        <path d="M 538 4863 
L 1656 4863 
L 1656 0 
L 538 0 
L 538 4863 
z
" id="DejaVuSans-Bold-6c" transform="scale(0.015625)"/>
       </defs>
       <use xlink:href="#DejaVuSans-Bold-4a"/>
       <use x="37.207031" xlink:href="#DejaVuSans-Bold-75"/>
       <use x="108.398438" xlink:href="#DejaVuSans-Bold-6c"/>
      </g>
     </g>
    </g>
    <g id="xtick_6">
     <g id="line2d_6">
      <g>
       <use style="fill:#555555;stroke:#555555;stroke-width:0.8;" x="426.36512" xlink:href="#mca14a81692" y="541.28"/>
      </g>
     </g>
     <g id="text_6">
      <!-- Aug -->
      <g style="fill:#555555;" transform="translate(410.954182 558.808437)scale(0.14 -0.14)">
       <defs>
        <path d="M 2919 594 
Q 2688 288 2409 144 
Q 2131 0 1766 0 
Q 1125 0 706 504 
Q 288 1009 288 1791 
Q 288 2575 706 3076 
Q 1125 3578 1766 3578 
Q 2131 3578 2409 3434 
Q 2688 3291 2919 2981 
L 2919 3500 
L 4044 3500 
L 4044 353 
Q 4044 -491 3511 -936 
Q 2978 -1381 1966 -1381 
Q 1638 -1381 1331 -1331 
Q 1025 -1281 716 -1178 
L 716 -306 
Q 1009 -475 1290 -558 
Q 1572 -641 1856 -641 
Q 2406 -641 2662 -400 
Q 2919 -159 2919 353 
L 2919 594 
z
M 2181 2772 
Q 1834 2772 1640 2515 
Q 1447 2259 1447 1791 
Q 1447 1309 1634 1061 
Q 1822 813 2181 813 
Q 2531 813 2725 1069 
Q 2919 1325 2919 1791 
Q 2919 2259 2725 2515 
Q 2531 2772 2181 2772 
z
" id="DejaVuSans-Bold-67" transform="scale(0.015625)"/>
       </defs>
       <use xlink:href="#DejaVuSans-Bold-41"/>
       <use x="77.392578" xlink:href="#DejaVuSans-Bold-75"/>
       <use x="148.583984" xlink:href="#DejaVuSans-Bold-67"/>
      </g>
     </g>
    </g>
    <g id="xtick_7">
     <g id="line2d_7">
      <g>
       <use style="fill:#555555;stroke:#555555;stroke-width:0.8;" x="487.252344" xlink:href="#mca14a81692" y="541.28"/>
      </g>
     </g>
     <g id="text_7">
      <!-- Sep -->
      <g style="fill:#555555;" transform="translate(472.452813 558.917812)scale(0.14 -0.14)">
       <defs>
        <path d="M 3834 4519 
L 3834 3531 
Q 3450 3703 3084 3790 
Q 2719 3878 2394 3878 
Q 1963 3878 1756 3759 
Q 1550 3641 1550 3391 
Q 1550 3203 1689 3098 
Q 1828 2994 2194 2919 
L 2706 2816 
Q 3484 2659 3812 2340 
Q 4141 2022 4141 1434 
Q 4141 663 3683 286 
Q 3225 -91 2284 -91 
Q 1841 -91 1394 -6 
Q 947 78 500 244 
L 500 1259 
Q 947 1022 1364 901 
Q 1781 781 2169 781 
Q 2563 781 2772 912 
Q 2981 1044 2981 1288 
Q 2981 1506 2839 1625 
Q 2697 1744 2272 1838 
L 1806 1941 
Q 1106 2091 782 2419 
Q 459 2747 459 3303 
Q 459 4000 909 4375 
Q 1359 4750 2203 4750 
Q 2588 4750 2994 4692 
Q 3400 4634 3834 4519 
z
" id="DejaVuSans-Bold-53" transform="scale(0.015625)"/>
        <path d="M 4031 1759 
L 4031 1441 
L 1416 1441 
Q 1456 1047 1700 850 
Q 1944 653 2381 653 
Q 2734 653 3104 758 
Q 3475 863 3866 1075 
L 3866 213 
Q 3469 63 3072 -14 
Q 2675 -91 2278 -91 
Q 1328 -91 801 392 
Q 275 875 275 1747 
Q 275 2603 792 3093 
Q 1309 3584 2216 3584 
Q 3041 3584 3536 3087 
Q 4031 2591 4031 1759 
z
M 2881 2131 
Q 2881 2450 2695 2645 
Q 2509 2841 2209 2841 
Q 1884 2841 1681 2658 
Q 1478 2475 1428 2131 
L 2881 2131 
z
" id="DejaVuSans-Bold-65" transform="scale(0.015625)"/>
       </defs>
       <use xlink:href="#DejaVuSans-Bold-53"/>
       <use x="72.021484" xlink:href="#DejaVuSans-Bold-65"/>
       <use x="139.84375" xlink:href="#DejaVuSans-Bold-70"/>
      </g>
     </g>
    </g>
    <g id="xtick_8">
     <g id="line2d_8">
      <g>
       <use style="fill:#555555;stroke:#555555;stroke-width:0.8;" x="546.175464" xlink:href="#mca14a81692" y="541.28"/>
      </g>
     </g>
     <g id="text_8">
      <!-- Oct -->
      <g style="fill:#555555;" transform="translate(532.728901 558.917812)scale(0.14 -0.14)">
       <defs>
        <path d="M 2719 3878 
Q 2169 3878 1866 3472 
Q 1563 3066 1563 2328 
Q 1563 1594 1866 1187 
Q 2169 781 2719 781 
Q 3272 781 3575 1187 
Q 3878 1594 3878 2328 
Q 3878 3066 3575 3472 
Q 3272 3878 2719 3878 
z
M 2719 4750 
Q 3844 4750 4481 4106 
Q 5119 3463 5119 2328 
Q 5119 1197 4481 553 
Q 3844 -91 2719 -91 
Q 1597 -91 958 553 
Q 319 1197 319 2328 
Q 319 3463 958 4106 
Q 1597 4750 2719 4750 
z
" id="DejaVuSans-Bold-4f" transform="scale(0.015625)"/>
        <path d="M 3366 3391 
L 3366 2478 
Q 3138 2634 2908 2709 
Q 2678 2784 2431 2784 
Q 1963 2784 1702 2511 
Q 1441 2238 1441 1747 
Q 1441 1256 1702 982 
Q 1963 709 2431 709 
Q 2694 709 2930 787 
Q 3166 866 3366 1019 
L 3366 103 
Q 3103 6 2833 -42 
Q 2563 -91 2291 -91 
Q 1344 -91 809 395 
Q 275 881 275 1747 
Q 275 2613 809 3098 
Q 1344 3584 2291 3584 
Q 2566 3584 2833 3536 
Q 3100 3488 3366 3391 
z
" id="DejaVuSans-Bold-63" transform="scale(0.015625)"/>
        <path d="M 1759 4494 
L 1759 3500 
L 2913 3500 
L 2913 2700 
L 1759 2700 
L 1759 1216 
Q 1759 972 1856 886 
Q 1953 800 2241 800 
L 2816 800 
L 2816 0 
L 1856 0 
Q 1194 0 917 276 
Q 641 553 641 1216 
L 641 2700 
L 84 2700 
L 84 3500 
L 641 3500 
L 641 4494 
L 1759 4494 
z
" id="DejaVuSans-Bold-74" transform="scale(0.015625)"/>
       </defs>
       <use xlink:href="#DejaVuSans-Bold-4f"/>
       <use x="85.009766" xlink:href="#DejaVuSans-Bold-63"/>
       <use x="144.287109" xlink:href="#DejaVuSans-Bold-74"/>
      </g>
     </g>
    </g>
    <g id="xtick_9">
     <g id="line2d_9">
      <g>
       <use style="fill:#555555;stroke:#555555;stroke-width:0.8;" x="607.062688" xlink:href="#mca14a81692" y="541.28"/>
      </g>
     </g>
     <g id="text_9">
      <!-- Nov -->
      <g style="fill:#555555;" transform="translate(591.832219 558.917812)scale(0.14 -0.14)">
       <defs>
        <path d="M 588 4666 
L 1931 4666 
L 3628 1466 
L 3628 4666 
L 4769 4666 
L 4769 0 
L 3425 0 
L 1728 3200 
L 1728 0 
L 588 0 
L 588 4666 
z
" id="DejaVuSans-Bold-4e" transform="scale(0.015625)"/>
        <path d="M 2203 2784 
Q 1831 2784 1636 2517 
Q 1441 2250 1441 1747 
Q 1441 1244 1636 976 
Q 1831 709 2203 709 
Q 2569 709 2762 976 
Q 2956 1244 2956 1747 
Q 2956 2250 2762 2517 
Q 2569 2784 2203 2784 
z
M 2203 3584 
Q 3106 3584 3614 3096 
Q 4122 2609 4122 1747 
Q 4122 884 3614 396 
Q 3106 -91 2203 -91 
Q 1297 -91 786 396 
Q 275 884 275 1747 
Q 275 2609 786 3096 
Q 1297 3584 2203 3584 
z
" id="DejaVuSans-Bold-6f" transform="scale(0.015625)"/>
        <path d="M 97 3500 
L 1216 3500 
L 2088 1081 
L 2956 3500 
L 4078 3500 
L 2700 0 
L 1472 0 
L 97 3500 
z
" id="DejaVuSans-Bold-76" transform="scale(0.015625)"/>
       </defs>
       <use xlink:href="#DejaVuSans-Bold-4e"/>
       <use x="83.691406" xlink:href="#DejaVuSans-Bold-6f"/>
       <use x="152.392578" xlink:href="#DejaVuSans-Bold-76"/>
      </g>
     </g>
    </g>
    <g id="xtick_10">
     <g id="line2d_10">
      <g>
       <use style="fill:#555555;stroke:#555555;stroke-width:0.8;" x="665.985808" xlink:href="#mca14a81692" y="541.28"/>
      </g>
     </g>
     <g id="text_10">
      <!-- Dec -->
      <g style="fill:#555555;" transform="translate(651.277058 558.917812)scale(0.14 -0.14)">
       <defs>
        <path d="M 1791 3756 
L 1791 909 
L 2222 909 
Q 2959 909 3348 1275 
Q 3738 1641 3738 2338 
Q 3738 3031 3350 3393 
Q 2963 3756 2222 3756 
L 1791 3756 
z
M 588 4666 
L 1856 4666 
Q 2919 4666 3439 4514 
Q 3959 4363 4331 4000 
Q 4659 3684 4818 3271 
Q 4978 2859 4978 2338 
Q 4978 1809 4818 1395 
Q 4659 981 4331 666 
Q 3956 303 3431 151 
Q 2906 0 1856 0 
L 588 0 
L 588 4666 
z
" id="DejaVuSans-Bold-44" transform="scale(0.015625)"/>
       </defs>
       <use xlink:href="#DejaVuSans-Bold-44"/>
       <use x="83.007812" xlink:href="#DejaVuSans-Bold-65"/>
       <use x="150.830078" xlink:href="#DejaVuSans-Bold-63"/>
      </g>
     </g>
    </g>
    <g id="xtick_11">
     <g id="line2d_11">
      <g>
       <use style="fill:#555555;stroke:#555555;stroke-width:0.8;" x="726.873032" xlink:href="#mca14a81692" y="541.28"/>
      </g>
     </g>
     <g id="text_11">
      <!-- Jan -->
      <g style="fill:#555555;" transform="translate(714.561782 558.917812)scale(0.14 -0.14)">
       <use xlink:href="#DejaVuSans-Bold-4a"/>
       <use x="37.207031" xlink:href="#DejaVuSans-Bold-61"/>
       <use x="104.6875" xlink:href="#DejaVuSans-Bold-6e"/>
      </g>
     </g>
    </g>
    <g id="xtick_12">
     <g id="line2d_12">
      <g>
       <use style="fill:#555555;stroke:#555555;stroke-width:0.8;" x="787.760256" xlink:href="#mca14a81692" y="541.28"/>
      </g>
     </g>
     <g id="text_12">
      <!-- Feb -->
      <g style="fill:#555555;" transform="translate(773.499944 558.917812)scale(0.14 -0.14)">
       <defs>
        <path d="M 588 4666 
L 3834 4666 
L 3834 3756 
L 1791 3756 
L 1791 2888 
L 3713 2888 
L 3713 1978 
L 1791 1978 
L 1791 0 
L 588 0 
L 588 4666 
z
" id="DejaVuSans-Bold-46" transform="scale(0.015625)"/>
        <path d="M 2400 722 
Q 2759 722 2948 984 
Q 3138 1247 3138 1747 
Q 3138 2247 2948 2509 
Q 2759 2772 2400 2772 
Q 2041 2772 1848 2508 
Q 1656 2244 1656 1747 
Q 1656 1250 1848 986 
Q 2041 722 2400 722 
z
M 1656 2988 
Q 1888 3294 2169 3439 
Q 2450 3584 2816 3584 
Q 3463 3584 3878 3070 
Q 4294 2556 4294 1747 
Q 4294 938 3878 423 
Q 3463 -91 2816 -91 
Q 2450 -91 2169 54 
Q 1888 200 1656 506 
L 1656 0 
L 538 0 
L 538 4863 
L 1656 4863 
L 1656 2988 
z
" id="DejaVuSans-Bold-62" transform="scale(0.015625)"/>
       </defs>
       <use xlink:href="#DejaVuSans-Bold-46"/>
       <use x="64.310547" xlink:href="#DejaVuSans-Bold-65"/>
       <use x="132.132812" xlink:href="#DejaVuSans-Bold-62"/>
      </g>
     </g>
    </g>
    <g id="xtick_13">
     <g id="line2d_13">
      <g>
       <use style="fill:#555555;stroke:#555555;stroke-width:0.8;" x="842.755168" xlink:href="#mca14a81692" y="541.28"/>
      </g>
     </g>
     <g id="text_13">
      <!-- Mar -->
      <g style="fill:#555555;" transform="translate(827.613293 558.917812)scale(0.14 -0.14)">
       <use xlink:href="#DejaVuSans-Bold-4d"/>
       <use x="99.511719" xlink:href="#DejaVuSans-Bold-61"/>
       <use x="166.992188" xlink:href="#DejaVuSans-Bold-72"/>
      </g>
     </g>
    </g>
    <g id="xtick_14">
     <g id="line2d_14">
      <g>
       <use style="fill:#555555;stroke:#555555;stroke-width:0.8;" x="903.642392" xlink:href="#mca14a81692" y="541.28"/>
      </g>
     </g>
     <g id="text_14">
      <!-- Apr -->
      <g style="fill:#555555;" transform="translate(889.762705 558.917812)scale(0.14 -0.14)">
       <use xlink:href="#DejaVuSans-Bold-41"/>
       <use x="77.392578" xlink:href="#DejaVuSans-Bold-70"/>
       <use x="148.974609" xlink:href="#DejaVuSans-Bold-72"/>
      </g>
     </g>
    </g>
    <g id="xtick_15">
     <g id="line2d_15">
      <g>
       <use style="fill:#555555;stroke:#555555;stroke-width:0.8;" x="962.565513" xlink:href="#mca14a81692" y="541.28"/>
      </g>
     </g>
     <g id="text_15">
      <!-- May -->
      <g style="fill:#555555;" transform="translate(946.531138 558.808437)scale(0.14 -0.14)">
       <use xlink:href="#DejaVuSans-Bold-4d"/>
       <use x="99.511719" xlink:href="#DejaVuSans-Bold-61"/>
       <use x="163.867188" xlink:href="#DejaVuSans-Bold-79"/>
      </g>
     </g>
    </g>
    <g id="xtick_16">
     <g id="line2d_16">
      <g>
       <use style="fill:#555555;stroke:#555555;stroke-width:0.8;" x="1023.452737" xlink:href="#mca14a81692" y="541.28"/>
      </g>
     </g>
     <g id="text_16">
      <!-- Jun -->
      <g style="fill:#555555;" transform="translate(1010.882268 558.917812)scale(0.14 -0.14)">
       <use xlink:href="#DejaVuSans-Bold-4a"/>
       <use x="37.207031" xlink:href="#DejaVuSans-Bold-75"/>
       <use x="108.398438" xlink:href="#DejaVuSans-Bold-6e"/>
      </g>
     </g>
    </g>
    <g id="xtick_17">
     <g id="line2d_17">
      <g>
       <use style="fill:#555555;stroke:#555555;stroke-width:0.8;" x="1082.375857" xlink:href="#mca14a81692" y="541.28"/>
      </g>
     </g>
     <g id="text_17">
      <!-- Jul -->
      <g style="fill:#555555;" transform="translate(1072.388825 558.917812)scale(0.14 -0.14)">
       <use xlink:href="#DejaVuSans-Bold-4a"/>
       <use x="37.207031" xlink:href="#DejaVuSans-Bold-75"/>
       <use x="108.398438" xlink:href="#DejaVuSans-Bold-6c"/>
      </g>
     </g>
    </g>
   </g>
   <g id="matplotlib.axis_2">
    <g id="ytick_1">
     <g id="line2d_18">
      <defs>
       <path d="M 0 0 
L -3.5 0 
" id="mf050026f28" style="stroke:#555555;stroke-width:0.8;"/>
      </defs>
      <g>
       <use style="fill:#555555;stroke:#555555;stroke-width:0.8;" x="87.95" xlink:href="#mf050026f28" y="519.485405"/>
      </g>
     </g>
     <g id="text_18">
      <!-- 0 -->
      <g style="fill:#555555;" transform="translate(71.209063 524.804311)scale(0.14 -0.14)">
       <defs>
        <path d="M 2944 2338 
Q 2944 3213 2780 3570 
Q 2616 3928 2228 3928 
Q 1841 3928 1675 3570 
Q 1509 3213 1509 2338 
Q 1509 1453 1675 1090 
Q 1841 728 2228 728 
Q 2613 728 2778 1090 
Q 2944 1453 2944 2338 
z
M 4147 2328 
Q 4147 1169 3647 539 
Q 3147 -91 2228 -91 
Q 1306 -91 806 539 
Q 306 1169 306 2328 
Q 306 3491 806 4120 
Q 1306 4750 2228 4750 
Q 3147 4750 3647 4120 
Q 4147 3491 4147 2328 
z
" id="DejaVuSans-Bold-30" transform="scale(0.015625)"/>
       </defs>
       <use xlink:href="#DejaVuSans-Bold-30"/>
      </g>
     </g>
    </g>
    <g id="ytick_2">
     <g id="line2d_19">
      <g>
       <use style="fill:#555555;stroke:#555555;stroke-width:0.8;" x="87.95" xlink:href="#mf050026f28" y="448.872754"/>
      </g>
     </g>
     <g id="text_19">
      <!-- 2000 -->
      <g style="fill:#555555;" transform="translate(41.98625 454.19166)scale(0.14 -0.14)">
       <defs>
        <path d="M 1844 884 
L 3897 884 
L 3897 0 
L 506 0 
L 506 884 
L 2209 2388 
Q 2438 2594 2547 2791 
Q 2656 2988 2656 3200 
Q 2656 3528 2436 3728 
Q 2216 3928 1850 3928 
Q 1569 3928 1234 3808 
Q 900 3688 519 3450 
L 519 4475 
Q 925 4609 1322 4679 
Q 1719 4750 2100 4750 
Q 2938 4750 3402 4381 
Q 3866 4013 3866 3353 
Q 3866 2972 3669 2642 
Q 3472 2313 2841 1759 
L 1844 884 
z
" id="DejaVuSans-Bold-32" transform="scale(0.015625)"/>
       </defs>
       <use xlink:href="#DejaVuSans-Bold-32"/>
       <use x="69.580078" xlink:href="#DejaVuSans-Bold-30"/>
       <use x="139.160156" xlink:href="#DejaVuSans-Bold-30"/>
       <use x="208.740234" xlink:href="#DejaVuSans-Bold-30"/>
      </g>
     </g>
    </g>
    <g id="ytick_3">
     <g id="line2d_20">
      <g>
       <use style="fill:#555555;stroke:#555555;stroke-width:0.8;" x="87.95" xlink:href="#mf050026f28" y="378.260103"/>
      </g>
     </g>
     <g id="text_20">
      <!-- 4000 -->
      <g style="fill:#555555;" transform="translate(41.98625 383.579009)scale(0.14 -0.14)">
       <defs>
        <path d="M 2356 3675 
L 1038 1722 
L 2356 1722 
L 2356 3675 
z
M 2156 4666 
L 3494 4666 
L 3494 1722 
L 4159 1722 
L 4159 850 
L 3494 850 
L 3494 0 
L 2356 0 
L 2356 850 
L 288 850 
L 288 1881 
L 2156 4666 
z
" id="DejaVuSans-Bold-34" transform="scale(0.015625)"/>
       </defs>
       <use xlink:href="#DejaVuSans-Bold-34"/>
       <use x="69.580078" xlink:href="#DejaVuSans-Bold-30"/>
       <use x="139.160156" xlink:href="#DejaVuSans-Bold-30"/>
       <use x="208.740234" xlink:href="#DejaVuSans-Bold-30"/>
      </g>
     </g>
    </g>
    <g id="ytick_4">
     <g id="line2d_21">
      <g>
       <use style="fill:#555555;stroke:#555555;stroke-width:0.8;" x="87.95" xlink:href="#mf050026f28" y="307.647451"/>
      </g>
     </g>
     <g id="text_21">
      <!-- 6000 -->
      <g style="fill:#555555;" transform="translate(41.98625 312.966358)scale(0.14 -0.14)">
       <defs>
        <path d="M 2316 2303 
Q 2000 2303 1842 2098 
Q 1684 1894 1684 1484 
Q 1684 1075 1842 870 
Q 2000 666 2316 666 
Q 2634 666 2792 870 
Q 2950 1075 2950 1484 
Q 2950 1894 2792 2098 
Q 2634 2303 2316 2303 
z
M 3803 4544 
L 3803 3681 
Q 3506 3822 3243 3889 
Q 2981 3956 2731 3956 
Q 2194 3956 1894 3657 
Q 1594 3359 1544 2772 
Q 1750 2925 1990 3001 
Q 2231 3078 2516 3078 
Q 3231 3078 3670 2659 
Q 4109 2241 4109 1563 
Q 4109 813 3618 361 
Q 3128 -91 2303 -91 
Q 1394 -91 895 523 
Q 397 1138 397 2266 
Q 397 3422 980 4083 
Q 1563 4744 2578 4744 
Q 2900 4744 3203 4694 
Q 3506 4644 3803 4544 
z
" id="DejaVuSans-Bold-36" transform="scale(0.015625)"/>
       </defs>
       <use xlink:href="#DejaVuSans-Bold-36"/>
       <use x="69.580078" xlink:href="#DejaVuSans-Bold-30"/>
       <use x="139.160156" xlink:href="#DejaVuSans-Bold-30"/>
       <use x="208.740234" xlink:href="#DejaVuSans-Bold-30"/>
      </g>
     </g>
    </g>
    <g id="ytick_5">
     <g id="line2d_22">
      <g>
       <use style="fill:#555555;stroke:#555555;stroke-width:0.8;" x="87.95" xlink:href="#mf050026f28" y="237.0348"/>
      </g>
     </g>
     <g id="text_22">
      <!-- 8000 -->
      <g style="fill:#555555;" transform="translate(41.98625 242.353706)scale(0.14 -0.14)">
       <defs>
        <path d="M 2228 2088 
Q 1891 2088 1709 1903 
Q 1528 1719 1528 1375 
Q 1528 1031 1709 848 
Q 1891 666 2228 666 
Q 2563 666 2741 848 
Q 2919 1031 2919 1375 
Q 2919 1722 2741 1905 
Q 2563 2088 2228 2088 
z
M 1350 2484 
Q 925 2613 709 2878 
Q 494 3144 494 3541 
Q 494 4131 934 4440 
Q 1375 4750 2228 4750 
Q 3075 4750 3515 4442 
Q 3956 4134 3956 3541 
Q 3956 3144 3739 2878 
Q 3522 2613 3097 2484 
Q 3572 2353 3814 2058 
Q 4056 1763 4056 1313 
Q 4056 619 3595 264 
Q 3134 -91 2228 -91 
Q 1319 -91 855 264 
Q 391 619 391 1313 
Q 391 1763 633 2058 
Q 875 2353 1350 2484 
z
M 1631 3419 
Q 1631 3141 1786 2991 
Q 1941 2841 2228 2841 
Q 2509 2841 2662 2991 
Q 2816 3141 2816 3419 
Q 2816 3697 2662 3845 
Q 2509 3994 2228 3994 
Q 1941 3994 1786 3844 
Q 1631 3694 1631 3419 
z
" id="DejaVuSans-Bold-38" transform="scale(0.015625)"/>
       </defs>
       <use xlink:href="#DejaVuSans-Bold-38"/>
       <use x="69.580078" xlink:href="#DejaVuSans-Bold-30"/>
       <use x="139.160156" xlink:href="#DejaVuSans-Bold-30"/>
       <use x="208.740234" xlink:href="#DejaVuSans-Bold-30"/>
      </g>
     </g>
    </g>
    <g id="ytick_6">
     <g id="line2d_23">
      <g>
       <use style="fill:#555555;stroke:#555555;stroke-width:0.8;" x="87.95" xlink:href="#mf050026f28" y="166.422149"/>
      </g>
     </g>
     <g id="text_23">
      <!-- 10000 -->
      <g style="fill:#555555;" transform="translate(32.245313 171.741055)scale(0.14 -0.14)">
       <defs>
        <path d="M 750 831 
L 1813 831 
L 1813 3847 
L 722 3622 
L 722 4441 
L 1806 4666 
L 2950 4666 
L 2950 831 
L 4013 831 
L 4013 0 
L 750 0 
L 750 831 
z
" id="DejaVuSans-Bold-31" transform="scale(0.015625)"/>
       </defs>
       <use xlink:href="#DejaVuSans-Bold-31"/>
       <use x="69.580078" xlink:href="#DejaVuSans-Bold-30"/>
       <use x="139.160156" xlink:href="#DejaVuSans-Bold-30"/>
       <use x="208.740234" xlink:href="#DejaVuSans-Bold-30"/>
       <use x="278.320312" xlink:href="#DejaVuSans-Bold-30"/>
      </g>
     </g>
    </g>
    <g id="ytick_7">
     <g id="line2d_24">
      <g>
       <use style="fill:#555555;stroke:#555555;stroke-width:0.8;" x="87.95" xlink:href="#mf050026f28" y="95.809498"/>
      </g>
     </g>
     <g id="text_24">
      <!-- 12000 -->
      <g style="fill:#555555;" transform="translate(32.245313 101.128404)scale(0.14 -0.14)">
       <use xlink:href="#DejaVuSans-Bold-31"/>
       <use x="69.580078" xlink:href="#DejaVuSans-Bold-32"/>
       <use x="139.160156" xlink:href="#DejaVuSans-Bold-30"/>
       <use x="208.740234" xlink:href="#DejaVuSans-Bold-30"/>
       <use x="278.320312" xlink:href="#DejaVuSans-Bold-30"/>
      </g>
     </g>
    </g>
    <g id="text_25">
     <!-- New Cases -->
     <g style="fill:#555555;" transform="translate(24.917813 333.23875)rotate(-90)scale(0.16 -0.16)">
      <defs>
       <path d="M 628 4666 
L 1478 4666 
L 3547 763 
L 3547 4666 
L 4159 4666 
L 4159 0 
L 3309 0 
L 1241 3903 
L 1241 0 
L 628 0 
L 628 4666 
z
" id="DejaVuSans-4e" transform="scale(0.015625)"/>
       <path d="M 3597 1894 
L 3597 1613 
L 953 1613 
Q 991 1019 1311 708 
Q 1631 397 2203 397 
Q 2534 397 2845 478 
Q 3156 559 3463 722 
L 3463 178 
Q 3153 47 2828 -22 
Q 2503 -91 2169 -91 
Q 1331 -91 842 396 
Q 353 884 353 1716 
Q 353 2575 817 3079 
Q 1281 3584 2069 3584 
Q 2775 3584 3186 3129 
Q 3597 2675 3597 1894 
z
M 3022 2063 
Q 3016 2534 2758 2815 
Q 2500 3097 2075 3097 
Q 1594 3097 1305 2825 
Q 1016 2553 972 2059 
L 3022 2063 
z
" id="DejaVuSans-65" transform="scale(0.015625)"/>
       <path d="M 269 3500 
L 844 3500 
L 1563 769 
L 2278 3500 
L 2956 3500 
L 3675 769 
L 4391 3500 
L 4966 3500 
L 4050 0 
L 3372 0 
L 2619 2869 
L 1863 0 
L 1184 0 
L 269 3500 
z
" id="DejaVuSans-77" transform="scale(0.015625)"/>
       <path id="DejaVuSans-20" transform="scale(0.015625)"/>
       <path d="M 4122 4306 
L 4122 3641 
Q 3803 3938 3442 4084 
Q 3081 4231 2675 4231 
Q 1875 4231 1450 3742 
Q 1025 3253 1025 2328 
Q 1025 1406 1450 917 
Q 1875 428 2675 428 
Q 3081 428 3442 575 
Q 3803 722 4122 1019 
L 4122 359 
Q 3791 134 3420 21 
Q 3050 -91 2638 -91 
Q 1578 -91 968 557 
Q 359 1206 359 2328 
Q 359 3453 968 4101 
Q 1578 4750 2638 4750 
Q 3056 4750 3426 4639 
Q 3797 4528 4122 4306 
z
" id="DejaVuSans-43" transform="scale(0.015625)"/>
       <path d="M 2194 1759 
Q 1497 1759 1228 1600 
Q 959 1441 959 1056 
Q 959 750 1161 570 
Q 1363 391 1709 391 
Q 2188 391 2477 730 
Q 2766 1069 2766 1631 
L 2766 1759 
L 2194 1759 
z
M 3341 1997 
L 3341 0 
L 2766 0 
L 2766 531 
Q 2569 213 2275 61 
Q 1981 -91 1556 -91 
Q 1019 -91 701 211 
Q 384 513 384 1019 
Q 384 1609 779 1909 
Q 1175 2209 1959 2209 
L 2766 2209 
L 2766 2266 
Q 2766 2663 2505 2880 
Q 2244 3097 1772 3097 
Q 1472 3097 1187 3025 
Q 903 2953 641 2809 
L 641 3341 
Q 956 3463 1253 3523 
Q 1550 3584 1831 3584 
Q 2591 3584 2966 3190 
Q 3341 2797 3341 1997 
z
" id="DejaVuSans-61" transform="scale(0.015625)"/>
       <path d="M 2834 3397 
L 2834 2853 
Q 2591 2978 2328 3040 
Q 2066 3103 1784 3103 
Q 1356 3103 1142 2972 
Q 928 2841 928 2578 
Q 928 2378 1081 2264 
Q 1234 2150 1697 2047 
L 1894 2003 
Q 2506 1872 2764 1633 
Q 3022 1394 3022 966 
Q 3022 478 2636 193 
Q 2250 -91 1575 -91 
Q 1294 -91 989 -36 
Q 684 19 347 128 
L 347 722 
Q 666 556 975 473 
Q 1284 391 1588 391 
Q 1994 391 2212 530 
Q 2431 669 2431 922 
Q 2431 1156 2273 1281 
Q 2116 1406 1581 1522 
L 1381 1569 
Q 847 1681 609 1914 
Q 372 2147 372 2553 
Q 372 3047 722 3315 
Q 1072 3584 1716 3584 
Q 2034 3584 2315 3537 
Q 2597 3491 2834 3397 
z
" id="DejaVuSans-73" transform="scale(0.015625)"/>
      </defs>
      <use xlink:href="#DejaVuSans-4e"/>
      <use x="74.804688" xlink:href="#DejaVuSans-65"/>
      <use x="136.328125" xlink:href="#DejaVuSans-77"/>
      <use x="218.115234" xlink:href="#DejaVuSans-20"/>
      <use x="249.902344" xlink:href="#DejaVuSans-43"/>
      <use x="319.726562" xlink:href="#DejaVuSans-61"/>
      <use x="381.005859" xlink:href="#DejaVuSans-73"/>
      <use x="433.105469" xlink:href="#DejaVuSans-65"/>
      <use x="494.628906" xlink:href="#DejaVuSans-73"/>
     </g>
    </g>
   </g>
   <g id="line2d_25">
    <path clip-path="url(#pccb9cf5da3)" d="M 135.677727 518.073152 
L 137.641831 517.720089 
L 139.605935 518.355603 
L 141.570039 517.331719 
L 143.534143 514.895583 
L 145.498247 515.142727 
L 147.462351 515.001502 
L 149.426455 515.49579 
L 151.390559 511.75332 
L 153.354663 513.377411 
L 155.318767 509.952697 
L 157.282871 509.317183 
L 159.246975 507.23411 
L 161.211079 505.5041 
L 163.175183 500.667134 
L 165.139287 496.995276 
L 167.103391 498.125078 
L 169.067495 499.961007 
L 171.031599 493.040967 
L 172.995703 489.722173 
L 176.923911 478.282923 
L 178.888015 479.024356 
L 180.852119 480.930898 
L 182.816223 488.662983 
L 184.780327 490.03993 
L 186.744431 483.896629 
L 188.708535 481.248655 
L 190.672639 483.472953 
L 192.636743 484.108467 
L 194.600847 480.683753 
L 198.529055 491.875859 
L 200.493159 485.626639 
L 202.457263 476.835364 
L 204.421367 472.633911 
L 206.385471 473.551876 
L 208.349575 478.141698 
L 210.313679 485.626639 
L 212.277783 489.051352 
L 214.241887 493.711787 
L 216.205991 481.742943 
L 218.170095 475.917399 
L 220.134199 477.612103 
L 222.098303 483.367034 
L 224.062407 493.076274 
L 226.026511 494.206076 
L 227.990615 494.488527 
L 229.954719 488.627677 
L 231.918823 491.063813 
L 233.882927 496.642212 
L 235.847031 496.500987 
L 237.811135 505.186343 
L 239.775239 512.671284 
L 241.739343 505.786551 
L 243.703447 501.585098 
L 245.667551 502.608982 
L 247.631655 504.056541 
L 249.595759 507.551867 
L 251.559863 512.388834 
L 253.523967 508.222687 
L 255.488071 508.222687 
L 257.452175 506.739822 
L 259.416279 508.222687 
L 261.380383 509.317183 
L 263.344487 510.941274 
L 265.308591 513.165573 
L 267.272695 512.600672 
L 269.236799 511.612095 
L 271.200903 509.811472 
L 273.165007 512.353527 
L 275.129111 512.635978 
L 277.093215 515.072114 
L 279.057319 514.260069 
L 281.021423 515.566403 
L 282.985527 512.883122 
L 284.949632 510.517598 
L 286.913736 512.989041 
L 290.841944 513.377411 
L 292.806048 511.965158 
L 294.770152 514.930889 
L 296.734256 512.635978 
L 298.69836 513.200879 
L 300.662464 513.200879 
L 302.626568 514.507213 
L 304.590672 513.271492 
L 306.554776 515.813547 
L 308.51888 516.131304 
L 310.482984 516.201917 
L 312.447088 512.847816 
L 314.411192 511.823933 
L 316.375296 512.777203 
L 318.3394 511.047193 
L 320.303504 513.624555 
L 322.267608 513.695168 
L 324.231712 513.09496 
L 326.195816 513.76578 
L 328.15992 512.176996 
L 330.124024 513.09496 
L 332.088128 514.401294 
L 334.052232 513.871699 
L 336.016336 514.754358 
L 337.98044 515.49579 
L 339.944544 515.107421 
L 343.872752 516.307836 
L 345.836856 516.131304 
L 347.80096 517.084575 
L 349.765064 517.013962 
L 351.729168 516.660899 
L 353.693272 515.601709 
L 357.62148 516.766818 
L 359.585584 517.155188 
L 361.549688 516.802124 
L 363.513792 517.472945 
L 365.477896 517.296413 
L 367.442 516.837431 
L 369.406104 516.802124 
L 371.370208 517.190494 
L 373.334312 516.94335 
L 375.298416 518.037846 
L 377.26252 518.28499 
L 379.226624 517.472945 
L 383.154832 517.190494 
L 385.118936 516.519674 
L 387.08304 516.131304 
L 389.047144 516.94335 
L 391.011248 516.025385 
L 394.939456 515.283952 
L 396.90356 515.637016 
L 398.867664 514.365988 
L 400.831768 514.365988 
L 402.795872 513.024348 
L 404.759976 513.518636 
L 406.72408 513.48333 
L 410.652288 514.012925 
L 414.580496 511.965158 
L 416.5446 512.106383 
L 418.508704 511.576788 
L 420.472808 510.729436 
L 422.436912 507.445948 
L 424.401016 507.445948 
L 426.36512 504.268379 
L 428.329224 506.810434 
L 430.293328 506.351452 
L 432.257432 502.291225 
L 434.221536 504.374298 
L 436.18564 498.125078 
L 438.149744 501.232035 
L 440.113848 502.397144 
L 442.077952 499.113655 
L 444.042056 491.699327 
L 446.00616 497.595483 
L 447.970264 496.500987 
L 449.934368 499.148962 
L 451.898472 497.348339 
L 453.862576 496.324456 
L 455.82668 501.867549 
L 457.790784 502.326531 
L 459.754888 502.079387 
L 461.718992 499.961007 
L 463.683096 500.737746 
L 465.6472 500.667134 
L 467.611304 501.585098 
L 469.575408 503.421027 
L 471.539512 499.254881 
L 473.503616 504.797974 
L 475.46772 499.290187 
L 477.431824 501.549792 
L 479.395928 501.796936 
L 483.324136 501.620404 
L 485.28824 500.914278 
L 487.252344 502.997351 
L 489.216448 494.064851 
L 491.180552 498.336916 
L 493.144656 493.252805 
L 495.10876 496.5716 
L 497.072864 487.003586 
L 499.036968 491.416876 
L 502.965176 479.236194 
L 504.92928 489.934011 
L 506.893384 474.611065 
L 508.857488 476.341075 
L 510.821592 481.107429 
L 512.785696 473.693101 
L 514.7498 470.903901 
L 516.713904 465.219583 
L 518.678008 458.087705 
L 520.642112 450.461539 
L 522.606216 452.685837 
L 524.57032 454.380541 
L 526.534424 441.423119 
L 528.498528 440.505155 
L 530.462632 437.080441 
L 532.426736 429.948563 
L 534.39084 421.898721 
L 536.354944 424.158326 
L 538.319048 414.41378 
L 540.283152 417.026448 
L 542.247256 413.425203 
L 544.21136 403.468819 
L 546.175464 404.633928 
L 548.139568 385.180142 
L 550.103672 380.555014 
L 552.067776 378.86031 
L 554.03188 358.665092 
L 555.995984 359.93612 
L 557.960088 343.942354 
L 559.924192 315.273618 
L 561.888296 309.059704 
L 563.8524 290.771028 
L 565.816504 295.572688 
L 567.780608 279.296472 
L 569.744712 260.548813 
L 571.708816 263.443932 
L 573.67292 244.872804 
L 575.637024 238.76481 
L 577.601128 233.327636 
L 579.565232 231.809464 
L 581.529336 237.529089 
L 583.49344 231.950689 
L 585.457544 211.790777 
L 587.421648 192.866587 
L 589.385752 167.340113 
L 591.349856 214.368139 
L 593.31396 160.490686 
L 595.278064 155.724332 
L 597.242168 156.99536 
L 599.206272 234.316213 
L 601.170376 157.701486 
L 603.13448 128.750299 
L 605.098584 174.471991 
L 607.062688 213.061805 
L 609.026792 227.678624 
L 610.990896 246.285057 
L 612.955 251.15733 
L 614.919104 274.247667 
L 616.883208 264.32659 
L 618.847312 285.898755 
L 622.77552 354.604864 
L 624.739624 355.522829 
L 626.703728 329.431454 
L 628.667832 321.099161 
L 630.631936 305.246621 
L 632.59604 311.248697 
L 634.560144 328.195733 
L 638.488352 368.339025 
L 640.452456 357.641208 
L 642.41656 318.733638 
L 644.380664 310.048282 
L 646.344768 307.506226 
L 648.308872 330.314112 
L 650.272976 336.563332 
L 652.23708 380.131338 
L 654.201184 346.131346 
L 656.165288 361.736742 
L 658.129392 316.40342 
L 660.093496 361.842661 
L 662.0576 323.005703 
L 664.021704 358.064884 
L 665.985808 376.918462 
L 667.949912 346.201959 
L 669.914016 321.98182 
L 671.87812 311.495841 
L 673.842224 288.970405 
L 675.806328 280.779338 
L 677.770432 269.022331 
L 679.734536 303.445999 
L 681.69864 288.44081 
L 683.662744 212.002615 
L 685.626848 207.483406 
L 687.590952 197.421103 
L 689.555056 170.729521 
L 691.51916 220.758584 
L 693.483264 285.36916 
L 695.447368 125.254973 
L 697.411472 68.341176 
L 699.375576 97.32767 
L 701.33968 87.900881 
L 703.303784 60.609091 
L 705.267888 125.608036 
L 707.231992 172.706675 
L 709.196096 152.546763 
L 711.1602 113.674498 
L 713.124304 113.639192 
L 715.088408 172.953819 
L 717.052512 201.551943 
L 719.016616 258.289208 
L 720.98072 254.052449 
L 722.944824 185.875934 
L 724.908928 178.249768 
L 726.873032 231.068031 
L 728.837136 216.239374 
L 730.80124 258.359821 
L 732.765344 285.333854 
L 734.729448 294.619417 
L 736.693552 269.163556 
L 738.657656 177.790786 
L 740.62176 233.080492 
L 742.585864 260.690038 
L 744.549968 286.393043 
L 746.514072 327.136543 
L 748.478176 345.001544 
L 750.44228 304.434576 
L 752.406384 290.029595 
L 754.370488 306.729487 
L 756.334592 332.538411 
L 758.298696 322.405495 
L 760.2628 350.579943 
L 762.226904 367.844737 
L 764.191008 322.864478 
L 766.155112 314.532185 
L 768.119216 316.615258 
L 770.08332 327.207156 
L 772.047424 347.15523 
L 774.011528 375.11784 
L 775.975632 379.707662 
L 777.939736 352.663017 
L 779.90384 353.863432 
L 781.867944 364.208185 
L 783.832048 372.187415 
L 785.796152 389.62874 
L 787.760256 405.163523 
L 789.72436 394.218562 
L 791.688464 377.624589 
L 793.652568 371.198838 
L 795.616672 366.997385 
L 797.580776 375.11784 
L 799.54488 381.155221 
L 801.508984 439.799028 
L 803.473088 457.381578 
L 805.437192 407.458434 
L 807.401296 363.184302 
L 809.3654 366.714934 
L 811.329504 372.187415 
L 813.293608 398.525934 
L 815.257712 419.144828 
L 817.221816 424.511389 
L 819.18592 400.5737 
L 821.150024 358.559173 
L 823.114128 354.393027 
L 825.078232 359.229993 
L 827.042336 354.640171 
L 829.00644 371.94027 
L 830.970544 385.003611 
L 832.934648 365.232068 
L 834.898752 343.448066 
L 836.862856 339.811514 
L 838.82696 345.70767 
L 840.791064 355.840586 
L 842.755168 387.12199 
L 844.719272 379.495824 
L 846.683376 342.141732 
L 848.64748 375.011921 
L 850.611584 354.887315 
L 852.575688 331.938203 
L 854.539792 360.324489 
L 856.503896 382.355636 
L 858.468 368.162494 
L 860.432104 333.809439 
L 862.396208 332.467798 
L 864.360312 308.53011 
L 866.324416 294.336967 
L 868.28852 309.306849 
L 870.252624 325.230002 
L 872.216728 345.001544 
L 874.180832 310.895633 
L 876.144936 302.987016 
L 878.10904 260.054524 
L 880.073144 251.086718 
L 882.037248 273.400316 
L 885.965456 321.487531 
L 887.92956 252.710809 
L 889.893664 248.050374 
L 891.857768 252.60489 
L 893.821872 209.425253 
L 895.785976 255.747153 
L 897.75008 280.073211 
L 899.714184 312.766869 
L 901.678288 250.133447 
L 903.642392 243.425245 
L 905.606496 264.785572 
L 907.5706 251.263249 
L 909.534704 277.213399 
L 911.498808 331.161464 
L 913.462912 323.217541 
L 915.427016 294.619417 
L 917.39112 245.473012 
L 919.355224 249.038951 
L 921.319328 249.074257 
L 923.283432 232.021302 
L 925.247536 284.415889 
L 927.21164 282.156284 
L 929.175744 327.418994 
L 931.139848 212.496904 
L 933.103952 205.61217 
L 935.068056 228.1023 
L 937.03216 218.604898 
L 938.996264 266.762726 
L 940.960368 278.625652 
L 942.924473 220.370214 
L 944.888577 181.286112 
L 946.852681 193.396182 
L 948.816785 234.845808 
L 950.780889 236.328674 
L 952.744993 299.668222 
L 954.709097 332.185348 
L 956.673201 214.050382 
L 958.637305 262.314129 
L 960.601409 245.331787 
L 962.565513 315.273618 
L 964.529617 326.606948 
L 966.493721 195.126192 
L 968.457825 245.578931 
L 972.386033 281.026482 
L 974.350137 256.100216 
L 976.314241 257.265325 
L 980.242449 312.555031 
L 982.206553 324.347343 
L 984.170657 295.607994 
L 986.134761 307.188469 
L 988.098865 323.747136 
L 990.062969 361.489598 
L 992.027073 363.219608 
L 993.991177 418.54462 
L 995.955281 331.267383 
L 997.919385 358.806317 
L 999.883489 356.440793 
L 1001.847593 373.246604 
L 1003.811697 407.387821 
L 1005.775801 398.596546 
L 1007.739905 423.134443 
L 1009.704009 431.71388 
L 1011.668113 422.710767 
L 1013.632217 400.29125 
L 1015.596321 383.838502 
L 1017.560425 401.315133 
L 1019.524529 426.912219 
L 1021.488633 448.096015 
L 1023.452737 431.855105 
L 1025.416841 429.030599 
L 1027.380945 421.934027 
L 1029.345049 434.820836 
L 1031.309153 444.600689 
L 1033.273257 464.019168 
L 1035.237361 467.585107 
L 1037.201465 468.750215 
L 1039.165569 457.55811 
L 1041.129673 463.772023 
L 1043.093777 470.374306 
L 1045.057881 475.705561 
L 1047.021985 482.660908 
L 1048.986089 488.451145 
L 1050.950193 482.590295 
L 1052.914297 483.296421 
L 1054.878401 482.025394 
L 1056.842505 487.886244 
L 1058.806609 494.982815 
L 1060.770713 494.276689 
L 1062.734817 499.290187 
L 1064.698921 494.770977 
L 1066.663025 495.936086 
L 1068.627129 494.876896 
L 1070.591233 496.606906 
L 1072.555337 499.855088 
L 1074.519441 501.691017 
L 1076.483545 499.396106 
L 1078.447649 500.596521 
L 1080.411753 496.783438 
L 1082.375857 490.287074 
L 1084.339961 486.156234 
L 1086.304065 479.448032 
L 1088.268169 476.305769 
L 1090.232273 464.937132 
L 1090.232273 464.937132 
" style="fill:none;stroke:#000000;stroke-dasharray:1.5,2.475;stroke-dashoffset:0;stroke-opacity:0.5;stroke-width:1.5;"/>
   </g>
   <g id="line2d_26">
    <path clip-path="url(#pccb9cf5da3)" d="M 135.677727 518.390909 
L 139.605935 517.367026 
L 147.462351 514.719051 
L 149.426455 513.942312 
L 151.390559 513.024348 
L 153.354663 511.859239 
L 155.318767 510.446986 
L 157.282871 508.646363 
L 159.246975 506.492677 
L 161.211079 504.091847 
L 169.067495 495.477104 
L 171.031599 492.44076 
L 174.959807 485.414801 
L 176.923911 483.11989 
L 178.888015 482.660908 
L 180.852119 483.296421 
L 182.816223 484.320305 
L 184.780327 485.026431 
L 186.744431 484.955819 
L 190.672639 483.508259 
L 192.636743 483.755404 
L 194.600847 484.602755 
L 196.564951 485.026431 
L 198.529055 484.249692 
L 200.493159 482.307844 
L 202.457263 479.977627 
L 204.421367 478.282923 
L 206.385471 478.212311 
L 208.349575 480.401303 
L 210.313679 483.155196 
L 212.277783 484.885206 
L 214.241887 484.920512 
L 216.205991 483.720097 
L 218.170095 482.802133 
L 220.134199 483.261115 
L 222.098303 485.238269 
L 224.062407 488.098082 
L 226.026511 490.498912 
L 227.990615 492.05239 
L 229.954719 492.864436 
L 231.918823 494.029544 
L 233.882927 496.606906 
L 237.811135 502.679594 
L 239.775239 504.515523 
L 241.739343 505.045118 
L 245.667551 505.151037 
L 247.631655 505.645326 
L 249.595759 506.881047 
L 251.559863 507.940237 
L 253.523967 508.434525 
L 257.452175 508.540444 
L 259.416279 508.858201 
L 263.344487 510.658824 
L 265.308591 511.329644 
L 267.272695 511.682707 
L 271.200903 511.965158 
L 273.165007 512.318221 
L 277.093215 513.624555 
L 279.057319 513.871699 
L 281.021423 513.695168 
L 284.949632 512.918429 
L 286.913736 512.706591 
L 288.87784 512.777203 
L 292.806048 513.200879 
L 298.69836 513.412717 
L 302.626568 514.012925 
L 304.590672 514.54252 
L 306.554776 514.860277 
L 308.51888 514.860277 
L 310.482984 514.471907 
L 314.411192 513.09496 
L 316.375296 512.706591 
L 318.3394 512.600672 
L 322.267608 513.059654 
L 328.15992 513.306798 
L 330.124024 513.48333 
L 334.052232 514.224763 
L 337.98044 515.072114 
L 345.836856 516.378449 
L 349.765064 516.55498 
L 353.693272 516.484368 
L 355.657376 516.484368 
L 365.477896 517.084575 
L 369.406104 517.084575 
L 377.26252 517.649476 
L 381.190728 517.331719 
L 389.047144 516.27253 
L 392.975352 515.742935 
L 394.939456 515.460484 
L 400.831768 514.15415 
L 402.795872 513.836393 
L 406.72408 513.553942 
L 410.652288 513.236186 
L 412.616392 512.918429 
L 414.580496 512.42414 
L 416.5446 511.718014 
L 418.508704 510.835355 
L 422.436912 508.469832 
L 426.36512 506.351452 
L 428.329224 505.610019 
L 436.18564 501.655711 
L 438.149744 500.384683 
L 440.113848 499.396106 
L 442.077952 498.160385 
L 444.042056 497.454258 
L 446.00616 496.995276 
L 447.970264 496.85405 
L 449.934368 497.383645 
L 451.898472 498.336916 
L 455.82668 499.996313 
L 457.790784 500.631827 
L 459.754888 501.020197 
L 461.718992 501.161422 
L 465.6472 501.126116 
L 467.611304 501.443873 
L 471.539512 501.691017 
L 475.46772 501.549792 
L 477.431824 501.443873 
L 479.395928 501.549792 
L 481.360032 501.514485 
L 483.324136 501.161422 
L 485.28824 500.525908 
L 489.216448 498.089772 
L 495.10876 492.687904 
L 497.072864 490.498912 
L 499.036968 488.521758 
L 502.965176 483.755404 
L 504.92928 482.0607 
L 506.893384 480.012933 
L 508.857488 478.177004 
L 510.821592 476.093931 
L 512.785696 472.775136 
L 514.7498 468.962053 
L 518.678008 459.782409 
L 520.642112 455.580956 
L 526.534424 444.459463 
L 528.498528 440.010866 
L 530.462632 435.244512 
L 532.426736 430.125095 
L 534.39084 425.85303 
L 538.319048 417.944413 
L 540.283152 414.484393 
L 542.247256 409.965183 
L 544.21136 404.139639 
L 546.175464 397.749194 
L 550.103672 381.578897 
L 552.067776 373.034766 
L 554.03188 362.513481 
L 555.995984 351.144845 
L 561.888296 311.036859 
L 563.8524 298.503113 
L 565.816504 287.840603 
L 571.708816 258.324514 
L 573.67292 249.286095 
L 575.637024 242.648506 
L 579.565232 233.645393 
L 581.529336 228.420057 
L 585.457544 211.155263 
L 589.385752 189.830243 
L 591.349856 180.403454 
L 593.31396 177.755479 
L 595.278064 175.813631 
L 597.242168 174.083621 
L 599.206272 171.435647 
L 601.170376 172.636062 
L 603.13448 176.802209 
L 605.098584 187.111656 
L 607.062688 200.598672 
L 609.026792 220.864503 
L 610.990896 239.188486 
L 612.955 253.028566 
L 614.919104 265.738843 
L 616.883208 280.955869 
L 620.811416 314.849942 
L 622.77552 327.136543 
L 624.739624 332.750249 
L 626.703728 330.984933 
L 628.667832 325.72429 
L 630.631936 322.158351 
L 632.59604 324.806326 
L 634.560144 332.679636 
L 636.524248 339.599676 
L 638.488352 342.671326 
L 640.452456 339.246613 
L 642.41656 332.432492 
L 644.380664 326.077353 
L 646.344768 326.218579 
L 648.308872 331.337996 
L 650.272976 341.047235 
L 652.23708 346.837473 
L 654.201184 350.438718 
L 656.165288 348.073194 
L 658.129392 345.884202 
L 660.093496 345.213382 
L 662.0576 347.649518 
L 664.021704 348.461564 
L 665.985808 347.543599 
L 667.949912 338.787631 
L 669.914016 327.101237 
L 671.87812 311.319309 
L 673.842224 298.4325 
L 675.806328 290.523883 
L 677.770432 281.979753 
L 679.734536 271.317242 
L 681.69864 256.629811 
L 683.662744 236.893575 
L 685.626848 219.875926 
L 687.590952 211.790777 
L 689.555056 204.906044 
L 691.51916 196.326607 
L 693.483264 179.662021 
L 695.447368 154.347385 
L 697.411472 125.890487 
L 699.375576 104.035871 
L 701.33968 95.456434 
L 703.303784 104.706692 
L 705.267888 117.946564 
L 707.231992 127.338046 
L 711.1602 143.578956 
L 713.124304 155.865557 
L 715.088408 174.754442 
L 717.052512 195.020273 
L 719.016616 210.237299 
L 720.98072 217.72224 
L 722.944824 216.062843 
L 724.908928 215.921617 
L 726.873032 221.252873 
L 728.837136 234.563357 
L 730.80124 251.792844 
L 732.765344 259.419011 
L 734.729448 258.112677 
L 738.657656 247.097103 
L 740.62176 250.451204 
L 742.585864 264.679653 
L 746.514072 301.89252 
L 748.478176 310.366038 
L 750.44228 313.402382 
L 752.406384 313.61422 
L 754.370488 315.979744 
L 756.334592 322.970397 
L 758.298696 331.373302 
L 760.2628 336.881089 
L 762.226904 336.951702 
L 764.191008 332.926781 
L 766.155112 329.996356 
L 768.119216 330.773095 
L 770.08332 336.987008 
L 772.047424 347.049311 
L 774.011528 355.840586 
L 775.975632 361.242454 
L 777.939736 363.502059 
L 779.90384 365.4086 
L 781.867944 369.53944 
L 783.832048 376.07111 
L 785.796152 383.167682 
L 787.760256 386.910152 
L 789.72436 386.062801 
L 791.688464 382.461555 
L 793.652568 378.224796 
L 795.616672 379.601743 
L 797.580776 388.640162 
L 799.54488 400.467781 
L 801.508984 408.764768 
L 803.473088 410.035796 
L 805.437192 403.115756 
L 807.401296 393.688967 
L 809.3654 386.627702 
L 811.329504 387.298522 
L 813.293608 394.324481 
L 815.257712 399.726349 
L 817.221816 398.278789 
L 819.18592 390.476091 
L 821.150024 378.471941 
L 823.114128 368.339025 
L 825.078232 363.713896 
L 827.042336 363.784509 
L 829.00644 365.373294 
L 830.970544 364.34941 
L 832.934648 360.289183 
L 834.898752 355.522829 
L 836.862856 353.545675 
L 838.82696 355.381604 
L 840.791064 359.053462 
L 842.755168 364.208185 
L 844.719272 366.044114 
L 846.683376 363.360833 
L 848.64748 359.653669 
L 850.611584 357.041001 
L 852.575688 357.252839 
L 854.539792 358.594479 
L 856.503896 357.041001 
L 858.468 351.886277 
L 860.432104 342.24765 
L 862.396208 329.713905 
L 864.360312 319.157314 
L 866.324416 315.273618 
L 868.28852 315.803213 
L 870.252624 317.286078 
L 872.216728 315.026473 
L 874.180832 306.8001 
L 876.144936 294.513498 
L 878.10904 283.497925 
L 880.073144 279.014021 
L 882.037248 278.83749 
L 884.001352 279.331778 
L 885.965456 278.025444 
L 887.92956 269.163556 
L 889.893664 258.359821 
L 891.857768 250.698348 
L 893.821872 251.122024 
L 897.75008 263.973527 
L 899.714184 267.39824 
L 901.678288 267.11579 
L 903.642392 263.832301 
L 905.606496 265.880068 
L 907.5706 273.188478 
L 909.534704 285.792836 
L 911.498808 293.419002 
L 913.462912 292.818795 
L 915.427016 285.086709 
L 917.39112 271.24663 
L 919.355224 259.80738 
L 921.319328 255.500008 
L 923.283432 261.713922 
L 925.247536 267.468853 
L 927.21164 267.821916 
L 929.175744 261.608003 
L 933.103952 238.552972 
L 935.068056 235.551934 
L 937.03216 235.446015 
L 938.996264 238.411747 
L 940.960368 235.092952 
L 942.924473 227.466786 
L 944.888577 220.687971 
L 946.852681 221.605936 
L 948.816785 234.528051 
L 952.744993 264.008833 
L 954.709097 268.810493 
L 956.673201 269.763764 
L 958.637305 273.117865 
L 960.601409 271.034792 
L 962.565513 269.410701 
L 964.529617 269.163556 
L 966.493721 264.114752 
L 968.457825 260.301669 
L 970.421929 257.512469 
L 972.386033 259.454317 
L 974.350137 269.092944 
L 986.134761 321.805288 
L 988.098865 335.963125 
L 990.062969 348.249726 
L 992.027073 359.830201 
L 993.991177 365.020231 
L 997.919385 366.538403 
L 999.883489 370.775162 
L 1001.847593 378.542553 
L 1003.811697 392.876921 
L 1005.775801 404.704541 
L 1007.739905 412.860302 
L 1009.704009 414.837456 
L 1013.632217 409.153138 
L 1015.596321 408.905993 
L 1017.560425 412.507239 
L 1021.488633 425.994255 
L 1023.452737 430.513465 
L 1025.416841 432.420006 
L 1027.380945 434.820836 
L 1029.345049 439.375352 
L 1033.273257 454.380541 
L 1035.237361 460.241391 
L 1037.201465 463.524879 
L 1041.129673 467.655719 
L 1043.093777 471.221658 
L 1047.021985 479.553951 
L 1048.986089 482.166619 
L 1050.950193 483.649485 
L 1052.914297 484.955819 
L 1054.878401 486.473991 
L 1056.842505 488.768902 
L 1058.806609 491.522795 
L 1060.770713 493.853013 
L 1062.734817 495.371185 
L 1064.698921 495.936086 
L 1066.663025 496.18323 
L 1070.591233 497.524871 
L 1072.555337 498.654673 
L 1074.519441 499.254881 
L 1076.483545 498.937124 
L 1078.447649 497.383645 
L 1080.411753 494.347301 
L 1082.375857 490.32238 
L 1084.339961 485.273576 
L 1086.304065 480.966204 
L 1088.268169 477.188427 
L 1090.232273 474.08147 
L 1090.232273 474.08147 
" style="fill:none;stroke:#000000;stroke-linecap:square;stroke-width:1.5;"/>
   </g>
   <g id="patch_3">
    <path d="M 87.95 541.28 
L 87.95 37.72 
" style="fill:none;stroke:#555555;stroke-linecap:square;stroke-linejoin:miter;"/>
   </g>
   <g id="patch_4">
    <path d="M 87.95 541.28 
L 1137.96 541.28 
" style="fill:none;stroke:#555555;stroke-linecap:square;stroke-linejoin:miter;"/>
   </g>
   <g id="text_26">
    <!-- Last updated on 05 July 2021 -->
    <g style="fill:#555555;" transform="translate(480.726719 27.72)scale(0.18 -0.18)">
     <defs>
      <path d="M 628 4666 
L 1259 4666 
L 1259 531 
L 3531 531 
L 3531 0 
L 628 0 
L 628 4666 
z
" id="DejaVuSans-4c" transform="scale(0.015625)"/>
      <path d="M 1172 4494 
L 1172 3500 
L 2356 3500 
L 2356 3053 
L 1172 3053 
L 1172 1153 
Q 1172 725 1289 603 
Q 1406 481 1766 481 
L 2356 481 
L 2356 0 
L 1766 0 
Q 1100 0 847 248 
Q 594 497 594 1153 
L 594 3053 
L 172 3053 
L 172 3500 
L 594 3500 
L 594 4494 
L 1172 4494 
z
" id="DejaVuSans-74" transform="scale(0.015625)"/>
      <path d="M 544 1381 
L 544 3500 
L 1119 3500 
L 1119 1403 
Q 1119 906 1312 657 
Q 1506 409 1894 409 
Q 2359 409 2629 706 
Q 2900 1003 2900 1516 
L 2900 3500 
L 3475 3500 
L 3475 0 
L 2900 0 
L 2900 538 
Q 2691 219 2414 64 
Q 2138 -91 1772 -91 
Q 1169 -91 856 284 
Q 544 659 544 1381 
z
M 1991 3584 
L 1991 3584 
z
" id="DejaVuSans-75" transform="scale(0.015625)"/>
      <path d="M 1159 525 
L 1159 -1331 
L 581 -1331 
L 581 3500 
L 1159 3500 
L 1159 2969 
Q 1341 3281 1617 3432 
Q 1894 3584 2278 3584 
Q 2916 3584 3314 3078 
Q 3713 2572 3713 1747 
Q 3713 922 3314 415 
Q 2916 -91 2278 -91 
Q 1894 -91 1617 61 
Q 1341 213 1159 525 
z
M 3116 1747 
Q 3116 2381 2855 2742 
Q 2594 3103 2138 3103 
Q 1681 3103 1420 2742 
Q 1159 2381 1159 1747 
Q 1159 1113 1420 752 
Q 1681 391 2138 391 
Q 2594 391 2855 752 
Q 3116 1113 3116 1747 
z
" id="DejaVuSans-70" transform="scale(0.015625)"/>
      <path d="M 2906 2969 
L 2906 4863 
L 3481 4863 
L 3481 0 
L 2906 0 
L 2906 525 
Q 2725 213 2448 61 
Q 2172 -91 1784 -91 
Q 1150 -91 751 415 
Q 353 922 353 1747 
Q 353 2572 751 3078 
Q 1150 3584 1784 3584 
Q 2172 3584 2448 3432 
Q 2725 3281 2906 2969 
z
M 947 1747 
Q 947 1113 1208 752 
Q 1469 391 1925 391 
Q 2381 391 2643 752 
Q 2906 1113 2906 1747 
Q 2906 2381 2643 2742 
Q 2381 3103 1925 3103 
Q 1469 3103 1208 2742 
Q 947 2381 947 1747 
z
" id="DejaVuSans-64" transform="scale(0.015625)"/>
      <path d="M 1959 3097 
Q 1497 3097 1228 2736 
Q 959 2375 959 1747 
Q 959 1119 1226 758 
Q 1494 397 1959 397 
Q 2419 397 2687 759 
Q 2956 1122 2956 1747 
Q 2956 2369 2687 2733 
Q 2419 3097 1959 3097 
z
M 1959 3584 
Q 2709 3584 3137 3096 
Q 3566 2609 3566 1747 
Q 3566 888 3137 398 
Q 2709 -91 1959 -91 
Q 1206 -91 779 398 
Q 353 888 353 1747 
Q 353 2609 779 3096 
Q 1206 3584 1959 3584 
z
" id="DejaVuSans-6f" transform="scale(0.015625)"/>
      <path d="M 3513 2113 
L 3513 0 
L 2938 0 
L 2938 2094 
Q 2938 2591 2744 2837 
Q 2550 3084 2163 3084 
Q 1697 3084 1428 2787 
Q 1159 2491 1159 1978 
L 1159 0 
L 581 0 
L 581 3500 
L 1159 3500 
L 1159 2956 
Q 1366 3272 1645 3428 
Q 1925 3584 2291 3584 
Q 2894 3584 3203 3211 
Q 3513 2838 3513 2113 
z
" id="DejaVuSans-6e" transform="scale(0.015625)"/>
      <path d="M 2034 4250 
Q 1547 4250 1301 3770 
Q 1056 3291 1056 2328 
Q 1056 1369 1301 889 
Q 1547 409 2034 409 
Q 2525 409 2770 889 
Q 3016 1369 3016 2328 
Q 3016 3291 2770 3770 
Q 2525 4250 2034 4250 
z
M 2034 4750 
Q 2819 4750 3233 4129 
Q 3647 3509 3647 2328 
Q 3647 1150 3233 529 
Q 2819 -91 2034 -91 
Q 1250 -91 836 529 
Q 422 1150 422 2328 
Q 422 3509 836 4129 
Q 1250 4750 2034 4750 
z
" id="DejaVuSans-30" transform="scale(0.015625)"/>
      <path d="M 691 4666 
L 3169 4666 
L 3169 4134 
L 1269 4134 
L 1269 2991 
Q 1406 3038 1543 3061 
Q 1681 3084 1819 3084 
Q 2600 3084 3056 2656 
Q 3513 2228 3513 1497 
Q 3513 744 3044 326 
Q 2575 -91 1722 -91 
Q 1428 -91 1123 -41 
Q 819 9 494 109 
L 494 744 
Q 775 591 1075 516 
Q 1375 441 1709 441 
Q 2250 441 2565 725 
Q 2881 1009 2881 1497 
Q 2881 1984 2565 2268 
Q 2250 2553 1709 2553 
Q 1456 2553 1204 2497 
Q 953 2441 691 2322 
L 691 4666 
z
" id="DejaVuSans-35" transform="scale(0.015625)"/>
      <path d="M 628 4666 
L 1259 4666 
L 1259 325 
Q 1259 -519 939 -900 
Q 619 -1281 -91 -1281 
L -331 -1281 
L -331 -750 
L -134 -750 
Q 284 -750 456 -515 
Q 628 -281 628 325 
L 628 4666 
z
" id="DejaVuSans-4a" transform="scale(0.015625)"/>
      <path d="M 603 4863 
L 1178 4863 
L 1178 0 
L 603 0 
L 603 4863 
z
" id="DejaVuSans-6c" transform="scale(0.015625)"/>
      <path d="M 2059 -325 
Q 1816 -950 1584 -1140 
Q 1353 -1331 966 -1331 
L 506 -1331 
L 506 -850 
L 844 -850 
Q 1081 -850 1212 -737 
Q 1344 -625 1503 -206 
L 1606 56 
L 191 3500 
L 800 3500 
L 1894 763 
L 2988 3500 
L 3597 3500 
L 2059 -325 
z
" id="DejaVuSans-79" transform="scale(0.015625)"/>
      <path d="M 1228 531 
L 3431 531 
L 3431 0 
L 469 0 
L 469 531 
Q 828 903 1448 1529 
Q 2069 2156 2228 2338 
Q 2531 2678 2651 2914 
Q 2772 3150 2772 3378 
Q 2772 3750 2511 3984 
Q 2250 4219 1831 4219 
Q 1534 4219 1204 4116 
Q 875 4013 500 3803 
L 500 4441 
Q 881 4594 1212 4672 
Q 1544 4750 1819 4750 
Q 2544 4750 2975 4387 
Q 3406 4025 3406 3419 
Q 3406 3131 3298 2873 
Q 3191 2616 2906 2266 
Q 2828 2175 2409 1742 
Q 1991 1309 1228 531 
z
" id="DejaVuSans-32" transform="scale(0.015625)"/>
      <path d="M 794 531 
L 1825 531 
L 1825 4091 
L 703 3866 
L 703 4441 
L 1819 4666 
L 2450 4666 
L 2450 531 
L 3481 531 
L 3481 0 
L 794 0 
L 794 531 
z
" id="DejaVuSans-31" transform="scale(0.015625)"/>
     </defs>
     <use xlink:href="#DejaVuSans-4c"/>
     <use x="55.712891" xlink:href="#DejaVuSans-61"/>
     <use x="116.992188" xlink:href="#DejaVuSans-73"/>
     <use x="169.091797" xlink:href="#DejaVuSans-74"/>
     <use x="208.300781" xlink:href="#DejaVuSans-20"/>
     <use x="240.087891" xlink:href="#DejaVuSans-75"/>
     <use x="303.466797" xlink:href="#DejaVuSans-70"/>
     <use x="366.943359" xlink:href="#DejaVuSans-64"/>
     <use x="430.419922" xlink:href="#DejaVuSans-61"/>
     <use x="491.699219" xlink:href="#DejaVuSans-74"/>
     <use x="530.908203" xlink:href="#DejaVuSans-65"/>
     <use x="592.431641" xlink:href="#DejaVuSans-64"/>
     <use x="655.908203" xlink:href="#DejaVuSans-20"/>
     <use x="687.695312" xlink:href="#DejaVuSans-6f"/>
     <use x="748.876953" xlink:href="#DejaVuSans-6e"/>
     <use x="812.255859" xlink:href="#DejaVuSans-20"/>
     <use x="844.042969" xlink:href="#DejaVuSans-30"/>
     <use x="907.666016" xlink:href="#DejaVuSans-35"/>
     <use x="971.289062" xlink:href="#DejaVuSans-20"/>
     <use x="1003.076172" xlink:href="#DejaVuSans-4a"/>
     <use x="1032.568359" xlink:href="#DejaVuSans-75"/>
     <use x="1095.947266" xlink:href="#DejaVuSans-6c"/>
     <use x="1123.730469" xlink:href="#DejaVuSans-79"/>
     <use x="1182.910156" xlink:href="#DejaVuSans-20"/>
     <use x="1214.697266" xlink:href="#DejaVuSans-32"/>
     <use x="1278.320312" xlink:href="#DejaVuSans-30"/>
     <use x="1341.943359" xlink:href="#DejaVuSans-32"/>
     <use x="1405.566406" xlink:href="#DejaVuSans-31"/>
    </g>
   </g>
   <g id="legend_1">
    <g id="line2d_27">
     <path d="M 1015.497969 54.747969 
L 1041.497969 54.747969 
" style="fill:none;stroke:#000000;stroke-dasharray:1.5,2.475;stroke-dashoffset:0;stroke-opacity:0.5;stroke-width:1.5;"/>
    </g>
    <g id="line2d_28"/>
    <g id="text_27">
     <!-- Actual -->
     <g style="fill:#555555;" transform="translate(1051.897969 59.297969)scale(0.13 -0.13)">
      <use xlink:href="#DejaVuSans-Bold-41"/>
      <use x="77.392578" xlink:href="#DejaVuSans-Bold-63"/>
      <use x="136.669922" xlink:href="#DejaVuSans-Bold-74"/>
      <use x="184.472656" xlink:href="#DejaVuSans-Bold-75"/>
      <use x="255.664062" xlink:href="#DejaVuSans-Bold-61"/>
      <use x="323.144531" xlink:href="#DejaVuSans-Bold-6c"/>
     </g>
    </g>
    <g id="line2d_29">
     <path d="M 1015.497969 73.829531 
L 1041.497969 73.829531 
" style="fill:none;stroke:#000000;stroke-linecap:square;stroke-width:1.5;"/>
    </g>
    <g id="line2d_30"/>
    <g id="text_28">
     <!-- Smoothed -->
     <g style="fill:#555555;" transform="translate(1051.897969 78.379531)scale(0.13 -0.13)">
      <defs>
       <path d="M 3781 2919 
Q 3994 3244 4286 3414 
Q 4578 3584 4928 3584 
Q 5531 3584 5847 3212 
Q 6163 2841 6163 2131 
L 6163 0 
L 5038 0 
L 5038 1825 
Q 5041 1866 5042 1909 
Q 5044 1953 5044 2034 
Q 5044 2406 4934 2573 
Q 4825 2741 4581 2741 
Q 4263 2741 4089 2478 
Q 3916 2216 3909 1719 
L 3909 0 
L 2784 0 
L 2784 1825 
Q 2784 2406 2684 2573 
Q 2584 2741 2328 2741 
Q 2006 2741 1831 2477 
Q 1656 2213 1656 1722 
L 1656 0 
L 531 0 
L 531 3500 
L 1656 3500 
L 1656 2988 
Q 1863 3284 2130 3434 
Q 2397 3584 2719 3584 
Q 3081 3584 3359 3409 
Q 3638 3234 3781 2919 
z
" id="DejaVuSans-Bold-6d" transform="scale(0.015625)"/>
       <path d="M 4056 2131 
L 4056 0 
L 2931 0 
L 2931 347 
L 2931 1625 
Q 2931 2084 2911 2256 
Q 2891 2428 2841 2509 
Q 2775 2619 2662 2680 
Q 2550 2741 2406 2741 
Q 2056 2741 1856 2470 
Q 1656 2200 1656 1722 
L 1656 0 
L 538 0 
L 538 4863 
L 1656 4863 
L 1656 2988 
Q 1909 3294 2193 3439 
Q 2478 3584 2822 3584 
Q 3428 3584 3742 3212 
Q 4056 2841 4056 2131 
z
" id="DejaVuSans-Bold-68" transform="scale(0.015625)"/>
       <path d="M 2919 2988 
L 2919 4863 
L 4044 4863 
L 4044 0 
L 2919 0 
L 2919 506 
Q 2688 197 2409 53 
Q 2131 -91 1766 -91 
Q 1119 -91 703 423 
Q 288 938 288 1747 
Q 288 2556 703 3070 
Q 1119 3584 1766 3584 
Q 2128 3584 2408 3439 
Q 2688 3294 2919 2988 
z
M 2181 722 
Q 2541 722 2730 984 
Q 2919 1247 2919 1747 
Q 2919 2247 2730 2509 
Q 2541 2772 2181 2772 
Q 1825 2772 1636 2509 
Q 1447 2247 1447 1747 
Q 1447 1247 1636 984 
Q 1825 722 2181 722 
z
" id="DejaVuSans-Bold-64" transform="scale(0.015625)"/>
      </defs>
      <use xlink:href="#DejaVuSans-Bold-53"/>
      <use x="72.021484" xlink:href="#DejaVuSans-Bold-6d"/>
      <use x="176.220703" xlink:href="#DejaVuSans-Bold-6f"/>
      <use x="244.921875" xlink:href="#DejaVuSans-Bold-6f"/>
      <use x="313.623047" xlink:href="#DejaVuSans-Bold-74"/>
      <use x="361.425781" xlink:href="#DejaVuSans-Bold-68"/>
      <use x="432.617188" xlink:href="#DejaVuSans-Bold-65"/>
      <use x="500.439453" xlink:href="#DejaVuSans-Bold-64"/>
     </g>
    </g>
   </g>
  </g>
 </g>
 <defs>
  <clipPath id="pccb9cf5da3">
   <rect height="503.56" width="1050.01" x="87.95" y="37.72"/>
  </clipPath>
 </defs>
</svg>
