<?xml version="1.0" encoding="utf-8" standalone="no"?>
<!DOCTYPE svg PUBLIC "-//W3C//DTD SVG 1.1//EN"
  "http://www.w3.org/Graphics/SVG/1.1/DTD/svg11.dtd">
<svg height="576pt" version="1.1" viewBox="0 0 1152 576" width="1152pt" xmlns="http://www.w3.org/2000/svg" xmlns:xlink="http://www.w3.org/1999/xlink">
 <metadata>
  <rdf:RDF xmlns:cc="http://creativecommons.org/ns#" xmlns:dc="http://purl.org/dc/elements/1.1/" xmlns:rdf="http://www.w3.org/1999/02/22-rdf-syntax-ns#">
   <cc:Work>
    <dc:type rdf:resource="http://purl.org/dc/dcmitype/StillImage"/>
    <dc:date>2021-11-04T14:13:51.465457</dc:date>
    <dc:format>image/svg+xml</dc:format>
    <dc:creator>
     <cc:Agent>
      <dc:title>Matplotlib v3.4.3, https://matplotlib.org/</dc:title>
     </cc:Agent>
    </dc:creator>
   </cc:Work>
  </rdf:RDF>
 </metadata>
 <defs>
  <style type="text/css">*{stroke-linecap:butt;stroke-linejoin:round;}</style>
 </defs>
 <g id="figure_1">
  <g id="patch_1">
   <path d="M 0 576 
L 1152 576 
L 1152 0 
L 0 0 
z
" style="fill:#ffffff;"/>
  </g>
  <g id="axes_1">
   <g id="patch_2">
    <path d="M 87.95 541.28 
L 1126.29725 541.28 
L 1126.29725 37.72 
L 87.95 37.72 
z
" style="fill:#ffffff;"/>
   </g>
   <g id="matplotlib.axis_1">
    <g id="xtick_1">
     <g id="line2d_1">
      <defs>
       <path d="M 0 0 
L 0 3.5 
" id="m3a70c88410" style="stroke:#555555;stroke-width:0.8;"/>
      </defs>
      <g>
       <use style="fill:#555555;stroke:#555555;stroke-width:0.8;" x="127.37205" xlink:href="#m3a70c88410" y="541.28"/>
      </g>
     </g>
     <g id="text_1">
      <!-- Mar -->
      <g style="fill:#555555;" transform="translate(112.230175 558.917812)scale(0.14 -0.14)">
       <defs>
        <path d="M 588 4666 
L 2119 4666 
L 3181 2169 
L 4250 4666 
L 5778 4666 
L 5778 0 
L 4641 0 
L 4641 3413 
L 3566 897 
L 2803 897 
L 1728 3413 
L 1728 0 
L 588 0 
L 588 4666 
z
" id="DejaVuSans-Bold-4d" transform="scale(0.015625)"/>
        <path d="M 2106 1575 
Q 1756 1575 1579 1456 
Q 1403 1338 1403 1106 
Q 1403 894 1545 773 
Q 1688 653 1941 653 
Q 2256 653 2472 879 
Q 2688 1106 2688 1447 
L 2688 1575 
L 2106 1575 
z
M 3816 1997 
L 3816 0 
L 2688 0 
L 2688 519 
Q 2463 200 2181 54 
Q 1900 -91 1497 -91 
Q 953 -91 614 226 
Q 275 544 275 1050 
Q 275 1666 698 1953 
Q 1122 2241 2028 2241 
L 2688 2241 
L 2688 2328 
Q 2688 2594 2478 2717 
Q 2269 2841 1825 2841 
Q 1466 2841 1156 2769 
Q 847 2697 581 2553 
L 581 3406 
Q 941 3494 1303 3539 
Q 1666 3584 2028 3584 
Q 2975 3584 3395 3211 
Q 3816 2838 3816 1997 
z
" id="DejaVuSans-Bold-61" transform="scale(0.015625)"/>
        <path d="M 3138 2547 
Q 2991 2616 2845 2648 
Q 2700 2681 2553 2681 
Q 2122 2681 1889 2404 
Q 1656 2128 1656 1613 
L 1656 0 
L 538 0 
L 538 3500 
L 1656 3500 
L 1656 2925 
Q 1872 3269 2151 3426 
Q 2431 3584 2822 3584 
Q 2878 3584 2943 3579 
Q 3009 3575 3134 3559 
L 3138 2547 
z
" id="DejaVuSans-Bold-72" transform="scale(0.015625)"/>
       </defs>
       <use xlink:href="#DejaVuSans-Bold-4d"/>
       <use x="99.511719" xlink:href="#DejaVuSans-Bold-61"/>
       <use x="166.992188" xlink:href="#DejaVuSans-Bold-72"/>
      </g>
     </g>
    </g>
    <g id="xtick_2">
     <g id="line2d_2">
      <g>
       <use style="fill:#555555;stroke:#555555;stroke-width:0.8;" x="175.580474" xlink:href="#m3a70c88410" y="541.28"/>
      </g>
     </g>
     <g id="text_2">
      <!-- Apr -->
      <g style="fill:#555555;" transform="translate(161.700787 558.917812)scale(0.14 -0.14)">
       <defs>
        <path d="M 3419 850 
L 1538 850 
L 1241 0 
L 31 0 
L 1759 4666 
L 3194 4666 
L 4922 0 
L 3713 0 
L 3419 850 
z
M 1838 1716 
L 3116 1716 
L 2478 3572 
L 1838 1716 
z
" id="DejaVuSans-Bold-41" transform="scale(0.015625)"/>
        <path d="M 1656 506 
L 1656 -1331 
L 538 -1331 
L 538 3500 
L 1656 3500 
L 1656 2988 
Q 1888 3294 2169 3439 
Q 2450 3584 2816 3584 
Q 3463 3584 3878 3070 
Q 4294 2556 4294 1747 
Q 4294 938 3878 423 
Q 3463 -91 2816 -91 
Q 2450 -91 2169 54 
Q 1888 200 1656 506 
z
M 2400 2772 
Q 2041 2772 1848 2508 
Q 1656 2244 1656 1747 
Q 1656 1250 1848 986 
Q 2041 722 2400 722 
Q 2759 722 2948 984 
Q 3138 1247 3138 1747 
Q 3138 2247 2948 2509 
Q 2759 2772 2400 2772 
z
" id="DejaVuSans-Bold-70" transform="scale(0.015625)"/>
       </defs>
       <use xlink:href="#DejaVuSans-Bold-41"/>
       <use x="77.392578" xlink:href="#DejaVuSans-Bold-70"/>
       <use x="148.974609" xlink:href="#DejaVuSans-Bold-72"/>
      </g>
     </g>
    </g>
    <g id="xtick_3">
     <g id="line2d_3">
      <g>
       <use style="fill:#555555;stroke:#555555;stroke-width:0.8;" x="222.233788" xlink:href="#m3a70c88410" y="541.28"/>
      </g>
     </g>
     <g id="text_3">
      <!-- May -->
      <g style="fill:#555555;" transform="translate(206.199413 558.808437)scale(0.14 -0.14)">
       <defs>
        <path d="M 78 3500 
L 1197 3500 
L 2138 1125 
L 2938 3500 
L 4056 3500 
L 2584 -331 
Q 2363 -916 2067 -1148 
Q 1772 -1381 1288 -1381 
L 641 -1381 
L 641 -647 
L 991 -647 
Q 1275 -647 1404 -556 
Q 1534 -466 1606 -231 
L 1638 -134 
L 78 3500 
z
" id="DejaVuSans-Bold-79" transform="scale(0.015625)"/>
       </defs>
       <use xlink:href="#DejaVuSans-Bold-4d"/>
       <use x="99.511719" xlink:href="#DejaVuSans-Bold-61"/>
       <use x="163.867188" xlink:href="#DejaVuSans-Bold-79"/>
      </g>
     </g>
    </g>
    <g id="xtick_4">
     <g id="line2d_4">
      <g>
       <use style="fill:#555555;stroke:#555555;stroke-width:0.8;" x="270.442212" xlink:href="#m3a70c88410" y="541.28"/>
      </g>
     </g>
     <g id="text_4">
      <!-- Jun -->
      <g style="fill:#555555;" transform="translate(257.871743 558.917812)scale(0.14 -0.14)">
       <defs>
        <path d="M 588 4666 
L 1791 4666 
L 1791 453 
Q 1791 -419 1317 -850 
Q 844 -1281 -116 -1281 
L -359 -1281 
L -359 -372 
L -172 -372 
Q 203 -372 395 -162 
Q 588 47 588 453 
L 588 4666 
z
" id="DejaVuSans-Bold-4a" transform="scale(0.015625)"/>
        <path d="M 500 1363 
L 500 3500 
L 1625 3500 
L 1625 3150 
Q 1625 2866 1622 2436 
Q 1619 2006 1619 1863 
Q 1619 1441 1641 1255 
Q 1663 1069 1716 984 
Q 1784 875 1895 815 
Q 2006 756 2150 756 
Q 2500 756 2700 1025 
Q 2900 1294 2900 1772 
L 2900 3500 
L 4019 3500 
L 4019 0 
L 2900 0 
L 2900 506 
Q 2647 200 2364 54 
Q 2081 -91 1741 -91 
Q 1134 -91 817 281 
Q 500 653 500 1363 
z
" id="DejaVuSans-Bold-75" transform="scale(0.015625)"/>
        <path d="M 4056 2131 
L 4056 0 
L 2931 0 
L 2931 347 
L 2931 1631 
Q 2931 2084 2911 2256 
Q 2891 2428 2841 2509 
Q 2775 2619 2662 2680 
Q 2550 2741 2406 2741 
Q 2056 2741 1856 2470 
Q 1656 2200 1656 1722 
L 1656 0 
L 538 0 
L 538 3500 
L 1656 3500 
L 1656 2988 
Q 1909 3294 2193 3439 
Q 2478 3584 2822 3584 
Q 3428 3584 3742 3212 
Q 4056 2841 4056 2131 
z
" id="DejaVuSans-Bold-6e" transform="scale(0.015625)"/>
       </defs>
       <use xlink:href="#DejaVuSans-Bold-4a"/>
       <use x="37.207031" xlink:href="#DejaVuSans-Bold-75"/>
       <use x="108.398438" xlink:href="#DejaVuSans-Bold-6e"/>
      </g>
     </g>
    </g>
    <g id="xtick_5">
     <g id="line2d_5">
      <g>
       <use style="fill:#555555;stroke:#555555;stroke-width:0.8;" x="317.095525" xlink:href="#m3a70c88410" y="541.28"/>
      </g>
     </g>
     <g id="text_5">
      <!-- Jul -->
      <g style="fill:#555555;" transform="translate(307.108494 558.917812)scale(0.14 -0.14)">
       <defs>
        <path d="M 538 4863 
L 1656 4863 
L 1656 0 
L 538 0 
L 538 4863 
z
" id="DejaVuSans-Bold-6c" transform="scale(0.015625)"/>
       </defs>
       <use xlink:href="#DejaVuSans-Bold-4a"/>
       <use x="37.207031" xlink:href="#DejaVuSans-Bold-75"/>
       <use x="108.398438" xlink:href="#DejaVuSans-Bold-6c"/>
      </g>
     </g>
    </g>
    <g id="xtick_6">
     <g id="line2d_6">
      <g>
       <use style="fill:#555555;stroke:#555555;stroke-width:0.8;" x="365.303949" xlink:href="#m3a70c88410" y="541.28"/>
      </g>
     </g>
     <g id="text_6">
      <!-- Aug -->
      <g style="fill:#555555;" transform="translate(349.893012 558.808437)scale(0.14 -0.14)">
       <defs>
        <path d="M 2919 594 
Q 2688 288 2409 144 
Q 2131 0 1766 0 
Q 1125 0 706 504 
Q 288 1009 288 1791 
Q 288 2575 706 3076 
Q 1125 3578 1766 3578 
Q 2131 3578 2409 3434 
Q 2688 3291 2919 2981 
L 2919 3500 
L 4044 3500 
L 4044 353 
Q 4044 -491 3511 -936 
Q 2978 -1381 1966 -1381 
Q 1638 -1381 1331 -1331 
Q 1025 -1281 716 -1178 
L 716 -306 
Q 1009 -475 1290 -558 
Q 1572 -641 1856 -641 
Q 2406 -641 2662 -400 
Q 2919 -159 2919 353 
L 2919 594 
z
M 2181 2772 
Q 1834 2772 1640 2515 
Q 1447 2259 1447 1791 
Q 1447 1309 1634 1061 
Q 1822 813 2181 813 
Q 2531 813 2725 1069 
Q 2919 1325 2919 1791 
Q 2919 2259 2725 2515 
Q 2531 2772 2181 2772 
z
" id="DejaVuSans-Bold-67" transform="scale(0.015625)"/>
       </defs>
       <use xlink:href="#DejaVuSans-Bold-41"/>
       <use x="77.392578" xlink:href="#DejaVuSans-Bold-75"/>
       <use x="148.583984" xlink:href="#DejaVuSans-Bold-67"/>
      </g>
     </g>
    </g>
    <g id="xtick_7">
     <g id="line2d_7">
      <g>
       <use style="fill:#555555;stroke:#555555;stroke-width:0.8;" x="413.512373" xlink:href="#m3a70c88410" y="541.28"/>
      </g>
     </g>
     <g id="text_7">
      <!-- Sep -->
      <g style="fill:#555555;" transform="translate(398.712842 558.917812)scale(0.14 -0.14)">
       <defs>
        <path d="M 3834 4519 
L 3834 3531 
Q 3450 3703 3084 3790 
Q 2719 3878 2394 3878 
Q 1963 3878 1756 3759 
Q 1550 3641 1550 3391 
Q 1550 3203 1689 3098 
Q 1828 2994 2194 2919 
L 2706 2816 
Q 3484 2659 3812 2340 
Q 4141 2022 4141 1434 
Q 4141 663 3683 286 
Q 3225 -91 2284 -91 
Q 1841 -91 1394 -6 
Q 947 78 500 244 
L 500 1259 
Q 947 1022 1364 901 
Q 1781 781 2169 781 
Q 2563 781 2772 912 
Q 2981 1044 2981 1288 
Q 2981 1506 2839 1625 
Q 2697 1744 2272 1838 
L 1806 1941 
Q 1106 2091 782 2419 
Q 459 2747 459 3303 
Q 459 4000 909 4375 
Q 1359 4750 2203 4750 
Q 2588 4750 2994 4692 
Q 3400 4634 3834 4519 
z
" id="DejaVuSans-Bold-53" transform="scale(0.015625)"/>
        <path d="M 4031 1759 
L 4031 1441 
L 1416 1441 
Q 1456 1047 1700 850 
Q 1944 653 2381 653 
Q 2734 653 3104 758 
Q 3475 863 3866 1075 
L 3866 213 
Q 3469 63 3072 -14 
Q 2675 -91 2278 -91 
Q 1328 -91 801 392 
Q 275 875 275 1747 
Q 275 2603 792 3093 
Q 1309 3584 2216 3584 
Q 3041 3584 3536 3087 
Q 4031 2591 4031 1759 
z
M 2881 2131 
Q 2881 2450 2695 2645 
Q 2509 2841 2209 2841 
Q 1884 2841 1681 2658 
Q 1478 2475 1428 2131 
L 2881 2131 
z
" id="DejaVuSans-Bold-65" transform="scale(0.015625)"/>
       </defs>
       <use xlink:href="#DejaVuSans-Bold-53"/>
       <use x="72.021484" xlink:href="#DejaVuSans-Bold-65"/>
       <use x="139.84375" xlink:href="#DejaVuSans-Bold-70"/>
      </g>
     </g>
    </g>
    <g id="xtick_8">
     <g id="line2d_8">
      <g>
       <use style="fill:#555555;stroke:#555555;stroke-width:0.8;" x="460.165687" xlink:href="#m3a70c88410" y="541.28"/>
      </g>
     </g>
     <g id="text_8">
      <!-- Oct -->
      <g style="fill:#555555;" transform="translate(446.719124 558.917812)scale(0.14 -0.14)">
       <defs>
        <path d="M 2719 3878 
Q 2169 3878 1866 3472 
Q 1563 3066 1563 2328 
Q 1563 1594 1866 1187 
Q 2169 781 2719 781 
Q 3272 781 3575 1187 
Q 3878 1594 3878 2328 
Q 3878 3066 3575 3472 
Q 3272 3878 2719 3878 
z
M 2719 4750 
Q 3844 4750 4481 4106 
Q 5119 3463 5119 2328 
Q 5119 1197 4481 553 
Q 3844 -91 2719 -91 
Q 1597 -91 958 553 
Q 319 1197 319 2328 
Q 319 3463 958 4106 
Q 1597 4750 2719 4750 
z
" id="DejaVuSans-Bold-4f" transform="scale(0.015625)"/>
        <path d="M 3366 3391 
L 3366 2478 
Q 3138 2634 2908 2709 
Q 2678 2784 2431 2784 
Q 1963 2784 1702 2511 
Q 1441 2238 1441 1747 
Q 1441 1256 1702 982 
Q 1963 709 2431 709 
Q 2694 709 2930 787 
Q 3166 866 3366 1019 
L 3366 103 
Q 3103 6 2833 -42 
Q 2563 -91 2291 -91 
Q 1344 -91 809 395 
Q 275 881 275 1747 
Q 275 2613 809 3098 
Q 1344 3584 2291 3584 
Q 2566 3584 2833 3536 
Q 3100 3488 3366 3391 
z
" id="DejaVuSans-Bold-63" transform="scale(0.015625)"/>
        <path d="M 1759 4494 
L 1759 3500 
L 2913 3500 
L 2913 2700 
L 1759 2700 
L 1759 1216 
Q 1759 972 1856 886 
Q 1953 800 2241 800 
L 2816 800 
L 2816 0 
L 1856 0 
Q 1194 0 917 276 
Q 641 553 641 1216 
L 641 2700 
L 84 2700 
L 84 3500 
L 641 3500 
L 641 4494 
L 1759 4494 
z
" id="DejaVuSans-Bold-74" transform="scale(0.015625)"/>
       </defs>
       <use xlink:href="#DejaVuSans-Bold-4f"/>
       <use x="85.009766" xlink:href="#DejaVuSans-Bold-63"/>
       <use x="144.287109" xlink:href="#DejaVuSans-Bold-74"/>
      </g>
     </g>
    </g>
    <g id="xtick_9">
     <g id="line2d_9">
      <g>
       <use style="fill:#555555;stroke:#555555;stroke-width:0.8;" x="508.374111" xlink:href="#m3a70c88410" y="541.28"/>
      </g>
     </g>
     <g id="text_9">
      <!-- Nov -->
      <g style="fill:#555555;" transform="translate(493.143642 558.917812)scale(0.14 -0.14)">
       <defs>
        <path d="M 588 4666 
L 1931 4666 
L 3628 1466 
L 3628 4666 
L 4769 4666 
L 4769 0 
L 3425 0 
L 1728 3200 
L 1728 0 
L 588 0 
L 588 4666 
z
" id="DejaVuSans-Bold-4e" transform="scale(0.015625)"/>
        <path d="M 2203 2784 
Q 1831 2784 1636 2517 
Q 1441 2250 1441 1747 
Q 1441 1244 1636 976 
Q 1831 709 2203 709 
Q 2569 709 2762 976 
Q 2956 1244 2956 1747 
Q 2956 2250 2762 2517 
Q 2569 2784 2203 2784 
z
M 2203 3584 
Q 3106 3584 3614 3096 
Q 4122 2609 4122 1747 
Q 4122 884 3614 396 
Q 3106 -91 2203 -91 
Q 1297 -91 786 396 
Q 275 884 275 1747 
Q 275 2609 786 3096 
Q 1297 3584 2203 3584 
z
" id="DejaVuSans-Bold-6f" transform="scale(0.015625)"/>
        <path d="M 97 3500 
L 1216 3500 
L 2088 1081 
L 2956 3500 
L 4078 3500 
L 2700 0 
L 1472 0 
L 97 3500 
z
" id="DejaVuSans-Bold-76" transform="scale(0.015625)"/>
       </defs>
       <use xlink:href="#DejaVuSans-Bold-4e"/>
       <use x="83.691406" xlink:href="#DejaVuSans-Bold-6f"/>
       <use x="152.392578" xlink:href="#DejaVuSans-Bold-76"/>
      </g>
     </g>
    </g>
    <g id="xtick_10">
     <g id="line2d_10">
      <g>
       <use style="fill:#555555;stroke:#555555;stroke-width:0.8;" x="555.027425" xlink:href="#m3a70c88410" y="541.28"/>
      </g>
     </g>
     <g id="text_10">
      <!-- Dec -->
      <g style="fill:#555555;" transform="translate(540.318675 558.917812)scale(0.14 -0.14)">
       <defs>
        <path d="M 1791 3756 
L 1791 909 
L 2222 909 
Q 2959 909 3348 1275 
Q 3738 1641 3738 2338 
Q 3738 3031 3350 3393 
Q 2963 3756 2222 3756 
L 1791 3756 
z
M 588 4666 
L 1856 4666 
Q 2919 4666 3439 4514 
Q 3959 4363 4331 4000 
Q 4659 3684 4818 3271 
Q 4978 2859 4978 2338 
Q 4978 1809 4818 1395 
Q 4659 981 4331 666 
Q 3956 303 3431 151 
Q 2906 0 1856 0 
L 588 0 
L 588 4666 
z
" id="DejaVuSans-Bold-44" transform="scale(0.015625)"/>
       </defs>
       <use xlink:href="#DejaVuSans-Bold-44"/>
       <use x="83.007812" xlink:href="#DejaVuSans-Bold-65"/>
       <use x="150.830078" xlink:href="#DejaVuSans-Bold-63"/>
      </g>
     </g>
    </g>
    <g id="xtick_11">
     <g id="line2d_11">
      <g>
       <use style="fill:#555555;stroke:#555555;stroke-width:0.8;" x="603.235849" xlink:href="#m3a70c88410" y="541.28"/>
      </g>
     </g>
     <g id="text_11">
      <!-- Jan -->
      <g style="fill:#555555;" transform="translate(590.924599 558.917812)scale(0.14 -0.14)">
       <use xlink:href="#DejaVuSans-Bold-4a"/>
       <use x="37.207031" xlink:href="#DejaVuSans-Bold-61"/>
       <use x="104.6875" xlink:href="#DejaVuSans-Bold-6e"/>
      </g>
     </g>
    </g>
    <g id="xtick_12">
     <g id="line2d_12">
      <g>
       <use style="fill:#555555;stroke:#555555;stroke-width:0.8;" x="651.444273" xlink:href="#m3a70c88410" y="541.28"/>
      </g>
     </g>
     <g id="text_12">
      <!-- Feb -->
      <g style="fill:#555555;" transform="translate(637.18396 558.917812)scale(0.14 -0.14)">
       <defs>
        <path d="M 588 4666 
L 3834 4666 
L 3834 3756 
L 1791 3756 
L 1791 2888 
L 3713 2888 
L 3713 1978 
L 1791 1978 
L 1791 0 
L 588 0 
L 588 4666 
z
" id="DejaVuSans-Bold-46" transform="scale(0.015625)"/>
        <path d="M 2400 722 
Q 2759 722 2948 984 
Q 3138 1247 3138 1747 
Q 3138 2247 2948 2509 
Q 2759 2772 2400 2772 
Q 2041 2772 1848 2508 
Q 1656 2244 1656 1747 
Q 1656 1250 1848 986 
Q 2041 722 2400 722 
z
M 1656 2988 
Q 1888 3294 2169 3439 
Q 2450 3584 2816 3584 
Q 3463 3584 3878 3070 
Q 4294 2556 4294 1747 
Q 4294 938 3878 423 
Q 3463 -91 2816 -91 
Q 2450 -91 2169 54 
Q 1888 200 1656 506 
L 1656 0 
L 538 0 
L 538 4863 
L 1656 4863 
L 1656 2988 
z
" id="DejaVuSans-Bold-62" transform="scale(0.015625)"/>
       </defs>
       <use xlink:href="#DejaVuSans-Bold-46"/>
       <use x="64.310547" xlink:href="#DejaVuSans-Bold-65"/>
       <use x="132.132812" xlink:href="#DejaVuSans-Bold-62"/>
      </g>
     </g>
    </g>
    <g id="xtick_13">
     <g id="line2d_13">
      <g>
       <use style="fill:#555555;stroke:#555555;stroke-width:0.8;" x="694.987365" xlink:href="#m3a70c88410" y="541.28"/>
      </g>
     </g>
     <g id="text_13">
      <!-- Mar -->
      <g style="fill:#555555;" transform="translate(679.84549 558.917812)scale(0.14 -0.14)">
       <use xlink:href="#DejaVuSans-Bold-4d"/>
       <use x="99.511719" xlink:href="#DejaVuSans-Bold-61"/>
       <use x="166.992188" xlink:href="#DejaVuSans-Bold-72"/>
      </g>
     </g>
    </g>
    <g id="xtick_14">
     <g id="line2d_14">
      <g>
       <use style="fill:#555555;stroke:#555555;stroke-width:0.8;" x="743.195789" xlink:href="#m3a70c88410" y="541.28"/>
      </g>
     </g>
     <g id="text_14">
      <!-- Apr -->
      <g style="fill:#555555;" transform="translate(729.316102 558.917812)scale(0.14 -0.14)">
       <use xlink:href="#DejaVuSans-Bold-41"/>
       <use x="77.392578" xlink:href="#DejaVuSans-Bold-70"/>
       <use x="148.974609" xlink:href="#DejaVuSans-Bold-72"/>
      </g>
     </g>
    </g>
    <g id="xtick_15">
     <g id="line2d_15">
      <g>
       <use style="fill:#555555;stroke:#555555;stroke-width:0.8;" x="789.849103" xlink:href="#m3a70c88410" y="541.28"/>
      </g>
     </g>
     <g id="text_15">
      <!-- May -->
      <g style="fill:#555555;" transform="translate(773.814728 558.808437)scale(0.14 -0.14)">
       <use xlink:href="#DejaVuSans-Bold-4d"/>
       <use x="99.511719" xlink:href="#DejaVuSans-Bold-61"/>
       <use x="163.867188" xlink:href="#DejaVuSans-Bold-79"/>
      </g>
     </g>
    </g>
    <g id="xtick_16">
     <g id="line2d_16">
      <g>
       <use style="fill:#555555;stroke:#555555;stroke-width:0.8;" x="838.057527" xlink:href="#m3a70c88410" y="541.28"/>
      </g>
     </g>
     <g id="text_16">
      <!-- Jun -->
      <g style="fill:#555555;" transform="translate(825.487058 558.917812)scale(0.14 -0.14)">
       <use xlink:href="#DejaVuSans-Bold-4a"/>
       <use x="37.207031" xlink:href="#DejaVuSans-Bold-75"/>
       <use x="108.398438" xlink:href="#DejaVuSans-Bold-6e"/>
      </g>
     </g>
    </g>
    <g id="xtick_17">
     <g id="line2d_17">
      <g>
       <use style="fill:#555555;stroke:#555555;stroke-width:0.8;" x="884.710841" xlink:href="#m3a70c88410" y="541.28"/>
      </g>
     </g>
     <g id="text_17">
      <!-- Jul -->
      <g style="fill:#555555;" transform="translate(874.723809 558.917812)scale(0.14 -0.14)">
       <use xlink:href="#DejaVuSans-Bold-4a"/>
       <use x="37.207031" xlink:href="#DejaVuSans-Bold-75"/>
       <use x="108.398438" xlink:href="#DejaVuSans-Bold-6c"/>
      </g>
     </g>
    </g>
    <g id="xtick_18">
     <g id="line2d_18">
      <g>
       <use style="fill:#555555;stroke:#555555;stroke-width:0.8;" x="932.919265" xlink:href="#m3a70c88410" y="541.28"/>
      </g>
     </g>
     <g id="text_18">
      <!-- Aug -->
      <g style="fill:#555555;" transform="translate(917.508327 558.808437)scale(0.14 -0.14)">
       <use xlink:href="#DejaVuSans-Bold-41"/>
       <use x="77.392578" xlink:href="#DejaVuSans-Bold-75"/>
       <use x="148.583984" xlink:href="#DejaVuSans-Bold-67"/>
      </g>
     </g>
    </g>
    <g id="xtick_19">
     <g id="line2d_19">
      <g>
       <use style="fill:#555555;stroke:#555555;stroke-width:0.8;" x="981.127689" xlink:href="#m3a70c88410" y="541.28"/>
      </g>
     </g>
     <g id="text_19">
      <!-- Sep -->
      <g style="fill:#555555;" transform="translate(966.328157 558.917812)scale(0.14 -0.14)">
       <use xlink:href="#DejaVuSans-Bold-53"/>
       <use x="72.021484" xlink:href="#DejaVuSans-Bold-65"/>
       <use x="139.84375" xlink:href="#DejaVuSans-Bold-70"/>
      </g>
     </g>
    </g>
    <g id="xtick_20">
     <g id="line2d_20">
      <g>
       <use style="fill:#555555;stroke:#555555;stroke-width:0.8;" x="1027.781002" xlink:href="#m3a70c88410" y="541.28"/>
      </g>
     </g>
     <g id="text_20">
      <!-- Oct -->
      <g style="fill:#555555;" transform="translate(1014.33444 558.917812)scale(0.14 -0.14)">
       <use xlink:href="#DejaVuSans-Bold-4f"/>
       <use x="85.009766" xlink:href="#DejaVuSans-Bold-63"/>
       <use x="144.287109" xlink:href="#DejaVuSans-Bold-74"/>
      </g>
     </g>
    </g>
    <g id="xtick_21">
     <g id="line2d_21">
      <g>
       <use style="fill:#555555;stroke:#555555;stroke-width:0.8;" x="1075.989426" xlink:href="#m3a70c88410" y="541.28"/>
      </g>
     </g>
     <g id="text_21">
      <!-- Nov -->
      <g style="fill:#555555;" transform="translate(1060.758958 558.917812)scale(0.14 -0.14)">
       <use xlink:href="#DejaVuSans-Bold-4e"/>
       <use x="83.691406" xlink:href="#DejaVuSans-Bold-6f"/>
       <use x="152.392578" xlink:href="#DejaVuSans-Bold-76"/>
      </g>
     </g>
    </g>
    <g id="xtick_22">
     <g id="line2d_22">
      <g>
       <use style="fill:#555555;stroke:#555555;stroke-width:0.8;" x="1122.64274" xlink:href="#m3a70c88410" y="541.28"/>
      </g>
     </g>
     <g id="text_22">
      <!-- Dec -->
      <g style="fill:#555555;" transform="translate(1107.93399 558.917812)scale(0.14 -0.14)">
       <use xlink:href="#DejaVuSans-Bold-44"/>
       <use x="83.007812" xlink:href="#DejaVuSans-Bold-65"/>
       <use x="150.830078" xlink:href="#DejaVuSans-Bold-63"/>
      </g>
     </g>
    </g>
   </g>
   <g id="matplotlib.axis_2">
    <g id="ytick_1">
     <g id="line2d_23">
      <defs>
       <path d="M 0 0 
L -3.5 0 
" id="m82b7b35dd8" style="stroke:#555555;stroke-width:0.8;"/>
      </defs>
      <g>
       <use style="fill:#555555;stroke:#555555;stroke-width:0.8;" x="87.95" xlink:href="#m82b7b35dd8" y="519.485405"/>
      </g>
     </g>
     <g id="text_23">
      <!-- 0 -->
      <g style="fill:#555555;" transform="translate(71.209063 524.804311)scale(0.14 -0.14)">
       <defs>
        <path d="M 2944 2338 
Q 2944 3213 2780 3570 
Q 2616 3928 2228 3928 
Q 1841 3928 1675 3570 
Q 1509 3213 1509 2338 
Q 1509 1453 1675 1090 
Q 1841 728 2228 728 
Q 2613 728 2778 1090 
Q 2944 1453 2944 2338 
z
M 4147 2328 
Q 4147 1169 3647 539 
Q 3147 -91 2228 -91 
Q 1306 -91 806 539 
Q 306 1169 306 2328 
Q 306 3491 806 4120 
Q 1306 4750 2228 4750 
Q 3147 4750 3647 4120 
Q 4147 3491 4147 2328 
z
" id="DejaVuSans-Bold-30" transform="scale(0.015625)"/>
       </defs>
       <use xlink:href="#DejaVuSans-Bold-30"/>
      </g>
     </g>
    </g>
    <g id="ytick_2">
     <g id="line2d_24">
      <g>
       <use style="fill:#555555;stroke:#555555;stroke-width:0.8;" x="87.95" xlink:href="#m82b7b35dd8" y="448.872754"/>
      </g>
     </g>
     <g id="text_24">
      <!-- 2000 -->
      <g style="fill:#555555;" transform="translate(41.98625 454.19166)scale(0.14 -0.14)">
       <defs>
        <path d="M 1844 884 
L 3897 884 
L 3897 0 
L 506 0 
L 506 884 
L 2209 2388 
Q 2438 2594 2547 2791 
Q 2656 2988 2656 3200 
Q 2656 3528 2436 3728 
Q 2216 3928 1850 3928 
Q 1569 3928 1234 3808 
Q 900 3688 519 3450 
L 519 4475 
Q 925 4609 1322 4679 
Q 1719 4750 2100 4750 
Q 2938 4750 3402 4381 
Q 3866 4013 3866 3353 
Q 3866 2972 3669 2642 
Q 3472 2313 2841 1759 
L 1844 884 
z
" id="DejaVuSans-Bold-32" transform="scale(0.015625)"/>
       </defs>
       <use xlink:href="#DejaVuSans-Bold-32"/>
       <use x="69.580078" xlink:href="#DejaVuSans-Bold-30"/>
       <use x="139.160156" xlink:href="#DejaVuSans-Bold-30"/>
       <use x="208.740234" xlink:href="#DejaVuSans-Bold-30"/>
      </g>
     </g>
    </g>
    <g id="ytick_3">
     <g id="line2d_25">
      <g>
       <use style="fill:#555555;stroke:#555555;stroke-width:0.8;" x="87.95" xlink:href="#m82b7b35dd8" y="378.260103"/>
      </g>
     </g>
     <g id="text_25">
      <!-- 4000 -->
      <g style="fill:#555555;" transform="translate(41.98625 383.579009)scale(0.14 -0.14)">
       <defs>
        <path d="M 2356 3675 
L 1038 1722 
L 2356 1722 
L 2356 3675 
z
M 2156 4666 
L 3494 4666 
L 3494 1722 
L 4159 1722 
L 4159 850 
L 3494 850 
L 3494 0 
L 2356 0 
L 2356 850 
L 288 850 
L 288 1881 
L 2156 4666 
z
" id="DejaVuSans-Bold-34" transform="scale(0.015625)"/>
       </defs>
       <use xlink:href="#DejaVuSans-Bold-34"/>
       <use x="69.580078" xlink:href="#DejaVuSans-Bold-30"/>
       <use x="139.160156" xlink:href="#DejaVuSans-Bold-30"/>
       <use x="208.740234" xlink:href="#DejaVuSans-Bold-30"/>
      </g>
     </g>
    </g>
    <g id="ytick_4">
     <g id="line2d_26">
      <g>
       <use style="fill:#555555;stroke:#555555;stroke-width:0.8;" x="87.95" xlink:href="#m82b7b35dd8" y="307.647451"/>
      </g>
     </g>
     <g id="text_26">
      <!-- 6000 -->
      <g style="fill:#555555;" transform="translate(41.98625 312.966358)scale(0.14 -0.14)">
       <defs>
        <path d="M 2316 2303 
Q 2000 2303 1842 2098 
Q 1684 1894 1684 1484 
Q 1684 1075 1842 870 
Q 2000 666 2316 666 
Q 2634 666 2792 870 
Q 2950 1075 2950 1484 
Q 2950 1894 2792 2098 
Q 2634 2303 2316 2303 
z
M 3803 4544 
L 3803 3681 
Q 3506 3822 3243 3889 
Q 2981 3956 2731 3956 
Q 2194 3956 1894 3657 
Q 1594 3359 1544 2772 
Q 1750 2925 1990 3001 
Q 2231 3078 2516 3078 
Q 3231 3078 3670 2659 
Q 4109 2241 4109 1563 
Q 4109 813 3618 361 
Q 3128 -91 2303 -91 
Q 1394 -91 895 523 
Q 397 1138 397 2266 
Q 397 3422 980 4083 
Q 1563 4744 2578 4744 
Q 2900 4744 3203 4694 
Q 3506 4644 3803 4544 
z
" id="DejaVuSans-Bold-36" transform="scale(0.015625)"/>
       </defs>
       <use xlink:href="#DejaVuSans-Bold-36"/>
       <use x="69.580078" xlink:href="#DejaVuSans-Bold-30"/>
       <use x="139.160156" xlink:href="#DejaVuSans-Bold-30"/>
       <use x="208.740234" xlink:href="#DejaVuSans-Bold-30"/>
      </g>
     </g>
    </g>
    <g id="ytick_5">
     <g id="line2d_27">
      <g>
       <use style="fill:#555555;stroke:#555555;stroke-width:0.8;" x="87.95" xlink:href="#m82b7b35dd8" y="237.0348"/>
      </g>
     </g>
     <g id="text_27">
      <!-- 8000 -->
      <g style="fill:#555555;" transform="translate(41.98625 242.353706)scale(0.14 -0.14)">
       <defs>
        <path d="M 2228 2088 
Q 1891 2088 1709 1903 
Q 1528 1719 1528 1375 
Q 1528 1031 1709 848 
Q 1891 666 2228 666 
Q 2563 666 2741 848 
Q 2919 1031 2919 1375 
Q 2919 1722 2741 1905 
Q 2563 2088 2228 2088 
z
M 1350 2484 
Q 925 2613 709 2878 
Q 494 3144 494 3541 
Q 494 4131 934 4440 
Q 1375 4750 2228 4750 
Q 3075 4750 3515 4442 
Q 3956 4134 3956 3541 
Q 3956 3144 3739 2878 
Q 3522 2613 3097 2484 
Q 3572 2353 3814 2058 
Q 4056 1763 4056 1313 
Q 4056 619 3595 264 
Q 3134 -91 2228 -91 
Q 1319 -91 855 264 
Q 391 619 391 1313 
Q 391 1763 633 2058 
Q 875 2353 1350 2484 
z
M 1631 3419 
Q 1631 3141 1786 2991 
Q 1941 2841 2228 2841 
Q 2509 2841 2662 2991 
Q 2816 3141 2816 3419 
Q 2816 3697 2662 3845 
Q 2509 3994 2228 3994 
Q 1941 3994 1786 3844 
Q 1631 3694 1631 3419 
z
" id="DejaVuSans-Bold-38" transform="scale(0.015625)"/>
       </defs>
       <use xlink:href="#DejaVuSans-Bold-38"/>
       <use x="69.580078" xlink:href="#DejaVuSans-Bold-30"/>
       <use x="139.160156" xlink:href="#DejaVuSans-Bold-30"/>
       <use x="208.740234" xlink:href="#DejaVuSans-Bold-30"/>
      </g>
     </g>
    </g>
    <g id="ytick_6">
     <g id="line2d_28">
      <g>
       <use style="fill:#555555;stroke:#555555;stroke-width:0.8;" x="87.95" xlink:href="#m82b7b35dd8" y="166.422149"/>
      </g>
     </g>
     <g id="text_28">
      <!-- 10000 -->
      <g style="fill:#555555;" transform="translate(32.245313 171.741055)scale(0.14 -0.14)">
       <defs>
        <path d="M 750 831 
L 1813 831 
L 1813 3847 
L 722 3622 
L 722 4441 
L 1806 4666 
L 2950 4666 
L 2950 831 
L 4013 831 
L 4013 0 
L 750 0 
L 750 831 
z
" id="DejaVuSans-Bold-31" transform="scale(0.015625)"/>
       </defs>
       <use xlink:href="#DejaVuSans-Bold-31"/>
       <use x="69.580078" xlink:href="#DejaVuSans-Bold-30"/>
       <use x="139.160156" xlink:href="#DejaVuSans-Bold-30"/>
       <use x="208.740234" xlink:href="#DejaVuSans-Bold-30"/>
       <use x="278.320312" xlink:href="#DejaVuSans-Bold-30"/>
      </g>
     </g>
    </g>
    <g id="ytick_7">
     <g id="line2d_29">
      <g>
       <use style="fill:#555555;stroke:#555555;stroke-width:0.8;" x="87.95" xlink:href="#m82b7b35dd8" y="95.809498"/>
      </g>
     </g>
     <g id="text_29">
      <!-- 12000 -->
      <g style="fill:#555555;" transform="translate(32.245313 101.128404)scale(0.14 -0.14)">
       <use xlink:href="#DejaVuSans-Bold-31"/>
       <use x="69.580078" xlink:href="#DejaVuSans-Bold-32"/>
       <use x="139.160156" xlink:href="#DejaVuSans-Bold-30"/>
       <use x="208.740234" xlink:href="#DejaVuSans-Bold-30"/>
       <use x="278.320312" xlink:href="#DejaVuSans-Bold-30"/>
      </g>
     </g>
    </g>
    <g id="text_30">
     <!-- New Cases -->
     <g style="fill:#555555;" transform="translate(24.917813 333.23875)rotate(-90)scale(0.16 -0.16)">
      <defs>
       <path d="M 628 4666 
L 1478 4666 
L 3547 763 
L 3547 4666 
L 4159 4666 
L 4159 0 
L 3309 0 
L 1241 3903 
L 1241 0 
L 628 0 
L 628 4666 
z
" id="DejaVuSans-4e" transform="scale(0.015625)"/>
       <path d="M 3597 1894 
L 3597 1613 
L 953 1613 
Q 991 1019 1311 708 
Q 1631 397 2203 397 
Q 2534 397 2845 478 
Q 3156 559 3463 722 
L 3463 178 
Q 3153 47 2828 -22 
Q 2503 -91 2169 -91 
Q 1331 -91 842 396 
Q 353 884 353 1716 
Q 353 2575 817 3079 
Q 1281 3584 2069 3584 
Q 2775 3584 3186 3129 
Q 3597 2675 3597 1894 
z
M 3022 2063 
Q 3016 2534 2758 2815 
Q 2500 3097 2075 3097 
Q 1594 3097 1305 2825 
Q 1016 2553 972 2059 
L 3022 2063 
z
" id="DejaVuSans-65" transform="scale(0.015625)"/>
       <path d="M 269 3500 
L 844 3500 
L 1563 769 
L 2278 3500 
L 2956 3500 
L 3675 769 
L 4391 3500 
L 4966 3500 
L 4050 0 
L 3372 0 
L 2619 2869 
L 1863 0 
L 1184 0 
L 269 3500 
z
" id="DejaVuSans-77" transform="scale(0.015625)"/>
       <path id="DejaVuSans-20" transform="scale(0.015625)"/>
       <path d="M 4122 4306 
L 4122 3641 
Q 3803 3938 3442 4084 
Q 3081 4231 2675 4231 
Q 1875 4231 1450 3742 
Q 1025 3253 1025 2328 
Q 1025 1406 1450 917 
Q 1875 428 2675 428 
Q 3081 428 3442 575 
Q 3803 722 4122 1019 
L 4122 359 
Q 3791 134 3420 21 
Q 3050 -91 2638 -91 
Q 1578 -91 968 557 
Q 359 1206 359 2328 
Q 359 3453 968 4101 
Q 1578 4750 2638 4750 
Q 3056 4750 3426 4639 
Q 3797 4528 4122 4306 
z
" id="DejaVuSans-43" transform="scale(0.015625)"/>
       <path d="M 2194 1759 
Q 1497 1759 1228 1600 
Q 959 1441 959 1056 
Q 959 750 1161 570 
Q 1363 391 1709 391 
Q 2188 391 2477 730 
Q 2766 1069 2766 1631 
L 2766 1759 
L 2194 1759 
z
M 3341 1997 
L 3341 0 
L 2766 0 
L 2766 531 
Q 2569 213 2275 61 
Q 1981 -91 1556 -91 
Q 1019 -91 701 211 
Q 384 513 384 1019 
Q 384 1609 779 1909 
Q 1175 2209 1959 2209 
L 2766 2209 
L 2766 2266 
Q 2766 2663 2505 2880 
Q 2244 3097 1772 3097 
Q 1472 3097 1187 3025 
Q 903 2953 641 2809 
L 641 3341 
Q 956 3463 1253 3523 
Q 1550 3584 1831 3584 
Q 2591 3584 2966 3190 
Q 3341 2797 3341 1997 
z
" id="DejaVuSans-61" transform="scale(0.015625)"/>
       <path d="M 2834 3397 
L 2834 2853 
Q 2591 2978 2328 3040 
Q 2066 3103 1784 3103 
Q 1356 3103 1142 2972 
Q 928 2841 928 2578 
Q 928 2378 1081 2264 
Q 1234 2150 1697 2047 
L 1894 2003 
Q 2506 1872 2764 1633 
Q 3022 1394 3022 966 
Q 3022 478 2636 193 
Q 2250 -91 1575 -91 
Q 1294 -91 989 -36 
Q 684 19 347 128 
L 347 722 
Q 666 556 975 473 
Q 1284 391 1588 391 
Q 1994 391 2212 530 
Q 2431 669 2431 922 
Q 2431 1156 2273 1281 
Q 2116 1406 1581 1522 
L 1381 1569 
Q 847 1681 609 1914 
Q 372 2147 372 2553 
Q 372 3047 722 3315 
Q 1072 3584 1716 3584 
Q 2034 3584 2315 3537 
Q 2597 3491 2834 3397 
z
" id="DejaVuSans-73" transform="scale(0.015625)"/>
      </defs>
      <use xlink:href="#DejaVuSans-4e"/>
      <use x="74.804688" xlink:href="#DejaVuSans-65"/>
      <use x="136.328125" xlink:href="#DejaVuSans-77"/>
      <use x="218.115234" xlink:href="#DejaVuSans-20"/>
      <use x="249.902344" xlink:href="#DejaVuSans-43"/>
      <use x="319.726562" xlink:href="#DejaVuSans-61"/>
      <use x="381.005859" xlink:href="#DejaVuSans-73"/>
      <use x="433.105469" xlink:href="#DejaVuSans-65"/>
      <use x="494.628906" xlink:href="#DejaVuSans-73"/>
     </g>
    </g>
   </g>
   <g id="line2d_30">
    <path clip-path="url(#p0f7fafc4a1)" d="M 135.147602 518.073152 
L 136.702713 517.720089 
L 138.257823 518.355603 
L 139.812934 517.331719 
L 141.368044 514.895583 
L 142.923155 515.142727 
L 144.478265 515.001502 
L 146.033375 515.49579 
L 147.588486 511.75332 
L 149.143596 513.377411 
L 150.698707 509.952697 
L 152.253817 509.317183 
L 153.808928 507.23411 
L 155.364038 505.5041 
L 156.919149 500.667134 
L 158.474259 496.995276 
L 160.029369 498.125078 
L 161.58448 499.961007 
L 163.13959 493.040967 
L 164.694701 489.722173 
L 167.804922 478.282923 
L 169.360032 479.024356 
L 170.915143 480.930898 
L 172.470253 488.662983 
L 174.025364 490.03993 
L 175.580474 483.896629 
L 177.135584 481.248655 
L 178.690695 483.472953 
L 180.245805 484.108467 
L 181.800916 480.683753 
L 184.911137 491.875859 
L 186.466247 485.626639 
L 188.021358 476.835364 
L 189.576468 472.633911 
L 191.131579 473.551876 
L 192.686689 478.141698 
L 194.241799 485.626639 
L 195.79691 489.051352 
L 197.35202 493.711787 
L 198.907131 481.742943 
L 200.462241 475.917399 
L 202.017352 477.612103 
L 203.572462 483.367034 
L 205.127573 493.076274 
L 206.682683 494.206076 
L 208.237794 494.488527 
L 209.792904 488.627677 
L 211.348014 491.063813 
L 212.903125 496.642212 
L 214.458235 496.500987 
L 216.013346 505.186343 
L 217.568456 512.671284 
L 219.123567 505.786551 
L 220.678677 501.585098 
L 222.233788 502.608982 
L 223.788898 504.056541 
L 225.344009 507.551867 
L 226.899119 512.388834 
L 228.454229 508.222687 
L 230.00934 508.222687 
L 231.56445 506.739822 
L 233.119561 508.222687 
L 234.674671 509.317183 
L 236.229782 510.941274 
L 237.784892 513.165573 
L 239.340003 512.600672 
L 240.895113 511.612095 
L 242.450224 509.811472 
L 244.005334 512.353527 
L 245.560444 512.635978 
L 247.115555 515.072114 
L 248.670665 514.260069 
L 250.225776 515.566403 
L 251.780886 512.883122 
L 253.335997 510.517598 
L 254.891107 512.989041 
L 258.001328 513.377411 
L 259.556438 511.965158 
L 261.111549 514.930889 
L 262.666659 512.635978 
L 264.22177 513.200879 
L 265.77688 513.200879 
L 267.331991 514.507213 
L 268.887101 513.271492 
L 270.442212 515.813547 
L 271.997322 516.131304 
L 273.552433 516.201917 
L 275.107543 512.847816 
L 276.662653 511.823933 
L 278.217764 512.777203 
L 279.772874 511.047193 
L 281.327985 513.624555 
L 282.883095 513.695168 
L 284.438206 513.09496 
L 285.993316 513.76578 
L 287.548427 512.176996 
L 289.103537 513.09496 
L 290.658648 514.401294 
L 292.213758 513.871699 
L 293.768868 514.754358 
L 295.323979 515.49579 
L 296.879089 515.107421 
L 299.98931 516.307836 
L 301.544421 516.131304 
L 303.099531 517.084575 
L 304.654642 517.013962 
L 306.209752 516.660899 
L 307.764863 515.601709 
L 310.875083 516.766818 
L 312.430194 517.155188 
L 313.985304 516.802124 
L 315.540415 517.472945 
L 317.095525 517.296413 
L 318.650636 516.837431 
L 320.205746 516.802124 
L 321.760857 517.190494 
L 323.315967 516.94335 
L 324.871078 518.037846 
L 326.426188 518.28499 
L 327.981298 517.472945 
L 331.091519 517.190494 
L 332.64663 516.519674 
L 334.20174 516.131304 
L 335.756851 516.94335 
L 337.311961 516.025385 
L 340.422182 515.283952 
L 341.977293 515.637016 
L 343.532403 514.365988 
L 345.087513 514.365988 
L 346.642624 513.024348 
L 348.197734 513.518636 
L 349.752845 513.48333 
L 352.863066 514.012925 
L 355.973287 511.965158 
L 357.528397 512.106383 
L 359.083507 511.576788 
L 360.638618 510.729436 
L 362.193728 507.445948 
L 363.748839 507.445948 
L 365.303949 504.268379 
L 366.85906 506.810434 
L 368.41417 506.351452 
L 369.969281 502.291225 
L 371.524391 504.374298 
L 373.079502 498.125078 
L 374.634612 501.232035 
L 376.189722 502.397144 
L 377.744833 499.113655 
L 379.299943 491.699327 
L 380.855054 497.595483 
L 382.410164 496.500987 
L 383.965275 499.148962 
L 385.520385 497.348339 
L 387.075496 496.324456 
L 388.630606 501.867549 
L 390.185717 502.326531 
L 391.740827 502.079387 
L 393.295937 499.961007 
L 394.851048 500.737746 
L 396.406158 500.667134 
L 397.961269 501.585098 
L 399.516379 503.421027 
L 401.07149 499.254881 
L 402.6266 504.797974 
L 404.181711 499.290187 
L 405.736821 501.549792 
L 407.291932 501.796936 
L 410.402152 501.620404 
L 411.957263 500.914278 
L 413.512373 502.997351 
L 415.067484 494.064851 
L 416.622594 498.336916 
L 418.177705 493.252805 
L 419.732815 496.5716 
L 421.287926 487.003586 
L 422.843036 491.416876 
L 425.953257 479.236194 
L 427.508367 489.934011 
L 429.063478 474.611065 
L 430.618588 476.341075 
L 432.173699 481.107429 
L 433.728809 473.693101 
L 435.28392 470.903901 
L 436.83903 465.219583 
L 439.949251 450.461539 
L 441.504362 452.685837 
L 443.059472 454.380541 
L 444.614582 441.423119 
L 446.169693 440.505155 
L 447.724803 437.080441 
L 449.279914 429.948563 
L 450.835024 421.898721 
L 452.390135 424.158326 
L 453.945245 414.41378 
L 455.500356 417.026448 
L 457.055466 413.425203 
L 458.610576 403.468819 
L 460.165687 404.633928 
L 461.720797 385.180142 
L 463.275908 380.555014 
L 464.831018 378.86031 
L 466.386129 358.665092 
L 467.941239 359.93612 
L 469.49635 343.942354 
L 471.05146 315.273618 
L 472.606571 309.059704 
L 474.161681 290.771028 
L 475.716791 295.572688 
L 477.271902 279.296472 
L 478.827012 260.584119 
L 480.382123 263.479238 
L 481.937233 244.908111 
L 483.492344 238.800116 
L 485.047454 233.327636 
L 486.602565 231.809464 
L 488.157675 237.529089 
L 489.712786 231.950689 
L 492.823006 192.866587 
L 494.378117 167.410726 
L 495.933227 214.368139 
L 497.488338 160.490686 
L 499.043448 155.724332 
L 500.598559 157.030666 
L 502.153669 234.316213 
L 503.70878 157.772099 
L 505.26389 128.785606 
L 506.819001 174.507297 
L 508.374111 213.061805 
L 509.929221 227.678624 
L 511.484332 246.285057 
L 513.039442 251.15733 
L 514.594553 274.247667 
L 516.149663 264.361896 
L 517.704774 285.898755 
L 520.814995 354.640171 
L 522.370105 355.522829 
L 523.925216 329.431454 
L 525.480326 321.099161 
L 527.035436 305.246621 
L 528.590547 311.284003 
L 530.145657 328.195733 
L 533.255878 368.374331 
L 534.810989 357.676515 
L 536.366099 318.733638 
L 537.92121 310.083588 
L 539.47632 307.506226 
L 541.031431 330.314112 
L 542.586541 336.563332 
L 544.141651 380.131338 
L 545.696762 346.131346 
L 547.251872 361.736742 
L 548.806983 316.438726 
L 550.362093 361.842661 
L 551.917204 323.005703 
L 553.472314 358.064884 
L 555.027425 376.918462 
L 556.582535 346.201959 
L 558.137645 321.98182 
L 559.692756 311.495841 
L 561.247866 288.970405 
L 562.802977 280.779338 
L 564.358087 269.022331 
L 565.913198 303.445999 
L 567.468308 288.44081 
L 569.023419 212.002615 
L 570.578529 207.483406 
L 572.13364 197.421103 
L 573.68875 170.764827 
L 575.24386 220.758584 
L 576.798971 285.36916 
L 578.354081 125.254973 
L 579.909192 68.341176 
L 581.464302 97.362976 
L 583.019413 87.900881 
L 584.574523 60.609091 
L 586.129634 125.608036 
L 587.684744 172.706675 
L 589.239855 152.617376 
L 590.794965 113.674498 
L 592.350075 113.639192 
L 593.905186 172.953819 
L 595.460296 201.551943 
L 597.015407 258.289208 
L 598.570517 254.052449 
L 600.125628 185.875934 
L 601.680738 178.285074 
L 603.235849 231.068031 
L 604.790959 216.239374 
L 606.34607 258.359821 
L 607.90118 285.333854 
L 609.45629 294.619417 
L 611.011401 269.198863 
L 612.566511 177.790786 
L 614.121622 233.080492 
L 617.231843 286.393043 
L 618.786953 327.136543 
L 620.342064 345.001544 
L 621.897174 304.434576 
L 623.452285 290.029595 
L 625.007395 306.764793 
L 626.562505 332.538411 
L 628.117616 322.405495 
L 629.672726 350.579943 
L 631.227837 367.844737 
L 632.782947 322.864478 
L 634.338058 314.532185 
L 635.893168 316.650564 
L 637.448279 327.207156 
L 639.003389 347.15523 
L 640.558499 375.11784 
L 642.11361 379.707662 
L 643.66872 352.663017 
L 645.223831 353.863432 
L 646.778941 364.243491 
L 648.334052 372.187415 
L 649.889162 389.664046 
L 651.444273 405.163523 
L 652.999383 394.218562 
L 654.554494 377.624589 
L 656.109604 371.234144 
L 657.664714 367.067997 
L 659.219825 375.11784 
L 660.774935 381.155221 
L 662.330046 439.799028 
L 663.885156 457.381578 
L 665.440267 407.458434 
L 666.995377 363.184302 
L 668.550488 366.714934 
L 670.105598 372.187415 
L 671.660709 398.56124 
L 673.215819 419.144828 
L 674.770929 424.511389 
L 676.32604 400.5737 
L 677.88115 358.559173 
L 679.436261 354.393027 
L 680.991371 359.229993 
L 682.546482 354.640171 
L 684.101592 371.94027 
L 685.656703 385.003611 
L 687.211813 365.267375 
L 688.766924 343.448066 
L 690.322034 339.811514 
L 691.877144 345.70767 
L 693.432255 355.875892 
L 694.987365 387.12199 
L 696.542476 379.495824 
L 698.097586 342.141732 
L 699.652697 375.011921 
L 701.207807 354.887315 
L 702.762918 331.938203 
L 704.318028 360.324489 
L 705.873139 382.355636 
L 707.428249 368.162494 
L 708.983359 333.809439 
L 710.53847 332.467798 
L 712.09358 308.53011 
L 713.648691 294.407579 
L 716.758912 325.230002 
L 718.314022 345.001544 
L 719.869133 310.895633 
L 721.424243 303.022323 
L 722.979354 260.054524 
L 724.534464 251.086718 
L 727.644685 297.055554 
L 729.199795 321.487531 
L 730.754906 252.710809 
L 732.310016 248.050374 
L 733.865127 252.640196 
L 735.420237 209.425253 
L 736.975348 255.747153 
L 738.530458 280.073211 
L 740.085568 312.766869 
L 741.640679 250.133447 
L 743.195789 243.425245 
L 744.7509 264.785572 
L 746.30601 251.263249 
L 747.861121 277.213399 
L 749.416231 331.161464 
L 750.971342 323.217541 
L 752.526452 294.619417 
L 754.081563 245.473012 
L 755.636673 249.038951 
L 757.191783 249.074257 
L 758.746894 232.021302 
L 760.302004 284.415889 
L 761.857115 282.156284 
L 763.412225 327.418994 
L 764.967336 212.53221 
L 766.522446 205.61217 
L 768.077557 228.1023 
L 769.632667 218.604898 
L 771.187778 266.762726 
L 772.742888 278.660958 
L 774.297998 220.370214 
L 775.853109 181.286112 
L 777.408219 193.396182 
L 778.96333 234.845808 
L 780.51844 236.328674 
L 782.073551 299.668222 
L 783.628661 332.185348 
L 785.183772 214.050382 
L 786.738882 262.349436 
L 788.293993 245.367093 
L 789.849103 315.308924 
L 791.404213 326.677561 
L 792.959324 195.161498 
L 794.514434 245.578931 
L 797.624655 281.061788 
L 799.179766 256.135522 
L 800.734876 257.371244 
L 803.845097 312.555031 
L 805.400208 324.417956 
L 806.955318 295.607994 
L 808.510428 307.223775 
L 810.065539 323.782442 
L 811.620649 361.595517 
L 813.17576 363.290221 
L 814.73087 418.579927 
L 816.285981 331.479221 
L 817.841091 358.912236 
L 819.396202 356.511406 
L 820.951312 373.38783 
L 822.506423 407.458434 
L 824.061533 398.631853 
L 825.616643 423.169749 
L 827.171754 431.784492 
L 828.726864 422.816686 
L 830.281975 400.326556 
L 831.837085 383.944421 
L 833.392196 401.385746 
L 834.947306 426.912219 
L 836.502417 448.166627 
L 838.057527 431.925718 
L 839.612637 429.136518 
L 841.167748 422.00464 
L 842.722858 434.926755 
L 844.277969 444.706607 
L 845.833079 464.125087 
L 847.38819 467.655719 
L 848.9433 468.785522 
L 850.498411 457.664029 
L 852.053521 463.80733 
L 853.608632 470.515532 
L 855.163742 475.740868 
L 856.718852 482.73152 
L 858.273963 488.451145 
L 859.829073 482.766827 
L 861.384184 483.331728 
L 862.939294 482.096006 
L 864.494405 488.062775 
L 866.049515 495.053428 
L 867.604626 494.417914 
L 869.159736 499.396106 
L 870.714847 494.84159 
L 872.269957 496.006699 
L 873.825067 494.912203 
L 875.380178 496.677519 
L 876.935288 499.890394 
L 878.490399 501.796936 
L 880.045509 499.466719 
L 881.60062 500.843665 
L 883.15573 497.030582 
L 884.710841 490.463606 
L 886.265951 486.297459 
L 887.821062 479.94232 
L 889.376172 477.117814 
L 890.931282 466.102241 
L 892.486393 442.093939 
L 894.041503 392.347327 
L 895.596614 329.007778 
L 897.151724 276.471966 
L 898.706835 158.513532 
L 901.817056 221.817774 
L 903.372166 244.025453 
L 904.927277 152.087781 
L 906.482387 131.892562 
L 908.037497 121.936179 
L 909.592608 129.315201 
L 911.147718 159.961091 
L 912.702829 206.177072 
L 914.257939 280.249743 
L 915.81305 277.38993 
L 917.36816 299.421078 
L 918.923271 294.548805 
L 920.478381 333.809439 
L 922.033492 356.829163 
L 923.588602 384.120953 
L 925.143712 379.001535 
L 926.698823 397.89042 
L 928.253933 362.301643 
L 929.809044 398.314096 
L 931.364154 415.614195 
L 932.919265 437.821874 
L 934.474375 445.377428 
L 936.029486 441.493732 
L 937.584596 420.910144 
L 939.139706 401.880034 
L 940.694817 417.061755 
L 942.249927 434.856143 
L 943.805038 438.033712 
L 945.360148 447.56642 
L 946.915259 443.153129 
L 948.470369 444.671301 
L 950.02548 428.889374 
L 951.58059 425.429354 
L 953.135701 438.139631 
L 954.690811 439.657803 
L 956.245921 440.540461 
L 957.801032 438.139631 
L 959.356142 421.157288 
L 960.911253 431.784492 
L 962.466363 441.529038 
L 964.021474 433.337971 
L 965.576584 432.561231 
L 967.131695 435.385738 
L 968.686805 432.631844 
L 970.241916 420.062792 
L 971.797026 427.229976 
L 973.352136 420.698306 
L 974.907247 432.984907 
L 978.017468 442.835372 
L 979.572578 439.163514 
L 981.127689 420.980757 
L 982.682799 421.016063 
L 984.23791 430.160401 
L 985.79302 422.463622 
L 987.348131 436.233089 
L 988.903241 444.847833 
L 990.458351 432.208168 
L 992.013462 420.839531 
L 993.568572 436.268396 
L 995.123683 425.005678 
L 996.678793 441.529038 
L 998.233904 445.518653 
L 999.789014 457.628723 
L 1001.344125 448.837448 
L 1002.899235 435.632882 
L 1004.454346 445.695185 
L 1006.009456 444.424157 
L 1007.564566 448.378465 
L 1009.119677 460.700373 
L 1010.674787 471.715947 
L 1012.229898 460.770986 
L 1013.785008 452.615224 
L 1015.340119 455.580956 
L 1016.895229 459.67649 
L 1018.45034 462.995284 
L 1020.00545 463.03059 
L 1021.56056 470.550838 
L 1023.115671 458.864444 
L 1024.670781 457.664029 
L 1026.225892 459.429345 
L 1027.781002 458.864444 
L 1029.336113 460.559148 
L 1030.891223 462.924672 
L 1032.446334 462.642221 
L 1034.001444 452.438693 
L 1035.556555 452.226855 
L 1037.111665 422.993217 
L 1038.666775 421.72219 
L 1040.221886 431.784492 
L 1041.776996 422.851992 
L 1043.332107 440.046173 
L 1044.887217 417.661962 
L 1046.442328 388.18118 
L 1047.997438 391.111605 
L 1049.552549 388.957919 
L 1051.107659 389.169757 
L 1052.66277 390.228947 
L 1054.21788 401.173908 
L 1055.77299 381.190528 
L 1057.328101 357.676515 
L 1058.883211 336.669251 
L 1060.438322 313.225851 
L 1061.993432 319.227926 
L 1063.548543 296.879022 
L 1065.103653 332.326573 
L 1066.658764 316.226889 
L 1068.213874 262.949643 
L 1069.768985 248.615275 
L 1071.324095 258.395127 
L 1072.879205 238.76481 
L 1074.434316 230.962112 
L 1075.989426 247.450166 
L 1077.544537 246.35567 
L 1079.099647 194.843741 
L 1079.099647 194.843741 
" style="fill:none;stroke:#000000;stroke-dasharray:1.5,2.475;stroke-dashoffset:0;stroke-opacity:0.5;stroke-width:1.5;"/>
   </g>
   <g id="line2d_31">
    <path clip-path="url(#p0f7fafc4a1)" d="M 135.147602 518.390909 
L 138.257823 517.367026 
L 144.478265 514.719051 
L 146.033375 513.942312 
L 147.588486 513.024348 
L 149.143596 511.859239 
L 150.698707 510.446986 
L 152.253817 508.646363 
L 153.808928 506.492677 
L 155.364038 504.091847 
L 161.58448 495.477104 
L 163.13959 492.44076 
L 166.249811 485.414801 
L 167.804922 483.11989 
L 169.360032 482.660908 
L 170.915143 483.296421 
L 172.470253 484.320305 
L 174.025364 485.026431 
L 175.580474 484.955819 
L 178.690695 483.508259 
L 180.245805 483.755404 
L 181.800916 484.602755 
L 183.356026 485.026431 
L 184.911137 484.249692 
L 186.466247 482.307844 
L 188.021358 479.977627 
L 189.576468 478.282923 
L 191.131579 478.212311 
L 192.686689 480.401303 
L 194.241799 483.155196 
L 195.79691 484.885206 
L 197.35202 484.920512 
L 198.907131 483.720097 
L 200.462241 482.802133 
L 202.017352 483.261115 
L 203.572462 485.238269 
L 205.127573 488.098082 
L 206.682683 490.498912 
L 208.237794 492.05239 
L 209.792904 492.864436 
L 211.348014 494.029544 
L 212.903125 496.606906 
L 216.013346 502.679594 
L 217.568456 504.515523 
L 219.123567 505.045118 
L 222.233788 505.151037 
L 223.788898 505.645326 
L 225.344009 506.881047 
L 226.899119 507.940237 
L 228.454229 508.434525 
L 231.56445 508.540444 
L 233.119561 508.858201 
L 236.229782 510.658824 
L 237.784892 511.329644 
L 239.340003 511.682707 
L 242.450224 511.965158 
L 244.005334 512.318221 
L 247.115555 513.624555 
L 248.670665 513.871699 
L 250.225776 513.695168 
L 253.335997 512.918429 
L 254.891107 512.706591 
L 256.446218 512.777203 
L 259.556438 513.200879 
L 264.22177 513.412717 
L 267.331991 514.012925 
L 268.887101 514.54252 
L 270.442212 514.860277 
L 271.997322 514.860277 
L 273.552433 514.471907 
L 276.662653 513.09496 
L 278.217764 512.706591 
L 279.772874 512.600672 
L 282.883095 513.059654 
L 287.548427 513.306798 
L 289.103537 513.48333 
L 292.213758 514.224763 
L 295.323979 515.072114 
L 301.544421 516.378449 
L 304.654642 516.55498 
L 307.764863 516.484368 
L 309.319973 516.484368 
L 317.095525 517.084575 
L 320.205746 517.084575 
L 326.426188 517.649476 
L 329.536409 517.331719 
L 335.756851 516.27253 
L 338.867072 515.742935 
L 340.422182 515.460484 
L 345.087513 514.15415 
L 346.642624 513.836393 
L 349.752845 513.553942 
L 352.863066 513.236186 
L 354.418176 512.918429 
L 355.973287 512.42414 
L 357.528397 511.718014 
L 359.083507 510.835355 
L 362.193728 508.469832 
L 365.303949 506.351452 
L 366.85906 505.610019 
L 373.079502 501.655711 
L 374.634612 500.384683 
L 376.189722 499.396106 
L 377.744833 498.160385 
L 379.299943 497.454258 
L 380.855054 496.995276 
L 382.410164 496.85405 
L 383.965275 497.383645 
L 385.520385 498.336916 
L 388.630606 499.996313 
L 390.185717 500.631827 
L 391.740827 501.020197 
L 393.295937 501.161422 
L 396.406158 501.126116 
L 397.961269 501.443873 
L 401.07149 501.691017 
L 404.181711 501.549792 
L 405.736821 501.443873 
L 407.291932 501.549792 
L 408.847042 501.514485 
L 410.402152 501.161422 
L 411.957263 500.525908 
L 415.067484 498.089772 
L 419.732815 492.687904 
L 424.398147 486.19154 
L 425.953257 483.755404 
L 427.508367 482.0607 
L 429.063478 480.012933 
L 430.618588 478.177004 
L 432.173699 476.093931 
L 433.728809 472.775136 
L 435.28392 468.962053 
L 438.394141 459.782409 
L 439.949251 455.580956 
L 444.614582 444.459463 
L 447.724803 435.244512 
L 449.279914 430.125095 
L 452.390135 421.863415 
L 453.945245 417.944413 
L 455.500356 414.484393 
L 457.055466 409.965183 
L 458.610576 404.139639 
L 460.165687 397.749194 
L 464.831018 373.034766 
L 466.386129 362.513481 
L 467.941239 351.144845 
L 472.606571 311.036859 
L 474.161681 298.503113 
L 477.271902 277.954832 
L 480.382123 258.359821 
L 481.937233 249.321401 
L 483.492344 242.683812 
L 486.602565 233.645393 
L 488.157675 228.420057 
L 491.267896 211.155263 
L 494.378117 189.830243 
L 495.933227 180.43876 
L 497.488338 177.755479 
L 499.043448 175.848938 
L 500.598559 174.118928 
L 502.153669 171.470953 
L 503.70878 172.671368 
L 505.26389 176.837515 
L 506.819001 187.146962 
L 508.374111 200.598672 
L 509.929221 220.864503 
L 511.484332 239.223792 
L 513.039442 253.063872 
L 514.594553 265.738843 
L 516.149663 280.955869 
L 519.259884 314.885248 
L 520.814995 327.171849 
L 522.370105 332.785555 
L 523.925216 331.020239 
L 525.480326 325.72429 
L 527.035436 322.158351 
L 528.590547 324.806326 
L 530.145657 332.679636 
L 531.700768 339.634982 
L 533.255878 342.671326 
L 534.810989 339.281919 
L 537.92121 326.077353 
L 539.47632 326.253885 
L 541.031431 331.337996 
L 542.586541 341.047235 
L 544.141651 346.837473 
L 545.696762 350.438718 
L 548.806983 345.884202 
L 550.362093 345.213382 
L 551.917204 347.649518 
L 553.472314 348.461564 
L 555.027425 347.543599 
L 556.582535 338.787631 
L 558.137645 327.101237 
L 559.692756 311.319309 
L 561.247866 298.4325 
L 562.802977 290.523883 
L 564.358087 281.979753 
L 565.913198 271.317242 
L 567.468308 256.629811 
L 569.023419 236.893575 
L 570.578529 219.875926 
L 572.13364 211.790777 
L 573.68875 204.906044 
L 575.24386 196.326607 
L 576.798971 179.697327 
L 578.354081 154.382692 
L 579.909192 125.890487 
L 581.464302 104.035871 
L 583.019413 95.456434 
L 584.574523 104.706692 
L 586.129634 117.98187 
L 587.684744 127.373353 
L 590.794965 143.614262 
L 592.350075 155.865557 
L 595.460296 195.020273 
L 597.015407 210.237299 
L 598.570517 217.757546 
L 600.125628 216.062843 
L 601.680738 215.921617 
L 603.235849 221.252873 
L 604.790959 234.563357 
L 606.34607 251.792844 
L 607.90118 259.419011 
L 609.45629 258.112677 
L 612.566511 247.097103 
L 614.121622 250.451204 
L 615.676732 264.679653 
L 618.786953 301.89252 
L 620.342064 310.366038 
L 621.897174 313.402382 
L 623.452285 313.61422 
L 625.007395 315.979744 
L 626.562505 323.005703 
L 628.117616 331.373302 
L 629.672726 336.881089 
L 631.227837 336.951702 
L 632.782947 332.962087 
L 634.338058 329.996356 
L 635.893168 330.773095 
L 637.448279 336.987008 
L 639.003389 347.049311 
L 640.558499 355.840586 
L 642.11361 361.242454 
L 643.66872 363.502059 
L 645.223831 365.4086 
L 646.778941 369.53944 
L 648.334052 376.106417 
L 649.889162 383.202988 
L 651.444273 386.945459 
L 652.999383 386.098107 
L 654.554494 382.461555 
L 656.109604 378.260103 
L 657.664714 379.637049 
L 659.219825 388.640162 
L 660.774935 400.467781 
L 662.330046 408.764768 
L 663.885156 410.035796 
L 665.440267 403.115756 
L 666.995377 393.688967 
L 668.550488 386.627702 
L 670.105598 387.298522 
L 671.660709 394.359787 
L 673.215819 399.726349 
L 674.770929 398.278789 
L 676.32604 390.476091 
L 677.88115 378.471941 
L 679.436261 368.339025 
L 680.991371 363.713896 
L 682.546482 363.784509 
L 684.101592 365.373294 
L 685.656703 364.34941 
L 687.211813 360.289183 
L 688.766924 355.522829 
L 690.322034 353.545675 
L 691.877144 355.381604 
L 693.432255 359.053462 
L 694.987365 364.208185 
L 696.542476 366.044114 
L 698.097586 363.360833 
L 699.652697 359.653669 
L 701.207807 357.041001 
L 702.762918 357.252839 
L 704.318028 358.594479 
L 705.873139 357.041001 
L 707.428249 351.886277 
L 708.983359 342.24765 
L 710.53847 329.713905 
L 712.09358 319.157314 
L 713.648691 315.273618 
L 715.203801 315.803213 
L 716.758912 317.321385 
L 718.314022 315.026473 
L 719.869133 306.8001 
L 721.424243 294.513498 
L 722.979354 283.497925 
L 724.534464 279.014021 
L 726.089574 278.83749 
L 727.644685 279.331778 
L 729.199795 278.025444 
L 730.754906 269.163556 
L 732.310016 258.359821 
L 733.865127 250.698348 
L 735.420237 251.122024 
L 738.530458 263.973527 
L 740.085568 267.39824 
L 741.640679 267.11579 
L 743.195789 263.832301 
L 744.7509 265.880068 
L 746.30601 273.188478 
L 747.861121 285.792836 
L 749.416231 293.419002 
L 750.971342 292.818795 
L 752.526452 285.086709 
L 754.081563 271.24663 
L 755.636673 259.80738 
L 757.191783 255.500008 
L 758.746894 261.713922 
L 760.302004 267.468853 
L 761.857115 267.821916 
L 763.412225 261.608003 
L 766.522446 238.552972 
L 768.077557 235.551934 
L 769.632667 235.481322 
L 771.187778 238.411747 
L 772.742888 235.092952 
L 774.297998 227.466786 
L 775.853109 220.687971 
L 777.408219 221.605936 
L 778.96333 234.528051 
L 782.073551 264.008833 
L 783.628661 268.810493 
L 785.183772 269.79907 
L 786.738882 273.117865 
L 788.293993 271.070098 
L 789.849103 269.446007 
L 791.404213 269.198863 
L 792.959324 264.150058 
L 794.514434 260.336975 
L 796.069545 257.547775 
L 797.624655 259.489623 
L 799.179766 269.12825 
L 808.510428 321.840594 
L 810.065539 336.033737 
L 813.17576 359.93612 
L 814.73087 365.12615 
L 817.841091 366.644322 
L 819.396202 370.881081 
L 820.951312 378.648472 
L 822.506423 392.947534 
L 824.061533 404.775153 
L 825.616643 412.930914 
L 827.171754 414.908069 
L 830.281975 409.22375 
L 831.837085 408.976606 
L 833.392196 412.577851 
L 836.502417 426.064868 
L 838.057527 430.584077 
L 839.612637 432.490619 
L 841.167748 434.891449 
L 842.722858 439.481271 
L 845.833079 454.48646 
L 847.38819 460.312003 
L 848.9433 463.630798 
L 852.053521 467.726332 
L 853.608632 471.292271 
L 856.718852 479.624564 
L 858.273963 482.237232 
L 859.829073 483.755404 
L 861.384184 485.061738 
L 862.939294 486.57991 
L 864.494405 488.910127 
L 866.049515 491.628714 
L 867.604626 493.958932 
L 869.159736 495.441797 
L 870.714847 496.042005 
L 872.269957 496.253843 
L 875.380178 497.595483 
L 876.935288 498.725286 
L 878.490399 499.3608 
L 880.045509 499.078349 
L 881.60062 497.524871 
L 883.15573 494.559139 
L 884.710841 490.604831 
L 886.265951 485.697252 
L 887.821062 478.706599 
L 889.376172 467.161431 
L 890.931282 447.56642 
L 892.486393 417.979719 
L 894.041503 373.776199 
L 897.151724 275.765839 
L 898.706835 240.247676 
L 900.261945 215.780392 
L 901.817056 200.280915 
L 904.927277 172.106467 
L 906.482387 156.501071 
L 908.037497 148.663067 
L 909.592608 156.359846 
L 911.147718 179.979778 
L 914.257939 242.754425 
L 915.81305 270.787647 
L 917.36816 293.772065 
L 918.923271 314.143815 
L 920.478381 332.008816 
L 922.033492 351.250764 
L 923.588602 365.337987 
L 925.143712 376.671318 
L 928.253933 391.958957 
L 929.809044 401.809422 
L 931.364154 414.025411 
L 932.919265 423.840569 
L 934.474375 429.736725 
L 936.029486 429.101212 
L 937.584596 426.064868 
L 939.139706 423.522812 
L 940.694817 424.652615 
L 942.249927 429.030599 
L 943.805038 435.103287 
L 945.360148 439.410659 
L 946.915259 439.904947 
L 948.470369 438.316163 
L 950.02548 436.374315 
L 951.58059 435.209206 
L 953.135701 435.562269 
L 956.245921 435.385738 
L 957.801032 434.962062 
L 959.356142 433.796953 
L 960.911253 433.337971 
L 964.021474 433.902872 
L 965.576584 433.514502 
L 967.131695 431.890411 
L 968.686805 429.242437 
L 970.241916 427.688959 
L 971.797026 427.406508 
L 973.352136 428.854067 
L 974.907247 431.643267 
L 976.462357 433.867566 
L 978.017468 433.938178 
L 979.572578 432.773069 
L 981.127689 429.807338 
L 982.682799 427.936103 
L 984.23791 428.218553 
L 985.79302 429.877951 
L 987.348131 431.784492 
L 988.903241 433.090826 
L 990.458351 432.314087 
L 992.013462 432.172862 
L 993.568572 432.596538 
L 995.123683 435.244512 
L 996.678793 439.622497 
L 998.233904 443.470886 
L 999.789014 445.518653 
L 1001.344125 446.330698 
L 1002.899235 445.695185 
L 1004.454346 446.189473 
L 1006.009456 448.62561 
L 1009.119677 456.710758 
L 1010.674787 458.935057 
L 1012.229898 459.67649 
L 1013.785008 459.464652 
L 1015.340119 459.111588 
L 1016.895229 459.888328 
L 1018.45034 461.371193 
L 1020.00545 462.571608 
L 1021.56056 462.677527 
L 1023.115671 461.759563 
L 1024.670781 460.665067 
L 1026.225892 460.100165 
L 1027.781002 459.923634 
L 1029.336113 460.029553 
L 1030.891223 459.499958 
L 1032.446334 456.075244 
L 1034.001444 450.285007 
L 1037.111665 436.12717 
L 1038.666775 431.466735 
L 1040.221886 428.53631 
L 1041.776996 424.582002 
L 1043.332107 419.886261 
L 1044.887217 412.471932 
L 1046.442328 403.75127 
L 1047.997438 396.725311 
L 1049.552549 392.347327 
L 1051.107659 390.546704 
L 1052.66277 388.534243 
L 1054.21788 382.602781 
L 1055.77299 371.65782 
L 1057.328101 357.605902 
L 1058.883211 341.470911 
L 1060.438322 328.619409 
L 1061.993432 320.322422 
L 1063.548543 312.978707 
L 1065.103653 304.469882 
L 1066.658764 293.877984 
L 1069.768985 265.421086 
L 1071.324095 253.063872 
L 1072.879205 245.68485 
L 1074.434316 239.929919 
L 1075.989426 236.046223 
L 1079.099647 226.513515 
L 1079.099647 226.513515 
" style="fill:none;stroke:#000000;stroke-linecap:square;stroke-width:1.5;"/>
   </g>
   <g id="patch_3">
    <path d="M 87.95 541.28 
L 87.95 37.72 
" style="fill:none;stroke:#555555;stroke-linecap:square;stroke-linejoin:miter;"/>
   </g>
   <g id="patch_4">
    <path d="M 87.95 541.28 
L 1126.29725 541.28 
" style="fill:none;stroke:#555555;stroke-linecap:square;stroke-linejoin:miter;"/>
   </g>
   <g id="text_31">
    <!-- Positive COVID-19 tests - last updated on 04 November 2021 -->
    <g style="fill:#555555;" transform="translate(331.771437 27.72)scale(0.18 -0.18)">
     <defs>
      <path d="M 1259 4147 
L 1259 2394 
L 2053 2394 
Q 2494 2394 2734 2622 
Q 2975 2850 2975 3272 
Q 2975 3691 2734 3919 
Q 2494 4147 2053 4147 
L 1259 4147 
z
M 628 4666 
L 2053 4666 
Q 2838 4666 3239 4311 
Q 3641 3956 3641 3272 
Q 3641 2581 3239 2228 
Q 2838 1875 2053 1875 
L 1259 1875 
L 1259 0 
L 628 0 
L 628 4666 
z
" id="DejaVuSans-50" transform="scale(0.015625)"/>
      <path d="M 1959 3097 
Q 1497 3097 1228 2736 
Q 959 2375 959 1747 
Q 959 1119 1226 758 
Q 1494 397 1959 397 
Q 2419 397 2687 759 
Q 2956 1122 2956 1747 
Q 2956 2369 2687 2733 
Q 2419 3097 1959 3097 
z
M 1959 3584 
Q 2709 3584 3137 3096 
Q 3566 2609 3566 1747 
Q 3566 888 3137 398 
Q 2709 -91 1959 -91 
Q 1206 -91 779 398 
Q 353 888 353 1747 
Q 353 2609 779 3096 
Q 1206 3584 1959 3584 
z
" id="DejaVuSans-6f" transform="scale(0.015625)"/>
      <path d="M 603 3500 
L 1178 3500 
L 1178 0 
L 603 0 
L 603 3500 
z
M 603 4863 
L 1178 4863 
L 1178 4134 
L 603 4134 
L 603 4863 
z
" id="DejaVuSans-69" transform="scale(0.015625)"/>
      <path d="M 1172 4494 
L 1172 3500 
L 2356 3500 
L 2356 3053 
L 1172 3053 
L 1172 1153 
Q 1172 725 1289 603 
Q 1406 481 1766 481 
L 2356 481 
L 2356 0 
L 1766 0 
Q 1100 0 847 248 
Q 594 497 594 1153 
L 594 3053 
L 172 3053 
L 172 3500 
L 594 3500 
L 594 4494 
L 1172 4494 
z
" id="DejaVuSans-74" transform="scale(0.015625)"/>
      <path d="M 191 3500 
L 800 3500 
L 1894 563 
L 2988 3500 
L 3597 3500 
L 2284 0 
L 1503 0 
L 191 3500 
z
" id="DejaVuSans-76" transform="scale(0.015625)"/>
      <path d="M 2522 4238 
Q 1834 4238 1429 3725 
Q 1025 3213 1025 2328 
Q 1025 1447 1429 934 
Q 1834 422 2522 422 
Q 3209 422 3611 934 
Q 4013 1447 4013 2328 
Q 4013 3213 3611 3725 
Q 3209 4238 2522 4238 
z
M 2522 4750 
Q 3503 4750 4090 4092 
Q 4678 3434 4678 2328 
Q 4678 1225 4090 567 
Q 3503 -91 2522 -91 
Q 1538 -91 948 565 
Q 359 1222 359 2328 
Q 359 3434 948 4092 
Q 1538 4750 2522 4750 
z
" id="DejaVuSans-4f" transform="scale(0.015625)"/>
      <path d="M 1831 0 
L 50 4666 
L 709 4666 
L 2188 738 
L 3669 4666 
L 4325 4666 
L 2547 0 
L 1831 0 
z
" id="DejaVuSans-56" transform="scale(0.015625)"/>
      <path d="M 628 4666 
L 1259 4666 
L 1259 0 
L 628 0 
L 628 4666 
z
" id="DejaVuSans-49" transform="scale(0.015625)"/>
      <path d="M 1259 4147 
L 1259 519 
L 2022 519 
Q 2988 519 3436 956 
Q 3884 1394 3884 2338 
Q 3884 3275 3436 3711 
Q 2988 4147 2022 4147 
L 1259 4147 
z
M 628 4666 
L 1925 4666 
Q 3281 4666 3915 4102 
Q 4550 3538 4550 2338 
Q 4550 1131 3912 565 
Q 3275 0 1925 0 
L 628 0 
L 628 4666 
z
" id="DejaVuSans-44" transform="scale(0.015625)"/>
      <path d="M 313 2009 
L 1997 2009 
L 1997 1497 
L 313 1497 
L 313 2009 
z
" id="DejaVuSans-2d" transform="scale(0.015625)"/>
      <path d="M 794 531 
L 1825 531 
L 1825 4091 
L 703 3866 
L 703 4441 
L 1819 4666 
L 2450 4666 
L 2450 531 
L 3481 531 
L 3481 0 
L 794 0 
L 794 531 
z
" id="DejaVuSans-31" transform="scale(0.015625)"/>
      <path d="M 703 97 
L 703 672 
Q 941 559 1184 500 
Q 1428 441 1663 441 
Q 2288 441 2617 861 
Q 2947 1281 2994 2138 
Q 2813 1869 2534 1725 
Q 2256 1581 1919 1581 
Q 1219 1581 811 2004 
Q 403 2428 403 3163 
Q 403 3881 828 4315 
Q 1253 4750 1959 4750 
Q 2769 4750 3195 4129 
Q 3622 3509 3622 2328 
Q 3622 1225 3098 567 
Q 2575 -91 1691 -91 
Q 1453 -91 1209 -44 
Q 966 3 703 97 
z
M 1959 2075 
Q 2384 2075 2632 2365 
Q 2881 2656 2881 3163 
Q 2881 3666 2632 3958 
Q 2384 4250 1959 4250 
Q 1534 4250 1286 3958 
Q 1038 3666 1038 3163 
Q 1038 2656 1286 2365 
Q 1534 2075 1959 2075 
z
" id="DejaVuSans-39" transform="scale(0.015625)"/>
      <path d="M 603 4863 
L 1178 4863 
L 1178 0 
L 603 0 
L 603 4863 
z
" id="DejaVuSans-6c" transform="scale(0.015625)"/>
      <path d="M 544 1381 
L 544 3500 
L 1119 3500 
L 1119 1403 
Q 1119 906 1312 657 
Q 1506 409 1894 409 
Q 2359 409 2629 706 
Q 2900 1003 2900 1516 
L 2900 3500 
L 3475 3500 
L 3475 0 
L 2900 0 
L 2900 538 
Q 2691 219 2414 64 
Q 2138 -91 1772 -91 
Q 1169 -91 856 284 
Q 544 659 544 1381 
z
M 1991 3584 
L 1991 3584 
z
" id="DejaVuSans-75" transform="scale(0.015625)"/>
      <path d="M 1159 525 
L 1159 -1331 
L 581 -1331 
L 581 3500 
L 1159 3500 
L 1159 2969 
Q 1341 3281 1617 3432 
Q 1894 3584 2278 3584 
Q 2916 3584 3314 3078 
Q 3713 2572 3713 1747 
Q 3713 922 3314 415 
Q 2916 -91 2278 -91 
Q 1894 -91 1617 61 
Q 1341 213 1159 525 
z
M 3116 1747 
Q 3116 2381 2855 2742 
Q 2594 3103 2138 3103 
Q 1681 3103 1420 2742 
Q 1159 2381 1159 1747 
Q 1159 1113 1420 752 
Q 1681 391 2138 391 
Q 2594 391 2855 752 
Q 3116 1113 3116 1747 
z
" id="DejaVuSans-70" transform="scale(0.015625)"/>
      <path d="M 2906 2969 
L 2906 4863 
L 3481 4863 
L 3481 0 
L 2906 0 
L 2906 525 
Q 2725 213 2448 61 
Q 2172 -91 1784 -91 
Q 1150 -91 751 415 
Q 353 922 353 1747 
Q 353 2572 751 3078 
Q 1150 3584 1784 3584 
Q 2172 3584 2448 3432 
Q 2725 3281 2906 2969 
z
M 947 1747 
Q 947 1113 1208 752 
Q 1469 391 1925 391 
Q 2381 391 2643 752 
Q 2906 1113 2906 1747 
Q 2906 2381 2643 2742 
Q 2381 3103 1925 3103 
Q 1469 3103 1208 2742 
Q 947 2381 947 1747 
z
" id="DejaVuSans-64" transform="scale(0.015625)"/>
      <path d="M 3513 2113 
L 3513 0 
L 2938 0 
L 2938 2094 
Q 2938 2591 2744 2837 
Q 2550 3084 2163 3084 
Q 1697 3084 1428 2787 
Q 1159 2491 1159 1978 
L 1159 0 
L 581 0 
L 581 3500 
L 1159 3500 
L 1159 2956 
Q 1366 3272 1645 3428 
Q 1925 3584 2291 3584 
Q 2894 3584 3203 3211 
Q 3513 2838 3513 2113 
z
" id="DejaVuSans-6e" transform="scale(0.015625)"/>
      <path d="M 2034 4250 
Q 1547 4250 1301 3770 
Q 1056 3291 1056 2328 
Q 1056 1369 1301 889 
Q 1547 409 2034 409 
Q 2525 409 2770 889 
Q 3016 1369 3016 2328 
Q 3016 3291 2770 3770 
Q 2525 4250 2034 4250 
z
M 2034 4750 
Q 2819 4750 3233 4129 
Q 3647 3509 3647 2328 
Q 3647 1150 3233 529 
Q 2819 -91 2034 -91 
Q 1250 -91 836 529 
Q 422 1150 422 2328 
Q 422 3509 836 4129 
Q 1250 4750 2034 4750 
z
" id="DejaVuSans-30" transform="scale(0.015625)"/>
      <path d="M 2419 4116 
L 825 1625 
L 2419 1625 
L 2419 4116 
z
M 2253 4666 
L 3047 4666 
L 3047 1625 
L 3713 1625 
L 3713 1100 
L 3047 1100 
L 3047 0 
L 2419 0 
L 2419 1100 
L 313 1100 
L 313 1709 
L 2253 4666 
z
" id="DejaVuSans-34" transform="scale(0.015625)"/>
      <path d="M 3328 2828 
Q 3544 3216 3844 3400 
Q 4144 3584 4550 3584 
Q 5097 3584 5394 3201 
Q 5691 2819 5691 2113 
L 5691 0 
L 5113 0 
L 5113 2094 
Q 5113 2597 4934 2840 
Q 4756 3084 4391 3084 
Q 3944 3084 3684 2787 
Q 3425 2491 3425 1978 
L 3425 0 
L 2847 0 
L 2847 2094 
Q 2847 2600 2669 2842 
Q 2491 3084 2119 3084 
Q 1678 3084 1418 2786 
Q 1159 2488 1159 1978 
L 1159 0 
L 581 0 
L 581 3500 
L 1159 3500 
L 1159 2956 
Q 1356 3278 1631 3431 
Q 1906 3584 2284 3584 
Q 2666 3584 2933 3390 
Q 3200 3197 3328 2828 
z
" id="DejaVuSans-6d" transform="scale(0.015625)"/>
      <path d="M 3116 1747 
Q 3116 2381 2855 2742 
Q 2594 3103 2138 3103 
Q 1681 3103 1420 2742 
Q 1159 2381 1159 1747 
Q 1159 1113 1420 752 
Q 1681 391 2138 391 
Q 2594 391 2855 752 
Q 3116 1113 3116 1747 
z
M 1159 2969 
Q 1341 3281 1617 3432 
Q 1894 3584 2278 3584 
Q 2916 3584 3314 3078 
Q 3713 2572 3713 1747 
Q 3713 922 3314 415 
Q 2916 -91 2278 -91 
Q 1894 -91 1617 61 
Q 1341 213 1159 525 
L 1159 0 
L 581 0 
L 581 4863 
L 1159 4863 
L 1159 2969 
z
" id="DejaVuSans-62" transform="scale(0.015625)"/>
      <path d="M 2631 2963 
Q 2534 3019 2420 3045 
Q 2306 3072 2169 3072 
Q 1681 3072 1420 2755 
Q 1159 2438 1159 1844 
L 1159 0 
L 581 0 
L 581 3500 
L 1159 3500 
L 1159 2956 
Q 1341 3275 1631 3429 
Q 1922 3584 2338 3584 
Q 2397 3584 2469 3576 
Q 2541 3569 2628 3553 
L 2631 2963 
z
" id="DejaVuSans-72" transform="scale(0.015625)"/>
      <path d="M 1228 531 
L 3431 531 
L 3431 0 
L 469 0 
L 469 531 
Q 828 903 1448 1529 
Q 2069 2156 2228 2338 
Q 2531 2678 2651 2914 
Q 2772 3150 2772 3378 
Q 2772 3750 2511 3984 
Q 2250 4219 1831 4219 
Q 1534 4219 1204 4116 
Q 875 4013 500 3803 
L 500 4441 
Q 881 4594 1212 4672 
Q 1544 4750 1819 4750 
Q 2544 4750 2975 4387 
Q 3406 4025 3406 3419 
Q 3406 3131 3298 2873 
Q 3191 2616 2906 2266 
Q 2828 2175 2409 1742 
Q 1991 1309 1228 531 
z
" id="DejaVuSans-32" transform="scale(0.015625)"/>
     </defs>
     <use xlink:href="#DejaVuSans-50"/>
     <use x="56.677734" xlink:href="#DejaVuSans-6f"/>
     <use x="117.859375" xlink:href="#DejaVuSans-73"/>
     <use x="169.958984" xlink:href="#DejaVuSans-69"/>
     <use x="197.742188" xlink:href="#DejaVuSans-74"/>
     <use x="236.951172" xlink:href="#DejaVuSans-69"/>
     <use x="264.734375" xlink:href="#DejaVuSans-76"/>
     <use x="323.914062" xlink:href="#DejaVuSans-65"/>
     <use x="385.4375" xlink:href="#DejaVuSans-20"/>
     <use x="417.224609" xlink:href="#DejaVuSans-43"/>
     <use x="487.048828" xlink:href="#DejaVuSans-4f"/>
     <use x="564.009766" xlink:href="#DejaVuSans-56"/>
     <use x="632.417969" xlink:href="#DejaVuSans-49"/>
     <use x="661.910156" xlink:href="#DejaVuSans-44"/>
     <use x="738.912109" xlink:href="#DejaVuSans-2d"/>
     <use x="774.996094" xlink:href="#DejaVuSans-31"/>
     <use x="838.619141" xlink:href="#DejaVuSans-39"/>
     <use x="902.242188" xlink:href="#DejaVuSans-20"/>
     <use x="934.029297" xlink:href="#DejaVuSans-74"/>
     <use x="973.238281" xlink:href="#DejaVuSans-65"/>
     <use x="1034.761719" xlink:href="#DejaVuSans-73"/>
     <use x="1086.861328" xlink:href="#DejaVuSans-74"/>
     <use x="1126.070312" xlink:href="#DejaVuSans-73"/>
     <use x="1178.169922" xlink:href="#DejaVuSans-20"/>
     <use x="1209.957031" xlink:href="#DejaVuSans-2d"/>
     <use x="1246.041016" xlink:href="#DejaVuSans-20"/>
     <use x="1277.828125" xlink:href="#DejaVuSans-6c"/>
     <use x="1305.611328" xlink:href="#DejaVuSans-61"/>
     <use x="1366.890625" xlink:href="#DejaVuSans-73"/>
     <use x="1418.990234" xlink:href="#DejaVuSans-74"/>
     <use x="1458.199219" xlink:href="#DejaVuSans-20"/>
     <use x="1489.986328" xlink:href="#DejaVuSans-75"/>
     <use x="1553.365234" xlink:href="#DejaVuSans-70"/>
     <use x="1616.841797" xlink:href="#DejaVuSans-64"/>
     <use x="1680.318359" xlink:href="#DejaVuSans-61"/>
     <use x="1741.597656" xlink:href="#DejaVuSans-74"/>
     <use x="1780.806641" xlink:href="#DejaVuSans-65"/>
     <use x="1842.330078" xlink:href="#DejaVuSans-64"/>
     <use x="1905.806641" xlink:href="#DejaVuSans-20"/>
     <use x="1937.59375" xlink:href="#DejaVuSans-6f"/>
     <use x="1998.775391" xlink:href="#DejaVuSans-6e"/>
     <use x="2062.154297" xlink:href="#DejaVuSans-20"/>
     <use x="2093.941406" xlink:href="#DejaVuSans-30"/>
     <use x="2157.564453" xlink:href="#DejaVuSans-34"/>
     <use x="2221.1875" xlink:href="#DejaVuSans-20"/>
     <use x="2252.974609" xlink:href="#DejaVuSans-4e"/>
     <use x="2327.779297" xlink:href="#DejaVuSans-6f"/>
     <use x="2388.960938" xlink:href="#DejaVuSans-76"/>
     <use x="2448.140625" xlink:href="#DejaVuSans-65"/>
     <use x="2509.664062" xlink:href="#DejaVuSans-6d"/>
     <use x="2607.076172" xlink:href="#DejaVuSans-62"/>
     <use x="2670.552734" xlink:href="#DejaVuSans-65"/>
     <use x="2732.076172" xlink:href="#DejaVuSans-72"/>
     <use x="2773.189453" xlink:href="#DejaVuSans-20"/>
     <use x="2804.976562" xlink:href="#DejaVuSans-32"/>
     <use x="2868.599609" xlink:href="#DejaVuSans-30"/>
     <use x="2932.222656" xlink:href="#DejaVuSans-32"/>
     <use x="2995.845703" xlink:href="#DejaVuSans-31"/>
    </g>
   </g>
   <g id="legend_1">
    <g id="line2d_32">
     <path d="M 1003.835218 54.747969 
L 1029.835218 54.747969 
" style="fill:none;stroke:#000000;stroke-dasharray:1.5,2.475;stroke-dashoffset:0;stroke-opacity:0.5;stroke-width:1.5;"/>
    </g>
    <g id="line2d_33"/>
    <g id="text_32">
     <!-- Actual -->
     <g style="fill:#555555;" transform="translate(1040.235218 59.297969)scale(0.13 -0.13)">
      <use xlink:href="#DejaVuSans-Bold-41"/>
      <use x="77.392578" xlink:href="#DejaVuSans-Bold-63"/>
      <use x="136.669922" xlink:href="#DejaVuSans-Bold-74"/>
      <use x="184.472656" xlink:href="#DejaVuSans-Bold-75"/>
      <use x="255.664062" xlink:href="#DejaVuSans-Bold-61"/>
      <use x="323.144531" xlink:href="#DejaVuSans-Bold-6c"/>
     </g>
    </g>
    <g id="line2d_34">
     <path d="M 1003.835218 73.829531 
L 1029.835218 73.829531 
" style="fill:none;stroke:#000000;stroke-linecap:square;stroke-width:1.5;"/>
    </g>
    <g id="line2d_35"/>
    <g id="text_33">
     <!-- Smoothed -->
     <g style="fill:#555555;" transform="translate(1040.235218 78.379531)scale(0.13 -0.13)">
      <defs>
       <path d="M 3781 2919 
Q 3994 3244 4286 3414 
Q 4578 3584 4928 3584 
Q 5531 3584 5847 3212 
Q 6163 2841 6163 2131 
L 6163 0 
L 5038 0 
L 5038 1825 
Q 5041 1866 5042 1909 
Q 5044 1953 5044 2034 
Q 5044 2406 4934 2573 
Q 4825 2741 4581 2741 
Q 4263 2741 4089 2478 
Q 3916 2216 3909 1719 
L 3909 0 
L 2784 0 
L 2784 1825 
Q 2784 2406 2684 2573 
Q 2584 2741 2328 2741 
Q 2006 2741 1831 2477 
Q 1656 2213 1656 1722 
L 1656 0 
L 531 0 
L 531 3500 
L 1656 3500 
L 1656 2988 
Q 1863 3284 2130 3434 
Q 2397 3584 2719 3584 
Q 3081 3584 3359 3409 
Q 3638 3234 3781 2919 
z
" id="DejaVuSans-Bold-6d" transform="scale(0.015625)"/>
       <path d="M 4056 2131 
L 4056 0 
L 2931 0 
L 2931 347 
L 2931 1625 
Q 2931 2084 2911 2256 
Q 2891 2428 2841 2509 
Q 2775 2619 2662 2680 
Q 2550 2741 2406 2741 
Q 2056 2741 1856 2470 
Q 1656 2200 1656 1722 
L 1656 0 
L 538 0 
L 538 4863 
L 1656 4863 
L 1656 2988 
Q 1909 3294 2193 3439 
Q 2478 3584 2822 3584 
Q 3428 3584 3742 3212 
Q 4056 2841 4056 2131 
z
" id="DejaVuSans-Bold-68" transform="scale(0.015625)"/>
       <path d="M 2919 2988 
L 2919 4863 
L 4044 4863 
L 4044 0 
L 2919 0 
L 2919 506 
Q 2688 197 2409 53 
Q 2131 -91 1766 -91 
Q 1119 -91 703 423 
Q 288 938 288 1747 
Q 288 2556 703 3070 
Q 1119 3584 1766 3584 
Q 2128 3584 2408 3439 
Q 2688 3294 2919 2988 
z
M 2181 722 
Q 2541 722 2730 984 
Q 2919 1247 2919 1747 
Q 2919 2247 2730 2509 
Q 2541 2772 2181 2772 
Q 1825 2772 1636 2509 
Q 1447 2247 1447 1747 
Q 1447 1247 1636 984 
Q 1825 722 2181 722 
z
" id="DejaVuSans-Bold-64" transform="scale(0.015625)"/>
      </defs>
      <use xlink:href="#DejaVuSans-Bold-53"/>
      <use x="72.021484" xlink:href="#DejaVuSans-Bold-6d"/>
      <use x="176.220703" xlink:href="#DejaVuSans-Bold-6f"/>
      <use x="244.921875" xlink:href="#DejaVuSans-Bold-6f"/>
      <use x="313.623047" xlink:href="#DejaVuSans-Bold-74"/>
      <use x="361.425781" xlink:href="#DejaVuSans-Bold-68"/>
      <use x="432.617188" xlink:href="#DejaVuSans-Bold-65"/>
      <use x="500.439453" xlink:href="#DejaVuSans-Bold-64"/>
     </g>
    </g>
   </g>
  </g>
 </g>
 <defs>
  <clipPath id="p0f7fafc4a1">
   <rect height="503.56" width="1038.34725" x="87.95" y="37.72"/>
  </clipPath>
 </defs>
</svg>
