<?xml version="1.0" encoding="utf-8" standalone="no"?>
<!DOCTYPE svg PUBLIC "-//W3C//DTD SVG 1.1//EN"
  "http://www.w3.org/Graphics/SVG/1.1/DTD/svg11.dtd">
<svg xmlns:xlink="http://www.w3.org/1999/xlink" width="1152pt" height="576pt" viewBox="0 0 1152 576" xmlns="http://www.w3.org/2000/svg" version="1.1">
 <metadata>
  <rdf:RDF xmlns:dc="http://purl.org/dc/elements/1.1/" xmlns:cc="http://creativecommons.org/ns#" xmlns:rdf="http://www.w3.org/1999/02/22-rdf-syntax-ns#">
   <cc:Work>
    <dc:type rdf:resource="http://purl.org/dc/dcmitype/StillImage"/>
    <dc:date>2021-12-30T15:27:12.092484</dc:date>
    <dc:format>image/svg+xml</dc:format>
    <dc:creator>
     <cc:Agent>
      <dc:title>Matplotlib v3.5.1, https://matplotlib.org/</dc:title>
     </cc:Agent>
    </dc:creator>
   </cc:Work>
  </rdf:RDF>
 </metadata>
 <defs>
  <style type="text/css">*{stroke-linejoin: round; stroke-linecap: butt}</style>
 </defs>
 <g id="figure_1">
  <g id="patch_1">
   <path d="M 0 576 
L 1152 576 
L 1152 0 
L 0 0 
z
" style="fill: #ffffff"/>
  </g>
  <g id="axes_1">
   <g id="patch_2">
    <path d="M 87.95 541.28 
L 1123.894469 541.28 
L 1123.894469 37.72 
L 87.95 37.72 
z
" style="fill: #ffffff"/>
   </g>
   <g id="matplotlib.axis_1">
    <g id="xtick_1">
     <g id="line2d_1">
      <defs>
       <path id="m6259659e4f" d="M 0 0 
L 0 3.5 
" style="stroke: #555555; stroke-width: 0.8"/>
      </defs>
      <g>
       <use xlink:href="#m6259659e4f" x="127.946761" y="541.28" style="fill: #555555; stroke: #555555; stroke-width: 0.8"/>
      </g>
     </g>
     <g id="text_1">
      <!-- Mar -->
      <g style="fill: #555555" transform="translate(112.804886 558.917812)scale(0.14 -0.14)">
       <defs>
        <path id="DejaVuSans-Bold-4d" d="M 588 4666 
L 2119 4666 
L 3181 2169 
L 4250 4666 
L 5778 4666 
L 5778 0 
L 4641 0 
L 4641 3413 
L 3566 897 
L 2803 897 
L 1728 3413 
L 1728 0 
L 588 0 
L 588 4666 
z
" transform="scale(0.015625)"/>
        <path id="DejaVuSans-Bold-61" d="M 2106 1575 
Q 1756 1575 1579 1456 
Q 1403 1338 1403 1106 
Q 1403 894 1545 773 
Q 1688 653 1941 653 
Q 2256 653 2472 879 
Q 2688 1106 2688 1447 
L 2688 1575 
L 2106 1575 
z
M 3816 1997 
L 3816 0 
L 2688 0 
L 2688 519 
Q 2463 200 2181 54 
Q 1900 -91 1497 -91 
Q 953 -91 614 226 
Q 275 544 275 1050 
Q 275 1666 698 1953 
Q 1122 2241 2028 2241 
L 2688 2241 
L 2688 2328 
Q 2688 2594 2478 2717 
Q 2269 2841 1825 2841 
Q 1466 2841 1156 2769 
Q 847 2697 581 2553 
L 581 3406 
Q 941 3494 1303 3539 
Q 1666 3584 2028 3584 
Q 2975 3584 3395 3211 
Q 3816 2838 3816 1997 
z
" transform="scale(0.015625)"/>
        <path id="DejaVuSans-Bold-72" d="M 3138 2547 
Q 2991 2616 2845 2648 
Q 2700 2681 2553 2681 
Q 2122 2681 1889 2404 
Q 1656 2128 1656 1613 
L 1656 0 
L 538 0 
L 538 3500 
L 1656 3500 
L 1656 2925 
Q 1872 3269 2151 3426 
Q 2431 3584 2822 3584 
Q 2878 3584 2943 3579 
Q 3009 3575 3134 3559 
L 3138 2547 
z
" transform="scale(0.015625)"/>
       </defs>
       <use xlink:href="#DejaVuSans-Bold-4d"/>
       <use xlink:href="#DejaVuSans-Bold-61" x="99.511719"/>
       <use xlink:href="#DejaVuSans-Bold-72" x="166.992188"/>
      </g>
     </g>
    </g>
    <g id="xtick_2">
     <g id="line2d_2">
      <g>
       <use xlink:href="#m6259659e4f" x="171.914831" y="541.28" style="fill: #555555; stroke: #555555; stroke-width: 0.8"/>
      </g>
     </g>
     <g id="text_2">
      <!-- Apr -->
      <g style="fill: #555555" transform="translate(158.035143 558.917812)scale(0.14 -0.14)">
       <defs>
        <path id="DejaVuSans-Bold-41" d="M 3419 850 
L 1538 850 
L 1241 0 
L 31 0 
L 1759 4666 
L 3194 4666 
L 4922 0 
L 3713 0 
L 3419 850 
z
M 1838 1716 
L 3116 1716 
L 2478 3572 
L 1838 1716 
z
" transform="scale(0.015625)"/>
        <path id="DejaVuSans-Bold-70" d="M 1656 506 
L 1656 -1331 
L 538 -1331 
L 538 3500 
L 1656 3500 
L 1656 2988 
Q 1888 3294 2169 3439 
Q 2450 3584 2816 3584 
Q 3463 3584 3878 3070 
Q 4294 2556 4294 1747 
Q 4294 938 3878 423 
Q 3463 -91 2816 -91 
Q 2450 -91 2169 54 
Q 1888 200 1656 506 
z
M 2400 2772 
Q 2041 2772 1848 2508 
Q 1656 2244 1656 1747 
Q 1656 1250 1848 986 
Q 2041 722 2400 722 
Q 2759 722 2948 984 
Q 3138 1247 3138 1747 
Q 3138 2247 2948 2509 
Q 2759 2772 2400 2772 
z
" transform="scale(0.015625)"/>
       </defs>
       <use xlink:href="#DejaVuSans-Bold-41"/>
       <use xlink:href="#DejaVuSans-Bold-70" x="77.392578"/>
       <use xlink:href="#DejaVuSans-Bold-72" x="148.974609"/>
      </g>
     </g>
    </g>
    <g id="xtick_3">
     <g id="line2d_3">
      <g>
       <use xlink:href="#m6259659e4f" x="214.464576" y="541.28" style="fill: #555555; stroke: #555555; stroke-width: 0.8"/>
      </g>
     </g>
     <g id="text_3">
      <!-- May -->
      <g style="fill: #555555" transform="translate(198.430201 558.808437)scale(0.14 -0.14)">
       <defs>
        <path id="DejaVuSans-Bold-79" d="M 78 3500 
L 1197 3500 
L 2138 1125 
L 2938 3500 
L 4056 3500 
L 2584 -331 
Q 2363 -916 2067 -1148 
Q 1772 -1381 1288 -1381 
L 641 -1381 
L 641 -647 
L 991 -647 
Q 1275 -647 1404 -556 
Q 1534 -466 1606 -231 
L 1638 -134 
L 78 3500 
z
" transform="scale(0.015625)"/>
       </defs>
       <use xlink:href="#DejaVuSans-Bold-4d"/>
       <use xlink:href="#DejaVuSans-Bold-61" x="99.511719"/>
       <use xlink:href="#DejaVuSans-Bold-79" x="163.867188"/>
      </g>
     </g>
    </g>
    <g id="xtick_4">
     <g id="line2d_4">
      <g>
       <use xlink:href="#m6259659e4f" x="258.432647" y="541.28" style="fill: #555555; stroke: #555555; stroke-width: 0.8"/>
      </g>
     </g>
     <g id="text_4">
      <!-- Jun -->
      <g style="fill: #555555" transform="translate(245.862178 558.917812)scale(0.14 -0.14)">
       <defs>
        <path id="DejaVuSans-Bold-4a" d="M 588 4666 
L 1791 4666 
L 1791 453 
Q 1791 -419 1317 -850 
Q 844 -1281 -116 -1281 
L -359 -1281 
L -359 -372 
L -172 -372 
Q 203 -372 395 -162 
Q 588 47 588 453 
L 588 4666 
z
" transform="scale(0.015625)"/>
        <path id="DejaVuSans-Bold-75" d="M 500 1363 
L 500 3500 
L 1625 3500 
L 1625 3150 
Q 1625 2866 1622 2436 
Q 1619 2006 1619 1863 
Q 1619 1441 1641 1255 
Q 1663 1069 1716 984 
Q 1784 875 1895 815 
Q 2006 756 2150 756 
Q 2500 756 2700 1025 
Q 2900 1294 2900 1772 
L 2900 3500 
L 4019 3500 
L 4019 0 
L 2900 0 
L 2900 506 
Q 2647 200 2364 54 
Q 2081 -91 1741 -91 
Q 1134 -91 817 281 
Q 500 653 500 1363 
z
" transform="scale(0.015625)"/>
        <path id="DejaVuSans-Bold-6e" d="M 4056 2131 
L 4056 0 
L 2931 0 
L 2931 347 
L 2931 1631 
Q 2931 2084 2911 2256 
Q 2891 2428 2841 2509 
Q 2775 2619 2662 2680 
Q 2550 2741 2406 2741 
Q 2056 2741 1856 2470 
Q 1656 2200 1656 1722 
L 1656 0 
L 538 0 
L 538 3500 
L 1656 3500 
L 1656 2988 
Q 1909 3294 2193 3439 
Q 2478 3584 2822 3584 
Q 3428 3584 3742 3212 
Q 4056 2841 4056 2131 
z
" transform="scale(0.015625)"/>
       </defs>
       <use xlink:href="#DejaVuSans-Bold-4a"/>
       <use xlink:href="#DejaVuSans-Bold-75" x="37.207031"/>
       <use xlink:href="#DejaVuSans-Bold-6e" x="108.398438"/>
      </g>
     </g>
    </g>
    <g id="xtick_5">
     <g id="line2d_5">
      <g>
       <use xlink:href="#m6259659e4f" x="300.982392" y="541.28" style="fill: #555555; stroke: #555555; stroke-width: 0.8"/>
      </g>
     </g>
     <g id="text_5">
      <!-- Jul -->
      <g style="fill: #555555" transform="translate(290.995361 558.917812)scale(0.14 -0.14)">
       <defs>
        <path id="DejaVuSans-Bold-6c" d="M 538 4863 
L 1656 4863 
L 1656 0 
L 538 0 
L 538 4863 
z
" transform="scale(0.015625)"/>
       </defs>
       <use xlink:href="#DejaVuSans-Bold-4a"/>
       <use xlink:href="#DejaVuSans-Bold-75" x="37.207031"/>
       <use xlink:href="#DejaVuSans-Bold-6c" x="108.398438"/>
      </g>
     </g>
    </g>
    <g id="xtick_6">
     <g id="line2d_6">
      <g>
       <use xlink:href="#m6259659e4f" x="344.950462" y="541.28" style="fill: #555555; stroke: #555555; stroke-width: 0.8"/>
      </g>
     </g>
     <g id="text_6">
      <!-- Aug -->
      <g style="fill: #555555" transform="translate(329.539525 558.808437)scale(0.14 -0.14)">
       <defs>
        <path id="DejaVuSans-Bold-67" d="M 2919 594 
Q 2688 288 2409 144 
Q 2131 0 1766 0 
Q 1125 0 706 504 
Q 288 1009 288 1791 
Q 288 2575 706 3076 
Q 1125 3578 1766 3578 
Q 2131 3578 2409 3434 
Q 2688 3291 2919 2981 
L 2919 3500 
L 4044 3500 
L 4044 353 
Q 4044 -491 3511 -936 
Q 2978 -1381 1966 -1381 
Q 1638 -1381 1331 -1331 
Q 1025 -1281 716 -1178 
L 716 -306 
Q 1009 -475 1290 -558 
Q 1572 -641 1856 -641 
Q 2406 -641 2662 -400 
Q 2919 -159 2919 353 
L 2919 594 
z
M 2181 2772 
Q 1834 2772 1640 2515 
Q 1447 2259 1447 1791 
Q 1447 1309 1634 1061 
Q 1822 813 2181 813 
Q 2531 813 2725 1069 
Q 2919 1325 2919 1791 
Q 2919 2259 2725 2515 
Q 2531 2772 2181 2772 
z
" transform="scale(0.015625)"/>
       </defs>
       <use xlink:href="#DejaVuSans-Bold-41"/>
       <use xlink:href="#DejaVuSans-Bold-75" x="77.392578"/>
       <use xlink:href="#DejaVuSans-Bold-67" x="148.583984"/>
      </g>
     </g>
    </g>
    <g id="xtick_7">
     <g id="line2d_7">
      <g>
       <use xlink:href="#m6259659e4f" x="388.918533" y="541.28" style="fill: #555555; stroke: #555555; stroke-width: 0.8"/>
      </g>
     </g>
     <g id="text_7">
      <!-- Sep -->
      <g style="fill: #555555" transform="translate(374.119001 558.917812)scale(0.14 -0.14)">
       <defs>
        <path id="DejaVuSans-Bold-53" d="M 3834 4519 
L 3834 3531 
Q 3450 3703 3084 3790 
Q 2719 3878 2394 3878 
Q 1963 3878 1756 3759 
Q 1550 3641 1550 3391 
Q 1550 3203 1689 3098 
Q 1828 2994 2194 2919 
L 2706 2816 
Q 3484 2659 3812 2340 
Q 4141 2022 4141 1434 
Q 4141 663 3683 286 
Q 3225 -91 2284 -91 
Q 1841 -91 1394 -6 
Q 947 78 500 244 
L 500 1259 
Q 947 1022 1364 901 
Q 1781 781 2169 781 
Q 2563 781 2772 912 
Q 2981 1044 2981 1288 
Q 2981 1506 2839 1625 
Q 2697 1744 2272 1838 
L 1806 1941 
Q 1106 2091 782 2419 
Q 459 2747 459 3303 
Q 459 4000 909 4375 
Q 1359 4750 2203 4750 
Q 2588 4750 2994 4692 
Q 3400 4634 3834 4519 
z
" transform="scale(0.015625)"/>
        <path id="DejaVuSans-Bold-65" d="M 4031 1759 
L 4031 1441 
L 1416 1441 
Q 1456 1047 1700 850 
Q 1944 653 2381 653 
Q 2734 653 3104 758 
Q 3475 863 3866 1075 
L 3866 213 
Q 3469 63 3072 -14 
Q 2675 -91 2278 -91 
Q 1328 -91 801 392 
Q 275 875 275 1747 
Q 275 2603 792 3093 
Q 1309 3584 2216 3584 
Q 3041 3584 3536 3087 
Q 4031 2591 4031 1759 
z
M 2881 2131 
Q 2881 2450 2695 2645 
Q 2509 2841 2209 2841 
Q 1884 2841 1681 2658 
Q 1478 2475 1428 2131 
L 2881 2131 
z
" transform="scale(0.015625)"/>
       </defs>
       <use xlink:href="#DejaVuSans-Bold-53"/>
       <use xlink:href="#DejaVuSans-Bold-65" x="72.021484"/>
       <use xlink:href="#DejaVuSans-Bold-70" x="139.84375"/>
      </g>
     </g>
    </g>
    <g id="xtick_8">
     <g id="line2d_8">
      <g>
       <use xlink:href="#m6259659e4f" x="431.468278" y="541.28" style="fill: #555555; stroke: #555555; stroke-width: 0.8"/>
      </g>
     </g>
     <g id="text_8">
      <!-- Oct -->
      <g style="fill: #555555" transform="translate(418.021716 558.917812)scale(0.14 -0.14)">
       <defs>
        <path id="DejaVuSans-Bold-4f" d="M 2719 3878 
Q 2169 3878 1866 3472 
Q 1563 3066 1563 2328 
Q 1563 1594 1866 1187 
Q 2169 781 2719 781 
Q 3272 781 3575 1187 
Q 3878 1594 3878 2328 
Q 3878 3066 3575 3472 
Q 3272 3878 2719 3878 
z
M 2719 4750 
Q 3844 4750 4481 4106 
Q 5119 3463 5119 2328 
Q 5119 1197 4481 553 
Q 3844 -91 2719 -91 
Q 1597 -91 958 553 
Q 319 1197 319 2328 
Q 319 3463 958 4106 
Q 1597 4750 2719 4750 
z
" transform="scale(0.015625)"/>
        <path id="DejaVuSans-Bold-63" d="M 3366 3391 
L 3366 2478 
Q 3138 2634 2908 2709 
Q 2678 2784 2431 2784 
Q 1963 2784 1702 2511 
Q 1441 2238 1441 1747 
Q 1441 1256 1702 982 
Q 1963 709 2431 709 
Q 2694 709 2930 787 
Q 3166 866 3366 1019 
L 3366 103 
Q 3103 6 2833 -42 
Q 2563 -91 2291 -91 
Q 1344 -91 809 395 
Q 275 881 275 1747 
Q 275 2613 809 3098 
Q 1344 3584 2291 3584 
Q 2566 3584 2833 3536 
Q 3100 3488 3366 3391 
z
" transform="scale(0.015625)"/>
        <path id="DejaVuSans-Bold-74" d="M 1759 4494 
L 1759 3500 
L 2913 3500 
L 2913 2700 
L 1759 2700 
L 1759 1216 
Q 1759 972 1856 886 
Q 1953 800 2241 800 
L 2816 800 
L 2816 0 
L 1856 0 
Q 1194 0 917 276 
Q 641 553 641 1216 
L 641 2700 
L 84 2700 
L 84 3500 
L 641 3500 
L 641 4494 
L 1759 4494 
z
" transform="scale(0.015625)"/>
       </defs>
       <use xlink:href="#DejaVuSans-Bold-4f"/>
       <use xlink:href="#DejaVuSans-Bold-63" x="85.009766"/>
       <use xlink:href="#DejaVuSans-Bold-74" x="144.287109"/>
      </g>
     </g>
    </g>
    <g id="xtick_9">
     <g id="line2d_9">
      <g>
       <use xlink:href="#m6259659e4f" x="475.436348" y="541.28" style="fill: #555555; stroke: #555555; stroke-width: 0.8"/>
      </g>
     </g>
     <g id="text_9">
      <!-- Nov -->
      <g style="fill: #555555" transform="translate(460.20588 558.917812)scale(0.14 -0.14)">
       <defs>
        <path id="DejaVuSans-Bold-4e" d="M 588 4666 
L 1931 4666 
L 3628 1466 
L 3628 4666 
L 4769 4666 
L 4769 0 
L 3425 0 
L 1728 3200 
L 1728 0 
L 588 0 
L 588 4666 
z
" transform="scale(0.015625)"/>
        <path id="DejaVuSans-Bold-6f" d="M 2203 2784 
Q 1831 2784 1636 2517 
Q 1441 2250 1441 1747 
Q 1441 1244 1636 976 
Q 1831 709 2203 709 
Q 2569 709 2762 976 
Q 2956 1244 2956 1747 
Q 2956 2250 2762 2517 
Q 2569 2784 2203 2784 
z
M 2203 3584 
Q 3106 3584 3614 3096 
Q 4122 2609 4122 1747 
Q 4122 884 3614 396 
Q 3106 -91 2203 -91 
Q 1297 -91 786 396 
Q 275 884 275 1747 
Q 275 2609 786 3096 
Q 1297 3584 2203 3584 
z
" transform="scale(0.015625)"/>
        <path id="DejaVuSans-Bold-76" d="M 97 3500 
L 1216 3500 
L 2088 1081 
L 2956 3500 
L 4078 3500 
L 2700 0 
L 1472 0 
L 97 3500 
z
" transform="scale(0.015625)"/>
       </defs>
       <use xlink:href="#DejaVuSans-Bold-4e"/>
       <use xlink:href="#DejaVuSans-Bold-6f" x="83.691406"/>
       <use xlink:href="#DejaVuSans-Bold-76" x="152.392578"/>
      </g>
     </g>
    </g>
    <g id="xtick_10">
     <g id="line2d_10">
      <g>
       <use xlink:href="#m6259659e4f" x="517.986094" y="541.28" style="fill: #555555; stroke: #555555; stroke-width: 0.8"/>
      </g>
     </g>
     <g id="text_10">
      <!-- Dec -->
      <g style="fill: #555555" transform="translate(503.277344 558.917812)scale(0.14 -0.14)">
       <defs>
        <path id="DejaVuSans-Bold-44" d="M 1791 3756 
L 1791 909 
L 2222 909 
Q 2959 909 3348 1275 
Q 3738 1641 3738 2338 
Q 3738 3031 3350 3393 
Q 2963 3756 2222 3756 
L 1791 3756 
z
M 588 4666 
L 1856 4666 
Q 2919 4666 3439 4514 
Q 3959 4363 4331 4000 
Q 4659 3684 4818 3271 
Q 4978 2859 4978 2338 
Q 4978 1809 4818 1395 
Q 4659 981 4331 666 
Q 3956 303 3431 151 
Q 2906 0 1856 0 
L 588 0 
L 588 4666 
z
" transform="scale(0.015625)"/>
       </defs>
       <use xlink:href="#DejaVuSans-Bold-44"/>
       <use xlink:href="#DejaVuSans-Bold-65" x="83.007812"/>
       <use xlink:href="#DejaVuSans-Bold-63" x="150.830078"/>
      </g>
     </g>
    </g>
    <g id="xtick_11">
     <g id="line2d_11">
      <g>
       <use xlink:href="#m6259659e4f" x="561.954164" y="541.28" style="fill: #555555; stroke: #555555; stroke-width: 0.8"/>
      </g>
     </g>
     <g id="text_11">
      <!-- Jan -->
      <g style="fill: #555555" transform="translate(549.642914 558.917812)scale(0.14 -0.14)">
       <use xlink:href="#DejaVuSans-Bold-4a"/>
       <use xlink:href="#DejaVuSans-Bold-61" x="37.207031"/>
       <use xlink:href="#DejaVuSans-Bold-6e" x="104.6875"/>
      </g>
     </g>
    </g>
    <g id="xtick_12">
     <g id="line2d_12">
      <g>
       <use xlink:href="#m6259659e4f" x="605.922234" y="541.28" style="fill: #555555; stroke: #555555; stroke-width: 0.8"/>
      </g>
     </g>
     <g id="text_12">
      <!-- Feb -->
      <g style="fill: #555555" transform="translate(591.661922 558.917812)scale(0.14 -0.14)">
       <defs>
        <path id="DejaVuSans-Bold-46" d="M 588 4666 
L 3834 4666 
L 3834 3756 
L 1791 3756 
L 1791 2888 
L 3713 2888 
L 3713 1978 
L 1791 1978 
L 1791 0 
L 588 0 
L 588 4666 
z
" transform="scale(0.015625)"/>
        <path id="DejaVuSans-Bold-62" d="M 2400 722 
Q 2759 722 2948 984 
Q 3138 1247 3138 1747 
Q 3138 2247 2948 2509 
Q 2759 2772 2400 2772 
Q 2041 2772 1848 2508 
Q 1656 2244 1656 1747 
Q 1656 1250 1848 986 
Q 2041 722 2400 722 
z
M 1656 2988 
Q 1888 3294 2169 3439 
Q 2450 3584 2816 3584 
Q 3463 3584 3878 3070 
Q 4294 2556 4294 1747 
Q 4294 938 3878 423 
Q 3463 -91 2816 -91 
Q 2450 -91 2169 54 
Q 1888 200 1656 506 
L 1656 0 
L 538 0 
L 538 4863 
L 1656 4863 
L 1656 2988 
z
" transform="scale(0.015625)"/>
       </defs>
       <use xlink:href="#DejaVuSans-Bold-46"/>
       <use xlink:href="#DejaVuSans-Bold-65" x="64.310547"/>
       <use xlink:href="#DejaVuSans-Bold-62" x="132.132812"/>
      </g>
     </g>
    </g>
    <g id="xtick_13">
     <g id="line2d_13">
      <g>
       <use xlink:href="#m6259659e4f" x="645.63533" y="541.28" style="fill: #555555; stroke: #555555; stroke-width: 0.8"/>
      </g>
     </g>
     <g id="text_13">
      <!-- Mar -->
      <g style="fill: #555555" transform="translate(630.493455 558.917812)scale(0.14 -0.14)">
       <use xlink:href="#DejaVuSans-Bold-4d"/>
       <use xlink:href="#DejaVuSans-Bold-61" x="99.511719"/>
       <use xlink:href="#DejaVuSans-Bold-72" x="166.992188"/>
      </g>
     </g>
    </g>
    <g id="xtick_14">
     <g id="line2d_14">
      <g>
       <use xlink:href="#m6259659e4f" x="689.6034" y="541.28" style="fill: #555555; stroke: #555555; stroke-width: 0.8"/>
      </g>
     </g>
     <g id="text_14">
      <!-- Apr -->
      <g style="fill: #555555" transform="translate(675.723713 558.917812)scale(0.14 -0.14)">
       <use xlink:href="#DejaVuSans-Bold-41"/>
       <use xlink:href="#DejaVuSans-Bold-70" x="77.392578"/>
       <use xlink:href="#DejaVuSans-Bold-72" x="148.974609"/>
      </g>
     </g>
    </g>
    <g id="xtick_15">
     <g id="line2d_15">
      <g>
       <use xlink:href="#m6259659e4f" x="732.153146" y="541.28" style="fill: #555555; stroke: #555555; stroke-width: 0.8"/>
      </g>
     </g>
     <g id="text_15">
      <!-- May -->
      <g style="fill: #555555" transform="translate(716.118771 558.808437)scale(0.14 -0.14)">
       <use xlink:href="#DejaVuSans-Bold-4d"/>
       <use xlink:href="#DejaVuSans-Bold-61" x="99.511719"/>
       <use xlink:href="#DejaVuSans-Bold-79" x="163.867188"/>
      </g>
     </g>
    </g>
    <g id="xtick_16">
     <g id="line2d_16">
      <g>
       <use xlink:href="#m6259659e4f" x="776.121216" y="541.28" style="fill: #555555; stroke: #555555; stroke-width: 0.8"/>
      </g>
     </g>
     <g id="text_16">
      <!-- Jun -->
      <g style="fill: #555555" transform="translate(763.550747 558.917812)scale(0.14 -0.14)">
       <use xlink:href="#DejaVuSans-Bold-4a"/>
       <use xlink:href="#DejaVuSans-Bold-75" x="37.207031"/>
       <use xlink:href="#DejaVuSans-Bold-6e" x="108.398438"/>
      </g>
     </g>
    </g>
    <g id="xtick_17">
     <g id="line2d_17">
      <g>
       <use xlink:href="#m6259659e4f" x="818.670962" y="541.28" style="fill: #555555; stroke: #555555; stroke-width: 0.8"/>
      </g>
     </g>
     <g id="text_17">
      <!-- Jul -->
      <g style="fill: #555555" transform="translate(808.68393 558.917812)scale(0.14 -0.14)">
       <use xlink:href="#DejaVuSans-Bold-4a"/>
       <use xlink:href="#DejaVuSans-Bold-75" x="37.207031"/>
       <use xlink:href="#DejaVuSans-Bold-6c" x="108.398438"/>
      </g>
     </g>
    </g>
    <g id="xtick_18">
     <g id="line2d_18">
      <g>
       <use xlink:href="#m6259659e4f" x="862.639032" y="541.28" style="fill: #555555; stroke: #555555; stroke-width: 0.8"/>
      </g>
     </g>
     <g id="text_18">
      <!-- Aug -->
      <g style="fill: #555555" transform="translate(847.228094 558.808437)scale(0.14 -0.14)">
       <use xlink:href="#DejaVuSans-Bold-41"/>
       <use xlink:href="#DejaVuSans-Bold-75" x="77.392578"/>
       <use xlink:href="#DejaVuSans-Bold-67" x="148.583984"/>
      </g>
     </g>
    </g>
    <g id="xtick_19">
     <g id="line2d_19">
      <g>
       <use xlink:href="#m6259659e4f" x="906.607102" y="541.28" style="fill: #555555; stroke: #555555; stroke-width: 0.8"/>
      </g>
     </g>
     <g id="text_19">
      <!-- Sep -->
      <g style="fill: #555555" transform="translate(891.807571 558.917812)scale(0.14 -0.14)">
       <use xlink:href="#DejaVuSans-Bold-53"/>
       <use xlink:href="#DejaVuSans-Bold-65" x="72.021484"/>
       <use xlink:href="#DejaVuSans-Bold-70" x="139.84375"/>
      </g>
     </g>
    </g>
    <g id="xtick_20">
     <g id="line2d_20">
      <g>
       <use xlink:href="#m6259659e4f" x="949.156848" y="541.28" style="fill: #555555; stroke: #555555; stroke-width: 0.8"/>
      </g>
     </g>
     <g id="text_20">
      <!-- Oct -->
      <g style="fill: #555555" transform="translate(935.710285 558.917812)scale(0.14 -0.14)">
       <use xlink:href="#DejaVuSans-Bold-4f"/>
       <use xlink:href="#DejaVuSans-Bold-63" x="85.009766"/>
       <use xlink:href="#DejaVuSans-Bold-74" x="144.287109"/>
      </g>
     </g>
    </g>
    <g id="xtick_21">
     <g id="line2d_21">
      <g>
       <use xlink:href="#m6259659e4f" x="993.124918" y="541.28" style="fill: #555555; stroke: #555555; stroke-width: 0.8"/>
      </g>
     </g>
     <g id="text_21">
      <!-- Nov -->
      <g style="fill: #555555" transform="translate(977.894449 558.917812)scale(0.14 -0.14)">
       <use xlink:href="#DejaVuSans-Bold-4e"/>
       <use xlink:href="#DejaVuSans-Bold-6f" x="83.691406"/>
       <use xlink:href="#DejaVuSans-Bold-76" x="152.392578"/>
      </g>
     </g>
    </g>
    <g id="xtick_22">
     <g id="line2d_22">
      <g>
       <use xlink:href="#m6259659e4f" x="1035.674663" y="541.28" style="fill: #555555; stroke: #555555; stroke-width: 0.8"/>
      </g>
     </g>
     <g id="text_22">
      <!-- Dec -->
      <g style="fill: #555555" transform="translate(1020.965913 558.917812)scale(0.14 -0.14)">
       <use xlink:href="#DejaVuSans-Bold-44"/>
       <use xlink:href="#DejaVuSans-Bold-65" x="83.007812"/>
       <use xlink:href="#DejaVuSans-Bold-63" x="150.830078"/>
      </g>
     </g>
    </g>
    <g id="xtick_23">
     <g id="line2d_23">
      <g>
       <use xlink:href="#m6259659e4f" x="1079.642734" y="541.28" style="fill: #555555; stroke: #555555; stroke-width: 0.8"/>
      </g>
     </g>
     <g id="text_23">
      <!-- Jan -->
      <g style="fill: #555555" transform="translate(1067.331484 558.917812)scale(0.14 -0.14)">
       <use xlink:href="#DejaVuSans-Bold-4a"/>
       <use xlink:href="#DejaVuSans-Bold-61" x="37.207031"/>
       <use xlink:href="#DejaVuSans-Bold-6e" x="104.6875"/>
      </g>
     </g>
    </g>
    <g id="xtick_24">
     <g id="line2d_24">
      <g>
       <use xlink:href="#m6259659e4f" x="1123.610804" y="541.28" style="fill: #555555; stroke: #555555; stroke-width: 0.8"/>
      </g>
     </g>
     <g id="text_24">
      <!-- Feb -->
      <g style="fill: #555555" transform="translate(1109.350491 558.917812)scale(0.14 -0.14)">
       <use xlink:href="#DejaVuSans-Bold-46"/>
       <use xlink:href="#DejaVuSans-Bold-65" x="64.310547"/>
       <use xlink:href="#DejaVuSans-Bold-62" x="132.132812"/>
      </g>
     </g>
    </g>
   </g>
   <g id="matplotlib.axis_2">
    <g id="ytick_1">
     <g id="line2d_25">
      <defs>
       <path id="m086bcda0ba" d="M 0 0 
L -3.5 0 
" style="stroke: #555555; stroke-width: 0.8"/>
      </defs>
      <g>
       <use xlink:href="#m086bcda0ba" x="87.95" y="518.990328" style="fill: #555555; stroke: #555555; stroke-width: 0.8"/>
      </g>
     </g>
     <g id="text_25">
      <!-- 0 -->
      <g style="fill: #555555" transform="translate(71.209063 524.309234)scale(0.14 -0.14)">
       <defs>
        <path id="DejaVuSans-Bold-30" d="M 2944 2338 
Q 2944 3213 2780 3570 
Q 2616 3928 2228 3928 
Q 1841 3928 1675 3570 
Q 1509 3213 1509 2338 
Q 1509 1453 1675 1090 
Q 1841 728 2228 728 
Q 2613 728 2778 1090 
Q 2944 1453 2944 2338 
z
M 4147 2328 
Q 4147 1169 3647 539 
Q 3147 -91 2228 -91 
Q 1306 -91 806 539 
Q 306 1169 306 2328 
Q 306 3491 806 4120 
Q 1306 4750 2228 4750 
Q 3147 4750 3647 4120 
Q 4147 3491 4147 2328 
z
" transform="scale(0.015625)"/>
       </defs>
       <use xlink:href="#DejaVuSans-Bold-30"/>
      </g>
     </g>
    </g>
    <g id="ytick_2">
     <g id="line2d_26">
      <g>
       <use xlink:href="#m086bcda0ba" x="87.95" y="422.309902" style="fill: #555555; stroke: #555555; stroke-width: 0.8"/>
      </g>
     </g>
     <g id="text_26">
      <!-- 5000 -->
      <g style="fill: #555555" transform="translate(41.98625 427.628808)scale(0.14 -0.14)">
       <defs>
        <path id="DejaVuSans-Bold-35" d="M 678 4666 
L 3669 4666 
L 3669 3781 
L 1638 3781 
L 1638 3059 
Q 1775 3097 1914 3117 
Q 2053 3138 2203 3138 
Q 3056 3138 3531 2711 
Q 4006 2284 4006 1522 
Q 4006 766 3489 337 
Q 2972 -91 2053 -91 
Q 1656 -91 1267 -14 
Q 878 63 494 219 
L 494 1166 
Q 875 947 1217 837 
Q 1559 728 1863 728 
Q 2300 728 2551 942 
Q 2803 1156 2803 1522 
Q 2803 1891 2551 2103 
Q 2300 2316 1863 2316 
Q 1603 2316 1309 2248 
Q 1016 2181 678 2041 
L 678 4666 
z
" transform="scale(0.015625)"/>
       </defs>
       <use xlink:href="#DejaVuSans-Bold-35"/>
       <use xlink:href="#DejaVuSans-Bold-30" x="69.580078"/>
       <use xlink:href="#DejaVuSans-Bold-30" x="139.160156"/>
       <use xlink:href="#DejaVuSans-Bold-30" x="208.740234"/>
      </g>
     </g>
    </g>
    <g id="ytick_3">
     <g id="line2d_27">
      <g>
       <use xlink:href="#m086bcda0ba" x="87.95" y="325.629475" style="fill: #555555; stroke: #555555; stroke-width: 0.8"/>
      </g>
     </g>
     <g id="text_27">
      <!-- 10000 -->
      <g style="fill: #555555" transform="translate(32.245313 330.948382)scale(0.14 -0.14)">
       <defs>
        <path id="DejaVuSans-Bold-31" d="M 750 831 
L 1813 831 
L 1813 3847 
L 722 3622 
L 722 4441 
L 1806 4666 
L 2950 4666 
L 2950 831 
L 4013 831 
L 4013 0 
L 750 0 
L 750 831 
z
" transform="scale(0.015625)"/>
       </defs>
       <use xlink:href="#DejaVuSans-Bold-31"/>
       <use xlink:href="#DejaVuSans-Bold-30" x="69.580078"/>
       <use xlink:href="#DejaVuSans-Bold-30" x="139.160156"/>
       <use xlink:href="#DejaVuSans-Bold-30" x="208.740234"/>
       <use xlink:href="#DejaVuSans-Bold-30" x="278.320312"/>
      </g>
     </g>
    </g>
    <g id="ytick_4">
     <g id="line2d_28">
      <g>
       <use xlink:href="#m086bcda0ba" x="87.95" y="228.949049" style="fill: #555555; stroke: #555555; stroke-width: 0.8"/>
      </g>
     </g>
     <g id="text_28">
      <!-- 15000 -->
      <g style="fill: #555555" transform="translate(32.245313 234.267955)scale(0.14 -0.14)">
       <use xlink:href="#DejaVuSans-Bold-31"/>
       <use xlink:href="#DejaVuSans-Bold-35" x="69.580078"/>
       <use xlink:href="#DejaVuSans-Bold-30" x="139.160156"/>
       <use xlink:href="#DejaVuSans-Bold-30" x="208.740234"/>
       <use xlink:href="#DejaVuSans-Bold-30" x="278.320312"/>
      </g>
     </g>
    </g>
    <g id="ytick_5">
     <g id="line2d_29">
      <g>
       <use xlink:href="#m086bcda0ba" x="87.95" y="132.268623" style="fill: #555555; stroke: #555555; stroke-width: 0.8"/>
      </g>
     </g>
     <g id="text_29">
      <!-- 20000 -->
      <g style="fill: #555555" transform="translate(32.245313 137.587529)scale(0.14 -0.14)">
       <defs>
        <path id="DejaVuSans-Bold-32" d="M 1844 884 
L 3897 884 
L 3897 0 
L 506 0 
L 506 884 
L 2209 2388 
Q 2438 2594 2547 2791 
Q 2656 2988 2656 3200 
Q 2656 3528 2436 3728 
Q 2216 3928 1850 3928 
Q 1569 3928 1234 3808 
Q 900 3688 519 3450 
L 519 4475 
Q 925 4609 1322 4679 
Q 1719 4750 2100 4750 
Q 2938 4750 3402 4381 
Q 3866 4013 3866 3353 
Q 3866 2972 3669 2642 
Q 3472 2313 2841 1759 
L 1844 884 
z
" transform="scale(0.015625)"/>
       </defs>
       <use xlink:href="#DejaVuSans-Bold-32"/>
       <use xlink:href="#DejaVuSans-Bold-30" x="69.580078"/>
       <use xlink:href="#DejaVuSans-Bold-30" x="139.160156"/>
       <use xlink:href="#DejaVuSans-Bold-30" x="208.740234"/>
       <use xlink:href="#DejaVuSans-Bold-30" x="278.320312"/>
      </g>
     </g>
    </g>
    <g id="text_30">
     <!-- New Cases -->
     <g style="fill: #555555" transform="translate(24.917813 333.23875)rotate(-90)scale(0.16 -0.16)">
      <defs>
       <path id="DejaVuSans-4e" d="M 628 4666 
L 1478 4666 
L 3547 763 
L 3547 4666 
L 4159 4666 
L 4159 0 
L 3309 0 
L 1241 3903 
L 1241 0 
L 628 0 
L 628 4666 
z
" transform="scale(0.015625)"/>
       <path id="DejaVuSans-65" d="M 3597 1894 
L 3597 1613 
L 953 1613 
Q 991 1019 1311 708 
Q 1631 397 2203 397 
Q 2534 397 2845 478 
Q 3156 559 3463 722 
L 3463 178 
Q 3153 47 2828 -22 
Q 2503 -91 2169 -91 
Q 1331 -91 842 396 
Q 353 884 353 1716 
Q 353 2575 817 3079 
Q 1281 3584 2069 3584 
Q 2775 3584 3186 3129 
Q 3597 2675 3597 1894 
z
M 3022 2063 
Q 3016 2534 2758 2815 
Q 2500 3097 2075 3097 
Q 1594 3097 1305 2825 
Q 1016 2553 972 2059 
L 3022 2063 
z
" transform="scale(0.015625)"/>
       <path id="DejaVuSans-77" d="M 269 3500 
L 844 3500 
L 1563 769 
L 2278 3500 
L 2956 3500 
L 3675 769 
L 4391 3500 
L 4966 3500 
L 4050 0 
L 3372 0 
L 2619 2869 
L 1863 0 
L 1184 0 
L 269 3500 
z
" transform="scale(0.015625)"/>
       <path id="DejaVuSans-20" transform="scale(0.015625)"/>
       <path id="DejaVuSans-43" d="M 4122 4306 
L 4122 3641 
Q 3803 3938 3442 4084 
Q 3081 4231 2675 4231 
Q 1875 4231 1450 3742 
Q 1025 3253 1025 2328 
Q 1025 1406 1450 917 
Q 1875 428 2675 428 
Q 3081 428 3442 575 
Q 3803 722 4122 1019 
L 4122 359 
Q 3791 134 3420 21 
Q 3050 -91 2638 -91 
Q 1578 -91 968 557 
Q 359 1206 359 2328 
Q 359 3453 968 4101 
Q 1578 4750 2638 4750 
Q 3056 4750 3426 4639 
Q 3797 4528 4122 4306 
z
" transform="scale(0.015625)"/>
       <path id="DejaVuSans-61" d="M 2194 1759 
Q 1497 1759 1228 1600 
Q 959 1441 959 1056 
Q 959 750 1161 570 
Q 1363 391 1709 391 
Q 2188 391 2477 730 
Q 2766 1069 2766 1631 
L 2766 1759 
L 2194 1759 
z
M 3341 1997 
L 3341 0 
L 2766 0 
L 2766 531 
Q 2569 213 2275 61 
Q 1981 -91 1556 -91 
Q 1019 -91 701 211 
Q 384 513 384 1019 
Q 384 1609 779 1909 
Q 1175 2209 1959 2209 
L 2766 2209 
L 2766 2266 
Q 2766 2663 2505 2880 
Q 2244 3097 1772 3097 
Q 1472 3097 1187 3025 
Q 903 2953 641 2809 
L 641 3341 
Q 956 3463 1253 3523 
Q 1550 3584 1831 3584 
Q 2591 3584 2966 3190 
Q 3341 2797 3341 1997 
z
" transform="scale(0.015625)"/>
       <path id="DejaVuSans-73" d="M 2834 3397 
L 2834 2853 
Q 2591 2978 2328 3040 
Q 2066 3103 1784 3103 
Q 1356 3103 1142 2972 
Q 928 2841 928 2578 
Q 928 2378 1081 2264 
Q 1234 2150 1697 2047 
L 1894 2003 
Q 2506 1872 2764 1633 
Q 3022 1394 3022 966 
Q 3022 478 2636 193 
Q 2250 -91 1575 -91 
Q 1294 -91 989 -36 
Q 684 19 347 128 
L 347 722 
Q 666 556 975 473 
Q 1284 391 1588 391 
Q 1994 391 2212 530 
Q 2431 669 2431 922 
Q 2431 1156 2273 1281 
Q 2116 1406 1581 1522 
L 1381 1569 
Q 847 1681 609 1914 
Q 372 2147 372 2553 
Q 372 3047 722 3315 
Q 1072 3584 1716 3584 
Q 2034 3584 2315 3537 
Q 2597 3491 2834 3397 
z
" transform="scale(0.015625)"/>
      </defs>
      <use xlink:href="#DejaVuSans-4e"/>
      <use xlink:href="#DejaVuSans-65" x="74.804688"/>
      <use xlink:href="#DejaVuSans-77" x="136.328125"/>
      <use xlink:href="#DejaVuSans-20" x="218.115234"/>
      <use xlink:href="#DejaVuSans-43" x="249.902344"/>
      <use xlink:href="#DejaVuSans-61" x="319.726562"/>
      <use xlink:href="#DejaVuSans-73" x="381.005859"/>
      <use xlink:href="#DejaVuSans-65" x="433.105469"/>
      <use xlink:href="#DejaVuSans-73" x="494.628906"/>
     </g>
    </g>
   </g>
   <g id="line2d_30">
    <path d="M 135.038385 518.216884 
L 136.45671 518.023523 
L 137.875035 518.371573 
L 139.293359 517.810827 
L 140.711684 516.476637 
L 142.130009 516.611989 
L 143.548334 516.534645 
L 144.966659 516.80535 
L 146.384984 514.755725 
L 147.803309 515.645185 
L 149.221633 513.769585 
L 150.639958 513.421535 
L 152.058283 512.280706 
L 153.476608 511.333238 
L 154.894933 508.684194 
L 156.313258 506.673241 
L 157.731583 507.291996 
L 159.149907 508.297473 
L 160.568232 504.5076 
L 161.986557 502.690008 
L 164.823207 496.425116 
L 166.241532 496.831174 
L 167.659856 497.875323 
L 169.078181 502.109925 
L 170.496506 502.864033 
L 171.914831 499.499554 
L 173.333156 498.049347 
L 174.751481 499.267521 
L 176.169806 499.61557 
L 177.58813 497.73997 
L 180.42478 503.869509 
L 181.843105 500.447022 
L 183.26143 495.632337 
L 184.679755 493.331343 
L 186.098079 493.834081 
L 187.516404 496.347772 
L 188.934729 500.447022 
L 190.353054 502.322622 
L 191.771379 504.874986 
L 193.189704 498.320053 
L 194.608029 495.129599 
L 196.026353 496.057731 
L 197.444678 499.209513 
L 198.863003 504.526936 
L 200.281328 505.145691 
L 201.699653 505.300379 
L 203.117978 502.090589 
L 204.536302 503.424779 
L 205.954627 506.479881 
L 207.372952 506.402536 
L 208.791277 511.159213 
L 210.209602 515.258463 
L 211.627927 511.487927 
L 213.046252 509.186933 
L 214.464576 509.747679 
L 215.882901 510.540458 
L 217.301226 512.454731 
L 218.719551 515.103775 
L 220.137876 512.822117 
L 221.556201 512.822117 
L 222.974526 512.010001 
L 224.39285 512.822117 
L 225.811175 513.421535 
L 227.2295 514.310995 
L 228.647825 515.529168 
L 230.06615 515.219791 
L 231.484475 514.678381 
L 232.902799 513.69224 
L 234.321124 515.084439 
L 235.739449 515.239127 
L 237.157774 516.573317 
L 238.576099 516.128587 
L 239.994424 516.844022 
L 241.412749 515.37448 
L 242.831073 514.078962 
L 244.249398 515.432488 
L 247.086048 515.645185 
L 248.504373 514.871742 
L 249.922698 516.495973 
L 251.341022 515.239127 
L 252.759347 515.548505 
L 254.177672 515.548505 
L 255.595997 516.26394 
L 257.014322 515.587177 
L 258.432647 516.979375 
L 259.850972 517.1534 
L 261.269296 517.192072 
L 262.687621 515.355144 
L 264.105946 514.794397 
L 265.524271 515.316472 
L 266.942596 514.369003 
L 268.360921 515.780538 
L 269.779245 515.81921 
L 271.19757 515.490496 
L 272.615895 515.857882 
L 274.03422 514.987758 
L 275.452545 515.490496 
L 276.87087 516.205931 
L 278.289195 515.91589 
L 281.125844 516.80535 
L 282.544169 516.592653 
L 285.380819 517.25008 
L 286.799144 517.1534 
L 288.217468 517.675474 
L 289.635793 517.636802 
L 291.054118 517.443441 
L 292.472443 516.863358 
L 295.309093 517.501449 
L 296.727418 517.714146 
L 298.145742 517.520785 
L 299.564067 517.888171 
L 300.982392 517.79149 
L 302.400717 517.540121 
L 303.819042 517.520785 
L 305.237367 517.733482 
L 306.655692 517.59813 
L 308.074016 518.197548 
L 309.492341 518.332901 
L 310.910666 517.888171 
L 313.747316 517.733482 
L 315.165641 517.366097 
L 316.583965 517.1534 
L 318.00229 517.59813 
L 319.420615 517.095391 
L 322.257265 516.689334 
L 323.67559 516.882694 
L 325.093915 516.186595 
L 326.512239 516.186595 
L 327.930564 515.451824 
L 329.348889 515.722529 
L 330.767214 515.703193 
L 333.603864 515.993235 
L 336.440513 514.871742 
L 337.858838 514.949086 
L 339.277163 514.659045 
L 340.695488 514.194979 
L 342.113813 512.396723 
L 343.532138 512.396723 
L 344.950462 510.656475 
L 346.368787 512.048673 
L 347.787112 511.797304 
L 349.205437 509.573654 
L 350.623762 510.714483 
L 352.042087 507.291996 
L 353.460411 508.993572 
L 354.878736 509.631662 
L 356.297061 507.833407 
L 357.715386 503.772829 
L 359.133711 507.001955 
L 360.552036 506.402536 
L 361.970361 507.852743 
L 363.388685 506.866602 
L 364.80701 506.305856 
L 366.225335 509.341621 
L 367.64366 509.59299 
L 369.061985 509.457638 
L 370.48031 508.297473 
L 371.898635 508.722866 
L 373.316959 508.684194 
L 374.735284 509.186933 
L 376.153609 510.192409 
L 377.571934 507.910751 
L 378.990259 510.946516 
L 380.408584 507.930087 
L 381.826908 509.167596 
L 383.245233 509.302949 
L 386.081883 509.206269 
L 387.500208 508.819547 
L 388.918533 509.960376 
L 390.336858 505.068346 
L 391.755182 507.408013 
L 393.173507 504.623616 
L 394.591832 506.441208 
L 396.010157 501.201129 
L 397.428482 503.61814 
L 400.265131 496.947191 
L 401.683456 502.806024 
L 403.101781 494.414163 
L 404.520106 495.361632 
L 405.938431 497.972003 
L 407.356756 493.911425 
L 408.775081 492.383874 
L 410.193405 489.270765 
L 413.030055 481.188281 
L 414.44838 482.406454 
L 415.866705 483.334587 
L 417.28503 476.238243 
L 418.703354 475.735505 
L 420.121679 473.859905 
L 421.540004 469.954016 
L 422.958329 465.545388 
L 424.376654 466.782898 
L 425.794979 461.446138 
L 427.213304 462.877008 
L 428.631628 460.904728 
L 430.049953 455.451952 
L 431.468278 456.090042 
L 432.886603 445.435859 
L 434.304928 442.902832 
L 435.723253 441.9747 
L 437.141578 430.914459 
L 438.559902 431.610559 
L 439.978227 422.851312 
L 441.396552 407.150411 
L 442.814877 403.74726 
L 444.233202 393.731168 
L 445.651527 396.360875 
L 447.069851 387.44694 
L 448.488176 377.218151 
L 449.906501 378.784374 
L 451.324826 368.613593 
L 452.743151 365.26845 
L 454.161476 362.271357 
L 455.579801 361.439905 
L 456.998125 364.572351 
L 458.41645 361.517249 
L 461.2531 340.112203 
L 462.671425 326.170886 
L 464.08975 351.887879 
L 465.508074 322.381013 
L 466.926399 319.770641 
L 468.344724 320.486077 
L 469.763049 362.812767 
L 471.181374 320.892134 
L 472.599699 305.017208 
L 474.018024 330.057439 
L 475.436348 351.172444 
L 476.854673 359.196919 
L 478.272998 369.3677 
L 479.691323 372.03608 
L 481.109648 384.68188 
L 482.527973 379.267776 
L 483.946297 391.062788 
L 486.782947 428.710146 
L 488.201272 429.193548 
L 489.619597 414.904181 
L 491.037922 410.340865 
L 492.456247 401.678299 
L 493.874571 404.965433 
L 495.292896 414.227418 
L 498.129546 436.231883 
L 499.547871 430.373049 
L 500.966196 409.045347 
L 502.384521 404.308006 
L 503.802845 402.896472 
L 505.22117 415.387583 
L 506.639495 418.81007 
L 508.05782 442.670799 
L 509.476145 424.050149 
L 510.89447 432.596699 
L 512.312794 407.788501 
L 513.731119 432.654707 
L 515.149444 411.385013 
L 516.567769 430.585746 
L 517.986094 440.911216 
L 519.404419 424.088821 
L 520.822744 410.824267 
L 522.241068 405.08145 
L 523.659393 392.745027 
L 525.077718 388.259055 
L 526.496043 381.820139 
L 527.914368 400.672822 
L 529.332693 392.454986 
L 530.751017 350.592361 
L 532.169342 348.117342 
L 533.587667 342.606558 
L 535.005992 328.007814 
L 536.424317 355.38771 
L 537.842642 390.792083 
L 539.260967 303.0836 
L 540.679291 271.91383 
L 542.097616 287.808093 
L 543.515941 282.626022 
L 544.934266 267.679228 
L 546.352591 303.276961 
L 547.770916 329.071298 
L 549.18924 318.069066 
L 550.607565 296.741364 
L 552.02589 296.722028 
L 553.444215 329.206651 
L 554.86254 344.86888 
L 556.280865 375.941969 
L 557.69919 373.621639 
L 559.117514 336.283658 
L 560.535839 332.1264 
L 561.954164 361.033847 
L 563.372489 352.912692 
L 564.790814 375.980641 
L 566.209139 390.75341 
L 567.627464 395.838801 
L 569.045788 381.916819 
L 570.464113 331.855695 
L 571.882438 362.136004 
L 574.719088 391.333493 
L 576.137413 413.647335 
L 577.555737 423.431394 
L 578.974062 401.214233 
L 580.392387 393.32511 
L 581.810712 402.490414 
L 583.229037 416.605756 
L 584.647362 411.0563 
L 586.065687 426.486496 
L 587.484011 435.941842 
L 588.902336 411.307669 
L 590.320661 406.744353 
L 591.738986 407.904518 
L 593.157311 413.686007 
L 594.575636 424.610896 
L 595.99396 439.925075 
L 597.412285 442.438766 
L 598.83061 427.627325 
L 600.248935 428.284752 
L 601.66726 433.969561 
L 603.085585 438.32018 
L 604.50391 447.891542 
L 605.922234 456.380084 
L 607.340559 450.385897 
L 608.758884 441.297937 
L 610.177209 437.798106 
L 611.595534 435.516448 
L 613.013859 439.944411 
L 614.432183 443.231546 
L 615.850508 475.348783 
L 617.268833 484.978154 
L 618.687158 457.636929 
L 620.105483 433.389478 
L 621.523808 435.323087 
L 622.942133 438.32018 
L 624.360457 452.764236 
L 625.778782 464.037173 
L 627.197107 466.976258 
L 628.615432 453.866393 
L 630.033757 430.856451 
L 631.452082 428.574793 
L 632.870406 431.223837 
L 634.288731 428.710146 
L 635.707056 438.184827 
L 637.125381 445.339179 
L 638.543706 434.530307 
L 639.962031 422.599943 
L 641.380356 420.58899 
L 642.79868 423.818116 
L 644.217005 429.386909 
L 645.63533 446.499344 
L 647.053655 442.32275 
L 648.47198 421.865172 
L 649.890305 439.867067 
L 651.30863 428.845498 
L 652.726954 416.277043 
L 654.145279 431.823255 
L 655.563604 443.888973 
L 656.981929 436.115866 
L 658.400254 417.301855 
L 659.818579 416.567084 
L 661.236903 403.457218 
L 662.655228 395.722784 
L 665.491878 412.603187 
L 666.910203 423.431394 
L 668.328528 404.752736 
L 669.746853 400.440789 
L 671.165177 376.908773 
L 672.583502 371.997408 
L 675.420152 397.172991 
L 676.838477 410.553562 
L 678.256802 372.886868 
L 679.675126 370.334504 
L 681.093451 372.848195 
L 682.511776 349.180827 
L 683.930101 374.549771 
L 685.348426 387.872334 
L 686.766751 405.777549 
L 688.185076 371.475333 
L 689.6034 367.801477 
L 691.021725 379.499809 
L 692.44005 372.094088 
L 693.858375 386.306111 
L 695.2767 415.851649 
L 696.695025 411.50103 
L 698.113349 395.858137 
L 699.531674 368.92297 
L 700.949999 370.875915 
L 702.368324 370.895251 
L 703.786649 361.555922 
L 705.204974 390.250672 
L 706.623299 389.013163 
L 708.041623 413.802024 
L 709.459948 350.882403 
L 710.878273 347.09253 
L 712.296598 359.409616 
L 713.714923 354.208209 
L 715.133248 380.58263 
L 716.551573 387.09889 
L 717.969897 355.175014 
L 719.388222 333.769967 
L 720.806547 340.42158 
L 722.224872 363.102808 
L 723.643197 363.914924 
L 725.061522 398.603861 
L 726.479846 416.412396 
L 727.898171 351.713854 
L 729.316496 378.165619 
L 730.734821 368.864962 
L 732.153146 407.169747 
L 733.571471 413.395966 
L 734.989796 341.369049 
L 736.40812 368.980978 
L 739.24477 388.413744 
L 740.663095 374.762468 
L 742.08142 375.439231 
L 744.918069 405.661532 
L 746.336394 412.158457 
L 747.754719 396.380211 
L 749.173044 402.741783 
L 750.591369 411.810407 
L 752.009694 432.519355 
L 753.428019 433.447487 
L 754.846343 463.727796 
L 756.264668 416.025674 
L 757.682993 431.049812 
L 759.101318 429.734958 
L 760.519643 438.977607 
L 761.937968 457.636929 
L 763.356292 452.802908 
L 764.774617 466.241487 
L 766.192942 470.959492 
L 767.611267 466.048126 
L 769.029592 453.73104 
L 770.447917 444.778433 
L 771.866242 454.311123 
L 773.284566 468.291112 
L 774.702891 479.931436 
L 776.121216 471.036836 
L 777.539541 469.509286 
L 778.957866 465.603396 
L 780.376191 472.680404 
L 781.794516 478.036499 
L 783.21284 488.671346 
L 784.631165 490.604955 
L 786.04949 491.223709 
L 787.467815 485.132842 
L 788.88614 488.497321 
L 790.304465 492.171177 
L 791.722789 495.032918 
L 793.141114 498.861463 
L 794.559439 501.993909 
L 795.977764 498.880799 
L 797.396089 499.190176 
L 798.814414 498.513413 
L 800.232739 501.781212 
L 801.651063 505.609757 
L 803.069388 505.261707 
L 804.487713 507.988095 
L 805.906038 505.49374 
L 807.324363 506.131831 
L 808.742688 505.532412 
L 810.161012 506.499217 
L 811.579337 508.2588 
L 812.997662 509.302949 
L 814.415987 508.026767 
L 815.834312 508.780875 
L 817.252637 506.692578 
L 818.670962 503.096066 
L 820.089286 500.814408 
L 821.507611 497.333912 
L 822.925936 495.787025 
L 824.344261 489.754167 
L 825.762586 476.605629 
L 827.180911 449.361085 
L 828.599235 414.71082 
L 830.01756 385.919389 
L 831.435885 321.298192 
L 834.272535 355.967793 
L 835.69086 368.130191 
L 837.109185 317.798361 
L 838.527509 306.718784 
L 839.945834 301.30468 
L 841.364159 305.326586 
L 842.782484 322.090972 
L 844.200809 347.401907 
L 845.619134 387.969014 
L 847.037459 386.402791 
L 848.455783 398.468508 
L 849.874108 395.819465 
L 851.292433 417.301855 
L 852.710758 429.908983 
L 854.129083 444.855777 
L 855.547408 442.052045 
L 856.965732 452.39685 
L 858.384057 432.906076 
L 859.802382 452.628883 
L 861.220707 462.103565 
L 862.639032 474.265963 
L 864.057357 478.403885 
L 865.475682 476.276915 
L 868.312331 454.581828 
L 869.730656 462.896344 
L 871.148981 472.661067 
L 872.567306 474.381979 
L 873.985631 479.602722 
L 875.403955 477.185711 
L 876.82228 478.017163 
L 878.240605 469.373933 
L 879.65893 467.478997 
L 881.077255 474.439987 
L 882.49558 475.290775 
L 883.913905 475.754841 
L 885.332229 474.439987 
L 886.750554 465.13933 
L 888.168879 470.959492 
L 889.587204 476.296252 
L 891.005529 471.81028 
L 892.423854 471.404222 
L 893.842178 472.931773 
L 895.260503 471.423558 
L 896.678828 464.539912 
L 898.097153 468.465137 
L 899.515478 464.887961 
L 900.933803 471.616919 
L 903.770452 477.011687 
L 905.188777 475.02007 
L 906.607102 465.081322 
L 908.025427 465.061986 
L 909.443752 470.070032 
L 910.862077 465.854765 
L 912.280402 473.395839 
L 913.698726 478.113844 
L 915.117051 471.191525 
L 916.535376 464.965306 
L 917.953701 473.415175 
L 919.372026 467.246964 
L 920.790351 476.296252 
L 922.208675 478.481229 
L 923.627 485.113506 
L 925.045325 480.298821 
L 926.46365 473.067125 
L 927.881975 478.57791 
L 929.3003 477.881811 
L 930.718625 480.047452 
L 932.136949 486.815082 
L 933.555274 492.828604 
L 934.973599 486.834418 
L 936.391924 482.367782 
L 937.810249 483.992013 
L 939.228574 486.254335 
L 940.646898 488.052591 
L 942.065223 488.071927 
L 943.483548 492.190514 
L 944.901873 485.790269 
L 946.320198 485.132842 
L 947.738523 486.099647 
L 949.156848 485.790269 
L 950.575172 486.718401 
L 951.993497 488.013919 
L 953.411822 487.85923 
L 954.830147 482.271102 
L 956.248472 482.174421 
L 957.666797 466.144807 
L 959.085121 465.448708 
L 960.503446 470.978828 
L 961.921771 466.106135 
L 963.340096 475.503472 
L 964.758421 463.244394 
L 966.176746 447.098763 
L 967.595071 448.703658 
L 969.013395 447.524157 
L 970.43172 447.620837 
L 971.850045 448.239592 
L 973.26837 454.233778 
L 974.686695 443.30889 
L 976.10502 430.392385 
L 977.523344 418.887414 
L 978.941669 406.106262 
L 980.359994 409.335388 
L 981.778319 397.114982 
L 983.196644 416.547748 
L 984.614969 407.730493 
L 986.033294 378.571677 
L 987.451618 370.759898 
L 988.869943 376.154666 
L 990.288268 365.442475 
L 991.706593 361.362561 
L 993.124918 370.295832 
L 994.543243 370.237824 
L 995.961568 342.142492 
L 997.379892 321.684914 
L 998.798217 308.729737 
L 1000.216542 287.518051 
L 1001.634867 299.719121 
L 1003.053192 291.655974 
L 1004.471517 300.782606 
L 1005.889841 274.466194 
L 1007.308166 204.64359 
L 1008.726491 205.745747 
L 1010.144816 251.359572 
L 1011.563141 287.266682 
L 1012.981466 147.640811 
L 1014.399791 128.962152 
L 1015.818115 118.249961 
L 1017.23644 63.026102 
L 1018.654765 113.299923 
L 1020.07309 98.237113 
L 1021.491415 119.990209 
L 1022.90974 74.453728 
L 1024.328064 75.130491 
L 1025.746389 60.609091 
L 1027.164714 90.038613 
L 1028.583039 107.789139 
L 1030.001364 93.731805 
L 1031.419689 92.165582 
L 1032.838014 104.057274 
L 1034.256338 92.339607 
L 1035.674663 161.214742 
L 1037.092988 73.370907 
L 1038.511313 103.264495 
L 1039.929638 81.646752 
L 1041.347963 72.887505 
L 1042.766287 113.241915 
L 1044.184612 171.868925 
L 1045.602937 169.72262 
L 1047.021262 137.12198 
L 1048.439587 181.014894 
L 1049.857912 175.69747 
L 1051.276237 197.77928 
L 1052.694561 252.249032 
L 1054.112886 271.430428 
L 1055.531211 257.991849 
L 1056.949536 202.400604 
L 1058.367861 222.065403 
L 1059.786186 235.407302 
L 1061.204511 262.555165 
L 1062.622835 284.134236 
L 1064.04116 337.289135 
L 1065.459485 259.693425 
L 1066.87781 261.278984 
L 1068.296135 277.772664 
L 1069.71446 276.013081 
L 1071.132784 288.716889 
L 1072.551109 297.611488 
L 1073.969434 341.678426 
L 1075.387759 214.292296 
L 1076.806084 231.501412 
L 1076.806084 231.501412 
" clip-path="url(#p46e06fdf87)" style="fill: none; stroke-dasharray: 1.5,2.475; stroke-dashoffset: 0; stroke: #000000; stroke-opacity: 0.5; stroke-width: 1.5"/>
   </g>
   <g id="line2d_31">
    <path d="M 135.038385 518.390909 
L 139.293359 517.482113 
L 142.130009 516.747342 
L 144.966659 515.954562 
L 146.384984 515.451824 
L 147.803309 514.813733 
L 149.221633 514.04029 
L 150.639958 513.05415 
L 159.149907 505.84179 
L 160.568232 504.178886 
L 163.404882 500.331005 
L 164.823207 499.07416 
L 166.241532 498.822791 
L 167.659856 499.17084 
L 169.078181 499.731587 
L 170.496506 500.118309 
L 171.914831 500.079636 
L 174.751481 499.286857 
L 176.169806 499.422209 
L 177.58813 499.886276 
L 179.006455 500.118309 
L 180.42478 499.692915 
L 181.843105 498.62943 
L 183.26143 497.353248 
L 184.679755 496.425116 
L 186.098079 496.386444 
L 187.516404 497.585281 
L 188.934729 499.093496 
L 190.353054 500.040964 
L 191.771379 500.0603 
L 193.189704 499.402873 
L 194.608029 498.900135 
L 196.026353 499.151504 
L 197.444678 500.234325 
L 198.863003 501.800548 
L 200.281328 503.115402 
L 201.699653 503.966189 
L 203.117978 504.410919 
L 204.536302 505.04901 
L 205.954627 506.460544 
L 208.791277 509.786351 
L 210.209602 510.791828 
L 211.627927 511.081869 
L 214.464576 511.139877 
L 215.882901 511.410582 
L 218.719551 512.667428 
L 220.137876 512.938133 
L 222.974526 512.996141 
L 224.39285 513.170166 
L 228.647825 514.523692 
L 230.06615 514.717053 
L 232.902799 514.871742 
L 234.321124 515.065102 
L 237.157774 515.780538 
L 238.576099 515.91589 
L 239.994424 515.81921 
L 244.249398 515.277799 
L 247.086048 515.432488 
L 249.922698 515.587177 
L 252.759347 515.664521 
L 255.595997 515.993235 
L 257.014322 516.283276 
L 258.432647 516.457301 
L 259.850972 516.457301 
L 261.269296 516.244604 
L 264.105946 515.490496 
L 265.524271 515.277799 
L 266.942596 515.219791 
L 269.779245 515.47116 
L 275.452545 515.703193 
L 288.217468 517.366097 
L 296.727418 517.540121 
L 299.564067 517.675474 
L 305.237367 517.752818 
L 309.492341 517.984851 
L 312.328991 517.810827 
L 323.67559 516.534645 
L 327.930564 515.896554 
L 335.022188 515.393816 
L 336.440513 515.123111 
L 339.277163 514.252987 
L 343.532138 512.377387 
L 344.950462 511.797304 
L 346.368787 511.391246 
L 352.042087 509.225605 
L 353.460411 508.529506 
L 354.878736 507.988095 
L 356.297061 507.311332 
L 357.715386 506.924611 
L 359.133711 506.673241 
L 360.552036 506.595897 
L 361.970361 506.885938 
L 364.80701 507.852743 
L 367.64366 508.664858 
L 369.061985 508.877555 
L 371.898635 508.954899 
L 373.316959 508.935563 
L 376.153609 509.206269 
L 378.990259 509.225605 
L 381.826908 509.109588 
L 384.663558 509.14826 
L 386.081883 508.954899 
L 387.500208 508.60685 
L 390.336858 507.27266 
L 394.591832 504.314239 
L 398.846807 500.756399 
L 400.265131 499.422209 
L 401.683456 498.494077 
L 405.938431 495.226279 
L 407.356756 493.408687 
L 408.775081 491.32039 
L 413.030055 483.992013 
L 417.28503 477.901147 
L 420.121679 472.854428 
L 421.540004 470.050696 
L 424.376654 465.526052 
L 425.794979 463.379747 
L 427.213304 461.48481 
L 428.631628 459.009791 
L 430.049953 455.819337 
L 431.468278 452.319506 
L 435.723253 438.784246 
L 438.559902 426.795873 
L 442.814877 404.83008 
L 444.233202 397.96577 
L 447.069851 386.712169 
L 449.906501 375.980641 
L 451.324826 371.030603 
L 452.743151 367.395419 
L 455.579801 362.445382 
L 456.998125 359.583641 
L 459.834775 350.128295 
L 462.671425 338.4493 
L 464.08975 333.305901 
L 465.508074 331.836359 
L 468.344724 329.844742 
L 469.763049 328.394535 
L 471.181374 329.051962 
L 472.599699 331.33362 
L 474.018024 336.979757 
L 475.436348 344.346806 
L 476.854673 355.465055 
L 478.272998 365.500483 
L 479.691323 373.080228 
L 481.109648 380.021883 
L 482.527973 388.355736 
L 485.364622 406.937714 
L 486.782947 413.666671 
L 488.201272 416.741109 
L 489.619597 415.774305 
L 491.037922 412.893228 
L 492.456247 410.920947 
L 493.874571 412.371154 
L 495.292896 416.683101 
L 496.711221 420.492309 
L 498.129546 422.155213 
L 499.547871 420.298949 
L 502.384521 413.067253 
L 503.802845 413.163933 
L 505.22117 415.948329 
L 506.639495 421.265753 
L 508.05782 424.436871 
L 509.476145 426.409152 
L 512.312794 423.914797 
L 513.731119 423.547411 
L 515.149444 424.881601 
L 516.567769 425.326331 
L 517.986094 424.823593 
L 519.404419 420.028243 
L 520.822744 413.627999 
L 522.241068 404.984769 
L 523.659393 397.927098 
L 526.496043 388.916482 
L 527.914368 383.076985 
L 529.332693 375.033173 
L 530.751017 364.224301 
L 532.169342 354.904308 
L 533.587667 350.476345 
L 535.005992 346.705808 
L 536.424317 342.026476 
L 537.842642 332.899843 
L 539.260967 319.03587 
L 540.679291 303.431649 
L 542.097616 291.462613 
L 543.515941 286.763944 
L 544.934266 291.829998 
L 546.352591 299.100366 
L 547.770916 304.243765 
L 550.607565 313.138364 
L 552.02589 319.847986 
L 554.86254 341.291704 
L 556.280865 349.625557 
L 557.69919 353.744143 
L 559.117514 352.816011 
L 560.535839 352.738667 
L 561.954164 355.658416 
L 563.372489 362.94812 
L 564.790814 372.384129 
L 566.209139 376.560724 
L 567.627464 375.845289 
L 570.464113 369.81243 
L 571.882438 371.649358 
L 573.300763 379.441801 
L 576.137413 399.822034 
L 577.555737 404.462695 
L 578.974062 406.125598 
L 580.392387 406.241615 
L 581.810712 407.537132 
L 583.229037 411.385013 
L 584.647362 415.967666 
L 586.065687 418.984095 
L 587.484011 419.022767 
L 588.902336 416.837789 
L 590.320661 415.213558 
L 591.738986 415.638952 
L 593.157311 419.042103 
L 594.575636 424.552887 
L 595.99396 429.367573 
L 597.412285 432.325994 
L 598.83061 433.563503 
L 600.248935 434.607652 
L 601.66726 436.869974 
L 604.50391 444.353039 
L 605.922234 446.402664 
L 607.340559 445.938598 
L 608.758884 443.946981 
L 610.177209 441.645987 
L 611.595534 442.400094 
L 613.013859 447.350132 
L 614.432183 453.82772 
L 615.850508 458.352364 
L 617.268833 459.048463 
L 618.687158 455.258591 
L 620.105483 450.095856 
L 621.523808 446.228639 
L 622.942133 446.596025 
L 624.360457 450.463242 
L 625.778782 453.402327 
L 627.197107 452.609547 
L 628.615432 448.336272 
L 630.033757 441.762003 
L 631.452082 436.212547 
L 632.870406 433.67952 
L 634.288731 433.718192 
L 635.707056 434.588316 
L 637.125381 434.027569 
L 638.543706 431.803919 
L 639.962031 429.193548 
L 641.380356 428.130063 
L 642.79868 429.13554 
L 644.217005 431.127156 
L 645.63533 433.950225 
L 647.053655 434.955701 
L 648.47198 433.486159 
L 649.890305 431.45587 
L 651.30863 430.025 
L 652.726954 430.141016 
L 654.145279 430.875787 
L 655.563604 430.025 
L 656.981929 427.201931 
L 658.400254 421.92318 
L 659.818579 415.05887 
L 661.236903 409.27738 
L 662.655228 407.150411 
L 664.073553 407.440452 
L 665.491878 408.271904 
L 666.910203 407.015058 
L 668.328528 402.50975 
L 669.746853 395.780793 
L 671.165177 389.747934 
L 672.583502 387.292251 
L 674.001827 387.195571 
L 675.420152 387.466276 
L 676.838477 386.750841 
L 678.256802 381.897483 
L 679.675126 375.980641 
L 681.093451 371.784711 
L 682.511776 372.016744 
L 685.348426 379.055079 
L 686.766751 380.930679 
L 688.185076 380.77599 
L 689.6034 378.977734 
L 691.021725 380.099227 
L 692.44005 384.101797 
L 693.858375 391.004779 
L 695.2767 395.181374 
L 696.695025 394.85266 
L 698.113349 390.637394 
L 699.531674 383.038312 
L 700.949999 376.773421 
L 702.368324 374.414418 
L 705.204974 380.969351 
L 706.623299 381.162712 
L 708.041623 377.759561 
L 710.878273 365.133097 
L 712.296598 363.48953 
L 713.714923 363.450858 
L 715.133248 365.055753 
L 716.551573 363.257497 
L 717.969897 359.061567 
L 719.388222 355.349038 
L 720.806547 355.851777 
L 722.224872 362.928784 
L 725.061522 379.074415 
L 726.479846 381.704122 
L 727.898171 382.245533 
L 729.316496 384.063125 
L 730.734821 382.941632 
L 732.153146 382.052172 
L 733.571471 381.916819 
L 734.989796 379.151759 
L 736.40812 377.063462 
L 737.826445 375.535911 
L 739.24477 376.599396 
L 740.663095 381.878147 
L 749.173044 410.746923 
L 750.591369 418.520029 
L 753.428019 431.610559 
L 754.846343 434.452963 
L 757.682993 435.284415 
L 759.101318 437.604745 
L 760.519643 441.858684 
L 761.937968 449.689798 
L 763.356292 456.167387 
L 764.774617 460.634022 
L 766.192942 461.716843 
L 769.029592 458.603734 
L 770.447917 458.468381 
L 771.866242 460.440662 
L 774.702891 467.827046 
L 776.121216 470.302065 
L 777.539541 471.346214 
L 778.957866 472.661067 
L 780.376191 475.174759 
L 783.21284 483.392595 
L 784.631165 486.583049 
L 786.04949 488.400641 
L 788.88614 490.643627 
L 790.304465 492.596571 
L 793.141114 497.159887 
L 794.559439 498.590758 
L 798.814414 500.969096 
L 800.232739 502.245278 
L 801.651063 503.734156 
L 803.069388 505.010338 
L 804.487713 505.822454 
L 805.906038 506.151167 
L 807.324363 506.267184 
L 810.161012 507.001955 
L 811.579337 507.62071 
L 812.997662 507.968759 
L 814.415987 507.81407 
L 815.834312 506.963283 
L 817.252637 505.339052 
L 818.670962 503.17341 
L 820.089286 500.485694 
L 821.507611 496.657149 
L 822.925936 490.334249 
L 824.344261 479.602722 
L 825.762586 463.418419 
L 827.180911 439.20964 
L 830.01756 385.532667 
L 831.435885 366.080566 
L 832.85421 352.680659 
L 834.272535 344.172781 
L 838.527509 320.196035 
L 839.945834 315.92276 
L 841.364159 320.118691 
L 842.782484 333.073868 
L 845.619134 367.434092 
L 847.037459 382.786943 
L 848.455783 395.374735 
L 849.874108 406.550992 
L 851.292433 416.315715 
L 852.710758 426.853882 
L 854.129083 434.56898 
L 855.547408 440.775863 
L 858.384057 449.148388 
L 859.802382 454.543156 
L 861.220707 461.233441 
L 862.639032 466.608873 
L 864.057357 469.837999 
L 865.475682 469.48995 
L 866.894006 467.827046 
L 868.312331 466.434848 
L 869.730656 467.072939 
L 871.148981 469.451277 
L 872.567306 472.777084 
L 873.985631 475.136086 
L 875.403955 475.406792 
L 876.82228 474.536668 
L 878.240605 473.473183 
L 879.65893 472.835092 
L 881.077255 473.028453 
L 885.332229 472.69974 
L 886.750554 472.061649 
L 888.168879 471.81028 
L 891.005529 472.119657 
L 892.423854 471.90696 
L 893.842178 471.036836 
L 895.260503 469.567294 
L 896.678828 468.716506 
L 898.097153 468.561817 
L 899.515478 469.354597 
L 900.933803 470.882148 
L 902.352128 472.119657 
L 903.770452 472.158329 
L 905.188777 471.520238 
L 906.607102 469.896007 
L 908.025427 468.851859 
L 909.443752 469.006547 
L 910.862077 469.915343 
L 912.280402 470.959492 
L 913.698726 471.674927 
L 915.117051 471.249533 
L 916.535376 471.172189 
L 917.953701 471.404222 
L 919.372026 472.854428 
L 920.790351 475.252103 
L 922.208675 477.359736 
L 923.627 478.481229 
L 925.045325 478.925959 
L 926.46365 478.57791 
L 927.881975 478.848615 
L 929.3003 480.182805 
L 932.136949 484.610768 
L 933.555274 485.828942 
L 934.973599 486.234999 
L 937.810249 485.925622 
L 939.228574 486.351016 
L 940.646898 487.163131 
L 942.065223 487.820558 
L 943.483548 487.878567 
L 947.738523 486.467032 
L 949.156848 486.370352 
L 950.575172 486.42836 
L 951.993497 486.157655 
L 953.411822 484.262719 
L 954.830147 481.091601 
L 957.666797 473.33783 
L 959.085121 470.804803 
L 960.503446 469.199908 
L 961.921771 467.034267 
L 963.340096 464.462567 
L 964.758421 460.421326 
L 966.176746 455.625976 
L 967.595071 451.778095 
L 969.013395 449.380421 
L 971.850045 447.31146 
L 973.26837 444.062997 
L 974.686695 438.068811 
L 976.10502 430.373049 
L 977.523344 421.536458 
L 978.941669 414.498123 
L 980.359994 409.954143 
L 981.778319 405.951573 
L 983.196644 401.291577 
L 984.614969 395.510087 
L 987.451618 379.983211 
L 988.869943 373.273589 
L 990.288268 369.290356 
L 991.706593 366.25459 
L 993.124918 361.246544 
L 994.543243 352.719331 
L 995.961568 340.42158 
L 998.798217 313.467078 
L 1000.216542 303.683019 
L 1001.634867 296.934725 
L 1003.053192 287.22801 
L 1005.889841 259.558072 
L 1007.308166 248.787873 
L 1008.726491 236.509458 
L 1010.144816 222.81951 
L 1011.563141 204.701598 
L 1012.981466 178.597883 
L 1015.818115 123.412696 
L 1017.23644 106.338933 
L 1018.654765 100.731468 
L 1020.07309 97.308981 
L 1021.491415 92.242926 
L 1022.90974 88.395045 
L 1024.328064 83.986418 
L 1025.746389 83.48368 
L 1027.164714 85.397952 
L 1028.583039 90.947409 
L 1030.001364 94.563257 
L 1031.419689 101.504911 
L 1034.256338 106.068227 
L 1035.674663 105.816858 
L 1038.511313 96.980267 
L 1039.929638 99.068564 
L 1041.347963 106.029555 
L 1042.766287 120.957013 
L 1044.184612 137.063972 
L 1045.602937 151.624044 
L 1048.439587 176.702947 
L 1049.857912 192.191151 
L 1051.276237 211.372548 
L 1052.694561 227.750212 
L 1054.112886 236.335434 
L 1055.531211 238.6751 
L 1056.949536 237.843648 
L 1058.367861 238.694436 
L 1059.786186 248.826545 
L 1062.622835 274.601546 
L 1064.04116 281.272496 
L 1065.459485 281.717226 
L 1066.87781 279.551584 
L 1068.296135 278.932829 
L 1069.71446 283.12876 
L 1071.132784 286.357886 
L 1072.551109 284.540294 
L 1073.969434 278.565444 
L 1075.387759 269.032754 
L 1076.806084 257.489111 
L 1076.806084 257.489111 
" clip-path="url(#p46e06fdf87)" style="fill: none; stroke: #000000; stroke-width: 1.5; stroke-linecap: square"/>
   </g>
   <g id="patch_3">
    <path d="M 87.95 541.28 
L 87.95 37.72 
" style="fill: none; stroke: #555555; stroke-linejoin: miter; stroke-linecap: square"/>
   </g>
   <g id="patch_4">
    <path d="M 87.95 541.28 
L 1123.894469 541.28 
" style="fill: none; stroke: #555555; stroke-linejoin: miter; stroke-linecap: square"/>
   </g>
   <g id="text_31">
    <!-- Positive COVID-19 tests - last updated on 30 December 2021 -->
    <g style="fill: #555555" transform="translate(330.720516 27.72)scale(0.18 -0.18)">
     <defs>
      <path id="DejaVuSans-50" d="M 1259 4147 
L 1259 2394 
L 2053 2394 
Q 2494 2394 2734 2622 
Q 2975 2850 2975 3272 
Q 2975 3691 2734 3919 
Q 2494 4147 2053 4147 
L 1259 4147 
z
M 628 4666 
L 2053 4666 
Q 2838 4666 3239 4311 
Q 3641 3956 3641 3272 
Q 3641 2581 3239 2228 
Q 2838 1875 2053 1875 
L 1259 1875 
L 1259 0 
L 628 0 
L 628 4666 
z
" transform="scale(0.015625)"/>
      <path id="DejaVuSans-6f" d="M 1959 3097 
Q 1497 3097 1228 2736 
Q 959 2375 959 1747 
Q 959 1119 1226 758 
Q 1494 397 1959 397 
Q 2419 397 2687 759 
Q 2956 1122 2956 1747 
Q 2956 2369 2687 2733 
Q 2419 3097 1959 3097 
z
M 1959 3584 
Q 2709 3584 3137 3096 
Q 3566 2609 3566 1747 
Q 3566 888 3137 398 
Q 2709 -91 1959 -91 
Q 1206 -91 779 398 
Q 353 888 353 1747 
Q 353 2609 779 3096 
Q 1206 3584 1959 3584 
z
" transform="scale(0.015625)"/>
      <path id="DejaVuSans-69" d="M 603 3500 
L 1178 3500 
L 1178 0 
L 603 0 
L 603 3500 
z
M 603 4863 
L 1178 4863 
L 1178 4134 
L 603 4134 
L 603 4863 
z
" transform="scale(0.015625)"/>
      <path id="DejaVuSans-74" d="M 1172 4494 
L 1172 3500 
L 2356 3500 
L 2356 3053 
L 1172 3053 
L 1172 1153 
Q 1172 725 1289 603 
Q 1406 481 1766 481 
L 2356 481 
L 2356 0 
L 1766 0 
Q 1100 0 847 248 
Q 594 497 594 1153 
L 594 3053 
L 172 3053 
L 172 3500 
L 594 3500 
L 594 4494 
L 1172 4494 
z
" transform="scale(0.015625)"/>
      <path id="DejaVuSans-76" d="M 191 3500 
L 800 3500 
L 1894 563 
L 2988 3500 
L 3597 3500 
L 2284 0 
L 1503 0 
L 191 3500 
z
" transform="scale(0.015625)"/>
      <path id="DejaVuSans-4f" d="M 2522 4238 
Q 1834 4238 1429 3725 
Q 1025 3213 1025 2328 
Q 1025 1447 1429 934 
Q 1834 422 2522 422 
Q 3209 422 3611 934 
Q 4013 1447 4013 2328 
Q 4013 3213 3611 3725 
Q 3209 4238 2522 4238 
z
M 2522 4750 
Q 3503 4750 4090 4092 
Q 4678 3434 4678 2328 
Q 4678 1225 4090 567 
Q 3503 -91 2522 -91 
Q 1538 -91 948 565 
Q 359 1222 359 2328 
Q 359 3434 948 4092 
Q 1538 4750 2522 4750 
z
" transform="scale(0.015625)"/>
      <path id="DejaVuSans-56" d="M 1831 0 
L 50 4666 
L 709 4666 
L 2188 738 
L 3669 4666 
L 4325 4666 
L 2547 0 
L 1831 0 
z
" transform="scale(0.015625)"/>
      <path id="DejaVuSans-49" d="M 628 4666 
L 1259 4666 
L 1259 0 
L 628 0 
L 628 4666 
z
" transform="scale(0.015625)"/>
      <path id="DejaVuSans-44" d="M 1259 4147 
L 1259 519 
L 2022 519 
Q 2988 519 3436 956 
Q 3884 1394 3884 2338 
Q 3884 3275 3436 3711 
Q 2988 4147 2022 4147 
L 1259 4147 
z
M 628 4666 
L 1925 4666 
Q 3281 4666 3915 4102 
Q 4550 3538 4550 2338 
Q 4550 1131 3912 565 
Q 3275 0 1925 0 
L 628 0 
L 628 4666 
z
" transform="scale(0.015625)"/>
      <path id="DejaVuSans-2d" d="M 313 2009 
L 1997 2009 
L 1997 1497 
L 313 1497 
L 313 2009 
z
" transform="scale(0.015625)"/>
      <path id="DejaVuSans-31" d="M 794 531 
L 1825 531 
L 1825 4091 
L 703 3866 
L 703 4441 
L 1819 4666 
L 2450 4666 
L 2450 531 
L 3481 531 
L 3481 0 
L 794 0 
L 794 531 
z
" transform="scale(0.015625)"/>
      <path id="DejaVuSans-39" d="M 703 97 
L 703 672 
Q 941 559 1184 500 
Q 1428 441 1663 441 
Q 2288 441 2617 861 
Q 2947 1281 2994 2138 
Q 2813 1869 2534 1725 
Q 2256 1581 1919 1581 
Q 1219 1581 811 2004 
Q 403 2428 403 3163 
Q 403 3881 828 4315 
Q 1253 4750 1959 4750 
Q 2769 4750 3195 4129 
Q 3622 3509 3622 2328 
Q 3622 1225 3098 567 
Q 2575 -91 1691 -91 
Q 1453 -91 1209 -44 
Q 966 3 703 97 
z
M 1959 2075 
Q 2384 2075 2632 2365 
Q 2881 2656 2881 3163 
Q 2881 3666 2632 3958 
Q 2384 4250 1959 4250 
Q 1534 4250 1286 3958 
Q 1038 3666 1038 3163 
Q 1038 2656 1286 2365 
Q 1534 2075 1959 2075 
z
" transform="scale(0.015625)"/>
      <path id="DejaVuSans-6c" d="M 603 4863 
L 1178 4863 
L 1178 0 
L 603 0 
L 603 4863 
z
" transform="scale(0.015625)"/>
      <path id="DejaVuSans-75" d="M 544 1381 
L 544 3500 
L 1119 3500 
L 1119 1403 
Q 1119 906 1312 657 
Q 1506 409 1894 409 
Q 2359 409 2629 706 
Q 2900 1003 2900 1516 
L 2900 3500 
L 3475 3500 
L 3475 0 
L 2900 0 
L 2900 538 
Q 2691 219 2414 64 
Q 2138 -91 1772 -91 
Q 1169 -91 856 284 
Q 544 659 544 1381 
z
M 1991 3584 
L 1991 3584 
z
" transform="scale(0.015625)"/>
      <path id="DejaVuSans-70" d="M 1159 525 
L 1159 -1331 
L 581 -1331 
L 581 3500 
L 1159 3500 
L 1159 2969 
Q 1341 3281 1617 3432 
Q 1894 3584 2278 3584 
Q 2916 3584 3314 3078 
Q 3713 2572 3713 1747 
Q 3713 922 3314 415 
Q 2916 -91 2278 -91 
Q 1894 -91 1617 61 
Q 1341 213 1159 525 
z
M 3116 1747 
Q 3116 2381 2855 2742 
Q 2594 3103 2138 3103 
Q 1681 3103 1420 2742 
Q 1159 2381 1159 1747 
Q 1159 1113 1420 752 
Q 1681 391 2138 391 
Q 2594 391 2855 752 
Q 3116 1113 3116 1747 
z
" transform="scale(0.015625)"/>
      <path id="DejaVuSans-64" d="M 2906 2969 
L 2906 4863 
L 3481 4863 
L 3481 0 
L 2906 0 
L 2906 525 
Q 2725 213 2448 61 
Q 2172 -91 1784 -91 
Q 1150 -91 751 415 
Q 353 922 353 1747 
Q 353 2572 751 3078 
Q 1150 3584 1784 3584 
Q 2172 3584 2448 3432 
Q 2725 3281 2906 2969 
z
M 947 1747 
Q 947 1113 1208 752 
Q 1469 391 1925 391 
Q 2381 391 2643 752 
Q 2906 1113 2906 1747 
Q 2906 2381 2643 2742 
Q 2381 3103 1925 3103 
Q 1469 3103 1208 2742 
Q 947 2381 947 1747 
z
" transform="scale(0.015625)"/>
      <path id="DejaVuSans-6e" d="M 3513 2113 
L 3513 0 
L 2938 0 
L 2938 2094 
Q 2938 2591 2744 2837 
Q 2550 3084 2163 3084 
Q 1697 3084 1428 2787 
Q 1159 2491 1159 1978 
L 1159 0 
L 581 0 
L 581 3500 
L 1159 3500 
L 1159 2956 
Q 1366 3272 1645 3428 
Q 1925 3584 2291 3584 
Q 2894 3584 3203 3211 
Q 3513 2838 3513 2113 
z
" transform="scale(0.015625)"/>
      <path id="DejaVuSans-33" d="M 2597 2516 
Q 3050 2419 3304 2112 
Q 3559 1806 3559 1356 
Q 3559 666 3084 287 
Q 2609 -91 1734 -91 
Q 1441 -91 1130 -33 
Q 819 25 488 141 
L 488 750 
Q 750 597 1062 519 
Q 1375 441 1716 441 
Q 2309 441 2620 675 
Q 2931 909 2931 1356 
Q 2931 1769 2642 2001 
Q 2353 2234 1838 2234 
L 1294 2234 
L 1294 2753 
L 1863 2753 
Q 2328 2753 2575 2939 
Q 2822 3125 2822 3475 
Q 2822 3834 2567 4026 
Q 2313 4219 1838 4219 
Q 1578 4219 1281 4162 
Q 984 4106 628 3988 
L 628 4550 
Q 988 4650 1302 4700 
Q 1616 4750 1894 4750 
Q 2613 4750 3031 4423 
Q 3450 4097 3450 3541 
Q 3450 3153 3228 2886 
Q 3006 2619 2597 2516 
z
" transform="scale(0.015625)"/>
      <path id="DejaVuSans-30" d="M 2034 4250 
Q 1547 4250 1301 3770 
Q 1056 3291 1056 2328 
Q 1056 1369 1301 889 
Q 1547 409 2034 409 
Q 2525 409 2770 889 
Q 3016 1369 3016 2328 
Q 3016 3291 2770 3770 
Q 2525 4250 2034 4250 
z
M 2034 4750 
Q 2819 4750 3233 4129 
Q 3647 3509 3647 2328 
Q 3647 1150 3233 529 
Q 2819 -91 2034 -91 
Q 1250 -91 836 529 
Q 422 1150 422 2328 
Q 422 3509 836 4129 
Q 1250 4750 2034 4750 
z
" transform="scale(0.015625)"/>
      <path id="DejaVuSans-63" d="M 3122 3366 
L 3122 2828 
Q 2878 2963 2633 3030 
Q 2388 3097 2138 3097 
Q 1578 3097 1268 2742 
Q 959 2388 959 1747 
Q 959 1106 1268 751 
Q 1578 397 2138 397 
Q 2388 397 2633 464 
Q 2878 531 3122 666 
L 3122 134 
Q 2881 22 2623 -34 
Q 2366 -91 2075 -91 
Q 1284 -91 818 406 
Q 353 903 353 1747 
Q 353 2603 823 3093 
Q 1294 3584 2113 3584 
Q 2378 3584 2631 3529 
Q 2884 3475 3122 3366 
z
" transform="scale(0.015625)"/>
      <path id="DejaVuSans-6d" d="M 3328 2828 
Q 3544 3216 3844 3400 
Q 4144 3584 4550 3584 
Q 5097 3584 5394 3201 
Q 5691 2819 5691 2113 
L 5691 0 
L 5113 0 
L 5113 2094 
Q 5113 2597 4934 2840 
Q 4756 3084 4391 3084 
Q 3944 3084 3684 2787 
Q 3425 2491 3425 1978 
L 3425 0 
L 2847 0 
L 2847 2094 
Q 2847 2600 2669 2842 
Q 2491 3084 2119 3084 
Q 1678 3084 1418 2786 
Q 1159 2488 1159 1978 
L 1159 0 
L 581 0 
L 581 3500 
L 1159 3500 
L 1159 2956 
Q 1356 3278 1631 3431 
Q 1906 3584 2284 3584 
Q 2666 3584 2933 3390 
Q 3200 3197 3328 2828 
z
" transform="scale(0.015625)"/>
      <path id="DejaVuSans-62" d="M 3116 1747 
Q 3116 2381 2855 2742 
Q 2594 3103 2138 3103 
Q 1681 3103 1420 2742 
Q 1159 2381 1159 1747 
Q 1159 1113 1420 752 
Q 1681 391 2138 391 
Q 2594 391 2855 752 
Q 3116 1113 3116 1747 
z
M 1159 2969 
Q 1341 3281 1617 3432 
Q 1894 3584 2278 3584 
Q 2916 3584 3314 3078 
Q 3713 2572 3713 1747 
Q 3713 922 3314 415 
Q 2916 -91 2278 -91 
Q 1894 -91 1617 61 
Q 1341 213 1159 525 
L 1159 0 
L 581 0 
L 581 4863 
L 1159 4863 
L 1159 2969 
z
" transform="scale(0.015625)"/>
      <path id="DejaVuSans-72" d="M 2631 2963 
Q 2534 3019 2420 3045 
Q 2306 3072 2169 3072 
Q 1681 3072 1420 2755 
Q 1159 2438 1159 1844 
L 1159 0 
L 581 0 
L 581 3500 
L 1159 3500 
L 1159 2956 
Q 1341 3275 1631 3429 
Q 1922 3584 2338 3584 
Q 2397 3584 2469 3576 
Q 2541 3569 2628 3553 
L 2631 2963 
z
" transform="scale(0.015625)"/>
      <path id="DejaVuSans-32" d="M 1228 531 
L 3431 531 
L 3431 0 
L 469 0 
L 469 531 
Q 828 903 1448 1529 
Q 2069 2156 2228 2338 
Q 2531 2678 2651 2914 
Q 2772 3150 2772 3378 
Q 2772 3750 2511 3984 
Q 2250 4219 1831 4219 
Q 1534 4219 1204 4116 
Q 875 4013 500 3803 
L 500 4441 
Q 881 4594 1212 4672 
Q 1544 4750 1819 4750 
Q 2544 4750 2975 4387 
Q 3406 4025 3406 3419 
Q 3406 3131 3298 2873 
Q 3191 2616 2906 2266 
Q 2828 2175 2409 1742 
Q 1991 1309 1228 531 
z
" transform="scale(0.015625)"/>
     </defs>
     <use xlink:href="#DejaVuSans-50"/>
     <use xlink:href="#DejaVuSans-6f" x="56.677734"/>
     <use xlink:href="#DejaVuSans-73" x="117.859375"/>
     <use xlink:href="#DejaVuSans-69" x="169.958984"/>
     <use xlink:href="#DejaVuSans-74" x="197.742188"/>
     <use xlink:href="#DejaVuSans-69" x="236.951172"/>
     <use xlink:href="#DejaVuSans-76" x="264.734375"/>
     <use xlink:href="#DejaVuSans-65" x="323.914062"/>
     <use xlink:href="#DejaVuSans-20" x="385.4375"/>
     <use xlink:href="#DejaVuSans-43" x="417.224609"/>
     <use xlink:href="#DejaVuSans-4f" x="487.048828"/>
     <use xlink:href="#DejaVuSans-56" x="564.009766"/>
     <use xlink:href="#DejaVuSans-49" x="632.417969"/>
     <use xlink:href="#DejaVuSans-44" x="661.910156"/>
     <use xlink:href="#DejaVuSans-2d" x="738.912109"/>
     <use xlink:href="#DejaVuSans-31" x="774.996094"/>
     <use xlink:href="#DejaVuSans-39" x="838.619141"/>
     <use xlink:href="#DejaVuSans-20" x="902.242188"/>
     <use xlink:href="#DejaVuSans-74" x="934.029297"/>
     <use xlink:href="#DejaVuSans-65" x="973.238281"/>
     <use xlink:href="#DejaVuSans-73" x="1034.761719"/>
     <use xlink:href="#DejaVuSans-74" x="1086.861328"/>
     <use xlink:href="#DejaVuSans-73" x="1126.070312"/>
     <use xlink:href="#DejaVuSans-20" x="1178.169922"/>
     <use xlink:href="#DejaVuSans-2d" x="1209.957031"/>
     <use xlink:href="#DejaVuSans-20" x="1246.041016"/>
     <use xlink:href="#DejaVuSans-6c" x="1277.828125"/>
     <use xlink:href="#DejaVuSans-61" x="1305.611328"/>
     <use xlink:href="#DejaVuSans-73" x="1366.890625"/>
     <use xlink:href="#DejaVuSans-74" x="1418.990234"/>
     <use xlink:href="#DejaVuSans-20" x="1458.199219"/>
     <use xlink:href="#DejaVuSans-75" x="1489.986328"/>
     <use xlink:href="#DejaVuSans-70" x="1553.365234"/>
     <use xlink:href="#DejaVuSans-64" x="1616.841797"/>
     <use xlink:href="#DejaVuSans-61" x="1680.318359"/>
     <use xlink:href="#DejaVuSans-74" x="1741.597656"/>
     <use xlink:href="#DejaVuSans-65" x="1780.806641"/>
     <use xlink:href="#DejaVuSans-64" x="1842.330078"/>
     <use xlink:href="#DejaVuSans-20" x="1905.806641"/>
     <use xlink:href="#DejaVuSans-6f" x="1937.59375"/>
     <use xlink:href="#DejaVuSans-6e" x="1998.775391"/>
     <use xlink:href="#DejaVuSans-20" x="2062.154297"/>
     <use xlink:href="#DejaVuSans-33" x="2093.941406"/>
     <use xlink:href="#DejaVuSans-30" x="2157.564453"/>
     <use xlink:href="#DejaVuSans-20" x="2221.1875"/>
     <use xlink:href="#DejaVuSans-44" x="2252.974609"/>
     <use xlink:href="#DejaVuSans-65" x="2329.976562"/>
     <use xlink:href="#DejaVuSans-63" x="2391.5"/>
     <use xlink:href="#DejaVuSans-65" x="2446.480469"/>
     <use xlink:href="#DejaVuSans-6d" x="2508.003906"/>
     <use xlink:href="#DejaVuSans-62" x="2605.416016"/>
     <use xlink:href="#DejaVuSans-65" x="2668.892578"/>
     <use xlink:href="#DejaVuSans-72" x="2730.416016"/>
     <use xlink:href="#DejaVuSans-20" x="2771.529297"/>
     <use xlink:href="#DejaVuSans-32" x="2803.316406"/>
     <use xlink:href="#DejaVuSans-30" x="2866.939453"/>
     <use xlink:href="#DejaVuSans-32" x="2930.5625"/>
     <use xlink:href="#DejaVuSans-31" x="2994.185547"/>
    </g>
   </g>
   <g id="legend_1">
    <g id="line2d_32">
     <path d="M 99.65 54.747969 
L 112.65 54.747969 
L 125.65 54.747969 
" style="fill: none; stroke-dasharray: 1.5,2.475; stroke-dashoffset: 0; stroke: #000000; stroke-opacity: 0.5; stroke-width: 1.5"/>
    </g>
    <g id="text_32">
     <!-- Actual -->
     <g style="fill: #555555" transform="translate(136.05 59.297969)scale(0.13 -0.13)">
      <use xlink:href="#DejaVuSans-Bold-41"/>
      <use xlink:href="#DejaVuSans-Bold-63" x="77.392578"/>
      <use xlink:href="#DejaVuSans-Bold-74" x="136.669922"/>
      <use xlink:href="#DejaVuSans-Bold-75" x="184.472656"/>
      <use xlink:href="#DejaVuSans-Bold-61" x="255.664062"/>
      <use xlink:href="#DejaVuSans-Bold-6c" x="323.144531"/>
     </g>
    </g>
    <g id="line2d_33">
     <path d="M 99.65 73.829531 
L 112.65 73.829531 
L 125.65 73.829531 
" style="fill: none; stroke: #000000; stroke-width: 1.5; stroke-linecap: square"/>
    </g>
    <g id="text_33">
     <!-- Smoothed -->
     <g style="fill: #555555" transform="translate(136.05 78.379531)scale(0.13 -0.13)">
      <defs>
       <path id="DejaVuSans-Bold-6d" d="M 3781 2919 
Q 3994 3244 4286 3414 
Q 4578 3584 4928 3584 
Q 5531 3584 5847 3212 
Q 6163 2841 6163 2131 
L 6163 0 
L 5038 0 
L 5038 1825 
Q 5041 1866 5042 1909 
Q 5044 1953 5044 2034 
Q 5044 2406 4934 2573 
Q 4825 2741 4581 2741 
Q 4263 2741 4089 2478 
Q 3916 2216 3909 1719 
L 3909 0 
L 2784 0 
L 2784 1825 
Q 2784 2406 2684 2573 
Q 2584 2741 2328 2741 
Q 2006 2741 1831 2477 
Q 1656 2213 1656 1722 
L 1656 0 
L 531 0 
L 531 3500 
L 1656 3500 
L 1656 2988 
Q 1863 3284 2130 3434 
Q 2397 3584 2719 3584 
Q 3081 3584 3359 3409 
Q 3638 3234 3781 2919 
z
" transform="scale(0.015625)"/>
       <path id="DejaVuSans-Bold-68" d="M 4056 2131 
L 4056 0 
L 2931 0 
L 2931 347 
L 2931 1625 
Q 2931 2084 2911 2256 
Q 2891 2428 2841 2509 
Q 2775 2619 2662 2680 
Q 2550 2741 2406 2741 
Q 2056 2741 1856 2470 
Q 1656 2200 1656 1722 
L 1656 0 
L 538 0 
L 538 4863 
L 1656 4863 
L 1656 2988 
Q 1909 3294 2193 3439 
Q 2478 3584 2822 3584 
Q 3428 3584 3742 3212 
Q 4056 2841 4056 2131 
z
" transform="scale(0.015625)"/>
       <path id="DejaVuSans-Bold-64" d="M 2919 2988 
L 2919 4863 
L 4044 4863 
L 4044 0 
L 2919 0 
L 2919 506 
Q 2688 197 2409 53 
Q 2131 -91 1766 -91 
Q 1119 -91 703 423 
Q 288 938 288 1747 
Q 288 2556 703 3070 
Q 1119 3584 1766 3584 
Q 2128 3584 2408 3439 
Q 2688 3294 2919 2988 
z
M 2181 722 
Q 2541 722 2730 984 
Q 2919 1247 2919 1747 
Q 2919 2247 2730 2509 
Q 2541 2772 2181 2772 
Q 1825 2772 1636 2509 
Q 1447 2247 1447 1747 
Q 1447 1247 1636 984 
Q 1825 722 2181 722 
z
" transform="scale(0.015625)"/>
      </defs>
      <use xlink:href="#DejaVuSans-Bold-53"/>
      <use xlink:href="#DejaVuSans-Bold-6d" x="72.021484"/>
      <use xlink:href="#DejaVuSans-Bold-6f" x="176.220703"/>
      <use xlink:href="#DejaVuSans-Bold-6f" x="244.921875"/>
      <use xlink:href="#DejaVuSans-Bold-74" x="313.623047"/>
      <use xlink:href="#DejaVuSans-Bold-68" x="361.425781"/>
      <use xlink:href="#DejaVuSans-Bold-65" x="432.617188"/>
      <use xlink:href="#DejaVuSans-Bold-64" x="500.439453"/>
     </g>
    </g>
   </g>
  </g>
 </g>
 <defs>
  <clipPath id="p46e06fdf87">
   <rect x="87.95" y="37.72" width="1035.944469" height="503.56"/>
  </clipPath>
 </defs>
</svg>
