<?xml version="1.0" encoding="utf-8" standalone="no"?>
<!DOCTYPE svg PUBLIC "-//W3C//DTD SVG 1.1//EN"
  "http://www.w3.org/Graphics/SVG/1.1/DTD/svg11.dtd">
<svg xmlns:xlink="http://www.w3.org/1999/xlink" width="1152pt" height="576pt" viewBox="0 0 1152 576" xmlns="http://www.w3.org/2000/svg" version="1.1">
 <metadata>
  <rdf:RDF xmlns:dc="http://purl.org/dc/elements/1.1/" xmlns:cc="http://creativecommons.org/ns#" xmlns:rdf="http://www.w3.org/1999/02/22-rdf-syntax-ns#">
   <cc:Work>
    <dc:type rdf:resource="http://purl.org/dc/dcmitype/StillImage"/>
    <dc:date>2022-01-15T15:29:22.772816</dc:date>
    <dc:format>image/svg+xml</dc:format>
    <dc:creator>
     <cc:Agent>
      <dc:title>Matplotlib v3.5.1, https://matplotlib.org/</dc:title>
     </cc:Agent>
    </dc:creator>
   </cc:Work>
  </rdf:RDF>
 </metadata>
 <defs>
  <style type="text/css">*{stroke-linejoin: round; stroke-linecap: butt}</style>
 </defs>
 <g id="figure_1">
  <g id="patch_1">
   <path d="M 0 576 
L 1152 576 
L 1152 0 
L 0 0 
z
" style="fill: #ffffff"/>
  </g>
  <g id="axes_1">
   <g id="patch_2">
    <path d="M 87.95 541.28 
L 1137.96 541.28 
L 1137.96 37.72 
L 87.95 37.72 
z
" style="fill: #ffffff"/>
   </g>
   <g id="matplotlib.axis_1">
    <g id="xtick_1">
     <g id="line2d_1">
      <defs>
       <path id="mdd9611c162" d="M 0 0 
L 0 3.5 
" style="stroke: #555555; stroke-width: 0.8"/>
      </defs>
      <g>
       <use xlink:href="#mdd9611c162" x="87.95" y="541.28" style="fill: #555555; stroke: #555555; stroke-width: 0.8"/>
      </g>
     </g>
     <g id="text_1">
      <!-- Feb -->
      <g style="fill: #555555" transform="translate(73.689688 558.917812)scale(0.14 -0.14)">
       <defs>
        <path id="DejaVuSans-Bold-46" d="M 588 4666 
L 3834 4666 
L 3834 3756 
L 1791 3756 
L 1791 2888 
L 3713 2888 
L 3713 1978 
L 1791 1978 
L 1791 0 
L 588 0 
L 588 4666 
z
" transform="scale(0.015625)"/>
        <path id="DejaVuSans-Bold-65" d="M 4031 1759 
L 4031 1441 
L 1416 1441 
Q 1456 1047 1700 850 
Q 1944 653 2381 653 
Q 2734 653 3104 758 
Q 3475 863 3866 1075 
L 3866 213 
Q 3469 63 3072 -14 
Q 2675 -91 2278 -91 
Q 1328 -91 801 392 
Q 275 875 275 1747 
Q 275 2603 792 3093 
Q 1309 3584 2216 3584 
Q 3041 3584 3536 3087 
Q 4031 2591 4031 1759 
z
M 2881 2131 
Q 2881 2450 2695 2645 
Q 2509 2841 2209 2841 
Q 1884 2841 1681 2658 
Q 1478 2475 1428 2131 
L 2881 2131 
z
" transform="scale(0.015625)"/>
        <path id="DejaVuSans-Bold-62" d="M 2400 722 
Q 2759 722 2948 984 
Q 3138 1247 3138 1747 
Q 3138 2247 2948 2509 
Q 2759 2772 2400 2772 
Q 2041 2772 1848 2508 
Q 1656 2244 1656 1747 
Q 1656 1250 1848 986 
Q 2041 722 2400 722 
z
M 1656 2988 
Q 1888 3294 2169 3439 
Q 2450 3584 2816 3584 
Q 3463 3584 3878 3070 
Q 4294 2556 4294 1747 
Q 4294 938 3878 423 
Q 3463 -91 2816 -91 
Q 2450 -91 2169 54 
Q 1888 200 1656 506 
L 1656 0 
L 538 0 
L 538 4863 
L 1656 4863 
L 1656 2988 
z
" transform="scale(0.015625)"/>
       </defs>
       <use xlink:href="#DejaVuSans-Bold-46"/>
       <use xlink:href="#DejaVuSans-Bold-65" x="64.310547"/>
       <use xlink:href="#DejaVuSans-Bold-62" x="132.132812"/>
      </g>
     </g>
    </g>
    <g id="xtick_2">
     <g id="line2d_2">
      <g>
       <use xlink:href="#mdd9611c162" x="128.658944" y="541.28" style="fill: #555555; stroke: #555555; stroke-width: 0.8"/>
      </g>
     </g>
     <g id="text_2">
      <!-- Mar -->
      <g style="fill: #555555" transform="translate(113.517069 558.917812)scale(0.14 -0.14)">
       <defs>
        <path id="DejaVuSans-Bold-4d" d="M 588 4666 
L 2119 4666 
L 3181 2169 
L 4250 4666 
L 5778 4666 
L 5778 0 
L 4641 0 
L 4641 3413 
L 3566 897 
L 2803 897 
L 1728 3413 
L 1728 0 
L 588 0 
L 588 4666 
z
" transform="scale(0.015625)"/>
        <path id="DejaVuSans-Bold-61" d="M 2106 1575 
Q 1756 1575 1579 1456 
Q 1403 1338 1403 1106 
Q 1403 894 1545 773 
Q 1688 653 1941 653 
Q 2256 653 2472 879 
Q 2688 1106 2688 1447 
L 2688 1575 
L 2106 1575 
z
M 3816 1997 
L 3816 0 
L 2688 0 
L 2688 519 
Q 2463 200 2181 54 
Q 1900 -91 1497 -91 
Q 953 -91 614 226 
Q 275 544 275 1050 
Q 275 1666 698 1953 
Q 1122 2241 2028 2241 
L 2688 2241 
L 2688 2328 
Q 2688 2594 2478 2717 
Q 2269 2841 1825 2841 
Q 1466 2841 1156 2769 
Q 847 2697 581 2553 
L 581 3406 
Q 941 3494 1303 3539 
Q 1666 3584 2028 3584 
Q 2975 3584 3395 3211 
Q 3816 2838 3816 1997 
z
" transform="scale(0.015625)"/>
        <path id="DejaVuSans-Bold-72" d="M 3138 2547 
Q 2991 2616 2845 2648 
Q 2700 2681 2553 2681 
Q 2122 2681 1889 2404 
Q 1656 2128 1656 1613 
L 1656 0 
L 538 0 
L 538 3500 
L 1656 3500 
L 1656 2925 
Q 1872 3269 2151 3426 
Q 2431 3584 2822 3584 
Q 2878 3584 2943 3579 
Q 3009 3575 3134 3559 
L 3138 2547 
z
" transform="scale(0.015625)"/>
       </defs>
       <use xlink:href="#DejaVuSans-Bold-4d"/>
       <use xlink:href="#DejaVuSans-Bold-61" x="99.511719"/>
       <use xlink:href="#DejaVuSans-Bold-72" x="166.992188"/>
      </g>
     </g>
    </g>
    <g id="xtick_3">
     <g id="line2d_3">
      <g>
       <use xlink:href="#mdd9611c162" x="172.175401" y="541.28" style="fill: #555555; stroke: #555555; stroke-width: 0.8"/>
      </g>
     </g>
     <g id="text_3">
      <!-- Apr -->
      <g style="fill: #555555" transform="translate(158.295714 558.917812)scale(0.14 -0.14)">
       <defs>
        <path id="DejaVuSans-Bold-41" d="M 3419 850 
L 1538 850 
L 1241 0 
L 31 0 
L 1759 4666 
L 3194 4666 
L 4922 0 
L 3713 0 
L 3419 850 
z
M 1838 1716 
L 3116 1716 
L 2478 3572 
L 1838 1716 
z
" transform="scale(0.015625)"/>
        <path id="DejaVuSans-Bold-70" d="M 1656 506 
L 1656 -1331 
L 538 -1331 
L 538 3500 
L 1656 3500 
L 1656 2988 
Q 1888 3294 2169 3439 
Q 2450 3584 2816 3584 
Q 3463 3584 3878 3070 
Q 4294 2556 4294 1747 
Q 4294 938 3878 423 
Q 3463 -91 2816 -91 
Q 2450 -91 2169 54 
Q 1888 200 1656 506 
z
M 2400 2772 
Q 2041 2772 1848 2508 
Q 1656 2244 1656 1747 
Q 1656 1250 1848 986 
Q 2041 722 2400 722 
Q 2759 722 2948 984 
Q 3138 1247 3138 1747 
Q 3138 2247 2948 2509 
Q 2759 2772 2400 2772 
z
" transform="scale(0.015625)"/>
       </defs>
       <use xlink:href="#DejaVuSans-Bold-41"/>
       <use xlink:href="#DejaVuSans-Bold-70" x="77.392578"/>
       <use xlink:href="#DejaVuSans-Bold-72" x="148.974609"/>
      </g>
     </g>
    </g>
    <g id="xtick_4">
     <g id="line2d_4">
      <g>
       <use xlink:href="#mdd9611c162" x="214.288102" y="541.28" style="fill: #555555; stroke: #555555; stroke-width: 0.8"/>
      </g>
     </g>
     <g id="text_4">
      <!-- May -->
      <g style="fill: #555555" transform="translate(198.253727 558.808437)scale(0.14 -0.14)">
       <defs>
        <path id="DejaVuSans-Bold-79" d="M 78 3500 
L 1197 3500 
L 2138 1125 
L 2938 3500 
L 4056 3500 
L 2584 -331 
Q 2363 -916 2067 -1148 
Q 1772 -1381 1288 -1381 
L 641 -1381 
L 641 -647 
L 991 -647 
Q 1275 -647 1404 -556 
Q 1534 -466 1606 -231 
L 1638 -134 
L 78 3500 
z
" transform="scale(0.015625)"/>
       </defs>
       <use xlink:href="#DejaVuSans-Bold-4d"/>
       <use xlink:href="#DejaVuSans-Bold-61" x="99.511719"/>
       <use xlink:href="#DejaVuSans-Bold-79" x="163.867188"/>
      </g>
     </g>
    </g>
    <g id="xtick_5">
     <g id="line2d_5">
      <g>
       <use xlink:href="#mdd9611c162" x="257.804559" y="541.28" style="fill: #555555; stroke: #555555; stroke-width: 0.8"/>
      </g>
     </g>
     <g id="text_5">
      <!-- Jun -->
      <g style="fill: #555555" transform="translate(245.23409 558.917812)scale(0.14 -0.14)">
       <defs>
        <path id="DejaVuSans-Bold-4a" d="M 588 4666 
L 1791 4666 
L 1791 453 
Q 1791 -419 1317 -850 
Q 844 -1281 -116 -1281 
L -359 -1281 
L -359 -372 
L -172 -372 
Q 203 -372 395 -162 
Q 588 47 588 453 
L 588 4666 
z
" transform="scale(0.015625)"/>
        <path id="DejaVuSans-Bold-75" d="M 500 1363 
L 500 3500 
L 1625 3500 
L 1625 3150 
Q 1625 2866 1622 2436 
Q 1619 2006 1619 1863 
Q 1619 1441 1641 1255 
Q 1663 1069 1716 984 
Q 1784 875 1895 815 
Q 2006 756 2150 756 
Q 2500 756 2700 1025 
Q 2900 1294 2900 1772 
L 2900 3500 
L 4019 3500 
L 4019 0 
L 2900 0 
L 2900 506 
Q 2647 200 2364 54 
Q 2081 -91 1741 -91 
Q 1134 -91 817 281 
Q 500 653 500 1363 
z
" transform="scale(0.015625)"/>
        <path id="DejaVuSans-Bold-6e" d="M 4056 2131 
L 4056 0 
L 2931 0 
L 2931 347 
L 2931 1631 
Q 2931 2084 2911 2256 
Q 2891 2428 2841 2509 
Q 2775 2619 2662 2680 
Q 2550 2741 2406 2741 
Q 2056 2741 1856 2470 
Q 1656 2200 1656 1722 
L 1656 0 
L 538 0 
L 538 3500 
L 1656 3500 
L 1656 2988 
Q 1909 3294 2193 3439 
Q 2478 3584 2822 3584 
Q 3428 3584 3742 3212 
Q 4056 2841 4056 2131 
z
" transform="scale(0.015625)"/>
       </defs>
       <use xlink:href="#DejaVuSans-Bold-4a"/>
       <use xlink:href="#DejaVuSans-Bold-75" x="37.207031"/>
       <use xlink:href="#DejaVuSans-Bold-6e" x="108.398438"/>
      </g>
     </g>
    </g>
    <g id="xtick_6">
     <g id="line2d_6">
      <g>
       <use xlink:href="#mdd9611c162" x="299.917259" y="541.28" style="fill: #555555; stroke: #555555; stroke-width: 0.8"/>
      </g>
     </g>
     <g id="text_6">
      <!-- Jul -->
      <g style="fill: #555555" transform="translate(289.930228 558.917812)scale(0.14 -0.14)">
       <defs>
        <path id="DejaVuSans-Bold-6c" d="M 538 4863 
L 1656 4863 
L 1656 0 
L 538 0 
L 538 4863 
z
" transform="scale(0.015625)"/>
       </defs>
       <use xlink:href="#DejaVuSans-Bold-4a"/>
       <use xlink:href="#DejaVuSans-Bold-75" x="37.207031"/>
       <use xlink:href="#DejaVuSans-Bold-6c" x="108.398438"/>
      </g>
     </g>
    </g>
    <g id="xtick_7">
     <g id="line2d_7">
      <g>
       <use xlink:href="#mdd9611c162" x="343.433717" y="541.28" style="fill: #555555; stroke: #555555; stroke-width: 0.8"/>
      </g>
     </g>
     <g id="text_7">
      <!-- Aug -->
      <g style="fill: #555555" transform="translate(328.022779 558.808437)scale(0.14 -0.14)">
       <defs>
        <path id="DejaVuSans-Bold-67" d="M 2919 594 
Q 2688 288 2409 144 
Q 2131 0 1766 0 
Q 1125 0 706 504 
Q 288 1009 288 1791 
Q 288 2575 706 3076 
Q 1125 3578 1766 3578 
Q 2131 3578 2409 3434 
Q 2688 3291 2919 2981 
L 2919 3500 
L 4044 3500 
L 4044 353 
Q 4044 -491 3511 -936 
Q 2978 -1381 1966 -1381 
Q 1638 -1381 1331 -1331 
Q 1025 -1281 716 -1178 
L 716 -306 
Q 1009 -475 1290 -558 
Q 1572 -641 1856 -641 
Q 2406 -641 2662 -400 
Q 2919 -159 2919 353 
L 2919 594 
z
M 2181 2772 
Q 1834 2772 1640 2515 
Q 1447 2259 1447 1791 
Q 1447 1309 1634 1061 
Q 1822 813 2181 813 
Q 2531 813 2725 1069 
Q 2919 1325 2919 1791 
Q 2919 2259 2725 2515 
Q 2531 2772 2181 2772 
z
" transform="scale(0.015625)"/>
       </defs>
       <use xlink:href="#DejaVuSans-Bold-41"/>
       <use xlink:href="#DejaVuSans-Bold-75" x="77.392578"/>
       <use xlink:href="#DejaVuSans-Bold-67" x="148.583984"/>
      </g>
     </g>
    </g>
    <g id="xtick_8">
     <g id="line2d_8">
      <g>
       <use xlink:href="#mdd9611c162" x="386.950174" y="541.28" style="fill: #555555; stroke: #555555; stroke-width: 0.8"/>
      </g>
     </g>
     <g id="text_8">
      <!-- Sep -->
      <g style="fill: #555555" transform="translate(372.150643 558.917812)scale(0.14 -0.14)">
       <defs>
        <path id="DejaVuSans-Bold-53" d="M 3834 4519 
L 3834 3531 
Q 3450 3703 3084 3790 
Q 2719 3878 2394 3878 
Q 1963 3878 1756 3759 
Q 1550 3641 1550 3391 
Q 1550 3203 1689 3098 
Q 1828 2994 2194 2919 
L 2706 2816 
Q 3484 2659 3812 2340 
Q 4141 2022 4141 1434 
Q 4141 663 3683 286 
Q 3225 -91 2284 -91 
Q 1841 -91 1394 -6 
Q 947 78 500 244 
L 500 1259 
Q 947 1022 1364 901 
Q 1781 781 2169 781 
Q 2563 781 2772 912 
Q 2981 1044 2981 1288 
Q 2981 1506 2839 1625 
Q 2697 1744 2272 1838 
L 1806 1941 
Q 1106 2091 782 2419 
Q 459 2747 459 3303 
Q 459 4000 909 4375 
Q 1359 4750 2203 4750 
Q 2588 4750 2994 4692 
Q 3400 4634 3834 4519 
z
" transform="scale(0.015625)"/>
       </defs>
       <use xlink:href="#DejaVuSans-Bold-53"/>
       <use xlink:href="#DejaVuSans-Bold-65" x="72.021484"/>
       <use xlink:href="#DejaVuSans-Bold-70" x="139.84375"/>
      </g>
     </g>
    </g>
    <g id="xtick_9">
     <g id="line2d_9">
      <g>
       <use xlink:href="#mdd9611c162" x="429.062874" y="541.28" style="fill: #555555; stroke: #555555; stroke-width: 0.8"/>
      </g>
     </g>
     <g id="text_9">
      <!-- Oct -->
      <g style="fill: #555555" transform="translate(415.616312 558.917812)scale(0.14 -0.14)">
       <defs>
        <path id="DejaVuSans-Bold-4f" d="M 2719 3878 
Q 2169 3878 1866 3472 
Q 1563 3066 1563 2328 
Q 1563 1594 1866 1187 
Q 2169 781 2719 781 
Q 3272 781 3575 1187 
Q 3878 1594 3878 2328 
Q 3878 3066 3575 3472 
Q 3272 3878 2719 3878 
z
M 2719 4750 
Q 3844 4750 4481 4106 
Q 5119 3463 5119 2328 
Q 5119 1197 4481 553 
Q 3844 -91 2719 -91 
Q 1597 -91 958 553 
Q 319 1197 319 2328 
Q 319 3463 958 4106 
Q 1597 4750 2719 4750 
z
" transform="scale(0.015625)"/>
        <path id="DejaVuSans-Bold-63" d="M 3366 3391 
L 3366 2478 
Q 3138 2634 2908 2709 
Q 2678 2784 2431 2784 
Q 1963 2784 1702 2511 
Q 1441 2238 1441 1747 
Q 1441 1256 1702 982 
Q 1963 709 2431 709 
Q 2694 709 2930 787 
Q 3166 866 3366 1019 
L 3366 103 
Q 3103 6 2833 -42 
Q 2563 -91 2291 -91 
Q 1344 -91 809 395 
Q 275 881 275 1747 
Q 275 2613 809 3098 
Q 1344 3584 2291 3584 
Q 2566 3584 2833 3536 
Q 3100 3488 3366 3391 
z
" transform="scale(0.015625)"/>
        <path id="DejaVuSans-Bold-74" d="M 1759 4494 
L 1759 3500 
L 2913 3500 
L 2913 2700 
L 1759 2700 
L 1759 1216 
Q 1759 972 1856 886 
Q 1953 800 2241 800 
L 2816 800 
L 2816 0 
L 1856 0 
Q 1194 0 917 276 
Q 641 553 641 1216 
L 641 2700 
L 84 2700 
L 84 3500 
L 641 3500 
L 641 4494 
L 1759 4494 
z
" transform="scale(0.015625)"/>
       </defs>
       <use xlink:href="#DejaVuSans-Bold-4f"/>
       <use xlink:href="#DejaVuSans-Bold-63" x="85.009766"/>
       <use xlink:href="#DejaVuSans-Bold-74" x="144.287109"/>
      </g>
     </g>
    </g>
    <g id="xtick_10">
     <g id="line2d_10">
      <g>
       <use xlink:href="#mdd9611c162" x="472.579332" y="541.28" style="fill: #555555; stroke: #555555; stroke-width: 0.8"/>
      </g>
     </g>
     <g id="text_10">
      <!-- Nov -->
      <g style="fill: #555555" transform="translate(457.348863 558.917812)scale(0.14 -0.14)">
       <defs>
        <path id="DejaVuSans-Bold-4e" d="M 588 4666 
L 1931 4666 
L 3628 1466 
L 3628 4666 
L 4769 4666 
L 4769 0 
L 3425 0 
L 1728 3200 
L 1728 0 
L 588 0 
L 588 4666 
z
" transform="scale(0.015625)"/>
        <path id="DejaVuSans-Bold-6f" d="M 2203 2784 
Q 1831 2784 1636 2517 
Q 1441 2250 1441 1747 
Q 1441 1244 1636 976 
Q 1831 709 2203 709 
Q 2569 709 2762 976 
Q 2956 1244 2956 1747 
Q 2956 2250 2762 2517 
Q 2569 2784 2203 2784 
z
M 2203 3584 
Q 3106 3584 3614 3096 
Q 4122 2609 4122 1747 
Q 4122 884 3614 396 
Q 3106 -91 2203 -91 
Q 1297 -91 786 396 
Q 275 884 275 1747 
Q 275 2609 786 3096 
Q 1297 3584 2203 3584 
z
" transform="scale(0.015625)"/>
        <path id="DejaVuSans-Bold-76" d="M 97 3500 
L 1216 3500 
L 2088 1081 
L 2956 3500 
L 4078 3500 
L 2700 0 
L 1472 0 
L 97 3500 
z
" transform="scale(0.015625)"/>
       </defs>
       <use xlink:href="#DejaVuSans-Bold-4e"/>
       <use xlink:href="#DejaVuSans-Bold-6f" x="83.691406"/>
       <use xlink:href="#DejaVuSans-Bold-76" x="152.392578"/>
      </g>
     </g>
    </g>
    <g id="xtick_11">
     <g id="line2d_11">
      <g>
       <use xlink:href="#mdd9611c162" x="514.692032" y="541.28" style="fill: #555555; stroke: #555555; stroke-width: 0.8"/>
      </g>
     </g>
     <g id="text_11">
      <!-- Dec -->
      <g style="fill: #555555" transform="translate(499.983282 558.917812)scale(0.14 -0.14)">
       <defs>
        <path id="DejaVuSans-Bold-44" d="M 1791 3756 
L 1791 909 
L 2222 909 
Q 2959 909 3348 1275 
Q 3738 1641 3738 2338 
Q 3738 3031 3350 3393 
Q 2963 3756 2222 3756 
L 1791 3756 
z
M 588 4666 
L 1856 4666 
Q 2919 4666 3439 4514 
Q 3959 4363 4331 4000 
Q 4659 3684 4818 3271 
Q 4978 2859 4978 2338 
Q 4978 1809 4818 1395 
Q 4659 981 4331 666 
Q 3956 303 3431 151 
Q 2906 0 1856 0 
L 588 0 
L 588 4666 
z
" transform="scale(0.015625)"/>
       </defs>
       <use xlink:href="#DejaVuSans-Bold-44"/>
       <use xlink:href="#DejaVuSans-Bold-65" x="83.007812"/>
       <use xlink:href="#DejaVuSans-Bold-63" x="150.830078"/>
      </g>
     </g>
    </g>
    <g id="xtick_12">
     <g id="line2d_12">
      <g>
       <use xlink:href="#mdd9611c162" x="558.208489" y="541.28" style="fill: #555555; stroke: #555555; stroke-width: 0.8"/>
      </g>
     </g>
     <g id="text_12">
      <!-- Jan -->
      <g style="fill: #555555" transform="translate(545.897239 558.917812)scale(0.14 -0.14)">
       <use xlink:href="#DejaVuSans-Bold-4a"/>
       <use xlink:href="#DejaVuSans-Bold-61" x="37.207031"/>
       <use xlink:href="#DejaVuSans-Bold-6e" x="104.6875"/>
      </g>
     </g>
    </g>
    <g id="xtick_13">
     <g id="line2d_13">
      <g>
       <use xlink:href="#mdd9611c162" x="601.724947" y="541.28" style="fill: #555555; stroke: #555555; stroke-width: 0.8"/>
      </g>
     </g>
     <g id="text_13">
      <!-- Feb -->
      <g style="fill: #555555" transform="translate(587.464634 558.917812)scale(0.14 -0.14)">
       <use xlink:href="#DejaVuSans-Bold-46"/>
       <use xlink:href="#DejaVuSans-Bold-65" x="64.310547"/>
       <use xlink:href="#DejaVuSans-Bold-62" x="132.132812"/>
      </g>
     </g>
    </g>
    <g id="xtick_14">
     <g id="line2d_14">
      <g>
       <use xlink:href="#mdd9611c162" x="641.030134" y="541.28" style="fill: #555555; stroke: #555555; stroke-width: 0.8"/>
      </g>
     </g>
     <g id="text_14">
      <!-- Mar -->
      <g style="fill: #555555" transform="translate(625.888259 558.917812)scale(0.14 -0.14)">
       <use xlink:href="#DejaVuSans-Bold-4d"/>
       <use xlink:href="#DejaVuSans-Bold-61" x="99.511719"/>
       <use xlink:href="#DejaVuSans-Bold-72" x="166.992188"/>
      </g>
     </g>
    </g>
    <g id="xtick_15">
     <g id="line2d_15">
      <g>
       <use xlink:href="#mdd9611c162" x="684.546591" y="541.28" style="fill: #555555; stroke: #555555; stroke-width: 0.8"/>
      </g>
     </g>
     <g id="text_15">
      <!-- Apr -->
      <g style="fill: #555555" transform="translate(670.666903 558.917812)scale(0.14 -0.14)">
       <use xlink:href="#DejaVuSans-Bold-41"/>
       <use xlink:href="#DejaVuSans-Bold-70" x="77.392578"/>
       <use xlink:href="#DejaVuSans-Bold-72" x="148.974609"/>
      </g>
     </g>
    </g>
    <g id="xtick_16">
     <g id="line2d_16">
      <g>
       <use xlink:href="#mdd9611c162" x="726.659291" y="541.28" style="fill: #555555; stroke: #555555; stroke-width: 0.8"/>
      </g>
     </g>
     <g id="text_16">
      <!-- May -->
      <g style="fill: #555555" transform="translate(710.624916 558.808437)scale(0.14 -0.14)">
       <use xlink:href="#DejaVuSans-Bold-4d"/>
       <use xlink:href="#DejaVuSans-Bold-61" x="99.511719"/>
       <use xlink:href="#DejaVuSans-Bold-79" x="163.867188"/>
      </g>
     </g>
    </g>
    <g id="xtick_17">
     <g id="line2d_17">
      <g>
       <use xlink:href="#mdd9611c162" x="770.175749" y="541.28" style="fill: #555555; stroke: #555555; stroke-width: 0.8"/>
      </g>
     </g>
     <g id="text_17">
      <!-- Jun -->
      <g style="fill: #555555" transform="translate(757.60528 558.917812)scale(0.14 -0.14)">
       <use xlink:href="#DejaVuSans-Bold-4a"/>
       <use xlink:href="#DejaVuSans-Bold-75" x="37.207031"/>
       <use xlink:href="#DejaVuSans-Bold-6e" x="108.398438"/>
      </g>
     </g>
    </g>
    <g id="xtick_18">
     <g id="line2d_18">
      <g>
       <use xlink:href="#mdd9611c162" x="812.288449" y="541.28" style="fill: #555555; stroke: #555555; stroke-width: 0.8"/>
      </g>
     </g>
     <g id="text_18">
      <!-- Jul -->
      <g style="fill: #555555" transform="translate(802.301418 558.917812)scale(0.14 -0.14)">
       <use xlink:href="#DejaVuSans-Bold-4a"/>
       <use xlink:href="#DejaVuSans-Bold-75" x="37.207031"/>
       <use xlink:href="#DejaVuSans-Bold-6c" x="108.398438"/>
      </g>
     </g>
    </g>
    <g id="xtick_19">
     <g id="line2d_19">
      <g>
       <use xlink:href="#mdd9611c162" x="855.804906" y="541.28" style="fill: #555555; stroke: #555555; stroke-width: 0.8"/>
      </g>
     </g>
     <g id="text_19">
      <!-- Aug -->
      <g style="fill: #555555" transform="translate(840.393969 558.808437)scale(0.14 -0.14)">
       <use xlink:href="#DejaVuSans-Bold-41"/>
       <use xlink:href="#DejaVuSans-Bold-75" x="77.392578"/>
       <use xlink:href="#DejaVuSans-Bold-67" x="148.583984"/>
      </g>
     </g>
    </g>
    <g id="xtick_20">
     <g id="line2d_20">
      <g>
       <use xlink:href="#mdd9611c162" x="899.321364" y="541.28" style="fill: #555555; stroke: #555555; stroke-width: 0.8"/>
      </g>
     </g>
     <g id="text_20">
      <!-- Sep -->
      <g style="fill: #555555" transform="translate(884.521832 558.917812)scale(0.14 -0.14)">
       <use xlink:href="#DejaVuSans-Bold-53"/>
       <use xlink:href="#DejaVuSans-Bold-65" x="72.021484"/>
       <use xlink:href="#DejaVuSans-Bold-70" x="139.84375"/>
      </g>
     </g>
    </g>
    <g id="xtick_21">
     <g id="line2d_21">
      <g>
       <use xlink:href="#mdd9611c162" x="941.434064" y="541.28" style="fill: #555555; stroke: #555555; stroke-width: 0.8"/>
      </g>
     </g>
     <g id="text_21">
      <!-- Oct -->
      <g style="fill: #555555" transform="translate(927.987502 558.917812)scale(0.14 -0.14)">
       <use xlink:href="#DejaVuSans-Bold-4f"/>
       <use xlink:href="#DejaVuSans-Bold-63" x="85.009766"/>
       <use xlink:href="#DejaVuSans-Bold-74" x="144.287109"/>
      </g>
     </g>
    </g>
    <g id="xtick_22">
     <g id="line2d_22">
      <g>
       <use xlink:href="#mdd9611c162" x="984.950521" y="541.28" style="fill: #555555; stroke: #555555; stroke-width: 0.8"/>
      </g>
     </g>
     <g id="text_22">
      <!-- Nov -->
      <g style="fill: #555555" transform="translate(969.720053 558.917812)scale(0.14 -0.14)">
       <use xlink:href="#DejaVuSans-Bold-4e"/>
       <use xlink:href="#DejaVuSans-Bold-6f" x="83.691406"/>
       <use xlink:href="#DejaVuSans-Bold-76" x="152.392578"/>
      </g>
     </g>
    </g>
    <g id="xtick_23">
     <g id="line2d_23">
      <g>
       <use xlink:href="#mdd9611c162" x="1027.063222" y="541.28" style="fill: #555555; stroke: #555555; stroke-width: 0.8"/>
      </g>
     </g>
     <g id="text_23">
      <!-- Dec -->
      <g style="fill: #555555" transform="translate(1012.354472 558.917812)scale(0.14 -0.14)">
       <use xlink:href="#DejaVuSans-Bold-44"/>
       <use xlink:href="#DejaVuSans-Bold-65" x="83.007812"/>
       <use xlink:href="#DejaVuSans-Bold-63" x="150.830078"/>
      </g>
     </g>
    </g>
    <g id="xtick_24">
     <g id="line2d_24">
      <g>
       <use xlink:href="#mdd9611c162" x="1070.579679" y="541.28" style="fill: #555555; stroke: #555555; stroke-width: 0.8"/>
      </g>
     </g>
     <g id="text_24">
      <!-- Jan -->
      <g style="fill: #555555" transform="translate(1058.268429 558.917812)scale(0.14 -0.14)">
       <use xlink:href="#DejaVuSans-Bold-4a"/>
       <use xlink:href="#DejaVuSans-Bold-61" x="37.207031"/>
       <use xlink:href="#DejaVuSans-Bold-6e" x="104.6875"/>
      </g>
     </g>
    </g>
    <g id="xtick_25">
     <g id="line2d_25">
      <g>
       <use xlink:href="#mdd9611c162" x="1114.096136" y="541.28" style="fill: #555555; stroke: #555555; stroke-width: 0.8"/>
      </g>
     </g>
     <g id="text_25">
      <!-- Feb -->
      <g style="fill: #555555" transform="translate(1099.835824 558.917812)scale(0.14 -0.14)">
       <use xlink:href="#DejaVuSans-Bold-46"/>
       <use xlink:href="#DejaVuSans-Bold-65" x="64.310547"/>
       <use xlink:href="#DejaVuSans-Bold-62" x="132.132812"/>
      </g>
     </g>
    </g>
   </g>
   <g id="matplotlib.axis_2">
    <g id="ytick_1">
     <g id="line2d_26">
      <defs>
       <path id="mca928ab85c" d="M 0 0 
L -3.5 0 
" style="stroke: #555555; stroke-width: 0.8"/>
      </defs>
      <g>
       <use xlink:href="#mca928ab85c" x="87.95" y="518.791136" style="fill: #555555; stroke: #555555; stroke-width: 0.8"/>
      </g>
     </g>
     <g id="text_26">
      <!-- 0 -->
      <g style="fill: #555555" transform="translate(71.209063 524.110042)scale(0.14 -0.14)">
       <defs>
        <path id="DejaVuSans-Bold-30" d="M 2944 2338 
Q 2944 3213 2780 3570 
Q 2616 3928 2228 3928 
Q 1841 3928 1675 3570 
Q 1509 3213 1509 2338 
Q 1509 1453 1675 1090 
Q 1841 728 2228 728 
Q 2613 728 2778 1090 
Q 2944 1453 2944 2338 
z
M 4147 2328 
Q 4147 1169 3647 539 
Q 3147 -91 2228 -91 
Q 1306 -91 806 539 
Q 306 1169 306 2328 
Q 306 3491 806 4120 
Q 1306 4750 2228 4750 
Q 3147 4750 3647 4120 
Q 4147 3491 4147 2328 
z
" transform="scale(0.015625)"/>
       </defs>
       <use xlink:href="#DejaVuSans-Bold-30"/>
      </g>
     </g>
    </g>
    <g id="ytick_2">
     <g id="line2d_27">
      <g>
       <use xlink:href="#mca928ab85c" x="87.95" y="454.238451" style="fill: #555555; stroke: #555555; stroke-width: 0.8"/>
      </g>
     </g>
     <g id="text_27">
      <!-- 5000 -->
      <g style="fill: #555555" transform="translate(41.98625 459.557357)scale(0.14 -0.14)">
       <defs>
        <path id="DejaVuSans-Bold-35" d="M 678 4666 
L 3669 4666 
L 3669 3781 
L 1638 3781 
L 1638 3059 
Q 1775 3097 1914 3117 
Q 2053 3138 2203 3138 
Q 3056 3138 3531 2711 
Q 4006 2284 4006 1522 
Q 4006 766 3489 337 
Q 2972 -91 2053 -91 
Q 1656 -91 1267 -14 
Q 878 63 494 219 
L 494 1166 
Q 875 947 1217 837 
Q 1559 728 1863 728 
Q 2300 728 2551 942 
Q 2803 1156 2803 1522 
Q 2803 1891 2551 2103 
Q 2300 2316 1863 2316 
Q 1603 2316 1309 2248 
Q 1016 2181 678 2041 
L 678 4666 
z
" transform="scale(0.015625)"/>
       </defs>
       <use xlink:href="#DejaVuSans-Bold-35"/>
       <use xlink:href="#DejaVuSans-Bold-30" x="69.580078"/>
       <use xlink:href="#DejaVuSans-Bold-30" x="139.160156"/>
       <use xlink:href="#DejaVuSans-Bold-30" x="208.740234"/>
      </g>
     </g>
    </g>
    <g id="ytick_3">
     <g id="line2d_28">
      <g>
       <use xlink:href="#mca928ab85c" x="87.95" y="389.685767" style="fill: #555555; stroke: #555555; stroke-width: 0.8"/>
      </g>
     </g>
     <g id="text_28">
      <!-- 10000 -->
      <g style="fill: #555555" transform="translate(32.245313 395.004673)scale(0.14 -0.14)">
       <defs>
        <path id="DejaVuSans-Bold-31" d="M 750 831 
L 1813 831 
L 1813 3847 
L 722 3622 
L 722 4441 
L 1806 4666 
L 2950 4666 
L 2950 831 
L 4013 831 
L 4013 0 
L 750 0 
L 750 831 
z
" transform="scale(0.015625)"/>
       </defs>
       <use xlink:href="#DejaVuSans-Bold-31"/>
       <use xlink:href="#DejaVuSans-Bold-30" x="69.580078"/>
       <use xlink:href="#DejaVuSans-Bold-30" x="139.160156"/>
       <use xlink:href="#DejaVuSans-Bold-30" x="208.740234"/>
       <use xlink:href="#DejaVuSans-Bold-30" x="278.320312"/>
      </g>
     </g>
    </g>
    <g id="ytick_4">
     <g id="line2d_29">
      <g>
       <use xlink:href="#mca928ab85c" x="87.95" y="325.133082" style="fill: #555555; stroke: #555555; stroke-width: 0.8"/>
      </g>
     </g>
     <g id="text_29">
      <!-- 15000 -->
      <g style="fill: #555555" transform="translate(32.245313 330.451988)scale(0.14 -0.14)">
       <use xlink:href="#DejaVuSans-Bold-31"/>
       <use xlink:href="#DejaVuSans-Bold-35" x="69.580078"/>
       <use xlink:href="#DejaVuSans-Bold-30" x="139.160156"/>
       <use xlink:href="#DejaVuSans-Bold-30" x="208.740234"/>
       <use xlink:href="#DejaVuSans-Bold-30" x="278.320312"/>
      </g>
     </g>
    </g>
    <g id="ytick_5">
     <g id="line2d_30">
      <g>
       <use xlink:href="#mca928ab85c" x="87.95" y="260.580397" style="fill: #555555; stroke: #555555; stroke-width: 0.8"/>
      </g>
     </g>
     <g id="text_30">
      <!-- 20000 -->
      <g style="fill: #555555" transform="translate(32.245313 265.899304)scale(0.14 -0.14)">
       <defs>
        <path id="DejaVuSans-Bold-32" d="M 1844 884 
L 3897 884 
L 3897 0 
L 506 0 
L 506 884 
L 2209 2388 
Q 2438 2594 2547 2791 
Q 2656 2988 2656 3200 
Q 2656 3528 2436 3728 
Q 2216 3928 1850 3928 
Q 1569 3928 1234 3808 
Q 900 3688 519 3450 
L 519 4475 
Q 925 4609 1322 4679 
Q 1719 4750 2100 4750 
Q 2938 4750 3402 4381 
Q 3866 4013 3866 3353 
Q 3866 2972 3669 2642 
Q 3472 2313 2841 1759 
L 1844 884 
z
" transform="scale(0.015625)"/>
       </defs>
       <use xlink:href="#DejaVuSans-Bold-32"/>
       <use xlink:href="#DejaVuSans-Bold-30" x="69.580078"/>
       <use xlink:href="#DejaVuSans-Bold-30" x="139.160156"/>
       <use xlink:href="#DejaVuSans-Bold-30" x="208.740234"/>
       <use xlink:href="#DejaVuSans-Bold-30" x="278.320312"/>
      </g>
     </g>
    </g>
    <g id="ytick_6">
     <g id="line2d_31">
      <g>
       <use xlink:href="#mca928ab85c" x="87.95" y="196.027713" style="fill: #555555; stroke: #555555; stroke-width: 0.8"/>
      </g>
     </g>
     <g id="text_31">
      <!-- 25000 -->
      <g style="fill: #555555" transform="translate(32.245313 201.346619)scale(0.14 -0.14)">
       <use xlink:href="#DejaVuSans-Bold-32"/>
       <use xlink:href="#DejaVuSans-Bold-35" x="69.580078"/>
       <use xlink:href="#DejaVuSans-Bold-30" x="139.160156"/>
       <use xlink:href="#DejaVuSans-Bold-30" x="208.740234"/>
       <use xlink:href="#DejaVuSans-Bold-30" x="278.320312"/>
      </g>
     </g>
    </g>
    <g id="ytick_7">
     <g id="line2d_32">
      <g>
       <use xlink:href="#mca928ab85c" x="87.95" y="131.475028" style="fill: #555555; stroke: #555555; stroke-width: 0.8"/>
      </g>
     </g>
     <g id="text_32">
      <!-- 30000 -->
      <g style="fill: #555555" transform="translate(32.245313 136.793934)scale(0.14 -0.14)">
       <defs>
        <path id="DejaVuSans-Bold-33" d="M 2981 2516 
Q 3453 2394 3698 2092 
Q 3944 1791 3944 1325 
Q 3944 631 3412 270 
Q 2881 -91 1863 -91 
Q 1503 -91 1142 -33 
Q 781 25 428 141 
L 428 1069 
Q 766 900 1098 814 
Q 1431 728 1753 728 
Q 2231 728 2486 893 
Q 2741 1059 2741 1369 
Q 2741 1688 2480 1852 
Q 2219 2016 1709 2016 
L 1228 2016 
L 1228 2791 
L 1734 2791 
Q 2188 2791 2409 2933 
Q 2631 3075 2631 3366 
Q 2631 3634 2415 3781 
Q 2200 3928 1806 3928 
Q 1516 3928 1219 3862 
Q 922 3797 628 3669 
L 628 4550 
Q 984 4650 1334 4700 
Q 1684 4750 2022 4750 
Q 2931 4750 3382 4451 
Q 3834 4153 3834 3553 
Q 3834 3144 3618 2883 
Q 3403 2622 2981 2516 
z
" transform="scale(0.015625)"/>
       </defs>
       <use xlink:href="#DejaVuSans-Bold-33"/>
       <use xlink:href="#DejaVuSans-Bold-30" x="69.580078"/>
       <use xlink:href="#DejaVuSans-Bold-30" x="139.160156"/>
       <use xlink:href="#DejaVuSans-Bold-30" x="208.740234"/>
       <use xlink:href="#DejaVuSans-Bold-30" x="278.320312"/>
      </g>
     </g>
    </g>
    <g id="ytick_8">
     <g id="line2d_33">
      <g>
       <use xlink:href="#mca928ab85c" x="87.95" y="66.922343" style="fill: #555555; stroke: #555555; stroke-width: 0.8"/>
      </g>
     </g>
     <g id="text_33">
      <!-- 35000 -->
      <g style="fill: #555555" transform="translate(32.245313 72.24125)scale(0.14 -0.14)">
       <use xlink:href="#DejaVuSans-Bold-33"/>
       <use xlink:href="#DejaVuSans-Bold-35" x="69.580078"/>
       <use xlink:href="#DejaVuSans-Bold-30" x="139.160156"/>
       <use xlink:href="#DejaVuSans-Bold-30" x="208.740234"/>
       <use xlink:href="#DejaVuSans-Bold-30" x="278.320312"/>
      </g>
     </g>
    </g>
    <g id="text_34">
     <!-- New Cases -->
     <g style="fill: #555555" transform="translate(24.917813 333.23875)rotate(-90)scale(0.16 -0.16)">
      <defs>
       <path id="DejaVuSans-4e" d="M 628 4666 
L 1478 4666 
L 3547 763 
L 3547 4666 
L 4159 4666 
L 4159 0 
L 3309 0 
L 1241 3903 
L 1241 0 
L 628 0 
L 628 4666 
z
" transform="scale(0.015625)"/>
       <path id="DejaVuSans-65" d="M 3597 1894 
L 3597 1613 
L 953 1613 
Q 991 1019 1311 708 
Q 1631 397 2203 397 
Q 2534 397 2845 478 
Q 3156 559 3463 722 
L 3463 178 
Q 3153 47 2828 -22 
Q 2503 -91 2169 -91 
Q 1331 -91 842 396 
Q 353 884 353 1716 
Q 353 2575 817 3079 
Q 1281 3584 2069 3584 
Q 2775 3584 3186 3129 
Q 3597 2675 3597 1894 
z
M 3022 2063 
Q 3016 2534 2758 2815 
Q 2500 3097 2075 3097 
Q 1594 3097 1305 2825 
Q 1016 2553 972 2059 
L 3022 2063 
z
" transform="scale(0.015625)"/>
       <path id="DejaVuSans-77" d="M 269 3500 
L 844 3500 
L 1563 769 
L 2278 3500 
L 2956 3500 
L 3675 769 
L 4391 3500 
L 4966 3500 
L 4050 0 
L 3372 0 
L 2619 2869 
L 1863 0 
L 1184 0 
L 269 3500 
z
" transform="scale(0.015625)"/>
       <path id="DejaVuSans-20" transform="scale(0.015625)"/>
       <path id="DejaVuSans-43" d="M 4122 4306 
L 4122 3641 
Q 3803 3938 3442 4084 
Q 3081 4231 2675 4231 
Q 1875 4231 1450 3742 
Q 1025 3253 1025 2328 
Q 1025 1406 1450 917 
Q 1875 428 2675 428 
Q 3081 428 3442 575 
Q 3803 722 4122 1019 
L 4122 359 
Q 3791 134 3420 21 
Q 3050 -91 2638 -91 
Q 1578 -91 968 557 
Q 359 1206 359 2328 
Q 359 3453 968 4101 
Q 1578 4750 2638 4750 
Q 3056 4750 3426 4639 
Q 3797 4528 4122 4306 
z
" transform="scale(0.015625)"/>
       <path id="DejaVuSans-61" d="M 2194 1759 
Q 1497 1759 1228 1600 
Q 959 1441 959 1056 
Q 959 750 1161 570 
Q 1363 391 1709 391 
Q 2188 391 2477 730 
Q 2766 1069 2766 1631 
L 2766 1759 
L 2194 1759 
z
M 3341 1997 
L 3341 0 
L 2766 0 
L 2766 531 
Q 2569 213 2275 61 
Q 1981 -91 1556 -91 
Q 1019 -91 701 211 
Q 384 513 384 1019 
Q 384 1609 779 1909 
Q 1175 2209 1959 2209 
L 2766 2209 
L 2766 2266 
Q 2766 2663 2505 2880 
Q 2244 3097 1772 3097 
Q 1472 3097 1187 3025 
Q 903 2953 641 2809 
L 641 3341 
Q 956 3463 1253 3523 
Q 1550 3584 1831 3584 
Q 2591 3584 2966 3190 
Q 3341 2797 3341 1997 
z
" transform="scale(0.015625)"/>
       <path id="DejaVuSans-73" d="M 2834 3397 
L 2834 2853 
Q 2591 2978 2328 3040 
Q 2066 3103 1784 3103 
Q 1356 3103 1142 2972 
Q 928 2841 928 2578 
Q 928 2378 1081 2264 
Q 1234 2150 1697 2047 
L 1894 2003 
Q 2506 1872 2764 1633 
Q 3022 1394 3022 966 
Q 3022 478 2636 193 
Q 2250 -91 1575 -91 
Q 1294 -91 989 -36 
Q 684 19 347 128 
L 347 722 
Q 666 556 975 473 
Q 1284 391 1588 391 
Q 1994 391 2212 530 
Q 2431 669 2431 922 
Q 2431 1156 2273 1281 
Q 2116 1406 1581 1522 
L 1381 1569 
Q 847 1681 609 1914 
Q 372 2147 372 2553 
Q 372 3047 722 3315 
Q 1072 3584 1716 3584 
Q 2034 3584 2315 3537 
Q 2597 3491 2834 3397 
z
" transform="scale(0.015625)"/>
      </defs>
      <use xlink:href="#DejaVuSans-4e"/>
      <use xlink:href="#DejaVuSans-65" x="74.804688"/>
      <use xlink:href="#DejaVuSans-77" x="136.328125"/>
      <use xlink:href="#DejaVuSans-20" x="218.115234"/>
      <use xlink:href="#DejaVuSans-43" x="249.902344"/>
      <use xlink:href="#DejaVuSans-61" x="319.726562"/>
      <use xlink:href="#DejaVuSans-73" x="381.005859"/>
      <use xlink:href="#DejaVuSans-65" x="433.105469"/>
      <use xlink:href="#DejaVuSans-73" x="494.628906"/>
     </g>
    </g>
   </g>
   <g id="line2d_34">
    <path d="M 135.677727 518.274714 
L 137.081484 518.145609 
L 138.485241 518.377999 
L 139.888997 518.003593 
L 141.292754 517.112766 
L 142.696511 517.20314 
L 144.100267 517.151498 
L 145.504024 517.332245 
L 146.907781 515.963728 
L 148.311537 516.557613 
L 149.715294 515.305291 
L 151.119051 515.072901 
L 152.522807 514.311179 
L 153.926564 513.678563 
L 155.330321 511.90982 
L 156.734078 510.567124 
L 158.137834 510.980261 
L 159.541591 511.651609 
L 160.945348 509.121144 
L 162.349104 507.907553 
L 165.156618 503.724539 
L 166.560374 503.99566 
L 167.964131 504.692829 
L 169.367888 507.520237 
L 170.771644 508.023748 
L 172.175401 505.777315 
L 173.579158 504.809024 
L 174.982914 505.622388 
L 176.386671 505.854778 
L 177.790428 504.602456 
L 180.597941 508.695096 
L 182.001698 506.409931 
L 183.405455 503.195207 
L 184.809211 501.658853 
L 186.212968 501.994527 
L 187.616725 503.672897 
L 189.020481 506.409931 
L 190.424238 507.662253 
L 191.827995 509.366444 
L 193.231751 504.989772 
L 194.635508 502.859533 
L 196.039265 503.479239 
L 197.443021 505.583656 
L 198.846778 509.134054 
L 200.250535 509.547191 
L 201.654291 509.650476 
L 203.058048 507.507326 
L 204.461805 508.398154 
L 205.865561 510.438018 
L 207.269318 510.386376 
L 208.673075 513.562368 
L 210.076832 516.299402 
L 211.480588 513.781847 
L 212.884345 512.245494 
L 214.288102 512.619899 
L 215.691858 513.149231 
L 217.095615 514.427374 
L 218.499372 516.196118 
L 219.903128 514.672674 
L 221.306885 514.672674 
L 222.710642 514.130432 
L 224.114398 514.672674 
L 225.518155 515.072901 
L 226.921912 515.666786 
L 228.325668 516.48015 
L 229.729425 516.273581 
L 231.133182 515.912086 
L 232.536939 515.253649 
L 233.940695 516.183207 
L 235.344452 516.286492 
L 236.748209 517.177319 
L 238.151965 516.880376 
L 239.555722 517.358066 
L 242.363235 515.511859 
L 243.766992 516.415597 
L 246.574505 516.557613 
L 247.978262 516.041191 
L 249.382019 517.125676 
L 250.785775 516.286492 
L 252.189532 516.49306 
L 253.593289 516.49306 
L 254.997045 516.97075 
L 256.400802 516.518881 
L 257.804559 517.44844 
L 260.612072 517.590456 
L 262.015829 516.363955 
L 263.419586 515.989549 
L 264.823342 516.338134 
L 266.227099 515.705517 
L 267.630856 516.647987 
L 269.034612 516.673808 
L 270.438369 516.454329 
L 271.842126 516.699629 
L 273.245882 516.118655 
L 274.649639 516.454329 
L 276.053396 516.932018 
L 277.457152 516.73836 
L 280.264666 517.332245 
L 281.668422 517.190229 
L 284.475936 517.629187 
L 285.879693 517.564635 
L 287.283449 517.913219 
L 290.090963 517.758293 
L 291.494719 517.370977 
L 295.705989 517.93904 
L 297.109746 517.809935 
L 298.513503 518.055235 
L 302.724773 517.809935 
L 304.128529 517.951951 
L 305.532286 517.861577 
L 306.936043 518.261804 
L 308.339799 518.352177 
L 309.743556 518.055235 
L 312.55107 517.951951 
L 315.358583 517.564635 
L 316.76234 517.861577 
L 318.166096 517.525903 
L 320.97361 517.254782 
L 322.377366 517.383887 
L 323.781123 516.919108 
L 325.18488 516.919108 
L 326.588636 516.428507 
L 327.992393 516.609255 
L 330.799906 516.673808 
L 332.203663 516.790003 
L 335.011176 516.041191 
L 336.414933 516.092834 
L 337.81869 515.899175 
L 339.222447 515.589323 
L 340.626203 514.388643 
L 342.02996 514.388643 
L 343.433717 513.226694 
L 344.837473 514.156253 
L 346.24123 513.988416 
L 347.644987 512.503704 
L 349.048743 513.265426 
L 350.4525 510.980261 
L 351.856257 512.116388 
L 353.260013 512.542436 
L 354.66377 511.341756 
L 356.067527 508.630543 
L 357.471283 510.786603 
L 358.87504 510.386376 
L 360.278797 511.354666 
L 361.682553 510.696229 
L 363.08631 510.321824 
L 364.490067 512.348778 
L 365.893824 512.516615 
L 367.29758 512.426241 
L 368.701337 511.651609 
L 370.105094 511.935641 
L 371.50885 511.90982 
L 372.912607 512.245494 
L 374.316364 512.916841 
L 375.72012 511.393398 
L 377.123877 513.420352 
L 378.527634 511.406309 
L 379.93139 512.232583 
L 381.335147 512.322957 
L 384.14266 512.258404 
L 385.546417 512.000193 
L 386.950174 512.761915 
L 388.35393 509.495549 
L 389.757687 511.057724 
L 391.161444 509.198607 
L 392.565201 510.412197 
L 393.968957 506.913442 
L 395.372714 508.527259 
L 398.180227 504.073124 
L 399.583984 507.985016 
L 400.987741 502.381843 
L 402.391497 503.01446 
L 403.795254 504.757382 
L 405.199011 502.046169 
L 406.602767 501.026237 
L 408.006524 498.94764 
L 410.814037 493.551036 
L 412.217794 494.3644 
L 413.621551 494.984106 
L 415.025307 490.245939 
L 416.429064 489.910265 
L 417.832821 488.657943 
L 419.236578 486.050014 
L 420.640334 483.106412 
L 422.044091 483.932686 
L 423.447848 480.369378 
L 424.851604 481.337668 
L 426.255361 480.007883 
L 427.659118 476.367111 
L 429.062874 476.793159 
L 430.466631 469.679453 
L 431.870388 467.988173 
L 433.274144 467.368467 
L 434.677901 459.98364 
L 436.081658 460.448419 
L 437.485414 454.599946 
L 438.889171 444.129501 
L 440.292928 441.844336 
L 441.696684 435.156678 
L 443.100441 436.912511 
L 444.504198 430.960753 
L 445.907955 424.131079 
L 447.311711 425.176833 
L 448.715468 418.38589 
L 450.119225 416.152367 
L 451.522981 414.151234 
L 452.926738 413.596081 
L 454.330495 415.687588 
L 455.734251 413.647723 
L 458.541765 399.355759 
L 459.945521 390.047262 
L 461.349278 407.218276 
L 462.753035 387.516796 
L 464.156791 385.773874 
L 465.560548 386.251564 
L 466.964305 414.512729 
L 468.368061 386.522685 
L 469.771818 375.923134 
L 471.175575 392.642279 
L 472.579332 406.740586 
L 473.983088 412.098459 
L 475.386845 418.889401 
L 476.790602 420.671055 
L 478.194358 429.114546 
L 479.598115 425.499596 
L 481.001872 433.375023 
L 483.809385 458.511839 
L 485.213142 458.834602 
L 486.616898 449.293715 
L 488.020655 446.246829 
L 489.424412 440.462908 
L 490.828168 442.6577 
L 492.231925 448.841847 
L 495.039439 463.534038 
L 496.443195 459.622145 
L 497.846952 445.381823 
L 499.250709 442.218741 
L 500.654465 441.276272 
L 502.058222 449.616479 
L 503.461979 451.901644 
L 504.865735 467.833247 
L 506.269492 455.400399 
L 507.673249 461.106857 
L 509.077005 444.542638 
L 510.480762 461.145588 
L 511.884519 446.943998 
L 513.288275 459.764161 
L 514.692032 466.658388 
L 516.095789 455.426221 
L 517.499545 446.569592 
L 518.903302 442.735163 
L 520.307059 434.49824 
L 521.710816 431.502996 
L 523.114572 427.203787 
L 524.518329 439.79156 
L 525.922086 434.304582 
L 527.325842 406.35327 
L 528.729599 404.700721 
L 530.133356 401.021218 
L 531.537112 391.273763 
L 532.940869 409.555083 
L 534.344626 433.194276 
L 535.748382 374.63208 
L 537.152139 353.820295 
L 538.555896 364.432756 
L 539.959652 360.972732 
L 541.363409 350.992887 
L 542.767166 374.761186 
L 544.170922 391.983842 
L 545.574679 384.650657 
L 546.978436 370.397424 
L 548.382193 370.384514 
L 549.785949 392.074216 
L 551.189706 402.531751 
L 552.593463 423.278984 
L 553.997219 421.729719 
L 555.400976 396.799472 
L 556.804733 394.023707 
L 558.208489 413.32496 
L 559.612246 407.902534 
L 561.016003 423.304805 
L 562.419759 433.168455 
L 563.823516 436.563926 
L 565.227273 427.268339 
L 566.631029 393.85587 
L 568.034786 414.06086 
L 570.842299 433.555771 
L 572.246056 448.454531 
L 573.649813 454.987262 
L 575.05357 440.153055 
L 576.457326 434.885556 
L 577.861083 441.005151 
L 579.26484 450.429843 
L 580.668596 446.724519 
L 582.072353 457.027127 
L 583.47611 463.35329 
L 584.879866 446.892356 
L 586.283623 443.845469 
L 587.68738 444.620101 
L 589.091136 448.480352 
L 590.494893 455.774805 
L 591.89865 465.99995 
L 593.302406 467.67832 
L 594.706163 457.788849 
L 596.10992 458.227807 
L 597.513676 462.023505 
L 598.917433 464.928376 
L 600.32119 471.319091 
L 601.724947 476.986817 
L 603.128703 472.984551 
L 604.53246 466.916598 
L 605.936217 464.579791 
L 607.339973 463.056348 
L 608.74373 466.012861 
L 610.147487 468.207652 
L 611.551243 489.652054 
L 612.955 496.081501 
L 614.358757 477.826002 
L 615.762513 461.636189 
L 617.16627 462.927242 
L 618.570027 464.928376 
L 619.973783 474.572547 
L 621.37754 482.09939 
L 622.781297 484.061791 
L 624.185053 475.308447 
L 625.58881 459.944908 
L 626.992567 458.421465 
L 628.396324 460.190209 
L 629.80008 458.511839 
L 631.203837 464.838002 
L 632.607594 469.614901 
L 634.01135 462.39791 
L 635.415107 454.432109 
L 636.818864 453.089413 
L 638.22262 455.245473 
L 639.626377 458.963708 
L 641.030134 470.389533 
L 642.43389 467.600857 
L 643.837647 453.941509 
L 645.241404 465.961219 
L 646.64516 458.602213 
L 648.048917 450.210364 
L 649.452674 460.590435 
L 650.85643 468.64661 
L 652.260187 463.456574 
L 653.663944 450.907533 
L 655.067701 450.404022 
L 656.471457 441.650678 
L 657.875214 436.486463 
L 660.682727 447.757362 
L 662.086484 454.987262 
L 663.490241 442.515684 
L 664.893997 439.636634 
L 666.297754 423.92451 
L 667.701511 420.645234 
L 670.509024 437.454753 
L 671.912781 446.388845 
L 673.316537 421.239119 
L 674.720294 419.534928 
L 676.124051 421.226208 
L 677.527807 405.4108 
L 678.931564 422.349425 
L 680.335321 431.244785 
L 681.739078 443.199942 
L 683.142834 420.29665 
L 684.546591 417.843648 
L 685.950348 425.654522 
L 687.354104 420.709787 
L 688.757861 430.199031 
L 690.161618 449.926332 
L 691.565374 447.021461 
L 692.969131 436.576837 
L 694.372888 418.592459 
L 695.776644 419.896423 
L 697.180401 419.909333 
L 698.584158 413.673544 
L 699.987914 432.832781 
L 701.391671 432.006507 
L 702.795428 448.557815 
L 704.199184 406.546928 
L 705.602941 404.016462 
L 707.006698 412.240475 
L 708.410455 408.76754 
L 709.814211 426.377512 
L 711.217968 430.728363 
L 712.621725 409.413067 
L 714.025481 395.121103 
L 715.429238 399.562327 
L 716.832995 414.706387 
L 718.236751 415.24863 
L 719.640508 438.410133 
L 721.044265 450.300737 
L 722.448021 407.102081 
L 723.851778 424.763695 
L 725.255535 418.553727 
L 726.659291 444.129501 
L 728.063048 448.286694 
L 729.466805 400.194944 
L 730.870561 418.63119 
L 733.678075 431.60628 
L 735.081832 422.491441 
L 736.485588 422.94331 
L 739.293102 443.122479 
L 740.696858 447.460419 
L 742.100615 436.925421 
L 743.504372 441.172988 
L 744.908128 447.22803 
L 746.311885 461.055215 
L 747.715642 461.67492 
L 749.119398 481.892821 
L 750.523155 450.042527 
L 751.926912 460.074014 
L 753.330668 459.196097 
L 754.734425 465.367334 
L 756.138182 477.826002 
L 757.541939 474.598368 
L 758.945695 483.571191 
L 760.349452 486.721362 
L 761.753209 483.442086 
L 763.156965 475.218074 
L 764.560722 469.240495 
L 765.964479 475.60539 
L 767.368235 484.939708 
L 768.771992 492.711851 
L 770.175749 486.773004 
L 771.579505 485.753072 
L 772.983262 483.145143 
L 774.387019 487.8704 
L 775.790775 491.446619 
L 777.194532 498.547414 
L 778.598289 499.838468 
L 780.002045 500.251605 
L 781.405802 496.184786 
L 788.424586 507.442774 
L 789.828342 505.364177 
L 791.232099 505.570746 
L 792.635856 505.118877 
L 794.039612 507.300758 
L 795.443369 509.857044 
L 796.847126 509.624655 
L 798.250882 511.44504 
L 799.654639 509.779581 
L 801.058396 510.205629 
L 802.462152 509.805402 
L 803.865909 510.450929 
L 805.269666 511.625788 
L 806.673422 512.322957 
L 808.077179 511.470861 
L 809.480936 511.974372 
L 810.884693 510.580034 
L 812.288449 508.178674 
L 813.692206 506.655231 
L 815.095963 504.331334 
L 816.499719 503.298491 
L 817.903476 499.270404 
L 819.307233 490.491239 
L 820.710989 472.300292 
L 822.114746 449.16461 
L 823.518503 429.940821 
L 824.922259 386.793806 
L 827.729773 409.942399 
L 829.133529 418.063127 
L 830.537286 384.456999 
L 831.941043 377.059261 
L 833.344799 373.444311 
L 834.748556 376.129703 
L 836.152313 387.323138 
L 837.55607 404.223031 
L 838.959826 431.309338 
L 840.363583 430.276495 
L 841.76734 438.319759 
L 843.171096 436.551016 
L 844.574853 450.894622 
L 845.97861 459.312292 
L 847.382366 469.292137 
L 848.786123 467.420109 
L 850.18988 474.327247 
L 851.593636 461.313425 
L 852.997393 474.482173 
L 854.40115 480.808336 
L 855.804906 488.929064 
L 857.208663 491.691919 
L 858.61242 490.27176 
L 861.419933 475.786137 
L 862.82369 481.337668 
L 864.227447 487.857489 
L 865.631203 489.006527 
L 867.03496 492.492372 
L 868.438717 490.878555 
L 869.842473 491.433708 
L 871.24623 485.662698 
L 872.649987 484.397465 
L 874.053743 489.045259 
L 875.4575 489.613322 
L 876.861257 489.923175 
L 878.265013 489.045259 
L 879.66877 482.83529 
L 882.476283 490.28467 
L 883.88004 487.289426 
L 885.283797 487.018304 
L 886.687553 488.038237 
L 888.09131 487.031215 
L 889.495067 482.435064 
L 890.898824 485.055903 
L 892.30258 482.667453 
L 893.706337 487.16032 
L 896.51385 490.76236 
L 897.917607 489.432575 
L 899.321364 482.796559 
L 900.72512 482.783648 
L 902.128877 486.127477 
L 903.532634 483.31298 
L 904.93639 488.34809 
L 906.340147 491.498261 
L 907.743904 486.876288 
L 909.14766 482.719096 
L 910.551417 488.361 
L 911.955174 484.242539 
L 913.35893 490.28467 
L 914.762687 491.743561 
L 916.166444 496.171875 
L 917.570201 492.957151 
L 918.973957 488.128611 
L 920.377714 491.808114 
L 921.781471 491.343334 
L 923.185227 492.789314 
L 924.588984 497.308002 
L 925.992741 501.323179 
L 927.396497 497.320913 
L 928.800254 494.338579 
L 930.204011 495.423064 
L 931.607767 496.933597 
L 933.011524 498.134277 
L 934.415281 498.147187 
L 935.819037 500.897132 
L 937.222794 496.623744 
L 938.626551 496.184786 
L 940.030307 496.830312 
L 941.434064 496.623744 
L 942.837821 497.24345 
L 944.241578 498.108456 
L 945.645334 498.005171 
L 947.049091 494.274026 
L 948.452848 494.209473 
L 949.856604 483.506638 
L 951.260361 483.041859 
L 952.664118 486.734273 
L 954.067874 483.480817 
L 955.471631 489.755338 
L 956.875388 481.570058 
L 958.279144 470.789759 
L 959.682901 471.861334 
L 961.086658 471.086702 
L 962.490414 471.138344 
L 963.894171 471.551481 
L 965.297928 475.566658 
L 966.701684 468.259294 
L 968.105441 459.635056 
L 969.509198 451.953286 
L 970.912955 443.432332 
L 972.316711 445.575481 
L 973.720468 437.416022 
L 975.124225 450.391111 
L 976.527981 444.503906 
L 977.931738 425.034817 
L 979.335495 419.81896 
L 980.739251 423.420999 
L 982.143008 416.268562 
L 983.546765 413.557349 
L 984.950521 419.509107 
L 986.354278 419.483286 
L 987.758035 400.711365 
L 989.161791 387.052017 
L 990.565548 378.401957 
L 991.969305 364.252009 
L 993.373061 372.385647 
L 994.776818 367.001953 
L 996.180575 373.108637 
L 997.584332 355.537396 
L 998.988088 308.917448 
L 1000.391845 309.640438 
L 1001.795602 340.096394 
L 1003.199358 364.084172 
L 1004.603115 270.844274 
L 1006.006872 258.398517 
L 1007.410628 251.220258 
L 1008.814385 214.360675 
L 1010.218142 247.940982 
L 1011.621898 237.870763 
L 1013.025655 252.408027 
L 1014.429412 222.016624 
L 1015.833168 222.481403 
L 1017.236925 212.811411 
L 1018.640682 232.487069 
L 1020.044439 244.248568 
L 1021.448195 234.875518 
L 1022.851952 233.868496 
L 1024.255709 241.795566 
L 1025.659465 233.984691 
L 1027.063222 279.959113 
L 1028.466979 221.44856 
L 1029.870735 241.446982 
L 1031.274492 226.98718 
L 1032.678249 221.190349 
L 1034.082005 247.953892 
L 1035.485762 287.124461 
L 1036.889519 285.678481 
L 1038.293275 263.988779 
L 1039.697032 293.269877 
L 1041.100789 289.680748 
L 1042.504545 304.385849 
L 1043.908302 340.729011 
L 1045.312059 353.536263 
L 1046.715816 344.550529 
L 1048.119572 307.484378 
L 1049.523329 320.614394 
L 1050.927086 329.496843 
L 1052.330842 347.636148 
L 1053.734599 362.005575 
L 1055.138356 397.496641 
L 1056.542112 345.738299 
L 1057.945869 346.861516 
L 1059.349626 357.78383 
L 1060.753382 356.673524 
L 1062.157139 365.142836 
L 1063.560896 371.146235 
L 1064.964652 400.737186 
L 1066.368409 315.927869 
L 1067.772166 328.050863 
L 1069.175922 303.249722 
L 1070.579679 317.39967 
L 1071.983436 293.231145 
L 1073.387193 330.904092 
L 1074.790949 279.17157 
L 1076.194706 202.263502 
L 1077.598463 200.985359 
L 1079.002219 68.988029 
L 1080.405976 158.535513 
L 1081.809733 98.901743 
L 1083.213489 158.21275 
L 1084.617246 143.998249 
L 1086.021003 104.427453 
L 1087.424759 87.721218 
L 1088.828516 60.609091 
L 1090.232273 106.131644 
L 1090.232273 106.131644 
" clip-path="url(#p03d8918c06)" style="fill: none; stroke-dasharray: 1.5,2.475; stroke-dashoffset: 0; stroke: #000000; stroke-opacity: 0.5; stroke-width: 1.5"/>
   </g>
   <g id="line2d_35">
    <path d="M 135.677727 518.390909 
L 141.292754 517.564635 
L 146.907781 516.428507 
L 149.715294 515.486038 
L 151.119051 514.827601 
L 159.541591 510.011971 
L 160.945348 508.901664 
L 163.752861 506.332468 
L 165.156618 505.493283 
L 166.560374 505.325446 
L 167.964131 505.557835 
L 169.367888 505.932241 
L 170.771644 506.190452 
L 172.175401 506.164631 
L 174.982914 505.635299 
L 176.386671 505.725672 
L 177.790428 506.035525 
L 179.194184 506.190452 
L 180.597941 505.90642 
L 182.001698 505.19634 
L 183.405455 504.344245 
L 184.809211 503.724539 
L 186.212968 503.698718 
L 187.616725 504.499171 
L 189.020481 505.506193 
L 190.424238 506.13881 
L 191.827995 506.15172 
L 194.635508 505.377088 
L 196.039265 505.544925 
L 197.443021 506.267915 
L 198.846778 507.313668 
L 200.250535 508.191585 
L 201.654291 508.759649 
L 203.058048 509.056591 
L 204.461805 509.482639 
L 205.865561 510.425108 
L 208.673075 512.64572 
L 210.076832 513.317068 
L 211.480588 513.510726 
L 214.288102 513.549458 
L 215.691858 513.730205 
L 218.499372 514.56939 
L 219.903128 514.750138 
L 224.114398 514.905064 
L 228.325668 515.808802 
L 231.133182 515.976639 
L 233.940695 516.170297 
L 236.748209 516.647987 
L 238.151965 516.73836 
L 240.959479 516.531792 
L 243.766992 516.312313 
L 252.189532 516.570523 
L 256.400802 516.983661 
L 257.804559 517.099855 
L 259.208316 517.099855 
L 262.015829 516.712539 
L 263.419586 516.454329 
L 266.227099 516.273581 
L 270.438369 516.467239 
L 276.053396 516.72545 
L 285.879693 517.655008 
L 288.687206 517.719561 
L 292.898476 517.69374 
L 301.321016 517.900309 
L 305.532286 518.029414 
L 309.743556 518.081056 
L 318.166096 517.538814 
L 323.781123 516.996571 
L 326.588636 516.72545 
L 333.60742 516.389776 
L 336.414933 515.950818 
L 337.81869 515.628054 
L 343.433717 513.988416 
L 346.24123 513.3558 
L 356.067527 510.734961 
L 357.471283 510.567124 
L 358.87504 510.515482 
L 360.278797 510.70914 
L 364.490067 511.664519 
L 367.29758 512.038925 
L 370.105094 512.090567 
L 371.50885 512.077657 
L 374.316364 512.258404 
L 378.527634 512.232583 
L 384.14266 512.090567 
L 385.546417 511.858177 
L 388.35393 510.96735 
L 392.565201 508.992038 
L 400.987741 504.357155 
L 403.795254 502.924086 
L 405.199011 501.710495 
L 406.602767 500.316157 
L 410.814037 495.423064 
L 415.025307 491.356245 
L 417.832821 487.986595 
L 419.236578 486.114567 
L 422.044091 483.093501 
L 423.447848 481.660432 
L 424.851604 480.395199 
L 426.255361 478.74265 
L 427.659118 476.612412 
L 429.062874 474.275604 
L 433.274144 465.238229 
L 436.081658 457.233696 
L 440.292928 442.567326 
L 441.696684 437.984085 
L 444.504198 430.470153 
L 447.311711 423.304805 
L 448.715468 419.999707 
L 450.119225 417.572526 
L 452.926738 414.267429 
L 454.330495 412.356669 
L 457.138008 406.043417 
L 459.945521 398.245452 
L 461.349278 394.81125 
L 462.753035 393.830049 
L 465.560548 392.500264 
L 466.964305 391.531973 
L 468.368061 391.970932 
L 469.771818 393.494375 
L 471.175575 397.264252 
L 472.579332 402.183166 
L 473.983088 409.606725 
L 475.386845 416.307294 
L 476.790602 421.368224 
L 478.194358 426.003107 
L 479.598115 431.567548 
L 482.405628 443.974574 
L 483.809385 448.467441 
L 485.213142 450.520216 
L 486.616898 449.87469 
L 488.020655 447.95102 
L 489.424412 446.634145 
L 490.828168 447.602435 
L 492.231925 450.481485 
L 493.635682 453.024861 
L 495.039439 454.135167 
L 496.443195 452.895755 
L 499.250709 448.067214 
L 500.654465 448.131767 
L 502.058222 449.990884 
L 503.461979 453.541282 
L 504.865735 455.65861 
L 506.269492 456.975485 
L 509.077005 455.310026 
L 510.480762 455.064725 
L 511.884519 455.955553 
L 513.288275 456.252495 
L 514.692032 455.916821 
L 516.095789 452.715008 
L 517.499545 448.44162 
L 518.903302 442.67061 
L 520.307059 437.958264 
L 523.114572 431.941954 
L 524.518329 428.042972 
L 525.922086 422.672188 
L 527.325842 415.455198 
L 528.729599 409.232319 
L 530.133356 406.275806 
L 531.537112 403.758252 
L 532.940869 400.633902 
L 534.344626 394.540128 
L 535.748382 385.283273 
L 537.152139 374.86447 
L 538.555896 366.872848 
L 539.959652 363.735587 
L 541.363409 367.118148 
L 542.767166 371.97251 
L 544.170922 375.406713 
L 546.978436 381.34556 
L 548.382193 385.838427 
L 551.189706 400.143301 
L 552.593463 405.707743 
L 553.997219 408.457687 
L 555.400976 407.837981 
L 556.804733 407.786339 
L 558.208489 409.73583 
L 559.612246 414.603103 
L 561.016003 420.903445 
L 562.419759 423.705031 
L 563.823516 423.214431 
L 566.631029 419.199254 
L 568.034786 420.412844 
L 569.438543 425.615791 
L 572.246056 439.223497 
L 573.649813 442.322026 
L 575.05357 443.432332 
L 576.457326 443.509795 
L 577.861083 444.374801 
L 579.26484 446.943998 
L 580.668596 450.003795 
L 582.072353 452.030749 
L 583.47611 452.04366 
L 584.879866 450.584769 
L 586.283623 449.500284 
L 587.68738 449.784316 
L 589.091136 452.05657 
L 590.494893 455.736073 
L 591.89865 458.950797 
L 593.302406 460.926109 
L 594.706163 461.752384 
L 596.10992 462.449553 
L 597.513676 463.960085 
L 600.32119 468.956463 
L 601.724947 470.32498 
L 603.128703 470.015127 
L 604.53246 468.685342 
L 605.936217 467.148988 
L 607.339973 467.652499 
L 608.74373 470.957596 
L 610.147487 475.282626 
L 611.551243 478.303692 
L 612.955 478.768471 
L 614.358757 476.238006 
L 615.762513 472.790893 
L 617.16627 470.208785 
L 618.570027 470.454085 
L 619.973783 473.036193 
L 621.37754 474.998594 
L 622.781297 474.469262 
L 624.185053 471.616034 
L 625.58881 467.226451 
L 626.992567 463.521127 
L 628.396324 461.829847 
L 629.80008 461.855668 
L 631.203837 462.436642 
L 632.607594 462.062237 
L 634.01135 460.577525 
L 635.415107 458.834602 
L 636.818864 458.124523 
L 638.22262 458.795871 
L 639.626377 460.125656 
L 641.030134 462.010594 
L 642.43389 462.681942 
L 643.837647 461.700741 
L 645.241404 460.345135 
L 646.64516 459.389755 
L 648.048917 459.467219 
L 649.452674 459.957819 
L 650.85643 459.389755 
L 652.260187 457.504817 
L 653.663944 453.98024 
L 655.067701 449.397 
L 656.471457 445.54966 
L 657.875214 444.11659 
L 659.278971 444.310248 
L 660.682727 444.865401 
L 662.086484 444.026216 
L 663.490241 441.018061 
L 664.893997 436.525194 
L 666.297754 432.497107 
L 667.701511 430.857469 
L 669.105267 430.792916 
L 670.509024 430.973664 
L 671.912781 430.495974 
L 673.316537 427.255429 
L 674.720294 423.304805 
L 676.124051 420.503218 
L 677.527807 420.658145 
L 680.335321 425.35758 
L 681.739078 426.609902 
L 683.142834 426.506618 
L 684.546591 425.305938 
L 685.950348 426.054749 
L 687.354104 428.72723 
L 688.757861 433.336292 
L 690.161618 436.124968 
L 691.565374 435.905489 
L 692.969131 433.090992 
L 694.372888 428.017151 
L 695.776644 423.834137 
L 697.180401 422.259051 
L 699.987914 426.635723 
L 701.391671 426.764829 
L 702.795428 424.492574 
L 705.602941 416.061993 
L 707.006698 414.964598 
L 708.410455 414.938777 
L 709.814211 416.010351 
L 711.217968 414.809671 
L 712.621725 412.008085 
L 714.025481 409.529262 
L 715.429238 409.864936 
L 716.832995 414.590192 
L 719.640508 425.370491 
L 721.044265 427.126324 
L 722.448021 427.487819 
L 723.851778 428.701409 
L 725.255535 427.952598 
L 726.659291 427.358713 
L 728.063048 427.268339 
L 729.466805 425.422133 
L 730.870561 424.027795 
L 732.274318 423.007862 
L 733.678075 423.717942 
L 735.081832 427.242518 
L 743.504372 446.51795 
L 744.908128 451.707986 
L 747.715642 460.448419 
L 749.119398 462.346268 
L 751.926912 462.901421 
L 753.330668 464.450686 
L 754.734425 467.291004 
L 756.138182 472.519771 
L 757.541939 476.844801 
L 758.945695 479.827135 
L 760.349452 480.550125 
L 763.156965 478.471529 
L 764.560722 478.381155 
L 765.964479 479.69803 
L 768.771992 484.629855 
L 770.175749 486.282404 
L 771.579505 486.979573 
L 772.983262 487.857489 
L 774.387019 489.535859 
L 777.194532 495.022837 
L 778.598289 497.153076 
L 780.002045 498.366666 
L 782.809559 499.864289 
L 784.213316 501.168253 
L 787.020829 504.21514 
L 788.424586 505.170519 
L 792.635856 506.758515 
L 794.039612 507.610611 
L 795.443369 508.604722 
L 796.847126 509.456818 
L 798.250882 509.99906 
L 799.654639 510.218539 
L 801.058396 510.296002 
L 803.865909 510.786603 
L 805.269666 511.19974 
L 806.673422 511.43213 
L 808.077179 511.328845 
L 809.480936 510.760782 
L 810.884693 509.676297 
L 812.288449 508.230317 
L 813.692206 506.435752 
L 815.095963 503.879466 
L 816.499719 499.65772 
L 817.903476 492.492372 
L 819.307233 481.686253 
L 820.710989 465.52226 
L 823.518503 429.68261 
L 824.922259 416.69461 
L 826.326016 407.747608 
L 827.729773 402.066971 
L 831.941043 386.057906 
L 833.344799 383.204677 
L 834.748556 386.006263 
L 836.152313 394.656323 
L 838.959826 417.598347 
L 840.363583 427.849314 
L 841.76734 436.254073 
L 843.171096 443.716364 
L 845.97861 457.272427 
L 847.382366 462.423732 
L 848.786123 466.568014 
L 851.593636 472.158276 
L 852.997393 475.760316 
L 854.40115 480.227362 
L 855.804906 483.816491 
L 857.208663 485.972551 
L 858.61242 485.740161 
L 860.016176 484.629855 
L 861.419933 483.700296 
L 862.82369 484.126344 
L 864.227447 485.71434 
L 865.631203 487.934952 
L 867.03496 489.510038 
L 868.438717 489.690786 
L 869.842473 489.109811 
L 871.24623 488.399732 
L 872.649987 487.973684 
L 874.053743 488.102789 
L 878.265013 487.88331 
L 879.66877 487.457263 
L 881.072527 487.289426 
L 883.88004 487.495994 
L 885.283797 487.353978 
L 886.687553 486.773004 
L 888.09131 485.791803 
L 889.495067 485.22374 
L 890.898824 485.120455 
L 892.30258 485.649787 
L 893.706337 486.66972 
L 895.110094 487.495994 
L 896.51385 487.521815 
L 897.917607 487.095768 
L 899.321364 486.011282 
L 900.72512 485.314113 
L 902.128877 485.417398 
L 906.340147 487.199052 
L 907.743904 486.91502 
L 909.14766 486.863378 
L 910.551417 487.018304 
L 911.955174 487.986595 
L 913.35893 489.587501 
L 914.762687 490.99475 
L 916.166444 491.743561 
L 917.570201 492.040503 
L 918.973957 491.808114 
L 920.377714 491.988861 
L 921.781471 492.879688 
L 924.588984 495.836201 
L 925.992741 496.649565 
L 927.396497 496.920686 
L 930.204011 496.714118 
L 931.607767 496.998149 
L 934.415281 497.97935 
L 935.819037 498.018082 
L 940.030307 497.075613 
L 944.241578 496.869044 
L 945.645334 495.603811 
L 947.049091 493.486483 
L 949.856604 488.309358 
L 951.260361 486.618078 
L 952.664118 485.546503 
L 954.067874 484.100523 
L 955.471631 482.383422 
L 956.875388 479.685119 
L 958.279144 476.483306 
L 959.682901 473.92702 
L 961.086658 472.313203 
L 963.894171 470.931775 
L 965.297928 468.762805 
L 966.701684 464.760539 
L 968.105441 459.635056 
L 969.509198 453.73494 
L 970.912955 449.035505 
L 972.316711 445.988618 
L 973.720468 443.316137 
L 975.124225 440.204697 
L 976.527981 436.344447 
L 979.335495 425.977286 
L 980.739251 421.497329 
L 982.143008 418.850669 
L 983.546765 416.810805 
L 984.950521 413.479886 
L 986.354278 407.773429 
L 987.758035 399.575238 
L 990.565548 381.565039 
L 991.969305 375.032307 
L 993.373061 370.53944 
L 994.776818 364.058351 
L 997.584332 345.583372 
L 998.988088 338.392203 
L 1000.391845 330.194012 
L 1001.795602 321.053352 
L 1003.199358 308.943269 
L 1004.603115 291.514044 
L 1007.410628 254.680282 
L 1008.814385 243.280278 
L 1010.218142 239.549133 
L 1011.621898 237.263968 
L 1013.025655 233.881407 
L 1014.429412 231.325121 
L 1015.833168 228.394429 
L 1017.236925 228.058755 
L 1018.640682 229.336898 
L 1020.044439 233.042222 
L 1021.448195 235.456492 
L 1022.851952 240.078465 
L 1025.659465 243.164083 
L 1027.063222 243.034978 
L 1029.870735 237.199415 
L 1031.274492 238.593753 
L 1032.678249 243.241546 
L 1036.889519 273.62004 
L 1039.697032 290.365006 
L 1041.100789 300.693436 
L 1042.504545 313.487778 
L 1043.908302 324.384271 
L 1045.312059 330.116549 
L 1046.715816 331.678724 
L 1048.119572 331.123571 
L 1049.523329 331.691635 
L 1050.927086 338.469667 
L 1053.734599 355.679412 
L 1055.138356 360.133548 
L 1056.542112 360.43049 
L 1057.945869 358.99742 
L 1059.349626 358.597194 
L 1060.753382 361.437512 
L 1062.157139 363.632303 
L 1063.560896 362.547818 
L 1064.964652 354.801496 
L 1066.368409 343.543508 
L 1067.772166 329.716323 
L 1071.983436 300.55142 
L 1073.387193 284.167948 
L 1074.790949 253.90565 
L 1077.598463 182.691128 
L 1079.002219 153.629509 
L 1080.405976 137.659175 
L 1081.809733 131.126444 
L 1084.617246 121.043314 
L 1086.021003 109.824058 
L 1088.828516 92.472296 
L 1090.232273 87.682487 
L 1090.232273 87.682487 
" clip-path="url(#p03d8918c06)" style="fill: none; stroke: #000000; stroke-width: 1.5; stroke-linecap: square"/>
   </g>
   <g id="patch_3">
    <path d="M 87.95 541.28 
L 87.95 37.72 
" style="fill: none; stroke: #555555; stroke-linejoin: miter; stroke-linecap: square"/>
   </g>
   <g id="patch_4">
    <path d="M 87.95 541.28 
L 1137.96 541.28 
" style="fill: none; stroke: #555555; stroke-linejoin: miter; stroke-linecap: square"/>
   </g>
   <g id="text_35">
    <!-- Positive COVID-19 tests - last updated on 15 January 2022 -->
    <g style="fill: #555555" transform="translate(350.305469 27.72)scale(0.18 -0.18)">
     <defs>
      <path id="DejaVuSans-50" d="M 1259 4147 
L 1259 2394 
L 2053 2394 
Q 2494 2394 2734 2622 
Q 2975 2850 2975 3272 
Q 2975 3691 2734 3919 
Q 2494 4147 2053 4147 
L 1259 4147 
z
M 628 4666 
L 2053 4666 
Q 2838 4666 3239 4311 
Q 3641 3956 3641 3272 
Q 3641 2581 3239 2228 
Q 2838 1875 2053 1875 
L 1259 1875 
L 1259 0 
L 628 0 
L 628 4666 
z
" transform="scale(0.015625)"/>
      <path id="DejaVuSans-6f" d="M 1959 3097 
Q 1497 3097 1228 2736 
Q 959 2375 959 1747 
Q 959 1119 1226 758 
Q 1494 397 1959 397 
Q 2419 397 2687 759 
Q 2956 1122 2956 1747 
Q 2956 2369 2687 2733 
Q 2419 3097 1959 3097 
z
M 1959 3584 
Q 2709 3584 3137 3096 
Q 3566 2609 3566 1747 
Q 3566 888 3137 398 
Q 2709 -91 1959 -91 
Q 1206 -91 779 398 
Q 353 888 353 1747 
Q 353 2609 779 3096 
Q 1206 3584 1959 3584 
z
" transform="scale(0.015625)"/>
      <path id="DejaVuSans-69" d="M 603 3500 
L 1178 3500 
L 1178 0 
L 603 0 
L 603 3500 
z
M 603 4863 
L 1178 4863 
L 1178 4134 
L 603 4134 
L 603 4863 
z
" transform="scale(0.015625)"/>
      <path id="DejaVuSans-74" d="M 1172 4494 
L 1172 3500 
L 2356 3500 
L 2356 3053 
L 1172 3053 
L 1172 1153 
Q 1172 725 1289 603 
Q 1406 481 1766 481 
L 2356 481 
L 2356 0 
L 1766 0 
Q 1100 0 847 248 
Q 594 497 594 1153 
L 594 3053 
L 172 3053 
L 172 3500 
L 594 3500 
L 594 4494 
L 1172 4494 
z
" transform="scale(0.015625)"/>
      <path id="DejaVuSans-76" d="M 191 3500 
L 800 3500 
L 1894 563 
L 2988 3500 
L 3597 3500 
L 2284 0 
L 1503 0 
L 191 3500 
z
" transform="scale(0.015625)"/>
      <path id="DejaVuSans-4f" d="M 2522 4238 
Q 1834 4238 1429 3725 
Q 1025 3213 1025 2328 
Q 1025 1447 1429 934 
Q 1834 422 2522 422 
Q 3209 422 3611 934 
Q 4013 1447 4013 2328 
Q 4013 3213 3611 3725 
Q 3209 4238 2522 4238 
z
M 2522 4750 
Q 3503 4750 4090 4092 
Q 4678 3434 4678 2328 
Q 4678 1225 4090 567 
Q 3503 -91 2522 -91 
Q 1538 -91 948 565 
Q 359 1222 359 2328 
Q 359 3434 948 4092 
Q 1538 4750 2522 4750 
z
" transform="scale(0.015625)"/>
      <path id="DejaVuSans-56" d="M 1831 0 
L 50 4666 
L 709 4666 
L 2188 738 
L 3669 4666 
L 4325 4666 
L 2547 0 
L 1831 0 
z
" transform="scale(0.015625)"/>
      <path id="DejaVuSans-49" d="M 628 4666 
L 1259 4666 
L 1259 0 
L 628 0 
L 628 4666 
z
" transform="scale(0.015625)"/>
      <path id="DejaVuSans-44" d="M 1259 4147 
L 1259 519 
L 2022 519 
Q 2988 519 3436 956 
Q 3884 1394 3884 2338 
Q 3884 3275 3436 3711 
Q 2988 4147 2022 4147 
L 1259 4147 
z
M 628 4666 
L 1925 4666 
Q 3281 4666 3915 4102 
Q 4550 3538 4550 2338 
Q 4550 1131 3912 565 
Q 3275 0 1925 0 
L 628 0 
L 628 4666 
z
" transform="scale(0.015625)"/>
      <path id="DejaVuSans-2d" d="M 313 2009 
L 1997 2009 
L 1997 1497 
L 313 1497 
L 313 2009 
z
" transform="scale(0.015625)"/>
      <path id="DejaVuSans-31" d="M 794 531 
L 1825 531 
L 1825 4091 
L 703 3866 
L 703 4441 
L 1819 4666 
L 2450 4666 
L 2450 531 
L 3481 531 
L 3481 0 
L 794 0 
L 794 531 
z
" transform="scale(0.015625)"/>
      <path id="DejaVuSans-39" d="M 703 97 
L 703 672 
Q 941 559 1184 500 
Q 1428 441 1663 441 
Q 2288 441 2617 861 
Q 2947 1281 2994 2138 
Q 2813 1869 2534 1725 
Q 2256 1581 1919 1581 
Q 1219 1581 811 2004 
Q 403 2428 403 3163 
Q 403 3881 828 4315 
Q 1253 4750 1959 4750 
Q 2769 4750 3195 4129 
Q 3622 3509 3622 2328 
Q 3622 1225 3098 567 
Q 2575 -91 1691 -91 
Q 1453 -91 1209 -44 
Q 966 3 703 97 
z
M 1959 2075 
Q 2384 2075 2632 2365 
Q 2881 2656 2881 3163 
Q 2881 3666 2632 3958 
Q 2384 4250 1959 4250 
Q 1534 4250 1286 3958 
Q 1038 3666 1038 3163 
Q 1038 2656 1286 2365 
Q 1534 2075 1959 2075 
z
" transform="scale(0.015625)"/>
      <path id="DejaVuSans-6c" d="M 603 4863 
L 1178 4863 
L 1178 0 
L 603 0 
L 603 4863 
z
" transform="scale(0.015625)"/>
      <path id="DejaVuSans-75" d="M 544 1381 
L 544 3500 
L 1119 3500 
L 1119 1403 
Q 1119 906 1312 657 
Q 1506 409 1894 409 
Q 2359 409 2629 706 
Q 2900 1003 2900 1516 
L 2900 3500 
L 3475 3500 
L 3475 0 
L 2900 0 
L 2900 538 
Q 2691 219 2414 64 
Q 2138 -91 1772 -91 
Q 1169 -91 856 284 
Q 544 659 544 1381 
z
M 1991 3584 
L 1991 3584 
z
" transform="scale(0.015625)"/>
      <path id="DejaVuSans-70" d="M 1159 525 
L 1159 -1331 
L 581 -1331 
L 581 3500 
L 1159 3500 
L 1159 2969 
Q 1341 3281 1617 3432 
Q 1894 3584 2278 3584 
Q 2916 3584 3314 3078 
Q 3713 2572 3713 1747 
Q 3713 922 3314 415 
Q 2916 -91 2278 -91 
Q 1894 -91 1617 61 
Q 1341 213 1159 525 
z
M 3116 1747 
Q 3116 2381 2855 2742 
Q 2594 3103 2138 3103 
Q 1681 3103 1420 2742 
Q 1159 2381 1159 1747 
Q 1159 1113 1420 752 
Q 1681 391 2138 391 
Q 2594 391 2855 752 
Q 3116 1113 3116 1747 
z
" transform="scale(0.015625)"/>
      <path id="DejaVuSans-64" d="M 2906 2969 
L 2906 4863 
L 3481 4863 
L 3481 0 
L 2906 0 
L 2906 525 
Q 2725 213 2448 61 
Q 2172 -91 1784 -91 
Q 1150 -91 751 415 
Q 353 922 353 1747 
Q 353 2572 751 3078 
Q 1150 3584 1784 3584 
Q 2172 3584 2448 3432 
Q 2725 3281 2906 2969 
z
M 947 1747 
Q 947 1113 1208 752 
Q 1469 391 1925 391 
Q 2381 391 2643 752 
Q 2906 1113 2906 1747 
Q 2906 2381 2643 2742 
Q 2381 3103 1925 3103 
Q 1469 3103 1208 2742 
Q 947 2381 947 1747 
z
" transform="scale(0.015625)"/>
      <path id="DejaVuSans-6e" d="M 3513 2113 
L 3513 0 
L 2938 0 
L 2938 2094 
Q 2938 2591 2744 2837 
Q 2550 3084 2163 3084 
Q 1697 3084 1428 2787 
Q 1159 2491 1159 1978 
L 1159 0 
L 581 0 
L 581 3500 
L 1159 3500 
L 1159 2956 
Q 1366 3272 1645 3428 
Q 1925 3584 2291 3584 
Q 2894 3584 3203 3211 
Q 3513 2838 3513 2113 
z
" transform="scale(0.015625)"/>
      <path id="DejaVuSans-35" d="M 691 4666 
L 3169 4666 
L 3169 4134 
L 1269 4134 
L 1269 2991 
Q 1406 3038 1543 3061 
Q 1681 3084 1819 3084 
Q 2600 3084 3056 2656 
Q 3513 2228 3513 1497 
Q 3513 744 3044 326 
Q 2575 -91 1722 -91 
Q 1428 -91 1123 -41 
Q 819 9 494 109 
L 494 744 
Q 775 591 1075 516 
Q 1375 441 1709 441 
Q 2250 441 2565 725 
Q 2881 1009 2881 1497 
Q 2881 1984 2565 2268 
Q 2250 2553 1709 2553 
Q 1456 2553 1204 2497 
Q 953 2441 691 2322 
L 691 4666 
z
" transform="scale(0.015625)"/>
      <path id="DejaVuSans-4a" d="M 628 4666 
L 1259 4666 
L 1259 325 
Q 1259 -519 939 -900 
Q 619 -1281 -91 -1281 
L -331 -1281 
L -331 -750 
L -134 -750 
Q 284 -750 456 -515 
Q 628 -281 628 325 
L 628 4666 
z
" transform="scale(0.015625)"/>
      <path id="DejaVuSans-72" d="M 2631 2963 
Q 2534 3019 2420 3045 
Q 2306 3072 2169 3072 
Q 1681 3072 1420 2755 
Q 1159 2438 1159 1844 
L 1159 0 
L 581 0 
L 581 3500 
L 1159 3500 
L 1159 2956 
Q 1341 3275 1631 3429 
Q 1922 3584 2338 3584 
Q 2397 3584 2469 3576 
Q 2541 3569 2628 3553 
L 2631 2963 
z
" transform="scale(0.015625)"/>
      <path id="DejaVuSans-79" d="M 2059 -325 
Q 1816 -950 1584 -1140 
Q 1353 -1331 966 -1331 
L 506 -1331 
L 506 -850 
L 844 -850 
Q 1081 -850 1212 -737 
Q 1344 -625 1503 -206 
L 1606 56 
L 191 3500 
L 800 3500 
L 1894 763 
L 2988 3500 
L 3597 3500 
L 2059 -325 
z
" transform="scale(0.015625)"/>
      <path id="DejaVuSans-32" d="M 1228 531 
L 3431 531 
L 3431 0 
L 469 0 
L 469 531 
Q 828 903 1448 1529 
Q 2069 2156 2228 2338 
Q 2531 2678 2651 2914 
Q 2772 3150 2772 3378 
Q 2772 3750 2511 3984 
Q 2250 4219 1831 4219 
Q 1534 4219 1204 4116 
Q 875 4013 500 3803 
L 500 4441 
Q 881 4594 1212 4672 
Q 1544 4750 1819 4750 
Q 2544 4750 2975 4387 
Q 3406 4025 3406 3419 
Q 3406 3131 3298 2873 
Q 3191 2616 2906 2266 
Q 2828 2175 2409 1742 
Q 1991 1309 1228 531 
z
" transform="scale(0.015625)"/>
      <path id="DejaVuSans-30" d="M 2034 4250 
Q 1547 4250 1301 3770 
Q 1056 3291 1056 2328 
Q 1056 1369 1301 889 
Q 1547 409 2034 409 
Q 2525 409 2770 889 
Q 3016 1369 3016 2328 
Q 3016 3291 2770 3770 
Q 2525 4250 2034 4250 
z
M 2034 4750 
Q 2819 4750 3233 4129 
Q 3647 3509 3647 2328 
Q 3647 1150 3233 529 
Q 2819 -91 2034 -91 
Q 1250 -91 836 529 
Q 422 1150 422 2328 
Q 422 3509 836 4129 
Q 1250 4750 2034 4750 
z
" transform="scale(0.015625)"/>
     </defs>
     <use xlink:href="#DejaVuSans-50"/>
     <use xlink:href="#DejaVuSans-6f" x="56.677734"/>
     <use xlink:href="#DejaVuSans-73" x="117.859375"/>
     <use xlink:href="#DejaVuSans-69" x="169.958984"/>
     <use xlink:href="#DejaVuSans-74" x="197.742188"/>
     <use xlink:href="#DejaVuSans-69" x="236.951172"/>
     <use xlink:href="#DejaVuSans-76" x="264.734375"/>
     <use xlink:href="#DejaVuSans-65" x="323.914062"/>
     <use xlink:href="#DejaVuSans-20" x="385.4375"/>
     <use xlink:href="#DejaVuSans-43" x="417.224609"/>
     <use xlink:href="#DejaVuSans-4f" x="487.048828"/>
     <use xlink:href="#DejaVuSans-56" x="564.009766"/>
     <use xlink:href="#DejaVuSans-49" x="632.417969"/>
     <use xlink:href="#DejaVuSans-44" x="661.910156"/>
     <use xlink:href="#DejaVuSans-2d" x="738.912109"/>
     <use xlink:href="#DejaVuSans-31" x="774.996094"/>
     <use xlink:href="#DejaVuSans-39" x="838.619141"/>
     <use xlink:href="#DejaVuSans-20" x="902.242188"/>
     <use xlink:href="#DejaVuSans-74" x="934.029297"/>
     <use xlink:href="#DejaVuSans-65" x="973.238281"/>
     <use xlink:href="#DejaVuSans-73" x="1034.761719"/>
     <use xlink:href="#DejaVuSans-74" x="1086.861328"/>
     <use xlink:href="#DejaVuSans-73" x="1126.070312"/>
     <use xlink:href="#DejaVuSans-20" x="1178.169922"/>
     <use xlink:href="#DejaVuSans-2d" x="1209.957031"/>
     <use xlink:href="#DejaVuSans-20" x="1246.041016"/>
     <use xlink:href="#DejaVuSans-6c" x="1277.828125"/>
     <use xlink:href="#DejaVuSans-61" x="1305.611328"/>
     <use xlink:href="#DejaVuSans-73" x="1366.890625"/>
     <use xlink:href="#DejaVuSans-74" x="1418.990234"/>
     <use xlink:href="#DejaVuSans-20" x="1458.199219"/>
     <use xlink:href="#DejaVuSans-75" x="1489.986328"/>
     <use xlink:href="#DejaVuSans-70" x="1553.365234"/>
     <use xlink:href="#DejaVuSans-64" x="1616.841797"/>
     <use xlink:href="#DejaVuSans-61" x="1680.318359"/>
     <use xlink:href="#DejaVuSans-74" x="1741.597656"/>
     <use xlink:href="#DejaVuSans-65" x="1780.806641"/>
     <use xlink:href="#DejaVuSans-64" x="1842.330078"/>
     <use xlink:href="#DejaVuSans-20" x="1905.806641"/>
     <use xlink:href="#DejaVuSans-6f" x="1937.59375"/>
     <use xlink:href="#DejaVuSans-6e" x="1998.775391"/>
     <use xlink:href="#DejaVuSans-20" x="2062.154297"/>
     <use xlink:href="#DejaVuSans-31" x="2093.941406"/>
     <use xlink:href="#DejaVuSans-35" x="2157.564453"/>
     <use xlink:href="#DejaVuSans-20" x="2221.1875"/>
     <use xlink:href="#DejaVuSans-4a" x="2252.974609"/>
     <use xlink:href="#DejaVuSans-61" x="2282.466797"/>
     <use xlink:href="#DejaVuSans-6e" x="2343.746094"/>
     <use xlink:href="#DejaVuSans-75" x="2407.125"/>
     <use xlink:href="#DejaVuSans-61" x="2470.503906"/>
     <use xlink:href="#DejaVuSans-72" x="2531.783203"/>
     <use xlink:href="#DejaVuSans-79" x="2572.896484"/>
     <use xlink:href="#DejaVuSans-20" x="2632.076172"/>
     <use xlink:href="#DejaVuSans-32" x="2663.863281"/>
     <use xlink:href="#DejaVuSans-30" x="2727.486328"/>
     <use xlink:href="#DejaVuSans-32" x="2791.109375"/>
     <use xlink:href="#DejaVuSans-32" x="2854.732422"/>
    </g>
   </g>
   <g id="legend_1">
    <g id="line2d_36">
     <path d="M 99.65 54.747969 
L 112.65 54.747969 
L 125.65 54.747969 
" style="fill: none; stroke-dasharray: 1.5,2.475; stroke-dashoffset: 0; stroke: #000000; stroke-opacity: 0.5; stroke-width: 1.5"/>
    </g>
    <g id="text_36">
     <!-- Actual -->
     <g style="fill: #555555" transform="translate(136.05 59.297969)scale(0.13 -0.13)">
      <use xlink:href="#DejaVuSans-Bold-41"/>
      <use xlink:href="#DejaVuSans-Bold-63" x="77.392578"/>
      <use xlink:href="#DejaVuSans-Bold-74" x="136.669922"/>
      <use xlink:href="#DejaVuSans-Bold-75" x="184.472656"/>
      <use xlink:href="#DejaVuSans-Bold-61" x="255.664062"/>
      <use xlink:href="#DejaVuSans-Bold-6c" x="323.144531"/>
     </g>
    </g>
    <g id="line2d_37">
     <path d="M 99.65 73.829531 
L 112.65 73.829531 
L 125.65 73.829531 
" style="fill: none; stroke: #000000; stroke-width: 1.5; stroke-linecap: square"/>
    </g>
    <g id="text_37">
     <!-- Smoothed -->
     <g style="fill: #555555" transform="translate(136.05 78.379531)scale(0.13 -0.13)">
      <defs>
       <path id="DejaVuSans-Bold-6d" d="M 3781 2919 
Q 3994 3244 4286 3414 
Q 4578 3584 4928 3584 
Q 5531 3584 5847 3212 
Q 6163 2841 6163 2131 
L 6163 0 
L 5038 0 
L 5038 1825 
Q 5041 1866 5042 1909 
Q 5044 1953 5044 2034 
Q 5044 2406 4934 2573 
Q 4825 2741 4581 2741 
Q 4263 2741 4089 2478 
Q 3916 2216 3909 1719 
L 3909 0 
L 2784 0 
L 2784 1825 
Q 2784 2406 2684 2573 
Q 2584 2741 2328 2741 
Q 2006 2741 1831 2477 
Q 1656 2213 1656 1722 
L 1656 0 
L 531 0 
L 531 3500 
L 1656 3500 
L 1656 2988 
Q 1863 3284 2130 3434 
Q 2397 3584 2719 3584 
Q 3081 3584 3359 3409 
Q 3638 3234 3781 2919 
z
" transform="scale(0.015625)"/>
       <path id="DejaVuSans-Bold-68" d="M 4056 2131 
L 4056 0 
L 2931 0 
L 2931 347 
L 2931 1625 
Q 2931 2084 2911 2256 
Q 2891 2428 2841 2509 
Q 2775 2619 2662 2680 
Q 2550 2741 2406 2741 
Q 2056 2741 1856 2470 
Q 1656 2200 1656 1722 
L 1656 0 
L 538 0 
L 538 4863 
L 1656 4863 
L 1656 2988 
Q 1909 3294 2193 3439 
Q 2478 3584 2822 3584 
Q 3428 3584 3742 3212 
Q 4056 2841 4056 2131 
z
" transform="scale(0.015625)"/>
       <path id="DejaVuSans-Bold-64" d="M 2919 2988 
L 2919 4863 
L 4044 4863 
L 4044 0 
L 2919 0 
L 2919 506 
Q 2688 197 2409 53 
Q 2131 -91 1766 -91 
Q 1119 -91 703 423 
Q 288 938 288 1747 
Q 288 2556 703 3070 
Q 1119 3584 1766 3584 
Q 2128 3584 2408 3439 
Q 2688 3294 2919 2988 
z
M 2181 722 
Q 2541 722 2730 984 
Q 2919 1247 2919 1747 
Q 2919 2247 2730 2509 
Q 2541 2772 2181 2772 
Q 1825 2772 1636 2509 
Q 1447 2247 1447 1747 
Q 1447 1247 1636 984 
Q 1825 722 2181 722 
z
" transform="scale(0.015625)"/>
      </defs>
      <use xlink:href="#DejaVuSans-Bold-53"/>
      <use xlink:href="#DejaVuSans-Bold-6d" x="72.021484"/>
      <use xlink:href="#DejaVuSans-Bold-6f" x="176.220703"/>
      <use xlink:href="#DejaVuSans-Bold-6f" x="244.921875"/>
      <use xlink:href="#DejaVuSans-Bold-74" x="313.623047"/>
      <use xlink:href="#DejaVuSans-Bold-68" x="361.425781"/>
      <use xlink:href="#DejaVuSans-Bold-65" x="432.617188"/>
      <use xlink:href="#DejaVuSans-Bold-64" x="500.439453"/>
     </g>
    </g>
   </g>
  </g>
 </g>
 <defs>
  <clipPath id="p03d8918c06">
   <rect x="87.95" y="37.72" width="1050.01" height="503.56"/>
  </clipPath>
 </defs>
</svg>
