<?xml version="1.0" encoding="utf-8" standalone="no"?>
<!DOCTYPE svg PUBLIC "-//W3C//DTD SVG 1.1//EN"
  "http://www.w3.org/Graphics/SVG/1.1/DTD/svg11.dtd">
<svg height="576pt" version="1.1" viewBox="0 0 1152 576" width="1152pt" xmlns="http://www.w3.org/2000/svg" xmlns:xlink="http://www.w3.org/1999/xlink">
 <metadata>
  <rdf:RDF xmlns:cc="http://creativecommons.org/ns#" xmlns:dc="http://purl.org/dc/elements/1.1/" xmlns:rdf="http://www.w3.org/1999/02/22-rdf-syntax-ns#">
   <cc:Work>
    <dc:type rdf:resource="http://purl.org/dc/dcmitype/StillImage"/>
    <dc:date>2021-10-21T14:14:06.001726</dc:date>
    <dc:format>image/svg+xml</dc:format>
    <dc:creator>
     <cc:Agent>
      <dc:title>Matplotlib v3.4.3, https://matplotlib.org/</dc:title>
     </cc:Agent>
    </dc:creator>
   </cc:Work>
  </rdf:RDF>
 </metadata>
 <defs>
  <style type="text/css">*{stroke-linecap:butt;stroke-linejoin:round;}</style>
 </defs>
 <g id="figure_1">
  <g id="patch_1">
   <path d="M 0 576 
L 1152 576 
L 1152 0 
L 0 0 
z
" style="fill:#ffffff;"/>
  </g>
  <g id="axes_1">
   <g id="patch_2">
    <path d="M 87.95 541.28 
L 1137.96 541.28 
L 1137.96 37.72 
L 87.95 37.72 
z
" style="fill:#ffffff;"/>
   </g>
   <g id="matplotlib.axis_1">
    <g id="xtick_1">
     <g id="line2d_1">
      <defs>
       <path d="M 0 0 
L 0 3.5 
" id="m135de88cb1" style="stroke:#555555;stroke-width:0.8;"/>
      </defs>
      <g>
       <use style="fill:#555555;stroke:#555555;stroke-width:0.8;" x="127.642756" xlink:href="#m135de88cb1" y="541.28"/>
      </g>
     </g>
     <g id="text_1">
      <!-- Mar -->
      <g style="fill:#555555;" transform="translate(112.500881 558.917812)scale(0.14 -0.14)">
       <defs>
        <path d="M 588 4666 
L 2119 4666 
L 3181 2169 
L 4250 4666 
L 5778 4666 
L 5778 0 
L 4641 0 
L 4641 3413 
L 3566 897 
L 2803 897 
L 1728 3413 
L 1728 0 
L 588 0 
L 588 4666 
z
" id="DejaVuSans-Bold-4d" transform="scale(0.015625)"/>
        <path d="M 2106 1575 
Q 1756 1575 1579 1456 
Q 1403 1338 1403 1106 
Q 1403 894 1545 773 
Q 1688 653 1941 653 
Q 2256 653 2472 879 
Q 2688 1106 2688 1447 
L 2688 1575 
L 2106 1575 
z
M 3816 1997 
L 3816 0 
L 2688 0 
L 2688 519 
Q 2463 200 2181 54 
Q 1900 -91 1497 -91 
Q 953 -91 614 226 
Q 275 544 275 1050 
Q 275 1666 698 1953 
Q 1122 2241 2028 2241 
L 2688 2241 
L 2688 2328 
Q 2688 2594 2478 2717 
Q 2269 2841 1825 2841 
Q 1466 2841 1156 2769 
Q 847 2697 581 2553 
L 581 3406 
Q 941 3494 1303 3539 
Q 1666 3584 2028 3584 
Q 2975 3584 3395 3211 
Q 3816 2838 3816 1997 
z
" id="DejaVuSans-Bold-61" transform="scale(0.015625)"/>
        <path d="M 3138 2547 
Q 2991 2616 2845 2648 
Q 2700 2681 2553 2681 
Q 2122 2681 1889 2404 
Q 1656 2128 1656 1613 
L 1656 0 
L 538 0 
L 538 3500 
L 1656 3500 
L 1656 2925 
Q 1872 3269 2151 3426 
Q 2431 3584 2822 3584 
Q 2878 3584 2943 3579 
Q 3009 3575 3134 3559 
L 3138 2547 
z
" id="DejaVuSans-Bold-72" transform="scale(0.015625)"/>
       </defs>
       <use xlink:href="#DejaVuSans-Bold-4d"/>
       <use x="99.511719" xlink:href="#DejaVuSans-Bold-61"/>
       <use x="166.992188" xlink:href="#DejaVuSans-Bold-72"/>
      </g>
     </g>
    </g>
    <g id="xtick_2">
     <g id="line2d_2">
      <g>
       <use style="fill:#555555;stroke:#555555;stroke-width:0.8;" x="177.459576" xlink:href="#m135de88cb1" y="541.28"/>
      </g>
     </g>
     <g id="text_2">
      <!-- Apr -->
      <g style="fill:#555555;" transform="translate(163.579889 558.917812)scale(0.14 -0.14)">
       <defs>
        <path d="M 3419 850 
L 1538 850 
L 1241 0 
L 31 0 
L 1759 4666 
L 3194 4666 
L 4922 0 
L 3713 0 
L 3419 850 
z
M 1838 1716 
L 3116 1716 
L 2478 3572 
L 1838 1716 
z
" id="DejaVuSans-Bold-41" transform="scale(0.015625)"/>
        <path d="M 1656 506 
L 1656 -1331 
L 538 -1331 
L 538 3500 
L 1656 3500 
L 1656 2988 
Q 1888 3294 2169 3439 
Q 2450 3584 2816 3584 
Q 3463 3584 3878 3070 
Q 4294 2556 4294 1747 
Q 4294 938 3878 423 
Q 3463 -91 2816 -91 
Q 2450 -91 2169 54 
Q 1888 200 1656 506 
z
M 2400 2772 
Q 2041 2772 1848 2508 
Q 1656 2244 1656 1747 
Q 1656 1250 1848 986 
Q 2041 722 2400 722 
Q 2759 722 2948 984 
Q 3138 1247 3138 1747 
Q 3138 2247 2948 2509 
Q 2759 2772 2400 2772 
z
" id="DejaVuSans-Bold-70" transform="scale(0.015625)"/>
       </defs>
       <use xlink:href="#DejaVuSans-Bold-41"/>
       <use x="77.392578" xlink:href="#DejaVuSans-Bold-70"/>
       <use x="148.974609" xlink:href="#DejaVuSans-Bold-72"/>
      </g>
     </g>
    </g>
    <g id="xtick_3">
     <g id="line2d_3">
      <g>
       <use style="fill:#555555;stroke:#555555;stroke-width:0.8;" x="225.669402" xlink:href="#m135de88cb1" y="541.28"/>
      </g>
     </g>
     <g id="text_3">
      <!-- May -->
      <g style="fill:#555555;" transform="translate(209.635027 558.808437)scale(0.14 -0.14)">
       <defs>
        <path d="M 78 3500 
L 1197 3500 
L 2138 1125 
L 2938 3500 
L 4056 3500 
L 2584 -331 
Q 2363 -916 2067 -1148 
Q 1772 -1381 1288 -1381 
L 641 -1381 
L 641 -647 
L 991 -647 
Q 1275 -647 1404 -556 
Q 1534 -466 1606 -231 
L 1638 -134 
L 78 3500 
z
" id="DejaVuSans-Bold-79" transform="scale(0.015625)"/>
       </defs>
       <use xlink:href="#DejaVuSans-Bold-4d"/>
       <use x="99.511719" xlink:href="#DejaVuSans-Bold-61"/>
       <use x="163.867188" xlink:href="#DejaVuSans-Bold-79"/>
      </g>
     </g>
    </g>
    <g id="xtick_4">
     <g id="line2d_4">
      <g>
       <use style="fill:#555555;stroke:#555555;stroke-width:0.8;" x="275.486221" xlink:href="#m135de88cb1" y="541.28"/>
      </g>
     </g>
     <g id="text_4">
      <!-- Jun -->
      <g style="fill:#555555;" transform="translate(262.915753 558.917812)scale(0.14 -0.14)">
       <defs>
        <path d="M 588 4666 
L 1791 4666 
L 1791 453 
Q 1791 -419 1317 -850 
Q 844 -1281 -116 -1281 
L -359 -1281 
L -359 -372 
L -172 -372 
Q 203 -372 395 -162 
Q 588 47 588 453 
L 588 4666 
z
" id="DejaVuSans-Bold-4a" transform="scale(0.015625)"/>
        <path d="M 500 1363 
L 500 3500 
L 1625 3500 
L 1625 3150 
Q 1625 2866 1622 2436 
Q 1619 2006 1619 1863 
Q 1619 1441 1641 1255 
Q 1663 1069 1716 984 
Q 1784 875 1895 815 
Q 2006 756 2150 756 
Q 2500 756 2700 1025 
Q 2900 1294 2900 1772 
L 2900 3500 
L 4019 3500 
L 4019 0 
L 2900 0 
L 2900 506 
Q 2647 200 2364 54 
Q 2081 -91 1741 -91 
Q 1134 -91 817 281 
Q 500 653 500 1363 
z
" id="DejaVuSans-Bold-75" transform="scale(0.015625)"/>
        <path d="M 4056 2131 
L 4056 0 
L 2931 0 
L 2931 347 
L 2931 1631 
Q 2931 2084 2911 2256 
Q 2891 2428 2841 2509 
Q 2775 2619 2662 2680 
Q 2550 2741 2406 2741 
Q 2056 2741 1856 2470 
Q 1656 2200 1656 1722 
L 1656 0 
L 538 0 
L 538 3500 
L 1656 3500 
L 1656 2988 
Q 1909 3294 2193 3439 
Q 2478 3584 2822 3584 
Q 3428 3584 3742 3212 
Q 4056 2841 4056 2131 
z
" id="DejaVuSans-Bold-6e" transform="scale(0.015625)"/>
       </defs>
       <use xlink:href="#DejaVuSans-Bold-4a"/>
       <use x="37.207031" xlink:href="#DejaVuSans-Bold-75"/>
       <use x="108.398438" xlink:href="#DejaVuSans-Bold-6e"/>
      </g>
     </g>
    </g>
    <g id="xtick_5">
     <g id="line2d_5">
      <g>
       <use style="fill:#555555;stroke:#555555;stroke-width:0.8;" x="323.696047" xlink:href="#m135de88cb1" y="541.28"/>
      </g>
     </g>
     <g id="text_5">
      <!-- Jul -->
      <g style="fill:#555555;" transform="translate(313.709016 558.917812)scale(0.14 -0.14)">
       <defs>
        <path d="M 538 4863 
L 1656 4863 
L 1656 0 
L 538 0 
L 538 4863 
z
" id="DejaVuSans-Bold-6c" transform="scale(0.015625)"/>
       </defs>
       <use xlink:href="#DejaVuSans-Bold-4a"/>
       <use x="37.207031" xlink:href="#DejaVuSans-Bold-75"/>
       <use x="108.398438" xlink:href="#DejaVuSans-Bold-6c"/>
      </g>
     </g>
    </g>
    <g id="xtick_6">
     <g id="line2d_6">
      <g>
       <use style="fill:#555555;stroke:#555555;stroke-width:0.8;" x="373.512867" xlink:href="#m135de88cb1" y="541.28"/>
      </g>
     </g>
     <g id="text_6">
      <!-- Aug -->
      <g style="fill:#555555;" transform="translate(358.101929 558.808437)scale(0.14 -0.14)">
       <defs>
        <path d="M 2919 594 
Q 2688 288 2409 144 
Q 2131 0 1766 0 
Q 1125 0 706 504 
Q 288 1009 288 1791 
Q 288 2575 706 3076 
Q 1125 3578 1766 3578 
Q 2131 3578 2409 3434 
Q 2688 3291 2919 2981 
L 2919 3500 
L 4044 3500 
L 4044 353 
Q 4044 -491 3511 -936 
Q 2978 -1381 1966 -1381 
Q 1638 -1381 1331 -1331 
Q 1025 -1281 716 -1178 
L 716 -306 
Q 1009 -475 1290 -558 
Q 1572 -641 1856 -641 
Q 2406 -641 2662 -400 
Q 2919 -159 2919 353 
L 2919 594 
z
M 2181 2772 
Q 1834 2772 1640 2515 
Q 1447 2259 1447 1791 
Q 1447 1309 1634 1061 
Q 1822 813 2181 813 
Q 2531 813 2725 1069 
Q 2919 1325 2919 1791 
Q 2919 2259 2725 2515 
Q 2531 2772 2181 2772 
z
" id="DejaVuSans-Bold-67" transform="scale(0.015625)"/>
       </defs>
       <use xlink:href="#DejaVuSans-Bold-41"/>
       <use x="77.392578" xlink:href="#DejaVuSans-Bold-75"/>
       <use x="148.583984" xlink:href="#DejaVuSans-Bold-67"/>
      </g>
     </g>
    </g>
    <g id="xtick_7">
     <g id="line2d_7">
      <g>
       <use style="fill:#555555;stroke:#555555;stroke-width:0.8;" x="423.329686" xlink:href="#m135de88cb1" y="541.28"/>
      </g>
     </g>
     <g id="text_7">
      <!-- Sep -->
      <g style="fill:#555555;" transform="translate(408.530155 558.917812)scale(0.14 -0.14)">
       <defs>
        <path d="M 3834 4519 
L 3834 3531 
Q 3450 3703 3084 3790 
Q 2719 3878 2394 3878 
Q 1963 3878 1756 3759 
Q 1550 3641 1550 3391 
Q 1550 3203 1689 3098 
Q 1828 2994 2194 2919 
L 2706 2816 
Q 3484 2659 3812 2340 
Q 4141 2022 4141 1434 
Q 4141 663 3683 286 
Q 3225 -91 2284 -91 
Q 1841 -91 1394 -6 
Q 947 78 500 244 
L 500 1259 
Q 947 1022 1364 901 
Q 1781 781 2169 781 
Q 2563 781 2772 912 
Q 2981 1044 2981 1288 
Q 2981 1506 2839 1625 
Q 2697 1744 2272 1838 
L 1806 1941 
Q 1106 2091 782 2419 
Q 459 2747 459 3303 
Q 459 4000 909 4375 
Q 1359 4750 2203 4750 
Q 2588 4750 2994 4692 
Q 3400 4634 3834 4519 
z
" id="DejaVuSans-Bold-53" transform="scale(0.015625)"/>
        <path d="M 4031 1759 
L 4031 1441 
L 1416 1441 
Q 1456 1047 1700 850 
Q 1944 653 2381 653 
Q 2734 653 3104 758 
Q 3475 863 3866 1075 
L 3866 213 
Q 3469 63 3072 -14 
Q 2675 -91 2278 -91 
Q 1328 -91 801 392 
Q 275 875 275 1747 
Q 275 2603 792 3093 
Q 1309 3584 2216 3584 
Q 3041 3584 3536 3087 
Q 4031 2591 4031 1759 
z
M 2881 2131 
Q 2881 2450 2695 2645 
Q 2509 2841 2209 2841 
Q 1884 2841 1681 2658 
Q 1478 2475 1428 2131 
L 2881 2131 
z
" id="DejaVuSans-Bold-65" transform="scale(0.015625)"/>
       </defs>
       <use xlink:href="#DejaVuSans-Bold-53"/>
       <use x="72.021484" xlink:href="#DejaVuSans-Bold-65"/>
       <use x="139.84375" xlink:href="#DejaVuSans-Bold-70"/>
      </g>
     </g>
    </g>
    <g id="xtick_8">
     <g id="line2d_8">
      <g>
       <use style="fill:#555555;stroke:#555555;stroke-width:0.8;" x="471.539512" xlink:href="#m135de88cb1" y="541.28"/>
      </g>
     </g>
     <g id="text_8">
      <!-- Oct -->
      <g style="fill:#555555;" transform="translate(458.092949 558.917812)scale(0.14 -0.14)">
       <defs>
        <path d="M 2719 3878 
Q 2169 3878 1866 3472 
Q 1563 3066 1563 2328 
Q 1563 1594 1866 1187 
Q 2169 781 2719 781 
Q 3272 781 3575 1187 
Q 3878 1594 3878 2328 
Q 3878 3066 3575 3472 
Q 3272 3878 2719 3878 
z
M 2719 4750 
Q 3844 4750 4481 4106 
Q 5119 3463 5119 2328 
Q 5119 1197 4481 553 
Q 3844 -91 2719 -91 
Q 1597 -91 958 553 
Q 319 1197 319 2328 
Q 319 3463 958 4106 
Q 1597 4750 2719 4750 
z
" id="DejaVuSans-Bold-4f" transform="scale(0.015625)"/>
        <path d="M 3366 3391 
L 3366 2478 
Q 3138 2634 2908 2709 
Q 2678 2784 2431 2784 
Q 1963 2784 1702 2511 
Q 1441 2238 1441 1747 
Q 1441 1256 1702 982 
Q 1963 709 2431 709 
Q 2694 709 2930 787 
Q 3166 866 3366 1019 
L 3366 103 
Q 3103 6 2833 -42 
Q 2563 -91 2291 -91 
Q 1344 -91 809 395 
Q 275 881 275 1747 
Q 275 2613 809 3098 
Q 1344 3584 2291 3584 
Q 2566 3584 2833 3536 
Q 3100 3488 3366 3391 
z
" id="DejaVuSans-Bold-63" transform="scale(0.015625)"/>
        <path d="M 1759 4494 
L 1759 3500 
L 2913 3500 
L 2913 2700 
L 1759 2700 
L 1759 1216 
Q 1759 972 1856 886 
Q 1953 800 2241 800 
L 2816 800 
L 2816 0 
L 1856 0 
Q 1194 0 917 276 
Q 641 553 641 1216 
L 641 2700 
L 84 2700 
L 84 3500 
L 641 3500 
L 641 4494 
L 1759 4494 
z
" id="DejaVuSans-Bold-74" transform="scale(0.015625)"/>
       </defs>
       <use xlink:href="#DejaVuSans-Bold-4f"/>
       <use x="85.009766" xlink:href="#DejaVuSans-Bold-63"/>
       <use x="144.287109" xlink:href="#DejaVuSans-Bold-74"/>
      </g>
     </g>
    </g>
    <g id="xtick_9">
     <g id="line2d_9">
      <g>
       <use style="fill:#555555;stroke:#555555;stroke-width:0.8;" x="521.356331" xlink:href="#m135de88cb1" y="541.28"/>
      </g>
     </g>
     <g id="text_9">
      <!-- Nov -->
      <g style="fill:#555555;" transform="translate(506.125863 558.917812)scale(0.14 -0.14)">
       <defs>
        <path d="M 588 4666 
L 1931 4666 
L 3628 1466 
L 3628 4666 
L 4769 4666 
L 4769 0 
L 3425 0 
L 1728 3200 
L 1728 0 
L 588 0 
L 588 4666 
z
" id="DejaVuSans-Bold-4e" transform="scale(0.015625)"/>
        <path d="M 2203 2784 
Q 1831 2784 1636 2517 
Q 1441 2250 1441 1747 
Q 1441 1244 1636 976 
Q 1831 709 2203 709 
Q 2569 709 2762 976 
Q 2956 1244 2956 1747 
Q 2956 2250 2762 2517 
Q 2569 2784 2203 2784 
z
M 2203 3584 
Q 3106 3584 3614 3096 
Q 4122 2609 4122 1747 
Q 4122 884 3614 396 
Q 3106 -91 2203 -91 
Q 1297 -91 786 396 
Q 275 884 275 1747 
Q 275 2609 786 3096 
Q 1297 3584 2203 3584 
z
" id="DejaVuSans-Bold-6f" transform="scale(0.015625)"/>
        <path d="M 97 3500 
L 1216 3500 
L 2088 1081 
L 2956 3500 
L 4078 3500 
L 2700 0 
L 1472 0 
L 97 3500 
z
" id="DejaVuSans-Bold-76" transform="scale(0.015625)"/>
       </defs>
       <use xlink:href="#DejaVuSans-Bold-4e"/>
       <use x="83.691406" xlink:href="#DejaVuSans-Bold-6f"/>
       <use x="152.392578" xlink:href="#DejaVuSans-Bold-76"/>
      </g>
     </g>
    </g>
    <g id="xtick_10">
     <g id="line2d_10">
      <g>
       <use style="fill:#555555;stroke:#555555;stroke-width:0.8;" x="569.566157" xlink:href="#m135de88cb1" y="541.28"/>
      </g>
     </g>
     <g id="text_10">
      <!-- Dec -->
      <g style="fill:#555555;" transform="translate(554.857407 558.917812)scale(0.14 -0.14)">
       <defs>
        <path d="M 1791 3756 
L 1791 909 
L 2222 909 
Q 2959 909 3348 1275 
Q 3738 1641 3738 2338 
Q 3738 3031 3350 3393 
Q 2963 3756 2222 3756 
L 1791 3756 
z
M 588 4666 
L 1856 4666 
Q 2919 4666 3439 4514 
Q 3959 4363 4331 4000 
Q 4659 3684 4818 3271 
Q 4978 2859 4978 2338 
Q 4978 1809 4818 1395 
Q 4659 981 4331 666 
Q 3956 303 3431 151 
Q 2906 0 1856 0 
L 588 0 
L 588 4666 
z
" id="DejaVuSans-Bold-44" transform="scale(0.015625)"/>
       </defs>
       <use xlink:href="#DejaVuSans-Bold-44"/>
       <use x="83.007812" xlink:href="#DejaVuSans-Bold-65"/>
       <use x="150.830078" xlink:href="#DejaVuSans-Bold-63"/>
      </g>
     </g>
    </g>
    <g id="xtick_11">
     <g id="line2d_11">
      <g>
       <use style="fill:#555555;stroke:#555555;stroke-width:0.8;" x="619.382977" xlink:href="#m135de88cb1" y="541.28"/>
      </g>
     </g>
     <g id="text_11">
      <!-- Jan -->
      <g style="fill:#555555;" transform="translate(607.071727 558.917812)scale(0.14 -0.14)">
       <use xlink:href="#DejaVuSans-Bold-4a"/>
       <use x="37.207031" xlink:href="#DejaVuSans-Bold-61"/>
       <use x="104.6875" xlink:href="#DejaVuSans-Bold-6e"/>
      </g>
     </g>
    </g>
    <g id="xtick_12">
     <g id="line2d_12">
      <g>
       <use style="fill:#555555;stroke:#555555;stroke-width:0.8;" x="669.199796" xlink:href="#m135de88cb1" y="541.28"/>
      </g>
     </g>
     <g id="text_12">
      <!-- Feb -->
      <g style="fill:#555555;" transform="translate(654.939484 558.917812)scale(0.14 -0.14)">
       <defs>
        <path d="M 588 4666 
L 3834 4666 
L 3834 3756 
L 1791 3756 
L 1791 2888 
L 3713 2888 
L 3713 1978 
L 1791 1978 
L 1791 0 
L 588 0 
L 588 4666 
z
" id="DejaVuSans-Bold-46" transform="scale(0.015625)"/>
        <path d="M 2400 722 
Q 2759 722 2948 984 
Q 3138 1247 3138 1747 
Q 3138 2247 2948 2509 
Q 2759 2772 2400 2772 
Q 2041 2772 1848 2508 
Q 1656 2244 1656 1747 
Q 1656 1250 1848 986 
Q 2041 722 2400 722 
z
M 1656 2988 
Q 1888 3294 2169 3439 
Q 2450 3584 2816 3584 
Q 3463 3584 3878 3070 
Q 4294 2556 4294 1747 
Q 4294 938 3878 423 
Q 3463 -91 2816 -91 
Q 2450 -91 2169 54 
Q 1888 200 1656 506 
L 1656 0 
L 538 0 
L 538 4863 
L 1656 4863 
L 1656 2988 
z
" id="DejaVuSans-Bold-62" transform="scale(0.015625)"/>
       </defs>
       <use xlink:href="#DejaVuSans-Bold-46"/>
       <use x="64.310547" xlink:href="#DejaVuSans-Bold-65"/>
       <use x="132.132812" xlink:href="#DejaVuSans-Bold-62"/>
      </g>
     </g>
    </g>
    <g id="xtick_13">
     <g id="line2d_13">
      <g>
       <use style="fill:#555555;stroke:#555555;stroke-width:0.8;" x="714.195634" xlink:href="#m135de88cb1" y="541.28"/>
      </g>
     </g>
     <g id="text_13">
      <!-- Mar -->
      <g style="fill:#555555;" transform="translate(699.053759 558.917812)scale(0.14 -0.14)">
       <use xlink:href="#DejaVuSans-Bold-4d"/>
       <use x="99.511719" xlink:href="#DejaVuSans-Bold-61"/>
       <use x="166.992188" xlink:href="#DejaVuSans-Bold-72"/>
      </g>
     </g>
    </g>
    <g id="xtick_14">
     <g id="line2d_14">
      <g>
       <use style="fill:#555555;stroke:#555555;stroke-width:0.8;" x="764.012453" xlink:href="#m135de88cb1" y="541.28"/>
      </g>
     </g>
     <g id="text_14">
      <!-- Apr -->
      <g style="fill:#555555;" transform="translate(750.132766 558.917812)scale(0.14 -0.14)">
       <use xlink:href="#DejaVuSans-Bold-41"/>
       <use x="77.392578" xlink:href="#DejaVuSans-Bold-70"/>
       <use x="148.974609" xlink:href="#DejaVuSans-Bold-72"/>
      </g>
     </g>
    </g>
    <g id="xtick_15">
     <g id="line2d_15">
      <g>
       <use style="fill:#555555;stroke:#555555;stroke-width:0.8;" x="812.222279" xlink:href="#m135de88cb1" y="541.28"/>
      </g>
     </g>
     <g id="text_15">
      <!-- May -->
      <g style="fill:#555555;" transform="translate(796.187904 558.808437)scale(0.14 -0.14)">
       <use xlink:href="#DejaVuSans-Bold-4d"/>
       <use x="99.511719" xlink:href="#DejaVuSans-Bold-61"/>
       <use x="163.867188" xlink:href="#DejaVuSans-Bold-79"/>
      </g>
     </g>
    </g>
    <g id="xtick_16">
     <g id="line2d_16">
      <g>
       <use style="fill:#555555;stroke:#555555;stroke-width:0.8;" x="862.039099" xlink:href="#m135de88cb1" y="541.28"/>
      </g>
     </g>
     <g id="text_16">
      <!-- Jun -->
      <g style="fill:#555555;" transform="translate(849.46863 558.917812)scale(0.14 -0.14)">
       <use xlink:href="#DejaVuSans-Bold-4a"/>
       <use x="37.207031" xlink:href="#DejaVuSans-Bold-75"/>
       <use x="108.398438" xlink:href="#DejaVuSans-Bold-6e"/>
      </g>
     </g>
    </g>
    <g id="xtick_17">
     <g id="line2d_17">
      <g>
       <use style="fill:#555555;stroke:#555555;stroke-width:0.8;" x="910.248924" xlink:href="#m135de88cb1" y="541.28"/>
      </g>
     </g>
     <g id="text_17">
      <!-- Jul -->
      <g style="fill:#555555;" transform="translate(900.261893 558.917812)scale(0.14 -0.14)">
       <use xlink:href="#DejaVuSans-Bold-4a"/>
       <use x="37.207031" xlink:href="#DejaVuSans-Bold-75"/>
       <use x="108.398438" xlink:href="#DejaVuSans-Bold-6c"/>
      </g>
     </g>
    </g>
    <g id="xtick_18">
     <g id="line2d_18">
      <g>
       <use style="fill:#555555;stroke:#555555;stroke-width:0.8;" x="960.065744" xlink:href="#m135de88cb1" y="541.28"/>
      </g>
     </g>
     <g id="text_18">
      <!-- Aug -->
      <g style="fill:#555555;" transform="translate(944.654806 558.808437)scale(0.14 -0.14)">
       <use xlink:href="#DejaVuSans-Bold-41"/>
       <use x="77.392578" xlink:href="#DejaVuSans-Bold-75"/>
       <use x="148.583984" xlink:href="#DejaVuSans-Bold-67"/>
      </g>
     </g>
    </g>
    <g id="xtick_19">
     <g id="line2d_19">
      <g>
       <use style="fill:#555555;stroke:#555555;stroke-width:0.8;" x="1009.882564" xlink:href="#m135de88cb1" y="541.28"/>
      </g>
     </g>
     <g id="text_19">
      <!-- Sep -->
      <g style="fill:#555555;" transform="translate(995.083032 558.917812)scale(0.14 -0.14)">
       <use xlink:href="#DejaVuSans-Bold-53"/>
       <use x="72.021484" xlink:href="#DejaVuSans-Bold-65"/>
       <use x="139.84375" xlink:href="#DejaVuSans-Bold-70"/>
      </g>
     </g>
    </g>
    <g id="xtick_20">
     <g id="line2d_20">
      <g>
       <use style="fill:#555555;stroke:#555555;stroke-width:0.8;" x="1058.092389" xlink:href="#m135de88cb1" y="541.28"/>
      </g>
     </g>
     <g id="text_20">
      <!-- Oct -->
      <g style="fill:#555555;" transform="translate(1044.645827 558.917812)scale(0.14 -0.14)">
       <use xlink:href="#DejaVuSans-Bold-4f"/>
       <use x="85.009766" xlink:href="#DejaVuSans-Bold-63"/>
       <use x="144.287109" xlink:href="#DejaVuSans-Bold-74"/>
      </g>
     </g>
    </g>
    <g id="xtick_21">
     <g id="line2d_21">
      <g>
       <use style="fill:#555555;stroke:#555555;stroke-width:0.8;" x="1107.909209" xlink:href="#m135de88cb1" y="541.28"/>
      </g>
     </g>
     <g id="text_21">
      <!-- Nov -->
      <g style="fill:#555555;" transform="translate(1092.67874 558.917812)scale(0.14 -0.14)">
       <use xlink:href="#DejaVuSans-Bold-4e"/>
       <use x="83.691406" xlink:href="#DejaVuSans-Bold-6f"/>
       <use x="152.392578" xlink:href="#DejaVuSans-Bold-76"/>
      </g>
     </g>
    </g>
   </g>
   <g id="matplotlib.axis_2">
    <g id="ytick_1">
     <g id="line2d_22">
      <defs>
       <path d="M 0 0 
L -3.5 0 
" id="mc8de0a62fb" style="stroke:#555555;stroke-width:0.8;"/>
      </defs>
      <g>
       <use style="fill:#555555;stroke:#555555;stroke-width:0.8;" x="87.95" xlink:href="#mc8de0a62fb" y="519.485405"/>
      </g>
     </g>
     <g id="text_22">
      <!-- 0 -->
      <g style="fill:#555555;" transform="translate(71.209063 524.804311)scale(0.14 -0.14)">
       <defs>
        <path d="M 2944 2338 
Q 2944 3213 2780 3570 
Q 2616 3928 2228 3928 
Q 1841 3928 1675 3570 
Q 1509 3213 1509 2338 
Q 1509 1453 1675 1090 
Q 1841 728 2228 728 
Q 2613 728 2778 1090 
Q 2944 1453 2944 2338 
z
M 4147 2328 
Q 4147 1169 3647 539 
Q 3147 -91 2228 -91 
Q 1306 -91 806 539 
Q 306 1169 306 2328 
Q 306 3491 806 4120 
Q 1306 4750 2228 4750 
Q 3147 4750 3647 4120 
Q 4147 3491 4147 2328 
z
" id="DejaVuSans-Bold-30" transform="scale(0.015625)"/>
       </defs>
       <use xlink:href="#DejaVuSans-Bold-30"/>
      </g>
     </g>
    </g>
    <g id="ytick_2">
     <g id="line2d_23">
      <g>
       <use style="fill:#555555;stroke:#555555;stroke-width:0.8;" x="87.95" xlink:href="#mc8de0a62fb" y="448.872754"/>
      </g>
     </g>
     <g id="text_23">
      <!-- 2000 -->
      <g style="fill:#555555;" transform="translate(41.98625 454.19166)scale(0.14 -0.14)">
       <defs>
        <path d="M 1844 884 
L 3897 884 
L 3897 0 
L 506 0 
L 506 884 
L 2209 2388 
Q 2438 2594 2547 2791 
Q 2656 2988 2656 3200 
Q 2656 3528 2436 3728 
Q 2216 3928 1850 3928 
Q 1569 3928 1234 3808 
Q 900 3688 519 3450 
L 519 4475 
Q 925 4609 1322 4679 
Q 1719 4750 2100 4750 
Q 2938 4750 3402 4381 
Q 3866 4013 3866 3353 
Q 3866 2972 3669 2642 
Q 3472 2313 2841 1759 
L 1844 884 
z
" id="DejaVuSans-Bold-32" transform="scale(0.015625)"/>
       </defs>
       <use xlink:href="#DejaVuSans-Bold-32"/>
       <use x="69.580078" xlink:href="#DejaVuSans-Bold-30"/>
       <use x="139.160156" xlink:href="#DejaVuSans-Bold-30"/>
       <use x="208.740234" xlink:href="#DejaVuSans-Bold-30"/>
      </g>
     </g>
    </g>
    <g id="ytick_3">
     <g id="line2d_24">
      <g>
       <use style="fill:#555555;stroke:#555555;stroke-width:0.8;" x="87.95" xlink:href="#mc8de0a62fb" y="378.260103"/>
      </g>
     </g>
     <g id="text_24">
      <!-- 4000 -->
      <g style="fill:#555555;" transform="translate(41.98625 383.579009)scale(0.14 -0.14)">
       <defs>
        <path d="M 2356 3675 
L 1038 1722 
L 2356 1722 
L 2356 3675 
z
M 2156 4666 
L 3494 4666 
L 3494 1722 
L 4159 1722 
L 4159 850 
L 3494 850 
L 3494 0 
L 2356 0 
L 2356 850 
L 288 850 
L 288 1881 
L 2156 4666 
z
" id="DejaVuSans-Bold-34" transform="scale(0.015625)"/>
       </defs>
       <use xlink:href="#DejaVuSans-Bold-34"/>
       <use x="69.580078" xlink:href="#DejaVuSans-Bold-30"/>
       <use x="139.160156" xlink:href="#DejaVuSans-Bold-30"/>
       <use x="208.740234" xlink:href="#DejaVuSans-Bold-30"/>
      </g>
     </g>
    </g>
    <g id="ytick_4">
     <g id="line2d_25">
      <g>
       <use style="fill:#555555;stroke:#555555;stroke-width:0.8;" x="87.95" xlink:href="#mc8de0a62fb" y="307.647451"/>
      </g>
     </g>
     <g id="text_25">
      <!-- 6000 -->
      <g style="fill:#555555;" transform="translate(41.98625 312.966358)scale(0.14 -0.14)">
       <defs>
        <path d="M 2316 2303 
Q 2000 2303 1842 2098 
Q 1684 1894 1684 1484 
Q 1684 1075 1842 870 
Q 2000 666 2316 666 
Q 2634 666 2792 870 
Q 2950 1075 2950 1484 
Q 2950 1894 2792 2098 
Q 2634 2303 2316 2303 
z
M 3803 4544 
L 3803 3681 
Q 3506 3822 3243 3889 
Q 2981 3956 2731 3956 
Q 2194 3956 1894 3657 
Q 1594 3359 1544 2772 
Q 1750 2925 1990 3001 
Q 2231 3078 2516 3078 
Q 3231 3078 3670 2659 
Q 4109 2241 4109 1563 
Q 4109 813 3618 361 
Q 3128 -91 2303 -91 
Q 1394 -91 895 523 
Q 397 1138 397 2266 
Q 397 3422 980 4083 
Q 1563 4744 2578 4744 
Q 2900 4744 3203 4694 
Q 3506 4644 3803 4544 
z
" id="DejaVuSans-Bold-36" transform="scale(0.015625)"/>
       </defs>
       <use xlink:href="#DejaVuSans-Bold-36"/>
       <use x="69.580078" xlink:href="#DejaVuSans-Bold-30"/>
       <use x="139.160156" xlink:href="#DejaVuSans-Bold-30"/>
       <use x="208.740234" xlink:href="#DejaVuSans-Bold-30"/>
      </g>
     </g>
    </g>
    <g id="ytick_5">
     <g id="line2d_26">
      <g>
       <use style="fill:#555555;stroke:#555555;stroke-width:0.8;" x="87.95" xlink:href="#mc8de0a62fb" y="237.0348"/>
      </g>
     </g>
     <g id="text_26">
      <!-- 8000 -->
      <g style="fill:#555555;" transform="translate(41.98625 242.353706)scale(0.14 -0.14)">
       <defs>
        <path d="M 2228 2088 
Q 1891 2088 1709 1903 
Q 1528 1719 1528 1375 
Q 1528 1031 1709 848 
Q 1891 666 2228 666 
Q 2563 666 2741 848 
Q 2919 1031 2919 1375 
Q 2919 1722 2741 1905 
Q 2563 2088 2228 2088 
z
M 1350 2484 
Q 925 2613 709 2878 
Q 494 3144 494 3541 
Q 494 4131 934 4440 
Q 1375 4750 2228 4750 
Q 3075 4750 3515 4442 
Q 3956 4134 3956 3541 
Q 3956 3144 3739 2878 
Q 3522 2613 3097 2484 
Q 3572 2353 3814 2058 
Q 4056 1763 4056 1313 
Q 4056 619 3595 264 
Q 3134 -91 2228 -91 
Q 1319 -91 855 264 
Q 391 619 391 1313 
Q 391 1763 633 2058 
Q 875 2353 1350 2484 
z
M 1631 3419 
Q 1631 3141 1786 2991 
Q 1941 2841 2228 2841 
Q 2509 2841 2662 2991 
Q 2816 3141 2816 3419 
Q 2816 3697 2662 3845 
Q 2509 3994 2228 3994 
Q 1941 3994 1786 3844 
Q 1631 3694 1631 3419 
z
" id="DejaVuSans-Bold-38" transform="scale(0.015625)"/>
       </defs>
       <use xlink:href="#DejaVuSans-Bold-38"/>
       <use x="69.580078" xlink:href="#DejaVuSans-Bold-30"/>
       <use x="139.160156" xlink:href="#DejaVuSans-Bold-30"/>
       <use x="208.740234" xlink:href="#DejaVuSans-Bold-30"/>
      </g>
     </g>
    </g>
    <g id="ytick_6">
     <g id="line2d_27">
      <g>
       <use style="fill:#555555;stroke:#555555;stroke-width:0.8;" x="87.95" xlink:href="#mc8de0a62fb" y="166.422149"/>
      </g>
     </g>
     <g id="text_27">
      <!-- 10000 -->
      <g style="fill:#555555;" transform="translate(32.245313 171.741055)scale(0.14 -0.14)">
       <defs>
        <path d="M 750 831 
L 1813 831 
L 1813 3847 
L 722 3622 
L 722 4441 
L 1806 4666 
L 2950 4666 
L 2950 831 
L 4013 831 
L 4013 0 
L 750 0 
L 750 831 
z
" id="DejaVuSans-Bold-31" transform="scale(0.015625)"/>
       </defs>
       <use xlink:href="#DejaVuSans-Bold-31"/>
       <use x="69.580078" xlink:href="#DejaVuSans-Bold-30"/>
       <use x="139.160156" xlink:href="#DejaVuSans-Bold-30"/>
       <use x="208.740234" xlink:href="#DejaVuSans-Bold-30"/>
       <use x="278.320312" xlink:href="#DejaVuSans-Bold-30"/>
      </g>
     </g>
    </g>
    <g id="ytick_7">
     <g id="line2d_28">
      <g>
       <use style="fill:#555555;stroke:#555555;stroke-width:0.8;" x="87.95" xlink:href="#mc8de0a62fb" y="95.809498"/>
      </g>
     </g>
     <g id="text_28">
      <!-- 12000 -->
      <g style="fill:#555555;" transform="translate(32.245313 101.128404)scale(0.14 -0.14)">
       <use xlink:href="#DejaVuSans-Bold-31"/>
       <use x="69.580078" xlink:href="#DejaVuSans-Bold-32"/>
       <use x="139.160156" xlink:href="#DejaVuSans-Bold-30"/>
       <use x="208.740234" xlink:href="#DejaVuSans-Bold-30"/>
       <use x="278.320312" xlink:href="#DejaVuSans-Bold-30"/>
      </g>
     </g>
    </g>
    <g id="text_29">
     <!-- New Cases -->
     <g style="fill:#555555;" transform="translate(24.917813 333.23875)rotate(-90)scale(0.16 -0.16)">
      <defs>
       <path d="M 628 4666 
L 1478 4666 
L 3547 763 
L 3547 4666 
L 4159 4666 
L 4159 0 
L 3309 0 
L 1241 3903 
L 1241 0 
L 628 0 
L 628 4666 
z
" id="DejaVuSans-4e" transform="scale(0.015625)"/>
       <path d="M 3597 1894 
L 3597 1613 
L 953 1613 
Q 991 1019 1311 708 
Q 1631 397 2203 397 
Q 2534 397 2845 478 
Q 3156 559 3463 722 
L 3463 178 
Q 3153 47 2828 -22 
Q 2503 -91 2169 -91 
Q 1331 -91 842 396 
Q 353 884 353 1716 
Q 353 2575 817 3079 
Q 1281 3584 2069 3584 
Q 2775 3584 3186 3129 
Q 3597 2675 3597 1894 
z
M 3022 2063 
Q 3016 2534 2758 2815 
Q 2500 3097 2075 3097 
Q 1594 3097 1305 2825 
Q 1016 2553 972 2059 
L 3022 2063 
z
" id="DejaVuSans-65" transform="scale(0.015625)"/>
       <path d="M 269 3500 
L 844 3500 
L 1563 769 
L 2278 3500 
L 2956 3500 
L 3675 769 
L 4391 3500 
L 4966 3500 
L 4050 0 
L 3372 0 
L 2619 2869 
L 1863 0 
L 1184 0 
L 269 3500 
z
" id="DejaVuSans-77" transform="scale(0.015625)"/>
       <path id="DejaVuSans-20" transform="scale(0.015625)"/>
       <path d="M 4122 4306 
L 4122 3641 
Q 3803 3938 3442 4084 
Q 3081 4231 2675 4231 
Q 1875 4231 1450 3742 
Q 1025 3253 1025 2328 
Q 1025 1406 1450 917 
Q 1875 428 2675 428 
Q 3081 428 3442 575 
Q 3803 722 4122 1019 
L 4122 359 
Q 3791 134 3420 21 
Q 3050 -91 2638 -91 
Q 1578 -91 968 557 
Q 359 1206 359 2328 
Q 359 3453 968 4101 
Q 1578 4750 2638 4750 
Q 3056 4750 3426 4639 
Q 3797 4528 4122 4306 
z
" id="DejaVuSans-43" transform="scale(0.015625)"/>
       <path d="M 2194 1759 
Q 1497 1759 1228 1600 
Q 959 1441 959 1056 
Q 959 750 1161 570 
Q 1363 391 1709 391 
Q 2188 391 2477 730 
Q 2766 1069 2766 1631 
L 2766 1759 
L 2194 1759 
z
M 3341 1997 
L 3341 0 
L 2766 0 
L 2766 531 
Q 2569 213 2275 61 
Q 1981 -91 1556 -91 
Q 1019 -91 701 211 
Q 384 513 384 1019 
Q 384 1609 779 1909 
Q 1175 2209 1959 2209 
L 2766 2209 
L 2766 2266 
Q 2766 2663 2505 2880 
Q 2244 3097 1772 3097 
Q 1472 3097 1187 3025 
Q 903 2953 641 2809 
L 641 3341 
Q 956 3463 1253 3523 
Q 1550 3584 1831 3584 
Q 2591 3584 2966 3190 
Q 3341 2797 3341 1997 
z
" id="DejaVuSans-61" transform="scale(0.015625)"/>
       <path d="M 2834 3397 
L 2834 2853 
Q 2591 2978 2328 3040 
Q 2066 3103 1784 3103 
Q 1356 3103 1142 2972 
Q 928 2841 928 2578 
Q 928 2378 1081 2264 
Q 1234 2150 1697 2047 
L 1894 2003 
Q 2506 1872 2764 1633 
Q 3022 1394 3022 966 
Q 3022 478 2636 193 
Q 2250 -91 1575 -91 
Q 1294 -91 989 -36 
Q 684 19 347 128 
L 347 722 
Q 666 556 975 473 
Q 1284 391 1588 391 
Q 1994 391 2212 530 
Q 2431 669 2431 922 
Q 2431 1156 2273 1281 
Q 2116 1406 1581 1522 
L 1381 1569 
Q 847 1681 609 1914 
Q 372 2147 372 2553 
Q 372 3047 722 3315 
Q 1072 3584 1716 3584 
Q 2034 3584 2315 3537 
Q 2597 3491 2834 3397 
z
" id="DejaVuSans-73" transform="scale(0.015625)"/>
      </defs>
      <use xlink:href="#DejaVuSans-4e"/>
      <use x="74.804688" xlink:href="#DejaVuSans-65"/>
      <use x="136.328125" xlink:href="#DejaVuSans-77"/>
      <use x="218.115234" xlink:href="#DejaVuSans-20"/>
      <use x="249.902344" xlink:href="#DejaVuSans-43"/>
      <use x="319.726562" xlink:href="#DejaVuSans-61"/>
      <use x="381.005859" xlink:href="#DejaVuSans-73"/>
      <use x="433.105469" xlink:href="#DejaVuSans-65"/>
      <use x="494.628906" xlink:href="#DejaVuSans-73"/>
     </g>
    </g>
   </g>
   <g id="line2d_29">
    <path clip-path="url(#p4181641a56)" d="M 135.677727 518.073152 
L 137.284721 517.720089 
L 138.891716 518.355603 
L 140.49871 517.331719 
L 142.105704 514.895583 
L 143.712698 515.142727 
L 145.319692 515.001502 
L 146.926687 515.49579 
L 148.533681 511.75332 
L 150.140675 513.377411 
L 151.747669 509.952697 
L 153.354663 509.317183 
L 154.961657 507.23411 
L 156.568652 505.5041 
L 158.175646 500.667134 
L 159.78264 496.995276 
L 161.389634 498.125078 
L 162.996628 499.961007 
L 164.603623 493.040967 
L 166.210617 489.722173 
L 169.424605 478.282923 
L 171.031599 479.024356 
L 172.638594 480.930898 
L 174.245588 488.662983 
L 175.852582 490.03993 
L 177.459576 483.896629 
L 179.06657 481.248655 
L 180.673564 483.472953 
L 182.280559 484.108467 
L 183.887553 480.683753 
L 187.101541 491.875859 
L 188.708535 485.626639 
L 190.31553 476.835364 
L 191.922524 472.633911 
L 193.529518 473.551876 
L 195.136512 478.141698 
L 196.743506 485.626639 
L 198.3505 489.051352 
L 199.957495 493.711787 
L 201.564489 481.742943 
L 203.171483 475.917399 
L 204.778477 477.612103 
L 206.385471 483.367034 
L 207.992466 493.076274 
L 209.59946 494.206076 
L 211.206454 494.488527 
L 212.813448 488.627677 
L 214.420442 491.063813 
L 216.027436 496.642212 
L 217.634431 496.500987 
L 219.241425 505.186343 
L 220.848419 512.671284 
L 222.455413 505.786551 
L 224.062407 501.585098 
L 225.669402 502.608982 
L 227.276396 504.056541 
L 228.88339 507.551867 
L 230.490384 512.388834 
L 232.097378 508.222687 
L 233.704373 508.222687 
L 235.311367 506.739822 
L 236.918361 508.222687 
L 238.525355 509.317183 
L 240.132349 510.941274 
L 241.739343 513.165573 
L 243.346338 512.600672 
L 244.953332 511.612095 
L 246.560326 509.811472 
L 248.16732 512.353527 
L 249.774314 512.635978 
L 251.381309 515.072114 
L 252.988303 514.260069 
L 254.595297 515.566403 
L 256.202291 512.883122 
L 257.809285 510.517598 
L 259.416279 512.989041 
L 262.630268 513.377411 
L 264.237262 511.965158 
L 265.844256 514.930889 
L 267.45125 512.635978 
L 269.058245 513.200879 
L 270.665239 513.200879 
L 272.272233 514.507213 
L 273.879227 513.271492 
L 275.486221 515.813547 
L 277.093215 516.131304 
L 278.70021 516.201917 
L 280.307204 512.847816 
L 281.914198 511.823933 
L 283.521192 512.777203 
L 285.128186 511.047193 
L 286.735181 513.624555 
L 288.342175 513.695168 
L 289.949169 513.09496 
L 291.556163 513.76578 
L 293.163157 512.176996 
L 294.770152 513.09496 
L 296.377146 514.401294 
L 297.98414 513.871699 
L 299.591134 514.754358 
L 301.198128 515.49579 
L 302.805122 515.107421 
L 306.019111 516.307836 
L 307.626105 516.131304 
L 309.233099 517.084575 
L 310.840093 517.013962 
L 312.447088 516.660899 
L 314.054082 515.601709 
L 317.26807 516.766818 
L 318.875064 517.155188 
L 320.482058 516.802124 
L 322.089053 517.472945 
L 323.696047 517.296413 
L 325.303041 516.837431 
L 326.910035 516.802124 
L 328.517029 517.190494 
L 330.124024 516.94335 
L 331.731018 518.037846 
L 333.338012 518.28499 
L 334.945006 517.472945 
L 338.158994 517.190494 
L 339.765989 516.519674 
L 341.372983 516.131304 
L 342.979977 516.94335 
L 344.586971 516.025385 
L 347.80096 515.283952 
L 349.407954 515.637016 
L 351.014948 514.365988 
L 352.621942 514.365988 
L 354.228936 513.024348 
L 355.835931 513.518636 
L 357.442925 513.48333 
L 360.656913 514.012925 
L 363.870901 511.965158 
L 365.477896 512.106383 
L 367.08489 511.576788 
L 368.691884 510.729436 
L 370.298878 507.445948 
L 371.905872 507.445948 
L 373.512867 504.268379 
L 375.119861 506.810434 
L 376.726855 506.351452 
L 378.333849 502.291225 
L 379.940843 504.374298 
L 381.547837 498.125078 
L 383.154832 501.232035 
L 384.761826 502.397144 
L 386.36882 499.113655 
L 387.975814 491.699327 
L 389.582808 497.595483 
L 391.189803 496.500987 
L 392.796797 499.148962 
L 394.403791 497.348339 
L 396.010785 496.324456 
L 397.617779 501.867549 
L 399.224773 502.326531 
L 400.831768 502.079387 
L 402.438762 499.961007 
L 404.045756 500.737746 
L 405.65275 500.667134 
L 407.259744 501.585098 
L 408.866739 503.421027 
L 410.473733 499.254881 
L 412.080727 504.797974 
L 413.687721 499.290187 
L 415.294715 501.549792 
L 416.90171 501.796936 
L 420.115698 501.620404 
L 421.722692 500.914278 
L 423.329686 502.997351 
L 424.93668 494.064851 
L 426.543675 498.336916 
L 428.150669 493.252805 
L 429.757663 496.5716 
L 431.364657 487.003586 
L 432.971651 491.416876 
L 436.18564 479.236194 
L 437.792634 489.934011 
L 439.399628 474.611065 
L 441.006622 476.341075 
L 442.613616 481.107429 
L 444.220611 473.693101 
L 445.827605 470.903901 
L 447.434599 465.219583 
L 450.648587 450.461539 
L 452.255582 452.685837 
L 453.862576 454.380541 
L 455.46957 441.423119 
L 457.076564 440.505155 
L 458.683558 437.080441 
L 460.290552 429.948563 
L 461.897547 421.898721 
L 463.504541 424.158326 
L 465.111535 414.41378 
L 466.718529 417.026448 
L 468.325523 413.425203 
L 469.932518 403.468819 
L 471.539512 404.633928 
L 473.146506 385.180142 
L 474.7535 380.555014 
L 476.360494 378.86031 
L 477.967489 358.665092 
L 479.574483 359.93612 
L 481.181477 343.942354 
L 482.788471 315.273618 
L 484.395465 309.059704 
L 486.002459 290.771028 
L 487.609454 295.572688 
L 489.216448 279.296472 
L 490.823442 260.584119 
L 492.430436 263.479238 
L 494.03743 244.908111 
L 495.644425 238.76481 
L 497.251419 233.327636 
L 498.858413 231.809464 
L 500.465407 237.529089 
L 502.072401 231.950689 
L 505.28639 192.866587 
L 506.893384 167.410726 
L 508.500378 214.368139 
L 510.107372 160.490686 
L 511.714366 155.724332 
L 513.321361 157.030666 
L 514.928355 234.316213 
L 516.535349 157.772099 
L 518.142343 128.785606 
L 519.749337 174.507297 
L 521.356331 213.061805 
L 522.963326 227.678624 
L 524.57032 246.285057 
L 526.177314 251.15733 
L 527.784308 274.247667 
L 529.391302 264.361896 
L 530.998297 285.898755 
L 534.212285 354.640171 
L 535.819279 355.522829 
L 537.426273 329.431454 
L 539.033268 321.099161 
L 540.640262 305.246621 
L 542.247256 311.284003 
L 543.85425 328.195733 
L 547.068238 368.374331 
L 548.675233 357.676515 
L 550.282227 318.733638 
L 551.889221 310.048282 
L 553.496215 307.506226 
L 555.103209 330.314112 
L 556.710204 336.563332 
L 558.317198 380.131338 
L 559.924192 346.131346 
L 561.531186 361.736742 
L 563.13818 316.438726 
L 564.745174 361.842661 
L 566.352169 323.005703 
L 567.959163 358.064884 
L 569.566157 376.918462 
L 571.173151 346.201959 
L 572.780145 321.98182 
L 574.38714 311.495841 
L 575.994134 288.970405 
L 577.601128 280.779338 
L 579.208122 269.022331 
L 580.815116 303.445999 
L 582.42211 288.44081 
L 584.029105 212.002615 
L 585.636099 207.483406 
L 587.243093 197.421103 
L 588.850087 170.764827 
L 590.457081 220.758584 
L 592.064076 285.36916 
L 593.67107 125.254973 
L 595.278064 68.341176 
L 596.885058 97.362976 
L 598.492052 87.900881 
L 600.099047 60.609091 
L 601.706041 125.608036 
L 603.313035 172.706675 
L 604.920029 152.617376 
L 606.527023 113.674498 
L 608.134017 113.639192 
L 609.741012 172.953819 
L 611.348006 201.551943 
L 612.955 258.289208 
L 614.561994 254.052449 
L 616.168988 185.875934 
L 617.775983 178.285074 
L 619.382977 231.068031 
L 620.989971 216.239374 
L 622.596965 258.359821 
L 624.203959 285.333854 
L 625.810953 294.619417 
L 627.417948 269.198863 
L 629.024942 177.790786 
L 630.631936 233.080492 
L 633.845924 286.393043 
L 635.452919 327.136543 
L 637.059913 345.001544 
L 638.666907 304.434576 
L 640.273901 290.029595 
L 641.880895 306.764793 
L 643.48789 332.538411 
L 645.094884 322.405495 
L 646.701878 350.579943 
L 648.308872 367.844737 
L 649.915866 322.864478 
L 651.52286 314.532185 
L 653.129855 316.650564 
L 654.736849 327.207156 
L 656.343843 347.15523 
L 657.950837 375.11784 
L 659.557831 379.707662 
L 661.164826 352.663017 
L 662.77182 353.863432 
L 664.378814 364.243491 
L 665.985808 372.187415 
L 667.592802 389.664046 
L 669.199796 405.163523 
L 670.806791 394.218562 
L 672.413785 377.624589 
L 674.020779 371.234144 
L 675.627773 367.067997 
L 677.234767 375.11784 
L 678.841762 381.155221 
L 680.448756 439.799028 
L 682.05575 457.381578 
L 683.662744 407.458434 
L 685.269738 363.184302 
L 686.876732 366.714934 
L 688.483727 372.187415 
L 690.090721 398.56124 
L 691.697715 419.144828 
L 693.304709 424.511389 
L 694.911703 400.5737 
L 696.518698 358.559173 
L 698.125692 354.393027 
L 699.732686 359.229993 
L 701.33968 354.640171 
L 702.946674 371.94027 
L 704.553669 385.003611 
L 706.160663 365.267375 
L 707.767657 343.448066 
L 709.374651 339.811514 
L 710.981645 345.70767 
L 712.588639 355.875892 
L 714.195634 387.12199 
L 715.802628 379.495824 
L 717.409622 342.141732 
L 719.016616 375.011921 
L 720.62361 354.887315 
L 722.230605 331.938203 
L 723.837599 360.324489 
L 725.444593 382.355636 
L 727.051587 368.162494 
L 728.658581 333.809439 
L 730.265575 332.467798 
L 731.87257 308.53011 
L 733.479564 294.407579 
L 736.693552 325.230002 
L 738.300546 345.001544 
L 739.907541 310.895633 
L 741.514535 303.022323 
L 743.121529 260.054524 
L 744.728523 251.086718 
L 747.942511 297.055554 
L 749.549506 321.487531 
L 751.1565 252.710809 
L 752.763494 248.050374 
L 754.370488 252.640196 
L 755.977482 209.425253 
L 757.584477 255.747153 
L 759.191471 280.073211 
L 760.798465 312.766869 
L 762.405459 250.133447 
L 764.012453 243.425245 
L 765.619448 264.785572 
L 767.226442 251.263249 
L 768.833436 277.213399 
L 770.44043 331.161464 
L 772.047424 323.217541 
L 773.654418 294.619417 
L 775.261413 245.473012 
L 776.868407 249.038951 
L 778.475401 249.074257 
L 780.082395 232.021302 
L 781.689389 284.415889 
L 783.296384 282.156284 
L 784.903378 327.418994 
L 786.510372 212.53221 
L 788.117366 205.61217 
L 789.72436 228.1023 
L 791.331354 218.604898 
L 792.938349 266.762726 
L 794.545343 278.660958 
L 796.152337 220.370214 
L 797.759331 181.286112 
L 799.366325 193.396182 
L 800.97332 234.845808 
L 802.580314 236.328674 
L 804.187308 299.668222 
L 805.794302 332.185348 
L 807.401296 214.050382 
L 809.00829 262.349436 
L 810.615285 245.367093 
L 812.222279 315.308924 
L 813.829273 326.677561 
L 815.436267 195.161498 
L 817.043261 245.578931 
L 820.25725 281.061788 
L 821.864244 256.135522 
L 823.471238 257.371244 
L 826.685227 312.555031 
L 828.292221 324.417956 
L 829.899215 295.607994 
L 831.506209 307.223775 
L 833.113203 323.782442 
L 834.720197 361.595517 
L 836.327192 363.290221 
L 837.934186 418.579927 
L 839.54118 331.479221 
L 841.148174 358.912236 
L 842.755168 356.511406 
L 844.362163 373.38783 
L 845.969157 407.458434 
L 847.576151 398.631853 
L 849.183145 423.169749 
L 850.790139 431.784492 
L 852.397133 422.816686 
L 854.004128 400.326556 
L 855.611122 383.944421 
L 857.218116 401.385746 
L 858.82511 426.912219 
L 860.432104 448.166627 
L 862.039099 431.925718 
L 863.646093 429.136518 
L 865.253087 422.00464 
L 866.860081 434.926755 
L 868.467075 444.706607 
L 870.074069 464.125087 
L 871.681064 467.655719 
L 873.288058 468.785522 
L 874.895052 457.664029 
L 876.502046 463.80733 
L 878.10904 470.515532 
L 879.716035 475.740868 
L 881.323029 482.73152 
L 882.930023 488.451145 
L 884.537017 482.766827 
L 886.144011 483.331728 
L 887.751006 482.096006 
L 889.358 488.062775 
L 890.964994 495.053428 
L 892.571988 494.417914 
L 894.178982 499.396106 
L 895.785976 494.84159 
L 897.392971 496.006699 
L 898.999965 494.912203 
L 900.606959 496.677519 
L 902.213953 499.890394 
L 903.820947 501.796936 
L 905.427942 499.466719 
L 907.034936 500.843665 
L 908.64193 497.030582 
L 910.248924 490.463606 
L 911.855918 486.297459 
L 913.462912 479.94232 
L 915.069907 477.117814 
L 916.676901 466.102241 
L 918.283895 442.093939 
L 919.890889 392.347327 
L 921.497883 329.007778 
L 923.104878 276.471966 
L 924.711872 158.513532 
L 927.92586 221.817774 
L 929.532854 244.025453 
L 931.139848 152.087781 
L 932.746843 131.892562 
L 934.353837 121.936179 
L 935.960831 129.315201 
L 937.567825 159.925785 
L 939.174819 206.177072 
L 940.781814 280.249743 
L 942.388808 277.38993 
L 943.995802 299.421078 
L 945.602796 294.548805 
L 947.20979 333.809439 
L 948.816785 356.829163 
L 950.423779 384.120953 
L 952.030773 379.001535 
L 953.637767 397.89042 
L 955.244761 362.301643 
L 956.851755 398.278789 
L 958.45875 415.614195 
L 960.065744 437.821874 
L 961.672738 445.377428 
L 963.279732 441.458426 
L 964.886726 420.874838 
L 966.493721 401.880034 
L 968.100715 416.885223 
L 969.707709 434.856143 
L 971.314703 438.033712 
L 972.921697 447.56642 
L 974.528691 443.153129 
L 976.135686 444.671301 
L 977.74268 428.854067 
L 979.349674 425.429354 
L 980.956668 438.139631 
L 982.563662 439.657803 
L 984.170657 440.540461 
L 985.777651 438.104325 
L 987.384645 421.157288 
L 988.991639 431.784492 
L 990.598633 441.529038 
L 992.205627 433.337971 
L 993.812622 432.561231 
L 995.419616 435.385738 
L 997.02661 432.631844 
L 998.633604 420.062792 
L 1000.240598 427.229976 
L 1001.847593 420.698306 
L 1003.454587 432.984907 
L 1006.668575 442.835372 
L 1008.275569 439.163514 
L 1009.882564 420.980757 
L 1011.489558 421.016063 
L 1013.096552 430.160401 
L 1014.703546 422.463622 
L 1016.31054 436.233089 
L 1017.917534 444.847833 
L 1019.524529 432.208168 
L 1021.131523 420.839531 
L 1022.738517 436.268396 
L 1024.345511 425.005678 
L 1025.952505 441.529038 
L 1027.5595 445.518653 
L 1029.166494 457.628723 
L 1030.773488 448.837448 
L 1032.380482 435.632882 
L 1033.987476 445.695185 
L 1035.59447 444.424157 
L 1037.201465 448.378465 
L 1038.808459 460.700373 
L 1040.415453 471.715947 
L 1042.022447 460.770986 
L 1043.629441 452.615224 
L 1045.236436 455.545649 
L 1046.84343 459.67649 
L 1048.450424 462.995284 
L 1050.057418 463.03059 
L 1051.664412 470.515532 
L 1053.271406 458.829138 
L 1054.878401 457.664029 
L 1056.485395 459.358733 
L 1058.092389 458.864444 
L 1059.699383 460.559148 
L 1061.306377 462.924672 
L 1062.913372 462.642221 
L 1064.520366 452.332774 
L 1066.12736 452.226855 
L 1067.734354 422.993217 
L 1069.341348 421.686883 
L 1070.948343 431.784492 
L 1072.555337 422.816686 
L 1074.162331 440.010866 
L 1075.769325 417.591349 
L 1077.376319 388.145874 
L 1078.983313 391.040993 
L 1080.590308 388.887307 
L 1082.197302 389.063838 
L 1083.804296 390.158334 
L 1085.41129 400.820845 
L 1087.018284 380.97869 
L 1088.625279 357.005695 
L 1090.232273 335.080466 
L 1090.232273 335.080466 
" style="fill:none;stroke:#000000;stroke-dasharray:1.5,2.475;stroke-dashoffset:0;stroke-opacity:0.5;stroke-width:1.5;"/>
   </g>
   <g id="line2d_30">
    <path clip-path="url(#p4181641a56)" d="M 135.677727 518.390909 
L 138.891716 517.367026 
L 145.319692 514.719051 
L 146.926687 513.942312 
L 148.533681 513.024348 
L 150.140675 511.859239 
L 151.747669 510.446986 
L 153.354663 508.646363 
L 154.961657 506.492677 
L 156.568652 504.091847 
L 162.996628 495.477104 
L 164.603623 492.44076 
L 167.817611 485.414801 
L 169.424605 483.11989 
L 171.031599 482.660908 
L 172.638594 483.296421 
L 174.245588 484.320305 
L 175.852582 485.026431 
L 177.459576 484.955819 
L 180.673564 483.508259 
L 182.280559 483.755404 
L 183.887553 484.602755 
L 185.494547 485.026431 
L 187.101541 484.249692 
L 188.708535 482.307844 
L 190.31553 479.977627 
L 191.922524 478.282923 
L 193.529518 478.212311 
L 195.136512 480.401303 
L 196.743506 483.155196 
L 198.3505 484.885206 
L 199.957495 484.920512 
L 201.564489 483.720097 
L 203.171483 482.802133 
L 204.778477 483.261115 
L 206.385471 485.238269 
L 207.992466 488.098082 
L 209.59946 490.498912 
L 211.206454 492.05239 
L 212.813448 492.864436 
L 214.420442 494.029544 
L 216.027436 496.606906 
L 219.241425 502.679594 
L 220.848419 504.515523 
L 222.455413 505.045118 
L 225.669402 505.151037 
L 227.276396 505.645326 
L 228.88339 506.881047 
L 230.490384 507.940237 
L 232.097378 508.434525 
L 235.311367 508.540444 
L 236.918361 508.858201 
L 240.132349 510.658824 
L 241.739343 511.329644 
L 243.346338 511.682707 
L 246.560326 511.965158 
L 248.16732 512.318221 
L 251.381309 513.624555 
L 252.988303 513.871699 
L 254.595297 513.695168 
L 257.809285 512.918429 
L 259.416279 512.706591 
L 261.023274 512.777203 
L 264.237262 513.200879 
L 269.058245 513.412717 
L 272.272233 514.012925 
L 273.879227 514.54252 
L 275.486221 514.860277 
L 277.093215 514.860277 
L 278.70021 514.471907 
L 281.914198 513.09496 
L 283.521192 512.706591 
L 285.128186 512.600672 
L 288.342175 513.059654 
L 293.163157 513.306798 
L 294.770152 513.48333 
L 297.98414 514.224763 
L 301.198128 515.072114 
L 307.626105 516.378449 
L 310.840093 516.55498 
L 314.054082 516.484368 
L 315.661076 516.484368 
L 323.696047 517.084575 
L 326.910035 517.084575 
L 333.338012 517.649476 
L 336.552 517.331719 
L 342.979977 516.27253 
L 346.193965 515.742935 
L 347.80096 515.460484 
L 352.621942 514.15415 
L 354.228936 513.836393 
L 357.442925 513.553942 
L 360.656913 513.236186 
L 362.263907 512.918429 
L 363.870901 512.42414 
L 365.477896 511.718014 
L 367.08489 510.835355 
L 370.298878 508.469832 
L 373.512867 506.351452 
L 375.119861 505.610019 
L 381.547837 501.655711 
L 383.154832 500.384683 
L 384.761826 499.396106 
L 386.36882 498.160385 
L 387.975814 497.454258 
L 389.582808 496.995276 
L 391.189803 496.85405 
L 392.796797 497.383645 
L 394.403791 498.336916 
L 397.617779 499.996313 
L 399.224773 500.631827 
L 400.831768 501.020197 
L 402.438762 501.161422 
L 405.65275 501.126116 
L 407.259744 501.443873 
L 410.473733 501.691017 
L 413.687721 501.549792 
L 415.294715 501.443873 
L 416.90171 501.549792 
L 418.508704 501.514485 
L 420.115698 501.161422 
L 421.722692 500.525908 
L 424.93668 498.089772 
L 429.757663 492.687904 
L 434.578646 486.19154 
L 436.18564 483.755404 
L 437.792634 482.0607 
L 439.399628 480.012933 
L 441.006622 478.177004 
L 442.613616 476.093931 
L 444.220611 472.775136 
L 445.827605 468.962053 
L 449.041593 459.782409 
L 450.648587 455.580956 
L 455.46957 444.459463 
L 458.683558 435.244512 
L 460.290552 430.125095 
L 463.504541 421.863415 
L 465.111535 417.944413 
L 466.718529 414.484393 
L 468.325523 409.965183 
L 469.932518 404.139639 
L 471.539512 397.749194 
L 476.360494 373.034766 
L 477.967489 362.513481 
L 479.574483 351.144845 
L 484.395465 311.036859 
L 486.002459 298.503113 
L 489.216448 277.954832 
L 492.430436 258.359821 
L 494.03743 249.321401 
L 495.644425 242.683812 
L 498.858413 233.645393 
L 500.465407 228.420057 
L 503.679395 211.155263 
L 506.893384 189.830243 
L 508.500378 180.43876 
L 510.107372 177.755479 
L 511.714366 175.848938 
L 513.321361 174.118928 
L 514.928355 171.470953 
L 516.535349 172.671368 
L 518.142343 176.837515 
L 519.749337 187.146962 
L 521.356331 200.598672 
L 522.963326 220.864503 
L 524.57032 239.223792 
L 526.177314 253.063872 
L 527.784308 265.738843 
L 529.391302 280.955869 
L 532.605291 314.885248 
L 534.212285 327.171849 
L 535.819279 332.785555 
L 537.426273 331.020239 
L 539.033268 325.72429 
L 540.640262 322.158351 
L 542.247256 324.806326 
L 543.85425 332.679636 
L 545.461244 339.634982 
L 547.068238 342.671326 
L 548.675233 339.246613 
L 551.889221 326.077353 
L 553.496215 326.253885 
L 555.103209 331.337996 
L 556.710204 341.047235 
L 558.317198 346.837473 
L 559.924192 350.438718 
L 563.13818 345.884202 
L 564.745174 345.213382 
L 566.352169 347.649518 
L 567.959163 348.461564 
L 569.566157 347.543599 
L 571.173151 338.787631 
L 572.780145 327.101237 
L 574.38714 311.319309 
L 575.994134 298.4325 
L 577.601128 290.523883 
L 579.208122 281.979753 
L 580.815116 271.317242 
L 582.42211 256.629811 
L 584.029105 236.893575 
L 585.636099 219.875926 
L 587.243093 211.790777 
L 588.850087 204.906044 
L 590.457081 196.326607 
L 592.064076 179.697327 
L 593.67107 154.382692 
L 595.278064 125.890487 
L 596.885058 104.035871 
L 598.492052 95.456434 
L 600.099047 104.706692 
L 601.706041 117.98187 
L 603.313035 127.373353 
L 606.527023 143.614262 
L 608.134017 155.865557 
L 611.348006 195.020273 
L 612.955 210.237299 
L 614.561994 217.757546 
L 616.168988 216.062843 
L 617.775983 215.921617 
L 619.382977 221.252873 
L 620.989971 234.563357 
L 622.596965 251.792844 
L 624.203959 259.419011 
L 625.810953 258.112677 
L 629.024942 247.097103 
L 630.631936 250.451204 
L 632.23893 264.679653 
L 635.452919 301.89252 
L 637.059913 310.366038 
L 638.666907 313.402382 
L 640.273901 313.61422 
L 641.880895 315.979744 
L 643.48789 323.005703 
L 645.094884 331.373302 
L 646.701878 336.881089 
L 648.308872 336.951702 
L 649.915866 332.962087 
L 651.52286 329.996356 
L 653.129855 330.773095 
L 654.736849 336.987008 
L 656.343843 347.049311 
L 657.950837 355.840586 
L 659.557831 361.242454 
L 661.164826 363.502059 
L 662.77182 365.4086 
L 664.378814 369.53944 
L 665.985808 376.106417 
L 667.592802 383.202988 
L 669.199796 386.945459 
L 670.806791 386.098107 
L 672.413785 382.461555 
L 674.020779 378.260103 
L 675.627773 379.637049 
L 677.234767 388.640162 
L 678.841762 400.467781 
L 680.448756 408.764768 
L 682.05575 410.035796 
L 683.662744 403.115756 
L 685.269738 393.688967 
L 686.876732 386.627702 
L 688.483727 387.298522 
L 690.090721 394.359787 
L 691.697715 399.726349 
L 693.304709 398.278789 
L 694.911703 390.476091 
L 696.518698 378.471941 
L 698.125692 368.339025 
L 699.732686 363.713896 
L 701.33968 363.784509 
L 702.946674 365.373294 
L 704.553669 364.34941 
L 706.160663 360.289183 
L 707.767657 355.522829 
L 709.374651 353.545675 
L 710.981645 355.381604 
L 712.588639 359.053462 
L 714.195634 364.208185 
L 715.802628 366.044114 
L 717.409622 363.360833 
L 719.016616 359.653669 
L 720.62361 357.041001 
L 722.230605 357.252839 
L 723.837599 358.594479 
L 725.444593 357.041001 
L 727.051587 351.886277 
L 728.658581 342.24765 
L 730.265575 329.713905 
L 731.87257 319.157314 
L 733.479564 315.273618 
L 735.086558 315.803213 
L 736.693552 317.321385 
L 738.300546 315.026473 
L 739.907541 306.8001 
L 741.514535 294.513498 
L 743.121529 283.497925 
L 744.728523 279.014021 
L 746.335517 278.83749 
L 747.942511 279.331778 
L 749.549506 278.025444 
L 751.1565 269.163556 
L 752.763494 258.359821 
L 754.370488 250.698348 
L 755.977482 251.122024 
L 759.191471 263.973527 
L 760.798465 267.39824 
L 762.405459 267.11579 
L 764.012453 263.832301 
L 765.619448 265.880068 
L 767.226442 273.188478 
L 768.833436 285.792836 
L 770.44043 293.419002 
L 772.047424 292.818795 
L 773.654418 285.086709 
L 775.261413 271.24663 
L 776.868407 259.80738 
L 778.475401 255.500008 
L 780.082395 261.713922 
L 781.689389 267.468853 
L 783.296384 267.821916 
L 784.903378 261.608003 
L 788.117366 238.552972 
L 789.72436 235.551934 
L 791.331354 235.481322 
L 792.938349 238.411747 
L 794.545343 235.092952 
L 796.152337 227.466786 
L 797.759331 220.687971 
L 799.366325 221.605936 
L 800.97332 234.528051 
L 804.187308 264.008833 
L 805.794302 268.810493 
L 807.401296 269.79907 
L 809.00829 273.117865 
L 810.615285 271.070098 
L 812.222279 269.446007 
L 813.829273 269.198863 
L 815.436267 264.150058 
L 817.043261 260.336975 
L 818.650256 257.547775 
L 820.25725 259.489623 
L 821.864244 269.12825 
L 831.506209 321.840594 
L 833.113203 336.033737 
L 836.327192 359.93612 
L 837.934186 365.12615 
L 841.148174 366.644322 
L 842.755168 370.881081 
L 844.362163 378.648472 
L 845.969157 392.947534 
L 847.576151 404.775153 
L 849.183145 412.930914 
L 850.790139 414.908069 
L 854.004128 409.22375 
L 855.611122 408.976606 
L 857.218116 412.577851 
L 860.432104 426.064868 
L 862.039099 430.584077 
L 863.646093 432.490619 
L 865.253087 434.891449 
L 866.860081 439.481271 
L 870.074069 454.48646 
L 871.681064 460.312003 
L 873.288058 463.630798 
L 876.502046 467.726332 
L 878.10904 471.292271 
L 881.323029 479.624564 
L 882.930023 482.237232 
L 884.537017 483.755404 
L 886.144011 485.061738 
L 887.751006 486.57991 
L 889.358 488.910127 
L 890.964994 491.628714 
L 892.571988 493.958932 
L 894.178982 495.441797 
L 895.785976 496.042005 
L 897.392971 496.253843 
L 900.606959 497.595483 
L 902.213953 498.725286 
L 903.820947 499.3608 
L 905.427942 499.078349 
L 907.034936 497.524871 
L 908.64193 494.559139 
L 910.248924 490.604831 
L 911.855918 485.697252 
L 913.462912 478.706599 
L 915.069907 467.161431 
L 916.676901 447.56642 
L 918.283895 417.979719 
L 919.890889 373.776199 
L 923.104878 275.765839 
L 924.711872 240.247676 
L 926.318866 215.780392 
L 927.92586 200.280915 
L 931.139848 172.106467 
L 932.746843 156.465765 
L 934.353837 148.663067 
L 935.960831 156.359846 
L 937.567825 179.979778 
L 940.781814 242.719119 
L 942.388808 270.752341 
L 943.995802 293.772065 
L 945.602796 314.143815 
L 947.20979 332.008816 
L 948.816785 351.250764 
L 950.423779 365.337987 
L 952.030773 376.671318 
L 955.244761 391.958957 
L 956.851755 401.809422 
L 958.45875 414.025411 
L 960.065744 423.840569 
L 961.672738 429.736725 
L 963.279732 429.065905 
L 964.886726 426.029561 
L 966.493721 423.452199 
L 968.100715 424.617308 
L 969.707709 428.995293 
L 971.314703 435.067981 
L 972.921697 439.410659 
L 974.528691 439.904947 
L 976.135686 438.316163 
L 977.74268 436.374315 
L 979.349674 435.209206 
L 980.956668 435.562269 
L 984.170657 435.385738 
L 985.777651 434.962062 
L 987.384645 433.796953 
L 988.991639 433.302664 
L 992.205627 433.902872 
L 993.812622 433.514502 
L 995.419616 431.890411 
L 997.02661 429.242437 
L 998.633604 427.688959 
L 1000.240598 427.406508 
L 1001.847593 428.854067 
L 1003.454587 431.643267 
L 1005.061581 433.867566 
L 1006.668575 433.938178 
L 1008.275569 432.773069 
L 1009.882564 429.807338 
L 1011.489558 427.936103 
L 1013.096552 428.218553 
L 1014.703546 429.877951 
L 1016.31054 431.784492 
L 1017.917534 433.090826 
L 1019.524529 432.314087 
L 1021.131523 432.172862 
L 1022.738517 432.596538 
L 1024.345511 435.244512 
L 1025.952505 439.622497 
L 1027.5595 443.470886 
L 1029.166494 445.518653 
L 1030.773488 446.330698 
L 1032.380482 445.695185 
L 1033.987476 446.189473 
L 1035.59447 448.62561 
L 1038.808459 456.710758 
L 1040.415453 458.89975 
L 1042.022447 459.67649 
L 1043.629441 459.464652 
L 1045.236436 459.111588 
L 1046.84343 459.888328 
L 1048.450424 461.371193 
L 1050.057418 462.571608 
L 1051.664412 462.642221 
L 1053.271406 461.759563 
L 1054.878401 460.62976 
L 1056.485395 460.064859 
L 1058.092389 459.923634 
L 1059.699383 460.029553 
L 1061.306377 459.499958 
L 1062.913372 456.039938 
L 1064.520366 450.249701 
L 1067.734354 436.091864 
L 1069.341348 431.431429 
L 1070.948343 428.501004 
L 1072.555337 424.546696 
L 1074.162331 419.850954 
L 1075.769325 412.436626 
L 1077.376319 403.715963 
L 1078.983313 396.690005 
L 1080.590308 392.241408 
L 1082.197302 390.405479 
L 1083.804296 388.357712 
L 1085.41129 382.285024 
L 1087.018284 375.576822 
L 1090.232273 359.441831 
L 1090.232273 359.441831 
" style="fill:none;stroke:#000000;stroke-linecap:square;stroke-width:1.5;"/>
   </g>
   <g id="patch_3">
    <path d="M 87.95 541.28 
L 87.95 37.72 
" style="fill:none;stroke:#555555;stroke-linecap:square;stroke-linejoin:miter;"/>
   </g>
   <g id="patch_4">
    <path d="M 87.95 541.28 
L 1137.96 541.28 
" style="fill:none;stroke:#555555;stroke-linecap:square;stroke-linejoin:miter;"/>
   </g>
   <g id="text_30">
    <!-- Positive COVID-19 tests - last updated on 21 October 2021 -->
    <g style="fill:#555555;" transform="translate(348.405625 27.72)scale(0.18 -0.18)">
     <defs>
      <path d="M 1259 4147 
L 1259 2394 
L 2053 2394 
Q 2494 2394 2734 2622 
Q 2975 2850 2975 3272 
Q 2975 3691 2734 3919 
Q 2494 4147 2053 4147 
L 1259 4147 
z
M 628 4666 
L 2053 4666 
Q 2838 4666 3239 4311 
Q 3641 3956 3641 3272 
Q 3641 2581 3239 2228 
Q 2838 1875 2053 1875 
L 1259 1875 
L 1259 0 
L 628 0 
L 628 4666 
z
" id="DejaVuSans-50" transform="scale(0.015625)"/>
      <path d="M 1959 3097 
Q 1497 3097 1228 2736 
Q 959 2375 959 1747 
Q 959 1119 1226 758 
Q 1494 397 1959 397 
Q 2419 397 2687 759 
Q 2956 1122 2956 1747 
Q 2956 2369 2687 2733 
Q 2419 3097 1959 3097 
z
M 1959 3584 
Q 2709 3584 3137 3096 
Q 3566 2609 3566 1747 
Q 3566 888 3137 398 
Q 2709 -91 1959 -91 
Q 1206 -91 779 398 
Q 353 888 353 1747 
Q 353 2609 779 3096 
Q 1206 3584 1959 3584 
z
" id="DejaVuSans-6f" transform="scale(0.015625)"/>
      <path d="M 603 3500 
L 1178 3500 
L 1178 0 
L 603 0 
L 603 3500 
z
M 603 4863 
L 1178 4863 
L 1178 4134 
L 603 4134 
L 603 4863 
z
" id="DejaVuSans-69" transform="scale(0.015625)"/>
      <path d="M 1172 4494 
L 1172 3500 
L 2356 3500 
L 2356 3053 
L 1172 3053 
L 1172 1153 
Q 1172 725 1289 603 
Q 1406 481 1766 481 
L 2356 481 
L 2356 0 
L 1766 0 
Q 1100 0 847 248 
Q 594 497 594 1153 
L 594 3053 
L 172 3053 
L 172 3500 
L 594 3500 
L 594 4494 
L 1172 4494 
z
" id="DejaVuSans-74" transform="scale(0.015625)"/>
      <path d="M 191 3500 
L 800 3500 
L 1894 563 
L 2988 3500 
L 3597 3500 
L 2284 0 
L 1503 0 
L 191 3500 
z
" id="DejaVuSans-76" transform="scale(0.015625)"/>
      <path d="M 2522 4238 
Q 1834 4238 1429 3725 
Q 1025 3213 1025 2328 
Q 1025 1447 1429 934 
Q 1834 422 2522 422 
Q 3209 422 3611 934 
Q 4013 1447 4013 2328 
Q 4013 3213 3611 3725 
Q 3209 4238 2522 4238 
z
M 2522 4750 
Q 3503 4750 4090 4092 
Q 4678 3434 4678 2328 
Q 4678 1225 4090 567 
Q 3503 -91 2522 -91 
Q 1538 -91 948 565 
Q 359 1222 359 2328 
Q 359 3434 948 4092 
Q 1538 4750 2522 4750 
z
" id="DejaVuSans-4f" transform="scale(0.015625)"/>
      <path d="M 1831 0 
L 50 4666 
L 709 4666 
L 2188 738 
L 3669 4666 
L 4325 4666 
L 2547 0 
L 1831 0 
z
" id="DejaVuSans-56" transform="scale(0.015625)"/>
      <path d="M 628 4666 
L 1259 4666 
L 1259 0 
L 628 0 
L 628 4666 
z
" id="DejaVuSans-49" transform="scale(0.015625)"/>
      <path d="M 1259 4147 
L 1259 519 
L 2022 519 
Q 2988 519 3436 956 
Q 3884 1394 3884 2338 
Q 3884 3275 3436 3711 
Q 2988 4147 2022 4147 
L 1259 4147 
z
M 628 4666 
L 1925 4666 
Q 3281 4666 3915 4102 
Q 4550 3538 4550 2338 
Q 4550 1131 3912 565 
Q 3275 0 1925 0 
L 628 0 
L 628 4666 
z
" id="DejaVuSans-44" transform="scale(0.015625)"/>
      <path d="M 313 2009 
L 1997 2009 
L 1997 1497 
L 313 1497 
L 313 2009 
z
" id="DejaVuSans-2d" transform="scale(0.015625)"/>
      <path d="M 794 531 
L 1825 531 
L 1825 4091 
L 703 3866 
L 703 4441 
L 1819 4666 
L 2450 4666 
L 2450 531 
L 3481 531 
L 3481 0 
L 794 0 
L 794 531 
z
" id="DejaVuSans-31" transform="scale(0.015625)"/>
      <path d="M 703 97 
L 703 672 
Q 941 559 1184 500 
Q 1428 441 1663 441 
Q 2288 441 2617 861 
Q 2947 1281 2994 2138 
Q 2813 1869 2534 1725 
Q 2256 1581 1919 1581 
Q 1219 1581 811 2004 
Q 403 2428 403 3163 
Q 403 3881 828 4315 
Q 1253 4750 1959 4750 
Q 2769 4750 3195 4129 
Q 3622 3509 3622 2328 
Q 3622 1225 3098 567 
Q 2575 -91 1691 -91 
Q 1453 -91 1209 -44 
Q 966 3 703 97 
z
M 1959 2075 
Q 2384 2075 2632 2365 
Q 2881 2656 2881 3163 
Q 2881 3666 2632 3958 
Q 2384 4250 1959 4250 
Q 1534 4250 1286 3958 
Q 1038 3666 1038 3163 
Q 1038 2656 1286 2365 
Q 1534 2075 1959 2075 
z
" id="DejaVuSans-39" transform="scale(0.015625)"/>
      <path d="M 603 4863 
L 1178 4863 
L 1178 0 
L 603 0 
L 603 4863 
z
" id="DejaVuSans-6c" transform="scale(0.015625)"/>
      <path d="M 544 1381 
L 544 3500 
L 1119 3500 
L 1119 1403 
Q 1119 906 1312 657 
Q 1506 409 1894 409 
Q 2359 409 2629 706 
Q 2900 1003 2900 1516 
L 2900 3500 
L 3475 3500 
L 3475 0 
L 2900 0 
L 2900 538 
Q 2691 219 2414 64 
Q 2138 -91 1772 -91 
Q 1169 -91 856 284 
Q 544 659 544 1381 
z
M 1991 3584 
L 1991 3584 
z
" id="DejaVuSans-75" transform="scale(0.015625)"/>
      <path d="M 1159 525 
L 1159 -1331 
L 581 -1331 
L 581 3500 
L 1159 3500 
L 1159 2969 
Q 1341 3281 1617 3432 
Q 1894 3584 2278 3584 
Q 2916 3584 3314 3078 
Q 3713 2572 3713 1747 
Q 3713 922 3314 415 
Q 2916 -91 2278 -91 
Q 1894 -91 1617 61 
Q 1341 213 1159 525 
z
M 3116 1747 
Q 3116 2381 2855 2742 
Q 2594 3103 2138 3103 
Q 1681 3103 1420 2742 
Q 1159 2381 1159 1747 
Q 1159 1113 1420 752 
Q 1681 391 2138 391 
Q 2594 391 2855 752 
Q 3116 1113 3116 1747 
z
" id="DejaVuSans-70" transform="scale(0.015625)"/>
      <path d="M 2906 2969 
L 2906 4863 
L 3481 4863 
L 3481 0 
L 2906 0 
L 2906 525 
Q 2725 213 2448 61 
Q 2172 -91 1784 -91 
Q 1150 -91 751 415 
Q 353 922 353 1747 
Q 353 2572 751 3078 
Q 1150 3584 1784 3584 
Q 2172 3584 2448 3432 
Q 2725 3281 2906 2969 
z
M 947 1747 
Q 947 1113 1208 752 
Q 1469 391 1925 391 
Q 2381 391 2643 752 
Q 2906 1113 2906 1747 
Q 2906 2381 2643 2742 
Q 2381 3103 1925 3103 
Q 1469 3103 1208 2742 
Q 947 2381 947 1747 
z
" id="DejaVuSans-64" transform="scale(0.015625)"/>
      <path d="M 3513 2113 
L 3513 0 
L 2938 0 
L 2938 2094 
Q 2938 2591 2744 2837 
Q 2550 3084 2163 3084 
Q 1697 3084 1428 2787 
Q 1159 2491 1159 1978 
L 1159 0 
L 581 0 
L 581 3500 
L 1159 3500 
L 1159 2956 
Q 1366 3272 1645 3428 
Q 1925 3584 2291 3584 
Q 2894 3584 3203 3211 
Q 3513 2838 3513 2113 
z
" id="DejaVuSans-6e" transform="scale(0.015625)"/>
      <path d="M 1228 531 
L 3431 531 
L 3431 0 
L 469 0 
L 469 531 
Q 828 903 1448 1529 
Q 2069 2156 2228 2338 
Q 2531 2678 2651 2914 
Q 2772 3150 2772 3378 
Q 2772 3750 2511 3984 
Q 2250 4219 1831 4219 
Q 1534 4219 1204 4116 
Q 875 4013 500 3803 
L 500 4441 
Q 881 4594 1212 4672 
Q 1544 4750 1819 4750 
Q 2544 4750 2975 4387 
Q 3406 4025 3406 3419 
Q 3406 3131 3298 2873 
Q 3191 2616 2906 2266 
Q 2828 2175 2409 1742 
Q 1991 1309 1228 531 
z
" id="DejaVuSans-32" transform="scale(0.015625)"/>
      <path d="M 3122 3366 
L 3122 2828 
Q 2878 2963 2633 3030 
Q 2388 3097 2138 3097 
Q 1578 3097 1268 2742 
Q 959 2388 959 1747 
Q 959 1106 1268 751 
Q 1578 397 2138 397 
Q 2388 397 2633 464 
Q 2878 531 3122 666 
L 3122 134 
Q 2881 22 2623 -34 
Q 2366 -91 2075 -91 
Q 1284 -91 818 406 
Q 353 903 353 1747 
Q 353 2603 823 3093 
Q 1294 3584 2113 3584 
Q 2378 3584 2631 3529 
Q 2884 3475 3122 3366 
z
" id="DejaVuSans-63" transform="scale(0.015625)"/>
      <path d="M 3116 1747 
Q 3116 2381 2855 2742 
Q 2594 3103 2138 3103 
Q 1681 3103 1420 2742 
Q 1159 2381 1159 1747 
Q 1159 1113 1420 752 
Q 1681 391 2138 391 
Q 2594 391 2855 752 
Q 3116 1113 3116 1747 
z
M 1159 2969 
Q 1341 3281 1617 3432 
Q 1894 3584 2278 3584 
Q 2916 3584 3314 3078 
Q 3713 2572 3713 1747 
Q 3713 922 3314 415 
Q 2916 -91 2278 -91 
Q 1894 -91 1617 61 
Q 1341 213 1159 525 
L 1159 0 
L 581 0 
L 581 4863 
L 1159 4863 
L 1159 2969 
z
" id="DejaVuSans-62" transform="scale(0.015625)"/>
      <path d="M 2631 2963 
Q 2534 3019 2420 3045 
Q 2306 3072 2169 3072 
Q 1681 3072 1420 2755 
Q 1159 2438 1159 1844 
L 1159 0 
L 581 0 
L 581 3500 
L 1159 3500 
L 1159 2956 
Q 1341 3275 1631 3429 
Q 1922 3584 2338 3584 
Q 2397 3584 2469 3576 
Q 2541 3569 2628 3553 
L 2631 2963 
z
" id="DejaVuSans-72" transform="scale(0.015625)"/>
      <path d="M 2034 4250 
Q 1547 4250 1301 3770 
Q 1056 3291 1056 2328 
Q 1056 1369 1301 889 
Q 1547 409 2034 409 
Q 2525 409 2770 889 
Q 3016 1369 3016 2328 
Q 3016 3291 2770 3770 
Q 2525 4250 2034 4250 
z
M 2034 4750 
Q 2819 4750 3233 4129 
Q 3647 3509 3647 2328 
Q 3647 1150 3233 529 
Q 2819 -91 2034 -91 
Q 1250 -91 836 529 
Q 422 1150 422 2328 
Q 422 3509 836 4129 
Q 1250 4750 2034 4750 
z
" id="DejaVuSans-30" transform="scale(0.015625)"/>
     </defs>
     <use xlink:href="#DejaVuSans-50"/>
     <use x="56.677734" xlink:href="#DejaVuSans-6f"/>
     <use x="117.859375" xlink:href="#DejaVuSans-73"/>
     <use x="169.958984" xlink:href="#DejaVuSans-69"/>
     <use x="197.742188" xlink:href="#DejaVuSans-74"/>
     <use x="236.951172" xlink:href="#DejaVuSans-69"/>
     <use x="264.734375" xlink:href="#DejaVuSans-76"/>
     <use x="323.914062" xlink:href="#DejaVuSans-65"/>
     <use x="385.4375" xlink:href="#DejaVuSans-20"/>
     <use x="417.224609" xlink:href="#DejaVuSans-43"/>
     <use x="487.048828" xlink:href="#DejaVuSans-4f"/>
     <use x="564.009766" xlink:href="#DejaVuSans-56"/>
     <use x="632.417969" xlink:href="#DejaVuSans-49"/>
     <use x="661.910156" xlink:href="#DejaVuSans-44"/>
     <use x="738.912109" xlink:href="#DejaVuSans-2d"/>
     <use x="774.996094" xlink:href="#DejaVuSans-31"/>
     <use x="838.619141" xlink:href="#DejaVuSans-39"/>
     <use x="902.242188" xlink:href="#DejaVuSans-20"/>
     <use x="934.029297" xlink:href="#DejaVuSans-74"/>
     <use x="973.238281" xlink:href="#DejaVuSans-65"/>
     <use x="1034.761719" xlink:href="#DejaVuSans-73"/>
     <use x="1086.861328" xlink:href="#DejaVuSans-74"/>
     <use x="1126.070312" xlink:href="#DejaVuSans-73"/>
     <use x="1178.169922" xlink:href="#DejaVuSans-20"/>
     <use x="1209.957031" xlink:href="#DejaVuSans-2d"/>
     <use x="1246.041016" xlink:href="#DejaVuSans-20"/>
     <use x="1277.828125" xlink:href="#DejaVuSans-6c"/>
     <use x="1305.611328" xlink:href="#DejaVuSans-61"/>
     <use x="1366.890625" xlink:href="#DejaVuSans-73"/>
     <use x="1418.990234" xlink:href="#DejaVuSans-74"/>
     <use x="1458.199219" xlink:href="#DejaVuSans-20"/>
     <use x="1489.986328" xlink:href="#DejaVuSans-75"/>
     <use x="1553.365234" xlink:href="#DejaVuSans-70"/>
     <use x="1616.841797" xlink:href="#DejaVuSans-64"/>
     <use x="1680.318359" xlink:href="#DejaVuSans-61"/>
     <use x="1741.597656" xlink:href="#DejaVuSans-74"/>
     <use x="1780.806641" xlink:href="#DejaVuSans-65"/>
     <use x="1842.330078" xlink:href="#DejaVuSans-64"/>
     <use x="1905.806641" xlink:href="#DejaVuSans-20"/>
     <use x="1937.59375" xlink:href="#DejaVuSans-6f"/>
     <use x="1998.775391" xlink:href="#DejaVuSans-6e"/>
     <use x="2062.154297" xlink:href="#DejaVuSans-20"/>
     <use x="2093.941406" xlink:href="#DejaVuSans-32"/>
     <use x="2157.564453" xlink:href="#DejaVuSans-31"/>
     <use x="2221.1875" xlink:href="#DejaVuSans-20"/>
     <use x="2252.974609" xlink:href="#DejaVuSans-4f"/>
     <use x="2331.685547" xlink:href="#DejaVuSans-63"/>
     <use x="2386.666016" xlink:href="#DejaVuSans-74"/>
     <use x="2425.875" xlink:href="#DejaVuSans-6f"/>
     <use x="2487.056641" xlink:href="#DejaVuSans-62"/>
     <use x="2550.533203" xlink:href="#DejaVuSans-65"/>
     <use x="2612.056641" xlink:href="#DejaVuSans-72"/>
     <use x="2653.169922" xlink:href="#DejaVuSans-20"/>
     <use x="2684.957031" xlink:href="#DejaVuSans-32"/>
     <use x="2748.580078" xlink:href="#DejaVuSans-30"/>
     <use x="2812.203125" xlink:href="#DejaVuSans-32"/>
     <use x="2875.826172" xlink:href="#DejaVuSans-31"/>
    </g>
   </g>
   <g id="legend_1">
    <g id="line2d_31">
     <path d="M 1015.497969 54.747969 
L 1041.497969 54.747969 
" style="fill:none;stroke:#000000;stroke-dasharray:1.5,2.475;stroke-dashoffset:0;stroke-opacity:0.5;stroke-width:1.5;"/>
    </g>
    <g id="line2d_32"/>
    <g id="text_31">
     <!-- Actual -->
     <g style="fill:#555555;" transform="translate(1051.897969 59.297969)scale(0.13 -0.13)">
      <use xlink:href="#DejaVuSans-Bold-41"/>
      <use x="77.392578" xlink:href="#DejaVuSans-Bold-63"/>
      <use x="136.669922" xlink:href="#DejaVuSans-Bold-74"/>
      <use x="184.472656" xlink:href="#DejaVuSans-Bold-75"/>
      <use x="255.664062" xlink:href="#DejaVuSans-Bold-61"/>
      <use x="323.144531" xlink:href="#DejaVuSans-Bold-6c"/>
     </g>
    </g>
    <g id="line2d_33">
     <path d="M 1015.497969 73.829531 
L 1041.497969 73.829531 
" style="fill:none;stroke:#000000;stroke-linecap:square;stroke-width:1.5;"/>
    </g>
    <g id="line2d_34"/>
    <g id="text_32">
     <!-- Smoothed -->
     <g style="fill:#555555;" transform="translate(1051.897969 78.379531)scale(0.13 -0.13)">
      <defs>
       <path d="M 3781 2919 
Q 3994 3244 4286 3414 
Q 4578 3584 4928 3584 
Q 5531 3584 5847 3212 
Q 6163 2841 6163 2131 
L 6163 0 
L 5038 0 
L 5038 1825 
Q 5041 1866 5042 1909 
Q 5044 1953 5044 2034 
Q 5044 2406 4934 2573 
Q 4825 2741 4581 2741 
Q 4263 2741 4089 2478 
Q 3916 2216 3909 1719 
L 3909 0 
L 2784 0 
L 2784 1825 
Q 2784 2406 2684 2573 
Q 2584 2741 2328 2741 
Q 2006 2741 1831 2477 
Q 1656 2213 1656 1722 
L 1656 0 
L 531 0 
L 531 3500 
L 1656 3500 
L 1656 2988 
Q 1863 3284 2130 3434 
Q 2397 3584 2719 3584 
Q 3081 3584 3359 3409 
Q 3638 3234 3781 2919 
z
" id="DejaVuSans-Bold-6d" transform="scale(0.015625)"/>
       <path d="M 4056 2131 
L 4056 0 
L 2931 0 
L 2931 347 
L 2931 1625 
Q 2931 2084 2911 2256 
Q 2891 2428 2841 2509 
Q 2775 2619 2662 2680 
Q 2550 2741 2406 2741 
Q 2056 2741 1856 2470 
Q 1656 2200 1656 1722 
L 1656 0 
L 538 0 
L 538 4863 
L 1656 4863 
L 1656 2988 
Q 1909 3294 2193 3439 
Q 2478 3584 2822 3584 
Q 3428 3584 3742 3212 
Q 4056 2841 4056 2131 
z
" id="DejaVuSans-Bold-68" transform="scale(0.015625)"/>
       <path d="M 2919 2988 
L 2919 4863 
L 4044 4863 
L 4044 0 
L 2919 0 
L 2919 506 
Q 2688 197 2409 53 
Q 2131 -91 1766 -91 
Q 1119 -91 703 423 
Q 288 938 288 1747 
Q 288 2556 703 3070 
Q 1119 3584 1766 3584 
Q 2128 3584 2408 3439 
Q 2688 3294 2919 2988 
z
M 2181 722 
Q 2541 722 2730 984 
Q 2919 1247 2919 1747 
Q 2919 2247 2730 2509 
Q 2541 2772 2181 2772 
Q 1825 2772 1636 2509 
Q 1447 2247 1447 1747 
Q 1447 1247 1636 984 
Q 1825 722 2181 722 
z
" id="DejaVuSans-Bold-64" transform="scale(0.015625)"/>
      </defs>
      <use xlink:href="#DejaVuSans-Bold-53"/>
      <use x="72.021484" xlink:href="#DejaVuSans-Bold-6d"/>
      <use x="176.220703" xlink:href="#DejaVuSans-Bold-6f"/>
      <use x="244.921875" xlink:href="#DejaVuSans-Bold-6f"/>
      <use x="313.623047" xlink:href="#DejaVuSans-Bold-74"/>
      <use x="361.425781" xlink:href="#DejaVuSans-Bold-68"/>
      <use x="432.617188" xlink:href="#DejaVuSans-Bold-65"/>
      <use x="500.439453" xlink:href="#DejaVuSans-Bold-64"/>
     </g>
    </g>
   </g>
  </g>
 </g>
 <defs>
  <clipPath id="p4181641a56">
   <rect height="503.56" width="1050.01" x="87.95" y="37.72"/>
  </clipPath>
 </defs>
</svg>
