<?xml version="1.0" encoding="utf-8" standalone="no"?>
<!DOCTYPE svg PUBLIC "-//W3C//DTD SVG 1.1//EN"
  "http://www.w3.org/Graphics/SVG/1.1/DTD/svg11.dtd">
<svg xmlns:xlink="http://www.w3.org/1999/xlink" width="1152pt" height="576pt" viewBox="0 0 1152 576" xmlns="http://www.w3.org/2000/svg" version="1.1">
 <metadata>
  <rdf:RDF xmlns:dc="http://purl.org/dc/elements/1.1/" xmlns:cc="http://creativecommons.org/ns#" xmlns:rdf="http://www.w3.org/1999/02/22-rdf-syntax-ns#">
   <cc:Work>
    <dc:type rdf:resource="http://purl.org/dc/dcmitype/StillImage"/>
    <dc:date>2021-11-20T14:14:23.010085</dc:date>
    <dc:format>image/svg+xml</dc:format>
    <dc:creator>
     <cc:Agent>
      <dc:title>Matplotlib v3.5.0, https://matplotlib.org/</dc:title>
     </cc:Agent>
    </dc:creator>
   </cc:Work>
  </rdf:RDF>
 </metadata>
 <defs>
  <style type="text/css">*{stroke-linejoin: round; stroke-linecap: butt}</style>
 </defs>
 <g id="figure_1">
  <g id="patch_1">
   <path d="M 0 576 
L 1152 576 
L 1152 0 
L 0 0 
z
" style="fill: #ffffff"/>
  </g>
  <g id="axes_1">
   <g id="patch_2">
    <path d="M 87.95 541.28 
L 1137.96 541.28 
L 1137.96 37.72 
L 87.95 37.72 
z
" style="fill: #ffffff"/>
   </g>
   <g id="matplotlib.axis_1">
    <g id="xtick_1">
     <g id="line2d_1">
      <defs>
       <path id="m28f366f969" d="M 0 0 
L 0 3.5 
" style="stroke: #555555; stroke-width: 0.8"/>
      </defs>
      <g>
       <use xlink:href="#m28f366f969" x="128.016776" y="541.28" style="fill: #555555; stroke: #555555; stroke-width: 0.8"/>
      </g>
     </g>
     <g id="text_1">
      <!-- Mar -->
      <g style="fill: #555555" transform="translate(112.874901 558.917812)scale(0.14 -0.14)">
       <defs>
        <path id="DejaVuSans-Bold-4d" d="M 588 4666 
L 2119 4666 
L 3181 2169 
L 4250 4666 
L 5778 4666 
L 5778 0 
L 4641 0 
L 4641 3413 
L 3566 897 
L 2803 897 
L 1728 3413 
L 1728 0 
L 588 0 
L 588 4666 
z
" transform="scale(0.015625)"/>
        <path id="DejaVuSans-Bold-61" d="M 2106 1575 
Q 1756 1575 1579 1456 
Q 1403 1338 1403 1106 
Q 1403 894 1545 773 
Q 1688 653 1941 653 
Q 2256 653 2472 879 
Q 2688 1106 2688 1447 
L 2688 1575 
L 2106 1575 
z
M 3816 1997 
L 3816 0 
L 2688 0 
L 2688 519 
Q 2463 200 2181 54 
Q 1900 -91 1497 -91 
Q 953 -91 614 226 
Q 275 544 275 1050 
Q 275 1666 698 1953 
Q 1122 2241 2028 2241 
L 2688 2241 
L 2688 2328 
Q 2688 2594 2478 2717 
Q 2269 2841 1825 2841 
Q 1466 2841 1156 2769 
Q 847 2697 581 2553 
L 581 3406 
Q 941 3494 1303 3539 
Q 1666 3584 2028 3584 
Q 2975 3584 3395 3211 
Q 3816 2838 3816 1997 
z
" transform="scale(0.015625)"/>
        <path id="DejaVuSans-Bold-72" d="M 3138 2547 
Q 2991 2616 2845 2648 
Q 2700 2681 2553 2681 
Q 2122 2681 1889 2404 
Q 1656 2128 1656 1613 
L 1656 0 
L 538 0 
L 538 3500 
L 1656 3500 
L 1656 2925 
Q 1872 3269 2151 3426 
Q 2431 3584 2822 3584 
Q 2878 3584 2943 3579 
Q 3009 3575 3134 3559 
L 3138 2547 
z
" transform="scale(0.015625)"/>
       </defs>
       <use xlink:href="#DejaVuSans-Bold-4d"/>
       <use xlink:href="#DejaVuSans-Bold-61" x="99.511719"/>
       <use xlink:href="#DejaVuSans-Bold-72" x="166.992188"/>
      </g>
     </g>
    </g>
    <g id="xtick_2">
     <g id="line2d_2">
      <g>
       <use xlink:href="#m28f366f969" x="175.514675" y="541.28" style="fill: #555555; stroke: #555555; stroke-width: 0.8"/>
      </g>
     </g>
     <g id="text_2">
      <!-- Apr -->
      <g style="fill: #555555" transform="translate(161.634987 558.917812)scale(0.14 -0.14)">
       <defs>
        <path id="DejaVuSans-Bold-41" d="M 3419 850 
L 1538 850 
L 1241 0 
L 31 0 
L 1759 4666 
L 3194 4666 
L 4922 0 
L 3713 0 
L 3419 850 
z
M 1838 1716 
L 3116 1716 
L 2478 3572 
L 1838 1716 
z
" transform="scale(0.015625)"/>
        <path id="DejaVuSans-Bold-70" d="M 1656 506 
L 1656 -1331 
L 538 -1331 
L 538 3500 
L 1656 3500 
L 1656 2988 
Q 1888 3294 2169 3439 
Q 2450 3584 2816 3584 
Q 3463 3584 3878 3070 
Q 4294 2556 4294 1747 
Q 4294 938 3878 423 
Q 3463 -91 2816 -91 
Q 2450 -91 2169 54 
Q 1888 200 1656 506 
z
M 2400 2772 
Q 2041 2772 1848 2508 
Q 1656 2244 1656 1747 
Q 1656 1250 1848 986 
Q 2041 722 2400 722 
Q 2759 722 2948 984 
Q 3138 1247 3138 1747 
Q 3138 2247 2948 2509 
Q 2759 2772 2400 2772 
z
" transform="scale(0.015625)"/>
       </defs>
       <use xlink:href="#DejaVuSans-Bold-41"/>
       <use xlink:href="#DejaVuSans-Bold-70" x="77.392578"/>
       <use xlink:href="#DejaVuSans-Bold-72" x="148.974609"/>
      </g>
     </g>
    </g>
    <g id="xtick_3">
     <g id="line2d_3">
      <g>
       <use xlink:href="#m28f366f969" x="221.480383" y="541.28" style="fill: #555555; stroke: #555555; stroke-width: 0.8"/>
      </g>
     </g>
     <g id="text_3">
      <!-- May -->
      <g style="fill: #555555" transform="translate(205.446008 558.808437)scale(0.14 -0.14)">
       <defs>
        <path id="DejaVuSans-Bold-79" d="M 78 3500 
L 1197 3500 
L 2138 1125 
L 2938 3500 
L 4056 3500 
L 2584 -331 
Q 2363 -916 2067 -1148 
Q 1772 -1381 1288 -1381 
L 641 -1381 
L 641 -647 
L 991 -647 
Q 1275 -647 1404 -556 
Q 1534 -466 1606 -231 
L 1638 -134 
L 78 3500 
z
" transform="scale(0.015625)"/>
       </defs>
       <use xlink:href="#DejaVuSans-Bold-4d"/>
       <use xlink:href="#DejaVuSans-Bold-61" x="99.511719"/>
       <use xlink:href="#DejaVuSans-Bold-79" x="163.867188"/>
      </g>
     </g>
    </g>
    <g id="xtick_4">
     <g id="line2d_4">
      <g>
       <use xlink:href="#m28f366f969" x="268.978282" y="541.28" style="fill: #555555; stroke: #555555; stroke-width: 0.8"/>
      </g>
     </g>
     <g id="text_4">
      <!-- Jun -->
      <g style="fill: #555555" transform="translate(256.407813 558.917812)scale(0.14 -0.14)">
       <defs>
        <path id="DejaVuSans-Bold-4a" d="M 588 4666 
L 1791 4666 
L 1791 453 
Q 1791 -419 1317 -850 
Q 844 -1281 -116 -1281 
L -359 -1281 
L -359 -372 
L -172 -372 
Q 203 -372 395 -162 
Q 588 47 588 453 
L 588 4666 
z
" transform="scale(0.015625)"/>
        <path id="DejaVuSans-Bold-75" d="M 500 1363 
L 500 3500 
L 1625 3500 
L 1625 3150 
Q 1625 2866 1622 2436 
Q 1619 2006 1619 1863 
Q 1619 1441 1641 1255 
Q 1663 1069 1716 984 
Q 1784 875 1895 815 
Q 2006 756 2150 756 
Q 2500 756 2700 1025 
Q 2900 1294 2900 1772 
L 2900 3500 
L 4019 3500 
L 4019 0 
L 2900 0 
L 2900 506 
Q 2647 200 2364 54 
Q 2081 -91 1741 -91 
Q 1134 -91 817 281 
Q 500 653 500 1363 
z
" transform="scale(0.015625)"/>
        <path id="DejaVuSans-Bold-6e" d="M 4056 2131 
L 4056 0 
L 2931 0 
L 2931 347 
L 2931 1631 
Q 2931 2084 2911 2256 
Q 2891 2428 2841 2509 
Q 2775 2619 2662 2680 
Q 2550 2741 2406 2741 
Q 2056 2741 1856 2470 
Q 1656 2200 1656 1722 
L 1656 0 
L 538 0 
L 538 3500 
L 1656 3500 
L 1656 2988 
Q 1909 3294 2193 3439 
Q 2478 3584 2822 3584 
Q 3428 3584 3742 3212 
Q 4056 2841 4056 2131 
z
" transform="scale(0.015625)"/>
       </defs>
       <use xlink:href="#DejaVuSans-Bold-4a"/>
       <use xlink:href="#DejaVuSans-Bold-75" x="37.207031"/>
       <use xlink:href="#DejaVuSans-Bold-6e" x="108.398438"/>
      </g>
     </g>
    </g>
    <g id="xtick_5">
     <g id="line2d_5">
      <g>
       <use xlink:href="#m28f366f969" x="314.94399" y="541.28" style="fill: #555555; stroke: #555555; stroke-width: 0.8"/>
      </g>
     </g>
     <g id="text_5">
      <!-- Jul -->
      <g style="fill: #555555" transform="translate(304.956959 558.917812)scale(0.14 -0.14)">
       <defs>
        <path id="DejaVuSans-Bold-6c" d="M 538 4863 
L 1656 4863 
L 1656 0 
L 538 0 
L 538 4863 
z
" transform="scale(0.015625)"/>
       </defs>
       <use xlink:href="#DejaVuSans-Bold-4a"/>
       <use xlink:href="#DejaVuSans-Bold-75" x="37.207031"/>
       <use xlink:href="#DejaVuSans-Bold-6c" x="108.398438"/>
      </g>
     </g>
    </g>
    <g id="xtick_6">
     <g id="line2d_6">
      <g>
       <use xlink:href="#m28f366f969" x="362.441889" y="541.28" style="fill: #555555; stroke: #555555; stroke-width: 0.8"/>
      </g>
     </g>
     <g id="text_6">
      <!-- Aug -->
      <g style="fill: #555555" transform="translate(347.030951 558.808437)scale(0.14 -0.14)">
       <defs>
        <path id="DejaVuSans-Bold-67" d="M 2919 594 
Q 2688 288 2409 144 
Q 2131 0 1766 0 
Q 1125 0 706 504 
Q 288 1009 288 1791 
Q 288 2575 706 3076 
Q 1125 3578 1766 3578 
Q 2131 3578 2409 3434 
Q 2688 3291 2919 2981 
L 2919 3500 
L 4044 3500 
L 4044 353 
Q 4044 -491 3511 -936 
Q 2978 -1381 1966 -1381 
Q 1638 -1381 1331 -1331 
Q 1025 -1281 716 -1178 
L 716 -306 
Q 1009 -475 1290 -558 
Q 1572 -641 1856 -641 
Q 2406 -641 2662 -400 
Q 2919 -159 2919 353 
L 2919 594 
z
M 2181 2772 
Q 1834 2772 1640 2515 
Q 1447 2259 1447 1791 
Q 1447 1309 1634 1061 
Q 1822 813 2181 813 
Q 2531 813 2725 1069 
Q 2919 1325 2919 1791 
Q 2919 2259 2725 2515 
Q 2531 2772 2181 2772 
z
" transform="scale(0.015625)"/>
       </defs>
       <use xlink:href="#DejaVuSans-Bold-41"/>
       <use xlink:href="#DejaVuSans-Bold-75" x="77.392578"/>
       <use xlink:href="#DejaVuSans-Bold-67" x="148.583984"/>
      </g>
     </g>
    </g>
    <g id="xtick_7">
     <g id="line2d_7">
      <g>
       <use xlink:href="#m28f366f969" x="409.939788" y="541.28" style="fill: #555555; stroke: #555555; stroke-width: 0.8"/>
      </g>
     </g>
     <g id="text_7">
      <!-- Sep -->
      <g style="fill: #555555" transform="translate(395.140256 558.917812)scale(0.14 -0.14)">
       <defs>
        <path id="DejaVuSans-Bold-53" d="M 3834 4519 
L 3834 3531 
Q 3450 3703 3084 3790 
Q 2719 3878 2394 3878 
Q 1963 3878 1756 3759 
Q 1550 3641 1550 3391 
Q 1550 3203 1689 3098 
Q 1828 2994 2194 2919 
L 2706 2816 
Q 3484 2659 3812 2340 
Q 4141 2022 4141 1434 
Q 4141 663 3683 286 
Q 3225 -91 2284 -91 
Q 1841 -91 1394 -6 
Q 947 78 500 244 
L 500 1259 
Q 947 1022 1364 901 
Q 1781 781 2169 781 
Q 2563 781 2772 912 
Q 2981 1044 2981 1288 
Q 2981 1506 2839 1625 
Q 2697 1744 2272 1838 
L 1806 1941 
Q 1106 2091 782 2419 
Q 459 2747 459 3303 
Q 459 4000 909 4375 
Q 1359 4750 2203 4750 
Q 2588 4750 2994 4692 
Q 3400 4634 3834 4519 
z
" transform="scale(0.015625)"/>
        <path id="DejaVuSans-Bold-65" d="M 4031 1759 
L 4031 1441 
L 1416 1441 
Q 1456 1047 1700 850 
Q 1944 653 2381 653 
Q 2734 653 3104 758 
Q 3475 863 3866 1075 
L 3866 213 
Q 3469 63 3072 -14 
Q 2675 -91 2278 -91 
Q 1328 -91 801 392 
Q 275 875 275 1747 
Q 275 2603 792 3093 
Q 1309 3584 2216 3584 
Q 3041 3584 3536 3087 
Q 4031 2591 4031 1759 
z
M 2881 2131 
Q 2881 2450 2695 2645 
Q 2509 2841 2209 2841 
Q 1884 2841 1681 2658 
Q 1478 2475 1428 2131 
L 2881 2131 
z
" transform="scale(0.015625)"/>
       </defs>
       <use xlink:href="#DejaVuSans-Bold-53"/>
       <use xlink:href="#DejaVuSans-Bold-65" x="72.021484"/>
       <use xlink:href="#DejaVuSans-Bold-70" x="139.84375"/>
      </g>
     </g>
    </g>
    <g id="xtick_8">
     <g id="line2d_8">
      <g>
       <use xlink:href="#m28f366f969" x="455.905496" y="541.28" style="fill: #555555; stroke: #555555; stroke-width: 0.8"/>
      </g>
     </g>
     <g id="text_8">
      <!-- Oct -->
      <g style="fill: #555555" transform="translate(442.458934 558.917812)scale(0.14 -0.14)">
       <defs>
        <path id="DejaVuSans-Bold-4f" d="M 2719 3878 
Q 2169 3878 1866 3472 
Q 1563 3066 1563 2328 
Q 1563 1594 1866 1187 
Q 2169 781 2719 781 
Q 3272 781 3575 1187 
Q 3878 1594 3878 2328 
Q 3878 3066 3575 3472 
Q 3272 3878 2719 3878 
z
M 2719 4750 
Q 3844 4750 4481 4106 
Q 5119 3463 5119 2328 
Q 5119 1197 4481 553 
Q 3844 -91 2719 -91 
Q 1597 -91 958 553 
Q 319 1197 319 2328 
Q 319 3463 958 4106 
Q 1597 4750 2719 4750 
z
" transform="scale(0.015625)"/>
        <path id="DejaVuSans-Bold-63" d="M 3366 3391 
L 3366 2478 
Q 3138 2634 2908 2709 
Q 2678 2784 2431 2784 
Q 1963 2784 1702 2511 
Q 1441 2238 1441 1747 
Q 1441 1256 1702 982 
Q 1963 709 2431 709 
Q 2694 709 2930 787 
Q 3166 866 3366 1019 
L 3366 103 
Q 3103 6 2833 -42 
Q 2563 -91 2291 -91 
Q 1344 -91 809 395 
Q 275 881 275 1747 
Q 275 2613 809 3098 
Q 1344 3584 2291 3584 
Q 2566 3584 2833 3536 
Q 3100 3488 3366 3391 
z
" transform="scale(0.015625)"/>
        <path id="DejaVuSans-Bold-74" d="M 1759 4494 
L 1759 3500 
L 2913 3500 
L 2913 2700 
L 1759 2700 
L 1759 1216 
Q 1759 972 1856 886 
Q 1953 800 2241 800 
L 2816 800 
L 2816 0 
L 1856 0 
Q 1194 0 917 276 
Q 641 553 641 1216 
L 641 2700 
L 84 2700 
L 84 3500 
L 641 3500 
L 641 4494 
L 1759 4494 
z
" transform="scale(0.015625)"/>
       </defs>
       <use xlink:href="#DejaVuSans-Bold-4f"/>
       <use xlink:href="#DejaVuSans-Bold-63" x="85.009766"/>
       <use xlink:href="#DejaVuSans-Bold-74" x="144.287109"/>
      </g>
     </g>
    </g>
    <g id="xtick_9">
     <g id="line2d_9">
      <g>
       <use xlink:href="#m28f366f969" x="503.403395" y="541.28" style="fill: #555555; stroke: #555555; stroke-width: 0.8"/>
      </g>
     </g>
     <g id="text_9">
      <!-- Nov -->
      <g style="fill: #555555" transform="translate(488.172926 558.917812)scale(0.14 -0.14)">
       <defs>
        <path id="DejaVuSans-Bold-4e" d="M 588 4666 
L 1931 4666 
L 3628 1466 
L 3628 4666 
L 4769 4666 
L 4769 0 
L 3425 0 
L 1728 3200 
L 1728 0 
L 588 0 
L 588 4666 
z
" transform="scale(0.015625)"/>
        <path id="DejaVuSans-Bold-6f" d="M 2203 2784 
Q 1831 2784 1636 2517 
Q 1441 2250 1441 1747 
Q 1441 1244 1636 976 
Q 1831 709 2203 709 
Q 2569 709 2762 976 
Q 2956 1244 2956 1747 
Q 2956 2250 2762 2517 
Q 2569 2784 2203 2784 
z
M 2203 3584 
Q 3106 3584 3614 3096 
Q 4122 2609 4122 1747 
Q 4122 884 3614 396 
Q 3106 -91 2203 -91 
Q 1297 -91 786 396 
Q 275 884 275 1747 
Q 275 2609 786 3096 
Q 1297 3584 2203 3584 
z
" transform="scale(0.015625)"/>
        <path id="DejaVuSans-Bold-76" d="M 97 3500 
L 1216 3500 
L 2088 1081 
L 2956 3500 
L 4078 3500 
L 2700 0 
L 1472 0 
L 97 3500 
z
" transform="scale(0.015625)"/>
       </defs>
       <use xlink:href="#DejaVuSans-Bold-4e"/>
       <use xlink:href="#DejaVuSans-Bold-6f" x="83.691406"/>
       <use xlink:href="#DejaVuSans-Bold-76" x="152.392578"/>
      </g>
     </g>
    </g>
    <g id="xtick_10">
     <g id="line2d_10">
      <g>
       <use xlink:href="#m28f366f969" x="549.369103" y="541.28" style="fill: #555555; stroke: #555555; stroke-width: 0.8"/>
      </g>
     </g>
     <g id="text_10">
      <!-- Dec -->
      <g style="fill: #555555" transform="translate(534.660353 558.917812)scale(0.14 -0.14)">
       <defs>
        <path id="DejaVuSans-Bold-44" d="M 1791 3756 
L 1791 909 
L 2222 909 
Q 2959 909 3348 1275 
Q 3738 1641 3738 2338 
Q 3738 3031 3350 3393 
Q 2963 3756 2222 3756 
L 1791 3756 
z
M 588 4666 
L 1856 4666 
Q 2919 4666 3439 4514 
Q 3959 4363 4331 4000 
Q 4659 3684 4818 3271 
Q 4978 2859 4978 2338 
Q 4978 1809 4818 1395 
Q 4659 981 4331 666 
Q 3956 303 3431 151 
Q 2906 0 1856 0 
L 588 0 
L 588 4666 
z
" transform="scale(0.015625)"/>
       </defs>
       <use xlink:href="#DejaVuSans-Bold-44"/>
       <use xlink:href="#DejaVuSans-Bold-65" x="83.007812"/>
       <use xlink:href="#DejaVuSans-Bold-63" x="150.830078"/>
      </g>
     </g>
    </g>
    <g id="xtick_11">
     <g id="line2d_11">
      <g>
       <use xlink:href="#m28f366f969" x="596.867002" y="541.28" style="fill: #555555; stroke: #555555; stroke-width: 0.8"/>
      </g>
     </g>
     <g id="text_11">
      <!-- Jan -->
      <g style="fill: #555555" transform="translate(584.555752 558.917812)scale(0.14 -0.14)">
       <use xlink:href="#DejaVuSans-Bold-4a"/>
       <use xlink:href="#DejaVuSans-Bold-61" x="37.207031"/>
       <use xlink:href="#DejaVuSans-Bold-6e" x="104.6875"/>
      </g>
     </g>
    </g>
    <g id="xtick_12">
     <g id="line2d_12">
      <g>
       <use xlink:href="#m28f366f969" x="644.364901" y="541.28" style="fill: #555555; stroke: #555555; stroke-width: 0.8"/>
      </g>
     </g>
     <g id="text_12">
      <!-- Feb -->
      <g style="fill: #555555" transform="translate(630.104588 558.917812)scale(0.14 -0.14)">
       <defs>
        <path id="DejaVuSans-Bold-46" d="M 588 4666 
L 3834 4666 
L 3834 3756 
L 1791 3756 
L 1791 2888 
L 3713 2888 
L 3713 1978 
L 1791 1978 
L 1791 0 
L 588 0 
L 588 4666 
z
" transform="scale(0.015625)"/>
        <path id="DejaVuSans-Bold-62" d="M 2400 722 
Q 2759 722 2948 984 
Q 3138 1247 3138 1747 
Q 3138 2247 2948 2509 
Q 2759 2772 2400 2772 
Q 2041 2772 1848 2508 
Q 1656 2244 1656 1747 
Q 1656 1250 1848 986 
Q 2041 722 2400 722 
z
M 1656 2988 
Q 1888 3294 2169 3439 
Q 2450 3584 2816 3584 
Q 3463 3584 3878 3070 
Q 4294 2556 4294 1747 
Q 4294 938 3878 423 
Q 3463 -91 2816 -91 
Q 2450 -91 2169 54 
Q 1888 200 1656 506 
L 1656 0 
L 538 0 
L 538 4863 
L 1656 4863 
L 1656 2988 
z
" transform="scale(0.015625)"/>
       </defs>
       <use xlink:href="#DejaVuSans-Bold-46"/>
       <use xlink:href="#DejaVuSans-Bold-65" x="64.310547"/>
       <use xlink:href="#DejaVuSans-Bold-62" x="132.132812"/>
      </g>
     </g>
    </g>
    <g id="xtick_13">
     <g id="line2d_13">
      <g>
       <use xlink:href="#m28f366f969" x="687.266229" y="541.28" style="fill: #555555; stroke: #555555; stroke-width: 0.8"/>
      </g>
     </g>
     <g id="text_13">
      <!-- Mar -->
      <g style="fill: #555555" transform="translate(672.124354 558.917812)scale(0.14 -0.14)">
       <use xlink:href="#DejaVuSans-Bold-4d"/>
       <use xlink:href="#DejaVuSans-Bold-61" x="99.511719"/>
       <use xlink:href="#DejaVuSans-Bold-72" x="166.992188"/>
      </g>
     </g>
    </g>
    <g id="xtick_14">
     <g id="line2d_14">
      <g>
       <use xlink:href="#m28f366f969" x="734.764127" y="541.28" style="fill: #555555; stroke: #555555; stroke-width: 0.8"/>
      </g>
     </g>
     <g id="text_14">
      <!-- Apr -->
      <g style="fill: #555555" transform="translate(720.88444 558.917812)scale(0.14 -0.14)">
       <use xlink:href="#DejaVuSans-Bold-41"/>
       <use xlink:href="#DejaVuSans-Bold-70" x="77.392578"/>
       <use xlink:href="#DejaVuSans-Bold-72" x="148.974609"/>
      </g>
     </g>
    </g>
    <g id="xtick_15">
     <g id="line2d_15">
      <g>
       <use xlink:href="#m28f366f969" x="780.729836" y="541.28" style="fill: #555555; stroke: #555555; stroke-width: 0.8"/>
      </g>
     </g>
     <g id="text_15">
      <!-- May -->
      <g style="fill: #555555" transform="translate(764.695461 558.808437)scale(0.14 -0.14)">
       <use xlink:href="#DejaVuSans-Bold-4d"/>
       <use xlink:href="#DejaVuSans-Bold-61" x="99.511719"/>
       <use xlink:href="#DejaVuSans-Bold-79" x="163.867188"/>
      </g>
     </g>
    </g>
    <g id="xtick_16">
     <g id="line2d_16">
      <g>
       <use xlink:href="#m28f366f969" x="828.227735" y="541.28" style="fill: #555555; stroke: #555555; stroke-width: 0.8"/>
      </g>
     </g>
     <g id="text_16">
      <!-- Jun -->
      <g style="fill: #555555" transform="translate(815.657266 558.917812)scale(0.14 -0.14)">
       <use xlink:href="#DejaVuSans-Bold-4a"/>
       <use xlink:href="#DejaVuSans-Bold-75" x="37.207031"/>
       <use xlink:href="#DejaVuSans-Bold-6e" x="108.398438"/>
      </g>
     </g>
    </g>
    <g id="xtick_17">
     <g id="line2d_17">
      <g>
       <use xlink:href="#m28f366f969" x="874.193443" y="541.28" style="fill: #555555; stroke: #555555; stroke-width: 0.8"/>
      </g>
     </g>
     <g id="text_17">
      <!-- Jul -->
      <g style="fill: #555555" transform="translate(864.206412 558.917812)scale(0.14 -0.14)">
       <use xlink:href="#DejaVuSans-Bold-4a"/>
       <use xlink:href="#DejaVuSans-Bold-75" x="37.207031"/>
       <use xlink:href="#DejaVuSans-Bold-6c" x="108.398438"/>
      </g>
     </g>
    </g>
    <g id="xtick_18">
     <g id="line2d_18">
      <g>
       <use xlink:href="#m28f366f969" x="921.691342" y="541.28" style="fill: #555555; stroke: #555555; stroke-width: 0.8"/>
      </g>
     </g>
     <g id="text_18">
      <!-- Aug -->
      <g style="fill: #555555" transform="translate(906.280404 558.808437)scale(0.14 -0.14)">
       <use xlink:href="#DejaVuSans-Bold-41"/>
       <use xlink:href="#DejaVuSans-Bold-75" x="77.392578"/>
       <use xlink:href="#DejaVuSans-Bold-67" x="148.583984"/>
      </g>
     </g>
    </g>
    <g id="xtick_19">
     <g id="line2d_19">
      <g>
       <use xlink:href="#m28f366f969" x="969.18924" y="541.28" style="fill: #555555; stroke: #555555; stroke-width: 0.8"/>
      </g>
     </g>
     <g id="text_19">
      <!-- Sep -->
      <g style="fill: #555555" transform="translate(954.389709 558.917812)scale(0.14 -0.14)">
       <use xlink:href="#DejaVuSans-Bold-53"/>
       <use xlink:href="#DejaVuSans-Bold-65" x="72.021484"/>
       <use xlink:href="#DejaVuSans-Bold-70" x="139.84375"/>
      </g>
     </g>
    </g>
    <g id="xtick_20">
     <g id="line2d_20">
      <g>
       <use xlink:href="#m28f366f969" x="1015.154949" y="541.28" style="fill: #555555; stroke: #555555; stroke-width: 0.8"/>
      </g>
     </g>
     <g id="text_20">
      <!-- Oct -->
      <g style="fill: #555555" transform="translate(1001.708386 558.917812)scale(0.14 -0.14)">
       <use xlink:href="#DejaVuSans-Bold-4f"/>
       <use xlink:href="#DejaVuSans-Bold-63" x="85.009766"/>
       <use xlink:href="#DejaVuSans-Bold-74" x="144.287109"/>
      </g>
     </g>
    </g>
    <g id="xtick_21">
     <g id="line2d_21">
      <g>
       <use xlink:href="#m28f366f969" x="1062.652848" y="541.28" style="fill: #555555; stroke: #555555; stroke-width: 0.8"/>
      </g>
     </g>
     <g id="text_21">
      <!-- Nov -->
      <g style="fill: #555555" transform="translate(1047.422379 558.917812)scale(0.14 -0.14)">
       <use xlink:href="#DejaVuSans-Bold-4e"/>
       <use xlink:href="#DejaVuSans-Bold-6f" x="83.691406"/>
       <use xlink:href="#DejaVuSans-Bold-76" x="152.392578"/>
      </g>
     </g>
    </g>
    <g id="xtick_22">
     <g id="line2d_22">
      <g>
       <use xlink:href="#m28f366f969" x="1108.618556" y="541.28" style="fill: #555555; stroke: #555555; stroke-width: 0.8"/>
      </g>
     </g>
     <g id="text_22">
      <!-- Dec -->
      <g style="fill: #555555" transform="translate(1093.909806 558.917812)scale(0.14 -0.14)">
       <use xlink:href="#DejaVuSans-Bold-44"/>
       <use xlink:href="#DejaVuSans-Bold-65" x="83.007812"/>
       <use xlink:href="#DejaVuSans-Bold-63" x="150.830078"/>
      </g>
     </g>
    </g>
   </g>
   <g id="matplotlib.axis_2">
    <g id="ytick_1">
     <g id="line2d_23">
      <defs>
       <path id="m1a1e77d8ad" d="M 0 0 
L -3.5 0 
" style="stroke: #555555; stroke-width: 0.8"/>
      </defs>
      <g>
       <use xlink:href="#m1a1e77d8ad" x="87.95" y="518.991978" style="fill: #555555; stroke: #555555; stroke-width: 0.8"/>
      </g>
     </g>
     <g id="text_23">
      <!-- 0 -->
      <g style="fill: #555555" transform="translate(71.209063 524.310884)scale(0.14 -0.14)">
       <defs>
        <path id="DejaVuSans-Bold-30" d="M 2944 2338 
Q 2944 3213 2780 3570 
Q 2616 3928 2228 3928 
Q 1841 3928 1675 3570 
Q 1509 3213 1509 2338 
Q 1509 1453 1675 1090 
Q 1841 728 2228 728 
Q 2613 728 2778 1090 
Q 2944 1453 2944 2338 
z
M 4147 2328 
Q 4147 1169 3647 539 
Q 3147 -91 2228 -91 
Q 1306 -91 806 539 
Q 306 1169 306 2328 
Q 306 3491 806 4120 
Q 1306 4750 2228 4750 
Q 3147 4750 3647 4120 
Q 4147 3491 4147 2328 
z
" transform="scale(0.015625)"/>
       </defs>
       <use xlink:href="#DejaVuSans-Bold-30"/>
      </g>
     </g>
    </g>
    <g id="ytick_2">
     <g id="line2d_24">
      <g>
       <use xlink:href="#m1a1e77d8ad" x="87.95" y="422.045384" style="fill: #555555; stroke: #555555; stroke-width: 0.8"/>
      </g>
     </g>
     <g id="text_24">
      <!-- 5000 -->
      <g style="fill: #555555" transform="translate(41.98625 427.36429)scale(0.14 -0.14)">
       <defs>
        <path id="DejaVuSans-Bold-35" d="M 678 4666 
L 3669 4666 
L 3669 3781 
L 1638 3781 
L 1638 3059 
Q 1775 3097 1914 3117 
Q 2053 3138 2203 3138 
Q 3056 3138 3531 2711 
Q 4006 2284 4006 1522 
Q 4006 766 3489 337 
Q 2972 -91 2053 -91 
Q 1656 -91 1267 -14 
Q 878 63 494 219 
L 494 1166 
Q 875 947 1217 837 
Q 1559 728 1863 728 
Q 2300 728 2551 942 
Q 2803 1156 2803 1522 
Q 2803 1891 2551 2103 
Q 2300 2316 1863 2316 
Q 1603 2316 1309 2248 
Q 1016 2181 678 2041 
L 678 4666 
z
" transform="scale(0.015625)"/>
       </defs>
       <use xlink:href="#DejaVuSans-Bold-35"/>
       <use xlink:href="#DejaVuSans-Bold-30" x="69.580078"/>
       <use xlink:href="#DejaVuSans-Bold-30" x="139.160156"/>
       <use xlink:href="#DejaVuSans-Bold-30" x="208.740234"/>
      </g>
     </g>
    </g>
    <g id="ytick_3">
     <g id="line2d_25">
      <g>
       <use xlink:href="#m1a1e77d8ad" x="87.95" y="325.098789" style="fill: #555555; stroke: #555555; stroke-width: 0.8"/>
      </g>
     </g>
     <g id="text_25">
      <!-- 10000 -->
      <g style="fill: #555555" transform="translate(32.245313 330.417696)scale(0.14 -0.14)">
       <defs>
        <path id="DejaVuSans-Bold-31" d="M 750 831 
L 1813 831 
L 1813 3847 
L 722 3622 
L 722 4441 
L 1806 4666 
L 2950 4666 
L 2950 831 
L 4013 831 
L 4013 0 
L 750 0 
L 750 831 
z
" transform="scale(0.015625)"/>
       </defs>
       <use xlink:href="#DejaVuSans-Bold-31"/>
       <use xlink:href="#DejaVuSans-Bold-30" x="69.580078"/>
       <use xlink:href="#DejaVuSans-Bold-30" x="139.160156"/>
       <use xlink:href="#DejaVuSans-Bold-30" x="208.740234"/>
       <use xlink:href="#DejaVuSans-Bold-30" x="278.320312"/>
      </g>
     </g>
    </g>
    <g id="ytick_4">
     <g id="line2d_26">
      <g>
       <use xlink:href="#m1a1e77d8ad" x="87.95" y="228.152195" style="fill: #555555; stroke: #555555; stroke-width: 0.8"/>
      </g>
     </g>
     <g id="text_26">
      <!-- 15000 -->
      <g style="fill: #555555" transform="translate(32.245313 233.471101)scale(0.14 -0.14)">
       <use xlink:href="#DejaVuSans-Bold-31"/>
       <use xlink:href="#DejaVuSans-Bold-35" x="69.580078"/>
       <use xlink:href="#DejaVuSans-Bold-30" x="139.160156"/>
       <use xlink:href="#DejaVuSans-Bold-30" x="208.740234"/>
       <use xlink:href="#DejaVuSans-Bold-30" x="278.320312"/>
      </g>
     </g>
    </g>
    <g id="ytick_5">
     <g id="line2d_27">
      <g>
       <use xlink:href="#m1a1e77d8ad" x="87.95" y="131.205601" style="fill: #555555; stroke: #555555; stroke-width: 0.8"/>
      </g>
     </g>
     <g id="text_27">
      <!-- 20000 -->
      <g style="fill: #555555" transform="translate(32.245313 136.524507)scale(0.14 -0.14)">
       <defs>
        <path id="DejaVuSans-Bold-32" d="M 1844 884 
L 3897 884 
L 3897 0 
L 506 0 
L 506 884 
L 2209 2388 
Q 2438 2594 2547 2791 
Q 2656 2988 2656 3200 
Q 2656 3528 2436 3728 
Q 2216 3928 1850 3928 
Q 1569 3928 1234 3808 
Q 900 3688 519 3450 
L 519 4475 
Q 925 4609 1322 4679 
Q 1719 4750 2100 4750 
Q 2938 4750 3402 4381 
Q 3866 4013 3866 3353 
Q 3866 2972 3669 2642 
Q 3472 2313 2841 1759 
L 1844 884 
z
" transform="scale(0.015625)"/>
       </defs>
       <use xlink:href="#DejaVuSans-Bold-32"/>
       <use xlink:href="#DejaVuSans-Bold-30" x="69.580078"/>
       <use xlink:href="#DejaVuSans-Bold-30" x="139.160156"/>
       <use xlink:href="#DejaVuSans-Bold-30" x="208.740234"/>
       <use xlink:href="#DejaVuSans-Bold-30" x="278.320312"/>
      </g>
     </g>
    </g>
    <g id="text_28">
     <!-- New Cases -->
     <g style="fill: #555555" transform="translate(24.917813 333.23875)rotate(-90)scale(0.16 -0.16)">
      <defs>
       <path id="DejaVuSans-4e" d="M 628 4666 
L 1478 4666 
L 3547 763 
L 3547 4666 
L 4159 4666 
L 4159 0 
L 3309 0 
L 1241 3903 
L 1241 0 
L 628 0 
L 628 4666 
z
" transform="scale(0.015625)"/>
       <path id="DejaVuSans-65" d="M 3597 1894 
L 3597 1613 
L 953 1613 
Q 991 1019 1311 708 
Q 1631 397 2203 397 
Q 2534 397 2845 478 
Q 3156 559 3463 722 
L 3463 178 
Q 3153 47 2828 -22 
Q 2503 -91 2169 -91 
Q 1331 -91 842 396 
Q 353 884 353 1716 
Q 353 2575 817 3079 
Q 1281 3584 2069 3584 
Q 2775 3584 3186 3129 
Q 3597 2675 3597 1894 
z
M 3022 2063 
Q 3016 2534 2758 2815 
Q 2500 3097 2075 3097 
Q 1594 3097 1305 2825 
Q 1016 2553 972 2059 
L 3022 2063 
z
" transform="scale(0.015625)"/>
       <path id="DejaVuSans-77" d="M 269 3500 
L 844 3500 
L 1563 769 
L 2278 3500 
L 2956 3500 
L 3675 769 
L 4391 3500 
L 4966 3500 
L 4050 0 
L 3372 0 
L 2619 2869 
L 1863 0 
L 1184 0 
L 269 3500 
z
" transform="scale(0.015625)"/>
       <path id="DejaVuSans-20" transform="scale(0.015625)"/>
       <path id="DejaVuSans-43" d="M 4122 4306 
L 4122 3641 
Q 3803 3938 3442 4084 
Q 3081 4231 2675 4231 
Q 1875 4231 1450 3742 
Q 1025 3253 1025 2328 
Q 1025 1406 1450 917 
Q 1875 428 2675 428 
Q 3081 428 3442 575 
Q 3803 722 4122 1019 
L 4122 359 
Q 3791 134 3420 21 
Q 3050 -91 2638 -91 
Q 1578 -91 968 557 
Q 359 1206 359 2328 
Q 359 3453 968 4101 
Q 1578 4750 2638 4750 
Q 3056 4750 3426 4639 
Q 3797 4528 4122 4306 
z
" transform="scale(0.015625)"/>
       <path id="DejaVuSans-61" d="M 2194 1759 
Q 1497 1759 1228 1600 
Q 959 1441 959 1056 
Q 959 750 1161 570 
Q 1363 391 1709 391 
Q 2188 391 2477 730 
Q 2766 1069 2766 1631 
L 2766 1759 
L 2194 1759 
z
M 3341 1997 
L 3341 0 
L 2766 0 
L 2766 531 
Q 2569 213 2275 61 
Q 1981 -91 1556 -91 
Q 1019 -91 701 211 
Q 384 513 384 1019 
Q 384 1609 779 1909 
Q 1175 2209 1959 2209 
L 2766 2209 
L 2766 2266 
Q 2766 2663 2505 2880 
Q 2244 3097 1772 3097 
Q 1472 3097 1187 3025 
Q 903 2953 641 2809 
L 641 3341 
Q 956 3463 1253 3523 
Q 1550 3584 1831 3584 
Q 2591 3584 2966 3190 
Q 3341 2797 3341 1997 
z
" transform="scale(0.015625)"/>
       <path id="DejaVuSans-73" d="M 2834 3397 
L 2834 2853 
Q 2591 2978 2328 3040 
Q 2066 3103 1784 3103 
Q 1356 3103 1142 2972 
Q 928 2841 928 2578 
Q 928 2378 1081 2264 
Q 1234 2150 1697 2047 
L 1894 2003 
Q 2506 1872 2764 1633 
Q 3022 1394 3022 966 
Q 3022 478 2636 193 
Q 2250 -91 1575 -91 
Q 1294 -91 989 -36 
Q 684 19 347 128 
L 347 722 
Q 666 556 975 473 
Q 1284 391 1588 391 
Q 1994 391 2212 530 
Q 2431 669 2431 922 
Q 2431 1156 2273 1281 
Q 2116 1406 1581 1522 
L 1381 1569 
Q 847 1681 609 1914 
Q 372 2147 372 2553 
Q 372 3047 722 3315 
Q 1072 3584 1716 3584 
Q 2034 3584 2315 3537 
Q 2597 3491 2834 3397 
z
" transform="scale(0.015625)"/>
      </defs>
      <use xlink:href="#DejaVuSans-4e"/>
      <use xlink:href="#DejaVuSans-65" x="74.804688"/>
      <use xlink:href="#DejaVuSans-77" x="136.328125"/>
      <use xlink:href="#DejaVuSans-20" x="218.115234"/>
      <use xlink:href="#DejaVuSans-43" x="249.902344"/>
      <use xlink:href="#DejaVuSans-61" x="319.726562"/>
      <use xlink:href="#DejaVuSans-73" x="381.005859"/>
      <use xlink:href="#DejaVuSans-65" x="433.105469"/>
      <use xlink:href="#DejaVuSans-73" x="494.628906"/>
     </g>
    </g>
   </g>
   <g id="line2d_28">
    <path d="M 135.677727 518.216405 
L 137.209918 518.022512 
L 138.742108 518.37152 
L 140.274298 517.80923 
L 141.806488 516.471367 
L 143.338679 516.607092 
L 144.870869 516.529534 
L 146.403059 516.800985 
L 147.93525 514.745717 
L 149.46744 515.637626 
L 150.99963 513.756862 
L 152.53182 513.407854 
L 154.064011 512.263884 
L 155.596201 511.313808 
L 157.128391 508.657471 
L 158.660581 506.640982 
L 160.192772 507.26144 
L 161.724962 508.269685 
L 163.257152 504.469378 
L 164.789343 502.646782 
L 167.853723 496.364643 
L 169.385913 496.771819 
L 170.918104 497.818842 
L 172.450294 502.065103 
L 173.982484 502.821286 
L 175.514675 499.447545 
L 177.046865 497.993346 
L 178.579055 499.214873 
L 180.111245 499.56388 
L 181.643436 497.683117 
L 184.707816 503.829531 
L 186.240007 500.397621 
L 187.772197 495.569681 
L 189.304387 493.262352 
L 190.836577 493.766474 
L 192.368768 496.287086 
L 193.900958 500.397621 
L 195.433148 502.278385 
L 196.965339 504.837775 
L 198.497529 498.264796 
L 200.029719 495.065559 
L 201.561909 495.996246 
L 203.0941 499.156705 
L 204.62629 504.488767 
L 206.15848 505.109226 
L 207.690671 505.26434 
L 209.222861 502.045713 
L 210.755051 503.383576 
L 212.287241 506.447089 
L 213.819432 506.369531 
L 215.351622 511.139304 
L 216.883812 515.249839 
L 218.416002 511.468922 
L 219.948193 509.161593 
L 221.480383 509.723884 
L 223.012573 510.518846 
L 224.544764 512.438388 
L 226.076954 515.094725 
L 227.609144 512.806785 
L 229.141334 512.806785 
L 230.673525 511.992434 
L 232.205715 512.806785 
L 233.737905 513.407854 
L 235.270096 514.299763 
L 236.802286 515.52129 
L 238.334476 515.211061 
L 239.866666 514.66816 
L 241.398857 513.679305 
L 242.931047 515.075336 
L 244.463237 515.23045 
L 245.995428 516.568313 
L 247.527618 516.122359 
L 249.059808 516.839764 
L 250.591998 515.366175 
L 252.124189 514.067091 
L 253.656379 515.424343 
L 256.72076 515.637626 
L 258.25295 514.862053 
L 259.78514 516.490756 
L 261.31733 515.23045 
L 262.849521 515.540679 
L 264.381711 515.540679 
L 265.913901 516.258084 
L 267.446091 515.579458 
L 268.978282 516.975489 
L 270.510472 517.149993 
L 272.042662 517.188771 
L 273.574853 515.346786 
L 275.107043 514.784496 
L 276.639233 515.308007 
L 278.171423 514.357931 
L 279.703614 515.773351 
L 281.235804 515.81213 
L 282.767994 515.482511 
L 284.300185 515.850908 
L 285.832375 514.978389 
L 287.364565 515.482511 
L 288.896755 516.199916 
L 290.428946 515.909076 
L 293.493326 516.800985 
L 295.025517 516.587702 
L 298.089897 517.246939 
L 299.622087 517.149993 
L 301.154278 517.673504 
L 302.686468 517.634726 
L 304.218658 517.440832 
L 305.750849 516.859153 
L 308.815229 517.499 
L 310.347419 517.712283 
L 311.87961 517.51839 
L 313.4118 517.886787 
L 314.94399 517.78984 
L 316.476181 517.537779 
L 318.008371 517.51839 
L 319.540561 517.731672 
L 321.072751 517.595947 
L 322.604942 518.197016 
L 324.137132 518.332741 
L 325.669322 517.886787 
L 328.733703 517.731672 
L 330.265893 517.363275 
L 331.798083 517.149993 
L 333.330274 517.595947 
L 334.862464 517.091825 
L 337.926844 516.684649 
L 339.459035 516.878542 
L 340.991225 516.180527 
L 342.523415 516.180527 
L 344.055606 515.443733 
L 345.587796 515.715183 
L 347.119986 515.695794 
L 350.184367 515.986634 
L 353.248747 514.862053 
L 354.780938 514.93961 
L 356.313128 514.648771 
L 357.845318 514.183427 
L 359.377508 512.38022 
L 360.909699 512.38022 
L 362.441889 510.635182 
L 363.974079 512.031213 
L 365.50627 511.779151 
L 367.03846 509.54938 
L 368.57065 510.69335 
L 370.10284 507.26144 
L 371.635031 508.9677 
L 373.167221 509.607548 
L 374.699411 507.804341 
L 376.231601 503.732584 
L 377.763792 506.9706 
L 379.295982 506.369531 
L 380.828172 507.82373 
L 382.360363 506.834875 
L 383.892553 506.272585 
L 385.424743 509.316708 
L 386.956933 509.568769 
L 388.489124 509.433044 
L 390.021314 508.269685 
L 391.553504 508.69625 
L 393.085695 508.657471 
L 394.617885 509.161593 
L 396.150075 510.169838 
L 397.682265 507.881898 
L 399.214456 510.926021 
L 400.746646 507.901288 
L 402.278836 509.142204 
L 403.811027 509.277929 
L 406.875407 509.180983 
L 408.407597 508.793196 
L 409.939788 509.937166 
L 411.471978 505.031668 
L 413.004168 507.377776 
L 414.536359 504.585714 
L 416.068549 506.40831 
L 417.600739 501.153805 
L 419.132929 503.577469 
L 422.19731 496.888154 
L 423.7295 502.763118 
L 425.261691 494.348154 
L 426.793881 495.29823 
L 428.326071 497.915788 
L 429.858261 493.844031 
L 431.390452 492.312275 
L 432.922642 489.190595 
L 435.987022 481.08586 
L 437.519213 482.307387 
L 439.051403 483.238074 
L 440.583593 476.122194 
L 442.115784 475.618072 
L 443.647974 473.737308 
L 445.180164 469.820665 
L 446.712354 465.399901 
L 448.244545 466.640817 
L 449.776735 461.289365 
L 451.308925 462.724175 
L 452.841116 460.746464 
L 454.373306 455.278676 
L 455.905496 455.918524 
L 457.437686 445.235009 
L 458.969877 442.695008 
L 460.502067 441.764321 
L 462.034257 430.673631 
L 463.566448 431.371646 
L 465.098638 422.588285 
L 466.630828 406.844158 
L 468.163018 403.431638 
L 469.695209 393.38797 
L 471.227399 396.024918 
L 472.759589 387.086442 
L 474.29178 376.810103 
L 475.82397 378.400027 
L 477.35616 368.201245 
L 478.88835 364.846893 
L 480.420541 361.841549 
L 481.952731 361.007808 
L 483.484921 364.148878 
L 485.017111 361.085365 
L 488.081492 339.621389 
L 489.613682 325.64169 
L 491.145873 351.429484 
L 492.678063 321.841384 
L 494.210253 319.223826 
L 495.742443 319.941231 
L 497.274634 362.38445 
L 498.806824 320.348406 
L 500.339014 304.429776 
L 501.871205 329.538943 
L 503.403395 350.71208 
L 504.935585 358.758647 
L 506.467775 368.957429 
L 507.999966 371.633155 
L 509.532156 384.313769 
L 511.064346 378.88476 
L 512.596537 390.712244 
L 515.660917 428.463248 
L 517.193107 428.947981 
L 518.725298 414.619275 
L 520.257488 410.043395 
L 521.789678 401.337591 
L 523.321869 404.653165 
L 524.854059 413.940648 
L 527.918439 436.005693 
L 529.45063 430.13073 
L 530.98282 408.744311 
L 532.51501 403.993928 
L 534.0472 402.578508 
L 535.579391 415.104008 
L 537.111581 418.535917 
L 538.643771 442.462336 
L 540.175962 423.790422 
L 541.708152 432.360501 
L 543.240342 407.484005 
L 544.772532 432.418669 
L 546.304723 411.090419 
L 547.836913 430.344012 
L 549.369103 440.697908 
L 550.901294 423.829201 
L 552.433484 410.528128 
L 553.965674 404.769501 
L 555.497864 392.399115 
L 557.030055 387.900793 
L 558.562245 381.44415 
L 560.094435 400.348736 
L 561.626626 392.108275 
L 563.158816 350.1304 
L 564.691006 347.648567 
L 566.223196 342.122611 
L 567.755387 327.483676 
L 569.287577 354.938951 
L 570.819767 390.421405 
L 572.351958 302.490844 
L 573.884148 271.235262 
L 575.416338 287.173282 
L 576.948528 281.976944 
L 578.480719 266.989001 
L 580.012909 302.684737 
L 581.545099 328.550088 
L 583.07729 317.517566 
L 584.60948 296.131147 
L 586.14167 296.111758 
L 587.67386 328.685813 
L 589.206051 344.391162 
L 590.738241 375.549797 
L 592.270431 373.223079 
L 593.802621 335.782304 
L 595.334812 331.613601 
L 596.867002 360.600632 
L 598.399192 352.457118 
L 599.931383 375.588576 
L 601.463573 390.402015 
L 602.995763 395.501406 
L 604.527953 381.541097 
L 606.060144 331.34215 
L 607.592334 361.705823 
L 610.656715 390.983695 
L 612.188905 413.358969 
L 613.721095 423.169964 
L 615.253285 400.891637 
L 616.785476 392.980795 
L 618.317666 402.171332 
L 619.849856 416.325535 
L 621.382047 410.7608 
L 622.914237 426.233477 
L 624.446427 435.714853 
L 625.978617 411.012861 
L 627.510808 406.436982 
L 629.042998 407.600341 
L 630.575188 413.397747 
L 632.107379 424.352713 
L 633.639569 439.709053 
L 635.171759 442.229665 
L 636.703949 427.377446 
L 638.23614 428.036683 
L 639.76833 433.737143 
L 641.30052 438.09974 
L 642.83271 447.697453 
L 644.364901 456.209364 
L 645.897091 450.198675 
L 647.429281 441.085695 
L 648.961472 437.576228 
L 650.493662 435.288288 
L 652.025852 439.728442 
L 653.558042 443.024627 
L 655.090233 475.230285 
L 656.622423 484.886166 
L 658.154613 457.469669 
L 659.686804 433.155463 
L 661.218994 435.094395 
L 662.751184 438.09974 
L 664.283374 452.583561 
L 665.815565 463.887534 
L 667.347755 466.83471 
L 668.879945 453.688752 
L 670.412136 430.615463 
L 671.944326 428.327523 
L 673.476516 430.98386 
L 675.008706 428.463248 
L 676.540897 437.964014 
L 678.073087 445.138062 
L 679.605277 434.299433 
L 681.137468 422.316834 
L 682.669658 420.319734 
L 684.201848 423.557751 
L 685.734038 429.141874 
L 687.266229 446.301422 
L 688.798419 442.113329 
L 690.330609 421.599429 
L 691.8628 439.650885 
L 693.39499 428.598973 
L 694.92718 415.995916 
L 696.45937 431.584929 
L 697.991561 443.683864 
L 699.523751 435.889357 
L 701.055941 417.02355 
L 702.588131 416.286756 
L 704.120322 403.140798 
L 705.652512 395.38507 
L 708.716893 412.311946 
L 710.249083 423.169964 
L 711.781273 404.439882 
L 713.313463 400.116064 
L 714.845654 376.519263 
L 716.377844 371.594376 
L 719.442225 396.839269 
L 720.974415 410.256678 
L 722.506605 372.486285 
L 724.038795 369.926895 
L 725.570986 372.447506 
L 727.103176 348.71498 
L 728.635366 374.153766 
L 730.167557 387.513007 
L 731.699747 405.467516 
L 733.231937 371.070864 
L 734.764127 367.386894 
L 736.296318 379.117432 
L 737.828508 371.691323 
L 739.360698 385.942472 
L 740.892889 415.569351 
L 742.425079 411.206754 
L 743.957269 395.501406 
L 745.489459 368.511474 
L 747.02165 370.469796 
L 748.55384 370.489185 
L 750.08603 361.124144 
L 751.61822 389.897893 
L 753.150411 388.656977 
L 754.682601 413.514083 
L 756.214791 350.42124 
L 757.746982 346.620933 
L 759.279172 358.971929 
L 760.811362 353.756203 
L 762.343552 380.203234 
L 763.875743 386.737434 
L 765.407933 354.725669 
L 766.940123 333.261693 
L 768.472314 339.931618 
L 770.004504 362.675289 
L 771.536694 363.489641 
L 773.068884 398.274079 
L 774.601075 416.131641 
L 776.133265 351.254981 
L 777.665455 377.779569 
L 779.197646 368.453306 
L 780.729836 406.863547 
L 782.262026 413.106908 
L 783.794216 340.881695 
L 785.326407 368.569642 
L 788.390787 388.055908 
L 789.922978 374.367049 
L 791.455168 375.045675 
L 794.519548 405.35118 
L 796.051739 411.865991 
L 797.583929 396.044307 
L 799.116119 402.423393 
L 800.648309 411.516984 
L 802.1805 432.282944 
L 803.71269 433.213631 
L 805.24488 463.577305 
L 806.777071 415.743855 
L 808.309261 430.809356 
L 809.841451 429.490882 
L 811.373641 438.758977 
L 812.905832 457.469669 
L 814.438022 452.62234 
L 815.970212 466.097916 
L 817.502403 470.82891 
L 819.034593 465.904023 
L 820.566783 453.553027 
L 822.098973 444.556383 
L 823.631164 454.134706 
L 825.163354 468.153184 
L 826.695544 479.825554 
L 828.227735 470.906467 
L 829.759925 469.374711 
L 831.292115 465.458069 
L 832.824305 472.554559 
L 834.356496 477.925401 
L 835.888686 488.589526 
L 837.420876 490.528458 
L 838.953067 491.148916 
L 840.485257 485.041281 
L 842.017447 488.415022 
L 843.549637 492.098993 
L 845.081828 494.968612 
L 846.614018 498.807697 
L 848.146208 501.948767 
L 849.678399 498.827086 
L 851.210589 499.137315 
L 852.742779 498.458689 
L 854.274969 501.735484 
L 855.80716 505.574569 
L 857.33935 505.225562 
L 858.87154 507.959456 
L 860.40373 505.458233 
L 861.935921 506.098081 
L 863.468111 505.497012 
L 865.000301 506.466478 
L 866.532492 508.230906 
L 868.064682 509.277929 
L 869.596872 507.998234 
L 871.129062 508.754418 
L 872.661253 506.660371 
L 874.193443 503.053958 
L 875.725633 500.766018 
L 877.257824 497.275941 
L 878.790014 495.724795 
L 880.322204 489.675328 
L 881.854394 476.490591 
L 883.386585 449.171041 
L 884.918775 414.405992 
L 886.450965 385.535296 
L 887.983156 320.755582 
L 891.047536 355.520631 
L 892.579726 367.716512 
L 894.111917 317.226726 
L 895.644107 306.136036 
L 897.176297 300.668248 
L 898.708488 304.720615 
L 900.240678 321.550544 
L 901.772868 346.931162 
L 903.305058 387.609953 
L 904.837249 386.039419 
L 906.369439 398.138354 
L 907.901629 395.462628 
L 909.433819 417.02355 
L 910.96601 429.665386 
L 912.4982 444.653329 
L 914.03039 441.841878 
L 915.562581 452.215164 
L 917.094771 432.67073 
L 918.626961 452.447836 
L 920.159151 461.948602 
L 921.691342 474.144483 
L 923.223532 478.293798 
L 924.755722 476.160973 
L 926.287913 464.857 
L 927.820103 454.406157 
L 929.352293 462.743564 
L 930.884483 472.515781 
L 932.416674 474.260819 
L 933.948864 479.495935 
L 935.481054 477.072271 
L 937.013245 477.906011 
L 938.545435 469.238986 
L 940.077625 467.338833 
L 941.609815 474.318987 
L 943.142006 475.152728 
L 944.674196 475.637461 
L 946.206386 474.318987 
L 947.738577 464.992725 
L 949.270767 470.82891 
L 950.802957 476.180362 
L 952.335147 471.68204 
L 953.867338 471.274864 
L 955.399528 472.80662 
L 956.931718 471.294254 
L 958.463909 464.391656 
L 959.996099 468.327688 
L 961.528289 464.740664 
L 963.060479 471.488147 
L 966.12486 476.897767 
L 967.65705 474.900667 
L 969.18924 464.934557 
L 970.721431 464.915168 
L 972.253621 469.937001 
L 973.785811 465.71013 
L 975.318002 473.271964 
L 976.850192 478.002958 
L 978.382382 471.061582 
L 979.914572 464.818221 
L 981.446763 473.291353 
L 982.978953 467.106161 
L 984.511143 476.180362 
L 986.043334 478.371355 
L 987.575524 485.021891 
L 989.107714 480.193951 
L 990.639904 472.942346 
L 992.172095 478.468302 
L 993.704285 477.770286 
L 995.236475 479.94189 
L 996.768666 486.708762 
L 998.300856 492.75823 
L 999.833046 486.747541 
L 1001.365236 482.268608 
L 1002.897427 483.897311 
L 1004.429617 486.146472 
L 1005.961807 487.969068 
L 1007.493998 487.988457 
L 1009.026188 492.118382 
L 1010.558378 485.700518 
L 1012.090568 485.041281 
L 1013.622759 486.010747 
L 1015.154949 485.700518 
L 1016.687139 486.631205 
L 1018.219329 487.930289 
L 1019.75152 487.775175 
L 1021.28371 482.171661 
L 1022.8159 482.074715 
L 1024.348091 466.00097 
L 1025.880281 465.302954 
L 1027.412471 470.82891 
L 1028.944661 465.962191 
L 1030.476852 475.3854 
L 1032.009042 463.092572 
L 1033.541232 446.90249 
L 1035.073423 448.511804 
L 1036.605613 447.329055 
L 1038.137803 447.426002 
L 1039.669993 448.027071 
L 1041.202184 454.057149 
L 1042.734374 443.082795 
L 1044.266564 430.13073 
L 1045.798755 418.594085 
L 1047.330945 405.777745 
L 1048.863135 409.015761 
L 1050.395325 396.781101 
L 1051.927516 416.247977 
L 1053.459706 407.387059 
L 1054.991896 378.147966 
L 1056.524087 370.314681 
L 1058.056277 375.704912 
L 1059.588467 364.982618 
L 1061.120657 360.872083 
L 1062.652848 369.868727 
L 1064.185038 369.733001 
L 1065.717228 341.540932 
L 1067.249419 321.0852 
L 1068.781609 308.094357 
L 1070.313799 286.863053 
L 1071.845989 299.020156 
L 1073.37818 290.954199 
L 1074.91037 299.892675 
L 1076.44256 273.639537 
L 1077.97475 203.54715 
L 1079.506941 204.322722 
L 1081.039131 250.314187 
L 1082.571321 286.242594 
L 1084.103512 146.193544 
L 1085.635702 127.269569 
L 1087.167892 116.043154 
L 1088.700082 60.609091 
L 1090.232273 109.896739 
L 1090.232273 109.896739 
" clip-path="url(#p9a84fa797c)" style="fill: none; stroke-dasharray: 1.5,2.475; stroke-dashoffset: 0; stroke: #000000; stroke-opacity: 0.5; stroke-width: 1.5"/>
   </g>
   <g id="line2d_29">
    <path d="M 135.677727 518.390909 
L 140.274298 517.479611 
L 143.338679 516.742817 
L 146.403059 515.947855 
L 147.93525 515.443733 
L 149.46744 514.803885 
L 150.99963 514.028312 
L 152.53182 513.039457 
L 161.724962 505.807241 
L 163.257152 504.13976 
L 166.321533 500.281285 
L 167.853723 499.02098 
L 169.385913 498.768918 
L 170.918104 499.117926 
L 172.450294 499.680216 
L 173.982484 500.068003 
L 175.514675 500.029224 
L 178.579055 499.234262 
L 180.111245 499.369987 
L 181.643436 499.835331 
L 183.175626 500.068003 
L 184.707816 499.641438 
L 186.240007 498.575025 
L 187.772197 497.29533 
L 189.304387 496.364643 
L 190.836577 496.325864 
L 192.368768 497.528002 
L 193.900958 499.040369 
L 195.433148 499.990445 
L 196.965339 500.009835 
L 198.497529 499.350598 
L 200.029719 498.846476 
L 201.561909 499.098537 
L 203.0941 500.184339 
L 204.62629 501.754874 
L 206.15848 503.073347 
L 207.690671 503.926477 
L 209.222861 504.372432 
L 210.755051 505.012279 
L 212.287241 506.427699 
L 215.351622 509.762662 
L 216.883812 510.770907 
L 218.416002 511.061747 
L 221.480383 511.119915 
L 223.012573 511.391365 
L 226.076954 512.651671 
L 227.609144 512.923121 
L 230.673525 512.981289 
L 232.205715 513.155793 
L 236.802286 514.513045 
L 238.334476 514.706939 
L 241.398857 514.862053 
L 242.931047 515.055946 
L 245.995428 515.773351 
L 247.527618 515.909076 
L 249.059808 515.81213 
L 253.656379 515.269229 
L 256.72076 515.424343 
L 259.78514 515.579458 
L 262.849521 515.657015 
L 265.913901 515.986634 
L 267.446091 516.277473 
L 268.978282 516.451977 
L 270.510472 516.451977 
L 272.042662 516.238695 
L 275.107043 515.482511 
L 276.639233 515.269229 
L 278.171423 515.211061 
L 281.235804 515.463122 
L 287.364565 515.695794 
L 301.154278 517.363275 
L 310.347419 517.537779 
L 313.4118 517.673504 
L 319.540561 517.751062 
L 324.137132 517.983733 
L 327.201512 517.80923 
L 339.459035 516.529534 
L 344.055606 515.889687 
L 351.716557 515.385565 
L 353.248747 515.114114 
L 356.313128 514.241595 
L 360.909699 512.360831 
L 362.441889 511.779151 
L 363.974079 511.371976 
L 370.10284 509.200372 
L 371.635031 508.502356 
L 373.167221 507.959456 
L 374.699411 507.280829 
L 376.231601 506.893043 
L 377.763792 506.640982 
L 379.295982 506.563425 
L 380.828172 506.854264 
L 383.892553 507.82373 
L 385.424743 508.289074 
L 386.956933 508.638082 
L 388.489124 508.851364 
L 391.553504 508.928921 
L 393.085695 508.909532 
L 396.150075 509.180983 
L 399.214456 509.200372 
L 402.278836 509.084036 
L 405.343217 509.122815 
L 406.875407 508.928921 
L 408.407597 508.579914 
L 411.471978 507.242051 
L 416.068549 504.275485 
L 420.66512 500.70785 
L 422.19731 499.369987 
L 423.7295 498.4393 
L 428.326071 495.162505 
L 429.858261 493.339909 
L 431.390452 491.245863 
L 435.987022 483.897311 
L 440.583593 477.789675 
L 443.647974 472.729063 
L 445.180164 469.917612 
L 448.244545 465.380511 
L 449.776735 463.228297 
L 451.308925 461.328144 
L 452.841116 458.846311 
L 454.373306 455.647073 
L 455.905496 452.137607 
L 460.502067 438.565083 
L 462.034257 432.787066 
L 463.566448 426.543706 
L 468.163018 404.517439 
L 469.695209 397.634231 
L 472.759589 386.349648 
L 475.82397 375.588576 
L 477.35616 370.62491 
L 478.88835 366.979718 
L 481.952731 362.016053 
L 483.484921 359.146433 
L 486.549302 349.665056 
L 489.613682 337.953908 
L 491.145873 332.796349 
L 492.678063 331.322761 
L 495.742443 329.325661 
L 497.274634 327.871462 
L 498.806824 328.530699 
L 500.339014 330.818638 
L 501.871205 336.48032 
L 503.403395 343.86765 
L 504.935585 355.016508 
L 506.467775 365.079565 
L 507.999966 372.680178 
L 509.532156 379.640943 
L 511.064346 387.99774 
L 514.128727 406.630875 
L 515.660917 413.378358 
L 517.193107 416.46126 
L 518.725298 415.491794 
L 520.257488 412.583396 
L 521.789678 410.625075 
L 523.321869 412.079274 
L 524.854059 416.403092 
L 526.386249 420.222788 
L 527.918439 421.890269 
L 529.45063 420.028895 
L 532.51501 412.777289 
L 534.0472 412.874236 
L 535.579391 415.666298 
L 537.111581 420.99836 
L 538.643771 424.178209 
L 540.175962 426.155919 
L 543.240342 423.654697 
L 544.772532 423.2863 
L 546.304723 424.624163 
L 547.836913 425.070117 
L 549.369103 424.565995 
L 550.901294 419.757444 
L 552.433484 413.33958 
L 553.965674 404.672554 
L 555.497864 397.595453 
L 557.030055 393.252245 
L 558.562245 388.56003 
L 560.094435 382.704456 
L 561.626626 374.638499 
L 563.158816 363.79987 
L 564.691006 354.454218 
L 566.223196 350.014064 
L 567.755387 346.233147 
L 569.287577 341.521542 
L 570.819767 332.389173 
L 572.351958 318.487032 
L 573.884148 302.839851 
L 575.416338 290.837863 
L 576.948528 286.126259 
L 578.480719 291.20626 
L 580.012909 298.496644 
L 581.545099 303.654203 
L 584.60948 312.573289 
L 586.14167 319.301383 
L 589.206051 340.804138 
L 590.738241 349.160934 
L 592.270431 353.290859 
L 593.802621 352.360172 
L 595.334812 352.282614 
L 596.867002 355.210402 
L 598.399192 362.520175 
L 599.931383 371.982162 
L 601.463573 376.170255 
L 602.995763 375.45285 
L 606.060144 369.403383 
L 607.592334 371.245368 
L 609.124524 379.059264 
L 612.188905 399.495606 
L 613.721095 404.149042 
L 615.253285 405.816524 
L 616.785476 405.93286 
L 618.317666 407.231944 
L 619.849856 411.090419 
L 621.382047 415.685687 
L 622.914237 418.710421 
L 624.446427 418.749199 
L 625.978617 416.558206 
L 627.510808 414.929504 
L 629.042998 415.356069 
L 630.575188 418.768589 
L 632.107379 424.294545 
L 633.639569 429.122485 
L 635.171759 432.089051 
L 636.703949 433.329967 
L 638.23614 434.37699 
L 639.76833 436.645541 
L 641.30052 440.251954 
L 642.83271 444.149207 
L 644.364901 446.204475 
L 645.897091 445.739131 
L 647.429281 443.742031 
L 648.961472 441.434703 
L 650.493662 442.190886 
L 652.025852 447.154552 
L 653.558042 453.649973 
L 655.090233 458.187074 
L 656.622423 458.88509 
L 658.154613 455.084783 
L 659.686804 449.907835 
L 661.218994 446.029971 
L 662.751184 446.398368 
L 664.283374 450.276232 
L 665.815565 453.223408 
L 667.347755 452.428446 
L 668.879945 448.143407 
L 670.412136 441.551038 
L 671.944326 435.986304 
L 673.476516 433.446303 
L 675.008706 433.485082 
L 676.540897 434.357601 
L 678.073087 433.795311 
L 679.605277 431.565539 
L 681.137468 428.947981 
L 682.669658 427.862179 
L 684.201848 428.870424 
L 685.734038 430.886913 
L 687.266229 433.717754 
L 688.798419 434.725998 
L 690.330609 433.25241 
L 691.8628 431.216532 
L 693.39499 429.781722 
L 694.92718 429.898058 
L 696.45937 430.634852 
L 697.991561 429.781722 
L 699.523751 426.950881 
L 701.055941 421.657597 
L 702.588131 414.774389 
L 704.120322 408.976983 
L 705.652512 406.844158 
L 707.184702 407.134997 
L 708.716893 407.968738 
L 710.249083 406.708432 
L 711.781273 402.190721 
L 713.313463 395.443238 
L 714.845654 389.393771 
L 716.377844 386.931327 
L 717.910034 386.834381 
L 719.442225 387.105831 
L 720.974415 386.388426 
L 722.506605 381.521707 
L 724.038795 375.588576 
L 725.570986 371.381094 
L 727.103176 371.613765 
L 730.167557 378.671477 
L 731.699747 380.552241 
L 733.231937 380.397127 
L 734.764127 378.59392 
L 736.296318 379.718501 
L 737.828508 383.73209 
L 739.360698 390.654076 
L 740.892889 394.842169 
L 742.425079 394.512551 
L 743.957269 390.26629 
L 745.489459 382.665677 
L 747.02165 376.383538 
L 748.55384 374.018041 
L 751.61822 380.59102 
L 753.150411 380.784913 
L 754.682601 377.372393 
L 757.746982 364.711168 
L 759.279172 363.063076 
L 760.811362 363.024297 
L 762.343552 364.633611 
L 763.875743 362.830404 
L 765.407933 358.622922 
L 766.940123 354.900173 
L 768.472314 355.404295 
L 770.004504 362.500785 
L 773.068884 378.690867 
L 774.601075 381.327814 
L 776.133265 381.870715 
L 777.665455 383.693311 
L 779.197646 382.568731 
L 780.729836 381.676822 
L 782.262026 381.541097 
L 783.794216 378.768424 
L 785.326407 376.674378 
L 786.858597 375.142621 
L 788.390787 376.209034 
L 789.922978 381.502318 
L 799.116119 410.450571 
L 800.648309 418.245077 
L 803.71269 431.371646 
L 805.24488 434.221876 
L 808.309261 435.055617 
L 809.841451 437.382335 
L 811.373641 441.647985 
L 812.905832 449.500659 
L 814.438022 455.996081 
L 815.970212 460.475014 
L 817.502403 461.560816 
L 820.566783 458.439135 
L 822.098973 458.30341 
L 823.631164 460.28112 
L 826.695544 467.68784 
L 828.227735 470.169673 
L 829.759925 471.216696 
L 831.292115 472.53517 
L 832.824305 475.055781 
L 835.888686 483.296242 
L 837.420876 486.49548 
L 838.953067 488.318076 
L 842.017447 490.567237 
L 843.549637 492.525558 
L 846.614018 497.101437 
L 848.146208 498.536247 
L 852.742779 500.921133 
L 854.274969 502.200828 
L 855.80716 503.693805 
L 857.33935 504.9735 
L 858.87154 505.787852 
L 860.40373 506.11747 
L 861.935921 506.233806 
L 865.000301 506.9706 
L 866.532492 507.591058 
L 868.064682 507.940066 
L 869.596872 507.784952 
L 871.129062 506.931822 
L 872.661253 505.303119 
L 874.193443 503.131515 
L 875.725633 500.4364 
L 877.257824 496.597315 
L 878.790014 490.257007 
L 880.322204 479.495935 
L 881.854394 463.247686 
L 883.386585 438.972259 
L 886.450965 385.14751 
L 887.983156 365.661244 
L 889.515346 352.205057 
L 891.047536 343.693146 
L 894.111917 328.22047 
L 895.644107 319.650391 
L 897.176297 315.345962 
L 898.708488 319.572834 
L 900.240678 332.544288 
L 903.305058 367.018497 
L 904.837249 382.413616 
L 906.369439 395.036063 
L 907.901629 406.2237 
L 909.433819 416.034695 
L 910.96601 426.601874 
L 912.4982 434.338212 
L 914.03039 440.562183 
L 917.094771 448.957758 
L 918.626961 454.367378 
L 920.159151 461.076083 
L 921.691342 466.466313 
L 923.223532 469.704329 
L 924.755722 469.355322 
L 926.287913 467.68784 
L 927.820103 466.291809 
L 929.352293 466.912268 
L 930.884483 469.316543 
L 932.416674 472.651506 
L 933.948864 475.017003 
L 935.481054 475.288453 
L 937.013245 474.415934 
L 938.545435 473.349521 
L 940.077625 472.709674 
L 941.609815 472.903567 
L 946.206386 472.573949 
L 947.738577 471.934101 
L 949.270767 471.68204 
L 952.335147 471.992269 
L 953.867338 471.778987 
L 955.399528 470.906467 
L 956.931718 469.432879 
L 958.463909 468.579749 
L 959.996099 468.424634 
L 961.528289 469.219596 
L 963.060479 470.751353 
L 964.59267 471.992269 
L 966.12486 472.031048 
L 967.65705 471.3912 
L 969.18924 469.762497 
L 970.721431 468.715474 
L 972.253621 468.870589 
L 973.785811 469.781887 
L 975.318002 470.82891 
L 976.850192 471.546315 
L 978.382382 471.11975 
L 979.914572 471.042192 
L 981.446763 471.274864 
L 982.978953 472.729063 
L 984.511143 475.133339 
L 986.043334 477.246774 
L 987.575524 478.371355 
L 989.107714 478.817309 
L 990.639904 478.468302 
L 992.172095 478.739752 
L 993.704285 480.077615 
L 996.768666 484.517769 
L 998.300856 485.739296 
L 999.833046 486.146472 
L 1002.897427 485.836243 
L 1004.429617 486.262808 
L 1005.961807 487.077159 
L 1007.493998 487.736396 
L 1009.026188 487.794564 
L 1013.622759 486.379144 
L 1015.154949 486.282197 
L 1016.687139 486.340365 
L 1018.219329 486.068915 
L 1019.75152 484.168761 
L 1021.28371 480.988913 
L 1024.348091 473.213796 
L 1025.880281 470.673795 
L 1027.412471 469.064482 
L 1028.944661 466.892878 
L 1030.476852 464.314099 
L 1032.009042 460.242342 
L 1033.541232 455.45318 
L 1035.073423 451.594706 
L 1036.605613 449.19043 
L 1039.669993 447.096384 
L 1041.202184 443.858367 
L 1042.734374 437.828289 
L 1044.266564 430.11134 
L 1045.798755 421.269811 
L 1047.330945 414.212099 
L 1048.863135 409.63622 
L 1050.395325 405.622631 
L 1051.927516 400.949805 
L 1053.459706 395.152398 
L 1056.524087 379.563386 
L 1058.056277 372.815903 
L 1059.588467 368.841093 
L 1061.120657 365.77758 
L 1062.652848 360.755747 
L 1064.185038 352.185668 
L 1065.717228 339.87345 
L 1068.781609 312.84474 
L 1070.313799 302.994966 
L 1071.845989 296.228094 
L 1073.37818 286.455877 
L 1076.44256 258.612815 
L 1077.97475 247.754797 
L 1079.506941 235.4038 
L 1081.039131 221.617995 
L 1082.571321 203.372646 
L 1084.103512 177.06134 
L 1085.635702 148.248812 
L 1087.167892 123.197812 
L 1088.700082 104.060554 
L 1090.232273 97.759026 
L 1090.232273 97.759026 
" clip-path="url(#p9a84fa797c)" style="fill: none; stroke: #000000; stroke-width: 1.5; stroke-linecap: square"/>
   </g>
   <g id="patch_3">
    <path d="M 87.95 541.28 
L 87.95 37.72 
" style="fill: none; stroke: #555555; stroke-linejoin: miter; stroke-linecap: square"/>
   </g>
   <g id="patch_4">
    <path d="M 87.95 541.28 
L 1137.96 541.28 
" style="fill: none; stroke: #555555; stroke-linejoin: miter; stroke-linecap: square"/>
   </g>
   <g id="text_29">
    <!-- Positive COVID-19 tests - last updated on 20 November 2021 -->
    <g style="fill: #555555" transform="translate(337.602813 27.72)scale(0.18 -0.18)">
     <defs>
      <path id="DejaVuSans-50" d="M 1259 4147 
L 1259 2394 
L 2053 2394 
Q 2494 2394 2734 2622 
Q 2975 2850 2975 3272 
Q 2975 3691 2734 3919 
Q 2494 4147 2053 4147 
L 1259 4147 
z
M 628 4666 
L 2053 4666 
Q 2838 4666 3239 4311 
Q 3641 3956 3641 3272 
Q 3641 2581 3239 2228 
Q 2838 1875 2053 1875 
L 1259 1875 
L 1259 0 
L 628 0 
L 628 4666 
z
" transform="scale(0.015625)"/>
      <path id="DejaVuSans-6f" d="M 1959 3097 
Q 1497 3097 1228 2736 
Q 959 2375 959 1747 
Q 959 1119 1226 758 
Q 1494 397 1959 397 
Q 2419 397 2687 759 
Q 2956 1122 2956 1747 
Q 2956 2369 2687 2733 
Q 2419 3097 1959 3097 
z
M 1959 3584 
Q 2709 3584 3137 3096 
Q 3566 2609 3566 1747 
Q 3566 888 3137 398 
Q 2709 -91 1959 -91 
Q 1206 -91 779 398 
Q 353 888 353 1747 
Q 353 2609 779 3096 
Q 1206 3584 1959 3584 
z
" transform="scale(0.015625)"/>
      <path id="DejaVuSans-69" d="M 603 3500 
L 1178 3500 
L 1178 0 
L 603 0 
L 603 3500 
z
M 603 4863 
L 1178 4863 
L 1178 4134 
L 603 4134 
L 603 4863 
z
" transform="scale(0.015625)"/>
      <path id="DejaVuSans-74" d="M 1172 4494 
L 1172 3500 
L 2356 3500 
L 2356 3053 
L 1172 3053 
L 1172 1153 
Q 1172 725 1289 603 
Q 1406 481 1766 481 
L 2356 481 
L 2356 0 
L 1766 0 
Q 1100 0 847 248 
Q 594 497 594 1153 
L 594 3053 
L 172 3053 
L 172 3500 
L 594 3500 
L 594 4494 
L 1172 4494 
z
" transform="scale(0.015625)"/>
      <path id="DejaVuSans-76" d="M 191 3500 
L 800 3500 
L 1894 563 
L 2988 3500 
L 3597 3500 
L 2284 0 
L 1503 0 
L 191 3500 
z
" transform="scale(0.015625)"/>
      <path id="DejaVuSans-4f" d="M 2522 4238 
Q 1834 4238 1429 3725 
Q 1025 3213 1025 2328 
Q 1025 1447 1429 934 
Q 1834 422 2522 422 
Q 3209 422 3611 934 
Q 4013 1447 4013 2328 
Q 4013 3213 3611 3725 
Q 3209 4238 2522 4238 
z
M 2522 4750 
Q 3503 4750 4090 4092 
Q 4678 3434 4678 2328 
Q 4678 1225 4090 567 
Q 3503 -91 2522 -91 
Q 1538 -91 948 565 
Q 359 1222 359 2328 
Q 359 3434 948 4092 
Q 1538 4750 2522 4750 
z
" transform="scale(0.015625)"/>
      <path id="DejaVuSans-56" d="M 1831 0 
L 50 4666 
L 709 4666 
L 2188 738 
L 3669 4666 
L 4325 4666 
L 2547 0 
L 1831 0 
z
" transform="scale(0.015625)"/>
      <path id="DejaVuSans-49" d="M 628 4666 
L 1259 4666 
L 1259 0 
L 628 0 
L 628 4666 
z
" transform="scale(0.015625)"/>
      <path id="DejaVuSans-44" d="M 1259 4147 
L 1259 519 
L 2022 519 
Q 2988 519 3436 956 
Q 3884 1394 3884 2338 
Q 3884 3275 3436 3711 
Q 2988 4147 2022 4147 
L 1259 4147 
z
M 628 4666 
L 1925 4666 
Q 3281 4666 3915 4102 
Q 4550 3538 4550 2338 
Q 4550 1131 3912 565 
Q 3275 0 1925 0 
L 628 0 
L 628 4666 
z
" transform="scale(0.015625)"/>
      <path id="DejaVuSans-2d" d="M 313 2009 
L 1997 2009 
L 1997 1497 
L 313 1497 
L 313 2009 
z
" transform="scale(0.015625)"/>
      <path id="DejaVuSans-31" d="M 794 531 
L 1825 531 
L 1825 4091 
L 703 3866 
L 703 4441 
L 1819 4666 
L 2450 4666 
L 2450 531 
L 3481 531 
L 3481 0 
L 794 0 
L 794 531 
z
" transform="scale(0.015625)"/>
      <path id="DejaVuSans-39" d="M 703 97 
L 703 672 
Q 941 559 1184 500 
Q 1428 441 1663 441 
Q 2288 441 2617 861 
Q 2947 1281 2994 2138 
Q 2813 1869 2534 1725 
Q 2256 1581 1919 1581 
Q 1219 1581 811 2004 
Q 403 2428 403 3163 
Q 403 3881 828 4315 
Q 1253 4750 1959 4750 
Q 2769 4750 3195 4129 
Q 3622 3509 3622 2328 
Q 3622 1225 3098 567 
Q 2575 -91 1691 -91 
Q 1453 -91 1209 -44 
Q 966 3 703 97 
z
M 1959 2075 
Q 2384 2075 2632 2365 
Q 2881 2656 2881 3163 
Q 2881 3666 2632 3958 
Q 2384 4250 1959 4250 
Q 1534 4250 1286 3958 
Q 1038 3666 1038 3163 
Q 1038 2656 1286 2365 
Q 1534 2075 1959 2075 
z
" transform="scale(0.015625)"/>
      <path id="DejaVuSans-6c" d="M 603 4863 
L 1178 4863 
L 1178 0 
L 603 0 
L 603 4863 
z
" transform="scale(0.015625)"/>
      <path id="DejaVuSans-75" d="M 544 1381 
L 544 3500 
L 1119 3500 
L 1119 1403 
Q 1119 906 1312 657 
Q 1506 409 1894 409 
Q 2359 409 2629 706 
Q 2900 1003 2900 1516 
L 2900 3500 
L 3475 3500 
L 3475 0 
L 2900 0 
L 2900 538 
Q 2691 219 2414 64 
Q 2138 -91 1772 -91 
Q 1169 -91 856 284 
Q 544 659 544 1381 
z
M 1991 3584 
L 1991 3584 
z
" transform="scale(0.015625)"/>
      <path id="DejaVuSans-70" d="M 1159 525 
L 1159 -1331 
L 581 -1331 
L 581 3500 
L 1159 3500 
L 1159 2969 
Q 1341 3281 1617 3432 
Q 1894 3584 2278 3584 
Q 2916 3584 3314 3078 
Q 3713 2572 3713 1747 
Q 3713 922 3314 415 
Q 2916 -91 2278 -91 
Q 1894 -91 1617 61 
Q 1341 213 1159 525 
z
M 3116 1747 
Q 3116 2381 2855 2742 
Q 2594 3103 2138 3103 
Q 1681 3103 1420 2742 
Q 1159 2381 1159 1747 
Q 1159 1113 1420 752 
Q 1681 391 2138 391 
Q 2594 391 2855 752 
Q 3116 1113 3116 1747 
z
" transform="scale(0.015625)"/>
      <path id="DejaVuSans-64" d="M 2906 2969 
L 2906 4863 
L 3481 4863 
L 3481 0 
L 2906 0 
L 2906 525 
Q 2725 213 2448 61 
Q 2172 -91 1784 -91 
Q 1150 -91 751 415 
Q 353 922 353 1747 
Q 353 2572 751 3078 
Q 1150 3584 1784 3584 
Q 2172 3584 2448 3432 
Q 2725 3281 2906 2969 
z
M 947 1747 
Q 947 1113 1208 752 
Q 1469 391 1925 391 
Q 2381 391 2643 752 
Q 2906 1113 2906 1747 
Q 2906 2381 2643 2742 
Q 2381 3103 1925 3103 
Q 1469 3103 1208 2742 
Q 947 2381 947 1747 
z
" transform="scale(0.015625)"/>
      <path id="DejaVuSans-6e" d="M 3513 2113 
L 3513 0 
L 2938 0 
L 2938 2094 
Q 2938 2591 2744 2837 
Q 2550 3084 2163 3084 
Q 1697 3084 1428 2787 
Q 1159 2491 1159 1978 
L 1159 0 
L 581 0 
L 581 3500 
L 1159 3500 
L 1159 2956 
Q 1366 3272 1645 3428 
Q 1925 3584 2291 3584 
Q 2894 3584 3203 3211 
Q 3513 2838 3513 2113 
z
" transform="scale(0.015625)"/>
      <path id="DejaVuSans-32" d="M 1228 531 
L 3431 531 
L 3431 0 
L 469 0 
L 469 531 
Q 828 903 1448 1529 
Q 2069 2156 2228 2338 
Q 2531 2678 2651 2914 
Q 2772 3150 2772 3378 
Q 2772 3750 2511 3984 
Q 2250 4219 1831 4219 
Q 1534 4219 1204 4116 
Q 875 4013 500 3803 
L 500 4441 
Q 881 4594 1212 4672 
Q 1544 4750 1819 4750 
Q 2544 4750 2975 4387 
Q 3406 4025 3406 3419 
Q 3406 3131 3298 2873 
Q 3191 2616 2906 2266 
Q 2828 2175 2409 1742 
Q 1991 1309 1228 531 
z
" transform="scale(0.015625)"/>
      <path id="DejaVuSans-30" d="M 2034 4250 
Q 1547 4250 1301 3770 
Q 1056 3291 1056 2328 
Q 1056 1369 1301 889 
Q 1547 409 2034 409 
Q 2525 409 2770 889 
Q 3016 1369 3016 2328 
Q 3016 3291 2770 3770 
Q 2525 4250 2034 4250 
z
M 2034 4750 
Q 2819 4750 3233 4129 
Q 3647 3509 3647 2328 
Q 3647 1150 3233 529 
Q 2819 -91 2034 -91 
Q 1250 -91 836 529 
Q 422 1150 422 2328 
Q 422 3509 836 4129 
Q 1250 4750 2034 4750 
z
" transform="scale(0.015625)"/>
      <path id="DejaVuSans-6d" d="M 3328 2828 
Q 3544 3216 3844 3400 
Q 4144 3584 4550 3584 
Q 5097 3584 5394 3201 
Q 5691 2819 5691 2113 
L 5691 0 
L 5113 0 
L 5113 2094 
Q 5113 2597 4934 2840 
Q 4756 3084 4391 3084 
Q 3944 3084 3684 2787 
Q 3425 2491 3425 1978 
L 3425 0 
L 2847 0 
L 2847 2094 
Q 2847 2600 2669 2842 
Q 2491 3084 2119 3084 
Q 1678 3084 1418 2786 
Q 1159 2488 1159 1978 
L 1159 0 
L 581 0 
L 581 3500 
L 1159 3500 
L 1159 2956 
Q 1356 3278 1631 3431 
Q 1906 3584 2284 3584 
Q 2666 3584 2933 3390 
Q 3200 3197 3328 2828 
z
" transform="scale(0.015625)"/>
      <path id="DejaVuSans-62" d="M 3116 1747 
Q 3116 2381 2855 2742 
Q 2594 3103 2138 3103 
Q 1681 3103 1420 2742 
Q 1159 2381 1159 1747 
Q 1159 1113 1420 752 
Q 1681 391 2138 391 
Q 2594 391 2855 752 
Q 3116 1113 3116 1747 
z
M 1159 2969 
Q 1341 3281 1617 3432 
Q 1894 3584 2278 3584 
Q 2916 3584 3314 3078 
Q 3713 2572 3713 1747 
Q 3713 922 3314 415 
Q 2916 -91 2278 -91 
Q 1894 -91 1617 61 
Q 1341 213 1159 525 
L 1159 0 
L 581 0 
L 581 4863 
L 1159 4863 
L 1159 2969 
z
" transform="scale(0.015625)"/>
      <path id="DejaVuSans-72" d="M 2631 2963 
Q 2534 3019 2420 3045 
Q 2306 3072 2169 3072 
Q 1681 3072 1420 2755 
Q 1159 2438 1159 1844 
L 1159 0 
L 581 0 
L 581 3500 
L 1159 3500 
L 1159 2956 
Q 1341 3275 1631 3429 
Q 1922 3584 2338 3584 
Q 2397 3584 2469 3576 
Q 2541 3569 2628 3553 
L 2631 2963 
z
" transform="scale(0.015625)"/>
     </defs>
     <use xlink:href="#DejaVuSans-50"/>
     <use xlink:href="#DejaVuSans-6f" x="56.677734"/>
     <use xlink:href="#DejaVuSans-73" x="117.859375"/>
     <use xlink:href="#DejaVuSans-69" x="169.958984"/>
     <use xlink:href="#DejaVuSans-74" x="197.742188"/>
     <use xlink:href="#DejaVuSans-69" x="236.951172"/>
     <use xlink:href="#DejaVuSans-76" x="264.734375"/>
     <use xlink:href="#DejaVuSans-65" x="323.914062"/>
     <use xlink:href="#DejaVuSans-20" x="385.4375"/>
     <use xlink:href="#DejaVuSans-43" x="417.224609"/>
     <use xlink:href="#DejaVuSans-4f" x="487.048828"/>
     <use xlink:href="#DejaVuSans-56" x="564.009766"/>
     <use xlink:href="#DejaVuSans-49" x="632.417969"/>
     <use xlink:href="#DejaVuSans-44" x="661.910156"/>
     <use xlink:href="#DejaVuSans-2d" x="738.912109"/>
     <use xlink:href="#DejaVuSans-31" x="774.996094"/>
     <use xlink:href="#DejaVuSans-39" x="838.619141"/>
     <use xlink:href="#DejaVuSans-20" x="902.242188"/>
     <use xlink:href="#DejaVuSans-74" x="934.029297"/>
     <use xlink:href="#DejaVuSans-65" x="973.238281"/>
     <use xlink:href="#DejaVuSans-73" x="1034.761719"/>
     <use xlink:href="#DejaVuSans-74" x="1086.861328"/>
     <use xlink:href="#DejaVuSans-73" x="1126.070312"/>
     <use xlink:href="#DejaVuSans-20" x="1178.169922"/>
     <use xlink:href="#DejaVuSans-2d" x="1209.957031"/>
     <use xlink:href="#DejaVuSans-20" x="1246.041016"/>
     <use xlink:href="#DejaVuSans-6c" x="1277.828125"/>
     <use xlink:href="#DejaVuSans-61" x="1305.611328"/>
     <use xlink:href="#DejaVuSans-73" x="1366.890625"/>
     <use xlink:href="#DejaVuSans-74" x="1418.990234"/>
     <use xlink:href="#DejaVuSans-20" x="1458.199219"/>
     <use xlink:href="#DejaVuSans-75" x="1489.986328"/>
     <use xlink:href="#DejaVuSans-70" x="1553.365234"/>
     <use xlink:href="#DejaVuSans-64" x="1616.841797"/>
     <use xlink:href="#DejaVuSans-61" x="1680.318359"/>
     <use xlink:href="#DejaVuSans-74" x="1741.597656"/>
     <use xlink:href="#DejaVuSans-65" x="1780.806641"/>
     <use xlink:href="#DejaVuSans-64" x="1842.330078"/>
     <use xlink:href="#DejaVuSans-20" x="1905.806641"/>
     <use xlink:href="#DejaVuSans-6f" x="1937.59375"/>
     <use xlink:href="#DejaVuSans-6e" x="1998.775391"/>
     <use xlink:href="#DejaVuSans-20" x="2062.154297"/>
     <use xlink:href="#DejaVuSans-32" x="2093.941406"/>
     <use xlink:href="#DejaVuSans-30" x="2157.564453"/>
     <use xlink:href="#DejaVuSans-20" x="2221.1875"/>
     <use xlink:href="#DejaVuSans-4e" x="2252.974609"/>
     <use xlink:href="#DejaVuSans-6f" x="2327.779297"/>
     <use xlink:href="#DejaVuSans-76" x="2388.960938"/>
     <use xlink:href="#DejaVuSans-65" x="2448.140625"/>
     <use xlink:href="#DejaVuSans-6d" x="2509.664062"/>
     <use xlink:href="#DejaVuSans-62" x="2607.076172"/>
     <use xlink:href="#DejaVuSans-65" x="2670.552734"/>
     <use xlink:href="#DejaVuSans-72" x="2732.076172"/>
     <use xlink:href="#DejaVuSans-20" x="2773.189453"/>
     <use xlink:href="#DejaVuSans-32" x="2804.976562"/>
     <use xlink:href="#DejaVuSans-30" x="2868.599609"/>
     <use xlink:href="#DejaVuSans-32" x="2932.222656"/>
     <use xlink:href="#DejaVuSans-31" x="2995.845703"/>
    </g>
   </g>
   <g id="legend_1">
    <g id="line2d_30">
     <path d="M 99.65 54.747969 
L 112.65 54.747969 
L 125.65 54.747969 
" style="fill: none; stroke-dasharray: 1.5,2.475; stroke-dashoffset: 0; stroke: #000000; stroke-opacity: 0.5; stroke-width: 1.5"/>
    </g>
    <g id="text_30">
     <!-- Actual -->
     <g style="fill: #555555" transform="translate(136.05 59.297969)scale(0.13 -0.13)">
      <use xlink:href="#DejaVuSans-Bold-41"/>
      <use xlink:href="#DejaVuSans-Bold-63" x="77.392578"/>
      <use xlink:href="#DejaVuSans-Bold-74" x="136.669922"/>
      <use xlink:href="#DejaVuSans-Bold-75" x="184.472656"/>
      <use xlink:href="#DejaVuSans-Bold-61" x="255.664062"/>
      <use xlink:href="#DejaVuSans-Bold-6c" x="323.144531"/>
     </g>
    </g>
    <g id="line2d_31">
     <path d="M 99.65 73.829531 
L 112.65 73.829531 
L 125.65 73.829531 
" style="fill: none; stroke: #000000; stroke-width: 1.5; stroke-linecap: square"/>
    </g>
    <g id="text_31">
     <!-- Smoothed -->
     <g style="fill: #555555" transform="translate(136.05 78.379531)scale(0.13 -0.13)">
      <defs>
       <path id="DejaVuSans-Bold-6d" d="M 3781 2919 
Q 3994 3244 4286 3414 
Q 4578 3584 4928 3584 
Q 5531 3584 5847 3212 
Q 6163 2841 6163 2131 
L 6163 0 
L 5038 0 
L 5038 1825 
Q 5041 1866 5042 1909 
Q 5044 1953 5044 2034 
Q 5044 2406 4934 2573 
Q 4825 2741 4581 2741 
Q 4263 2741 4089 2478 
Q 3916 2216 3909 1719 
L 3909 0 
L 2784 0 
L 2784 1825 
Q 2784 2406 2684 2573 
Q 2584 2741 2328 2741 
Q 2006 2741 1831 2477 
Q 1656 2213 1656 1722 
L 1656 0 
L 531 0 
L 531 3500 
L 1656 3500 
L 1656 2988 
Q 1863 3284 2130 3434 
Q 2397 3584 2719 3584 
Q 3081 3584 3359 3409 
Q 3638 3234 3781 2919 
z
" transform="scale(0.015625)"/>
       <path id="DejaVuSans-Bold-68" d="M 4056 2131 
L 4056 0 
L 2931 0 
L 2931 347 
L 2931 1625 
Q 2931 2084 2911 2256 
Q 2891 2428 2841 2509 
Q 2775 2619 2662 2680 
Q 2550 2741 2406 2741 
Q 2056 2741 1856 2470 
Q 1656 2200 1656 1722 
L 1656 0 
L 538 0 
L 538 4863 
L 1656 4863 
L 1656 2988 
Q 1909 3294 2193 3439 
Q 2478 3584 2822 3584 
Q 3428 3584 3742 3212 
Q 4056 2841 4056 2131 
z
" transform="scale(0.015625)"/>
       <path id="DejaVuSans-Bold-64" d="M 2919 2988 
L 2919 4863 
L 4044 4863 
L 4044 0 
L 2919 0 
L 2919 506 
Q 2688 197 2409 53 
Q 2131 -91 1766 -91 
Q 1119 -91 703 423 
Q 288 938 288 1747 
Q 288 2556 703 3070 
Q 1119 3584 1766 3584 
Q 2128 3584 2408 3439 
Q 2688 3294 2919 2988 
z
M 2181 722 
Q 2541 722 2730 984 
Q 2919 1247 2919 1747 
Q 2919 2247 2730 2509 
Q 2541 2772 2181 2772 
Q 1825 2772 1636 2509 
Q 1447 2247 1447 1747 
Q 1447 1247 1636 984 
Q 1825 722 2181 722 
z
" transform="scale(0.015625)"/>
      </defs>
      <use xlink:href="#DejaVuSans-Bold-53"/>
      <use xlink:href="#DejaVuSans-Bold-6d" x="72.021484"/>
      <use xlink:href="#DejaVuSans-Bold-6f" x="176.220703"/>
      <use xlink:href="#DejaVuSans-Bold-6f" x="244.921875"/>
      <use xlink:href="#DejaVuSans-Bold-74" x="313.623047"/>
      <use xlink:href="#DejaVuSans-Bold-68" x="361.425781"/>
      <use xlink:href="#DejaVuSans-Bold-65" x="432.617188"/>
      <use xlink:href="#DejaVuSans-Bold-64" x="500.439453"/>
     </g>
    </g>
   </g>
  </g>
 </g>
 <defs>
  <clipPath id="p9a84fa797c">
   <rect x="87.95" y="37.72" width="1050.01" height="503.56"/>
  </clipPath>
 </defs>
</svg>
