<?xml version="1.0" encoding="utf-8" standalone="no"?>
<!DOCTYPE svg PUBLIC "-//W3C//DTD SVG 1.1//EN"
  "http://www.w3.org/Graphics/SVG/1.1/DTD/svg11.dtd">
<svg height="576pt" version="1.1" viewBox="0 0 1152 576" width="1152pt" xmlns="http://www.w3.org/2000/svg" xmlns:xlink="http://www.w3.org/1999/xlink">
 <metadata>
  <rdf:RDF xmlns:cc="http://creativecommons.org/ns#" xmlns:dc="http://purl.org/dc/elements/1.1/" xmlns:rdf="http://www.w3.org/1999/02/22-rdf-syntax-ns#">
   <cc:Work>
    <dc:type rdf:resource="http://purl.org/dc/dcmitype/StillImage"/>
    <dc:date>2021-08-14T14:13:02.332970</dc:date>
    <dc:format>image/svg+xml</dc:format>
    <dc:creator>
     <cc:Agent>
      <dc:title>Matplotlib v3.4.3, https://matplotlib.org/</dc:title>
     </cc:Agent>
    </dc:creator>
   </cc:Work>
  </rdf:RDF>
 </metadata>
 <defs>
  <style type="text/css">*{stroke-linecap:butt;stroke-linejoin:round;}</style>
 </defs>
 <g id="figure_1">
  <g id="patch_1">
   <path d="M 0 576 
L 1152 576 
L 1152 0 
L 0 0 
z
" style="fill:#ffffff;"/>
  </g>
  <g id="axes_1">
   <g id="patch_2">
    <path d="M 87.95 541.28 
L 1135.91719 541.28 
L 1135.91719 37.72 
L 87.95 37.72 
z
" style="fill:#ffffff;"/>
   </g>
   <g id="matplotlib.axis_1">
    <g id="xtick_1">
     <g id="line2d_1">
      <defs>
       <path d="M 0 0 
L 0 3.5 
" id="mee6614a2a7" style="stroke:#555555;stroke-width:0.8;"/>
      </defs>
      <g>
       <use style="fill:#555555;stroke:#555555;stroke-width:0.8;" x="126.528813" xlink:href="#mee6614a2a7" y="541.28"/>
      </g>
     </g>
     <g id="text_1">
      <!-- Mar -->
      <g style="fill:#555555;" transform="translate(111.386938 558.917812)scale(0.14 -0.14)">
       <defs>
        <path d="M 588 4666 
L 2119 4666 
L 3181 2169 
L 4250 4666 
L 5778 4666 
L 5778 0 
L 4641 0 
L 4641 3413 
L 3566 897 
L 2803 897 
L 1728 3413 
L 1728 0 
L 588 0 
L 588 4666 
z
" id="DejaVuSans-Bold-4d" transform="scale(0.015625)"/>
        <path d="M 2106 1575 
Q 1756 1575 1579 1456 
Q 1403 1338 1403 1106 
Q 1403 894 1545 773 
Q 1688 653 1941 653 
Q 2256 653 2472 879 
Q 2688 1106 2688 1447 
L 2688 1575 
L 2106 1575 
z
M 3816 1997 
L 3816 0 
L 2688 0 
L 2688 519 
Q 2463 200 2181 54 
Q 1900 -91 1497 -91 
Q 953 -91 614 226 
Q 275 544 275 1050 
Q 275 1666 698 1953 
Q 1122 2241 2028 2241 
L 2688 2241 
L 2688 2328 
Q 2688 2594 2478 2717 
Q 2269 2841 1825 2841 
Q 1466 2841 1156 2769 
Q 847 2697 581 2553 
L 581 3406 
Q 941 3494 1303 3539 
Q 1666 3584 2028 3584 
Q 2975 3584 3395 3211 
Q 3816 2838 3816 1997 
z
" id="DejaVuSans-Bold-61" transform="scale(0.015625)"/>
        <path d="M 3138 2547 
Q 2991 2616 2845 2648 
Q 2700 2681 2553 2681 
Q 2122 2681 1889 2404 
Q 1656 2128 1656 1613 
L 1656 0 
L 538 0 
L 538 3500 
L 1656 3500 
L 1656 2925 
Q 1872 3269 2151 3426 
Q 2431 3584 2822 3584 
Q 2878 3584 2943 3579 
Q 3009 3575 3134 3559 
L 3138 2547 
z
" id="DejaVuSans-Bold-72" transform="scale(0.015625)"/>
       </defs>
       <use xlink:href="#DejaVuSans-Bold-4d"/>
       <use x="99.511719" xlink:href="#DejaVuSans-Bold-61"/>
       <use x="166.992188" xlink:href="#DejaVuSans-Bold-72"/>
      </g>
     </g>
    </g>
    <g id="xtick_2">
     <g id="line2d_2">
      <g>
       <use style="fill:#555555;stroke:#555555;stroke-width:0.8;" x="182.676381" xlink:href="#mee6614a2a7" y="541.28"/>
      </g>
     </g>
     <g id="text_2">
      <!-- Apr -->
      <g style="fill:#555555;" transform="translate(168.796693 558.917812)scale(0.14 -0.14)">
       <defs>
        <path d="M 3419 850 
L 1538 850 
L 1241 0 
L 31 0 
L 1759 4666 
L 3194 4666 
L 4922 0 
L 3713 0 
L 3419 850 
z
M 1838 1716 
L 3116 1716 
L 2478 3572 
L 1838 1716 
z
" id="DejaVuSans-Bold-41" transform="scale(0.015625)"/>
        <path d="M 1656 506 
L 1656 -1331 
L 538 -1331 
L 538 3500 
L 1656 3500 
L 1656 2988 
Q 1888 3294 2169 3439 
Q 2450 3584 2816 3584 
Q 3463 3584 3878 3070 
Q 4294 2556 4294 1747 
Q 4294 938 3878 423 
Q 3463 -91 2816 -91 
Q 2450 -91 2169 54 
Q 1888 200 1656 506 
z
M 2400 2772 
Q 2041 2772 1848 2508 
Q 1656 2244 1656 1747 
Q 1656 1250 1848 986 
Q 2041 722 2400 722 
Q 2759 722 2948 984 
Q 3138 1247 3138 1747 
Q 3138 2247 2948 2509 
Q 2759 2772 2400 2772 
z
" id="DejaVuSans-Bold-70" transform="scale(0.015625)"/>
       </defs>
       <use xlink:href="#DejaVuSans-Bold-41"/>
       <use x="77.392578" xlink:href="#DejaVuSans-Bold-70"/>
       <use x="148.974609" xlink:href="#DejaVuSans-Bold-72"/>
      </g>
     </g>
    </g>
    <g id="xtick_3">
     <g id="line2d_3">
      <g>
       <use style="fill:#555555;stroke:#555555;stroke-width:0.8;" x="237.012737" xlink:href="#mee6614a2a7" y="541.28"/>
      </g>
     </g>
     <g id="text_3">
      <!-- May -->
      <g style="fill:#555555;" transform="translate(220.978362 558.808437)scale(0.14 -0.14)">
       <defs>
        <path d="M 78 3500 
L 1197 3500 
L 2138 1125 
L 2938 3500 
L 4056 3500 
L 2584 -331 
Q 2363 -916 2067 -1148 
Q 1772 -1381 1288 -1381 
L 641 -1381 
L 641 -647 
L 991 -647 
Q 1275 -647 1404 -556 
Q 1534 -466 1606 -231 
L 1638 -134 
L 78 3500 
z
" id="DejaVuSans-Bold-79" transform="scale(0.015625)"/>
       </defs>
       <use xlink:href="#DejaVuSans-Bold-4d"/>
       <use x="99.511719" xlink:href="#DejaVuSans-Bold-61"/>
       <use x="163.867188" xlink:href="#DejaVuSans-Bold-79"/>
      </g>
     </g>
    </g>
    <g id="xtick_4">
     <g id="line2d_4">
      <g>
       <use style="fill:#555555;stroke:#555555;stroke-width:0.8;" x="293.160305" xlink:href="#mee6614a2a7" y="541.28"/>
      </g>
     </g>
     <g id="text_4">
      <!-- Jun -->
      <g style="fill:#555555;" transform="translate(280.589836 558.917812)scale(0.14 -0.14)">
       <defs>
        <path d="M 588 4666 
L 1791 4666 
L 1791 453 
Q 1791 -419 1317 -850 
Q 844 -1281 -116 -1281 
L -359 -1281 
L -359 -372 
L -172 -372 
Q 203 -372 395 -162 
Q 588 47 588 453 
L 588 4666 
z
" id="DejaVuSans-Bold-4a" transform="scale(0.015625)"/>
        <path d="M 500 1363 
L 500 3500 
L 1625 3500 
L 1625 3150 
Q 1625 2866 1622 2436 
Q 1619 2006 1619 1863 
Q 1619 1441 1641 1255 
Q 1663 1069 1716 984 
Q 1784 875 1895 815 
Q 2006 756 2150 756 
Q 2500 756 2700 1025 
Q 2900 1294 2900 1772 
L 2900 3500 
L 4019 3500 
L 4019 0 
L 2900 0 
L 2900 506 
Q 2647 200 2364 54 
Q 2081 -91 1741 -91 
Q 1134 -91 817 281 
Q 500 653 500 1363 
z
" id="DejaVuSans-Bold-75" transform="scale(0.015625)"/>
        <path d="M 4056 2131 
L 4056 0 
L 2931 0 
L 2931 347 
L 2931 1631 
Q 2931 2084 2911 2256 
Q 2891 2428 2841 2509 
Q 2775 2619 2662 2680 
Q 2550 2741 2406 2741 
Q 2056 2741 1856 2470 
Q 1656 2200 1656 1722 
L 1656 0 
L 538 0 
L 538 3500 
L 1656 3500 
L 1656 2988 
Q 1909 3294 2193 3439 
Q 2478 3584 2822 3584 
Q 3428 3584 3742 3212 
Q 4056 2841 4056 2131 
z
" id="DejaVuSans-Bold-6e" transform="scale(0.015625)"/>
       </defs>
       <use xlink:href="#DejaVuSans-Bold-4a"/>
       <use x="37.207031" xlink:href="#DejaVuSans-Bold-75"/>
       <use x="108.398438" xlink:href="#DejaVuSans-Bold-6e"/>
      </g>
     </g>
    </g>
    <g id="xtick_5">
     <g id="line2d_5">
      <g>
       <use style="fill:#555555;stroke:#555555;stroke-width:0.8;" x="347.496661" xlink:href="#mee6614a2a7" y="541.28"/>
      </g>
     </g>
     <g id="text_5">
      <!-- Jul -->
      <g style="fill:#555555;" transform="translate(337.50963 558.917812)scale(0.14 -0.14)">
       <defs>
        <path d="M 538 4863 
L 1656 4863 
L 1656 0 
L 538 0 
L 538 4863 
z
" id="DejaVuSans-Bold-6c" transform="scale(0.015625)"/>
       </defs>
       <use xlink:href="#DejaVuSans-Bold-4a"/>
       <use x="37.207031" xlink:href="#DejaVuSans-Bold-75"/>
       <use x="108.398438" xlink:href="#DejaVuSans-Bold-6c"/>
      </g>
     </g>
    </g>
    <g id="xtick_6">
     <g id="line2d_6">
      <g>
       <use style="fill:#555555;stroke:#555555;stroke-width:0.8;" x="403.644229" xlink:href="#mee6614a2a7" y="541.28"/>
      </g>
     </g>
     <g id="text_6">
      <!-- Aug -->
      <g style="fill:#555555;" transform="translate(388.233292 558.808437)scale(0.14 -0.14)">
       <defs>
        <path d="M 2919 594 
Q 2688 288 2409 144 
Q 2131 0 1766 0 
Q 1125 0 706 504 
Q 288 1009 288 1791 
Q 288 2575 706 3076 
Q 1125 3578 1766 3578 
Q 2131 3578 2409 3434 
Q 2688 3291 2919 2981 
L 2919 3500 
L 4044 3500 
L 4044 353 
Q 4044 -491 3511 -936 
Q 2978 -1381 1966 -1381 
Q 1638 -1381 1331 -1331 
Q 1025 -1281 716 -1178 
L 716 -306 
Q 1009 -475 1290 -558 
Q 1572 -641 1856 -641 
Q 2406 -641 2662 -400 
Q 2919 -159 2919 353 
L 2919 594 
z
M 2181 2772 
Q 1834 2772 1640 2515 
Q 1447 2259 1447 1791 
Q 1447 1309 1634 1061 
Q 1822 813 2181 813 
Q 2531 813 2725 1069 
Q 2919 1325 2919 1791 
Q 2919 2259 2725 2515 
Q 2531 2772 2181 2772 
z
" id="DejaVuSans-Bold-67" transform="scale(0.015625)"/>
       </defs>
       <use xlink:href="#DejaVuSans-Bold-41"/>
       <use x="77.392578" xlink:href="#DejaVuSans-Bold-75"/>
       <use x="148.583984" xlink:href="#DejaVuSans-Bold-67"/>
      </g>
     </g>
    </g>
    <g id="xtick_7">
     <g id="line2d_7">
      <g>
       <use style="fill:#555555;stroke:#555555;stroke-width:0.8;" x="459.791798" xlink:href="#mee6614a2a7" y="541.28"/>
      </g>
     </g>
     <g id="text_7">
      <!-- Sep -->
      <g style="fill:#555555;" transform="translate(444.992266 558.917812)scale(0.14 -0.14)">
       <defs>
        <path d="M 3834 4519 
L 3834 3531 
Q 3450 3703 3084 3790 
Q 2719 3878 2394 3878 
Q 1963 3878 1756 3759 
Q 1550 3641 1550 3391 
Q 1550 3203 1689 3098 
Q 1828 2994 2194 2919 
L 2706 2816 
Q 3484 2659 3812 2340 
Q 4141 2022 4141 1434 
Q 4141 663 3683 286 
Q 3225 -91 2284 -91 
Q 1841 -91 1394 -6 
Q 947 78 500 244 
L 500 1259 
Q 947 1022 1364 901 
Q 1781 781 2169 781 
Q 2563 781 2772 912 
Q 2981 1044 2981 1288 
Q 2981 1506 2839 1625 
Q 2697 1744 2272 1838 
L 1806 1941 
Q 1106 2091 782 2419 
Q 459 2747 459 3303 
Q 459 4000 909 4375 
Q 1359 4750 2203 4750 
Q 2588 4750 2994 4692 
Q 3400 4634 3834 4519 
z
" id="DejaVuSans-Bold-53" transform="scale(0.015625)"/>
        <path d="M 4031 1759 
L 4031 1441 
L 1416 1441 
Q 1456 1047 1700 850 
Q 1944 653 2381 653 
Q 2734 653 3104 758 
Q 3475 863 3866 1075 
L 3866 213 
Q 3469 63 3072 -14 
Q 2675 -91 2278 -91 
Q 1328 -91 801 392 
Q 275 875 275 1747 
Q 275 2603 792 3093 
Q 1309 3584 2216 3584 
Q 3041 3584 3536 3087 
Q 4031 2591 4031 1759 
z
M 2881 2131 
Q 2881 2450 2695 2645 
Q 2509 2841 2209 2841 
Q 1884 2841 1681 2658 
Q 1478 2475 1428 2131 
L 2881 2131 
z
" id="DejaVuSans-Bold-65" transform="scale(0.015625)"/>
       </defs>
       <use xlink:href="#DejaVuSans-Bold-53"/>
       <use x="72.021484" xlink:href="#DejaVuSans-Bold-65"/>
       <use x="139.84375" xlink:href="#DejaVuSans-Bold-70"/>
      </g>
     </g>
    </g>
    <g id="xtick_8">
     <g id="line2d_8">
      <g>
       <use style="fill:#555555;stroke:#555555;stroke-width:0.8;" x="514.128154" xlink:href="#mee6614a2a7" y="541.28"/>
      </g>
     </g>
     <g id="text_8">
      <!-- Oct -->
      <g style="fill:#555555;" transform="translate(500.681591 558.917812)scale(0.14 -0.14)">
       <defs>
        <path d="M 2719 3878 
Q 2169 3878 1866 3472 
Q 1563 3066 1563 2328 
Q 1563 1594 1866 1187 
Q 2169 781 2719 781 
Q 3272 781 3575 1187 
Q 3878 1594 3878 2328 
Q 3878 3066 3575 3472 
Q 3272 3878 2719 3878 
z
M 2719 4750 
Q 3844 4750 4481 4106 
Q 5119 3463 5119 2328 
Q 5119 1197 4481 553 
Q 3844 -91 2719 -91 
Q 1597 -91 958 553 
Q 319 1197 319 2328 
Q 319 3463 958 4106 
Q 1597 4750 2719 4750 
z
" id="DejaVuSans-Bold-4f" transform="scale(0.015625)"/>
        <path d="M 3366 3391 
L 3366 2478 
Q 3138 2634 2908 2709 
Q 2678 2784 2431 2784 
Q 1963 2784 1702 2511 
Q 1441 2238 1441 1747 
Q 1441 1256 1702 982 
Q 1963 709 2431 709 
Q 2694 709 2930 787 
Q 3166 866 3366 1019 
L 3366 103 
Q 3103 6 2833 -42 
Q 2563 -91 2291 -91 
Q 1344 -91 809 395 
Q 275 881 275 1747 
Q 275 2613 809 3098 
Q 1344 3584 2291 3584 
Q 2566 3584 2833 3536 
Q 3100 3488 3366 3391 
z
" id="DejaVuSans-Bold-63" transform="scale(0.015625)"/>
        <path d="M 1759 4494 
L 1759 3500 
L 2913 3500 
L 2913 2700 
L 1759 2700 
L 1759 1216 
Q 1759 972 1856 886 
Q 1953 800 2241 800 
L 2816 800 
L 2816 0 
L 1856 0 
Q 1194 0 917 276 
Q 641 553 641 1216 
L 641 2700 
L 84 2700 
L 84 3500 
L 641 3500 
L 641 4494 
L 1759 4494 
z
" id="DejaVuSans-Bold-74" transform="scale(0.015625)"/>
       </defs>
       <use xlink:href="#DejaVuSans-Bold-4f"/>
       <use x="85.009766" xlink:href="#DejaVuSans-Bold-63"/>
       <use x="144.287109" xlink:href="#DejaVuSans-Bold-74"/>
      </g>
     </g>
    </g>
    <g id="xtick_9">
     <g id="line2d_9">
      <g>
       <use style="fill:#555555;stroke:#555555;stroke-width:0.8;" x="570.275722" xlink:href="#mee6614a2a7" y="541.28"/>
      </g>
     </g>
     <g id="text_9">
      <!-- Nov -->
      <g style="fill:#555555;" transform="translate(555.045253 558.917812)scale(0.14 -0.14)">
       <defs>
        <path d="M 588 4666 
L 1931 4666 
L 3628 1466 
L 3628 4666 
L 4769 4666 
L 4769 0 
L 3425 0 
L 1728 3200 
L 1728 0 
L 588 0 
L 588 4666 
z
" id="DejaVuSans-Bold-4e" transform="scale(0.015625)"/>
        <path d="M 2203 2784 
Q 1831 2784 1636 2517 
Q 1441 2250 1441 1747 
Q 1441 1244 1636 976 
Q 1831 709 2203 709 
Q 2569 709 2762 976 
Q 2956 1244 2956 1747 
Q 2956 2250 2762 2517 
Q 2569 2784 2203 2784 
z
M 2203 3584 
Q 3106 3584 3614 3096 
Q 4122 2609 4122 1747 
Q 4122 884 3614 396 
Q 3106 -91 2203 -91 
Q 1297 -91 786 396 
Q 275 884 275 1747 
Q 275 2609 786 3096 
Q 1297 3584 2203 3584 
z
" id="DejaVuSans-Bold-6f" transform="scale(0.015625)"/>
        <path d="M 97 3500 
L 1216 3500 
L 2088 1081 
L 2956 3500 
L 4078 3500 
L 2700 0 
L 1472 0 
L 97 3500 
z
" id="DejaVuSans-Bold-76" transform="scale(0.015625)"/>
       </defs>
       <use xlink:href="#DejaVuSans-Bold-4e"/>
       <use x="83.691406" xlink:href="#DejaVuSans-Bold-6f"/>
       <use x="152.392578" xlink:href="#DejaVuSans-Bold-76"/>
      </g>
     </g>
    </g>
    <g id="xtick_10">
     <g id="line2d_10">
      <g>
       <use style="fill:#555555;stroke:#555555;stroke-width:0.8;" x="624.612078" xlink:href="#mee6614a2a7" y="541.28"/>
      </g>
     </g>
     <g id="text_10">
      <!-- Dec -->
      <g style="fill:#555555;" transform="translate(609.903328 558.917812)scale(0.14 -0.14)">
       <defs>
        <path d="M 1791 3756 
L 1791 909 
L 2222 909 
Q 2959 909 3348 1275 
Q 3738 1641 3738 2338 
Q 3738 3031 3350 3393 
Q 2963 3756 2222 3756 
L 1791 3756 
z
M 588 4666 
L 1856 4666 
Q 2919 4666 3439 4514 
Q 3959 4363 4331 4000 
Q 4659 3684 4818 3271 
Q 4978 2859 4978 2338 
Q 4978 1809 4818 1395 
Q 4659 981 4331 666 
Q 3956 303 3431 151 
Q 2906 0 1856 0 
L 588 0 
L 588 4666 
z
" id="DejaVuSans-Bold-44" transform="scale(0.015625)"/>
       </defs>
       <use xlink:href="#DejaVuSans-Bold-44"/>
       <use x="83.007812" xlink:href="#DejaVuSans-Bold-65"/>
       <use x="150.830078" xlink:href="#DejaVuSans-Bold-63"/>
      </g>
     </g>
    </g>
    <g id="xtick_11">
     <g id="line2d_11">
      <g>
       <use style="fill:#555555;stroke:#555555;stroke-width:0.8;" x="680.759646" xlink:href="#mee6614a2a7" y="541.28"/>
      </g>
     </g>
     <g id="text_11">
      <!-- Jan -->
      <g style="fill:#555555;" transform="translate(668.448396 558.917812)scale(0.14 -0.14)">
       <use xlink:href="#DejaVuSans-Bold-4a"/>
       <use x="37.207031" xlink:href="#DejaVuSans-Bold-61"/>
       <use x="104.6875" xlink:href="#DejaVuSans-Bold-6e"/>
      </g>
     </g>
    </g>
    <g id="xtick_12">
     <g id="line2d_12">
      <g>
       <use style="fill:#555555;stroke:#555555;stroke-width:0.8;" x="736.907214" xlink:href="#mee6614a2a7" y="541.28"/>
      </g>
     </g>
     <g id="text_12">
      <!-- Feb -->
      <g style="fill:#555555;" transform="translate(722.646902 558.917812)scale(0.14 -0.14)">
       <defs>
        <path d="M 588 4666 
L 3834 4666 
L 3834 3756 
L 1791 3756 
L 1791 2888 
L 3713 2888 
L 3713 1978 
L 1791 1978 
L 1791 0 
L 588 0 
L 588 4666 
z
" id="DejaVuSans-Bold-46" transform="scale(0.015625)"/>
        <path d="M 2400 722 
Q 2759 722 2948 984 
Q 3138 1247 3138 1747 
Q 3138 2247 2948 2509 
Q 2759 2772 2400 2772 
Q 2041 2772 1848 2508 
Q 1656 2244 1656 1747 
Q 1656 1250 1848 986 
Q 2041 722 2400 722 
z
M 1656 2988 
Q 1888 3294 2169 3439 
Q 2450 3584 2816 3584 
Q 3463 3584 3878 3070 
Q 4294 2556 4294 1747 
Q 4294 938 3878 423 
Q 3463 -91 2816 -91 
Q 2450 -91 2169 54 
Q 1888 200 1656 506 
L 1656 0 
L 538 0 
L 538 4863 
L 1656 4863 
L 1656 2988 
z
" id="DejaVuSans-Bold-62" transform="scale(0.015625)"/>
       </defs>
       <use xlink:href="#DejaVuSans-Bold-46"/>
       <use x="64.310547" xlink:href="#DejaVuSans-Bold-65"/>
       <use x="132.132812" xlink:href="#DejaVuSans-Bold-62"/>
      </g>
     </g>
    </g>
    <g id="xtick_13">
     <g id="line2d_13">
      <g>
       <use style="fill:#555555;stroke:#555555;stroke-width:0.8;" x="787.621147" xlink:href="#mee6614a2a7" y="541.28"/>
      </g>
     </g>
     <g id="text_13">
      <!-- Mar -->
      <g style="fill:#555555;" transform="translate(772.479272 558.917812)scale(0.14 -0.14)">
       <use xlink:href="#DejaVuSans-Bold-4d"/>
       <use x="99.511719" xlink:href="#DejaVuSans-Bold-61"/>
       <use x="166.992188" xlink:href="#DejaVuSans-Bold-72"/>
      </g>
     </g>
    </g>
    <g id="xtick_14">
     <g id="line2d_14">
      <g>
       <use style="fill:#555555;stroke:#555555;stroke-width:0.8;" x="843.768715" xlink:href="#mee6614a2a7" y="541.28"/>
      </g>
     </g>
     <g id="text_14">
      <!-- Apr -->
      <g style="fill:#555555;" transform="translate(829.889027 558.917812)scale(0.14 -0.14)">
       <use xlink:href="#DejaVuSans-Bold-41"/>
       <use x="77.392578" xlink:href="#DejaVuSans-Bold-70"/>
       <use x="148.974609" xlink:href="#DejaVuSans-Bold-72"/>
      </g>
     </g>
    </g>
    <g id="xtick_15">
     <g id="line2d_15">
      <g>
       <use style="fill:#555555;stroke:#555555;stroke-width:0.8;" x="898.105071" xlink:href="#mee6614a2a7" y="541.28"/>
      </g>
     </g>
     <g id="text_15">
      <!-- May -->
      <g style="fill:#555555;" transform="translate(882.070696 558.808437)scale(0.14 -0.14)">
       <use xlink:href="#DejaVuSans-Bold-4d"/>
       <use x="99.511719" xlink:href="#DejaVuSans-Bold-61"/>
       <use x="163.867188" xlink:href="#DejaVuSans-Bold-79"/>
      </g>
     </g>
    </g>
    <g id="xtick_16">
     <g id="line2d_16">
      <g>
       <use style="fill:#555555;stroke:#555555;stroke-width:0.8;" x="954.252639" xlink:href="#mee6614a2a7" y="541.28"/>
      </g>
     </g>
     <g id="text_16">
      <!-- Jun -->
      <g style="fill:#555555;" transform="translate(941.68217 558.917812)scale(0.14 -0.14)">
       <use xlink:href="#DejaVuSans-Bold-4a"/>
       <use x="37.207031" xlink:href="#DejaVuSans-Bold-75"/>
       <use x="108.398438" xlink:href="#DejaVuSans-Bold-6e"/>
      </g>
     </g>
    </g>
    <g id="xtick_17">
     <g id="line2d_17">
      <g>
       <use style="fill:#555555;stroke:#555555;stroke-width:0.8;" x="1008.588995" xlink:href="#mee6614a2a7" y="541.28"/>
      </g>
     </g>
     <g id="text_17">
      <!-- Jul -->
      <g style="fill:#555555;" transform="translate(998.601964 558.917812)scale(0.14 -0.14)">
       <use xlink:href="#DejaVuSans-Bold-4a"/>
       <use x="37.207031" xlink:href="#DejaVuSans-Bold-75"/>
       <use x="108.398438" xlink:href="#DejaVuSans-Bold-6c"/>
      </g>
     </g>
    </g>
    <g id="xtick_18">
     <g id="line2d_18">
      <g>
       <use style="fill:#555555;stroke:#555555;stroke-width:0.8;" x="1064.736563" xlink:href="#mee6614a2a7" y="541.28"/>
      </g>
     </g>
     <g id="text_18">
      <!-- Aug -->
      <g style="fill:#555555;" transform="translate(1049.325626 558.808437)scale(0.14 -0.14)">
       <use xlink:href="#DejaVuSans-Bold-41"/>
       <use x="77.392578" xlink:href="#DejaVuSans-Bold-75"/>
       <use x="148.583984" xlink:href="#DejaVuSans-Bold-67"/>
      </g>
     </g>
    </g>
    <g id="xtick_19">
     <g id="line2d_19">
      <g>
       <use style="fill:#555555;stroke:#555555;stroke-width:0.8;" x="1120.884131" xlink:href="#mee6614a2a7" y="541.28"/>
      </g>
     </g>
     <g id="text_19">
      <!-- Sep -->
      <g style="fill:#555555;" transform="translate(1106.0846 558.917812)scale(0.14 -0.14)">
       <use xlink:href="#DejaVuSans-Bold-53"/>
       <use x="72.021484" xlink:href="#DejaVuSans-Bold-65"/>
       <use x="139.84375" xlink:href="#DejaVuSans-Bold-70"/>
      </g>
     </g>
    </g>
   </g>
   <g id="matplotlib.axis_2">
    <g id="ytick_1">
     <g id="line2d_20">
      <defs>
       <path d="M 0 0 
L -3.5 0 
" id="m59c737cc2e" style="stroke:#555555;stroke-width:0.8;"/>
      </defs>
      <g>
       <use style="fill:#555555;stroke:#555555;stroke-width:0.8;" x="87.95" xlink:href="#m59c737cc2e" y="519.485405"/>
      </g>
     </g>
     <g id="text_20">
      <!-- 0 -->
      <g style="fill:#555555;" transform="translate(71.209063 524.804311)scale(0.14 -0.14)">
       <defs>
        <path d="M 2944 2338 
Q 2944 3213 2780 3570 
Q 2616 3928 2228 3928 
Q 1841 3928 1675 3570 
Q 1509 3213 1509 2338 
Q 1509 1453 1675 1090 
Q 1841 728 2228 728 
Q 2613 728 2778 1090 
Q 2944 1453 2944 2338 
z
M 4147 2328 
Q 4147 1169 3647 539 
Q 3147 -91 2228 -91 
Q 1306 -91 806 539 
Q 306 1169 306 2328 
Q 306 3491 806 4120 
Q 1306 4750 2228 4750 
Q 3147 4750 3647 4120 
Q 4147 3491 4147 2328 
z
" id="DejaVuSans-Bold-30" transform="scale(0.015625)"/>
       </defs>
       <use xlink:href="#DejaVuSans-Bold-30"/>
      </g>
     </g>
    </g>
    <g id="ytick_2">
     <g id="line2d_21">
      <g>
       <use style="fill:#555555;stroke:#555555;stroke-width:0.8;" x="87.95" xlink:href="#m59c737cc2e" y="448.872754"/>
      </g>
     </g>
     <g id="text_21">
      <!-- 2000 -->
      <g style="fill:#555555;" transform="translate(41.98625 454.19166)scale(0.14 -0.14)">
       <defs>
        <path d="M 1844 884 
L 3897 884 
L 3897 0 
L 506 0 
L 506 884 
L 2209 2388 
Q 2438 2594 2547 2791 
Q 2656 2988 2656 3200 
Q 2656 3528 2436 3728 
Q 2216 3928 1850 3928 
Q 1569 3928 1234 3808 
Q 900 3688 519 3450 
L 519 4475 
Q 925 4609 1322 4679 
Q 1719 4750 2100 4750 
Q 2938 4750 3402 4381 
Q 3866 4013 3866 3353 
Q 3866 2972 3669 2642 
Q 3472 2313 2841 1759 
L 1844 884 
z
" id="DejaVuSans-Bold-32" transform="scale(0.015625)"/>
       </defs>
       <use xlink:href="#DejaVuSans-Bold-32"/>
       <use x="69.580078" xlink:href="#DejaVuSans-Bold-30"/>
       <use x="139.160156" xlink:href="#DejaVuSans-Bold-30"/>
       <use x="208.740234" xlink:href="#DejaVuSans-Bold-30"/>
      </g>
     </g>
    </g>
    <g id="ytick_3">
     <g id="line2d_22">
      <g>
       <use style="fill:#555555;stroke:#555555;stroke-width:0.8;" x="87.95" xlink:href="#m59c737cc2e" y="378.260103"/>
      </g>
     </g>
     <g id="text_22">
      <!-- 4000 -->
      <g style="fill:#555555;" transform="translate(41.98625 383.579009)scale(0.14 -0.14)">
       <defs>
        <path d="M 2356 3675 
L 1038 1722 
L 2356 1722 
L 2356 3675 
z
M 2156 4666 
L 3494 4666 
L 3494 1722 
L 4159 1722 
L 4159 850 
L 3494 850 
L 3494 0 
L 2356 0 
L 2356 850 
L 288 850 
L 288 1881 
L 2156 4666 
z
" id="DejaVuSans-Bold-34" transform="scale(0.015625)"/>
       </defs>
       <use xlink:href="#DejaVuSans-Bold-34"/>
       <use x="69.580078" xlink:href="#DejaVuSans-Bold-30"/>
       <use x="139.160156" xlink:href="#DejaVuSans-Bold-30"/>
       <use x="208.740234" xlink:href="#DejaVuSans-Bold-30"/>
      </g>
     </g>
    </g>
    <g id="ytick_4">
     <g id="line2d_23">
      <g>
       <use style="fill:#555555;stroke:#555555;stroke-width:0.8;" x="87.95" xlink:href="#m59c737cc2e" y="307.647451"/>
      </g>
     </g>
     <g id="text_23">
      <!-- 6000 -->
      <g style="fill:#555555;" transform="translate(41.98625 312.966358)scale(0.14 -0.14)">
       <defs>
        <path d="M 2316 2303 
Q 2000 2303 1842 2098 
Q 1684 1894 1684 1484 
Q 1684 1075 1842 870 
Q 2000 666 2316 666 
Q 2634 666 2792 870 
Q 2950 1075 2950 1484 
Q 2950 1894 2792 2098 
Q 2634 2303 2316 2303 
z
M 3803 4544 
L 3803 3681 
Q 3506 3822 3243 3889 
Q 2981 3956 2731 3956 
Q 2194 3956 1894 3657 
Q 1594 3359 1544 2772 
Q 1750 2925 1990 3001 
Q 2231 3078 2516 3078 
Q 3231 3078 3670 2659 
Q 4109 2241 4109 1563 
Q 4109 813 3618 361 
Q 3128 -91 2303 -91 
Q 1394 -91 895 523 
Q 397 1138 397 2266 
Q 397 3422 980 4083 
Q 1563 4744 2578 4744 
Q 2900 4744 3203 4694 
Q 3506 4644 3803 4544 
z
" id="DejaVuSans-Bold-36" transform="scale(0.015625)"/>
       </defs>
       <use xlink:href="#DejaVuSans-Bold-36"/>
       <use x="69.580078" xlink:href="#DejaVuSans-Bold-30"/>
       <use x="139.160156" xlink:href="#DejaVuSans-Bold-30"/>
       <use x="208.740234" xlink:href="#DejaVuSans-Bold-30"/>
      </g>
     </g>
    </g>
    <g id="ytick_5">
     <g id="line2d_24">
      <g>
       <use style="fill:#555555;stroke:#555555;stroke-width:0.8;" x="87.95" xlink:href="#m59c737cc2e" y="237.0348"/>
      </g>
     </g>
     <g id="text_24">
      <!-- 8000 -->
      <g style="fill:#555555;" transform="translate(41.98625 242.353706)scale(0.14 -0.14)">
       <defs>
        <path d="M 2228 2088 
Q 1891 2088 1709 1903 
Q 1528 1719 1528 1375 
Q 1528 1031 1709 848 
Q 1891 666 2228 666 
Q 2563 666 2741 848 
Q 2919 1031 2919 1375 
Q 2919 1722 2741 1905 
Q 2563 2088 2228 2088 
z
M 1350 2484 
Q 925 2613 709 2878 
Q 494 3144 494 3541 
Q 494 4131 934 4440 
Q 1375 4750 2228 4750 
Q 3075 4750 3515 4442 
Q 3956 4134 3956 3541 
Q 3956 3144 3739 2878 
Q 3522 2613 3097 2484 
Q 3572 2353 3814 2058 
Q 4056 1763 4056 1313 
Q 4056 619 3595 264 
Q 3134 -91 2228 -91 
Q 1319 -91 855 264 
Q 391 619 391 1313 
Q 391 1763 633 2058 
Q 875 2353 1350 2484 
z
M 1631 3419 
Q 1631 3141 1786 2991 
Q 1941 2841 2228 2841 
Q 2509 2841 2662 2991 
Q 2816 3141 2816 3419 
Q 2816 3697 2662 3845 
Q 2509 3994 2228 3994 
Q 1941 3994 1786 3844 
Q 1631 3694 1631 3419 
z
" id="DejaVuSans-Bold-38" transform="scale(0.015625)"/>
       </defs>
       <use xlink:href="#DejaVuSans-Bold-38"/>
       <use x="69.580078" xlink:href="#DejaVuSans-Bold-30"/>
       <use x="139.160156" xlink:href="#DejaVuSans-Bold-30"/>
       <use x="208.740234" xlink:href="#DejaVuSans-Bold-30"/>
      </g>
     </g>
    </g>
    <g id="ytick_6">
     <g id="line2d_25">
      <g>
       <use style="fill:#555555;stroke:#555555;stroke-width:0.8;" x="87.95" xlink:href="#m59c737cc2e" y="166.422149"/>
      </g>
     </g>
     <g id="text_25">
      <!-- 10000 -->
      <g style="fill:#555555;" transform="translate(32.245313 171.741055)scale(0.14 -0.14)">
       <defs>
        <path d="M 750 831 
L 1813 831 
L 1813 3847 
L 722 3622 
L 722 4441 
L 1806 4666 
L 2950 4666 
L 2950 831 
L 4013 831 
L 4013 0 
L 750 0 
L 750 831 
z
" id="DejaVuSans-Bold-31" transform="scale(0.015625)"/>
       </defs>
       <use xlink:href="#DejaVuSans-Bold-31"/>
       <use x="69.580078" xlink:href="#DejaVuSans-Bold-30"/>
       <use x="139.160156" xlink:href="#DejaVuSans-Bold-30"/>
       <use x="208.740234" xlink:href="#DejaVuSans-Bold-30"/>
       <use x="278.320312" xlink:href="#DejaVuSans-Bold-30"/>
      </g>
     </g>
    </g>
    <g id="ytick_7">
     <g id="line2d_26">
      <g>
       <use style="fill:#555555;stroke:#555555;stroke-width:0.8;" x="87.95" xlink:href="#m59c737cc2e" y="95.809498"/>
      </g>
     </g>
     <g id="text_26">
      <!-- 12000 -->
      <g style="fill:#555555;" transform="translate(32.245313 101.128404)scale(0.14 -0.14)">
       <use xlink:href="#DejaVuSans-Bold-31"/>
       <use x="69.580078" xlink:href="#DejaVuSans-Bold-32"/>
       <use x="139.160156" xlink:href="#DejaVuSans-Bold-30"/>
       <use x="208.740234" xlink:href="#DejaVuSans-Bold-30"/>
       <use x="278.320312" xlink:href="#DejaVuSans-Bold-30"/>
      </g>
     </g>
    </g>
    <g id="text_27">
     <!-- New Cases -->
     <g style="fill:#555555;" transform="translate(24.917813 333.23875)rotate(-90)scale(0.16 -0.16)">
      <defs>
       <path d="M 628 4666 
L 1478 4666 
L 3547 763 
L 3547 4666 
L 4159 4666 
L 4159 0 
L 3309 0 
L 1241 3903 
L 1241 0 
L 628 0 
L 628 4666 
z
" id="DejaVuSans-4e" transform="scale(0.015625)"/>
       <path d="M 3597 1894 
L 3597 1613 
L 953 1613 
Q 991 1019 1311 708 
Q 1631 397 2203 397 
Q 2534 397 2845 478 
Q 3156 559 3463 722 
L 3463 178 
Q 3153 47 2828 -22 
Q 2503 -91 2169 -91 
Q 1331 -91 842 396 
Q 353 884 353 1716 
Q 353 2575 817 3079 
Q 1281 3584 2069 3584 
Q 2775 3584 3186 3129 
Q 3597 2675 3597 1894 
z
M 3022 2063 
Q 3016 2534 2758 2815 
Q 2500 3097 2075 3097 
Q 1594 3097 1305 2825 
Q 1016 2553 972 2059 
L 3022 2063 
z
" id="DejaVuSans-65" transform="scale(0.015625)"/>
       <path d="M 269 3500 
L 844 3500 
L 1563 769 
L 2278 3500 
L 2956 3500 
L 3675 769 
L 4391 3500 
L 4966 3500 
L 4050 0 
L 3372 0 
L 2619 2869 
L 1863 0 
L 1184 0 
L 269 3500 
z
" id="DejaVuSans-77" transform="scale(0.015625)"/>
       <path id="DejaVuSans-20" transform="scale(0.015625)"/>
       <path d="M 4122 4306 
L 4122 3641 
Q 3803 3938 3442 4084 
Q 3081 4231 2675 4231 
Q 1875 4231 1450 3742 
Q 1025 3253 1025 2328 
Q 1025 1406 1450 917 
Q 1875 428 2675 428 
Q 3081 428 3442 575 
Q 3803 722 4122 1019 
L 4122 359 
Q 3791 134 3420 21 
Q 3050 -91 2638 -91 
Q 1578 -91 968 557 
Q 359 1206 359 2328 
Q 359 3453 968 4101 
Q 1578 4750 2638 4750 
Q 3056 4750 3426 4639 
Q 3797 4528 4122 4306 
z
" id="DejaVuSans-43" transform="scale(0.015625)"/>
       <path d="M 2194 1759 
Q 1497 1759 1228 1600 
Q 959 1441 959 1056 
Q 959 750 1161 570 
Q 1363 391 1709 391 
Q 2188 391 2477 730 
Q 2766 1069 2766 1631 
L 2766 1759 
L 2194 1759 
z
M 3341 1997 
L 3341 0 
L 2766 0 
L 2766 531 
Q 2569 213 2275 61 
Q 1981 -91 1556 -91 
Q 1019 -91 701 211 
Q 384 513 384 1019 
Q 384 1609 779 1909 
Q 1175 2209 1959 2209 
L 2766 2209 
L 2766 2266 
Q 2766 2663 2505 2880 
Q 2244 3097 1772 3097 
Q 1472 3097 1187 3025 
Q 903 2953 641 2809 
L 641 3341 
Q 956 3463 1253 3523 
Q 1550 3584 1831 3584 
Q 2591 3584 2966 3190 
Q 3341 2797 3341 1997 
z
" id="DejaVuSans-61" transform="scale(0.015625)"/>
       <path d="M 2834 3397 
L 2834 2853 
Q 2591 2978 2328 3040 
Q 2066 3103 1784 3103 
Q 1356 3103 1142 2972 
Q 928 2841 928 2578 
Q 928 2378 1081 2264 
Q 1234 2150 1697 2047 
L 1894 2003 
Q 2506 1872 2764 1633 
Q 3022 1394 3022 966 
Q 3022 478 2636 193 
Q 2250 -91 1575 -91 
Q 1294 -91 989 -36 
Q 684 19 347 128 
L 347 722 
Q 666 556 975 473 
Q 1284 391 1588 391 
Q 1994 391 2212 530 
Q 2431 669 2431 922 
Q 2431 1156 2273 1281 
Q 2116 1406 1581 1522 
L 1381 1569 
Q 847 1681 609 1914 
Q 372 2147 372 2553 
Q 372 3047 722 3315 
Q 1072 3584 1716 3584 
Q 2034 3584 2315 3537 
Q 2597 3491 2834 3397 
z
" id="DejaVuSans-73" transform="scale(0.015625)"/>
      </defs>
      <use xlink:href="#DejaVuSans-4e"/>
      <use x="74.804688" xlink:href="#DejaVuSans-65"/>
      <use x="136.328125" xlink:href="#DejaVuSans-77"/>
      <use x="218.115234" xlink:href="#DejaVuSans-20"/>
      <use x="249.902344" xlink:href="#DejaVuSans-43"/>
      <use x="319.726562" xlink:href="#DejaVuSans-61"/>
      <use x="381.005859" xlink:href="#DejaVuSans-73"/>
      <use x="433.105469" xlink:href="#DejaVuSans-65"/>
      <use x="494.628906" xlink:href="#DejaVuSans-73"/>
     </g>
    </g>
   </g>
   <g id="line2d_27">
    <path clip-path="url(#pfc152d32b8)" d="M 135.584872 518.073152 
L 137.396084 517.720089 
L 139.207296 518.355603 
L 141.018508 517.331719 
L 142.82972 514.895583 
L 144.640932 515.142727 
L 146.452144 515.001502 
L 148.263355 515.49579 
L 150.074567 511.75332 
L 151.885779 513.377411 
L 153.696991 509.952697 
L 155.508203 509.317183 
L 157.319415 507.23411 
L 159.130627 505.5041 
L 160.941838 500.667134 
L 162.75305 496.995276 
L 164.564262 498.125078 
L 166.375474 499.961007 
L 168.186686 493.040967 
L 169.997898 489.722173 
L 173.620322 478.282923 
L 175.431533 479.024356 
L 177.242745 480.930898 
L 179.053957 488.662983 
L 180.865169 490.03993 
L 182.676381 483.896629 
L 184.487593 481.248655 
L 186.298805 483.472953 
L 188.110017 484.108467 
L 189.921228 480.683753 
L 193.543652 491.875859 
L 195.354864 485.626639 
L 197.166076 476.835364 
L 198.977288 472.633911 
L 200.7885 473.551876 
L 202.599712 478.141698 
L 204.410923 485.626639 
L 206.222135 489.051352 
L 208.033347 493.711787 
L 209.844559 481.742943 
L 211.655771 475.917399 
L 213.466983 477.612103 
L 215.278195 483.367034 
L 217.089407 493.076274 
L 218.900618 494.206076 
L 220.71183 494.488527 
L 222.523042 488.627677 
L 224.334254 491.063813 
L 226.145466 496.642212 
L 227.956678 496.500987 
L 229.76789 505.186343 
L 231.579102 512.671284 
L 233.390313 505.786551 
L 235.201525 501.585098 
L 237.012737 502.608982 
L 238.823949 504.056541 
L 240.635161 507.551867 
L 242.446373 512.388834 
L 244.257585 508.222687 
L 246.068797 508.222687 
L 247.880008 506.739822 
L 249.69122 508.222687 
L 251.502432 509.317183 
L 253.313644 510.941274 
L 255.124856 513.165573 
L 256.936068 512.600672 
L 258.74728 511.612095 
L 260.558492 509.811472 
L 262.369703 512.353527 
L 264.180915 512.635978 
L 265.992127 515.072114 
L 267.803339 514.260069 
L 269.614551 515.566403 
L 271.425763 512.883122 
L 273.236975 510.517598 
L 275.048186 512.989041 
L 278.67061 513.377411 
L 280.481822 511.965158 
L 282.293034 514.930889 
L 284.104246 512.635978 
L 285.915458 513.200879 
L 287.72667 513.200879 
L 289.537881 514.507213 
L 291.349093 513.271492 
L 293.160305 515.813547 
L 294.971517 516.131304 
L 296.782729 516.201917 
L 298.593941 512.847816 
L 300.405153 511.823933 
L 302.216365 512.777203 
L 304.027576 511.047193 
L 305.838788 513.624555 
L 307.65 513.695168 
L 309.461212 513.09496 
L 311.272424 513.76578 
L 313.083636 512.176996 
L 314.894848 513.09496 
L 316.70606 514.401294 
L 318.517271 513.871699 
L 320.328483 514.754358 
L 322.139695 515.49579 
L 323.950907 515.107421 
L 327.573331 516.307836 
L 329.384543 516.131304 
L 331.195755 517.084575 
L 333.006966 517.013962 
L 334.818178 516.660899 
L 336.62939 515.601709 
L 340.251814 516.766818 
L 342.063026 517.155188 
L 343.874238 516.802124 
L 345.68545 517.472945 
L 347.496661 517.296413 
L 349.307873 516.837431 
L 351.119085 516.802124 
L 352.930297 517.190494 
L 354.741509 516.94335 
L 356.552721 518.037846 
L 358.363933 518.28499 
L 360.175145 517.472945 
L 363.797568 517.190494 
L 365.60878 516.519674 
L 367.419992 516.131304 
L 369.231204 516.94335 
L 371.042416 516.025385 
L 374.66484 515.283952 
L 376.476051 515.637016 
L 378.287263 514.365988 
L 380.098475 514.365988 
L 381.909687 513.024348 
L 383.720899 513.518636 
L 385.532111 513.48333 
L 389.154534 514.012925 
L 392.776958 511.965158 
L 394.58817 512.106383 
L 396.399382 511.576788 
L 398.210594 510.729436 
L 400.021806 507.445948 
L 401.833018 507.445948 
L 403.644229 504.268379 
L 405.455441 506.810434 
L 407.266653 506.351452 
L 409.077865 502.291225 
L 410.889077 504.374298 
L 412.700289 498.125078 
L 414.511501 501.232035 
L 416.322713 502.397144 
L 418.133924 499.113655 
L 419.945136 491.699327 
L 421.756348 497.595483 
L 423.56756 496.500987 
L 425.378772 499.148962 
L 427.189984 497.348339 
L 429.001196 496.324456 
L 430.812408 501.867549 
L 432.623619 502.326531 
L 434.434831 502.079387 
L 436.246043 499.961007 
L 438.057255 500.737746 
L 439.868467 500.667134 
L 441.679679 501.585098 
L 443.490891 503.421027 
L 445.302103 499.254881 
L 447.113314 504.797974 
L 448.924526 499.290187 
L 450.735738 501.549792 
L 452.54695 501.796936 
L 456.169374 501.620404 
L 457.980586 500.914278 
L 459.791798 502.997351 
L 461.603009 494.064851 
L 463.414221 498.336916 
L 465.225433 493.252805 
L 467.036645 496.5716 
L 468.847857 487.003586 
L 470.659069 491.416876 
L 474.281493 479.236194 
L 476.092704 489.934011 
L 477.903916 474.611065 
L 479.715128 476.341075 
L 481.52634 481.107429 
L 483.337552 473.693101 
L 485.148764 470.903901 
L 486.959976 465.219583 
L 488.771188 458.087705 
L 490.582399 450.461539 
L 492.393611 452.685837 
L 494.204823 454.380541 
L 496.016035 441.423119 
L 497.827247 440.505155 
L 499.638459 437.080441 
L 501.449671 429.948563 
L 503.260882 421.898721 
L 505.072094 424.158326 
L 506.883306 414.41378 
L 508.694518 417.026448 
L 510.50573 413.425203 
L 512.316942 403.468819 
L 514.128154 404.633928 
L 515.939366 385.180142 
L 517.750577 380.555014 
L 519.561789 378.86031 
L 521.373001 358.665092 
L 523.184213 359.93612 
L 524.995425 343.942354 
L 526.806637 315.273618 
L 528.617849 309.059704 
L 530.429061 290.771028 
L 532.240272 295.572688 
L 534.051484 279.296472 
L 535.862696 260.584119 
L 537.673908 263.443932 
L 539.48512 244.908111 
L 541.296332 238.76481 
L 543.107544 233.327636 
L 544.918756 231.809464 
L 546.729967 237.529089 
L 548.541179 231.950689 
L 552.163603 192.866587 
L 553.974815 167.410726 
L 555.786027 214.368139 
L 557.597239 160.490686 
L 559.408451 155.724332 
L 561.219662 156.99536 
L 563.030874 234.316213 
L 564.842086 157.701486 
L 566.653298 128.750299 
L 568.46451 174.471991 
L 570.275722 213.061805 
L 572.086934 227.678624 
L 573.898146 246.285057 
L 575.709357 251.15733 
L 577.520569 274.247667 
L 579.331781 264.361896 
L 581.142993 285.898755 
L 584.765417 354.640171 
L 586.576629 355.522829 
L 588.387841 329.431454 
L 590.199052 321.099161 
L 592.010264 305.246621 
L 593.821476 311.284003 
L 595.632688 328.195733 
L 599.255112 368.374331 
L 601.066324 357.676515 
L 602.877536 318.733638 
L 604.688747 310.048282 
L 606.499959 307.506226 
L 608.311171 330.314112 
L 610.122383 336.563332 
L 611.933595 380.131338 
L 613.744807 346.131346 
L 615.556019 361.736742 
L 617.367231 316.438726 
L 619.178442 361.842661 
L 620.989654 323.005703 
L 622.800866 358.064884 
L 624.612078 376.918462 
L 626.42329 346.201959 
L 628.234502 321.98182 
L 630.045714 311.495841 
L 631.856925 288.970405 
L 633.668137 280.779338 
L 635.479349 269.022331 
L 637.290561 303.445999 
L 639.101773 288.44081 
L 640.912985 212.002615 
L 642.724197 207.483406 
L 644.535409 197.421103 
L 646.34662 170.764827 
L 648.157832 220.758584 
L 649.969044 285.36916 
L 651.780256 125.254973 
L 653.591468 68.341176 
L 655.40268 97.362976 
L 657.213892 87.900881 
L 659.025104 60.609091 
L 660.836315 125.608036 
L 662.647527 172.706675 
L 664.458739 152.546763 
L 666.269951 113.674498 
L 668.081163 113.639192 
L 669.892375 172.953819 
L 671.703587 201.551943 
L 673.514799 258.289208 
L 675.32601 254.052449 
L 677.137222 185.875934 
L 678.948434 178.249768 
L 680.759646 231.068031 
L 682.570858 216.239374 
L 684.38207 258.359821 
L 686.193282 285.333854 
L 688.004494 294.619417 
L 689.815705 269.198863 
L 691.626917 177.790786 
L 693.438129 233.080492 
L 695.249341 260.690038 
L 697.060553 286.393043 
L 698.871765 327.136543 
L 700.682977 345.001544 
L 702.494189 304.434576 
L 704.3054 290.029595 
L 706.116612 306.764793 
L 707.927824 332.538411 
L 709.739036 322.405495 
L 711.550248 350.579943 
L 713.36146 367.844737 
L 715.172672 322.864478 
L 716.983884 314.532185 
L 718.795095 316.650564 
L 720.606307 327.207156 
L 722.417519 347.15523 
L 724.228731 375.11784 
L 726.039943 379.707662 
L 727.851155 352.663017 
L 729.662367 353.863432 
L 731.473579 364.243491 
L 733.28479 372.187415 
L 735.096002 389.664046 
L 736.907214 405.163523 
L 738.718426 394.218562 
L 740.529638 377.624589 
L 742.34085 371.198838 
L 744.152062 367.067997 
L 745.963273 375.11784 
L 747.774485 381.155221 
L 749.585697 439.799028 
L 751.396909 457.381578 
L 753.208121 407.458434 
L 755.019333 363.184302 
L 756.830545 366.714934 
L 758.641757 372.187415 
L 760.452968 398.56124 
L 762.26418 419.144828 
L 764.075392 424.511389 
L 765.886604 400.5737 
L 767.697816 358.559173 
L 769.509028 354.393027 
L 771.32024 359.229993 
L 773.131452 354.640171 
L 774.942663 371.94027 
L 776.753875 385.003611 
L 778.565087 365.267375 
L 780.376299 343.448066 
L 782.187511 339.811514 
L 783.998723 345.70767 
L 785.809935 355.840586 
L 787.621147 387.12199 
L 789.432358 379.495824 
L 791.24357 342.141732 
L 793.054782 375.011921 
L 794.865994 354.887315 
L 796.677206 331.938203 
L 798.488418 360.324489 
L 800.29963 382.355636 
L 802.110842 368.162494 
L 803.922053 333.809439 
L 805.733265 332.467798 
L 807.544477 308.53011 
L 809.355689 294.407579 
L 811.166901 309.306849 
L 812.978113 325.230002 
L 814.789325 345.001544 
L 816.600537 310.895633 
L 818.411748 302.987016 
L 820.22296 260.054524 
L 822.034172 251.086718 
L 825.656596 297.055554 
L 827.467808 321.487531 
L 829.27902 252.710809 
L 831.090232 248.050374 
L 832.901443 252.640196 
L 834.712655 209.425253 
L 836.523867 255.747153 
L 838.335079 280.073211 
L 840.146291 312.766869 
L 841.957503 250.133447 
L 843.768715 243.425245 
L 845.579927 264.785572 
L 847.391138 251.263249 
L 849.20235 277.213399 
L 851.013562 331.161464 
L 852.824774 323.217541 
L 854.635986 294.619417 
L 856.447198 245.473012 
L 858.25841 249.038951 
L 860.069621 249.074257 
L 861.880833 232.021302 
L 863.692045 284.415889 
L 865.503257 282.156284 
L 867.314469 327.418994 
L 869.125681 212.53221 
L 870.936893 205.61217 
L 872.748105 228.1023 
L 874.559316 218.604898 
L 876.370528 266.762726 
L 878.18174 278.625652 
L 879.992952 220.370214 
L 881.804164 181.286112 
L 883.615376 193.396182 
L 885.426588 234.845808 
L 887.2378 236.328674 
L 889.049011 299.668222 
L 890.860223 332.185348 
L 892.671435 214.050382 
L 894.482647 262.349436 
L 896.293859 245.367093 
L 898.105071 315.308924 
L 899.916283 326.677561 
L 901.727495 195.161498 
L 903.538706 245.578931 
L 907.16113 281.061788 
L 908.972342 256.135522 
L 910.783554 257.371244 
L 914.405978 312.555031 
L 916.21719 324.417956 
L 918.028401 295.607994 
L 919.839613 307.223775 
L 921.650825 323.782442 
L 923.462037 361.595517 
L 925.273249 363.290221 
L 927.084461 418.579927 
L 928.895673 331.479221 
L 930.706885 358.912236 
L 932.518096 356.511406 
L 934.329308 373.38783 
L 936.14052 407.458434 
L 937.951732 398.631853 
L 939.762944 423.169749 
L 941.574156 431.784492 
L 943.385368 422.816686 
L 945.19658 400.326556 
L 947.007791 383.944421 
L 948.819003 401.385746 
L 950.630215 426.912219 
L 952.441427 448.166627 
L 954.252639 431.925718 
L 956.063851 429.136518 
L 957.875063 422.00464 
L 959.686275 434.926755 
L 961.497486 444.706607 
L 963.308698 464.125087 
L 965.11991 467.655719 
L 966.931122 468.750215 
L 968.742334 457.664029 
L 970.553546 463.772023 
L 972.364758 470.409613 
L 974.17597 475.705561 
L 975.987181 482.73152 
L 977.798393 488.451145 
L 979.609605 482.766827 
L 981.420817 483.331728 
L 983.232029 482.096006 
L 985.043241 488.027469 
L 986.854453 495.018122 
L 988.665664 494.382608 
L 990.476876 499.396106 
L 992.288088 494.84159 
L 994.0993 495.971392 
L 995.910512 494.912203 
L 997.721724 496.642212 
L 999.532936 499.890394 
L 1001.344148 501.796936 
L 1003.155359 499.466719 
L 1004.966571 500.843665 
L 1006.777783 496.889357 
L 1008.588995 490.428299 
L 1010.400207 486.297459 
L 1012.211419 479.836401 
L 1014.022631 477.047202 
L 1015.833843 466.031628 
L 1017.645054 441.917408 
L 1019.456266 392.064876 
L 1021.267478 328.866553 
L 1023.07869 276.366047 
L 1024.889902 158.372307 
L 1028.512326 221.464711 
L 1030.323538 243.848921 
L 1032.134749 151.875943 
L 1033.945961 131.716031 
L 1035.757173 121.724341 
L 1037.568385 129.068056 
L 1039.379597 159.78456 
L 1041.190809 206.106459 
L 1043.002021 280.143824 
L 1044.813233 276.930948 
L 1046.624444 299.279852 
L 1048.435656 294.266354 
L 1050.246868 333.774132 
L 1052.05808 356.75855 
L 1053.869292 383.979727 
L 1055.680504 378.86031 
L 1057.491716 397.819807 
L 1059.302928 362.266337 
L 1061.114139 398.208177 
L 1062.925351 415.578889 
L 1064.736563 437.751261 
L 1066.547775 445.306815 
L 1068.358987 441.423119 
L 1070.170199 420.698306 
L 1071.981411 401.668197 
L 1073.792623 416.743998 
L 1075.603834 434.78553 
L 1077.415046 437.821874 
L 1079.226258 447.319276 
L 1081.03747 443.011904 
L 1082.848682 444.530076 
L 1084.659894 428.289166 
L 1086.471106 424.264245 
L 1088.282318 436.550846 
L 1088.282318 436.550846 
" style="fill:none;stroke:#000000;stroke-dasharray:1.5,2.475;stroke-dashoffset:0;stroke-opacity:0.5;stroke-width:1.5;"/>
   </g>
   <g id="line2d_28">
    <path clip-path="url(#pfc152d32b8)" d="M 135.584872 518.390909 
L 139.207296 517.367026 
L 146.452144 514.719051 
L 148.263355 513.942312 
L 150.074567 513.024348 
L 151.885779 511.859239 
L 153.696991 510.446986 
L 155.508203 508.646363 
L 157.319415 506.492677 
L 159.130627 504.091847 
L 166.375474 495.477104 
L 168.186686 492.44076 
L 171.80911 485.414801 
L 173.620322 483.11989 
L 175.431533 482.660908 
L 177.242745 483.296421 
L 179.053957 484.320305 
L 180.865169 485.026431 
L 182.676381 484.955819 
L 186.298805 483.508259 
L 188.110017 483.755404 
L 189.921228 484.602755 
L 191.73244 485.026431 
L 193.543652 484.249692 
L 195.354864 482.307844 
L 197.166076 479.977627 
L 198.977288 478.282923 
L 200.7885 478.212311 
L 202.599712 480.401303 
L 204.410923 483.155196 
L 206.222135 484.885206 
L 208.033347 484.920512 
L 209.844559 483.720097 
L 211.655771 482.802133 
L 213.466983 483.261115 
L 215.278195 485.238269 
L 217.089407 488.098082 
L 218.900618 490.498912 
L 220.71183 492.05239 
L 222.523042 492.864436 
L 224.334254 494.029544 
L 226.145466 496.606906 
L 229.76789 502.679594 
L 231.579102 504.515523 
L 233.390313 505.045118 
L 237.012737 505.151037 
L 238.823949 505.645326 
L 240.635161 506.881047 
L 242.446373 507.940237 
L 244.257585 508.434525 
L 247.880008 508.540444 
L 249.69122 508.858201 
L 253.313644 510.658824 
L 255.124856 511.329644 
L 256.936068 511.682707 
L 260.558492 511.965158 
L 262.369703 512.318221 
L 265.992127 513.624555 
L 267.803339 513.871699 
L 269.614551 513.695168 
L 273.236975 512.918429 
L 275.048186 512.706591 
L 276.859398 512.777203 
L 280.481822 513.200879 
L 285.915458 513.412717 
L 289.537881 514.012925 
L 291.349093 514.54252 
L 293.160305 514.860277 
L 294.971517 514.860277 
L 296.782729 514.471907 
L 300.405153 513.09496 
L 302.216365 512.706591 
L 304.027576 512.600672 
L 307.65 513.059654 
L 313.083636 513.306798 
L 314.894848 513.48333 
L 318.517271 514.224763 
L 322.139695 515.072114 
L 329.384543 516.378449 
L 333.006966 516.55498 
L 336.62939 516.484368 
L 338.440602 516.484368 
L 347.496661 517.084575 
L 351.119085 517.084575 
L 358.363933 517.649476 
L 361.986356 517.331719 
L 369.231204 516.27253 
L 372.853628 515.742935 
L 374.66484 515.460484 
L 380.098475 514.15415 
L 381.909687 513.836393 
L 385.532111 513.553942 
L 389.154534 513.236186 
L 390.965746 512.918429 
L 392.776958 512.42414 
L 394.58817 511.718014 
L 396.399382 510.835355 
L 400.021806 508.469832 
L 403.644229 506.351452 
L 405.455441 505.610019 
L 412.700289 501.655711 
L 414.511501 500.384683 
L 416.322713 499.396106 
L 418.133924 498.160385 
L 419.945136 497.454258 
L 421.756348 496.995276 
L 423.56756 496.85405 
L 425.378772 497.383645 
L 427.189984 498.336916 
L 430.812408 499.996313 
L 432.623619 500.631827 
L 434.434831 501.020197 
L 436.246043 501.161422 
L 439.868467 501.126116 
L 441.679679 501.443873 
L 445.302103 501.691017 
L 448.924526 501.549792 
L 450.735738 501.443873 
L 452.54695 501.549792 
L 454.358162 501.514485 
L 456.169374 501.161422 
L 457.980586 500.525908 
L 461.603009 498.089772 
L 467.036645 492.687904 
L 468.847857 490.498912 
L 470.659069 488.521758 
L 474.281493 483.755404 
L 476.092704 482.0607 
L 477.903916 480.012933 
L 479.715128 478.177004 
L 481.52634 476.093931 
L 483.337552 472.775136 
L 485.148764 468.962053 
L 488.771188 459.782409 
L 490.582399 455.580956 
L 496.016035 444.459463 
L 497.827247 440.010866 
L 499.638459 435.244512 
L 501.449671 430.125095 
L 505.072094 421.863415 
L 506.883306 417.944413 
L 508.694518 414.484393 
L 510.50573 409.965183 
L 512.316942 404.139639 
L 514.128154 397.749194 
L 517.750577 381.578897 
L 519.561789 373.034766 
L 521.373001 362.513481 
L 523.184213 351.144845 
L 528.617849 311.036859 
L 530.429061 298.503113 
L 532.240272 287.875909 
L 537.673908 258.359821 
L 539.48512 249.286095 
L 541.296332 242.683812 
L 544.918756 233.645393 
L 546.729967 228.420057 
L 550.352391 211.155263 
L 553.974815 189.830243 
L 555.786027 180.43876 
L 557.597239 177.755479 
L 559.408451 175.813631 
L 561.219662 174.083621 
L 563.030874 171.435647 
L 564.842086 172.636062 
L 566.653298 176.802209 
L 568.46451 187.111656 
L 570.275722 200.598672 
L 572.086934 220.864503 
L 573.898146 239.223792 
L 575.709357 253.063872 
L 577.520569 265.738843 
L 579.331781 280.955869 
L 582.954205 314.885248 
L 584.765417 327.171849 
L 586.576629 332.785555 
L 588.387841 331.020239 
L 590.199052 325.72429 
L 592.010264 322.158351 
L 593.821476 324.806326 
L 595.632688 332.679636 
L 597.4439 339.634982 
L 599.255112 342.671326 
L 601.066324 339.246613 
L 602.877536 332.432492 
L 604.688747 326.077353 
L 606.499959 326.253885 
L 608.311171 331.337996 
L 610.122383 341.047235 
L 611.933595 346.837473 
L 613.744807 350.438718 
L 617.367231 345.884202 
L 619.178442 345.213382 
L 620.989654 347.649518 
L 622.800866 348.461564 
L 624.612078 347.543599 
L 626.42329 338.787631 
L 628.234502 327.101237 
L 630.045714 311.319309 
L 631.856925 298.4325 
L 633.668137 290.523883 
L 635.479349 281.979753 
L 637.290561 271.317242 
L 639.101773 256.629811 
L 640.912985 236.893575 
L 642.724197 219.875926 
L 644.535409 211.790777 
L 646.34662 204.906044 
L 648.157832 196.326607 
L 649.969044 179.697327 
L 651.780256 154.382692 
L 653.591468 125.890487 
L 655.40268 104.035871 
L 657.213892 95.456434 
L 659.025104 104.706692 
L 660.836315 117.946564 
L 662.647527 127.338046 
L 666.269951 143.578956 
L 668.081163 155.865557 
L 669.892375 174.754442 
L 671.703587 195.020273 
L 673.514799 210.237299 
L 675.32601 217.72224 
L 677.137222 216.062843 
L 678.948434 215.921617 
L 680.759646 221.252873 
L 682.570858 234.563357 
L 684.38207 251.792844 
L 686.193282 259.419011 
L 688.004494 258.112677 
L 691.626917 247.097103 
L 693.438129 250.451204 
L 695.249341 264.679653 
L 698.871765 301.89252 
L 700.682977 310.366038 
L 702.494189 313.402382 
L 704.3054 313.61422 
L 706.116612 315.979744 
L 707.927824 323.005703 
L 709.739036 331.373302 
L 711.550248 336.881089 
L 713.36146 336.951702 
L 715.172672 332.962087 
L 716.983884 329.996356 
L 718.795095 330.773095 
L 720.606307 336.987008 
L 722.417519 347.049311 
L 724.228731 355.840586 
L 726.039943 361.242454 
L 727.851155 363.502059 
L 729.662367 365.4086 
L 731.473579 369.53944 
L 733.28479 376.106417 
L 735.096002 383.202988 
L 736.907214 386.945459 
L 738.718426 386.062801 
L 740.529638 382.461555 
L 742.34085 378.260103 
L 744.152062 379.637049 
L 745.963273 388.640162 
L 747.774485 400.467781 
L 749.585697 408.764768 
L 751.396909 410.035796 
L 753.208121 403.115756 
L 755.019333 393.688967 
L 756.830545 386.627702 
L 758.641757 387.298522 
L 760.452968 394.359787 
L 762.26418 399.726349 
L 764.075392 398.278789 
L 765.886604 390.476091 
L 767.697816 378.471941 
L 769.509028 368.339025 
L 771.32024 363.713896 
L 773.131452 363.784509 
L 774.942663 365.373294 
L 776.753875 364.34941 
L 778.565087 360.289183 
L 780.376299 355.522829 
L 782.187511 353.545675 
L 783.998723 355.381604 
L 785.809935 359.053462 
L 787.621147 364.208185 
L 789.432358 366.044114 
L 791.24357 363.360833 
L 793.054782 359.653669 
L 794.865994 357.041001 
L 796.677206 357.252839 
L 798.488418 358.594479 
L 800.29963 357.041001 
L 802.110842 351.886277 
L 803.922053 342.24765 
L 805.733265 329.713905 
L 807.544477 319.157314 
L 809.355689 315.273618 
L 811.166901 315.803213 
L 812.978113 317.321385 
L 814.789325 315.026473 
L 816.600537 306.8001 
L 818.411748 294.513498 
L 820.22296 283.497925 
L 822.034172 279.014021 
L 823.845384 278.83749 
L 825.656596 279.331778 
L 827.467808 278.025444 
L 829.27902 269.163556 
L 831.090232 258.359821 
L 832.901443 250.698348 
L 834.712655 251.122024 
L 838.335079 263.973527 
L 840.146291 267.39824 
L 841.957503 267.11579 
L 843.768715 263.832301 
L 845.579927 265.880068 
L 847.391138 273.188478 
L 849.20235 285.792836 
L 851.013562 293.419002 
L 852.824774 292.818795 
L 854.635986 285.086709 
L 856.447198 271.24663 
L 858.25841 259.80738 
L 860.069621 255.500008 
L 861.880833 261.713922 
L 863.692045 267.468853 
L 865.503257 267.821916 
L 867.314469 261.608003 
L 870.936893 238.552972 
L 872.748105 235.551934 
L 874.559316 235.446015 
L 876.370528 238.411747 
L 878.18174 235.092952 
L 879.992952 227.466786 
L 881.804164 220.687971 
L 883.615376 221.605936 
L 885.426588 234.528051 
L 889.049011 264.008833 
L 890.860223 268.810493 
L 892.671435 269.79907 
L 894.482647 273.117865 
L 896.293859 271.070098 
L 898.105071 269.446007 
L 899.916283 269.198863 
L 901.727495 264.150058 
L 903.538706 260.336975 
L 905.349918 257.547775 
L 907.16113 259.489623 
L 908.972342 269.12825 
L 919.839613 321.840594 
L 921.650825 336.033737 
L 925.273249 359.93612 
L 927.084461 365.12615 
L 930.706885 366.644322 
L 932.518096 370.881081 
L 934.329308 378.648472 
L 936.14052 392.947534 
L 937.951732 404.775153 
L 939.762944 412.930914 
L 941.574156 414.908069 
L 945.19658 409.22375 
L 947.007791 408.976606 
L 948.819003 412.577851 
L 952.441427 426.064868 
L 954.252639 430.584077 
L 956.063851 432.490619 
L 957.875063 434.891449 
L 959.686275 439.481271 
L 963.308698 454.451153 
L 965.11991 460.312003 
L 966.931122 463.595492 
L 970.553546 467.691025 
L 972.364758 471.256964 
L 975.987181 479.589257 
L 977.798393 482.237232 
L 979.609605 483.755404 
L 981.420817 485.061738 
L 983.232029 486.544603 
L 985.043241 488.874821 
L 986.854453 491.628714 
L 988.665664 493.923625 
L 990.476876 495.441797 
L 992.288088 496.006699 
L 994.0993 496.253843 
L 997.721724 497.595483 
L 999.532936 498.725286 
L 1001.344148 499.3608 
L 1003.155359 499.043043 
L 1004.966571 497.489564 
L 1006.777783 494.523833 
L 1008.588995 490.534218 
L 1010.400207 485.626639 
L 1012.211419 478.635986 
L 1014.022631 467.055512 
L 1015.833843 447.460501 
L 1017.645054 417.838494 
L 1019.456266 373.599668 
L 1023.07869 275.589308 
L 1024.889902 240.071144 
L 1026.701114 215.60386 
L 1028.512326 200.069077 
L 1032.134749 171.894629 
L 1033.945961 156.289233 
L 1035.757173 148.451229 
L 1037.568385 156.183314 
L 1039.379597 179.803246 
L 1043.002021 242.542587 
L 1044.813233 270.575809 
L 1046.624444 293.560227 
L 1048.435656 313.967284 
L 1050.246868 331.867591 
L 1052.05808 351.109538 
L 1053.869292 365.232068 
L 1055.680504 376.565399 
L 1059.302928 391.888344 
L 1061.114139 401.738809 
L 1062.925351 413.954798 
L 1064.736563 423.769956 
L 1066.547775 429.630806 
L 1068.358987 428.959986 
L 1070.170199 425.923642 
L 1071.981411 423.310974 
L 1073.792623 424.476083 
L 1075.603834 428.818761 
L 1077.415046 434.891449 
L 1079.226258 439.198821 
L 1081.03747 439.622497 
L 1082.848682 437.821874 
L 1086.471106 433.126133 
L 1088.282318 431.819799 
L 1088.282318 431.819799 
" style="fill:none;stroke:#000000;stroke-linecap:square;stroke-width:1.5;"/>
   </g>
   <g id="patch_3">
    <path d="M 87.95 541.28 
L 87.95 37.72 
" style="fill:none;stroke:#555555;stroke-linecap:square;stroke-linejoin:miter;"/>
   </g>
   <g id="patch_4">
    <path d="M 87.95 541.28 
L 1135.91719 541.28 
" style="fill:none;stroke:#555555;stroke-linecap:square;stroke-linejoin:miter;"/>
   </g>
   <g id="text_28">
    <!-- Positive COVID-19 tests - last updated on 14 August 2021 -->
    <g style="fill:#555555;" transform="translate(351.909532 27.72)scale(0.18 -0.18)">
     <defs>
      <path d="M 1259 4147 
L 1259 2394 
L 2053 2394 
Q 2494 2394 2734 2622 
Q 2975 2850 2975 3272 
Q 2975 3691 2734 3919 
Q 2494 4147 2053 4147 
L 1259 4147 
z
M 628 4666 
L 2053 4666 
Q 2838 4666 3239 4311 
Q 3641 3956 3641 3272 
Q 3641 2581 3239 2228 
Q 2838 1875 2053 1875 
L 1259 1875 
L 1259 0 
L 628 0 
L 628 4666 
z
" id="DejaVuSans-50" transform="scale(0.015625)"/>
      <path d="M 1959 3097 
Q 1497 3097 1228 2736 
Q 959 2375 959 1747 
Q 959 1119 1226 758 
Q 1494 397 1959 397 
Q 2419 397 2687 759 
Q 2956 1122 2956 1747 
Q 2956 2369 2687 2733 
Q 2419 3097 1959 3097 
z
M 1959 3584 
Q 2709 3584 3137 3096 
Q 3566 2609 3566 1747 
Q 3566 888 3137 398 
Q 2709 -91 1959 -91 
Q 1206 -91 779 398 
Q 353 888 353 1747 
Q 353 2609 779 3096 
Q 1206 3584 1959 3584 
z
" id="DejaVuSans-6f" transform="scale(0.015625)"/>
      <path d="M 603 3500 
L 1178 3500 
L 1178 0 
L 603 0 
L 603 3500 
z
M 603 4863 
L 1178 4863 
L 1178 4134 
L 603 4134 
L 603 4863 
z
" id="DejaVuSans-69" transform="scale(0.015625)"/>
      <path d="M 1172 4494 
L 1172 3500 
L 2356 3500 
L 2356 3053 
L 1172 3053 
L 1172 1153 
Q 1172 725 1289 603 
Q 1406 481 1766 481 
L 2356 481 
L 2356 0 
L 1766 0 
Q 1100 0 847 248 
Q 594 497 594 1153 
L 594 3053 
L 172 3053 
L 172 3500 
L 594 3500 
L 594 4494 
L 1172 4494 
z
" id="DejaVuSans-74" transform="scale(0.015625)"/>
      <path d="M 191 3500 
L 800 3500 
L 1894 563 
L 2988 3500 
L 3597 3500 
L 2284 0 
L 1503 0 
L 191 3500 
z
" id="DejaVuSans-76" transform="scale(0.015625)"/>
      <path d="M 2522 4238 
Q 1834 4238 1429 3725 
Q 1025 3213 1025 2328 
Q 1025 1447 1429 934 
Q 1834 422 2522 422 
Q 3209 422 3611 934 
Q 4013 1447 4013 2328 
Q 4013 3213 3611 3725 
Q 3209 4238 2522 4238 
z
M 2522 4750 
Q 3503 4750 4090 4092 
Q 4678 3434 4678 2328 
Q 4678 1225 4090 567 
Q 3503 -91 2522 -91 
Q 1538 -91 948 565 
Q 359 1222 359 2328 
Q 359 3434 948 4092 
Q 1538 4750 2522 4750 
z
" id="DejaVuSans-4f" transform="scale(0.015625)"/>
      <path d="M 1831 0 
L 50 4666 
L 709 4666 
L 2188 738 
L 3669 4666 
L 4325 4666 
L 2547 0 
L 1831 0 
z
" id="DejaVuSans-56" transform="scale(0.015625)"/>
      <path d="M 628 4666 
L 1259 4666 
L 1259 0 
L 628 0 
L 628 4666 
z
" id="DejaVuSans-49" transform="scale(0.015625)"/>
      <path d="M 1259 4147 
L 1259 519 
L 2022 519 
Q 2988 519 3436 956 
Q 3884 1394 3884 2338 
Q 3884 3275 3436 3711 
Q 2988 4147 2022 4147 
L 1259 4147 
z
M 628 4666 
L 1925 4666 
Q 3281 4666 3915 4102 
Q 4550 3538 4550 2338 
Q 4550 1131 3912 565 
Q 3275 0 1925 0 
L 628 0 
L 628 4666 
z
" id="DejaVuSans-44" transform="scale(0.015625)"/>
      <path d="M 313 2009 
L 1997 2009 
L 1997 1497 
L 313 1497 
L 313 2009 
z
" id="DejaVuSans-2d" transform="scale(0.015625)"/>
      <path d="M 794 531 
L 1825 531 
L 1825 4091 
L 703 3866 
L 703 4441 
L 1819 4666 
L 2450 4666 
L 2450 531 
L 3481 531 
L 3481 0 
L 794 0 
L 794 531 
z
" id="DejaVuSans-31" transform="scale(0.015625)"/>
      <path d="M 703 97 
L 703 672 
Q 941 559 1184 500 
Q 1428 441 1663 441 
Q 2288 441 2617 861 
Q 2947 1281 2994 2138 
Q 2813 1869 2534 1725 
Q 2256 1581 1919 1581 
Q 1219 1581 811 2004 
Q 403 2428 403 3163 
Q 403 3881 828 4315 
Q 1253 4750 1959 4750 
Q 2769 4750 3195 4129 
Q 3622 3509 3622 2328 
Q 3622 1225 3098 567 
Q 2575 -91 1691 -91 
Q 1453 -91 1209 -44 
Q 966 3 703 97 
z
M 1959 2075 
Q 2384 2075 2632 2365 
Q 2881 2656 2881 3163 
Q 2881 3666 2632 3958 
Q 2384 4250 1959 4250 
Q 1534 4250 1286 3958 
Q 1038 3666 1038 3163 
Q 1038 2656 1286 2365 
Q 1534 2075 1959 2075 
z
" id="DejaVuSans-39" transform="scale(0.015625)"/>
      <path d="M 603 4863 
L 1178 4863 
L 1178 0 
L 603 0 
L 603 4863 
z
" id="DejaVuSans-6c" transform="scale(0.015625)"/>
      <path d="M 544 1381 
L 544 3500 
L 1119 3500 
L 1119 1403 
Q 1119 906 1312 657 
Q 1506 409 1894 409 
Q 2359 409 2629 706 
Q 2900 1003 2900 1516 
L 2900 3500 
L 3475 3500 
L 3475 0 
L 2900 0 
L 2900 538 
Q 2691 219 2414 64 
Q 2138 -91 1772 -91 
Q 1169 -91 856 284 
Q 544 659 544 1381 
z
M 1991 3584 
L 1991 3584 
z
" id="DejaVuSans-75" transform="scale(0.015625)"/>
      <path d="M 1159 525 
L 1159 -1331 
L 581 -1331 
L 581 3500 
L 1159 3500 
L 1159 2969 
Q 1341 3281 1617 3432 
Q 1894 3584 2278 3584 
Q 2916 3584 3314 3078 
Q 3713 2572 3713 1747 
Q 3713 922 3314 415 
Q 2916 -91 2278 -91 
Q 1894 -91 1617 61 
Q 1341 213 1159 525 
z
M 3116 1747 
Q 3116 2381 2855 2742 
Q 2594 3103 2138 3103 
Q 1681 3103 1420 2742 
Q 1159 2381 1159 1747 
Q 1159 1113 1420 752 
Q 1681 391 2138 391 
Q 2594 391 2855 752 
Q 3116 1113 3116 1747 
z
" id="DejaVuSans-70" transform="scale(0.015625)"/>
      <path d="M 2906 2969 
L 2906 4863 
L 3481 4863 
L 3481 0 
L 2906 0 
L 2906 525 
Q 2725 213 2448 61 
Q 2172 -91 1784 -91 
Q 1150 -91 751 415 
Q 353 922 353 1747 
Q 353 2572 751 3078 
Q 1150 3584 1784 3584 
Q 2172 3584 2448 3432 
Q 2725 3281 2906 2969 
z
M 947 1747 
Q 947 1113 1208 752 
Q 1469 391 1925 391 
Q 2381 391 2643 752 
Q 2906 1113 2906 1747 
Q 2906 2381 2643 2742 
Q 2381 3103 1925 3103 
Q 1469 3103 1208 2742 
Q 947 2381 947 1747 
z
" id="DejaVuSans-64" transform="scale(0.015625)"/>
      <path d="M 3513 2113 
L 3513 0 
L 2938 0 
L 2938 2094 
Q 2938 2591 2744 2837 
Q 2550 3084 2163 3084 
Q 1697 3084 1428 2787 
Q 1159 2491 1159 1978 
L 1159 0 
L 581 0 
L 581 3500 
L 1159 3500 
L 1159 2956 
Q 1366 3272 1645 3428 
Q 1925 3584 2291 3584 
Q 2894 3584 3203 3211 
Q 3513 2838 3513 2113 
z
" id="DejaVuSans-6e" transform="scale(0.015625)"/>
      <path d="M 2419 4116 
L 825 1625 
L 2419 1625 
L 2419 4116 
z
M 2253 4666 
L 3047 4666 
L 3047 1625 
L 3713 1625 
L 3713 1100 
L 3047 1100 
L 3047 0 
L 2419 0 
L 2419 1100 
L 313 1100 
L 313 1709 
L 2253 4666 
z
" id="DejaVuSans-34" transform="scale(0.015625)"/>
      <path d="M 2188 4044 
L 1331 1722 
L 3047 1722 
L 2188 4044 
z
M 1831 4666 
L 2547 4666 
L 4325 0 
L 3669 0 
L 3244 1197 
L 1141 1197 
L 716 0 
L 50 0 
L 1831 4666 
z
" id="DejaVuSans-41" transform="scale(0.015625)"/>
      <path d="M 2906 1791 
Q 2906 2416 2648 2759 
Q 2391 3103 1925 3103 
Q 1463 3103 1205 2759 
Q 947 2416 947 1791 
Q 947 1169 1205 825 
Q 1463 481 1925 481 
Q 2391 481 2648 825 
Q 2906 1169 2906 1791 
z
M 3481 434 
Q 3481 -459 3084 -895 
Q 2688 -1331 1869 -1331 
Q 1566 -1331 1297 -1286 
Q 1028 -1241 775 -1147 
L 775 -588 
Q 1028 -725 1275 -790 
Q 1522 -856 1778 -856 
Q 2344 -856 2625 -561 
Q 2906 -266 2906 331 
L 2906 616 
Q 2728 306 2450 153 
Q 2172 0 1784 0 
Q 1141 0 747 490 
Q 353 981 353 1791 
Q 353 2603 747 3093 
Q 1141 3584 1784 3584 
Q 2172 3584 2450 3431 
Q 2728 3278 2906 2969 
L 2906 3500 
L 3481 3500 
L 3481 434 
z
" id="DejaVuSans-67" transform="scale(0.015625)"/>
      <path d="M 1228 531 
L 3431 531 
L 3431 0 
L 469 0 
L 469 531 
Q 828 903 1448 1529 
Q 2069 2156 2228 2338 
Q 2531 2678 2651 2914 
Q 2772 3150 2772 3378 
Q 2772 3750 2511 3984 
Q 2250 4219 1831 4219 
Q 1534 4219 1204 4116 
Q 875 4013 500 3803 
L 500 4441 
Q 881 4594 1212 4672 
Q 1544 4750 1819 4750 
Q 2544 4750 2975 4387 
Q 3406 4025 3406 3419 
Q 3406 3131 3298 2873 
Q 3191 2616 2906 2266 
Q 2828 2175 2409 1742 
Q 1991 1309 1228 531 
z
" id="DejaVuSans-32" transform="scale(0.015625)"/>
      <path d="M 2034 4250 
Q 1547 4250 1301 3770 
Q 1056 3291 1056 2328 
Q 1056 1369 1301 889 
Q 1547 409 2034 409 
Q 2525 409 2770 889 
Q 3016 1369 3016 2328 
Q 3016 3291 2770 3770 
Q 2525 4250 2034 4250 
z
M 2034 4750 
Q 2819 4750 3233 4129 
Q 3647 3509 3647 2328 
Q 3647 1150 3233 529 
Q 2819 -91 2034 -91 
Q 1250 -91 836 529 
Q 422 1150 422 2328 
Q 422 3509 836 4129 
Q 1250 4750 2034 4750 
z
" id="DejaVuSans-30" transform="scale(0.015625)"/>
     </defs>
     <use xlink:href="#DejaVuSans-50"/>
     <use x="56.677734" xlink:href="#DejaVuSans-6f"/>
     <use x="117.859375" xlink:href="#DejaVuSans-73"/>
     <use x="169.958984" xlink:href="#DejaVuSans-69"/>
     <use x="197.742188" xlink:href="#DejaVuSans-74"/>
     <use x="236.951172" xlink:href="#DejaVuSans-69"/>
     <use x="264.734375" xlink:href="#DejaVuSans-76"/>
     <use x="323.914062" xlink:href="#DejaVuSans-65"/>
     <use x="385.4375" xlink:href="#DejaVuSans-20"/>
     <use x="417.224609" xlink:href="#DejaVuSans-43"/>
     <use x="487.048828" xlink:href="#DejaVuSans-4f"/>
     <use x="564.009766" xlink:href="#DejaVuSans-56"/>
     <use x="632.417969" xlink:href="#DejaVuSans-49"/>
     <use x="661.910156" xlink:href="#DejaVuSans-44"/>
     <use x="738.912109" xlink:href="#DejaVuSans-2d"/>
     <use x="774.996094" xlink:href="#DejaVuSans-31"/>
     <use x="838.619141" xlink:href="#DejaVuSans-39"/>
     <use x="902.242188" xlink:href="#DejaVuSans-20"/>
     <use x="934.029297" xlink:href="#DejaVuSans-74"/>
     <use x="973.238281" xlink:href="#DejaVuSans-65"/>
     <use x="1034.761719" xlink:href="#DejaVuSans-73"/>
     <use x="1086.861328" xlink:href="#DejaVuSans-74"/>
     <use x="1126.070312" xlink:href="#DejaVuSans-73"/>
     <use x="1178.169922" xlink:href="#DejaVuSans-20"/>
     <use x="1209.957031" xlink:href="#DejaVuSans-2d"/>
     <use x="1246.041016" xlink:href="#DejaVuSans-20"/>
     <use x="1277.828125" xlink:href="#DejaVuSans-6c"/>
     <use x="1305.611328" xlink:href="#DejaVuSans-61"/>
     <use x="1366.890625" xlink:href="#DejaVuSans-73"/>
     <use x="1418.990234" xlink:href="#DejaVuSans-74"/>
     <use x="1458.199219" xlink:href="#DejaVuSans-20"/>
     <use x="1489.986328" xlink:href="#DejaVuSans-75"/>
     <use x="1553.365234" xlink:href="#DejaVuSans-70"/>
     <use x="1616.841797" xlink:href="#DejaVuSans-64"/>
     <use x="1680.318359" xlink:href="#DejaVuSans-61"/>
     <use x="1741.597656" xlink:href="#DejaVuSans-74"/>
     <use x="1780.806641" xlink:href="#DejaVuSans-65"/>
     <use x="1842.330078" xlink:href="#DejaVuSans-64"/>
     <use x="1905.806641" xlink:href="#DejaVuSans-20"/>
     <use x="1937.59375" xlink:href="#DejaVuSans-6f"/>
     <use x="1998.775391" xlink:href="#DejaVuSans-6e"/>
     <use x="2062.154297" xlink:href="#DejaVuSans-20"/>
     <use x="2093.941406" xlink:href="#DejaVuSans-31"/>
     <use x="2157.564453" xlink:href="#DejaVuSans-34"/>
     <use x="2221.1875" xlink:href="#DejaVuSans-20"/>
     <use x="2252.974609" xlink:href="#DejaVuSans-41"/>
     <use x="2321.382812" xlink:href="#DejaVuSans-75"/>
     <use x="2384.761719" xlink:href="#DejaVuSans-67"/>
     <use x="2448.238281" xlink:href="#DejaVuSans-75"/>
     <use x="2511.617188" xlink:href="#DejaVuSans-73"/>
     <use x="2563.716797" xlink:href="#DejaVuSans-74"/>
     <use x="2602.925781" xlink:href="#DejaVuSans-20"/>
     <use x="2634.712891" xlink:href="#DejaVuSans-32"/>
     <use x="2698.335938" xlink:href="#DejaVuSans-30"/>
     <use x="2761.958984" xlink:href="#DejaVuSans-32"/>
     <use x="2825.582031" xlink:href="#DejaVuSans-31"/>
    </g>
   </g>
   <g id="legend_1">
    <g id="line2d_29">
     <path d="M 1013.455159 54.747969 
L 1039.455159 54.747969 
" style="fill:none;stroke:#000000;stroke-dasharray:1.5,2.475;stroke-dashoffset:0;stroke-opacity:0.5;stroke-width:1.5;"/>
    </g>
    <g id="line2d_30"/>
    <g id="text_29">
     <!-- Actual -->
     <g style="fill:#555555;" transform="translate(1049.855159 59.297969)scale(0.13 -0.13)">
      <use xlink:href="#DejaVuSans-Bold-41"/>
      <use x="77.392578" xlink:href="#DejaVuSans-Bold-63"/>
      <use x="136.669922" xlink:href="#DejaVuSans-Bold-74"/>
      <use x="184.472656" xlink:href="#DejaVuSans-Bold-75"/>
      <use x="255.664062" xlink:href="#DejaVuSans-Bold-61"/>
      <use x="323.144531" xlink:href="#DejaVuSans-Bold-6c"/>
     </g>
    </g>
    <g id="line2d_31">
     <path d="M 1013.455159 73.829531 
L 1039.455159 73.829531 
" style="fill:none;stroke:#000000;stroke-linecap:square;stroke-width:1.5;"/>
    </g>
    <g id="line2d_32"/>
    <g id="text_30">
     <!-- Smoothed -->
     <g style="fill:#555555;" transform="translate(1049.855159 78.379531)scale(0.13 -0.13)">
      <defs>
       <path d="M 3781 2919 
Q 3994 3244 4286 3414 
Q 4578 3584 4928 3584 
Q 5531 3584 5847 3212 
Q 6163 2841 6163 2131 
L 6163 0 
L 5038 0 
L 5038 1825 
Q 5041 1866 5042 1909 
Q 5044 1953 5044 2034 
Q 5044 2406 4934 2573 
Q 4825 2741 4581 2741 
Q 4263 2741 4089 2478 
Q 3916 2216 3909 1719 
L 3909 0 
L 2784 0 
L 2784 1825 
Q 2784 2406 2684 2573 
Q 2584 2741 2328 2741 
Q 2006 2741 1831 2477 
Q 1656 2213 1656 1722 
L 1656 0 
L 531 0 
L 531 3500 
L 1656 3500 
L 1656 2988 
Q 1863 3284 2130 3434 
Q 2397 3584 2719 3584 
Q 3081 3584 3359 3409 
Q 3638 3234 3781 2919 
z
" id="DejaVuSans-Bold-6d" transform="scale(0.015625)"/>
       <path d="M 4056 2131 
L 4056 0 
L 2931 0 
L 2931 347 
L 2931 1625 
Q 2931 2084 2911 2256 
Q 2891 2428 2841 2509 
Q 2775 2619 2662 2680 
Q 2550 2741 2406 2741 
Q 2056 2741 1856 2470 
Q 1656 2200 1656 1722 
L 1656 0 
L 538 0 
L 538 4863 
L 1656 4863 
L 1656 2988 
Q 1909 3294 2193 3439 
Q 2478 3584 2822 3584 
Q 3428 3584 3742 3212 
Q 4056 2841 4056 2131 
z
" id="DejaVuSans-Bold-68" transform="scale(0.015625)"/>
       <path d="M 2919 2988 
L 2919 4863 
L 4044 4863 
L 4044 0 
L 2919 0 
L 2919 506 
Q 2688 197 2409 53 
Q 2131 -91 1766 -91 
Q 1119 -91 703 423 
Q 288 938 288 1747 
Q 288 2556 703 3070 
Q 1119 3584 1766 3584 
Q 2128 3584 2408 3439 
Q 2688 3294 2919 2988 
z
M 2181 722 
Q 2541 722 2730 984 
Q 2919 1247 2919 1747 
Q 2919 2247 2730 2509 
Q 2541 2772 2181 2772 
Q 1825 2772 1636 2509 
Q 1447 2247 1447 1747 
Q 1447 1247 1636 984 
Q 1825 722 2181 722 
z
" id="DejaVuSans-Bold-64" transform="scale(0.015625)"/>
      </defs>
      <use xlink:href="#DejaVuSans-Bold-53"/>
      <use x="72.021484" xlink:href="#DejaVuSans-Bold-6d"/>
      <use x="176.220703" xlink:href="#DejaVuSans-Bold-6f"/>
      <use x="244.921875" xlink:href="#DejaVuSans-Bold-6f"/>
      <use x="313.623047" xlink:href="#DejaVuSans-Bold-74"/>
      <use x="361.425781" xlink:href="#DejaVuSans-Bold-68"/>
      <use x="432.617188" xlink:href="#DejaVuSans-Bold-65"/>
      <use x="500.439453" xlink:href="#DejaVuSans-Bold-64"/>
     </g>
    </g>
   </g>
  </g>
 </g>
 <defs>
  <clipPath id="pfc152d32b8">
   <rect height="503.56" width="1047.96719" x="87.95" y="37.72"/>
  </clipPath>
 </defs>
</svg>
