<?xml version="1.0" encoding="utf-8" standalone="no"?>
<!DOCTYPE svg PUBLIC "-//W3C//DTD SVG 1.1//EN"
  "http://www.w3.org/Graphics/SVG/1.1/DTD/svg11.dtd">
<svg xmlns:xlink="http://www.w3.org/1999/xlink" width="1152pt" height="576pt" viewBox="0 0 1152 576" xmlns="http://www.w3.org/2000/svg" version="1.1">
 <metadata>
  <rdf:RDF xmlns:dc="http://purl.org/dc/elements/1.1/" xmlns:cc="http://creativecommons.org/ns#" xmlns:rdf="http://www.w3.org/1999/02/22-rdf-syntax-ns#">
   <cc:Work>
    <dc:type rdf:resource="http://purl.org/dc/dcmitype/StillImage"/>
    <dc:date>2022-01-12T15:27:55.275876</dc:date>
    <dc:format>image/svg+xml</dc:format>
    <dc:creator>
     <cc:Agent>
      <dc:title>Matplotlib v3.5.1, https://matplotlib.org/</dc:title>
     </cc:Agent>
    </dc:creator>
   </cc:Work>
  </rdf:RDF>
 </metadata>
 <defs>
  <style type="text/css">*{stroke-linejoin: round; stroke-linecap: butt}</style>
 </defs>
 <g id="figure_1">
  <g id="patch_1">
   <path d="M 0 576 
L 1152 576 
L 1152 0 
L 0 0 
z
" style="fill: #ffffff"/>
  </g>
  <g id="axes_1">
   <g id="patch_2">
    <path d="M 87.95 541.28 
L 1137.96 541.28 
L 1137.96 37.72 
L 87.95 37.72 
z
" style="fill: #ffffff"/>
   </g>
   <g id="matplotlib.axis_1">
    <g id="xtick_1">
     <g id="line2d_1">
      <defs>
       <path id="m7bf1dbf43e" d="M 0 0 
L 0 3.5 
" style="stroke: #555555; stroke-width: 0.8"/>
      </defs>
      <g>
       <use xlink:href="#m7bf1dbf43e" x="128.627841" y="541.28" style="fill: #555555; stroke: #555555; stroke-width: 0.8"/>
      </g>
     </g>
     <g id="text_1">
      <!-- Mar -->
      <g style="fill: #555555" transform="translate(113.485966 558.917812)scale(0.14 -0.14)">
       <defs>
        <path id="DejaVuSans-Bold-4d" d="M 588 4666 
L 2119 4666 
L 3181 2169 
L 4250 4666 
L 5778 4666 
L 5778 0 
L 4641 0 
L 4641 3413 
L 3566 897 
L 2803 897 
L 1728 3413 
L 1728 0 
L 588 0 
L 588 4666 
z
" transform="scale(0.015625)"/>
        <path id="DejaVuSans-Bold-61" d="M 2106 1575 
Q 1756 1575 1579 1456 
Q 1403 1338 1403 1106 
Q 1403 894 1545 773 
Q 1688 653 1941 653 
Q 2256 653 2472 879 
Q 2688 1106 2688 1447 
L 2688 1575 
L 2106 1575 
z
M 3816 1997 
L 3816 0 
L 2688 0 
L 2688 519 
Q 2463 200 2181 54 
Q 1900 -91 1497 -91 
Q 953 -91 614 226 
Q 275 544 275 1050 
Q 275 1666 698 1953 
Q 1122 2241 2028 2241 
L 2688 2241 
L 2688 2328 
Q 2688 2594 2478 2717 
Q 2269 2841 1825 2841 
Q 1466 2841 1156 2769 
Q 847 2697 581 2553 
L 581 3406 
Q 941 3494 1303 3539 
Q 1666 3584 2028 3584 
Q 2975 3584 3395 3211 
Q 3816 2838 3816 1997 
z
" transform="scale(0.015625)"/>
        <path id="DejaVuSans-Bold-72" d="M 3138 2547 
Q 2991 2616 2845 2648 
Q 2700 2681 2553 2681 
Q 2122 2681 1889 2404 
Q 1656 2128 1656 1613 
L 1656 0 
L 538 0 
L 538 3500 
L 1656 3500 
L 1656 2925 
Q 1872 3269 2151 3426 
Q 2431 3584 2822 3584 
Q 2878 3584 2943 3579 
Q 3009 3575 3134 3559 
L 3138 2547 
z
" transform="scale(0.015625)"/>
       </defs>
       <use xlink:href="#DejaVuSans-Bold-4d"/>
       <use xlink:href="#DejaVuSans-Bold-61" x="99.511719"/>
       <use xlink:href="#DejaVuSans-Bold-72" x="166.992188"/>
      </g>
     </g>
    </g>
    <g id="xtick_2">
     <g id="line2d_2">
      <g>
       <use xlink:href="#m7bf1dbf43e" x="172.337134" y="541.28" style="fill: #555555; stroke: #555555; stroke-width: 0.8"/>
      </g>
     </g>
     <g id="text_2">
      <!-- Apr -->
      <g style="fill: #555555" transform="translate(158.457446 558.917812)scale(0.14 -0.14)">
       <defs>
        <path id="DejaVuSans-Bold-41" d="M 3419 850 
L 1538 850 
L 1241 0 
L 31 0 
L 1759 4666 
L 3194 4666 
L 4922 0 
L 3713 0 
L 3419 850 
z
M 1838 1716 
L 3116 1716 
L 2478 3572 
L 1838 1716 
z
" transform="scale(0.015625)"/>
        <path id="DejaVuSans-Bold-70" d="M 1656 506 
L 1656 -1331 
L 538 -1331 
L 538 3500 
L 1656 3500 
L 1656 2988 
Q 1888 3294 2169 3439 
Q 2450 3584 2816 3584 
Q 3463 3584 3878 3070 
Q 4294 2556 4294 1747 
Q 4294 938 3878 423 
Q 3463 -91 2816 -91 
Q 2450 -91 2169 54 
Q 1888 200 1656 506 
z
M 2400 2772 
Q 2041 2772 1848 2508 
Q 1656 2244 1656 1747 
Q 1656 1250 1848 986 
Q 2041 722 2400 722 
Q 2759 722 2948 984 
Q 3138 1247 3138 1747 
Q 3138 2247 2948 2509 
Q 2759 2772 2400 2772 
z
" transform="scale(0.015625)"/>
       </defs>
       <use xlink:href="#DejaVuSans-Bold-41"/>
       <use xlink:href="#DejaVuSans-Bold-70" x="77.392578"/>
       <use xlink:href="#DejaVuSans-Bold-72" x="148.974609"/>
      </g>
     </g>
    </g>
    <g id="xtick_3">
     <g id="line2d_3">
      <g>
       <use xlink:href="#m7bf1dbf43e" x="214.636449" y="541.28" style="fill: #555555; stroke: #555555; stroke-width: 0.8"/>
      </g>
     </g>
     <g id="text_3">
      <!-- May -->
      <g style="fill: #555555" transform="translate(198.602074 558.808437)scale(0.14 -0.14)">
       <defs>
        <path id="DejaVuSans-Bold-79" d="M 78 3500 
L 1197 3500 
L 2138 1125 
L 2938 3500 
L 4056 3500 
L 2584 -331 
Q 2363 -916 2067 -1148 
Q 1772 -1381 1288 -1381 
L 641 -1381 
L 641 -647 
L 991 -647 
Q 1275 -647 1404 -556 
Q 1534 -466 1606 -231 
L 1638 -134 
L 78 3500 
z
" transform="scale(0.015625)"/>
       </defs>
       <use xlink:href="#DejaVuSans-Bold-4d"/>
       <use xlink:href="#DejaVuSans-Bold-61" x="99.511719"/>
       <use xlink:href="#DejaVuSans-Bold-79" x="163.867188"/>
      </g>
     </g>
    </g>
    <g id="xtick_4">
     <g id="line2d_4">
      <g>
       <use xlink:href="#m7bf1dbf43e" x="258.345741" y="541.28" style="fill: #555555; stroke: #555555; stroke-width: 0.8"/>
      </g>
     </g>
     <g id="text_4">
      <!-- Jun -->
      <g style="fill: #555555" transform="translate(245.775272 558.917812)scale(0.14 -0.14)">
       <defs>
        <path id="DejaVuSans-Bold-4a" d="M 588 4666 
L 1791 4666 
L 1791 453 
Q 1791 -419 1317 -850 
Q 844 -1281 -116 -1281 
L -359 -1281 
L -359 -372 
L -172 -372 
Q 203 -372 395 -162 
Q 588 47 588 453 
L 588 4666 
z
" transform="scale(0.015625)"/>
        <path id="DejaVuSans-Bold-75" d="M 500 1363 
L 500 3500 
L 1625 3500 
L 1625 3150 
Q 1625 2866 1622 2436 
Q 1619 2006 1619 1863 
Q 1619 1441 1641 1255 
Q 1663 1069 1716 984 
Q 1784 875 1895 815 
Q 2006 756 2150 756 
Q 2500 756 2700 1025 
Q 2900 1294 2900 1772 
L 2900 3500 
L 4019 3500 
L 4019 0 
L 2900 0 
L 2900 506 
Q 2647 200 2364 54 
Q 2081 -91 1741 -91 
Q 1134 -91 817 281 
Q 500 653 500 1363 
z
" transform="scale(0.015625)"/>
        <path id="DejaVuSans-Bold-6e" d="M 4056 2131 
L 4056 0 
L 2931 0 
L 2931 347 
L 2931 1631 
Q 2931 2084 2911 2256 
Q 2891 2428 2841 2509 
Q 2775 2619 2662 2680 
Q 2550 2741 2406 2741 
Q 2056 2741 1856 2470 
Q 1656 2200 1656 1722 
L 1656 0 
L 538 0 
L 538 3500 
L 1656 3500 
L 1656 2988 
Q 1909 3294 2193 3439 
Q 2478 3584 2822 3584 
Q 3428 3584 3742 3212 
Q 4056 2841 4056 2131 
z
" transform="scale(0.015625)"/>
       </defs>
       <use xlink:href="#DejaVuSans-Bold-4a"/>
       <use xlink:href="#DejaVuSans-Bold-75" x="37.207031"/>
       <use xlink:href="#DejaVuSans-Bold-6e" x="108.398438"/>
      </g>
     </g>
    </g>
    <g id="xtick_5">
     <g id="line2d_5">
      <g>
       <use xlink:href="#m7bf1dbf43e" x="300.645056" y="541.28" style="fill: #555555; stroke: #555555; stroke-width: 0.8"/>
      </g>
     </g>
     <g id="text_5">
      <!-- Jul -->
      <g style="fill: #555555" transform="translate(290.658025 558.917812)scale(0.14 -0.14)">
       <defs>
        <path id="DejaVuSans-Bold-6c" d="M 538 4863 
L 1656 4863 
L 1656 0 
L 538 0 
L 538 4863 
z
" transform="scale(0.015625)"/>
       </defs>
       <use xlink:href="#DejaVuSans-Bold-4a"/>
       <use xlink:href="#DejaVuSans-Bold-75" x="37.207031"/>
       <use xlink:href="#DejaVuSans-Bold-6c" x="108.398438"/>
      </g>
     </g>
    </g>
    <g id="xtick_6">
     <g id="line2d_6">
      <g>
       <use xlink:href="#m7bf1dbf43e" x="344.354349" y="541.28" style="fill: #555555; stroke: #555555; stroke-width: 0.8"/>
      </g>
     </g>
     <g id="text_6">
      <!-- Aug -->
      <g style="fill: #555555" transform="translate(328.943411 558.808437)scale(0.14 -0.14)">
       <defs>
        <path id="DejaVuSans-Bold-67" d="M 2919 594 
Q 2688 288 2409 144 
Q 2131 0 1766 0 
Q 1125 0 706 504 
Q 288 1009 288 1791 
Q 288 2575 706 3076 
Q 1125 3578 1766 3578 
Q 2131 3578 2409 3434 
Q 2688 3291 2919 2981 
L 2919 3500 
L 4044 3500 
L 4044 353 
Q 4044 -491 3511 -936 
Q 2978 -1381 1966 -1381 
Q 1638 -1381 1331 -1331 
Q 1025 -1281 716 -1178 
L 716 -306 
Q 1009 -475 1290 -558 
Q 1572 -641 1856 -641 
Q 2406 -641 2662 -400 
Q 2919 -159 2919 353 
L 2919 594 
z
M 2181 2772 
Q 1834 2772 1640 2515 
Q 1447 2259 1447 1791 
Q 1447 1309 1634 1061 
Q 1822 813 2181 813 
Q 2531 813 2725 1069 
Q 2919 1325 2919 1791 
Q 2919 2259 2725 2515 
Q 2531 2772 2181 2772 
z
" transform="scale(0.015625)"/>
       </defs>
       <use xlink:href="#DejaVuSans-Bold-41"/>
       <use xlink:href="#DejaVuSans-Bold-75" x="77.392578"/>
       <use xlink:href="#DejaVuSans-Bold-67" x="148.583984"/>
      </g>
     </g>
    </g>
    <g id="xtick_7">
     <g id="line2d_7">
      <g>
       <use xlink:href="#m7bf1dbf43e" x="388.063641" y="541.28" style="fill: #555555; stroke: #555555; stroke-width: 0.8"/>
      </g>
     </g>
     <g id="text_7">
      <!-- Sep -->
      <g style="fill: #555555" transform="translate(373.26411 558.917812)scale(0.14 -0.14)">
       <defs>
        <path id="DejaVuSans-Bold-53" d="M 3834 4519 
L 3834 3531 
Q 3450 3703 3084 3790 
Q 2719 3878 2394 3878 
Q 1963 3878 1756 3759 
Q 1550 3641 1550 3391 
Q 1550 3203 1689 3098 
Q 1828 2994 2194 2919 
L 2706 2816 
Q 3484 2659 3812 2340 
Q 4141 2022 4141 1434 
Q 4141 663 3683 286 
Q 3225 -91 2284 -91 
Q 1841 -91 1394 -6 
Q 947 78 500 244 
L 500 1259 
Q 947 1022 1364 901 
Q 1781 781 2169 781 
Q 2563 781 2772 912 
Q 2981 1044 2981 1288 
Q 2981 1506 2839 1625 
Q 2697 1744 2272 1838 
L 1806 1941 
Q 1106 2091 782 2419 
Q 459 2747 459 3303 
Q 459 4000 909 4375 
Q 1359 4750 2203 4750 
Q 2588 4750 2994 4692 
Q 3400 4634 3834 4519 
z
" transform="scale(0.015625)"/>
        <path id="DejaVuSans-Bold-65" d="M 4031 1759 
L 4031 1441 
L 1416 1441 
Q 1456 1047 1700 850 
Q 1944 653 2381 653 
Q 2734 653 3104 758 
Q 3475 863 3866 1075 
L 3866 213 
Q 3469 63 3072 -14 
Q 2675 -91 2278 -91 
Q 1328 -91 801 392 
Q 275 875 275 1747 
Q 275 2603 792 3093 
Q 1309 3584 2216 3584 
Q 3041 3584 3536 3087 
Q 4031 2591 4031 1759 
z
M 2881 2131 
Q 2881 2450 2695 2645 
Q 2509 2841 2209 2841 
Q 1884 2841 1681 2658 
Q 1478 2475 1428 2131 
L 2881 2131 
z
" transform="scale(0.015625)"/>
       </defs>
       <use xlink:href="#DejaVuSans-Bold-53"/>
       <use xlink:href="#DejaVuSans-Bold-65" x="72.021484"/>
       <use xlink:href="#DejaVuSans-Bold-70" x="139.84375"/>
      </g>
     </g>
    </g>
    <g id="xtick_8">
     <g id="line2d_8">
      <g>
       <use xlink:href="#m7bf1dbf43e" x="430.362956" y="541.28" style="fill: #555555; stroke: #555555; stroke-width: 0.8"/>
      </g>
     </g>
     <g id="text_8">
      <!-- Oct -->
      <g style="fill: #555555" transform="translate(416.916394 558.917812)scale(0.14 -0.14)">
       <defs>
        <path id="DejaVuSans-Bold-4f" d="M 2719 3878 
Q 2169 3878 1866 3472 
Q 1563 3066 1563 2328 
Q 1563 1594 1866 1187 
Q 2169 781 2719 781 
Q 3272 781 3575 1187 
Q 3878 1594 3878 2328 
Q 3878 3066 3575 3472 
Q 3272 3878 2719 3878 
z
M 2719 4750 
Q 3844 4750 4481 4106 
Q 5119 3463 5119 2328 
Q 5119 1197 4481 553 
Q 3844 -91 2719 -91 
Q 1597 -91 958 553 
Q 319 1197 319 2328 
Q 319 3463 958 4106 
Q 1597 4750 2719 4750 
z
" transform="scale(0.015625)"/>
        <path id="DejaVuSans-Bold-63" d="M 3366 3391 
L 3366 2478 
Q 3138 2634 2908 2709 
Q 2678 2784 2431 2784 
Q 1963 2784 1702 2511 
Q 1441 2238 1441 1747 
Q 1441 1256 1702 982 
Q 1963 709 2431 709 
Q 2694 709 2930 787 
Q 3166 866 3366 1019 
L 3366 103 
Q 3103 6 2833 -42 
Q 2563 -91 2291 -91 
Q 1344 -91 809 395 
Q 275 881 275 1747 
Q 275 2613 809 3098 
Q 1344 3584 2291 3584 
Q 2566 3584 2833 3536 
Q 3100 3488 3366 3391 
z
" transform="scale(0.015625)"/>
        <path id="DejaVuSans-Bold-74" d="M 1759 4494 
L 1759 3500 
L 2913 3500 
L 2913 2700 
L 1759 2700 
L 1759 1216 
Q 1759 972 1856 886 
Q 1953 800 2241 800 
L 2816 800 
L 2816 0 
L 1856 0 
Q 1194 0 917 276 
Q 641 553 641 1216 
L 641 2700 
L 84 2700 
L 84 3500 
L 641 3500 
L 641 4494 
L 1759 4494 
z
" transform="scale(0.015625)"/>
       </defs>
       <use xlink:href="#DejaVuSans-Bold-4f"/>
       <use xlink:href="#DejaVuSans-Bold-63" x="85.009766"/>
       <use xlink:href="#DejaVuSans-Bold-74" x="144.287109"/>
      </g>
     </g>
    </g>
    <g id="xtick_9">
     <g id="line2d_9">
      <g>
       <use xlink:href="#m7bf1dbf43e" x="474.072249" y="541.28" style="fill: #555555; stroke: #555555; stroke-width: 0.8"/>
      </g>
     </g>
     <g id="text_9">
      <!-- Nov -->
      <g style="fill: #555555" transform="translate(458.84178 558.917812)scale(0.14 -0.14)">
       <defs>
        <path id="DejaVuSans-Bold-4e" d="M 588 4666 
L 1931 4666 
L 3628 1466 
L 3628 4666 
L 4769 4666 
L 4769 0 
L 3425 0 
L 1728 3200 
L 1728 0 
L 588 0 
L 588 4666 
z
" transform="scale(0.015625)"/>
        <path id="DejaVuSans-Bold-6f" d="M 2203 2784 
Q 1831 2784 1636 2517 
Q 1441 2250 1441 1747 
Q 1441 1244 1636 976 
Q 1831 709 2203 709 
Q 2569 709 2762 976 
Q 2956 1244 2956 1747 
Q 2956 2250 2762 2517 
Q 2569 2784 2203 2784 
z
M 2203 3584 
Q 3106 3584 3614 3096 
Q 4122 2609 4122 1747 
Q 4122 884 3614 396 
Q 3106 -91 2203 -91 
Q 1297 -91 786 396 
Q 275 884 275 1747 
Q 275 2609 786 3096 
Q 1297 3584 2203 3584 
z
" transform="scale(0.015625)"/>
        <path id="DejaVuSans-Bold-76" d="M 97 3500 
L 1216 3500 
L 2088 1081 
L 2956 3500 
L 4078 3500 
L 2700 0 
L 1472 0 
L 97 3500 
z
" transform="scale(0.015625)"/>
       </defs>
       <use xlink:href="#DejaVuSans-Bold-4e"/>
       <use xlink:href="#DejaVuSans-Bold-6f" x="83.691406"/>
       <use xlink:href="#DejaVuSans-Bold-76" x="152.392578"/>
      </g>
     </g>
    </g>
    <g id="xtick_10">
     <g id="line2d_10">
      <g>
       <use xlink:href="#m7bf1dbf43e" x="516.371564" y="541.28" style="fill: #555555; stroke: #555555; stroke-width: 0.8"/>
      </g>
     </g>
     <g id="text_10">
      <!-- Dec -->
      <g style="fill: #555555" transform="translate(501.662814 558.917812)scale(0.14 -0.14)">
       <defs>
        <path id="DejaVuSans-Bold-44" d="M 1791 3756 
L 1791 909 
L 2222 909 
Q 2959 909 3348 1275 
Q 3738 1641 3738 2338 
Q 3738 3031 3350 3393 
Q 2963 3756 2222 3756 
L 1791 3756 
z
M 588 4666 
L 1856 4666 
Q 2919 4666 3439 4514 
Q 3959 4363 4331 4000 
Q 4659 3684 4818 3271 
Q 4978 2859 4978 2338 
Q 4978 1809 4818 1395 
Q 4659 981 4331 666 
Q 3956 303 3431 151 
Q 2906 0 1856 0 
L 588 0 
L 588 4666 
z
" transform="scale(0.015625)"/>
       </defs>
       <use xlink:href="#DejaVuSans-Bold-44"/>
       <use xlink:href="#DejaVuSans-Bold-65" x="83.007812"/>
       <use xlink:href="#DejaVuSans-Bold-63" x="150.830078"/>
      </g>
     </g>
    </g>
    <g id="xtick_11">
     <g id="line2d_11">
      <g>
       <use xlink:href="#m7bf1dbf43e" x="560.080856" y="541.28" style="fill: #555555; stroke: #555555; stroke-width: 0.8"/>
      </g>
     </g>
     <g id="text_11">
      <!-- Jan -->
      <g style="fill: #555555" transform="translate(547.769606 558.917812)scale(0.14 -0.14)">
       <use xlink:href="#DejaVuSans-Bold-4a"/>
       <use xlink:href="#DejaVuSans-Bold-61" x="37.207031"/>
       <use xlink:href="#DejaVuSans-Bold-6e" x="104.6875"/>
      </g>
     </g>
    </g>
    <g id="xtick_12">
     <g id="line2d_12">
      <g>
       <use xlink:href="#m7bf1dbf43e" x="603.790148" y="541.28" style="fill: #555555; stroke: #555555; stroke-width: 0.8"/>
      </g>
     </g>
     <g id="text_12">
      <!-- Feb -->
      <g style="fill: #555555" transform="translate(589.529836 558.917812)scale(0.14 -0.14)">
       <defs>
        <path id="DejaVuSans-Bold-46" d="M 588 4666 
L 3834 4666 
L 3834 3756 
L 1791 3756 
L 1791 2888 
L 3713 2888 
L 3713 1978 
L 1791 1978 
L 1791 0 
L 588 0 
L 588 4666 
z
" transform="scale(0.015625)"/>
        <path id="DejaVuSans-Bold-62" d="M 2400 722 
Q 2759 722 2948 984 
Q 3138 1247 3138 1747 
Q 3138 2247 2948 2509 
Q 2759 2772 2400 2772 
Q 2041 2772 1848 2508 
Q 1656 2244 1656 1747 
Q 1656 1250 1848 986 
Q 2041 722 2400 722 
z
M 1656 2988 
Q 1888 3294 2169 3439 
Q 2450 3584 2816 3584 
Q 3463 3584 3878 3070 
Q 4294 2556 4294 1747 
Q 4294 938 3878 423 
Q 3463 -91 2816 -91 
Q 2450 -91 2169 54 
Q 1888 200 1656 506 
L 1656 0 
L 538 0 
L 538 4863 
L 1656 4863 
L 1656 2988 
z
" transform="scale(0.015625)"/>
       </defs>
       <use xlink:href="#DejaVuSans-Bold-46"/>
       <use xlink:href="#DejaVuSans-Bold-65" x="64.310547"/>
       <use xlink:href="#DejaVuSans-Bold-62" x="132.132812"/>
      </g>
     </g>
    </g>
    <g id="xtick_13">
     <g id="line2d_13">
      <g>
       <use xlink:href="#m7bf1dbf43e" x="643.269509" y="541.28" style="fill: #555555; stroke: #555555; stroke-width: 0.8"/>
      </g>
     </g>
     <g id="text_13">
      <!-- Mar -->
      <g style="fill: #555555" transform="translate(628.127634 558.917812)scale(0.14 -0.14)">
       <use xlink:href="#DejaVuSans-Bold-4d"/>
       <use xlink:href="#DejaVuSans-Bold-61" x="99.511719"/>
       <use xlink:href="#DejaVuSans-Bold-72" x="166.992188"/>
      </g>
     </g>
    </g>
    <g id="xtick_14">
     <g id="line2d_14">
      <g>
       <use xlink:href="#m7bf1dbf43e" x="686.978802" y="541.28" style="fill: #555555; stroke: #555555; stroke-width: 0.8"/>
      </g>
     </g>
     <g id="text_14">
      <!-- Apr -->
      <g style="fill: #555555" transform="translate(673.099114 558.917812)scale(0.14 -0.14)">
       <use xlink:href="#DejaVuSans-Bold-41"/>
       <use xlink:href="#DejaVuSans-Bold-70" x="77.392578"/>
       <use xlink:href="#DejaVuSans-Bold-72" x="148.974609"/>
      </g>
     </g>
    </g>
    <g id="xtick_15">
     <g id="line2d_15">
      <g>
       <use xlink:href="#m7bf1dbf43e" x="729.278117" y="541.28" style="fill: #555555; stroke: #555555; stroke-width: 0.8"/>
      </g>
     </g>
     <g id="text_15">
      <!-- May -->
      <g style="fill: #555555" transform="translate(713.243742 558.808437)scale(0.14 -0.14)">
       <use xlink:href="#DejaVuSans-Bold-4d"/>
       <use xlink:href="#DejaVuSans-Bold-61" x="99.511719"/>
       <use xlink:href="#DejaVuSans-Bold-79" x="163.867188"/>
      </g>
     </g>
    </g>
    <g id="xtick_16">
     <g id="line2d_16">
      <g>
       <use xlink:href="#m7bf1dbf43e" x="772.987409" y="541.28" style="fill: #555555; stroke: #555555; stroke-width: 0.8"/>
      </g>
     </g>
     <g id="text_16">
      <!-- Jun -->
      <g style="fill: #555555" transform="translate(760.41694 558.917812)scale(0.14 -0.14)">
       <use xlink:href="#DejaVuSans-Bold-4a"/>
       <use xlink:href="#DejaVuSans-Bold-75" x="37.207031"/>
       <use xlink:href="#DejaVuSans-Bold-6e" x="108.398438"/>
      </g>
     </g>
    </g>
    <g id="xtick_17">
     <g id="line2d_17">
      <g>
       <use xlink:href="#m7bf1dbf43e" x="815.286724" y="541.28" style="fill: #555555; stroke: #555555; stroke-width: 0.8"/>
      </g>
     </g>
     <g id="text_17">
      <!-- Jul -->
      <g style="fill: #555555" transform="translate(805.299693 558.917812)scale(0.14 -0.14)">
       <use xlink:href="#DejaVuSans-Bold-4a"/>
       <use xlink:href="#DejaVuSans-Bold-75" x="37.207031"/>
       <use xlink:href="#DejaVuSans-Bold-6c" x="108.398438"/>
      </g>
     </g>
    </g>
    <g id="xtick_18">
     <g id="line2d_18">
      <g>
       <use xlink:href="#m7bf1dbf43e" x="858.996017" y="541.28" style="fill: #555555; stroke: #555555; stroke-width: 0.8"/>
      </g>
     </g>
     <g id="text_18">
      <!-- Aug -->
      <g style="fill: #555555" transform="translate(843.585079 558.808437)scale(0.14 -0.14)">
       <use xlink:href="#DejaVuSans-Bold-41"/>
       <use xlink:href="#DejaVuSans-Bold-75" x="77.392578"/>
       <use xlink:href="#DejaVuSans-Bold-67" x="148.583984"/>
      </g>
     </g>
    </g>
    <g id="xtick_19">
     <g id="line2d_19">
      <g>
       <use xlink:href="#m7bf1dbf43e" x="902.705309" y="541.28" style="fill: #555555; stroke: #555555; stroke-width: 0.8"/>
      </g>
     </g>
     <g id="text_19">
      <!-- Sep -->
      <g style="fill: #555555" transform="translate(887.905778 558.917812)scale(0.14 -0.14)">
       <use xlink:href="#DejaVuSans-Bold-53"/>
       <use xlink:href="#DejaVuSans-Bold-65" x="72.021484"/>
       <use xlink:href="#DejaVuSans-Bold-70" x="139.84375"/>
      </g>
     </g>
    </g>
    <g id="xtick_20">
     <g id="line2d_20">
      <g>
       <use xlink:href="#m7bf1dbf43e" x="945.004624" y="541.28" style="fill: #555555; stroke: #555555; stroke-width: 0.8"/>
      </g>
     </g>
     <g id="text_20">
      <!-- Oct -->
      <g style="fill: #555555" transform="translate(931.558062 558.917812)scale(0.14 -0.14)">
       <use xlink:href="#DejaVuSans-Bold-4f"/>
       <use xlink:href="#DejaVuSans-Bold-63" x="85.009766"/>
       <use xlink:href="#DejaVuSans-Bold-74" x="144.287109"/>
      </g>
     </g>
    </g>
    <g id="xtick_21">
     <g id="line2d_21">
      <g>
       <use xlink:href="#m7bf1dbf43e" x="988.713916" y="541.28" style="fill: #555555; stroke: #555555; stroke-width: 0.8"/>
      </g>
     </g>
     <g id="text_21">
      <!-- Nov -->
      <g style="fill: #555555" transform="translate(973.483448 558.917812)scale(0.14 -0.14)">
       <use xlink:href="#DejaVuSans-Bold-4e"/>
       <use xlink:href="#DejaVuSans-Bold-6f" x="83.691406"/>
       <use xlink:href="#DejaVuSans-Bold-76" x="152.392578"/>
      </g>
     </g>
    </g>
    <g id="xtick_22">
     <g id="line2d_22">
      <g>
       <use xlink:href="#m7bf1dbf43e" x="1031.013232" y="541.28" style="fill: #555555; stroke: #555555; stroke-width: 0.8"/>
      </g>
     </g>
     <g id="text_22">
      <!-- Dec -->
      <g style="fill: #555555" transform="translate(1016.304482 558.917812)scale(0.14 -0.14)">
       <use xlink:href="#DejaVuSans-Bold-44"/>
       <use xlink:href="#DejaVuSans-Bold-65" x="83.007812"/>
       <use xlink:href="#DejaVuSans-Bold-63" x="150.830078"/>
      </g>
     </g>
    </g>
    <g id="xtick_23">
     <g id="line2d_23">
      <g>
       <use xlink:href="#m7bf1dbf43e" x="1074.722524" y="541.28" style="fill: #555555; stroke: #555555; stroke-width: 0.8"/>
      </g>
     </g>
     <g id="text_23">
      <!-- Jan -->
      <g style="fill: #555555" transform="translate(1062.411274 558.917812)scale(0.14 -0.14)">
       <use xlink:href="#DejaVuSans-Bold-4a"/>
       <use xlink:href="#DejaVuSans-Bold-61" x="37.207031"/>
       <use xlink:href="#DejaVuSans-Bold-6e" x="104.6875"/>
      </g>
     </g>
    </g>
    <g id="xtick_24">
     <g id="line2d_24">
      <g>
       <use xlink:href="#m7bf1dbf43e" x="1118.431816" y="541.28" style="fill: #555555; stroke: #555555; stroke-width: 0.8"/>
      </g>
     </g>
     <g id="text_24">
      <!-- Feb -->
      <g style="fill: #555555" transform="translate(1104.171504 558.917812)scale(0.14 -0.14)">
       <use xlink:href="#DejaVuSans-Bold-46"/>
       <use xlink:href="#DejaVuSans-Bold-65" x="64.310547"/>
       <use xlink:href="#DejaVuSans-Bold-62" x="132.132812"/>
      </g>
     </g>
    </g>
   </g>
   <g id="matplotlib.axis_2">
    <g id="ytick_1">
     <g id="line2d_25">
      <defs>
       <path id="m2e3ba84cf7" d="M 0 0 
L -3.5 0 
" style="stroke: #555555; stroke-width: 0.8"/>
      </defs>
      <g>
       <use xlink:href="#m2e3ba84cf7" x="87.95" y="518.798492" style="fill: #555555; stroke: #555555; stroke-width: 0.8"/>
      </g>
     </g>
     <g id="text_25">
      <!-- 0 -->
      <g style="fill: #555555" transform="translate(71.209063 524.117399)scale(0.14 -0.14)">
       <defs>
        <path id="DejaVuSans-Bold-30" d="M 2944 2338 
Q 2944 3213 2780 3570 
Q 2616 3928 2228 3928 
Q 1841 3928 1675 3570 
Q 1509 3213 1509 2338 
Q 1509 1453 1675 1090 
Q 1841 728 2228 728 
Q 2613 728 2778 1090 
Q 2944 1453 2944 2338 
z
M 4147 2328 
Q 4147 1169 3647 539 
Q 3147 -91 2228 -91 
Q 1306 -91 806 539 
Q 306 1169 306 2328 
Q 306 3491 806 4120 
Q 1306 4750 2228 4750 
Q 3147 4750 3647 4120 
Q 4147 3491 4147 2328 
z
" transform="scale(0.015625)"/>
       </defs>
       <use xlink:href="#DejaVuSans-Bold-30"/>
      </g>
     </g>
    </g>
    <g id="ytick_2">
     <g id="line2d_26">
      <g>
       <use xlink:href="#m2e3ba84cf7" x="87.95" y="453.059246" style="fill: #555555; stroke: #555555; stroke-width: 0.8"/>
      </g>
     </g>
     <g id="text_26">
      <!-- 5000 -->
      <g style="fill: #555555" transform="translate(41.98625 458.378152)scale(0.14 -0.14)">
       <defs>
        <path id="DejaVuSans-Bold-35" d="M 678 4666 
L 3669 4666 
L 3669 3781 
L 1638 3781 
L 1638 3059 
Q 1775 3097 1914 3117 
Q 2053 3138 2203 3138 
Q 3056 3138 3531 2711 
Q 4006 2284 4006 1522 
Q 4006 766 3489 337 
Q 2972 -91 2053 -91 
Q 1656 -91 1267 -14 
Q 878 63 494 219 
L 494 1166 
Q 875 947 1217 837 
Q 1559 728 1863 728 
Q 2300 728 2551 942 
Q 2803 1156 2803 1522 
Q 2803 1891 2551 2103 
Q 2300 2316 1863 2316 
Q 1603 2316 1309 2248 
Q 1016 2181 678 2041 
L 678 4666 
z
" transform="scale(0.015625)"/>
       </defs>
       <use xlink:href="#DejaVuSans-Bold-35"/>
       <use xlink:href="#DejaVuSans-Bold-30" x="69.580078"/>
       <use xlink:href="#DejaVuSans-Bold-30" x="139.160156"/>
       <use xlink:href="#DejaVuSans-Bold-30" x="208.740234"/>
      </g>
     </g>
    </g>
    <g id="ytick_3">
     <g id="line2d_27">
      <g>
       <use xlink:href="#m2e3ba84cf7" x="87.95" y="387.319999" style="fill: #555555; stroke: #555555; stroke-width: 0.8"/>
      </g>
     </g>
     <g id="text_27">
      <!-- 10000 -->
      <g style="fill: #555555" transform="translate(32.245313 392.638905)scale(0.14 -0.14)">
       <defs>
        <path id="DejaVuSans-Bold-31" d="M 750 831 
L 1813 831 
L 1813 3847 
L 722 3622 
L 722 4441 
L 1806 4666 
L 2950 4666 
L 2950 831 
L 4013 831 
L 4013 0 
L 750 0 
L 750 831 
z
" transform="scale(0.015625)"/>
       </defs>
       <use xlink:href="#DejaVuSans-Bold-31"/>
       <use xlink:href="#DejaVuSans-Bold-30" x="69.580078"/>
       <use xlink:href="#DejaVuSans-Bold-30" x="139.160156"/>
       <use xlink:href="#DejaVuSans-Bold-30" x="208.740234"/>
       <use xlink:href="#DejaVuSans-Bold-30" x="278.320312"/>
      </g>
     </g>
    </g>
    <g id="ytick_4">
     <g id="line2d_28">
      <g>
       <use xlink:href="#m2e3ba84cf7" x="87.95" y="321.580752" style="fill: #555555; stroke: #555555; stroke-width: 0.8"/>
      </g>
     </g>
     <g id="text_28">
      <!-- 15000 -->
      <g style="fill: #555555" transform="translate(32.245313 326.899659)scale(0.14 -0.14)">
       <use xlink:href="#DejaVuSans-Bold-31"/>
       <use xlink:href="#DejaVuSans-Bold-35" x="69.580078"/>
       <use xlink:href="#DejaVuSans-Bold-30" x="139.160156"/>
       <use xlink:href="#DejaVuSans-Bold-30" x="208.740234"/>
       <use xlink:href="#DejaVuSans-Bold-30" x="278.320312"/>
      </g>
     </g>
    </g>
    <g id="ytick_5">
     <g id="line2d_29">
      <g>
       <use xlink:href="#m2e3ba84cf7" x="87.95" y="255.841506" style="fill: #555555; stroke: #555555; stroke-width: 0.8"/>
      </g>
     </g>
     <g id="text_29">
      <!-- 20000 -->
      <g style="fill: #555555" transform="translate(32.245313 261.160412)scale(0.14 -0.14)">
       <defs>
        <path id="DejaVuSans-Bold-32" d="M 1844 884 
L 3897 884 
L 3897 0 
L 506 0 
L 506 884 
L 2209 2388 
Q 2438 2594 2547 2791 
Q 2656 2988 2656 3200 
Q 2656 3528 2436 3728 
Q 2216 3928 1850 3928 
Q 1569 3928 1234 3808 
Q 900 3688 519 3450 
L 519 4475 
Q 925 4609 1322 4679 
Q 1719 4750 2100 4750 
Q 2938 4750 3402 4381 
Q 3866 4013 3866 3353 
Q 3866 2972 3669 2642 
Q 3472 2313 2841 1759 
L 1844 884 
z
" transform="scale(0.015625)"/>
       </defs>
       <use xlink:href="#DejaVuSans-Bold-32"/>
       <use xlink:href="#DejaVuSans-Bold-30" x="69.580078"/>
       <use xlink:href="#DejaVuSans-Bold-30" x="139.160156"/>
       <use xlink:href="#DejaVuSans-Bold-30" x="208.740234"/>
       <use xlink:href="#DejaVuSans-Bold-30" x="278.320312"/>
      </g>
     </g>
    </g>
    <g id="ytick_6">
     <g id="line2d_30">
      <g>
       <use xlink:href="#m2e3ba84cf7" x="87.95" y="190.102259" style="fill: #555555; stroke: #555555; stroke-width: 0.8"/>
      </g>
     </g>
     <g id="text_30">
      <!-- 25000 -->
      <g style="fill: #555555" transform="translate(32.245313 195.421165)scale(0.14 -0.14)">
       <use xlink:href="#DejaVuSans-Bold-32"/>
       <use xlink:href="#DejaVuSans-Bold-35" x="69.580078"/>
       <use xlink:href="#DejaVuSans-Bold-30" x="139.160156"/>
       <use xlink:href="#DejaVuSans-Bold-30" x="208.740234"/>
       <use xlink:href="#DejaVuSans-Bold-30" x="278.320312"/>
      </g>
     </g>
    </g>
    <g id="ytick_7">
     <g id="line2d_31">
      <g>
       <use xlink:href="#m2e3ba84cf7" x="87.95" y="124.363012" style="fill: #555555; stroke: #555555; stroke-width: 0.8"/>
      </g>
     </g>
     <g id="text_31">
      <!-- 30000 -->
      <g style="fill: #555555" transform="translate(32.245313 129.681919)scale(0.14 -0.14)">
       <defs>
        <path id="DejaVuSans-Bold-33" d="M 2981 2516 
Q 3453 2394 3698 2092 
Q 3944 1791 3944 1325 
Q 3944 631 3412 270 
Q 2881 -91 1863 -91 
Q 1503 -91 1142 -33 
Q 781 25 428 141 
L 428 1069 
Q 766 900 1098 814 
Q 1431 728 1753 728 
Q 2231 728 2486 893 
Q 2741 1059 2741 1369 
Q 2741 1688 2480 1852 
Q 2219 2016 1709 2016 
L 1228 2016 
L 1228 2791 
L 1734 2791 
Q 2188 2791 2409 2933 
Q 2631 3075 2631 3366 
Q 2631 3634 2415 3781 
Q 2200 3928 1806 3928 
Q 1516 3928 1219 3862 
Q 922 3797 628 3669 
L 628 4550 
Q 984 4650 1334 4700 
Q 1684 4750 2022 4750 
Q 2931 4750 3382 4451 
Q 3834 4153 3834 3553 
Q 3834 3144 3618 2883 
Q 3403 2622 2981 2516 
z
" transform="scale(0.015625)"/>
       </defs>
       <use xlink:href="#DejaVuSans-Bold-33"/>
       <use xlink:href="#DejaVuSans-Bold-30" x="69.580078"/>
       <use xlink:href="#DejaVuSans-Bold-30" x="139.160156"/>
       <use xlink:href="#DejaVuSans-Bold-30" x="208.740234"/>
       <use xlink:href="#DejaVuSans-Bold-30" x="278.320312"/>
      </g>
     </g>
    </g>
    <g id="ytick_8">
     <g id="line2d_32">
      <g>
       <use xlink:href="#m2e3ba84cf7" x="87.95" y="58.623766" style="fill: #555555; stroke: #555555; stroke-width: 0.8"/>
      </g>
     </g>
     <g id="text_32">
      <!-- 35000 -->
      <g style="fill: #555555" transform="translate(32.245313 63.942672)scale(0.14 -0.14)">
       <use xlink:href="#DejaVuSans-Bold-33"/>
       <use xlink:href="#DejaVuSans-Bold-35" x="69.580078"/>
       <use xlink:href="#DejaVuSans-Bold-30" x="139.160156"/>
       <use xlink:href="#DejaVuSans-Bold-30" x="208.740234"/>
       <use xlink:href="#DejaVuSans-Bold-30" x="278.320312"/>
      </g>
     </g>
    </g>
    <g id="text_33">
     <!-- New Cases -->
     <g style="fill: #555555" transform="translate(24.917813 333.23875)rotate(-90)scale(0.16 -0.16)">
      <defs>
       <path id="DejaVuSans-4e" d="M 628 4666 
L 1478 4666 
L 3547 763 
L 3547 4666 
L 4159 4666 
L 4159 0 
L 3309 0 
L 1241 3903 
L 1241 0 
L 628 0 
L 628 4666 
z
" transform="scale(0.015625)"/>
       <path id="DejaVuSans-65" d="M 3597 1894 
L 3597 1613 
L 953 1613 
Q 991 1019 1311 708 
Q 1631 397 2203 397 
Q 2534 397 2845 478 
Q 3156 559 3463 722 
L 3463 178 
Q 3153 47 2828 -22 
Q 2503 -91 2169 -91 
Q 1331 -91 842 396 
Q 353 884 353 1716 
Q 353 2575 817 3079 
Q 1281 3584 2069 3584 
Q 2775 3584 3186 3129 
Q 3597 2675 3597 1894 
z
M 3022 2063 
Q 3016 2534 2758 2815 
Q 2500 3097 2075 3097 
Q 1594 3097 1305 2825 
Q 1016 2553 972 2059 
L 3022 2063 
z
" transform="scale(0.015625)"/>
       <path id="DejaVuSans-77" d="M 269 3500 
L 844 3500 
L 1563 769 
L 2278 3500 
L 2956 3500 
L 3675 769 
L 4391 3500 
L 4966 3500 
L 4050 0 
L 3372 0 
L 2619 2869 
L 1863 0 
L 1184 0 
L 269 3500 
z
" transform="scale(0.015625)"/>
       <path id="DejaVuSans-20" transform="scale(0.015625)"/>
       <path id="DejaVuSans-43" d="M 4122 4306 
L 4122 3641 
Q 3803 3938 3442 4084 
Q 3081 4231 2675 4231 
Q 1875 4231 1450 3742 
Q 1025 3253 1025 2328 
Q 1025 1406 1450 917 
Q 1875 428 2675 428 
Q 3081 428 3442 575 
Q 3803 722 4122 1019 
L 4122 359 
Q 3791 134 3420 21 
Q 3050 -91 2638 -91 
Q 1578 -91 968 557 
Q 359 1206 359 2328 
Q 359 3453 968 4101 
Q 1578 4750 2638 4750 
Q 3056 4750 3426 4639 
Q 3797 4528 4122 4306 
z
" transform="scale(0.015625)"/>
       <path id="DejaVuSans-61" d="M 2194 1759 
Q 1497 1759 1228 1600 
Q 959 1441 959 1056 
Q 959 750 1161 570 
Q 1363 391 1709 391 
Q 2188 391 2477 730 
Q 2766 1069 2766 1631 
L 2766 1759 
L 2194 1759 
z
M 3341 1997 
L 3341 0 
L 2766 0 
L 2766 531 
Q 2569 213 2275 61 
Q 1981 -91 1556 -91 
Q 1019 -91 701 211 
Q 384 513 384 1019 
Q 384 1609 779 1909 
Q 1175 2209 1959 2209 
L 2766 2209 
L 2766 2266 
Q 2766 2663 2505 2880 
Q 2244 3097 1772 3097 
Q 1472 3097 1187 3025 
Q 903 2953 641 2809 
L 641 3341 
Q 956 3463 1253 3523 
Q 1550 3584 1831 3584 
Q 2591 3584 2966 3190 
Q 3341 2797 3341 1997 
z
" transform="scale(0.015625)"/>
       <path id="DejaVuSans-73" d="M 2834 3397 
L 2834 2853 
Q 2591 2978 2328 3040 
Q 2066 3103 1784 3103 
Q 1356 3103 1142 2972 
Q 928 2841 928 2578 
Q 928 2378 1081 2264 
Q 1234 2150 1697 2047 
L 1894 2003 
Q 2506 1872 2764 1633 
Q 3022 1394 3022 966 
Q 3022 478 2636 193 
Q 2250 -91 1575 -91 
Q 1294 -91 989 -36 
Q 684 19 347 128 
L 347 722 
Q 666 556 975 473 
Q 1284 391 1588 391 
Q 1994 391 2212 530 
Q 2431 669 2431 922 
Q 2431 1156 2273 1281 
Q 2116 1406 1581 1522 
L 1381 1569 
Q 847 1681 609 1914 
Q 372 2147 372 2553 
Q 372 3047 722 3315 
Q 1072 3584 1716 3584 
Q 2034 3584 2315 3537 
Q 2597 3491 2834 3397 
z
" transform="scale(0.015625)"/>
      </defs>
      <use xlink:href="#DejaVuSans-4e"/>
      <use xlink:href="#DejaVuSans-65" x="74.804688"/>
      <use xlink:href="#DejaVuSans-77" x="136.328125"/>
      <use xlink:href="#DejaVuSans-20" x="218.115234"/>
      <use xlink:href="#DejaVuSans-43" x="249.902344"/>
      <use xlink:href="#DejaVuSans-61" x="319.726562"/>
      <use xlink:href="#DejaVuSans-73" x="381.005859"/>
      <use xlink:href="#DejaVuSans-65" x="433.105469"/>
      <use xlink:href="#DejaVuSans-73" x="494.628906"/>
     </g>
    </g>
   </g>
   <g id="line2d_33">
    <path d="M 135.677727 518.272578 
L 137.087704 518.1411 
L 138.497682 518.377761 
L 139.907659 517.996474 
L 141.317636 517.089272 
L 142.727613 517.181307 
L 144.13759 517.128716 
L 145.547567 517.312785 
L 146.957545 515.919113 
L 148.367522 516.523914 
L 149.777499 515.248573 
L 151.187476 515.011912 
L 152.597453 514.236189 
L 154.007431 513.591944 
L 155.417408 511.790689 
L 156.827385 510.423312 
L 158.237362 510.844044 
L 159.647339 511.527732 
L 161.057316 508.950753 
L 162.467294 507.714855 
L 165.287248 503.454952 
L 166.697225 503.731057 
L 168.107202 504.441041 
L 169.517179 507.32042 
L 170.927157 507.833186 
L 172.337134 505.54546 
L 173.747111 504.559372 
L 175.157088 505.387686 
L 176.567065 505.624347 
L 177.977042 504.349006 
L 180.796997 508.516874 
L 182.206974 506.189705 
L 183.616951 502.91589 
L 185.026928 501.351296 
L 186.436905 501.69314 
L 187.846883 503.402361 
L 189.25686 506.189705 
L 190.666837 507.465046 
L 192.076814 509.200562 
L 193.486791 504.743441 
L 194.896768 502.574046 
L 196.306746 503.205143 
L 197.716723 505.348243 
L 199.1267 508.963901 
L 200.536677 509.384632 
L 201.946654 509.489815 
L 203.356632 507.307272 
L 204.766609 508.214474 
L 206.176586 510.291834 
L 207.586563 510.239243 
L 208.99654 513.473613 
L 210.406517 516.260957 
L 211.816495 513.697127 
L 213.226472 512.132533 
L 214.636449 512.51382 
L 216.046426 513.052882 
L 217.456403 514.354519 
L 218.86638 516.155775 
L 220.276358 514.604328 
L 221.686335 514.604328 
L 223.096312 514.052119 
L 224.506289 514.604328 
L 225.916266 515.011912 
L 227.326243 515.616713 
L 228.736221 516.445027 
L 230.146198 516.234662 
L 231.556175 515.866522 
L 232.966152 515.195982 
L 234.376129 516.142627 
L 235.786106 516.24781 
L 237.196084 517.155011 
L 238.606061 516.852611 
L 240.016038 517.339081 
L 242.835992 515.458939 
L 244.24597 516.379288 
L 247.065924 516.523914 
L 248.475901 515.998001 
L 249.885878 517.10242 
L 251.295855 516.24781 
L 252.705833 516.458175 
L 254.11581 516.458175 
L 255.525787 516.944646 
L 256.935764 516.484471 
L 258.345741 517.431116 
L 261.165696 517.575742 
L 262.575673 516.326697 
L 263.98565 515.945409 
L 265.395627 516.300401 
L 266.805604 515.656156 
L 268.215581 516.615949 
L 269.625559 516.642245 
L 271.035536 516.418732 
L 272.445513 516.668541 
L 273.85549 516.076888 
L 275.265467 516.418732 
L 276.675444 516.905202 
L 278.085422 516.707984 
L 280.905376 517.312785 
L 282.315353 517.168159 
L 285.135308 517.615186 
L 286.545285 517.549447 
L 287.955262 517.904439 
L 290.775216 517.746664 
L 292.185193 517.352229 
L 296.415125 517.930734 
L 297.825102 517.799256 
L 299.235079 518.049065 
L 303.465011 517.799256 
L 304.874988 517.943882 
L 306.284965 517.851847 
L 307.694942 518.259431 
L 309.104919 518.351466 
L 310.514897 518.049065 
L 313.334851 517.943882 
L 316.154805 517.549447 
L 317.564782 517.851847 
L 318.97476 517.510003 
L 321.794714 517.233898 
L 323.204691 517.365377 
L 324.614668 516.892054 
L 326.024645 516.892054 
L 327.434623 516.392436 
L 328.8446 516.576506 
L 331.664554 516.642245 
L 333.074531 516.760576 
L 335.894486 515.998001 
L 337.304463 516.050592 
L 338.71444 515.853374 
L 340.124417 515.537826 
L 341.534394 514.315076 
L 342.944372 514.315076 
L 344.354349 513.131769 
L 345.764326 514.078415 
L 347.174303 513.907492 
L 348.58428 512.39549 
L 349.994257 513.171213 
L 351.404235 510.844044 
L 352.814212 512.001054 
L 354.224189 512.434933 
L 355.634166 511.212183 
L 357.044143 508.451135 
L 358.45412 510.646826 
L 359.864098 510.239243 
L 361.274075 511.225331 
L 362.684052 510.554791 
L 364.094029 510.173503 
L 365.504006 512.237716 
L 366.913983 512.408638 
L 368.323961 512.316603 
L 369.733938 511.527732 
L 371.143915 511.816984 
L 372.553892 511.790689 
L 373.963869 512.132533 
L 375.373847 512.816221 
L 376.783824 511.264775 
L 378.193801 513.328987 
L 379.603778 511.277923 
L 381.013755 512.119385 
L 382.423732 512.21142 
L 385.243687 512.145681 
L 386.653664 511.882724 
L 388.063641 512.658447 
L 389.473618 509.332041 
L 390.883595 510.922931 
L 392.293573 509.02964 
L 393.70355 510.265538 
L 395.113527 506.702471 
L 396.523504 508.345952 
L 399.343458 503.809944 
L 400.753436 507.793743 
L 402.163413 502.087576 
L 403.57339 502.731821 
L 404.983367 504.50678 
L 406.393344 501.745732 
L 407.803321 500.707052 
L 409.213299 498.590248 
L 412.033253 493.094447 
L 413.44323 493.922761 
L 414.853207 494.553858 
L 416.263185 489.728598 
L 417.673162 489.386753 
L 419.083139 488.111412 
L 420.493116 485.455547 
L 421.903093 482.457837 
L 423.31307 483.299299 
L 424.723048 479.670493 
L 426.133025 480.656581 
L 427.543002 479.302353 
L 428.952979 475.59466 
L 430.362956 476.028539 
L 431.772933 468.784074 
L 433.182911 467.061705 
L 434.592888 466.430609 
L 436.002865 458.910039 
L 437.412842 459.383361 
L 438.822819 453.427386 
L 440.232796 442.76448 
L 441.642774 440.43731 
L 443.052751 433.626724 
L 444.462728 435.414832 
L 445.872705 429.353673 
L 447.282682 422.398461 
L 448.692659 423.463437 
L 450.102637 416.547668 
L 451.512614 414.27309 
L 452.922591 412.235174 
L 454.332568 411.669816 
L 455.742545 413.799768 
L 457.152522 411.722407 
L 459.972477 397.167738 
L 461.382454 387.688139 
L 462.792431 405.174778 
L 464.202408 385.11116 
L 465.612386 383.336201 
L 467.022363 383.822671 
L 468.43234 412.603313 
L 469.842317 384.098776 
L 471.252294 373.304392 
L 472.662271 390.330857 
L 474.072249 404.688308 
L 475.482226 410.144666 
L 476.892203 417.060434 
L 478.30218 418.874837 
L 479.712157 427.473531 
L 481.122134 423.792133 
L 482.532112 431.812321 
L 485.352066 457.411184 
L 486.762043 457.73988 
L 488.17202 448.023619 
L 489.581997 444.920727 
L 490.991975 439.03049 
L 492.401952 441.265625 
L 493.811929 447.563445 
L 496.631883 462.525697 
L 498.04186 458.541899 
L 499.451838 444.039821 
L 500.861815 440.818598 
L 502.271792 439.858805 
L 503.681769 448.352316 
L 505.091746 450.679485 
L 506.501724 466.903931 
L 507.911701 454.242552 
L 509.321678 460.053902 
L 510.731655 443.185211 
L 512.141632 460.093345 
L 513.551609 445.630711 
L 514.961587 458.686525 
L 516.371564 465.707477 
L 517.781541 454.268848 
L 519.191518 445.249423 
L 520.601495 441.344512 
L 522.011472 432.956184 
L 523.42145 429.905883 
L 524.831427 425.527649 
L 526.241404 438.346802 
L 527.651381 432.758966 
L 529.061358 404.293873 
L 530.471335 402.610948 
L 531.881313 398.863811 
L 533.29129 388.937185 
L 534.701267 407.554539 
L 536.111244 431.628251 
L 537.521221 371.989607 
L 538.931198 350.795274 
L 540.341176 361.602806 
L 541.751153 358.079182 
L 543.16113 347.915895 
L 544.571107 372.121085 
L 545.981084 389.660316 
L 547.391062 382.192338 
L 548.801039 367.677112 
L 550.211016 367.663964 
L 551.620993 389.752351 
L 553.03097 400.402109 
L 554.440947 421.530703 
L 555.850925 419.952961 
L 557.260902 394.564464 
L 558.670879 391.737676 
L 560.080856 411.393711 
L 561.490833 405.871614 
L 562.90081 421.556999 
L 564.310788 431.601956 
L 565.720765 435.05984 
L 567.130742 425.593388 
L 568.540719 391.566754 
L 569.950696 412.143139 
L 572.770651 431.996391 
L 574.180628 447.169009 
L 575.590605 453.821821 
L 577.000582 438.714942 
L 578.410559 433.35062 
L 579.820536 439.5827 
L 581.230514 449.18063 
L 582.640491 445.407197 
L 584.050468 455.899181 
L 585.460445 462.32848 
L 586.870422 445.578119 
L 588.280399 442.475227 
L 589.690377 443.264098 
L 591.100354 447.195305 
L 592.510331 454.62384 
L 593.920308 465.036936 
L 595.330285 466.746157 
L 596.740263 456.674904 
L 598.15024 457.121931 
L 599.560217 460.987399 
L 600.970194 463.945665 
L 602.380171 470.45385 
L 603.790148 476.225756 
L 605.200126 472.149923 
L 606.610103 465.970434 
L 608.02008 463.590673 
L 609.430057 462.039227 
L 610.840034 465.050084 
L 612.250011 467.285219 
L 613.659989 489.123796 
L 615.069966 495.671425 
L 616.479943 477.080366 
L 617.88992 460.592963 
L 619.299897 461.907748 
L 620.709874 463.945665 
L 622.119852 473.767108 
L 623.529829 481.432305 
L 624.939806 483.430778 
L 626.349783 474.516536 
L 627.75976 458.870595 
L 629.169737 457.319149 
L 630.579715 459.120404 
L 631.989692 457.411184 
L 633.399669 463.85363 
L 634.809646 468.718334 
L 636.219623 461.368687 
L 637.629601 453.256463 
L 639.039578 451.889087 
L 640.449555 454.084778 
L 641.859532 457.871359 
L 643.269509 469.507205 
L 644.679486 466.66727 
L 646.089464 452.756845 
L 647.499441 464.997493 
L 648.909418 457.503219 
L 650.319395 448.957117 
L 651.729372 459.527988 
L 653.139349 467.732246 
L 654.549327 462.44681 
L 655.959304 449.667101 
L 657.369281 449.154334 
L 658.779258 440.240093 
L 660.189235 434.980953 
L 663.00919 446.459025 
L 664.419167 453.821821 
L 665.829144 441.120999 
L 667.239121 438.189028 
L 668.649098 422.188095 
L 670.059075 418.848542 
L 672.87903 435.967042 
L 674.289007 445.065353 
L 675.698984 419.453343 
L 677.108961 417.717827 
L 678.518938 419.440195 
L 679.928916 403.33408 
L 681.338893 420.584058 
L 682.74887 429.642926 
L 684.158847 441.817835 
L 685.568824 418.49355 
L 686.978802 415.995458 
L 688.388779 423.949907 
L 689.798756 418.914281 
L 691.208733 428.57795 
L 692.61871 448.667864 
L 694.028687 445.709598 
L 695.438665 435.072988 
L 696.848642 416.758034 
L 698.258619 418.085967 
L 699.668596 418.099114 
L 701.078573 411.748703 
L 702.48855 431.260112 
L 703.898528 430.418649 
L 705.308505 447.274192 
L 706.718482 404.49109 
L 708.128459 401.914112 
L 709.538436 410.289292 
L 710.948413 406.75252 
L 712.358391 424.686187 
L 713.768368 429.117012 
L 715.178345 407.409913 
L 716.588322 392.855244 
L 717.998299 397.378104 
L 719.408276 412.800531 
L 720.818254 413.352741 
L 722.228231 436.939982 
L 723.638208 449.049152 
L 725.048185 405.056448 
L 726.458162 423.042706 
L 727.86814 416.71859 
L 729.278117 442.76448 
L 730.688094 446.998087 
L 732.098071 398.022348 
L 733.508048 416.797477 
L 736.328003 430.011066 
L 737.73798 420.728684 
L 739.147957 421.188859 
L 741.967911 441.738947 
L 743.377888 446.156625 
L 744.787866 435.42798 
L 746.197843 439.753622 
L 747.60782 445.919964 
L 749.017797 460.00131 
L 750.427774 460.632407 
L 751.837751 481.221939 
L 753.247729 448.786195 
L 754.657706 459.002074 
L 756.067683 458.10802 
L 757.47766 464.392692 
L 758.887637 477.080366 
L 760.297614 473.793404 
L 761.707592 482.931159 
L 763.117569 486.139235 
L 764.527546 482.799681 
L 765.937523 474.424501 
L 767.3475 468.337047 
L 768.757478 474.818936 
L 770.167455 484.324831 
L 771.577432 492.239837 
L 772.987409 486.191826 
L 774.397386 485.153146 
L 775.807363 482.49728 
L 777.217341 487.309393 
L 778.627318 490.951348 
L 780.037295 498.182665 
L 781.447272 499.49745 
L 782.857249 499.918181 
L 784.267226 495.776608 
L 791.317112 507.241533 
L 792.727089 505.124729 
L 794.137067 505.335095 
L 795.547044 504.87492 
L 796.957021 507.096907 
L 798.366998 509.700181 
L 799.776975 509.463519 
L 801.186952 511.317366 
L 802.59693 509.621294 
L 804.006907 510.055173 
L 805.416884 509.647589 
L 806.826861 510.304982 
L 808.236838 511.501436 
L 809.646815 512.21142 
L 811.056793 511.343662 
L 812.46677 511.856428 
L 813.876747 510.43646 
L 815.286724 507.99096 
L 816.696701 506.439514 
L 818.106679 504.072901 
L 819.516656 503.021073 
L 820.926633 498.918944 
L 822.33661 489.978407 
L 823.746587 471.453087 
L 825.156564 447.892141 
L 826.566542 428.314993 
L 827.976519 384.374881 
L 830.796473 407.948975 
L 832.20645 416.218972 
L 833.616427 381.99512 
L 835.026405 374.461402 
L 836.436382 370.780005 
L 837.846359 373.514757 
L 839.256336 384.913943 
L 840.666313 402.124477 
L 842.07629 429.708665 
L 843.486268 428.656837 
L 844.896245 436.847948 
L 846.306222 435.046692 
L 847.716199 449.653953 
L 849.126176 458.226351 
L 850.536153 468.389638 
L 851.946131 466.4832 
L 853.356108 473.517299 
L 854.766085 460.264267 
L 856.176062 473.675073 
L 857.586039 480.11752 
L 858.996017 488.387517 
L 860.405994 491.201157 
L 861.815971 489.754893 
L 864.635925 475.003006 
L 866.045902 480.656581 
L 867.45588 487.296245 
L 868.865857 488.466404 
L 870.275834 492.016323 
L 871.685811 490.372842 
L 873.095788 490.9382 
L 874.505765 485.061111 
L 875.915743 483.772622 
L 877.32572 488.505848 
L 878.735697 489.084353 
L 880.145674 489.399901 
L 881.555651 488.505848 
L 882.965628 482.181732 
L 885.785583 489.768041 
L 887.19556 486.71774 
L 888.605537 486.441635 
L 890.015514 487.480315 
L 891.425491 486.454783 
L 892.835469 481.774149 
L 894.245446 484.443162 
L 895.655423 482.01081 
L 897.0654 486.586262 
L 899.885355 490.254512 
L 901.295332 488.900283 
L 902.705309 482.142288 
L 904.115286 482.129141 
L 905.525263 485.534434 
L 906.93524 482.668202 
L 908.345218 487.795864 
L 909.755195 491.003939 
L 911.165172 486.297009 
L 912.575149 482.063401 
L 913.985126 487.809012 
L 915.395103 483.614848 
L 916.805081 489.768041 
L 918.215058 491.253748 
L 919.625035 495.76346 
L 921.035012 492.489646 
L 922.444989 487.57235 
L 923.854966 491.319487 
L 925.264944 490.846165 
L 926.674921 492.318724 
L 928.084898 496.920471 
L 929.494875 501.009452 
L 930.904852 496.933619 
L 932.314829 493.896466 
L 933.724807 495.000885 
L 935.134784 496.539183 
L 936.544761 497.761933 
L 937.954738 497.775081 
L 939.364715 500.575573 
L 940.774692 496.223635 
L 942.18467 495.776608 
L 943.594647 496.434001 
L 945.004624 496.223635 
L 946.414601 496.854732 
L 947.824578 497.735638 
L 949.234556 497.630455 
L 950.644533 493.830727 
L 952.05451 493.764987 
L 953.464487 482.86542 
L 954.874464 482.392098 
L 956.284441 486.152383 
L 957.694419 482.839124 
L 959.104396 489.228979 
L 960.514373 480.893243 
L 961.92435 469.914789 
L 963.334327 471.00606 
L 964.744304 470.204041 
L 966.154282 470.269781 
L 967.564259 470.690512 
L 968.974236 474.779493 
L 970.384213 467.33781 
L 971.79419 458.555047 
L 973.204167 450.732076 
L 974.614145 442.041348 
L 976.024122 444.237039 
L 977.434099 435.927598 
L 978.844076 449.141187 
L 980.254053 443.145767 
L 981.66403 423.318811 
L 983.074008 418.007079 
L 984.483985 421.675329 
L 985.893962 414.391421 
L 987.303939 411.630372 
L 988.713916 417.691531 
L 990.123894 417.665235 
L 991.533871 398.548262 
L 992.943848 384.637838 
L 994.353825 375.828779 
L 995.763802 361.405588 
L 997.173779 369.701881 
L 998.583757 364.219228 
L 999.993734 370.438161 
L 1001.403711 352.543938 
L 1002.813688 305.067054 
L 1004.223665 305.803333 
L 1005.633642 336.81911 
L 1007.04362 361.247814 
L 1008.453597 266.294046 
L 1009.863574 253.619519 
L 1011.273551 246.309315 
L 1012.683528 208.772205 
L 1014.093505 242.969761 
L 1015.503483 232.714439 
L 1016.91346 247.518917 
L 1018.323437 216.56888 
L 1019.733414 217.042202 
L 1021.143391 207.194463 
L 1022.553368 227.218638 
L 1023.963346 239.209476 
L 1025.373323 229.664138 
L 1026.7833 228.638605 
L 1028.193277 236.711385 
L 1029.603254 228.756936 
L 1031.013232 275.576428 
L 1032.423209 215.990374 
L 1033.833186 236.356393 
L 1035.243163 221.604506 
L 1036.65314 215.727417 
L 1038.063117 242.982909 
L 1039.473095 282.873484 
L 1040.883072 281.387777 
L 1042.293049 259.273094 
L 1043.703026 289.118712 
L 1045.113003 285.46361 
L 1046.52298 300.452158 
L 1047.932958 337.463354 
L 1049.342935 350.506021 
L 1050.752912 341.355118 
L 1052.162889 303.594494 
L 1053.572866 316.965857 
L 1054.982843 326.011578 
L 1056.392821 344.471158 
L 1057.802798 359.117862 
L 1059.212775 395.274448 
L 1060.622752 342.538424 
L 1062.032729 343.708583 
L 1063.442706 354.818516 
L 1064.852684 353.6878 
L 1066.262661 362.325937 
L 1067.672638 368.439687 
L 1069.082615 398.574558 
L 1070.492592 312.166892 
L 1071.902569 324.539018 
L 1073.312547 299.268852 
L 1074.722524 313.639451 
L 1076.132501 289.066121 
L 1077.542478 327.365806 
L 1078.952455 274.656078 
L 1080.362433 196.400079 
L 1081.77241 195.032703 
L 1083.182387 60.609091 
L 1084.592364 151.855165 
L 1086.002341 91.072658 
L 1087.412318 151.329251 
L 1088.822296 136.721991 
L 1090.232273 96.108284 
L 1090.232273 96.108284 
" clip-path="url(#pe977e00b1f)" style="fill: none; stroke-dasharray: 1.5,2.475; stroke-dashoffset: 0; stroke: #000000; stroke-opacity: 0.5; stroke-width: 1.5"/>
   </g>
   <g id="line2d_34">
    <path d="M 135.677727 518.390909 
L 141.317636 517.549447 
L 146.957545 516.392436 
L 149.777499 515.432643 
L 151.187476 514.762103 
L 159.647339 509.857955 
L 161.057316 508.72724 
L 163.877271 506.110818 
L 165.287248 505.256208 
L 166.697225 505.085286 
L 168.107202 505.321947 
L 169.517179 505.703234 
L 170.927157 505.966191 
L 172.337134 505.939896 
L 175.157088 505.400834 
L 176.567065 505.492869 
L 177.977042 505.808417 
L 179.38702 505.966191 
L 180.796997 505.676939 
L 182.206974 504.953807 
L 183.616951 504.086049 
L 185.026928 503.454952 
L 186.436905 503.428657 
L 187.846883 504.243823 
L 189.25686 505.269355 
L 190.666837 505.9136 
L 192.076814 505.926748 
L 194.896768 505.137877 
L 196.306746 505.308799 
L 197.716723 506.045079 
L 199.1267 507.110054 
L 200.536677 508.004108 
L 201.946654 508.582613 
L 203.356632 508.885014 
L 204.766609 509.318893 
L 206.176586 510.278686 
L 208.99654 512.540116 
L 210.406517 513.223804 
L 211.816495 513.421022 
L 214.636449 513.460466 
L 216.046426 513.644535 
L 218.86638 514.499146 
L 220.276358 514.683216 
L 224.506289 514.84099 
L 228.736221 515.761339 
L 231.556175 515.932261 
L 234.376129 516.129479 
L 237.196084 516.615949 
L 238.606061 516.707984 
L 241.426015 516.497619 
L 244.24597 516.274105 
L 252.705833 516.537062 
L 256.935764 516.957794 
L 258.345741 517.076124 
L 259.755718 517.076124 
L 262.575673 516.681689 
L 263.98565 516.418732 
L 266.805604 516.234662 
L 271.035536 516.43188 
L 276.675444 516.694837 
L 286.545285 517.641482 
L 289.365239 517.707221 
L 293.595171 517.680925 
L 302.055034 517.891291 
L 306.284965 518.022769 
L 310.514897 518.075361 
L 318.97476 517.523151 
L 324.614668 516.970941 
L 327.434623 516.694837 
L 334.484509 516.352992 
L 337.304463 515.905966 
L 338.71444 515.577269 
L 342.944372 514.301928 
L 344.354349 513.907492 
L 347.174303 513.263248 
L 357.044143 510.594234 
L 358.45412 510.423312 
L 359.864098 510.370721 
L 361.274075 510.567939 
L 365.504006 511.54088 
L 368.323961 511.922167 
L 371.143915 511.974759 
L 372.553892 511.961611 
L 375.373847 512.145681 
L 379.603778 512.119385 
L 385.243687 511.974759 
L 386.653664 511.738097 
L 389.473618 510.830896 
L 393.70355 508.819275 
L 402.163413 504.099197 
L 404.983367 502.639786 
L 406.393344 501.403888 
L 407.803321 499.98392 
L 412.033253 495.000885 
L 416.263185 490.859313 
L 419.083139 487.427724 
L 420.493116 485.521286 
L 423.31307 482.444689 
L 424.723048 480.985278 
L 426.133025 479.696788 
L 427.543002 478.013864 
L 428.952979 475.844469 
L 430.362956 473.464708 
L 434.592888 464.261213 
L 437.412842 456.109547 
L 441.642774 441.17359 
L 443.052751 436.506103 
L 445.872705 428.854055 
L 448.692659 421.556999 
L 450.102637 418.191149 
L 451.512614 415.719354 
L 454.332568 412.353504 
L 455.742545 410.407622 
L 458.5625 403.978324 
L 461.382454 396.037023 
L 462.792431 392.539695 
L 464.202408 391.540459 
L 467.022363 390.18623 
L 468.43234 389.200142 
L 469.842317 389.647168 
L 471.252294 391.198615 
L 472.662271 395.037787 
L 474.072249 400.047117 
L 475.482226 407.607131 
L 476.892203 414.430864 
L 478.30218 419.584821 
L 479.712157 424.304899 
L 481.122134 429.971622 
L 483.942089 442.606706 
L 485.352066 447.182157 
L 486.762043 449.272665 
L 488.17202 448.615273 
L 489.581997 446.656243 
L 490.991975 445.315162 
L 492.401952 446.301251 
L 493.811929 449.233222 
L 495.221906 451.823348 
L 496.631883 452.954063 
L 498.04186 451.691869 
L 500.861815 446.774574 
L 502.271792 446.840313 
L 503.681769 448.733603 
L 505.091746 452.349262 
L 506.501724 454.505509 
L 507.911701 455.84659 
L 510.731655 454.150517 
L 512.141632 453.900708 
L 513.551609 454.80791 
L 514.961587 455.11031 
L 516.371564 454.768466 
L 517.781541 451.5078 
L 519.191518 447.155861 
L 520.601495 441.278773 
L 522.011472 436.479808 
L 524.831427 430.35291 
L 526.241404 426.382259 
L 527.651381 420.912754 
L 529.061358 413.563106 
L 530.471335 407.225843 
L 531.881313 404.214985 
L 533.29129 401.651155 
L 534.701267 398.469375 
L 536.111244 392.26359 
L 537.521221 382.836582 
L 538.931198 372.226268 
L 540.341176 364.087749 
L 541.751153 360.892822 
L 543.16113 364.337558 
L 544.571107 369.28115 
L 545.981084 372.778478 
L 548.801039 378.826488 
L 550.211016 383.40194 
L 553.03097 397.969757 
L 554.440947 403.63648 
L 555.850925 406.436972 
L 557.260902 405.805875 
L 558.670879 405.753284 
L 560.080856 407.738609 
L 561.490833 412.695348 
L 562.90081 419.111499 
L 564.310788 421.964582 
L 565.720765 421.464964 
L 568.540719 417.375983 
L 569.950696 418.61188 
L 571.360673 423.910464 
L 574.180628 437.768297 
L 575.590605 440.923781 
L 577.000582 442.054496 
L 578.410559 442.133383 
L 579.820536 443.014289 
L 581.230514 445.630711 
L 582.640491 448.746751 
L 584.050468 450.797816 
L 585.460445 450.824111 
L 586.870422 449.338404 
L 588.280399 448.233985 
L 589.690377 448.523238 
L 591.100354 450.837259 
L 592.510331 454.584396 
L 593.920308 457.858211 
L 595.330285 459.869832 
L 596.740263 460.711294 
L 598.15024 461.421278 
L 599.560217 462.959576 
L 602.380171 468.047794 
L 603.790148 469.441466 
L 605.200126 469.125918 
L 606.610103 467.771689 
L 608.02008 466.207095 
L 609.430057 466.719861 
L 610.840034 470.085711 
L 612.250011 474.49024 
L 613.659989 477.566837 
L 615.069966 478.040159 
L 616.479943 475.463181 
L 617.88992 471.952705 
L 619.299897 469.323135 
L 620.709874 469.572945 
L 622.119852 472.202514 
L 623.529829 474.200987 
L 624.939806 473.661926 
L 626.349783 470.756251 
L 627.75976 466.285982 
L 629.169737 462.512549 
L 630.579715 460.790181 
L 631.989692 460.816477 
L 633.399669 461.40813 
L 634.809646 461.026842 
L 636.219623 459.51484 
L 637.629601 457.73988 
L 639.039578 457.016748 
L 640.449555 457.700437 
L 641.859532 459.054665 
L 643.269509 460.974251 
L 644.679486 461.657939 
L 646.089464 460.658703 
L 647.499441 459.278178 
L 648.909418 458.305238 
L 650.319395 458.384125 
L 651.729372 458.883743 
L 653.139349 458.305238 
L 654.549327 456.385652 
L 655.959304 452.796289 
L 657.369281 448.128802 
L 658.779258 444.210743 
L 660.189235 442.751332 
L 661.599212 442.94855 
L 663.00919 443.513907 
L 664.419167 442.659297 
L 665.829144 439.595848 
L 667.239121 435.020396 
L 668.649098 430.918267 
L 670.059075 429.248491 
L 671.469053 429.182751 
L 672.87903 429.366821 
L 674.289007 428.880351 
L 675.698984 425.580241 
L 677.108961 421.556999 
L 678.518938 418.703915 
L 679.928916 418.86169 
L 682.74887 423.647507 
L 684.158847 424.922848 
L 685.568824 424.817665 
L 686.978802 423.594915 
L 688.388779 424.357491 
L 689.798756 427.079095 
L 691.208733 431.772878 
L 692.61871 434.612813 
L 694.028687 434.3893 
L 695.438665 431.523069 
L 696.848642 426.355964 
L 698.258619 422.096061 
L 699.668596 420.492023 
L 702.48855 424.949144 
L 703.898528 425.080622 
L 705.308505 422.766601 
L 708.128459 414.181055 
L 709.538436 413.063488 
L 710.948413 413.037192 
L 712.358391 414.128464 
L 713.768368 412.905714 
L 715.178345 410.052631 
L 716.588322 407.528243 
L 717.998299 407.870088 
L 719.408276 412.6822 
L 722.228231 423.660655 
L 723.638208 425.448762 
L 725.048185 425.816902 
L 726.458162 427.0528 
L 727.86814 426.290224 
L 729.278117 425.685423 
L 730.688094 425.593388 
L 732.098071 423.713246 
L 733.508048 422.293278 
L 734.918025 421.254598 
L 736.328003 421.97773 
L 737.73798 425.567093 
L 746.197843 445.196832 
L 747.60782 450.482267 
L 750.427774 459.383361 
L 751.837751 461.316095 
L 754.657706 461.881453 
L 756.067683 463.459195 
L 757.47766 466.351721 
L 758.887637 471.6766 
L 760.297614 476.08113 
L 761.707592 479.118283 
L 763.117569 479.854563 
L 765.937523 477.737759 
L 767.3475 477.645724 
L 768.757478 478.986805 
L 771.577432 484.009283 
L 772.987409 485.692208 
L 774.397386 486.402192 
L 775.807363 487.296245 
L 777.217341 489.005466 
L 780.037295 494.593302 
L 781.447272 496.762697 
L 782.857249 497.998595 
L 785.677204 499.523745 
L 787.087181 500.851678 
L 789.907135 503.954571 
L 791.317112 504.927511 
L 795.547044 506.544697 
L 796.957021 507.412455 
L 798.366998 508.424839 
L 799.776975 509.292597 
L 801.186952 509.844807 
L 802.59693 510.06832 
L 804.006907 510.147208 
L 806.826861 510.646826 
L 808.236838 511.067557 
L 809.646815 511.304218 
L 811.056793 511.199036 
L 812.46677 510.62053 
L 813.876747 509.516111 
L 815.286724 508.043552 
L 816.696701 506.216001 
L 818.106679 503.612726 
L 819.516656 499.31338 
L 820.926633 492.016323 
L 822.33661 481.011573 
L 823.746587 464.550466 
L 826.566542 428.052036 
L 827.976519 414.8253 
L 829.386496 405.71384 
L 830.796473 399.928787 
L 835.026405 383.625453 
L 836.436382 380.719779 
L 837.846359 383.572862 
L 839.256336 392.381921 
L 842.07629 415.745649 
L 843.486268 426.185042 
L 844.896245 434.744292 
L 846.306222 442.343749 
L 849.126176 456.14899 
L 850.536153 461.394982 
L 851.946131 465.615442 
L 854.766085 471.308461 
L 856.176062 474.976711 
L 857.586039 479.525866 
L 858.996017 483.180969 
L 860.405994 485.376659 
L 861.815971 485.139998 
L 863.225948 484.009283 
L 864.635925 483.062638 
L 866.045902 483.496517 
L 867.45588 485.113702 
L 868.865857 487.375133 
L 870.275834 488.97917 
L 871.685811 489.16324 
L 873.095788 488.571587 
L 874.505765 487.848455 
L 875.915743 487.414576 
L 877.32572 487.546055 
L 881.555651 487.322541 
L 882.965628 486.888662 
L 884.375606 486.71774 
L 887.19556 486.928106 
L 888.605537 486.783479 
L 890.015514 486.191826 
L 891.425491 485.19259 
L 892.835469 484.614084 
L 894.245446 484.508901 
L 895.655423 485.047963 
L 897.0654 486.086643 
L 898.475377 486.928106 
L 899.885355 486.954401 
L 901.295332 486.520522 
L 902.705309 485.416103 
L 904.115286 484.706119 
L 905.525263 484.811302 
L 909.755195 486.625705 
L 911.165172 486.336452 
L 912.575149 486.283861 
L 913.985126 486.441635 
L 915.395103 487.427724 
L 916.805081 489.058057 
L 918.215058 490.491173 
L 919.625035 491.253748 
L 921.035012 491.556149 
L 922.444989 491.319487 
L 923.854966 491.503557 
L 925.264944 492.410759 
L 928.084898 495.421616 
L 929.494875 496.249931 
L 930.904852 496.526036 
L 933.724807 496.31567 
L 935.134784 496.604923 
L 937.954738 497.604159 
L 939.364715 497.643603 
L 943.594647 496.68381 
L 947.824578 496.473444 
L 949.234556 495.184955 
L 950.644533 493.028708 
L 953.464487 487.75642 
L 954.874464 486.034052 
L 956.284441 484.94278 
L 957.694419 483.470221 
L 959.104396 481.721557 
L 960.514373 478.973657 
L 961.92435 475.71299 
L 963.334327 473.096568 
L 964.744304 471.466235 
L 967.564259 470.059415 
L 968.974236 467.850576 
L 970.384213 463.774743 
L 971.79419 458.541899 
L 973.204167 452.54648 
L 974.614145 447.747515 
L 976.024122 444.65777 
L 977.434099 441.936165 
L 978.844076 438.767534 
L 980.254053 434.836327 
L 983.074008 424.278604 
L 984.483985 419.7163 
L 985.893962 417.020991 
L 987.303939 414.943631 
L 988.713916 411.551485 
L 990.123894 405.740136 
L 991.533871 397.378104 
L 994.353825 379.050002 
L 995.763802 372.39719 
L 997.173779 367.821738 
L 998.583757 361.221518 
L 1001.403711 342.406946 
L 1002.813688 335.083594 
L 1004.223665 326.734709 
L 1005.633642 317.426032 
L 1007.04362 305.093349 
L 1008.453597 287.343753 
L 1011.273551 249.832939 
L 1012.683528 238.223388 
L 1014.093505 234.423659 
L 1015.503483 232.09649 
L 1016.91346 228.651753 
L 1018.323437 226.048479 
L 1019.733414 223.050769 
L 1021.143391 222.722073 
L 1022.553368 224.02371 
L 1023.963346 227.783995 
L 1025.373323 230.255791 
L 1026.7833 234.962721 
L 1029.603254 238.105057 
L 1031.013232 237.973578 
L 1033.833186 232.030751 
L 1035.243163 233.450718 
L 1036.65314 238.170796 
L 1040.883072 269.107686 
L 1043.703026 286.160446 
L 1045.113003 296.678726 
L 1046.52298 309.708244 
L 1047.932958 320.818177 
L 1049.342935 326.642674 
L 1050.752912 328.246712 
L 1052.162889 327.681354 
L 1053.572866 328.25986 
L 1054.982843 335.149333 
L 1057.802798 352.675416 
L 1059.212775 357.211424 
L 1060.622752 357.513825 
L 1062.032729 356.054413 
L 1063.442706 355.64683 
L 1064.852684 358.539357 
L 1066.262661 360.787639 
L 1067.672638 359.670072 
L 1069.082615 351.781362 
L 1070.492592 340.316438 
L 1071.902569 326.221943 
L 1076.132501 296.494656 
L 1077.542478 279.783739 
L 1078.952455 248.952033 
L 1081.77241 176.428496 
L 1083.182387 146.819539 
L 1084.592364 130.516206 
L 1086.002341 123.797655 
L 1087.412318 121.417894 
L 1088.822296 124.349864 
L 1090.232273 120.168848 
L 1090.232273 120.168848 
" clip-path="url(#pe977e00b1f)" style="fill: none; stroke: #000000; stroke-width: 1.5; stroke-linecap: square"/>
   </g>
   <g id="patch_3">
    <path d="M 87.95 541.28 
L 87.95 37.72 
" style="fill: none; stroke: #555555; stroke-linejoin: miter; stroke-linecap: square"/>
   </g>
   <g id="patch_4">
    <path d="M 87.95 541.28 
L 1137.96 541.28 
" style="fill: none; stroke: #555555; stroke-linejoin: miter; stroke-linecap: square"/>
   </g>
   <g id="text_34">
    <!-- Positive COVID-19 tests - last updated on 12 January 2022 -->
    <g style="fill: #555555" transform="translate(350.305469 27.72)scale(0.18 -0.18)">
     <defs>
      <path id="DejaVuSans-50" d="M 1259 4147 
L 1259 2394 
L 2053 2394 
Q 2494 2394 2734 2622 
Q 2975 2850 2975 3272 
Q 2975 3691 2734 3919 
Q 2494 4147 2053 4147 
L 1259 4147 
z
M 628 4666 
L 2053 4666 
Q 2838 4666 3239 4311 
Q 3641 3956 3641 3272 
Q 3641 2581 3239 2228 
Q 2838 1875 2053 1875 
L 1259 1875 
L 1259 0 
L 628 0 
L 628 4666 
z
" transform="scale(0.015625)"/>
      <path id="DejaVuSans-6f" d="M 1959 3097 
Q 1497 3097 1228 2736 
Q 959 2375 959 1747 
Q 959 1119 1226 758 
Q 1494 397 1959 397 
Q 2419 397 2687 759 
Q 2956 1122 2956 1747 
Q 2956 2369 2687 2733 
Q 2419 3097 1959 3097 
z
M 1959 3584 
Q 2709 3584 3137 3096 
Q 3566 2609 3566 1747 
Q 3566 888 3137 398 
Q 2709 -91 1959 -91 
Q 1206 -91 779 398 
Q 353 888 353 1747 
Q 353 2609 779 3096 
Q 1206 3584 1959 3584 
z
" transform="scale(0.015625)"/>
      <path id="DejaVuSans-69" d="M 603 3500 
L 1178 3500 
L 1178 0 
L 603 0 
L 603 3500 
z
M 603 4863 
L 1178 4863 
L 1178 4134 
L 603 4134 
L 603 4863 
z
" transform="scale(0.015625)"/>
      <path id="DejaVuSans-74" d="M 1172 4494 
L 1172 3500 
L 2356 3500 
L 2356 3053 
L 1172 3053 
L 1172 1153 
Q 1172 725 1289 603 
Q 1406 481 1766 481 
L 2356 481 
L 2356 0 
L 1766 0 
Q 1100 0 847 248 
Q 594 497 594 1153 
L 594 3053 
L 172 3053 
L 172 3500 
L 594 3500 
L 594 4494 
L 1172 4494 
z
" transform="scale(0.015625)"/>
      <path id="DejaVuSans-76" d="M 191 3500 
L 800 3500 
L 1894 563 
L 2988 3500 
L 3597 3500 
L 2284 0 
L 1503 0 
L 191 3500 
z
" transform="scale(0.015625)"/>
      <path id="DejaVuSans-4f" d="M 2522 4238 
Q 1834 4238 1429 3725 
Q 1025 3213 1025 2328 
Q 1025 1447 1429 934 
Q 1834 422 2522 422 
Q 3209 422 3611 934 
Q 4013 1447 4013 2328 
Q 4013 3213 3611 3725 
Q 3209 4238 2522 4238 
z
M 2522 4750 
Q 3503 4750 4090 4092 
Q 4678 3434 4678 2328 
Q 4678 1225 4090 567 
Q 3503 -91 2522 -91 
Q 1538 -91 948 565 
Q 359 1222 359 2328 
Q 359 3434 948 4092 
Q 1538 4750 2522 4750 
z
" transform="scale(0.015625)"/>
      <path id="DejaVuSans-56" d="M 1831 0 
L 50 4666 
L 709 4666 
L 2188 738 
L 3669 4666 
L 4325 4666 
L 2547 0 
L 1831 0 
z
" transform="scale(0.015625)"/>
      <path id="DejaVuSans-49" d="M 628 4666 
L 1259 4666 
L 1259 0 
L 628 0 
L 628 4666 
z
" transform="scale(0.015625)"/>
      <path id="DejaVuSans-44" d="M 1259 4147 
L 1259 519 
L 2022 519 
Q 2988 519 3436 956 
Q 3884 1394 3884 2338 
Q 3884 3275 3436 3711 
Q 2988 4147 2022 4147 
L 1259 4147 
z
M 628 4666 
L 1925 4666 
Q 3281 4666 3915 4102 
Q 4550 3538 4550 2338 
Q 4550 1131 3912 565 
Q 3275 0 1925 0 
L 628 0 
L 628 4666 
z
" transform="scale(0.015625)"/>
      <path id="DejaVuSans-2d" d="M 313 2009 
L 1997 2009 
L 1997 1497 
L 313 1497 
L 313 2009 
z
" transform="scale(0.015625)"/>
      <path id="DejaVuSans-31" d="M 794 531 
L 1825 531 
L 1825 4091 
L 703 3866 
L 703 4441 
L 1819 4666 
L 2450 4666 
L 2450 531 
L 3481 531 
L 3481 0 
L 794 0 
L 794 531 
z
" transform="scale(0.015625)"/>
      <path id="DejaVuSans-39" d="M 703 97 
L 703 672 
Q 941 559 1184 500 
Q 1428 441 1663 441 
Q 2288 441 2617 861 
Q 2947 1281 2994 2138 
Q 2813 1869 2534 1725 
Q 2256 1581 1919 1581 
Q 1219 1581 811 2004 
Q 403 2428 403 3163 
Q 403 3881 828 4315 
Q 1253 4750 1959 4750 
Q 2769 4750 3195 4129 
Q 3622 3509 3622 2328 
Q 3622 1225 3098 567 
Q 2575 -91 1691 -91 
Q 1453 -91 1209 -44 
Q 966 3 703 97 
z
M 1959 2075 
Q 2384 2075 2632 2365 
Q 2881 2656 2881 3163 
Q 2881 3666 2632 3958 
Q 2384 4250 1959 4250 
Q 1534 4250 1286 3958 
Q 1038 3666 1038 3163 
Q 1038 2656 1286 2365 
Q 1534 2075 1959 2075 
z
" transform="scale(0.015625)"/>
      <path id="DejaVuSans-6c" d="M 603 4863 
L 1178 4863 
L 1178 0 
L 603 0 
L 603 4863 
z
" transform="scale(0.015625)"/>
      <path id="DejaVuSans-75" d="M 544 1381 
L 544 3500 
L 1119 3500 
L 1119 1403 
Q 1119 906 1312 657 
Q 1506 409 1894 409 
Q 2359 409 2629 706 
Q 2900 1003 2900 1516 
L 2900 3500 
L 3475 3500 
L 3475 0 
L 2900 0 
L 2900 538 
Q 2691 219 2414 64 
Q 2138 -91 1772 -91 
Q 1169 -91 856 284 
Q 544 659 544 1381 
z
M 1991 3584 
L 1991 3584 
z
" transform="scale(0.015625)"/>
      <path id="DejaVuSans-70" d="M 1159 525 
L 1159 -1331 
L 581 -1331 
L 581 3500 
L 1159 3500 
L 1159 2969 
Q 1341 3281 1617 3432 
Q 1894 3584 2278 3584 
Q 2916 3584 3314 3078 
Q 3713 2572 3713 1747 
Q 3713 922 3314 415 
Q 2916 -91 2278 -91 
Q 1894 -91 1617 61 
Q 1341 213 1159 525 
z
M 3116 1747 
Q 3116 2381 2855 2742 
Q 2594 3103 2138 3103 
Q 1681 3103 1420 2742 
Q 1159 2381 1159 1747 
Q 1159 1113 1420 752 
Q 1681 391 2138 391 
Q 2594 391 2855 752 
Q 3116 1113 3116 1747 
z
" transform="scale(0.015625)"/>
      <path id="DejaVuSans-64" d="M 2906 2969 
L 2906 4863 
L 3481 4863 
L 3481 0 
L 2906 0 
L 2906 525 
Q 2725 213 2448 61 
Q 2172 -91 1784 -91 
Q 1150 -91 751 415 
Q 353 922 353 1747 
Q 353 2572 751 3078 
Q 1150 3584 1784 3584 
Q 2172 3584 2448 3432 
Q 2725 3281 2906 2969 
z
M 947 1747 
Q 947 1113 1208 752 
Q 1469 391 1925 391 
Q 2381 391 2643 752 
Q 2906 1113 2906 1747 
Q 2906 2381 2643 2742 
Q 2381 3103 1925 3103 
Q 1469 3103 1208 2742 
Q 947 2381 947 1747 
z
" transform="scale(0.015625)"/>
      <path id="DejaVuSans-6e" d="M 3513 2113 
L 3513 0 
L 2938 0 
L 2938 2094 
Q 2938 2591 2744 2837 
Q 2550 3084 2163 3084 
Q 1697 3084 1428 2787 
Q 1159 2491 1159 1978 
L 1159 0 
L 581 0 
L 581 3500 
L 1159 3500 
L 1159 2956 
Q 1366 3272 1645 3428 
Q 1925 3584 2291 3584 
Q 2894 3584 3203 3211 
Q 3513 2838 3513 2113 
z
" transform="scale(0.015625)"/>
      <path id="DejaVuSans-32" d="M 1228 531 
L 3431 531 
L 3431 0 
L 469 0 
L 469 531 
Q 828 903 1448 1529 
Q 2069 2156 2228 2338 
Q 2531 2678 2651 2914 
Q 2772 3150 2772 3378 
Q 2772 3750 2511 3984 
Q 2250 4219 1831 4219 
Q 1534 4219 1204 4116 
Q 875 4013 500 3803 
L 500 4441 
Q 881 4594 1212 4672 
Q 1544 4750 1819 4750 
Q 2544 4750 2975 4387 
Q 3406 4025 3406 3419 
Q 3406 3131 3298 2873 
Q 3191 2616 2906 2266 
Q 2828 2175 2409 1742 
Q 1991 1309 1228 531 
z
" transform="scale(0.015625)"/>
      <path id="DejaVuSans-4a" d="M 628 4666 
L 1259 4666 
L 1259 325 
Q 1259 -519 939 -900 
Q 619 -1281 -91 -1281 
L -331 -1281 
L -331 -750 
L -134 -750 
Q 284 -750 456 -515 
Q 628 -281 628 325 
L 628 4666 
z
" transform="scale(0.015625)"/>
      <path id="DejaVuSans-72" d="M 2631 2963 
Q 2534 3019 2420 3045 
Q 2306 3072 2169 3072 
Q 1681 3072 1420 2755 
Q 1159 2438 1159 1844 
L 1159 0 
L 581 0 
L 581 3500 
L 1159 3500 
L 1159 2956 
Q 1341 3275 1631 3429 
Q 1922 3584 2338 3584 
Q 2397 3584 2469 3576 
Q 2541 3569 2628 3553 
L 2631 2963 
z
" transform="scale(0.015625)"/>
      <path id="DejaVuSans-79" d="M 2059 -325 
Q 1816 -950 1584 -1140 
Q 1353 -1331 966 -1331 
L 506 -1331 
L 506 -850 
L 844 -850 
Q 1081 -850 1212 -737 
Q 1344 -625 1503 -206 
L 1606 56 
L 191 3500 
L 800 3500 
L 1894 763 
L 2988 3500 
L 3597 3500 
L 2059 -325 
z
" transform="scale(0.015625)"/>
      <path id="DejaVuSans-30" d="M 2034 4250 
Q 1547 4250 1301 3770 
Q 1056 3291 1056 2328 
Q 1056 1369 1301 889 
Q 1547 409 2034 409 
Q 2525 409 2770 889 
Q 3016 1369 3016 2328 
Q 3016 3291 2770 3770 
Q 2525 4250 2034 4250 
z
M 2034 4750 
Q 2819 4750 3233 4129 
Q 3647 3509 3647 2328 
Q 3647 1150 3233 529 
Q 2819 -91 2034 -91 
Q 1250 -91 836 529 
Q 422 1150 422 2328 
Q 422 3509 836 4129 
Q 1250 4750 2034 4750 
z
" transform="scale(0.015625)"/>
     </defs>
     <use xlink:href="#DejaVuSans-50"/>
     <use xlink:href="#DejaVuSans-6f" x="56.677734"/>
     <use xlink:href="#DejaVuSans-73" x="117.859375"/>
     <use xlink:href="#DejaVuSans-69" x="169.958984"/>
     <use xlink:href="#DejaVuSans-74" x="197.742188"/>
     <use xlink:href="#DejaVuSans-69" x="236.951172"/>
     <use xlink:href="#DejaVuSans-76" x="264.734375"/>
     <use xlink:href="#DejaVuSans-65" x="323.914062"/>
     <use xlink:href="#DejaVuSans-20" x="385.4375"/>
     <use xlink:href="#DejaVuSans-43" x="417.224609"/>
     <use xlink:href="#DejaVuSans-4f" x="487.048828"/>
     <use xlink:href="#DejaVuSans-56" x="564.009766"/>
     <use xlink:href="#DejaVuSans-49" x="632.417969"/>
     <use xlink:href="#DejaVuSans-44" x="661.910156"/>
     <use xlink:href="#DejaVuSans-2d" x="738.912109"/>
     <use xlink:href="#DejaVuSans-31" x="774.996094"/>
     <use xlink:href="#DejaVuSans-39" x="838.619141"/>
     <use xlink:href="#DejaVuSans-20" x="902.242188"/>
     <use xlink:href="#DejaVuSans-74" x="934.029297"/>
     <use xlink:href="#DejaVuSans-65" x="973.238281"/>
     <use xlink:href="#DejaVuSans-73" x="1034.761719"/>
     <use xlink:href="#DejaVuSans-74" x="1086.861328"/>
     <use xlink:href="#DejaVuSans-73" x="1126.070312"/>
     <use xlink:href="#DejaVuSans-20" x="1178.169922"/>
     <use xlink:href="#DejaVuSans-2d" x="1209.957031"/>
     <use xlink:href="#DejaVuSans-20" x="1246.041016"/>
     <use xlink:href="#DejaVuSans-6c" x="1277.828125"/>
     <use xlink:href="#DejaVuSans-61" x="1305.611328"/>
     <use xlink:href="#DejaVuSans-73" x="1366.890625"/>
     <use xlink:href="#DejaVuSans-74" x="1418.990234"/>
     <use xlink:href="#DejaVuSans-20" x="1458.199219"/>
     <use xlink:href="#DejaVuSans-75" x="1489.986328"/>
     <use xlink:href="#DejaVuSans-70" x="1553.365234"/>
     <use xlink:href="#DejaVuSans-64" x="1616.841797"/>
     <use xlink:href="#DejaVuSans-61" x="1680.318359"/>
     <use xlink:href="#DejaVuSans-74" x="1741.597656"/>
     <use xlink:href="#DejaVuSans-65" x="1780.806641"/>
     <use xlink:href="#DejaVuSans-64" x="1842.330078"/>
     <use xlink:href="#DejaVuSans-20" x="1905.806641"/>
     <use xlink:href="#DejaVuSans-6f" x="1937.59375"/>
     <use xlink:href="#DejaVuSans-6e" x="1998.775391"/>
     <use xlink:href="#DejaVuSans-20" x="2062.154297"/>
     <use xlink:href="#DejaVuSans-31" x="2093.941406"/>
     <use xlink:href="#DejaVuSans-32" x="2157.564453"/>
     <use xlink:href="#DejaVuSans-20" x="2221.1875"/>
     <use xlink:href="#DejaVuSans-4a" x="2252.974609"/>
     <use xlink:href="#DejaVuSans-61" x="2282.466797"/>
     <use xlink:href="#DejaVuSans-6e" x="2343.746094"/>
     <use xlink:href="#DejaVuSans-75" x="2407.125"/>
     <use xlink:href="#DejaVuSans-61" x="2470.503906"/>
     <use xlink:href="#DejaVuSans-72" x="2531.783203"/>
     <use xlink:href="#DejaVuSans-79" x="2572.896484"/>
     <use xlink:href="#DejaVuSans-20" x="2632.076172"/>
     <use xlink:href="#DejaVuSans-32" x="2663.863281"/>
     <use xlink:href="#DejaVuSans-30" x="2727.486328"/>
     <use xlink:href="#DejaVuSans-32" x="2791.109375"/>
     <use xlink:href="#DejaVuSans-32" x="2854.732422"/>
    </g>
   </g>
   <g id="legend_1">
    <g id="line2d_35">
     <path d="M 99.65 54.747969 
L 112.65 54.747969 
L 125.65 54.747969 
" style="fill: none; stroke-dasharray: 1.5,2.475; stroke-dashoffset: 0; stroke: #000000; stroke-opacity: 0.5; stroke-width: 1.5"/>
    </g>
    <g id="text_35">
     <!-- Actual -->
     <g style="fill: #555555" transform="translate(136.05 59.297969)scale(0.13 -0.13)">
      <use xlink:href="#DejaVuSans-Bold-41"/>
      <use xlink:href="#DejaVuSans-Bold-63" x="77.392578"/>
      <use xlink:href="#DejaVuSans-Bold-74" x="136.669922"/>
      <use xlink:href="#DejaVuSans-Bold-75" x="184.472656"/>
      <use xlink:href="#DejaVuSans-Bold-61" x="255.664062"/>
      <use xlink:href="#DejaVuSans-Bold-6c" x="323.144531"/>
     </g>
    </g>
    <g id="line2d_36">
     <path d="M 99.65 73.829531 
L 112.65 73.829531 
L 125.65 73.829531 
" style="fill: none; stroke: #000000; stroke-width: 1.5; stroke-linecap: square"/>
    </g>
    <g id="text_36">
     <!-- Smoothed -->
     <g style="fill: #555555" transform="translate(136.05 78.379531)scale(0.13 -0.13)">
      <defs>
       <path id="DejaVuSans-Bold-6d" d="M 3781 2919 
Q 3994 3244 4286 3414 
Q 4578 3584 4928 3584 
Q 5531 3584 5847 3212 
Q 6163 2841 6163 2131 
L 6163 0 
L 5038 0 
L 5038 1825 
Q 5041 1866 5042 1909 
Q 5044 1953 5044 2034 
Q 5044 2406 4934 2573 
Q 4825 2741 4581 2741 
Q 4263 2741 4089 2478 
Q 3916 2216 3909 1719 
L 3909 0 
L 2784 0 
L 2784 1825 
Q 2784 2406 2684 2573 
Q 2584 2741 2328 2741 
Q 2006 2741 1831 2477 
Q 1656 2213 1656 1722 
L 1656 0 
L 531 0 
L 531 3500 
L 1656 3500 
L 1656 2988 
Q 1863 3284 2130 3434 
Q 2397 3584 2719 3584 
Q 3081 3584 3359 3409 
Q 3638 3234 3781 2919 
z
" transform="scale(0.015625)"/>
       <path id="DejaVuSans-Bold-68" d="M 4056 2131 
L 4056 0 
L 2931 0 
L 2931 347 
L 2931 1625 
Q 2931 2084 2911 2256 
Q 2891 2428 2841 2509 
Q 2775 2619 2662 2680 
Q 2550 2741 2406 2741 
Q 2056 2741 1856 2470 
Q 1656 2200 1656 1722 
L 1656 0 
L 538 0 
L 538 4863 
L 1656 4863 
L 1656 2988 
Q 1909 3294 2193 3439 
Q 2478 3584 2822 3584 
Q 3428 3584 3742 3212 
Q 4056 2841 4056 2131 
z
" transform="scale(0.015625)"/>
       <path id="DejaVuSans-Bold-64" d="M 2919 2988 
L 2919 4863 
L 4044 4863 
L 4044 0 
L 2919 0 
L 2919 506 
Q 2688 197 2409 53 
Q 2131 -91 1766 -91 
Q 1119 -91 703 423 
Q 288 938 288 1747 
Q 288 2556 703 3070 
Q 1119 3584 1766 3584 
Q 2128 3584 2408 3439 
Q 2688 3294 2919 2988 
z
M 2181 722 
Q 2541 722 2730 984 
Q 2919 1247 2919 1747 
Q 2919 2247 2730 2509 
Q 2541 2772 2181 2772 
Q 1825 2772 1636 2509 
Q 1447 2247 1447 1747 
Q 1447 1247 1636 984 
Q 1825 722 2181 722 
z
" transform="scale(0.015625)"/>
      </defs>
      <use xlink:href="#DejaVuSans-Bold-53"/>
      <use xlink:href="#DejaVuSans-Bold-6d" x="72.021484"/>
      <use xlink:href="#DejaVuSans-Bold-6f" x="176.220703"/>
      <use xlink:href="#DejaVuSans-Bold-6f" x="244.921875"/>
      <use xlink:href="#DejaVuSans-Bold-74" x="313.623047"/>
      <use xlink:href="#DejaVuSans-Bold-68" x="361.425781"/>
      <use xlink:href="#DejaVuSans-Bold-65" x="432.617188"/>
      <use xlink:href="#DejaVuSans-Bold-64" x="500.439453"/>
     </g>
    </g>
   </g>
  </g>
 </g>
 <defs>
  <clipPath id="pe977e00b1f">
   <rect x="87.95" y="37.72" width="1050.01" height="503.56"/>
  </clipPath>
 </defs>
</svg>
