<?xml version="1.0" encoding="utf-8" standalone="no"?>
<!DOCTYPE svg PUBLIC "-//W3C//DTD SVG 1.1//EN"
  "http://www.w3.org/Graphics/SVG/1.1/DTD/svg11.dtd">
<svg height="576pt" version="1.1" viewBox="0 0 1152 576" width="1152pt" xmlns="http://www.w3.org/2000/svg" xmlns:xlink="http://www.w3.org/1999/xlink">
 <metadata>
  <rdf:RDF xmlns:cc="http://creativecommons.org/ns#" xmlns:dc="http://purl.org/dc/elements/1.1/" xmlns:rdf="http://www.w3.org/1999/02/22-rdf-syntax-ns#">
   <cc:Work>
    <dc:type rdf:resource="http://purl.org/dc/dcmitype/StillImage"/>
    <dc:date>2021-05-17T17:39:50.483252</dc:date>
    <dc:format>image/svg+xml</dc:format>
    <dc:creator>
     <cc:Agent>
      <dc:title>Matplotlib v3.4.2, https://matplotlib.org/</dc:title>
     </cc:Agent>
    </dc:creator>
   </cc:Work>
  </rdf:RDF>
 </metadata>
 <defs>
  <style type="text/css">*{stroke-linecap:butt;stroke-linejoin:round;}</style>
 </defs>
 <g id="figure_1">
  <g id="patch_1">
   <path d="M 0 576 
L 1152 576 
L 1152 0 
L 0 0 
z
" style="fill:#ffffff;"/>
  </g>
  <g id="axes_1">
   <g id="patch_2">
    <path d="M 87.95 541.28 
L 1137.96 541.28 
L 1137.96 37.72 
L 87.95 37.72 
z
" style="fill:#ffffff;"/>
   </g>
   <g id="matplotlib.axis_1">
    <g id="xtick_1">
     <g id="line2d_1">
      <defs>
       <path d="M 0 0 
L 0 3.5 
" id="m06cb72f9dd" style="stroke:#555555;stroke-width:0.8;"/>
      </defs>
      <g>
       <use style="fill:#555555;stroke:#555555;stroke-width:0.8;" x="124.756051" xlink:href="#m06cb72f9dd" y="541.28"/>
      </g>
     </g>
     <g id="text_1">
      <!-- Mar -->
      <g style="fill:#555555;" transform="translate(109.614176 558.917812)scale(0.14 -0.14)">
       <defs>
        <path d="M 588 4666 
L 2119 4666 
L 3181 2169 
L 4250 4666 
L 5778 4666 
L 5778 0 
L 4641 0 
L 4641 3413 
L 3566 897 
L 2803 897 
L 1728 3413 
L 1728 0 
L 588 0 
L 588 4666 
z
" id="DejaVuSans-Bold-4d" transform="scale(0.015625)"/>
        <path d="M 2106 1575 
Q 1756 1575 1579 1456 
Q 1403 1338 1403 1106 
Q 1403 894 1545 773 
Q 1688 653 1941 653 
Q 2256 653 2472 879 
Q 2688 1106 2688 1447 
L 2688 1575 
L 2106 1575 
z
M 3816 1997 
L 3816 0 
L 2688 0 
L 2688 519 
Q 2463 200 2181 54 
Q 1900 -91 1497 -91 
Q 953 -91 614 226 
Q 275 544 275 1050 
Q 275 1666 698 1953 
Q 1122 2241 2028 2241 
L 2688 2241 
L 2688 2328 
Q 2688 2594 2478 2717 
Q 2269 2841 1825 2841 
Q 1466 2841 1156 2769 
Q 847 2697 581 2553 
L 581 3406 
Q 941 3494 1303 3539 
Q 1666 3584 2028 3584 
Q 2975 3584 3395 3211 
Q 3816 2838 3816 1997 
z
" id="DejaVuSans-Bold-61" transform="scale(0.015625)"/>
        <path d="M 3138 2547 
Q 2991 2616 2845 2648 
Q 2700 2681 2553 2681 
Q 2122 2681 1889 2404 
Q 1656 2128 1656 1613 
L 1656 0 
L 538 0 
L 538 3500 
L 1656 3500 
L 1656 2925 
Q 1872 3269 2151 3426 
Q 2431 3584 2822 3584 
Q 2878 3584 2943 3579 
Q 3009 3575 3134 3559 
L 3138 2547 
z
" id="DejaVuSans-Bold-72" transform="scale(0.015625)"/>
       </defs>
       <use xlink:href="#DejaVuSans-Bold-4d"/>
       <use x="99.511719" xlink:href="#DejaVuSans-Bold-61"/>
       <use x="166.992188" xlink:href="#DejaVuSans-Bold-72"/>
      </g>
     </g>
    </g>
    <g id="xtick_2">
     <g id="line2d_2">
      <g>
       <use style="fill:#555555;stroke:#555555;stroke-width:0.8;" x="192.470446" xlink:href="#m06cb72f9dd" y="541.28"/>
      </g>
     </g>
     <g id="text_2">
      <!-- Apr -->
      <g style="fill:#555555;" transform="translate(178.590759 558.917812)scale(0.14 -0.14)">
       <defs>
        <path d="M 3419 850 
L 1538 850 
L 1241 0 
L 31 0 
L 1759 4666 
L 3194 4666 
L 4922 0 
L 3713 0 
L 3419 850 
z
M 1838 1716 
L 3116 1716 
L 2478 3572 
L 1838 1716 
z
" id="DejaVuSans-Bold-41" transform="scale(0.015625)"/>
        <path d="M 1656 506 
L 1656 -1331 
L 538 -1331 
L 538 3500 
L 1656 3500 
L 1656 2988 
Q 1888 3294 2169 3439 
Q 2450 3584 2816 3584 
Q 3463 3584 3878 3070 
Q 4294 2556 4294 1747 
Q 4294 938 3878 423 
Q 3463 -91 2816 -91 
Q 2450 -91 2169 54 
Q 1888 200 1656 506 
z
M 2400 2772 
Q 2041 2772 1848 2508 
Q 1656 2244 1656 1747 
Q 1656 1250 1848 986 
Q 2041 722 2400 722 
Q 2759 722 2948 984 
Q 3138 1247 3138 1747 
Q 3138 2247 2948 2509 
Q 2759 2772 2400 2772 
z
" id="DejaVuSans-Bold-70" transform="scale(0.015625)"/>
       </defs>
       <use xlink:href="#DejaVuSans-Bold-41"/>
       <use x="77.392578" xlink:href="#DejaVuSans-Bold-70"/>
       <use x="148.974609" xlink:href="#DejaVuSans-Bold-72"/>
      </g>
     </g>
    </g>
    <g id="xtick_3">
     <g id="line2d_3">
      <g>
       <use style="fill:#555555;stroke:#555555;stroke-width:0.8;" x="258.000507" xlink:href="#m06cb72f9dd" y="541.28"/>
      </g>
     </g>
     <g id="text_3">
      <!-- May -->
      <g style="fill:#555555;" transform="translate(241.966132 558.808437)scale(0.14 -0.14)">
       <defs>
        <path d="M 78 3500 
L 1197 3500 
L 2138 1125 
L 2938 3500 
L 4056 3500 
L 2584 -331 
Q 2363 -916 2067 -1148 
Q 1772 -1381 1288 -1381 
L 641 -1381 
L 641 -647 
L 991 -647 
Q 1275 -647 1404 -556 
Q 1534 -466 1606 -231 
L 1638 -134 
L 78 3500 
z
" id="DejaVuSans-Bold-79" transform="scale(0.015625)"/>
       </defs>
       <use xlink:href="#DejaVuSans-Bold-4d"/>
       <use x="99.511719" xlink:href="#DejaVuSans-Bold-61"/>
       <use x="163.867188" xlink:href="#DejaVuSans-Bold-79"/>
      </g>
     </g>
    </g>
    <g id="xtick_4">
     <g id="line2d_4">
      <g>
       <use style="fill:#555555;stroke:#555555;stroke-width:0.8;" x="325.714902" xlink:href="#m06cb72f9dd" y="541.28"/>
      </g>
     </g>
     <g id="text_4">
      <!-- Jun -->
      <g style="fill:#555555;" transform="translate(313.144433 558.917812)scale(0.14 -0.14)">
       <defs>
        <path d="M 588 4666 
L 1791 4666 
L 1791 453 
Q 1791 -419 1317 -850 
Q 844 -1281 -116 -1281 
L -359 -1281 
L -359 -372 
L -172 -372 
Q 203 -372 395 -162 
Q 588 47 588 453 
L 588 4666 
z
" id="DejaVuSans-Bold-4a" transform="scale(0.015625)"/>
        <path d="M 500 1363 
L 500 3500 
L 1625 3500 
L 1625 3150 
Q 1625 2866 1622 2436 
Q 1619 2006 1619 1863 
Q 1619 1441 1641 1255 
Q 1663 1069 1716 984 
Q 1784 875 1895 815 
Q 2006 756 2150 756 
Q 2500 756 2700 1025 
Q 2900 1294 2900 1772 
L 2900 3500 
L 4019 3500 
L 4019 0 
L 2900 0 
L 2900 506 
Q 2647 200 2364 54 
Q 2081 -91 1741 -91 
Q 1134 -91 817 281 
Q 500 653 500 1363 
z
" id="DejaVuSans-Bold-75" transform="scale(0.015625)"/>
        <path d="M 4056 2131 
L 4056 0 
L 2931 0 
L 2931 347 
L 2931 1631 
Q 2931 2084 2911 2256 
Q 2891 2428 2841 2509 
Q 2775 2619 2662 2680 
Q 2550 2741 2406 2741 
Q 2056 2741 1856 2470 
Q 1656 2200 1656 1722 
L 1656 0 
L 538 0 
L 538 3500 
L 1656 3500 
L 1656 2988 
Q 1909 3294 2193 3439 
Q 2478 3584 2822 3584 
Q 3428 3584 3742 3212 
Q 4056 2841 4056 2131 
z
" id="DejaVuSans-Bold-6e" transform="scale(0.015625)"/>
       </defs>
       <use xlink:href="#DejaVuSans-Bold-4a"/>
       <use x="37.207031" xlink:href="#DejaVuSans-Bold-75"/>
       <use x="108.398438" xlink:href="#DejaVuSans-Bold-6e"/>
      </g>
     </g>
    </g>
    <g id="xtick_5">
     <g id="line2d_5">
      <g>
       <use style="fill:#555555;stroke:#555555;stroke-width:0.8;" x="391.244963" xlink:href="#m06cb72f9dd" y="541.28"/>
      </g>
     </g>
     <g id="text_5">
      <!-- Jul -->
      <g style="fill:#555555;" transform="translate(381.257931 558.917812)scale(0.14 -0.14)">
       <defs>
        <path d="M 538 4863 
L 1656 4863 
L 1656 0 
L 538 0 
L 538 4863 
z
" id="DejaVuSans-Bold-6c" transform="scale(0.015625)"/>
       </defs>
       <use xlink:href="#DejaVuSans-Bold-4a"/>
       <use x="37.207031" xlink:href="#DejaVuSans-Bold-75"/>
       <use x="108.398438" xlink:href="#DejaVuSans-Bold-6c"/>
      </g>
     </g>
    </g>
    <g id="xtick_6">
     <g id="line2d_6">
      <g>
       <use style="fill:#555555;stroke:#555555;stroke-width:0.8;" x="458.959358" xlink:href="#m06cb72f9dd" y="541.28"/>
      </g>
     </g>
     <g id="text_6">
      <!-- Aug -->
      <g style="fill:#555555;" transform="translate(443.548421 558.808437)scale(0.14 -0.14)">
       <defs>
        <path d="M 2919 594 
Q 2688 288 2409 144 
Q 2131 0 1766 0 
Q 1125 0 706 504 
Q 288 1009 288 1791 
Q 288 2575 706 3076 
Q 1125 3578 1766 3578 
Q 2131 3578 2409 3434 
Q 2688 3291 2919 2981 
L 2919 3500 
L 4044 3500 
L 4044 353 
Q 4044 -491 3511 -936 
Q 2978 -1381 1966 -1381 
Q 1638 -1381 1331 -1331 
Q 1025 -1281 716 -1178 
L 716 -306 
Q 1009 -475 1290 -558 
Q 1572 -641 1856 -641 
Q 2406 -641 2662 -400 
Q 2919 -159 2919 353 
L 2919 594 
z
M 2181 2772 
Q 1834 2772 1640 2515 
Q 1447 2259 1447 1791 
Q 1447 1309 1634 1061 
Q 1822 813 2181 813 
Q 2531 813 2725 1069 
Q 2919 1325 2919 1791 
Q 2919 2259 2725 2515 
Q 2531 2772 2181 2772 
z
" id="DejaVuSans-Bold-67" transform="scale(0.015625)"/>
       </defs>
       <use xlink:href="#DejaVuSans-Bold-41"/>
       <use x="77.392578" xlink:href="#DejaVuSans-Bold-75"/>
       <use x="148.583984" xlink:href="#DejaVuSans-Bold-67"/>
      </g>
     </g>
    </g>
    <g id="xtick_7">
     <g id="line2d_7">
      <g>
       <use style="fill:#555555;stroke:#555555;stroke-width:0.8;" x="526.673754" xlink:href="#m06cb72f9dd" y="541.28"/>
      </g>
     </g>
     <g id="text_7">
      <!-- Sep -->
      <g style="fill:#555555;" transform="translate(511.874223 558.917812)scale(0.14 -0.14)">
       <defs>
        <path d="M 3834 4519 
L 3834 3531 
Q 3450 3703 3084 3790 
Q 2719 3878 2394 3878 
Q 1963 3878 1756 3759 
Q 1550 3641 1550 3391 
Q 1550 3203 1689 3098 
Q 1828 2994 2194 2919 
L 2706 2816 
Q 3484 2659 3812 2340 
Q 4141 2022 4141 1434 
Q 4141 663 3683 286 
Q 3225 -91 2284 -91 
Q 1841 -91 1394 -6 
Q 947 78 500 244 
L 500 1259 
Q 947 1022 1364 901 
Q 1781 781 2169 781 
Q 2563 781 2772 912 
Q 2981 1044 2981 1288 
Q 2981 1506 2839 1625 
Q 2697 1744 2272 1838 
L 1806 1941 
Q 1106 2091 782 2419 
Q 459 2747 459 3303 
Q 459 4000 909 4375 
Q 1359 4750 2203 4750 
Q 2588 4750 2994 4692 
Q 3400 4634 3834 4519 
z
" id="DejaVuSans-Bold-53" transform="scale(0.015625)"/>
        <path d="M 4031 1759 
L 4031 1441 
L 1416 1441 
Q 1456 1047 1700 850 
Q 1944 653 2381 653 
Q 2734 653 3104 758 
Q 3475 863 3866 1075 
L 3866 213 
Q 3469 63 3072 -14 
Q 2675 -91 2278 -91 
Q 1328 -91 801 392 
Q 275 875 275 1747 
Q 275 2603 792 3093 
Q 1309 3584 2216 3584 
Q 3041 3584 3536 3087 
Q 4031 2591 4031 1759 
z
M 2881 2131 
Q 2881 2450 2695 2645 
Q 2509 2841 2209 2841 
Q 1884 2841 1681 2658 
Q 1478 2475 1428 2131 
L 2881 2131 
z
" id="DejaVuSans-Bold-65" transform="scale(0.015625)"/>
       </defs>
       <use xlink:href="#DejaVuSans-Bold-53"/>
       <use x="72.021484" xlink:href="#DejaVuSans-Bold-65"/>
       <use x="139.84375" xlink:href="#DejaVuSans-Bold-70"/>
      </g>
     </g>
    </g>
    <g id="xtick_8">
     <g id="line2d_8">
      <g>
       <use style="fill:#555555;stroke:#555555;stroke-width:0.8;" x="592.203814" xlink:href="#m06cb72f9dd" y="541.28"/>
      </g>
     </g>
     <g id="text_8">
      <!-- Oct -->
      <g style="fill:#555555;" transform="translate(578.757252 558.917812)scale(0.14 -0.14)">
       <defs>
        <path d="M 2719 3878 
Q 2169 3878 1866 3472 
Q 1563 3066 1563 2328 
Q 1563 1594 1866 1187 
Q 2169 781 2719 781 
Q 3272 781 3575 1187 
Q 3878 1594 3878 2328 
Q 3878 3066 3575 3472 
Q 3272 3878 2719 3878 
z
M 2719 4750 
Q 3844 4750 4481 4106 
Q 5119 3463 5119 2328 
Q 5119 1197 4481 553 
Q 3844 -91 2719 -91 
Q 1597 -91 958 553 
Q 319 1197 319 2328 
Q 319 3463 958 4106 
Q 1597 4750 2719 4750 
z
" id="DejaVuSans-Bold-4f" transform="scale(0.015625)"/>
        <path d="M 3366 3391 
L 3366 2478 
Q 3138 2634 2908 2709 
Q 2678 2784 2431 2784 
Q 1963 2784 1702 2511 
Q 1441 2238 1441 1747 
Q 1441 1256 1702 982 
Q 1963 709 2431 709 
Q 2694 709 2930 787 
Q 3166 866 3366 1019 
L 3366 103 
Q 3103 6 2833 -42 
Q 2563 -91 2291 -91 
Q 1344 -91 809 395 
Q 275 881 275 1747 
Q 275 2613 809 3098 
Q 1344 3584 2291 3584 
Q 2566 3584 2833 3536 
Q 3100 3488 3366 3391 
z
" id="DejaVuSans-Bold-63" transform="scale(0.015625)"/>
        <path d="M 1759 4494 
L 1759 3500 
L 2913 3500 
L 2913 2700 
L 1759 2700 
L 1759 1216 
Q 1759 972 1856 886 
Q 1953 800 2241 800 
L 2816 800 
L 2816 0 
L 1856 0 
Q 1194 0 917 276 
Q 641 553 641 1216 
L 641 2700 
L 84 2700 
L 84 3500 
L 641 3500 
L 641 4494 
L 1759 4494 
z
" id="DejaVuSans-Bold-74" transform="scale(0.015625)"/>
       </defs>
       <use xlink:href="#DejaVuSans-Bold-4f"/>
       <use x="85.009766" xlink:href="#DejaVuSans-Bold-63"/>
       <use x="144.287109" xlink:href="#DejaVuSans-Bold-74"/>
      </g>
     </g>
    </g>
    <g id="xtick_9">
     <g id="line2d_9">
      <g>
       <use style="fill:#555555;stroke:#555555;stroke-width:0.8;" x="659.91821" xlink:href="#m06cb72f9dd" y="541.28"/>
      </g>
     </g>
     <g id="text_9">
      <!-- Nov -->
      <g style="fill:#555555;" transform="translate(644.687741 558.917812)scale(0.14 -0.14)">
       <defs>
        <path d="M 588 4666 
L 1931 4666 
L 3628 1466 
L 3628 4666 
L 4769 4666 
L 4769 0 
L 3425 0 
L 1728 3200 
L 1728 0 
L 588 0 
L 588 4666 
z
" id="DejaVuSans-Bold-4e" transform="scale(0.015625)"/>
        <path d="M 2203 2784 
Q 1831 2784 1636 2517 
Q 1441 2250 1441 1747 
Q 1441 1244 1636 976 
Q 1831 709 2203 709 
Q 2569 709 2762 976 
Q 2956 1244 2956 1747 
Q 2956 2250 2762 2517 
Q 2569 2784 2203 2784 
z
M 2203 3584 
Q 3106 3584 3614 3096 
Q 4122 2609 4122 1747 
Q 4122 884 3614 396 
Q 3106 -91 2203 -91 
Q 1297 -91 786 396 
Q 275 884 275 1747 
Q 275 2609 786 3096 
Q 1297 3584 2203 3584 
z
" id="DejaVuSans-Bold-6f" transform="scale(0.015625)"/>
        <path d="M 97 3500 
L 1216 3500 
L 2088 1081 
L 2956 3500 
L 4078 3500 
L 2700 0 
L 1472 0 
L 97 3500 
z
" id="DejaVuSans-Bold-76" transform="scale(0.015625)"/>
       </defs>
       <use xlink:href="#DejaVuSans-Bold-4e"/>
       <use x="83.691406" xlink:href="#DejaVuSans-Bold-6f"/>
       <use x="152.392578" xlink:href="#DejaVuSans-Bold-76"/>
      </g>
     </g>
    </g>
    <g id="xtick_10">
     <g id="line2d_10">
      <g>
       <use style="fill:#555555;stroke:#555555;stroke-width:0.8;" x="725.44827" xlink:href="#m06cb72f9dd" y="541.28"/>
      </g>
     </g>
     <g id="text_10">
      <!-- Dec -->
      <g style="fill:#555555;" transform="translate(710.73952 558.917812)scale(0.14 -0.14)">
       <defs>
        <path d="M 1791 3756 
L 1791 909 
L 2222 909 
Q 2959 909 3348 1275 
Q 3738 1641 3738 2338 
Q 3738 3031 3350 3393 
Q 2963 3756 2222 3756 
L 1791 3756 
z
M 588 4666 
L 1856 4666 
Q 2919 4666 3439 4514 
Q 3959 4363 4331 4000 
Q 4659 3684 4818 3271 
Q 4978 2859 4978 2338 
Q 4978 1809 4818 1395 
Q 4659 981 4331 666 
Q 3956 303 3431 151 
Q 2906 0 1856 0 
L 588 0 
L 588 4666 
z
" id="DejaVuSans-Bold-44" transform="scale(0.015625)"/>
       </defs>
       <use xlink:href="#DejaVuSans-Bold-44"/>
       <use x="83.007812" xlink:href="#DejaVuSans-Bold-65"/>
       <use x="150.830078" xlink:href="#DejaVuSans-Bold-63"/>
      </g>
     </g>
    </g>
    <g id="xtick_11">
     <g id="line2d_11">
      <g>
       <use style="fill:#555555;stroke:#555555;stroke-width:0.8;" x="793.162666" xlink:href="#m06cb72f9dd" y="541.28"/>
      </g>
     </g>
     <g id="text_11">
      <!-- Jan -->
      <g style="fill:#555555;" transform="translate(780.851416 558.917812)scale(0.14 -0.14)">
       <use xlink:href="#DejaVuSans-Bold-4a"/>
       <use x="37.207031" xlink:href="#DejaVuSans-Bold-61"/>
       <use x="104.6875" xlink:href="#DejaVuSans-Bold-6e"/>
      </g>
     </g>
    </g>
    <g id="xtick_12">
     <g id="line2d_12">
      <g>
       <use style="fill:#555555;stroke:#555555;stroke-width:0.8;" x="860.877062" xlink:href="#m06cb72f9dd" y="541.28"/>
      </g>
     </g>
     <g id="text_12">
      <!-- Feb -->
      <g style="fill:#555555;" transform="translate(846.616749 558.917812)scale(0.14 -0.14)">
       <defs>
        <path d="M 588 4666 
L 3834 4666 
L 3834 3756 
L 1791 3756 
L 1791 2888 
L 3713 2888 
L 3713 1978 
L 1791 1978 
L 1791 0 
L 588 0 
L 588 4666 
z
" id="DejaVuSans-Bold-46" transform="scale(0.015625)"/>
        <path d="M 2400 722 
Q 2759 722 2948 984 
Q 3138 1247 3138 1747 
Q 3138 2247 2948 2509 
Q 2759 2772 2400 2772 
Q 2041 2772 1848 2508 
Q 1656 2244 1656 1747 
Q 1656 1250 1848 986 
Q 2041 722 2400 722 
z
M 1656 2988 
Q 1888 3294 2169 3439 
Q 2450 3584 2816 3584 
Q 3463 3584 3878 3070 
Q 4294 2556 4294 1747 
Q 4294 938 3878 423 
Q 3463 -91 2816 -91 
Q 2450 -91 2169 54 
Q 1888 200 1656 506 
L 1656 0 
L 538 0 
L 538 4863 
L 1656 4863 
L 1656 2988 
z
" id="DejaVuSans-Bold-62" transform="scale(0.015625)"/>
       </defs>
       <use xlink:href="#DejaVuSans-Bold-46"/>
       <use x="64.310547" xlink:href="#DejaVuSans-Bold-65"/>
       <use x="132.132812" xlink:href="#DejaVuSans-Bold-62"/>
      </g>
     </g>
    </g>
    <g id="xtick_13">
     <g id="line2d_13">
      <g>
       <use style="fill:#555555;stroke:#555555;stroke-width:0.8;" x="922.038451" xlink:href="#m06cb72f9dd" y="541.28"/>
      </g>
     </g>
     <g id="text_13">
      <!-- Mar -->
      <g style="fill:#555555;" transform="translate(906.896576 558.917812)scale(0.14 -0.14)">
       <use xlink:href="#DejaVuSans-Bold-4d"/>
       <use x="99.511719" xlink:href="#DejaVuSans-Bold-61"/>
       <use x="166.992188" xlink:href="#DejaVuSans-Bold-72"/>
      </g>
     </g>
    </g>
    <g id="xtick_14">
     <g id="line2d_14">
      <g>
       <use style="fill:#555555;stroke:#555555;stroke-width:0.8;" x="989.752847" xlink:href="#m06cb72f9dd" y="541.28"/>
      </g>
     </g>
     <g id="text_14">
      <!-- Apr -->
      <g style="fill:#555555;" transform="translate(975.873159 558.917812)scale(0.14 -0.14)">
       <use xlink:href="#DejaVuSans-Bold-41"/>
       <use x="77.392578" xlink:href="#DejaVuSans-Bold-70"/>
       <use x="148.974609" xlink:href="#DejaVuSans-Bold-72"/>
      </g>
     </g>
    </g>
    <g id="xtick_15">
     <g id="line2d_15">
      <g>
       <use style="fill:#555555;stroke:#555555;stroke-width:0.8;" x="1055.282907" xlink:href="#m06cb72f9dd" y="541.28"/>
      </g>
     </g>
     <g id="text_15">
      <!-- May -->
      <g style="fill:#555555;" transform="translate(1039.248532 558.808437)scale(0.14 -0.14)">
       <use xlink:href="#DejaVuSans-Bold-4d"/>
       <use x="99.511719" xlink:href="#DejaVuSans-Bold-61"/>
       <use x="163.867188" xlink:href="#DejaVuSans-Bold-79"/>
      </g>
     </g>
    </g>
    <g id="xtick_16">
     <g id="line2d_16">
      <g>
       <use style="fill:#555555;stroke:#555555;stroke-width:0.8;" x="1122.997303" xlink:href="#m06cb72f9dd" y="541.28"/>
      </g>
     </g>
     <g id="text_16">
      <!-- Jun -->
      <g style="fill:#555555;" transform="translate(1110.426834 558.917812)scale(0.14 -0.14)">
       <use xlink:href="#DejaVuSans-Bold-4a"/>
       <use x="37.207031" xlink:href="#DejaVuSans-Bold-75"/>
       <use x="108.398438" xlink:href="#DejaVuSans-Bold-6e"/>
      </g>
     </g>
    </g>
   </g>
   <g id="matplotlib.axis_2">
    <g id="ytick_1">
     <g id="line2d_17">
      <defs>
       <path d="M 0 0 
L -3.5 0 
" id="m1e18d02852" style="stroke:#555555;stroke-width:0.8;"/>
      </defs>
      <g>
       <use style="fill:#555555;stroke:#555555;stroke-width:0.8;" x="87.95" xlink:href="#m1e18d02852" y="519.485405"/>
      </g>
     </g>
     <g id="text_17">
      <!-- 0 -->
      <g style="fill:#555555;" transform="translate(71.209063 524.804311)scale(0.14 -0.14)">
       <defs>
        <path d="M 2944 2338 
Q 2944 3213 2780 3570 
Q 2616 3928 2228 3928 
Q 1841 3928 1675 3570 
Q 1509 3213 1509 2338 
Q 1509 1453 1675 1090 
Q 1841 728 2228 728 
Q 2613 728 2778 1090 
Q 2944 1453 2944 2338 
z
M 4147 2328 
Q 4147 1169 3647 539 
Q 3147 -91 2228 -91 
Q 1306 -91 806 539 
Q 306 1169 306 2328 
Q 306 3491 806 4120 
Q 1306 4750 2228 4750 
Q 3147 4750 3647 4120 
Q 4147 3491 4147 2328 
z
" id="DejaVuSans-Bold-30" transform="scale(0.015625)"/>
       </defs>
       <use xlink:href="#DejaVuSans-Bold-30"/>
      </g>
     </g>
    </g>
    <g id="ytick_2">
     <g id="line2d_18">
      <g>
       <use style="fill:#555555;stroke:#555555;stroke-width:0.8;" x="87.95" xlink:href="#m1e18d02852" y="448.872754"/>
      </g>
     </g>
     <g id="text_18">
      <!-- 2000 -->
      <g style="fill:#555555;" transform="translate(41.98625 454.19166)scale(0.14 -0.14)">
       <defs>
        <path d="M 1844 884 
L 3897 884 
L 3897 0 
L 506 0 
L 506 884 
L 2209 2388 
Q 2438 2594 2547 2791 
Q 2656 2988 2656 3200 
Q 2656 3528 2436 3728 
Q 2216 3928 1850 3928 
Q 1569 3928 1234 3808 
Q 900 3688 519 3450 
L 519 4475 
Q 925 4609 1322 4679 
Q 1719 4750 2100 4750 
Q 2938 4750 3402 4381 
Q 3866 4013 3866 3353 
Q 3866 2972 3669 2642 
Q 3472 2313 2841 1759 
L 1844 884 
z
" id="DejaVuSans-Bold-32" transform="scale(0.015625)"/>
       </defs>
       <use xlink:href="#DejaVuSans-Bold-32"/>
       <use x="69.580078" xlink:href="#DejaVuSans-Bold-30"/>
       <use x="139.160156" xlink:href="#DejaVuSans-Bold-30"/>
       <use x="208.740234" xlink:href="#DejaVuSans-Bold-30"/>
      </g>
     </g>
    </g>
    <g id="ytick_3">
     <g id="line2d_19">
      <g>
       <use style="fill:#555555;stroke:#555555;stroke-width:0.8;" x="87.95" xlink:href="#m1e18d02852" y="378.260103"/>
      </g>
     </g>
     <g id="text_19">
      <!-- 4000 -->
      <g style="fill:#555555;" transform="translate(41.98625 383.579009)scale(0.14 -0.14)">
       <defs>
        <path d="M 2356 3675 
L 1038 1722 
L 2356 1722 
L 2356 3675 
z
M 2156 4666 
L 3494 4666 
L 3494 1722 
L 4159 1722 
L 4159 850 
L 3494 850 
L 3494 0 
L 2356 0 
L 2356 850 
L 288 850 
L 288 1881 
L 2156 4666 
z
" id="DejaVuSans-Bold-34" transform="scale(0.015625)"/>
       </defs>
       <use xlink:href="#DejaVuSans-Bold-34"/>
       <use x="69.580078" xlink:href="#DejaVuSans-Bold-30"/>
       <use x="139.160156" xlink:href="#DejaVuSans-Bold-30"/>
       <use x="208.740234" xlink:href="#DejaVuSans-Bold-30"/>
      </g>
     </g>
    </g>
    <g id="ytick_4">
     <g id="line2d_20">
      <g>
       <use style="fill:#555555;stroke:#555555;stroke-width:0.8;" x="87.95" xlink:href="#m1e18d02852" y="307.647451"/>
      </g>
     </g>
     <g id="text_20">
      <!-- 6000 -->
      <g style="fill:#555555;" transform="translate(41.98625 312.966358)scale(0.14 -0.14)">
       <defs>
        <path d="M 2316 2303 
Q 2000 2303 1842 2098 
Q 1684 1894 1684 1484 
Q 1684 1075 1842 870 
Q 2000 666 2316 666 
Q 2634 666 2792 870 
Q 2950 1075 2950 1484 
Q 2950 1894 2792 2098 
Q 2634 2303 2316 2303 
z
M 3803 4544 
L 3803 3681 
Q 3506 3822 3243 3889 
Q 2981 3956 2731 3956 
Q 2194 3956 1894 3657 
Q 1594 3359 1544 2772 
Q 1750 2925 1990 3001 
Q 2231 3078 2516 3078 
Q 3231 3078 3670 2659 
Q 4109 2241 4109 1563 
Q 4109 813 3618 361 
Q 3128 -91 2303 -91 
Q 1394 -91 895 523 
Q 397 1138 397 2266 
Q 397 3422 980 4083 
Q 1563 4744 2578 4744 
Q 2900 4744 3203 4694 
Q 3506 4644 3803 4544 
z
" id="DejaVuSans-Bold-36" transform="scale(0.015625)"/>
       </defs>
       <use xlink:href="#DejaVuSans-Bold-36"/>
       <use x="69.580078" xlink:href="#DejaVuSans-Bold-30"/>
       <use x="139.160156" xlink:href="#DejaVuSans-Bold-30"/>
       <use x="208.740234" xlink:href="#DejaVuSans-Bold-30"/>
      </g>
     </g>
    </g>
    <g id="ytick_5">
     <g id="line2d_21">
      <g>
       <use style="fill:#555555;stroke:#555555;stroke-width:0.8;" x="87.95" xlink:href="#m1e18d02852" y="237.0348"/>
      </g>
     </g>
     <g id="text_21">
      <!-- 8000 -->
      <g style="fill:#555555;" transform="translate(41.98625 242.353706)scale(0.14 -0.14)">
       <defs>
        <path d="M 2228 2088 
Q 1891 2088 1709 1903 
Q 1528 1719 1528 1375 
Q 1528 1031 1709 848 
Q 1891 666 2228 666 
Q 2563 666 2741 848 
Q 2919 1031 2919 1375 
Q 2919 1722 2741 1905 
Q 2563 2088 2228 2088 
z
M 1350 2484 
Q 925 2613 709 2878 
Q 494 3144 494 3541 
Q 494 4131 934 4440 
Q 1375 4750 2228 4750 
Q 3075 4750 3515 4442 
Q 3956 4134 3956 3541 
Q 3956 3144 3739 2878 
Q 3522 2613 3097 2484 
Q 3572 2353 3814 2058 
Q 4056 1763 4056 1313 
Q 4056 619 3595 264 
Q 3134 -91 2228 -91 
Q 1319 -91 855 264 
Q 391 619 391 1313 
Q 391 1763 633 2058 
Q 875 2353 1350 2484 
z
M 1631 3419 
Q 1631 3141 1786 2991 
Q 1941 2841 2228 2841 
Q 2509 2841 2662 2991 
Q 2816 3141 2816 3419 
Q 2816 3697 2662 3845 
Q 2509 3994 2228 3994 
Q 1941 3994 1786 3844 
Q 1631 3694 1631 3419 
z
" id="DejaVuSans-Bold-38" transform="scale(0.015625)"/>
       </defs>
       <use xlink:href="#DejaVuSans-Bold-38"/>
       <use x="69.580078" xlink:href="#DejaVuSans-Bold-30"/>
       <use x="139.160156" xlink:href="#DejaVuSans-Bold-30"/>
       <use x="208.740234" xlink:href="#DejaVuSans-Bold-30"/>
      </g>
     </g>
    </g>
    <g id="ytick_6">
     <g id="line2d_22">
      <g>
       <use style="fill:#555555;stroke:#555555;stroke-width:0.8;" x="87.95" xlink:href="#m1e18d02852" y="166.422149"/>
      </g>
     </g>
     <g id="text_22">
      <!-- 10000 -->
      <g style="fill:#555555;" transform="translate(32.245313 171.741055)scale(0.14 -0.14)">
       <defs>
        <path d="M 750 831 
L 1813 831 
L 1813 3847 
L 722 3622 
L 722 4441 
L 1806 4666 
L 2950 4666 
L 2950 831 
L 4013 831 
L 4013 0 
L 750 0 
L 750 831 
z
" id="DejaVuSans-Bold-31" transform="scale(0.015625)"/>
       </defs>
       <use xlink:href="#DejaVuSans-Bold-31"/>
       <use x="69.580078" xlink:href="#DejaVuSans-Bold-30"/>
       <use x="139.160156" xlink:href="#DejaVuSans-Bold-30"/>
       <use x="208.740234" xlink:href="#DejaVuSans-Bold-30"/>
       <use x="278.320312" xlink:href="#DejaVuSans-Bold-30"/>
      </g>
     </g>
    </g>
    <g id="ytick_7">
     <g id="line2d_23">
      <g>
       <use style="fill:#555555;stroke:#555555;stroke-width:0.8;" x="87.95" xlink:href="#m1e18d02852" y="95.809498"/>
      </g>
     </g>
     <g id="text_23">
      <!-- 12000 -->
      <g style="fill:#555555;" transform="translate(32.245313 101.128404)scale(0.14 -0.14)">
       <use xlink:href="#DejaVuSans-Bold-31"/>
       <use x="69.580078" xlink:href="#DejaVuSans-Bold-32"/>
       <use x="139.160156" xlink:href="#DejaVuSans-Bold-30"/>
       <use x="208.740234" xlink:href="#DejaVuSans-Bold-30"/>
       <use x="278.320312" xlink:href="#DejaVuSans-Bold-30"/>
      </g>
     </g>
    </g>
    <g id="text_24">
     <!-- New Cases -->
     <g style="fill:#555555;" transform="translate(24.917813 333.23875)rotate(-90)scale(0.16 -0.16)">
      <defs>
       <path d="M 628 4666 
L 1478 4666 
L 3547 763 
L 3547 4666 
L 4159 4666 
L 4159 0 
L 3309 0 
L 1241 3903 
L 1241 0 
L 628 0 
L 628 4666 
z
" id="DejaVuSans-4e" transform="scale(0.015625)"/>
       <path d="M 3597 1894 
L 3597 1613 
L 953 1613 
Q 991 1019 1311 708 
Q 1631 397 2203 397 
Q 2534 397 2845 478 
Q 3156 559 3463 722 
L 3463 178 
Q 3153 47 2828 -22 
Q 2503 -91 2169 -91 
Q 1331 -91 842 396 
Q 353 884 353 1716 
Q 353 2575 817 3079 
Q 1281 3584 2069 3584 
Q 2775 3584 3186 3129 
Q 3597 2675 3597 1894 
z
M 3022 2063 
Q 3016 2534 2758 2815 
Q 2500 3097 2075 3097 
Q 1594 3097 1305 2825 
Q 1016 2553 972 2059 
L 3022 2063 
z
" id="DejaVuSans-65" transform="scale(0.015625)"/>
       <path d="M 269 3500 
L 844 3500 
L 1563 769 
L 2278 3500 
L 2956 3500 
L 3675 769 
L 4391 3500 
L 4966 3500 
L 4050 0 
L 3372 0 
L 2619 2869 
L 1863 0 
L 1184 0 
L 269 3500 
z
" id="DejaVuSans-77" transform="scale(0.015625)"/>
       <path id="DejaVuSans-20" transform="scale(0.015625)"/>
       <path d="M 4122 4306 
L 4122 3641 
Q 3803 3938 3442 4084 
Q 3081 4231 2675 4231 
Q 1875 4231 1450 3742 
Q 1025 3253 1025 2328 
Q 1025 1406 1450 917 
Q 1875 428 2675 428 
Q 3081 428 3442 575 
Q 3803 722 4122 1019 
L 4122 359 
Q 3791 134 3420 21 
Q 3050 -91 2638 -91 
Q 1578 -91 968 557 
Q 359 1206 359 2328 
Q 359 3453 968 4101 
Q 1578 4750 2638 4750 
Q 3056 4750 3426 4639 
Q 3797 4528 4122 4306 
z
" id="DejaVuSans-43" transform="scale(0.015625)"/>
       <path d="M 2194 1759 
Q 1497 1759 1228 1600 
Q 959 1441 959 1056 
Q 959 750 1161 570 
Q 1363 391 1709 391 
Q 2188 391 2477 730 
Q 2766 1069 2766 1631 
L 2766 1759 
L 2194 1759 
z
M 3341 1997 
L 3341 0 
L 2766 0 
L 2766 531 
Q 2569 213 2275 61 
Q 1981 -91 1556 -91 
Q 1019 -91 701 211 
Q 384 513 384 1019 
Q 384 1609 779 1909 
Q 1175 2209 1959 2209 
L 2766 2209 
L 2766 2266 
Q 2766 2663 2505 2880 
Q 2244 3097 1772 3097 
Q 1472 3097 1187 3025 
Q 903 2953 641 2809 
L 641 3341 
Q 956 3463 1253 3523 
Q 1550 3584 1831 3584 
Q 2591 3584 2966 3190 
Q 3341 2797 3341 1997 
z
" id="DejaVuSans-61" transform="scale(0.015625)"/>
       <path d="M 2834 3397 
L 2834 2853 
Q 2591 2978 2328 3040 
Q 2066 3103 1784 3103 
Q 1356 3103 1142 2972 
Q 928 2841 928 2578 
Q 928 2378 1081 2264 
Q 1234 2150 1697 2047 
L 1894 2003 
Q 2506 1872 2764 1633 
Q 3022 1394 3022 966 
Q 3022 478 2636 193 
Q 2250 -91 1575 -91 
Q 1294 -91 989 -36 
Q 684 19 347 128 
L 347 722 
Q 666 556 975 473 
Q 1284 391 1588 391 
Q 1994 391 2212 530 
Q 2431 669 2431 922 
Q 2431 1156 2273 1281 
Q 2116 1406 1581 1522 
L 1381 1569 
Q 847 1681 609 1914 
Q 372 2147 372 2553 
Q 372 3047 722 3315 
Q 1072 3584 1716 3584 
Q 2034 3584 2315 3537 
Q 2597 3491 2834 3397 
z
" id="DejaVuSans-73" transform="scale(0.015625)"/>
      </defs>
      <use xlink:href="#DejaVuSans-4e"/>
      <use x="74.804688" xlink:href="#DejaVuSans-65"/>
      <use x="136.328125" xlink:href="#DejaVuSans-77"/>
      <use x="218.115234" xlink:href="#DejaVuSans-20"/>
      <use x="249.902344" xlink:href="#DejaVuSans-43"/>
      <use x="319.726562" xlink:href="#DejaVuSans-61"/>
      <use x="381.005859" xlink:href="#DejaVuSans-73"/>
      <use x="433.105469" xlink:href="#DejaVuSans-65"/>
      <use x="494.628906" xlink:href="#DejaVuSans-73"/>
     </g>
    </g>
   </g>
   <g id="line2d_24">
    <path clip-path="url(#p27c8395b54)" d="M 135.677727 518.073152 
L 137.862063 517.720089 
L 140.046398 518.355603 
L 142.230733 517.331719 
L 144.415069 514.895583 
L 146.599404 515.142727 
L 148.783739 515.001502 
L 150.968075 515.49579 
L 153.15241 511.75332 
L 155.336745 513.377411 
L 157.521081 509.952697 
L 159.705416 509.317183 
L 161.889751 507.23411 
L 164.074087 505.5041 
L 166.258422 500.667134 
L 168.442757 496.995276 
L 170.627093 498.125078 
L 172.811428 499.961007 
L 174.995763 493.040967 
L 177.180099 489.722173 
L 181.54877 478.282923 
L 183.733105 479.024356 
L 185.91744 480.930898 
L 188.101776 488.627677 
L 190.286111 490.03993 
L 192.470446 483.896629 
L 194.654782 481.248655 
L 196.839117 483.472953 
L 199.023452 484.108467 
L 201.207788 480.683753 
L 203.392123 486.120927 
L 205.576458 491.875859 
L 207.760794 485.626639 
L 209.945129 476.835364 
L 212.129464 472.633911 
L 214.3138 473.551876 
L 216.498135 478.141698 
L 218.68247 485.626639 
L 220.866806 489.051352 
L 223.051141 493.711787 
L 225.235476 481.742943 
L 227.419812 475.917399 
L 229.604147 477.612103 
L 231.788482 483.367034 
L 233.972818 493.076274 
L 236.157153 494.206076 
L 238.341488 494.488527 
L 240.525824 488.627677 
L 242.710159 491.063813 
L 244.894494 496.642212 
L 247.07883 496.500987 
L 249.263165 505.186343 
L 251.447501 512.671284 
L 253.631836 505.786551 
L 255.816171 501.585098 
L 258.000507 502.608982 
L 260.184842 504.056541 
L 262.369177 507.551867 
L 264.553513 512.388834 
L 266.737848 508.222687 
L 268.922183 508.222687 
L 271.106519 506.739822 
L 273.290854 508.222687 
L 275.475189 509.317183 
L 277.659525 510.941274 
L 279.84386 513.165573 
L 282.028195 512.600672 
L 284.212531 511.612095 
L 286.396866 509.811472 
L 288.581201 512.353527 
L 290.765537 512.635978 
L 292.949872 515.072114 
L 295.134207 514.260069 
L 297.318543 515.566403 
L 299.502878 512.883122 
L 301.687213 510.517598 
L 303.871549 512.989041 
L 308.240219 513.377411 
L 310.424555 511.965158 
L 312.60889 514.930889 
L 314.793226 512.635978 
L 316.977561 513.200879 
L 319.161896 513.200879 
L 321.346232 514.507213 
L 323.530567 513.271492 
L 325.714902 515.813547 
L 327.899238 516.131304 
L 330.083573 516.201917 
L 332.267908 512.847816 
L 334.452244 511.823933 
L 336.636579 512.777203 
L 338.820914 511.047193 
L 341.00525 513.624555 
L 343.189585 513.695168 
L 345.37392 513.09496 
L 347.558256 513.76578 
L 349.742591 512.176996 
L 351.926926 513.09496 
L 354.111262 514.401294 
L 356.295597 513.871699 
L 358.479932 514.754358 
L 360.664268 515.49579 
L 362.848603 515.107421 
L 367.217274 516.307836 
L 369.401609 516.131304 
L 371.585944 517.084575 
L 373.77028 517.013962 
L 375.954615 516.660899 
L 378.13895 515.601709 
L 382.507621 516.766818 
L 384.691957 517.155188 
L 386.876292 516.802124 
L 389.060627 517.472945 
L 391.244963 517.296413 
L 393.429298 516.837431 
L 395.613633 516.802124 
L 397.797969 517.190494 
L 399.982304 516.94335 
L 402.166639 518.037846 
L 404.350975 518.28499 
L 406.53531 517.472945 
L 410.903981 517.190494 
L 413.088316 516.519674 
L 415.272651 516.131304 
L 417.456987 516.94335 
L 419.641322 516.025385 
L 424.009993 515.283952 
L 426.194328 515.637016 
L 428.378663 514.365988 
L 430.562999 514.365988 
L 432.747334 513.024348 
L 434.931669 513.518636 
L 437.116005 513.48333 
L 441.484675 514.012925 
L 445.853346 511.965158 
L 448.037682 512.106383 
L 450.222017 511.576788 
L 452.406352 510.729436 
L 454.590688 507.445948 
L 456.775023 507.445948 
L 458.959358 504.268379 
L 461.143694 506.775128 
L 463.328029 506.351452 
L 465.512364 502.291225 
L 467.6967 504.374298 
L 469.881035 498.125078 
L 472.06537 501.232035 
L 474.249706 502.397144 
L 476.434041 499.113655 
L 478.618376 491.699327 
L 480.802712 497.595483 
L 482.987047 496.500987 
L 485.171382 499.148962 
L 487.355718 497.348339 
L 489.540053 496.324456 
L 491.724388 501.867549 
L 493.908724 502.291225 
L 496.093059 502.079387 
L 498.277394 499.961007 
L 500.46173 500.737746 
L 502.646065 500.667134 
L 504.8304 501.585098 
L 507.014736 503.421027 
L 509.199071 499.254881 
L 511.383406 504.797974 
L 513.567742 499.290187 
L 515.752077 501.549792 
L 517.936413 501.796936 
L 522.305083 501.620404 
L 524.489419 500.914278 
L 526.673754 502.997351 
L 528.858089 494.064851 
L 531.042425 498.336916 
L 533.22676 493.252805 
L 535.411095 496.5716 
L 537.595431 487.003586 
L 539.779766 491.416876 
L 544.148437 479.236194 
L 546.332772 489.934011 
L 548.517107 474.611065 
L 550.701443 476.341075 
L 552.885778 481.107429 
L 555.070113 473.693101 
L 557.254449 470.903901 
L 559.438784 465.219583 
L 561.623119 458.087705 
L 563.807455 450.35562 
L 565.99179 452.685837 
L 568.176125 454.380541 
L 570.360461 441.387813 
L 572.544796 440.505155 
L 574.729131 437.080441 
L 576.913467 429.948563 
L 579.097802 421.898721 
L 581.282138 424.12302 
L 583.466473 414.41378 
L 585.650808 417.026448 
L 587.835144 413.425203 
L 590.019479 403.468819 
L 592.203814 404.633928 
L 594.38815 385.180142 
L 596.572485 380.555014 
L 598.75682 378.86031 
L 600.941156 358.665092 
L 603.125491 359.900813 
L 605.309826 343.907048 
L 607.494162 315.273618 
L 609.678497 309.024398 
L 611.862832 290.771028 
L 614.047168 295.572688 
L 616.231503 279.296472 
L 618.415838 260.548813 
L 620.600174 263.443932 
L 622.784509 244.837498 
L 624.968844 238.76481 
L 627.15318 233.29233 
L 629.337515 231.809464 
L 631.52185 237.529089 
L 633.706186 231.950689 
L 635.890521 211.790777 
L 638.074856 192.866587 
L 640.259192 167.340113 
L 642.443527 214.368139 
L 644.627862 160.45538 
L 646.812198 155.724332 
L 648.996533 156.99536 
L 651.180869 234.316213 
L 653.365204 157.66618 
L 655.549539 128.679687 
L 657.733875 174.471991 
L 659.91821 213.061805 
L 662.102545 227.678624 
L 664.286881 246.249751 
L 666.471216 251.15733 
L 668.655551 274.247667 
L 670.839887 264.32659 
L 673.024222 285.898755 
L 677.392893 354.604864 
L 679.577228 355.522829 
L 681.761563 329.431454 
L 683.945899 321.099161 
L 686.130234 305.246621 
L 688.314569 311.21339 
L 690.498905 328.195733 
L 694.867575 368.339025 
L 697.051911 357.570596 
L 699.236246 318.698331 
L 701.420581 310.012975 
L 703.604917 307.506226 
L 705.789252 330.278806 
L 707.973587 336.563332 
L 710.157923 380.131338 
L 712.342258 346.131346 
L 714.526594 361.736742 
L 716.710929 316.40342 
L 718.895264 361.842661 
L 721.0796 323.005703 
L 723.263935 358.029578 
L 725.44827 376.918462 
L 727.632606 346.201959 
L 729.816941 321.98182 
L 732.001276 311.495841 
L 734.185612 288.970405 
L 736.369947 280.779338 
L 738.554282 269.022331 
L 740.738618 303.445999 
L 742.922953 288.44081 
L 745.107288 211.967309 
L 747.291624 207.448099 
L 749.475959 197.385796 
L 751.660294 170.694214 
L 753.84463 220.758584 
L 756.028965 285.36916 
L 758.2133 125.254973 
L 760.397636 68.341176 
L 762.581971 97.32767 
L 764.766306 87.900881 
L 766.950642 60.609091 
L 769.134977 125.608036 
L 771.319312 172.706675 
L 773.503648 152.511457 
L 775.687983 113.674498 
L 777.872318 113.639192 
L 780.056654 172.953819 
L 782.240989 201.551943 
L 784.425325 258.253902 
L 786.60966 253.94653 
L 788.793995 185.805322 
L 790.978331 178.214462 
L 793.162666 231.032725 
L 795.347001 216.239374 
L 797.531337 258.324514 
L 799.715672 285.298547 
L 801.900007 294.407579 
L 804.084343 269.092944 
L 806.268678 177.720173 
L 808.453013 233.009879 
L 810.637349 260.654732 
L 812.821684 286.287124 
L 815.006019 327.136543 
L 817.190355 345.001544 
L 819.37469 304.328657 
L 821.559025 290.029595 
L 823.743361 306.588262 
L 825.927696 332.397186 
L 828.112031 322.405495 
L 830.296367 350.544637 
L 832.480702 367.774124 
L 834.665037 322.758559 
L 836.849373 314.320347 
L 839.033708 316.438726 
L 841.218043 327.06593 
L 843.402379 347.049311 
L 845.586714 374.976614 
L 847.77105 379.707662 
L 849.955385 352.592404 
L 852.13972 353.651594 
L 854.324056 364.102266 
L 856.508391 372.081496 
L 858.692726 389.522821 
L 860.877062 405.09291 
L 863.061397 394.077337 
L 865.245732 377.412751 
L 867.430068 371.057612 
L 869.614403 366.926772 
L 871.798738 375.082533 
L 873.983074 381.119915 
L 876.167409 439.728416 
L 878.351744 457.381578 
L 880.53608 407.423128 
L 882.720415 363.113689 
L 884.90475 366.644322 
L 887.089086 372.046189 
L 889.273421 398.384708 
L 891.457756 419.074215 
L 893.642092 424.440777 
L 895.826427 400.361862 
L 898.010762 358.48856 
L 900.195098 354.216495 
L 902.379433 359.124074 
L 904.563768 354.604864 
L 906.748104 371.904964 
L 908.932439 384.862386 
L 911.116774 365.12615 
L 913.30111 343.412759 
L 915.485445 339.423144 
L 917.669781 345.637058 
L 919.854116 355.769973 
L 922.038451 386.980765 
L 924.222787 379.425211 
L 926.407122 342.071119 
L 928.591457 374.835389 
L 930.775793 354.852009 
L 932.960128 331.832284 
L 935.144463 360.324489 
L 937.328799 382.214411 
L 939.513134 368.162494 
L 941.697469 333.70352 
L 943.881805 332.432492 
L 946.06614 308.282965 
L 948.250475 294.266354 
L 950.434811 309.20093 
L 952.619146 325.230002 
L 954.803481 344.895625 
L 956.987817 310.825021 
L 959.172152 302.95171 
L 961.356487 260.019218 
L 963.540823 250.804267 
L 967.909493 296.949635 
L 970.093829 321.452225 
L 972.278164 252.60489 
L 974.462499 247.944455 
L 976.646835 252.428358 
L 978.83117 209.284028 
L 981.015506 255.641234 
L 983.199841 280.002598 
L 985.384176 312.696256 
L 987.568512 249.992222 
L 989.752847 243.425245 
L 991.937182 264.750266 
L 994.121518 251.086718 
L 996.305853 277.142786 
L 998.490188 331.055545 
L 1000.674524 323.217541 
L 1002.858859 294.548805 
L 1005.043194 245.29648 
L 1007.22753 248.933032 
L 1009.411865 248.862419 
L 1011.5962 231.880077 
L 1013.780536 284.204051 
L 1015.964871 281.979753 
L 1018.149206 327.277768 
L 1020.333542 212.320372 
L 1022.517877 205.365026 
L 1024.702212 227.890462 
L 1026.886548 218.463673 
L 1029.070883 266.72742 
L 1031.255218 278.484426 
L 1033.439554 220.017151 
L 1035.623889 180.968355 
L 1037.808224 193.21965 
L 1039.99256 234.739889 
L 1042.176895 236.187448 
L 1044.36123 299.49169 
L 1046.545566 332.150041 
L 1048.729901 213.767932 
L 1050.914237 262.137598 
L 1053.098572 244.943417 
L 1055.282907 315.097086 
L 1057.467243 326.465723 
L 1059.651578 194.808435 
L 1061.835913 245.119949 
L 1064.020249 263.408625 
L 1066.204584 280.355662 
L 1068.388919 255.500008 
L 1070.573255 256.841649 
L 1074.941925 312.201967 
L 1077.126261 324.100199 
L 1079.310596 295.078399 
L 1081.494931 306.447036 
L 1083.679267 323.182235 
L 1085.863602 361.065922 
L 1088.047937 362.195724 
L 1090.232273 416.955836 
L 1090.232273 416.955836 
" style="fill:none;stroke:#000000;stroke-dasharray:1.5,2.475;stroke-dashoffset:0;stroke-opacity:0.5;stroke-width:1.5;"/>
   </g>
   <g id="line2d_25">
    <path clip-path="url(#p27c8395b54)" d="M 135.677727 518.390909 
L 140.046398 517.367026 
L 148.783739 514.719051 
L 150.968075 513.942312 
L 153.15241 513.024348 
L 155.336745 511.859239 
L 157.521081 510.446986 
L 159.705416 508.646363 
L 161.889751 506.492677 
L 164.074087 504.091847 
L 172.811428 495.477104 
L 174.995763 492.44076 
L 179.364434 485.414801 
L 181.54877 483.11989 
L 183.733105 482.660908 
L 185.91744 483.296421 
L 188.101776 484.320305 
L 190.286111 485.026431 
L 192.470446 484.920512 
L 196.839117 483.508259 
L 199.023452 483.755404 
L 201.207788 484.602755 
L 203.392123 485.026431 
L 205.576458 484.249692 
L 207.760794 482.307844 
L 209.945129 479.977627 
L 212.129464 478.282923 
L 214.3138 478.212311 
L 216.498135 480.401303 
L 218.68247 483.155196 
L 220.866806 484.885206 
L 223.051141 484.920512 
L 225.235476 483.720097 
L 227.419812 482.802133 
L 229.604147 483.261115 
L 231.788482 485.238269 
L 233.972818 488.098082 
L 236.157153 490.498912 
L 238.341488 492.05239 
L 240.525824 492.864436 
L 242.710159 494.029544 
L 244.894494 496.606906 
L 249.263165 502.679594 
L 251.447501 504.515523 
L 253.631836 505.045118 
L 258.000507 505.151037 
L 260.184842 505.645326 
L 262.369177 506.881047 
L 264.553513 507.940237 
L 266.737848 508.434525 
L 271.106519 508.540444 
L 273.290854 508.858201 
L 277.659525 510.658824 
L 279.84386 511.329644 
L 282.028195 511.682707 
L 286.396866 511.965158 
L 288.581201 512.318221 
L 292.949872 513.624555 
L 295.134207 513.871699 
L 297.318543 513.695168 
L 301.687213 512.918429 
L 303.871549 512.706591 
L 306.055884 512.777203 
L 310.424555 513.200879 
L 316.977561 513.412717 
L 321.346232 514.012925 
L 323.530567 514.54252 
L 325.714902 514.860277 
L 327.899238 514.860277 
L 330.083573 514.471907 
L 334.452244 513.09496 
L 336.636579 512.706591 
L 338.820914 512.600672 
L 343.189585 513.059654 
L 349.742591 513.306798 
L 351.926926 513.48333 
L 356.295597 514.224763 
L 360.664268 515.072114 
L 369.401609 516.378449 
L 373.77028 516.55498 
L 378.13895 516.484368 
L 380.323286 516.484368 
L 391.244963 517.084575 
L 395.613633 517.084575 
L 404.350975 517.649476 
L 408.719645 517.331719 
L 417.456987 516.27253 
L 421.825657 515.742935 
L 424.009993 515.460484 
L 430.562999 514.15415 
L 432.747334 513.836393 
L 437.116005 513.553942 
L 441.484675 513.236186 
L 443.669011 512.918429 
L 445.853346 512.42414 
L 448.037682 511.718014 
L 450.222017 510.835355 
L 454.590688 508.469832 
L 458.959358 506.351452 
L 461.143694 505.610019 
L 469.881035 501.655711 
L 472.06537 500.384683 
L 474.249706 499.396106 
L 476.434041 498.160385 
L 478.618376 497.454258 
L 480.802712 496.995276 
L 482.987047 496.85405 
L 485.171382 497.383645 
L 487.355718 498.336916 
L 491.724388 499.996313 
L 493.908724 500.631827 
L 496.093059 501.020197 
L 498.277394 501.161422 
L 502.646065 501.126116 
L 504.8304 501.443873 
L 509.199071 501.691017 
L 513.567742 501.549792 
L 515.752077 501.443873 
L 517.936413 501.549792 
L 520.120748 501.514485 
L 522.305083 501.161422 
L 524.489419 500.525908 
L 528.858089 498.089772 
L 535.411095 492.687904 
L 537.595431 490.498912 
L 539.779766 488.521758 
L 544.148437 483.755404 
L 546.332772 482.0607 
L 548.517107 480.012933 
L 550.701443 478.177004 
L 552.885778 476.093931 
L 555.070113 472.775136 
L 557.254449 468.962053 
L 561.623119 459.782409 
L 563.807455 455.545649 
L 570.360461 444.424157 
L 572.544796 440.010866 
L 574.729131 435.244512 
L 576.913467 430.089789 
L 579.097802 425.817723 
L 583.466473 417.944413 
L 585.650808 414.484393 
L 587.835144 409.965183 
L 590.019479 404.139639 
L 592.203814 397.749194 
L 596.572485 381.543591 
L 598.75682 373.034766 
L 600.941156 362.513481 
L 603.125491 351.144845 
L 609.678497 311.036859 
L 611.862832 298.467807 
L 614.047168 287.840603 
L 620.600174 258.324514 
L 622.784509 249.286095 
L 624.968844 242.648506 
L 629.337515 233.610087 
L 631.52185 228.38475 
L 635.890521 211.155263 
L 640.259192 189.830243 
L 642.443527 180.403454 
L 644.627862 177.755479 
L 646.812198 175.813631 
L 648.996533 174.083621 
L 651.180869 171.435647 
L 653.365204 172.636062 
L 655.549539 176.766902 
L 657.733875 187.111656 
L 659.91821 200.563366 
L 662.102545 220.864503 
L 664.286881 239.188486 
L 666.471216 253.028566 
L 668.655551 265.738843 
L 670.839887 280.955869 
L 675.208557 314.849942 
L 677.392893 327.136543 
L 679.577228 332.750249 
L 681.761563 330.984933 
L 683.945899 325.72429 
L 686.130234 322.158351 
L 688.314569 324.771019 
L 690.498905 332.64433 
L 692.68324 339.599676 
L 694.867575 342.63602 
L 697.051911 339.211306 
L 699.236246 332.397186 
L 701.420581 326.042047 
L 703.604917 326.218579 
L 705.789252 331.30269 
L 707.973587 341.011929 
L 710.157923 346.837473 
L 712.342258 350.438718 
L 714.526594 348.073194 
L 716.710929 345.884202 
L 718.895264 345.213382 
L 721.0796 347.649518 
L 723.263935 348.461564 
L 725.44827 347.543599 
L 727.632606 338.787631 
L 729.816941 327.101237 
L 732.001276 311.319309 
L 734.185612 298.4325 
L 736.369947 290.523883 
L 738.554282 281.979753 
L 740.738618 271.317242 
L 742.922953 256.629811 
L 745.107288 236.893575 
L 747.291624 219.875926 
L 749.475959 211.755471 
L 751.660294 204.906044 
L 753.84463 196.326607 
L 756.028965 179.662021 
L 758.2133 154.347385 
L 760.397636 125.890487 
L 762.581971 104.035871 
L 764.766306 95.456434 
L 766.950642 104.706692 
L 769.134977 117.946564 
L 771.319312 127.338046 
L 775.687983 143.578956 
L 777.872318 155.865557 
L 780.056654 174.754442 
L 782.240989 194.984966 
L 784.425325 210.166686 
L 786.60966 217.686934 
L 788.793995 216.027536 
L 790.978331 215.886311 
L 793.162666 221.217566 
L 795.347001 234.492745 
L 797.531337 251.722232 
L 799.715672 259.348398 
L 801.900007 258.042064 
L 806.268678 247.02649 
L 808.453013 250.345285 
L 810.637349 264.60904 
L 815.006019 301.857214 
L 817.190355 310.330732 
L 819.37469 313.33177 
L 821.559025 313.543608 
L 823.743361 315.909132 
L 825.927696 322.899784 
L 828.112031 331.30269 
L 830.296367 336.810476 
L 832.480702 336.881089 
L 834.665037 332.820862 
L 836.849373 329.85513 
L 839.033708 330.596563 
L 841.218043 336.845783 
L 843.402379 346.908085 
L 845.586714 355.734667 
L 847.77105 361.136535 
L 849.955385 363.39614 
L 852.13972 365.302681 
L 854.324056 369.433521 
L 856.508391 375.965191 
L 858.692726 383.061763 
L 860.877062 386.804233 
L 863.061397 385.921575 
L 865.245732 382.32033 
L 867.430068 378.118877 
L 869.614403 379.53113 
L 871.798738 388.56955 
L 873.983074 400.432475 
L 876.167409 408.729462 
L 878.351744 410.000489 
L 880.53608 403.045143 
L 882.720415 393.618354 
L 884.90475 386.557089 
L 887.089086 387.192603 
L 889.273421 394.218562 
L 891.457756 399.62043 
L 893.642092 398.17287 
L 895.826427 390.334866 
L 898.010762 378.366022 
L 900.195098 368.233106 
L 902.379433 363.607978 
L 904.563768 363.67859 
L 906.748104 365.267375 
L 908.932439 364.243491 
L 911.116774 360.147958 
L 913.30111 355.381604 
L 915.485445 353.404449 
L 917.669781 355.240378 
L 919.854116 358.912236 
L 922.038451 364.102266 
L 924.222787 365.938195 
L 926.407122 363.254914 
L 928.591457 359.583056 
L 930.775793 356.970388 
L 932.960128 357.14692 
L 935.144463 358.523867 
L 937.328799 356.970388 
L 939.513134 351.815665 
L 941.697469 342.177038 
L 943.881805 329.607986 
L 946.06614 319.051395 
L 948.250475 315.167699 
L 950.434811 315.697294 
L 952.619146 317.215466 
L 954.803481 314.955861 
L 956.987817 306.729487 
L 959.172152 294.407579 
L 961.356487 283.392006 
L 963.540823 278.908102 
L 965.725158 278.731571 
L 967.909493 279.225859 
L 970.093829 277.919525 
L 972.278164 269.057637 
L 974.462499 258.218595 
L 976.646835 250.557123 
L 978.83117 250.980799 
L 983.199841 263.902914 
L 985.384176 267.327628 
L 987.568512 267.045177 
L 989.752847 263.761689 
L 991.937182 265.774149 
L 994.121518 273.117865 
L 996.305853 285.722223 
L 998.490188 293.348389 
L 1000.674524 292.712876 
L 1002.858859 285.016097 
L 1005.043194 271.140711 
L 1007.22753 259.666155 
L 1009.411865 255.323477 
L 1011.5962 261.53739 
L 1013.780536 267.292321 
L 1015.964871 267.645384 
L 1018.149206 261.431471 
L 1020.333542 249.568546 
L 1022.517877 238.37644 
L 1024.702212 235.375403 
L 1026.886548 235.30479 
L 1029.070883 238.235215 
L 1031.255218 234.916421 
L 1033.439554 227.254948 
L 1035.623889 220.476133 
L 1037.808224 221.394098 
L 1039.99256 234.351519 
L 1042.176895 249.497933 
L 1044.36123 263.832301 
L 1046.545566 268.633962 
L 1048.729901 269.587232 
L 1050.914237 272.870721 
L 1053.098572 270.787647 
L 1055.282907 269.163556 
L 1057.467243 268.916412 
L 1059.651578 263.796995 
L 1061.835913 259.948605 
L 1064.020249 257.088793 
L 1066.204584 258.995335 
L 1068.388919 268.633962 
L 1081.494931 321.275693 
L 1090.232273 376.918462 
L 1090.232273 376.918462 
" style="fill:none;stroke:#000000;stroke-linecap:square;stroke-width:1.5;"/>
   </g>
   <g id="patch_3">
    <path d="M 87.95 541.28 
L 87.95 37.72 
" style="fill:none;stroke:#555555;stroke-linecap:square;stroke-linejoin:miter;"/>
   </g>
   <g id="patch_4">
    <path d="M 87.95 541.28 
L 1137.96 541.28 
" style="fill:none;stroke:#555555;stroke-linecap:square;stroke-linejoin:miter;"/>
   </g>
   <g id="text_25">
    <!-- Last updated on 17 May 2021 -->
    <g style="fill:#555555;" transform="translate(478.305156 27.72)scale(0.18 -0.18)">
     <defs>
      <path d="M 628 4666 
L 1259 4666 
L 1259 531 
L 3531 531 
L 3531 0 
L 628 0 
L 628 4666 
z
" id="DejaVuSans-4c" transform="scale(0.015625)"/>
      <path d="M 1172 4494 
L 1172 3500 
L 2356 3500 
L 2356 3053 
L 1172 3053 
L 1172 1153 
Q 1172 725 1289 603 
Q 1406 481 1766 481 
L 2356 481 
L 2356 0 
L 1766 0 
Q 1100 0 847 248 
Q 594 497 594 1153 
L 594 3053 
L 172 3053 
L 172 3500 
L 594 3500 
L 594 4494 
L 1172 4494 
z
" id="DejaVuSans-74" transform="scale(0.015625)"/>
      <path d="M 544 1381 
L 544 3500 
L 1119 3500 
L 1119 1403 
Q 1119 906 1312 657 
Q 1506 409 1894 409 
Q 2359 409 2629 706 
Q 2900 1003 2900 1516 
L 2900 3500 
L 3475 3500 
L 3475 0 
L 2900 0 
L 2900 538 
Q 2691 219 2414 64 
Q 2138 -91 1772 -91 
Q 1169 -91 856 284 
Q 544 659 544 1381 
z
M 1991 3584 
L 1991 3584 
z
" id="DejaVuSans-75" transform="scale(0.015625)"/>
      <path d="M 1159 525 
L 1159 -1331 
L 581 -1331 
L 581 3500 
L 1159 3500 
L 1159 2969 
Q 1341 3281 1617 3432 
Q 1894 3584 2278 3584 
Q 2916 3584 3314 3078 
Q 3713 2572 3713 1747 
Q 3713 922 3314 415 
Q 2916 -91 2278 -91 
Q 1894 -91 1617 61 
Q 1341 213 1159 525 
z
M 3116 1747 
Q 3116 2381 2855 2742 
Q 2594 3103 2138 3103 
Q 1681 3103 1420 2742 
Q 1159 2381 1159 1747 
Q 1159 1113 1420 752 
Q 1681 391 2138 391 
Q 2594 391 2855 752 
Q 3116 1113 3116 1747 
z
" id="DejaVuSans-70" transform="scale(0.015625)"/>
      <path d="M 2906 2969 
L 2906 4863 
L 3481 4863 
L 3481 0 
L 2906 0 
L 2906 525 
Q 2725 213 2448 61 
Q 2172 -91 1784 -91 
Q 1150 -91 751 415 
Q 353 922 353 1747 
Q 353 2572 751 3078 
Q 1150 3584 1784 3584 
Q 2172 3584 2448 3432 
Q 2725 3281 2906 2969 
z
M 947 1747 
Q 947 1113 1208 752 
Q 1469 391 1925 391 
Q 2381 391 2643 752 
Q 2906 1113 2906 1747 
Q 2906 2381 2643 2742 
Q 2381 3103 1925 3103 
Q 1469 3103 1208 2742 
Q 947 2381 947 1747 
z
" id="DejaVuSans-64" transform="scale(0.015625)"/>
      <path d="M 1959 3097 
Q 1497 3097 1228 2736 
Q 959 2375 959 1747 
Q 959 1119 1226 758 
Q 1494 397 1959 397 
Q 2419 397 2687 759 
Q 2956 1122 2956 1747 
Q 2956 2369 2687 2733 
Q 2419 3097 1959 3097 
z
M 1959 3584 
Q 2709 3584 3137 3096 
Q 3566 2609 3566 1747 
Q 3566 888 3137 398 
Q 2709 -91 1959 -91 
Q 1206 -91 779 398 
Q 353 888 353 1747 
Q 353 2609 779 3096 
Q 1206 3584 1959 3584 
z
" id="DejaVuSans-6f" transform="scale(0.015625)"/>
      <path d="M 3513 2113 
L 3513 0 
L 2938 0 
L 2938 2094 
Q 2938 2591 2744 2837 
Q 2550 3084 2163 3084 
Q 1697 3084 1428 2787 
Q 1159 2491 1159 1978 
L 1159 0 
L 581 0 
L 581 3500 
L 1159 3500 
L 1159 2956 
Q 1366 3272 1645 3428 
Q 1925 3584 2291 3584 
Q 2894 3584 3203 3211 
Q 3513 2838 3513 2113 
z
" id="DejaVuSans-6e" transform="scale(0.015625)"/>
      <path d="M 794 531 
L 1825 531 
L 1825 4091 
L 703 3866 
L 703 4441 
L 1819 4666 
L 2450 4666 
L 2450 531 
L 3481 531 
L 3481 0 
L 794 0 
L 794 531 
z
" id="DejaVuSans-31" transform="scale(0.015625)"/>
      <path d="M 525 4666 
L 3525 4666 
L 3525 4397 
L 1831 0 
L 1172 0 
L 2766 4134 
L 525 4134 
L 525 4666 
z
" id="DejaVuSans-37" transform="scale(0.015625)"/>
      <path d="M 628 4666 
L 1569 4666 
L 2759 1491 
L 3956 4666 
L 4897 4666 
L 4897 0 
L 4281 0 
L 4281 4097 
L 3078 897 
L 2444 897 
L 1241 4097 
L 1241 0 
L 628 0 
L 628 4666 
z
" id="DejaVuSans-4d" transform="scale(0.015625)"/>
      <path d="M 2059 -325 
Q 1816 -950 1584 -1140 
Q 1353 -1331 966 -1331 
L 506 -1331 
L 506 -850 
L 844 -850 
Q 1081 -850 1212 -737 
Q 1344 -625 1503 -206 
L 1606 56 
L 191 3500 
L 800 3500 
L 1894 763 
L 2988 3500 
L 3597 3500 
L 2059 -325 
z
" id="DejaVuSans-79" transform="scale(0.015625)"/>
      <path d="M 1228 531 
L 3431 531 
L 3431 0 
L 469 0 
L 469 531 
Q 828 903 1448 1529 
Q 2069 2156 2228 2338 
Q 2531 2678 2651 2914 
Q 2772 3150 2772 3378 
Q 2772 3750 2511 3984 
Q 2250 4219 1831 4219 
Q 1534 4219 1204 4116 
Q 875 4013 500 3803 
L 500 4441 
Q 881 4594 1212 4672 
Q 1544 4750 1819 4750 
Q 2544 4750 2975 4387 
Q 3406 4025 3406 3419 
Q 3406 3131 3298 2873 
Q 3191 2616 2906 2266 
Q 2828 2175 2409 1742 
Q 1991 1309 1228 531 
z
" id="DejaVuSans-32" transform="scale(0.015625)"/>
      <path d="M 2034 4250 
Q 1547 4250 1301 3770 
Q 1056 3291 1056 2328 
Q 1056 1369 1301 889 
Q 1547 409 2034 409 
Q 2525 409 2770 889 
Q 3016 1369 3016 2328 
Q 3016 3291 2770 3770 
Q 2525 4250 2034 4250 
z
M 2034 4750 
Q 2819 4750 3233 4129 
Q 3647 3509 3647 2328 
Q 3647 1150 3233 529 
Q 2819 -91 2034 -91 
Q 1250 -91 836 529 
Q 422 1150 422 2328 
Q 422 3509 836 4129 
Q 1250 4750 2034 4750 
z
" id="DejaVuSans-30" transform="scale(0.015625)"/>
     </defs>
     <use xlink:href="#DejaVuSans-4c"/>
     <use x="55.712891" xlink:href="#DejaVuSans-61"/>
     <use x="116.992188" xlink:href="#DejaVuSans-73"/>
     <use x="169.091797" xlink:href="#DejaVuSans-74"/>
     <use x="208.300781" xlink:href="#DejaVuSans-20"/>
     <use x="240.087891" xlink:href="#DejaVuSans-75"/>
     <use x="303.466797" xlink:href="#DejaVuSans-70"/>
     <use x="366.943359" xlink:href="#DejaVuSans-64"/>
     <use x="430.419922" xlink:href="#DejaVuSans-61"/>
     <use x="491.699219" xlink:href="#DejaVuSans-74"/>
     <use x="530.908203" xlink:href="#DejaVuSans-65"/>
     <use x="592.431641" xlink:href="#DejaVuSans-64"/>
     <use x="655.908203" xlink:href="#DejaVuSans-20"/>
     <use x="687.695312" xlink:href="#DejaVuSans-6f"/>
     <use x="748.876953" xlink:href="#DejaVuSans-6e"/>
     <use x="812.255859" xlink:href="#DejaVuSans-20"/>
     <use x="844.042969" xlink:href="#DejaVuSans-31"/>
     <use x="907.666016" xlink:href="#DejaVuSans-37"/>
     <use x="971.289062" xlink:href="#DejaVuSans-20"/>
     <use x="1003.076172" xlink:href="#DejaVuSans-4d"/>
     <use x="1089.355469" xlink:href="#DejaVuSans-61"/>
     <use x="1150.634766" xlink:href="#DejaVuSans-79"/>
     <use x="1209.814453" xlink:href="#DejaVuSans-20"/>
     <use x="1241.601562" xlink:href="#DejaVuSans-32"/>
     <use x="1305.224609" xlink:href="#DejaVuSans-30"/>
     <use x="1368.847656" xlink:href="#DejaVuSans-32"/>
     <use x="1432.470703" xlink:href="#DejaVuSans-31"/>
    </g>
   </g>
   <g id="legend_1">
    <g id="line2d_26">
     <path d="M 1015.497969 54.747969 
L 1041.497969 54.747969 
" style="fill:none;stroke:#000000;stroke-dasharray:1.5,2.475;stroke-dashoffset:0;stroke-opacity:0.5;stroke-width:1.5;"/>
    </g>
    <g id="line2d_27"/>
    <g id="text_26">
     <!-- Actual -->
     <g style="fill:#555555;" transform="translate(1051.897969 59.297969)scale(0.13 -0.13)">
      <use xlink:href="#DejaVuSans-Bold-41"/>
      <use x="77.392578" xlink:href="#DejaVuSans-Bold-63"/>
      <use x="136.669922" xlink:href="#DejaVuSans-Bold-74"/>
      <use x="184.472656" xlink:href="#DejaVuSans-Bold-75"/>
      <use x="255.664062" xlink:href="#DejaVuSans-Bold-61"/>
      <use x="323.144531" xlink:href="#DejaVuSans-Bold-6c"/>
     </g>
    </g>
    <g id="line2d_28">
     <path d="M 1015.497969 73.829531 
L 1041.497969 73.829531 
" style="fill:none;stroke:#000000;stroke-linecap:square;stroke-width:1.5;"/>
    </g>
    <g id="line2d_29"/>
    <g id="text_27">
     <!-- Smoothed -->
     <g style="fill:#555555;" transform="translate(1051.897969 78.379531)scale(0.13 -0.13)">
      <defs>
       <path d="M 3781 2919 
Q 3994 3244 4286 3414 
Q 4578 3584 4928 3584 
Q 5531 3584 5847 3212 
Q 6163 2841 6163 2131 
L 6163 0 
L 5038 0 
L 5038 1825 
Q 5041 1866 5042 1909 
Q 5044 1953 5044 2034 
Q 5044 2406 4934 2573 
Q 4825 2741 4581 2741 
Q 4263 2741 4089 2478 
Q 3916 2216 3909 1719 
L 3909 0 
L 2784 0 
L 2784 1825 
Q 2784 2406 2684 2573 
Q 2584 2741 2328 2741 
Q 2006 2741 1831 2477 
Q 1656 2213 1656 1722 
L 1656 0 
L 531 0 
L 531 3500 
L 1656 3500 
L 1656 2988 
Q 1863 3284 2130 3434 
Q 2397 3584 2719 3584 
Q 3081 3584 3359 3409 
Q 3638 3234 3781 2919 
z
" id="DejaVuSans-Bold-6d" transform="scale(0.015625)"/>
       <path d="M 4056 2131 
L 4056 0 
L 2931 0 
L 2931 347 
L 2931 1625 
Q 2931 2084 2911 2256 
Q 2891 2428 2841 2509 
Q 2775 2619 2662 2680 
Q 2550 2741 2406 2741 
Q 2056 2741 1856 2470 
Q 1656 2200 1656 1722 
L 1656 0 
L 538 0 
L 538 4863 
L 1656 4863 
L 1656 2988 
Q 1909 3294 2193 3439 
Q 2478 3584 2822 3584 
Q 3428 3584 3742 3212 
Q 4056 2841 4056 2131 
z
" id="DejaVuSans-Bold-68" transform="scale(0.015625)"/>
       <path d="M 2919 2988 
L 2919 4863 
L 4044 4863 
L 4044 0 
L 2919 0 
L 2919 506 
Q 2688 197 2409 53 
Q 2131 -91 1766 -91 
Q 1119 -91 703 423 
Q 288 938 288 1747 
Q 288 2556 703 3070 
Q 1119 3584 1766 3584 
Q 2128 3584 2408 3439 
Q 2688 3294 2919 2988 
z
M 2181 722 
Q 2541 722 2730 984 
Q 2919 1247 2919 1747 
Q 2919 2247 2730 2509 
Q 2541 2772 2181 2772 
Q 1825 2772 1636 2509 
Q 1447 2247 1447 1747 
Q 1447 1247 1636 984 
Q 1825 722 2181 722 
z
" id="DejaVuSans-Bold-64" transform="scale(0.015625)"/>
      </defs>
      <use xlink:href="#DejaVuSans-Bold-53"/>
      <use x="72.021484" xlink:href="#DejaVuSans-Bold-6d"/>
      <use x="176.220703" xlink:href="#DejaVuSans-Bold-6f"/>
      <use x="244.921875" xlink:href="#DejaVuSans-Bold-6f"/>
      <use x="313.623047" xlink:href="#DejaVuSans-Bold-74"/>
      <use x="361.425781" xlink:href="#DejaVuSans-Bold-68"/>
      <use x="432.617188" xlink:href="#DejaVuSans-Bold-65"/>
      <use x="500.439453" xlink:href="#DejaVuSans-Bold-64"/>
     </g>
    </g>
   </g>
  </g>
 </g>
 <defs>
  <clipPath id="p27c8395b54">
   <rect height="503.56" width="1050.01" x="87.95" y="37.72"/>
  </clipPath>
 </defs>
</svg>
