<?xml version="1.0" encoding="utf-8" standalone="no"?>
<!DOCTYPE svg PUBLIC "-//W3C//DTD SVG 1.1//EN"
  "http://www.w3.org/Graphics/SVG/1.1/DTD/svg11.dtd">
<svg height="576pt" version="1.1" viewBox="0 0 1152 576" width="1152pt" xmlns="http://www.w3.org/2000/svg" xmlns:xlink="http://www.w3.org/1999/xlink">
 <metadata>
  <rdf:RDF xmlns:cc="http://creativecommons.org/ns#" xmlns:dc="http://purl.org/dc/elements/1.1/" xmlns:rdf="http://www.w3.org/1999/02/22-rdf-syntax-ns#">
   <cc:Work>
    <dc:type rdf:resource="http://purl.org/dc/dcmitype/StillImage"/>
    <dc:date>2021-07-24T14:13:04.082215</dc:date>
    <dc:format>image/svg+xml</dc:format>
    <dc:creator>
     <cc:Agent>
      <dc:title>Matplotlib v3.4.2, https://matplotlib.org/</dc:title>
     </cc:Agent>
    </dc:creator>
   </cc:Work>
  </rdf:RDF>
 </metadata>
 <defs>
  <style type="text/css">*{stroke-linecap:butt;stroke-linejoin:round;}</style>
 </defs>
 <g id="figure_1">
  <g id="patch_1">
   <path d="M 0 576 
L 1152 576 
L 1152 0 
L 0 0 
z
" style="fill:#ffffff;"/>
  </g>
  <g id="axes_1">
   <g id="patch_2">
    <path d="M 87.95 541.28 
L 1137.96 541.28 
L 1137.96 37.72 
L 87.95 37.72 
z
" style="fill:#ffffff;"/>
   </g>
   <g id="matplotlib.axis_1">
    <g id="xtick_1">
     <g id="line2d_1">
      <defs>
       <path d="M 0 0 
L 0 3.5 
" id="m1bc20d9341" style="stroke:#555555;stroke-width:0.8;"/>
      </defs>
      <g>
       <use style="fill:#555555;stroke:#555555;stroke-width:0.8;" x="126.226692" xlink:href="#m1bc20d9341" y="541.28"/>
      </g>
     </g>
     <g id="text_1">
      <!-- Mar -->
      <g style="fill:#555555;" transform="translate(111.084817 558.917812)scale(0.14 -0.14)">
       <defs>
        <path d="M 588 4666 
L 2119 4666 
L 3181 2169 
L 4250 4666 
L 5778 4666 
L 5778 0 
L 4641 0 
L 4641 3413 
L 3566 897 
L 2803 897 
L 1728 3413 
L 1728 0 
L 588 0 
L 588 4666 
z
" id="DejaVuSans-Bold-4d" transform="scale(0.015625)"/>
        <path d="M 2106 1575 
Q 1756 1575 1579 1456 
Q 1403 1338 1403 1106 
Q 1403 894 1545 773 
Q 1688 653 1941 653 
Q 2256 653 2472 879 
Q 2688 1106 2688 1447 
L 2688 1575 
L 2106 1575 
z
M 3816 1997 
L 3816 0 
L 2688 0 
L 2688 519 
Q 2463 200 2181 54 
Q 1900 -91 1497 -91 
Q 953 -91 614 226 
Q 275 544 275 1050 
Q 275 1666 698 1953 
Q 1122 2241 2028 2241 
L 2688 2241 
L 2688 2328 
Q 2688 2594 2478 2717 
Q 2269 2841 1825 2841 
Q 1466 2841 1156 2769 
Q 847 2697 581 2553 
L 581 3406 
Q 941 3494 1303 3539 
Q 1666 3584 2028 3584 
Q 2975 3584 3395 3211 
Q 3816 2838 3816 1997 
z
" id="DejaVuSans-Bold-61" transform="scale(0.015625)"/>
        <path d="M 3138 2547 
Q 2991 2616 2845 2648 
Q 2700 2681 2553 2681 
Q 2122 2681 1889 2404 
Q 1656 2128 1656 1613 
L 1656 0 
L 538 0 
L 538 3500 
L 1656 3500 
L 1656 2925 
Q 1872 3269 2151 3426 
Q 2431 3584 2822 3584 
Q 2878 3584 2943 3579 
Q 3009 3575 3134 3559 
L 3138 2547 
z
" id="DejaVuSans-Bold-72" transform="scale(0.015625)"/>
       </defs>
       <use xlink:href="#DejaVuSans-Bold-4d"/>
       <use x="99.511719" xlink:href="#DejaVuSans-Bold-61"/>
       <use x="166.992188" xlink:href="#DejaVuSans-Bold-72"/>
      </g>
     </g>
    </g>
    <g id="xtick_2">
     <g id="line2d_2">
      <g>
       <use style="fill:#555555;stroke:#555555;stroke-width:0.8;" x="184.82311" xlink:href="#m1bc20d9341" y="541.28"/>
      </g>
     </g>
     <g id="text_2">
      <!-- Apr -->
      <g style="fill:#555555;" transform="translate(170.943422 558.917812)scale(0.14 -0.14)">
       <defs>
        <path d="M 3419 850 
L 1538 850 
L 1241 0 
L 31 0 
L 1759 4666 
L 3194 4666 
L 4922 0 
L 3713 0 
L 3419 850 
z
M 1838 1716 
L 3116 1716 
L 2478 3572 
L 1838 1716 
z
" id="DejaVuSans-Bold-41" transform="scale(0.015625)"/>
        <path d="M 1656 506 
L 1656 -1331 
L 538 -1331 
L 538 3500 
L 1656 3500 
L 1656 2988 
Q 1888 3294 2169 3439 
Q 2450 3584 2816 3584 
Q 3463 3584 3878 3070 
Q 4294 2556 4294 1747 
Q 4294 938 3878 423 
Q 3463 -91 2816 -91 
Q 2450 -91 2169 54 
Q 1888 200 1656 506 
z
M 2400 2772 
Q 2041 2772 1848 2508 
Q 1656 2244 1656 1747 
Q 1656 1250 1848 986 
Q 2041 722 2400 722 
Q 2759 722 2948 984 
Q 3138 1247 3138 1747 
Q 3138 2247 2948 2509 
Q 2759 2772 2400 2772 
z
" id="DejaVuSans-Bold-70" transform="scale(0.015625)"/>
       </defs>
       <use xlink:href="#DejaVuSans-Bold-41"/>
       <use x="77.392578" xlink:href="#DejaVuSans-Bold-70"/>
       <use x="148.974609" xlink:href="#DejaVuSans-Bold-72"/>
      </g>
     </g>
    </g>
    <g id="xtick_3">
     <g id="line2d_3">
      <g>
       <use style="fill:#555555;stroke:#555555;stroke-width:0.8;" x="241.52932" xlink:href="#m1bc20d9341" y="541.28"/>
      </g>
     </g>
     <g id="text_3">
      <!-- May -->
      <g style="fill:#555555;" transform="translate(225.494945 558.808437)scale(0.14 -0.14)">
       <defs>
        <path d="M 78 3500 
L 1197 3500 
L 2138 1125 
L 2938 3500 
L 4056 3500 
L 2584 -331 
Q 2363 -916 2067 -1148 
Q 1772 -1381 1288 -1381 
L 641 -1381 
L 641 -647 
L 991 -647 
Q 1275 -647 1404 -556 
Q 1534 -466 1606 -231 
L 1638 -134 
L 78 3500 
z
" id="DejaVuSans-Bold-79" transform="scale(0.015625)"/>
       </defs>
       <use xlink:href="#DejaVuSans-Bold-4d"/>
       <use x="99.511719" xlink:href="#DejaVuSans-Bold-61"/>
       <use x="163.867188" xlink:href="#DejaVuSans-Bold-79"/>
      </g>
     </g>
    </g>
    <g id="xtick_4">
     <g id="line2d_4">
      <g>
       <use style="fill:#555555;stroke:#555555;stroke-width:0.8;" x="300.125738" xlink:href="#m1bc20d9341" y="541.28"/>
      </g>
     </g>
     <g id="text_4">
      <!-- Jun -->
      <g style="fill:#555555;" transform="translate(287.555269 558.917812)scale(0.14 -0.14)">
       <defs>
        <path d="M 588 4666 
L 1791 4666 
L 1791 453 
Q 1791 -419 1317 -850 
Q 844 -1281 -116 -1281 
L -359 -1281 
L -359 -372 
L -172 -372 
Q 203 -372 395 -162 
Q 588 47 588 453 
L 588 4666 
z
" id="DejaVuSans-Bold-4a" transform="scale(0.015625)"/>
        <path d="M 500 1363 
L 500 3500 
L 1625 3500 
L 1625 3150 
Q 1625 2866 1622 2436 
Q 1619 2006 1619 1863 
Q 1619 1441 1641 1255 
Q 1663 1069 1716 984 
Q 1784 875 1895 815 
Q 2006 756 2150 756 
Q 2500 756 2700 1025 
Q 2900 1294 2900 1772 
L 2900 3500 
L 4019 3500 
L 4019 0 
L 2900 0 
L 2900 506 
Q 2647 200 2364 54 
Q 2081 -91 1741 -91 
Q 1134 -91 817 281 
Q 500 653 500 1363 
z
" id="DejaVuSans-Bold-75" transform="scale(0.015625)"/>
        <path d="M 4056 2131 
L 4056 0 
L 2931 0 
L 2931 347 
L 2931 1631 
Q 2931 2084 2911 2256 
Q 2891 2428 2841 2509 
Q 2775 2619 2662 2680 
Q 2550 2741 2406 2741 
Q 2056 2741 1856 2470 
Q 1656 2200 1656 1722 
L 1656 0 
L 538 0 
L 538 3500 
L 1656 3500 
L 1656 2988 
Q 1909 3294 2193 3439 
Q 2478 3584 2822 3584 
Q 3428 3584 3742 3212 
Q 4056 2841 4056 2131 
z
" id="DejaVuSans-Bold-6e" transform="scale(0.015625)"/>
       </defs>
       <use xlink:href="#DejaVuSans-Bold-4a"/>
       <use x="37.207031" xlink:href="#DejaVuSans-Bold-75"/>
       <use x="108.398438" xlink:href="#DejaVuSans-Bold-6e"/>
      </g>
     </g>
    </g>
    <g id="xtick_5">
     <g id="line2d_5">
      <g>
       <use style="fill:#555555;stroke:#555555;stroke-width:0.8;" x="356.831949" xlink:href="#m1bc20d9341" y="541.28"/>
      </g>
     </g>
     <g id="text_5">
      <!-- Jul -->
      <g style="fill:#555555;" transform="translate(346.844917 558.917812)scale(0.14 -0.14)">
       <defs>
        <path d="M 538 4863 
L 1656 4863 
L 1656 0 
L 538 0 
L 538 4863 
z
" id="DejaVuSans-Bold-6c" transform="scale(0.015625)"/>
       </defs>
       <use xlink:href="#DejaVuSans-Bold-4a"/>
       <use x="37.207031" xlink:href="#DejaVuSans-Bold-75"/>
       <use x="108.398438" xlink:href="#DejaVuSans-Bold-6c"/>
      </g>
     </g>
    </g>
    <g id="xtick_6">
     <g id="line2d_6">
      <g>
       <use style="fill:#555555;stroke:#555555;stroke-width:0.8;" x="415.428366" xlink:href="#m1bc20d9341" y="541.28"/>
      </g>
     </g>
     <g id="text_6">
      <!-- Aug -->
      <g style="fill:#555555;" transform="translate(400.017429 558.808437)scale(0.14 -0.14)">
       <defs>
        <path d="M 2919 594 
Q 2688 288 2409 144 
Q 2131 0 1766 0 
Q 1125 0 706 504 
Q 288 1009 288 1791 
Q 288 2575 706 3076 
Q 1125 3578 1766 3578 
Q 2131 3578 2409 3434 
Q 2688 3291 2919 2981 
L 2919 3500 
L 4044 3500 
L 4044 353 
Q 4044 -491 3511 -936 
Q 2978 -1381 1966 -1381 
Q 1638 -1381 1331 -1331 
Q 1025 -1281 716 -1178 
L 716 -306 
Q 1009 -475 1290 -558 
Q 1572 -641 1856 -641 
Q 2406 -641 2662 -400 
Q 2919 -159 2919 353 
L 2919 594 
z
M 2181 2772 
Q 1834 2772 1640 2515 
Q 1447 2259 1447 1791 
Q 1447 1309 1634 1061 
Q 1822 813 2181 813 
Q 2531 813 2725 1069 
Q 2919 1325 2919 1791 
Q 2919 2259 2725 2515 
Q 2531 2772 2181 2772 
z
" id="DejaVuSans-Bold-67" transform="scale(0.015625)"/>
       </defs>
       <use xlink:href="#DejaVuSans-Bold-41"/>
       <use x="77.392578" xlink:href="#DejaVuSans-Bold-75"/>
       <use x="148.583984" xlink:href="#DejaVuSans-Bold-67"/>
      </g>
     </g>
    </g>
    <g id="xtick_7">
     <g id="line2d_7">
      <g>
       <use style="fill:#555555;stroke:#555555;stroke-width:0.8;" x="474.024784" xlink:href="#m1bc20d9341" y="541.28"/>
      </g>
     </g>
     <g id="text_7">
      <!-- Sep -->
      <g style="fill:#555555;" transform="translate(459.225253 558.917812)scale(0.14 -0.14)">
       <defs>
        <path d="M 3834 4519 
L 3834 3531 
Q 3450 3703 3084 3790 
Q 2719 3878 2394 3878 
Q 1963 3878 1756 3759 
Q 1550 3641 1550 3391 
Q 1550 3203 1689 3098 
Q 1828 2994 2194 2919 
L 2706 2816 
Q 3484 2659 3812 2340 
Q 4141 2022 4141 1434 
Q 4141 663 3683 286 
Q 3225 -91 2284 -91 
Q 1841 -91 1394 -6 
Q 947 78 500 244 
L 500 1259 
Q 947 1022 1364 901 
Q 1781 781 2169 781 
Q 2563 781 2772 912 
Q 2981 1044 2981 1288 
Q 2981 1506 2839 1625 
Q 2697 1744 2272 1838 
L 1806 1941 
Q 1106 2091 782 2419 
Q 459 2747 459 3303 
Q 459 4000 909 4375 
Q 1359 4750 2203 4750 
Q 2588 4750 2994 4692 
Q 3400 4634 3834 4519 
z
" id="DejaVuSans-Bold-53" transform="scale(0.015625)"/>
        <path d="M 4031 1759 
L 4031 1441 
L 1416 1441 
Q 1456 1047 1700 850 
Q 1944 653 2381 653 
Q 2734 653 3104 758 
Q 3475 863 3866 1075 
L 3866 213 
Q 3469 63 3072 -14 
Q 2675 -91 2278 -91 
Q 1328 -91 801 392 
Q 275 875 275 1747 
Q 275 2603 792 3093 
Q 1309 3584 2216 3584 
Q 3041 3584 3536 3087 
Q 4031 2591 4031 1759 
z
M 2881 2131 
Q 2881 2450 2695 2645 
Q 2509 2841 2209 2841 
Q 1884 2841 1681 2658 
Q 1478 2475 1428 2131 
L 2881 2131 
z
" id="DejaVuSans-Bold-65" transform="scale(0.015625)"/>
       </defs>
       <use xlink:href="#DejaVuSans-Bold-53"/>
       <use x="72.021484" xlink:href="#DejaVuSans-Bold-65"/>
       <use x="139.84375" xlink:href="#DejaVuSans-Bold-70"/>
      </g>
     </g>
    </g>
    <g id="xtick_8">
     <g id="line2d_8">
      <g>
       <use style="fill:#555555;stroke:#555555;stroke-width:0.8;" x="530.730995" xlink:href="#m1bc20d9341" y="541.28"/>
      </g>
     </g>
     <g id="text_8">
      <!-- Oct -->
      <g style="fill:#555555;" transform="translate(517.284432 558.917812)scale(0.14 -0.14)">
       <defs>
        <path d="M 2719 3878 
Q 2169 3878 1866 3472 
Q 1563 3066 1563 2328 
Q 1563 1594 1866 1187 
Q 2169 781 2719 781 
Q 3272 781 3575 1187 
Q 3878 1594 3878 2328 
Q 3878 3066 3575 3472 
Q 3272 3878 2719 3878 
z
M 2719 4750 
Q 3844 4750 4481 4106 
Q 5119 3463 5119 2328 
Q 5119 1197 4481 553 
Q 3844 -91 2719 -91 
Q 1597 -91 958 553 
Q 319 1197 319 2328 
Q 319 3463 958 4106 
Q 1597 4750 2719 4750 
z
" id="DejaVuSans-Bold-4f" transform="scale(0.015625)"/>
        <path d="M 3366 3391 
L 3366 2478 
Q 3138 2634 2908 2709 
Q 2678 2784 2431 2784 
Q 1963 2784 1702 2511 
Q 1441 2238 1441 1747 
Q 1441 1256 1702 982 
Q 1963 709 2431 709 
Q 2694 709 2930 787 
Q 3166 866 3366 1019 
L 3366 103 
Q 3103 6 2833 -42 
Q 2563 -91 2291 -91 
Q 1344 -91 809 395 
Q 275 881 275 1747 
Q 275 2613 809 3098 
Q 1344 3584 2291 3584 
Q 2566 3584 2833 3536 
Q 3100 3488 3366 3391 
z
" id="DejaVuSans-Bold-63" transform="scale(0.015625)"/>
        <path d="M 1759 4494 
L 1759 3500 
L 2913 3500 
L 2913 2700 
L 1759 2700 
L 1759 1216 
Q 1759 972 1856 886 
Q 1953 800 2241 800 
L 2816 800 
L 2816 0 
L 1856 0 
Q 1194 0 917 276 
Q 641 553 641 1216 
L 641 2700 
L 84 2700 
L 84 3500 
L 641 3500 
L 641 4494 
L 1759 4494 
z
" id="DejaVuSans-Bold-74" transform="scale(0.015625)"/>
       </defs>
       <use xlink:href="#DejaVuSans-Bold-4f"/>
       <use x="85.009766" xlink:href="#DejaVuSans-Bold-63"/>
       <use x="144.287109" xlink:href="#DejaVuSans-Bold-74"/>
      </g>
     </g>
    </g>
    <g id="xtick_9">
     <g id="line2d_9">
      <g>
       <use style="fill:#555555;stroke:#555555;stroke-width:0.8;" x="589.327412" xlink:href="#m1bc20d9341" y="541.28"/>
      </g>
     </g>
     <g id="text_9">
      <!-- Nov -->
      <g style="fill:#555555;" transform="translate(574.096943 558.917812)scale(0.14 -0.14)">
       <defs>
        <path d="M 588 4666 
L 1931 4666 
L 3628 1466 
L 3628 4666 
L 4769 4666 
L 4769 0 
L 3425 0 
L 1728 3200 
L 1728 0 
L 588 0 
L 588 4666 
z
" id="DejaVuSans-Bold-4e" transform="scale(0.015625)"/>
        <path d="M 2203 2784 
Q 1831 2784 1636 2517 
Q 1441 2250 1441 1747 
Q 1441 1244 1636 976 
Q 1831 709 2203 709 
Q 2569 709 2762 976 
Q 2956 1244 2956 1747 
Q 2956 2250 2762 2517 
Q 2569 2784 2203 2784 
z
M 2203 3584 
Q 3106 3584 3614 3096 
Q 4122 2609 4122 1747 
Q 4122 884 3614 396 
Q 3106 -91 2203 -91 
Q 1297 -91 786 396 
Q 275 884 275 1747 
Q 275 2609 786 3096 
Q 1297 3584 2203 3584 
z
" id="DejaVuSans-Bold-6f" transform="scale(0.015625)"/>
        <path d="M 97 3500 
L 1216 3500 
L 2088 1081 
L 2956 3500 
L 4078 3500 
L 2700 0 
L 1472 0 
L 97 3500 
z
" id="DejaVuSans-Bold-76" transform="scale(0.015625)"/>
       </defs>
       <use xlink:href="#DejaVuSans-Bold-4e"/>
       <use x="83.691406" xlink:href="#DejaVuSans-Bold-6f"/>
       <use x="152.392578" xlink:href="#DejaVuSans-Bold-76"/>
      </g>
     </g>
    </g>
    <g id="xtick_10">
     <g id="line2d_10">
      <g>
       <use style="fill:#555555;stroke:#555555;stroke-width:0.8;" x="646.033623" xlink:href="#m1bc20d9341" y="541.28"/>
      </g>
     </g>
     <g id="text_10">
      <!-- Dec -->
      <g style="fill:#555555;" transform="translate(631.324873 558.917812)scale(0.14 -0.14)">
       <defs>
        <path d="M 1791 3756 
L 1791 909 
L 2222 909 
Q 2959 909 3348 1275 
Q 3738 1641 3738 2338 
Q 3738 3031 3350 3393 
Q 2963 3756 2222 3756 
L 1791 3756 
z
M 588 4666 
L 1856 4666 
Q 2919 4666 3439 4514 
Q 3959 4363 4331 4000 
Q 4659 3684 4818 3271 
Q 4978 2859 4978 2338 
Q 4978 1809 4818 1395 
Q 4659 981 4331 666 
Q 3956 303 3431 151 
Q 2906 0 1856 0 
L 588 0 
L 588 4666 
z
" id="DejaVuSans-Bold-44" transform="scale(0.015625)"/>
       </defs>
       <use xlink:href="#DejaVuSans-Bold-44"/>
       <use x="83.007812" xlink:href="#DejaVuSans-Bold-65"/>
       <use x="150.830078" xlink:href="#DejaVuSans-Bold-63"/>
      </g>
     </g>
    </g>
    <g id="xtick_11">
     <g id="line2d_11">
      <g>
       <use style="fill:#555555;stroke:#555555;stroke-width:0.8;" x="704.630041" xlink:href="#m1bc20d9341" y="541.28"/>
      </g>
     </g>
     <g id="text_11">
      <!-- Jan -->
      <g style="fill:#555555;" transform="translate(692.318791 558.917812)scale(0.14 -0.14)">
       <use xlink:href="#DejaVuSans-Bold-4a"/>
       <use x="37.207031" xlink:href="#DejaVuSans-Bold-61"/>
       <use x="104.6875" xlink:href="#DejaVuSans-Bold-6e"/>
      </g>
     </g>
    </g>
    <g id="xtick_12">
     <g id="line2d_12">
      <g>
       <use style="fill:#555555;stroke:#555555;stroke-width:0.8;" x="763.226458" xlink:href="#m1bc20d9341" y="541.28"/>
      </g>
     </g>
     <g id="text_12">
      <!-- Feb -->
      <g style="fill:#555555;" transform="translate(748.966146 558.917812)scale(0.14 -0.14)">
       <defs>
        <path d="M 588 4666 
L 3834 4666 
L 3834 3756 
L 1791 3756 
L 1791 2888 
L 3713 2888 
L 3713 1978 
L 1791 1978 
L 1791 0 
L 588 0 
L 588 4666 
z
" id="DejaVuSans-Bold-46" transform="scale(0.015625)"/>
        <path d="M 2400 722 
Q 2759 722 2948 984 
Q 3138 1247 3138 1747 
Q 3138 2247 2948 2509 
Q 2759 2772 2400 2772 
Q 2041 2772 1848 2508 
Q 1656 2244 1656 1747 
Q 1656 1250 1848 986 
Q 2041 722 2400 722 
z
M 1656 2988 
Q 1888 3294 2169 3439 
Q 2450 3584 2816 3584 
Q 3463 3584 3878 3070 
Q 4294 2556 4294 1747 
Q 4294 938 3878 423 
Q 3463 -91 2816 -91 
Q 2450 -91 2169 54 
Q 1888 200 1656 506 
L 1656 0 
L 538 0 
L 538 4863 
L 1656 4863 
L 1656 2988 
z
" id="DejaVuSans-Bold-62" transform="scale(0.015625)"/>
       </defs>
       <use xlink:href="#DejaVuSans-Bold-46"/>
       <use x="64.310547" xlink:href="#DejaVuSans-Bold-65"/>
       <use x="132.132812" xlink:href="#DejaVuSans-Bold-62"/>
      </g>
     </g>
    </g>
    <g id="xtick_13">
     <g id="line2d_13">
      <g>
       <use style="fill:#555555;stroke:#555555;stroke-width:0.8;" x="816.152255" xlink:href="#m1bc20d9341" y="541.28"/>
      </g>
     </g>
     <g id="text_13">
      <!-- Mar -->
      <g style="fill:#555555;" transform="translate(801.01038 558.917812)scale(0.14 -0.14)">
       <use xlink:href="#DejaVuSans-Bold-4d"/>
       <use x="99.511719" xlink:href="#DejaVuSans-Bold-61"/>
       <use x="166.992188" xlink:href="#DejaVuSans-Bold-72"/>
      </g>
     </g>
    </g>
    <g id="xtick_14">
     <g id="line2d_14">
      <g>
       <use style="fill:#555555;stroke:#555555;stroke-width:0.8;" x="874.748672" xlink:href="#m1bc20d9341" y="541.28"/>
      </g>
     </g>
     <g id="text_14">
      <!-- Apr -->
      <g style="fill:#555555;" transform="translate(860.868985 558.917812)scale(0.14 -0.14)">
       <use xlink:href="#DejaVuSans-Bold-41"/>
       <use x="77.392578" xlink:href="#DejaVuSans-Bold-70"/>
       <use x="148.974609" xlink:href="#DejaVuSans-Bold-72"/>
      </g>
     </g>
    </g>
    <g id="xtick_15">
     <g id="line2d_15">
      <g>
       <use style="fill:#555555;stroke:#555555;stroke-width:0.8;" x="931.454883" xlink:href="#m1bc20d9341" y="541.28"/>
      </g>
     </g>
     <g id="text_15">
      <!-- May -->
      <g style="fill:#555555;" transform="translate(915.420508 558.808437)scale(0.14 -0.14)">
       <use xlink:href="#DejaVuSans-Bold-4d"/>
       <use x="99.511719" xlink:href="#DejaVuSans-Bold-61"/>
       <use x="163.867188" xlink:href="#DejaVuSans-Bold-79"/>
      </g>
     </g>
    </g>
    <g id="xtick_16">
     <g id="line2d_16">
      <g>
       <use style="fill:#555555;stroke:#555555;stroke-width:0.8;" x="990.051301" xlink:href="#m1bc20d9341" y="541.28"/>
      </g>
     </g>
     <g id="text_16">
      <!-- Jun -->
      <g style="fill:#555555;" transform="translate(977.480832 558.917812)scale(0.14 -0.14)">
       <use xlink:href="#DejaVuSans-Bold-4a"/>
       <use x="37.207031" xlink:href="#DejaVuSans-Bold-75"/>
       <use x="108.398438" xlink:href="#DejaVuSans-Bold-6e"/>
      </g>
     </g>
    </g>
    <g id="xtick_17">
     <g id="line2d_17">
      <g>
       <use style="fill:#555555;stroke:#555555;stroke-width:0.8;" x="1046.757511" xlink:href="#m1bc20d9341" y="541.28"/>
      </g>
     </g>
     <g id="text_17">
      <!-- Jul -->
      <g style="fill:#555555;" transform="translate(1036.77048 558.917812)scale(0.14 -0.14)">
       <use xlink:href="#DejaVuSans-Bold-4a"/>
       <use x="37.207031" xlink:href="#DejaVuSans-Bold-75"/>
       <use x="108.398438" xlink:href="#DejaVuSans-Bold-6c"/>
      </g>
     </g>
    </g>
    <g id="xtick_18">
     <g id="line2d_18">
      <g>
       <use style="fill:#555555;stroke:#555555;stroke-width:0.8;" x="1105.353929" xlink:href="#m1bc20d9341" y="541.28"/>
      </g>
     </g>
     <g id="text_18">
      <!-- Aug -->
      <g style="fill:#555555;" transform="translate(1089.942991 558.808437)scale(0.14 -0.14)">
       <use xlink:href="#DejaVuSans-Bold-41"/>
       <use x="77.392578" xlink:href="#DejaVuSans-Bold-75"/>
       <use x="148.583984" xlink:href="#DejaVuSans-Bold-67"/>
      </g>
     </g>
    </g>
   </g>
   <g id="matplotlib.axis_2">
    <g id="ytick_1">
     <g id="line2d_19">
      <defs>
       <path d="M 0 0 
L -3.5 0 
" id="m5eae805857" style="stroke:#555555;stroke-width:0.8;"/>
      </defs>
      <g>
       <use style="fill:#555555;stroke:#555555;stroke-width:0.8;" x="87.95" xlink:href="#m5eae805857" y="519.485405"/>
      </g>
     </g>
     <g id="text_19">
      <!-- 0 -->
      <g style="fill:#555555;" transform="translate(71.209063 524.804311)scale(0.14 -0.14)">
       <defs>
        <path d="M 2944 2338 
Q 2944 3213 2780 3570 
Q 2616 3928 2228 3928 
Q 1841 3928 1675 3570 
Q 1509 3213 1509 2338 
Q 1509 1453 1675 1090 
Q 1841 728 2228 728 
Q 2613 728 2778 1090 
Q 2944 1453 2944 2338 
z
M 4147 2328 
Q 4147 1169 3647 539 
Q 3147 -91 2228 -91 
Q 1306 -91 806 539 
Q 306 1169 306 2328 
Q 306 3491 806 4120 
Q 1306 4750 2228 4750 
Q 3147 4750 3647 4120 
Q 4147 3491 4147 2328 
z
" id="DejaVuSans-Bold-30" transform="scale(0.015625)"/>
       </defs>
       <use xlink:href="#DejaVuSans-Bold-30"/>
      </g>
     </g>
    </g>
    <g id="ytick_2">
     <g id="line2d_20">
      <g>
       <use style="fill:#555555;stroke:#555555;stroke-width:0.8;" x="87.95" xlink:href="#m5eae805857" y="448.872754"/>
      </g>
     </g>
     <g id="text_20">
      <!-- 2000 -->
      <g style="fill:#555555;" transform="translate(41.98625 454.19166)scale(0.14 -0.14)">
       <defs>
        <path d="M 1844 884 
L 3897 884 
L 3897 0 
L 506 0 
L 506 884 
L 2209 2388 
Q 2438 2594 2547 2791 
Q 2656 2988 2656 3200 
Q 2656 3528 2436 3728 
Q 2216 3928 1850 3928 
Q 1569 3928 1234 3808 
Q 900 3688 519 3450 
L 519 4475 
Q 925 4609 1322 4679 
Q 1719 4750 2100 4750 
Q 2938 4750 3402 4381 
Q 3866 4013 3866 3353 
Q 3866 2972 3669 2642 
Q 3472 2313 2841 1759 
L 1844 884 
z
" id="DejaVuSans-Bold-32" transform="scale(0.015625)"/>
       </defs>
       <use xlink:href="#DejaVuSans-Bold-32"/>
       <use x="69.580078" xlink:href="#DejaVuSans-Bold-30"/>
       <use x="139.160156" xlink:href="#DejaVuSans-Bold-30"/>
       <use x="208.740234" xlink:href="#DejaVuSans-Bold-30"/>
      </g>
     </g>
    </g>
    <g id="ytick_3">
     <g id="line2d_21">
      <g>
       <use style="fill:#555555;stroke:#555555;stroke-width:0.8;" x="87.95" xlink:href="#m5eae805857" y="378.260103"/>
      </g>
     </g>
     <g id="text_21">
      <!-- 4000 -->
      <g style="fill:#555555;" transform="translate(41.98625 383.579009)scale(0.14 -0.14)">
       <defs>
        <path d="M 2356 3675 
L 1038 1722 
L 2356 1722 
L 2356 3675 
z
M 2156 4666 
L 3494 4666 
L 3494 1722 
L 4159 1722 
L 4159 850 
L 3494 850 
L 3494 0 
L 2356 0 
L 2356 850 
L 288 850 
L 288 1881 
L 2156 4666 
z
" id="DejaVuSans-Bold-34" transform="scale(0.015625)"/>
       </defs>
       <use xlink:href="#DejaVuSans-Bold-34"/>
       <use x="69.580078" xlink:href="#DejaVuSans-Bold-30"/>
       <use x="139.160156" xlink:href="#DejaVuSans-Bold-30"/>
       <use x="208.740234" xlink:href="#DejaVuSans-Bold-30"/>
      </g>
     </g>
    </g>
    <g id="ytick_4">
     <g id="line2d_22">
      <g>
       <use style="fill:#555555;stroke:#555555;stroke-width:0.8;" x="87.95" xlink:href="#m5eae805857" y="307.647451"/>
      </g>
     </g>
     <g id="text_22">
      <!-- 6000 -->
      <g style="fill:#555555;" transform="translate(41.98625 312.966358)scale(0.14 -0.14)">
       <defs>
        <path d="M 2316 2303 
Q 2000 2303 1842 2098 
Q 1684 1894 1684 1484 
Q 1684 1075 1842 870 
Q 2000 666 2316 666 
Q 2634 666 2792 870 
Q 2950 1075 2950 1484 
Q 2950 1894 2792 2098 
Q 2634 2303 2316 2303 
z
M 3803 4544 
L 3803 3681 
Q 3506 3822 3243 3889 
Q 2981 3956 2731 3956 
Q 2194 3956 1894 3657 
Q 1594 3359 1544 2772 
Q 1750 2925 1990 3001 
Q 2231 3078 2516 3078 
Q 3231 3078 3670 2659 
Q 4109 2241 4109 1563 
Q 4109 813 3618 361 
Q 3128 -91 2303 -91 
Q 1394 -91 895 523 
Q 397 1138 397 2266 
Q 397 3422 980 4083 
Q 1563 4744 2578 4744 
Q 2900 4744 3203 4694 
Q 3506 4644 3803 4544 
z
" id="DejaVuSans-Bold-36" transform="scale(0.015625)"/>
       </defs>
       <use xlink:href="#DejaVuSans-Bold-36"/>
       <use x="69.580078" xlink:href="#DejaVuSans-Bold-30"/>
       <use x="139.160156" xlink:href="#DejaVuSans-Bold-30"/>
       <use x="208.740234" xlink:href="#DejaVuSans-Bold-30"/>
      </g>
     </g>
    </g>
    <g id="ytick_5">
     <g id="line2d_23">
      <g>
       <use style="fill:#555555;stroke:#555555;stroke-width:0.8;" x="87.95" xlink:href="#m5eae805857" y="237.0348"/>
      </g>
     </g>
     <g id="text_23">
      <!-- 8000 -->
      <g style="fill:#555555;" transform="translate(41.98625 242.353706)scale(0.14 -0.14)">
       <defs>
        <path d="M 2228 2088 
Q 1891 2088 1709 1903 
Q 1528 1719 1528 1375 
Q 1528 1031 1709 848 
Q 1891 666 2228 666 
Q 2563 666 2741 848 
Q 2919 1031 2919 1375 
Q 2919 1722 2741 1905 
Q 2563 2088 2228 2088 
z
M 1350 2484 
Q 925 2613 709 2878 
Q 494 3144 494 3541 
Q 494 4131 934 4440 
Q 1375 4750 2228 4750 
Q 3075 4750 3515 4442 
Q 3956 4134 3956 3541 
Q 3956 3144 3739 2878 
Q 3522 2613 3097 2484 
Q 3572 2353 3814 2058 
Q 4056 1763 4056 1313 
Q 4056 619 3595 264 
Q 3134 -91 2228 -91 
Q 1319 -91 855 264 
Q 391 619 391 1313 
Q 391 1763 633 2058 
Q 875 2353 1350 2484 
z
M 1631 3419 
Q 1631 3141 1786 2991 
Q 1941 2841 2228 2841 
Q 2509 2841 2662 2991 
Q 2816 3141 2816 3419 
Q 2816 3697 2662 3845 
Q 2509 3994 2228 3994 
Q 1941 3994 1786 3844 
Q 1631 3694 1631 3419 
z
" id="DejaVuSans-Bold-38" transform="scale(0.015625)"/>
       </defs>
       <use xlink:href="#DejaVuSans-Bold-38"/>
       <use x="69.580078" xlink:href="#DejaVuSans-Bold-30"/>
       <use x="139.160156" xlink:href="#DejaVuSans-Bold-30"/>
       <use x="208.740234" xlink:href="#DejaVuSans-Bold-30"/>
      </g>
     </g>
    </g>
    <g id="ytick_6">
     <g id="line2d_24">
      <g>
       <use style="fill:#555555;stroke:#555555;stroke-width:0.8;" x="87.95" xlink:href="#m5eae805857" y="166.422149"/>
      </g>
     </g>
     <g id="text_24">
      <!-- 10000 -->
      <g style="fill:#555555;" transform="translate(32.245313 171.741055)scale(0.14 -0.14)">
       <defs>
        <path d="M 750 831 
L 1813 831 
L 1813 3847 
L 722 3622 
L 722 4441 
L 1806 4666 
L 2950 4666 
L 2950 831 
L 4013 831 
L 4013 0 
L 750 0 
L 750 831 
z
" id="DejaVuSans-Bold-31" transform="scale(0.015625)"/>
       </defs>
       <use xlink:href="#DejaVuSans-Bold-31"/>
       <use x="69.580078" xlink:href="#DejaVuSans-Bold-30"/>
       <use x="139.160156" xlink:href="#DejaVuSans-Bold-30"/>
       <use x="208.740234" xlink:href="#DejaVuSans-Bold-30"/>
       <use x="278.320312" xlink:href="#DejaVuSans-Bold-30"/>
      </g>
     </g>
    </g>
    <g id="ytick_7">
     <g id="line2d_25">
      <g>
       <use style="fill:#555555;stroke:#555555;stroke-width:0.8;" x="87.95" xlink:href="#m5eae805857" y="95.809498"/>
      </g>
     </g>
     <g id="text_25">
      <!-- 12000 -->
      <g style="fill:#555555;" transform="translate(32.245313 101.128404)scale(0.14 -0.14)">
       <use xlink:href="#DejaVuSans-Bold-31"/>
       <use x="69.580078" xlink:href="#DejaVuSans-Bold-32"/>
       <use x="139.160156" xlink:href="#DejaVuSans-Bold-30"/>
       <use x="208.740234" xlink:href="#DejaVuSans-Bold-30"/>
       <use x="278.320312" xlink:href="#DejaVuSans-Bold-30"/>
      </g>
     </g>
    </g>
    <g id="text_26">
     <!-- New Cases -->
     <g style="fill:#555555;" transform="translate(24.917813 333.23875)rotate(-90)scale(0.16 -0.16)">
      <defs>
       <path d="M 628 4666 
L 1478 4666 
L 3547 763 
L 3547 4666 
L 4159 4666 
L 4159 0 
L 3309 0 
L 1241 3903 
L 1241 0 
L 628 0 
L 628 4666 
z
" id="DejaVuSans-4e" transform="scale(0.015625)"/>
       <path d="M 3597 1894 
L 3597 1613 
L 953 1613 
Q 991 1019 1311 708 
Q 1631 397 2203 397 
Q 2534 397 2845 478 
Q 3156 559 3463 722 
L 3463 178 
Q 3153 47 2828 -22 
Q 2503 -91 2169 -91 
Q 1331 -91 842 396 
Q 353 884 353 1716 
Q 353 2575 817 3079 
Q 1281 3584 2069 3584 
Q 2775 3584 3186 3129 
Q 3597 2675 3597 1894 
z
M 3022 2063 
Q 3016 2534 2758 2815 
Q 2500 3097 2075 3097 
Q 1594 3097 1305 2825 
Q 1016 2553 972 2059 
L 3022 2063 
z
" id="DejaVuSans-65" transform="scale(0.015625)"/>
       <path d="M 269 3500 
L 844 3500 
L 1563 769 
L 2278 3500 
L 2956 3500 
L 3675 769 
L 4391 3500 
L 4966 3500 
L 4050 0 
L 3372 0 
L 2619 2869 
L 1863 0 
L 1184 0 
L 269 3500 
z
" id="DejaVuSans-77" transform="scale(0.015625)"/>
       <path id="DejaVuSans-20" transform="scale(0.015625)"/>
       <path d="M 4122 4306 
L 4122 3641 
Q 3803 3938 3442 4084 
Q 3081 4231 2675 4231 
Q 1875 4231 1450 3742 
Q 1025 3253 1025 2328 
Q 1025 1406 1450 917 
Q 1875 428 2675 428 
Q 3081 428 3442 575 
Q 3803 722 4122 1019 
L 4122 359 
Q 3791 134 3420 21 
Q 3050 -91 2638 -91 
Q 1578 -91 968 557 
Q 359 1206 359 2328 
Q 359 3453 968 4101 
Q 1578 4750 2638 4750 
Q 3056 4750 3426 4639 
Q 3797 4528 4122 4306 
z
" id="DejaVuSans-43" transform="scale(0.015625)"/>
       <path d="M 2194 1759 
Q 1497 1759 1228 1600 
Q 959 1441 959 1056 
Q 959 750 1161 570 
Q 1363 391 1709 391 
Q 2188 391 2477 730 
Q 2766 1069 2766 1631 
L 2766 1759 
L 2194 1759 
z
M 3341 1997 
L 3341 0 
L 2766 0 
L 2766 531 
Q 2569 213 2275 61 
Q 1981 -91 1556 -91 
Q 1019 -91 701 211 
Q 384 513 384 1019 
Q 384 1609 779 1909 
Q 1175 2209 1959 2209 
L 2766 2209 
L 2766 2266 
Q 2766 2663 2505 2880 
Q 2244 3097 1772 3097 
Q 1472 3097 1187 3025 
Q 903 2953 641 2809 
L 641 3341 
Q 956 3463 1253 3523 
Q 1550 3584 1831 3584 
Q 2591 3584 2966 3190 
Q 3341 2797 3341 1997 
z
" id="DejaVuSans-61" transform="scale(0.015625)"/>
       <path d="M 2834 3397 
L 2834 2853 
Q 2591 2978 2328 3040 
Q 2066 3103 1784 3103 
Q 1356 3103 1142 2972 
Q 928 2841 928 2578 
Q 928 2378 1081 2264 
Q 1234 2150 1697 2047 
L 1894 2003 
Q 2506 1872 2764 1633 
Q 3022 1394 3022 966 
Q 3022 478 2636 193 
Q 2250 -91 1575 -91 
Q 1294 -91 989 -36 
Q 684 19 347 128 
L 347 722 
Q 666 556 975 473 
Q 1284 391 1588 391 
Q 1994 391 2212 530 
Q 2431 669 2431 922 
Q 2431 1156 2273 1281 
Q 2116 1406 1581 1522 
L 1381 1569 
Q 847 1681 609 1914 
Q 372 2147 372 2553 
Q 372 3047 722 3315 
Q 1072 3584 1716 3584 
Q 2034 3584 2315 3537 
Q 2597 3491 2834 3397 
z
" id="DejaVuSans-73" transform="scale(0.015625)"/>
      </defs>
      <use xlink:href="#DejaVuSans-4e"/>
      <use x="74.804688" xlink:href="#DejaVuSans-65"/>
      <use x="136.328125" xlink:href="#DejaVuSans-77"/>
      <use x="218.115234" xlink:href="#DejaVuSans-20"/>
      <use x="249.902344" xlink:href="#DejaVuSans-43"/>
      <use x="319.726562" xlink:href="#DejaVuSans-61"/>
      <use x="381.005859" xlink:href="#DejaVuSans-73"/>
      <use x="433.105469" xlink:href="#DejaVuSans-65"/>
      <use x="494.628906" xlink:href="#DejaVuSans-73"/>
     </g>
    </g>
   </g>
   <g id="line2d_26">
    <path clip-path="url(#p87642e12ae)" d="M 135.677727 518.073152 
L 137.567934 517.720089 
L 139.458141 518.355603 
L 141.348348 517.331719 
L 143.238555 514.895583 
L 145.128762 515.142727 
L 147.018969 515.001502 
L 148.909176 515.49579 
L 150.799383 511.75332 
L 152.68959 513.377411 
L 154.579797 509.952697 
L 156.470005 509.317183 
L 158.360212 507.23411 
L 160.250419 505.5041 
L 162.140626 500.667134 
L 164.030833 496.995276 
L 165.92104 498.125078 
L 167.811247 499.961007 
L 169.701454 493.040967 
L 171.591661 489.722173 
L 175.372075 478.282923 
L 177.262282 479.024356 
L 179.152489 480.930898 
L 181.042696 488.662983 
L 182.932903 490.03993 
L 184.82311 483.896629 
L 186.713317 481.248655 
L 188.603524 483.472953 
L 190.493731 484.108467 
L 192.383938 480.683753 
L 196.164352 491.875859 
L 198.054559 485.626639 
L 199.944766 476.835364 
L 201.834973 472.633911 
L 203.72518 473.551876 
L 205.615387 478.141698 
L 207.505594 485.626639 
L 209.395801 489.051352 
L 211.286008 493.711787 
L 213.176215 481.742943 
L 215.066422 475.917399 
L 216.956629 477.612103 
L 218.846836 483.367034 
L 220.737043 493.076274 
L 222.62725 494.206076 
L 224.517457 494.488527 
L 226.407664 488.627677 
L 228.297871 491.063813 
L 230.188078 496.642212 
L 232.078285 496.500987 
L 233.968492 505.186343 
L 235.858699 512.671284 
L 237.748906 505.786551 
L 239.639113 501.585098 
L 241.52932 502.608982 
L 243.419527 504.056541 
L 245.309734 507.551867 
L 247.199941 512.388834 
L 249.090149 508.222687 
L 250.980356 508.222687 
L 252.870563 506.739822 
L 254.76077 508.222687 
L 256.650977 509.317183 
L 258.541184 510.941274 
L 260.431391 513.165573 
L 262.321598 512.600672 
L 264.211805 511.612095 
L 266.102012 509.811472 
L 267.992219 512.353527 
L 269.882426 512.635978 
L 271.772633 515.072114 
L 273.66284 514.260069 
L 275.553047 515.566403 
L 277.443254 512.883122 
L 279.333461 510.517598 
L 281.223668 512.989041 
L 285.004082 513.377411 
L 286.894289 511.965158 
L 288.784496 514.930889 
L 290.674703 512.635978 
L 292.56491 513.200879 
L 294.455117 513.200879 
L 296.345324 514.507213 
L 298.235531 513.271492 
L 300.125738 515.813547 
L 302.015945 516.131304 
L 303.906152 516.201917 
L 305.796359 512.847816 
L 307.686566 511.823933 
L 309.576773 512.777203 
L 311.46698 511.047193 
L 313.357187 513.624555 
L 315.247394 513.695168 
L 317.137601 513.09496 
L 319.027808 513.76578 
L 320.918015 512.176996 
L 322.808222 513.09496 
L 324.698429 514.401294 
L 326.588636 513.871699 
L 328.478843 514.754358 
L 330.36905 515.49579 
L 332.259257 515.107421 
L 336.039671 516.307836 
L 337.929878 516.131304 
L 339.820086 517.084575 
L 341.710293 517.013962 
L 343.6005 516.660899 
L 345.490707 515.601709 
L 349.271121 516.766818 
L 351.161328 517.155188 
L 353.051535 516.802124 
L 354.941742 517.472945 
L 356.831949 517.296413 
L 358.722156 516.837431 
L 360.612363 516.802124 
L 362.50257 517.190494 
L 364.392777 516.94335 
L 366.282984 518.037846 
L 368.173191 518.28499 
L 370.063398 517.472945 
L 373.843812 517.190494 
L 375.734019 516.519674 
L 377.624226 516.131304 
L 379.514433 516.94335 
L 381.40464 516.025385 
L 385.185054 515.283952 
L 387.075261 515.637016 
L 388.965468 514.365988 
L 390.855675 514.365988 
L 392.745882 513.024348 
L 394.636089 513.518636 
L 396.526296 513.48333 
L 400.30671 514.012925 
L 404.087124 511.965158 
L 405.977331 512.106383 
L 407.867538 511.576788 
L 409.757745 510.729436 
L 411.647952 507.445948 
L 413.538159 507.445948 
L 415.428366 504.268379 
L 417.318573 506.810434 
L 419.20878 506.351452 
L 421.098987 502.291225 
L 422.989194 504.374298 
L 424.879401 498.125078 
L 426.769608 501.232035 
L 428.659815 502.397144 
L 430.550023 499.113655 
L 432.44023 491.699327 
L 434.330437 497.595483 
L 436.220644 496.500987 
L 438.110851 499.148962 
L 440.001058 497.348339 
L 441.891265 496.324456 
L 443.781472 501.867549 
L 445.671679 502.326531 
L 447.561886 502.079387 
L 449.452093 499.961007 
L 451.3423 500.737746 
L 453.232507 500.667134 
L 455.122714 501.585098 
L 457.012921 503.421027 
L 458.903128 499.254881 
L 460.793335 504.797974 
L 462.683542 499.290187 
L 464.573749 501.549792 
L 466.463956 501.796936 
L 470.24437 501.620404 
L 472.134577 500.914278 
L 474.024784 502.997351 
L 475.914991 494.064851 
L 477.805198 498.336916 
L 479.695405 493.252805 
L 481.585612 496.5716 
L 483.475819 487.003586 
L 485.366026 491.416876 
L 489.14644 479.236194 
L 491.036647 489.934011 
L 492.926854 474.611065 
L 494.817061 476.341075 
L 496.707268 481.107429 
L 498.597475 473.693101 
L 500.487682 470.903901 
L 502.377889 465.219583 
L 504.268096 458.087705 
L 506.158303 450.461539 
L 508.04851 452.685837 
L 509.938717 454.380541 
L 511.828924 441.423119 
L 513.719131 440.505155 
L 515.609338 437.080441 
L 517.499545 429.948563 
L 519.389752 421.898721 
L 521.279959 424.158326 
L 523.170167 414.41378 
L 525.060374 417.026448 
L 526.950581 413.425203 
L 528.840788 403.468819 
L 530.730995 404.633928 
L 532.621202 385.180142 
L 534.511409 380.555014 
L 536.401616 378.86031 
L 538.291823 358.665092 
L 540.18203 359.93612 
L 542.072237 343.942354 
L 543.962444 315.273618 
L 545.852651 309.059704 
L 547.742858 290.771028 
L 549.633065 295.572688 
L 551.523272 279.296472 
L 553.413479 260.584119 
L 555.303686 263.443932 
L 557.193893 244.872804 
L 559.0841 238.76481 
L 560.974307 233.327636 
L 562.864514 231.809464 
L 564.754721 237.529089 
L 566.644928 231.950689 
L 568.535135 211.790777 
L 570.425342 192.866587 
L 572.315549 167.340113 
L 574.205756 214.368139 
L 576.095963 160.490686 
L 577.98617 155.724332 
L 579.876377 156.99536 
L 581.766584 234.316213 
L 583.656791 157.701486 
L 585.546998 128.750299 
L 587.437205 174.471991 
L 589.327412 213.061805 
L 591.217619 227.678624 
L 593.107826 246.285057 
L 594.998033 251.15733 
L 596.88824 274.247667 
L 598.778447 264.361896 
L 600.668654 285.898755 
L 604.449068 354.604864 
L 606.339275 355.522829 
L 608.229482 329.431454 
L 610.119689 321.099161 
L 612.009896 305.246621 
L 613.900104 311.284003 
L 615.790311 328.195733 
L 619.570725 368.374331 
L 621.460932 357.641208 
L 623.351139 318.733638 
L 625.241346 310.048282 
L 627.131553 307.506226 
L 629.02176 330.314112 
L 630.911967 336.563332 
L 632.802174 380.131338 
L 634.692381 346.131346 
L 636.582588 361.736742 
L 638.472795 316.40342 
L 640.363002 361.842661 
L 642.253209 323.005703 
L 644.143416 358.064884 
L 646.033623 376.918462 
L 647.92383 346.201959 
L 649.814037 321.98182 
L 651.704244 311.495841 
L 653.594451 288.970405 
L 655.484658 280.779338 
L 657.374865 269.022331 
L 659.265072 303.445999 
L 661.155279 288.44081 
L 663.045486 212.002615 
L 664.935693 207.483406 
L 666.8259 197.421103 
L 668.716107 170.729521 
L 670.606314 220.758584 
L 672.496521 285.36916 
L 674.386728 125.254973 
L 676.276935 68.341176 
L 678.167142 97.32767 
L 680.057349 87.900881 
L 681.947556 60.609091 
L 683.837763 125.608036 
L 685.72797 172.706675 
L 687.618177 152.546763 
L 689.508384 113.674498 
L 691.398591 113.639192 
L 693.288798 172.953819 
L 695.179005 201.551943 
L 697.069212 258.289208 
L 698.959419 254.052449 
L 700.849626 185.875934 
L 702.739833 178.249768 
L 704.630041 231.068031 
L 706.520248 216.239374 
L 708.410455 258.359821 
L 710.300662 285.333854 
L 712.190869 294.619417 
L 714.081076 269.163556 
L 715.971283 177.790786 
L 717.86149 233.080492 
L 719.751697 260.690038 
L 721.641904 286.393043 
L 723.532111 327.136543 
L 725.422318 345.001544 
L 727.312525 304.434576 
L 729.202732 290.029595 
L 731.092939 306.764793 
L 732.983146 332.538411 
L 734.873353 322.405495 
L 736.76356 350.579943 
L 738.653767 367.844737 
L 740.543974 322.864478 
L 742.434181 314.532185 
L 744.324388 316.615258 
L 746.214595 327.207156 
L 748.104802 347.15523 
L 749.995009 375.11784 
L 751.885216 379.707662 
L 753.775423 352.663017 
L 755.66563 353.863432 
L 757.555837 364.243491 
L 759.446044 372.187415 
L 761.336251 389.664046 
L 763.226458 405.163523 
L 765.116665 394.218562 
L 767.006872 377.624589 
L 768.897079 371.198838 
L 770.787286 367.067997 
L 772.677493 375.11784 
L 774.5677 381.155221 
L 776.457907 439.799028 
L 778.348114 457.381578 
L 780.238321 407.458434 
L 782.128528 363.184302 
L 784.018735 366.714934 
L 785.908942 372.187415 
L 787.799149 398.56124 
L 789.689356 419.144828 
L 791.579563 424.511389 
L 793.46977 400.5737 
L 795.359977 358.559173 
L 797.250185 354.393027 
L 799.140392 359.229993 
L 801.030599 354.640171 
L 802.920806 371.94027 
L 804.811013 385.003611 
L 806.70122 365.232068 
L 808.591427 343.448066 
L 810.481634 339.811514 
L 812.371841 345.70767 
L 814.262048 355.840586 
L 816.152255 387.12199 
L 818.042462 379.495824 
L 819.932669 342.141732 
L 821.822876 375.011921 
L 823.713083 354.887315 
L 825.60329 331.938203 
L 827.493497 360.324489 
L 829.383704 382.355636 
L 831.273911 368.162494 
L 833.164118 333.809439 
L 835.054325 332.467798 
L 836.944532 308.53011 
L 838.834739 294.336967 
L 840.724946 309.306849 
L 842.615153 325.230002 
L 844.50536 345.001544 
L 846.395567 310.895633 
L 848.285774 302.987016 
L 850.175981 260.054524 
L 852.066188 251.086718 
L 853.956395 273.400316 
L 857.736809 321.487531 
L 859.627016 252.710809 
L 861.517223 248.050374 
L 863.40743 252.60489 
L 865.297637 209.425253 
L 867.187844 255.747153 
L 869.078051 280.073211 
L 870.968258 312.766869 
L 872.858465 250.133447 
L 874.748672 243.425245 
L 876.638879 264.785572 
L 878.529086 251.263249 
L 880.419293 277.213399 
L 882.3095 331.161464 
L 884.199707 323.217541 
L 886.089914 294.619417 
L 887.980122 245.473012 
L 889.870329 249.038951 
L 891.760536 249.074257 
L 893.650743 232.021302 
L 895.54095 284.415889 
L 897.431157 282.156284 
L 899.321364 327.418994 
L 901.211571 212.53221 
L 903.101778 205.61217 
L 904.991985 228.1023 
L 906.882192 218.604898 
L 908.772399 266.762726 
L 910.662606 278.625652 
L 912.552813 220.370214 
L 914.44302 181.286112 
L 916.333227 193.396182 
L 918.223434 234.845808 
L 920.113641 236.328674 
L 922.003848 299.668222 
L 923.894055 332.185348 
L 925.784262 214.050382 
L 927.674469 262.314129 
L 929.564676 245.367093 
L 931.454883 315.308924 
L 933.34509 326.677561 
L 935.235297 195.126192 
L 937.125504 245.578931 
L 940.905918 281.061788 
L 942.796125 256.135522 
L 944.686332 257.371244 
L 948.466746 312.555031 
L 950.356953 324.417956 
L 952.24716 295.607994 
L 954.137367 307.223775 
L 956.027574 323.782442 
L 957.917781 361.595517 
L 959.807988 363.290221 
L 961.698195 418.579927 
L 963.588402 331.479221 
L 965.478609 358.87693 
L 967.368816 356.511406 
L 969.259023 373.38783 
L 971.14923 407.458434 
L 973.039437 398.631853 
L 974.929644 423.169749 
L 976.819851 431.784492 
L 978.710059 422.816686 
L 980.600266 400.326556 
L 982.490473 383.944421 
L 984.38068 401.385746 
L 986.270887 426.912219 
L 988.161094 448.166627 
L 990.051301 431.925718 
L 991.941508 429.136518 
L 993.831715 422.00464 
L 995.721922 434.926755 
L 997.612129 444.706607 
L 999.502336 464.08978 
L 1001.392543 467.620413 
L 1003.28275 468.750215 
L 1005.172957 457.664029 
L 1007.063164 463.772023 
L 1008.953371 470.409613 
L 1010.843578 475.705561 
L 1012.733785 482.73152 
L 1014.623992 488.451145 
L 1016.514199 482.766827 
L 1018.404406 483.331728 
L 1020.294613 482.096006 
L 1022.18482 488.027469 
L 1024.075027 495.018122 
L 1025.965234 494.311995 
L 1027.855441 499.3608 
L 1029.745648 494.84159 
L 1031.635855 495.971392 
L 1033.526062 494.876896 
L 1035.416269 496.606906 
L 1037.306476 499.890394 
L 1039.196683 501.76163 
L 1041.08689 499.466719 
L 1042.977097 500.773053 
L 1044.867304 496.783438 
L 1046.757511 490.392993 
L 1048.647718 486.226846 
L 1050.537925 479.801095 
L 1052.428132 476.976589 
L 1054.318339 465.925709 
L 1056.208546 441.917408 
L 1058.098753 391.888344 
L 1059.98896 328.79594 
L 1061.879167 276.118903 
L 1063.769374 157.66618 
L 1065.659581 190.43045 
L 1067.549788 221.18226 
L 1069.439995 243.601777 
L 1071.330203 151.593492 
L 1073.22041 131.292355 
L 1075.110617 121.335971 
L 1077.000824 128.432542 
L 1078.891031 159.39619 
L 1080.781238 205.647477 
L 1082.671445 279.79076 
L 1084.561652 276.04829 
L 1086.451859 298.397194 
L 1088.342066 292.642263 
L 1090.232273 331.549834 
L 1090.232273 331.549834 
" style="fill:none;stroke:#000000;stroke-dasharray:1.5,2.475;stroke-dashoffset:0;stroke-opacity:0.5;stroke-width:1.5;"/>
   </g>
   <g id="line2d_27">
    <path clip-path="url(#p87642e12ae)" d="M 135.677727 518.390909 
L 139.458141 517.367026 
L 147.018969 514.719051 
L 148.909176 513.942312 
L 150.799383 513.024348 
L 152.68959 511.859239 
L 154.579797 510.446986 
L 156.470005 508.646363 
L 158.360212 506.492677 
L 160.250419 504.091847 
L 167.811247 495.477104 
L 169.701454 492.44076 
L 173.481868 485.414801 
L 175.372075 483.11989 
L 177.262282 482.660908 
L 179.152489 483.296421 
L 181.042696 484.320305 
L 182.932903 485.026431 
L 184.82311 484.955819 
L 188.603524 483.508259 
L 190.493731 483.755404 
L 192.383938 484.602755 
L 194.274145 485.026431 
L 196.164352 484.249692 
L 198.054559 482.307844 
L 199.944766 479.977627 
L 201.834973 478.282923 
L 203.72518 478.212311 
L 205.615387 480.401303 
L 207.505594 483.155196 
L 209.395801 484.885206 
L 211.286008 484.920512 
L 213.176215 483.720097 
L 215.066422 482.802133 
L 216.956629 483.261115 
L 218.846836 485.238269 
L 220.737043 488.098082 
L 222.62725 490.498912 
L 224.517457 492.05239 
L 226.407664 492.864436 
L 228.297871 494.029544 
L 230.188078 496.606906 
L 233.968492 502.679594 
L 235.858699 504.515523 
L 237.748906 505.045118 
L 241.52932 505.151037 
L 243.419527 505.645326 
L 245.309734 506.881047 
L 247.199941 507.940237 
L 249.090149 508.434525 
L 252.870563 508.540444 
L 254.76077 508.858201 
L 258.541184 510.658824 
L 260.431391 511.329644 
L 262.321598 511.682707 
L 266.102012 511.965158 
L 267.992219 512.318221 
L 271.772633 513.624555 
L 273.66284 513.871699 
L 275.553047 513.695168 
L 279.333461 512.918429 
L 281.223668 512.706591 
L 283.113875 512.777203 
L 286.894289 513.200879 
L 292.56491 513.412717 
L 296.345324 514.012925 
L 298.235531 514.54252 
L 300.125738 514.860277 
L 302.015945 514.860277 
L 303.906152 514.471907 
L 307.686566 513.09496 
L 309.576773 512.706591 
L 311.46698 512.600672 
L 315.247394 513.059654 
L 320.918015 513.306798 
L 322.808222 513.48333 
L 326.588636 514.224763 
L 330.36905 515.072114 
L 337.929878 516.378449 
L 341.710293 516.55498 
L 345.490707 516.484368 
L 347.380914 516.484368 
L 356.831949 517.084575 
L 360.612363 517.084575 
L 368.173191 517.649476 
L 371.953605 517.331719 
L 379.514433 516.27253 
L 383.294847 515.742935 
L 385.185054 515.460484 
L 390.855675 514.15415 
L 392.745882 513.836393 
L 396.526296 513.553942 
L 400.30671 513.236186 
L 402.196917 512.918429 
L 404.087124 512.42414 
L 405.977331 511.718014 
L 407.867538 510.835355 
L 411.647952 508.469832 
L 415.428366 506.351452 
L 417.318573 505.610019 
L 424.879401 501.655711 
L 426.769608 500.384683 
L 428.659815 499.396106 
L 430.550023 498.160385 
L 432.44023 497.454258 
L 434.330437 496.995276 
L 436.220644 496.85405 
L 438.110851 497.383645 
L 440.001058 498.336916 
L 443.781472 499.996313 
L 445.671679 500.631827 
L 447.561886 501.020197 
L 449.452093 501.161422 
L 453.232507 501.126116 
L 455.122714 501.443873 
L 458.903128 501.691017 
L 462.683542 501.549792 
L 464.573749 501.443873 
L 466.463956 501.549792 
L 468.354163 501.514485 
L 470.24437 501.161422 
L 472.134577 500.525908 
L 475.914991 498.089772 
L 481.585612 492.687904 
L 483.475819 490.498912 
L 485.366026 488.521758 
L 489.14644 483.755404 
L 491.036647 482.0607 
L 492.926854 480.012933 
L 494.817061 478.177004 
L 496.707268 476.093931 
L 498.597475 472.775136 
L 500.487682 468.962053 
L 504.268096 459.782409 
L 506.158303 455.580956 
L 511.828924 444.459463 
L 513.719131 440.010866 
L 515.609338 435.244512 
L 517.499545 430.125095 
L 519.389752 425.85303 
L 523.170167 417.944413 
L 525.060374 414.484393 
L 526.950581 409.965183 
L 528.840788 404.139639 
L 530.730995 397.749194 
L 534.511409 381.578897 
L 536.401616 373.034766 
L 538.291823 362.513481 
L 540.18203 351.144845 
L 545.852651 311.036859 
L 547.742858 298.503113 
L 549.633065 287.875909 
L 555.303686 258.324514 
L 557.193893 249.286095 
L 559.0841 242.648506 
L 562.864514 233.645393 
L 564.754721 228.420057 
L 568.535135 211.155263 
L 572.315549 189.830243 
L 574.205756 180.403454 
L 576.095963 177.755479 
L 577.98617 175.813631 
L 579.876377 174.083621 
L 581.766584 171.435647 
L 583.656791 172.636062 
L 585.546998 176.802209 
L 587.437205 187.111656 
L 589.327412 200.598672 
L 591.217619 220.864503 
L 593.107826 239.223792 
L 594.998033 253.063872 
L 596.88824 265.738843 
L 598.778447 280.955869 
L 602.558861 314.849942 
L 604.449068 327.136543 
L 606.339275 332.750249 
L 608.229482 330.984933 
L 610.119689 325.72429 
L 612.009896 322.158351 
L 613.900104 324.806326 
L 615.790311 332.679636 
L 617.680518 339.634982 
L 619.570725 342.671326 
L 621.460932 339.246613 
L 623.351139 332.432492 
L 625.241346 326.077353 
L 627.131553 326.218579 
L 629.02176 331.337996 
L 630.911967 341.047235 
L 632.802174 346.837473 
L 634.692381 350.438718 
L 638.472795 345.884202 
L 640.363002 345.213382 
L 642.253209 347.649518 
L 644.143416 348.461564 
L 646.033623 347.543599 
L 647.92383 338.787631 
L 649.814037 327.101237 
L 651.704244 311.319309 
L 653.594451 298.4325 
L 655.484658 290.523883 
L 657.374865 281.979753 
L 659.265072 271.317242 
L 661.155279 256.629811 
L 663.045486 236.893575 
L 664.935693 219.875926 
L 666.8259 211.790777 
L 668.716107 204.906044 
L 670.606314 196.326607 
L 672.496521 179.662021 
L 674.386728 154.347385 
L 676.276935 125.890487 
L 678.167142 104.035871 
L 680.057349 95.456434 
L 681.947556 104.706692 
L 683.837763 117.946564 
L 685.72797 127.338046 
L 689.508384 143.578956 
L 691.398591 155.865557 
L 693.288798 174.754442 
L 695.179005 195.020273 
L 697.069212 210.237299 
L 698.959419 217.72224 
L 700.849626 216.062843 
L 702.739833 215.921617 
L 704.630041 221.252873 
L 706.520248 234.563357 
L 708.410455 251.792844 
L 710.300662 259.419011 
L 712.190869 258.112677 
L 715.971283 247.097103 
L 717.86149 250.451204 
L 719.751697 264.679653 
L 723.532111 301.89252 
L 725.422318 310.366038 
L 727.312525 313.402382 
L 729.202732 313.61422 
L 731.092939 315.979744 
L 732.983146 323.005703 
L 734.873353 331.373302 
L 736.76356 336.881089 
L 738.653767 336.951702 
L 740.543974 332.926781 
L 742.434181 329.996356 
L 744.324388 330.773095 
L 746.214595 336.987008 
L 748.104802 347.049311 
L 749.995009 355.840586 
L 751.885216 361.242454 
L 753.775423 363.502059 
L 755.66563 365.4086 
L 757.555837 369.53944 
L 759.446044 376.106417 
L 761.336251 383.202988 
L 763.226458 386.945459 
L 765.116665 386.062801 
L 767.006872 382.461555 
L 768.897079 378.260103 
L 770.787286 379.637049 
L 772.677493 388.640162 
L 774.5677 400.467781 
L 776.457907 408.764768 
L 778.348114 410.035796 
L 780.238321 403.115756 
L 782.128528 393.688967 
L 784.018735 386.627702 
L 785.908942 387.298522 
L 787.799149 394.359787 
L 789.689356 399.726349 
L 791.579563 398.278789 
L 793.46977 390.476091 
L 795.359977 378.471941 
L 797.250185 368.339025 
L 799.140392 363.713896 
L 801.030599 363.784509 
L 802.920806 365.373294 
L 804.811013 364.34941 
L 806.70122 360.289183 
L 808.591427 355.522829 
L 810.481634 353.545675 
L 812.371841 355.381604 
L 814.262048 359.053462 
L 816.152255 364.208185 
L 818.042462 366.044114 
L 819.932669 363.360833 
L 821.822876 359.653669 
L 823.713083 357.041001 
L 825.60329 357.252839 
L 827.493497 358.594479 
L 829.383704 357.041001 
L 831.273911 351.886277 
L 833.164118 342.24765 
L 835.054325 329.713905 
L 836.944532 319.157314 
L 838.834739 315.273618 
L 840.724946 315.803213 
L 842.615153 317.286078 
L 844.50536 315.026473 
L 846.395567 306.8001 
L 848.285774 294.513498 
L 850.175981 283.497925 
L 852.066188 279.014021 
L 853.956395 278.83749 
L 855.846602 279.331778 
L 857.736809 278.025444 
L 859.627016 269.163556 
L 861.517223 258.359821 
L 863.40743 250.698348 
L 865.297637 251.122024 
L 869.078051 263.973527 
L 870.968258 267.39824 
L 872.858465 267.11579 
L 874.748672 263.832301 
L 876.638879 265.880068 
L 878.529086 273.188478 
L 880.419293 285.792836 
L 882.3095 293.419002 
L 884.199707 292.818795 
L 886.089914 285.086709 
L 887.980122 271.24663 
L 889.870329 259.80738 
L 891.760536 255.500008 
L 893.650743 261.713922 
L 895.54095 267.468853 
L 897.431157 267.821916 
L 899.321364 261.608003 
L 903.101778 238.552972 
L 904.991985 235.551934 
L 906.882192 235.446015 
L 908.772399 238.411747 
L 910.662606 235.092952 
L 912.552813 227.466786 
L 914.44302 220.687971 
L 916.333227 221.605936 
L 918.223434 234.528051 
L 922.003848 264.008833 
L 923.894055 268.810493 
L 925.784262 269.763764 
L 927.674469 273.117865 
L 929.564676 271.070098 
L 931.454883 269.446007 
L 933.34509 269.198863 
L 935.235297 264.114752 
L 937.125504 260.301669 
L 939.015711 257.547775 
L 940.905918 259.489623 
L 942.796125 269.12825 
L 954.137367 321.840594 
L 956.027574 336.033737 
L 959.807988 359.93612 
L 961.698195 365.12615 
L 965.478609 366.644322 
L 967.368816 370.881081 
L 969.259023 378.613166 
L 971.14923 392.947534 
L 973.039437 404.775153 
L 974.929644 412.930914 
L 976.819851 414.908069 
L 980.600266 409.22375 
L 982.490473 408.976606 
L 984.38068 412.577851 
L 988.161094 426.064868 
L 990.051301 430.584077 
L 991.941508 432.490619 
L 993.831715 434.891449 
L 995.721922 439.481271 
L 999.502336 454.451153 
L 1001.392543 460.276697 
L 1003.28275 463.595492 
L 1007.063164 467.691025 
L 1008.953371 471.256964 
L 1012.733785 479.589257 
L 1014.623992 482.237232 
L 1016.514199 483.755404 
L 1018.404406 485.061738 
L 1020.294613 486.544603 
L 1022.18482 488.874821 
L 1024.075027 491.593408 
L 1025.965234 493.923625 
L 1027.855441 495.406491 
L 1029.745648 496.006699 
L 1031.635855 496.218537 
L 1035.416269 497.560177 
L 1037.306476 498.689979 
L 1039.196683 499.325493 
L 1041.08689 499.007736 
L 1042.977097 497.454258 
L 1044.867304 494.45322 
L 1046.757511 490.498912 
L 1048.647718 485.556026 
L 1050.537925 478.60068 
L 1052.428132 466.984899 
L 1054.318339 447.354582 
L 1056.208546 417.732575 
L 1058.098753 373.458442 
L 1061.879167 275.306857 
L 1063.769374 239.718081 
L 1065.659581 215.215491 
L 1067.549788 199.680708 
L 1071.330203 171.541566 
L 1073.22041 155.900864 
L 1075.110617 148.027553 
L 1077.000824 155.724332 
L 1078.891031 179.308958 
L 1082.671445 241.871767 
L 1084.561652 269.693151 
L 1086.451859 287.699377 
L 1088.342066 299.456384 
L 1090.232273 305.811522 
L 1090.232273 305.811522 
" style="fill:none;stroke:#000000;stroke-linecap:square;stroke-width:1.5;"/>
   </g>
   <g id="patch_3">
    <path d="M 87.95 541.28 
L 87.95 37.72 
" style="fill:none;stroke:#555555;stroke-linecap:square;stroke-linejoin:miter;"/>
   </g>
   <g id="patch_4">
    <path d="M 87.95 541.28 
L 1137.96 541.28 
" style="fill:none;stroke:#555555;stroke-linecap:square;stroke-linejoin:miter;"/>
   </g>
   <g id="text_27">
    <!-- Positive COVID-19 tests - last updated on 24 July 2021 -->
    <g style="fill:#555555;" transform="translate(368.239375 27.72)scale(0.18 -0.18)">
     <defs>
      <path d="M 1259 4147 
L 1259 2394 
L 2053 2394 
Q 2494 2394 2734 2622 
Q 2975 2850 2975 3272 
Q 2975 3691 2734 3919 
Q 2494 4147 2053 4147 
L 1259 4147 
z
M 628 4666 
L 2053 4666 
Q 2838 4666 3239 4311 
Q 3641 3956 3641 3272 
Q 3641 2581 3239 2228 
Q 2838 1875 2053 1875 
L 1259 1875 
L 1259 0 
L 628 0 
L 628 4666 
z
" id="DejaVuSans-50" transform="scale(0.015625)"/>
      <path d="M 1959 3097 
Q 1497 3097 1228 2736 
Q 959 2375 959 1747 
Q 959 1119 1226 758 
Q 1494 397 1959 397 
Q 2419 397 2687 759 
Q 2956 1122 2956 1747 
Q 2956 2369 2687 2733 
Q 2419 3097 1959 3097 
z
M 1959 3584 
Q 2709 3584 3137 3096 
Q 3566 2609 3566 1747 
Q 3566 888 3137 398 
Q 2709 -91 1959 -91 
Q 1206 -91 779 398 
Q 353 888 353 1747 
Q 353 2609 779 3096 
Q 1206 3584 1959 3584 
z
" id="DejaVuSans-6f" transform="scale(0.015625)"/>
      <path d="M 603 3500 
L 1178 3500 
L 1178 0 
L 603 0 
L 603 3500 
z
M 603 4863 
L 1178 4863 
L 1178 4134 
L 603 4134 
L 603 4863 
z
" id="DejaVuSans-69" transform="scale(0.015625)"/>
      <path d="M 1172 4494 
L 1172 3500 
L 2356 3500 
L 2356 3053 
L 1172 3053 
L 1172 1153 
Q 1172 725 1289 603 
Q 1406 481 1766 481 
L 2356 481 
L 2356 0 
L 1766 0 
Q 1100 0 847 248 
Q 594 497 594 1153 
L 594 3053 
L 172 3053 
L 172 3500 
L 594 3500 
L 594 4494 
L 1172 4494 
z
" id="DejaVuSans-74" transform="scale(0.015625)"/>
      <path d="M 191 3500 
L 800 3500 
L 1894 563 
L 2988 3500 
L 3597 3500 
L 2284 0 
L 1503 0 
L 191 3500 
z
" id="DejaVuSans-76" transform="scale(0.015625)"/>
      <path d="M 2522 4238 
Q 1834 4238 1429 3725 
Q 1025 3213 1025 2328 
Q 1025 1447 1429 934 
Q 1834 422 2522 422 
Q 3209 422 3611 934 
Q 4013 1447 4013 2328 
Q 4013 3213 3611 3725 
Q 3209 4238 2522 4238 
z
M 2522 4750 
Q 3503 4750 4090 4092 
Q 4678 3434 4678 2328 
Q 4678 1225 4090 567 
Q 3503 -91 2522 -91 
Q 1538 -91 948 565 
Q 359 1222 359 2328 
Q 359 3434 948 4092 
Q 1538 4750 2522 4750 
z
" id="DejaVuSans-4f" transform="scale(0.015625)"/>
      <path d="M 1831 0 
L 50 4666 
L 709 4666 
L 2188 738 
L 3669 4666 
L 4325 4666 
L 2547 0 
L 1831 0 
z
" id="DejaVuSans-56" transform="scale(0.015625)"/>
      <path d="M 628 4666 
L 1259 4666 
L 1259 0 
L 628 0 
L 628 4666 
z
" id="DejaVuSans-49" transform="scale(0.015625)"/>
      <path d="M 1259 4147 
L 1259 519 
L 2022 519 
Q 2988 519 3436 956 
Q 3884 1394 3884 2338 
Q 3884 3275 3436 3711 
Q 2988 4147 2022 4147 
L 1259 4147 
z
M 628 4666 
L 1925 4666 
Q 3281 4666 3915 4102 
Q 4550 3538 4550 2338 
Q 4550 1131 3912 565 
Q 3275 0 1925 0 
L 628 0 
L 628 4666 
z
" id="DejaVuSans-44" transform="scale(0.015625)"/>
      <path d="M 313 2009 
L 1997 2009 
L 1997 1497 
L 313 1497 
L 313 2009 
z
" id="DejaVuSans-2d" transform="scale(0.015625)"/>
      <path d="M 794 531 
L 1825 531 
L 1825 4091 
L 703 3866 
L 703 4441 
L 1819 4666 
L 2450 4666 
L 2450 531 
L 3481 531 
L 3481 0 
L 794 0 
L 794 531 
z
" id="DejaVuSans-31" transform="scale(0.015625)"/>
      <path d="M 703 97 
L 703 672 
Q 941 559 1184 500 
Q 1428 441 1663 441 
Q 2288 441 2617 861 
Q 2947 1281 2994 2138 
Q 2813 1869 2534 1725 
Q 2256 1581 1919 1581 
Q 1219 1581 811 2004 
Q 403 2428 403 3163 
Q 403 3881 828 4315 
Q 1253 4750 1959 4750 
Q 2769 4750 3195 4129 
Q 3622 3509 3622 2328 
Q 3622 1225 3098 567 
Q 2575 -91 1691 -91 
Q 1453 -91 1209 -44 
Q 966 3 703 97 
z
M 1959 2075 
Q 2384 2075 2632 2365 
Q 2881 2656 2881 3163 
Q 2881 3666 2632 3958 
Q 2384 4250 1959 4250 
Q 1534 4250 1286 3958 
Q 1038 3666 1038 3163 
Q 1038 2656 1286 2365 
Q 1534 2075 1959 2075 
z
" id="DejaVuSans-39" transform="scale(0.015625)"/>
      <path d="M 603 4863 
L 1178 4863 
L 1178 0 
L 603 0 
L 603 4863 
z
" id="DejaVuSans-6c" transform="scale(0.015625)"/>
      <path d="M 544 1381 
L 544 3500 
L 1119 3500 
L 1119 1403 
Q 1119 906 1312 657 
Q 1506 409 1894 409 
Q 2359 409 2629 706 
Q 2900 1003 2900 1516 
L 2900 3500 
L 3475 3500 
L 3475 0 
L 2900 0 
L 2900 538 
Q 2691 219 2414 64 
Q 2138 -91 1772 -91 
Q 1169 -91 856 284 
Q 544 659 544 1381 
z
M 1991 3584 
L 1991 3584 
z
" id="DejaVuSans-75" transform="scale(0.015625)"/>
      <path d="M 1159 525 
L 1159 -1331 
L 581 -1331 
L 581 3500 
L 1159 3500 
L 1159 2969 
Q 1341 3281 1617 3432 
Q 1894 3584 2278 3584 
Q 2916 3584 3314 3078 
Q 3713 2572 3713 1747 
Q 3713 922 3314 415 
Q 2916 -91 2278 -91 
Q 1894 -91 1617 61 
Q 1341 213 1159 525 
z
M 3116 1747 
Q 3116 2381 2855 2742 
Q 2594 3103 2138 3103 
Q 1681 3103 1420 2742 
Q 1159 2381 1159 1747 
Q 1159 1113 1420 752 
Q 1681 391 2138 391 
Q 2594 391 2855 752 
Q 3116 1113 3116 1747 
z
" id="DejaVuSans-70" transform="scale(0.015625)"/>
      <path d="M 2906 2969 
L 2906 4863 
L 3481 4863 
L 3481 0 
L 2906 0 
L 2906 525 
Q 2725 213 2448 61 
Q 2172 -91 1784 -91 
Q 1150 -91 751 415 
Q 353 922 353 1747 
Q 353 2572 751 3078 
Q 1150 3584 1784 3584 
Q 2172 3584 2448 3432 
Q 2725 3281 2906 2969 
z
M 947 1747 
Q 947 1113 1208 752 
Q 1469 391 1925 391 
Q 2381 391 2643 752 
Q 2906 1113 2906 1747 
Q 2906 2381 2643 2742 
Q 2381 3103 1925 3103 
Q 1469 3103 1208 2742 
Q 947 2381 947 1747 
z
" id="DejaVuSans-64" transform="scale(0.015625)"/>
      <path d="M 3513 2113 
L 3513 0 
L 2938 0 
L 2938 2094 
Q 2938 2591 2744 2837 
Q 2550 3084 2163 3084 
Q 1697 3084 1428 2787 
Q 1159 2491 1159 1978 
L 1159 0 
L 581 0 
L 581 3500 
L 1159 3500 
L 1159 2956 
Q 1366 3272 1645 3428 
Q 1925 3584 2291 3584 
Q 2894 3584 3203 3211 
Q 3513 2838 3513 2113 
z
" id="DejaVuSans-6e" transform="scale(0.015625)"/>
      <path d="M 1228 531 
L 3431 531 
L 3431 0 
L 469 0 
L 469 531 
Q 828 903 1448 1529 
Q 2069 2156 2228 2338 
Q 2531 2678 2651 2914 
Q 2772 3150 2772 3378 
Q 2772 3750 2511 3984 
Q 2250 4219 1831 4219 
Q 1534 4219 1204 4116 
Q 875 4013 500 3803 
L 500 4441 
Q 881 4594 1212 4672 
Q 1544 4750 1819 4750 
Q 2544 4750 2975 4387 
Q 3406 4025 3406 3419 
Q 3406 3131 3298 2873 
Q 3191 2616 2906 2266 
Q 2828 2175 2409 1742 
Q 1991 1309 1228 531 
z
" id="DejaVuSans-32" transform="scale(0.015625)"/>
      <path d="M 2419 4116 
L 825 1625 
L 2419 1625 
L 2419 4116 
z
M 2253 4666 
L 3047 4666 
L 3047 1625 
L 3713 1625 
L 3713 1100 
L 3047 1100 
L 3047 0 
L 2419 0 
L 2419 1100 
L 313 1100 
L 313 1709 
L 2253 4666 
z
" id="DejaVuSans-34" transform="scale(0.015625)"/>
      <path d="M 628 4666 
L 1259 4666 
L 1259 325 
Q 1259 -519 939 -900 
Q 619 -1281 -91 -1281 
L -331 -1281 
L -331 -750 
L -134 -750 
Q 284 -750 456 -515 
Q 628 -281 628 325 
L 628 4666 
z
" id="DejaVuSans-4a" transform="scale(0.015625)"/>
      <path d="M 2059 -325 
Q 1816 -950 1584 -1140 
Q 1353 -1331 966 -1331 
L 506 -1331 
L 506 -850 
L 844 -850 
Q 1081 -850 1212 -737 
Q 1344 -625 1503 -206 
L 1606 56 
L 191 3500 
L 800 3500 
L 1894 763 
L 2988 3500 
L 3597 3500 
L 2059 -325 
z
" id="DejaVuSans-79" transform="scale(0.015625)"/>
      <path d="M 2034 4250 
Q 1547 4250 1301 3770 
Q 1056 3291 1056 2328 
Q 1056 1369 1301 889 
Q 1547 409 2034 409 
Q 2525 409 2770 889 
Q 3016 1369 3016 2328 
Q 3016 3291 2770 3770 
Q 2525 4250 2034 4250 
z
M 2034 4750 
Q 2819 4750 3233 4129 
Q 3647 3509 3647 2328 
Q 3647 1150 3233 529 
Q 2819 -91 2034 -91 
Q 1250 -91 836 529 
Q 422 1150 422 2328 
Q 422 3509 836 4129 
Q 1250 4750 2034 4750 
z
" id="DejaVuSans-30" transform="scale(0.015625)"/>
     </defs>
     <use xlink:href="#DejaVuSans-50"/>
     <use x="56.677734" xlink:href="#DejaVuSans-6f"/>
     <use x="117.859375" xlink:href="#DejaVuSans-73"/>
     <use x="169.958984" xlink:href="#DejaVuSans-69"/>
     <use x="197.742188" xlink:href="#DejaVuSans-74"/>
     <use x="236.951172" xlink:href="#DejaVuSans-69"/>
     <use x="264.734375" xlink:href="#DejaVuSans-76"/>
     <use x="323.914062" xlink:href="#DejaVuSans-65"/>
     <use x="385.4375" xlink:href="#DejaVuSans-20"/>
     <use x="417.224609" xlink:href="#DejaVuSans-43"/>
     <use x="487.048828" xlink:href="#DejaVuSans-4f"/>
     <use x="564.009766" xlink:href="#DejaVuSans-56"/>
     <use x="632.417969" xlink:href="#DejaVuSans-49"/>
     <use x="661.910156" xlink:href="#DejaVuSans-44"/>
     <use x="738.912109" xlink:href="#DejaVuSans-2d"/>
     <use x="774.996094" xlink:href="#DejaVuSans-31"/>
     <use x="838.619141" xlink:href="#DejaVuSans-39"/>
     <use x="902.242188" xlink:href="#DejaVuSans-20"/>
     <use x="934.029297" xlink:href="#DejaVuSans-74"/>
     <use x="973.238281" xlink:href="#DejaVuSans-65"/>
     <use x="1034.761719" xlink:href="#DejaVuSans-73"/>
     <use x="1086.861328" xlink:href="#DejaVuSans-74"/>
     <use x="1126.070312" xlink:href="#DejaVuSans-73"/>
     <use x="1178.169922" xlink:href="#DejaVuSans-20"/>
     <use x="1209.957031" xlink:href="#DejaVuSans-2d"/>
     <use x="1246.041016" xlink:href="#DejaVuSans-20"/>
     <use x="1277.828125" xlink:href="#DejaVuSans-6c"/>
     <use x="1305.611328" xlink:href="#DejaVuSans-61"/>
     <use x="1366.890625" xlink:href="#DejaVuSans-73"/>
     <use x="1418.990234" xlink:href="#DejaVuSans-74"/>
     <use x="1458.199219" xlink:href="#DejaVuSans-20"/>
     <use x="1489.986328" xlink:href="#DejaVuSans-75"/>
     <use x="1553.365234" xlink:href="#DejaVuSans-70"/>
     <use x="1616.841797" xlink:href="#DejaVuSans-64"/>
     <use x="1680.318359" xlink:href="#DejaVuSans-61"/>
     <use x="1741.597656" xlink:href="#DejaVuSans-74"/>
     <use x="1780.806641" xlink:href="#DejaVuSans-65"/>
     <use x="1842.330078" xlink:href="#DejaVuSans-64"/>
     <use x="1905.806641" xlink:href="#DejaVuSans-20"/>
     <use x="1937.59375" xlink:href="#DejaVuSans-6f"/>
     <use x="1998.775391" xlink:href="#DejaVuSans-6e"/>
     <use x="2062.154297" xlink:href="#DejaVuSans-20"/>
     <use x="2093.941406" xlink:href="#DejaVuSans-32"/>
     <use x="2157.564453" xlink:href="#DejaVuSans-34"/>
     <use x="2221.1875" xlink:href="#DejaVuSans-20"/>
     <use x="2252.974609" xlink:href="#DejaVuSans-4a"/>
     <use x="2282.466797" xlink:href="#DejaVuSans-75"/>
     <use x="2345.845703" xlink:href="#DejaVuSans-6c"/>
     <use x="2373.628906" xlink:href="#DejaVuSans-79"/>
     <use x="2432.808594" xlink:href="#DejaVuSans-20"/>
     <use x="2464.595703" xlink:href="#DejaVuSans-32"/>
     <use x="2528.21875" xlink:href="#DejaVuSans-30"/>
     <use x="2591.841797" xlink:href="#DejaVuSans-32"/>
     <use x="2655.464844" xlink:href="#DejaVuSans-31"/>
    </g>
   </g>
   <g id="legend_1">
    <g id="line2d_28">
     <path d="M 1015.497969 54.747969 
L 1041.497969 54.747969 
" style="fill:none;stroke:#000000;stroke-dasharray:1.5,2.475;stroke-dashoffset:0;stroke-opacity:0.5;stroke-width:1.5;"/>
    </g>
    <g id="line2d_29"/>
    <g id="text_28">
     <!-- Actual -->
     <g style="fill:#555555;" transform="translate(1051.897969 59.297969)scale(0.13 -0.13)">
      <use xlink:href="#DejaVuSans-Bold-41"/>
      <use x="77.392578" xlink:href="#DejaVuSans-Bold-63"/>
      <use x="136.669922" xlink:href="#DejaVuSans-Bold-74"/>
      <use x="184.472656" xlink:href="#DejaVuSans-Bold-75"/>
      <use x="255.664062" xlink:href="#DejaVuSans-Bold-61"/>
      <use x="323.144531" xlink:href="#DejaVuSans-Bold-6c"/>
     </g>
    </g>
    <g id="line2d_30">
     <path d="M 1015.497969 73.829531 
L 1041.497969 73.829531 
" style="fill:none;stroke:#000000;stroke-linecap:square;stroke-width:1.5;"/>
    </g>
    <g id="line2d_31"/>
    <g id="text_29">
     <!-- Smoothed -->
     <g style="fill:#555555;" transform="translate(1051.897969 78.379531)scale(0.13 -0.13)">
      <defs>
       <path d="M 3781 2919 
Q 3994 3244 4286 3414 
Q 4578 3584 4928 3584 
Q 5531 3584 5847 3212 
Q 6163 2841 6163 2131 
L 6163 0 
L 5038 0 
L 5038 1825 
Q 5041 1866 5042 1909 
Q 5044 1953 5044 2034 
Q 5044 2406 4934 2573 
Q 4825 2741 4581 2741 
Q 4263 2741 4089 2478 
Q 3916 2216 3909 1719 
L 3909 0 
L 2784 0 
L 2784 1825 
Q 2784 2406 2684 2573 
Q 2584 2741 2328 2741 
Q 2006 2741 1831 2477 
Q 1656 2213 1656 1722 
L 1656 0 
L 531 0 
L 531 3500 
L 1656 3500 
L 1656 2988 
Q 1863 3284 2130 3434 
Q 2397 3584 2719 3584 
Q 3081 3584 3359 3409 
Q 3638 3234 3781 2919 
z
" id="DejaVuSans-Bold-6d" transform="scale(0.015625)"/>
       <path d="M 4056 2131 
L 4056 0 
L 2931 0 
L 2931 347 
L 2931 1625 
Q 2931 2084 2911 2256 
Q 2891 2428 2841 2509 
Q 2775 2619 2662 2680 
Q 2550 2741 2406 2741 
Q 2056 2741 1856 2470 
Q 1656 2200 1656 1722 
L 1656 0 
L 538 0 
L 538 4863 
L 1656 4863 
L 1656 2988 
Q 1909 3294 2193 3439 
Q 2478 3584 2822 3584 
Q 3428 3584 3742 3212 
Q 4056 2841 4056 2131 
z
" id="DejaVuSans-Bold-68" transform="scale(0.015625)"/>
       <path d="M 2919 2988 
L 2919 4863 
L 4044 4863 
L 4044 0 
L 2919 0 
L 2919 506 
Q 2688 197 2409 53 
Q 2131 -91 1766 -91 
Q 1119 -91 703 423 
Q 288 938 288 1747 
Q 288 2556 703 3070 
Q 1119 3584 1766 3584 
Q 2128 3584 2408 3439 
Q 2688 3294 2919 2988 
z
M 2181 722 
Q 2541 722 2730 984 
Q 2919 1247 2919 1747 
Q 2919 2247 2730 2509 
Q 2541 2772 2181 2772 
Q 1825 2772 1636 2509 
Q 1447 2247 1447 1747 
Q 1447 1247 1636 984 
Q 1825 722 2181 722 
z
" id="DejaVuSans-Bold-64" transform="scale(0.015625)"/>
      </defs>
      <use xlink:href="#DejaVuSans-Bold-53"/>
      <use x="72.021484" xlink:href="#DejaVuSans-Bold-6d"/>
      <use x="176.220703" xlink:href="#DejaVuSans-Bold-6f"/>
      <use x="244.921875" xlink:href="#DejaVuSans-Bold-6f"/>
      <use x="313.623047" xlink:href="#DejaVuSans-Bold-74"/>
      <use x="361.425781" xlink:href="#DejaVuSans-Bold-68"/>
      <use x="432.617188" xlink:href="#DejaVuSans-Bold-65"/>
      <use x="500.439453" xlink:href="#DejaVuSans-Bold-64"/>
     </g>
    </g>
   </g>
  </g>
 </g>
 <defs>
  <clipPath id="p87642e12ae">
   <rect height="503.56" width="1050.01" x="87.95" y="37.72"/>
  </clipPath>
 </defs>
</svg>
