<?xml version="1.0" encoding="utf-8" standalone="no"?>
<!DOCTYPE svg PUBLIC "-//W3C//DTD SVG 1.1//EN"
  "http://www.w3.org/Graphics/SVG/1.1/DTD/svg11.dtd">
<svg height="576pt" version="1.1" viewBox="0 0 1152 576" width="1152pt" xmlns="http://www.w3.org/2000/svg" xmlns:xlink="http://www.w3.org/1999/xlink">
 <metadata>
  <rdf:RDF xmlns:cc="http://creativecommons.org/ns#" xmlns:dc="http://purl.org/dc/elements/1.1/" xmlns:rdf="http://www.w3.org/1999/02/22-rdf-syntax-ns#">
   <cc:Work>
    <dc:type rdf:resource="http://purl.org/dc/dcmitype/StillImage"/>
    <dc:date>2021-06-13T17:24:39.981753</dc:date>
    <dc:format>image/svg+xml</dc:format>
    <dc:creator>
     <cc:Agent>
      <dc:title>Matplotlib v3.4.2, https://matplotlib.org/</dc:title>
     </cc:Agent>
    </dc:creator>
   </cc:Work>
  </rdf:RDF>
 </metadata>
 <defs>
  <style type="text/css">*{stroke-linecap:butt;stroke-linejoin:round;}</style>
 </defs>
 <g id="figure_1">
  <g id="patch_1">
   <path d="M 0 576 
L 1152 576 
L 1152 0 
L 0 0 
z
" style="fill:#ffffff;"/>
  </g>
  <g id="axes_1">
   <g id="patch_2">
    <path d="M 87.95 541.28 
L 1137.110925 541.28 
L 1137.110925 37.72 
L 87.95 37.72 
z
" style="fill:#ffffff;"/>
   </g>
   <g id="matplotlib.axis_1">
    <g id="xtick_1">
     <g id="line2d_1">
      <defs>
       <path d="M 0 0 
L 0 3.5 
" id="md16907fb87" style="stroke:#555555;stroke-width:0.8;"/>
      </defs>
      <g>
       <use style="fill:#555555;stroke:#555555;stroke-width:0.8;" x="125.361303" xlink:href="#md16907fb87" y="541.28"/>
      </g>
     </g>
     <g id="text_1">
      <!-- Mar -->
      <g style="fill:#555555;" transform="translate(110.219428 558.917812)scale(0.14 -0.14)">
       <defs>
        <path d="M 588 4666 
L 2119 4666 
L 3181 2169 
L 4250 4666 
L 5778 4666 
L 5778 0 
L 4641 0 
L 4641 3413 
L 3566 897 
L 2803 897 
L 1728 3413 
L 1728 0 
L 588 0 
L 588 4666 
z
" id="DejaVuSans-Bold-4d" transform="scale(0.015625)"/>
        <path d="M 2106 1575 
Q 1756 1575 1579 1456 
Q 1403 1338 1403 1106 
Q 1403 894 1545 773 
Q 1688 653 1941 653 
Q 2256 653 2472 879 
Q 2688 1106 2688 1447 
L 2688 1575 
L 2106 1575 
z
M 3816 1997 
L 3816 0 
L 2688 0 
L 2688 519 
Q 2463 200 2181 54 
Q 1900 -91 1497 -91 
Q 953 -91 614 226 
Q 275 544 275 1050 
Q 275 1666 698 1953 
Q 1122 2241 2028 2241 
L 2688 2241 
L 2688 2328 
Q 2688 2594 2478 2717 
Q 2269 2841 1825 2841 
Q 1466 2841 1156 2769 
Q 847 2697 581 2553 
L 581 3406 
Q 941 3494 1303 3539 
Q 1666 3584 2028 3584 
Q 2975 3584 3395 3211 
Q 3816 2838 3816 1997 
z
" id="DejaVuSans-Bold-61" transform="scale(0.015625)"/>
        <path d="M 3138 2547 
Q 2991 2616 2845 2648 
Q 2700 2681 2553 2681 
Q 2122 2681 1889 2404 
Q 1656 2128 1656 1613 
L 1656 0 
L 538 0 
L 538 3500 
L 1656 3500 
L 1656 2925 
Q 1872 3269 2151 3426 
Q 2431 3584 2822 3584 
Q 2878 3584 2943 3579 
Q 3009 3575 3134 3559 
L 3138 2547 
z
" id="DejaVuSans-Bold-72" transform="scale(0.015625)"/>
       </defs>
       <use xlink:href="#DejaVuSans-Bold-4d"/>
       <use x="99.511719" xlink:href="#DejaVuSans-Bold-61"/>
       <use x="166.992188" xlink:href="#DejaVuSans-Bold-72"/>
      </g>
     </g>
    </g>
    <g id="xtick_2">
     <g id="line2d_2">
      <g>
       <use style="fill:#555555;stroke:#555555;stroke-width:0.8;" x="189.083851" xlink:href="#md16907fb87" y="541.28"/>
      </g>
     </g>
     <g id="text_2">
      <!-- Apr -->
      <g style="fill:#555555;" transform="translate(175.204163 558.917812)scale(0.14 -0.14)">
       <defs>
        <path d="M 3419 850 
L 1538 850 
L 1241 0 
L 31 0 
L 1759 4666 
L 3194 4666 
L 4922 0 
L 3713 0 
L 3419 850 
z
M 1838 1716 
L 3116 1716 
L 2478 3572 
L 1838 1716 
z
" id="DejaVuSans-Bold-41" transform="scale(0.015625)"/>
        <path d="M 1656 506 
L 1656 -1331 
L 538 -1331 
L 538 3500 
L 1656 3500 
L 1656 2988 
Q 1888 3294 2169 3439 
Q 2450 3584 2816 3584 
Q 3463 3584 3878 3070 
Q 4294 2556 4294 1747 
Q 4294 938 3878 423 
Q 3463 -91 2816 -91 
Q 2450 -91 2169 54 
Q 1888 200 1656 506 
z
M 2400 2772 
Q 2041 2772 1848 2508 
Q 1656 2244 1656 1747 
Q 1656 1250 1848 986 
Q 2041 722 2400 722 
Q 2759 722 2948 984 
Q 3138 1247 3138 1747 
Q 3138 2247 2948 2509 
Q 2759 2772 2400 2772 
z
" id="DejaVuSans-Bold-70" transform="scale(0.015625)"/>
       </defs>
       <use xlink:href="#DejaVuSans-Bold-41"/>
       <use x="77.392578" xlink:href="#DejaVuSans-Bold-70"/>
       <use x="148.974609" xlink:href="#DejaVuSans-Bold-72"/>
      </g>
     </g>
    </g>
    <g id="xtick_3">
     <g id="line2d_3">
      <g>
       <use style="fill:#555555;stroke:#555555;stroke-width:0.8;" x="250.750833" xlink:href="#md16907fb87" y="541.28"/>
      </g>
     </g>
     <g id="text_3">
      <!-- May -->
      <g style="fill:#555555;" transform="translate(234.716458 558.808437)scale(0.14 -0.14)">
       <defs>
        <path d="M 78 3500 
L 1197 3500 
L 2138 1125 
L 2938 3500 
L 4056 3500 
L 2584 -331 
Q 2363 -916 2067 -1148 
Q 1772 -1381 1288 -1381 
L 641 -1381 
L 641 -647 
L 991 -647 
Q 1275 -647 1404 -556 
Q 1534 -466 1606 -231 
L 1638 -134 
L 78 3500 
z
" id="DejaVuSans-Bold-79" transform="scale(0.015625)"/>
       </defs>
       <use xlink:href="#DejaVuSans-Bold-4d"/>
       <use x="99.511719" xlink:href="#DejaVuSans-Bold-61"/>
       <use x="163.867188" xlink:href="#DejaVuSans-Bold-79"/>
      </g>
     </g>
    </g>
    <g id="xtick_4">
     <g id="line2d_4">
      <g>
       <use style="fill:#555555;stroke:#555555;stroke-width:0.8;" x="314.473381" xlink:href="#md16907fb87" y="541.28"/>
      </g>
     </g>
     <g id="text_4">
      <!-- Jun -->
      <g style="fill:#555555;" transform="translate(301.902913 558.917812)scale(0.14 -0.14)">
       <defs>
        <path d="M 588 4666 
L 1791 4666 
L 1791 453 
Q 1791 -419 1317 -850 
Q 844 -1281 -116 -1281 
L -359 -1281 
L -359 -372 
L -172 -372 
Q 203 -372 395 -162 
Q 588 47 588 453 
L 588 4666 
z
" id="DejaVuSans-Bold-4a" transform="scale(0.015625)"/>
        <path d="M 500 1363 
L 500 3500 
L 1625 3500 
L 1625 3150 
Q 1625 2866 1622 2436 
Q 1619 2006 1619 1863 
Q 1619 1441 1641 1255 
Q 1663 1069 1716 984 
Q 1784 875 1895 815 
Q 2006 756 2150 756 
Q 2500 756 2700 1025 
Q 2900 1294 2900 1772 
L 2900 3500 
L 4019 3500 
L 4019 0 
L 2900 0 
L 2900 506 
Q 2647 200 2364 54 
Q 2081 -91 1741 -91 
Q 1134 -91 817 281 
Q 500 653 500 1363 
z
" id="DejaVuSans-Bold-75" transform="scale(0.015625)"/>
        <path d="M 4056 2131 
L 4056 0 
L 2931 0 
L 2931 347 
L 2931 1631 
Q 2931 2084 2911 2256 
Q 2891 2428 2841 2509 
Q 2775 2619 2662 2680 
Q 2550 2741 2406 2741 
Q 2056 2741 1856 2470 
Q 1656 2200 1656 1722 
L 1656 0 
L 538 0 
L 538 3500 
L 1656 3500 
L 1656 2988 
Q 1909 3294 2193 3439 
Q 2478 3584 2822 3584 
Q 3428 3584 3742 3212 
Q 4056 2841 4056 2131 
z
" id="DejaVuSans-Bold-6e" transform="scale(0.015625)"/>
       </defs>
       <use xlink:href="#DejaVuSans-Bold-4a"/>
       <use x="37.207031" xlink:href="#DejaVuSans-Bold-75"/>
       <use x="108.398438" xlink:href="#DejaVuSans-Bold-6e"/>
      </g>
     </g>
    </g>
    <g id="xtick_5">
     <g id="line2d_5">
      <g>
       <use style="fill:#555555;stroke:#555555;stroke-width:0.8;" x="376.140364" xlink:href="#md16907fb87" y="541.28"/>
      </g>
     </g>
     <g id="text_5">
      <!-- Jul -->
      <g style="fill:#555555;" transform="translate(366.153332 558.917812)scale(0.14 -0.14)">
       <defs>
        <path d="M 538 4863 
L 1656 4863 
L 1656 0 
L 538 0 
L 538 4863 
z
" id="DejaVuSans-Bold-6c" transform="scale(0.015625)"/>
       </defs>
       <use xlink:href="#DejaVuSans-Bold-4a"/>
       <use x="37.207031" xlink:href="#DejaVuSans-Bold-75"/>
       <use x="108.398438" xlink:href="#DejaVuSans-Bold-6c"/>
      </g>
     </g>
    </g>
    <g id="xtick_6">
     <g id="line2d_6">
      <g>
       <use style="fill:#555555;stroke:#555555;stroke-width:0.8;" x="439.862912" xlink:href="#md16907fb87" y="541.28"/>
      </g>
     </g>
     <g id="text_6">
      <!-- Aug -->
      <g style="fill:#555555;" transform="translate(424.451975 558.808437)scale(0.14 -0.14)">
       <defs>
        <path d="M 2919 594 
Q 2688 288 2409 144 
Q 2131 0 1766 0 
Q 1125 0 706 504 
Q 288 1009 288 1791 
Q 288 2575 706 3076 
Q 1125 3578 1766 3578 
Q 2131 3578 2409 3434 
Q 2688 3291 2919 2981 
L 2919 3500 
L 4044 3500 
L 4044 353 
Q 4044 -491 3511 -936 
Q 2978 -1381 1966 -1381 
Q 1638 -1381 1331 -1331 
Q 1025 -1281 716 -1178 
L 716 -306 
Q 1009 -475 1290 -558 
Q 1572 -641 1856 -641 
Q 2406 -641 2662 -400 
Q 2919 -159 2919 353 
L 2919 594 
z
M 2181 2772 
Q 1834 2772 1640 2515 
Q 1447 2259 1447 1791 
Q 1447 1309 1634 1061 
Q 1822 813 2181 813 
Q 2531 813 2725 1069 
Q 2919 1325 2919 1791 
Q 2919 2259 2725 2515 
Q 2531 2772 2181 2772 
z
" id="DejaVuSans-Bold-67" transform="scale(0.015625)"/>
       </defs>
       <use xlink:href="#DejaVuSans-Bold-41"/>
       <use x="77.392578" xlink:href="#DejaVuSans-Bold-75"/>
       <use x="148.583984" xlink:href="#DejaVuSans-Bold-67"/>
      </g>
     </g>
    </g>
    <g id="xtick_7">
     <g id="line2d_7">
      <g>
       <use style="fill:#555555;stroke:#555555;stroke-width:0.8;" x="503.58546" xlink:href="#md16907fb87" y="541.28"/>
      </g>
     </g>
     <g id="text_7">
      <!-- Sep -->
      <g style="fill:#555555;" transform="translate(488.785929 558.917812)scale(0.14 -0.14)">
       <defs>
        <path d="M 3834 4519 
L 3834 3531 
Q 3450 3703 3084 3790 
Q 2719 3878 2394 3878 
Q 1963 3878 1756 3759 
Q 1550 3641 1550 3391 
Q 1550 3203 1689 3098 
Q 1828 2994 2194 2919 
L 2706 2816 
Q 3484 2659 3812 2340 
Q 4141 2022 4141 1434 
Q 4141 663 3683 286 
Q 3225 -91 2284 -91 
Q 1841 -91 1394 -6 
Q 947 78 500 244 
L 500 1259 
Q 947 1022 1364 901 
Q 1781 781 2169 781 
Q 2563 781 2772 912 
Q 2981 1044 2981 1288 
Q 2981 1506 2839 1625 
Q 2697 1744 2272 1838 
L 1806 1941 
Q 1106 2091 782 2419 
Q 459 2747 459 3303 
Q 459 4000 909 4375 
Q 1359 4750 2203 4750 
Q 2588 4750 2994 4692 
Q 3400 4634 3834 4519 
z
" id="DejaVuSans-Bold-53" transform="scale(0.015625)"/>
        <path d="M 4031 1759 
L 4031 1441 
L 1416 1441 
Q 1456 1047 1700 850 
Q 1944 653 2381 653 
Q 2734 653 3104 758 
Q 3475 863 3866 1075 
L 3866 213 
Q 3469 63 3072 -14 
Q 2675 -91 2278 -91 
Q 1328 -91 801 392 
Q 275 875 275 1747 
Q 275 2603 792 3093 
Q 1309 3584 2216 3584 
Q 3041 3584 3536 3087 
Q 4031 2591 4031 1759 
z
M 2881 2131 
Q 2881 2450 2695 2645 
Q 2509 2841 2209 2841 
Q 1884 2841 1681 2658 
Q 1478 2475 1428 2131 
L 2881 2131 
z
" id="DejaVuSans-Bold-65" transform="scale(0.015625)"/>
       </defs>
       <use xlink:href="#DejaVuSans-Bold-53"/>
       <use x="72.021484" xlink:href="#DejaVuSans-Bold-65"/>
       <use x="139.84375" xlink:href="#DejaVuSans-Bold-70"/>
      </g>
     </g>
    </g>
    <g id="xtick_8">
     <g id="line2d_8">
      <g>
       <use style="fill:#555555;stroke:#555555;stroke-width:0.8;" x="565.252443" xlink:href="#md16907fb87" y="541.28"/>
      </g>
     </g>
     <g id="text_8">
      <!-- Oct -->
      <g style="fill:#555555;" transform="translate(551.80588 558.917812)scale(0.14 -0.14)">
       <defs>
        <path d="M 2719 3878 
Q 2169 3878 1866 3472 
Q 1563 3066 1563 2328 
Q 1563 1594 1866 1187 
Q 2169 781 2719 781 
Q 3272 781 3575 1187 
Q 3878 1594 3878 2328 
Q 3878 3066 3575 3472 
Q 3272 3878 2719 3878 
z
M 2719 4750 
Q 3844 4750 4481 4106 
Q 5119 3463 5119 2328 
Q 5119 1197 4481 553 
Q 3844 -91 2719 -91 
Q 1597 -91 958 553 
Q 319 1197 319 2328 
Q 319 3463 958 4106 
Q 1597 4750 2719 4750 
z
" id="DejaVuSans-Bold-4f" transform="scale(0.015625)"/>
        <path d="M 3366 3391 
L 3366 2478 
Q 3138 2634 2908 2709 
Q 2678 2784 2431 2784 
Q 1963 2784 1702 2511 
Q 1441 2238 1441 1747 
Q 1441 1256 1702 982 
Q 1963 709 2431 709 
Q 2694 709 2930 787 
Q 3166 866 3366 1019 
L 3366 103 
Q 3103 6 2833 -42 
Q 2563 -91 2291 -91 
Q 1344 -91 809 395 
Q 275 881 275 1747 
Q 275 2613 809 3098 
Q 1344 3584 2291 3584 
Q 2566 3584 2833 3536 
Q 3100 3488 3366 3391 
z
" id="DejaVuSans-Bold-63" transform="scale(0.015625)"/>
        <path d="M 1759 4494 
L 1759 3500 
L 2913 3500 
L 2913 2700 
L 1759 2700 
L 1759 1216 
Q 1759 972 1856 886 
Q 1953 800 2241 800 
L 2816 800 
L 2816 0 
L 1856 0 
Q 1194 0 917 276 
Q 641 553 641 1216 
L 641 2700 
L 84 2700 
L 84 3500 
L 641 3500 
L 641 4494 
L 1759 4494 
z
" id="DejaVuSans-Bold-74" transform="scale(0.015625)"/>
       </defs>
       <use xlink:href="#DejaVuSans-Bold-4f"/>
       <use x="85.009766" xlink:href="#DejaVuSans-Bold-63"/>
       <use x="144.287109" xlink:href="#DejaVuSans-Bold-74"/>
      </g>
     </g>
    </g>
    <g id="xtick_9">
     <g id="line2d_9">
      <g>
       <use style="fill:#555555;stroke:#555555;stroke-width:0.8;" x="628.974991" xlink:href="#md16907fb87" y="541.28"/>
      </g>
     </g>
     <g id="text_9">
      <!-- Nov -->
      <g style="fill:#555555;" transform="translate(613.744522 558.917812)scale(0.14 -0.14)">
       <defs>
        <path d="M 588 4666 
L 1931 4666 
L 3628 1466 
L 3628 4666 
L 4769 4666 
L 4769 0 
L 3425 0 
L 1728 3200 
L 1728 0 
L 588 0 
L 588 4666 
z
" id="DejaVuSans-Bold-4e" transform="scale(0.015625)"/>
        <path d="M 2203 2784 
Q 1831 2784 1636 2517 
Q 1441 2250 1441 1747 
Q 1441 1244 1636 976 
Q 1831 709 2203 709 
Q 2569 709 2762 976 
Q 2956 1244 2956 1747 
Q 2956 2250 2762 2517 
Q 2569 2784 2203 2784 
z
M 2203 3584 
Q 3106 3584 3614 3096 
Q 4122 2609 4122 1747 
Q 4122 884 3614 396 
Q 3106 -91 2203 -91 
Q 1297 -91 786 396 
Q 275 884 275 1747 
Q 275 2609 786 3096 
Q 1297 3584 2203 3584 
z
" id="DejaVuSans-Bold-6f" transform="scale(0.015625)"/>
        <path d="M 97 3500 
L 1216 3500 
L 2088 1081 
L 2956 3500 
L 4078 3500 
L 2700 0 
L 1472 0 
L 97 3500 
z
" id="DejaVuSans-Bold-76" transform="scale(0.015625)"/>
       </defs>
       <use xlink:href="#DejaVuSans-Bold-4e"/>
       <use x="83.691406" xlink:href="#DejaVuSans-Bold-6f"/>
       <use x="152.392578" xlink:href="#DejaVuSans-Bold-76"/>
      </g>
     </g>
    </g>
    <g id="xtick_10">
     <g id="line2d_10">
      <g>
       <use style="fill:#555555;stroke:#555555;stroke-width:0.8;" x="690.641973" xlink:href="#md16907fb87" y="541.28"/>
      </g>
     </g>
     <g id="text_10">
      <!-- Dec -->
      <g style="fill:#555555;" transform="translate(675.933223 558.917812)scale(0.14 -0.14)">
       <defs>
        <path d="M 1791 3756 
L 1791 909 
L 2222 909 
Q 2959 909 3348 1275 
Q 3738 1641 3738 2338 
Q 3738 3031 3350 3393 
Q 2963 3756 2222 3756 
L 1791 3756 
z
M 588 4666 
L 1856 4666 
Q 2919 4666 3439 4514 
Q 3959 4363 4331 4000 
Q 4659 3684 4818 3271 
Q 4978 2859 4978 2338 
Q 4978 1809 4818 1395 
Q 4659 981 4331 666 
Q 3956 303 3431 151 
Q 2906 0 1856 0 
L 588 0 
L 588 4666 
z
" id="DejaVuSans-Bold-44" transform="scale(0.015625)"/>
       </defs>
       <use xlink:href="#DejaVuSans-Bold-44"/>
       <use x="83.007812" xlink:href="#DejaVuSans-Bold-65"/>
       <use x="150.830078" xlink:href="#DejaVuSans-Bold-63"/>
      </g>
     </g>
    </g>
    <g id="xtick_11">
     <g id="line2d_11">
      <g>
       <use style="fill:#555555;stroke:#555555;stroke-width:0.8;" x="754.364522" xlink:href="#md16907fb87" y="541.28"/>
      </g>
     </g>
     <g id="text_11">
      <!-- Jan -->
      <g style="fill:#555555;" transform="translate(742.053272 558.917812)scale(0.14 -0.14)">
       <use xlink:href="#DejaVuSans-Bold-4a"/>
       <use x="37.207031" xlink:href="#DejaVuSans-Bold-61"/>
       <use x="104.6875" xlink:href="#DejaVuSans-Bold-6e"/>
      </g>
     </g>
    </g>
    <g id="xtick_12">
     <g id="line2d_12">
      <g>
       <use style="fill:#555555;stroke:#555555;stroke-width:0.8;" x="818.08707" xlink:href="#md16907fb87" y="541.28"/>
      </g>
     </g>
     <g id="text_12">
      <!-- Feb -->
      <g style="fill:#555555;" transform="translate(803.826757 558.917812)scale(0.14 -0.14)">
       <defs>
        <path d="M 588 4666 
L 3834 4666 
L 3834 3756 
L 1791 3756 
L 1791 2888 
L 3713 2888 
L 3713 1978 
L 1791 1978 
L 1791 0 
L 588 0 
L 588 4666 
z
" id="DejaVuSans-Bold-46" transform="scale(0.015625)"/>
        <path d="M 2400 722 
Q 2759 722 2948 984 
Q 3138 1247 3138 1747 
Q 3138 2247 2948 2509 
Q 2759 2772 2400 2772 
Q 2041 2772 1848 2508 
Q 1656 2244 1656 1747 
Q 1656 1250 1848 986 
Q 2041 722 2400 722 
z
M 1656 2988 
Q 1888 3294 2169 3439 
Q 2450 3584 2816 3584 
Q 3463 3584 3878 3070 
Q 4294 2556 4294 1747 
Q 4294 938 3878 423 
Q 3463 -91 2816 -91 
Q 2450 -91 2169 54 
Q 1888 200 1656 506 
L 1656 0 
L 538 0 
L 538 4863 
L 1656 4863 
L 1656 2988 
z
" id="DejaVuSans-Bold-62" transform="scale(0.015625)"/>
       </defs>
       <use xlink:href="#DejaVuSans-Bold-46"/>
       <use x="64.310547" xlink:href="#DejaVuSans-Bold-65"/>
       <use x="132.132812" xlink:href="#DejaVuSans-Bold-62"/>
      </g>
     </g>
    </g>
    <g id="xtick_13">
     <g id="line2d_13">
      <g>
       <use style="fill:#555555;stroke:#555555;stroke-width:0.8;" x="875.64292" xlink:href="#md16907fb87" y="541.28"/>
      </g>
     </g>
     <g id="text_13">
      <!-- Mar -->
      <g style="fill:#555555;" transform="translate(860.501045 558.917812)scale(0.14 -0.14)">
       <use xlink:href="#DejaVuSans-Bold-4d"/>
       <use x="99.511719" xlink:href="#DejaVuSans-Bold-61"/>
       <use x="166.992188" xlink:href="#DejaVuSans-Bold-72"/>
      </g>
     </g>
    </g>
    <g id="xtick_14">
     <g id="line2d_14">
      <g>
       <use style="fill:#555555;stroke:#555555;stroke-width:0.8;" x="939.365468" xlink:href="#md16907fb87" y="541.28"/>
      </g>
     </g>
     <g id="text_14">
      <!-- Apr -->
      <g style="fill:#555555;" transform="translate(925.485781 558.917812)scale(0.14 -0.14)">
       <use xlink:href="#DejaVuSans-Bold-41"/>
       <use x="77.392578" xlink:href="#DejaVuSans-Bold-70"/>
       <use x="148.974609" xlink:href="#DejaVuSans-Bold-72"/>
      </g>
     </g>
    </g>
    <g id="xtick_15">
     <g id="line2d_15">
      <g>
       <use style="fill:#555555;stroke:#555555;stroke-width:0.8;" x="1001.032451" xlink:href="#md16907fb87" y="541.28"/>
      </g>
     </g>
     <g id="text_15">
      <!-- May -->
      <g style="fill:#555555;" transform="translate(984.998076 558.808437)scale(0.14 -0.14)">
       <use xlink:href="#DejaVuSans-Bold-4d"/>
       <use x="99.511719" xlink:href="#DejaVuSans-Bold-61"/>
       <use x="163.867188" xlink:href="#DejaVuSans-Bold-79"/>
      </g>
     </g>
    </g>
    <g id="xtick_16">
     <g id="line2d_16">
      <g>
       <use style="fill:#555555;stroke:#555555;stroke-width:0.8;" x="1064.754999" xlink:href="#md16907fb87" y="541.28"/>
      </g>
     </g>
     <g id="text_16">
      <!-- Jun -->
      <g style="fill:#555555;" transform="translate(1052.18453 558.917812)scale(0.14 -0.14)">
       <use xlink:href="#DejaVuSans-Bold-4a"/>
       <use x="37.207031" xlink:href="#DejaVuSans-Bold-75"/>
       <use x="108.398438" xlink:href="#DejaVuSans-Bold-6e"/>
      </g>
     </g>
    </g>
    <g id="xtick_17">
     <g id="line2d_17">
      <g>
       <use style="fill:#555555;stroke:#555555;stroke-width:0.8;" x="1126.421981" xlink:href="#md16907fb87" y="541.28"/>
      </g>
     </g>
     <g id="text_17">
      <!-- Jul -->
      <g style="fill:#555555;" transform="translate(1116.43495 558.917812)scale(0.14 -0.14)">
       <use xlink:href="#DejaVuSans-Bold-4a"/>
       <use x="37.207031" xlink:href="#DejaVuSans-Bold-75"/>
       <use x="108.398438" xlink:href="#DejaVuSans-Bold-6c"/>
      </g>
     </g>
    </g>
   </g>
   <g id="matplotlib.axis_2">
    <g id="ytick_1">
     <g id="line2d_18">
      <defs>
       <path d="M 0 0 
L -3.5 0 
" id="m70ab5e827c" style="stroke:#555555;stroke-width:0.8;"/>
      </defs>
      <g>
       <use style="fill:#555555;stroke:#555555;stroke-width:0.8;" x="87.95" xlink:href="#m70ab5e827c" y="519.485405"/>
      </g>
     </g>
     <g id="text_18">
      <!-- 0 -->
      <g style="fill:#555555;" transform="translate(71.209063 524.804311)scale(0.14 -0.14)">
       <defs>
        <path d="M 2944 2338 
Q 2944 3213 2780 3570 
Q 2616 3928 2228 3928 
Q 1841 3928 1675 3570 
Q 1509 3213 1509 2338 
Q 1509 1453 1675 1090 
Q 1841 728 2228 728 
Q 2613 728 2778 1090 
Q 2944 1453 2944 2338 
z
M 4147 2328 
Q 4147 1169 3647 539 
Q 3147 -91 2228 -91 
Q 1306 -91 806 539 
Q 306 1169 306 2328 
Q 306 3491 806 4120 
Q 1306 4750 2228 4750 
Q 3147 4750 3647 4120 
Q 4147 3491 4147 2328 
z
" id="DejaVuSans-Bold-30" transform="scale(0.015625)"/>
       </defs>
       <use xlink:href="#DejaVuSans-Bold-30"/>
      </g>
     </g>
    </g>
    <g id="ytick_2">
     <g id="line2d_19">
      <g>
       <use style="fill:#555555;stroke:#555555;stroke-width:0.8;" x="87.95" xlink:href="#m70ab5e827c" y="448.872754"/>
      </g>
     </g>
     <g id="text_19">
      <!-- 2000 -->
      <g style="fill:#555555;" transform="translate(41.98625 454.19166)scale(0.14 -0.14)">
       <defs>
        <path d="M 1844 884 
L 3897 884 
L 3897 0 
L 506 0 
L 506 884 
L 2209 2388 
Q 2438 2594 2547 2791 
Q 2656 2988 2656 3200 
Q 2656 3528 2436 3728 
Q 2216 3928 1850 3928 
Q 1569 3928 1234 3808 
Q 900 3688 519 3450 
L 519 4475 
Q 925 4609 1322 4679 
Q 1719 4750 2100 4750 
Q 2938 4750 3402 4381 
Q 3866 4013 3866 3353 
Q 3866 2972 3669 2642 
Q 3472 2313 2841 1759 
L 1844 884 
z
" id="DejaVuSans-Bold-32" transform="scale(0.015625)"/>
       </defs>
       <use xlink:href="#DejaVuSans-Bold-32"/>
       <use x="69.580078" xlink:href="#DejaVuSans-Bold-30"/>
       <use x="139.160156" xlink:href="#DejaVuSans-Bold-30"/>
       <use x="208.740234" xlink:href="#DejaVuSans-Bold-30"/>
      </g>
     </g>
    </g>
    <g id="ytick_3">
     <g id="line2d_20">
      <g>
       <use style="fill:#555555;stroke:#555555;stroke-width:0.8;" x="87.95" xlink:href="#m70ab5e827c" y="378.260103"/>
      </g>
     </g>
     <g id="text_20">
      <!-- 4000 -->
      <g style="fill:#555555;" transform="translate(41.98625 383.579009)scale(0.14 -0.14)">
       <defs>
        <path d="M 2356 3675 
L 1038 1722 
L 2356 1722 
L 2356 3675 
z
M 2156 4666 
L 3494 4666 
L 3494 1722 
L 4159 1722 
L 4159 850 
L 3494 850 
L 3494 0 
L 2356 0 
L 2356 850 
L 288 850 
L 288 1881 
L 2156 4666 
z
" id="DejaVuSans-Bold-34" transform="scale(0.015625)"/>
       </defs>
       <use xlink:href="#DejaVuSans-Bold-34"/>
       <use x="69.580078" xlink:href="#DejaVuSans-Bold-30"/>
       <use x="139.160156" xlink:href="#DejaVuSans-Bold-30"/>
       <use x="208.740234" xlink:href="#DejaVuSans-Bold-30"/>
      </g>
     </g>
    </g>
    <g id="ytick_4">
     <g id="line2d_21">
      <g>
       <use style="fill:#555555;stroke:#555555;stroke-width:0.8;" x="87.95" xlink:href="#m70ab5e827c" y="307.647451"/>
      </g>
     </g>
     <g id="text_21">
      <!-- 6000 -->
      <g style="fill:#555555;" transform="translate(41.98625 312.966358)scale(0.14 -0.14)">
       <defs>
        <path d="M 2316 2303 
Q 2000 2303 1842 2098 
Q 1684 1894 1684 1484 
Q 1684 1075 1842 870 
Q 2000 666 2316 666 
Q 2634 666 2792 870 
Q 2950 1075 2950 1484 
Q 2950 1894 2792 2098 
Q 2634 2303 2316 2303 
z
M 3803 4544 
L 3803 3681 
Q 3506 3822 3243 3889 
Q 2981 3956 2731 3956 
Q 2194 3956 1894 3657 
Q 1594 3359 1544 2772 
Q 1750 2925 1990 3001 
Q 2231 3078 2516 3078 
Q 3231 3078 3670 2659 
Q 4109 2241 4109 1563 
Q 4109 813 3618 361 
Q 3128 -91 2303 -91 
Q 1394 -91 895 523 
Q 397 1138 397 2266 
Q 397 3422 980 4083 
Q 1563 4744 2578 4744 
Q 2900 4744 3203 4694 
Q 3506 4644 3803 4544 
z
" id="DejaVuSans-Bold-36" transform="scale(0.015625)"/>
       </defs>
       <use xlink:href="#DejaVuSans-Bold-36"/>
       <use x="69.580078" xlink:href="#DejaVuSans-Bold-30"/>
       <use x="139.160156" xlink:href="#DejaVuSans-Bold-30"/>
       <use x="208.740234" xlink:href="#DejaVuSans-Bold-30"/>
      </g>
     </g>
    </g>
    <g id="ytick_5">
     <g id="line2d_22">
      <g>
       <use style="fill:#555555;stroke:#555555;stroke-width:0.8;" x="87.95" xlink:href="#m70ab5e827c" y="237.0348"/>
      </g>
     </g>
     <g id="text_22">
      <!-- 8000 -->
      <g style="fill:#555555;" transform="translate(41.98625 242.353706)scale(0.14 -0.14)">
       <defs>
        <path d="M 2228 2088 
Q 1891 2088 1709 1903 
Q 1528 1719 1528 1375 
Q 1528 1031 1709 848 
Q 1891 666 2228 666 
Q 2563 666 2741 848 
Q 2919 1031 2919 1375 
Q 2919 1722 2741 1905 
Q 2563 2088 2228 2088 
z
M 1350 2484 
Q 925 2613 709 2878 
Q 494 3144 494 3541 
Q 494 4131 934 4440 
Q 1375 4750 2228 4750 
Q 3075 4750 3515 4442 
Q 3956 4134 3956 3541 
Q 3956 3144 3739 2878 
Q 3522 2613 3097 2484 
Q 3572 2353 3814 2058 
Q 4056 1763 4056 1313 
Q 4056 619 3595 264 
Q 3134 -91 2228 -91 
Q 1319 -91 855 264 
Q 391 619 391 1313 
Q 391 1763 633 2058 
Q 875 2353 1350 2484 
z
M 1631 3419 
Q 1631 3141 1786 2991 
Q 1941 2841 2228 2841 
Q 2509 2841 2662 2991 
Q 2816 3141 2816 3419 
Q 2816 3697 2662 3845 
Q 2509 3994 2228 3994 
Q 1941 3994 1786 3844 
Q 1631 3694 1631 3419 
z
" id="DejaVuSans-Bold-38" transform="scale(0.015625)"/>
       </defs>
       <use xlink:href="#DejaVuSans-Bold-38"/>
       <use x="69.580078" xlink:href="#DejaVuSans-Bold-30"/>
       <use x="139.160156" xlink:href="#DejaVuSans-Bold-30"/>
       <use x="208.740234" xlink:href="#DejaVuSans-Bold-30"/>
      </g>
     </g>
    </g>
    <g id="ytick_6">
     <g id="line2d_23">
      <g>
       <use style="fill:#555555;stroke:#555555;stroke-width:0.8;" x="87.95" xlink:href="#m70ab5e827c" y="166.422149"/>
      </g>
     </g>
     <g id="text_23">
      <!-- 10000 -->
      <g style="fill:#555555;" transform="translate(32.245313 171.741055)scale(0.14 -0.14)">
       <defs>
        <path d="M 750 831 
L 1813 831 
L 1813 3847 
L 722 3622 
L 722 4441 
L 1806 4666 
L 2950 4666 
L 2950 831 
L 4013 831 
L 4013 0 
L 750 0 
L 750 831 
z
" id="DejaVuSans-Bold-31" transform="scale(0.015625)"/>
       </defs>
       <use xlink:href="#DejaVuSans-Bold-31"/>
       <use x="69.580078" xlink:href="#DejaVuSans-Bold-30"/>
       <use x="139.160156" xlink:href="#DejaVuSans-Bold-30"/>
       <use x="208.740234" xlink:href="#DejaVuSans-Bold-30"/>
       <use x="278.320312" xlink:href="#DejaVuSans-Bold-30"/>
      </g>
     </g>
    </g>
    <g id="ytick_7">
     <g id="line2d_24">
      <g>
       <use style="fill:#555555;stroke:#555555;stroke-width:0.8;" x="87.95" xlink:href="#m70ab5e827c" y="95.809498"/>
      </g>
     </g>
     <g id="text_24">
      <!-- 12000 -->
      <g style="fill:#555555;" transform="translate(32.245313 101.128404)scale(0.14 -0.14)">
       <use xlink:href="#DejaVuSans-Bold-31"/>
       <use x="69.580078" xlink:href="#DejaVuSans-Bold-32"/>
       <use x="139.160156" xlink:href="#DejaVuSans-Bold-30"/>
       <use x="208.740234" xlink:href="#DejaVuSans-Bold-30"/>
       <use x="278.320312" xlink:href="#DejaVuSans-Bold-30"/>
      </g>
     </g>
    </g>
    <g id="text_25">
     <!-- New Cases -->
     <g style="fill:#555555;" transform="translate(24.917813 333.23875)rotate(-90)scale(0.16 -0.16)">
      <defs>
       <path d="M 628 4666 
L 1478 4666 
L 3547 763 
L 3547 4666 
L 4159 4666 
L 4159 0 
L 3309 0 
L 1241 3903 
L 1241 0 
L 628 0 
L 628 4666 
z
" id="DejaVuSans-4e" transform="scale(0.015625)"/>
       <path d="M 3597 1894 
L 3597 1613 
L 953 1613 
Q 991 1019 1311 708 
Q 1631 397 2203 397 
Q 2534 397 2845 478 
Q 3156 559 3463 722 
L 3463 178 
Q 3153 47 2828 -22 
Q 2503 -91 2169 -91 
Q 1331 -91 842 396 
Q 353 884 353 1716 
Q 353 2575 817 3079 
Q 1281 3584 2069 3584 
Q 2775 3584 3186 3129 
Q 3597 2675 3597 1894 
z
M 3022 2063 
Q 3016 2534 2758 2815 
Q 2500 3097 2075 3097 
Q 1594 3097 1305 2825 
Q 1016 2553 972 2059 
L 3022 2063 
z
" id="DejaVuSans-65" transform="scale(0.015625)"/>
       <path d="M 269 3500 
L 844 3500 
L 1563 769 
L 2278 3500 
L 2956 3500 
L 3675 769 
L 4391 3500 
L 4966 3500 
L 4050 0 
L 3372 0 
L 2619 2869 
L 1863 0 
L 1184 0 
L 269 3500 
z
" id="DejaVuSans-77" transform="scale(0.015625)"/>
       <path id="DejaVuSans-20" transform="scale(0.015625)"/>
       <path d="M 4122 4306 
L 4122 3641 
Q 3803 3938 3442 4084 
Q 3081 4231 2675 4231 
Q 1875 4231 1450 3742 
Q 1025 3253 1025 2328 
Q 1025 1406 1450 917 
Q 1875 428 2675 428 
Q 3081 428 3442 575 
Q 3803 722 4122 1019 
L 4122 359 
Q 3791 134 3420 21 
Q 3050 -91 2638 -91 
Q 1578 -91 968 557 
Q 359 1206 359 2328 
Q 359 3453 968 4101 
Q 1578 4750 2638 4750 
Q 3056 4750 3426 4639 
Q 3797 4528 4122 4306 
z
" id="DejaVuSans-43" transform="scale(0.015625)"/>
       <path d="M 2194 1759 
Q 1497 1759 1228 1600 
Q 959 1441 959 1056 
Q 959 750 1161 570 
Q 1363 391 1709 391 
Q 2188 391 2477 730 
Q 2766 1069 2766 1631 
L 2766 1759 
L 2194 1759 
z
M 3341 1997 
L 3341 0 
L 2766 0 
L 2766 531 
Q 2569 213 2275 61 
Q 1981 -91 1556 -91 
Q 1019 -91 701 211 
Q 384 513 384 1019 
Q 384 1609 779 1909 
Q 1175 2209 1959 2209 
L 2766 2209 
L 2766 2266 
Q 2766 2663 2505 2880 
Q 2244 3097 1772 3097 
Q 1472 3097 1187 3025 
Q 903 2953 641 2809 
L 641 3341 
Q 956 3463 1253 3523 
Q 1550 3584 1831 3584 
Q 2591 3584 2966 3190 
Q 3341 2797 3341 1997 
z
" id="DejaVuSans-61" transform="scale(0.015625)"/>
       <path d="M 2834 3397 
L 2834 2853 
Q 2591 2978 2328 3040 
Q 2066 3103 1784 3103 
Q 1356 3103 1142 2972 
Q 928 2841 928 2578 
Q 928 2378 1081 2264 
Q 1234 2150 1697 2047 
L 1894 2003 
Q 2506 1872 2764 1633 
Q 3022 1394 3022 966 
Q 3022 478 2636 193 
Q 2250 -91 1575 -91 
Q 1294 -91 989 -36 
Q 684 19 347 128 
L 347 722 
Q 666 556 975 473 
Q 1284 391 1588 391 
Q 1994 391 2212 530 
Q 2431 669 2431 922 
Q 2431 1156 2273 1281 
Q 2116 1406 1581 1522 
L 1381 1569 
Q 847 1681 609 1914 
Q 372 2147 372 2553 
Q 372 3047 722 3315 
Q 1072 3584 1716 3584 
Q 2034 3584 2315 3537 
Q 2597 3491 2834 3397 
z
" id="DejaVuSans-73" transform="scale(0.015625)"/>
      </defs>
      <use xlink:href="#DejaVuSans-4e"/>
      <use x="74.804688" xlink:href="#DejaVuSans-65"/>
      <use x="136.328125" xlink:href="#DejaVuSans-77"/>
      <use x="218.115234" xlink:href="#DejaVuSans-20"/>
      <use x="249.902344" xlink:href="#DejaVuSans-43"/>
      <use x="319.726562" xlink:href="#DejaVuSans-61"/>
      <use x="381.005859" xlink:href="#DejaVuSans-73"/>
      <use x="433.105469" xlink:href="#DejaVuSans-65"/>
      <use x="494.628906" xlink:href="#DejaVuSans-73"/>
     </g>
    </g>
   </g>
   <g id="line2d_25">
    <path clip-path="url(#p8efbb23940)" d="M 135.639133 518.073152 
L 137.694699 517.720089 
L 139.750265 518.355603 
L 141.805831 517.331719 
L 143.861397 514.895583 
L 145.916963 515.142727 
L 147.972529 515.001502 
L 150.028095 515.49579 
L 152.083662 511.75332 
L 154.139228 513.377411 
L 156.194794 509.952697 
L 158.25036 509.317183 
L 160.305926 507.23411 
L 162.361492 505.5041 
L 164.417058 500.667134 
L 166.472624 496.995276 
L 168.52819 498.125078 
L 170.583756 499.961007 
L 172.639322 493.040967 
L 174.694888 489.722173 
L 178.806021 478.282923 
L 180.861587 479.024356 
L 182.917153 480.930898 
L 184.972719 488.662983 
L 187.028285 490.03993 
L 189.083851 483.896629 
L 191.139417 481.248655 
L 193.194983 483.472953 
L 195.250549 484.108467 
L 197.306115 480.683753 
L 199.361681 486.120927 
L 201.417247 491.875859 
L 203.472813 485.626639 
L 205.528379 476.835364 
L 207.583946 472.633911 
L 209.639512 473.551876 
L 211.695078 478.141698 
L 213.750644 485.626639 
L 215.80621 489.051352 
L 217.861776 493.711787 
L 219.917342 481.742943 
L 221.972908 475.917399 
L 224.028474 477.612103 
L 226.08404 483.367034 
L 228.139606 493.076274 
L 230.195172 494.206076 
L 232.250738 494.488527 
L 234.306305 488.627677 
L 236.361871 491.063813 
L 238.417437 496.642212 
L 240.473003 496.500987 
L 242.528569 505.186343 
L 244.584135 512.671284 
L 246.639701 505.786551 
L 248.695267 501.585098 
L 250.750833 502.608982 
L 252.806399 504.056541 
L 254.861965 507.551867 
L 256.917531 512.388834 
L 258.973097 508.222687 
L 261.028664 508.222687 
L 263.08423 506.739822 
L 265.139796 508.222687 
L 267.195362 509.317183 
L 269.250928 510.941274 
L 271.306494 513.165573 
L 273.36206 512.600672 
L 275.417626 511.612095 
L 277.473192 509.811472 
L 279.528758 512.353527 
L 281.584324 512.635978 
L 283.63989 515.072114 
L 285.695456 514.260069 
L 287.751023 515.566403 
L 289.806589 512.883122 
L 291.862155 510.517598 
L 293.917721 512.989041 
L 298.028853 513.377411 
L 300.084419 511.965158 
L 302.139985 514.930889 
L 304.195551 512.635978 
L 306.251117 513.200879 
L 308.306683 513.200879 
L 310.362249 514.507213 
L 312.417815 513.271492 
L 314.473381 515.813547 
L 316.528948 516.131304 
L 318.584514 516.201917 
L 320.64008 512.847816 
L 322.695646 511.823933 
L 324.751212 512.777203 
L 326.806778 511.047193 
L 328.862344 513.624555 
L 330.91791 513.695168 
L 332.973476 513.09496 
L 335.029042 513.76578 
L 337.084608 512.176996 
L 339.140174 513.09496 
L 341.19574 514.401294 
L 343.251307 513.871699 
L 345.306873 514.754358 
L 347.362439 515.49579 
L 349.418005 515.107421 
L 353.529137 516.307836 
L 355.584703 516.131304 
L 357.640269 517.084575 
L 359.695835 517.013962 
L 361.751401 516.660899 
L 363.806967 515.601709 
L 367.918099 516.766818 
L 369.973666 517.155188 
L 372.029232 516.802124 
L 374.084798 517.472945 
L 376.140364 517.296413 
L 378.19593 516.837431 
L 380.251496 516.802124 
L 382.307062 517.190494 
L 384.362628 516.94335 
L 386.418194 518.037846 
L 388.47376 518.28499 
L 390.529326 517.472945 
L 394.640458 517.190494 
L 396.696024 516.519674 
L 398.751591 516.131304 
L 400.807157 516.94335 
L 402.862723 516.025385 
L 406.973855 515.283952 
L 409.029421 515.637016 
L 411.084987 514.365988 
L 413.140553 514.365988 
L 415.196119 513.024348 
L 417.251685 513.518636 
L 419.307251 513.48333 
L 423.418383 514.012925 
L 427.529516 511.965158 
L 429.585082 512.106383 
L 431.640648 511.576788 
L 433.696214 510.729436 
L 435.75178 507.445948 
L 437.807346 507.445948 
L 439.862912 504.268379 
L 441.918478 506.810434 
L 443.974044 506.351452 
L 446.02961 502.291225 
L 448.085176 504.374298 
L 450.140742 498.125078 
L 452.196309 501.232035 
L 454.251875 502.397144 
L 456.307441 499.113655 
L 458.363007 491.699327 
L 460.418573 497.595483 
L 462.474139 496.500987 
L 464.529705 499.148962 
L 466.585271 497.348339 
L 468.640837 496.324456 
L 470.696403 501.867549 
L 472.751969 502.326531 
L 474.807535 502.079387 
L 476.863101 499.961007 
L 478.918667 500.737746 
L 480.974234 500.667134 
L 483.0298 501.585098 
L 485.085366 503.421027 
L 487.140932 499.254881 
L 489.196498 504.797974 
L 491.252064 499.290187 
L 493.30763 501.549792 
L 495.363196 501.796936 
L 499.474328 501.620404 
L 501.529894 500.914278 
L 503.58546 502.997351 
L 505.641026 494.064851 
L 507.696593 498.336916 
L 509.752159 493.252805 
L 511.807725 496.5716 
L 513.863291 487.003586 
L 515.918857 491.416876 
L 520.029989 479.236194 
L 522.085555 489.934011 
L 524.141121 474.611065 
L 526.196687 476.341075 
L 528.252253 481.107429 
L 530.307819 473.693101 
L 532.363385 470.903901 
L 534.418952 465.219583 
L 536.474518 458.087705 
L 538.530084 450.390926 
L 540.58565 452.685837 
L 542.641216 454.380541 
L 544.696782 441.387813 
L 546.752348 440.505155 
L 548.807914 437.080441 
L 550.86348 429.948563 
L 552.919046 421.898721 
L 554.974612 424.158326 
L 557.030178 414.41378 
L 559.085744 417.026448 
L 561.141311 413.425203 
L 563.196877 403.468819 
L 565.252443 404.633928 
L 567.308009 385.180142 
L 569.363575 380.555014 
L 571.419141 378.86031 
L 573.474707 358.665092 
L 575.530273 359.900813 
L 577.585839 343.907048 
L 579.641405 315.273618 
L 581.696971 309.024398 
L 583.752537 290.771028 
L 585.808103 295.572688 
L 587.863669 279.296472 
L 589.919236 260.548813 
L 591.974802 263.443932 
L 594.030368 244.872804 
L 596.085934 238.76481 
L 598.1415 233.29233 
L 600.197066 231.809464 
L 602.252632 237.529089 
L 604.308198 231.950689 
L 606.363764 211.790777 
L 608.41933 192.866587 
L 610.474896 167.340113 
L 612.530462 214.368139 
L 614.586028 160.490686 
L 616.641595 155.724332 
L 618.697161 156.99536 
L 620.752727 234.316213 
L 622.808293 157.701486 
L 624.863859 128.750299 
L 626.919425 174.471991 
L 628.974991 213.061805 
L 631.030557 227.678624 
L 633.086123 246.285057 
L 635.141689 251.15733 
L 637.197255 274.247667 
L 639.252821 264.32659 
L 641.308387 285.898755 
L 645.41952 354.604864 
L 647.475086 355.522829 
L 649.530652 329.431454 
L 651.586218 321.099161 
L 653.641784 305.246621 
L 655.69735 311.248697 
L 657.752916 328.195733 
L 661.864048 368.339025 
L 663.919614 357.570596 
L 665.97518 318.698331 
L 668.030746 310.048282 
L 670.086312 307.506226 
L 672.141879 330.314112 
L 674.197445 336.563332 
L 676.253011 380.131338 
L 678.308577 346.131346 
L 680.364143 361.736742 
L 682.419709 316.40342 
L 684.475275 361.842661 
L 686.530841 323.005703 
L 688.586407 358.064884 
L 690.641973 376.918462 
L 692.697539 346.201959 
L 694.753105 321.98182 
L 696.808671 311.495841 
L 698.864238 288.970405 
L 700.919804 280.779338 
L 702.97537 269.022331 
L 705.030936 303.445999 
L 707.086502 288.44081 
L 709.142068 212.002615 
L 711.197634 207.483406 
L 713.2532 197.421103 
L 715.308766 170.729521 
L 717.364332 220.758584 
L 719.419898 285.36916 
L 721.475464 125.254973 
L 723.53103 68.341176 
L 725.586597 97.32767 
L 727.642163 87.900881 
L 729.697729 60.609091 
L 731.753295 125.608036 
L 733.808861 172.706675 
L 735.864427 152.546763 
L 737.919993 113.674498 
L 739.975559 113.639192 
L 742.031125 172.953819 
L 744.086691 201.551943 
L 746.142257 258.289208 
L 748.197823 253.981836 
L 750.253389 185.875934 
L 752.308955 178.249768 
L 754.364522 231.068031 
L 756.420088 216.239374 
L 758.475654 258.359821 
L 760.53122 285.333854 
L 762.586786 294.584111 
L 764.642352 269.163556 
L 766.697918 177.755479 
L 768.753484 233.080492 
L 770.80905 260.690038 
L 772.864616 286.322431 
L 774.920182 327.136543 
L 776.975748 345.001544 
L 779.031314 304.399269 
L 781.086881 290.029595 
L 783.142447 306.729487 
L 785.198013 332.538411 
L 787.253579 322.405495 
L 789.309145 350.579943 
L 791.364711 367.844737 
L 793.420277 322.864478 
L 795.475843 314.532185 
L 797.531409 316.579952 
L 799.586975 327.207156 
L 801.642541 347.15523 
L 803.698107 375.11784 
L 805.753673 379.707662 
L 807.80924 352.663017 
L 809.864806 353.828125 
L 811.920372 364.208185 
L 813.975938 372.187415 
L 816.031504 389.62874 
L 818.08707 405.163523 
L 820.142636 394.218562 
L 822.198202 377.624589 
L 824.253768 371.198838 
L 826.309334 366.997385 
L 828.3649 375.11784 
L 830.420466 381.155221 
L 832.476032 439.763722 
L 834.531599 457.381578 
L 836.587165 407.458434 
L 838.642731 363.184302 
L 840.698297 366.679628 
L 842.753863 372.187415 
L 844.809429 398.490627 
L 846.864995 419.144828 
L 848.920561 424.511389 
L 850.976127 400.5737 
L 853.031693 358.523867 
L 855.087259 354.393027 
L 857.142825 359.229993 
L 859.198391 354.640171 
L 861.253957 371.94027 
L 863.309524 385.003611 
L 865.36509 365.232068 
L 867.420656 343.448066 
L 869.476222 339.811514 
L 871.531788 345.70767 
L 873.587354 355.840586 
L 875.64292 387.12199 
L 877.698486 379.495824 
L 879.754052 342.141732 
L 881.809618 374.976614 
L 883.865184 354.887315 
L 885.92075 331.938203 
L 887.976316 360.324489 
L 890.031883 382.32033 
L 892.087449 368.162494 
L 894.143015 333.809439 
L 896.198581 332.467798 
L 898.254147 308.53011 
L 900.309713 294.336967 
L 902.365279 309.306849 
L 904.420845 325.230002 
L 906.476411 345.001544 
L 908.531977 310.860327 
L 910.587543 302.95171 
L 912.643109 260.054524 
L 914.698675 251.086718 
L 916.754242 273.400316 
L 920.865374 321.487531 
L 922.92094 252.710809 
L 924.976506 247.979761 
L 927.032072 252.60489 
L 929.087638 209.425253 
L 931.143204 255.747153 
L 933.19877 280.073211 
L 935.254336 312.766869 
L 937.309902 250.133447 
L 939.365468 243.425245 
L 941.421034 264.750266 
L 943.4766 251.192637 
L 945.532167 277.178092 
L 947.587733 331.126158 
L 949.643299 323.217541 
L 951.698865 294.548805 
L 953.754431 245.437706 
L 955.809997 248.968338 
L 957.865563 249.038951 
L 959.921129 232.021302 
L 961.976695 284.380583 
L 964.032261 282.156284 
L 966.087827 327.348381 
L 968.143393 212.426291 
L 970.198959 205.61217 
L 972.254526 228.1023 
L 974.310092 218.569592 
L 976.365658 266.762726 
L 978.421224 278.625652 
L 980.47679 220.334908 
L 982.532356 181.286112 
L 984.587922 193.396182 
L 986.643488 234.845808 
L 988.699054 236.328674 
L 990.75462 299.668222 
L 992.810186 332.185348 
L 994.865752 214.015076 
L 996.921318 262.314129 
L 998.976885 245.331787 
L 1001.032451 315.238311 
L 1003.088017 326.606948 
L 1005.143583 195.126192 
L 1007.199149 245.578931 
L 1011.310281 281.026482 
L 1013.365847 256.100216 
L 1015.421413 257.265325 
L 1019.532545 312.555031 
L 1021.588111 324.312037 
L 1023.643677 295.607994 
L 1025.699243 307.188469 
L 1027.75481 323.605911 
L 1029.810376 361.454292 
L 1031.865942 363.148995 
L 1033.921508 418.368089 
L 1035.977074 331.126158 
L 1038.03264 358.629786 
L 1040.088206 356.299568 
L 1042.143772 373.140685 
L 1044.199338 407.281902 
L 1046.254904 398.596546 
L 1048.31047 422.993217 
L 1050.366036 431.607961 
L 1052.421602 422.67546 
L 1054.477169 400.255944 
L 1056.532735 383.803196 
L 1058.588301 401.173908 
L 1060.643867 426.594462 
L 1062.699433 448.025402 
L 1064.754999 431.71388 
L 1066.810565 428.818761 
L 1068.866131 421.863415 
L 1070.921697 434.750224 
L 1072.977263 444.49477 
L 1075.032829 463.913249 
L 1077.088395 467.479188 
L 1079.143961 468.432458 
L 1081.199528 457.240353 
L 1085.31066 470.162468 
L 1087.366226 475.246579 
L 1089.421792 481.848862 
L 1089.421792 481.848862 
" style="fill:none;stroke:#000000;stroke-dasharray:1.5,2.475;stroke-dashoffset:0;stroke-opacity:0.5;stroke-width:1.5;"/>
   </g>
   <g id="line2d_26">
    <path clip-path="url(#p8efbb23940)" d="M 135.639133 518.390909 
L 139.750265 517.367026 
L 147.972529 514.719051 
L 150.028095 513.942312 
L 152.083662 513.024348 
L 154.139228 511.859239 
L 156.194794 510.446986 
L 158.25036 508.646363 
L 160.305926 506.492677 
L 162.361492 504.091847 
L 170.583756 495.477104 
L 172.639322 492.44076 
L 176.750454 485.414801 
L 178.806021 483.11989 
L 180.861587 482.660908 
L 182.917153 483.296421 
L 184.972719 484.320305 
L 187.028285 485.026431 
L 189.083851 484.955819 
L 193.194983 483.508259 
L 195.250549 483.755404 
L 197.306115 484.602755 
L 199.361681 485.026431 
L 201.417247 484.249692 
L 203.472813 482.307844 
L 205.528379 479.977627 
L 207.583946 478.282923 
L 209.639512 478.212311 
L 211.695078 480.401303 
L 213.750644 483.155196 
L 215.80621 484.885206 
L 217.861776 484.920512 
L 219.917342 483.720097 
L 221.972908 482.802133 
L 224.028474 483.261115 
L 226.08404 485.238269 
L 228.139606 488.098082 
L 230.195172 490.498912 
L 232.250738 492.05239 
L 234.306305 492.864436 
L 236.361871 494.029544 
L 238.417437 496.606906 
L 242.528569 502.679594 
L 244.584135 504.515523 
L 246.639701 505.045118 
L 250.750833 505.151037 
L 252.806399 505.645326 
L 254.861965 506.881047 
L 256.917531 507.940237 
L 258.973097 508.434525 
L 263.08423 508.540444 
L 265.139796 508.858201 
L 269.250928 510.658824 
L 271.306494 511.329644 
L 273.36206 511.682707 
L 277.473192 511.965158 
L 279.528758 512.318221 
L 283.63989 513.624555 
L 285.695456 513.871699 
L 287.751023 513.695168 
L 291.862155 512.918429 
L 293.917721 512.706591 
L 295.973287 512.777203 
L 300.084419 513.200879 
L 306.251117 513.412717 
L 310.362249 514.012925 
L 312.417815 514.54252 
L 314.473381 514.860277 
L 316.528948 514.860277 
L 318.584514 514.471907 
L 322.695646 513.09496 
L 324.751212 512.706591 
L 326.806778 512.600672 
L 330.91791 513.059654 
L 337.084608 513.306798 
L 339.140174 513.48333 
L 343.251307 514.224763 
L 347.362439 515.072114 
L 355.584703 516.378449 
L 359.695835 516.55498 
L 363.806967 516.484368 
L 365.862533 516.484368 
L 376.140364 517.084575 
L 380.251496 517.084575 
L 388.47376 517.649476 
L 392.584892 517.331719 
L 400.807157 516.27253 
L 404.918289 515.742935 
L 406.973855 515.460484 
L 413.140553 514.15415 
L 415.196119 513.836393 
L 419.307251 513.553942 
L 423.418383 513.236186 
L 425.47395 512.918429 
L 427.529516 512.42414 
L 429.585082 511.718014 
L 431.640648 510.835355 
L 435.75178 508.469832 
L 439.862912 506.351452 
L 441.918478 505.610019 
L 450.140742 501.655711 
L 452.196309 500.384683 
L 454.251875 499.396106 
L 456.307441 498.160385 
L 458.363007 497.454258 
L 460.418573 496.995276 
L 462.474139 496.85405 
L 464.529705 497.383645 
L 466.585271 498.336916 
L 470.696403 499.996313 
L 472.751969 500.631827 
L 474.807535 501.020197 
L 476.863101 501.161422 
L 480.974234 501.126116 
L 483.0298 501.443873 
L 487.140932 501.691017 
L 491.252064 501.549792 
L 493.30763 501.443873 
L 495.363196 501.549792 
L 497.418762 501.514485 
L 499.474328 501.161422 
L 501.529894 500.525908 
L 505.641026 498.089772 
L 511.807725 492.687904 
L 513.863291 490.498912 
L 515.918857 488.521758 
L 520.029989 483.755404 
L 522.085555 482.0607 
L 524.141121 480.012933 
L 526.196687 478.177004 
L 528.252253 476.093931 
L 530.307819 472.775136 
L 532.363385 468.962053 
L 536.474518 459.782409 
L 538.530084 455.580956 
L 544.696782 444.459463 
L 546.752348 440.010866 
L 548.807914 435.244512 
L 550.86348 430.125095 
L 552.919046 425.85303 
L 557.030178 417.944413 
L 559.085744 414.484393 
L 561.141311 409.965183 
L 563.196877 404.139639 
L 565.252443 397.749194 
L 569.363575 381.543591 
L 571.419141 373.034766 
L 573.474707 362.513481 
L 575.530273 351.144845 
L 581.696971 311.036859 
L 583.752537 298.467807 
L 585.808103 287.840603 
L 591.974802 258.324514 
L 594.030368 249.286095 
L 596.085934 242.648506 
L 600.197066 233.610087 
L 602.252632 228.38475 
L 606.363764 211.155263 
L 610.474896 189.830243 
L 612.530462 180.403454 
L 614.586028 177.755479 
L 616.641595 175.813631 
L 618.697161 174.083621 
L 620.752727 171.435647 
L 622.808293 172.636062 
L 624.863859 176.802209 
L 626.919425 187.111656 
L 628.974991 200.598672 
L 631.030557 220.864503 
L 633.086123 239.188486 
L 635.141689 253.028566 
L 637.197255 265.738843 
L 639.252821 280.955869 
L 643.363954 314.849942 
L 645.41952 327.136543 
L 647.475086 332.750249 
L 649.530652 330.984933 
L 651.586218 325.72429 
L 653.641784 322.158351 
L 655.69735 324.806326 
L 657.752916 332.64433 
L 659.808482 339.599676 
L 661.864048 342.63602 
L 663.919614 339.211306 
L 665.97518 332.397186 
L 668.030746 326.042047 
L 670.086312 326.218579 
L 672.141879 331.337996 
L 674.197445 341.047235 
L 676.253011 346.837473 
L 678.308577 350.438718 
L 680.364143 348.073194 
L 682.419709 345.884202 
L 684.475275 345.213382 
L 686.530841 347.649518 
L 688.586407 348.461564 
L 690.641973 347.543599 
L 692.697539 338.787631 
L 694.753105 327.101237 
L 696.808671 311.319309 
L 698.864238 298.4325 
L 700.919804 290.523883 
L 702.97537 281.979753 
L 705.030936 271.317242 
L 707.086502 256.629811 
L 709.142068 236.893575 
L 711.197634 219.875926 
L 713.2532 211.790777 
L 715.308766 204.906044 
L 717.364332 196.326607 
L 719.419898 179.662021 
L 721.475464 154.347385 
L 723.53103 125.890487 
L 725.586597 104.035871 
L 727.642163 95.456434 
L 729.697729 104.706692 
L 731.753295 117.946564 
L 733.808861 127.338046 
L 737.919993 143.578956 
L 739.975559 155.865557 
L 742.031125 174.754442 
L 744.086691 194.984966 
L 746.142257 210.201993 
L 748.197823 217.72224 
L 750.253389 216.062843 
L 752.308955 215.921617 
L 754.364522 221.252873 
L 756.420088 234.528051 
L 758.475654 251.792844 
L 760.53122 259.419011 
L 762.586786 258.112677 
L 766.697918 247.097103 
L 768.753484 250.415898 
L 770.80905 264.644347 
L 774.920182 301.857214 
L 776.975748 310.366038 
L 779.031314 313.402382 
L 781.086881 313.61422 
L 783.142447 315.979744 
L 785.198013 322.970397 
L 787.253579 331.373302 
L 789.309145 336.881089 
L 791.364711 336.951702 
L 793.420277 332.926781 
L 795.475843 329.996356 
L 797.531409 330.737788 
L 799.586975 336.987008 
L 801.642541 347.049311 
L 803.698107 355.840586 
L 805.753673 361.242454 
L 807.80924 363.466752 
L 809.864806 365.373294 
L 811.920372 369.53944 
L 813.975938 376.07111 
L 816.031504 383.167682 
L 818.08707 386.910152 
L 820.142636 386.062801 
L 822.198202 382.461555 
L 824.253768 378.224796 
L 826.309334 379.601743 
L 828.3649 388.640162 
L 830.420466 400.467781 
L 832.476032 408.764768 
L 834.531599 410.035796 
L 836.587165 403.115756 
L 838.642731 393.688967 
L 840.698297 386.627702 
L 842.753863 387.263216 
L 844.809429 394.324481 
L 846.864995 399.691042 
L 848.920561 398.278789 
L 850.976127 390.440785 
L 853.031693 378.471941 
L 855.087259 368.339025 
L 857.142825 363.713896 
L 859.198391 363.784509 
L 861.253957 365.373294 
L 863.309524 364.34941 
L 865.36509 360.289183 
L 867.420656 355.522829 
L 869.476222 353.545675 
L 871.531788 355.381604 
L 873.587354 359.053462 
L 875.64292 364.208185 
L 877.698486 366.044114 
L 879.754052 363.325527 
L 881.809618 359.653669 
L 883.865184 357.041001 
L 885.92075 357.217533 
L 887.976316 358.594479 
L 890.031883 357.041001 
L 892.087449 351.886277 
L 894.143015 342.24765 
L 896.198581 329.713905 
L 898.254147 319.157314 
L 900.309713 315.273618 
L 902.365279 315.803213 
L 904.420845 317.286078 
L 906.476411 315.026473 
L 908.531977 306.8001 
L 910.587543 294.478192 
L 912.643109 283.497925 
L 914.698675 279.014021 
L 916.754242 278.83749 
L 918.809808 279.331778 
L 920.865374 277.990138 
L 922.92094 269.12825 
L 924.976506 258.324514 
L 927.032072 250.663042 
L 929.087638 251.086718 
L 933.19877 263.973527 
L 935.254336 267.39824 
L 937.309902 267.11579 
L 939.365468 263.832301 
L 941.421034 265.844762 
L 943.4766 273.188478 
L 945.532167 285.757529 
L 947.587733 293.383696 
L 949.643299 292.783488 
L 951.698865 285.051403 
L 953.754431 271.211323 
L 955.809997 259.772074 
L 957.865563 255.464702 
L 959.921129 261.678615 
L 961.976695 267.433546 
L 964.032261 267.78661 
L 966.087827 261.572696 
L 968.143393 249.709771 
L 970.198959 238.517666 
L 972.254526 235.516628 
L 974.310092 235.446015 
L 976.365658 238.37644 
L 978.421224 235.092952 
L 980.47679 227.466786 
L 982.532356 220.687971 
L 984.587922 221.570629 
L 986.643488 234.528051 
L 990.75462 263.973527 
L 992.810186 268.810493 
L 994.865752 269.763764 
L 996.921318 273.082559 
L 998.976885 271.034792 
L 1001.032451 269.410701 
L 1003.088017 269.163556 
L 1005.143583 264.114752 
L 1007.199149 260.301669 
L 1009.254715 257.512469 
L 1011.310281 259.454317 
L 1013.365847 269.092944 
L 1025.699243 321.769982 
L 1027.75481 335.892512 
L 1031.865942 359.724282 
L 1033.921508 364.914312 
L 1035.977074 365.585132 
L 1038.03264 366.397177 
L 1040.088206 370.669243 
L 1042.143772 378.436634 
L 1044.199338 392.771002 
L 1046.254904 404.633928 
L 1048.31047 412.789689 
L 1050.366036 414.766843 
L 1054.477169 409.082525 
L 1056.532735 408.800074 
L 1058.588301 412.366013 
L 1062.699433 425.817723 
L 1064.754999 430.372239 
L 1066.810565 432.278781 
L 1068.866131 434.679611 
L 1070.921697 439.269433 
L 1075.032829 454.239315 
L 1077.088395 460.064859 
L 1079.143961 463.313041 
L 1083.255094 467.337962 
L 1085.31066 469.526954 
L 1087.366226 472.104316 
L 1089.421792 475.14066 
L 1089.421792 475.14066 
" style="fill:none;stroke:#000000;stroke-linecap:square;stroke-width:1.5;"/>
   </g>
   <g id="patch_3">
    <path d="M 87.95 541.28 
L 87.95 37.72 
" style="fill:none;stroke:#555555;stroke-linecap:square;stroke-linejoin:miter;"/>
   </g>
   <g id="patch_4">
    <path d="M 87.95 541.28 
L 1137.110925 541.28 
" style="fill:none;stroke:#555555;stroke-linecap:square;stroke-linejoin:miter;"/>
   </g>
   <g id="text_26">
    <!-- Last updated on 13 June 2021 -->
    <g style="fill:#555555;" transform="translate(476.887806 27.72)scale(0.18 -0.18)">
     <defs>
      <path d="M 628 4666 
L 1259 4666 
L 1259 531 
L 3531 531 
L 3531 0 
L 628 0 
L 628 4666 
z
" id="DejaVuSans-4c" transform="scale(0.015625)"/>
      <path d="M 1172 4494 
L 1172 3500 
L 2356 3500 
L 2356 3053 
L 1172 3053 
L 1172 1153 
Q 1172 725 1289 603 
Q 1406 481 1766 481 
L 2356 481 
L 2356 0 
L 1766 0 
Q 1100 0 847 248 
Q 594 497 594 1153 
L 594 3053 
L 172 3053 
L 172 3500 
L 594 3500 
L 594 4494 
L 1172 4494 
z
" id="DejaVuSans-74" transform="scale(0.015625)"/>
      <path d="M 544 1381 
L 544 3500 
L 1119 3500 
L 1119 1403 
Q 1119 906 1312 657 
Q 1506 409 1894 409 
Q 2359 409 2629 706 
Q 2900 1003 2900 1516 
L 2900 3500 
L 3475 3500 
L 3475 0 
L 2900 0 
L 2900 538 
Q 2691 219 2414 64 
Q 2138 -91 1772 -91 
Q 1169 -91 856 284 
Q 544 659 544 1381 
z
M 1991 3584 
L 1991 3584 
z
" id="DejaVuSans-75" transform="scale(0.015625)"/>
      <path d="M 1159 525 
L 1159 -1331 
L 581 -1331 
L 581 3500 
L 1159 3500 
L 1159 2969 
Q 1341 3281 1617 3432 
Q 1894 3584 2278 3584 
Q 2916 3584 3314 3078 
Q 3713 2572 3713 1747 
Q 3713 922 3314 415 
Q 2916 -91 2278 -91 
Q 1894 -91 1617 61 
Q 1341 213 1159 525 
z
M 3116 1747 
Q 3116 2381 2855 2742 
Q 2594 3103 2138 3103 
Q 1681 3103 1420 2742 
Q 1159 2381 1159 1747 
Q 1159 1113 1420 752 
Q 1681 391 2138 391 
Q 2594 391 2855 752 
Q 3116 1113 3116 1747 
z
" id="DejaVuSans-70" transform="scale(0.015625)"/>
      <path d="M 2906 2969 
L 2906 4863 
L 3481 4863 
L 3481 0 
L 2906 0 
L 2906 525 
Q 2725 213 2448 61 
Q 2172 -91 1784 -91 
Q 1150 -91 751 415 
Q 353 922 353 1747 
Q 353 2572 751 3078 
Q 1150 3584 1784 3584 
Q 2172 3584 2448 3432 
Q 2725 3281 2906 2969 
z
M 947 1747 
Q 947 1113 1208 752 
Q 1469 391 1925 391 
Q 2381 391 2643 752 
Q 2906 1113 2906 1747 
Q 2906 2381 2643 2742 
Q 2381 3103 1925 3103 
Q 1469 3103 1208 2742 
Q 947 2381 947 1747 
z
" id="DejaVuSans-64" transform="scale(0.015625)"/>
      <path d="M 1959 3097 
Q 1497 3097 1228 2736 
Q 959 2375 959 1747 
Q 959 1119 1226 758 
Q 1494 397 1959 397 
Q 2419 397 2687 759 
Q 2956 1122 2956 1747 
Q 2956 2369 2687 2733 
Q 2419 3097 1959 3097 
z
M 1959 3584 
Q 2709 3584 3137 3096 
Q 3566 2609 3566 1747 
Q 3566 888 3137 398 
Q 2709 -91 1959 -91 
Q 1206 -91 779 398 
Q 353 888 353 1747 
Q 353 2609 779 3096 
Q 1206 3584 1959 3584 
z
" id="DejaVuSans-6f" transform="scale(0.015625)"/>
      <path d="M 3513 2113 
L 3513 0 
L 2938 0 
L 2938 2094 
Q 2938 2591 2744 2837 
Q 2550 3084 2163 3084 
Q 1697 3084 1428 2787 
Q 1159 2491 1159 1978 
L 1159 0 
L 581 0 
L 581 3500 
L 1159 3500 
L 1159 2956 
Q 1366 3272 1645 3428 
Q 1925 3584 2291 3584 
Q 2894 3584 3203 3211 
Q 3513 2838 3513 2113 
z
" id="DejaVuSans-6e" transform="scale(0.015625)"/>
      <path d="M 794 531 
L 1825 531 
L 1825 4091 
L 703 3866 
L 703 4441 
L 1819 4666 
L 2450 4666 
L 2450 531 
L 3481 531 
L 3481 0 
L 794 0 
L 794 531 
z
" id="DejaVuSans-31" transform="scale(0.015625)"/>
      <path d="M 2597 2516 
Q 3050 2419 3304 2112 
Q 3559 1806 3559 1356 
Q 3559 666 3084 287 
Q 2609 -91 1734 -91 
Q 1441 -91 1130 -33 
Q 819 25 488 141 
L 488 750 
Q 750 597 1062 519 
Q 1375 441 1716 441 
Q 2309 441 2620 675 
Q 2931 909 2931 1356 
Q 2931 1769 2642 2001 
Q 2353 2234 1838 2234 
L 1294 2234 
L 1294 2753 
L 1863 2753 
Q 2328 2753 2575 2939 
Q 2822 3125 2822 3475 
Q 2822 3834 2567 4026 
Q 2313 4219 1838 4219 
Q 1578 4219 1281 4162 
Q 984 4106 628 3988 
L 628 4550 
Q 988 4650 1302 4700 
Q 1616 4750 1894 4750 
Q 2613 4750 3031 4423 
Q 3450 4097 3450 3541 
Q 3450 3153 3228 2886 
Q 3006 2619 2597 2516 
z
" id="DejaVuSans-33" transform="scale(0.015625)"/>
      <path d="M 628 4666 
L 1259 4666 
L 1259 325 
Q 1259 -519 939 -900 
Q 619 -1281 -91 -1281 
L -331 -1281 
L -331 -750 
L -134 -750 
Q 284 -750 456 -515 
Q 628 -281 628 325 
L 628 4666 
z
" id="DejaVuSans-4a" transform="scale(0.015625)"/>
      <path d="M 1228 531 
L 3431 531 
L 3431 0 
L 469 0 
L 469 531 
Q 828 903 1448 1529 
Q 2069 2156 2228 2338 
Q 2531 2678 2651 2914 
Q 2772 3150 2772 3378 
Q 2772 3750 2511 3984 
Q 2250 4219 1831 4219 
Q 1534 4219 1204 4116 
Q 875 4013 500 3803 
L 500 4441 
Q 881 4594 1212 4672 
Q 1544 4750 1819 4750 
Q 2544 4750 2975 4387 
Q 3406 4025 3406 3419 
Q 3406 3131 3298 2873 
Q 3191 2616 2906 2266 
Q 2828 2175 2409 1742 
Q 1991 1309 1228 531 
z
" id="DejaVuSans-32" transform="scale(0.015625)"/>
      <path d="M 2034 4250 
Q 1547 4250 1301 3770 
Q 1056 3291 1056 2328 
Q 1056 1369 1301 889 
Q 1547 409 2034 409 
Q 2525 409 2770 889 
Q 3016 1369 3016 2328 
Q 3016 3291 2770 3770 
Q 2525 4250 2034 4250 
z
M 2034 4750 
Q 2819 4750 3233 4129 
Q 3647 3509 3647 2328 
Q 3647 1150 3233 529 
Q 2819 -91 2034 -91 
Q 1250 -91 836 529 
Q 422 1150 422 2328 
Q 422 3509 836 4129 
Q 1250 4750 2034 4750 
z
" id="DejaVuSans-30" transform="scale(0.015625)"/>
     </defs>
     <use xlink:href="#DejaVuSans-4c"/>
     <use x="55.712891" xlink:href="#DejaVuSans-61"/>
     <use x="116.992188" xlink:href="#DejaVuSans-73"/>
     <use x="169.091797" xlink:href="#DejaVuSans-74"/>
     <use x="208.300781" xlink:href="#DejaVuSans-20"/>
     <use x="240.087891" xlink:href="#DejaVuSans-75"/>
     <use x="303.466797" xlink:href="#DejaVuSans-70"/>
     <use x="366.943359" xlink:href="#DejaVuSans-64"/>
     <use x="430.419922" xlink:href="#DejaVuSans-61"/>
     <use x="491.699219" xlink:href="#DejaVuSans-74"/>
     <use x="530.908203" xlink:href="#DejaVuSans-65"/>
     <use x="592.431641" xlink:href="#DejaVuSans-64"/>
     <use x="655.908203" xlink:href="#DejaVuSans-20"/>
     <use x="687.695312" xlink:href="#DejaVuSans-6f"/>
     <use x="748.876953" xlink:href="#DejaVuSans-6e"/>
     <use x="812.255859" xlink:href="#DejaVuSans-20"/>
     <use x="844.042969" xlink:href="#DejaVuSans-31"/>
     <use x="907.666016" xlink:href="#DejaVuSans-33"/>
     <use x="971.289062" xlink:href="#DejaVuSans-20"/>
     <use x="1003.076172" xlink:href="#DejaVuSans-4a"/>
     <use x="1032.568359" xlink:href="#DejaVuSans-75"/>
     <use x="1095.947266" xlink:href="#DejaVuSans-6e"/>
     <use x="1159.326172" xlink:href="#DejaVuSans-65"/>
     <use x="1220.849609" xlink:href="#DejaVuSans-20"/>
     <use x="1252.636719" xlink:href="#DejaVuSans-32"/>
     <use x="1316.259766" xlink:href="#DejaVuSans-30"/>
     <use x="1379.882812" xlink:href="#DejaVuSans-32"/>
     <use x="1443.505859" xlink:href="#DejaVuSans-31"/>
    </g>
   </g>
   <g id="legend_1">
    <g id="line2d_27">
     <path d="M 1014.648894 54.747969 
L 1040.648894 54.747969 
" style="fill:none;stroke:#000000;stroke-dasharray:1.5,2.475;stroke-dashoffset:0;stroke-opacity:0.5;stroke-width:1.5;"/>
    </g>
    <g id="line2d_28"/>
    <g id="text_27">
     <!-- Actual -->
     <g style="fill:#555555;" transform="translate(1051.048894 59.297969)scale(0.13 -0.13)">
      <use xlink:href="#DejaVuSans-Bold-41"/>
      <use x="77.392578" xlink:href="#DejaVuSans-Bold-63"/>
      <use x="136.669922" xlink:href="#DejaVuSans-Bold-74"/>
      <use x="184.472656" xlink:href="#DejaVuSans-Bold-75"/>
      <use x="255.664062" xlink:href="#DejaVuSans-Bold-61"/>
      <use x="323.144531" xlink:href="#DejaVuSans-Bold-6c"/>
     </g>
    </g>
    <g id="line2d_29">
     <path d="M 1014.648894 73.829531 
L 1040.648894 73.829531 
" style="fill:none;stroke:#000000;stroke-linecap:square;stroke-width:1.5;"/>
    </g>
    <g id="line2d_30"/>
    <g id="text_28">
     <!-- Smoothed -->
     <g style="fill:#555555;" transform="translate(1051.048894 78.379531)scale(0.13 -0.13)">
      <defs>
       <path d="M 3781 2919 
Q 3994 3244 4286 3414 
Q 4578 3584 4928 3584 
Q 5531 3584 5847 3212 
Q 6163 2841 6163 2131 
L 6163 0 
L 5038 0 
L 5038 1825 
Q 5041 1866 5042 1909 
Q 5044 1953 5044 2034 
Q 5044 2406 4934 2573 
Q 4825 2741 4581 2741 
Q 4263 2741 4089 2478 
Q 3916 2216 3909 1719 
L 3909 0 
L 2784 0 
L 2784 1825 
Q 2784 2406 2684 2573 
Q 2584 2741 2328 2741 
Q 2006 2741 1831 2477 
Q 1656 2213 1656 1722 
L 1656 0 
L 531 0 
L 531 3500 
L 1656 3500 
L 1656 2988 
Q 1863 3284 2130 3434 
Q 2397 3584 2719 3584 
Q 3081 3584 3359 3409 
Q 3638 3234 3781 2919 
z
" id="DejaVuSans-Bold-6d" transform="scale(0.015625)"/>
       <path d="M 4056 2131 
L 4056 0 
L 2931 0 
L 2931 347 
L 2931 1625 
Q 2931 2084 2911 2256 
Q 2891 2428 2841 2509 
Q 2775 2619 2662 2680 
Q 2550 2741 2406 2741 
Q 2056 2741 1856 2470 
Q 1656 2200 1656 1722 
L 1656 0 
L 538 0 
L 538 4863 
L 1656 4863 
L 1656 2988 
Q 1909 3294 2193 3439 
Q 2478 3584 2822 3584 
Q 3428 3584 3742 3212 
Q 4056 2841 4056 2131 
z
" id="DejaVuSans-Bold-68" transform="scale(0.015625)"/>
       <path d="M 2919 2988 
L 2919 4863 
L 4044 4863 
L 4044 0 
L 2919 0 
L 2919 506 
Q 2688 197 2409 53 
Q 2131 -91 1766 -91 
Q 1119 -91 703 423 
Q 288 938 288 1747 
Q 288 2556 703 3070 
Q 1119 3584 1766 3584 
Q 2128 3584 2408 3439 
Q 2688 3294 2919 2988 
z
M 2181 722 
Q 2541 722 2730 984 
Q 2919 1247 2919 1747 
Q 2919 2247 2730 2509 
Q 2541 2772 2181 2772 
Q 1825 2772 1636 2509 
Q 1447 2247 1447 1747 
Q 1447 1247 1636 984 
Q 1825 722 2181 722 
z
" id="DejaVuSans-Bold-64" transform="scale(0.015625)"/>
      </defs>
      <use xlink:href="#DejaVuSans-Bold-53"/>
      <use x="72.021484" xlink:href="#DejaVuSans-Bold-6d"/>
      <use x="176.220703" xlink:href="#DejaVuSans-Bold-6f"/>
      <use x="244.921875" xlink:href="#DejaVuSans-Bold-6f"/>
      <use x="313.623047" xlink:href="#DejaVuSans-Bold-74"/>
      <use x="361.425781" xlink:href="#DejaVuSans-Bold-68"/>
      <use x="432.617188" xlink:href="#DejaVuSans-Bold-65"/>
      <use x="500.439453" xlink:href="#DejaVuSans-Bold-64"/>
     </g>
    </g>
   </g>
  </g>
 </g>
 <defs>
  <clipPath id="p8efbb23940">
   <rect height="503.56" width="1049.160925" x="87.95" y="37.72"/>
  </clipPath>
 </defs>
</svg>
