<?xml version="1.0" encoding="utf-8" standalone="no"?>
<!DOCTYPE svg PUBLIC "-//W3C//DTD SVG 1.1//EN"
  "http://www.w3.org/Graphics/SVG/1.1/DTD/svg11.dtd">
<svg height="576pt" version="1.1" viewBox="0 0 1152 576" width="1152pt" xmlns="http://www.w3.org/2000/svg" xmlns:xlink="http://www.w3.org/1999/xlink">
 <metadata>
  <rdf:RDF xmlns:cc="http://creativecommons.org/ns#" xmlns:dc="http://purl.org/dc/elements/1.1/" xmlns:rdf="http://www.w3.org/1999/02/22-rdf-syntax-ns#">
   <cc:Work>
    <dc:type rdf:resource="http://purl.org/dc/dcmitype/StillImage"/>
    <dc:date>2021-10-04T14:13:14.035312</dc:date>
    <dc:format>image/svg+xml</dc:format>
    <dc:creator>
     <cc:Agent>
      <dc:title>Matplotlib v3.4.3, https://matplotlib.org/</dc:title>
     </cc:Agent>
    </dc:creator>
   </cc:Work>
  </rdf:RDF>
 </metadata>
 <defs>
  <style type="text/css">*{stroke-linecap:butt;stroke-linejoin:round;}</style>
 </defs>
 <g id="figure_1">
  <g id="patch_1">
   <path d="M 0 576 
L 1152 576 
L 1152 0 
L 0 0 
z
" style="fill:#ffffff;"/>
  </g>
  <g id="axes_1">
   <g id="patch_2">
    <path d="M 87.95 541.28 
L 1123.855651 541.28 
L 1123.855651 37.72 
L 87.95 37.72 
z
" style="fill:#ffffff;"/>
   </g>
   <g id="matplotlib.axis_1">
    <g id="xtick_1">
     <g id="line2d_1">
      <defs>
       <path d="M 0 0 
L 0 3.5 
" id="maa44ed3590" style="stroke:#555555;stroke-width:0.8;"/>
      </defs>
      <g>
       <use style="fill:#555555;stroke:#555555;stroke-width:0.8;" x="126.876028" xlink:href="#maa44ed3590" y="541.28"/>
      </g>
     </g>
     <g id="text_1">
      <!-- Mar -->
      <g style="fill:#555555;" transform="translate(111.734153 558.917812)scale(0.14 -0.14)">
       <defs>
        <path d="M 588 4666 
L 2119 4666 
L 3181 2169 
L 4250 4666 
L 5778 4666 
L 5778 0 
L 4641 0 
L 4641 3413 
L 3566 897 
L 2803 897 
L 1728 3413 
L 1728 0 
L 588 0 
L 588 4666 
z
" id="DejaVuSans-Bold-4d" transform="scale(0.015625)"/>
        <path d="M 2106 1575 
Q 1756 1575 1579 1456 
Q 1403 1338 1403 1106 
Q 1403 894 1545 773 
Q 1688 653 1941 653 
Q 2256 653 2472 879 
Q 2688 1106 2688 1447 
L 2688 1575 
L 2106 1575 
z
M 3816 1997 
L 3816 0 
L 2688 0 
L 2688 519 
Q 2463 200 2181 54 
Q 1900 -91 1497 -91 
Q 953 -91 614 226 
Q 275 544 275 1050 
Q 275 1666 698 1953 
Q 1122 2241 2028 2241 
L 2688 2241 
L 2688 2328 
Q 2688 2594 2478 2717 
Q 2269 2841 1825 2841 
Q 1466 2841 1156 2769 
Q 847 2697 581 2553 
L 581 3406 
Q 941 3494 1303 3539 
Q 1666 3584 2028 3584 
Q 2975 3584 3395 3211 
Q 3816 2838 3816 1997 
z
" id="DejaVuSans-Bold-61" transform="scale(0.015625)"/>
        <path d="M 3138 2547 
Q 2991 2616 2845 2648 
Q 2700 2681 2553 2681 
Q 2122 2681 1889 2404 
Q 1656 2128 1656 1613 
L 1656 0 
L 538 0 
L 538 3500 
L 1656 3500 
L 1656 2925 
Q 1872 3269 2151 3426 
Q 2431 3584 2822 3584 
Q 2878 3584 2943 3579 
Q 3009 3575 3134 3559 
L 3138 2547 
z
" id="DejaVuSans-Bold-72" transform="scale(0.015625)"/>
       </defs>
       <use xlink:href="#DejaVuSans-Bold-4d"/>
       <use x="99.511719" xlink:href="#DejaVuSans-Bold-61"/>
       <use x="166.992188" xlink:href="#DejaVuSans-Bold-72"/>
      </g>
     </g>
    </g>
    <g id="xtick_2">
     <g id="line2d_2">
      <g>
       <use style="fill:#555555;stroke:#555555;stroke-width:0.8;" x="177.471703" xlink:href="#maa44ed3590" y="541.28"/>
      </g>
     </g>
     <g id="text_2">
      <!-- Apr -->
      <g style="fill:#555555;" transform="translate(163.592016 558.917812)scale(0.14 -0.14)">
       <defs>
        <path d="M 3419 850 
L 1538 850 
L 1241 0 
L 31 0 
L 1759 4666 
L 3194 4666 
L 4922 0 
L 3713 0 
L 3419 850 
z
M 1838 1716 
L 3116 1716 
L 2478 3572 
L 1838 1716 
z
" id="DejaVuSans-Bold-41" transform="scale(0.015625)"/>
        <path d="M 1656 506 
L 1656 -1331 
L 538 -1331 
L 538 3500 
L 1656 3500 
L 1656 2988 
Q 1888 3294 2169 3439 
Q 2450 3584 2816 3584 
Q 3463 3584 3878 3070 
Q 4294 2556 4294 1747 
Q 4294 938 3878 423 
Q 3463 -91 2816 -91 
Q 2450 -91 2169 54 
Q 1888 200 1656 506 
z
M 2400 2772 
Q 2041 2772 1848 2508 
Q 1656 2244 1656 1747 
Q 1656 1250 1848 986 
Q 2041 722 2400 722 
Q 2759 722 2948 984 
Q 3138 1247 3138 1747 
Q 3138 2247 2948 2509 
Q 2759 2772 2400 2772 
z
" id="DejaVuSans-Bold-70" transform="scale(0.015625)"/>
       </defs>
       <use xlink:href="#DejaVuSans-Bold-41"/>
       <use x="77.392578" xlink:href="#DejaVuSans-Bold-70"/>
       <use x="148.974609" xlink:href="#DejaVuSans-Bold-72"/>
      </g>
     </g>
    </g>
    <g id="xtick_3">
     <g id="line2d_3">
      <g>
       <use style="fill:#555555;stroke:#555555;stroke-width:0.8;" x="226.43526" xlink:href="#maa44ed3590" y="541.28"/>
      </g>
     </g>
     <g id="text_3">
      <!-- May -->
      <g style="fill:#555555;" transform="translate(210.400885 558.808437)scale(0.14 -0.14)">
       <defs>
        <path d="M 78 3500 
L 1197 3500 
L 2138 1125 
L 2938 3500 
L 4056 3500 
L 2584 -331 
Q 2363 -916 2067 -1148 
Q 1772 -1381 1288 -1381 
L 641 -1381 
L 641 -647 
L 991 -647 
Q 1275 -647 1404 -556 
Q 1534 -466 1606 -231 
L 1638 -134 
L 78 3500 
z
" id="DejaVuSans-Bold-79" transform="scale(0.015625)"/>
       </defs>
       <use xlink:href="#DejaVuSans-Bold-4d"/>
       <use x="99.511719" xlink:href="#DejaVuSans-Bold-61"/>
       <use x="163.867188" xlink:href="#DejaVuSans-Bold-79"/>
      </g>
     </g>
    </g>
    <g id="xtick_4">
     <g id="line2d_4">
      <g>
       <use style="fill:#555555;stroke:#555555;stroke-width:0.8;" x="277.030935" xlink:href="#maa44ed3590" y="541.28"/>
      </g>
     </g>
     <g id="text_4">
      <!-- Jun -->
      <g style="fill:#555555;" transform="translate(264.460467 558.917812)scale(0.14 -0.14)">
       <defs>
        <path d="M 588 4666 
L 1791 4666 
L 1791 453 
Q 1791 -419 1317 -850 
Q 844 -1281 -116 -1281 
L -359 -1281 
L -359 -372 
L -172 -372 
Q 203 -372 395 -162 
Q 588 47 588 453 
L 588 4666 
z
" id="DejaVuSans-Bold-4a" transform="scale(0.015625)"/>
        <path d="M 500 1363 
L 500 3500 
L 1625 3500 
L 1625 3150 
Q 1625 2866 1622 2436 
Q 1619 2006 1619 1863 
Q 1619 1441 1641 1255 
Q 1663 1069 1716 984 
Q 1784 875 1895 815 
Q 2006 756 2150 756 
Q 2500 756 2700 1025 
Q 2900 1294 2900 1772 
L 2900 3500 
L 4019 3500 
L 4019 0 
L 2900 0 
L 2900 506 
Q 2647 200 2364 54 
Q 2081 -91 1741 -91 
Q 1134 -91 817 281 
Q 500 653 500 1363 
z
" id="DejaVuSans-Bold-75" transform="scale(0.015625)"/>
        <path d="M 4056 2131 
L 4056 0 
L 2931 0 
L 2931 347 
L 2931 1631 
Q 2931 2084 2911 2256 
Q 2891 2428 2841 2509 
Q 2775 2619 2662 2680 
Q 2550 2741 2406 2741 
Q 2056 2741 1856 2470 
Q 1656 2200 1656 1722 
L 1656 0 
L 538 0 
L 538 3500 
L 1656 3500 
L 1656 2988 
Q 1909 3294 2193 3439 
Q 2478 3584 2822 3584 
Q 3428 3584 3742 3212 
Q 4056 2841 4056 2131 
z
" id="DejaVuSans-Bold-6e" transform="scale(0.015625)"/>
       </defs>
       <use xlink:href="#DejaVuSans-Bold-4a"/>
       <use x="37.207031" xlink:href="#DejaVuSans-Bold-75"/>
       <use x="108.398438" xlink:href="#DejaVuSans-Bold-6e"/>
      </g>
     </g>
    </g>
    <g id="xtick_5">
     <g id="line2d_5">
      <g>
       <use style="fill:#555555;stroke:#555555;stroke-width:0.8;" x="325.994492" xlink:href="#maa44ed3590" y="541.28"/>
      </g>
     </g>
     <g id="text_5">
      <!-- Jul -->
      <g style="fill:#555555;" transform="translate(316.007461 558.917812)scale(0.14 -0.14)">
       <defs>
        <path d="M 538 4863 
L 1656 4863 
L 1656 0 
L 538 0 
L 538 4863 
z
" id="DejaVuSans-Bold-6c" transform="scale(0.015625)"/>
       </defs>
       <use xlink:href="#DejaVuSans-Bold-4a"/>
       <use x="37.207031" xlink:href="#DejaVuSans-Bold-75"/>
       <use x="108.398438" xlink:href="#DejaVuSans-Bold-6c"/>
      </g>
     </g>
    </g>
    <g id="xtick_6">
     <g id="line2d_6">
      <g>
       <use style="fill:#555555;stroke:#555555;stroke-width:0.8;" x="376.590168" xlink:href="#maa44ed3590" y="541.28"/>
      </g>
     </g>
     <g id="text_6">
      <!-- Aug -->
      <g style="fill:#555555;" transform="translate(361.17923 558.808437)scale(0.14 -0.14)">
       <defs>
        <path d="M 2919 594 
Q 2688 288 2409 144 
Q 2131 0 1766 0 
Q 1125 0 706 504 
Q 288 1009 288 1791 
Q 288 2575 706 3076 
Q 1125 3578 1766 3578 
Q 2131 3578 2409 3434 
Q 2688 3291 2919 2981 
L 2919 3500 
L 4044 3500 
L 4044 353 
Q 4044 -491 3511 -936 
Q 2978 -1381 1966 -1381 
Q 1638 -1381 1331 -1331 
Q 1025 -1281 716 -1178 
L 716 -306 
Q 1009 -475 1290 -558 
Q 1572 -641 1856 -641 
Q 2406 -641 2662 -400 
Q 2919 -159 2919 353 
L 2919 594 
z
M 2181 2772 
Q 1834 2772 1640 2515 
Q 1447 2259 1447 1791 
Q 1447 1309 1634 1061 
Q 1822 813 2181 813 
Q 2531 813 2725 1069 
Q 2919 1325 2919 1791 
Q 2919 2259 2725 2515 
Q 2531 2772 2181 2772 
z
" id="DejaVuSans-Bold-67" transform="scale(0.015625)"/>
       </defs>
       <use xlink:href="#DejaVuSans-Bold-41"/>
       <use x="77.392578" xlink:href="#DejaVuSans-Bold-75"/>
       <use x="148.583984" xlink:href="#DejaVuSans-Bold-67"/>
      </g>
     </g>
    </g>
    <g id="xtick_7">
     <g id="line2d_7">
      <g>
       <use style="fill:#555555;stroke:#555555;stroke-width:0.8;" x="427.185843" xlink:href="#maa44ed3590" y="541.28"/>
      </g>
     </g>
     <g id="text_7">
      <!-- Sep -->
      <g style="fill:#555555;" transform="translate(412.386312 558.917812)scale(0.14 -0.14)">
       <defs>
        <path d="M 3834 4519 
L 3834 3531 
Q 3450 3703 3084 3790 
Q 2719 3878 2394 3878 
Q 1963 3878 1756 3759 
Q 1550 3641 1550 3391 
Q 1550 3203 1689 3098 
Q 1828 2994 2194 2919 
L 2706 2816 
Q 3484 2659 3812 2340 
Q 4141 2022 4141 1434 
Q 4141 663 3683 286 
Q 3225 -91 2284 -91 
Q 1841 -91 1394 -6 
Q 947 78 500 244 
L 500 1259 
Q 947 1022 1364 901 
Q 1781 781 2169 781 
Q 2563 781 2772 912 
Q 2981 1044 2981 1288 
Q 2981 1506 2839 1625 
Q 2697 1744 2272 1838 
L 1806 1941 
Q 1106 2091 782 2419 
Q 459 2747 459 3303 
Q 459 4000 909 4375 
Q 1359 4750 2203 4750 
Q 2588 4750 2994 4692 
Q 3400 4634 3834 4519 
z
" id="DejaVuSans-Bold-53" transform="scale(0.015625)"/>
        <path d="M 4031 1759 
L 4031 1441 
L 1416 1441 
Q 1456 1047 1700 850 
Q 1944 653 2381 653 
Q 2734 653 3104 758 
Q 3475 863 3866 1075 
L 3866 213 
Q 3469 63 3072 -14 
Q 2675 -91 2278 -91 
Q 1328 -91 801 392 
Q 275 875 275 1747 
Q 275 2603 792 3093 
Q 1309 3584 2216 3584 
Q 3041 3584 3536 3087 
Q 4031 2591 4031 1759 
z
M 2881 2131 
Q 2881 2450 2695 2645 
Q 2509 2841 2209 2841 
Q 1884 2841 1681 2658 
Q 1478 2475 1428 2131 
L 2881 2131 
z
" id="DejaVuSans-Bold-65" transform="scale(0.015625)"/>
       </defs>
       <use xlink:href="#DejaVuSans-Bold-53"/>
       <use x="72.021484" xlink:href="#DejaVuSans-Bold-65"/>
       <use x="139.84375" xlink:href="#DejaVuSans-Bold-70"/>
      </g>
     </g>
    </g>
    <g id="xtick_8">
     <g id="line2d_8">
      <g>
       <use style="fill:#555555;stroke:#555555;stroke-width:0.8;" x="476.1494" xlink:href="#maa44ed3590" y="541.28"/>
      </g>
     </g>
     <g id="text_8">
      <!-- Oct -->
      <g style="fill:#555555;" transform="translate(462.702838 558.917812)scale(0.14 -0.14)">
       <defs>
        <path d="M 2719 3878 
Q 2169 3878 1866 3472 
Q 1563 3066 1563 2328 
Q 1563 1594 1866 1187 
Q 2169 781 2719 781 
Q 3272 781 3575 1187 
Q 3878 1594 3878 2328 
Q 3878 3066 3575 3472 
Q 3272 3878 2719 3878 
z
M 2719 4750 
Q 3844 4750 4481 4106 
Q 5119 3463 5119 2328 
Q 5119 1197 4481 553 
Q 3844 -91 2719 -91 
Q 1597 -91 958 553 
Q 319 1197 319 2328 
Q 319 3463 958 4106 
Q 1597 4750 2719 4750 
z
" id="DejaVuSans-Bold-4f" transform="scale(0.015625)"/>
        <path d="M 3366 3391 
L 3366 2478 
Q 3138 2634 2908 2709 
Q 2678 2784 2431 2784 
Q 1963 2784 1702 2511 
Q 1441 2238 1441 1747 
Q 1441 1256 1702 982 
Q 1963 709 2431 709 
Q 2694 709 2930 787 
Q 3166 866 3366 1019 
L 3366 103 
Q 3103 6 2833 -42 
Q 2563 -91 2291 -91 
Q 1344 -91 809 395 
Q 275 881 275 1747 
Q 275 2613 809 3098 
Q 1344 3584 2291 3584 
Q 2566 3584 2833 3536 
Q 3100 3488 3366 3391 
z
" id="DejaVuSans-Bold-63" transform="scale(0.015625)"/>
        <path d="M 1759 4494 
L 1759 3500 
L 2913 3500 
L 2913 2700 
L 1759 2700 
L 1759 1216 
Q 1759 972 1856 886 
Q 1953 800 2241 800 
L 2816 800 
L 2816 0 
L 1856 0 
Q 1194 0 917 276 
Q 641 553 641 1216 
L 641 2700 
L 84 2700 
L 84 3500 
L 641 3500 
L 641 4494 
L 1759 4494 
z
" id="DejaVuSans-Bold-74" transform="scale(0.015625)"/>
       </defs>
       <use xlink:href="#DejaVuSans-Bold-4f"/>
       <use x="85.009766" xlink:href="#DejaVuSans-Bold-63"/>
       <use x="144.287109" xlink:href="#DejaVuSans-Bold-74"/>
      </g>
     </g>
    </g>
    <g id="xtick_9">
     <g id="line2d_9">
      <g>
       <use style="fill:#555555;stroke:#555555;stroke-width:0.8;" x="526.745075" xlink:href="#maa44ed3590" y="541.28"/>
      </g>
     </g>
     <g id="text_9">
      <!-- Nov -->
      <g style="fill:#555555;" transform="translate(511.514607 558.917812)scale(0.14 -0.14)">
       <defs>
        <path d="M 588 4666 
L 1931 4666 
L 3628 1466 
L 3628 4666 
L 4769 4666 
L 4769 0 
L 3425 0 
L 1728 3200 
L 1728 0 
L 588 0 
L 588 4666 
z
" id="DejaVuSans-Bold-4e" transform="scale(0.015625)"/>
        <path d="M 2203 2784 
Q 1831 2784 1636 2517 
Q 1441 2250 1441 1747 
Q 1441 1244 1636 976 
Q 1831 709 2203 709 
Q 2569 709 2762 976 
Q 2956 1244 2956 1747 
Q 2956 2250 2762 2517 
Q 2569 2784 2203 2784 
z
M 2203 3584 
Q 3106 3584 3614 3096 
Q 4122 2609 4122 1747 
Q 4122 884 3614 396 
Q 3106 -91 2203 -91 
Q 1297 -91 786 396 
Q 275 884 275 1747 
Q 275 2609 786 3096 
Q 1297 3584 2203 3584 
z
" id="DejaVuSans-Bold-6f" transform="scale(0.015625)"/>
        <path d="M 97 3500 
L 1216 3500 
L 2088 1081 
L 2956 3500 
L 4078 3500 
L 2700 0 
L 1472 0 
L 97 3500 
z
" id="DejaVuSans-Bold-76" transform="scale(0.015625)"/>
       </defs>
       <use xlink:href="#DejaVuSans-Bold-4e"/>
       <use x="83.691406" xlink:href="#DejaVuSans-Bold-6f"/>
       <use x="152.392578" xlink:href="#DejaVuSans-Bold-76"/>
      </g>
     </g>
    </g>
    <g id="xtick_10">
     <g id="line2d_10">
      <g>
       <use style="fill:#555555;stroke:#555555;stroke-width:0.8;" x="575.708632" xlink:href="#maa44ed3590" y="541.28"/>
      </g>
     </g>
     <g id="text_10">
      <!-- Dec -->
      <g style="fill:#555555;" transform="translate(560.999882 558.917812)scale(0.14 -0.14)">
       <defs>
        <path d="M 1791 3756 
L 1791 909 
L 2222 909 
Q 2959 909 3348 1275 
Q 3738 1641 3738 2338 
Q 3738 3031 3350 3393 
Q 2963 3756 2222 3756 
L 1791 3756 
z
M 588 4666 
L 1856 4666 
Q 2919 4666 3439 4514 
Q 3959 4363 4331 4000 
Q 4659 3684 4818 3271 
Q 4978 2859 4978 2338 
Q 4978 1809 4818 1395 
Q 4659 981 4331 666 
Q 3956 303 3431 151 
Q 2906 0 1856 0 
L 588 0 
L 588 4666 
z
" id="DejaVuSans-Bold-44" transform="scale(0.015625)"/>
       </defs>
       <use xlink:href="#DejaVuSans-Bold-44"/>
       <use x="83.007812" xlink:href="#DejaVuSans-Bold-65"/>
       <use x="150.830078" xlink:href="#DejaVuSans-Bold-63"/>
      </g>
     </g>
    </g>
    <g id="xtick_11">
     <g id="line2d_11">
      <g>
       <use style="fill:#555555;stroke:#555555;stroke-width:0.8;" x="626.304308" xlink:href="#maa44ed3590" y="541.28"/>
      </g>
     </g>
     <g id="text_11">
      <!-- Jan -->
      <g style="fill:#555555;" transform="translate(613.993058 558.917812)scale(0.14 -0.14)">
       <use xlink:href="#DejaVuSans-Bold-4a"/>
       <use x="37.207031" xlink:href="#DejaVuSans-Bold-61"/>
       <use x="104.6875" xlink:href="#DejaVuSans-Bold-6e"/>
      </g>
     </g>
    </g>
    <g id="xtick_12">
     <g id="line2d_12">
      <g>
       <use style="fill:#555555;stroke:#555555;stroke-width:0.8;" x="676.899983" xlink:href="#maa44ed3590" y="541.28"/>
      </g>
     </g>
     <g id="text_12">
      <!-- Feb -->
      <g style="fill:#555555;" transform="translate(662.639671 558.917812)scale(0.14 -0.14)">
       <defs>
        <path d="M 588 4666 
L 3834 4666 
L 3834 3756 
L 1791 3756 
L 1791 2888 
L 3713 2888 
L 3713 1978 
L 1791 1978 
L 1791 0 
L 588 0 
L 588 4666 
z
" id="DejaVuSans-Bold-46" transform="scale(0.015625)"/>
        <path d="M 2400 722 
Q 2759 722 2948 984 
Q 3138 1247 3138 1747 
Q 3138 2247 2948 2509 
Q 2759 2772 2400 2772 
Q 2041 2772 1848 2508 
Q 1656 2244 1656 1747 
Q 1656 1250 1848 986 
Q 2041 722 2400 722 
z
M 1656 2988 
Q 1888 3294 2169 3439 
Q 2450 3584 2816 3584 
Q 3463 3584 3878 3070 
Q 4294 2556 4294 1747 
Q 4294 938 3878 423 
Q 3463 -91 2816 -91 
Q 2450 -91 2169 54 
Q 1888 200 1656 506 
L 1656 0 
L 538 0 
L 538 4863 
L 1656 4863 
L 1656 2988 
z
" id="DejaVuSans-Bold-62" transform="scale(0.015625)"/>
       </defs>
       <use xlink:href="#DejaVuSans-Bold-46"/>
       <use x="64.310547" xlink:href="#DejaVuSans-Bold-65"/>
       <use x="132.132812" xlink:href="#DejaVuSans-Bold-62"/>
      </g>
     </g>
    </g>
    <g id="xtick_13">
     <g id="line2d_13">
      <g>
       <use style="fill:#555555;stroke:#555555;stroke-width:0.8;" x="722.599303" xlink:href="#maa44ed3590" y="541.28"/>
      </g>
     </g>
     <g id="text_13">
      <!-- Mar -->
      <g style="fill:#555555;" transform="translate(707.457428 558.917812)scale(0.14 -0.14)">
       <use xlink:href="#DejaVuSans-Bold-4d"/>
       <use x="99.511719" xlink:href="#DejaVuSans-Bold-61"/>
       <use x="166.992188" xlink:href="#DejaVuSans-Bold-72"/>
      </g>
     </g>
    </g>
    <g id="xtick_14">
     <g id="line2d_14">
      <g>
       <use style="fill:#555555;stroke:#555555;stroke-width:0.8;" x="773.194978" xlink:href="#maa44ed3590" y="541.28"/>
      </g>
     </g>
     <g id="text_14">
      <!-- Apr -->
      <g style="fill:#555555;" transform="translate(759.315291 558.917812)scale(0.14 -0.14)">
       <use xlink:href="#DejaVuSans-Bold-41"/>
       <use x="77.392578" xlink:href="#DejaVuSans-Bold-70"/>
       <use x="148.974609" xlink:href="#DejaVuSans-Bold-72"/>
      </g>
     </g>
    </g>
    <g id="xtick_15">
     <g id="line2d_15">
      <g>
       <use style="fill:#555555;stroke:#555555;stroke-width:0.8;" x="822.158535" xlink:href="#maa44ed3590" y="541.28"/>
      </g>
     </g>
     <g id="text_15">
      <!-- May -->
      <g style="fill:#555555;" transform="translate(806.12416 558.808437)scale(0.14 -0.14)">
       <use xlink:href="#DejaVuSans-Bold-4d"/>
       <use x="99.511719" xlink:href="#DejaVuSans-Bold-61"/>
       <use x="163.867188" xlink:href="#DejaVuSans-Bold-79"/>
      </g>
     </g>
    </g>
    <g id="xtick_16">
     <g id="line2d_16">
      <g>
       <use style="fill:#555555;stroke:#555555;stroke-width:0.8;" x="872.754211" xlink:href="#maa44ed3590" y="541.28"/>
      </g>
     </g>
     <g id="text_16">
      <!-- Jun -->
      <g style="fill:#555555;" transform="translate(860.183742 558.917812)scale(0.14 -0.14)">
       <use xlink:href="#DejaVuSans-Bold-4a"/>
       <use x="37.207031" xlink:href="#DejaVuSans-Bold-75"/>
       <use x="108.398438" xlink:href="#DejaVuSans-Bold-6e"/>
      </g>
     </g>
    </g>
    <g id="xtick_17">
     <g id="line2d_17">
      <g>
       <use style="fill:#555555;stroke:#555555;stroke-width:0.8;" x="921.717768" xlink:href="#maa44ed3590" y="541.28"/>
      </g>
     </g>
     <g id="text_17">
      <!-- Jul -->
      <g style="fill:#555555;" transform="translate(911.730736 558.917812)scale(0.14 -0.14)">
       <use xlink:href="#DejaVuSans-Bold-4a"/>
       <use x="37.207031" xlink:href="#DejaVuSans-Bold-75"/>
       <use x="108.398438" xlink:href="#DejaVuSans-Bold-6c"/>
      </g>
     </g>
    </g>
    <g id="xtick_18">
     <g id="line2d_18">
      <g>
       <use style="fill:#555555;stroke:#555555;stroke-width:0.8;" x="972.313443" xlink:href="#maa44ed3590" y="541.28"/>
      </g>
     </g>
     <g id="text_18">
      <!-- Aug -->
      <g style="fill:#555555;" transform="translate(956.902505 558.808437)scale(0.14 -0.14)">
       <use xlink:href="#DejaVuSans-Bold-41"/>
       <use x="77.392578" xlink:href="#DejaVuSans-Bold-75"/>
       <use x="148.583984" xlink:href="#DejaVuSans-Bold-67"/>
      </g>
     </g>
    </g>
    <g id="xtick_19">
     <g id="line2d_19">
      <g>
       <use style="fill:#555555;stroke:#555555;stroke-width:0.8;" x="1022.909118" xlink:href="#maa44ed3590" y="541.28"/>
      </g>
     </g>
     <g id="text_19">
      <!-- Sep -->
      <g style="fill:#555555;" transform="translate(1008.109587 558.917812)scale(0.14 -0.14)">
       <use xlink:href="#DejaVuSans-Bold-53"/>
       <use x="72.021484" xlink:href="#DejaVuSans-Bold-65"/>
       <use x="139.84375" xlink:href="#DejaVuSans-Bold-70"/>
      </g>
     </g>
    </g>
    <g id="xtick_20">
     <g id="line2d_20">
      <g>
       <use style="fill:#555555;stroke:#555555;stroke-width:0.8;" x="1071.872675" xlink:href="#maa44ed3590" y="541.28"/>
      </g>
     </g>
     <g id="text_20">
      <!-- Oct -->
      <g style="fill:#555555;" transform="translate(1058.426113 558.917812)scale(0.14 -0.14)">
       <use xlink:href="#DejaVuSans-Bold-4f"/>
       <use x="85.009766" xlink:href="#DejaVuSans-Bold-63"/>
       <use x="144.287109" xlink:href="#DejaVuSans-Bold-74"/>
      </g>
     </g>
    </g>
    <g id="xtick_21">
     <g id="line2d_21">
      <g>
       <use style="fill:#555555;stroke:#555555;stroke-width:0.8;" x="1122.468351" xlink:href="#maa44ed3590" y="541.28"/>
      </g>
     </g>
     <g id="text_21">
      <!-- Nov -->
      <g style="fill:#555555;" transform="translate(1107.237882 558.917812)scale(0.14 -0.14)">
       <use xlink:href="#DejaVuSans-Bold-4e"/>
       <use x="83.691406" xlink:href="#DejaVuSans-Bold-6f"/>
       <use x="152.392578" xlink:href="#DejaVuSans-Bold-76"/>
      </g>
     </g>
    </g>
   </g>
   <g id="matplotlib.axis_2">
    <g id="ytick_1">
     <g id="line2d_22">
      <defs>
       <path d="M 0 0 
L -3.5 0 
" id="mbdcc6384e2" style="stroke:#555555;stroke-width:0.8;"/>
      </defs>
      <g>
       <use style="fill:#555555;stroke:#555555;stroke-width:0.8;" x="87.95" xlink:href="#mbdcc6384e2" y="519.485405"/>
      </g>
     </g>
     <g id="text_22">
      <!-- 0 -->
      <g style="fill:#555555;" transform="translate(71.209063 524.804311)scale(0.14 -0.14)">
       <defs>
        <path d="M 2944 2338 
Q 2944 3213 2780 3570 
Q 2616 3928 2228 3928 
Q 1841 3928 1675 3570 
Q 1509 3213 1509 2338 
Q 1509 1453 1675 1090 
Q 1841 728 2228 728 
Q 2613 728 2778 1090 
Q 2944 1453 2944 2338 
z
M 4147 2328 
Q 4147 1169 3647 539 
Q 3147 -91 2228 -91 
Q 1306 -91 806 539 
Q 306 1169 306 2328 
Q 306 3491 806 4120 
Q 1306 4750 2228 4750 
Q 3147 4750 3647 4120 
Q 4147 3491 4147 2328 
z
" id="DejaVuSans-Bold-30" transform="scale(0.015625)"/>
       </defs>
       <use xlink:href="#DejaVuSans-Bold-30"/>
      </g>
     </g>
    </g>
    <g id="ytick_2">
     <g id="line2d_23">
      <g>
       <use style="fill:#555555;stroke:#555555;stroke-width:0.8;" x="87.95" xlink:href="#mbdcc6384e2" y="448.872754"/>
      </g>
     </g>
     <g id="text_23">
      <!-- 2000 -->
      <g style="fill:#555555;" transform="translate(41.98625 454.19166)scale(0.14 -0.14)">
       <defs>
        <path d="M 1844 884 
L 3897 884 
L 3897 0 
L 506 0 
L 506 884 
L 2209 2388 
Q 2438 2594 2547 2791 
Q 2656 2988 2656 3200 
Q 2656 3528 2436 3728 
Q 2216 3928 1850 3928 
Q 1569 3928 1234 3808 
Q 900 3688 519 3450 
L 519 4475 
Q 925 4609 1322 4679 
Q 1719 4750 2100 4750 
Q 2938 4750 3402 4381 
Q 3866 4013 3866 3353 
Q 3866 2972 3669 2642 
Q 3472 2313 2841 1759 
L 1844 884 
z
" id="DejaVuSans-Bold-32" transform="scale(0.015625)"/>
       </defs>
       <use xlink:href="#DejaVuSans-Bold-32"/>
       <use x="69.580078" xlink:href="#DejaVuSans-Bold-30"/>
       <use x="139.160156" xlink:href="#DejaVuSans-Bold-30"/>
       <use x="208.740234" xlink:href="#DejaVuSans-Bold-30"/>
      </g>
     </g>
    </g>
    <g id="ytick_3">
     <g id="line2d_24">
      <g>
       <use style="fill:#555555;stroke:#555555;stroke-width:0.8;" x="87.95" xlink:href="#mbdcc6384e2" y="378.260103"/>
      </g>
     </g>
     <g id="text_24">
      <!-- 4000 -->
      <g style="fill:#555555;" transform="translate(41.98625 383.579009)scale(0.14 -0.14)">
       <defs>
        <path d="M 2356 3675 
L 1038 1722 
L 2356 1722 
L 2356 3675 
z
M 2156 4666 
L 3494 4666 
L 3494 1722 
L 4159 1722 
L 4159 850 
L 3494 850 
L 3494 0 
L 2356 0 
L 2356 850 
L 288 850 
L 288 1881 
L 2156 4666 
z
" id="DejaVuSans-Bold-34" transform="scale(0.015625)"/>
       </defs>
       <use xlink:href="#DejaVuSans-Bold-34"/>
       <use x="69.580078" xlink:href="#DejaVuSans-Bold-30"/>
       <use x="139.160156" xlink:href="#DejaVuSans-Bold-30"/>
       <use x="208.740234" xlink:href="#DejaVuSans-Bold-30"/>
      </g>
     </g>
    </g>
    <g id="ytick_4">
     <g id="line2d_25">
      <g>
       <use style="fill:#555555;stroke:#555555;stroke-width:0.8;" x="87.95" xlink:href="#mbdcc6384e2" y="307.647451"/>
      </g>
     </g>
     <g id="text_25">
      <!-- 6000 -->
      <g style="fill:#555555;" transform="translate(41.98625 312.966358)scale(0.14 -0.14)">
       <defs>
        <path d="M 2316 2303 
Q 2000 2303 1842 2098 
Q 1684 1894 1684 1484 
Q 1684 1075 1842 870 
Q 2000 666 2316 666 
Q 2634 666 2792 870 
Q 2950 1075 2950 1484 
Q 2950 1894 2792 2098 
Q 2634 2303 2316 2303 
z
M 3803 4544 
L 3803 3681 
Q 3506 3822 3243 3889 
Q 2981 3956 2731 3956 
Q 2194 3956 1894 3657 
Q 1594 3359 1544 2772 
Q 1750 2925 1990 3001 
Q 2231 3078 2516 3078 
Q 3231 3078 3670 2659 
Q 4109 2241 4109 1563 
Q 4109 813 3618 361 
Q 3128 -91 2303 -91 
Q 1394 -91 895 523 
Q 397 1138 397 2266 
Q 397 3422 980 4083 
Q 1563 4744 2578 4744 
Q 2900 4744 3203 4694 
Q 3506 4644 3803 4544 
z
" id="DejaVuSans-Bold-36" transform="scale(0.015625)"/>
       </defs>
       <use xlink:href="#DejaVuSans-Bold-36"/>
       <use x="69.580078" xlink:href="#DejaVuSans-Bold-30"/>
       <use x="139.160156" xlink:href="#DejaVuSans-Bold-30"/>
       <use x="208.740234" xlink:href="#DejaVuSans-Bold-30"/>
      </g>
     </g>
    </g>
    <g id="ytick_5">
     <g id="line2d_26">
      <g>
       <use style="fill:#555555;stroke:#555555;stroke-width:0.8;" x="87.95" xlink:href="#mbdcc6384e2" y="237.0348"/>
      </g>
     </g>
     <g id="text_26">
      <!-- 8000 -->
      <g style="fill:#555555;" transform="translate(41.98625 242.353706)scale(0.14 -0.14)">
       <defs>
        <path d="M 2228 2088 
Q 1891 2088 1709 1903 
Q 1528 1719 1528 1375 
Q 1528 1031 1709 848 
Q 1891 666 2228 666 
Q 2563 666 2741 848 
Q 2919 1031 2919 1375 
Q 2919 1722 2741 1905 
Q 2563 2088 2228 2088 
z
M 1350 2484 
Q 925 2613 709 2878 
Q 494 3144 494 3541 
Q 494 4131 934 4440 
Q 1375 4750 2228 4750 
Q 3075 4750 3515 4442 
Q 3956 4134 3956 3541 
Q 3956 3144 3739 2878 
Q 3522 2613 3097 2484 
Q 3572 2353 3814 2058 
Q 4056 1763 4056 1313 
Q 4056 619 3595 264 
Q 3134 -91 2228 -91 
Q 1319 -91 855 264 
Q 391 619 391 1313 
Q 391 1763 633 2058 
Q 875 2353 1350 2484 
z
M 1631 3419 
Q 1631 3141 1786 2991 
Q 1941 2841 2228 2841 
Q 2509 2841 2662 2991 
Q 2816 3141 2816 3419 
Q 2816 3697 2662 3845 
Q 2509 3994 2228 3994 
Q 1941 3994 1786 3844 
Q 1631 3694 1631 3419 
z
" id="DejaVuSans-Bold-38" transform="scale(0.015625)"/>
       </defs>
       <use xlink:href="#DejaVuSans-Bold-38"/>
       <use x="69.580078" xlink:href="#DejaVuSans-Bold-30"/>
       <use x="139.160156" xlink:href="#DejaVuSans-Bold-30"/>
       <use x="208.740234" xlink:href="#DejaVuSans-Bold-30"/>
      </g>
     </g>
    </g>
    <g id="ytick_6">
     <g id="line2d_27">
      <g>
       <use style="fill:#555555;stroke:#555555;stroke-width:0.8;" x="87.95" xlink:href="#mbdcc6384e2" y="166.422149"/>
      </g>
     </g>
     <g id="text_27">
      <!-- 10000 -->
      <g style="fill:#555555;" transform="translate(32.245313 171.741055)scale(0.14 -0.14)">
       <defs>
        <path d="M 750 831 
L 1813 831 
L 1813 3847 
L 722 3622 
L 722 4441 
L 1806 4666 
L 2950 4666 
L 2950 831 
L 4013 831 
L 4013 0 
L 750 0 
L 750 831 
z
" id="DejaVuSans-Bold-31" transform="scale(0.015625)"/>
       </defs>
       <use xlink:href="#DejaVuSans-Bold-31"/>
       <use x="69.580078" xlink:href="#DejaVuSans-Bold-30"/>
       <use x="139.160156" xlink:href="#DejaVuSans-Bold-30"/>
       <use x="208.740234" xlink:href="#DejaVuSans-Bold-30"/>
       <use x="278.320312" xlink:href="#DejaVuSans-Bold-30"/>
      </g>
     </g>
    </g>
    <g id="ytick_7">
     <g id="line2d_28">
      <g>
       <use style="fill:#555555;stroke:#555555;stroke-width:0.8;" x="87.95" xlink:href="#mbdcc6384e2" y="95.809498"/>
      </g>
     </g>
     <g id="text_28">
      <!-- 12000 -->
      <g style="fill:#555555;" transform="translate(32.245313 101.128404)scale(0.14 -0.14)">
       <use xlink:href="#DejaVuSans-Bold-31"/>
       <use x="69.580078" xlink:href="#DejaVuSans-Bold-32"/>
       <use x="139.160156" xlink:href="#DejaVuSans-Bold-30"/>
       <use x="208.740234" xlink:href="#DejaVuSans-Bold-30"/>
       <use x="278.320312" xlink:href="#DejaVuSans-Bold-30"/>
      </g>
     </g>
    </g>
    <g id="text_29">
     <!-- New Cases -->
     <g style="fill:#555555;" transform="translate(24.917813 333.23875)rotate(-90)scale(0.16 -0.16)">
      <defs>
       <path d="M 628 4666 
L 1478 4666 
L 3547 763 
L 3547 4666 
L 4159 4666 
L 4159 0 
L 3309 0 
L 1241 3903 
L 1241 0 
L 628 0 
L 628 4666 
z
" id="DejaVuSans-4e" transform="scale(0.015625)"/>
       <path d="M 3597 1894 
L 3597 1613 
L 953 1613 
Q 991 1019 1311 708 
Q 1631 397 2203 397 
Q 2534 397 2845 478 
Q 3156 559 3463 722 
L 3463 178 
Q 3153 47 2828 -22 
Q 2503 -91 2169 -91 
Q 1331 -91 842 396 
Q 353 884 353 1716 
Q 353 2575 817 3079 
Q 1281 3584 2069 3584 
Q 2775 3584 3186 3129 
Q 3597 2675 3597 1894 
z
M 3022 2063 
Q 3016 2534 2758 2815 
Q 2500 3097 2075 3097 
Q 1594 3097 1305 2825 
Q 1016 2553 972 2059 
L 3022 2063 
z
" id="DejaVuSans-65" transform="scale(0.015625)"/>
       <path d="M 269 3500 
L 844 3500 
L 1563 769 
L 2278 3500 
L 2956 3500 
L 3675 769 
L 4391 3500 
L 4966 3500 
L 4050 0 
L 3372 0 
L 2619 2869 
L 1863 0 
L 1184 0 
L 269 3500 
z
" id="DejaVuSans-77" transform="scale(0.015625)"/>
       <path id="DejaVuSans-20" transform="scale(0.015625)"/>
       <path d="M 4122 4306 
L 4122 3641 
Q 3803 3938 3442 4084 
Q 3081 4231 2675 4231 
Q 1875 4231 1450 3742 
Q 1025 3253 1025 2328 
Q 1025 1406 1450 917 
Q 1875 428 2675 428 
Q 3081 428 3442 575 
Q 3803 722 4122 1019 
L 4122 359 
Q 3791 134 3420 21 
Q 3050 -91 2638 -91 
Q 1578 -91 968 557 
Q 359 1206 359 2328 
Q 359 3453 968 4101 
Q 1578 4750 2638 4750 
Q 3056 4750 3426 4639 
Q 3797 4528 4122 4306 
z
" id="DejaVuSans-43" transform="scale(0.015625)"/>
       <path d="M 2194 1759 
Q 1497 1759 1228 1600 
Q 959 1441 959 1056 
Q 959 750 1161 570 
Q 1363 391 1709 391 
Q 2188 391 2477 730 
Q 2766 1069 2766 1631 
L 2766 1759 
L 2194 1759 
z
M 3341 1997 
L 3341 0 
L 2766 0 
L 2766 531 
Q 2569 213 2275 61 
Q 1981 -91 1556 -91 
Q 1019 -91 701 211 
Q 384 513 384 1019 
Q 384 1609 779 1909 
Q 1175 2209 1959 2209 
L 2766 2209 
L 2766 2266 
Q 2766 2663 2505 2880 
Q 2244 3097 1772 3097 
Q 1472 3097 1187 3025 
Q 903 2953 641 2809 
L 641 3341 
Q 956 3463 1253 3523 
Q 1550 3584 1831 3584 
Q 2591 3584 2966 3190 
Q 3341 2797 3341 1997 
z
" id="DejaVuSans-61" transform="scale(0.015625)"/>
       <path d="M 2834 3397 
L 2834 2853 
Q 2591 2978 2328 3040 
Q 2066 3103 1784 3103 
Q 1356 3103 1142 2972 
Q 928 2841 928 2578 
Q 928 2378 1081 2264 
Q 1234 2150 1697 2047 
L 1894 2003 
Q 2506 1872 2764 1633 
Q 3022 1394 3022 966 
Q 3022 478 2636 193 
Q 2250 -91 1575 -91 
Q 1294 -91 989 -36 
Q 684 19 347 128 
L 347 722 
Q 666 556 975 473 
Q 1284 391 1588 391 
Q 1994 391 2212 530 
Q 2431 669 2431 922 
Q 2431 1156 2273 1281 
Q 2116 1406 1581 1522 
L 1381 1569 
Q 847 1681 609 1914 
Q 372 2147 372 2553 
Q 372 3047 722 3315 
Q 1072 3584 1716 3584 
Q 2034 3584 2315 3537 
Q 2597 3491 2834 3397 
z
" id="DejaVuSans-73" transform="scale(0.015625)"/>
      </defs>
      <use xlink:href="#DejaVuSans-4e"/>
      <use x="74.804688" xlink:href="#DejaVuSans-65"/>
      <use x="136.328125" xlink:href="#DejaVuSans-77"/>
      <use x="218.115234" xlink:href="#DejaVuSans-20"/>
      <use x="249.902344" xlink:href="#DejaVuSans-43"/>
      <use x="319.726562" xlink:href="#DejaVuSans-61"/>
      <use x="381.005859" xlink:href="#DejaVuSans-73"/>
      <use x="433.105469" xlink:href="#DejaVuSans-65"/>
      <use x="494.628906" xlink:href="#DejaVuSans-73"/>
     </g>
    </g>
   </g>
   <g id="line2d_29">
    <path clip-path="url(#p06d9ca52cf)" d="M 135.036621 518.073152 
L 136.668739 517.720089 
L 138.300858 518.355603 
L 139.932976 517.331719 
L 141.565095 514.895583 
L 143.197213 515.142727 
L 144.829332 515.001502 
L 146.46145 515.49579 
L 148.093569 511.75332 
L 149.725688 513.377411 
L 151.357806 509.952697 
L 152.989925 509.317183 
L 154.622043 507.23411 
L 156.254162 505.5041 
L 157.88628 500.667134 
L 159.518399 496.995276 
L 161.150518 498.125078 
L 162.782636 499.961007 
L 164.414755 493.040967 
L 166.046873 489.722173 
L 169.31111 478.282923 
L 170.943229 479.024356 
L 172.575347 480.930898 
L 174.207466 488.662983 
L 175.839585 490.03993 
L 177.471703 483.896629 
L 179.103822 481.248655 
L 180.73594 483.472953 
L 182.368059 484.108467 
L 184.000177 480.683753 
L 187.264415 491.875859 
L 188.896533 485.626639 
L 190.528652 476.835364 
L 192.16077 472.633911 
L 193.792889 473.551876 
L 195.425007 478.141698 
L 197.057126 485.626639 
L 198.689244 489.051352 
L 200.321363 493.711787 
L 201.953482 481.742943 
L 203.5856 475.917399 
L 205.217719 477.612103 
L 206.849837 483.367034 
L 208.481956 493.076274 
L 210.114074 494.206076 
L 211.746193 494.488527 
L 213.378312 488.627677 
L 215.01043 491.063813 
L 216.642549 496.642212 
L 218.274667 496.500987 
L 219.906786 505.186343 
L 221.538904 512.671284 
L 223.171023 505.786551 
L 224.803141 501.585098 
L 226.43526 502.608982 
L 228.067379 504.056541 
L 229.699497 507.551867 
L 231.331616 512.388834 
L 232.963734 508.222687 
L 234.595853 508.222687 
L 236.227971 506.739822 
L 237.86009 508.222687 
L 239.492209 509.317183 
L 241.124327 510.941274 
L 242.756446 513.165573 
L 244.388564 512.600672 
L 246.020683 511.612095 
L 247.652801 509.811472 
L 249.28492 512.353527 
L 250.917038 512.635978 
L 252.549157 515.072114 
L 254.181276 514.260069 
L 255.813394 515.566403 
L 257.445513 512.883122 
L 259.077631 510.517598 
L 260.70975 512.989041 
L 263.973987 513.377411 
L 265.606106 511.965158 
L 267.238224 514.930889 
L 268.870343 512.635978 
L 270.502461 513.200879 
L 272.13458 513.200879 
L 273.766698 514.507213 
L 275.398817 513.271492 
L 277.030935 515.813547 
L 278.663054 516.131304 
L 280.295173 516.201917 
L 281.927291 512.847816 
L 283.55941 511.823933 
L 285.191528 512.777203 
L 286.823647 511.047193 
L 288.455765 513.624555 
L 290.087884 513.695168 
L 291.720003 513.09496 
L 293.352121 513.76578 
L 294.98424 512.176996 
L 296.616358 513.09496 
L 298.248477 514.401294 
L 299.880595 513.871699 
L 301.512714 514.754358 
L 303.144832 515.49579 
L 304.776951 515.107421 
L 308.041188 516.307836 
L 309.673307 516.131304 
L 311.305425 517.084575 
L 312.937544 517.013962 
L 314.569662 516.660899 
L 316.201781 515.601709 
L 319.466018 516.766818 
L 321.098137 517.155188 
L 322.730255 516.802124 
L 324.362374 517.472945 
L 325.994492 517.296413 
L 327.626611 516.837431 
L 329.258729 516.802124 
L 330.890848 517.190494 
L 332.522967 516.94335 
L 334.155085 518.037846 
L 335.787204 518.28499 
L 337.419322 517.472945 
L 340.683559 517.190494 
L 342.315678 516.519674 
L 343.947796 516.131304 
L 345.579915 516.94335 
L 347.212034 516.025385 
L 350.476271 515.283952 
L 352.108389 515.637016 
L 353.740508 514.365988 
L 355.372626 514.365988 
L 357.004745 513.024348 
L 358.636864 513.518636 
L 360.268982 513.48333 
L 363.533219 514.012925 
L 366.797456 511.965158 
L 368.429575 512.106383 
L 370.061693 511.576788 
L 371.693812 510.729436 
L 373.325931 507.445948 
L 374.958049 507.445948 
L 376.590168 504.268379 
L 378.222286 506.810434 
L 379.854405 506.351452 
L 381.486523 502.291225 
L 383.118642 504.374298 
L 384.750761 498.125078 
L 386.382879 501.232035 
L 388.014998 502.397144 
L 389.647116 499.113655 
L 391.279235 491.699327 
L 392.911353 497.595483 
L 394.543472 496.500987 
L 396.17559 499.148962 
L 397.807709 497.348339 
L 399.439828 496.324456 
L 401.071946 501.867549 
L 402.704065 502.326531 
L 404.336183 502.079387 
L 405.968302 499.961007 
L 407.60042 500.737746 
L 409.232539 500.667134 
L 410.864658 501.585098 
L 412.496776 503.421027 
L 414.128895 499.254881 
L 415.761013 504.797974 
L 417.393132 499.290187 
L 419.02525 501.549792 
L 420.657369 501.796936 
L 423.921606 501.620404 
L 425.553725 500.914278 
L 427.185843 502.997351 
L 428.817962 494.064851 
L 430.45008 498.336916 
L 432.082199 493.252805 
L 433.714317 496.5716 
L 435.346436 487.003586 
L 436.978555 491.416876 
L 440.242792 479.236194 
L 441.87491 489.934011 
L 443.507029 474.611065 
L 445.139147 476.341075 
L 446.771266 481.107429 
L 448.403384 473.693101 
L 450.035503 470.903901 
L 451.667622 465.219583 
L 454.931859 450.461539 
L 456.563977 452.685837 
L 458.196096 454.380541 
L 459.828214 441.423119 
L 461.460333 440.505155 
L 463.092452 437.080441 
L 464.72457 429.948563 
L 466.356689 421.898721 
L 467.988807 424.158326 
L 469.620926 414.41378 
L 471.253044 417.026448 
L 472.885163 413.425203 
L 474.517281 403.468819 
L 476.1494 404.633928 
L 477.781519 385.180142 
L 479.413637 380.555014 
L 481.045756 378.86031 
L 482.677874 358.665092 
L 484.309993 359.93612 
L 485.942111 343.942354 
L 487.57423 315.273618 
L 489.206349 309.059704 
L 490.838467 290.771028 
L 492.470586 295.572688 
L 494.102704 279.296472 
L 495.734823 260.584119 
L 497.366941 263.479238 
L 498.99906 244.908111 
L 500.631178 238.76481 
L 502.263297 233.327636 
L 503.895416 231.809464 
L 505.527534 237.529089 
L 507.159653 231.950689 
L 510.42389 192.866587 
L 512.056008 167.410726 
L 513.688127 214.368139 
L 515.320246 160.490686 
L 516.952364 155.724332 
L 518.584483 157.030666 
L 520.216601 234.316213 
L 521.84872 157.772099 
L 523.480838 128.785606 
L 525.112957 174.507297 
L 526.745075 213.061805 
L 528.377194 227.678624 
L 530.009313 246.285057 
L 531.641431 251.15733 
L 533.27355 274.247667 
L 534.905668 264.361896 
L 536.537787 285.898755 
L 539.802024 354.640171 
L 541.434143 355.522829 
L 543.066261 329.431454 
L 544.69838 321.099161 
L 546.330498 305.246621 
L 547.962617 311.284003 
L 549.594735 328.195733 
L 552.858972 368.374331 
L 554.491091 357.676515 
L 556.12321 318.733638 
L 557.755328 310.048282 
L 559.387447 307.506226 
L 561.019565 330.314112 
L 562.651684 336.563332 
L 564.283802 380.131338 
L 565.915921 346.131346 
L 567.54804 361.736742 
L 569.180158 316.438726 
L 570.812277 361.842661 
L 572.444395 323.005703 
L 574.076514 358.064884 
L 575.708632 376.918462 
L 577.340751 346.201959 
L 578.972869 321.98182 
L 580.604988 311.495841 
L 582.237107 288.970405 
L 583.869225 280.779338 
L 585.501344 269.022331 
L 587.133462 303.445999 
L 588.765581 288.44081 
L 590.397699 212.002615 
L 592.029818 207.483406 
L 593.661937 197.421103 
L 595.294055 170.764827 
L 596.926174 220.758584 
L 598.558292 285.36916 
L 600.190411 125.254973 
L 601.822529 68.341176 
L 603.454648 97.362976 
L 605.086766 87.900881 
L 606.718885 60.609091 
L 608.351004 125.608036 
L 609.983122 172.706675 
L 611.615241 152.617376 
L 613.247359 113.674498 
L 614.879478 113.639192 
L 616.511596 172.953819 
L 618.143715 201.551943 
L 619.775834 258.289208 
L 621.407952 254.052449 
L 623.040071 185.875934 
L 624.672189 178.285074 
L 626.304308 231.068031 
L 627.936426 216.239374 
L 629.568545 258.359821 
L 631.200663 285.333854 
L 632.832782 294.619417 
L 634.464901 269.198863 
L 636.097019 177.790786 
L 637.729138 233.080492 
L 639.361256 260.690038 
L 640.993375 286.393043 
L 642.625493 327.136543 
L 644.257612 345.001544 
L 645.889731 304.434576 
L 647.521849 290.029595 
L 649.153968 306.764793 
L 650.786086 332.538411 
L 652.418205 322.405495 
L 654.050323 350.579943 
L 655.682442 367.844737 
L 657.31456 322.864478 
L 658.946679 314.532185 
L 660.578798 316.650564 
L 662.210916 327.207156 
L 663.843035 347.15523 
L 665.475153 375.11784 
L 667.107272 379.707662 
L 668.73939 352.663017 
L 670.371509 353.863432 
L 672.003628 364.243491 
L 673.635746 372.187415 
L 675.267865 389.664046 
L 676.899983 405.163523 
L 678.532102 394.218562 
L 680.16422 377.624589 
L 681.796339 371.234144 
L 683.428457 367.067997 
L 685.060576 375.11784 
L 686.692695 381.155221 
L 688.324813 439.799028 
L 689.956932 457.381578 
L 691.58905 407.458434 
L 693.221169 363.184302 
L 694.853287 366.714934 
L 696.485406 372.187415 
L 698.117525 398.56124 
L 699.749643 419.144828 
L 701.381762 424.511389 
L 703.01388 400.5737 
L 704.645999 358.559173 
L 706.278117 354.393027 
L 707.910236 359.229993 
L 709.542354 354.640171 
L 711.174473 371.94027 
L 712.806592 385.003611 
L 714.43871 365.267375 
L 716.070829 343.448066 
L 717.702947 339.811514 
L 719.335066 345.70767 
L 720.967184 355.875892 
L 722.599303 387.12199 
L 724.231422 379.495824 
L 725.86354 342.141732 
L 727.495659 375.011921 
L 729.127777 354.887315 
L 730.759896 331.938203 
L 732.392014 360.324489 
L 734.024133 382.355636 
L 735.656251 368.162494 
L 737.28837 333.809439 
L 738.920489 332.467798 
L 740.552607 308.53011 
L 742.184726 294.407579 
L 743.816844 309.306849 
L 745.448963 325.230002 
L 747.081081 345.001544 
L 748.7132 310.895633 
L 750.345319 303.022323 
L 751.977437 260.054524 
L 753.609556 251.086718 
L 756.873793 297.055554 
L 758.505911 321.487531 
L 760.13803 252.710809 
L 761.770148 248.050374 
L 763.402267 252.640196 
L 765.034386 209.425253 
L 766.666504 255.747153 
L 768.298623 280.073211 
L 769.930741 312.766869 
L 771.56286 250.133447 
L 773.194978 243.425245 
L 774.827097 264.785572 
L 776.459216 251.263249 
L 778.091334 277.213399 
L 779.723453 331.161464 
L 781.355571 323.217541 
L 782.98769 294.619417 
L 784.619808 245.473012 
L 786.251927 249.038951 
L 787.884045 249.074257 
L 789.516164 232.021302 
L 791.148283 284.415889 
L 792.780401 282.156284 
L 794.41252 327.418994 
L 796.044638 212.53221 
L 797.676757 205.61217 
L 799.308875 228.1023 
L 800.940994 218.604898 
L 802.573113 266.762726 
L 804.205231 278.660958 
L 805.83735 220.370214 
L 807.469468 181.286112 
L 809.101587 193.396182 
L 810.733705 234.845808 
L 812.365824 236.328674 
L 813.997942 299.668222 
L 815.630061 332.185348 
L 817.26218 214.050382 
L 818.894298 262.349436 
L 820.526417 245.367093 
L 822.158535 315.308924 
L 823.790654 326.677561 
L 825.422772 195.161498 
L 827.054891 245.578931 
L 830.319128 281.061788 
L 831.951247 256.135522 
L 833.583365 257.371244 
L 836.847602 312.555031 
L 838.479721 324.417956 
L 840.111839 295.607994 
L 841.743958 307.223775 
L 843.376077 323.782442 
L 845.008195 361.595517 
L 846.640314 363.290221 
L 848.272432 418.579927 
L 849.904551 331.479221 
L 851.536669 358.912236 
L 853.168788 356.511406 
L 854.800906 373.38783 
L 856.433025 407.458434 
L 858.065144 398.631853 
L 859.697262 423.169749 
L 861.329381 431.784492 
L 862.961499 422.816686 
L 864.593618 400.326556 
L 866.225736 383.944421 
L 867.857855 401.385746 
L 869.489974 426.912219 
L 871.122092 448.166627 
L 872.754211 431.925718 
L 874.386329 429.136518 
L 876.018448 422.00464 
L 877.650566 434.926755 
L 879.282685 444.706607 
L 880.914803 464.125087 
L 882.546922 467.655719 
L 884.179041 468.785522 
L 885.811159 457.664029 
L 887.443278 463.80733 
L 889.075396 470.409613 
L 890.707515 475.740868 
L 892.339633 482.73152 
L 893.971752 488.451145 
L 895.603871 482.766827 
L 897.235989 483.331728 
L 898.868108 482.096006 
L 900.500226 488.062775 
L 902.132345 495.053428 
L 903.764463 494.382608 
L 905.396582 499.396106 
L 907.0287 494.84159 
L 908.660819 496.006699 
L 910.292938 494.912203 
L 911.925056 496.677519 
L 913.557175 499.890394 
L 915.189293 501.796936 
L 916.821412 499.466719 
L 918.45353 500.843665 
L 920.085649 497.030582 
L 921.717768 490.463606 
L 923.349886 486.297459 
L 924.982005 479.94232 
L 926.614123 477.117814 
L 928.246242 466.102241 
L 929.87836 442.093939 
L 931.510479 392.347327 
L 933.142597 329.007778 
L 934.774716 276.43666 
L 936.406835 158.513532 
L 939.671072 221.817774 
L 941.30319 244.025453 
L 942.935309 152.087781 
L 944.567427 131.892562 
L 946.199546 121.936179 
L 947.831665 129.315201 
L 949.463783 159.925785 
L 951.095902 206.177072 
L 952.72802 280.17913 
L 954.360139 277.38993 
L 955.992257 299.385771 
L 957.624376 294.407579 
L 959.256494 333.774132 
L 960.888613 356.829163 
L 962.520732 384.120953 
L 964.15285 378.930923 
L 965.784969 397.89042 
L 967.417087 362.301643 
L 969.049206 398.278789 
L 970.681324 415.614195 
L 972.313443 437.821874 
L 973.945562 445.377428 
L 975.57768 441.458426 
L 977.209799 420.874838 
L 978.841917 401.880034 
L 980.474036 416.885223 
L 982.106154 434.856143 
L 983.738273 438.033712 
L 985.370391 447.56642 
L 987.00251 443.153129 
L 988.634629 444.671301 
L 990.266747 428.854067 
L 991.898866 425.429354 
L 993.530984 438.139631 
L 995.163103 439.657803 
L 996.795221 440.540461 
L 998.42734 438.104325 
L 1000.059459 421.157288 
L 1001.691577 431.784492 
L 1003.323696 441.529038 
L 1004.955814 433.337971 
L 1006.587933 432.561231 
L 1008.220051 435.385738 
L 1009.85217 432.631844 
L 1011.484288 420.027486 
L 1013.116407 427.229976 
L 1014.748526 420.698306 
L 1016.380644 432.984907 
L 1019.644881 442.835372 
L 1021.277 439.128208 
L 1022.909118 420.94545 
L 1024.541237 420.980757 
L 1026.173356 430.125095 
L 1027.805474 422.463622 
L 1029.437593 436.233089 
L 1031.069711 444.812526 
L 1032.70183 432.208168 
L 1034.333948 420.839531 
L 1035.966067 436.268396 
L 1037.598185 425.005678 
L 1039.230304 441.493732 
L 1040.862423 445.518653 
L 1042.494541 457.628723 
L 1044.12666 448.766835 
L 1045.758778 435.632882 
L 1047.390897 445.624572 
L 1049.023015 444.353544 
L 1050.655134 448.343159 
L 1052.287253 460.665067 
L 1053.919371 471.68064 
L 1055.55149 460.735679 
L 1057.183608 452.509305 
L 1058.815727 455.475037 
L 1060.447845 459.641183 
L 1062.079964 462.924672 
L 1063.712082 462.995284 
L 1065.344201 470.444919 
L 1066.97632 458.758525 
L 1068.608438 457.593416 
L 1070.240557 459.146895 
L 1071.872675 458.6173 
L 1073.504794 460.417922 
L 1075.136912 462.606915 
L 1076.769031 461.300581 
L 1076.769031 461.300581 
" style="fill:none;stroke:#000000;stroke-dasharray:1.5,2.475;stroke-dashoffset:0;stroke-opacity:0.5;stroke-width:1.5;"/>
   </g>
   <g id="line2d_30">
    <path clip-path="url(#p06d9ca52cf)" d="M 135.036621 518.390909 
L 138.300858 517.367026 
L 144.829332 514.719051 
L 146.46145 513.942312 
L 148.093569 513.024348 
L 149.725688 511.859239 
L 151.357806 510.446986 
L 152.989925 508.646363 
L 154.622043 506.492677 
L 156.254162 504.091847 
L 162.782636 495.477104 
L 164.414755 492.44076 
L 167.678992 485.414801 
L 169.31111 483.11989 
L 170.943229 482.660908 
L 172.575347 483.296421 
L 174.207466 484.320305 
L 175.839585 485.026431 
L 177.471703 484.955819 
L 180.73594 483.508259 
L 182.368059 483.755404 
L 184.000177 484.602755 
L 185.632296 485.026431 
L 187.264415 484.249692 
L 188.896533 482.307844 
L 190.528652 479.977627 
L 192.16077 478.282923 
L 193.792889 478.212311 
L 195.425007 480.401303 
L 197.057126 483.155196 
L 198.689244 484.885206 
L 200.321363 484.920512 
L 201.953482 483.720097 
L 203.5856 482.802133 
L 205.217719 483.261115 
L 206.849837 485.238269 
L 208.481956 488.098082 
L 210.114074 490.498912 
L 211.746193 492.05239 
L 213.378312 492.864436 
L 215.01043 494.029544 
L 216.642549 496.606906 
L 219.906786 502.679594 
L 221.538904 504.515523 
L 223.171023 505.045118 
L 226.43526 505.151037 
L 228.067379 505.645326 
L 229.699497 506.881047 
L 231.331616 507.940237 
L 232.963734 508.434525 
L 236.227971 508.540444 
L 237.86009 508.858201 
L 241.124327 510.658824 
L 242.756446 511.329644 
L 244.388564 511.682707 
L 247.652801 511.965158 
L 249.28492 512.318221 
L 252.549157 513.624555 
L 254.181276 513.871699 
L 255.813394 513.695168 
L 259.077631 512.918429 
L 260.70975 512.706591 
L 262.341868 512.777203 
L 265.606106 513.200879 
L 270.502461 513.412717 
L 273.766698 514.012925 
L 275.398817 514.54252 
L 277.030935 514.860277 
L 278.663054 514.860277 
L 280.295173 514.471907 
L 283.55941 513.09496 
L 285.191528 512.706591 
L 286.823647 512.600672 
L 290.087884 513.059654 
L 294.98424 513.306798 
L 296.616358 513.48333 
L 299.880595 514.224763 
L 303.144832 515.072114 
L 309.673307 516.378449 
L 312.937544 516.55498 
L 316.201781 516.484368 
L 317.833899 516.484368 
L 325.994492 517.084575 
L 329.258729 517.084575 
L 335.787204 517.649476 
L 339.051441 517.331719 
L 345.579915 516.27253 
L 348.844152 515.742935 
L 350.476271 515.460484 
L 355.372626 514.15415 
L 357.004745 513.836393 
L 360.268982 513.553942 
L 363.533219 513.236186 
L 365.165338 512.918429 
L 366.797456 512.42414 
L 368.429575 511.718014 
L 370.061693 510.835355 
L 373.325931 508.469832 
L 376.590168 506.351452 
L 378.222286 505.610019 
L 384.750761 501.655711 
L 386.382879 500.384683 
L 388.014998 499.396106 
L 389.647116 498.160385 
L 391.279235 497.454258 
L 392.911353 496.995276 
L 394.543472 496.85405 
L 396.17559 497.383645 
L 397.807709 498.336916 
L 401.071946 499.996313 
L 402.704065 500.631827 
L 404.336183 501.020197 
L 405.968302 501.161422 
L 409.232539 501.126116 
L 410.864658 501.443873 
L 414.128895 501.691017 
L 417.393132 501.549792 
L 419.02525 501.443873 
L 420.657369 501.549792 
L 422.289487 501.514485 
L 423.921606 501.161422 
L 425.553725 500.525908 
L 428.817962 498.089772 
L 433.714317 492.687904 
L 438.610673 486.19154 
L 440.242792 483.755404 
L 441.87491 482.0607 
L 443.507029 480.012933 
L 445.139147 478.177004 
L 446.771266 476.093931 
L 448.403384 472.775136 
L 450.035503 468.962053 
L 453.29974 459.782409 
L 454.931859 455.580956 
L 459.828214 444.459463 
L 463.092452 435.244512 
L 464.72457 430.125095 
L 467.988807 421.863415 
L 469.620926 417.944413 
L 471.253044 414.484393 
L 472.885163 409.965183 
L 474.517281 404.139639 
L 476.1494 397.749194 
L 479.413637 381.578897 
L 481.045756 373.034766 
L 482.677874 362.513481 
L 484.309993 351.144845 
L 489.206349 311.036859 
L 490.838467 298.503113 
L 494.102704 277.954832 
L 497.366941 258.359821 
L 498.99906 249.321401 
L 500.631178 242.683812 
L 503.895416 233.645393 
L 505.527534 228.420057 
L 508.791771 211.155263 
L 512.056008 189.830243 
L 513.688127 180.43876 
L 515.320246 177.755479 
L 516.952364 175.848938 
L 518.584483 174.118928 
L 520.216601 171.470953 
L 521.84872 172.671368 
L 523.480838 176.837515 
L 525.112957 187.146962 
L 526.745075 200.598672 
L 528.377194 220.864503 
L 530.009313 239.223792 
L 531.641431 253.063872 
L 533.27355 265.738843 
L 534.905668 280.955869 
L 538.169905 314.885248 
L 539.802024 327.171849 
L 541.434143 332.785555 
L 543.066261 331.020239 
L 544.69838 325.72429 
L 546.330498 322.158351 
L 547.962617 324.806326 
L 549.594735 332.679636 
L 551.226854 339.634982 
L 552.858972 342.671326 
L 554.491091 339.246613 
L 557.755328 326.077353 
L 559.387447 326.253885 
L 561.019565 331.337996 
L 562.651684 341.047235 
L 564.283802 346.837473 
L 565.915921 350.438718 
L 569.180158 345.884202 
L 570.812277 345.213382 
L 572.444395 347.649518 
L 574.076514 348.461564 
L 575.708632 347.543599 
L 577.340751 338.787631 
L 578.972869 327.101237 
L 580.604988 311.319309 
L 582.237107 298.4325 
L 583.869225 290.523883 
L 585.501344 281.979753 
L 587.133462 271.317242 
L 588.765581 256.629811 
L 590.397699 236.893575 
L 592.029818 219.875926 
L 593.661937 211.790777 
L 595.294055 204.906044 
L 596.926174 196.326607 
L 598.558292 179.697327 
L 600.190411 154.382692 
L 601.822529 125.890487 
L 603.454648 104.035871 
L 605.086766 95.456434 
L 606.718885 104.706692 
L 608.351004 117.98187 
L 609.983122 127.373353 
L 613.247359 143.614262 
L 614.879478 155.865557 
L 616.511596 174.789748 
L 618.143715 195.020273 
L 619.775834 210.237299 
L 621.407952 217.757546 
L 623.040071 216.062843 
L 624.672189 215.921617 
L 626.304308 221.252873 
L 627.936426 234.563357 
L 629.568545 251.792844 
L 631.200663 259.419011 
L 632.832782 258.112677 
L 636.097019 247.097103 
L 637.729138 250.451204 
L 639.361256 264.679653 
L 642.625493 301.89252 
L 644.257612 310.366038 
L 645.889731 313.402382 
L 647.521849 313.61422 
L 649.153968 315.979744 
L 650.786086 323.005703 
L 652.418205 331.373302 
L 654.050323 336.881089 
L 655.682442 336.951702 
L 657.31456 332.962087 
L 658.946679 329.996356 
L 660.578798 330.773095 
L 662.210916 336.987008 
L 663.843035 347.049311 
L 665.475153 355.840586 
L 667.107272 361.242454 
L 668.73939 363.502059 
L 670.371509 365.4086 
L 672.003628 369.53944 
L 673.635746 376.106417 
L 675.267865 383.202988 
L 676.899983 386.945459 
L 678.532102 386.098107 
L 680.16422 382.461555 
L 681.796339 378.260103 
L 683.428457 379.637049 
L 685.060576 388.640162 
L 686.692695 400.467781 
L 688.324813 408.764768 
L 689.956932 410.035796 
L 691.58905 403.115756 
L 693.221169 393.688967 
L 694.853287 386.627702 
L 696.485406 387.298522 
L 698.117525 394.359787 
L 699.749643 399.726349 
L 701.381762 398.278789 
L 703.01388 390.476091 
L 704.645999 378.471941 
L 706.278117 368.339025 
L 707.910236 363.713896 
L 709.542354 363.784509 
L 711.174473 365.373294 
L 712.806592 364.34941 
L 714.43871 360.289183 
L 716.070829 355.522829 
L 717.702947 353.545675 
L 719.335066 355.381604 
L 720.967184 359.053462 
L 722.599303 364.208185 
L 724.231422 366.044114 
L 725.86354 363.360833 
L 727.495659 359.653669 
L 729.127777 357.041001 
L 730.759896 357.252839 
L 732.392014 358.594479 
L 734.024133 357.041001 
L 735.656251 351.886277 
L 737.28837 342.24765 
L 738.920489 329.713905 
L 740.552607 319.157314 
L 742.184726 315.273618 
L 743.816844 315.803213 
L 745.448963 317.321385 
L 747.081081 315.026473 
L 748.7132 306.8001 
L 750.345319 294.513498 
L 751.977437 283.497925 
L 753.609556 279.014021 
L 755.241674 278.83749 
L 756.873793 279.331778 
L 758.505911 278.025444 
L 760.13803 269.163556 
L 761.770148 258.359821 
L 763.402267 250.698348 
L 765.034386 251.122024 
L 768.298623 263.973527 
L 769.930741 267.39824 
L 771.56286 267.11579 
L 773.194978 263.832301 
L 774.827097 265.880068 
L 776.459216 273.188478 
L 778.091334 285.792836 
L 779.723453 293.419002 
L 781.355571 292.818795 
L 782.98769 285.086709 
L 784.619808 271.24663 
L 786.251927 259.80738 
L 787.884045 255.500008 
L 789.516164 261.713922 
L 791.148283 267.468853 
L 792.780401 267.821916 
L 794.41252 261.608003 
L 797.676757 238.552972 
L 799.308875 235.551934 
L 800.940994 235.481322 
L 802.573113 238.411747 
L 804.205231 235.092952 
L 805.83735 227.466786 
L 807.469468 220.687971 
L 809.101587 221.605936 
L 810.733705 234.528051 
L 813.997942 264.008833 
L 815.630061 268.810493 
L 817.26218 269.79907 
L 818.894298 273.117865 
L 820.526417 271.070098 
L 822.158535 269.446007 
L 823.790654 269.198863 
L 825.422772 264.150058 
L 827.054891 260.336975 
L 828.687009 257.547775 
L 830.319128 259.489623 
L 831.951247 269.12825 
L 841.743958 321.840594 
L 843.376077 336.033737 
L 846.640314 359.93612 
L 848.272432 365.12615 
L 851.536669 366.644322 
L 853.168788 370.881081 
L 854.800906 378.648472 
L 856.433025 392.947534 
L 858.065144 404.775153 
L 859.697262 412.930914 
L 861.329381 414.908069 
L 864.593618 409.22375 
L 866.225736 408.976606 
L 867.857855 412.577851 
L 871.122092 426.064868 
L 872.754211 430.584077 
L 874.386329 432.490619 
L 876.018448 434.891449 
L 877.650566 439.481271 
L 880.914803 454.48646 
L 882.546922 460.312003 
L 884.179041 463.595492 
L 887.443278 467.726332 
L 889.075396 471.256964 
L 892.339633 479.589257 
L 893.971752 482.237232 
L 895.603871 483.755404 
L 897.235989 485.061738 
L 898.868108 486.57991 
L 900.500226 488.874821 
L 902.132345 491.628714 
L 903.764463 493.958932 
L 905.396582 495.441797 
L 907.0287 496.042005 
L 908.660819 496.253843 
L 911.925056 497.595483 
L 913.557175 498.725286 
L 915.189293 499.3608 
L 916.821412 499.078349 
L 918.45353 497.524871 
L 920.085649 494.559139 
L 921.717768 490.604831 
L 923.349886 485.697252 
L 924.982005 478.706599 
L 926.614123 467.161431 
L 928.246242 447.56642 
L 929.87836 417.979719 
L 931.510479 373.776199 
L 934.774716 275.765839 
L 936.406835 240.247676 
L 938.038953 215.780392 
L 939.671072 200.280915 
L 942.935309 172.106467 
L 944.567427 156.465765 
L 946.199546 148.663067 
L 947.831665 156.32454 
L 949.463783 179.979778 
L 952.72802 242.719119 
L 954.360139 270.717035 
L 955.992257 293.736759 
L 957.624376 314.108509 
L 959.256494 331.97351 
L 960.888613 351.215457 
L 962.520732 365.302681 
L 964.15285 376.636012 
L 967.417087 391.958957 
L 969.049206 401.809422 
L 970.681324 414.025411 
L 972.313443 423.840569 
L 973.945562 429.736725 
L 975.57768 429.065905 
L 977.209799 426.029561 
L 978.841917 423.452199 
L 980.474036 424.617308 
L 982.106154 428.995293 
L 983.738273 435.067981 
L 985.370391 439.410659 
L 987.00251 439.904947 
L 988.634629 438.316163 
L 990.266747 436.374315 
L 991.898866 435.209206 
L 993.530984 435.562269 
L 996.795221 435.385738 
L 998.42734 434.962062 
L 1000.059459 433.796953 
L 1001.691577 433.302664 
L 1004.955814 433.902872 
L 1006.587933 433.514502 
L 1008.220051 431.890411 
L 1009.85217 429.242437 
L 1011.484288 427.688959 
L 1013.116407 427.406508 
L 1014.748526 428.854067 
L 1016.380644 431.643267 
L 1018.012763 433.867566 
L 1019.644881 433.938178 
L 1021.277 432.773069 
L 1022.909118 429.772032 
L 1024.541237 427.900796 
L 1026.173356 428.183247 
L 1027.805474 429.877951 
L 1029.437593 431.749186 
L 1031.069711 433.05552 
L 1032.70183 432.314087 
L 1034.333948 432.172862 
L 1035.966067 432.596538 
L 1037.598185 435.244512 
L 1039.230304 439.622497 
L 1040.862423 443.470886 
L 1042.494541 445.483347 
L 1044.12666 446.295392 
L 1045.758778 445.659878 
L 1047.390897 446.154167 
L 1049.023015 448.590303 
L 1052.287253 456.675452 
L 1053.919371 458.864444 
L 1055.55149 459.605877 
L 1057.183608 459.394039 
L 1058.815727 459.040976 
L 1060.447845 459.817715 
L 1062.079964 461.300581 
L 1063.712082 462.500996 
L 1065.344201 462.571608 
L 1066.97632 461.653644 
L 1068.608438 460.523841 
L 1070.240557 459.888328 
L 1071.872675 459.641183 
L 1075.136912 460.806292 
L 1076.769031 461.194662 
L 1076.769031 461.194662 
" style="fill:none;stroke:#000000;stroke-linecap:square;stroke-width:1.5;"/>
   </g>
   <g id="patch_3">
    <path d="M 87.95 541.28 
L 87.95 37.72 
" style="fill:none;stroke:#555555;stroke-linecap:square;stroke-linejoin:miter;"/>
   </g>
   <g id="patch_4">
    <path d="M 87.95 541.28 
L 1123.855651 541.28 
" style="fill:none;stroke:#555555;stroke-linecap:square;stroke-linejoin:miter;"/>
   </g>
   <g id="text_30">
    <!-- Positive COVID-19 tests - last updated on 04 October 2021 -->
    <g style="fill:#555555;" transform="translate(341.353451 27.72)scale(0.18 -0.18)">
     <defs>
      <path d="M 1259 4147 
L 1259 2394 
L 2053 2394 
Q 2494 2394 2734 2622 
Q 2975 2850 2975 3272 
Q 2975 3691 2734 3919 
Q 2494 4147 2053 4147 
L 1259 4147 
z
M 628 4666 
L 2053 4666 
Q 2838 4666 3239 4311 
Q 3641 3956 3641 3272 
Q 3641 2581 3239 2228 
Q 2838 1875 2053 1875 
L 1259 1875 
L 1259 0 
L 628 0 
L 628 4666 
z
" id="DejaVuSans-50" transform="scale(0.015625)"/>
      <path d="M 1959 3097 
Q 1497 3097 1228 2736 
Q 959 2375 959 1747 
Q 959 1119 1226 758 
Q 1494 397 1959 397 
Q 2419 397 2687 759 
Q 2956 1122 2956 1747 
Q 2956 2369 2687 2733 
Q 2419 3097 1959 3097 
z
M 1959 3584 
Q 2709 3584 3137 3096 
Q 3566 2609 3566 1747 
Q 3566 888 3137 398 
Q 2709 -91 1959 -91 
Q 1206 -91 779 398 
Q 353 888 353 1747 
Q 353 2609 779 3096 
Q 1206 3584 1959 3584 
z
" id="DejaVuSans-6f" transform="scale(0.015625)"/>
      <path d="M 603 3500 
L 1178 3500 
L 1178 0 
L 603 0 
L 603 3500 
z
M 603 4863 
L 1178 4863 
L 1178 4134 
L 603 4134 
L 603 4863 
z
" id="DejaVuSans-69" transform="scale(0.015625)"/>
      <path d="M 1172 4494 
L 1172 3500 
L 2356 3500 
L 2356 3053 
L 1172 3053 
L 1172 1153 
Q 1172 725 1289 603 
Q 1406 481 1766 481 
L 2356 481 
L 2356 0 
L 1766 0 
Q 1100 0 847 248 
Q 594 497 594 1153 
L 594 3053 
L 172 3053 
L 172 3500 
L 594 3500 
L 594 4494 
L 1172 4494 
z
" id="DejaVuSans-74" transform="scale(0.015625)"/>
      <path d="M 191 3500 
L 800 3500 
L 1894 563 
L 2988 3500 
L 3597 3500 
L 2284 0 
L 1503 0 
L 191 3500 
z
" id="DejaVuSans-76" transform="scale(0.015625)"/>
      <path d="M 2522 4238 
Q 1834 4238 1429 3725 
Q 1025 3213 1025 2328 
Q 1025 1447 1429 934 
Q 1834 422 2522 422 
Q 3209 422 3611 934 
Q 4013 1447 4013 2328 
Q 4013 3213 3611 3725 
Q 3209 4238 2522 4238 
z
M 2522 4750 
Q 3503 4750 4090 4092 
Q 4678 3434 4678 2328 
Q 4678 1225 4090 567 
Q 3503 -91 2522 -91 
Q 1538 -91 948 565 
Q 359 1222 359 2328 
Q 359 3434 948 4092 
Q 1538 4750 2522 4750 
z
" id="DejaVuSans-4f" transform="scale(0.015625)"/>
      <path d="M 1831 0 
L 50 4666 
L 709 4666 
L 2188 738 
L 3669 4666 
L 4325 4666 
L 2547 0 
L 1831 0 
z
" id="DejaVuSans-56" transform="scale(0.015625)"/>
      <path d="M 628 4666 
L 1259 4666 
L 1259 0 
L 628 0 
L 628 4666 
z
" id="DejaVuSans-49" transform="scale(0.015625)"/>
      <path d="M 1259 4147 
L 1259 519 
L 2022 519 
Q 2988 519 3436 956 
Q 3884 1394 3884 2338 
Q 3884 3275 3436 3711 
Q 2988 4147 2022 4147 
L 1259 4147 
z
M 628 4666 
L 1925 4666 
Q 3281 4666 3915 4102 
Q 4550 3538 4550 2338 
Q 4550 1131 3912 565 
Q 3275 0 1925 0 
L 628 0 
L 628 4666 
z
" id="DejaVuSans-44" transform="scale(0.015625)"/>
      <path d="M 313 2009 
L 1997 2009 
L 1997 1497 
L 313 1497 
L 313 2009 
z
" id="DejaVuSans-2d" transform="scale(0.015625)"/>
      <path d="M 794 531 
L 1825 531 
L 1825 4091 
L 703 3866 
L 703 4441 
L 1819 4666 
L 2450 4666 
L 2450 531 
L 3481 531 
L 3481 0 
L 794 0 
L 794 531 
z
" id="DejaVuSans-31" transform="scale(0.015625)"/>
      <path d="M 703 97 
L 703 672 
Q 941 559 1184 500 
Q 1428 441 1663 441 
Q 2288 441 2617 861 
Q 2947 1281 2994 2138 
Q 2813 1869 2534 1725 
Q 2256 1581 1919 1581 
Q 1219 1581 811 2004 
Q 403 2428 403 3163 
Q 403 3881 828 4315 
Q 1253 4750 1959 4750 
Q 2769 4750 3195 4129 
Q 3622 3509 3622 2328 
Q 3622 1225 3098 567 
Q 2575 -91 1691 -91 
Q 1453 -91 1209 -44 
Q 966 3 703 97 
z
M 1959 2075 
Q 2384 2075 2632 2365 
Q 2881 2656 2881 3163 
Q 2881 3666 2632 3958 
Q 2384 4250 1959 4250 
Q 1534 4250 1286 3958 
Q 1038 3666 1038 3163 
Q 1038 2656 1286 2365 
Q 1534 2075 1959 2075 
z
" id="DejaVuSans-39" transform="scale(0.015625)"/>
      <path d="M 603 4863 
L 1178 4863 
L 1178 0 
L 603 0 
L 603 4863 
z
" id="DejaVuSans-6c" transform="scale(0.015625)"/>
      <path d="M 544 1381 
L 544 3500 
L 1119 3500 
L 1119 1403 
Q 1119 906 1312 657 
Q 1506 409 1894 409 
Q 2359 409 2629 706 
Q 2900 1003 2900 1516 
L 2900 3500 
L 3475 3500 
L 3475 0 
L 2900 0 
L 2900 538 
Q 2691 219 2414 64 
Q 2138 -91 1772 -91 
Q 1169 -91 856 284 
Q 544 659 544 1381 
z
M 1991 3584 
L 1991 3584 
z
" id="DejaVuSans-75" transform="scale(0.015625)"/>
      <path d="M 1159 525 
L 1159 -1331 
L 581 -1331 
L 581 3500 
L 1159 3500 
L 1159 2969 
Q 1341 3281 1617 3432 
Q 1894 3584 2278 3584 
Q 2916 3584 3314 3078 
Q 3713 2572 3713 1747 
Q 3713 922 3314 415 
Q 2916 -91 2278 -91 
Q 1894 -91 1617 61 
Q 1341 213 1159 525 
z
M 3116 1747 
Q 3116 2381 2855 2742 
Q 2594 3103 2138 3103 
Q 1681 3103 1420 2742 
Q 1159 2381 1159 1747 
Q 1159 1113 1420 752 
Q 1681 391 2138 391 
Q 2594 391 2855 752 
Q 3116 1113 3116 1747 
z
" id="DejaVuSans-70" transform="scale(0.015625)"/>
      <path d="M 2906 2969 
L 2906 4863 
L 3481 4863 
L 3481 0 
L 2906 0 
L 2906 525 
Q 2725 213 2448 61 
Q 2172 -91 1784 -91 
Q 1150 -91 751 415 
Q 353 922 353 1747 
Q 353 2572 751 3078 
Q 1150 3584 1784 3584 
Q 2172 3584 2448 3432 
Q 2725 3281 2906 2969 
z
M 947 1747 
Q 947 1113 1208 752 
Q 1469 391 1925 391 
Q 2381 391 2643 752 
Q 2906 1113 2906 1747 
Q 2906 2381 2643 2742 
Q 2381 3103 1925 3103 
Q 1469 3103 1208 2742 
Q 947 2381 947 1747 
z
" id="DejaVuSans-64" transform="scale(0.015625)"/>
      <path d="M 3513 2113 
L 3513 0 
L 2938 0 
L 2938 2094 
Q 2938 2591 2744 2837 
Q 2550 3084 2163 3084 
Q 1697 3084 1428 2787 
Q 1159 2491 1159 1978 
L 1159 0 
L 581 0 
L 581 3500 
L 1159 3500 
L 1159 2956 
Q 1366 3272 1645 3428 
Q 1925 3584 2291 3584 
Q 2894 3584 3203 3211 
Q 3513 2838 3513 2113 
z
" id="DejaVuSans-6e" transform="scale(0.015625)"/>
      <path d="M 2034 4250 
Q 1547 4250 1301 3770 
Q 1056 3291 1056 2328 
Q 1056 1369 1301 889 
Q 1547 409 2034 409 
Q 2525 409 2770 889 
Q 3016 1369 3016 2328 
Q 3016 3291 2770 3770 
Q 2525 4250 2034 4250 
z
M 2034 4750 
Q 2819 4750 3233 4129 
Q 3647 3509 3647 2328 
Q 3647 1150 3233 529 
Q 2819 -91 2034 -91 
Q 1250 -91 836 529 
Q 422 1150 422 2328 
Q 422 3509 836 4129 
Q 1250 4750 2034 4750 
z
" id="DejaVuSans-30" transform="scale(0.015625)"/>
      <path d="M 2419 4116 
L 825 1625 
L 2419 1625 
L 2419 4116 
z
M 2253 4666 
L 3047 4666 
L 3047 1625 
L 3713 1625 
L 3713 1100 
L 3047 1100 
L 3047 0 
L 2419 0 
L 2419 1100 
L 313 1100 
L 313 1709 
L 2253 4666 
z
" id="DejaVuSans-34" transform="scale(0.015625)"/>
      <path d="M 3122 3366 
L 3122 2828 
Q 2878 2963 2633 3030 
Q 2388 3097 2138 3097 
Q 1578 3097 1268 2742 
Q 959 2388 959 1747 
Q 959 1106 1268 751 
Q 1578 397 2138 397 
Q 2388 397 2633 464 
Q 2878 531 3122 666 
L 3122 134 
Q 2881 22 2623 -34 
Q 2366 -91 2075 -91 
Q 1284 -91 818 406 
Q 353 903 353 1747 
Q 353 2603 823 3093 
Q 1294 3584 2113 3584 
Q 2378 3584 2631 3529 
Q 2884 3475 3122 3366 
z
" id="DejaVuSans-63" transform="scale(0.015625)"/>
      <path d="M 3116 1747 
Q 3116 2381 2855 2742 
Q 2594 3103 2138 3103 
Q 1681 3103 1420 2742 
Q 1159 2381 1159 1747 
Q 1159 1113 1420 752 
Q 1681 391 2138 391 
Q 2594 391 2855 752 
Q 3116 1113 3116 1747 
z
M 1159 2969 
Q 1341 3281 1617 3432 
Q 1894 3584 2278 3584 
Q 2916 3584 3314 3078 
Q 3713 2572 3713 1747 
Q 3713 922 3314 415 
Q 2916 -91 2278 -91 
Q 1894 -91 1617 61 
Q 1341 213 1159 525 
L 1159 0 
L 581 0 
L 581 4863 
L 1159 4863 
L 1159 2969 
z
" id="DejaVuSans-62" transform="scale(0.015625)"/>
      <path d="M 2631 2963 
Q 2534 3019 2420 3045 
Q 2306 3072 2169 3072 
Q 1681 3072 1420 2755 
Q 1159 2438 1159 1844 
L 1159 0 
L 581 0 
L 581 3500 
L 1159 3500 
L 1159 2956 
Q 1341 3275 1631 3429 
Q 1922 3584 2338 3584 
Q 2397 3584 2469 3576 
Q 2541 3569 2628 3553 
L 2631 2963 
z
" id="DejaVuSans-72" transform="scale(0.015625)"/>
      <path d="M 1228 531 
L 3431 531 
L 3431 0 
L 469 0 
L 469 531 
Q 828 903 1448 1529 
Q 2069 2156 2228 2338 
Q 2531 2678 2651 2914 
Q 2772 3150 2772 3378 
Q 2772 3750 2511 3984 
Q 2250 4219 1831 4219 
Q 1534 4219 1204 4116 
Q 875 4013 500 3803 
L 500 4441 
Q 881 4594 1212 4672 
Q 1544 4750 1819 4750 
Q 2544 4750 2975 4387 
Q 3406 4025 3406 3419 
Q 3406 3131 3298 2873 
Q 3191 2616 2906 2266 
Q 2828 2175 2409 1742 
Q 1991 1309 1228 531 
z
" id="DejaVuSans-32" transform="scale(0.015625)"/>
     </defs>
     <use xlink:href="#DejaVuSans-50"/>
     <use x="56.677734" xlink:href="#DejaVuSans-6f"/>
     <use x="117.859375" xlink:href="#DejaVuSans-73"/>
     <use x="169.958984" xlink:href="#DejaVuSans-69"/>
     <use x="197.742188" xlink:href="#DejaVuSans-74"/>
     <use x="236.951172" xlink:href="#DejaVuSans-69"/>
     <use x="264.734375" xlink:href="#DejaVuSans-76"/>
     <use x="323.914062" xlink:href="#DejaVuSans-65"/>
     <use x="385.4375" xlink:href="#DejaVuSans-20"/>
     <use x="417.224609" xlink:href="#DejaVuSans-43"/>
     <use x="487.048828" xlink:href="#DejaVuSans-4f"/>
     <use x="564.009766" xlink:href="#DejaVuSans-56"/>
     <use x="632.417969" xlink:href="#DejaVuSans-49"/>
     <use x="661.910156" xlink:href="#DejaVuSans-44"/>
     <use x="738.912109" xlink:href="#DejaVuSans-2d"/>
     <use x="774.996094" xlink:href="#DejaVuSans-31"/>
     <use x="838.619141" xlink:href="#DejaVuSans-39"/>
     <use x="902.242188" xlink:href="#DejaVuSans-20"/>
     <use x="934.029297" xlink:href="#DejaVuSans-74"/>
     <use x="973.238281" xlink:href="#DejaVuSans-65"/>
     <use x="1034.761719" xlink:href="#DejaVuSans-73"/>
     <use x="1086.861328" xlink:href="#DejaVuSans-74"/>
     <use x="1126.070312" xlink:href="#DejaVuSans-73"/>
     <use x="1178.169922" xlink:href="#DejaVuSans-20"/>
     <use x="1209.957031" xlink:href="#DejaVuSans-2d"/>
     <use x="1246.041016" xlink:href="#DejaVuSans-20"/>
     <use x="1277.828125" xlink:href="#DejaVuSans-6c"/>
     <use x="1305.611328" xlink:href="#DejaVuSans-61"/>
     <use x="1366.890625" xlink:href="#DejaVuSans-73"/>
     <use x="1418.990234" xlink:href="#DejaVuSans-74"/>
     <use x="1458.199219" xlink:href="#DejaVuSans-20"/>
     <use x="1489.986328" xlink:href="#DejaVuSans-75"/>
     <use x="1553.365234" xlink:href="#DejaVuSans-70"/>
     <use x="1616.841797" xlink:href="#DejaVuSans-64"/>
     <use x="1680.318359" xlink:href="#DejaVuSans-61"/>
     <use x="1741.597656" xlink:href="#DejaVuSans-74"/>
     <use x="1780.806641" xlink:href="#DejaVuSans-65"/>
     <use x="1842.330078" xlink:href="#DejaVuSans-64"/>
     <use x="1905.806641" xlink:href="#DejaVuSans-20"/>
     <use x="1937.59375" xlink:href="#DejaVuSans-6f"/>
     <use x="1998.775391" xlink:href="#DejaVuSans-6e"/>
     <use x="2062.154297" xlink:href="#DejaVuSans-20"/>
     <use x="2093.941406" xlink:href="#DejaVuSans-30"/>
     <use x="2157.564453" xlink:href="#DejaVuSans-34"/>
     <use x="2221.1875" xlink:href="#DejaVuSans-20"/>
     <use x="2252.974609" xlink:href="#DejaVuSans-4f"/>
     <use x="2331.685547" xlink:href="#DejaVuSans-63"/>
     <use x="2386.666016" xlink:href="#DejaVuSans-74"/>
     <use x="2425.875" xlink:href="#DejaVuSans-6f"/>
     <use x="2487.056641" xlink:href="#DejaVuSans-62"/>
     <use x="2550.533203" xlink:href="#DejaVuSans-65"/>
     <use x="2612.056641" xlink:href="#DejaVuSans-72"/>
     <use x="2653.169922" xlink:href="#DejaVuSans-20"/>
     <use x="2684.957031" xlink:href="#DejaVuSans-32"/>
     <use x="2748.580078" xlink:href="#DejaVuSans-30"/>
     <use x="2812.203125" xlink:href="#DejaVuSans-32"/>
     <use x="2875.826172" xlink:href="#DejaVuSans-31"/>
    </g>
   </g>
   <g id="legend_1">
    <g id="line2d_31">
     <path d="M 1001.39362 54.747969 
L 1027.39362 54.747969 
" style="fill:none;stroke:#000000;stroke-dasharray:1.5,2.475;stroke-dashoffset:0;stroke-opacity:0.5;stroke-width:1.5;"/>
    </g>
    <g id="line2d_32"/>
    <g id="text_31">
     <!-- Actual -->
     <g style="fill:#555555;" transform="translate(1037.79362 59.297969)scale(0.13 -0.13)">
      <use xlink:href="#DejaVuSans-Bold-41"/>
      <use x="77.392578" xlink:href="#DejaVuSans-Bold-63"/>
      <use x="136.669922" xlink:href="#DejaVuSans-Bold-74"/>
      <use x="184.472656" xlink:href="#DejaVuSans-Bold-75"/>
      <use x="255.664062" xlink:href="#DejaVuSans-Bold-61"/>
      <use x="323.144531" xlink:href="#DejaVuSans-Bold-6c"/>
     </g>
    </g>
    <g id="line2d_33">
     <path d="M 1001.39362 73.829531 
L 1027.39362 73.829531 
" style="fill:none;stroke:#000000;stroke-linecap:square;stroke-width:1.5;"/>
    </g>
    <g id="line2d_34"/>
    <g id="text_32">
     <!-- Smoothed -->
     <g style="fill:#555555;" transform="translate(1037.79362 78.379531)scale(0.13 -0.13)">
      <defs>
       <path d="M 3781 2919 
Q 3994 3244 4286 3414 
Q 4578 3584 4928 3584 
Q 5531 3584 5847 3212 
Q 6163 2841 6163 2131 
L 6163 0 
L 5038 0 
L 5038 1825 
Q 5041 1866 5042 1909 
Q 5044 1953 5044 2034 
Q 5044 2406 4934 2573 
Q 4825 2741 4581 2741 
Q 4263 2741 4089 2478 
Q 3916 2216 3909 1719 
L 3909 0 
L 2784 0 
L 2784 1825 
Q 2784 2406 2684 2573 
Q 2584 2741 2328 2741 
Q 2006 2741 1831 2477 
Q 1656 2213 1656 1722 
L 1656 0 
L 531 0 
L 531 3500 
L 1656 3500 
L 1656 2988 
Q 1863 3284 2130 3434 
Q 2397 3584 2719 3584 
Q 3081 3584 3359 3409 
Q 3638 3234 3781 2919 
z
" id="DejaVuSans-Bold-6d" transform="scale(0.015625)"/>
       <path d="M 4056 2131 
L 4056 0 
L 2931 0 
L 2931 347 
L 2931 1625 
Q 2931 2084 2911 2256 
Q 2891 2428 2841 2509 
Q 2775 2619 2662 2680 
Q 2550 2741 2406 2741 
Q 2056 2741 1856 2470 
Q 1656 2200 1656 1722 
L 1656 0 
L 538 0 
L 538 4863 
L 1656 4863 
L 1656 2988 
Q 1909 3294 2193 3439 
Q 2478 3584 2822 3584 
Q 3428 3584 3742 3212 
Q 4056 2841 4056 2131 
z
" id="DejaVuSans-Bold-68" transform="scale(0.015625)"/>
       <path d="M 2919 2988 
L 2919 4863 
L 4044 4863 
L 4044 0 
L 2919 0 
L 2919 506 
Q 2688 197 2409 53 
Q 2131 -91 1766 -91 
Q 1119 -91 703 423 
Q 288 938 288 1747 
Q 288 2556 703 3070 
Q 1119 3584 1766 3584 
Q 2128 3584 2408 3439 
Q 2688 3294 2919 2988 
z
M 2181 722 
Q 2541 722 2730 984 
Q 2919 1247 2919 1747 
Q 2919 2247 2730 2509 
Q 2541 2772 2181 2772 
Q 1825 2772 1636 2509 
Q 1447 2247 1447 1747 
Q 1447 1247 1636 984 
Q 1825 722 2181 722 
z
" id="DejaVuSans-Bold-64" transform="scale(0.015625)"/>
      </defs>
      <use xlink:href="#DejaVuSans-Bold-53"/>
      <use x="72.021484" xlink:href="#DejaVuSans-Bold-6d"/>
      <use x="176.220703" xlink:href="#DejaVuSans-Bold-6f"/>
      <use x="244.921875" xlink:href="#DejaVuSans-Bold-6f"/>
      <use x="313.623047" xlink:href="#DejaVuSans-Bold-74"/>
      <use x="361.425781" xlink:href="#DejaVuSans-Bold-68"/>
      <use x="432.617188" xlink:href="#DejaVuSans-Bold-65"/>
      <use x="500.439453" xlink:href="#DejaVuSans-Bold-64"/>
     </g>
    </g>
   </g>
  </g>
 </g>
 <defs>
  <clipPath id="p06d9ca52cf">
   <rect height="503.56" width="1035.905651" x="87.95" y="37.72"/>
  </clipPath>
 </defs>
</svg>
