<?xml version="1.0" encoding="utf-8" standalone="no"?>
<!DOCTYPE svg PUBLIC "-//W3C//DTD SVG 1.1//EN"
  "http://www.w3.org/Graphics/SVG/1.1/DTD/svg11.dtd">
<svg xmlns:xlink="http://www.w3.org/1999/xlink" width="1152pt" height="576pt" viewBox="0 0 1152 576" xmlns="http://www.w3.org/2000/svg" version="1.1">
 <metadata>
  <rdf:RDF xmlns:dc="http://purl.org/dc/elements/1.1/" xmlns:cc="http://creativecommons.org/ns#" xmlns:rdf="http://www.w3.org/1999/02/22-rdf-syntax-ns#">
   <cc:Work>
    <dc:type rdf:resource="http://purl.org/dc/dcmitype/StillImage"/>
    <dc:date>2021-11-29T14:31:08.739221</dc:date>
    <dc:format>image/svg+xml</dc:format>
    <dc:creator>
     <cc:Agent>
      <dc:title>Matplotlib v3.5.0, https://matplotlib.org/</dc:title>
     </cc:Agent>
    </dc:creator>
   </cc:Work>
  </rdf:RDF>
 </metadata>
 <defs>
  <style type="text/css">*{stroke-linejoin: round; stroke-linecap: butt}</style>
 </defs>
 <g id="figure_1">
  <g id="patch_1">
   <path d="M 0 576 
L 1152 576 
L 1152 0 
L 0 0 
z
" style="fill: #ffffff"/>
  </g>
  <g id="axes_1">
   <g id="patch_2">
    <path d="M 87.95 541.28 
L 1137.96 541.28 
L 1137.96 37.72 
L 87.95 37.72 
z
" style="fill: #ffffff"/>
   </g>
   <g id="matplotlib.axis_1">
    <g id="xtick_1">
     <g id="line2d_1">
      <defs>
       <path id="m8d82a2a8a9" d="M 0 0 
L 0 3.5 
" style="stroke: #555555; stroke-width: 0.8"/>
      </defs>
      <g>
       <use xlink:href="#m8d82a2a8a9" x="128.137802" y="541.28" style="fill: #555555; stroke: #555555; stroke-width: 0.8"/>
      </g>
     </g>
     <g id="text_1">
      <!-- Mar -->
      <g style="fill: #555555" transform="translate(112.995927 558.917812)scale(0.14 -0.14)">
       <defs>
        <path id="DejaVuSans-Bold-4d" d="M 588 4666 
L 2119 4666 
L 3181 2169 
L 4250 4666 
L 5778 4666 
L 5778 0 
L 4641 0 
L 4641 3413 
L 3566 897 
L 2803 897 
L 1728 3413 
L 1728 0 
L 588 0 
L 588 4666 
z
" transform="scale(0.015625)"/>
        <path id="DejaVuSans-Bold-61" d="M 2106 1575 
Q 1756 1575 1579 1456 
Q 1403 1338 1403 1106 
Q 1403 894 1545 773 
Q 1688 653 1941 653 
Q 2256 653 2472 879 
Q 2688 1106 2688 1447 
L 2688 1575 
L 2106 1575 
z
M 3816 1997 
L 3816 0 
L 2688 0 
L 2688 519 
Q 2463 200 2181 54 
Q 1900 -91 1497 -91 
Q 953 -91 614 226 
Q 275 544 275 1050 
Q 275 1666 698 1953 
Q 1122 2241 2028 2241 
L 2688 2241 
L 2688 2328 
Q 2688 2594 2478 2717 
Q 2269 2841 1825 2841 
Q 1466 2841 1156 2769 
Q 847 2697 581 2553 
L 581 3406 
Q 941 3494 1303 3539 
Q 1666 3584 2028 3584 
Q 2975 3584 3395 3211 
Q 3816 2838 3816 1997 
z
" transform="scale(0.015625)"/>
        <path id="DejaVuSans-Bold-72" d="M 3138 2547 
Q 2991 2616 2845 2648 
Q 2700 2681 2553 2681 
Q 2122 2681 1889 2404 
Q 1656 2128 1656 1613 
L 1656 0 
L 538 0 
L 538 3500 
L 1656 3500 
L 1656 2925 
Q 1872 3269 2151 3426 
Q 2431 3584 2822 3584 
Q 2878 3584 2943 3579 
Q 3009 3575 3134 3559 
L 3138 2547 
z
" transform="scale(0.015625)"/>
       </defs>
       <use xlink:href="#DejaVuSans-Bold-4d"/>
       <use xlink:href="#DejaVuSans-Bold-61" x="99.511719"/>
       <use xlink:href="#DejaVuSans-Bold-72" x="166.992188"/>
      </g>
     </g>
    </g>
    <g id="xtick_2">
     <g id="line2d_2">
      <g>
       <use xlink:href="#m8d82a2a8a9" x="174.885339" y="541.28" style="fill: #555555; stroke: #555555; stroke-width: 0.8"/>
      </g>
     </g>
     <g id="text_2">
      <!-- Apr -->
      <g style="fill: #555555" transform="translate(161.005651 558.917812)scale(0.14 -0.14)">
       <defs>
        <path id="DejaVuSans-Bold-41" d="M 3419 850 
L 1538 850 
L 1241 0 
L 31 0 
L 1759 4666 
L 3194 4666 
L 4922 0 
L 3713 0 
L 3419 850 
z
M 1838 1716 
L 3116 1716 
L 2478 3572 
L 1838 1716 
z
" transform="scale(0.015625)"/>
        <path id="DejaVuSans-Bold-70" d="M 1656 506 
L 1656 -1331 
L 538 -1331 
L 538 3500 
L 1656 3500 
L 1656 2988 
Q 1888 3294 2169 3439 
Q 2450 3584 2816 3584 
Q 3463 3584 3878 3070 
Q 4294 2556 4294 1747 
Q 4294 938 3878 423 
Q 3463 -91 2816 -91 
Q 2450 -91 2169 54 
Q 1888 200 1656 506 
z
M 2400 2772 
Q 2041 2772 1848 2508 
Q 1656 2244 1656 1747 
Q 1656 1250 1848 986 
Q 2041 722 2400 722 
Q 2759 722 2948 984 
Q 3138 1247 3138 1747 
Q 3138 2247 2948 2509 
Q 2759 2772 2400 2772 
z
" transform="scale(0.015625)"/>
       </defs>
       <use xlink:href="#DejaVuSans-Bold-41"/>
       <use xlink:href="#DejaVuSans-Bold-70" x="77.392578"/>
       <use xlink:href="#DejaVuSans-Bold-72" x="148.974609"/>
      </g>
     </g>
    </g>
    <g id="xtick_3">
     <g id="line2d_3">
      <g>
       <use xlink:href="#m8d82a2a8a9" x="220.124891" y="541.28" style="fill: #555555; stroke: #555555; stroke-width: 0.8"/>
      </g>
     </g>
     <g id="text_3">
      <!-- May -->
      <g style="fill: #555555" transform="translate(204.090516 558.808437)scale(0.14 -0.14)">
       <defs>
        <path id="DejaVuSans-Bold-79" d="M 78 3500 
L 1197 3500 
L 2138 1125 
L 2938 3500 
L 4056 3500 
L 2584 -331 
Q 2363 -916 2067 -1148 
Q 1772 -1381 1288 -1381 
L 641 -1381 
L 641 -647 
L 991 -647 
Q 1275 -647 1404 -556 
Q 1534 -466 1606 -231 
L 1638 -134 
L 78 3500 
z
" transform="scale(0.015625)"/>
       </defs>
       <use xlink:href="#DejaVuSans-Bold-4d"/>
       <use xlink:href="#DejaVuSans-Bold-61" x="99.511719"/>
       <use xlink:href="#DejaVuSans-Bold-79" x="163.867188"/>
      </g>
     </g>
    </g>
    <g id="xtick_4">
     <g id="line2d_4">
      <g>
       <use xlink:href="#m8d82a2a8a9" x="266.872428" y="541.28" style="fill: #555555; stroke: #555555; stroke-width: 0.8"/>
      </g>
     </g>
     <g id="text_4">
      <!-- Jun -->
      <g style="fill: #555555" transform="translate(254.301959 558.917812)scale(0.14 -0.14)">
       <defs>
        <path id="DejaVuSans-Bold-4a" d="M 588 4666 
L 1791 4666 
L 1791 453 
Q 1791 -419 1317 -850 
Q 844 -1281 -116 -1281 
L -359 -1281 
L -359 -372 
L -172 -372 
Q 203 -372 395 -162 
Q 588 47 588 453 
L 588 4666 
z
" transform="scale(0.015625)"/>
        <path id="DejaVuSans-Bold-75" d="M 500 1363 
L 500 3500 
L 1625 3500 
L 1625 3150 
Q 1625 2866 1622 2436 
Q 1619 2006 1619 1863 
Q 1619 1441 1641 1255 
Q 1663 1069 1716 984 
Q 1784 875 1895 815 
Q 2006 756 2150 756 
Q 2500 756 2700 1025 
Q 2900 1294 2900 1772 
L 2900 3500 
L 4019 3500 
L 4019 0 
L 2900 0 
L 2900 506 
Q 2647 200 2364 54 
Q 2081 -91 1741 -91 
Q 1134 -91 817 281 
Q 500 653 500 1363 
z
" transform="scale(0.015625)"/>
        <path id="DejaVuSans-Bold-6e" d="M 4056 2131 
L 4056 0 
L 2931 0 
L 2931 347 
L 2931 1631 
Q 2931 2084 2911 2256 
Q 2891 2428 2841 2509 
Q 2775 2619 2662 2680 
Q 2550 2741 2406 2741 
Q 2056 2741 1856 2470 
Q 1656 2200 1656 1722 
L 1656 0 
L 538 0 
L 538 3500 
L 1656 3500 
L 1656 2988 
Q 1909 3294 2193 3439 
Q 2478 3584 2822 3584 
Q 3428 3584 3742 3212 
Q 4056 2841 4056 2131 
z
" transform="scale(0.015625)"/>
       </defs>
       <use xlink:href="#DejaVuSans-Bold-4a"/>
       <use xlink:href="#DejaVuSans-Bold-75" x="37.207031"/>
       <use xlink:href="#DejaVuSans-Bold-6e" x="108.398438"/>
      </g>
     </g>
    </g>
    <g id="xtick_5">
     <g id="line2d_5">
      <g>
       <use xlink:href="#m8d82a2a8a9" x="312.11198" y="541.28" style="fill: #555555; stroke: #555555; stroke-width: 0.8"/>
      </g>
     </g>
     <g id="text_5">
      <!-- Jul -->
      <g style="fill: #555555" transform="translate(302.124949 558.917812)scale(0.14 -0.14)">
       <defs>
        <path id="DejaVuSans-Bold-6c" d="M 538 4863 
L 1656 4863 
L 1656 0 
L 538 0 
L 538 4863 
z
" transform="scale(0.015625)"/>
       </defs>
       <use xlink:href="#DejaVuSans-Bold-4a"/>
       <use xlink:href="#DejaVuSans-Bold-75" x="37.207031"/>
       <use xlink:href="#DejaVuSans-Bold-6c" x="108.398438"/>
      </g>
     </g>
    </g>
    <g id="xtick_6">
     <g id="line2d_6">
      <g>
       <use xlink:href="#m8d82a2a8a9" x="358.859517" y="541.28" style="fill: #555555; stroke: #555555; stroke-width: 0.8"/>
      </g>
     </g>
     <g id="text_6">
      <!-- Aug -->
      <g style="fill: #555555" transform="translate(343.448579 558.808437)scale(0.14 -0.14)">
       <defs>
        <path id="DejaVuSans-Bold-67" d="M 2919 594 
Q 2688 288 2409 144 
Q 2131 0 1766 0 
Q 1125 0 706 504 
Q 288 1009 288 1791 
Q 288 2575 706 3076 
Q 1125 3578 1766 3578 
Q 2131 3578 2409 3434 
Q 2688 3291 2919 2981 
L 2919 3500 
L 4044 3500 
L 4044 353 
Q 4044 -491 3511 -936 
Q 2978 -1381 1966 -1381 
Q 1638 -1381 1331 -1331 
Q 1025 -1281 716 -1178 
L 716 -306 
Q 1009 -475 1290 -558 
Q 1572 -641 1856 -641 
Q 2406 -641 2662 -400 
Q 2919 -159 2919 353 
L 2919 594 
z
M 2181 2772 
Q 1834 2772 1640 2515 
Q 1447 2259 1447 1791 
Q 1447 1309 1634 1061 
Q 1822 813 2181 813 
Q 2531 813 2725 1069 
Q 2919 1325 2919 1791 
Q 2919 2259 2725 2515 
Q 2531 2772 2181 2772 
z
" transform="scale(0.015625)"/>
       </defs>
       <use xlink:href="#DejaVuSans-Bold-41"/>
       <use xlink:href="#DejaVuSans-Bold-75" x="77.392578"/>
       <use xlink:href="#DejaVuSans-Bold-67" x="148.583984"/>
      </g>
     </g>
    </g>
    <g id="xtick_7">
     <g id="line2d_7">
      <g>
       <use xlink:href="#m8d82a2a8a9" x="405.607054" y="541.28" style="fill: #555555; stroke: #555555; stroke-width: 0.8"/>
      </g>
     </g>
     <g id="text_7">
      <!-- Sep -->
      <g style="fill: #555555" transform="translate(390.807522 558.917812)scale(0.14 -0.14)">
       <defs>
        <path id="DejaVuSans-Bold-53" d="M 3834 4519 
L 3834 3531 
Q 3450 3703 3084 3790 
Q 2719 3878 2394 3878 
Q 1963 3878 1756 3759 
Q 1550 3641 1550 3391 
Q 1550 3203 1689 3098 
Q 1828 2994 2194 2919 
L 2706 2816 
Q 3484 2659 3812 2340 
Q 4141 2022 4141 1434 
Q 4141 663 3683 286 
Q 3225 -91 2284 -91 
Q 1841 -91 1394 -6 
Q 947 78 500 244 
L 500 1259 
Q 947 1022 1364 901 
Q 1781 781 2169 781 
Q 2563 781 2772 912 
Q 2981 1044 2981 1288 
Q 2981 1506 2839 1625 
Q 2697 1744 2272 1838 
L 1806 1941 
Q 1106 2091 782 2419 
Q 459 2747 459 3303 
Q 459 4000 909 4375 
Q 1359 4750 2203 4750 
Q 2588 4750 2994 4692 
Q 3400 4634 3834 4519 
z
" transform="scale(0.015625)"/>
        <path id="DejaVuSans-Bold-65" d="M 4031 1759 
L 4031 1441 
L 1416 1441 
Q 1456 1047 1700 850 
Q 1944 653 2381 653 
Q 2734 653 3104 758 
Q 3475 863 3866 1075 
L 3866 213 
Q 3469 63 3072 -14 
Q 2675 -91 2278 -91 
Q 1328 -91 801 392 
Q 275 875 275 1747 
Q 275 2603 792 3093 
Q 1309 3584 2216 3584 
Q 3041 3584 3536 3087 
Q 4031 2591 4031 1759 
z
M 2881 2131 
Q 2881 2450 2695 2645 
Q 2509 2841 2209 2841 
Q 1884 2841 1681 2658 
Q 1478 2475 1428 2131 
L 2881 2131 
z
" transform="scale(0.015625)"/>
       </defs>
       <use xlink:href="#DejaVuSans-Bold-53"/>
       <use xlink:href="#DejaVuSans-Bold-65" x="72.021484"/>
       <use xlink:href="#DejaVuSans-Bold-70" x="139.84375"/>
      </g>
     </g>
    </g>
    <g id="xtick_8">
     <g id="line2d_8">
      <g>
       <use xlink:href="#m8d82a2a8a9" x="450.846606" y="541.28" style="fill: #555555; stroke: #555555; stroke-width: 0.8"/>
      </g>
     </g>
     <g id="text_8">
      <!-- Oct -->
      <g style="fill: #555555" transform="translate(437.400043 558.917812)scale(0.14 -0.14)">
       <defs>
        <path id="DejaVuSans-Bold-4f" d="M 2719 3878 
Q 2169 3878 1866 3472 
Q 1563 3066 1563 2328 
Q 1563 1594 1866 1187 
Q 2169 781 2719 781 
Q 3272 781 3575 1187 
Q 3878 1594 3878 2328 
Q 3878 3066 3575 3472 
Q 3272 3878 2719 3878 
z
M 2719 4750 
Q 3844 4750 4481 4106 
Q 5119 3463 5119 2328 
Q 5119 1197 4481 553 
Q 3844 -91 2719 -91 
Q 1597 -91 958 553 
Q 319 1197 319 2328 
Q 319 3463 958 4106 
Q 1597 4750 2719 4750 
z
" transform="scale(0.015625)"/>
        <path id="DejaVuSans-Bold-63" d="M 3366 3391 
L 3366 2478 
Q 3138 2634 2908 2709 
Q 2678 2784 2431 2784 
Q 1963 2784 1702 2511 
Q 1441 2238 1441 1747 
Q 1441 1256 1702 982 
Q 1963 709 2431 709 
Q 2694 709 2930 787 
Q 3166 866 3366 1019 
L 3366 103 
Q 3103 6 2833 -42 
Q 2563 -91 2291 -91 
Q 1344 -91 809 395 
Q 275 881 275 1747 
Q 275 2613 809 3098 
Q 1344 3584 2291 3584 
Q 2566 3584 2833 3536 
Q 3100 3488 3366 3391 
z
" transform="scale(0.015625)"/>
        <path id="DejaVuSans-Bold-74" d="M 1759 4494 
L 1759 3500 
L 2913 3500 
L 2913 2700 
L 1759 2700 
L 1759 1216 
Q 1759 972 1856 886 
Q 1953 800 2241 800 
L 2816 800 
L 2816 0 
L 1856 0 
Q 1194 0 917 276 
Q 641 553 641 1216 
L 641 2700 
L 84 2700 
L 84 3500 
L 641 3500 
L 641 4494 
L 1759 4494 
z
" transform="scale(0.015625)"/>
       </defs>
       <use xlink:href="#DejaVuSans-Bold-4f"/>
       <use xlink:href="#DejaVuSans-Bold-63" x="85.009766"/>
       <use xlink:href="#DejaVuSans-Bold-74" x="144.287109"/>
      </g>
     </g>
    </g>
    <g id="xtick_9">
     <g id="line2d_9">
      <g>
       <use xlink:href="#m8d82a2a8a9" x="497.594143" y="541.28" style="fill: #555555; stroke: #555555; stroke-width: 0.8"/>
      </g>
     </g>
     <g id="text_9">
      <!-- Nov -->
      <g style="fill: #555555" transform="translate(482.363674 558.917812)scale(0.14 -0.14)">
       <defs>
        <path id="DejaVuSans-Bold-4e" d="M 588 4666 
L 1931 4666 
L 3628 1466 
L 3628 4666 
L 4769 4666 
L 4769 0 
L 3425 0 
L 1728 3200 
L 1728 0 
L 588 0 
L 588 4666 
z
" transform="scale(0.015625)"/>
        <path id="DejaVuSans-Bold-6f" d="M 2203 2784 
Q 1831 2784 1636 2517 
Q 1441 2250 1441 1747 
Q 1441 1244 1636 976 
Q 1831 709 2203 709 
Q 2569 709 2762 976 
Q 2956 1244 2956 1747 
Q 2956 2250 2762 2517 
Q 2569 2784 2203 2784 
z
M 2203 3584 
Q 3106 3584 3614 3096 
Q 4122 2609 4122 1747 
Q 4122 884 3614 396 
Q 3106 -91 2203 -91 
Q 1297 -91 786 396 
Q 275 884 275 1747 
Q 275 2609 786 3096 
Q 1297 3584 2203 3584 
z
" transform="scale(0.015625)"/>
        <path id="DejaVuSans-Bold-76" d="M 97 3500 
L 1216 3500 
L 2088 1081 
L 2956 3500 
L 4078 3500 
L 2700 0 
L 1472 0 
L 97 3500 
z
" transform="scale(0.015625)"/>
       </defs>
       <use xlink:href="#DejaVuSans-Bold-4e"/>
       <use xlink:href="#DejaVuSans-Bold-6f" x="83.691406"/>
       <use xlink:href="#DejaVuSans-Bold-76" x="152.392578"/>
      </g>
     </g>
    </g>
    <g id="xtick_10">
     <g id="line2d_10">
      <g>
       <use xlink:href="#m8d82a2a8a9" x="542.833695" y="541.28" style="fill: #555555; stroke: #555555; stroke-width: 0.8"/>
      </g>
     </g>
     <g id="text_10">
      <!-- Dec -->
      <g style="fill: #555555" transform="translate(528.124945 558.917812)scale(0.14 -0.14)">
       <defs>
        <path id="DejaVuSans-Bold-44" d="M 1791 3756 
L 1791 909 
L 2222 909 
Q 2959 909 3348 1275 
Q 3738 1641 3738 2338 
Q 3738 3031 3350 3393 
Q 2963 3756 2222 3756 
L 1791 3756 
z
M 588 4666 
L 1856 4666 
Q 2919 4666 3439 4514 
Q 3959 4363 4331 4000 
Q 4659 3684 4818 3271 
Q 4978 2859 4978 2338 
Q 4978 1809 4818 1395 
Q 4659 981 4331 666 
Q 3956 303 3431 151 
Q 2906 0 1856 0 
L 588 0 
L 588 4666 
z
" transform="scale(0.015625)"/>
       </defs>
       <use xlink:href="#DejaVuSans-Bold-44"/>
       <use xlink:href="#DejaVuSans-Bold-65" x="83.007812"/>
       <use xlink:href="#DejaVuSans-Bold-63" x="150.830078"/>
      </g>
     </g>
    </g>
    <g id="xtick_11">
     <g id="line2d_11">
      <g>
       <use xlink:href="#m8d82a2a8a9" x="589.581232" y="541.28" style="fill: #555555; stroke: #555555; stroke-width: 0.8"/>
      </g>
     </g>
     <g id="text_11">
      <!-- Jan -->
      <g style="fill: #555555" transform="translate(577.269982 558.917812)scale(0.14 -0.14)">
       <use xlink:href="#DejaVuSans-Bold-4a"/>
       <use xlink:href="#DejaVuSans-Bold-61" x="37.207031"/>
       <use xlink:href="#DejaVuSans-Bold-6e" x="104.6875"/>
      </g>
     </g>
    </g>
    <g id="xtick_12">
     <g id="line2d_12">
      <g>
       <use xlink:href="#m8d82a2a8a9" x="636.328768" y="541.28" style="fill: #555555; stroke: #555555; stroke-width: 0.8"/>
      </g>
     </g>
     <g id="text_12">
      <!-- Feb -->
      <g style="fill: #555555" transform="translate(622.068456 558.917812)scale(0.14 -0.14)">
       <defs>
        <path id="DejaVuSans-Bold-46" d="M 588 4666 
L 3834 4666 
L 3834 3756 
L 1791 3756 
L 1791 2888 
L 3713 2888 
L 3713 1978 
L 1791 1978 
L 1791 0 
L 588 0 
L 588 4666 
z
" transform="scale(0.015625)"/>
        <path id="DejaVuSans-Bold-62" d="M 2400 722 
Q 2759 722 2948 984 
Q 3138 1247 3138 1747 
Q 3138 2247 2948 2509 
Q 2759 2772 2400 2772 
Q 2041 2772 1848 2508 
Q 1656 2244 1656 1747 
Q 1656 1250 1848 986 
Q 2041 722 2400 722 
z
M 1656 2988 
Q 1888 3294 2169 3439 
Q 2450 3584 2816 3584 
Q 3463 3584 3878 3070 
Q 4294 2556 4294 1747 
Q 4294 938 3878 423 
Q 3463 -91 2816 -91 
Q 2450 -91 2169 54 
Q 1888 200 1656 506 
L 1656 0 
L 538 0 
L 538 4863 
L 1656 4863 
L 1656 2988 
z
" transform="scale(0.015625)"/>
       </defs>
       <use xlink:href="#DejaVuSans-Bold-46"/>
       <use xlink:href="#DejaVuSans-Bold-65" x="64.310547"/>
       <use xlink:href="#DejaVuSans-Bold-62" x="132.132812"/>
      </g>
     </g>
    </g>
    <g id="xtick_13">
     <g id="line2d_13">
      <g>
       <use xlink:href="#m8d82a2a8a9" x="678.55235" y="541.28" style="fill: #555555; stroke: #555555; stroke-width: 0.8"/>
      </g>
     </g>
     <g id="text_13">
      <!-- Mar -->
      <g style="fill: #555555" transform="translate(663.410475 558.917812)scale(0.14 -0.14)">
       <use xlink:href="#DejaVuSans-Bold-4d"/>
       <use xlink:href="#DejaVuSans-Bold-61" x="99.511719"/>
       <use xlink:href="#DejaVuSans-Bold-72" x="166.992188"/>
      </g>
     </g>
    </g>
    <g id="xtick_14">
     <g id="line2d_14">
      <g>
       <use xlink:href="#m8d82a2a8a9" x="725.299887" y="541.28" style="fill: #555555; stroke: #555555; stroke-width: 0.8"/>
      </g>
     </g>
     <g id="text_14">
      <!-- Apr -->
      <g style="fill: #555555" transform="translate(711.4202 558.917812)scale(0.14 -0.14)">
       <use xlink:href="#DejaVuSans-Bold-41"/>
       <use xlink:href="#DejaVuSans-Bold-70" x="77.392578"/>
       <use xlink:href="#DejaVuSans-Bold-72" x="148.974609"/>
      </g>
     </g>
    </g>
    <g id="xtick_15">
     <g id="line2d_15">
      <g>
       <use xlink:href="#m8d82a2a8a9" x="770.539439" y="541.28" style="fill: #555555; stroke: #555555; stroke-width: 0.8"/>
      </g>
     </g>
     <g id="text_15">
      <!-- May -->
      <g style="fill: #555555" transform="translate(754.505064 558.808437)scale(0.14 -0.14)">
       <use xlink:href="#DejaVuSans-Bold-4d"/>
       <use xlink:href="#DejaVuSans-Bold-61" x="99.511719"/>
       <use xlink:href="#DejaVuSans-Bold-79" x="163.867188"/>
      </g>
     </g>
    </g>
    <g id="xtick_16">
     <g id="line2d_16">
      <g>
       <use xlink:href="#m8d82a2a8a9" x="817.286976" y="541.28" style="fill: #555555; stroke: #555555; stroke-width: 0.8"/>
      </g>
     </g>
     <g id="text_16">
      <!-- Jun -->
      <g style="fill: #555555" transform="translate(804.716507 558.917812)scale(0.14 -0.14)">
       <use xlink:href="#DejaVuSans-Bold-4a"/>
       <use xlink:href="#DejaVuSans-Bold-75" x="37.207031"/>
       <use xlink:href="#DejaVuSans-Bold-6e" x="108.398438"/>
      </g>
     </g>
    </g>
    <g id="xtick_17">
     <g id="line2d_17">
      <g>
       <use xlink:href="#m8d82a2a8a9" x="862.526528" y="541.28" style="fill: #555555; stroke: #555555; stroke-width: 0.8"/>
      </g>
     </g>
     <g id="text_17">
      <!-- Jul -->
      <g style="fill: #555555" transform="translate(852.539497 558.917812)scale(0.14 -0.14)">
       <use xlink:href="#DejaVuSans-Bold-4a"/>
       <use xlink:href="#DejaVuSans-Bold-75" x="37.207031"/>
       <use xlink:href="#DejaVuSans-Bold-6c" x="108.398438"/>
      </g>
     </g>
    </g>
    <g id="xtick_18">
     <g id="line2d_18">
      <g>
       <use xlink:href="#m8d82a2a8a9" x="909.274065" y="541.28" style="fill: #555555; stroke: #555555; stroke-width: 0.8"/>
      </g>
     </g>
     <g id="text_18">
      <!-- Aug -->
      <g style="fill: #555555" transform="translate(893.863128 558.808437)scale(0.14 -0.14)">
       <use xlink:href="#DejaVuSans-Bold-41"/>
       <use xlink:href="#DejaVuSans-Bold-75" x="77.392578"/>
       <use xlink:href="#DejaVuSans-Bold-67" x="148.583984"/>
      </g>
     </g>
    </g>
    <g id="xtick_19">
     <g id="line2d_19">
      <g>
       <use xlink:href="#m8d82a2a8a9" x="956.021602" y="541.28" style="fill: #555555; stroke: #555555; stroke-width: 0.8"/>
      </g>
     </g>
     <g id="text_19">
      <!-- Sep -->
      <g style="fill: #555555" transform="translate(941.222071 558.917812)scale(0.14 -0.14)">
       <use xlink:href="#DejaVuSans-Bold-53"/>
       <use xlink:href="#DejaVuSans-Bold-65" x="72.021484"/>
       <use xlink:href="#DejaVuSans-Bold-70" x="139.84375"/>
      </g>
     </g>
    </g>
    <g id="xtick_20">
     <g id="line2d_20">
      <g>
       <use xlink:href="#m8d82a2a8a9" x="1001.261154" y="541.28" style="fill: #555555; stroke: #555555; stroke-width: 0.8"/>
      </g>
     </g>
     <g id="text_20">
      <!-- Oct -->
      <g style="fill: #555555" transform="translate(987.814591 558.917812)scale(0.14 -0.14)">
       <use xlink:href="#DejaVuSans-Bold-4f"/>
       <use xlink:href="#DejaVuSans-Bold-63" x="85.009766"/>
       <use xlink:href="#DejaVuSans-Bold-74" x="144.287109"/>
      </g>
     </g>
    </g>
    <g id="xtick_21">
     <g id="line2d_21">
      <g>
       <use xlink:href="#m8d82a2a8a9" x="1048.008691" y="541.28" style="fill: #555555; stroke: #555555; stroke-width: 0.8"/>
      </g>
     </g>
     <g id="text_21">
      <!-- Nov -->
      <g style="fill: #555555" transform="translate(1032.778222 558.917812)scale(0.14 -0.14)">
       <use xlink:href="#DejaVuSans-Bold-4e"/>
       <use xlink:href="#DejaVuSans-Bold-6f" x="83.691406"/>
       <use xlink:href="#DejaVuSans-Bold-76" x="152.392578"/>
      </g>
     </g>
    </g>
    <g id="xtick_22">
     <g id="line2d_22">
      <g>
       <use xlink:href="#m8d82a2a8a9" x="1093.248243" y="541.28" style="fill: #555555; stroke: #555555; stroke-width: 0.8"/>
      </g>
     </g>
     <g id="text_22">
      <!-- Dec -->
      <g style="fill: #555555" transform="translate(1078.539493 558.917812)scale(0.14 -0.14)">
       <use xlink:href="#DejaVuSans-Bold-44"/>
       <use xlink:href="#DejaVuSans-Bold-65" x="83.007812"/>
       <use xlink:href="#DejaVuSans-Bold-63" x="150.830078"/>
      </g>
     </g>
    </g>
   </g>
   <g id="matplotlib.axis_2">
    <g id="ytick_1">
     <g id="line2d_23">
      <defs>
       <path id="m121a2c2126" d="M 0 0 
L -3.5 0 
" style="stroke: #555555; stroke-width: 0.8"/>
      </defs>
      <g>
       <use xlink:href="#m121a2c2126" x="87.95" y="518.989544" style="fill: #555555; stroke: #555555; stroke-width: 0.8"/>
      </g>
     </g>
     <g id="text_23">
      <!-- 0 -->
      <g style="fill: #555555" transform="translate(71.209063 524.30845)scale(0.14 -0.14)">
       <defs>
        <path id="DejaVuSans-Bold-30" d="M 2944 2338 
Q 2944 3213 2780 3570 
Q 2616 3928 2228 3928 
Q 1841 3928 1675 3570 
Q 1509 3213 1509 2338 
Q 1509 1453 1675 1090 
Q 1841 728 2228 728 
Q 2613 728 2778 1090 
Q 2944 1453 2944 2338 
z
M 4147 2328 
Q 4147 1169 3647 539 
Q 3147 -91 2228 -91 
Q 1306 -91 806 539 
Q 306 1169 306 2328 
Q 306 3491 806 4120 
Q 1306 4750 2228 4750 
Q 3147 4750 3647 4120 
Q 4147 3491 4147 2328 
z
" transform="scale(0.015625)"/>
       </defs>
       <use xlink:href="#DejaVuSans-Bold-30"/>
      </g>
     </g>
    </g>
    <g id="ytick_2">
     <g id="line2d_24">
      <g>
       <use xlink:href="#m121a2c2126" x="87.95" y="422.435545" style="fill: #555555; stroke: #555555; stroke-width: 0.8"/>
      </g>
     </g>
     <g id="text_24">
      <!-- 5000 -->
      <g style="fill: #555555" transform="translate(41.98625 427.754452)scale(0.14 -0.14)">
       <defs>
        <path id="DejaVuSans-Bold-35" d="M 678 4666 
L 3669 4666 
L 3669 3781 
L 1638 3781 
L 1638 3059 
Q 1775 3097 1914 3117 
Q 2053 3138 2203 3138 
Q 3056 3138 3531 2711 
Q 4006 2284 4006 1522 
Q 4006 766 3489 337 
Q 2972 -91 2053 -91 
Q 1656 -91 1267 -14 
Q 878 63 494 219 
L 494 1166 
Q 875 947 1217 837 
Q 1559 728 1863 728 
Q 2300 728 2551 942 
Q 2803 1156 2803 1522 
Q 2803 1891 2551 2103 
Q 2300 2316 1863 2316 
Q 1603 2316 1309 2248 
Q 1016 2181 678 2041 
L 678 4666 
z
" transform="scale(0.015625)"/>
       </defs>
       <use xlink:href="#DejaVuSans-Bold-35"/>
       <use xlink:href="#DejaVuSans-Bold-30" x="69.580078"/>
       <use xlink:href="#DejaVuSans-Bold-30" x="139.160156"/>
       <use xlink:href="#DejaVuSans-Bold-30" x="208.740234"/>
      </g>
     </g>
    </g>
    <g id="ytick_3">
     <g id="line2d_25">
      <g>
       <use xlink:href="#m121a2c2126" x="87.95" y="325.881547" style="fill: #555555; stroke: #555555; stroke-width: 0.8"/>
      </g>
     </g>
     <g id="text_25">
      <!-- 10000 -->
      <g style="fill: #555555" transform="translate(32.245313 331.200453)scale(0.14 -0.14)">
       <defs>
        <path id="DejaVuSans-Bold-31" d="M 750 831 
L 1813 831 
L 1813 3847 
L 722 3622 
L 722 4441 
L 1806 4666 
L 2950 4666 
L 2950 831 
L 4013 831 
L 4013 0 
L 750 0 
L 750 831 
z
" transform="scale(0.015625)"/>
       </defs>
       <use xlink:href="#DejaVuSans-Bold-31"/>
       <use xlink:href="#DejaVuSans-Bold-30" x="69.580078"/>
       <use xlink:href="#DejaVuSans-Bold-30" x="139.160156"/>
       <use xlink:href="#DejaVuSans-Bold-30" x="208.740234"/>
       <use xlink:href="#DejaVuSans-Bold-30" x="278.320312"/>
      </g>
     </g>
    </g>
    <g id="ytick_4">
     <g id="line2d_26">
      <g>
       <use xlink:href="#m121a2c2126" x="87.95" y="229.327548" style="fill: #555555; stroke: #555555; stroke-width: 0.8"/>
      </g>
     </g>
     <g id="text_26">
      <!-- 15000 -->
      <g style="fill: #555555" transform="translate(32.245313 234.646454)scale(0.14 -0.14)">
       <use xlink:href="#DejaVuSans-Bold-31"/>
       <use xlink:href="#DejaVuSans-Bold-35" x="69.580078"/>
       <use xlink:href="#DejaVuSans-Bold-30" x="139.160156"/>
       <use xlink:href="#DejaVuSans-Bold-30" x="208.740234"/>
       <use xlink:href="#DejaVuSans-Bold-30" x="278.320312"/>
      </g>
     </g>
    </g>
    <g id="ytick_5">
     <g id="line2d_27">
      <g>
       <use xlink:href="#m121a2c2126" x="87.95" y="132.773549" style="fill: #555555; stroke: #555555; stroke-width: 0.8"/>
      </g>
     </g>
     <g id="text_27">
      <!-- 20000 -->
      <g style="fill: #555555" transform="translate(32.245313 138.092456)scale(0.14 -0.14)">
       <defs>
        <path id="DejaVuSans-Bold-32" d="M 1844 884 
L 3897 884 
L 3897 0 
L 506 0 
L 506 884 
L 2209 2388 
Q 2438 2594 2547 2791 
Q 2656 2988 2656 3200 
Q 2656 3528 2436 3728 
Q 2216 3928 1850 3928 
Q 1569 3928 1234 3808 
Q 900 3688 519 3450 
L 519 4475 
Q 925 4609 1322 4679 
Q 1719 4750 2100 4750 
Q 2938 4750 3402 4381 
Q 3866 4013 3866 3353 
Q 3866 2972 3669 2642 
Q 3472 2313 2841 1759 
L 1844 884 
z
" transform="scale(0.015625)"/>
       </defs>
       <use xlink:href="#DejaVuSans-Bold-32"/>
       <use xlink:href="#DejaVuSans-Bold-30" x="69.580078"/>
       <use xlink:href="#DejaVuSans-Bold-30" x="139.160156"/>
       <use xlink:href="#DejaVuSans-Bold-30" x="208.740234"/>
       <use xlink:href="#DejaVuSans-Bold-30" x="278.320312"/>
      </g>
     </g>
    </g>
    <g id="text_28">
     <!-- New Cases -->
     <g style="fill: #555555" transform="translate(24.917813 333.23875)rotate(-90)scale(0.16 -0.16)">
      <defs>
       <path id="DejaVuSans-4e" d="M 628 4666 
L 1478 4666 
L 3547 763 
L 3547 4666 
L 4159 4666 
L 4159 0 
L 3309 0 
L 1241 3903 
L 1241 0 
L 628 0 
L 628 4666 
z
" transform="scale(0.015625)"/>
       <path id="DejaVuSans-65" d="M 3597 1894 
L 3597 1613 
L 953 1613 
Q 991 1019 1311 708 
Q 1631 397 2203 397 
Q 2534 397 2845 478 
Q 3156 559 3463 722 
L 3463 178 
Q 3153 47 2828 -22 
Q 2503 -91 2169 -91 
Q 1331 -91 842 396 
Q 353 884 353 1716 
Q 353 2575 817 3079 
Q 1281 3584 2069 3584 
Q 2775 3584 3186 3129 
Q 3597 2675 3597 1894 
z
M 3022 2063 
Q 3016 2534 2758 2815 
Q 2500 3097 2075 3097 
Q 1594 3097 1305 2825 
Q 1016 2553 972 2059 
L 3022 2063 
z
" transform="scale(0.015625)"/>
       <path id="DejaVuSans-77" d="M 269 3500 
L 844 3500 
L 1563 769 
L 2278 3500 
L 2956 3500 
L 3675 769 
L 4391 3500 
L 4966 3500 
L 4050 0 
L 3372 0 
L 2619 2869 
L 1863 0 
L 1184 0 
L 269 3500 
z
" transform="scale(0.015625)"/>
       <path id="DejaVuSans-20" transform="scale(0.015625)"/>
       <path id="DejaVuSans-43" d="M 4122 4306 
L 4122 3641 
Q 3803 3938 3442 4084 
Q 3081 4231 2675 4231 
Q 1875 4231 1450 3742 
Q 1025 3253 1025 2328 
Q 1025 1406 1450 917 
Q 1875 428 2675 428 
Q 3081 428 3442 575 
Q 3803 722 4122 1019 
L 4122 359 
Q 3791 134 3420 21 
Q 3050 -91 2638 -91 
Q 1578 -91 968 557 
Q 359 1206 359 2328 
Q 359 3453 968 4101 
Q 1578 4750 2638 4750 
Q 3056 4750 3426 4639 
Q 3797 4528 4122 4306 
z
" transform="scale(0.015625)"/>
       <path id="DejaVuSans-61" d="M 2194 1759 
Q 1497 1759 1228 1600 
Q 959 1441 959 1056 
Q 959 750 1161 570 
Q 1363 391 1709 391 
Q 2188 391 2477 730 
Q 2766 1069 2766 1631 
L 2766 1759 
L 2194 1759 
z
M 3341 1997 
L 3341 0 
L 2766 0 
L 2766 531 
Q 2569 213 2275 61 
Q 1981 -91 1556 -91 
Q 1019 -91 701 211 
Q 384 513 384 1019 
Q 384 1609 779 1909 
Q 1175 2209 1959 2209 
L 2766 2209 
L 2766 2266 
Q 2766 2663 2505 2880 
Q 2244 3097 1772 3097 
Q 1472 3097 1187 3025 
Q 903 2953 641 2809 
L 641 3341 
Q 956 3463 1253 3523 
Q 1550 3584 1831 3584 
Q 2591 3584 2966 3190 
Q 3341 2797 3341 1997 
z
" transform="scale(0.015625)"/>
       <path id="DejaVuSans-73" d="M 2834 3397 
L 2834 2853 
Q 2591 2978 2328 3040 
Q 2066 3103 1784 3103 
Q 1356 3103 1142 2972 
Q 928 2841 928 2578 
Q 928 2378 1081 2264 
Q 1234 2150 1697 2047 
L 1894 2003 
Q 2506 1872 2764 1633 
Q 3022 1394 3022 966 
Q 3022 478 2636 193 
Q 2250 -91 1575 -91 
Q 1294 -91 989 -36 
Q 684 19 347 128 
L 347 722 
Q 666 556 975 473 
Q 1284 391 1588 391 
Q 1994 391 2212 530 
Q 2431 669 2431 922 
Q 2431 1156 2273 1281 
Q 2116 1406 1581 1522 
L 1381 1569 
Q 847 1681 609 1914 
Q 372 2147 372 2553 
Q 372 3047 722 3315 
Q 1072 3584 1716 3584 
Q 2034 3584 2315 3537 
Q 2597 3491 2834 3397 
z
" transform="scale(0.015625)"/>
      </defs>
      <use xlink:href="#DejaVuSans-4e"/>
      <use xlink:href="#DejaVuSans-65" x="74.804688"/>
      <use xlink:href="#DejaVuSans-77" x="136.328125"/>
      <use xlink:href="#DejaVuSans-20" x="218.115234"/>
      <use xlink:href="#DejaVuSans-43" x="249.902344"/>
      <use xlink:href="#DejaVuSans-61" x="319.726562"/>
      <use xlink:href="#DejaVuSans-73" x="381.005859"/>
      <use xlink:href="#DejaVuSans-65" x="433.105469"/>
      <use xlink:href="#DejaVuSans-73" x="494.628906"/>
     </g>
    </g>
   </g>
   <g id="line2d_28">
    <path d="M 135.677727 518.217112 
L 137.185712 518.024004 
L 138.693697 518.371598 
L 140.201682 517.811585 
L 141.709668 516.47914 
L 143.217653 516.614316 
L 144.725638 516.537072 
L 146.233623 516.807424 
L 147.741608 514.760479 
L 149.249593 515.648776 
L 150.757578 513.775628 
L 152.265563 513.428034 
L 153.773548 512.288696 
L 155.281533 511.342467 
L 156.789518 508.696888 
L 158.297503 506.688564 
L 159.805488 507.30651 
L 161.313473 508.310672 
L 162.821458 504.525755 
L 164.329443 502.71054 
L 167.345414 496.453841 
L 168.853399 496.859367 
L 170.361384 497.902151 
L 171.869369 502.131216 
L 173.377354 502.884337 
L 174.885339 499.524258 
L 176.393324 498.075948 
L 177.901309 499.292528 
L 179.409294 499.640123 
L 180.917279 497.766975 
L 183.933249 503.888499 
L 185.441234 500.470487 
L 186.949219 495.662098 
L 188.457205 493.364113 
L 189.96519 493.866193 
L 191.473175 496.376597 
L 192.98116 500.470487 
L 194.489145 502.343635 
L 195.99713 504.89266 
L 197.505115 498.346299 
L 199.0131 495.160017 
L 200.521085 496.086935 
L 202.02907 499.234596 
L 203.537055 504.545066 
L 205.04504 505.163011 
L 206.553025 505.317498 
L 208.06101 502.111905 
L 209.568995 503.44435 
L 211.07698 506.495456 
L 212.584966 506.418213 
L 214.092951 511.16867 
L 215.600936 515.26256 
L 217.108921 511.496954 
L 218.616906 509.198968 
L 220.124891 509.758982 
L 221.632876 510.550724 
L 223.140861 512.462494 
L 224.648846 515.108073 
L 226.156831 512.829399 
L 227.664816 512.829399 
L 229.172801 512.018345 
L 230.680786 512.829399 
L 232.188771 513.428034 
L 233.696756 514.31633 
L 235.204741 515.532911 
L 236.712727 515.223938 
L 238.220712 514.683236 
L 239.728697 513.698385 
L 241.236682 515.088762 
L 242.744667 515.243249 
L 244.252652 516.575694 
L 245.760637 516.131546 
L 247.268622 516.846045 
L 248.776607 515.378424 
L 250.284592 514.084601 
L 251.792577 515.436357 
L 254.808547 515.648776 
L 256.316532 514.876344 
L 257.824517 516.498451 
L 259.332503 515.243249 
L 260.840488 515.552222 
L 262.348473 515.552222 
L 263.856458 516.266721 
L 265.364443 515.590843 
L 266.872428 516.981221 
L 268.380413 517.155018 
L 269.888398 517.19364 
L 271.396383 515.359114 
L 272.904368 514.7991 
L 274.412353 515.320492 
L 275.920338 514.374263 
L 277.428323 515.783951 
L 278.936308 515.822573 
L 280.444293 515.494289 
L 281.952278 515.861194 
L 283.460264 514.992208 
L 284.968249 515.494289 
L 286.476234 516.208789 
L 287.984219 515.919127 
L 291.000189 516.807424 
L 292.508174 516.595005 
L 295.524144 517.251572 
L 297.032129 517.155018 
L 298.540114 517.67641 
L 300.048099 517.637788 
L 301.556084 517.44468 
L 303.064069 516.865356 
L 306.080039 517.502612 
L 307.588025 517.715031 
L 309.09601 517.521923 
L 310.603995 517.888828 
L 312.11198 517.792274 
L 313.619965 517.541234 
L 315.12795 517.521923 
L 316.635935 517.734342 
L 318.14392 517.599166 
L 319.651905 518.197801 
L 321.15989 518.332977 
L 322.667875 517.888828 
L 325.683845 517.734342 
L 327.19183 517.367437 
L 328.699815 517.155018 
L 330.207801 517.599166 
L 331.715786 517.097086 
L 334.731756 516.691559 
L 336.239741 516.884667 
L 337.747726 516.189478 
L 339.255711 516.189478 
L 340.763696 515.455668 
L 342.271681 515.726019 
L 343.779666 515.706708 
L 346.795636 515.99637 
L 349.811606 514.876344 
L 351.319591 514.953587 
L 352.827576 514.663925 
L 354.335562 514.200466 
L 355.843547 512.404561 
L 357.351532 512.404561 
L 358.859517 510.666589 
L 360.367502 512.056967 
L 361.875487 511.805926 
L 363.383472 509.585184 
L 364.891457 510.724522 
L 366.399442 507.30651 
L 367.907427 509.00586 
L 369.415412 509.643117 
L 370.923397 507.847212 
L 372.431382 503.791945 
L 373.939367 507.016848 
L 375.447352 506.418213 
L 376.955337 507.866523 
L 378.463323 506.881672 
L 379.971308 506.321659 
L 381.479293 509.353455 
L 382.987278 509.604495 
L 384.495263 509.46932 
L 386.003248 508.310672 
L 387.511233 508.735509 
L 389.019218 508.696888 
L 390.527203 509.198968 
L 392.035188 510.20313 
L 393.543173 507.924456 
L 395.051158 510.956251 
L 396.559143 507.943766 
L 398.067128 509.179658 
L 399.575113 509.314833 
L 402.591084 509.218279 
L 404.099069 508.832063 
L 405.607054 509.9714 
L 407.115039 505.085768 
L 408.623024 507.422375 
L 410.131009 504.64162 
L 411.638994 506.456835 
L 413.146979 501.223608 
L 414.654964 503.637458 
L 417.670934 496.975232 
L 419.178919 502.826405 
L 420.686904 494.445517 
L 422.194889 495.391747 
L 423.702874 497.998705 
L 425.21086 493.943437 
L 426.718845 492.417883 
L 428.22683 489.308845 
L 431.2428 481.23693 
L 432.750785 482.453511 
L 434.25877 483.380429 
L 435.766755 476.293366 
L 437.27474 475.791285 
L 438.782725 473.918137 
L 440.29071 470.017356 
L 441.798695 465.614493 
L 443.30668 466.850385 
L 444.814665 461.520604 
L 446.32265 462.949603 
L 447.830636 460.979902 
L 449.338621 455.534256 
L 450.846606 456.171512 
L 452.354591 445.531262 
L 453.862576 443.001547 
L 455.370561 442.074629 
L 456.878546 431.028851 
L 458.386531 431.72404 
L 459.894516 422.976248 
L 461.402501 407.295878 
L 462.910486 403.897178 
L 464.418471 393.894183 
L 465.926456 396.520452 
L 467.434441 387.618173 
L 468.942426 377.38345 
L 470.450411 378.966935 
L 471.958397 368.809454 
L 473.466382 365.468686 
L 474.974367 362.475512 
L 476.482352 361.645148 
L 477.990337 364.773497 
L 479.498322 361.722391 
L 482.514292 340.345336 
L 484.022277 326.422249 
L 485.530262 352.105613 
L 487.038247 322.637332 
L 488.546232 320.030374 
L 490.054217 320.744874 
L 491.562202 363.016215 
L 493.070187 321.150401 
L 494.578172 305.296234 
L 496.086158 330.30372 
L 497.594143 351.391113 
L 499.102128 359.405095 
L 500.610113 369.562576 
L 502.118098 372.227466 
L 503.626083 384.856729 
L 505.134068 379.449705 
L 506.642053 391.229293 
L 509.658023 428.82742 
L 511.166008 429.31019 
L 512.673993 415.039509 
L 514.181978 410.48216 
L 515.689963 401.811611 
L 517.197948 405.113758 
L 518.705934 414.363631 
L 521.721904 436.339321 
L 523.229889 430.488149 
L 524.737874 409.188337 
L 526.245859 404.457191 
L 527.753844 403.047502 
L 529.261829 415.522279 
L 530.769814 418.940291 
L 532.277799 442.769817 
L 533.785784 424.173517 
L 535.293769 432.708891 
L 536.801754 407.933135 
L 538.309739 432.766823 
L 539.817724 411.524943 
L 541.325709 430.700568 
L 542.833695 441.012535 
L 544.34168 424.212139 
L 545.849665 410.96493 
L 547.35765 405.229623 
L 548.865635 392.909333 
L 550.37362 388.429227 
L 551.881605 381.998731 
L 553.38959 400.82676 
L 554.897575 392.619671 
L 556.40556 350.811789 
L 557.913545 348.340007 
L 559.42153 342.836429 
L 560.929515 328.256775 
L 562.4375 355.600867 
L 563.945485 390.939631 
L 565.45347 303.365154 
L 566.961456 272.236145 
L 568.469441 288.109622 
L 569.977426 282.934328 
L 571.485411 268.00708 
L 572.993396 303.558262 
L 574.501381 329.318869 
L 576.009366 318.331024 
L 577.517351 297.031212 
L 579.025336 297.011901 
L 580.533321 329.454045 
L 582.041306 345.095792 
L 583.549291 376.128248 
L 585.057276 373.810952 
L 586.565261 336.521797 
L 588.073246 332.369975 
L 589.581232 361.239621 
L 591.089217 353.129085 
L 592.597202 376.166869 
L 594.105187 390.92032 
L 595.613172 395.99906 
L 597.121157 382.095285 
L 598.629142 332.099624 
L 600.137127 362.340337 
L 603.153097 391.499644 
L 604.661082 413.784307 
L 606.169067 423.555572 
L 607.677052 401.367463 
L 609.185037 393.488656 
L 610.693022 402.641976 
L 612.201007 416.738859 
L 613.708993 411.19666 
L 615.216978 426.606678 
L 616.724963 436.049659 
L 618.232948 411.4477 
L 619.740933 406.890352 
L 621.248918 408.048999 
L 622.756903 413.822929 
L 624.264888 424.73353 
L 625.772873 440.027684 
L 627.280858 442.538088 
L 628.788843 427.746015 
L 630.296828 428.402582 
L 631.804813 434.079958 
L 633.312798 438.424887 
L 634.820783 447.983733 
L 636.328768 456.461174 
L 637.836754 450.474826 
L 639.344739 441.398751 
L 640.852724 437.903496 
L 642.360709 435.624821 
L 643.868694 440.046995 
L 645.376679 443.329831 
L 646.884664 475.405069 
L 648.392649 485.021847 
L 649.900634 457.716376 
L 651.408619 433.500634 
L 652.916604 435.431713 
L 654.424589 438.424887 
L 655.932574 452.850055 
L 657.440559 464.108251 
L 658.948544 467.043493 
L 660.45653 453.95077 
L 661.964515 430.970919 
L 663.4725 428.692244 
L 664.980485 431.337824 
L 666.48847 428.82742 
L 667.996455 438.289712 
L 669.50444 445.434708 
L 671.012425 434.639971 
L 672.52041 422.705896 
L 674.028395 420.716884 
L 675.53638 423.941788 
L 677.044365 429.503298 
L 678.55235 446.593356 
L 680.060335 442.422223 
L 681.56832 421.991397 
L 683.076305 439.969751 
L 684.584291 428.962596 
L 686.092276 416.410576 
L 687.600261 431.936459 
L 689.108246 443.986398 
L 690.616231 436.223456 
L 692.124216 417.434048 
L 693.632201 416.700238 
L 695.140186 403.607516 
L 696.648171 395.883196 
L 699.664141 412.741524 
L 701.172126 423.555572 
L 702.680111 404.901339 
L 704.188096 400.595031 
L 705.696081 377.093788 
L 707.204066 372.188844 
L 710.220037 397.331506 
L 711.728022 410.694579 
L 713.236007 373.077141 
L 714.743992 370.528116 
L 716.251977 373.03852 
L 717.759962 349.402101 
L 719.267947 374.73787 
L 720.775932 388.043011 
L 722.283917 405.924812 
L 723.791902 371.667453 
L 725.299887 367.998401 
L 726.807872 379.681435 
L 728.315857 372.285398 
L 729.823842 386.478836 
L 731.331828 415.985738 
L 732.839813 411.640808 
L 734.347798 395.99906 
L 735.855783 369.118427 
L 737.363768 371.068818 
L 738.871753 371.088129 
L 740.379738 361.761013 
L 741.887723 390.418239 
L 743.395708 389.182348 
L 744.903693 413.938793 
L 746.411678 351.101451 
L 747.919663 347.316534 
L 749.427648 359.617514 
L 750.935633 354.422909 
L 752.443618 380.762839 
L 753.951603 387.270579 
L 755.459589 355.388449 
L 756.967574 334.011393 
L 758.475559 340.654308 
L 759.983544 363.305877 
L 761.491529 364.11693 
L 762.999514 398.760505 
L 764.507499 416.545751 
L 766.015484 351.931815 
L 767.523469 378.34899 
L 769.031454 369.060495 
L 770.539439 407.315189 
L 772.047424 413.533267 
L 773.555409 341.600538 
L 775.063394 369.17636 
L 778.079364 388.583713 
L 779.58735 374.950289 
L 781.095335 375.626167 
L 784.111305 405.808947 
L 785.61929 412.297375 
L 787.127275 396.539763 
L 788.63526 402.893016 
L 790.143245 411.949781 
L 791.65123 432.631648 
L 793.159215 433.558566 
L 794.6672 463.799278 
L 796.175185 416.159535 
L 797.68317 431.164027 
L 799.191155 429.850892 
L 800.69914 439.081455 
L 802.207126 457.716376 
L 803.715111 452.888676 
L 805.223096 466.309682 
L 806.731081 471.021517 
L 808.239066 466.116574 
L 809.747051 453.815595 
L 811.255036 444.855384 
L 812.763021 454.394919 
L 814.271006 468.356627 
L 815.778991 479.981728 
L 817.286976 471.098761 
L 818.794961 469.573207 
L 820.302946 465.672426 
L 821.810931 472.740179 
L 823.318916 478.08927 
L 824.826901 488.71021 
L 826.334887 490.64129 
L 827.842872 491.259235 
L 829.350857 485.176334 
L 830.858842 488.536413 
L 832.366827 492.205465 
L 833.874812 495.063463 
L 835.382797 498.887001 
L 836.890782 502.015351 
L 838.398767 498.906312 
L 839.906752 499.215285 
L 841.414737 498.539407 
L 842.922722 501.802932 
L 844.430707 505.62647 
L 845.938692 505.278876 
L 847.446677 508.001699 
L 848.954663 505.510606 
L 850.462648 506.147862 
L 851.970633 505.549227 
L 853.478618 506.514767 
L 854.986603 508.27205 
L 856.494588 509.314833 
L 858.002573 508.04032 
L 859.510558 508.793442 
L 861.018543 506.707875 
L 862.526528 503.116067 
L 864.034513 500.837392 
L 865.542498 497.361448 
L 867.050483 495.816584 
L 868.558468 489.791615 
L 870.066453 476.660271 
L 871.574438 449.451354 
L 873.082424 414.82709 
L 874.590409 386.073309 
L 876.098394 321.555928 
L 879.114364 356.180191 
L 880.622349 368.326684 
L 882.130334 318.041362 
L 883.638319 306.995585 
L 885.146304 301.56925 
L 886.654289 305.585896 
L 888.162274 322.34767 
L 889.670259 347.625507 
L 891.178244 388.139565 
L 892.686229 386.57539 
L 894.194214 398.625329 
L 895.702199 395.960439 
L 897.210185 417.434048 
L 898.71817 430.02469 
L 900.226155 444.951938 
L 901.73414 442.151872 
L 903.242125 452.48315 
L 904.75011 433.017864 
L 906.258095 452.714879 
L 907.76608 462.177171 
L 909.274065 474.323664 
L 910.78205 478.456175 
L 912.290035 476.331987 
L 913.79802 465.073791 
L 915.306005 454.66527 
L 916.81399 462.968914 
L 918.321975 472.701557 
L 919.829961 474.439529 
L 921.337946 479.653445 
L 922.845931 477.239595 
L 924.353916 478.069959 
L 925.861901 469.438032 
L 927.369886 467.545573 
L 928.877871 474.497461 
L 930.385856 475.327826 
L 931.893841 475.810596 
L 933.401826 474.497461 
L 934.909811 465.208967 
L 936.417796 471.021517 
L 937.925781 476.351298 
L 939.433766 471.871193 
L 940.941751 471.465666 
L 942.449736 472.991219 
L 943.957722 471.484977 
L 945.465707 464.610332 
L 946.973692 468.530424 
L 948.481677 464.957926 
L 949.989662 471.678085 
L 953.005632 477.065798 
L 954.513617 475.076785 
L 956.021602 465.151034 
L 957.529587 465.131723 
L 959.037572 470.133221 
L 960.545557 465.923466 
L 962.053542 473.454678 
L 963.561527 478.166513 
L 965.069512 471.253247 
L 966.577497 465.035169 
L 968.085483 473.473989 
L 969.593468 467.313844 
L 971.101453 476.351298 
L 972.609438 478.533418 
L 974.117423 485.157023 
L 975.625408 480.348634 
L 977.133393 473.126395 
L 978.641378 478.629972 
L 980.149363 477.934784 
L 981.657348 480.097593 
L 983.165333 486.837062 
L 984.673318 492.862032 
L 986.181303 486.875684 
L 987.689288 482.414889 
L 989.197273 484.036996 
L 990.705259 486.277049 
L 992.213244 488.092264 
L 993.721229 488.111575 
L 995.229214 492.224775 
L 996.737199 485.832901 
L 998.245184 485.176334 
L 999.753169 486.141874 
L 1001.261154 485.832901 
L 1002.769139 486.759819 
L 1004.277124 488.053643 
L 1005.785109 487.899156 
L 1007.293094 482.318335 
L 1008.801079 482.221781 
L 1010.309064 466.213128 
L 1011.817049 465.517939 
L 1013.325034 471.040828 
L 1014.83302 466.174507 
L 1016.341005 475.559555 
L 1017.84899 463.316508 
L 1019.356975 447.191991 
L 1020.86496 448.794787 
L 1022.372945 447.616828 
L 1023.88093 447.713382 
L 1025.388915 448.331328 
L 1026.8969 454.317676 
L 1028.404885 443.387763 
L 1029.91287 430.488149 
L 1031.420855 418.998223 
L 1032.92884 406.233784 
L 1034.436825 409.458688 
L 1035.94481 397.273573 
L 1037.452795 416.661616 
L 1038.960781 407.836581 
L 1040.468766 378.715895 
L 1041.976751 370.914332 
L 1043.484736 376.282734 
L 1044.992721 365.603862 
L 1046.500706 361.529283 
L 1048.008691 370.470183 
L 1049.516676 370.354318 
L 1051.024661 342.276416 
L 1052.532646 321.884211 
L 1054.040631 308.965286 
L 1055.548616 287.80065 
L 1057.056601 299.947143 
L 1058.564586 291.91385 
L 1060.072571 300.893372 
L 1061.580557 274.707927 
L 1063.088542 204.918697 
L 1064.596527 205.884237 
L 1066.104512 251.534968 
L 1067.612497 287.356501 
L 1069.120482 147.932527 
L 1070.628467 129.297606 
L 1072.136452 118.271139 
L 1073.644437 63.273981 
L 1075.152422 113.346885 
L 1076.660407 98.438948 
L 1078.168392 120.028422 
L 1079.676377 74.33907 
L 1081.184362 75.285299 
L 1082.692347 60.609091 
L 1084.200332 89.884263 
L 1085.708318 107.630888 
L 1087.216303 93.282964 
L 1088.724288 91.583614 
L 1090.232273 102.803188 
L 1090.232273 102.803188 
" clip-path="url(#p5381560173)" style="fill: none; stroke-dasharray: 1.5,2.475; stroke-dashoffset: 0; stroke: #000000; stroke-opacity: 0.5; stroke-width: 1.5"/>
   </g>
   <g id="line2d_29">
    <path d="M 135.677727 518.390909 
L 140.201682 517.483302 
L 143.217653 516.749491 
L 146.233623 515.957748 
L 147.741608 515.455668 
L 149.249593 514.818411 
L 150.757578 514.045979 
L 152.265563 513.061128 
L 161.313473 505.8582 
L 162.821458 504.197471 
L 165.837429 500.354622 
L 167.345414 499.09942 
L 168.853399 498.84838 
L 170.361384 499.195974 
L 171.869369 499.755987 
L 173.377354 500.142203 
L 174.885339 500.103582 
L 177.901309 499.311839 
L 179.409294 499.447015 
L 180.917279 499.910474 
L 182.425264 500.142203 
L 183.933249 499.717366 
L 185.441234 498.655272 
L 186.949219 497.380759 
L 188.457205 496.453841 
L 189.96519 496.415219 
L 191.473175 497.612489 
L 192.98116 499.118731 
L 194.489145 500.06496 
L 195.99713 500.084271 
L 197.505115 499.427704 
L 199.0131 498.925623 
L 200.521085 499.176663 
L 202.02907 500.258068 
L 203.537055 501.822243 
L 205.04504 503.135377 
L 206.553025 503.985052 
L 208.06101 504.429201 
L 209.568995 505.066457 
L 211.07698 506.476146 
L 214.092951 509.797603 
L 215.600936 510.801765 
L 217.108921 511.091427 
L 220.124891 511.149359 
L 221.632876 511.41971 
L 224.648846 512.674912 
L 226.156831 512.945264 
L 229.172801 513.003196 
L 230.680786 513.176993 
L 235.204741 514.528749 
L 236.712727 514.721857 
L 239.728697 514.876344 
L 241.236682 515.069452 
L 244.252652 515.783951 
L 245.760637 515.919127 
L 247.268622 515.822573 
L 251.792577 515.28187 
L 254.808547 515.436357 
L 257.824517 515.590843 
L 260.840488 515.668086 
L 263.856458 515.99637 
L 265.364443 516.286032 
L 266.872428 516.459829 
L 268.380413 516.459829 
L 269.888398 516.24741 
L 272.904368 515.494289 
L 274.412353 515.28187 
L 275.920338 515.223938 
L 278.936308 515.474978 
L 284.968249 515.706708 
L 298.540114 517.367437 
L 307.588025 517.541234 
L 310.603995 517.67641 
L 316.635935 517.753653 
L 321.15989 517.985382 
L 324.17586 517.811585 
L 336.239741 516.537072 
L 340.763696 515.899816 
L 348.303621 515.397735 
L 349.811606 515.127384 
L 352.827576 514.258398 
L 357.351532 512.38525 
L 358.859517 511.805926 
L 360.367502 511.4004 
L 366.399442 509.23759 
L 367.907427 508.542401 
L 369.415412 508.001699 
L 370.923397 507.325821 
L 372.431382 506.939605 
L 373.939367 506.688564 
L 375.447352 506.611321 
L 376.955337 506.900983 
L 379.971308 507.866523 
L 382.987278 508.677577 
L 384.495263 508.889996 
L 387.511233 508.967239 
L 389.019218 508.947928 
L 392.035188 509.218279 
L 395.051158 509.23759 
L 398.067128 509.121725 
L 401.083099 509.160347 
L 402.591084 508.967239 
L 404.099069 508.619644 
L 407.115039 507.287199 
L 411.638994 504.332647 
L 416.162949 500.77946 
L 417.670934 499.447015 
L 419.178919 498.520096 
L 423.702874 495.256571 
L 425.21086 493.441356 
L 426.718845 491.355789 
L 431.2428 484.036996 
L 435.766755 477.954094 
L 438.782725 472.913976 
L 440.29071 470.11391 
L 443.30668 465.595183 
L 444.814665 463.451684 
L 446.32265 461.559226 
L 447.830636 459.087443 
L 449.338621 455.901161 
L 450.846606 452.405906 
L 455.370561 438.888347 
L 456.878546 433.133728 
L 458.386531 426.915651 
L 462.910486 404.978582 
L 464.418471 398.123248 
L 467.434441 386.884363 
L 470.450411 376.166869 
L 471.958397 371.223304 
L 473.466382 367.592874 
L 476.482352 362.649309 
L 477.990337 359.791311 
L 481.006307 350.34833 
L 484.022277 338.684607 
L 485.530262 333.547934 
L 487.038247 332.080313 
L 490.054217 330.091301 
L 491.562202 328.642991 
L 493.070187 329.299558 
L 494.578172 331.578233 
L 496.086158 337.216986 
L 497.594143 344.574401 
L 499.102128 355.678111 
L 500.610113 365.700416 
L 502.118098 373.270249 
L 503.626083 380.202826 
L 505.134068 388.525781 
L 508.150038 407.08346 
L 509.658023 413.803618 
L 511.166008 416.874035 
L 512.673993 415.908495 
L 514.181978 413.011875 
L 515.689963 411.061484 
L 517.197948 412.509794 
L 518.705934 416.816103 
L 520.213919 420.62033 
L 521.721904 422.281059 
L 523.229889 420.427222 
L 526.245859 413.204983 
L 527.753844 413.301537 
L 529.261829 416.082292 
L 530.769814 421.392762 
L 532.277799 424.559733 
L 533.785784 426.529435 
L 536.801754 424.038342 
L 538.309739 423.671436 
L 539.817724 425.003882 
L 541.325709 425.44803 
L 542.833695 424.945949 
L 544.34168 420.156871 
L 545.849665 413.764996 
L 547.35765 405.133069 
L 548.865635 398.084627 
L 550.37362 393.759008 
L 551.881605 389.085794 
L 553.38959 383.253933 
L 554.897575 375.22064 
L 556.40556 364.425903 
L 557.913545 355.118097 
L 559.42153 350.695924 
L 560.929515 346.930318 
L 562.4375 342.237794 
L 563.945485 333.142407 
L 565.45347 319.296564 
L 566.961456 303.712749 
L 568.469441 291.759364 
L 569.977426 287.066839 
L 571.485411 292.126269 
L 572.993396 299.387129 
L 574.501381 304.523802 
L 577.517351 313.40677 
L 579.025336 320.107618 
L 582.041306 341.523294 
L 583.549291 349.846249 
L 585.057276 353.959449 
L 586.565261 353.032531 
L 588.073246 352.955288 
L 589.581232 355.871219 
L 591.089217 363.15139 
L 592.597202 372.57506 
L 594.105187 376.746193 
L 595.613172 376.031694 
L 598.629142 370.006724 
L 600.137127 371.84125 
L 601.645112 379.623502 
L 604.661082 399.977085 
L 606.169067 404.611677 
L 607.677052 406.272406 
L 609.185037 406.388271 
L 610.693022 407.682094 
L 612.201007 411.524943 
L 613.708993 416.101603 
L 615.216978 419.114088 
L 616.724963 419.152709 
L 618.232948 416.970589 
L 619.740933 415.348482 
L 621.248918 415.773319 
L 622.756903 419.17202 
L 624.264888 424.675598 
L 625.772873 429.483987 
L 627.280858 432.43854 
L 628.788843 433.674431 
L 630.296828 434.717214 
L 631.804813 436.976577 
L 633.312798 440.568386 
L 634.820783 444.449857 
L 636.328768 446.496802 
L 637.836754 446.033343 
L 639.344739 444.04433 
L 640.852724 441.746345 
L 642.360709 442.499466 
L 643.868694 447.443031 
L 645.376679 453.912149 
L 646.884664 458.430876 
L 648.392649 459.126065 
L 649.900634 455.341148 
L 651.408619 450.185164 
L 652.916604 446.323005 
L 654.424589 446.68991 
L 655.932574 450.55207 
L 657.440559 453.487311 
L 658.948544 452.695568 
L 660.45653 448.427882 
L 661.964515 441.86221 
L 663.4725 436.32001 
L 664.980485 433.790296 
L 666.48847 433.828917 
L 667.996455 434.697903 
L 669.50444 434.13789 
L 671.012425 431.917148 
L 672.52041 429.31019 
L 674.028395 428.228785 
L 675.53638 429.232947 
L 677.044365 431.24127 
L 678.55235 434.060647 
L 680.060335 435.064808 
L 681.56832 433.597188 
L 683.076305 431.569554 
L 684.584291 430.140554 
L 686.092276 430.256419 
L 687.600261 430.99023 
L 689.108246 430.140554 
L 690.616231 427.321178 
L 692.124216 422.049329 
L 693.632201 415.193995 
L 695.140186 409.420066 
L 696.648171 407.295878 
L 698.156156 407.58554 
L 699.664141 408.415905 
L 701.172126 407.160703 
L 702.680111 402.661286 
L 704.188096 395.941128 
L 705.696081 389.916159 
L 707.204066 387.463687 
L 708.712052 387.367133 
L 710.220037 387.637484 
L 711.728022 386.922985 
L 713.236007 382.075974 
L 714.743992 376.166869 
L 716.251977 371.976426 
L 717.759962 372.208155 
L 720.775932 379.237286 
L 722.283917 381.110434 
L 723.791902 380.955947 
L 725.299887 379.160043 
L 726.807872 380.280069 
L 728.315857 384.277405 
L 729.823842 391.171361 
L 731.331828 395.342493 
L 732.839813 395.01421 
L 734.347798 390.785145 
L 735.855783 383.215311 
L 737.363768 376.958612 
L 738.871753 374.602694 
L 741.887723 381.149055 
L 743.395708 381.342163 
L 744.903693 377.943463 
L 747.919663 365.333511 
L 749.427648 363.692093 
L 750.935633 363.653471 
L 752.443618 365.256267 
L 753.951603 363.460363 
L 755.459589 359.269919 
L 756.967574 355.562246 
L 758.475559 356.064327 
L 759.983544 363.132079 
L 762.999514 379.256597 
L 764.507499 381.882866 
L 766.015484 382.423568 
L 767.523469 384.238783 
L 769.031454 383.118757 
L 770.539439 382.23046 
L 772.047424 382.095285 
L 773.555409 379.33384 
L 775.063394 377.248274 
L 776.571379 375.722721 
L 778.079364 376.784815 
L 779.58735 382.056663 
L 788.63526 410.887687 
L 790.143245 418.650629 
L 793.159215 431.72404 
L 794.6672 434.562728 
L 797.68317 435.393092 
L 799.191155 437.710388 
L 800.69914 441.958764 
L 802.207126 449.779638 
L 803.715111 456.248756 
L 805.223096 460.70955 
L 806.731081 461.790955 
L 809.747051 458.681916 
L 811.255036 458.546741 
L 812.763021 460.516442 
L 815.778991 467.893168 
L 817.286976 470.36495 
L 818.794961 471.407733 
L 820.302946 472.720868 
L 821.810931 475.231272 
L 824.826901 483.438362 
L 826.334887 486.624644 
L 827.842872 488.439859 
L 830.858842 490.679911 
L 832.366827 492.630302 
L 835.382797 497.187651 
L 836.890782 498.61665 
L 841.414737 500.991879 
L 842.922722 502.266391 
L 844.430707 503.753323 
L 845.938692 505.027836 
L 847.446677 505.838889 
L 848.954663 506.167173 
L 850.462648 506.283038 
L 853.478618 507.016848 
L 854.986603 507.634794 
L 856.494588 507.982388 
L 858.002573 507.827902 
L 859.510558 506.978226 
L 861.018543 505.356119 
L 862.526528 503.19331 
L 864.034513 500.509109 
L 865.542498 496.68557 
L 867.050483 490.370939 
L 868.558468 479.653445 
L 870.066453 463.470995 
L 871.574438 439.293873 
L 874.590409 385.687093 
L 876.098394 366.27974 
L 877.606379 352.878045 
L 879.114364 344.400604 
L 882.130334 328.990585 
L 883.638319 320.455212 
L 885.146304 316.168214 
L 886.654289 320.377969 
L 888.162274 333.296894 
L 891.178244 367.631496 
L 892.686229 382.964271 
L 894.194214 395.535601 
L 895.702199 406.677933 
L 897.210185 416.449197 
L 898.71817 426.973583 
L 900.226155 434.678592 
L 901.73414 440.877359 
L 904.75011 449.238935 
L 906.258095 454.626648 
L 907.76608 461.308185 
L 909.274065 466.676587 
L 910.78205 469.901491 
L 912.290035 469.553897 
L 913.79802 467.893168 
L 915.306005 466.50279 
L 916.81399 467.120736 
L 918.321975 469.515275 
L 919.829961 472.836733 
L 921.337946 475.19265 
L 922.845931 475.463001 
L 924.353916 474.594015 
L 925.861901 473.531921 
L 927.369886 472.894665 
L 928.877871 473.087773 
L 933.401826 472.759489 
L 934.909811 472.122233 
L 936.417796 471.871193 
L 939.433766 472.180165 
L 940.941751 471.967747 
L 942.449736 471.098761 
L 943.957722 469.63114 
L 945.465707 468.781465 
L 946.973692 468.626978 
L 948.481677 469.418721 
L 949.989662 470.944274 
L 951.497647 472.180165 
L 953.005632 472.218787 
L 954.513617 471.581531 
L 956.021602 469.959423 
L 957.529587 468.91664 
L 959.037572 469.071127 
L 960.545557 469.978734 
L 962.053542 471.021517 
L 963.561527 471.736017 
L 965.069512 471.311179 
L 966.577497 471.233936 
L 968.085483 471.465666 
L 969.593468 472.913976 
L 971.101453 475.308515 
L 972.609438 477.413392 
L 974.117423 478.533418 
L 975.625408 478.977567 
L 977.133393 478.629972 
L 978.641378 478.900324 
L 980.149363 480.232769 
L 983.165333 484.654942 
L 984.673318 485.871522 
L 986.181303 486.277049 
L 989.197273 485.968076 
L 990.705259 486.392914 
L 992.213244 487.203968 
L 993.721229 487.860535 
L 995.229214 487.918467 
L 999.753169 486.508779 
L 1001.261154 486.412225 
L 1002.769139 486.470157 
L 1004.277124 486.199806 
L 1005.785109 484.307348 
L 1007.293094 481.140376 
L 1010.309064 473.396746 
L 1011.817049 470.867031 
L 1013.325034 469.264235 
L 1014.83302 467.101425 
L 1016.341005 464.533089 
L 1017.84899 460.497132 
L 1019.356975 455.708053 
L 1020.86496 451.865204 
L 1022.372945 449.470665 
L 1025.388915 447.385099 
L 1026.8969 444.160195 
L 1028.404885 438.154536 
L 1029.91287 430.468838 
L 1031.420855 421.663113 
L 1032.92884 414.633982 
L 1034.436825 410.076633 
L 1035.94481 406.079298 
L 1037.452795 401.425395 
L 1038.960781 395.651466 
L 1041.976751 380.125583 
L 1043.484736 373.405425 
L 1044.992721 369.446711 
L 1046.500706 366.414915 
L 1048.008691 361.413418 
L 1049.516676 352.878045 
L 1051.024661 340.596376 
L 1054.040631 313.696432 
L 1055.548616 303.905857 
L 1057.056601 297.166387 
L 1058.564586 287.453055 
L 1061.580557 259.780679 
L 1063.088542 248.985942 
L 1064.596527 236.704274 
L 1066.104512 223.012917 
L 1067.612497 204.899386 
L 1069.120482 178.791185 
L 1072.136452 123.60092 
L 1073.644437 106.491551 
L 1075.152422 100.852798 
L 1076.660407 97.396164 
L 1078.168392 92.298113 
L 1079.676377 88.416643 
L 1081.184362 83.975159 
L 1082.692347 83.415145 
L 1084.200332 85.249671 
L 1085.708318 90.637384 
L 1087.216303 94.267815 
L 1088.724288 97.145124 
L 1090.232273 97.78238 
L 1090.232273 97.78238 
" clip-path="url(#p5381560173)" style="fill: none; stroke: #000000; stroke-width: 1.5; stroke-linecap: square"/>
   </g>
   <g id="patch_3">
    <path d="M 87.95 541.28 
L 87.95 37.72 
" style="fill: none; stroke: #555555; stroke-linejoin: miter; stroke-linecap: square"/>
   </g>
   <g id="patch_4">
    <path d="M 87.95 541.28 
L 1137.96 541.28 
" style="fill: none; stroke: #555555; stroke-linejoin: miter; stroke-linecap: square"/>
   </g>
   <g id="text_29">
    <!-- Positive COVID-19 tests - last updated on 29 November 2021 -->
    <g style="fill: #555555" transform="translate(337.602813 27.72)scale(0.18 -0.18)">
     <defs>
      <path id="DejaVuSans-50" d="M 1259 4147 
L 1259 2394 
L 2053 2394 
Q 2494 2394 2734 2622 
Q 2975 2850 2975 3272 
Q 2975 3691 2734 3919 
Q 2494 4147 2053 4147 
L 1259 4147 
z
M 628 4666 
L 2053 4666 
Q 2838 4666 3239 4311 
Q 3641 3956 3641 3272 
Q 3641 2581 3239 2228 
Q 2838 1875 2053 1875 
L 1259 1875 
L 1259 0 
L 628 0 
L 628 4666 
z
" transform="scale(0.015625)"/>
      <path id="DejaVuSans-6f" d="M 1959 3097 
Q 1497 3097 1228 2736 
Q 959 2375 959 1747 
Q 959 1119 1226 758 
Q 1494 397 1959 397 
Q 2419 397 2687 759 
Q 2956 1122 2956 1747 
Q 2956 2369 2687 2733 
Q 2419 3097 1959 3097 
z
M 1959 3584 
Q 2709 3584 3137 3096 
Q 3566 2609 3566 1747 
Q 3566 888 3137 398 
Q 2709 -91 1959 -91 
Q 1206 -91 779 398 
Q 353 888 353 1747 
Q 353 2609 779 3096 
Q 1206 3584 1959 3584 
z
" transform="scale(0.015625)"/>
      <path id="DejaVuSans-69" d="M 603 3500 
L 1178 3500 
L 1178 0 
L 603 0 
L 603 3500 
z
M 603 4863 
L 1178 4863 
L 1178 4134 
L 603 4134 
L 603 4863 
z
" transform="scale(0.015625)"/>
      <path id="DejaVuSans-74" d="M 1172 4494 
L 1172 3500 
L 2356 3500 
L 2356 3053 
L 1172 3053 
L 1172 1153 
Q 1172 725 1289 603 
Q 1406 481 1766 481 
L 2356 481 
L 2356 0 
L 1766 0 
Q 1100 0 847 248 
Q 594 497 594 1153 
L 594 3053 
L 172 3053 
L 172 3500 
L 594 3500 
L 594 4494 
L 1172 4494 
z
" transform="scale(0.015625)"/>
      <path id="DejaVuSans-76" d="M 191 3500 
L 800 3500 
L 1894 563 
L 2988 3500 
L 3597 3500 
L 2284 0 
L 1503 0 
L 191 3500 
z
" transform="scale(0.015625)"/>
      <path id="DejaVuSans-4f" d="M 2522 4238 
Q 1834 4238 1429 3725 
Q 1025 3213 1025 2328 
Q 1025 1447 1429 934 
Q 1834 422 2522 422 
Q 3209 422 3611 934 
Q 4013 1447 4013 2328 
Q 4013 3213 3611 3725 
Q 3209 4238 2522 4238 
z
M 2522 4750 
Q 3503 4750 4090 4092 
Q 4678 3434 4678 2328 
Q 4678 1225 4090 567 
Q 3503 -91 2522 -91 
Q 1538 -91 948 565 
Q 359 1222 359 2328 
Q 359 3434 948 4092 
Q 1538 4750 2522 4750 
z
" transform="scale(0.015625)"/>
      <path id="DejaVuSans-56" d="M 1831 0 
L 50 4666 
L 709 4666 
L 2188 738 
L 3669 4666 
L 4325 4666 
L 2547 0 
L 1831 0 
z
" transform="scale(0.015625)"/>
      <path id="DejaVuSans-49" d="M 628 4666 
L 1259 4666 
L 1259 0 
L 628 0 
L 628 4666 
z
" transform="scale(0.015625)"/>
      <path id="DejaVuSans-44" d="M 1259 4147 
L 1259 519 
L 2022 519 
Q 2988 519 3436 956 
Q 3884 1394 3884 2338 
Q 3884 3275 3436 3711 
Q 2988 4147 2022 4147 
L 1259 4147 
z
M 628 4666 
L 1925 4666 
Q 3281 4666 3915 4102 
Q 4550 3538 4550 2338 
Q 4550 1131 3912 565 
Q 3275 0 1925 0 
L 628 0 
L 628 4666 
z
" transform="scale(0.015625)"/>
      <path id="DejaVuSans-2d" d="M 313 2009 
L 1997 2009 
L 1997 1497 
L 313 1497 
L 313 2009 
z
" transform="scale(0.015625)"/>
      <path id="DejaVuSans-31" d="M 794 531 
L 1825 531 
L 1825 4091 
L 703 3866 
L 703 4441 
L 1819 4666 
L 2450 4666 
L 2450 531 
L 3481 531 
L 3481 0 
L 794 0 
L 794 531 
z
" transform="scale(0.015625)"/>
      <path id="DejaVuSans-39" d="M 703 97 
L 703 672 
Q 941 559 1184 500 
Q 1428 441 1663 441 
Q 2288 441 2617 861 
Q 2947 1281 2994 2138 
Q 2813 1869 2534 1725 
Q 2256 1581 1919 1581 
Q 1219 1581 811 2004 
Q 403 2428 403 3163 
Q 403 3881 828 4315 
Q 1253 4750 1959 4750 
Q 2769 4750 3195 4129 
Q 3622 3509 3622 2328 
Q 3622 1225 3098 567 
Q 2575 -91 1691 -91 
Q 1453 -91 1209 -44 
Q 966 3 703 97 
z
M 1959 2075 
Q 2384 2075 2632 2365 
Q 2881 2656 2881 3163 
Q 2881 3666 2632 3958 
Q 2384 4250 1959 4250 
Q 1534 4250 1286 3958 
Q 1038 3666 1038 3163 
Q 1038 2656 1286 2365 
Q 1534 2075 1959 2075 
z
" transform="scale(0.015625)"/>
      <path id="DejaVuSans-6c" d="M 603 4863 
L 1178 4863 
L 1178 0 
L 603 0 
L 603 4863 
z
" transform="scale(0.015625)"/>
      <path id="DejaVuSans-75" d="M 544 1381 
L 544 3500 
L 1119 3500 
L 1119 1403 
Q 1119 906 1312 657 
Q 1506 409 1894 409 
Q 2359 409 2629 706 
Q 2900 1003 2900 1516 
L 2900 3500 
L 3475 3500 
L 3475 0 
L 2900 0 
L 2900 538 
Q 2691 219 2414 64 
Q 2138 -91 1772 -91 
Q 1169 -91 856 284 
Q 544 659 544 1381 
z
M 1991 3584 
L 1991 3584 
z
" transform="scale(0.015625)"/>
      <path id="DejaVuSans-70" d="M 1159 525 
L 1159 -1331 
L 581 -1331 
L 581 3500 
L 1159 3500 
L 1159 2969 
Q 1341 3281 1617 3432 
Q 1894 3584 2278 3584 
Q 2916 3584 3314 3078 
Q 3713 2572 3713 1747 
Q 3713 922 3314 415 
Q 2916 -91 2278 -91 
Q 1894 -91 1617 61 
Q 1341 213 1159 525 
z
M 3116 1747 
Q 3116 2381 2855 2742 
Q 2594 3103 2138 3103 
Q 1681 3103 1420 2742 
Q 1159 2381 1159 1747 
Q 1159 1113 1420 752 
Q 1681 391 2138 391 
Q 2594 391 2855 752 
Q 3116 1113 3116 1747 
z
" transform="scale(0.015625)"/>
      <path id="DejaVuSans-64" d="M 2906 2969 
L 2906 4863 
L 3481 4863 
L 3481 0 
L 2906 0 
L 2906 525 
Q 2725 213 2448 61 
Q 2172 -91 1784 -91 
Q 1150 -91 751 415 
Q 353 922 353 1747 
Q 353 2572 751 3078 
Q 1150 3584 1784 3584 
Q 2172 3584 2448 3432 
Q 2725 3281 2906 2969 
z
M 947 1747 
Q 947 1113 1208 752 
Q 1469 391 1925 391 
Q 2381 391 2643 752 
Q 2906 1113 2906 1747 
Q 2906 2381 2643 2742 
Q 2381 3103 1925 3103 
Q 1469 3103 1208 2742 
Q 947 2381 947 1747 
z
" transform="scale(0.015625)"/>
      <path id="DejaVuSans-6e" d="M 3513 2113 
L 3513 0 
L 2938 0 
L 2938 2094 
Q 2938 2591 2744 2837 
Q 2550 3084 2163 3084 
Q 1697 3084 1428 2787 
Q 1159 2491 1159 1978 
L 1159 0 
L 581 0 
L 581 3500 
L 1159 3500 
L 1159 2956 
Q 1366 3272 1645 3428 
Q 1925 3584 2291 3584 
Q 2894 3584 3203 3211 
Q 3513 2838 3513 2113 
z
" transform="scale(0.015625)"/>
      <path id="DejaVuSans-32" d="M 1228 531 
L 3431 531 
L 3431 0 
L 469 0 
L 469 531 
Q 828 903 1448 1529 
Q 2069 2156 2228 2338 
Q 2531 2678 2651 2914 
Q 2772 3150 2772 3378 
Q 2772 3750 2511 3984 
Q 2250 4219 1831 4219 
Q 1534 4219 1204 4116 
Q 875 4013 500 3803 
L 500 4441 
Q 881 4594 1212 4672 
Q 1544 4750 1819 4750 
Q 2544 4750 2975 4387 
Q 3406 4025 3406 3419 
Q 3406 3131 3298 2873 
Q 3191 2616 2906 2266 
Q 2828 2175 2409 1742 
Q 1991 1309 1228 531 
z
" transform="scale(0.015625)"/>
      <path id="DejaVuSans-6d" d="M 3328 2828 
Q 3544 3216 3844 3400 
Q 4144 3584 4550 3584 
Q 5097 3584 5394 3201 
Q 5691 2819 5691 2113 
L 5691 0 
L 5113 0 
L 5113 2094 
Q 5113 2597 4934 2840 
Q 4756 3084 4391 3084 
Q 3944 3084 3684 2787 
Q 3425 2491 3425 1978 
L 3425 0 
L 2847 0 
L 2847 2094 
Q 2847 2600 2669 2842 
Q 2491 3084 2119 3084 
Q 1678 3084 1418 2786 
Q 1159 2488 1159 1978 
L 1159 0 
L 581 0 
L 581 3500 
L 1159 3500 
L 1159 2956 
Q 1356 3278 1631 3431 
Q 1906 3584 2284 3584 
Q 2666 3584 2933 3390 
Q 3200 3197 3328 2828 
z
" transform="scale(0.015625)"/>
      <path id="DejaVuSans-62" d="M 3116 1747 
Q 3116 2381 2855 2742 
Q 2594 3103 2138 3103 
Q 1681 3103 1420 2742 
Q 1159 2381 1159 1747 
Q 1159 1113 1420 752 
Q 1681 391 2138 391 
Q 2594 391 2855 752 
Q 3116 1113 3116 1747 
z
M 1159 2969 
Q 1341 3281 1617 3432 
Q 1894 3584 2278 3584 
Q 2916 3584 3314 3078 
Q 3713 2572 3713 1747 
Q 3713 922 3314 415 
Q 2916 -91 2278 -91 
Q 1894 -91 1617 61 
Q 1341 213 1159 525 
L 1159 0 
L 581 0 
L 581 4863 
L 1159 4863 
L 1159 2969 
z
" transform="scale(0.015625)"/>
      <path id="DejaVuSans-72" d="M 2631 2963 
Q 2534 3019 2420 3045 
Q 2306 3072 2169 3072 
Q 1681 3072 1420 2755 
Q 1159 2438 1159 1844 
L 1159 0 
L 581 0 
L 581 3500 
L 1159 3500 
L 1159 2956 
Q 1341 3275 1631 3429 
Q 1922 3584 2338 3584 
Q 2397 3584 2469 3576 
Q 2541 3569 2628 3553 
L 2631 2963 
z
" transform="scale(0.015625)"/>
      <path id="DejaVuSans-30" d="M 2034 4250 
Q 1547 4250 1301 3770 
Q 1056 3291 1056 2328 
Q 1056 1369 1301 889 
Q 1547 409 2034 409 
Q 2525 409 2770 889 
Q 3016 1369 3016 2328 
Q 3016 3291 2770 3770 
Q 2525 4250 2034 4250 
z
M 2034 4750 
Q 2819 4750 3233 4129 
Q 3647 3509 3647 2328 
Q 3647 1150 3233 529 
Q 2819 -91 2034 -91 
Q 1250 -91 836 529 
Q 422 1150 422 2328 
Q 422 3509 836 4129 
Q 1250 4750 2034 4750 
z
" transform="scale(0.015625)"/>
     </defs>
     <use xlink:href="#DejaVuSans-50"/>
     <use xlink:href="#DejaVuSans-6f" x="56.677734"/>
     <use xlink:href="#DejaVuSans-73" x="117.859375"/>
     <use xlink:href="#DejaVuSans-69" x="169.958984"/>
     <use xlink:href="#DejaVuSans-74" x="197.742188"/>
     <use xlink:href="#DejaVuSans-69" x="236.951172"/>
     <use xlink:href="#DejaVuSans-76" x="264.734375"/>
     <use xlink:href="#DejaVuSans-65" x="323.914062"/>
     <use xlink:href="#DejaVuSans-20" x="385.4375"/>
     <use xlink:href="#DejaVuSans-43" x="417.224609"/>
     <use xlink:href="#DejaVuSans-4f" x="487.048828"/>
     <use xlink:href="#DejaVuSans-56" x="564.009766"/>
     <use xlink:href="#DejaVuSans-49" x="632.417969"/>
     <use xlink:href="#DejaVuSans-44" x="661.910156"/>
     <use xlink:href="#DejaVuSans-2d" x="738.912109"/>
     <use xlink:href="#DejaVuSans-31" x="774.996094"/>
     <use xlink:href="#DejaVuSans-39" x="838.619141"/>
     <use xlink:href="#DejaVuSans-20" x="902.242188"/>
     <use xlink:href="#DejaVuSans-74" x="934.029297"/>
     <use xlink:href="#DejaVuSans-65" x="973.238281"/>
     <use xlink:href="#DejaVuSans-73" x="1034.761719"/>
     <use xlink:href="#DejaVuSans-74" x="1086.861328"/>
     <use xlink:href="#DejaVuSans-73" x="1126.070312"/>
     <use xlink:href="#DejaVuSans-20" x="1178.169922"/>
     <use xlink:href="#DejaVuSans-2d" x="1209.957031"/>
     <use xlink:href="#DejaVuSans-20" x="1246.041016"/>
     <use xlink:href="#DejaVuSans-6c" x="1277.828125"/>
     <use xlink:href="#DejaVuSans-61" x="1305.611328"/>
     <use xlink:href="#DejaVuSans-73" x="1366.890625"/>
     <use xlink:href="#DejaVuSans-74" x="1418.990234"/>
     <use xlink:href="#DejaVuSans-20" x="1458.199219"/>
     <use xlink:href="#DejaVuSans-75" x="1489.986328"/>
     <use xlink:href="#DejaVuSans-70" x="1553.365234"/>
     <use xlink:href="#DejaVuSans-64" x="1616.841797"/>
     <use xlink:href="#DejaVuSans-61" x="1680.318359"/>
     <use xlink:href="#DejaVuSans-74" x="1741.597656"/>
     <use xlink:href="#DejaVuSans-65" x="1780.806641"/>
     <use xlink:href="#DejaVuSans-64" x="1842.330078"/>
     <use xlink:href="#DejaVuSans-20" x="1905.806641"/>
     <use xlink:href="#DejaVuSans-6f" x="1937.59375"/>
     <use xlink:href="#DejaVuSans-6e" x="1998.775391"/>
     <use xlink:href="#DejaVuSans-20" x="2062.154297"/>
     <use xlink:href="#DejaVuSans-32" x="2093.941406"/>
     <use xlink:href="#DejaVuSans-39" x="2157.564453"/>
     <use xlink:href="#DejaVuSans-20" x="2221.1875"/>
     <use xlink:href="#DejaVuSans-4e" x="2252.974609"/>
     <use xlink:href="#DejaVuSans-6f" x="2327.779297"/>
     <use xlink:href="#DejaVuSans-76" x="2388.960938"/>
     <use xlink:href="#DejaVuSans-65" x="2448.140625"/>
     <use xlink:href="#DejaVuSans-6d" x="2509.664062"/>
     <use xlink:href="#DejaVuSans-62" x="2607.076172"/>
     <use xlink:href="#DejaVuSans-65" x="2670.552734"/>
     <use xlink:href="#DejaVuSans-72" x="2732.076172"/>
     <use xlink:href="#DejaVuSans-20" x="2773.189453"/>
     <use xlink:href="#DejaVuSans-32" x="2804.976562"/>
     <use xlink:href="#DejaVuSans-30" x="2868.599609"/>
     <use xlink:href="#DejaVuSans-32" x="2932.222656"/>
     <use xlink:href="#DejaVuSans-31" x="2995.845703"/>
    </g>
   </g>
   <g id="legend_1">
    <g id="line2d_30">
     <path d="M 99.65 54.747969 
L 112.65 54.747969 
L 125.65 54.747969 
" style="fill: none; stroke-dasharray: 1.5,2.475; stroke-dashoffset: 0; stroke: #000000; stroke-opacity: 0.5; stroke-width: 1.5"/>
    </g>
    <g id="text_30">
     <!-- Actual -->
     <g style="fill: #555555" transform="translate(136.05 59.297969)scale(0.13 -0.13)">
      <use xlink:href="#DejaVuSans-Bold-41"/>
      <use xlink:href="#DejaVuSans-Bold-63" x="77.392578"/>
      <use xlink:href="#DejaVuSans-Bold-74" x="136.669922"/>
      <use xlink:href="#DejaVuSans-Bold-75" x="184.472656"/>
      <use xlink:href="#DejaVuSans-Bold-61" x="255.664062"/>
      <use xlink:href="#DejaVuSans-Bold-6c" x="323.144531"/>
     </g>
    </g>
    <g id="line2d_31">
     <path d="M 99.65 73.829531 
L 112.65 73.829531 
L 125.65 73.829531 
" style="fill: none; stroke: #000000; stroke-width: 1.5; stroke-linecap: square"/>
    </g>
    <g id="text_31">
     <!-- Smoothed -->
     <g style="fill: #555555" transform="translate(136.05 78.379531)scale(0.13 -0.13)">
      <defs>
       <path id="DejaVuSans-Bold-6d" d="M 3781 2919 
Q 3994 3244 4286 3414 
Q 4578 3584 4928 3584 
Q 5531 3584 5847 3212 
Q 6163 2841 6163 2131 
L 6163 0 
L 5038 0 
L 5038 1825 
Q 5041 1866 5042 1909 
Q 5044 1953 5044 2034 
Q 5044 2406 4934 2573 
Q 4825 2741 4581 2741 
Q 4263 2741 4089 2478 
Q 3916 2216 3909 1719 
L 3909 0 
L 2784 0 
L 2784 1825 
Q 2784 2406 2684 2573 
Q 2584 2741 2328 2741 
Q 2006 2741 1831 2477 
Q 1656 2213 1656 1722 
L 1656 0 
L 531 0 
L 531 3500 
L 1656 3500 
L 1656 2988 
Q 1863 3284 2130 3434 
Q 2397 3584 2719 3584 
Q 3081 3584 3359 3409 
Q 3638 3234 3781 2919 
z
" transform="scale(0.015625)"/>
       <path id="DejaVuSans-Bold-68" d="M 4056 2131 
L 4056 0 
L 2931 0 
L 2931 347 
L 2931 1625 
Q 2931 2084 2911 2256 
Q 2891 2428 2841 2509 
Q 2775 2619 2662 2680 
Q 2550 2741 2406 2741 
Q 2056 2741 1856 2470 
Q 1656 2200 1656 1722 
L 1656 0 
L 538 0 
L 538 4863 
L 1656 4863 
L 1656 2988 
Q 1909 3294 2193 3439 
Q 2478 3584 2822 3584 
Q 3428 3584 3742 3212 
Q 4056 2841 4056 2131 
z
" transform="scale(0.015625)"/>
       <path id="DejaVuSans-Bold-64" d="M 2919 2988 
L 2919 4863 
L 4044 4863 
L 4044 0 
L 2919 0 
L 2919 506 
Q 2688 197 2409 53 
Q 2131 -91 1766 -91 
Q 1119 -91 703 423 
Q 288 938 288 1747 
Q 288 2556 703 3070 
Q 1119 3584 1766 3584 
Q 2128 3584 2408 3439 
Q 2688 3294 2919 2988 
z
M 2181 722 
Q 2541 722 2730 984 
Q 2919 1247 2919 1747 
Q 2919 2247 2730 2509 
Q 2541 2772 2181 2772 
Q 1825 2772 1636 2509 
Q 1447 2247 1447 1747 
Q 1447 1247 1636 984 
Q 1825 722 2181 722 
z
" transform="scale(0.015625)"/>
      </defs>
      <use xlink:href="#DejaVuSans-Bold-53"/>
      <use xlink:href="#DejaVuSans-Bold-6d" x="72.021484"/>
      <use xlink:href="#DejaVuSans-Bold-6f" x="176.220703"/>
      <use xlink:href="#DejaVuSans-Bold-6f" x="244.921875"/>
      <use xlink:href="#DejaVuSans-Bold-74" x="313.623047"/>
      <use xlink:href="#DejaVuSans-Bold-68" x="361.425781"/>
      <use xlink:href="#DejaVuSans-Bold-65" x="432.617188"/>
      <use xlink:href="#DejaVuSans-Bold-64" x="500.439453"/>
     </g>
    </g>
   </g>
  </g>
 </g>
 <defs>
  <clipPath id="p5381560173">
   <rect x="87.95" y="37.72" width="1050.01" height="503.56"/>
  </clipPath>
 </defs>
</svg>
