<?xml version="1.0" encoding="utf-8" standalone="no"?>
<!DOCTYPE svg PUBLIC "-//W3C//DTD SVG 1.1//EN"
  "http://www.w3.org/Graphics/SVG/1.1/DTD/svg11.dtd">
<svg height="576pt" version="1.1" viewBox="0 0 1152 576" width="1152pt" xmlns="http://www.w3.org/2000/svg" xmlns:xlink="http://www.w3.org/1999/xlink">
 <metadata>
  <rdf:RDF xmlns:cc="http://creativecommons.org/ns#" xmlns:dc="http://purl.org/dc/elements/1.1/" xmlns:rdf="http://www.w3.org/1999/02/22-rdf-syntax-ns#">
   <cc:Work>
    <dc:type rdf:resource="http://purl.org/dc/dcmitype/StillImage"/>
    <dc:date>2021-05-21T17:43:29.947426</dc:date>
    <dc:format>image/svg+xml</dc:format>
    <dc:creator>
     <cc:Agent>
      <dc:title>Matplotlib v3.4.2, https://matplotlib.org/</dc:title>
     </cc:Agent>
    </dc:creator>
   </cc:Work>
  </rdf:RDF>
 </metadata>
 <defs>
  <style type="text/css">*{stroke-linecap:butt;stroke-linejoin:round;}</style>
 </defs>
 <g id="figure_1">
  <g id="patch_1">
   <path d="M 0 576 
L 1152 576 
L 1152 0 
L 0 0 
z
" style="fill:#ffffff;"/>
  </g>
  <g id="axes_1">
   <g id="patch_2">
    <path d="M 87.95 541.28 
L 1137.96 541.28 
L 1137.96 37.72 
L 87.95 37.72 
z
" style="fill:#ffffff;"/>
   </g>
   <g id="matplotlib.axis_1">
    <g id="xtick_1">
     <g id="line2d_1">
      <defs>
       <path d="M 0 0 
L 0 3.5 
" id="m8474ecef6a" style="stroke:#555555;stroke-width:0.8;"/>
      </defs>
      <g>
       <use style="fill:#555555;stroke:#555555;stroke-width:0.8;" x="124.855113" xlink:href="#m8474ecef6a" y="541.28"/>
      </g>
     </g>
     <g id="text_1">
      <!-- Mar -->
      <g style="fill:#555555;" transform="translate(109.713238 558.917812)scale(0.14 -0.14)">
       <defs>
        <path d="M 588 4666 
L 2119 4666 
L 3181 2169 
L 4250 4666 
L 5778 4666 
L 5778 0 
L 4641 0 
L 4641 3413 
L 3566 897 
L 2803 897 
L 1728 3413 
L 1728 0 
L 588 0 
L 588 4666 
z
" id="DejaVuSans-Bold-4d" transform="scale(0.015625)"/>
        <path d="M 2106 1575 
Q 1756 1575 1579 1456 
Q 1403 1338 1403 1106 
Q 1403 894 1545 773 
Q 1688 653 1941 653 
Q 2256 653 2472 879 
Q 2688 1106 2688 1447 
L 2688 1575 
L 2106 1575 
z
M 3816 1997 
L 3816 0 
L 2688 0 
L 2688 519 
Q 2463 200 2181 54 
Q 1900 -91 1497 -91 
Q 953 -91 614 226 
Q 275 544 275 1050 
Q 275 1666 698 1953 
Q 1122 2241 2028 2241 
L 2688 2241 
L 2688 2328 
Q 2688 2594 2478 2717 
Q 2269 2841 1825 2841 
Q 1466 2841 1156 2769 
Q 847 2697 581 2553 
L 581 3406 
Q 941 3494 1303 3539 
Q 1666 3584 2028 3584 
Q 2975 3584 3395 3211 
Q 3816 2838 3816 1997 
z
" id="DejaVuSans-Bold-61" transform="scale(0.015625)"/>
        <path d="M 3138 2547 
Q 2991 2616 2845 2648 
Q 2700 2681 2553 2681 
Q 2122 2681 1889 2404 
Q 1656 2128 1656 1613 
L 1656 0 
L 538 0 
L 538 3500 
L 1656 3500 
L 1656 2925 
Q 1872 3269 2151 3426 
Q 2431 3584 2822 3584 
Q 2878 3584 2943 3579 
Q 3009 3575 3134 3559 
L 3138 2547 
z
" id="DejaVuSans-Bold-72" transform="scale(0.015625)"/>
       </defs>
       <use xlink:href="#DejaVuSans-Bold-4d"/>
       <use x="99.511719" xlink:href="#DejaVuSans-Bold-61"/>
       <use x="166.992188" xlink:href="#DejaVuSans-Bold-72"/>
      </g>
     </g>
    </g>
    <g id="xtick_2">
     <g id="line2d_2">
      <g>
       <use style="fill:#555555;stroke:#555555;stroke-width:0.8;" x="191.95532" xlink:href="#m8474ecef6a" y="541.28"/>
      </g>
     </g>
     <g id="text_2">
      <!-- Apr -->
      <g style="fill:#555555;" transform="translate(178.075632 558.917812)scale(0.14 -0.14)">
       <defs>
        <path d="M 3419 850 
L 1538 850 
L 1241 0 
L 31 0 
L 1759 4666 
L 3194 4666 
L 4922 0 
L 3713 0 
L 3419 850 
z
M 1838 1716 
L 3116 1716 
L 2478 3572 
L 1838 1716 
z
" id="DejaVuSans-Bold-41" transform="scale(0.015625)"/>
        <path d="M 1656 506 
L 1656 -1331 
L 538 -1331 
L 538 3500 
L 1656 3500 
L 1656 2988 
Q 1888 3294 2169 3439 
Q 2450 3584 2816 3584 
Q 3463 3584 3878 3070 
Q 4294 2556 4294 1747 
Q 4294 938 3878 423 
Q 3463 -91 2816 -91 
Q 2450 -91 2169 54 
Q 1888 200 1656 506 
z
M 2400 2772 
Q 2041 2772 1848 2508 
Q 1656 2244 1656 1747 
Q 1656 1250 1848 986 
Q 2041 722 2400 722 
Q 2759 722 2948 984 
Q 3138 1247 3138 1747 
Q 3138 2247 2948 2509 
Q 2759 2772 2400 2772 
z
" id="DejaVuSans-Bold-70" transform="scale(0.015625)"/>
       </defs>
       <use xlink:href="#DejaVuSans-Bold-41"/>
       <use x="77.392578" xlink:href="#DejaVuSans-Bold-70"/>
       <use x="148.974609" xlink:href="#DejaVuSans-Bold-72"/>
      </g>
     </g>
    </g>
    <g id="xtick_3">
     <g id="line2d_3">
      <g>
       <use style="fill:#555555;stroke:#555555;stroke-width:0.8;" x="256.891003" xlink:href="#m8474ecef6a" y="541.28"/>
      </g>
     </g>
     <g id="text_3">
      <!-- May -->
      <g style="fill:#555555;" transform="translate(240.856628 558.808437)scale(0.14 -0.14)">
       <defs>
        <path d="M 78 3500 
L 1197 3500 
L 2138 1125 
L 2938 3500 
L 4056 3500 
L 2584 -331 
Q 2363 -916 2067 -1148 
Q 1772 -1381 1288 -1381 
L 641 -1381 
L 641 -647 
L 991 -647 
Q 1275 -647 1404 -556 
Q 1534 -466 1606 -231 
L 1638 -134 
L 78 3500 
z
" id="DejaVuSans-Bold-79" transform="scale(0.015625)"/>
       </defs>
       <use xlink:href="#DejaVuSans-Bold-4d"/>
       <use x="99.511719" xlink:href="#DejaVuSans-Bold-61"/>
       <use x="163.867188" xlink:href="#DejaVuSans-Bold-79"/>
      </g>
     </g>
    </g>
    <g id="xtick_4">
     <g id="line2d_4">
      <g>
       <use style="fill:#555555;stroke:#555555;stroke-width:0.8;" x="323.991209" xlink:href="#m8474ecef6a" y="541.28"/>
      </g>
     </g>
     <g id="text_4">
      <!-- Jun -->
      <g style="fill:#555555;" transform="translate(311.42074 558.917812)scale(0.14 -0.14)">
       <defs>
        <path d="M 588 4666 
L 1791 4666 
L 1791 453 
Q 1791 -419 1317 -850 
Q 844 -1281 -116 -1281 
L -359 -1281 
L -359 -372 
L -172 -372 
Q 203 -372 395 -162 
Q 588 47 588 453 
L 588 4666 
z
" id="DejaVuSans-Bold-4a" transform="scale(0.015625)"/>
        <path d="M 500 1363 
L 500 3500 
L 1625 3500 
L 1625 3150 
Q 1625 2866 1622 2436 
Q 1619 2006 1619 1863 
Q 1619 1441 1641 1255 
Q 1663 1069 1716 984 
Q 1784 875 1895 815 
Q 2006 756 2150 756 
Q 2500 756 2700 1025 
Q 2900 1294 2900 1772 
L 2900 3500 
L 4019 3500 
L 4019 0 
L 2900 0 
L 2900 506 
Q 2647 200 2364 54 
Q 2081 -91 1741 -91 
Q 1134 -91 817 281 
Q 500 653 500 1363 
z
" id="DejaVuSans-Bold-75" transform="scale(0.015625)"/>
        <path d="M 4056 2131 
L 4056 0 
L 2931 0 
L 2931 347 
L 2931 1631 
Q 2931 2084 2911 2256 
Q 2891 2428 2841 2509 
Q 2775 2619 2662 2680 
Q 2550 2741 2406 2741 
Q 2056 2741 1856 2470 
Q 1656 2200 1656 1722 
L 1656 0 
L 538 0 
L 538 3500 
L 1656 3500 
L 1656 2988 
Q 1909 3294 2193 3439 
Q 2478 3584 2822 3584 
Q 3428 3584 3742 3212 
Q 4056 2841 4056 2131 
z
" id="DejaVuSans-Bold-6e" transform="scale(0.015625)"/>
       </defs>
       <use xlink:href="#DejaVuSans-Bold-4a"/>
       <use x="37.207031" xlink:href="#DejaVuSans-Bold-75"/>
       <use x="108.398438" xlink:href="#DejaVuSans-Bold-6e"/>
      </g>
     </g>
    </g>
    <g id="xtick_5">
     <g id="line2d_5">
      <g>
       <use style="fill:#555555;stroke:#555555;stroke-width:0.8;" x="388.926892" xlink:href="#m8474ecef6a" y="541.28"/>
      </g>
     </g>
     <g id="text_5">
      <!-- Jul -->
      <g style="fill:#555555;" transform="translate(378.939861 558.917812)scale(0.14 -0.14)">
       <defs>
        <path d="M 538 4863 
L 1656 4863 
L 1656 0 
L 538 0 
L 538 4863 
z
" id="DejaVuSans-Bold-6c" transform="scale(0.015625)"/>
       </defs>
       <use xlink:href="#DejaVuSans-Bold-4a"/>
       <use x="37.207031" xlink:href="#DejaVuSans-Bold-75"/>
       <use x="108.398438" xlink:href="#DejaVuSans-Bold-6c"/>
      </g>
     </g>
    </g>
    <g id="xtick_6">
     <g id="line2d_6">
      <g>
       <use style="fill:#555555;stroke:#555555;stroke-width:0.8;" x="456.027099" xlink:href="#m8474ecef6a" y="541.28"/>
      </g>
     </g>
     <g id="text_6">
      <!-- Aug -->
      <g style="fill:#555555;" transform="translate(440.616161 558.808437)scale(0.14 -0.14)">
       <defs>
        <path d="M 2919 594 
Q 2688 288 2409 144 
Q 2131 0 1766 0 
Q 1125 0 706 504 
Q 288 1009 288 1791 
Q 288 2575 706 3076 
Q 1125 3578 1766 3578 
Q 2131 3578 2409 3434 
Q 2688 3291 2919 2981 
L 2919 3500 
L 4044 3500 
L 4044 353 
Q 4044 -491 3511 -936 
Q 2978 -1381 1966 -1381 
Q 1638 -1381 1331 -1331 
Q 1025 -1281 716 -1178 
L 716 -306 
Q 1009 -475 1290 -558 
Q 1572 -641 1856 -641 
Q 2406 -641 2662 -400 
Q 2919 -159 2919 353 
L 2919 594 
z
M 2181 2772 
Q 1834 2772 1640 2515 
Q 1447 2259 1447 1791 
Q 1447 1309 1634 1061 
Q 1822 813 2181 813 
Q 2531 813 2725 1069 
Q 2919 1325 2919 1791 
Q 2919 2259 2725 2515 
Q 2531 2772 2181 2772 
z
" id="DejaVuSans-Bold-67" transform="scale(0.015625)"/>
       </defs>
       <use xlink:href="#DejaVuSans-Bold-41"/>
       <use x="77.392578" xlink:href="#DejaVuSans-Bold-75"/>
       <use x="148.583984" xlink:href="#DejaVuSans-Bold-67"/>
      </g>
     </g>
    </g>
    <g id="xtick_7">
     <g id="line2d_7">
      <g>
       <use style="fill:#555555;stroke:#555555;stroke-width:0.8;" x="523.127305" xlink:href="#m8474ecef6a" y="541.28"/>
      </g>
     </g>
     <g id="text_7">
      <!-- Sep -->
      <g style="fill:#555555;" transform="translate(508.327773 558.917812)scale(0.14 -0.14)">
       <defs>
        <path d="M 3834 4519 
L 3834 3531 
Q 3450 3703 3084 3790 
Q 2719 3878 2394 3878 
Q 1963 3878 1756 3759 
Q 1550 3641 1550 3391 
Q 1550 3203 1689 3098 
Q 1828 2994 2194 2919 
L 2706 2816 
Q 3484 2659 3812 2340 
Q 4141 2022 4141 1434 
Q 4141 663 3683 286 
Q 3225 -91 2284 -91 
Q 1841 -91 1394 -6 
Q 947 78 500 244 
L 500 1259 
Q 947 1022 1364 901 
Q 1781 781 2169 781 
Q 2563 781 2772 912 
Q 2981 1044 2981 1288 
Q 2981 1506 2839 1625 
Q 2697 1744 2272 1838 
L 1806 1941 
Q 1106 2091 782 2419 
Q 459 2747 459 3303 
Q 459 4000 909 4375 
Q 1359 4750 2203 4750 
Q 2588 4750 2994 4692 
Q 3400 4634 3834 4519 
z
" id="DejaVuSans-Bold-53" transform="scale(0.015625)"/>
        <path d="M 4031 1759 
L 4031 1441 
L 1416 1441 
Q 1456 1047 1700 850 
Q 1944 653 2381 653 
Q 2734 653 3104 758 
Q 3475 863 3866 1075 
L 3866 213 
Q 3469 63 3072 -14 
Q 2675 -91 2278 -91 
Q 1328 -91 801 392 
Q 275 875 275 1747 
Q 275 2603 792 3093 
Q 1309 3584 2216 3584 
Q 3041 3584 3536 3087 
Q 4031 2591 4031 1759 
z
M 2881 2131 
Q 2881 2450 2695 2645 
Q 2509 2841 2209 2841 
Q 1884 2841 1681 2658 
Q 1478 2475 1428 2131 
L 2881 2131 
z
" id="DejaVuSans-Bold-65" transform="scale(0.015625)"/>
       </defs>
       <use xlink:href="#DejaVuSans-Bold-53"/>
       <use x="72.021484" xlink:href="#DejaVuSans-Bold-65"/>
       <use x="139.84375" xlink:href="#DejaVuSans-Bold-70"/>
      </g>
     </g>
    </g>
    <g id="xtick_8">
     <g id="line2d_8">
      <g>
       <use style="fill:#555555;stroke:#555555;stroke-width:0.8;" x="588.062988" xlink:href="#m8474ecef6a" y="541.28"/>
      </g>
     </g>
     <g id="text_8">
      <!-- Oct -->
      <g style="fill:#555555;" transform="translate(574.616426 558.917812)scale(0.14 -0.14)">
       <defs>
        <path d="M 2719 3878 
Q 2169 3878 1866 3472 
Q 1563 3066 1563 2328 
Q 1563 1594 1866 1187 
Q 2169 781 2719 781 
Q 3272 781 3575 1187 
Q 3878 1594 3878 2328 
Q 3878 3066 3575 3472 
Q 3272 3878 2719 3878 
z
M 2719 4750 
Q 3844 4750 4481 4106 
Q 5119 3463 5119 2328 
Q 5119 1197 4481 553 
Q 3844 -91 2719 -91 
Q 1597 -91 958 553 
Q 319 1197 319 2328 
Q 319 3463 958 4106 
Q 1597 4750 2719 4750 
z
" id="DejaVuSans-Bold-4f" transform="scale(0.015625)"/>
        <path d="M 3366 3391 
L 3366 2478 
Q 3138 2634 2908 2709 
Q 2678 2784 2431 2784 
Q 1963 2784 1702 2511 
Q 1441 2238 1441 1747 
Q 1441 1256 1702 982 
Q 1963 709 2431 709 
Q 2694 709 2930 787 
Q 3166 866 3366 1019 
L 3366 103 
Q 3103 6 2833 -42 
Q 2563 -91 2291 -91 
Q 1344 -91 809 395 
Q 275 881 275 1747 
Q 275 2613 809 3098 
Q 1344 3584 2291 3584 
Q 2566 3584 2833 3536 
Q 3100 3488 3366 3391 
z
" id="DejaVuSans-Bold-63" transform="scale(0.015625)"/>
        <path d="M 1759 4494 
L 1759 3500 
L 2913 3500 
L 2913 2700 
L 1759 2700 
L 1759 1216 
Q 1759 972 1856 886 
Q 1953 800 2241 800 
L 2816 800 
L 2816 0 
L 1856 0 
Q 1194 0 917 276 
Q 641 553 641 1216 
L 641 2700 
L 84 2700 
L 84 3500 
L 641 3500 
L 641 4494 
L 1759 4494 
z
" id="DejaVuSans-Bold-74" transform="scale(0.015625)"/>
       </defs>
       <use xlink:href="#DejaVuSans-Bold-4f"/>
       <use x="85.009766" xlink:href="#DejaVuSans-Bold-63"/>
       <use x="144.287109" xlink:href="#DejaVuSans-Bold-74"/>
      </g>
     </g>
    </g>
    <g id="xtick_9">
     <g id="line2d_9">
      <g>
       <use style="fill:#555555;stroke:#555555;stroke-width:0.8;" x="655.163194" xlink:href="#m8474ecef6a" y="541.28"/>
      </g>
     </g>
     <g id="text_9">
      <!-- Nov -->
      <g style="fill:#555555;" transform="translate(639.932725 558.917812)scale(0.14 -0.14)">
       <defs>
        <path d="M 588 4666 
L 1931 4666 
L 3628 1466 
L 3628 4666 
L 4769 4666 
L 4769 0 
L 3425 0 
L 1728 3200 
L 1728 0 
L 588 0 
L 588 4666 
z
" id="DejaVuSans-Bold-4e" transform="scale(0.015625)"/>
        <path d="M 2203 2784 
Q 1831 2784 1636 2517 
Q 1441 2250 1441 1747 
Q 1441 1244 1636 976 
Q 1831 709 2203 709 
Q 2569 709 2762 976 
Q 2956 1244 2956 1747 
Q 2956 2250 2762 2517 
Q 2569 2784 2203 2784 
z
M 2203 3584 
Q 3106 3584 3614 3096 
Q 4122 2609 4122 1747 
Q 4122 884 3614 396 
Q 3106 -91 2203 -91 
Q 1297 -91 786 396 
Q 275 884 275 1747 
Q 275 2609 786 3096 
Q 1297 3584 2203 3584 
z
" id="DejaVuSans-Bold-6f" transform="scale(0.015625)"/>
        <path d="M 97 3500 
L 1216 3500 
L 2088 1081 
L 2956 3500 
L 4078 3500 
L 2700 0 
L 1472 0 
L 97 3500 
z
" id="DejaVuSans-Bold-76" transform="scale(0.015625)"/>
       </defs>
       <use xlink:href="#DejaVuSans-Bold-4e"/>
       <use x="83.691406" xlink:href="#DejaVuSans-Bold-6f"/>
       <use x="152.392578" xlink:href="#DejaVuSans-Bold-76"/>
      </g>
     </g>
    </g>
    <g id="xtick_10">
     <g id="line2d_10">
      <g>
       <use style="fill:#555555;stroke:#555555;stroke-width:0.8;" x="720.098878" xlink:href="#m8474ecef6a" y="541.28"/>
      </g>
     </g>
     <g id="text_10">
      <!-- Dec -->
      <g style="fill:#555555;" transform="translate(705.390128 558.917812)scale(0.14 -0.14)">
       <defs>
        <path d="M 1791 3756 
L 1791 909 
L 2222 909 
Q 2959 909 3348 1275 
Q 3738 1641 3738 2338 
Q 3738 3031 3350 3393 
Q 2963 3756 2222 3756 
L 1791 3756 
z
M 588 4666 
L 1856 4666 
Q 2919 4666 3439 4514 
Q 3959 4363 4331 4000 
Q 4659 3684 4818 3271 
Q 4978 2859 4978 2338 
Q 4978 1809 4818 1395 
Q 4659 981 4331 666 
Q 3956 303 3431 151 
Q 2906 0 1856 0 
L 588 0 
L 588 4666 
z
" id="DejaVuSans-Bold-44" transform="scale(0.015625)"/>
       </defs>
       <use xlink:href="#DejaVuSans-Bold-44"/>
       <use x="83.007812" xlink:href="#DejaVuSans-Bold-65"/>
       <use x="150.830078" xlink:href="#DejaVuSans-Bold-63"/>
      </g>
     </g>
    </g>
    <g id="xtick_11">
     <g id="line2d_11">
      <g>
       <use style="fill:#555555;stroke:#555555;stroke-width:0.8;" x="787.199084" xlink:href="#m8474ecef6a" y="541.28"/>
      </g>
     </g>
     <g id="text_11">
      <!-- Jan -->
      <g style="fill:#555555;" transform="translate(774.887834 558.917812)scale(0.14 -0.14)">
       <use xlink:href="#DejaVuSans-Bold-4a"/>
       <use x="37.207031" xlink:href="#DejaVuSans-Bold-61"/>
       <use x="104.6875" xlink:href="#DejaVuSans-Bold-6e"/>
      </g>
     </g>
    </g>
    <g id="xtick_12">
     <g id="line2d_12">
      <g>
       <use style="fill:#555555;stroke:#555555;stroke-width:0.8;" x="854.29929" xlink:href="#m8474ecef6a" y="541.28"/>
      </g>
     </g>
     <g id="text_12">
      <!-- Feb -->
      <g style="fill:#555555;" transform="translate(840.038977 558.917812)scale(0.14 -0.14)">
       <defs>
        <path d="M 588 4666 
L 3834 4666 
L 3834 3756 
L 1791 3756 
L 1791 2888 
L 3713 2888 
L 3713 1978 
L 1791 1978 
L 1791 0 
L 588 0 
L 588 4666 
z
" id="DejaVuSans-Bold-46" transform="scale(0.015625)"/>
        <path d="M 2400 722 
Q 2759 722 2948 984 
Q 3138 1247 3138 1747 
Q 3138 2247 2948 2509 
Q 2759 2772 2400 2772 
Q 2041 2772 1848 2508 
Q 1656 2244 1656 1747 
Q 1656 1250 1848 986 
Q 2041 722 2400 722 
z
M 1656 2988 
Q 1888 3294 2169 3439 
Q 2450 3584 2816 3584 
Q 3463 3584 3878 3070 
Q 4294 2556 4294 1747 
Q 4294 938 3878 423 
Q 3463 -91 2816 -91 
Q 2450 -91 2169 54 
Q 1888 200 1656 506 
L 1656 0 
L 538 0 
L 538 4863 
L 1656 4863 
L 1656 2988 
z
" id="DejaVuSans-Bold-62" transform="scale(0.015625)"/>
       </defs>
       <use xlink:href="#DejaVuSans-Bold-46"/>
       <use x="64.310547" xlink:href="#DejaVuSans-Bold-65"/>
       <use x="132.132812" xlink:href="#DejaVuSans-Bold-62"/>
      </g>
     </g>
    </g>
    <g id="xtick_13">
     <g id="line2d_13">
      <g>
       <use style="fill:#555555;stroke:#555555;stroke-width:0.8;" x="914.905928" xlink:href="#m8474ecef6a" y="541.28"/>
      </g>
     </g>
     <g id="text_13">
      <!-- Mar -->
      <g style="fill:#555555;" transform="translate(899.764053 558.917812)scale(0.14 -0.14)">
       <use xlink:href="#DejaVuSans-Bold-4d"/>
       <use x="99.511719" xlink:href="#DejaVuSans-Bold-61"/>
       <use x="166.992188" xlink:href="#DejaVuSans-Bold-72"/>
      </g>
     </g>
    </g>
    <g id="xtick_14">
     <g id="line2d_14">
      <g>
       <use style="fill:#555555;stroke:#555555;stroke-width:0.8;" x="982.006134" xlink:href="#m8474ecef6a" y="541.28"/>
      </g>
     </g>
     <g id="text_14">
      <!-- Apr -->
      <g style="fill:#555555;" transform="translate(968.126446 558.917812)scale(0.14 -0.14)">
       <use xlink:href="#DejaVuSans-Bold-41"/>
       <use x="77.392578" xlink:href="#DejaVuSans-Bold-70"/>
       <use x="148.974609" xlink:href="#DejaVuSans-Bold-72"/>
      </g>
     </g>
    </g>
    <g id="xtick_15">
     <g id="line2d_15">
      <g>
       <use style="fill:#555555;stroke:#555555;stroke-width:0.8;" x="1046.941817" xlink:href="#m8474ecef6a" y="541.28"/>
      </g>
     </g>
     <g id="text_15">
      <!-- May -->
      <g style="fill:#555555;" transform="translate(1030.907442 558.808437)scale(0.14 -0.14)">
       <use xlink:href="#DejaVuSans-Bold-4d"/>
       <use x="99.511719" xlink:href="#DejaVuSans-Bold-61"/>
       <use x="163.867188" xlink:href="#DejaVuSans-Bold-79"/>
      </g>
     </g>
    </g>
    <g id="xtick_16">
     <g id="line2d_16">
      <g>
       <use style="fill:#555555;stroke:#555555;stroke-width:0.8;" x="1114.042023" xlink:href="#m8474ecef6a" y="541.28"/>
      </g>
     </g>
     <g id="text_16">
      <!-- Jun -->
      <g style="fill:#555555;" transform="translate(1101.471555 558.917812)scale(0.14 -0.14)">
       <use xlink:href="#DejaVuSans-Bold-4a"/>
       <use x="37.207031" xlink:href="#DejaVuSans-Bold-75"/>
       <use x="108.398438" xlink:href="#DejaVuSans-Bold-6e"/>
      </g>
     </g>
    </g>
   </g>
   <g id="matplotlib.axis_2">
    <g id="ytick_1">
     <g id="line2d_17">
      <defs>
       <path d="M 0 0 
L -3.5 0 
" id="m51e56a2b6e" style="stroke:#555555;stroke-width:0.8;"/>
      </defs>
      <g>
       <use style="fill:#555555;stroke:#555555;stroke-width:0.8;" x="87.95" xlink:href="#m51e56a2b6e" y="519.485405"/>
      </g>
     </g>
     <g id="text_17">
      <!-- 0 -->
      <g style="fill:#555555;" transform="translate(71.209063 524.804311)scale(0.14 -0.14)">
       <defs>
        <path d="M 2944 2338 
Q 2944 3213 2780 3570 
Q 2616 3928 2228 3928 
Q 1841 3928 1675 3570 
Q 1509 3213 1509 2338 
Q 1509 1453 1675 1090 
Q 1841 728 2228 728 
Q 2613 728 2778 1090 
Q 2944 1453 2944 2338 
z
M 4147 2328 
Q 4147 1169 3647 539 
Q 3147 -91 2228 -91 
Q 1306 -91 806 539 
Q 306 1169 306 2328 
Q 306 3491 806 4120 
Q 1306 4750 2228 4750 
Q 3147 4750 3647 4120 
Q 4147 3491 4147 2328 
z
" id="DejaVuSans-Bold-30" transform="scale(0.015625)"/>
       </defs>
       <use xlink:href="#DejaVuSans-Bold-30"/>
      </g>
     </g>
    </g>
    <g id="ytick_2">
     <g id="line2d_18">
      <g>
       <use style="fill:#555555;stroke:#555555;stroke-width:0.8;" x="87.95" xlink:href="#m51e56a2b6e" y="448.872754"/>
      </g>
     </g>
     <g id="text_18">
      <!-- 2000 -->
      <g style="fill:#555555;" transform="translate(41.98625 454.19166)scale(0.14 -0.14)">
       <defs>
        <path d="M 1844 884 
L 3897 884 
L 3897 0 
L 506 0 
L 506 884 
L 2209 2388 
Q 2438 2594 2547 2791 
Q 2656 2988 2656 3200 
Q 2656 3528 2436 3728 
Q 2216 3928 1850 3928 
Q 1569 3928 1234 3808 
Q 900 3688 519 3450 
L 519 4475 
Q 925 4609 1322 4679 
Q 1719 4750 2100 4750 
Q 2938 4750 3402 4381 
Q 3866 4013 3866 3353 
Q 3866 2972 3669 2642 
Q 3472 2313 2841 1759 
L 1844 884 
z
" id="DejaVuSans-Bold-32" transform="scale(0.015625)"/>
       </defs>
       <use xlink:href="#DejaVuSans-Bold-32"/>
       <use x="69.580078" xlink:href="#DejaVuSans-Bold-30"/>
       <use x="139.160156" xlink:href="#DejaVuSans-Bold-30"/>
       <use x="208.740234" xlink:href="#DejaVuSans-Bold-30"/>
      </g>
     </g>
    </g>
    <g id="ytick_3">
     <g id="line2d_19">
      <g>
       <use style="fill:#555555;stroke:#555555;stroke-width:0.8;" x="87.95" xlink:href="#m51e56a2b6e" y="378.260103"/>
      </g>
     </g>
     <g id="text_19">
      <!-- 4000 -->
      <g style="fill:#555555;" transform="translate(41.98625 383.579009)scale(0.14 -0.14)">
       <defs>
        <path d="M 2356 3675 
L 1038 1722 
L 2356 1722 
L 2356 3675 
z
M 2156 4666 
L 3494 4666 
L 3494 1722 
L 4159 1722 
L 4159 850 
L 3494 850 
L 3494 0 
L 2356 0 
L 2356 850 
L 288 850 
L 288 1881 
L 2156 4666 
z
" id="DejaVuSans-Bold-34" transform="scale(0.015625)"/>
       </defs>
       <use xlink:href="#DejaVuSans-Bold-34"/>
       <use x="69.580078" xlink:href="#DejaVuSans-Bold-30"/>
       <use x="139.160156" xlink:href="#DejaVuSans-Bold-30"/>
       <use x="208.740234" xlink:href="#DejaVuSans-Bold-30"/>
      </g>
     </g>
    </g>
    <g id="ytick_4">
     <g id="line2d_20">
      <g>
       <use style="fill:#555555;stroke:#555555;stroke-width:0.8;" x="87.95" xlink:href="#m51e56a2b6e" y="307.647451"/>
      </g>
     </g>
     <g id="text_20">
      <!-- 6000 -->
      <g style="fill:#555555;" transform="translate(41.98625 312.966358)scale(0.14 -0.14)">
       <defs>
        <path d="M 2316 2303 
Q 2000 2303 1842 2098 
Q 1684 1894 1684 1484 
Q 1684 1075 1842 870 
Q 2000 666 2316 666 
Q 2634 666 2792 870 
Q 2950 1075 2950 1484 
Q 2950 1894 2792 2098 
Q 2634 2303 2316 2303 
z
M 3803 4544 
L 3803 3681 
Q 3506 3822 3243 3889 
Q 2981 3956 2731 3956 
Q 2194 3956 1894 3657 
Q 1594 3359 1544 2772 
Q 1750 2925 1990 3001 
Q 2231 3078 2516 3078 
Q 3231 3078 3670 2659 
Q 4109 2241 4109 1563 
Q 4109 813 3618 361 
Q 3128 -91 2303 -91 
Q 1394 -91 895 523 
Q 397 1138 397 2266 
Q 397 3422 980 4083 
Q 1563 4744 2578 4744 
Q 2900 4744 3203 4694 
Q 3506 4644 3803 4544 
z
" id="DejaVuSans-Bold-36" transform="scale(0.015625)"/>
       </defs>
       <use xlink:href="#DejaVuSans-Bold-36"/>
       <use x="69.580078" xlink:href="#DejaVuSans-Bold-30"/>
       <use x="139.160156" xlink:href="#DejaVuSans-Bold-30"/>
       <use x="208.740234" xlink:href="#DejaVuSans-Bold-30"/>
      </g>
     </g>
    </g>
    <g id="ytick_5">
     <g id="line2d_21">
      <g>
       <use style="fill:#555555;stroke:#555555;stroke-width:0.8;" x="87.95" xlink:href="#m51e56a2b6e" y="237.0348"/>
      </g>
     </g>
     <g id="text_21">
      <!-- 8000 -->
      <g style="fill:#555555;" transform="translate(41.98625 242.353706)scale(0.14 -0.14)">
       <defs>
        <path d="M 2228 2088 
Q 1891 2088 1709 1903 
Q 1528 1719 1528 1375 
Q 1528 1031 1709 848 
Q 1891 666 2228 666 
Q 2563 666 2741 848 
Q 2919 1031 2919 1375 
Q 2919 1722 2741 1905 
Q 2563 2088 2228 2088 
z
M 1350 2484 
Q 925 2613 709 2878 
Q 494 3144 494 3541 
Q 494 4131 934 4440 
Q 1375 4750 2228 4750 
Q 3075 4750 3515 4442 
Q 3956 4134 3956 3541 
Q 3956 3144 3739 2878 
Q 3522 2613 3097 2484 
Q 3572 2353 3814 2058 
Q 4056 1763 4056 1313 
Q 4056 619 3595 264 
Q 3134 -91 2228 -91 
Q 1319 -91 855 264 
Q 391 619 391 1313 
Q 391 1763 633 2058 
Q 875 2353 1350 2484 
z
M 1631 3419 
Q 1631 3141 1786 2991 
Q 1941 2841 2228 2841 
Q 2509 2841 2662 2991 
Q 2816 3141 2816 3419 
Q 2816 3697 2662 3845 
Q 2509 3994 2228 3994 
Q 1941 3994 1786 3844 
Q 1631 3694 1631 3419 
z
" id="DejaVuSans-Bold-38" transform="scale(0.015625)"/>
       </defs>
       <use xlink:href="#DejaVuSans-Bold-38"/>
       <use x="69.580078" xlink:href="#DejaVuSans-Bold-30"/>
       <use x="139.160156" xlink:href="#DejaVuSans-Bold-30"/>
       <use x="208.740234" xlink:href="#DejaVuSans-Bold-30"/>
      </g>
     </g>
    </g>
    <g id="ytick_6">
     <g id="line2d_22">
      <g>
       <use style="fill:#555555;stroke:#555555;stroke-width:0.8;" x="87.95" xlink:href="#m51e56a2b6e" y="166.422149"/>
      </g>
     </g>
     <g id="text_22">
      <!-- 10000 -->
      <g style="fill:#555555;" transform="translate(32.245313 171.741055)scale(0.14 -0.14)">
       <defs>
        <path d="M 750 831 
L 1813 831 
L 1813 3847 
L 722 3622 
L 722 4441 
L 1806 4666 
L 2950 4666 
L 2950 831 
L 4013 831 
L 4013 0 
L 750 0 
L 750 831 
z
" id="DejaVuSans-Bold-31" transform="scale(0.015625)"/>
       </defs>
       <use xlink:href="#DejaVuSans-Bold-31"/>
       <use x="69.580078" xlink:href="#DejaVuSans-Bold-30"/>
       <use x="139.160156" xlink:href="#DejaVuSans-Bold-30"/>
       <use x="208.740234" xlink:href="#DejaVuSans-Bold-30"/>
       <use x="278.320312" xlink:href="#DejaVuSans-Bold-30"/>
      </g>
     </g>
    </g>
    <g id="ytick_7">
     <g id="line2d_23">
      <g>
       <use style="fill:#555555;stroke:#555555;stroke-width:0.8;" x="87.95" xlink:href="#m51e56a2b6e" y="95.809498"/>
      </g>
     </g>
     <g id="text_23">
      <!-- 12000 -->
      <g style="fill:#555555;" transform="translate(32.245313 101.128404)scale(0.14 -0.14)">
       <use xlink:href="#DejaVuSans-Bold-31"/>
       <use x="69.580078" xlink:href="#DejaVuSans-Bold-32"/>
       <use x="139.160156" xlink:href="#DejaVuSans-Bold-30"/>
       <use x="208.740234" xlink:href="#DejaVuSans-Bold-30"/>
       <use x="278.320312" xlink:href="#DejaVuSans-Bold-30"/>
      </g>
     </g>
    </g>
    <g id="text_24">
     <!-- New Cases -->
     <g style="fill:#555555;" transform="translate(24.917813 333.23875)rotate(-90)scale(0.16 -0.16)">
      <defs>
       <path d="M 628 4666 
L 1478 4666 
L 3547 763 
L 3547 4666 
L 4159 4666 
L 4159 0 
L 3309 0 
L 1241 3903 
L 1241 0 
L 628 0 
L 628 4666 
z
" id="DejaVuSans-4e" transform="scale(0.015625)"/>
       <path d="M 3597 1894 
L 3597 1613 
L 953 1613 
Q 991 1019 1311 708 
Q 1631 397 2203 397 
Q 2534 397 2845 478 
Q 3156 559 3463 722 
L 3463 178 
Q 3153 47 2828 -22 
Q 2503 -91 2169 -91 
Q 1331 -91 842 396 
Q 353 884 353 1716 
Q 353 2575 817 3079 
Q 1281 3584 2069 3584 
Q 2775 3584 3186 3129 
Q 3597 2675 3597 1894 
z
M 3022 2063 
Q 3016 2534 2758 2815 
Q 2500 3097 2075 3097 
Q 1594 3097 1305 2825 
Q 1016 2553 972 2059 
L 3022 2063 
z
" id="DejaVuSans-65" transform="scale(0.015625)"/>
       <path d="M 269 3500 
L 844 3500 
L 1563 769 
L 2278 3500 
L 2956 3500 
L 3675 769 
L 4391 3500 
L 4966 3500 
L 4050 0 
L 3372 0 
L 2619 2869 
L 1863 0 
L 1184 0 
L 269 3500 
z
" id="DejaVuSans-77" transform="scale(0.015625)"/>
       <path id="DejaVuSans-20" transform="scale(0.015625)"/>
       <path d="M 4122 4306 
L 4122 3641 
Q 3803 3938 3442 4084 
Q 3081 4231 2675 4231 
Q 1875 4231 1450 3742 
Q 1025 3253 1025 2328 
Q 1025 1406 1450 917 
Q 1875 428 2675 428 
Q 3081 428 3442 575 
Q 3803 722 4122 1019 
L 4122 359 
Q 3791 134 3420 21 
Q 3050 -91 2638 -91 
Q 1578 -91 968 557 
Q 359 1206 359 2328 
Q 359 3453 968 4101 
Q 1578 4750 2638 4750 
Q 3056 4750 3426 4639 
Q 3797 4528 4122 4306 
z
" id="DejaVuSans-43" transform="scale(0.015625)"/>
       <path d="M 2194 1759 
Q 1497 1759 1228 1600 
Q 959 1441 959 1056 
Q 959 750 1161 570 
Q 1363 391 1709 391 
Q 2188 391 2477 730 
Q 2766 1069 2766 1631 
L 2766 1759 
L 2194 1759 
z
M 3341 1997 
L 3341 0 
L 2766 0 
L 2766 531 
Q 2569 213 2275 61 
Q 1981 -91 1556 -91 
Q 1019 -91 701 211 
Q 384 513 384 1019 
Q 384 1609 779 1909 
Q 1175 2209 1959 2209 
L 2766 2209 
L 2766 2266 
Q 2766 2663 2505 2880 
Q 2244 3097 1772 3097 
Q 1472 3097 1187 3025 
Q 903 2953 641 2809 
L 641 3341 
Q 956 3463 1253 3523 
Q 1550 3584 1831 3584 
Q 2591 3584 2966 3190 
Q 3341 2797 3341 1997 
z
" id="DejaVuSans-61" transform="scale(0.015625)"/>
       <path d="M 2834 3397 
L 2834 2853 
Q 2591 2978 2328 3040 
Q 2066 3103 1784 3103 
Q 1356 3103 1142 2972 
Q 928 2841 928 2578 
Q 928 2378 1081 2264 
Q 1234 2150 1697 2047 
L 1894 2003 
Q 2506 1872 2764 1633 
Q 3022 1394 3022 966 
Q 3022 478 2636 193 
Q 2250 -91 1575 -91 
Q 1294 -91 989 -36 
Q 684 19 347 128 
L 347 722 
Q 666 556 975 473 
Q 1284 391 1588 391 
Q 1994 391 2212 530 
Q 2431 669 2431 922 
Q 2431 1156 2273 1281 
Q 2116 1406 1581 1522 
L 1381 1569 
Q 847 1681 609 1914 
Q 372 2147 372 2553 
Q 372 3047 722 3315 
Q 1072 3584 1716 3584 
Q 2034 3584 2315 3537 
Q 2597 3491 2834 3397 
z
" id="DejaVuSans-73" transform="scale(0.015625)"/>
      </defs>
      <use xlink:href="#DejaVuSans-4e"/>
      <use x="74.804688" xlink:href="#DejaVuSans-65"/>
      <use x="136.328125" xlink:href="#DejaVuSans-77"/>
      <use x="218.115234" xlink:href="#DejaVuSans-20"/>
      <use x="249.902344" xlink:href="#DejaVuSans-43"/>
      <use x="319.726562" xlink:href="#DejaVuSans-61"/>
      <use x="381.005859" xlink:href="#DejaVuSans-73"/>
      <use x="433.105469" xlink:href="#DejaVuSans-65"/>
      <use x="494.628906" xlink:href="#DejaVuSans-73"/>
     </g>
    </g>
   </g>
   <g id="line2d_24">
    <path clip-path="url(#p4ef92ba526)" d="M 135.677727 518.073152 
L 137.84225 517.720089 
L 140.006773 518.355603 
L 142.171296 517.331719 
L 144.335818 514.895583 
L 146.500341 515.142727 
L 148.664864 515.001502 
L 150.829387 515.49579 
L 152.99391 511.75332 
L 155.158432 513.377411 
L 157.322955 509.952697 
L 159.487478 509.317183 
L 161.652001 507.23411 
L 163.816523 505.5041 
L 165.981046 500.667134 
L 168.145569 496.995276 
L 170.310092 498.125078 
L 172.474615 499.961007 
L 174.639137 493.040967 
L 176.80366 489.722173 
L 181.132706 478.282923 
L 183.297228 479.024356 
L 185.461751 480.930898 
L 187.626274 488.627677 
L 189.790797 490.03993 
L 191.95532 483.896629 
L 194.119842 481.248655 
L 196.284365 483.472953 
L 198.448888 484.108467 
L 200.613411 480.683753 
L 202.777933 486.120927 
L 204.942456 491.875859 
L 207.106979 485.626639 
L 209.271502 476.835364 
L 211.436025 472.633911 
L 213.600547 473.551876 
L 215.76507 478.141698 
L 217.929593 485.626639 
L 220.094116 489.051352 
L 222.258638 493.711787 
L 224.423161 481.742943 
L 226.587684 475.917399 
L 228.752207 477.612103 
L 230.91673 483.367034 
L 233.081252 493.076274 
L 235.245775 494.206076 
L 237.410298 494.488527 
L 239.574821 488.627677 
L 241.739343 491.063813 
L 243.903866 496.642212 
L 246.068389 496.500987 
L 248.232912 505.186343 
L 250.397435 512.671284 
L 252.561957 505.786551 
L 254.72648 501.585098 
L 256.891003 502.608982 
L 259.055526 504.056541 
L 261.220048 507.551867 
L 263.384571 512.388834 
L 265.549094 508.222687 
L 267.713617 508.222687 
L 269.87814 506.739822 
L 272.042662 508.222687 
L 274.207185 509.317183 
L 276.371708 510.941274 
L 278.536231 513.165573 
L 280.700753 512.600672 
L 282.865276 511.612095 
L 285.029799 509.811472 
L 287.194322 512.353527 
L 289.358845 512.635978 
L 291.523367 515.072114 
L 293.68789 514.260069 
L 295.852413 515.566403 
L 298.016936 512.883122 
L 300.181458 510.517598 
L 302.345981 512.989041 
L 306.675027 513.377411 
L 308.83955 511.965158 
L 311.004072 514.930889 
L 313.168595 512.635978 
L 315.333118 513.200879 
L 317.497641 513.200879 
L 319.662163 514.507213 
L 321.826686 513.271492 
L 323.991209 515.813547 
L 326.155732 516.131304 
L 328.320255 516.201917 
L 330.484777 512.847816 
L 332.6493 511.823933 
L 334.813823 512.777203 
L 336.978346 511.047193 
L 339.142868 513.624555 
L 341.307391 513.695168 
L 343.471914 513.09496 
L 345.636437 513.76578 
L 347.80096 512.176996 
L 349.965482 513.09496 
L 352.130005 514.401294 
L 354.294528 513.871699 
L 356.459051 514.754358 
L 358.623573 515.49579 
L 360.788096 515.107421 
L 365.117142 516.307836 
L 367.281665 516.131304 
L 369.446187 517.084575 
L 371.61071 517.013962 
L 373.775233 516.660899 
L 375.939756 515.601709 
L 380.268801 516.766818 
L 382.433324 517.155188 
L 384.597847 516.802124 
L 386.76237 517.472945 
L 388.926892 517.296413 
L 391.091415 516.837431 
L 393.255938 516.802124 
L 395.420461 517.190494 
L 397.584984 516.94335 
L 399.749506 518.037846 
L 401.914029 518.28499 
L 404.078552 517.472945 
L 408.407597 517.190494 
L 410.57212 516.519674 
L 412.736643 516.131304 
L 414.901166 516.94335 
L 417.065689 516.025385 
L 421.394734 515.283952 
L 423.559257 515.637016 
L 425.72378 514.365988 
L 427.888302 514.365988 
L 430.052825 513.024348 
L 432.217348 513.518636 
L 434.381871 513.48333 
L 438.710916 514.012925 
L 443.039962 511.965158 
L 445.204485 512.106383 
L 447.369007 511.576788 
L 449.53353 510.729436 
L 451.698053 507.445948 
L 453.862576 507.445948 
L 456.027099 504.268379 
L 458.191621 506.775128 
L 460.356144 506.351452 
L 462.520667 502.291225 
L 464.68519 504.374298 
L 466.849712 498.125078 
L 469.014235 501.232035 
L 471.178758 502.397144 
L 473.343281 499.113655 
L 475.507804 491.699327 
L 477.672326 497.595483 
L 479.836849 496.500987 
L 482.001372 499.148962 
L 484.165895 497.348339 
L 486.330417 496.324456 
L 488.49494 501.867549 
L 490.659463 502.291225 
L 492.823986 502.079387 
L 494.988509 499.961007 
L 497.153031 500.737746 
L 499.317554 500.667134 
L 501.482077 501.585098 
L 503.6466 503.421027 
L 505.811122 499.254881 
L 507.975645 504.797974 
L 510.140168 499.290187 
L 512.304691 501.549792 
L 514.469214 501.796936 
L 518.798259 501.620404 
L 520.962782 500.914278 
L 523.127305 502.997351 
L 525.291827 494.064851 
L 527.45635 498.336916 
L 529.620873 493.252805 
L 531.785396 496.5716 
L 533.949919 487.003586 
L 536.114441 491.416876 
L 540.443487 479.236194 
L 542.60801 489.934011 
L 544.772532 474.611065 
L 546.937055 476.341075 
L 549.101578 481.107429 
L 551.266101 473.693101 
L 553.430624 470.903901 
L 555.595146 465.219583 
L 557.759669 458.087705 
L 559.924192 450.390926 
L 562.088715 452.685837 
L 564.253237 454.380541 
L 566.41776 441.387813 
L 568.582283 440.505155 
L 570.746806 437.080441 
L 572.911329 429.948563 
L 575.075851 421.898721 
L 577.240374 424.12302 
L 579.404897 414.41378 
L 581.56942 417.026448 
L 583.733942 413.425203 
L 585.898465 403.468819 
L 588.062988 404.633928 
L 590.227511 385.180142 
L 592.392034 380.555014 
L 594.556556 378.86031 
L 596.721079 358.665092 
L 598.885602 359.900813 
L 601.050125 343.907048 
L 603.214647 315.273618 
L 605.37917 309.024398 
L 607.543693 290.771028 
L 609.708216 295.572688 
L 611.872739 279.296472 
L 614.037261 260.548813 
L 616.201784 263.443932 
L 618.366307 244.837498 
L 620.53083 238.76481 
L 622.695353 233.29233 
L 624.859875 231.809464 
L 627.024398 237.529089 
L 629.188921 231.950689 
L 631.353444 211.790777 
L 633.517966 192.866587 
L 635.682489 167.340113 
L 637.847012 214.368139 
L 640.011535 160.45538 
L 642.176058 155.724332 
L 644.34058 156.99536 
L 646.505103 234.316213 
L 648.669626 157.66618 
L 650.834149 128.679687 
L 652.998671 174.471991 
L 655.163194 213.061805 
L 657.327717 227.678624 
L 659.49224 246.249751 
L 661.656763 251.15733 
L 663.821285 274.247667 
L 665.985808 264.32659 
L 668.150331 285.898755 
L 672.479376 354.604864 
L 674.643899 355.522829 
L 676.808422 329.431454 
L 678.972945 321.099161 
L 681.137468 305.246621 
L 683.30199 311.21339 
L 685.466513 328.195733 
L 689.795559 368.339025 
L 691.960081 357.570596 
L 694.124604 318.698331 
L 696.289127 310.012975 
L 698.45365 307.506226 
L 700.618173 330.314112 
L 702.782695 336.563332 
L 704.947218 380.131338 
L 707.111741 346.131346 
L 709.276264 361.736742 
L 711.440786 316.40342 
L 713.605309 361.842661 
L 715.769832 323.005703 
L 717.934355 358.029578 
L 720.098878 376.918462 
L 722.2634 346.201959 
L 724.427923 321.98182 
L 726.592446 311.495841 
L 728.756969 288.970405 
L 730.921491 280.779338 
L 733.086014 269.022331 
L 735.250537 303.445999 
L 737.41506 288.44081 
L 739.579583 211.967309 
L 741.744105 207.448099 
L 743.908628 197.385796 
L 746.073151 170.694214 
L 748.237674 220.758584 
L 750.402196 285.36916 
L 752.566719 125.254973 
L 754.731242 68.341176 
L 756.895765 97.32767 
L 759.060288 87.900881 
L 761.22481 60.609091 
L 763.389333 125.608036 
L 765.553856 172.706675 
L 767.718379 152.511457 
L 769.882901 113.674498 
L 772.047424 113.639192 
L 774.211947 172.953819 
L 776.37647 201.551943 
L 778.540993 258.253902 
L 780.705515 253.981836 
L 782.870038 185.805322 
L 785.034561 178.214462 
L 787.199084 231.032725 
L 789.363606 216.239374 
L 791.528129 258.359821 
L 793.692652 285.298547 
L 795.857175 294.442886 
L 798.021698 269.092944 
L 800.18622 177.720173 
L 802.350743 233.045185 
L 804.515266 260.654732 
L 806.679789 286.287124 
L 808.844311 327.136543 
L 811.008834 345.001544 
L 813.173357 304.328657 
L 815.33788 290.029595 
L 817.502403 306.588262 
L 819.666925 332.397186 
L 821.831448 322.405495 
L 823.995971 350.544637 
L 826.160494 367.774124 
L 828.325016 322.758559 
L 830.489539 314.320347 
L 832.654062 316.438726 
L 834.818585 327.06593 
L 836.983108 347.049311 
L 839.14763 374.976614 
L 841.312153 379.707662 
L 843.476676 352.592404 
L 845.641199 353.651594 
L 847.805722 364.102266 
L 849.970244 372.081496 
L 852.134767 389.522821 
L 854.29929 405.128216 
L 856.463813 394.077337 
L 858.628335 377.412751 
L 860.792858 371.057612 
L 862.957381 366.926772 
L 865.121904 375.082533 
L 867.286427 381.119915 
L 869.450949 439.728416 
L 871.615472 457.381578 
L 873.779995 407.423128 
L 875.944518 363.113689 
L 878.10904 366.644322 
L 880.273563 372.046189 
L 882.438086 398.384708 
L 884.602609 419.074215 
L 886.767132 424.440777 
L 888.931654 400.361862 
L 891.096177 358.48856 
L 893.2607 354.216495 
L 895.425223 359.124074 
L 897.589745 354.604864 
L 899.754268 371.904964 
L 901.918791 384.862386 
L 904.083314 365.12615 
L 906.247837 343.412759 
L 908.412359 339.423144 
L 910.576882 345.637058 
L 912.741405 355.769973 
L 914.905928 386.980765 
L 917.07045 379.425211 
L 919.234973 342.071119 
L 921.399496 374.835389 
L 923.564019 354.852009 
L 925.728542 331.832284 
L 927.893064 360.324489 
L 930.057587 382.214411 
L 932.22211 368.162494 
L 934.386633 333.738826 
L 936.551155 332.432492 
L 938.715678 308.282965 
L 940.880201 294.266354 
L 943.044724 309.20093 
L 945.209247 325.230002 
L 947.373769 344.895625 
L 949.538292 310.825021 
L 951.702815 302.95171 
L 953.867338 260.019218 
L 956.03186 250.839573 
L 960.360906 296.949635 
L 962.525429 321.452225 
L 964.689952 252.60489 
L 966.854474 247.944455 
L 969.018997 252.428358 
L 971.18352 209.284028 
L 973.348043 255.641234 
L 975.512565 280.002598 
L 977.677088 312.696256 
L 979.841611 249.992222 
L 982.006134 243.425245 
L 984.170657 264.750266 
L 986.335179 251.086718 
L 988.499702 277.142786 
L 990.664225 331.055545 
L 992.828748 323.217541 
L 994.99327 294.548805 
L 997.157793 245.331787 
L 999.322316 248.933032 
L 1001.486839 248.862419 
L 1003.651362 231.915383 
L 1005.815884 284.204051 
L 1007.980407 282.015059 
L 1010.14493 327.277768 
L 1012.309453 212.320372 
L 1014.473975 205.400332 
L 1016.638498 227.890462 
L 1018.803021 218.498979 
L 1020.967544 266.762726 
L 1023.132067 278.484426 
L 1025.296589 220.052457 
L 1027.461112 181.003661 
L 1029.625635 193.290263 
L 1031.790158 234.739889 
L 1033.95468 236.187448 
L 1036.119203 299.49169 
L 1038.283726 332.150041 
L 1040.448249 213.767932 
L 1042.612772 262.20821 
L 1044.777294 245.049336 
L 1046.941817 315.167699 
L 1049.10634 326.465723 
L 1051.270863 194.879047 
L 1053.435385 245.331787 
L 1055.599908 263.479238 
L 1057.764431 280.461581 
L 1059.928954 255.535315 
L 1062.093477 256.912261 
L 1066.422522 312.307886 
L 1068.587045 324.135505 
L 1070.751568 295.219625 
L 1072.91609 306.906019 
L 1075.080613 323.358766 
L 1077.245136 361.313066 
L 1079.409659 362.831238 
L 1081.574182 418.26217 
L 1083.738704 330.773095 
L 1085.903227 358.135497 
L 1088.06775 355.240378 
L 1090.232273 370.528017 
L 1090.232273 370.528017 
" style="fill:none;stroke:#000000;stroke-dasharray:1.5,2.475;stroke-dashoffset:0;stroke-opacity:0.5;stroke-width:1.5;"/>
   </g>
   <g id="line2d_25">
    <path clip-path="url(#p4ef92ba526)" d="M 135.677727 518.390909 
L 140.006773 517.367026 
L 148.664864 514.719051 
L 150.829387 513.942312 
L 152.99391 513.024348 
L 155.158432 511.859239 
L 157.322955 510.446986 
L 159.487478 508.646363 
L 161.652001 506.492677 
L 163.816523 504.091847 
L 172.474615 495.477104 
L 174.639137 492.44076 
L 178.968183 485.414801 
L 181.132706 483.11989 
L 183.297228 482.660908 
L 185.461751 483.296421 
L 187.626274 484.320305 
L 189.790797 485.026431 
L 191.95532 484.920512 
L 196.284365 483.508259 
L 198.448888 483.755404 
L 200.613411 484.602755 
L 202.777933 485.026431 
L 204.942456 484.249692 
L 207.106979 482.307844 
L 209.271502 479.977627 
L 211.436025 478.282923 
L 213.600547 478.212311 
L 215.76507 480.401303 
L 217.929593 483.155196 
L 220.094116 484.885206 
L 222.258638 484.920512 
L 224.423161 483.720097 
L 226.587684 482.802133 
L 228.752207 483.261115 
L 230.91673 485.238269 
L 233.081252 488.098082 
L 235.245775 490.498912 
L 237.410298 492.05239 
L 239.574821 492.864436 
L 241.739343 494.029544 
L 243.903866 496.606906 
L 248.232912 502.679594 
L 250.397435 504.515523 
L 252.561957 505.045118 
L 256.891003 505.151037 
L 259.055526 505.645326 
L 261.220048 506.881047 
L 263.384571 507.940237 
L 265.549094 508.434525 
L 269.87814 508.540444 
L 272.042662 508.858201 
L 276.371708 510.658824 
L 278.536231 511.329644 
L 280.700753 511.682707 
L 285.029799 511.965158 
L 287.194322 512.318221 
L 291.523367 513.624555 
L 293.68789 513.871699 
L 295.852413 513.695168 
L 300.181458 512.918429 
L 302.345981 512.706591 
L 304.510504 512.777203 
L 308.83955 513.200879 
L 315.333118 513.412717 
L 319.662163 514.012925 
L 321.826686 514.54252 
L 323.991209 514.860277 
L 326.155732 514.860277 
L 328.320255 514.471907 
L 332.6493 513.09496 
L 334.813823 512.706591 
L 336.978346 512.600672 
L 341.307391 513.059654 
L 347.80096 513.306798 
L 349.965482 513.48333 
L 354.294528 514.224763 
L 358.623573 515.072114 
L 367.281665 516.378449 
L 371.61071 516.55498 
L 375.939756 516.484368 
L 378.104278 516.484368 
L 388.926892 517.084575 
L 393.255938 517.084575 
L 401.914029 517.649476 
L 406.243075 517.331719 
L 414.901166 516.27253 
L 419.230211 515.742935 
L 421.394734 515.460484 
L 427.888302 514.15415 
L 430.052825 513.836393 
L 434.381871 513.553942 
L 438.710916 513.236186 
L 440.875439 512.918429 
L 443.039962 512.42414 
L 445.204485 511.718014 
L 447.369007 510.835355 
L 451.698053 508.469832 
L 456.027099 506.351452 
L 458.191621 505.610019 
L 466.849712 501.655711 
L 469.014235 500.384683 
L 471.178758 499.396106 
L 473.343281 498.160385 
L 475.507804 497.454258 
L 477.672326 496.995276 
L 479.836849 496.85405 
L 482.001372 497.383645 
L 484.165895 498.336916 
L 488.49494 499.996313 
L 490.659463 500.631827 
L 492.823986 501.020197 
L 494.988509 501.161422 
L 499.317554 501.126116 
L 501.482077 501.443873 
L 505.811122 501.691017 
L 510.140168 501.549792 
L 512.304691 501.443873 
L 514.469214 501.549792 
L 516.633736 501.514485 
L 518.798259 501.161422 
L 520.962782 500.525908 
L 525.291827 498.089772 
L 531.785396 492.687904 
L 533.949919 490.498912 
L 536.114441 488.521758 
L 540.443487 483.755404 
L 542.60801 482.0607 
L 544.772532 480.012933 
L 546.937055 478.177004 
L 549.101578 476.093931 
L 551.266101 472.775136 
L 553.430624 468.962053 
L 557.759669 459.782409 
L 559.924192 455.580956 
L 566.41776 444.459463 
L 568.582283 440.010866 
L 570.746806 435.244512 
L 572.911329 430.089789 
L 575.075851 425.817723 
L 579.404897 417.944413 
L 581.56942 414.484393 
L 583.733942 409.965183 
L 585.898465 404.139639 
L 588.062988 397.749194 
L 592.392034 381.543591 
L 594.556556 373.034766 
L 596.721079 362.513481 
L 598.885602 351.144845 
L 605.37917 311.036859 
L 607.543693 298.467807 
L 609.708216 287.840603 
L 616.201784 258.324514 
L 618.366307 249.286095 
L 620.53083 242.648506 
L 624.859875 233.610087 
L 627.024398 228.38475 
L 631.353444 211.155263 
L 635.682489 189.830243 
L 637.847012 180.403454 
L 640.011535 177.755479 
L 642.176058 175.813631 
L 644.34058 174.083621 
L 646.505103 171.435647 
L 648.669626 172.636062 
L 650.834149 176.766902 
L 652.998671 187.111656 
L 655.163194 200.563366 
L 657.327717 220.864503 
L 659.49224 239.188486 
L 661.656763 253.028566 
L 663.821285 265.738843 
L 665.985808 280.955869 
L 670.314854 314.849942 
L 672.479376 327.136543 
L 674.643899 332.750249 
L 676.808422 330.984933 
L 678.972945 325.72429 
L 681.137468 322.158351 
L 683.30199 324.771019 
L 685.466513 332.64433 
L 687.631036 339.599676 
L 689.795559 342.63602 
L 691.960081 339.211306 
L 694.124604 332.397186 
L 696.289127 326.042047 
L 698.45365 326.218579 
L 700.618173 331.30269 
L 702.782695 341.011929 
L 704.947218 346.837473 
L 707.111741 350.438718 
L 709.276264 348.073194 
L 711.440786 345.884202 
L 713.605309 345.213382 
L 715.769832 347.649518 
L 717.934355 348.461564 
L 720.098878 347.543599 
L 722.2634 338.787631 
L 724.427923 327.101237 
L 726.592446 311.319309 
L 728.756969 298.4325 
L 730.921491 290.523883 
L 733.086014 281.979753 
L 735.250537 271.317242 
L 737.41506 256.629811 
L 739.579583 236.893575 
L 741.744105 219.875926 
L 743.908628 211.755471 
L 746.073151 204.906044 
L 748.237674 196.326607 
L 750.402196 179.662021 
L 752.566719 154.347385 
L 754.731242 125.890487 
L 756.895765 104.035871 
L 759.060288 95.456434 
L 761.22481 104.706692 
L 763.389333 117.946564 
L 765.553856 127.338046 
L 769.882901 143.578956 
L 772.047424 155.865557 
L 774.211947 174.754442 
L 776.37647 194.984966 
L 778.540993 210.201993 
L 780.705515 217.686934 
L 782.870038 216.027536 
L 785.034561 215.886311 
L 787.199084 221.217566 
L 789.363606 234.528051 
L 791.528129 251.757538 
L 793.692652 259.383704 
L 795.857175 258.042064 
L 800.18622 247.02649 
L 802.350743 250.380591 
L 804.515266 264.644347 
L 808.844311 301.857214 
L 811.008834 310.330732 
L 813.173357 313.33177 
L 815.33788 313.543608 
L 817.502403 315.909132 
L 819.666925 322.899784 
L 821.831448 331.30269 
L 823.995971 336.810476 
L 826.160494 336.881089 
L 828.325016 332.820862 
L 830.489539 329.85513 
L 832.654062 330.596563 
L 834.818585 336.845783 
L 836.983108 346.908085 
L 839.14763 355.734667 
L 841.312153 361.136535 
L 843.476676 363.39614 
L 845.641199 365.302681 
L 847.805722 369.433521 
L 849.970244 375.965191 
L 852.134767 383.061763 
L 854.29929 386.804233 
L 856.463813 385.956882 
L 858.628335 382.32033 
L 860.792858 378.118877 
L 862.957381 379.53113 
L 865.121904 388.56955 
L 867.286427 400.432475 
L 869.450949 408.729462 
L 871.615472 410.000489 
L 873.779995 403.045143 
L 875.944518 393.618354 
L 878.10904 386.557089 
L 880.273563 387.192603 
L 882.438086 394.218562 
L 884.602609 399.62043 
L 886.767132 398.17287 
L 888.931654 390.334866 
L 891.096177 378.366022 
L 893.2607 368.233106 
L 895.425223 363.607978 
L 897.589745 363.67859 
L 899.754268 365.267375 
L 901.918791 364.243491 
L 904.083314 360.147958 
L 906.247837 355.381604 
L 908.412359 353.404449 
L 910.576882 355.240378 
L 912.741405 358.912236 
L 914.905928 364.102266 
L 917.07045 365.938195 
L 919.234973 363.254914 
L 921.399496 359.583056 
L 923.564019 356.970388 
L 925.728542 357.14692 
L 927.893064 358.523867 
L 930.057587 357.005695 
L 932.22211 351.815665 
L 934.386633 342.177038 
L 936.551155 329.607986 
L 938.715678 319.051395 
L 940.880201 315.167699 
L 943.044724 315.697294 
L 945.209247 317.215466 
L 947.373769 314.955861 
L 949.538292 306.729487 
L 951.702815 294.407579 
L 953.867338 283.392006 
L 956.03186 278.908102 
L 958.196383 278.731571 
L 960.360906 279.225859 
L 962.525429 277.919525 
L 964.689952 269.057637 
L 966.854474 258.218595 
L 969.018997 250.557123 
L 971.18352 250.980799 
L 975.512565 263.902914 
L 977.677088 267.327628 
L 979.841611 267.045177 
L 982.006134 263.761689 
L 984.170657 265.774149 
L 986.335179 273.117865 
L 988.499702 285.722223 
L 990.664225 293.348389 
L 992.828748 292.712876 
L 994.99327 285.016097 
L 997.157793 271.140711 
L 999.322316 259.666155 
L 1001.486839 255.358783 
L 1003.651362 261.53739 
L 1005.815884 267.327628 
L 1007.980407 267.645384 
L 1010.14493 261.431471 
L 1012.309453 249.568546 
L 1014.473975 238.37644 
L 1016.638498 235.375403 
L 1018.803021 235.30479 
L 1020.967544 238.270522 
L 1023.132067 234.951727 
L 1025.296589 227.290254 
L 1027.461112 220.51144 
L 1029.625635 221.394098 
L 1031.790158 234.351519 
L 1036.119203 263.867608 
L 1038.283726 268.669268 
L 1040.448249 269.622539 
L 1042.612772 272.941333 
L 1044.777294 270.85826 
L 1046.941817 269.234169 
L 1049.10634 268.987025 
L 1051.270863 263.867608 
L 1053.435385 260.019218 
L 1055.599908 257.194712 
L 1057.764431 259.065947 
L 1059.928954 268.704574 
L 1072.91609 321.522837 
L 1075.080613 335.645368 
L 1077.245136 347.931969 
L 1079.409659 359.477137 
L 1081.574182 364.596555 
L 1083.738704 365.020231 
L 1085.903227 362.513481 
L 1088.06775 361.101228 
L 1090.232273 358.48856 
L 1090.232273 358.48856 
" style="fill:none;stroke:#000000;stroke-linecap:square;stroke-width:1.5;"/>
   </g>
   <g id="patch_3">
    <path d="M 87.95 541.28 
L 87.95 37.72 
" style="fill:none;stroke:#555555;stroke-linecap:square;stroke-linejoin:miter;"/>
   </g>
   <g id="patch_4">
    <path d="M 87.95 541.28 
L 1137.96 541.28 
" style="fill:none;stroke:#555555;stroke-linecap:square;stroke-linejoin:miter;"/>
   </g>
   <g id="text_25">
    <!-- Last updated on 21 May 2021 -->
    <g style="fill:#555555;" transform="translate(478.305156 27.72)scale(0.18 -0.18)">
     <defs>
      <path d="M 628 4666 
L 1259 4666 
L 1259 531 
L 3531 531 
L 3531 0 
L 628 0 
L 628 4666 
z
" id="DejaVuSans-4c" transform="scale(0.015625)"/>
      <path d="M 1172 4494 
L 1172 3500 
L 2356 3500 
L 2356 3053 
L 1172 3053 
L 1172 1153 
Q 1172 725 1289 603 
Q 1406 481 1766 481 
L 2356 481 
L 2356 0 
L 1766 0 
Q 1100 0 847 248 
Q 594 497 594 1153 
L 594 3053 
L 172 3053 
L 172 3500 
L 594 3500 
L 594 4494 
L 1172 4494 
z
" id="DejaVuSans-74" transform="scale(0.015625)"/>
      <path d="M 544 1381 
L 544 3500 
L 1119 3500 
L 1119 1403 
Q 1119 906 1312 657 
Q 1506 409 1894 409 
Q 2359 409 2629 706 
Q 2900 1003 2900 1516 
L 2900 3500 
L 3475 3500 
L 3475 0 
L 2900 0 
L 2900 538 
Q 2691 219 2414 64 
Q 2138 -91 1772 -91 
Q 1169 -91 856 284 
Q 544 659 544 1381 
z
M 1991 3584 
L 1991 3584 
z
" id="DejaVuSans-75" transform="scale(0.015625)"/>
      <path d="M 1159 525 
L 1159 -1331 
L 581 -1331 
L 581 3500 
L 1159 3500 
L 1159 2969 
Q 1341 3281 1617 3432 
Q 1894 3584 2278 3584 
Q 2916 3584 3314 3078 
Q 3713 2572 3713 1747 
Q 3713 922 3314 415 
Q 2916 -91 2278 -91 
Q 1894 -91 1617 61 
Q 1341 213 1159 525 
z
M 3116 1747 
Q 3116 2381 2855 2742 
Q 2594 3103 2138 3103 
Q 1681 3103 1420 2742 
Q 1159 2381 1159 1747 
Q 1159 1113 1420 752 
Q 1681 391 2138 391 
Q 2594 391 2855 752 
Q 3116 1113 3116 1747 
z
" id="DejaVuSans-70" transform="scale(0.015625)"/>
      <path d="M 2906 2969 
L 2906 4863 
L 3481 4863 
L 3481 0 
L 2906 0 
L 2906 525 
Q 2725 213 2448 61 
Q 2172 -91 1784 -91 
Q 1150 -91 751 415 
Q 353 922 353 1747 
Q 353 2572 751 3078 
Q 1150 3584 1784 3584 
Q 2172 3584 2448 3432 
Q 2725 3281 2906 2969 
z
M 947 1747 
Q 947 1113 1208 752 
Q 1469 391 1925 391 
Q 2381 391 2643 752 
Q 2906 1113 2906 1747 
Q 2906 2381 2643 2742 
Q 2381 3103 1925 3103 
Q 1469 3103 1208 2742 
Q 947 2381 947 1747 
z
" id="DejaVuSans-64" transform="scale(0.015625)"/>
      <path d="M 1959 3097 
Q 1497 3097 1228 2736 
Q 959 2375 959 1747 
Q 959 1119 1226 758 
Q 1494 397 1959 397 
Q 2419 397 2687 759 
Q 2956 1122 2956 1747 
Q 2956 2369 2687 2733 
Q 2419 3097 1959 3097 
z
M 1959 3584 
Q 2709 3584 3137 3096 
Q 3566 2609 3566 1747 
Q 3566 888 3137 398 
Q 2709 -91 1959 -91 
Q 1206 -91 779 398 
Q 353 888 353 1747 
Q 353 2609 779 3096 
Q 1206 3584 1959 3584 
z
" id="DejaVuSans-6f" transform="scale(0.015625)"/>
      <path d="M 3513 2113 
L 3513 0 
L 2938 0 
L 2938 2094 
Q 2938 2591 2744 2837 
Q 2550 3084 2163 3084 
Q 1697 3084 1428 2787 
Q 1159 2491 1159 1978 
L 1159 0 
L 581 0 
L 581 3500 
L 1159 3500 
L 1159 2956 
Q 1366 3272 1645 3428 
Q 1925 3584 2291 3584 
Q 2894 3584 3203 3211 
Q 3513 2838 3513 2113 
z
" id="DejaVuSans-6e" transform="scale(0.015625)"/>
      <path d="M 1228 531 
L 3431 531 
L 3431 0 
L 469 0 
L 469 531 
Q 828 903 1448 1529 
Q 2069 2156 2228 2338 
Q 2531 2678 2651 2914 
Q 2772 3150 2772 3378 
Q 2772 3750 2511 3984 
Q 2250 4219 1831 4219 
Q 1534 4219 1204 4116 
Q 875 4013 500 3803 
L 500 4441 
Q 881 4594 1212 4672 
Q 1544 4750 1819 4750 
Q 2544 4750 2975 4387 
Q 3406 4025 3406 3419 
Q 3406 3131 3298 2873 
Q 3191 2616 2906 2266 
Q 2828 2175 2409 1742 
Q 1991 1309 1228 531 
z
" id="DejaVuSans-32" transform="scale(0.015625)"/>
      <path d="M 794 531 
L 1825 531 
L 1825 4091 
L 703 3866 
L 703 4441 
L 1819 4666 
L 2450 4666 
L 2450 531 
L 3481 531 
L 3481 0 
L 794 0 
L 794 531 
z
" id="DejaVuSans-31" transform="scale(0.015625)"/>
      <path d="M 628 4666 
L 1569 4666 
L 2759 1491 
L 3956 4666 
L 4897 4666 
L 4897 0 
L 4281 0 
L 4281 4097 
L 3078 897 
L 2444 897 
L 1241 4097 
L 1241 0 
L 628 0 
L 628 4666 
z
" id="DejaVuSans-4d" transform="scale(0.015625)"/>
      <path d="M 2059 -325 
Q 1816 -950 1584 -1140 
Q 1353 -1331 966 -1331 
L 506 -1331 
L 506 -850 
L 844 -850 
Q 1081 -850 1212 -737 
Q 1344 -625 1503 -206 
L 1606 56 
L 191 3500 
L 800 3500 
L 1894 763 
L 2988 3500 
L 3597 3500 
L 2059 -325 
z
" id="DejaVuSans-79" transform="scale(0.015625)"/>
      <path d="M 2034 4250 
Q 1547 4250 1301 3770 
Q 1056 3291 1056 2328 
Q 1056 1369 1301 889 
Q 1547 409 2034 409 
Q 2525 409 2770 889 
Q 3016 1369 3016 2328 
Q 3016 3291 2770 3770 
Q 2525 4250 2034 4250 
z
M 2034 4750 
Q 2819 4750 3233 4129 
Q 3647 3509 3647 2328 
Q 3647 1150 3233 529 
Q 2819 -91 2034 -91 
Q 1250 -91 836 529 
Q 422 1150 422 2328 
Q 422 3509 836 4129 
Q 1250 4750 2034 4750 
z
" id="DejaVuSans-30" transform="scale(0.015625)"/>
     </defs>
     <use xlink:href="#DejaVuSans-4c"/>
     <use x="55.712891" xlink:href="#DejaVuSans-61"/>
     <use x="116.992188" xlink:href="#DejaVuSans-73"/>
     <use x="169.091797" xlink:href="#DejaVuSans-74"/>
     <use x="208.300781" xlink:href="#DejaVuSans-20"/>
     <use x="240.087891" xlink:href="#DejaVuSans-75"/>
     <use x="303.466797" xlink:href="#DejaVuSans-70"/>
     <use x="366.943359" xlink:href="#DejaVuSans-64"/>
     <use x="430.419922" xlink:href="#DejaVuSans-61"/>
     <use x="491.699219" xlink:href="#DejaVuSans-74"/>
     <use x="530.908203" xlink:href="#DejaVuSans-65"/>
     <use x="592.431641" xlink:href="#DejaVuSans-64"/>
     <use x="655.908203" xlink:href="#DejaVuSans-20"/>
     <use x="687.695312" xlink:href="#DejaVuSans-6f"/>
     <use x="748.876953" xlink:href="#DejaVuSans-6e"/>
     <use x="812.255859" xlink:href="#DejaVuSans-20"/>
     <use x="844.042969" xlink:href="#DejaVuSans-32"/>
     <use x="907.666016" xlink:href="#DejaVuSans-31"/>
     <use x="971.289062" xlink:href="#DejaVuSans-20"/>
     <use x="1003.076172" xlink:href="#DejaVuSans-4d"/>
     <use x="1089.355469" xlink:href="#DejaVuSans-61"/>
     <use x="1150.634766" xlink:href="#DejaVuSans-79"/>
     <use x="1209.814453" xlink:href="#DejaVuSans-20"/>
     <use x="1241.601562" xlink:href="#DejaVuSans-32"/>
     <use x="1305.224609" xlink:href="#DejaVuSans-30"/>
     <use x="1368.847656" xlink:href="#DejaVuSans-32"/>
     <use x="1432.470703" xlink:href="#DejaVuSans-31"/>
    </g>
   </g>
   <g id="legend_1">
    <g id="line2d_26">
     <path d="M 1015.497969 54.747969 
L 1041.497969 54.747969 
" style="fill:none;stroke:#000000;stroke-dasharray:1.5,2.475;stroke-dashoffset:0;stroke-opacity:0.5;stroke-width:1.5;"/>
    </g>
    <g id="line2d_27"/>
    <g id="text_26">
     <!-- Actual -->
     <g style="fill:#555555;" transform="translate(1051.897969 59.297969)scale(0.13 -0.13)">
      <use xlink:href="#DejaVuSans-Bold-41"/>
      <use x="77.392578" xlink:href="#DejaVuSans-Bold-63"/>
      <use x="136.669922" xlink:href="#DejaVuSans-Bold-74"/>
      <use x="184.472656" xlink:href="#DejaVuSans-Bold-75"/>
      <use x="255.664062" xlink:href="#DejaVuSans-Bold-61"/>
      <use x="323.144531" xlink:href="#DejaVuSans-Bold-6c"/>
     </g>
    </g>
    <g id="line2d_28">
     <path d="M 1015.497969 73.829531 
L 1041.497969 73.829531 
" style="fill:none;stroke:#000000;stroke-linecap:square;stroke-width:1.5;"/>
    </g>
    <g id="line2d_29"/>
    <g id="text_27">
     <!-- Smoothed -->
     <g style="fill:#555555;" transform="translate(1051.897969 78.379531)scale(0.13 -0.13)">
      <defs>
       <path d="M 3781 2919 
Q 3994 3244 4286 3414 
Q 4578 3584 4928 3584 
Q 5531 3584 5847 3212 
Q 6163 2841 6163 2131 
L 6163 0 
L 5038 0 
L 5038 1825 
Q 5041 1866 5042 1909 
Q 5044 1953 5044 2034 
Q 5044 2406 4934 2573 
Q 4825 2741 4581 2741 
Q 4263 2741 4089 2478 
Q 3916 2216 3909 1719 
L 3909 0 
L 2784 0 
L 2784 1825 
Q 2784 2406 2684 2573 
Q 2584 2741 2328 2741 
Q 2006 2741 1831 2477 
Q 1656 2213 1656 1722 
L 1656 0 
L 531 0 
L 531 3500 
L 1656 3500 
L 1656 2988 
Q 1863 3284 2130 3434 
Q 2397 3584 2719 3584 
Q 3081 3584 3359 3409 
Q 3638 3234 3781 2919 
z
" id="DejaVuSans-Bold-6d" transform="scale(0.015625)"/>
       <path d="M 4056 2131 
L 4056 0 
L 2931 0 
L 2931 347 
L 2931 1625 
Q 2931 2084 2911 2256 
Q 2891 2428 2841 2509 
Q 2775 2619 2662 2680 
Q 2550 2741 2406 2741 
Q 2056 2741 1856 2470 
Q 1656 2200 1656 1722 
L 1656 0 
L 538 0 
L 538 4863 
L 1656 4863 
L 1656 2988 
Q 1909 3294 2193 3439 
Q 2478 3584 2822 3584 
Q 3428 3584 3742 3212 
Q 4056 2841 4056 2131 
z
" id="DejaVuSans-Bold-68" transform="scale(0.015625)"/>
       <path d="M 2919 2988 
L 2919 4863 
L 4044 4863 
L 4044 0 
L 2919 0 
L 2919 506 
Q 2688 197 2409 53 
Q 2131 -91 1766 -91 
Q 1119 -91 703 423 
Q 288 938 288 1747 
Q 288 2556 703 3070 
Q 1119 3584 1766 3584 
Q 2128 3584 2408 3439 
Q 2688 3294 2919 2988 
z
M 2181 722 
Q 2541 722 2730 984 
Q 2919 1247 2919 1747 
Q 2919 2247 2730 2509 
Q 2541 2772 2181 2772 
Q 1825 2772 1636 2509 
Q 1447 2247 1447 1747 
Q 1447 1247 1636 984 
Q 1825 722 2181 722 
z
" id="DejaVuSans-Bold-64" transform="scale(0.015625)"/>
      </defs>
      <use xlink:href="#DejaVuSans-Bold-53"/>
      <use x="72.021484" xlink:href="#DejaVuSans-Bold-6d"/>
      <use x="176.220703" xlink:href="#DejaVuSans-Bold-6f"/>
      <use x="244.921875" xlink:href="#DejaVuSans-Bold-6f"/>
      <use x="313.623047" xlink:href="#DejaVuSans-Bold-74"/>
      <use x="361.425781" xlink:href="#DejaVuSans-Bold-68"/>
      <use x="432.617188" xlink:href="#DejaVuSans-Bold-65"/>
      <use x="500.439453" xlink:href="#DejaVuSans-Bold-64"/>
     </g>
    </g>
   </g>
  </g>
 </g>
 <defs>
  <clipPath id="p4ef92ba526">
   <rect height="503.56" width="1050.01" x="87.95" y="37.72"/>
  </clipPath>
 </defs>
</svg>
